G04 MADE WITH FRITZING*
G04 WWW.FRITZING.ORG*
G04 DOUBLE SIDED*
G04 HOLES PLATED*
G04 CONTOUR ON CENTER OF CONTOUR VECTOR*
%ASAXBY*%
%FSLAX23Y23*%
%MOIN*%
%OFA0B0*%
%SFA1.0B1.0*%
%ADD10C,0.075000*%
%ADD11C,0.099000*%
%ADD12C,0.073889*%
%ADD13C,0.070000*%
%ADD14C,0.039370*%
%ADD15R,0.075000X0.075000*%
%ADD16R,0.099000X0.099000*%
%ADD17R,0.035433X0.031496*%
%ADD18R,0.062992X0.074803*%
%ADD19R,0.074803X0.062992*%
%ADD20R,0.070000X0.070000*%
%ADD21C,0.024000*%
%ADD22C,0.008000*%
%ADD23R,0.001000X0.001000*%
%LNCOPPER1*%
G90*
G70*
G54D10*
X549Y1510D03*
X836Y1507D03*
X1674Y1652D03*
X1072Y800D03*
X54Y1650D03*
X154Y1650D03*
X254Y1650D03*
X354Y1650D03*
X454Y1650D03*
X554Y1650D03*
X654Y1650D03*
X754Y1650D03*
X854Y1650D03*
X954Y1650D03*
X1054Y1650D03*
X1154Y1650D03*
X1254Y1650D03*
X1354Y1650D03*
X1454Y1650D03*
X1554Y1650D03*
G54D11*
X194Y1429D03*
X394Y1429D03*
X294Y1229D03*
G54D10*
X63Y241D03*
X319Y241D03*
X63Y64D03*
X319Y64D03*
X535Y241D03*
X791Y241D03*
X535Y64D03*
X791Y64D03*
X2074Y91D03*
X1974Y91D03*
X1874Y91D03*
X1008Y241D03*
X1264Y241D03*
X1008Y64D03*
X1264Y64D03*
X1480Y241D03*
X1736Y241D03*
X1480Y64D03*
X1736Y64D03*
G54D12*
X180Y760D03*
X180Y860D03*
X180Y960D03*
X180Y1060D03*
G54D13*
X782Y922D03*
X882Y922D03*
X982Y922D03*
X1282Y922D03*
X1382Y922D03*
X1482Y922D03*
X1082Y922D03*
X1182Y922D03*
X1682Y922D03*
X1782Y922D03*
X1582Y922D03*
X782Y1022D03*
X882Y1022D03*
X982Y1022D03*
X1282Y1022D03*
X1382Y1022D03*
X1482Y1022D03*
X1082Y1022D03*
X1182Y1022D03*
X1682Y1022D03*
X1782Y1022D03*
X1582Y1022D03*
X582Y1022D03*
X682Y1022D03*
X582Y922D03*
X682Y922D03*
G54D14*
X244Y532D03*
X579Y532D03*
X1831Y753D03*
X531Y1190D03*
X1283Y1131D03*
X1378Y1135D03*
X1933Y1473D03*
X1044Y1267D03*
X277Y1110D03*
G54D15*
X54Y1651D03*
G54D16*
X394Y1429D03*
G54D17*
X1736Y1398D03*
X1736Y1473D03*
X1657Y1436D03*
G54D18*
X2031Y320D03*
X1909Y320D03*
G54D19*
X1831Y1398D03*
X1831Y1276D03*
G54D15*
X1874Y91D03*
G54D20*
X582Y922D03*
G54D21*
X883Y896D02*
X884Y875D01*
D02*
X884Y875D02*
X1020Y698D01*
D02*
X1020Y698D02*
X1799Y698D01*
D02*
X1909Y584D02*
X1909Y351D01*
D02*
X1799Y698D02*
X1909Y584D01*
D02*
X375Y1455D02*
X295Y1560D01*
D02*
X401Y1740D02*
X440Y1675D01*
D02*
X109Y1742D02*
X401Y1740D01*
D02*
X69Y1675D02*
X109Y1742D01*
D02*
X599Y1740D02*
X639Y1675D01*
D02*
X510Y1742D02*
X599Y1740D01*
D02*
X469Y1675D02*
X510Y1742D01*
D02*
X683Y1650D02*
X726Y1650D01*
D02*
X783Y1650D02*
X826Y1650D01*
D02*
X883Y1650D02*
X926Y1650D01*
D02*
X1650Y1446D02*
X1554Y1572D01*
D02*
X491Y1111D02*
X713Y1111D01*
D02*
X394Y1398D02*
X394Y1185D01*
D02*
X394Y1185D02*
X491Y1111D01*
D02*
X713Y1111D02*
X766Y1043D01*
G54D22*
D02*
X937Y974D02*
X830Y973D01*
D02*
X830Y973D02*
X797Y1008D01*
D02*
X969Y938D02*
X937Y974D01*
G54D21*
D02*
X560Y532D02*
X263Y532D01*
D02*
X579Y551D02*
X582Y896D01*
D02*
X575Y1630D02*
X1002Y1203D01*
D02*
X1002Y1203D02*
X1434Y1202D01*
D02*
X1434Y1202D02*
X1566Y1043D01*
D02*
X1748Y1398D02*
X1799Y1398D01*
D02*
X1508Y1339D02*
X1720Y1090D01*
D02*
X1855Y1090D02*
X1855Y855D01*
D02*
X1855Y855D02*
X1523Y854D01*
D02*
X1523Y854D02*
X1496Y900D01*
D02*
X1905Y1154D02*
X1905Y807D01*
D02*
X1905Y807D02*
X1268Y803D01*
D02*
X1268Y803D02*
X1197Y901D01*
D02*
X1074Y1629D02*
X1343Y1339D01*
D02*
X1273Y1629D02*
X1480Y1388D01*
G54D22*
D02*
X1240Y974D02*
X1198Y1009D01*
D02*
X1429Y974D02*
X1240Y974D01*
D02*
X1467Y1008D02*
X1429Y974D01*
G54D21*
D02*
X1391Y1121D02*
X1464Y1042D01*
D02*
X1748Y1473D02*
X1914Y1473D01*
D02*
X556Y1023D02*
X381Y1024D01*
D02*
X181Y757D02*
X278Y831D01*
D02*
X110Y808D02*
X181Y757D01*
D02*
X110Y1107D02*
X110Y808D01*
D02*
X192Y1197D02*
X110Y1107D01*
D02*
X193Y1398D02*
X192Y1197D01*
D02*
X2032Y288D02*
X2032Y197D01*
D02*
X1863Y1274D02*
X1905Y1271D01*
D02*
X550Y1190D02*
X748Y1190D01*
D02*
X748Y1190D02*
X866Y1043D01*
D02*
X1264Y1130D02*
X1157Y1130D01*
D02*
X1960Y116D02*
X1910Y201D01*
D02*
X1910Y201D02*
X1910Y288D01*
D02*
X1764Y69D02*
X1846Y86D01*
D02*
X213Y1067D02*
X221Y1069D01*
D02*
X394Y1185D02*
X394Y1398D01*
D02*
X279Y952D02*
X381Y1020D01*
D02*
X381Y1020D02*
X556Y1022D01*
D02*
X278Y831D02*
X279Y952D01*
D02*
X279Y832D02*
X207Y780D01*
D02*
X279Y957D02*
X279Y832D01*
D02*
X381Y1024D02*
X279Y957D01*
D02*
X2032Y197D02*
X2063Y118D01*
D02*
X118Y1560D02*
X71Y1627D01*
D02*
X295Y1560D02*
X118Y1560D01*
D02*
X221Y1069D02*
X262Y1099D01*
D02*
X1157Y1130D02*
X1097Y1044D01*
D02*
X1665Y1042D02*
X1475Y1265D01*
D02*
X1475Y1265D02*
X1063Y1267D01*
D02*
X1720Y1090D02*
X1855Y1090D01*
D02*
X1343Y1339D02*
X1508Y1339D01*
D02*
X1783Y1154D02*
X1905Y1154D01*
D02*
X1576Y1388D02*
X1783Y1154D01*
D02*
X1480Y1388D02*
X1576Y1388D01*
D02*
X1905Y1271D02*
X1968Y1191D01*
D02*
X1968Y753D02*
X1850Y753D01*
D02*
X1554Y1572D02*
X1554Y1622D01*
D02*
X1968Y1191D02*
X1968Y753D01*
D02*
X293Y1120D02*
X394Y1185D01*
G54D22*
D02*
X1032Y973D02*
X1134Y973D01*
D02*
X1134Y973D02*
X1168Y1008D01*
D02*
X996Y937D02*
X1032Y973D01*
G36*
X194Y1594D02*
X194Y1592D01*
X190Y1592D01*
X190Y1590D01*
X188Y1590D01*
X188Y1588D01*
X184Y1588D01*
X184Y1586D01*
X180Y1586D01*
X180Y1584D01*
X174Y1584D01*
X174Y1582D01*
X234Y1582D01*
X234Y1584D01*
X228Y1584D01*
X228Y1586D01*
X224Y1586D01*
X224Y1588D01*
X220Y1588D01*
X220Y1590D01*
X218Y1590D01*
X218Y1592D01*
X214Y1592D01*
X214Y1594D01*
X194Y1594D01*
G37*
D02*
G36*
X294Y1594D02*
X294Y1592D01*
X292Y1592D01*
X292Y1590D01*
X288Y1590D01*
X288Y1588D01*
X284Y1588D01*
X284Y1586D01*
X280Y1586D01*
X280Y1584D01*
X274Y1584D01*
X274Y1582D01*
X334Y1582D01*
X334Y1584D01*
X328Y1584D01*
X328Y1586D01*
X324Y1586D01*
X324Y1588D01*
X320Y1588D01*
X320Y1590D01*
X318Y1590D01*
X318Y1592D01*
X314Y1592D01*
X314Y1594D01*
X294Y1594D01*
G37*
D02*
G36*
X394Y1594D02*
X394Y1592D01*
X392Y1592D01*
X392Y1590D01*
X388Y1590D01*
X388Y1588D01*
X384Y1588D01*
X384Y1586D01*
X380Y1586D01*
X380Y1584D01*
X374Y1584D01*
X374Y1582D01*
X434Y1582D01*
X434Y1584D01*
X428Y1584D01*
X428Y1586D01*
X424Y1586D01*
X424Y1588D01*
X420Y1588D01*
X420Y1590D01*
X418Y1590D01*
X418Y1592D01*
X414Y1592D01*
X414Y1594D01*
X394Y1594D01*
G37*
D02*
G36*
X494Y1594D02*
X494Y1592D01*
X492Y1592D01*
X492Y1590D01*
X488Y1590D01*
X488Y1588D01*
X484Y1588D01*
X484Y1586D01*
X480Y1586D01*
X480Y1584D01*
X474Y1584D01*
X474Y1582D01*
X534Y1582D01*
X534Y1584D01*
X528Y1584D01*
X528Y1586D01*
X524Y1586D01*
X524Y1588D01*
X520Y1588D01*
X520Y1590D01*
X518Y1590D01*
X518Y1592D01*
X514Y1592D01*
X514Y1594D01*
X494Y1594D01*
G37*
D02*
G36*
X46Y1582D02*
X46Y1580D01*
X558Y1580D01*
X558Y1582D01*
X46Y1582D01*
G37*
D02*
G36*
X46Y1582D02*
X46Y1580D01*
X558Y1580D01*
X558Y1582D01*
X46Y1582D01*
G37*
D02*
G36*
X46Y1582D02*
X46Y1580D01*
X558Y1580D01*
X558Y1582D01*
X46Y1582D01*
G37*
D02*
G36*
X46Y1582D02*
X46Y1580D01*
X558Y1580D01*
X558Y1582D01*
X46Y1582D01*
G37*
D02*
G36*
X46Y1580D02*
X46Y1512D01*
X474Y1512D01*
X474Y1510D01*
X476Y1510D01*
X476Y1350D01*
X474Y1350D01*
X474Y1348D01*
X790Y1348D01*
X790Y1350D01*
X788Y1350D01*
X788Y1352D01*
X786Y1352D01*
X786Y1354D01*
X784Y1354D01*
X784Y1356D01*
X782Y1356D01*
X782Y1358D01*
X780Y1358D01*
X780Y1360D01*
X778Y1360D01*
X778Y1362D01*
X776Y1362D01*
X776Y1364D01*
X774Y1364D01*
X774Y1366D01*
X772Y1366D01*
X772Y1368D01*
X770Y1368D01*
X770Y1370D01*
X768Y1370D01*
X768Y1372D01*
X766Y1372D01*
X766Y1374D01*
X764Y1374D01*
X764Y1376D01*
X762Y1376D01*
X762Y1378D01*
X760Y1378D01*
X760Y1380D01*
X758Y1380D01*
X758Y1382D01*
X756Y1382D01*
X756Y1384D01*
X754Y1384D01*
X754Y1386D01*
X752Y1386D01*
X752Y1388D01*
X750Y1388D01*
X750Y1390D01*
X748Y1390D01*
X748Y1392D01*
X746Y1392D01*
X746Y1394D01*
X744Y1394D01*
X744Y1396D01*
X742Y1396D01*
X742Y1398D01*
X740Y1398D01*
X740Y1400D01*
X738Y1400D01*
X738Y1402D01*
X736Y1402D01*
X736Y1404D01*
X734Y1404D01*
X734Y1406D01*
X732Y1406D01*
X732Y1408D01*
X730Y1408D01*
X730Y1410D01*
X728Y1410D01*
X728Y1412D01*
X726Y1412D01*
X726Y1414D01*
X724Y1414D01*
X724Y1416D01*
X722Y1416D01*
X722Y1418D01*
X720Y1418D01*
X720Y1420D01*
X718Y1420D01*
X718Y1422D01*
X716Y1422D01*
X716Y1424D01*
X714Y1424D01*
X714Y1426D01*
X712Y1426D01*
X712Y1428D01*
X710Y1428D01*
X710Y1430D01*
X708Y1430D01*
X708Y1432D01*
X706Y1432D01*
X706Y1434D01*
X704Y1434D01*
X704Y1436D01*
X702Y1436D01*
X702Y1438D01*
X700Y1438D01*
X700Y1440D01*
X698Y1440D01*
X698Y1442D01*
X696Y1442D01*
X696Y1444D01*
X694Y1444D01*
X694Y1446D01*
X692Y1446D01*
X692Y1448D01*
X690Y1448D01*
X690Y1450D01*
X688Y1450D01*
X688Y1452D01*
X686Y1452D01*
X686Y1454D01*
X684Y1454D01*
X684Y1456D01*
X682Y1456D01*
X682Y1458D01*
X680Y1458D01*
X680Y1460D01*
X678Y1460D01*
X678Y1462D01*
X676Y1462D01*
X676Y1464D01*
X674Y1464D01*
X674Y1466D01*
X672Y1466D01*
X672Y1468D01*
X670Y1468D01*
X670Y1470D01*
X668Y1470D01*
X668Y1472D01*
X666Y1472D01*
X666Y1474D01*
X664Y1474D01*
X664Y1476D01*
X662Y1476D01*
X662Y1478D01*
X660Y1478D01*
X660Y1480D01*
X658Y1480D01*
X658Y1482D01*
X656Y1482D01*
X656Y1484D01*
X654Y1484D01*
X654Y1486D01*
X652Y1486D01*
X652Y1488D01*
X650Y1488D01*
X650Y1490D01*
X648Y1490D01*
X648Y1492D01*
X646Y1492D01*
X646Y1494D01*
X644Y1494D01*
X644Y1496D01*
X642Y1496D01*
X642Y1498D01*
X640Y1498D01*
X640Y1500D01*
X638Y1500D01*
X638Y1502D01*
X636Y1502D01*
X636Y1504D01*
X634Y1504D01*
X634Y1506D01*
X632Y1506D01*
X632Y1508D01*
X630Y1508D01*
X630Y1510D01*
X628Y1510D01*
X628Y1512D01*
X626Y1512D01*
X626Y1514D01*
X624Y1514D01*
X624Y1516D01*
X622Y1516D01*
X622Y1518D01*
X620Y1518D01*
X620Y1520D01*
X618Y1520D01*
X618Y1522D01*
X616Y1522D01*
X616Y1524D01*
X614Y1524D01*
X614Y1526D01*
X612Y1526D01*
X612Y1528D01*
X610Y1528D01*
X610Y1530D01*
X608Y1530D01*
X608Y1532D01*
X606Y1532D01*
X606Y1534D01*
X604Y1534D01*
X604Y1536D01*
X602Y1536D01*
X602Y1538D01*
X600Y1538D01*
X600Y1540D01*
X598Y1540D01*
X598Y1542D01*
X596Y1542D01*
X596Y1544D01*
X594Y1544D01*
X594Y1546D01*
X592Y1546D01*
X592Y1548D01*
X590Y1548D01*
X590Y1550D01*
X588Y1550D01*
X588Y1552D01*
X586Y1552D01*
X586Y1554D01*
X584Y1554D01*
X584Y1556D01*
X582Y1556D01*
X582Y1558D01*
X580Y1558D01*
X580Y1560D01*
X578Y1560D01*
X578Y1562D01*
X576Y1562D01*
X576Y1564D01*
X574Y1564D01*
X574Y1566D01*
X572Y1566D01*
X572Y1568D01*
X570Y1568D01*
X570Y1570D01*
X568Y1570D01*
X568Y1572D01*
X566Y1572D01*
X566Y1574D01*
X564Y1574D01*
X564Y1576D01*
X562Y1576D01*
X562Y1578D01*
X560Y1578D01*
X560Y1580D01*
X46Y1580D01*
G37*
D02*
G36*
X46Y1512D02*
X46Y692D01*
X162Y692D01*
X162Y694D01*
X156Y694D01*
X156Y696D01*
X150Y696D01*
X150Y698D01*
X146Y698D01*
X146Y700D01*
X144Y700D01*
X144Y702D01*
X140Y702D01*
X140Y704D01*
X138Y704D01*
X138Y706D01*
X136Y706D01*
X136Y708D01*
X134Y708D01*
X134Y710D01*
X130Y710D01*
X130Y714D01*
X128Y714D01*
X128Y716D01*
X126Y716D01*
X126Y718D01*
X124Y718D01*
X124Y720D01*
X122Y720D01*
X122Y724D01*
X120Y724D01*
X120Y726D01*
X118Y726D01*
X118Y730D01*
X116Y730D01*
X116Y734D01*
X114Y734D01*
X114Y740D01*
X112Y740D01*
X112Y750D01*
X110Y750D01*
X110Y752D01*
X106Y752D01*
X106Y754D01*
X104Y754D01*
X104Y756D01*
X100Y756D01*
X100Y758D01*
X98Y758D01*
X98Y760D01*
X96Y760D01*
X96Y762D01*
X92Y762D01*
X92Y764D01*
X90Y764D01*
X90Y766D01*
X86Y766D01*
X86Y768D01*
X84Y768D01*
X84Y770D01*
X80Y770D01*
X80Y772D01*
X78Y772D01*
X78Y774D01*
X76Y774D01*
X76Y776D01*
X74Y776D01*
X74Y778D01*
X72Y778D01*
X72Y782D01*
X70Y782D01*
X70Y786D01*
X68Y786D01*
X68Y790D01*
X66Y790D01*
X66Y1124D01*
X68Y1124D01*
X68Y1130D01*
X70Y1130D01*
X70Y1134D01*
X72Y1134D01*
X72Y1136D01*
X74Y1136D01*
X74Y1140D01*
X76Y1140D01*
X76Y1142D01*
X78Y1142D01*
X78Y1144D01*
X80Y1144D01*
X80Y1146D01*
X82Y1146D01*
X82Y1148D01*
X84Y1148D01*
X84Y1150D01*
X86Y1150D01*
X86Y1152D01*
X88Y1152D01*
X88Y1154D01*
X90Y1154D01*
X90Y1156D01*
X92Y1156D01*
X92Y1158D01*
X94Y1158D01*
X94Y1160D01*
X96Y1160D01*
X96Y1164D01*
X98Y1164D01*
X98Y1166D01*
X100Y1166D01*
X100Y1168D01*
X102Y1168D01*
X102Y1170D01*
X104Y1170D01*
X104Y1172D01*
X106Y1172D01*
X106Y1174D01*
X108Y1174D01*
X108Y1176D01*
X110Y1176D01*
X110Y1178D01*
X112Y1178D01*
X112Y1180D01*
X114Y1180D01*
X114Y1182D01*
X116Y1182D01*
X116Y1184D01*
X118Y1184D01*
X118Y1188D01*
X120Y1188D01*
X120Y1190D01*
X122Y1190D01*
X122Y1192D01*
X124Y1192D01*
X124Y1194D01*
X126Y1194D01*
X126Y1196D01*
X128Y1196D01*
X128Y1198D01*
X130Y1198D01*
X130Y1200D01*
X132Y1200D01*
X132Y1202D01*
X134Y1202D01*
X134Y1204D01*
X136Y1204D01*
X136Y1206D01*
X138Y1206D01*
X138Y1208D01*
X140Y1208D01*
X140Y1212D01*
X142Y1212D01*
X142Y1214D01*
X144Y1214D01*
X144Y1216D01*
X146Y1216D01*
X146Y1218D01*
X148Y1218D01*
X148Y1336D01*
X150Y1336D01*
X150Y1362D01*
X146Y1362D01*
X146Y1364D01*
X144Y1364D01*
X144Y1366D01*
X142Y1366D01*
X142Y1368D01*
X140Y1368D01*
X140Y1370D01*
X138Y1370D01*
X138Y1372D01*
X136Y1372D01*
X136Y1374D01*
X134Y1374D01*
X134Y1376D01*
X132Y1376D01*
X132Y1378D01*
X130Y1378D01*
X130Y1380D01*
X128Y1380D01*
X128Y1382D01*
X126Y1382D01*
X126Y1386D01*
X124Y1386D01*
X124Y1388D01*
X122Y1388D01*
X122Y1392D01*
X120Y1392D01*
X120Y1396D01*
X118Y1396D01*
X118Y1400D01*
X116Y1400D01*
X116Y1406D01*
X114Y1406D01*
X114Y1414D01*
X112Y1414D01*
X112Y1446D01*
X114Y1446D01*
X114Y1454D01*
X116Y1454D01*
X116Y1460D01*
X118Y1460D01*
X118Y1464D01*
X120Y1464D01*
X120Y1468D01*
X122Y1468D01*
X122Y1472D01*
X124Y1472D01*
X124Y1474D01*
X126Y1474D01*
X126Y1476D01*
X128Y1476D01*
X128Y1480D01*
X130Y1480D01*
X130Y1482D01*
X132Y1482D01*
X132Y1484D01*
X134Y1484D01*
X134Y1486D01*
X136Y1486D01*
X136Y1488D01*
X138Y1488D01*
X138Y1490D01*
X140Y1490D01*
X140Y1492D01*
X142Y1492D01*
X142Y1494D01*
X144Y1494D01*
X144Y1496D01*
X148Y1496D01*
X148Y1498D01*
X150Y1498D01*
X150Y1500D01*
X154Y1500D01*
X154Y1502D01*
X156Y1502D01*
X156Y1504D01*
X160Y1504D01*
X160Y1506D01*
X166Y1506D01*
X166Y1508D01*
X172Y1508D01*
X172Y1510D01*
X182Y1510D01*
X182Y1512D01*
X46Y1512D01*
G37*
D02*
G36*
X204Y1512D02*
X204Y1510D01*
X216Y1510D01*
X216Y1508D01*
X222Y1508D01*
X222Y1506D01*
X226Y1506D01*
X226Y1504D01*
X230Y1504D01*
X230Y1502D01*
X234Y1502D01*
X234Y1500D01*
X238Y1500D01*
X238Y1498D01*
X240Y1498D01*
X240Y1496D01*
X242Y1496D01*
X242Y1494D01*
X246Y1494D01*
X246Y1492D01*
X248Y1492D01*
X248Y1490D01*
X250Y1490D01*
X250Y1488D01*
X252Y1488D01*
X252Y1486D01*
X254Y1486D01*
X254Y1484D01*
X256Y1484D01*
X256Y1480D01*
X258Y1480D01*
X258Y1478D01*
X260Y1478D01*
X260Y1476D01*
X262Y1476D01*
X262Y1472D01*
X264Y1472D01*
X264Y1470D01*
X266Y1470D01*
X266Y1466D01*
X268Y1466D01*
X268Y1462D01*
X270Y1462D01*
X270Y1458D01*
X272Y1458D01*
X272Y1452D01*
X274Y1452D01*
X274Y1440D01*
X276Y1440D01*
X276Y1420D01*
X274Y1420D01*
X274Y1408D01*
X272Y1408D01*
X272Y1402D01*
X270Y1402D01*
X270Y1398D01*
X268Y1398D01*
X268Y1394D01*
X266Y1394D01*
X266Y1390D01*
X264Y1390D01*
X264Y1386D01*
X262Y1386D01*
X262Y1384D01*
X260Y1384D01*
X260Y1380D01*
X258Y1380D01*
X258Y1378D01*
X256Y1378D01*
X256Y1376D01*
X254Y1376D01*
X254Y1374D01*
X252Y1374D01*
X252Y1372D01*
X250Y1372D01*
X250Y1370D01*
X248Y1370D01*
X248Y1368D01*
X246Y1368D01*
X246Y1366D01*
X244Y1366D01*
X244Y1364D01*
X240Y1364D01*
X240Y1362D01*
X238Y1362D01*
X238Y1348D01*
X312Y1348D01*
X312Y1512D01*
X204Y1512D01*
G37*
D02*
G36*
X238Y1348D02*
X238Y1346D01*
X792Y1346D01*
X792Y1348D01*
X238Y1348D01*
G37*
D02*
G36*
X238Y1348D02*
X238Y1346D01*
X792Y1346D01*
X792Y1348D01*
X238Y1348D01*
G37*
D02*
G36*
X238Y1346D02*
X238Y1320D01*
X236Y1320D01*
X236Y1312D01*
X304Y1312D01*
X304Y1310D01*
X316Y1310D01*
X316Y1308D01*
X322Y1308D01*
X322Y1306D01*
X326Y1306D01*
X326Y1304D01*
X330Y1304D01*
X330Y1302D01*
X334Y1302D01*
X334Y1300D01*
X338Y1300D01*
X338Y1298D01*
X340Y1298D01*
X340Y1296D01*
X342Y1296D01*
X342Y1294D01*
X346Y1294D01*
X346Y1292D01*
X348Y1292D01*
X348Y1290D01*
X350Y1290D01*
X350Y1288D01*
X352Y1288D01*
X352Y1286D01*
X354Y1286D01*
X354Y1284D01*
X356Y1284D01*
X356Y1280D01*
X358Y1280D01*
X358Y1278D01*
X360Y1278D01*
X360Y1276D01*
X362Y1276D01*
X362Y1272D01*
X364Y1272D01*
X364Y1270D01*
X366Y1270D01*
X366Y1266D01*
X368Y1266D01*
X368Y1262D01*
X370Y1262D01*
X370Y1258D01*
X372Y1258D01*
X372Y1252D01*
X374Y1252D01*
X374Y1242D01*
X544Y1242D01*
X544Y1240D01*
X550Y1240D01*
X550Y1238D01*
X556Y1238D01*
X556Y1236D01*
X558Y1236D01*
X558Y1234D01*
X766Y1234D01*
X766Y1232D01*
X770Y1232D01*
X770Y1230D01*
X774Y1230D01*
X774Y1228D01*
X778Y1228D01*
X778Y1226D01*
X780Y1226D01*
X780Y1224D01*
X782Y1224D01*
X782Y1222D01*
X784Y1222D01*
X784Y1220D01*
X786Y1220D01*
X786Y1216D01*
X788Y1216D01*
X788Y1214D01*
X790Y1214D01*
X790Y1212D01*
X792Y1212D01*
X792Y1210D01*
X794Y1210D01*
X794Y1206D01*
X796Y1206D01*
X796Y1204D01*
X798Y1204D01*
X798Y1202D01*
X800Y1202D01*
X800Y1200D01*
X802Y1200D01*
X802Y1196D01*
X804Y1196D01*
X804Y1194D01*
X806Y1194D01*
X806Y1192D01*
X808Y1192D01*
X808Y1190D01*
X810Y1190D01*
X810Y1186D01*
X812Y1186D01*
X812Y1184D01*
X814Y1184D01*
X814Y1182D01*
X816Y1182D01*
X816Y1180D01*
X818Y1180D01*
X818Y1176D01*
X820Y1176D01*
X820Y1174D01*
X822Y1174D01*
X822Y1172D01*
X824Y1172D01*
X824Y1170D01*
X826Y1170D01*
X826Y1166D01*
X828Y1166D01*
X828Y1164D01*
X830Y1164D01*
X830Y1162D01*
X832Y1162D01*
X832Y1160D01*
X834Y1160D01*
X834Y1156D01*
X836Y1156D01*
X836Y1154D01*
X838Y1154D01*
X838Y1152D01*
X840Y1152D01*
X840Y1150D01*
X842Y1150D01*
X842Y1146D01*
X844Y1146D01*
X844Y1144D01*
X846Y1144D01*
X846Y1142D01*
X848Y1142D01*
X848Y1140D01*
X850Y1140D01*
X850Y1136D01*
X852Y1136D01*
X852Y1134D01*
X854Y1134D01*
X854Y1132D01*
X856Y1132D01*
X856Y1130D01*
X858Y1130D01*
X858Y1126D01*
X860Y1126D01*
X860Y1124D01*
X862Y1124D01*
X862Y1122D01*
X864Y1122D01*
X864Y1120D01*
X866Y1120D01*
X866Y1116D01*
X868Y1116D01*
X868Y1114D01*
X870Y1114D01*
X870Y1112D01*
X872Y1112D01*
X872Y1110D01*
X874Y1110D01*
X874Y1106D01*
X876Y1106D01*
X876Y1104D01*
X878Y1104D01*
X878Y1102D01*
X880Y1102D01*
X880Y1100D01*
X882Y1100D01*
X882Y1096D01*
X884Y1096D01*
X884Y1094D01*
X886Y1094D01*
X886Y1092D01*
X888Y1092D01*
X888Y1090D01*
X996Y1090D01*
X996Y1088D01*
X1004Y1088D01*
X1004Y1086D01*
X1010Y1086D01*
X1010Y1084D01*
X1014Y1084D01*
X1014Y1082D01*
X1016Y1082D01*
X1016Y1080D01*
X1020Y1080D01*
X1020Y1078D01*
X1022Y1078D01*
X1022Y1076D01*
X1042Y1076D01*
X1042Y1078D01*
X1044Y1078D01*
X1044Y1080D01*
X1048Y1080D01*
X1048Y1082D01*
X1052Y1082D01*
X1052Y1084D01*
X1056Y1084D01*
X1056Y1086D01*
X1060Y1086D01*
X1060Y1088D01*
X1068Y1088D01*
X1068Y1090D01*
X1072Y1090D01*
X1072Y1092D01*
X1074Y1092D01*
X1074Y1094D01*
X1076Y1094D01*
X1076Y1096D01*
X1078Y1096D01*
X1078Y1100D01*
X1080Y1100D01*
X1080Y1102D01*
X1082Y1102D01*
X1082Y1106D01*
X1084Y1106D01*
X1084Y1108D01*
X1086Y1108D01*
X1086Y1112D01*
X1088Y1112D01*
X1088Y1114D01*
X1090Y1114D01*
X1090Y1116D01*
X1092Y1116D01*
X1092Y1120D01*
X1094Y1120D01*
X1094Y1122D01*
X1096Y1122D01*
X1096Y1126D01*
X1098Y1126D01*
X1098Y1128D01*
X1100Y1128D01*
X1100Y1132D01*
X1102Y1132D01*
X1102Y1134D01*
X1104Y1134D01*
X1104Y1136D01*
X1106Y1136D01*
X1106Y1158D01*
X1026Y1158D01*
X1026Y1160D01*
X984Y1160D01*
X984Y1162D01*
X978Y1162D01*
X978Y1164D01*
X974Y1164D01*
X974Y1166D01*
X972Y1166D01*
X972Y1168D01*
X970Y1168D01*
X970Y1170D01*
X968Y1170D01*
X968Y1172D01*
X966Y1172D01*
X966Y1174D01*
X964Y1174D01*
X964Y1176D01*
X962Y1176D01*
X962Y1178D01*
X960Y1178D01*
X960Y1180D01*
X958Y1180D01*
X958Y1182D01*
X956Y1182D01*
X956Y1184D01*
X954Y1184D01*
X954Y1186D01*
X952Y1186D01*
X952Y1188D01*
X950Y1188D01*
X950Y1190D01*
X948Y1190D01*
X948Y1192D01*
X946Y1192D01*
X946Y1194D01*
X944Y1194D01*
X944Y1196D01*
X942Y1196D01*
X942Y1198D01*
X940Y1198D01*
X940Y1200D01*
X938Y1200D01*
X938Y1202D01*
X936Y1202D01*
X936Y1204D01*
X934Y1204D01*
X934Y1206D01*
X932Y1206D01*
X932Y1208D01*
X930Y1208D01*
X930Y1210D01*
X928Y1210D01*
X928Y1212D01*
X926Y1212D01*
X926Y1214D01*
X924Y1214D01*
X924Y1216D01*
X922Y1216D01*
X922Y1218D01*
X920Y1218D01*
X920Y1220D01*
X918Y1220D01*
X918Y1222D01*
X916Y1222D01*
X916Y1224D01*
X914Y1224D01*
X914Y1226D01*
X912Y1226D01*
X912Y1228D01*
X910Y1228D01*
X910Y1230D01*
X908Y1230D01*
X908Y1232D01*
X906Y1232D01*
X906Y1234D01*
X904Y1234D01*
X904Y1236D01*
X902Y1236D01*
X902Y1238D01*
X900Y1238D01*
X900Y1240D01*
X898Y1240D01*
X898Y1242D01*
X896Y1242D01*
X896Y1244D01*
X894Y1244D01*
X894Y1246D01*
X892Y1246D01*
X892Y1248D01*
X890Y1248D01*
X890Y1250D01*
X888Y1250D01*
X888Y1252D01*
X886Y1252D01*
X886Y1254D01*
X884Y1254D01*
X884Y1256D01*
X882Y1256D01*
X882Y1258D01*
X880Y1258D01*
X880Y1260D01*
X878Y1260D01*
X878Y1262D01*
X876Y1262D01*
X876Y1264D01*
X874Y1264D01*
X874Y1266D01*
X872Y1266D01*
X872Y1268D01*
X870Y1268D01*
X870Y1270D01*
X868Y1270D01*
X868Y1272D01*
X866Y1272D01*
X866Y1274D01*
X864Y1274D01*
X864Y1276D01*
X862Y1276D01*
X862Y1278D01*
X860Y1278D01*
X860Y1280D01*
X858Y1280D01*
X858Y1282D01*
X856Y1282D01*
X856Y1284D01*
X854Y1284D01*
X854Y1286D01*
X852Y1286D01*
X852Y1288D01*
X850Y1288D01*
X850Y1290D01*
X848Y1290D01*
X848Y1292D01*
X846Y1292D01*
X846Y1294D01*
X844Y1294D01*
X844Y1296D01*
X842Y1296D01*
X842Y1298D01*
X840Y1298D01*
X840Y1300D01*
X838Y1300D01*
X838Y1302D01*
X836Y1302D01*
X836Y1304D01*
X834Y1304D01*
X834Y1306D01*
X832Y1306D01*
X832Y1308D01*
X830Y1308D01*
X830Y1310D01*
X828Y1310D01*
X828Y1312D01*
X826Y1312D01*
X826Y1314D01*
X824Y1314D01*
X824Y1316D01*
X822Y1316D01*
X822Y1318D01*
X820Y1318D01*
X820Y1320D01*
X818Y1320D01*
X818Y1322D01*
X816Y1322D01*
X816Y1324D01*
X814Y1324D01*
X814Y1326D01*
X812Y1326D01*
X812Y1328D01*
X810Y1328D01*
X810Y1330D01*
X808Y1330D01*
X808Y1332D01*
X806Y1332D01*
X806Y1334D01*
X804Y1334D01*
X804Y1336D01*
X802Y1336D01*
X802Y1338D01*
X800Y1338D01*
X800Y1340D01*
X798Y1340D01*
X798Y1342D01*
X796Y1342D01*
X796Y1344D01*
X794Y1344D01*
X794Y1346D01*
X238Y1346D01*
G37*
D02*
G36*
X236Y1312D02*
X236Y1302D01*
X256Y1302D01*
X256Y1304D01*
X260Y1304D01*
X260Y1306D01*
X266Y1306D01*
X266Y1308D01*
X272Y1308D01*
X272Y1310D01*
X282Y1310D01*
X282Y1312D01*
X236Y1312D01*
G37*
D02*
G36*
X374Y1242D02*
X374Y1240D01*
X376Y1240D01*
X376Y1220D01*
X374Y1220D01*
X374Y1208D01*
X372Y1208D01*
X372Y1202D01*
X370Y1202D01*
X370Y1198D01*
X368Y1198D01*
X368Y1194D01*
X366Y1194D01*
X366Y1190D01*
X364Y1190D01*
X364Y1186D01*
X362Y1186D01*
X362Y1184D01*
X360Y1184D01*
X360Y1180D01*
X358Y1180D01*
X358Y1178D01*
X356Y1178D01*
X356Y1176D01*
X354Y1176D01*
X354Y1174D01*
X352Y1174D01*
X352Y1172D01*
X350Y1172D01*
X350Y1170D01*
X348Y1170D01*
X348Y1168D01*
X346Y1168D01*
X346Y1166D01*
X344Y1166D01*
X344Y1164D01*
X340Y1164D01*
X340Y1162D01*
X338Y1162D01*
X338Y1160D01*
X334Y1160D01*
X334Y1158D01*
X332Y1158D01*
X332Y1156D01*
X328Y1156D01*
X328Y1154D01*
X324Y1154D01*
X324Y1138D01*
X518Y1138D01*
X518Y1140D01*
X512Y1140D01*
X512Y1142D01*
X508Y1142D01*
X508Y1144D01*
X504Y1144D01*
X504Y1146D01*
X502Y1146D01*
X502Y1148D01*
X498Y1148D01*
X498Y1150D01*
X496Y1150D01*
X496Y1152D01*
X494Y1152D01*
X494Y1154D01*
X492Y1154D01*
X492Y1156D01*
X490Y1156D01*
X490Y1160D01*
X488Y1160D01*
X488Y1162D01*
X486Y1162D01*
X486Y1166D01*
X484Y1166D01*
X484Y1170D01*
X482Y1170D01*
X482Y1174D01*
X480Y1174D01*
X480Y1206D01*
X482Y1206D01*
X482Y1210D01*
X484Y1210D01*
X484Y1214D01*
X486Y1214D01*
X486Y1218D01*
X488Y1218D01*
X488Y1220D01*
X490Y1220D01*
X490Y1224D01*
X492Y1224D01*
X492Y1226D01*
X494Y1226D01*
X494Y1228D01*
X496Y1228D01*
X496Y1230D01*
X498Y1230D01*
X498Y1232D01*
X502Y1232D01*
X502Y1234D01*
X504Y1234D01*
X504Y1236D01*
X508Y1236D01*
X508Y1238D01*
X512Y1238D01*
X512Y1240D01*
X518Y1240D01*
X518Y1242D01*
X374Y1242D01*
G37*
D02*
G36*
X558Y1146D02*
X558Y1144D01*
X556Y1144D01*
X556Y1142D01*
X550Y1142D01*
X550Y1140D01*
X544Y1140D01*
X544Y1138D01*
X730Y1138D01*
X730Y1140D01*
X728Y1140D01*
X728Y1142D01*
X726Y1142D01*
X726Y1144D01*
X724Y1144D01*
X724Y1146D01*
X558Y1146D01*
G37*
D02*
G36*
X324Y1138D02*
X324Y1136D01*
X730Y1136D01*
X730Y1138D01*
X324Y1138D01*
G37*
D02*
G36*
X324Y1138D02*
X324Y1136D01*
X730Y1136D01*
X730Y1138D01*
X324Y1138D01*
G37*
D02*
G36*
X324Y1136D02*
X324Y1132D01*
X326Y1132D01*
X326Y1128D01*
X328Y1128D01*
X328Y1094D01*
X326Y1094D01*
X326Y1090D01*
X696Y1090D01*
X696Y1088D01*
X704Y1088D01*
X704Y1086D01*
X710Y1086D01*
X710Y1084D01*
X714Y1084D01*
X714Y1082D01*
X716Y1082D01*
X716Y1080D01*
X720Y1080D01*
X720Y1078D01*
X722Y1078D01*
X722Y1076D01*
X742Y1076D01*
X742Y1078D01*
X744Y1078D01*
X744Y1080D01*
X748Y1080D01*
X748Y1082D01*
X752Y1082D01*
X752Y1084D01*
X756Y1084D01*
X756Y1106D01*
X754Y1106D01*
X754Y1110D01*
X752Y1110D01*
X752Y1112D01*
X750Y1112D01*
X750Y1114D01*
X748Y1114D01*
X748Y1116D01*
X746Y1116D01*
X746Y1120D01*
X744Y1120D01*
X744Y1122D01*
X742Y1122D01*
X742Y1124D01*
X740Y1124D01*
X740Y1126D01*
X738Y1126D01*
X738Y1130D01*
X736Y1130D01*
X736Y1132D01*
X734Y1132D01*
X734Y1134D01*
X732Y1134D01*
X732Y1136D01*
X324Y1136D01*
G37*
D02*
G36*
X326Y1090D02*
X326Y1088D01*
X324Y1088D01*
X324Y1084D01*
X322Y1084D01*
X322Y1082D01*
X320Y1082D01*
X320Y1078D01*
X318Y1078D01*
X318Y1076D01*
X316Y1076D01*
X316Y1074D01*
X314Y1074D01*
X314Y1072D01*
X312Y1072D01*
X312Y1070D01*
X310Y1070D01*
X310Y1068D01*
X306Y1068D01*
X306Y1066D01*
X304Y1066D01*
X304Y1064D01*
X300Y1064D01*
X300Y1062D01*
X296Y1062D01*
X296Y1060D01*
X288Y1060D01*
X288Y1058D01*
X248Y1058D01*
X248Y1042D01*
X246Y1042D01*
X246Y1036D01*
X244Y1036D01*
X244Y1030D01*
X242Y1030D01*
X242Y1028D01*
X240Y1028D01*
X240Y1024D01*
X238Y1024D01*
X238Y1020D01*
X236Y1020D01*
X236Y1000D01*
X238Y1000D01*
X238Y998D01*
X258Y998D01*
X258Y1000D01*
X262Y1000D01*
X262Y1002D01*
X264Y1002D01*
X264Y1004D01*
X268Y1004D01*
X268Y1006D01*
X270Y1006D01*
X270Y1008D01*
X274Y1008D01*
X274Y1010D01*
X276Y1010D01*
X276Y1012D01*
X280Y1012D01*
X280Y1014D01*
X282Y1014D01*
X282Y1016D01*
X286Y1016D01*
X286Y1018D01*
X288Y1018D01*
X288Y1020D01*
X292Y1020D01*
X292Y1022D01*
X294Y1022D01*
X294Y1024D01*
X298Y1024D01*
X298Y1026D01*
X300Y1026D01*
X300Y1028D01*
X304Y1028D01*
X304Y1030D01*
X306Y1030D01*
X306Y1032D01*
X310Y1032D01*
X310Y1034D01*
X312Y1034D01*
X312Y1036D01*
X316Y1036D01*
X316Y1038D01*
X318Y1038D01*
X318Y1040D01*
X322Y1040D01*
X322Y1042D01*
X324Y1042D01*
X324Y1044D01*
X328Y1044D01*
X328Y1046D01*
X330Y1046D01*
X330Y1048D01*
X334Y1048D01*
X334Y1050D01*
X336Y1050D01*
X336Y1052D01*
X340Y1052D01*
X340Y1054D01*
X342Y1054D01*
X342Y1056D01*
X346Y1056D01*
X346Y1058D01*
X348Y1058D01*
X348Y1060D01*
X352Y1060D01*
X352Y1062D01*
X354Y1062D01*
X354Y1064D01*
X358Y1064D01*
X358Y1066D01*
X364Y1066D01*
X364Y1068D01*
X534Y1068D01*
X534Y1070D01*
X536Y1070D01*
X536Y1072D01*
X538Y1072D01*
X538Y1074D01*
X540Y1074D01*
X540Y1076D01*
X542Y1076D01*
X542Y1078D01*
X544Y1078D01*
X544Y1080D01*
X548Y1080D01*
X548Y1082D01*
X552Y1082D01*
X552Y1084D01*
X556Y1084D01*
X556Y1086D01*
X560Y1086D01*
X560Y1088D01*
X568Y1088D01*
X568Y1090D01*
X326Y1090D01*
G37*
D02*
G36*
X596Y1090D02*
X596Y1088D01*
X604Y1088D01*
X604Y1086D01*
X610Y1086D01*
X610Y1084D01*
X614Y1084D01*
X614Y1082D01*
X616Y1082D01*
X616Y1080D01*
X620Y1080D01*
X620Y1078D01*
X622Y1078D01*
X622Y1076D01*
X642Y1076D01*
X642Y1078D01*
X644Y1078D01*
X644Y1080D01*
X648Y1080D01*
X648Y1082D01*
X652Y1082D01*
X652Y1084D01*
X656Y1084D01*
X656Y1086D01*
X660Y1086D01*
X660Y1088D01*
X668Y1088D01*
X668Y1090D01*
X596Y1090D01*
G37*
D02*
G36*
X896Y1090D02*
X896Y1088D01*
X904Y1088D01*
X904Y1086D01*
X910Y1086D01*
X910Y1084D01*
X914Y1084D01*
X914Y1082D01*
X916Y1082D01*
X916Y1080D01*
X920Y1080D01*
X920Y1078D01*
X922Y1078D01*
X922Y1076D01*
X942Y1076D01*
X942Y1078D01*
X944Y1078D01*
X944Y1080D01*
X948Y1080D01*
X948Y1082D01*
X952Y1082D01*
X952Y1084D01*
X956Y1084D01*
X956Y1086D01*
X960Y1086D01*
X960Y1088D01*
X968Y1088D01*
X968Y1090D01*
X896Y1090D01*
G37*
D02*
G36*
X462Y978D02*
X462Y976D01*
X398Y976D01*
X398Y974D01*
X394Y974D01*
X394Y972D01*
X392Y972D01*
X392Y970D01*
X388Y970D01*
X388Y968D01*
X386Y968D01*
X386Y966D01*
X382Y966D01*
X382Y964D01*
X380Y964D01*
X380Y962D01*
X376Y962D01*
X376Y960D01*
X374Y960D01*
X374Y958D01*
X370Y958D01*
X370Y956D01*
X368Y956D01*
X368Y954D01*
X364Y954D01*
X364Y952D01*
X362Y952D01*
X362Y950D01*
X358Y950D01*
X358Y948D01*
X356Y948D01*
X356Y946D01*
X352Y946D01*
X352Y944D01*
X350Y944D01*
X350Y942D01*
X346Y942D01*
X346Y940D01*
X344Y940D01*
X344Y938D01*
X340Y938D01*
X340Y936D01*
X338Y936D01*
X338Y934D01*
X334Y934D01*
X334Y932D01*
X332Y932D01*
X332Y930D01*
X328Y930D01*
X328Y928D01*
X326Y928D01*
X326Y926D01*
X324Y926D01*
X324Y822D01*
X322Y822D01*
X322Y812D01*
X320Y812D01*
X320Y808D01*
X318Y808D01*
X318Y804D01*
X316Y804D01*
X316Y802D01*
X314Y802D01*
X314Y800D01*
X312Y800D01*
X312Y798D01*
X310Y798D01*
X310Y796D01*
X308Y796D01*
X308Y794D01*
X306Y794D01*
X306Y792D01*
X302Y792D01*
X302Y790D01*
X300Y790D01*
X300Y788D01*
X298Y788D01*
X298Y786D01*
X294Y786D01*
X294Y784D01*
X292Y784D01*
X292Y782D01*
X290Y782D01*
X290Y780D01*
X286Y780D01*
X286Y778D01*
X284Y778D01*
X284Y776D01*
X282Y776D01*
X282Y774D01*
X278Y774D01*
X278Y772D01*
X276Y772D01*
X276Y770D01*
X274Y770D01*
X274Y768D01*
X270Y768D01*
X270Y766D01*
X268Y766D01*
X268Y764D01*
X266Y764D01*
X266Y762D01*
X262Y762D01*
X262Y760D01*
X260Y760D01*
X260Y758D01*
X258Y758D01*
X258Y756D01*
X256Y756D01*
X256Y754D01*
X252Y754D01*
X252Y752D01*
X250Y752D01*
X250Y750D01*
X248Y750D01*
X248Y742D01*
X246Y742D01*
X246Y736D01*
X244Y736D01*
X244Y730D01*
X242Y730D01*
X242Y728D01*
X240Y728D01*
X240Y724D01*
X238Y724D01*
X238Y720D01*
X236Y720D01*
X236Y718D01*
X234Y718D01*
X234Y716D01*
X232Y716D01*
X232Y714D01*
X230Y714D01*
X230Y712D01*
X228Y712D01*
X228Y710D01*
X226Y710D01*
X226Y708D01*
X224Y708D01*
X224Y706D01*
X222Y706D01*
X222Y704D01*
X218Y704D01*
X218Y702D01*
X216Y702D01*
X216Y700D01*
X212Y700D01*
X212Y698D01*
X208Y698D01*
X208Y696D01*
X204Y696D01*
X204Y694D01*
X198Y694D01*
X198Y692D01*
X536Y692D01*
X536Y802D01*
X538Y802D01*
X538Y856D01*
X516Y856D01*
X516Y978D01*
X462Y978D01*
G37*
D02*
G36*
X722Y870D02*
X722Y868D01*
X720Y868D01*
X720Y866D01*
X718Y866D01*
X718Y864D01*
X714Y864D01*
X714Y862D01*
X710Y862D01*
X710Y860D01*
X706Y860D01*
X706Y858D01*
X700Y858D01*
X700Y856D01*
X766Y856D01*
X766Y858D01*
X758Y858D01*
X758Y860D01*
X754Y860D01*
X754Y862D01*
X750Y862D01*
X750Y864D01*
X748Y864D01*
X748Y866D01*
X744Y866D01*
X744Y868D01*
X742Y868D01*
X742Y870D01*
X722Y870D01*
G37*
D02*
G36*
X820Y868D02*
X820Y866D01*
X818Y866D01*
X818Y864D01*
X814Y864D01*
X814Y862D01*
X810Y862D01*
X810Y860D01*
X806Y860D01*
X806Y858D01*
X800Y858D01*
X800Y856D01*
X842Y856D01*
X842Y860D01*
X840Y860D01*
X840Y868D01*
X820Y868D01*
G37*
D02*
G36*
X626Y856D02*
X626Y854D01*
X842Y854D01*
X842Y856D01*
X626Y856D01*
G37*
D02*
G36*
X626Y856D02*
X626Y854D01*
X842Y854D01*
X842Y856D01*
X626Y856D01*
G37*
D02*
G36*
X626Y854D02*
X626Y788D01*
X624Y788D01*
X624Y558D01*
X626Y558D01*
X626Y554D01*
X628Y554D01*
X628Y548D01*
X630Y548D01*
X630Y516D01*
X628Y516D01*
X628Y512D01*
X626Y512D01*
X626Y508D01*
X624Y508D01*
X624Y504D01*
X622Y504D01*
X622Y502D01*
X620Y502D01*
X620Y500D01*
X618Y500D01*
X618Y496D01*
X616Y496D01*
X616Y494D01*
X612Y494D01*
X612Y492D01*
X610Y492D01*
X610Y490D01*
X608Y490D01*
X608Y488D01*
X604Y488D01*
X604Y486D01*
X602Y486D01*
X602Y484D01*
X596Y484D01*
X596Y482D01*
X588Y482D01*
X588Y480D01*
X1864Y480D01*
X1864Y564D01*
X1862Y564D01*
X1862Y566D01*
X1860Y566D01*
X1860Y568D01*
X1858Y568D01*
X1858Y570D01*
X1856Y570D01*
X1856Y572D01*
X1854Y572D01*
X1854Y574D01*
X1852Y574D01*
X1852Y576D01*
X1850Y576D01*
X1850Y578D01*
X1848Y578D01*
X1848Y582D01*
X1846Y582D01*
X1846Y584D01*
X1844Y584D01*
X1844Y586D01*
X1842Y586D01*
X1842Y588D01*
X1840Y588D01*
X1840Y590D01*
X1838Y590D01*
X1838Y592D01*
X1836Y592D01*
X1836Y594D01*
X1834Y594D01*
X1834Y596D01*
X1832Y596D01*
X1832Y598D01*
X1830Y598D01*
X1830Y600D01*
X1828Y600D01*
X1828Y602D01*
X1826Y602D01*
X1826Y604D01*
X1824Y604D01*
X1824Y606D01*
X1822Y606D01*
X1822Y608D01*
X1820Y608D01*
X1820Y610D01*
X1818Y610D01*
X1818Y612D01*
X1816Y612D01*
X1816Y614D01*
X1814Y614D01*
X1814Y616D01*
X1812Y616D01*
X1812Y618D01*
X1810Y618D01*
X1810Y620D01*
X1808Y620D01*
X1808Y622D01*
X1806Y622D01*
X1806Y624D01*
X1804Y624D01*
X1804Y628D01*
X1802Y628D01*
X1802Y630D01*
X1800Y630D01*
X1800Y632D01*
X1798Y632D01*
X1798Y634D01*
X1796Y634D01*
X1796Y636D01*
X1794Y636D01*
X1794Y638D01*
X1792Y638D01*
X1792Y640D01*
X1790Y640D01*
X1790Y642D01*
X1788Y642D01*
X1788Y644D01*
X1786Y644D01*
X1786Y646D01*
X1784Y646D01*
X1784Y648D01*
X1782Y648D01*
X1782Y650D01*
X1780Y650D01*
X1780Y652D01*
X1778Y652D01*
X1778Y654D01*
X1008Y654D01*
X1008Y656D01*
X1000Y656D01*
X1000Y658D01*
X996Y658D01*
X996Y660D01*
X992Y660D01*
X992Y662D01*
X990Y662D01*
X990Y664D01*
X988Y664D01*
X988Y666D01*
X986Y666D01*
X986Y668D01*
X984Y668D01*
X984Y670D01*
X982Y670D01*
X982Y672D01*
X980Y672D01*
X980Y676D01*
X978Y676D01*
X978Y678D01*
X976Y678D01*
X976Y680D01*
X974Y680D01*
X974Y684D01*
X972Y684D01*
X972Y686D01*
X970Y686D01*
X970Y688D01*
X968Y688D01*
X968Y690D01*
X966Y690D01*
X966Y694D01*
X964Y694D01*
X964Y696D01*
X962Y696D01*
X962Y698D01*
X960Y698D01*
X960Y702D01*
X958Y702D01*
X958Y704D01*
X956Y704D01*
X956Y706D01*
X954Y706D01*
X954Y710D01*
X952Y710D01*
X952Y712D01*
X950Y712D01*
X950Y714D01*
X948Y714D01*
X948Y716D01*
X946Y716D01*
X946Y720D01*
X944Y720D01*
X944Y722D01*
X942Y722D01*
X942Y724D01*
X940Y724D01*
X940Y728D01*
X938Y728D01*
X938Y730D01*
X936Y730D01*
X936Y732D01*
X934Y732D01*
X934Y736D01*
X932Y736D01*
X932Y738D01*
X930Y738D01*
X930Y740D01*
X928Y740D01*
X928Y742D01*
X926Y742D01*
X926Y746D01*
X924Y746D01*
X924Y748D01*
X922Y748D01*
X922Y750D01*
X920Y750D01*
X920Y754D01*
X918Y754D01*
X918Y756D01*
X916Y756D01*
X916Y758D01*
X914Y758D01*
X914Y760D01*
X912Y760D01*
X912Y764D01*
X910Y764D01*
X910Y766D01*
X908Y766D01*
X908Y768D01*
X906Y768D01*
X906Y772D01*
X904Y772D01*
X904Y774D01*
X902Y774D01*
X902Y776D01*
X900Y776D01*
X900Y780D01*
X898Y780D01*
X898Y782D01*
X896Y782D01*
X896Y784D01*
X894Y784D01*
X894Y786D01*
X892Y786D01*
X892Y790D01*
X890Y790D01*
X890Y792D01*
X888Y792D01*
X888Y794D01*
X886Y794D01*
X886Y798D01*
X884Y798D01*
X884Y800D01*
X882Y800D01*
X882Y802D01*
X880Y802D01*
X880Y806D01*
X878Y806D01*
X878Y808D01*
X876Y808D01*
X876Y810D01*
X874Y810D01*
X874Y812D01*
X872Y812D01*
X872Y816D01*
X870Y816D01*
X870Y818D01*
X868Y818D01*
X868Y820D01*
X866Y820D01*
X866Y824D01*
X864Y824D01*
X864Y826D01*
X862Y826D01*
X862Y828D01*
X860Y828D01*
X860Y830D01*
X858Y830D01*
X858Y834D01*
X856Y834D01*
X856Y836D01*
X854Y836D01*
X854Y838D01*
X852Y838D01*
X852Y842D01*
X850Y842D01*
X850Y844D01*
X848Y844D01*
X848Y846D01*
X846Y846D01*
X846Y850D01*
X844Y850D01*
X844Y854D01*
X626Y854D01*
G37*
D02*
G36*
X46Y692D02*
X46Y690D01*
X536Y690D01*
X536Y692D01*
X46Y692D01*
G37*
D02*
G36*
X46Y692D02*
X46Y690D01*
X536Y690D01*
X536Y692D01*
X46Y692D01*
G37*
D02*
G36*
X46Y690D02*
X46Y584D01*
X260Y584D01*
X260Y582D01*
X264Y582D01*
X264Y580D01*
X268Y580D01*
X268Y578D01*
X272Y578D01*
X272Y576D01*
X534Y576D01*
X534Y578D01*
X536Y578D01*
X536Y690D01*
X46Y690D01*
G37*
D02*
G36*
X46Y584D02*
X46Y480D01*
X234Y480D01*
X234Y482D01*
X226Y482D01*
X226Y484D01*
X222Y484D01*
X222Y486D01*
X218Y486D01*
X218Y488D01*
X214Y488D01*
X214Y490D01*
X212Y490D01*
X212Y492D01*
X210Y492D01*
X210Y494D01*
X208Y494D01*
X208Y496D01*
X206Y496D01*
X206Y498D01*
X204Y498D01*
X204Y500D01*
X202Y500D01*
X202Y502D01*
X200Y502D01*
X200Y506D01*
X198Y506D01*
X198Y508D01*
X196Y508D01*
X196Y514D01*
X194Y514D01*
X194Y520D01*
X192Y520D01*
X192Y546D01*
X194Y546D01*
X194Y552D01*
X196Y552D01*
X196Y556D01*
X198Y556D01*
X198Y560D01*
X200Y560D01*
X200Y562D01*
X202Y562D01*
X202Y566D01*
X204Y566D01*
X204Y568D01*
X206Y568D01*
X206Y570D01*
X208Y570D01*
X208Y572D01*
X210Y572D01*
X210Y574D01*
X214Y574D01*
X214Y576D01*
X216Y576D01*
X216Y578D01*
X220Y578D01*
X220Y580D01*
X224Y580D01*
X224Y582D01*
X228Y582D01*
X228Y584D01*
X46Y584D01*
G37*
D02*
G36*
X270Y488D02*
X270Y486D01*
X266Y486D01*
X266Y484D01*
X262Y484D01*
X262Y482D01*
X254Y482D01*
X254Y480D01*
X568Y480D01*
X568Y482D01*
X560Y482D01*
X560Y484D01*
X556Y484D01*
X556Y486D01*
X552Y486D01*
X552Y488D01*
X270Y488D01*
G37*
D02*
G36*
X46Y480D02*
X46Y478D01*
X1864Y478D01*
X1864Y480D01*
X46Y480D01*
G37*
D02*
G36*
X46Y480D02*
X46Y478D01*
X1864Y478D01*
X1864Y480D01*
X46Y480D01*
G37*
D02*
G36*
X46Y480D02*
X46Y478D01*
X1864Y478D01*
X1864Y480D01*
X46Y480D01*
G37*
D02*
G36*
X46Y478D02*
X46Y310D01*
X1754Y310D01*
X1754Y308D01*
X1762Y308D01*
X1762Y306D01*
X1766Y306D01*
X1766Y304D01*
X1770Y304D01*
X1770Y302D01*
X1772Y302D01*
X1772Y300D01*
X1776Y300D01*
X1776Y298D01*
X1778Y298D01*
X1778Y296D01*
X1780Y296D01*
X1780Y294D01*
X1782Y294D01*
X1782Y292D01*
X1786Y292D01*
X1786Y288D01*
X1788Y288D01*
X1788Y286D01*
X1790Y286D01*
X1790Y284D01*
X1792Y284D01*
X1792Y282D01*
X1794Y282D01*
X1794Y280D01*
X1796Y280D01*
X1796Y276D01*
X1798Y276D01*
X1798Y272D01*
X1800Y272D01*
X1800Y268D01*
X1802Y268D01*
X1802Y264D01*
X1804Y264D01*
X1804Y256D01*
X1806Y256D01*
X1806Y226D01*
X1804Y226D01*
X1804Y220D01*
X1802Y220D01*
X1802Y214D01*
X1800Y214D01*
X1800Y210D01*
X1798Y210D01*
X1798Y206D01*
X1796Y206D01*
X1796Y204D01*
X1794Y204D01*
X1794Y200D01*
X1792Y200D01*
X1792Y198D01*
X1790Y198D01*
X1790Y196D01*
X1788Y196D01*
X1788Y194D01*
X1786Y194D01*
X1786Y192D01*
X1784Y192D01*
X1784Y190D01*
X1782Y190D01*
X1782Y188D01*
X1780Y188D01*
X1780Y186D01*
X1778Y186D01*
X1778Y184D01*
X1776Y184D01*
X1776Y182D01*
X1772Y182D01*
X1772Y180D01*
X1768Y180D01*
X1768Y178D01*
X1764Y178D01*
X1764Y176D01*
X1760Y176D01*
X1760Y174D01*
X1754Y174D01*
X1754Y172D01*
X1868Y172D01*
X1868Y186D01*
X1866Y186D01*
X1866Y306D01*
X1868Y306D01*
X1868Y334D01*
X1866Y334D01*
X1866Y436D01*
X1864Y436D01*
X1864Y478D01*
X46Y478D01*
G37*
D02*
G36*
X82Y310D02*
X82Y308D01*
X88Y308D01*
X88Y306D01*
X92Y306D01*
X92Y304D01*
X96Y304D01*
X96Y302D01*
X100Y302D01*
X100Y300D01*
X102Y300D01*
X102Y298D01*
X104Y298D01*
X104Y296D01*
X108Y296D01*
X108Y294D01*
X110Y294D01*
X110Y292D01*
X112Y292D01*
X112Y290D01*
X114Y290D01*
X114Y288D01*
X116Y288D01*
X116Y286D01*
X118Y286D01*
X118Y282D01*
X120Y282D01*
X120Y280D01*
X122Y280D01*
X122Y278D01*
X124Y278D01*
X124Y274D01*
X126Y274D01*
X126Y270D01*
X128Y270D01*
X128Y266D01*
X130Y266D01*
X130Y260D01*
X132Y260D01*
X132Y224D01*
X130Y224D01*
X130Y216D01*
X128Y216D01*
X128Y212D01*
X126Y212D01*
X126Y208D01*
X124Y208D01*
X124Y206D01*
X122Y206D01*
X122Y202D01*
X120Y202D01*
X120Y200D01*
X118Y200D01*
X118Y196D01*
X116Y196D01*
X116Y194D01*
X114Y194D01*
X114Y192D01*
X112Y192D01*
X112Y190D01*
X110Y190D01*
X110Y188D01*
X108Y188D01*
X108Y186D01*
X104Y186D01*
X104Y184D01*
X102Y184D01*
X102Y182D01*
X98Y182D01*
X98Y180D01*
X96Y180D01*
X96Y178D01*
X92Y178D01*
X92Y176D01*
X88Y176D01*
X88Y174D01*
X80Y174D01*
X80Y172D01*
X302Y172D01*
X302Y174D01*
X294Y174D01*
X294Y176D01*
X290Y176D01*
X290Y178D01*
X286Y178D01*
X286Y180D01*
X282Y180D01*
X282Y182D01*
X280Y182D01*
X280Y184D01*
X278Y184D01*
X278Y186D01*
X274Y186D01*
X274Y188D01*
X272Y188D01*
X272Y190D01*
X270Y190D01*
X270Y192D01*
X268Y192D01*
X268Y194D01*
X266Y194D01*
X266Y196D01*
X264Y196D01*
X264Y200D01*
X262Y200D01*
X262Y202D01*
X260Y202D01*
X260Y204D01*
X258Y204D01*
X258Y208D01*
X256Y208D01*
X256Y212D01*
X254Y212D01*
X254Y216D01*
X252Y216D01*
X252Y222D01*
X250Y222D01*
X250Y260D01*
X252Y260D01*
X252Y266D01*
X254Y266D01*
X254Y270D01*
X256Y270D01*
X256Y274D01*
X258Y274D01*
X258Y278D01*
X260Y278D01*
X260Y280D01*
X262Y280D01*
X262Y284D01*
X264Y284D01*
X264Y286D01*
X266Y286D01*
X266Y288D01*
X268Y288D01*
X268Y290D01*
X270Y290D01*
X270Y292D01*
X272Y292D01*
X272Y294D01*
X274Y294D01*
X274Y296D01*
X276Y296D01*
X276Y298D01*
X280Y298D01*
X280Y300D01*
X282Y300D01*
X282Y302D01*
X286Y302D01*
X286Y304D01*
X290Y304D01*
X290Y306D01*
X294Y306D01*
X294Y308D01*
X300Y308D01*
X300Y310D01*
X82Y310D01*
G37*
D02*
G36*
X338Y310D02*
X338Y308D01*
X344Y308D01*
X344Y306D01*
X348Y306D01*
X348Y304D01*
X352Y304D01*
X352Y302D01*
X356Y302D01*
X356Y300D01*
X358Y300D01*
X358Y298D01*
X360Y298D01*
X360Y296D01*
X364Y296D01*
X364Y294D01*
X366Y294D01*
X366Y292D01*
X368Y292D01*
X368Y290D01*
X370Y290D01*
X370Y288D01*
X372Y288D01*
X372Y286D01*
X374Y286D01*
X374Y282D01*
X376Y282D01*
X376Y280D01*
X378Y280D01*
X378Y278D01*
X380Y278D01*
X380Y274D01*
X382Y274D01*
X382Y270D01*
X384Y270D01*
X384Y266D01*
X386Y266D01*
X386Y258D01*
X388Y258D01*
X388Y224D01*
X386Y224D01*
X386Y218D01*
X384Y218D01*
X384Y212D01*
X382Y212D01*
X382Y208D01*
X380Y208D01*
X380Y206D01*
X378Y206D01*
X378Y202D01*
X376Y202D01*
X376Y200D01*
X374Y200D01*
X374Y198D01*
X372Y198D01*
X372Y194D01*
X370Y194D01*
X370Y192D01*
X368Y192D01*
X368Y190D01*
X366Y190D01*
X366Y188D01*
X362Y188D01*
X362Y186D01*
X360Y186D01*
X360Y184D01*
X358Y184D01*
X358Y182D01*
X354Y182D01*
X354Y180D01*
X352Y180D01*
X352Y178D01*
X348Y178D01*
X348Y176D01*
X342Y176D01*
X342Y174D01*
X336Y174D01*
X336Y172D01*
X518Y172D01*
X518Y174D01*
X512Y174D01*
X512Y176D01*
X506Y176D01*
X506Y178D01*
X502Y178D01*
X502Y180D01*
X500Y180D01*
X500Y182D01*
X496Y182D01*
X496Y184D01*
X494Y184D01*
X494Y186D01*
X492Y186D01*
X492Y188D01*
X488Y188D01*
X488Y190D01*
X486Y190D01*
X486Y192D01*
X484Y192D01*
X484Y194D01*
X482Y194D01*
X482Y198D01*
X480Y198D01*
X480Y200D01*
X478Y200D01*
X478Y202D01*
X476Y202D01*
X476Y206D01*
X474Y206D01*
X474Y208D01*
X472Y208D01*
X472Y212D01*
X470Y212D01*
X470Y218D01*
X468Y218D01*
X468Y224D01*
X466Y224D01*
X466Y258D01*
X468Y258D01*
X468Y264D01*
X470Y264D01*
X470Y270D01*
X472Y270D01*
X472Y274D01*
X474Y274D01*
X474Y276D01*
X476Y276D01*
X476Y280D01*
X478Y280D01*
X478Y282D01*
X480Y282D01*
X480Y286D01*
X482Y286D01*
X482Y288D01*
X484Y288D01*
X484Y290D01*
X486Y290D01*
X486Y292D01*
X488Y292D01*
X488Y294D01*
X490Y294D01*
X490Y296D01*
X494Y296D01*
X494Y298D01*
X496Y298D01*
X496Y300D01*
X498Y300D01*
X498Y302D01*
X502Y302D01*
X502Y304D01*
X506Y304D01*
X506Y306D01*
X510Y306D01*
X510Y308D01*
X516Y308D01*
X516Y310D01*
X338Y310D01*
G37*
D02*
G36*
X554Y310D02*
X554Y308D01*
X560Y308D01*
X560Y306D01*
X564Y306D01*
X564Y304D01*
X568Y304D01*
X568Y302D01*
X572Y302D01*
X572Y300D01*
X574Y300D01*
X574Y298D01*
X578Y298D01*
X578Y296D01*
X580Y296D01*
X580Y294D01*
X582Y294D01*
X582Y292D01*
X584Y292D01*
X584Y290D01*
X586Y290D01*
X586Y288D01*
X588Y288D01*
X588Y286D01*
X590Y286D01*
X590Y284D01*
X592Y284D01*
X592Y280D01*
X594Y280D01*
X594Y278D01*
X596Y278D01*
X596Y274D01*
X598Y274D01*
X598Y270D01*
X600Y270D01*
X600Y266D01*
X602Y266D01*
X602Y260D01*
X604Y260D01*
X604Y222D01*
X602Y222D01*
X602Y216D01*
X600Y216D01*
X600Y212D01*
X598Y212D01*
X598Y208D01*
X596Y208D01*
X596Y204D01*
X594Y204D01*
X594Y202D01*
X592Y202D01*
X592Y198D01*
X590Y198D01*
X590Y196D01*
X588Y196D01*
X588Y194D01*
X586Y194D01*
X586Y192D01*
X584Y192D01*
X584Y190D01*
X582Y190D01*
X582Y188D01*
X580Y188D01*
X580Y186D01*
X578Y186D01*
X578Y184D01*
X574Y184D01*
X574Y182D01*
X572Y182D01*
X572Y180D01*
X568Y180D01*
X568Y178D01*
X564Y178D01*
X564Y176D01*
X560Y176D01*
X560Y174D01*
X554Y174D01*
X554Y172D01*
X774Y172D01*
X774Y174D01*
X768Y174D01*
X768Y176D01*
X762Y176D01*
X762Y178D01*
X758Y178D01*
X758Y180D01*
X756Y180D01*
X756Y182D01*
X752Y182D01*
X752Y184D01*
X750Y184D01*
X750Y186D01*
X748Y186D01*
X748Y188D01*
X744Y188D01*
X744Y190D01*
X742Y190D01*
X742Y192D01*
X740Y192D01*
X740Y194D01*
X738Y194D01*
X738Y198D01*
X736Y198D01*
X736Y200D01*
X734Y200D01*
X734Y202D01*
X732Y202D01*
X732Y206D01*
X730Y206D01*
X730Y208D01*
X728Y208D01*
X728Y212D01*
X726Y212D01*
X726Y218D01*
X724Y218D01*
X724Y224D01*
X722Y224D01*
X722Y258D01*
X724Y258D01*
X724Y264D01*
X726Y264D01*
X726Y270D01*
X728Y270D01*
X728Y274D01*
X730Y274D01*
X730Y276D01*
X732Y276D01*
X732Y280D01*
X734Y280D01*
X734Y282D01*
X736Y282D01*
X736Y286D01*
X738Y286D01*
X738Y288D01*
X740Y288D01*
X740Y290D01*
X742Y290D01*
X742Y292D01*
X744Y292D01*
X744Y294D01*
X746Y294D01*
X746Y296D01*
X750Y296D01*
X750Y298D01*
X752Y298D01*
X752Y300D01*
X754Y300D01*
X754Y302D01*
X758Y302D01*
X758Y304D01*
X762Y304D01*
X762Y306D01*
X766Y306D01*
X766Y308D01*
X772Y308D01*
X772Y310D01*
X554Y310D01*
G37*
D02*
G36*
X810Y310D02*
X810Y308D01*
X816Y308D01*
X816Y306D01*
X820Y306D01*
X820Y304D01*
X824Y304D01*
X824Y302D01*
X828Y302D01*
X828Y300D01*
X830Y300D01*
X830Y298D01*
X834Y298D01*
X834Y296D01*
X836Y296D01*
X836Y294D01*
X838Y294D01*
X838Y292D01*
X840Y292D01*
X840Y290D01*
X842Y290D01*
X842Y288D01*
X844Y288D01*
X844Y286D01*
X846Y286D01*
X846Y284D01*
X848Y284D01*
X848Y280D01*
X850Y280D01*
X850Y278D01*
X852Y278D01*
X852Y274D01*
X854Y274D01*
X854Y270D01*
X856Y270D01*
X856Y266D01*
X858Y266D01*
X858Y260D01*
X860Y260D01*
X860Y222D01*
X858Y222D01*
X858Y216D01*
X856Y216D01*
X856Y212D01*
X854Y212D01*
X854Y208D01*
X852Y208D01*
X852Y204D01*
X850Y204D01*
X850Y202D01*
X848Y202D01*
X848Y198D01*
X846Y198D01*
X846Y196D01*
X844Y196D01*
X844Y194D01*
X842Y194D01*
X842Y192D01*
X840Y192D01*
X840Y190D01*
X838Y190D01*
X838Y188D01*
X836Y188D01*
X836Y186D01*
X832Y186D01*
X832Y184D01*
X830Y184D01*
X830Y182D01*
X828Y182D01*
X828Y180D01*
X824Y180D01*
X824Y178D01*
X820Y178D01*
X820Y176D01*
X816Y176D01*
X816Y174D01*
X810Y174D01*
X810Y172D01*
X990Y172D01*
X990Y174D01*
X984Y174D01*
X984Y176D01*
X978Y176D01*
X978Y178D01*
X976Y178D01*
X976Y180D01*
X972Y180D01*
X972Y182D01*
X968Y182D01*
X968Y184D01*
X966Y184D01*
X966Y186D01*
X964Y186D01*
X964Y188D01*
X962Y188D01*
X962Y190D01*
X960Y190D01*
X960Y192D01*
X958Y192D01*
X958Y194D01*
X956Y194D01*
X956Y196D01*
X954Y196D01*
X954Y198D01*
X952Y198D01*
X952Y200D01*
X950Y200D01*
X950Y204D01*
X948Y204D01*
X948Y206D01*
X946Y206D01*
X946Y210D01*
X944Y210D01*
X944Y214D01*
X942Y214D01*
X942Y218D01*
X940Y218D01*
X940Y226D01*
X938Y226D01*
X938Y256D01*
X940Y256D01*
X940Y264D01*
X942Y264D01*
X942Y268D01*
X944Y268D01*
X944Y272D01*
X946Y272D01*
X946Y276D01*
X948Y276D01*
X948Y280D01*
X950Y280D01*
X950Y282D01*
X952Y282D01*
X952Y284D01*
X954Y284D01*
X954Y286D01*
X956Y286D01*
X956Y290D01*
X958Y290D01*
X958Y292D01*
X960Y292D01*
X960Y294D01*
X964Y294D01*
X964Y296D01*
X966Y296D01*
X966Y298D01*
X968Y298D01*
X968Y300D01*
X972Y300D01*
X972Y302D01*
X974Y302D01*
X974Y304D01*
X978Y304D01*
X978Y306D01*
X982Y306D01*
X982Y308D01*
X988Y308D01*
X988Y310D01*
X810Y310D01*
G37*
D02*
G36*
X1026Y310D02*
X1026Y308D01*
X1032Y308D01*
X1032Y306D01*
X1038Y306D01*
X1038Y304D01*
X1040Y304D01*
X1040Y302D01*
X1044Y302D01*
X1044Y300D01*
X1048Y300D01*
X1048Y298D01*
X1050Y298D01*
X1050Y296D01*
X1052Y296D01*
X1052Y294D01*
X1054Y294D01*
X1054Y292D01*
X1056Y292D01*
X1056Y290D01*
X1058Y290D01*
X1058Y288D01*
X1060Y288D01*
X1060Y286D01*
X1062Y286D01*
X1062Y284D01*
X1064Y284D01*
X1064Y282D01*
X1066Y282D01*
X1066Y278D01*
X1068Y278D01*
X1068Y276D01*
X1070Y276D01*
X1070Y272D01*
X1072Y272D01*
X1072Y268D01*
X1074Y268D01*
X1074Y262D01*
X1076Y262D01*
X1076Y252D01*
X1078Y252D01*
X1078Y230D01*
X1076Y230D01*
X1076Y220D01*
X1074Y220D01*
X1074Y214D01*
X1072Y214D01*
X1072Y210D01*
X1070Y210D01*
X1070Y206D01*
X1068Y206D01*
X1068Y204D01*
X1066Y204D01*
X1066Y200D01*
X1064Y200D01*
X1064Y198D01*
X1062Y198D01*
X1062Y196D01*
X1060Y196D01*
X1060Y194D01*
X1058Y194D01*
X1058Y192D01*
X1056Y192D01*
X1056Y190D01*
X1054Y190D01*
X1054Y188D01*
X1052Y188D01*
X1052Y186D01*
X1050Y186D01*
X1050Y184D01*
X1046Y184D01*
X1046Y182D01*
X1044Y182D01*
X1044Y180D01*
X1040Y180D01*
X1040Y178D01*
X1036Y178D01*
X1036Y176D01*
X1032Y176D01*
X1032Y174D01*
X1026Y174D01*
X1026Y172D01*
X1246Y172D01*
X1246Y174D01*
X1240Y174D01*
X1240Y176D01*
X1234Y176D01*
X1234Y178D01*
X1232Y178D01*
X1232Y180D01*
X1228Y180D01*
X1228Y182D01*
X1224Y182D01*
X1224Y184D01*
X1222Y184D01*
X1222Y186D01*
X1220Y186D01*
X1220Y188D01*
X1218Y188D01*
X1218Y190D01*
X1216Y190D01*
X1216Y192D01*
X1214Y192D01*
X1214Y194D01*
X1212Y194D01*
X1212Y196D01*
X1210Y196D01*
X1210Y198D01*
X1208Y198D01*
X1208Y200D01*
X1206Y200D01*
X1206Y202D01*
X1204Y202D01*
X1204Y206D01*
X1202Y206D01*
X1202Y210D01*
X1200Y210D01*
X1200Y214D01*
X1198Y214D01*
X1198Y218D01*
X1196Y218D01*
X1196Y226D01*
X1194Y226D01*
X1194Y256D01*
X1196Y256D01*
X1196Y264D01*
X1198Y264D01*
X1198Y268D01*
X1200Y268D01*
X1200Y272D01*
X1202Y272D01*
X1202Y276D01*
X1204Y276D01*
X1204Y280D01*
X1206Y280D01*
X1206Y282D01*
X1208Y282D01*
X1208Y284D01*
X1210Y284D01*
X1210Y286D01*
X1212Y286D01*
X1212Y290D01*
X1214Y290D01*
X1214Y292D01*
X1216Y292D01*
X1216Y294D01*
X1220Y294D01*
X1220Y296D01*
X1222Y296D01*
X1222Y298D01*
X1224Y298D01*
X1224Y300D01*
X1228Y300D01*
X1228Y302D01*
X1230Y302D01*
X1230Y304D01*
X1234Y304D01*
X1234Y306D01*
X1238Y306D01*
X1238Y308D01*
X1244Y308D01*
X1244Y310D01*
X1026Y310D01*
G37*
D02*
G36*
X1282Y310D02*
X1282Y308D01*
X1288Y308D01*
X1288Y306D01*
X1294Y306D01*
X1294Y304D01*
X1296Y304D01*
X1296Y302D01*
X1300Y302D01*
X1300Y300D01*
X1304Y300D01*
X1304Y298D01*
X1306Y298D01*
X1306Y296D01*
X1308Y296D01*
X1308Y294D01*
X1310Y294D01*
X1310Y292D01*
X1312Y292D01*
X1312Y290D01*
X1314Y290D01*
X1314Y288D01*
X1316Y288D01*
X1316Y286D01*
X1318Y286D01*
X1318Y284D01*
X1320Y284D01*
X1320Y282D01*
X1322Y282D01*
X1322Y278D01*
X1324Y278D01*
X1324Y276D01*
X1326Y276D01*
X1326Y272D01*
X1328Y272D01*
X1328Y268D01*
X1330Y268D01*
X1330Y262D01*
X1332Y262D01*
X1332Y252D01*
X1334Y252D01*
X1334Y230D01*
X1332Y230D01*
X1332Y220D01*
X1330Y220D01*
X1330Y214D01*
X1328Y214D01*
X1328Y210D01*
X1326Y210D01*
X1326Y208D01*
X1324Y208D01*
X1324Y204D01*
X1322Y204D01*
X1322Y202D01*
X1320Y202D01*
X1320Y198D01*
X1318Y198D01*
X1318Y196D01*
X1316Y196D01*
X1316Y194D01*
X1314Y194D01*
X1314Y192D01*
X1312Y192D01*
X1312Y190D01*
X1310Y190D01*
X1310Y188D01*
X1308Y188D01*
X1308Y186D01*
X1306Y186D01*
X1306Y184D01*
X1302Y184D01*
X1302Y182D01*
X1300Y182D01*
X1300Y180D01*
X1296Y180D01*
X1296Y178D01*
X1292Y178D01*
X1292Y176D01*
X1288Y176D01*
X1288Y174D01*
X1282Y174D01*
X1282Y172D01*
X1462Y172D01*
X1462Y174D01*
X1456Y174D01*
X1456Y176D01*
X1452Y176D01*
X1452Y178D01*
X1448Y178D01*
X1448Y180D01*
X1444Y180D01*
X1444Y182D01*
X1442Y182D01*
X1442Y184D01*
X1438Y184D01*
X1438Y186D01*
X1436Y186D01*
X1436Y188D01*
X1434Y188D01*
X1434Y190D01*
X1432Y190D01*
X1432Y192D01*
X1430Y192D01*
X1430Y194D01*
X1428Y194D01*
X1428Y196D01*
X1426Y196D01*
X1426Y198D01*
X1424Y198D01*
X1424Y200D01*
X1422Y200D01*
X1422Y204D01*
X1420Y204D01*
X1420Y206D01*
X1418Y206D01*
X1418Y210D01*
X1416Y210D01*
X1416Y214D01*
X1414Y214D01*
X1414Y220D01*
X1412Y220D01*
X1412Y230D01*
X1410Y230D01*
X1410Y252D01*
X1412Y252D01*
X1412Y262D01*
X1414Y262D01*
X1414Y268D01*
X1416Y268D01*
X1416Y272D01*
X1418Y272D01*
X1418Y276D01*
X1420Y276D01*
X1420Y278D01*
X1422Y278D01*
X1422Y282D01*
X1424Y282D01*
X1424Y284D01*
X1426Y284D01*
X1426Y286D01*
X1428Y286D01*
X1428Y288D01*
X1430Y288D01*
X1430Y290D01*
X1432Y290D01*
X1432Y292D01*
X1434Y292D01*
X1434Y294D01*
X1436Y294D01*
X1436Y296D01*
X1438Y296D01*
X1438Y298D01*
X1440Y298D01*
X1440Y300D01*
X1444Y300D01*
X1444Y302D01*
X1448Y302D01*
X1448Y304D01*
X1450Y304D01*
X1450Y306D01*
X1456Y306D01*
X1456Y308D01*
X1462Y308D01*
X1462Y310D01*
X1282Y310D01*
G37*
D02*
G36*
X1500Y310D02*
X1500Y308D01*
X1506Y308D01*
X1506Y306D01*
X1510Y306D01*
X1510Y304D01*
X1514Y304D01*
X1514Y302D01*
X1516Y302D01*
X1516Y300D01*
X1520Y300D01*
X1520Y298D01*
X1522Y298D01*
X1522Y296D01*
X1524Y296D01*
X1524Y294D01*
X1528Y294D01*
X1528Y292D01*
X1530Y292D01*
X1530Y290D01*
X1532Y290D01*
X1532Y286D01*
X1534Y286D01*
X1534Y284D01*
X1536Y284D01*
X1536Y282D01*
X1538Y282D01*
X1538Y280D01*
X1540Y280D01*
X1540Y276D01*
X1542Y276D01*
X1542Y272D01*
X1544Y272D01*
X1544Y268D01*
X1546Y268D01*
X1546Y264D01*
X1548Y264D01*
X1548Y256D01*
X1550Y256D01*
X1550Y226D01*
X1548Y226D01*
X1548Y218D01*
X1546Y218D01*
X1546Y214D01*
X1544Y214D01*
X1544Y210D01*
X1542Y210D01*
X1542Y206D01*
X1540Y206D01*
X1540Y204D01*
X1538Y204D01*
X1538Y200D01*
X1536Y200D01*
X1536Y198D01*
X1534Y198D01*
X1534Y196D01*
X1532Y196D01*
X1532Y194D01*
X1530Y194D01*
X1530Y192D01*
X1528Y192D01*
X1528Y190D01*
X1526Y190D01*
X1526Y188D01*
X1524Y188D01*
X1524Y186D01*
X1522Y186D01*
X1522Y184D01*
X1520Y184D01*
X1520Y182D01*
X1516Y182D01*
X1516Y180D01*
X1512Y180D01*
X1512Y178D01*
X1510Y178D01*
X1510Y176D01*
X1504Y176D01*
X1504Y174D01*
X1498Y174D01*
X1498Y172D01*
X1718Y172D01*
X1718Y174D01*
X1712Y174D01*
X1712Y176D01*
X1708Y176D01*
X1708Y178D01*
X1704Y178D01*
X1704Y180D01*
X1700Y180D01*
X1700Y182D01*
X1698Y182D01*
X1698Y184D01*
X1694Y184D01*
X1694Y186D01*
X1692Y186D01*
X1692Y188D01*
X1690Y188D01*
X1690Y190D01*
X1688Y190D01*
X1688Y192D01*
X1686Y192D01*
X1686Y194D01*
X1684Y194D01*
X1684Y196D01*
X1682Y196D01*
X1682Y198D01*
X1680Y198D01*
X1680Y200D01*
X1678Y200D01*
X1678Y204D01*
X1676Y204D01*
X1676Y206D01*
X1674Y206D01*
X1674Y210D01*
X1672Y210D01*
X1672Y214D01*
X1670Y214D01*
X1670Y220D01*
X1668Y220D01*
X1668Y228D01*
X1666Y228D01*
X1666Y254D01*
X1668Y254D01*
X1668Y262D01*
X1670Y262D01*
X1670Y268D01*
X1672Y268D01*
X1672Y272D01*
X1674Y272D01*
X1674Y276D01*
X1676Y276D01*
X1676Y278D01*
X1678Y278D01*
X1678Y282D01*
X1680Y282D01*
X1680Y284D01*
X1682Y284D01*
X1682Y286D01*
X1684Y286D01*
X1684Y288D01*
X1686Y288D01*
X1686Y290D01*
X1688Y290D01*
X1688Y292D01*
X1690Y292D01*
X1690Y294D01*
X1692Y294D01*
X1692Y296D01*
X1694Y296D01*
X1694Y298D01*
X1696Y298D01*
X1696Y300D01*
X1700Y300D01*
X1700Y302D01*
X1702Y302D01*
X1702Y304D01*
X1706Y304D01*
X1706Y306D01*
X1712Y306D01*
X1712Y308D01*
X1718Y308D01*
X1718Y310D01*
X1500Y310D01*
G37*
D02*
G36*
X46Y172D02*
X46Y170D01*
X1868Y170D01*
X1868Y172D01*
X46Y172D01*
G37*
D02*
G36*
X46Y172D02*
X46Y170D01*
X1868Y170D01*
X1868Y172D01*
X46Y172D01*
G37*
D02*
G36*
X46Y172D02*
X46Y170D01*
X1868Y170D01*
X1868Y172D01*
X46Y172D01*
G37*
D02*
G36*
X46Y172D02*
X46Y170D01*
X1868Y170D01*
X1868Y172D01*
X46Y172D01*
G37*
D02*
G36*
X46Y172D02*
X46Y170D01*
X1868Y170D01*
X1868Y172D01*
X46Y172D01*
G37*
D02*
G36*
X46Y172D02*
X46Y170D01*
X1868Y170D01*
X1868Y172D01*
X46Y172D01*
G37*
D02*
G36*
X46Y172D02*
X46Y170D01*
X1868Y170D01*
X1868Y172D01*
X46Y172D01*
G37*
D02*
G36*
X46Y172D02*
X46Y170D01*
X1868Y170D01*
X1868Y172D01*
X46Y172D01*
G37*
D02*
G36*
X46Y170D02*
X46Y134D01*
X1750Y134D01*
X1750Y132D01*
X1758Y132D01*
X1758Y130D01*
X1764Y130D01*
X1764Y128D01*
X1768Y128D01*
X1768Y126D01*
X1770Y126D01*
X1770Y124D01*
X1774Y124D01*
X1774Y122D01*
X1776Y122D01*
X1776Y120D01*
X1780Y120D01*
X1780Y118D01*
X1782Y118D01*
X1782Y116D01*
X1784Y116D01*
X1784Y114D01*
X1804Y114D01*
X1804Y160D01*
X1806Y160D01*
X1806Y162D01*
X1868Y162D01*
X1868Y170D01*
X46Y170D01*
G37*
D02*
G36*
X76Y134D02*
X76Y132D01*
X84Y132D01*
X84Y130D01*
X90Y130D01*
X90Y128D01*
X94Y128D01*
X94Y126D01*
X98Y126D01*
X98Y124D01*
X100Y124D01*
X100Y122D01*
X104Y122D01*
X104Y120D01*
X106Y120D01*
X106Y118D01*
X108Y118D01*
X108Y116D01*
X110Y116D01*
X110Y114D01*
X112Y114D01*
X112Y112D01*
X114Y112D01*
X114Y110D01*
X116Y110D01*
X116Y108D01*
X118Y108D01*
X118Y106D01*
X120Y106D01*
X120Y104D01*
X122Y104D01*
X122Y100D01*
X124Y100D01*
X124Y96D01*
X126Y96D01*
X126Y92D01*
X128Y92D01*
X128Y88D01*
X130Y88D01*
X130Y82D01*
X132Y82D01*
X132Y44D01*
X250Y44D01*
X250Y84D01*
X252Y84D01*
X252Y88D01*
X254Y88D01*
X254Y94D01*
X256Y94D01*
X256Y98D01*
X258Y98D01*
X258Y100D01*
X260Y100D01*
X260Y104D01*
X262Y104D01*
X262Y106D01*
X264Y106D01*
X264Y108D01*
X266Y108D01*
X266Y110D01*
X268Y110D01*
X268Y112D01*
X270Y112D01*
X270Y114D01*
X272Y114D01*
X272Y116D01*
X274Y116D01*
X274Y118D01*
X276Y118D01*
X276Y120D01*
X278Y120D01*
X278Y122D01*
X282Y122D01*
X282Y124D01*
X284Y124D01*
X284Y126D01*
X288Y126D01*
X288Y128D01*
X292Y128D01*
X292Y130D01*
X298Y130D01*
X298Y132D01*
X306Y132D01*
X306Y134D01*
X76Y134D01*
G37*
D02*
G36*
X332Y134D02*
X332Y132D01*
X340Y132D01*
X340Y130D01*
X346Y130D01*
X346Y128D01*
X350Y128D01*
X350Y126D01*
X354Y126D01*
X354Y124D01*
X356Y124D01*
X356Y122D01*
X360Y122D01*
X360Y120D01*
X362Y120D01*
X362Y118D01*
X364Y118D01*
X364Y116D01*
X366Y116D01*
X366Y114D01*
X368Y114D01*
X368Y112D01*
X370Y112D01*
X370Y110D01*
X372Y110D01*
X372Y108D01*
X374Y108D01*
X374Y106D01*
X376Y106D01*
X376Y102D01*
X378Y102D01*
X378Y100D01*
X380Y100D01*
X380Y96D01*
X382Y96D01*
X382Y92D01*
X384Y92D01*
X384Y88D01*
X386Y88D01*
X386Y82D01*
X388Y82D01*
X388Y44D01*
X466Y44D01*
X466Y80D01*
X468Y80D01*
X468Y88D01*
X470Y88D01*
X470Y92D01*
X472Y92D01*
X472Y96D01*
X474Y96D01*
X474Y100D01*
X476Y100D01*
X476Y102D01*
X478Y102D01*
X478Y106D01*
X480Y106D01*
X480Y108D01*
X482Y108D01*
X482Y110D01*
X484Y110D01*
X484Y112D01*
X486Y112D01*
X486Y114D01*
X488Y114D01*
X488Y116D01*
X490Y116D01*
X490Y118D01*
X492Y118D01*
X492Y120D01*
X494Y120D01*
X494Y122D01*
X498Y122D01*
X498Y124D01*
X500Y124D01*
X500Y126D01*
X504Y126D01*
X504Y128D01*
X508Y128D01*
X508Y130D01*
X514Y130D01*
X514Y132D01*
X522Y132D01*
X522Y134D01*
X332Y134D01*
G37*
D02*
G36*
X548Y134D02*
X548Y132D01*
X558Y132D01*
X558Y130D01*
X562Y130D01*
X562Y128D01*
X566Y128D01*
X566Y126D01*
X570Y126D01*
X570Y124D01*
X574Y124D01*
X574Y122D01*
X576Y122D01*
X576Y120D01*
X578Y120D01*
X578Y118D01*
X580Y118D01*
X580Y116D01*
X584Y116D01*
X584Y114D01*
X586Y114D01*
X586Y112D01*
X588Y112D01*
X588Y108D01*
X590Y108D01*
X590Y106D01*
X592Y106D01*
X592Y104D01*
X594Y104D01*
X594Y100D01*
X596Y100D01*
X596Y98D01*
X598Y98D01*
X598Y94D01*
X600Y94D01*
X600Y90D01*
X602Y90D01*
X602Y84D01*
X604Y84D01*
X604Y44D01*
X722Y44D01*
X722Y82D01*
X724Y82D01*
X724Y88D01*
X726Y88D01*
X726Y92D01*
X728Y92D01*
X728Y96D01*
X730Y96D01*
X730Y100D01*
X732Y100D01*
X732Y102D01*
X734Y102D01*
X734Y106D01*
X736Y106D01*
X736Y108D01*
X738Y108D01*
X738Y110D01*
X740Y110D01*
X740Y112D01*
X742Y112D01*
X742Y114D01*
X744Y114D01*
X744Y116D01*
X746Y116D01*
X746Y118D01*
X748Y118D01*
X748Y120D01*
X750Y120D01*
X750Y122D01*
X754Y122D01*
X754Y124D01*
X756Y124D01*
X756Y126D01*
X760Y126D01*
X760Y128D01*
X764Y128D01*
X764Y130D01*
X770Y130D01*
X770Y132D01*
X778Y132D01*
X778Y134D01*
X548Y134D01*
G37*
D02*
G36*
X804Y134D02*
X804Y132D01*
X812Y132D01*
X812Y130D01*
X818Y130D01*
X818Y128D01*
X822Y128D01*
X822Y126D01*
X826Y126D01*
X826Y124D01*
X828Y124D01*
X828Y122D01*
X832Y122D01*
X832Y120D01*
X834Y120D01*
X834Y118D01*
X836Y118D01*
X836Y116D01*
X838Y116D01*
X838Y114D01*
X842Y114D01*
X842Y110D01*
X844Y110D01*
X844Y108D01*
X846Y108D01*
X846Y106D01*
X848Y106D01*
X848Y104D01*
X850Y104D01*
X850Y100D01*
X852Y100D01*
X852Y98D01*
X854Y98D01*
X854Y94D01*
X856Y94D01*
X856Y90D01*
X858Y90D01*
X858Y84D01*
X860Y84D01*
X860Y44D01*
X938Y44D01*
X938Y78D01*
X940Y78D01*
X940Y86D01*
X942Y86D01*
X942Y92D01*
X944Y92D01*
X944Y96D01*
X946Y96D01*
X946Y98D01*
X948Y98D01*
X948Y102D01*
X950Y102D01*
X950Y104D01*
X952Y104D01*
X952Y108D01*
X954Y108D01*
X954Y110D01*
X956Y110D01*
X956Y112D01*
X958Y112D01*
X958Y114D01*
X960Y114D01*
X960Y116D01*
X962Y116D01*
X962Y118D01*
X964Y118D01*
X964Y120D01*
X968Y120D01*
X968Y122D01*
X970Y122D01*
X970Y124D01*
X974Y124D01*
X974Y126D01*
X976Y126D01*
X976Y128D01*
X980Y128D01*
X980Y130D01*
X986Y130D01*
X986Y132D01*
X994Y132D01*
X994Y134D01*
X804Y134D01*
G37*
D02*
G36*
X1022Y134D02*
X1022Y132D01*
X1030Y132D01*
X1030Y130D01*
X1034Y130D01*
X1034Y128D01*
X1038Y128D01*
X1038Y126D01*
X1042Y126D01*
X1042Y124D01*
X1046Y124D01*
X1046Y122D01*
X1048Y122D01*
X1048Y120D01*
X1050Y120D01*
X1050Y118D01*
X1054Y118D01*
X1054Y116D01*
X1056Y116D01*
X1056Y114D01*
X1058Y114D01*
X1058Y112D01*
X1060Y112D01*
X1060Y110D01*
X1062Y110D01*
X1062Y106D01*
X1064Y106D01*
X1064Y104D01*
X1066Y104D01*
X1066Y102D01*
X1068Y102D01*
X1068Y98D01*
X1070Y98D01*
X1070Y94D01*
X1072Y94D01*
X1072Y90D01*
X1074Y90D01*
X1074Y84D01*
X1076Y84D01*
X1076Y76D01*
X1078Y76D01*
X1078Y44D01*
X1194Y44D01*
X1194Y80D01*
X1196Y80D01*
X1196Y86D01*
X1198Y86D01*
X1198Y92D01*
X1200Y92D01*
X1200Y96D01*
X1202Y96D01*
X1202Y100D01*
X1204Y100D01*
X1204Y102D01*
X1206Y102D01*
X1206Y104D01*
X1208Y104D01*
X1208Y108D01*
X1210Y108D01*
X1210Y110D01*
X1212Y110D01*
X1212Y112D01*
X1214Y112D01*
X1214Y114D01*
X1216Y114D01*
X1216Y116D01*
X1218Y116D01*
X1218Y118D01*
X1220Y118D01*
X1220Y120D01*
X1224Y120D01*
X1224Y122D01*
X1226Y122D01*
X1226Y124D01*
X1230Y124D01*
X1230Y126D01*
X1232Y126D01*
X1232Y128D01*
X1236Y128D01*
X1236Y130D01*
X1242Y130D01*
X1242Y132D01*
X1250Y132D01*
X1250Y134D01*
X1022Y134D01*
G37*
D02*
G36*
X1276Y134D02*
X1276Y132D01*
X1286Y132D01*
X1286Y130D01*
X1290Y130D01*
X1290Y128D01*
X1294Y128D01*
X1294Y126D01*
X1298Y126D01*
X1298Y124D01*
X1302Y124D01*
X1302Y122D01*
X1304Y122D01*
X1304Y120D01*
X1306Y120D01*
X1306Y118D01*
X1310Y118D01*
X1310Y116D01*
X1312Y116D01*
X1312Y114D01*
X1314Y114D01*
X1314Y112D01*
X1316Y112D01*
X1316Y110D01*
X1318Y110D01*
X1318Y106D01*
X1320Y106D01*
X1320Y104D01*
X1322Y104D01*
X1322Y102D01*
X1324Y102D01*
X1324Y98D01*
X1326Y98D01*
X1326Y94D01*
X1328Y94D01*
X1328Y90D01*
X1330Y90D01*
X1330Y84D01*
X1332Y84D01*
X1332Y74D01*
X1334Y74D01*
X1334Y44D01*
X1410Y44D01*
X1410Y76D01*
X1412Y76D01*
X1412Y84D01*
X1414Y84D01*
X1414Y90D01*
X1416Y90D01*
X1416Y94D01*
X1418Y94D01*
X1418Y98D01*
X1420Y98D01*
X1420Y102D01*
X1422Y102D01*
X1422Y104D01*
X1424Y104D01*
X1424Y106D01*
X1426Y106D01*
X1426Y110D01*
X1428Y110D01*
X1428Y112D01*
X1430Y112D01*
X1430Y114D01*
X1432Y114D01*
X1432Y116D01*
X1434Y116D01*
X1434Y118D01*
X1438Y118D01*
X1438Y120D01*
X1440Y120D01*
X1440Y122D01*
X1442Y122D01*
X1442Y124D01*
X1446Y124D01*
X1446Y126D01*
X1450Y126D01*
X1450Y128D01*
X1454Y128D01*
X1454Y130D01*
X1458Y130D01*
X1458Y132D01*
X1466Y132D01*
X1466Y134D01*
X1276Y134D01*
G37*
D02*
G36*
X1494Y134D02*
X1494Y132D01*
X1502Y132D01*
X1502Y130D01*
X1508Y130D01*
X1508Y128D01*
X1512Y128D01*
X1512Y126D01*
X1514Y126D01*
X1514Y124D01*
X1518Y124D01*
X1518Y122D01*
X1520Y122D01*
X1520Y120D01*
X1524Y120D01*
X1524Y118D01*
X1526Y118D01*
X1526Y116D01*
X1528Y116D01*
X1528Y114D01*
X1530Y114D01*
X1530Y112D01*
X1532Y112D01*
X1532Y110D01*
X1534Y110D01*
X1534Y108D01*
X1536Y108D01*
X1536Y104D01*
X1538Y104D01*
X1538Y102D01*
X1540Y102D01*
X1540Y98D01*
X1542Y98D01*
X1542Y96D01*
X1544Y96D01*
X1544Y92D01*
X1546Y92D01*
X1546Y86D01*
X1548Y86D01*
X1548Y78D01*
X1550Y78D01*
X1550Y44D01*
X1666Y44D01*
X1666Y76D01*
X1668Y76D01*
X1668Y86D01*
X1670Y86D01*
X1670Y90D01*
X1672Y90D01*
X1672Y94D01*
X1674Y94D01*
X1674Y98D01*
X1676Y98D01*
X1676Y102D01*
X1678Y102D01*
X1678Y104D01*
X1680Y104D01*
X1680Y106D01*
X1682Y106D01*
X1682Y110D01*
X1684Y110D01*
X1684Y112D01*
X1686Y112D01*
X1686Y114D01*
X1688Y114D01*
X1688Y116D01*
X1690Y116D01*
X1690Y118D01*
X1694Y118D01*
X1694Y120D01*
X1696Y120D01*
X1696Y122D01*
X1698Y122D01*
X1698Y124D01*
X1702Y124D01*
X1702Y126D01*
X1706Y126D01*
X1706Y128D01*
X1710Y128D01*
X1710Y130D01*
X1714Y130D01*
X1714Y132D01*
X1722Y132D01*
X1722Y134D01*
X1494Y134D01*
G37*
D02*
G36*
X1194Y1594D02*
X1194Y1592D01*
X1192Y1592D01*
X1192Y1570D01*
X1194Y1570D01*
X1194Y1568D01*
X1196Y1568D01*
X1196Y1566D01*
X1198Y1566D01*
X1198Y1564D01*
X1200Y1564D01*
X1200Y1562D01*
X1202Y1562D01*
X1202Y1558D01*
X1204Y1558D01*
X1204Y1556D01*
X1206Y1556D01*
X1206Y1554D01*
X1208Y1554D01*
X1208Y1552D01*
X1210Y1552D01*
X1210Y1550D01*
X1212Y1550D01*
X1212Y1548D01*
X1214Y1548D01*
X1214Y1546D01*
X1216Y1546D01*
X1216Y1544D01*
X1218Y1544D01*
X1218Y1542D01*
X1220Y1542D01*
X1220Y1540D01*
X1222Y1540D01*
X1222Y1538D01*
X1224Y1538D01*
X1224Y1536D01*
X1226Y1536D01*
X1226Y1534D01*
X1228Y1534D01*
X1228Y1530D01*
X1230Y1530D01*
X1230Y1528D01*
X1232Y1528D01*
X1232Y1526D01*
X1234Y1526D01*
X1234Y1524D01*
X1236Y1524D01*
X1236Y1522D01*
X1238Y1522D01*
X1238Y1520D01*
X1240Y1520D01*
X1240Y1518D01*
X1242Y1518D01*
X1242Y1516D01*
X1244Y1516D01*
X1244Y1514D01*
X1246Y1514D01*
X1246Y1512D01*
X1248Y1512D01*
X1248Y1510D01*
X1250Y1510D01*
X1250Y1508D01*
X1252Y1508D01*
X1252Y1504D01*
X1254Y1504D01*
X1254Y1502D01*
X1256Y1502D01*
X1256Y1500D01*
X1258Y1500D01*
X1258Y1498D01*
X1260Y1498D01*
X1260Y1496D01*
X1262Y1496D01*
X1262Y1494D01*
X1264Y1494D01*
X1264Y1492D01*
X1266Y1492D01*
X1266Y1490D01*
X1268Y1490D01*
X1268Y1488D01*
X1270Y1488D01*
X1270Y1486D01*
X1272Y1486D01*
X1272Y1484D01*
X1274Y1484D01*
X1274Y1482D01*
X1276Y1482D01*
X1276Y1480D01*
X1278Y1480D01*
X1278Y1476D01*
X1280Y1476D01*
X1280Y1474D01*
X1282Y1474D01*
X1282Y1472D01*
X1284Y1472D01*
X1284Y1470D01*
X1286Y1470D01*
X1286Y1468D01*
X1288Y1468D01*
X1288Y1466D01*
X1290Y1466D01*
X1290Y1464D01*
X1292Y1464D01*
X1292Y1462D01*
X1294Y1462D01*
X1294Y1460D01*
X1296Y1460D01*
X1296Y1458D01*
X1298Y1458D01*
X1298Y1456D01*
X1300Y1456D01*
X1300Y1454D01*
X1302Y1454D01*
X1302Y1450D01*
X1304Y1450D01*
X1304Y1448D01*
X1306Y1448D01*
X1306Y1446D01*
X1308Y1446D01*
X1308Y1444D01*
X1310Y1444D01*
X1310Y1442D01*
X1312Y1442D01*
X1312Y1440D01*
X1314Y1440D01*
X1314Y1438D01*
X1316Y1438D01*
X1316Y1436D01*
X1318Y1436D01*
X1318Y1434D01*
X1320Y1434D01*
X1320Y1432D01*
X1322Y1432D01*
X1322Y1430D01*
X1324Y1430D01*
X1324Y1428D01*
X1326Y1428D01*
X1326Y1424D01*
X1328Y1424D01*
X1328Y1422D01*
X1330Y1422D01*
X1330Y1420D01*
X1332Y1420D01*
X1332Y1418D01*
X1334Y1418D01*
X1334Y1416D01*
X1336Y1416D01*
X1336Y1414D01*
X1338Y1414D01*
X1338Y1412D01*
X1340Y1412D01*
X1340Y1410D01*
X1342Y1410D01*
X1342Y1408D01*
X1344Y1408D01*
X1344Y1406D01*
X1346Y1406D01*
X1346Y1404D01*
X1348Y1404D01*
X1348Y1402D01*
X1350Y1402D01*
X1350Y1400D01*
X1352Y1400D01*
X1352Y1396D01*
X1354Y1396D01*
X1354Y1394D01*
X1356Y1394D01*
X1356Y1392D01*
X1358Y1392D01*
X1358Y1390D01*
X1360Y1390D01*
X1360Y1388D01*
X1362Y1388D01*
X1362Y1386D01*
X1364Y1386D01*
X1364Y1384D01*
X1406Y1384D01*
X1406Y1404D01*
X1404Y1404D01*
X1404Y1406D01*
X1402Y1406D01*
X1402Y1408D01*
X1400Y1408D01*
X1400Y1410D01*
X1398Y1410D01*
X1398Y1412D01*
X1396Y1412D01*
X1396Y1414D01*
X1394Y1414D01*
X1394Y1418D01*
X1392Y1418D01*
X1392Y1420D01*
X1390Y1420D01*
X1390Y1422D01*
X1388Y1422D01*
X1388Y1424D01*
X1386Y1424D01*
X1386Y1426D01*
X1384Y1426D01*
X1384Y1428D01*
X1382Y1428D01*
X1382Y1432D01*
X1380Y1432D01*
X1380Y1434D01*
X1378Y1434D01*
X1378Y1436D01*
X1376Y1436D01*
X1376Y1438D01*
X1374Y1438D01*
X1374Y1440D01*
X1372Y1440D01*
X1372Y1442D01*
X1370Y1442D01*
X1370Y1446D01*
X1368Y1446D01*
X1368Y1448D01*
X1366Y1448D01*
X1366Y1450D01*
X1364Y1450D01*
X1364Y1452D01*
X1362Y1452D01*
X1362Y1454D01*
X1360Y1454D01*
X1360Y1456D01*
X1358Y1456D01*
X1358Y1460D01*
X1356Y1460D01*
X1356Y1462D01*
X1354Y1462D01*
X1354Y1464D01*
X1352Y1464D01*
X1352Y1466D01*
X1350Y1466D01*
X1350Y1468D01*
X1348Y1468D01*
X1348Y1470D01*
X1346Y1470D01*
X1346Y1474D01*
X1344Y1474D01*
X1344Y1476D01*
X1342Y1476D01*
X1342Y1478D01*
X1340Y1478D01*
X1340Y1480D01*
X1338Y1480D01*
X1338Y1482D01*
X1336Y1482D01*
X1336Y1484D01*
X1334Y1484D01*
X1334Y1488D01*
X1332Y1488D01*
X1332Y1490D01*
X1330Y1490D01*
X1330Y1492D01*
X1328Y1492D01*
X1328Y1494D01*
X1326Y1494D01*
X1326Y1496D01*
X1324Y1496D01*
X1324Y1498D01*
X1322Y1498D01*
X1322Y1502D01*
X1320Y1502D01*
X1320Y1504D01*
X1318Y1504D01*
X1318Y1506D01*
X1316Y1506D01*
X1316Y1508D01*
X1314Y1508D01*
X1314Y1510D01*
X1312Y1510D01*
X1312Y1512D01*
X1310Y1512D01*
X1310Y1514D01*
X1308Y1514D01*
X1308Y1518D01*
X1306Y1518D01*
X1306Y1520D01*
X1304Y1520D01*
X1304Y1522D01*
X1302Y1522D01*
X1302Y1524D01*
X1300Y1524D01*
X1300Y1526D01*
X1298Y1526D01*
X1298Y1528D01*
X1296Y1528D01*
X1296Y1532D01*
X1294Y1532D01*
X1294Y1534D01*
X1292Y1534D01*
X1292Y1536D01*
X1290Y1536D01*
X1290Y1538D01*
X1288Y1538D01*
X1288Y1540D01*
X1286Y1540D01*
X1286Y1542D01*
X1284Y1542D01*
X1284Y1546D01*
X1282Y1546D01*
X1282Y1548D01*
X1280Y1548D01*
X1280Y1550D01*
X1278Y1550D01*
X1278Y1552D01*
X1276Y1552D01*
X1276Y1554D01*
X1274Y1554D01*
X1274Y1556D01*
X1272Y1556D01*
X1272Y1560D01*
X1270Y1560D01*
X1270Y1562D01*
X1268Y1562D01*
X1268Y1564D01*
X1266Y1564D01*
X1266Y1566D01*
X1264Y1566D01*
X1264Y1568D01*
X1262Y1568D01*
X1262Y1570D01*
X1260Y1570D01*
X1260Y1574D01*
X1258Y1574D01*
X1258Y1576D01*
X1256Y1576D01*
X1256Y1578D01*
X1254Y1578D01*
X1254Y1580D01*
X1252Y1580D01*
X1252Y1582D01*
X1234Y1582D01*
X1234Y1584D01*
X1228Y1584D01*
X1228Y1586D01*
X1224Y1586D01*
X1224Y1588D01*
X1220Y1588D01*
X1220Y1590D01*
X1218Y1590D01*
X1218Y1592D01*
X1214Y1592D01*
X1214Y1594D01*
X1194Y1594D01*
G37*
D02*
G36*
X1394Y1594D02*
X1394Y1592D01*
X1392Y1592D01*
X1392Y1590D01*
X1388Y1590D01*
X1388Y1588D01*
X1386Y1588D01*
X1386Y1582D01*
X1434Y1582D01*
X1434Y1584D01*
X1428Y1584D01*
X1428Y1586D01*
X1424Y1586D01*
X1424Y1588D01*
X1420Y1588D01*
X1420Y1590D01*
X1418Y1590D01*
X1418Y1592D01*
X1414Y1592D01*
X1414Y1594D01*
X1394Y1594D01*
G37*
D02*
G36*
X1488Y1590D02*
X1488Y1588D01*
X1484Y1588D01*
X1484Y1586D01*
X1480Y1586D01*
X1480Y1584D01*
X1474Y1584D01*
X1474Y1582D01*
X1510Y1582D01*
X1510Y1590D01*
X1488Y1590D01*
G37*
D02*
G36*
X1386Y1582D02*
X1386Y1580D01*
X1510Y1580D01*
X1510Y1582D01*
X1386Y1582D01*
G37*
D02*
G36*
X1386Y1582D02*
X1386Y1580D01*
X1510Y1580D01*
X1510Y1582D01*
X1386Y1582D01*
G37*
D02*
G36*
X1386Y1580D02*
X1386Y1568D01*
X1388Y1568D01*
X1388Y1566D01*
X1390Y1566D01*
X1390Y1564D01*
X1392Y1564D01*
X1392Y1562D01*
X1394Y1562D01*
X1394Y1558D01*
X1396Y1558D01*
X1396Y1556D01*
X1398Y1556D01*
X1398Y1554D01*
X1400Y1554D01*
X1400Y1552D01*
X1402Y1552D01*
X1402Y1550D01*
X1404Y1550D01*
X1404Y1548D01*
X1406Y1548D01*
X1406Y1544D01*
X1408Y1544D01*
X1408Y1542D01*
X1410Y1542D01*
X1410Y1540D01*
X1412Y1540D01*
X1412Y1538D01*
X1414Y1538D01*
X1414Y1536D01*
X1416Y1536D01*
X1416Y1534D01*
X1418Y1534D01*
X1418Y1530D01*
X1420Y1530D01*
X1420Y1528D01*
X1422Y1528D01*
X1422Y1526D01*
X1424Y1526D01*
X1424Y1524D01*
X1426Y1524D01*
X1426Y1522D01*
X1428Y1522D01*
X1428Y1520D01*
X1430Y1520D01*
X1430Y1516D01*
X1432Y1516D01*
X1432Y1514D01*
X1434Y1514D01*
X1434Y1512D01*
X1436Y1512D01*
X1436Y1510D01*
X1438Y1510D01*
X1438Y1508D01*
X1440Y1508D01*
X1440Y1506D01*
X1442Y1506D01*
X1442Y1502D01*
X1444Y1502D01*
X1444Y1500D01*
X1446Y1500D01*
X1446Y1498D01*
X1448Y1498D01*
X1448Y1496D01*
X1450Y1496D01*
X1450Y1494D01*
X1452Y1494D01*
X1452Y1492D01*
X1454Y1492D01*
X1454Y1488D01*
X1456Y1488D01*
X1456Y1486D01*
X1458Y1486D01*
X1458Y1484D01*
X1460Y1484D01*
X1460Y1482D01*
X1462Y1482D01*
X1462Y1480D01*
X1464Y1480D01*
X1464Y1478D01*
X1466Y1478D01*
X1466Y1474D01*
X1468Y1474D01*
X1468Y1472D01*
X1470Y1472D01*
X1470Y1470D01*
X1472Y1470D01*
X1472Y1468D01*
X1474Y1468D01*
X1474Y1466D01*
X1476Y1466D01*
X1476Y1464D01*
X1478Y1464D01*
X1478Y1462D01*
X1480Y1462D01*
X1480Y1458D01*
X1482Y1458D01*
X1482Y1456D01*
X1484Y1456D01*
X1484Y1454D01*
X1486Y1454D01*
X1486Y1452D01*
X1488Y1452D01*
X1488Y1450D01*
X1490Y1450D01*
X1490Y1448D01*
X1492Y1448D01*
X1492Y1444D01*
X1494Y1444D01*
X1494Y1442D01*
X1496Y1442D01*
X1496Y1440D01*
X1498Y1440D01*
X1498Y1438D01*
X1500Y1438D01*
X1500Y1436D01*
X1502Y1436D01*
X1502Y1434D01*
X1504Y1434D01*
X1504Y1432D01*
X1588Y1432D01*
X1588Y1452D01*
X1586Y1452D01*
X1586Y1454D01*
X1584Y1454D01*
X1584Y1456D01*
X1582Y1456D01*
X1582Y1460D01*
X1580Y1460D01*
X1580Y1462D01*
X1578Y1462D01*
X1578Y1464D01*
X1576Y1464D01*
X1576Y1468D01*
X1574Y1468D01*
X1574Y1470D01*
X1572Y1470D01*
X1572Y1472D01*
X1570Y1472D01*
X1570Y1476D01*
X1568Y1476D01*
X1568Y1478D01*
X1566Y1478D01*
X1566Y1480D01*
X1564Y1480D01*
X1564Y1484D01*
X1562Y1484D01*
X1562Y1486D01*
X1560Y1486D01*
X1560Y1488D01*
X1558Y1488D01*
X1558Y1490D01*
X1556Y1490D01*
X1556Y1494D01*
X1554Y1494D01*
X1554Y1496D01*
X1552Y1496D01*
X1552Y1498D01*
X1550Y1498D01*
X1550Y1502D01*
X1548Y1502D01*
X1548Y1504D01*
X1546Y1504D01*
X1546Y1506D01*
X1544Y1506D01*
X1544Y1510D01*
X1542Y1510D01*
X1542Y1512D01*
X1540Y1512D01*
X1540Y1514D01*
X1538Y1514D01*
X1538Y1518D01*
X1536Y1518D01*
X1536Y1520D01*
X1534Y1520D01*
X1534Y1522D01*
X1532Y1522D01*
X1532Y1526D01*
X1530Y1526D01*
X1530Y1528D01*
X1528Y1528D01*
X1528Y1530D01*
X1526Y1530D01*
X1526Y1534D01*
X1524Y1534D01*
X1524Y1536D01*
X1522Y1536D01*
X1522Y1538D01*
X1520Y1538D01*
X1520Y1542D01*
X1518Y1542D01*
X1518Y1544D01*
X1516Y1544D01*
X1516Y1546D01*
X1514Y1546D01*
X1514Y1550D01*
X1512Y1550D01*
X1512Y1558D01*
X1510Y1558D01*
X1510Y1580D01*
X1386Y1580D01*
G37*
D02*
G36*
X794Y1594D02*
X794Y1592D01*
X792Y1592D01*
X792Y1590D01*
X788Y1590D01*
X788Y1588D01*
X784Y1588D01*
X784Y1586D01*
X780Y1586D01*
X780Y1584D01*
X774Y1584D01*
X774Y1582D01*
X834Y1582D01*
X834Y1584D01*
X828Y1584D01*
X828Y1586D01*
X824Y1586D01*
X824Y1588D01*
X820Y1588D01*
X820Y1590D01*
X818Y1590D01*
X818Y1592D01*
X814Y1592D01*
X814Y1594D01*
X794Y1594D01*
G37*
D02*
G36*
X894Y1594D02*
X894Y1592D01*
X892Y1592D01*
X892Y1590D01*
X888Y1590D01*
X888Y1588D01*
X884Y1588D01*
X884Y1586D01*
X880Y1586D01*
X880Y1584D01*
X874Y1584D01*
X874Y1582D01*
X934Y1582D01*
X934Y1584D01*
X928Y1584D01*
X928Y1586D01*
X924Y1586D01*
X924Y1588D01*
X920Y1588D01*
X920Y1590D01*
X918Y1590D01*
X918Y1592D01*
X914Y1592D01*
X914Y1594D01*
X894Y1594D01*
G37*
D02*
G36*
X994Y1594D02*
X994Y1592D01*
X992Y1592D01*
X992Y1590D01*
X988Y1590D01*
X988Y1588D01*
X984Y1588D01*
X984Y1586D01*
X980Y1586D01*
X980Y1584D01*
X974Y1584D01*
X974Y1582D01*
X1034Y1582D01*
X1034Y1584D01*
X1028Y1584D01*
X1028Y1586D01*
X1024Y1586D01*
X1024Y1588D01*
X1020Y1588D01*
X1020Y1590D01*
X1018Y1590D01*
X1018Y1592D01*
X1014Y1592D01*
X1014Y1594D01*
X994Y1594D01*
G37*
D02*
G36*
X696Y1592D02*
X696Y1582D01*
X734Y1582D01*
X734Y1584D01*
X728Y1584D01*
X728Y1586D01*
X724Y1586D01*
X724Y1588D01*
X720Y1588D01*
X720Y1590D01*
X718Y1590D01*
X718Y1592D01*
X696Y1592D01*
G37*
D02*
G36*
X696Y1582D02*
X696Y1580D01*
X1054Y1580D01*
X1054Y1582D01*
X696Y1582D01*
G37*
D02*
G36*
X696Y1582D02*
X696Y1580D01*
X1054Y1580D01*
X1054Y1582D01*
X696Y1582D01*
G37*
D02*
G36*
X696Y1582D02*
X696Y1580D01*
X1054Y1580D01*
X1054Y1582D01*
X696Y1582D01*
G37*
D02*
G36*
X696Y1582D02*
X696Y1580D01*
X1054Y1580D01*
X1054Y1582D01*
X696Y1582D01*
G37*
D02*
G36*
X696Y1580D02*
X696Y1574D01*
X698Y1574D01*
X698Y1572D01*
X700Y1572D01*
X700Y1570D01*
X702Y1570D01*
X702Y1568D01*
X704Y1568D01*
X704Y1566D01*
X706Y1566D01*
X706Y1564D01*
X708Y1564D01*
X708Y1562D01*
X710Y1562D01*
X710Y1560D01*
X712Y1560D01*
X712Y1558D01*
X714Y1558D01*
X714Y1556D01*
X716Y1556D01*
X716Y1554D01*
X718Y1554D01*
X718Y1552D01*
X720Y1552D01*
X720Y1550D01*
X722Y1550D01*
X722Y1548D01*
X724Y1548D01*
X724Y1546D01*
X726Y1546D01*
X726Y1544D01*
X728Y1544D01*
X728Y1542D01*
X730Y1542D01*
X730Y1540D01*
X732Y1540D01*
X732Y1538D01*
X734Y1538D01*
X734Y1536D01*
X736Y1536D01*
X736Y1534D01*
X738Y1534D01*
X738Y1532D01*
X740Y1532D01*
X740Y1530D01*
X742Y1530D01*
X742Y1528D01*
X744Y1528D01*
X744Y1526D01*
X746Y1526D01*
X746Y1524D01*
X748Y1524D01*
X748Y1522D01*
X750Y1522D01*
X750Y1520D01*
X752Y1520D01*
X752Y1518D01*
X754Y1518D01*
X754Y1516D01*
X756Y1516D01*
X756Y1514D01*
X758Y1514D01*
X758Y1512D01*
X760Y1512D01*
X760Y1510D01*
X762Y1510D01*
X762Y1508D01*
X764Y1508D01*
X764Y1506D01*
X766Y1506D01*
X766Y1504D01*
X768Y1504D01*
X768Y1502D01*
X770Y1502D01*
X770Y1500D01*
X772Y1500D01*
X772Y1498D01*
X774Y1498D01*
X774Y1496D01*
X776Y1496D01*
X776Y1494D01*
X778Y1494D01*
X778Y1492D01*
X780Y1492D01*
X780Y1490D01*
X782Y1490D01*
X782Y1488D01*
X784Y1488D01*
X784Y1486D01*
X786Y1486D01*
X786Y1484D01*
X788Y1484D01*
X788Y1482D01*
X790Y1482D01*
X790Y1480D01*
X792Y1480D01*
X792Y1478D01*
X794Y1478D01*
X794Y1476D01*
X796Y1476D01*
X796Y1474D01*
X798Y1474D01*
X798Y1472D01*
X800Y1472D01*
X800Y1470D01*
X802Y1470D01*
X802Y1468D01*
X804Y1468D01*
X804Y1466D01*
X806Y1466D01*
X806Y1464D01*
X808Y1464D01*
X808Y1462D01*
X810Y1462D01*
X810Y1460D01*
X812Y1460D01*
X812Y1458D01*
X814Y1458D01*
X814Y1456D01*
X816Y1456D01*
X816Y1454D01*
X818Y1454D01*
X818Y1452D01*
X820Y1452D01*
X820Y1450D01*
X822Y1450D01*
X822Y1448D01*
X824Y1448D01*
X824Y1446D01*
X826Y1446D01*
X826Y1444D01*
X828Y1444D01*
X828Y1442D01*
X830Y1442D01*
X830Y1440D01*
X832Y1440D01*
X832Y1438D01*
X834Y1438D01*
X834Y1436D01*
X836Y1436D01*
X836Y1434D01*
X838Y1434D01*
X838Y1432D01*
X840Y1432D01*
X840Y1430D01*
X842Y1430D01*
X842Y1428D01*
X844Y1428D01*
X844Y1426D01*
X846Y1426D01*
X846Y1424D01*
X848Y1424D01*
X848Y1422D01*
X850Y1422D01*
X850Y1420D01*
X852Y1420D01*
X852Y1418D01*
X854Y1418D01*
X854Y1416D01*
X856Y1416D01*
X856Y1414D01*
X858Y1414D01*
X858Y1412D01*
X860Y1412D01*
X860Y1410D01*
X862Y1410D01*
X862Y1408D01*
X864Y1408D01*
X864Y1406D01*
X866Y1406D01*
X866Y1404D01*
X868Y1404D01*
X868Y1402D01*
X870Y1402D01*
X870Y1400D01*
X872Y1400D01*
X872Y1398D01*
X874Y1398D01*
X874Y1396D01*
X876Y1396D01*
X876Y1394D01*
X878Y1394D01*
X878Y1392D01*
X880Y1392D01*
X880Y1390D01*
X882Y1390D01*
X882Y1388D01*
X884Y1388D01*
X884Y1386D01*
X886Y1386D01*
X886Y1384D01*
X888Y1384D01*
X888Y1382D01*
X890Y1382D01*
X890Y1380D01*
X892Y1380D01*
X892Y1378D01*
X894Y1378D01*
X894Y1376D01*
X896Y1376D01*
X896Y1374D01*
X898Y1374D01*
X898Y1372D01*
X900Y1372D01*
X900Y1370D01*
X902Y1370D01*
X902Y1368D01*
X904Y1368D01*
X904Y1366D01*
X906Y1366D01*
X906Y1364D01*
X908Y1364D01*
X908Y1362D01*
X910Y1362D01*
X910Y1360D01*
X912Y1360D01*
X912Y1358D01*
X914Y1358D01*
X914Y1356D01*
X916Y1356D01*
X916Y1354D01*
X918Y1354D01*
X918Y1352D01*
X920Y1352D01*
X920Y1350D01*
X922Y1350D01*
X922Y1348D01*
X924Y1348D01*
X924Y1346D01*
X926Y1346D01*
X926Y1344D01*
X928Y1344D01*
X928Y1342D01*
X930Y1342D01*
X930Y1340D01*
X932Y1340D01*
X932Y1338D01*
X934Y1338D01*
X934Y1336D01*
X936Y1336D01*
X936Y1334D01*
X938Y1334D01*
X938Y1332D01*
X940Y1332D01*
X940Y1330D01*
X942Y1330D01*
X942Y1328D01*
X944Y1328D01*
X944Y1326D01*
X946Y1326D01*
X946Y1324D01*
X948Y1324D01*
X948Y1322D01*
X950Y1322D01*
X950Y1320D01*
X952Y1320D01*
X952Y1318D01*
X1062Y1318D01*
X1062Y1316D01*
X1066Y1316D01*
X1066Y1314D01*
X1070Y1314D01*
X1070Y1312D01*
X1104Y1312D01*
X1104Y1310D01*
X1288Y1310D01*
X1288Y1330D01*
X1286Y1330D01*
X1286Y1332D01*
X1284Y1332D01*
X1284Y1334D01*
X1282Y1334D01*
X1282Y1336D01*
X1280Y1336D01*
X1280Y1338D01*
X1278Y1338D01*
X1278Y1340D01*
X1276Y1340D01*
X1276Y1344D01*
X1274Y1344D01*
X1274Y1346D01*
X1272Y1346D01*
X1272Y1348D01*
X1270Y1348D01*
X1270Y1350D01*
X1268Y1350D01*
X1268Y1352D01*
X1266Y1352D01*
X1266Y1354D01*
X1264Y1354D01*
X1264Y1356D01*
X1262Y1356D01*
X1262Y1358D01*
X1260Y1358D01*
X1260Y1360D01*
X1258Y1360D01*
X1258Y1362D01*
X1256Y1362D01*
X1256Y1364D01*
X1254Y1364D01*
X1254Y1366D01*
X1252Y1366D01*
X1252Y1370D01*
X1250Y1370D01*
X1250Y1372D01*
X1248Y1372D01*
X1248Y1374D01*
X1246Y1374D01*
X1246Y1376D01*
X1244Y1376D01*
X1244Y1378D01*
X1242Y1378D01*
X1242Y1380D01*
X1240Y1380D01*
X1240Y1382D01*
X1238Y1382D01*
X1238Y1384D01*
X1236Y1384D01*
X1236Y1386D01*
X1234Y1386D01*
X1234Y1388D01*
X1232Y1388D01*
X1232Y1390D01*
X1230Y1390D01*
X1230Y1392D01*
X1228Y1392D01*
X1228Y1394D01*
X1226Y1394D01*
X1226Y1398D01*
X1224Y1398D01*
X1224Y1400D01*
X1222Y1400D01*
X1222Y1402D01*
X1220Y1402D01*
X1220Y1404D01*
X1218Y1404D01*
X1218Y1406D01*
X1216Y1406D01*
X1216Y1408D01*
X1214Y1408D01*
X1214Y1410D01*
X1212Y1410D01*
X1212Y1412D01*
X1210Y1412D01*
X1210Y1414D01*
X1208Y1414D01*
X1208Y1416D01*
X1206Y1416D01*
X1206Y1418D01*
X1204Y1418D01*
X1204Y1420D01*
X1202Y1420D01*
X1202Y1424D01*
X1200Y1424D01*
X1200Y1426D01*
X1198Y1426D01*
X1198Y1428D01*
X1196Y1428D01*
X1196Y1430D01*
X1194Y1430D01*
X1194Y1432D01*
X1192Y1432D01*
X1192Y1434D01*
X1190Y1434D01*
X1190Y1436D01*
X1188Y1436D01*
X1188Y1438D01*
X1186Y1438D01*
X1186Y1440D01*
X1184Y1440D01*
X1184Y1442D01*
X1182Y1442D01*
X1182Y1444D01*
X1180Y1444D01*
X1180Y1446D01*
X1178Y1446D01*
X1178Y1448D01*
X1176Y1448D01*
X1176Y1452D01*
X1174Y1452D01*
X1174Y1454D01*
X1172Y1454D01*
X1172Y1456D01*
X1170Y1456D01*
X1170Y1458D01*
X1168Y1458D01*
X1168Y1460D01*
X1166Y1460D01*
X1166Y1462D01*
X1164Y1462D01*
X1164Y1464D01*
X1162Y1464D01*
X1162Y1466D01*
X1160Y1466D01*
X1160Y1468D01*
X1158Y1468D01*
X1158Y1470D01*
X1156Y1470D01*
X1156Y1472D01*
X1154Y1472D01*
X1154Y1474D01*
X1152Y1474D01*
X1152Y1478D01*
X1150Y1478D01*
X1150Y1480D01*
X1148Y1480D01*
X1148Y1482D01*
X1146Y1482D01*
X1146Y1484D01*
X1144Y1484D01*
X1144Y1486D01*
X1142Y1486D01*
X1142Y1488D01*
X1140Y1488D01*
X1140Y1490D01*
X1138Y1490D01*
X1138Y1492D01*
X1136Y1492D01*
X1136Y1494D01*
X1134Y1494D01*
X1134Y1496D01*
X1132Y1496D01*
X1132Y1498D01*
X1130Y1498D01*
X1130Y1500D01*
X1128Y1500D01*
X1128Y1502D01*
X1126Y1502D01*
X1126Y1506D01*
X1124Y1506D01*
X1124Y1508D01*
X1122Y1508D01*
X1122Y1510D01*
X1120Y1510D01*
X1120Y1512D01*
X1118Y1512D01*
X1118Y1514D01*
X1116Y1514D01*
X1116Y1516D01*
X1114Y1516D01*
X1114Y1518D01*
X1112Y1518D01*
X1112Y1520D01*
X1110Y1520D01*
X1110Y1522D01*
X1108Y1522D01*
X1108Y1524D01*
X1106Y1524D01*
X1106Y1526D01*
X1104Y1526D01*
X1104Y1528D01*
X1102Y1528D01*
X1102Y1532D01*
X1100Y1532D01*
X1100Y1534D01*
X1098Y1534D01*
X1098Y1536D01*
X1096Y1536D01*
X1096Y1538D01*
X1094Y1538D01*
X1094Y1540D01*
X1092Y1540D01*
X1092Y1542D01*
X1090Y1542D01*
X1090Y1544D01*
X1088Y1544D01*
X1088Y1546D01*
X1086Y1546D01*
X1086Y1548D01*
X1084Y1548D01*
X1084Y1550D01*
X1082Y1550D01*
X1082Y1552D01*
X1080Y1552D01*
X1080Y1554D01*
X1078Y1554D01*
X1078Y1556D01*
X1076Y1556D01*
X1076Y1560D01*
X1074Y1560D01*
X1074Y1562D01*
X1072Y1562D01*
X1072Y1564D01*
X1070Y1564D01*
X1070Y1566D01*
X1068Y1566D01*
X1068Y1568D01*
X1066Y1568D01*
X1066Y1570D01*
X1064Y1570D01*
X1064Y1572D01*
X1062Y1572D01*
X1062Y1574D01*
X1060Y1574D01*
X1060Y1576D01*
X1058Y1576D01*
X1058Y1578D01*
X1056Y1578D01*
X1056Y1580D01*
X696Y1580D01*
G37*
D02*
G36*
X954Y1318D02*
X954Y1316D01*
X956Y1316D01*
X956Y1314D01*
X958Y1314D01*
X958Y1312D01*
X960Y1312D01*
X960Y1310D01*
X962Y1310D01*
X962Y1308D01*
X964Y1308D01*
X964Y1306D01*
X966Y1306D01*
X966Y1304D01*
X968Y1304D01*
X968Y1302D01*
X970Y1302D01*
X970Y1300D01*
X972Y1300D01*
X972Y1298D01*
X974Y1298D01*
X974Y1296D01*
X976Y1296D01*
X976Y1294D01*
X978Y1294D01*
X978Y1292D01*
X998Y1292D01*
X998Y1294D01*
X1000Y1294D01*
X1000Y1298D01*
X1002Y1298D01*
X1002Y1300D01*
X1004Y1300D01*
X1004Y1302D01*
X1006Y1302D01*
X1006Y1304D01*
X1008Y1304D01*
X1008Y1306D01*
X1010Y1306D01*
X1010Y1308D01*
X1012Y1308D01*
X1012Y1310D01*
X1016Y1310D01*
X1016Y1312D01*
X1018Y1312D01*
X1018Y1314D01*
X1022Y1314D01*
X1022Y1316D01*
X1026Y1316D01*
X1026Y1318D01*
X954Y1318D01*
G37*
D02*
G36*
X1596Y1726D02*
X1596Y1706D01*
X1598Y1706D01*
X1598Y1704D01*
X1600Y1704D01*
X1600Y1702D01*
X1602Y1702D01*
X1602Y1700D01*
X1604Y1700D01*
X1604Y1698D01*
X1606Y1698D01*
X1606Y1696D01*
X1608Y1696D01*
X1608Y1694D01*
X1610Y1694D01*
X1610Y1692D01*
X1612Y1692D01*
X1612Y1688D01*
X1614Y1688D01*
X1614Y1686D01*
X1616Y1686D01*
X1616Y1682D01*
X1618Y1682D01*
X1618Y1678D01*
X1620Y1678D01*
X1620Y1672D01*
X1622Y1672D01*
X1622Y1666D01*
X1624Y1666D01*
X1624Y1636D01*
X1622Y1636D01*
X1622Y1628D01*
X1620Y1628D01*
X1620Y1624D01*
X1618Y1624D01*
X1618Y1620D01*
X1616Y1620D01*
X1616Y1616D01*
X1614Y1616D01*
X1614Y1612D01*
X1612Y1612D01*
X1612Y1610D01*
X1610Y1610D01*
X1610Y1608D01*
X1608Y1608D01*
X1608Y1604D01*
X1606Y1604D01*
X1606Y1602D01*
X1604Y1602D01*
X1604Y1582D01*
X1606Y1582D01*
X1606Y1580D01*
X1608Y1580D01*
X1608Y1578D01*
X1610Y1578D01*
X1610Y1574D01*
X1612Y1574D01*
X1612Y1572D01*
X1614Y1572D01*
X1614Y1570D01*
X1616Y1570D01*
X1616Y1566D01*
X1618Y1566D01*
X1618Y1564D01*
X1620Y1564D01*
X1620Y1562D01*
X1622Y1562D01*
X1622Y1558D01*
X1624Y1558D01*
X1624Y1556D01*
X1626Y1556D01*
X1626Y1554D01*
X1628Y1554D01*
X1628Y1550D01*
X1630Y1550D01*
X1630Y1548D01*
X1632Y1548D01*
X1632Y1546D01*
X1634Y1546D01*
X1634Y1544D01*
X1636Y1544D01*
X1636Y1540D01*
X1638Y1540D01*
X1638Y1538D01*
X1640Y1538D01*
X1640Y1536D01*
X1642Y1536D01*
X1642Y1532D01*
X1644Y1532D01*
X1644Y1530D01*
X1646Y1530D01*
X1646Y1528D01*
X1648Y1528D01*
X1648Y1526D01*
X1942Y1526D01*
X1942Y1524D01*
X1950Y1524D01*
X1950Y1522D01*
X1956Y1522D01*
X1956Y1520D01*
X1960Y1520D01*
X1960Y1518D01*
X1962Y1518D01*
X1962Y1516D01*
X1964Y1516D01*
X1964Y1514D01*
X1968Y1514D01*
X1968Y1512D01*
X1970Y1512D01*
X1970Y1510D01*
X1972Y1510D01*
X1972Y1508D01*
X1974Y1508D01*
X1974Y1504D01*
X1976Y1504D01*
X1976Y1502D01*
X1978Y1502D01*
X1978Y1498D01*
X1980Y1498D01*
X1980Y1496D01*
X1982Y1496D01*
X1982Y1490D01*
X1984Y1490D01*
X1984Y1456D01*
X1982Y1456D01*
X1982Y1452D01*
X1980Y1452D01*
X1980Y1448D01*
X1978Y1448D01*
X1978Y1444D01*
X1976Y1444D01*
X1976Y1442D01*
X1974Y1442D01*
X1974Y1440D01*
X1972Y1440D01*
X1972Y1438D01*
X1970Y1438D01*
X1970Y1436D01*
X1968Y1436D01*
X1968Y1434D01*
X1966Y1434D01*
X1966Y1432D01*
X1964Y1432D01*
X1964Y1430D01*
X1960Y1430D01*
X1960Y1428D01*
X1958Y1428D01*
X1958Y1426D01*
X1954Y1426D01*
X1954Y1424D01*
X1948Y1424D01*
X1948Y1422D01*
X2122Y1422D01*
X2122Y1726D01*
X1596Y1726D01*
G37*
D02*
G36*
X1648Y1526D02*
X1648Y1524D01*
X1650Y1524D01*
X1650Y1522D01*
X1652Y1522D01*
X1652Y1520D01*
X1654Y1520D01*
X1654Y1516D01*
X1656Y1516D01*
X1656Y1514D01*
X1658Y1514D01*
X1658Y1512D01*
X1660Y1512D01*
X1660Y1508D01*
X1662Y1508D01*
X1662Y1506D01*
X1664Y1506D01*
X1664Y1504D01*
X1666Y1504D01*
X1666Y1500D01*
X1668Y1500D01*
X1668Y1498D01*
X1670Y1498D01*
X1670Y1496D01*
X1760Y1496D01*
X1760Y1442D01*
X1816Y1442D01*
X1816Y1440D01*
X1822Y1440D01*
X1822Y1438D01*
X1874Y1438D01*
X1874Y1436D01*
X1876Y1436D01*
X1876Y1422D01*
X1918Y1422D01*
X1918Y1424D01*
X1912Y1424D01*
X1912Y1426D01*
X1908Y1426D01*
X1908Y1428D01*
X1906Y1428D01*
X1906Y1430D01*
X1902Y1430D01*
X1902Y1432D01*
X1900Y1432D01*
X1900Y1434D01*
X1898Y1434D01*
X1898Y1436D01*
X1896Y1436D01*
X1896Y1438D01*
X1894Y1438D01*
X1894Y1440D01*
X1892Y1440D01*
X1892Y1442D01*
X1890Y1442D01*
X1890Y1444D01*
X1888Y1444D01*
X1888Y1448D01*
X1886Y1448D01*
X1886Y1452D01*
X1884Y1452D01*
X1884Y1456D01*
X1882Y1456D01*
X1882Y1490D01*
X1884Y1490D01*
X1884Y1496D01*
X1886Y1496D01*
X1886Y1498D01*
X1888Y1498D01*
X1888Y1502D01*
X1890Y1502D01*
X1890Y1504D01*
X1892Y1504D01*
X1892Y1508D01*
X1894Y1508D01*
X1894Y1510D01*
X1896Y1510D01*
X1896Y1512D01*
X1898Y1512D01*
X1898Y1514D01*
X1902Y1514D01*
X1902Y1516D01*
X1904Y1516D01*
X1904Y1518D01*
X1906Y1518D01*
X1906Y1520D01*
X1910Y1520D01*
X1910Y1522D01*
X1916Y1522D01*
X1916Y1524D01*
X1924Y1524D01*
X1924Y1526D01*
X1648Y1526D01*
G37*
D02*
G36*
X1672Y1496D02*
X1672Y1492D01*
X1674Y1492D01*
X1674Y1490D01*
X1676Y1490D01*
X1676Y1488D01*
X1678Y1488D01*
X1678Y1486D01*
X1680Y1486D01*
X1680Y1482D01*
X1682Y1482D01*
X1682Y1480D01*
X1684Y1480D01*
X1684Y1478D01*
X1686Y1478D01*
X1686Y1474D01*
X1688Y1474D01*
X1688Y1472D01*
X1690Y1472D01*
X1690Y1466D01*
X1692Y1466D01*
X1692Y1460D01*
X1712Y1460D01*
X1712Y1496D01*
X1672Y1496D01*
G37*
D02*
G36*
X1876Y1422D02*
X1876Y1420D01*
X2122Y1420D01*
X2122Y1422D01*
X1876Y1422D01*
G37*
D02*
G36*
X1876Y1422D02*
X1876Y1420D01*
X2122Y1420D01*
X2122Y1422D01*
X1876Y1422D01*
G37*
D02*
G36*
X1876Y1420D02*
X1876Y1362D01*
X1874Y1362D01*
X1874Y1360D01*
X1824Y1360D01*
X1824Y1358D01*
X1818Y1358D01*
X1818Y1356D01*
X1810Y1356D01*
X1810Y1354D01*
X2122Y1354D01*
X2122Y1420D01*
X1876Y1420D01*
G37*
D02*
G36*
X1686Y1418D02*
X1686Y1416D01*
X1684Y1416D01*
X1684Y1414D01*
X1682Y1414D01*
X1682Y1412D01*
X1680Y1412D01*
X1680Y1410D01*
X1678Y1410D01*
X1678Y1408D01*
X1674Y1408D01*
X1674Y1406D01*
X1670Y1406D01*
X1670Y1404D01*
X1664Y1404D01*
X1664Y1402D01*
X1642Y1402D01*
X1642Y1382D01*
X1644Y1382D01*
X1644Y1380D01*
X1646Y1380D01*
X1646Y1378D01*
X1648Y1378D01*
X1648Y1376D01*
X1650Y1376D01*
X1650Y1374D01*
X1652Y1374D01*
X1652Y1372D01*
X1654Y1372D01*
X1654Y1370D01*
X1656Y1370D01*
X1656Y1366D01*
X1658Y1366D01*
X1658Y1364D01*
X1660Y1364D01*
X1660Y1362D01*
X1662Y1362D01*
X1662Y1360D01*
X1664Y1360D01*
X1664Y1358D01*
X1666Y1358D01*
X1666Y1356D01*
X1668Y1356D01*
X1668Y1354D01*
X1736Y1354D01*
X1736Y1356D01*
X1728Y1356D01*
X1728Y1358D01*
X1724Y1358D01*
X1724Y1360D01*
X1720Y1360D01*
X1720Y1362D01*
X1718Y1362D01*
X1718Y1364D01*
X1716Y1364D01*
X1716Y1366D01*
X1714Y1366D01*
X1714Y1368D01*
X1712Y1368D01*
X1712Y1370D01*
X1710Y1370D01*
X1710Y1374D01*
X1708Y1374D01*
X1708Y1378D01*
X1706Y1378D01*
X1706Y1384D01*
X1704Y1384D01*
X1704Y1412D01*
X1706Y1412D01*
X1706Y1418D01*
X1686Y1418D01*
G37*
D02*
G36*
X1670Y1354D02*
X1670Y1352D01*
X2122Y1352D01*
X2122Y1354D01*
X1670Y1354D01*
G37*
D02*
G36*
X1670Y1354D02*
X1670Y1352D01*
X2122Y1352D01*
X2122Y1354D01*
X1670Y1354D01*
G37*
D02*
G36*
X1672Y1352D02*
X1672Y1348D01*
X1674Y1348D01*
X1674Y1346D01*
X1676Y1346D01*
X1676Y1344D01*
X1678Y1344D01*
X1678Y1342D01*
X1680Y1342D01*
X1680Y1340D01*
X1682Y1340D01*
X1682Y1338D01*
X1684Y1338D01*
X1684Y1336D01*
X1686Y1336D01*
X1686Y1332D01*
X1688Y1332D01*
X1688Y1330D01*
X1690Y1330D01*
X1690Y1328D01*
X1692Y1328D01*
X1692Y1326D01*
X1694Y1326D01*
X1694Y1324D01*
X1696Y1324D01*
X1696Y1322D01*
X1698Y1322D01*
X1698Y1320D01*
X1700Y1320D01*
X1700Y1318D01*
X1892Y1318D01*
X1892Y1316D01*
X1918Y1316D01*
X1918Y1314D01*
X1926Y1314D01*
X1926Y1312D01*
X1930Y1312D01*
X1930Y1310D01*
X1932Y1310D01*
X1932Y1308D01*
X1936Y1308D01*
X1936Y1306D01*
X1938Y1306D01*
X1938Y1304D01*
X1940Y1304D01*
X1940Y1302D01*
X1942Y1302D01*
X1942Y1298D01*
X1944Y1298D01*
X1944Y1296D01*
X1946Y1296D01*
X1946Y1294D01*
X1948Y1294D01*
X1948Y1290D01*
X1950Y1290D01*
X1950Y1288D01*
X1952Y1288D01*
X1952Y1286D01*
X1954Y1286D01*
X1954Y1284D01*
X1956Y1284D01*
X1956Y1280D01*
X1958Y1280D01*
X1958Y1278D01*
X1960Y1278D01*
X1960Y1276D01*
X1962Y1276D01*
X1962Y1274D01*
X1964Y1274D01*
X1964Y1270D01*
X1966Y1270D01*
X1966Y1268D01*
X1968Y1268D01*
X1968Y1266D01*
X1970Y1266D01*
X1970Y1262D01*
X1972Y1262D01*
X1972Y1260D01*
X1974Y1260D01*
X1974Y1258D01*
X1976Y1258D01*
X1976Y1256D01*
X1978Y1256D01*
X1978Y1252D01*
X1980Y1252D01*
X1980Y1250D01*
X1982Y1250D01*
X1982Y1248D01*
X1984Y1248D01*
X1984Y1246D01*
X1986Y1246D01*
X1986Y1242D01*
X1988Y1242D01*
X1988Y1240D01*
X1990Y1240D01*
X1990Y1238D01*
X1992Y1238D01*
X1992Y1234D01*
X1994Y1234D01*
X1994Y1232D01*
X1996Y1232D01*
X1996Y1230D01*
X1998Y1230D01*
X1998Y1228D01*
X2000Y1228D01*
X2000Y1224D01*
X2002Y1224D01*
X2002Y1222D01*
X2004Y1222D01*
X2004Y1220D01*
X2006Y1220D01*
X2006Y1216D01*
X2008Y1216D01*
X2008Y1212D01*
X2010Y1212D01*
X2010Y1206D01*
X2012Y1206D01*
X2012Y738D01*
X2010Y738D01*
X2010Y732D01*
X2008Y732D01*
X2008Y728D01*
X2006Y728D01*
X2006Y724D01*
X2004Y724D01*
X2004Y722D01*
X2002Y722D01*
X2002Y720D01*
X2000Y720D01*
X2000Y718D01*
X1998Y718D01*
X1998Y716D01*
X1996Y716D01*
X1996Y714D01*
X1992Y714D01*
X1992Y712D01*
X1986Y712D01*
X1986Y710D01*
X1976Y710D01*
X1976Y708D01*
X1874Y708D01*
X1874Y688D01*
X1876Y688D01*
X1876Y686D01*
X1878Y686D01*
X1878Y684D01*
X1880Y684D01*
X1880Y682D01*
X1882Y682D01*
X1882Y680D01*
X1884Y680D01*
X1884Y678D01*
X1886Y678D01*
X1886Y674D01*
X1888Y674D01*
X1888Y672D01*
X1890Y672D01*
X1890Y670D01*
X1892Y670D01*
X1892Y668D01*
X1894Y668D01*
X1894Y666D01*
X1896Y666D01*
X1896Y664D01*
X1898Y664D01*
X1898Y662D01*
X1900Y662D01*
X1900Y660D01*
X1902Y660D01*
X1902Y658D01*
X1904Y658D01*
X1904Y656D01*
X1906Y656D01*
X1906Y654D01*
X1908Y654D01*
X1908Y652D01*
X1910Y652D01*
X1910Y650D01*
X1912Y650D01*
X1912Y648D01*
X1914Y648D01*
X1914Y646D01*
X1916Y646D01*
X1916Y644D01*
X1918Y644D01*
X1918Y642D01*
X1920Y642D01*
X1920Y640D01*
X1922Y640D01*
X1922Y638D01*
X1924Y638D01*
X1924Y636D01*
X1926Y636D01*
X1926Y634D01*
X1928Y634D01*
X1928Y630D01*
X1930Y630D01*
X1930Y628D01*
X1932Y628D01*
X1932Y626D01*
X1934Y626D01*
X1934Y624D01*
X1936Y624D01*
X1936Y622D01*
X1938Y622D01*
X1938Y620D01*
X1940Y620D01*
X1940Y618D01*
X1942Y618D01*
X1942Y616D01*
X1944Y616D01*
X1944Y614D01*
X1946Y614D01*
X1946Y612D01*
X1948Y612D01*
X1948Y608D01*
X1950Y608D01*
X1950Y602D01*
X1952Y602D01*
X1952Y456D01*
X1954Y456D01*
X1954Y364D01*
X2070Y364D01*
X2070Y312D01*
X2072Y312D01*
X2072Y308D01*
X2074Y308D01*
X2074Y302D01*
X2076Y302D01*
X2076Y210D01*
X2078Y210D01*
X2078Y204D01*
X2080Y204D01*
X2080Y198D01*
X2082Y198D01*
X2082Y194D01*
X2084Y194D01*
X2084Y188D01*
X2086Y188D01*
X2086Y184D01*
X2088Y184D01*
X2088Y178D01*
X2090Y178D01*
X2090Y174D01*
X2092Y174D01*
X2092Y168D01*
X2094Y168D01*
X2094Y164D01*
X2096Y164D01*
X2096Y158D01*
X2100Y158D01*
X2100Y156D01*
X2122Y156D01*
X2122Y1352D01*
X1672Y1352D01*
G37*
D02*
G36*
X1702Y1318D02*
X1702Y1314D01*
X1704Y1314D01*
X1704Y1312D01*
X1706Y1312D01*
X1706Y1310D01*
X1708Y1310D01*
X1708Y1308D01*
X1710Y1308D01*
X1710Y1306D01*
X1712Y1306D01*
X1712Y1304D01*
X1714Y1304D01*
X1714Y1302D01*
X1716Y1302D01*
X1716Y1300D01*
X1718Y1300D01*
X1718Y1296D01*
X1720Y1296D01*
X1720Y1294D01*
X1722Y1294D01*
X1722Y1292D01*
X1724Y1292D01*
X1724Y1290D01*
X1726Y1290D01*
X1726Y1288D01*
X1728Y1288D01*
X1728Y1286D01*
X1730Y1286D01*
X1730Y1284D01*
X1732Y1284D01*
X1732Y1280D01*
X1734Y1280D01*
X1734Y1278D01*
X1736Y1278D01*
X1736Y1276D01*
X1738Y1276D01*
X1738Y1274D01*
X1740Y1274D01*
X1740Y1272D01*
X1742Y1272D01*
X1742Y1270D01*
X1744Y1270D01*
X1744Y1268D01*
X1746Y1268D01*
X1746Y1266D01*
X1748Y1266D01*
X1748Y1262D01*
X1750Y1262D01*
X1750Y1260D01*
X1752Y1260D01*
X1752Y1258D01*
X1754Y1258D01*
X1754Y1256D01*
X1756Y1256D01*
X1756Y1254D01*
X1758Y1254D01*
X1758Y1252D01*
X1760Y1252D01*
X1760Y1250D01*
X1762Y1250D01*
X1762Y1246D01*
X1764Y1246D01*
X1764Y1244D01*
X1766Y1244D01*
X1766Y1242D01*
X1786Y1242D01*
X1786Y1314D01*
X1788Y1314D01*
X1788Y1316D01*
X1846Y1316D01*
X1846Y1318D01*
X1702Y1318D01*
G37*
D02*
G36*
X1954Y364D02*
X1954Y340D01*
X1952Y340D01*
X1952Y332D01*
X1950Y332D01*
X1950Y308D01*
X1952Y308D01*
X1952Y300D01*
X1954Y300D01*
X1954Y216D01*
X1956Y216D01*
X1956Y212D01*
X1958Y212D01*
X1958Y210D01*
X1960Y210D01*
X1960Y206D01*
X1962Y206D01*
X1962Y202D01*
X1964Y202D01*
X1964Y200D01*
X1966Y200D01*
X1966Y196D01*
X1968Y196D01*
X1968Y192D01*
X1988Y192D01*
X1988Y306D01*
X1990Y306D01*
X1990Y310D01*
X1992Y310D01*
X1992Y364D01*
X1954Y364D01*
G37*
D02*
G36*
X1788Y1238D02*
X1788Y1218D01*
X1790Y1218D01*
X1790Y1216D01*
X1792Y1216D01*
X1792Y1214D01*
X1794Y1214D01*
X1794Y1210D01*
X1796Y1210D01*
X1796Y1208D01*
X1798Y1208D01*
X1798Y1206D01*
X1800Y1206D01*
X1800Y1204D01*
X1802Y1204D01*
X1802Y1202D01*
X1804Y1202D01*
X1804Y1200D01*
X1806Y1200D01*
X1806Y1198D01*
X1888Y1198D01*
X1888Y1218D01*
X1886Y1218D01*
X1886Y1220D01*
X1884Y1220D01*
X1884Y1224D01*
X1882Y1224D01*
X1882Y1226D01*
X1880Y1226D01*
X1880Y1228D01*
X1876Y1228D01*
X1876Y1230D01*
X1848Y1230D01*
X1848Y1232D01*
X1842Y1232D01*
X1842Y1234D01*
X1838Y1234D01*
X1838Y1236D01*
X1834Y1236D01*
X1834Y1238D01*
X1788Y1238D01*
G37*
D02*
G36*
X1022Y870D02*
X1022Y868D01*
X1020Y868D01*
X1020Y866D01*
X1018Y866D01*
X1018Y864D01*
X1014Y864D01*
X1014Y862D01*
X1010Y862D01*
X1010Y860D01*
X1006Y860D01*
X1006Y858D01*
X1000Y858D01*
X1000Y856D01*
X1066Y856D01*
X1066Y858D01*
X1058Y858D01*
X1058Y860D01*
X1054Y860D01*
X1054Y862D01*
X1050Y862D01*
X1050Y864D01*
X1048Y864D01*
X1048Y866D01*
X1044Y866D01*
X1044Y868D01*
X1042Y868D01*
X1042Y870D01*
X1022Y870D01*
G37*
D02*
G36*
X1122Y870D02*
X1122Y868D01*
X1120Y868D01*
X1120Y866D01*
X1118Y866D01*
X1118Y864D01*
X1114Y864D01*
X1114Y862D01*
X1110Y862D01*
X1110Y860D01*
X1106Y860D01*
X1106Y858D01*
X1100Y858D01*
X1100Y856D01*
X1166Y856D01*
X1166Y858D01*
X1158Y858D01*
X1158Y860D01*
X1154Y860D01*
X1154Y862D01*
X1150Y862D01*
X1150Y864D01*
X1148Y864D01*
X1148Y866D01*
X1144Y866D01*
X1144Y868D01*
X1142Y868D01*
X1142Y870D01*
X1122Y870D01*
G37*
D02*
G36*
X972Y856D02*
X972Y854D01*
X1174Y854D01*
X1174Y856D01*
X972Y856D01*
G37*
D02*
G36*
X972Y856D02*
X972Y854D01*
X1174Y854D01*
X1174Y856D01*
X972Y856D01*
G37*
D02*
G36*
X972Y854D02*
X972Y836D01*
X974Y836D01*
X974Y834D01*
X976Y834D01*
X976Y832D01*
X978Y832D01*
X978Y828D01*
X980Y828D01*
X980Y826D01*
X982Y826D01*
X982Y824D01*
X984Y824D01*
X984Y820D01*
X986Y820D01*
X986Y818D01*
X988Y818D01*
X988Y816D01*
X990Y816D01*
X990Y814D01*
X992Y814D01*
X992Y810D01*
X994Y810D01*
X994Y808D01*
X996Y808D01*
X996Y806D01*
X998Y806D01*
X998Y802D01*
X1000Y802D01*
X1000Y800D01*
X1002Y800D01*
X1002Y798D01*
X1004Y798D01*
X1004Y796D01*
X1006Y796D01*
X1006Y792D01*
X1008Y792D01*
X1008Y790D01*
X1010Y790D01*
X1010Y788D01*
X1012Y788D01*
X1012Y784D01*
X1014Y784D01*
X1014Y782D01*
X1016Y782D01*
X1016Y780D01*
X1018Y780D01*
X1018Y776D01*
X1020Y776D01*
X1020Y774D01*
X1022Y774D01*
X1022Y772D01*
X1024Y772D01*
X1024Y770D01*
X1026Y770D01*
X1026Y766D01*
X1028Y766D01*
X1028Y764D01*
X1030Y764D01*
X1030Y762D01*
X1032Y762D01*
X1032Y758D01*
X1034Y758D01*
X1034Y756D01*
X1036Y756D01*
X1036Y754D01*
X1038Y754D01*
X1038Y750D01*
X1040Y750D01*
X1040Y748D01*
X1042Y748D01*
X1042Y746D01*
X1044Y746D01*
X1044Y744D01*
X1046Y744D01*
X1046Y742D01*
X1250Y742D01*
X1250Y762D01*
X1246Y762D01*
X1246Y764D01*
X1242Y764D01*
X1242Y766D01*
X1238Y766D01*
X1238Y768D01*
X1236Y768D01*
X1236Y770D01*
X1234Y770D01*
X1234Y772D01*
X1232Y772D01*
X1232Y774D01*
X1230Y774D01*
X1230Y778D01*
X1228Y778D01*
X1228Y780D01*
X1226Y780D01*
X1226Y782D01*
X1224Y782D01*
X1224Y786D01*
X1222Y786D01*
X1222Y788D01*
X1220Y788D01*
X1220Y792D01*
X1218Y792D01*
X1218Y794D01*
X1216Y794D01*
X1216Y796D01*
X1214Y796D01*
X1214Y800D01*
X1212Y800D01*
X1212Y802D01*
X1210Y802D01*
X1210Y806D01*
X1208Y806D01*
X1208Y808D01*
X1206Y808D01*
X1206Y810D01*
X1204Y810D01*
X1204Y814D01*
X1202Y814D01*
X1202Y816D01*
X1200Y816D01*
X1200Y820D01*
X1198Y820D01*
X1198Y822D01*
X1196Y822D01*
X1196Y824D01*
X1194Y824D01*
X1194Y828D01*
X1192Y828D01*
X1192Y830D01*
X1190Y830D01*
X1190Y834D01*
X1188Y834D01*
X1188Y836D01*
X1186Y836D01*
X1186Y838D01*
X1184Y838D01*
X1184Y842D01*
X1182Y842D01*
X1182Y844D01*
X1180Y844D01*
X1180Y846D01*
X1178Y846D01*
X1178Y850D01*
X1176Y850D01*
X1176Y852D01*
X1174Y852D01*
X1174Y854D01*
X972Y854D01*
G37*
D02*
G36*
X1510Y762D02*
X1510Y742D01*
X1778Y742D01*
X1778Y762D01*
X1510Y762D01*
G37*
D02*
G36*
X962Y910D02*
X997Y910D01*
X997Y856D01*
X962Y856D01*
X962Y910D01*
G37*
D02*
G36*
X412Y1457D02*
X476Y1457D01*
X476Y1408D01*
X412Y1408D01*
X412Y1457D01*
G37*
D02*
G36*
X43Y138D02*
X80Y138D01*
X80Y84D01*
X43Y84D01*
X43Y138D01*
G37*
D02*
G36*
X43Y50D02*
X80Y50D01*
X80Y2D01*
X43Y2D01*
X43Y50D01*
G37*
D02*
G36*
X78Y85D02*
X132Y85D01*
X132Y48D01*
X78Y48D01*
X78Y85D01*
G37*
D02*
G36*
X515Y138D02*
X552Y138D01*
X552Y84D01*
X515Y84D01*
X515Y138D01*
G37*
D02*
G36*
X515Y50D02*
X552Y50D01*
X552Y2D01*
X515Y2D01*
X515Y50D01*
G37*
D02*
G36*
X462Y85D02*
X516Y85D01*
X516Y48D01*
X462Y48D01*
X462Y85D01*
G37*
D02*
G36*
X550Y85D02*
X604Y85D01*
X604Y48D01*
X550Y48D01*
X550Y85D01*
G37*
D02*
G36*
X1853Y78D02*
X1890Y78D01*
X1890Y2D01*
X1853Y2D01*
X1853Y78D01*
G37*
D02*
G36*
X299Y138D02*
X336Y138D01*
X336Y84D01*
X299Y84D01*
X299Y138D01*
G37*
D02*
G36*
X299Y50D02*
X336Y50D01*
X336Y2D01*
X299Y2D01*
X299Y50D01*
G37*
D02*
G36*
X246Y85D02*
X300Y85D01*
X300Y48D01*
X246Y48D01*
X246Y85D01*
G37*
D02*
G36*
X334Y85D02*
X388Y85D01*
X388Y48D01*
X334Y48D01*
X334Y85D01*
G37*
D02*
G36*
X771Y138D02*
X808Y138D01*
X808Y84D01*
X771Y84D01*
X771Y138D01*
G37*
D02*
G36*
X771Y50D02*
X808Y50D01*
X808Y2D01*
X771Y2D01*
X771Y50D01*
G37*
D02*
G36*
X718Y85D02*
X772Y85D01*
X772Y48D01*
X718Y48D01*
X718Y85D01*
G37*
D02*
G36*
X806Y85D02*
X860Y85D01*
X860Y48D01*
X806Y48D01*
X806Y85D01*
G37*
D02*
G36*
X1459Y138D02*
X1496Y138D01*
X1496Y84D01*
X1459Y84D01*
X1459Y138D01*
G37*
D02*
G36*
X1459Y50D02*
X1496Y50D01*
X1496Y2D01*
X1459Y2D01*
X1459Y50D01*
G37*
D02*
G36*
X1406Y85D02*
X1460Y85D01*
X1460Y48D01*
X1406Y48D01*
X1406Y85D01*
G37*
D02*
G36*
X1494Y85D02*
X1550Y85D01*
X1550Y48D01*
X1494Y48D01*
X1494Y85D01*
G37*
D02*
G36*
X987Y138D02*
X1024Y138D01*
X1024Y84D01*
X987Y84D01*
X987Y138D01*
G37*
D02*
G36*
X987Y50D02*
X1024Y50D01*
X1024Y2D01*
X987Y2D01*
X987Y50D01*
G37*
D02*
G36*
X934Y85D02*
X988Y85D01*
X988Y48D01*
X934Y48D01*
X934Y85D01*
G37*
D02*
G36*
X1022Y85D02*
X1078Y85D01*
X1078Y48D01*
X1022Y48D01*
X1022Y85D01*
G37*
D02*
G36*
X1715Y138D02*
X1752Y138D01*
X1752Y84D01*
X1715Y84D01*
X1715Y138D01*
G37*
D02*
G36*
X1715Y50D02*
X1752Y50D01*
X1752Y2D01*
X1715Y2D01*
X1715Y50D01*
G37*
D02*
G36*
X1662Y85D02*
X1716Y85D01*
X1716Y48D01*
X1662Y48D01*
X1662Y85D01*
G37*
D02*
G36*
X1243Y138D02*
X1280Y138D01*
X1280Y84D01*
X1243Y84D01*
X1243Y138D01*
G37*
D02*
G36*
X1243Y50D02*
X1280Y50D01*
X1280Y2D01*
X1243Y2D01*
X1243Y50D01*
G37*
D02*
G36*
X1190Y85D02*
X1244Y85D01*
X1244Y48D01*
X1190Y48D01*
X1190Y85D01*
G37*
D02*
G36*
X1278Y85D02*
X1334Y85D01*
X1334Y48D01*
X1278Y48D01*
X1278Y85D01*
G37*
D02*
G36*
X433Y1636D02*
X470Y1636D01*
X470Y1582D01*
X433Y1582D01*
X433Y1636D01*
G37*
D02*
G36*
X1725Y1500D02*
X1742Y1500D01*
X1742Y1476D01*
X1725Y1476D01*
X1725Y1500D01*
G37*
D02*
G36*
X1725Y1474D02*
X1742Y1474D01*
X1742Y1450D01*
X1725Y1450D01*
X1725Y1474D01*
G37*
D02*
G36*
X1708Y1482D02*
X1732Y1482D01*
X1732Y1467D01*
X1708Y1467D01*
X1708Y1482D01*
G37*
D02*
G36*
X1920Y1530D02*
X1939Y1530D01*
X1939Y1482D01*
X1920Y1482D01*
X1920Y1530D01*
G37*
D02*
G36*
X1920Y1468D02*
X1939Y1468D01*
X1939Y1422D01*
X1920Y1422D01*
X1920Y1468D01*
G37*
D02*
G36*
X1936Y1484D02*
X1984Y1484D01*
X1984Y1465D01*
X1936Y1465D01*
X1936Y1484D01*
G37*
D02*
G36*
X733Y1724D02*
X770Y1724D01*
X770Y1670D01*
X733Y1670D01*
X733Y1724D01*
G37*
D02*
G36*
X733Y1636D02*
X770Y1636D01*
X770Y1582D01*
X733Y1582D01*
X733Y1636D01*
G37*
D02*
G36*
X833Y1724D02*
X870Y1724D01*
X870Y1670D01*
X833Y1670D01*
X833Y1724D01*
G37*
D02*
G36*
X833Y1636D02*
X870Y1636D01*
X870Y1582D01*
X833Y1582D01*
X833Y1636D01*
G37*
D02*
G36*
X933Y1724D02*
X970Y1724D01*
X970Y1670D01*
X933Y1670D01*
X933Y1724D01*
G37*
D02*
G36*
X933Y1636D02*
X970Y1636D01*
X970Y1582D01*
X933Y1582D01*
X933Y1636D01*
G37*
D02*
G54D23*
X0Y1671D02*
X35Y1671D01*
X0Y1670D02*
X35Y1670D01*
X0Y1669D02*
X35Y1669D01*
X0Y1668D02*
X35Y1668D01*
X0Y1667D02*
X35Y1667D01*
X0Y1666D02*
X35Y1666D01*
X0Y1665D02*
X35Y1665D01*
X0Y1664D02*
X35Y1664D01*
X0Y1663D02*
X35Y1663D01*
X0Y1662D02*
X35Y1662D01*
X0Y1661D02*
X35Y1661D01*
X0Y1660D02*
X35Y1660D01*
X0Y1659D02*
X35Y1659D01*
X0Y1658D02*
X35Y1658D01*
X0Y1657D02*
X35Y1657D01*
X0Y1656D02*
X35Y1656D01*
X0Y1655D02*
X35Y1655D01*
X0Y1654D02*
X35Y1654D01*
X0Y1653D02*
X35Y1653D01*
X0Y1652D02*
X35Y1652D01*
X0Y1651D02*
X35Y1651D01*
X0Y1650D02*
X35Y1650D01*
X0Y1649D02*
X35Y1649D01*
X0Y1648D02*
X35Y1648D01*
X0Y1647D02*
X35Y1647D01*
X0Y1646D02*
X35Y1646D01*
X0Y1645D02*
X35Y1645D01*
X0Y1644D02*
X35Y1644D01*
X0Y1643D02*
X35Y1643D01*
X0Y1642D02*
X35Y1642D01*
X0Y1641D02*
X35Y1641D01*
X0Y1640D02*
X35Y1640D01*
X0Y1639D02*
X35Y1639D01*
X0Y1638D02*
X35Y1638D01*
X0Y1637D02*
X35Y1637D01*
X0Y1636D02*
X35Y1636D01*
X0Y1635D02*
X35Y1635D01*
X577Y1058D02*
X586Y1058D01*
X677Y1058D02*
X686Y1058D01*
X777Y1058D02*
X786Y1058D01*
X877Y1058D02*
X886Y1058D01*
X977Y1058D02*
X986Y1058D01*
X1077Y1058D02*
X1086Y1058D01*
X1176Y1058D02*
X1186Y1058D01*
X1276Y1058D02*
X1286Y1058D01*
X1376Y1058D02*
X1386Y1058D01*
X1476Y1058D02*
X1486Y1058D01*
X1576Y1058D02*
X1586Y1058D01*
X1676Y1058D02*
X1686Y1058D01*
X1776Y1058D02*
X1786Y1058D01*
X573Y1057D02*
X590Y1057D01*
X673Y1057D02*
X690Y1057D01*
X773Y1057D02*
X790Y1057D01*
X873Y1057D02*
X890Y1057D01*
X973Y1057D02*
X990Y1057D01*
X1073Y1057D02*
X1090Y1057D01*
X1172Y1057D02*
X1190Y1057D01*
X1272Y1057D02*
X1290Y1057D01*
X1372Y1057D02*
X1390Y1057D01*
X1472Y1057D02*
X1490Y1057D01*
X1572Y1057D02*
X1590Y1057D01*
X1672Y1057D02*
X1690Y1057D01*
X1772Y1057D02*
X1790Y1057D01*
X570Y1056D02*
X593Y1056D01*
X670Y1056D02*
X693Y1056D01*
X770Y1056D02*
X793Y1056D01*
X870Y1056D02*
X893Y1056D01*
X970Y1056D02*
X993Y1056D01*
X1070Y1056D02*
X1093Y1056D01*
X1170Y1056D02*
X1193Y1056D01*
X1270Y1056D02*
X1293Y1056D01*
X1370Y1056D02*
X1393Y1056D01*
X1470Y1056D02*
X1493Y1056D01*
X1570Y1056D02*
X1593Y1056D01*
X1670Y1056D02*
X1692Y1056D01*
X1770Y1056D02*
X1792Y1056D01*
X568Y1055D02*
X595Y1055D01*
X668Y1055D02*
X695Y1055D01*
X768Y1055D02*
X795Y1055D01*
X868Y1055D02*
X895Y1055D01*
X968Y1055D02*
X995Y1055D01*
X1068Y1055D02*
X1095Y1055D01*
X1168Y1055D02*
X1195Y1055D01*
X1268Y1055D02*
X1295Y1055D01*
X1367Y1055D02*
X1395Y1055D01*
X1467Y1055D02*
X1495Y1055D01*
X1567Y1055D02*
X1595Y1055D01*
X1667Y1055D02*
X1695Y1055D01*
X1767Y1055D02*
X1795Y1055D01*
X566Y1054D02*
X597Y1054D01*
X666Y1054D02*
X697Y1054D01*
X766Y1054D02*
X797Y1054D01*
X866Y1054D02*
X897Y1054D01*
X966Y1054D02*
X997Y1054D01*
X1066Y1054D02*
X1097Y1054D01*
X1166Y1054D02*
X1197Y1054D01*
X1266Y1054D02*
X1297Y1054D01*
X1366Y1054D02*
X1397Y1054D01*
X1466Y1054D02*
X1497Y1054D01*
X1566Y1054D02*
X1597Y1054D01*
X1665Y1054D02*
X1697Y1054D01*
X1765Y1054D02*
X1797Y1054D01*
X564Y1053D02*
X599Y1053D01*
X664Y1053D02*
X699Y1053D01*
X764Y1053D02*
X799Y1053D01*
X864Y1053D02*
X898Y1053D01*
X964Y1053D02*
X998Y1053D01*
X1064Y1053D02*
X1098Y1053D01*
X1164Y1053D02*
X1198Y1053D01*
X1264Y1053D02*
X1298Y1053D01*
X1364Y1053D02*
X1398Y1053D01*
X1464Y1053D02*
X1498Y1053D01*
X1564Y1053D02*
X1598Y1053D01*
X1664Y1053D02*
X1698Y1053D01*
X1764Y1053D02*
X1798Y1053D01*
X563Y1052D02*
X600Y1052D01*
X663Y1052D02*
X700Y1052D01*
X763Y1052D02*
X800Y1052D01*
X863Y1052D02*
X900Y1052D01*
X963Y1052D02*
X1000Y1052D01*
X1063Y1052D02*
X1100Y1052D01*
X1163Y1052D02*
X1200Y1052D01*
X1263Y1052D02*
X1300Y1052D01*
X1362Y1052D02*
X1400Y1052D01*
X1462Y1052D02*
X1500Y1052D01*
X1562Y1052D02*
X1600Y1052D01*
X1662Y1052D02*
X1700Y1052D01*
X1762Y1052D02*
X1800Y1052D01*
X561Y1051D02*
X601Y1051D01*
X661Y1051D02*
X701Y1051D01*
X761Y1051D02*
X801Y1051D01*
X861Y1051D02*
X901Y1051D01*
X961Y1051D02*
X1001Y1051D01*
X1061Y1051D02*
X1101Y1051D01*
X1161Y1051D02*
X1201Y1051D01*
X1261Y1051D02*
X1301Y1051D01*
X1361Y1051D02*
X1401Y1051D01*
X1461Y1051D02*
X1501Y1051D01*
X1561Y1051D02*
X1601Y1051D01*
X1661Y1051D02*
X1701Y1051D01*
X1761Y1051D02*
X1801Y1051D01*
X560Y1050D02*
X603Y1050D01*
X660Y1050D02*
X703Y1050D01*
X760Y1050D02*
X803Y1050D01*
X860Y1050D02*
X903Y1050D01*
X960Y1050D02*
X1003Y1050D01*
X1060Y1050D02*
X1102Y1050D01*
X1160Y1050D02*
X1202Y1050D01*
X1260Y1050D02*
X1302Y1050D01*
X1360Y1050D02*
X1402Y1050D01*
X1460Y1050D02*
X1502Y1050D01*
X1560Y1050D02*
X1602Y1050D01*
X1660Y1050D02*
X1702Y1050D01*
X1760Y1050D02*
X1802Y1050D01*
X559Y1049D02*
X604Y1049D01*
X659Y1049D02*
X704Y1049D01*
X759Y1049D02*
X804Y1049D01*
X859Y1049D02*
X904Y1049D01*
X959Y1049D02*
X1004Y1049D01*
X1059Y1049D02*
X1104Y1049D01*
X1159Y1049D02*
X1204Y1049D01*
X1259Y1049D02*
X1304Y1049D01*
X1359Y1049D02*
X1404Y1049D01*
X1459Y1049D02*
X1503Y1049D01*
X1559Y1049D02*
X1603Y1049D01*
X1659Y1049D02*
X1703Y1049D01*
X1759Y1049D02*
X1803Y1049D01*
X558Y1048D02*
X605Y1048D01*
X658Y1048D02*
X705Y1048D01*
X758Y1048D02*
X805Y1048D01*
X858Y1048D02*
X905Y1048D01*
X958Y1048D02*
X1005Y1048D01*
X1058Y1048D02*
X1105Y1048D01*
X1158Y1048D02*
X1205Y1048D01*
X1258Y1048D02*
X1305Y1048D01*
X1358Y1048D02*
X1405Y1048D01*
X1458Y1048D02*
X1505Y1048D01*
X1558Y1048D02*
X1605Y1048D01*
X1658Y1048D02*
X1704Y1048D01*
X1758Y1048D02*
X1804Y1048D01*
X557Y1047D02*
X606Y1047D01*
X657Y1047D02*
X706Y1047D01*
X757Y1047D02*
X806Y1047D01*
X857Y1047D02*
X906Y1047D01*
X957Y1047D02*
X1006Y1047D01*
X1057Y1047D02*
X1106Y1047D01*
X1157Y1047D02*
X1206Y1047D01*
X1257Y1047D02*
X1306Y1047D01*
X1357Y1047D02*
X1406Y1047D01*
X1457Y1047D02*
X1506Y1047D01*
X1557Y1047D02*
X1605Y1047D01*
X1657Y1047D02*
X1705Y1047D01*
X1757Y1047D02*
X1805Y1047D01*
X556Y1046D02*
X607Y1046D01*
X656Y1046D02*
X707Y1046D01*
X756Y1046D02*
X807Y1046D01*
X856Y1046D02*
X907Y1046D01*
X956Y1046D02*
X1007Y1046D01*
X1056Y1046D02*
X1107Y1046D01*
X1156Y1046D02*
X1207Y1046D01*
X1256Y1046D02*
X1307Y1046D01*
X1356Y1046D02*
X1406Y1046D01*
X1456Y1046D02*
X1506Y1046D01*
X1556Y1046D02*
X1606Y1046D01*
X1656Y1046D02*
X1706Y1046D01*
X1756Y1046D02*
X1806Y1046D01*
X555Y1045D02*
X608Y1045D01*
X655Y1045D02*
X708Y1045D01*
X755Y1045D02*
X808Y1045D01*
X855Y1045D02*
X908Y1045D01*
X955Y1045D02*
X1007Y1045D01*
X1055Y1045D02*
X1107Y1045D01*
X1155Y1045D02*
X1207Y1045D01*
X1255Y1045D02*
X1307Y1045D01*
X1355Y1045D02*
X1407Y1045D01*
X1455Y1045D02*
X1507Y1045D01*
X1555Y1045D02*
X1607Y1045D01*
X1655Y1045D02*
X1707Y1045D01*
X1755Y1045D02*
X1807Y1045D01*
X554Y1044D02*
X608Y1044D01*
X654Y1044D02*
X708Y1044D01*
X754Y1044D02*
X808Y1044D01*
X854Y1044D02*
X908Y1044D01*
X954Y1044D02*
X1008Y1044D01*
X1054Y1044D02*
X1108Y1044D01*
X1154Y1044D02*
X1208Y1044D01*
X1254Y1044D02*
X1308Y1044D01*
X1354Y1044D02*
X1408Y1044D01*
X1454Y1044D02*
X1508Y1044D01*
X1554Y1044D02*
X1608Y1044D01*
X1654Y1044D02*
X1708Y1044D01*
X1754Y1044D02*
X1808Y1044D01*
X554Y1043D02*
X609Y1043D01*
X654Y1043D02*
X709Y1043D01*
X754Y1043D02*
X809Y1043D01*
X854Y1043D02*
X909Y1043D01*
X954Y1043D02*
X1009Y1043D01*
X1053Y1043D02*
X1109Y1043D01*
X1153Y1043D02*
X1209Y1043D01*
X1253Y1043D02*
X1309Y1043D01*
X1353Y1043D02*
X1409Y1043D01*
X1453Y1043D02*
X1509Y1043D01*
X1553Y1043D02*
X1609Y1043D01*
X1653Y1043D02*
X1709Y1043D01*
X1753Y1043D02*
X1809Y1043D01*
X553Y1042D02*
X610Y1042D01*
X653Y1042D02*
X710Y1042D01*
X753Y1042D02*
X810Y1042D01*
X853Y1042D02*
X910Y1042D01*
X953Y1042D02*
X1010Y1042D01*
X1053Y1042D02*
X1110Y1042D01*
X1153Y1042D02*
X1210Y1042D01*
X1253Y1042D02*
X1310Y1042D01*
X1353Y1042D02*
X1410Y1042D01*
X1453Y1042D02*
X1510Y1042D01*
X1553Y1042D02*
X1610Y1042D01*
X1653Y1042D02*
X1709Y1042D01*
X1753Y1042D02*
X1809Y1042D01*
X552Y1041D02*
X611Y1041D01*
X652Y1041D02*
X711Y1041D01*
X752Y1041D02*
X810Y1041D01*
X852Y1041D02*
X910Y1041D01*
X952Y1041D02*
X1010Y1041D01*
X1052Y1041D02*
X1110Y1041D01*
X1152Y1041D02*
X1210Y1041D01*
X1252Y1041D02*
X1310Y1041D01*
X1352Y1041D02*
X1410Y1041D01*
X1452Y1041D02*
X1510Y1041D01*
X1552Y1041D02*
X1610Y1041D01*
X1652Y1041D02*
X1710Y1041D01*
X1752Y1041D02*
X1810Y1041D01*
X552Y1040D02*
X611Y1040D01*
X652Y1040D02*
X711Y1040D01*
X752Y1040D02*
X811Y1040D01*
X852Y1040D02*
X911Y1040D01*
X952Y1040D02*
X1011Y1040D01*
X1052Y1040D02*
X1111Y1040D01*
X1151Y1040D02*
X1211Y1040D01*
X1251Y1040D02*
X1311Y1040D01*
X1351Y1040D02*
X1411Y1040D01*
X1451Y1040D02*
X1511Y1040D01*
X1551Y1040D02*
X1611Y1040D01*
X1651Y1040D02*
X1711Y1040D01*
X1751Y1040D02*
X1811Y1040D01*
X551Y1039D02*
X612Y1039D01*
X651Y1039D02*
X712Y1039D01*
X751Y1039D02*
X812Y1039D01*
X851Y1039D02*
X912Y1039D01*
X951Y1039D02*
X1012Y1039D01*
X1051Y1039D02*
X1112Y1039D01*
X1151Y1039D02*
X1212Y1039D01*
X1251Y1039D02*
X1311Y1039D01*
X1351Y1039D02*
X1411Y1039D01*
X1451Y1039D02*
X1511Y1039D01*
X1551Y1039D02*
X1611Y1039D01*
X1651Y1039D02*
X1711Y1039D01*
X1751Y1039D02*
X1811Y1039D01*
X551Y1038D02*
X576Y1038D01*
X587Y1038D02*
X612Y1038D01*
X651Y1038D02*
X676Y1038D01*
X687Y1038D02*
X712Y1038D01*
X751Y1038D02*
X776Y1038D01*
X787Y1038D02*
X812Y1038D01*
X850Y1038D02*
X876Y1038D01*
X886Y1038D02*
X912Y1038D01*
X950Y1038D02*
X976Y1038D01*
X986Y1038D02*
X1012Y1038D01*
X1050Y1038D02*
X1076Y1038D01*
X1086Y1038D02*
X1112Y1038D01*
X1150Y1038D02*
X1176Y1038D01*
X1186Y1038D02*
X1212Y1038D01*
X1250Y1038D02*
X1276Y1038D01*
X1286Y1038D02*
X1312Y1038D01*
X1350Y1038D02*
X1376Y1038D01*
X1386Y1038D02*
X1412Y1038D01*
X1450Y1038D02*
X1476Y1038D01*
X1486Y1038D02*
X1512Y1038D01*
X1550Y1038D02*
X1576Y1038D01*
X1586Y1038D02*
X1612Y1038D01*
X1650Y1038D02*
X1676Y1038D01*
X1686Y1038D02*
X1712Y1038D01*
X1750Y1038D02*
X1776Y1038D01*
X1786Y1038D02*
X1812Y1038D01*
X550Y1037D02*
X573Y1037D01*
X590Y1037D02*
X613Y1037D01*
X650Y1037D02*
X673Y1037D01*
X690Y1037D02*
X713Y1037D01*
X750Y1037D02*
X773Y1037D01*
X790Y1037D02*
X813Y1037D01*
X850Y1037D02*
X873Y1037D01*
X889Y1037D02*
X913Y1037D01*
X950Y1037D02*
X973Y1037D01*
X989Y1037D02*
X1013Y1037D01*
X1050Y1037D02*
X1073Y1037D01*
X1089Y1037D02*
X1113Y1037D01*
X1150Y1037D02*
X1173Y1037D01*
X1189Y1037D02*
X1213Y1037D01*
X1250Y1037D02*
X1273Y1037D01*
X1289Y1037D02*
X1313Y1037D01*
X1350Y1037D02*
X1373Y1037D01*
X1389Y1037D02*
X1412Y1037D01*
X1450Y1037D02*
X1473Y1037D01*
X1489Y1037D02*
X1512Y1037D01*
X1550Y1037D02*
X1573Y1037D01*
X1589Y1037D02*
X1612Y1037D01*
X1650Y1037D02*
X1673Y1037D01*
X1689Y1037D02*
X1712Y1037D01*
X1750Y1037D02*
X1773Y1037D01*
X1789Y1037D02*
X1812Y1037D01*
X550Y1036D02*
X572Y1036D01*
X591Y1036D02*
X613Y1036D01*
X650Y1036D02*
X671Y1036D01*
X691Y1036D02*
X713Y1036D01*
X750Y1036D02*
X771Y1036D01*
X791Y1036D02*
X813Y1036D01*
X850Y1036D02*
X871Y1036D01*
X891Y1036D02*
X913Y1036D01*
X950Y1036D02*
X971Y1036D01*
X991Y1036D02*
X1013Y1036D01*
X1049Y1036D02*
X1071Y1036D01*
X1091Y1036D02*
X1113Y1036D01*
X1149Y1036D02*
X1171Y1036D01*
X1191Y1036D02*
X1213Y1036D01*
X1249Y1036D02*
X1271Y1036D01*
X1291Y1036D02*
X1313Y1036D01*
X1349Y1036D02*
X1371Y1036D01*
X1391Y1036D02*
X1413Y1036D01*
X1449Y1036D02*
X1471Y1036D01*
X1491Y1036D02*
X1513Y1036D01*
X1549Y1036D02*
X1571Y1036D01*
X1591Y1036D02*
X1613Y1036D01*
X1649Y1036D02*
X1671Y1036D01*
X1691Y1036D02*
X1713Y1036D01*
X1749Y1036D02*
X1771Y1036D01*
X1791Y1036D02*
X1813Y1036D01*
X549Y1035D02*
X570Y1035D01*
X593Y1035D02*
X614Y1035D01*
X649Y1035D02*
X670Y1035D01*
X693Y1035D02*
X714Y1035D01*
X749Y1035D02*
X770Y1035D01*
X793Y1035D02*
X814Y1035D01*
X849Y1035D02*
X870Y1035D01*
X893Y1035D02*
X914Y1035D01*
X949Y1035D02*
X970Y1035D01*
X992Y1035D02*
X1013Y1035D01*
X1049Y1035D02*
X1070Y1035D01*
X1092Y1035D02*
X1113Y1035D01*
X1149Y1035D02*
X1170Y1035D01*
X1192Y1035D02*
X1213Y1035D01*
X1249Y1035D02*
X1270Y1035D01*
X1292Y1035D02*
X1313Y1035D01*
X1349Y1035D02*
X1370Y1035D01*
X1392Y1035D02*
X1413Y1035D01*
X1449Y1035D02*
X1470Y1035D01*
X1492Y1035D02*
X1513Y1035D01*
X1549Y1035D02*
X1570Y1035D01*
X1592Y1035D02*
X1613Y1035D01*
X1649Y1035D02*
X1670Y1035D01*
X1692Y1035D02*
X1713Y1035D01*
X1749Y1035D02*
X1770Y1035D01*
X1792Y1035D02*
X1813Y1035D01*
X549Y1034D02*
X569Y1034D01*
X594Y1034D02*
X614Y1034D01*
X649Y1034D02*
X669Y1034D01*
X694Y1034D02*
X714Y1034D01*
X749Y1034D02*
X769Y1034D01*
X794Y1034D02*
X814Y1034D01*
X849Y1034D02*
X869Y1034D01*
X894Y1034D02*
X914Y1034D01*
X949Y1034D02*
X969Y1034D01*
X993Y1034D02*
X1014Y1034D01*
X1049Y1034D02*
X1069Y1034D01*
X1093Y1034D02*
X1114Y1034D01*
X1149Y1034D02*
X1169Y1034D01*
X1193Y1034D02*
X1214Y1034D01*
X1249Y1034D02*
X1269Y1034D01*
X1293Y1034D02*
X1314Y1034D01*
X1349Y1034D02*
X1369Y1034D01*
X1393Y1034D02*
X1414Y1034D01*
X1449Y1034D02*
X1469Y1034D01*
X1493Y1034D02*
X1514Y1034D01*
X1548Y1034D02*
X1569Y1034D01*
X1593Y1034D02*
X1614Y1034D01*
X1648Y1034D02*
X1669Y1034D01*
X1693Y1034D02*
X1714Y1034D01*
X1748Y1034D02*
X1769Y1034D01*
X1793Y1034D02*
X1814Y1034D01*
X549Y1033D02*
X568Y1033D01*
X594Y1033D02*
X614Y1033D01*
X648Y1033D02*
X668Y1033D01*
X694Y1033D02*
X714Y1033D01*
X748Y1033D02*
X768Y1033D01*
X794Y1033D02*
X814Y1033D01*
X848Y1033D02*
X868Y1033D01*
X894Y1033D02*
X914Y1033D01*
X948Y1033D02*
X968Y1033D01*
X994Y1033D02*
X1014Y1033D01*
X1048Y1033D02*
X1068Y1033D01*
X1094Y1033D02*
X1114Y1033D01*
X1148Y1033D02*
X1168Y1033D01*
X1194Y1033D02*
X1214Y1033D01*
X1248Y1033D02*
X1268Y1033D01*
X1294Y1033D02*
X1314Y1033D01*
X1348Y1033D02*
X1368Y1033D01*
X1394Y1033D02*
X1414Y1033D01*
X1448Y1033D02*
X1468Y1033D01*
X1494Y1033D02*
X1514Y1033D01*
X1548Y1033D02*
X1568Y1033D01*
X1594Y1033D02*
X1614Y1033D01*
X1648Y1033D02*
X1668Y1033D01*
X1694Y1033D02*
X1714Y1033D01*
X1748Y1033D02*
X1768Y1033D01*
X1794Y1033D02*
X1814Y1033D01*
X548Y1032D02*
X568Y1032D01*
X595Y1032D02*
X615Y1032D01*
X648Y1032D02*
X668Y1032D01*
X695Y1032D02*
X715Y1032D01*
X748Y1032D02*
X768Y1032D01*
X795Y1032D02*
X815Y1032D01*
X848Y1032D02*
X868Y1032D01*
X895Y1032D02*
X915Y1032D01*
X948Y1032D02*
X968Y1032D01*
X995Y1032D02*
X1015Y1032D01*
X1048Y1032D02*
X1068Y1032D01*
X1095Y1032D02*
X1114Y1032D01*
X1148Y1032D02*
X1168Y1032D01*
X1195Y1032D02*
X1214Y1032D01*
X1248Y1032D02*
X1268Y1032D01*
X1295Y1032D02*
X1314Y1032D01*
X1348Y1032D02*
X1368Y1032D01*
X1395Y1032D02*
X1414Y1032D01*
X1448Y1032D02*
X1468Y1032D01*
X1495Y1032D02*
X1514Y1032D01*
X1548Y1032D02*
X1567Y1032D01*
X1595Y1032D02*
X1614Y1032D01*
X1648Y1032D02*
X1667Y1032D01*
X1695Y1032D02*
X1714Y1032D01*
X1748Y1032D02*
X1767Y1032D01*
X1795Y1032D02*
X1814Y1032D01*
X548Y1031D02*
X567Y1031D01*
X596Y1031D02*
X615Y1031D01*
X648Y1031D02*
X667Y1031D01*
X695Y1031D02*
X715Y1031D01*
X748Y1031D02*
X767Y1031D01*
X795Y1031D02*
X815Y1031D01*
X848Y1031D02*
X867Y1031D01*
X895Y1031D02*
X915Y1031D01*
X948Y1031D02*
X967Y1031D01*
X995Y1031D02*
X1015Y1031D01*
X1048Y1031D02*
X1067Y1031D01*
X1095Y1031D02*
X1115Y1031D01*
X1148Y1031D02*
X1167Y1031D01*
X1195Y1031D02*
X1215Y1031D01*
X1248Y1031D02*
X1267Y1031D01*
X1295Y1031D02*
X1315Y1031D01*
X1348Y1031D02*
X1367Y1031D01*
X1395Y1031D02*
X1415Y1031D01*
X1448Y1031D02*
X1467Y1031D01*
X1495Y1031D02*
X1515Y1031D01*
X1548Y1031D02*
X1567Y1031D01*
X1595Y1031D02*
X1615Y1031D01*
X1648Y1031D02*
X1667Y1031D01*
X1695Y1031D02*
X1715Y1031D01*
X1747Y1031D02*
X1767Y1031D01*
X1795Y1031D02*
X1815Y1031D01*
X548Y1030D02*
X567Y1030D01*
X596Y1030D02*
X615Y1030D01*
X648Y1030D02*
X667Y1030D01*
X696Y1030D02*
X715Y1030D01*
X748Y1030D02*
X767Y1030D01*
X796Y1030D02*
X815Y1030D01*
X848Y1030D02*
X867Y1030D01*
X896Y1030D02*
X915Y1030D01*
X948Y1030D02*
X967Y1030D01*
X996Y1030D02*
X1015Y1030D01*
X1047Y1030D02*
X1067Y1030D01*
X1096Y1030D02*
X1115Y1030D01*
X1147Y1030D02*
X1167Y1030D01*
X1196Y1030D02*
X1215Y1030D01*
X1247Y1030D02*
X1267Y1030D01*
X1296Y1030D02*
X1315Y1030D01*
X1347Y1030D02*
X1367Y1030D01*
X1396Y1030D02*
X1415Y1030D01*
X1447Y1030D02*
X1467Y1030D01*
X1496Y1030D02*
X1515Y1030D01*
X1547Y1030D02*
X1567Y1030D01*
X1596Y1030D02*
X1615Y1030D01*
X1647Y1030D02*
X1667Y1030D01*
X1696Y1030D02*
X1715Y1030D01*
X1747Y1030D02*
X1767Y1030D01*
X1795Y1030D02*
X1815Y1030D01*
X547Y1029D02*
X567Y1029D01*
X596Y1029D02*
X615Y1029D01*
X647Y1029D02*
X667Y1029D01*
X696Y1029D02*
X715Y1029D01*
X747Y1029D02*
X767Y1029D01*
X796Y1029D02*
X815Y1029D01*
X847Y1029D02*
X867Y1029D01*
X896Y1029D02*
X915Y1029D01*
X947Y1029D02*
X966Y1029D01*
X996Y1029D02*
X1015Y1029D01*
X1047Y1029D02*
X1066Y1029D01*
X1096Y1029D02*
X1115Y1029D01*
X1147Y1029D02*
X1166Y1029D01*
X1196Y1029D02*
X1215Y1029D01*
X1247Y1029D02*
X1266Y1029D01*
X1296Y1029D02*
X1315Y1029D01*
X1347Y1029D02*
X1366Y1029D01*
X1396Y1029D02*
X1415Y1029D01*
X1447Y1029D02*
X1466Y1029D01*
X1496Y1029D02*
X1515Y1029D01*
X1547Y1029D02*
X1566Y1029D01*
X1596Y1029D02*
X1615Y1029D01*
X1647Y1029D02*
X1666Y1029D01*
X1696Y1029D02*
X1715Y1029D01*
X1747Y1029D02*
X1766Y1029D01*
X1796Y1029D02*
X1815Y1029D01*
X547Y1028D02*
X566Y1028D01*
X596Y1028D02*
X616Y1028D01*
X647Y1028D02*
X666Y1028D01*
X696Y1028D02*
X716Y1028D01*
X747Y1028D02*
X766Y1028D01*
X796Y1028D02*
X815Y1028D01*
X847Y1028D02*
X866Y1028D01*
X896Y1028D02*
X915Y1028D01*
X947Y1028D02*
X966Y1028D01*
X996Y1028D02*
X1015Y1028D01*
X1047Y1028D02*
X1066Y1028D01*
X1096Y1028D02*
X1115Y1028D01*
X1147Y1028D02*
X1166Y1028D01*
X1196Y1028D02*
X1215Y1028D01*
X1247Y1028D02*
X1266Y1028D01*
X1296Y1028D02*
X1315Y1028D01*
X1347Y1028D02*
X1366Y1028D01*
X1396Y1028D02*
X1415Y1028D01*
X1447Y1028D02*
X1466Y1028D01*
X1496Y1028D02*
X1515Y1028D01*
X1547Y1028D02*
X1566Y1028D01*
X1596Y1028D02*
X1615Y1028D01*
X1647Y1028D02*
X1666Y1028D01*
X1696Y1028D02*
X1715Y1028D01*
X1747Y1028D02*
X1766Y1028D01*
X1796Y1028D02*
X1815Y1028D01*
X547Y1027D02*
X566Y1027D01*
X597Y1027D02*
X616Y1027D01*
X647Y1027D02*
X666Y1027D01*
X697Y1027D02*
X716Y1027D01*
X747Y1027D02*
X766Y1027D01*
X797Y1027D02*
X816Y1027D01*
X847Y1027D02*
X866Y1027D01*
X897Y1027D02*
X916Y1027D01*
X947Y1027D02*
X966Y1027D01*
X997Y1027D02*
X1016Y1027D01*
X1047Y1027D02*
X1066Y1027D01*
X1096Y1027D02*
X1116Y1027D01*
X1147Y1027D02*
X1166Y1027D01*
X1196Y1027D02*
X1215Y1027D01*
X1247Y1027D02*
X1266Y1027D01*
X1296Y1027D02*
X1315Y1027D01*
X1347Y1027D02*
X1366Y1027D01*
X1396Y1027D02*
X1415Y1027D01*
X1447Y1027D02*
X1466Y1027D01*
X1496Y1027D02*
X1515Y1027D01*
X1547Y1027D02*
X1566Y1027D01*
X1596Y1027D02*
X1615Y1027D01*
X1647Y1027D02*
X1666Y1027D01*
X1696Y1027D02*
X1715Y1027D01*
X1747Y1027D02*
X1766Y1027D01*
X1796Y1027D02*
X1815Y1027D01*
X547Y1026D02*
X566Y1026D01*
X597Y1026D02*
X616Y1026D01*
X647Y1026D02*
X666Y1026D01*
X697Y1026D02*
X716Y1026D01*
X747Y1026D02*
X766Y1026D01*
X797Y1026D02*
X816Y1026D01*
X847Y1026D02*
X866Y1026D01*
X897Y1026D02*
X916Y1026D01*
X947Y1026D02*
X966Y1026D01*
X997Y1026D02*
X1016Y1026D01*
X1047Y1026D02*
X1066Y1026D01*
X1097Y1026D02*
X1116Y1026D01*
X1147Y1026D02*
X1166Y1026D01*
X1197Y1026D02*
X1216Y1026D01*
X1247Y1026D02*
X1266Y1026D01*
X1297Y1026D02*
X1316Y1026D01*
X1347Y1026D02*
X1366Y1026D01*
X1396Y1026D02*
X1416Y1026D01*
X1447Y1026D02*
X1466Y1026D01*
X1496Y1026D02*
X1515Y1026D01*
X1547Y1026D02*
X1566Y1026D01*
X1596Y1026D02*
X1615Y1026D01*
X1647Y1026D02*
X1666Y1026D01*
X1696Y1026D02*
X1715Y1026D01*
X1747Y1026D02*
X1766Y1026D01*
X1796Y1026D02*
X1815Y1026D01*
X547Y1025D02*
X566Y1025D01*
X597Y1025D02*
X616Y1025D01*
X647Y1025D02*
X666Y1025D01*
X697Y1025D02*
X716Y1025D01*
X747Y1025D02*
X766Y1025D01*
X797Y1025D02*
X816Y1025D01*
X847Y1025D02*
X866Y1025D01*
X897Y1025D02*
X916Y1025D01*
X947Y1025D02*
X966Y1025D01*
X997Y1025D02*
X1016Y1025D01*
X1047Y1025D02*
X1066Y1025D01*
X1097Y1025D02*
X1116Y1025D01*
X1147Y1025D02*
X1166Y1025D01*
X1197Y1025D02*
X1216Y1025D01*
X1247Y1025D02*
X1266Y1025D01*
X1297Y1025D02*
X1316Y1025D01*
X1347Y1025D02*
X1366Y1025D01*
X1397Y1025D02*
X1416Y1025D01*
X1447Y1025D02*
X1466Y1025D01*
X1497Y1025D02*
X1516Y1025D01*
X1547Y1025D02*
X1566Y1025D01*
X1597Y1025D02*
X1616Y1025D01*
X1647Y1025D02*
X1666Y1025D01*
X1696Y1025D02*
X1715Y1025D01*
X1747Y1025D02*
X1766Y1025D01*
X1796Y1025D02*
X1815Y1025D01*
X547Y1024D02*
X566Y1024D01*
X597Y1024D02*
X616Y1024D01*
X647Y1024D02*
X666Y1024D01*
X697Y1024D02*
X716Y1024D01*
X747Y1024D02*
X766Y1024D01*
X797Y1024D02*
X816Y1024D01*
X847Y1024D02*
X866Y1024D01*
X897Y1024D02*
X916Y1024D01*
X947Y1024D02*
X966Y1024D01*
X997Y1024D02*
X1016Y1024D01*
X1047Y1024D02*
X1066Y1024D01*
X1097Y1024D02*
X1116Y1024D01*
X1147Y1024D02*
X1166Y1024D01*
X1197Y1024D02*
X1216Y1024D01*
X1247Y1024D02*
X1266Y1024D01*
X1297Y1024D02*
X1316Y1024D01*
X1347Y1024D02*
X1366Y1024D01*
X1397Y1024D02*
X1416Y1024D01*
X1447Y1024D02*
X1466Y1024D01*
X1497Y1024D02*
X1516Y1024D01*
X1547Y1024D02*
X1566Y1024D01*
X1597Y1024D02*
X1616Y1024D01*
X1647Y1024D02*
X1666Y1024D01*
X1697Y1024D02*
X1716Y1024D01*
X1747Y1024D02*
X1766Y1024D01*
X1796Y1024D02*
X1815Y1024D01*
X547Y1023D02*
X566Y1023D01*
X597Y1023D02*
X616Y1023D01*
X647Y1023D02*
X666Y1023D01*
X697Y1023D02*
X716Y1023D01*
X747Y1023D02*
X766Y1023D01*
X797Y1023D02*
X816Y1023D01*
X847Y1023D02*
X866Y1023D01*
X897Y1023D02*
X916Y1023D01*
X947Y1023D02*
X966Y1023D01*
X997Y1023D02*
X1016Y1023D01*
X1047Y1023D02*
X1066Y1023D01*
X1097Y1023D02*
X1116Y1023D01*
X1147Y1023D02*
X1166Y1023D01*
X1197Y1023D02*
X1216Y1023D01*
X1247Y1023D02*
X1266Y1023D01*
X1297Y1023D02*
X1316Y1023D01*
X1347Y1023D02*
X1366Y1023D01*
X1397Y1023D02*
X1416Y1023D01*
X1447Y1023D02*
X1466Y1023D01*
X1497Y1023D02*
X1516Y1023D01*
X1547Y1023D02*
X1566Y1023D01*
X1597Y1023D02*
X1616Y1023D01*
X1647Y1023D02*
X1666Y1023D01*
X1697Y1023D02*
X1716Y1023D01*
X1747Y1023D02*
X1766Y1023D01*
X1796Y1023D02*
X1815Y1023D01*
X547Y1022D02*
X566Y1022D01*
X597Y1022D02*
X616Y1022D01*
X647Y1022D02*
X666Y1022D01*
X697Y1022D02*
X716Y1022D01*
X747Y1022D02*
X766Y1022D01*
X797Y1022D02*
X816Y1022D01*
X847Y1022D02*
X866Y1022D01*
X897Y1022D02*
X916Y1022D01*
X947Y1022D02*
X966Y1022D01*
X997Y1022D02*
X1016Y1022D01*
X1047Y1022D02*
X1066Y1022D01*
X1097Y1022D02*
X1116Y1022D01*
X1147Y1022D02*
X1166Y1022D01*
X1197Y1022D02*
X1216Y1022D01*
X1247Y1022D02*
X1266Y1022D01*
X1297Y1022D02*
X1316Y1022D01*
X1347Y1022D02*
X1366Y1022D01*
X1397Y1022D02*
X1416Y1022D01*
X1447Y1022D02*
X1466Y1022D01*
X1497Y1022D02*
X1516Y1022D01*
X1547Y1022D02*
X1566Y1022D01*
X1597Y1022D02*
X1616Y1022D01*
X1647Y1022D02*
X1666Y1022D01*
X1696Y1022D02*
X1715Y1022D01*
X1747Y1022D02*
X1766Y1022D01*
X1796Y1022D02*
X1815Y1022D01*
X547Y1021D02*
X566Y1021D01*
X597Y1021D02*
X616Y1021D01*
X647Y1021D02*
X666Y1021D01*
X697Y1021D02*
X716Y1021D01*
X747Y1021D02*
X766Y1021D01*
X797Y1021D02*
X816Y1021D01*
X847Y1021D02*
X866Y1021D01*
X897Y1021D02*
X916Y1021D01*
X947Y1021D02*
X966Y1021D01*
X997Y1021D02*
X1016Y1021D01*
X1047Y1021D02*
X1066Y1021D01*
X1097Y1021D02*
X1116Y1021D01*
X1147Y1021D02*
X1166Y1021D01*
X1197Y1021D02*
X1216Y1021D01*
X1247Y1021D02*
X1266Y1021D01*
X1297Y1021D02*
X1316Y1021D01*
X1347Y1021D02*
X1366Y1021D01*
X1396Y1021D02*
X1416Y1021D01*
X1447Y1021D02*
X1466Y1021D01*
X1496Y1021D02*
X1515Y1021D01*
X1547Y1021D02*
X1566Y1021D01*
X1596Y1021D02*
X1615Y1021D01*
X1647Y1021D02*
X1666Y1021D01*
X1696Y1021D02*
X1715Y1021D01*
X1747Y1021D02*
X1766Y1021D01*
X1796Y1021D02*
X1815Y1021D01*
X547Y1020D02*
X566Y1020D01*
X597Y1020D02*
X616Y1020D01*
X647Y1020D02*
X666Y1020D01*
X697Y1020D02*
X716Y1020D01*
X747Y1020D02*
X766Y1020D01*
X797Y1020D02*
X816Y1020D01*
X847Y1020D02*
X866Y1020D01*
X897Y1020D02*
X916Y1020D01*
X947Y1020D02*
X966Y1020D01*
X997Y1020D02*
X1016Y1020D01*
X1047Y1020D02*
X1066Y1020D01*
X1096Y1020D02*
X1116Y1020D01*
X1147Y1020D02*
X1166Y1020D01*
X1196Y1020D02*
X1215Y1020D01*
X1247Y1020D02*
X1266Y1020D01*
X1296Y1020D02*
X1315Y1020D01*
X1347Y1020D02*
X1366Y1020D01*
X1396Y1020D02*
X1415Y1020D01*
X1447Y1020D02*
X1466Y1020D01*
X1496Y1020D02*
X1515Y1020D01*
X1547Y1020D02*
X1566Y1020D01*
X1596Y1020D02*
X1615Y1020D01*
X1647Y1020D02*
X1666Y1020D01*
X1696Y1020D02*
X1715Y1020D01*
X1747Y1020D02*
X1766Y1020D01*
X1796Y1020D02*
X1815Y1020D01*
X547Y1019D02*
X566Y1019D01*
X596Y1019D02*
X616Y1019D01*
X647Y1019D02*
X666Y1019D01*
X696Y1019D02*
X716Y1019D01*
X747Y1019D02*
X766Y1019D01*
X796Y1019D02*
X815Y1019D01*
X847Y1019D02*
X866Y1019D01*
X896Y1019D02*
X915Y1019D01*
X947Y1019D02*
X966Y1019D01*
X996Y1019D02*
X1015Y1019D01*
X1047Y1019D02*
X1066Y1019D01*
X1096Y1019D02*
X1115Y1019D01*
X1147Y1019D02*
X1166Y1019D01*
X1196Y1019D02*
X1215Y1019D01*
X1247Y1019D02*
X1266Y1019D01*
X1296Y1019D02*
X1315Y1019D01*
X1347Y1019D02*
X1366Y1019D01*
X1396Y1019D02*
X1415Y1019D01*
X1447Y1019D02*
X1466Y1019D01*
X1496Y1019D02*
X1515Y1019D01*
X1547Y1019D02*
X1566Y1019D01*
X1596Y1019D02*
X1615Y1019D01*
X1647Y1019D02*
X1666Y1019D01*
X1696Y1019D02*
X1715Y1019D01*
X1747Y1019D02*
X1766Y1019D01*
X1796Y1019D02*
X1815Y1019D01*
X547Y1018D02*
X567Y1018D01*
X596Y1018D02*
X615Y1018D01*
X647Y1018D02*
X667Y1018D01*
X696Y1018D02*
X715Y1018D01*
X747Y1018D02*
X767Y1018D01*
X796Y1018D02*
X815Y1018D01*
X847Y1018D02*
X867Y1018D01*
X896Y1018D02*
X915Y1018D01*
X947Y1018D02*
X966Y1018D01*
X996Y1018D02*
X1015Y1018D01*
X1047Y1018D02*
X1066Y1018D01*
X1096Y1018D02*
X1115Y1018D01*
X1147Y1018D02*
X1166Y1018D01*
X1196Y1018D02*
X1215Y1018D01*
X1247Y1018D02*
X1266Y1018D01*
X1296Y1018D02*
X1315Y1018D01*
X1347Y1018D02*
X1366Y1018D01*
X1396Y1018D02*
X1415Y1018D01*
X1447Y1018D02*
X1466Y1018D01*
X1496Y1018D02*
X1515Y1018D01*
X1547Y1018D02*
X1566Y1018D01*
X1596Y1018D02*
X1615Y1018D01*
X1647Y1018D02*
X1666Y1018D01*
X1696Y1018D02*
X1715Y1018D01*
X1747Y1018D02*
X1766Y1018D01*
X1796Y1018D02*
X1815Y1018D01*
X548Y1017D02*
X567Y1017D01*
X596Y1017D02*
X615Y1017D01*
X648Y1017D02*
X667Y1017D01*
X696Y1017D02*
X715Y1017D01*
X748Y1017D02*
X767Y1017D01*
X796Y1017D02*
X815Y1017D01*
X848Y1017D02*
X867Y1017D01*
X896Y1017D02*
X915Y1017D01*
X948Y1017D02*
X967Y1017D01*
X996Y1017D02*
X1015Y1017D01*
X1047Y1017D02*
X1067Y1017D01*
X1096Y1017D02*
X1115Y1017D01*
X1147Y1017D02*
X1167Y1017D01*
X1196Y1017D02*
X1215Y1017D01*
X1247Y1017D02*
X1267Y1017D01*
X1296Y1017D02*
X1315Y1017D01*
X1347Y1017D02*
X1367Y1017D01*
X1396Y1017D02*
X1415Y1017D01*
X1447Y1017D02*
X1467Y1017D01*
X1496Y1017D02*
X1515Y1017D01*
X1547Y1017D02*
X1567Y1017D01*
X1596Y1017D02*
X1615Y1017D01*
X1647Y1017D02*
X1667Y1017D01*
X1696Y1017D02*
X1715Y1017D01*
X1747Y1017D02*
X1767Y1017D01*
X1795Y1017D02*
X1815Y1017D01*
X548Y1016D02*
X567Y1016D01*
X596Y1016D02*
X615Y1016D01*
X648Y1016D02*
X667Y1016D01*
X695Y1016D02*
X715Y1016D01*
X748Y1016D02*
X767Y1016D01*
X795Y1016D02*
X815Y1016D01*
X848Y1016D02*
X867Y1016D01*
X895Y1016D02*
X915Y1016D01*
X948Y1016D02*
X967Y1016D01*
X995Y1016D02*
X1015Y1016D01*
X1048Y1016D02*
X1067Y1016D01*
X1095Y1016D02*
X1115Y1016D01*
X1148Y1016D02*
X1167Y1016D01*
X1195Y1016D02*
X1215Y1016D01*
X1248Y1016D02*
X1267Y1016D01*
X1295Y1016D02*
X1315Y1016D01*
X1348Y1016D02*
X1367Y1016D01*
X1395Y1016D02*
X1415Y1016D01*
X1448Y1016D02*
X1467Y1016D01*
X1495Y1016D02*
X1515Y1016D01*
X1548Y1016D02*
X1567Y1016D01*
X1595Y1016D02*
X1615Y1016D01*
X1648Y1016D02*
X1667Y1016D01*
X1695Y1016D02*
X1715Y1016D01*
X1747Y1016D02*
X1767Y1016D01*
X1795Y1016D02*
X1815Y1016D01*
X548Y1015D02*
X568Y1015D01*
X595Y1015D02*
X615Y1015D01*
X648Y1015D02*
X668Y1015D01*
X695Y1015D02*
X715Y1015D01*
X748Y1015D02*
X768Y1015D01*
X795Y1015D02*
X815Y1015D01*
X848Y1015D02*
X868Y1015D01*
X895Y1015D02*
X915Y1015D01*
X948Y1015D02*
X968Y1015D01*
X995Y1015D02*
X1015Y1015D01*
X1048Y1015D02*
X1068Y1015D01*
X1095Y1015D02*
X1114Y1015D01*
X1148Y1015D02*
X1168Y1015D01*
X1195Y1015D02*
X1214Y1015D01*
X1248Y1015D02*
X1268Y1015D01*
X1295Y1015D02*
X1314Y1015D01*
X1348Y1015D02*
X1368Y1015D01*
X1395Y1015D02*
X1414Y1015D01*
X1448Y1015D02*
X1468Y1015D01*
X1495Y1015D02*
X1514Y1015D01*
X1548Y1015D02*
X1567Y1015D01*
X1595Y1015D02*
X1614Y1015D01*
X1648Y1015D02*
X1667Y1015D01*
X1695Y1015D02*
X1714Y1015D01*
X1748Y1015D02*
X1767Y1015D01*
X1795Y1015D02*
X1814Y1015D01*
X549Y1014D02*
X568Y1014D01*
X594Y1014D02*
X614Y1014D01*
X648Y1014D02*
X668Y1014D01*
X694Y1014D02*
X714Y1014D01*
X748Y1014D02*
X768Y1014D01*
X794Y1014D02*
X814Y1014D01*
X848Y1014D02*
X868Y1014D01*
X894Y1014D02*
X914Y1014D01*
X948Y1014D02*
X968Y1014D01*
X994Y1014D02*
X1014Y1014D01*
X1048Y1014D02*
X1068Y1014D01*
X1094Y1014D02*
X1114Y1014D01*
X1148Y1014D02*
X1168Y1014D01*
X1194Y1014D02*
X1214Y1014D01*
X1248Y1014D02*
X1268Y1014D01*
X1294Y1014D02*
X1314Y1014D01*
X1348Y1014D02*
X1368Y1014D01*
X1394Y1014D02*
X1414Y1014D01*
X1448Y1014D02*
X1468Y1014D01*
X1494Y1014D02*
X1514Y1014D01*
X1548Y1014D02*
X1568Y1014D01*
X1594Y1014D02*
X1614Y1014D01*
X1648Y1014D02*
X1668Y1014D01*
X1694Y1014D02*
X1714Y1014D01*
X1748Y1014D02*
X1768Y1014D01*
X1794Y1014D02*
X1814Y1014D01*
X549Y1013D02*
X569Y1013D01*
X594Y1013D02*
X614Y1013D01*
X649Y1013D02*
X669Y1013D01*
X694Y1013D02*
X714Y1013D01*
X749Y1013D02*
X769Y1013D01*
X794Y1013D02*
X814Y1013D01*
X849Y1013D02*
X869Y1013D01*
X894Y1013D02*
X914Y1013D01*
X949Y1013D02*
X969Y1013D01*
X993Y1013D02*
X1014Y1013D01*
X1049Y1013D02*
X1069Y1013D01*
X1093Y1013D02*
X1114Y1013D01*
X1149Y1013D02*
X1169Y1013D01*
X1193Y1013D02*
X1214Y1013D01*
X1249Y1013D02*
X1269Y1013D01*
X1293Y1013D02*
X1314Y1013D01*
X1349Y1013D02*
X1369Y1013D01*
X1393Y1013D02*
X1414Y1013D01*
X1449Y1013D02*
X1469Y1013D01*
X1493Y1013D02*
X1514Y1013D01*
X1548Y1013D02*
X1569Y1013D01*
X1593Y1013D02*
X1614Y1013D01*
X1648Y1013D02*
X1669Y1013D01*
X1693Y1013D02*
X1714Y1013D01*
X1748Y1013D02*
X1769Y1013D01*
X1793Y1013D02*
X1814Y1013D01*
X549Y1012D02*
X570Y1012D01*
X593Y1012D02*
X614Y1012D01*
X649Y1012D02*
X670Y1012D01*
X693Y1012D02*
X714Y1012D01*
X749Y1012D02*
X770Y1012D01*
X793Y1012D02*
X814Y1012D01*
X849Y1012D02*
X870Y1012D01*
X893Y1012D02*
X914Y1012D01*
X949Y1012D02*
X970Y1012D01*
X993Y1012D02*
X1013Y1012D01*
X1049Y1012D02*
X1070Y1012D01*
X1092Y1012D02*
X1113Y1012D01*
X1149Y1012D02*
X1170Y1012D01*
X1192Y1012D02*
X1213Y1012D01*
X1249Y1012D02*
X1270Y1012D01*
X1292Y1012D02*
X1313Y1012D01*
X1349Y1012D02*
X1370Y1012D01*
X1392Y1012D02*
X1413Y1012D01*
X1449Y1012D02*
X1470Y1012D01*
X1492Y1012D02*
X1513Y1012D01*
X1549Y1012D02*
X1570Y1012D01*
X1592Y1012D02*
X1613Y1012D01*
X1649Y1012D02*
X1670Y1012D01*
X1692Y1012D02*
X1713Y1012D01*
X1749Y1012D02*
X1770Y1012D01*
X1792Y1012D02*
X1813Y1012D01*
X550Y1011D02*
X572Y1011D01*
X591Y1011D02*
X613Y1011D01*
X650Y1011D02*
X671Y1011D01*
X691Y1011D02*
X713Y1011D01*
X750Y1011D02*
X771Y1011D01*
X791Y1011D02*
X813Y1011D01*
X850Y1011D02*
X871Y1011D01*
X891Y1011D02*
X913Y1011D01*
X950Y1011D02*
X971Y1011D01*
X991Y1011D02*
X1013Y1011D01*
X1049Y1011D02*
X1071Y1011D01*
X1091Y1011D02*
X1113Y1011D01*
X1149Y1011D02*
X1171Y1011D01*
X1191Y1011D02*
X1213Y1011D01*
X1249Y1011D02*
X1271Y1011D01*
X1291Y1011D02*
X1313Y1011D01*
X1349Y1011D02*
X1371Y1011D01*
X1391Y1011D02*
X1413Y1011D01*
X1449Y1011D02*
X1471Y1011D01*
X1491Y1011D02*
X1513Y1011D01*
X1549Y1011D02*
X1571Y1011D01*
X1591Y1011D02*
X1613Y1011D01*
X1649Y1011D02*
X1671Y1011D01*
X1691Y1011D02*
X1713Y1011D01*
X1749Y1011D02*
X1771Y1011D01*
X1791Y1011D02*
X1813Y1011D01*
X550Y1010D02*
X573Y1010D01*
X590Y1010D02*
X613Y1010D01*
X650Y1010D02*
X673Y1010D01*
X690Y1010D02*
X713Y1010D01*
X750Y1010D02*
X773Y1010D01*
X790Y1010D02*
X813Y1010D01*
X850Y1010D02*
X873Y1010D01*
X889Y1010D02*
X913Y1010D01*
X950Y1010D02*
X973Y1010D01*
X989Y1010D02*
X1013Y1010D01*
X1050Y1010D02*
X1073Y1010D01*
X1089Y1010D02*
X1113Y1010D01*
X1150Y1010D02*
X1173Y1010D01*
X1189Y1010D02*
X1213Y1010D01*
X1250Y1010D02*
X1273Y1010D01*
X1289Y1010D02*
X1313Y1010D01*
X1350Y1010D02*
X1373Y1010D01*
X1389Y1010D02*
X1412Y1010D01*
X1450Y1010D02*
X1473Y1010D01*
X1489Y1010D02*
X1512Y1010D01*
X1550Y1010D02*
X1573Y1010D01*
X1589Y1010D02*
X1612Y1010D01*
X1650Y1010D02*
X1673Y1010D01*
X1689Y1010D02*
X1712Y1010D01*
X1750Y1010D02*
X1773Y1010D01*
X1789Y1010D02*
X1812Y1010D01*
X551Y1009D02*
X576Y1009D01*
X587Y1009D02*
X612Y1009D01*
X651Y1009D02*
X676Y1009D01*
X687Y1009D02*
X712Y1009D01*
X751Y1009D02*
X776Y1009D01*
X787Y1009D02*
X812Y1009D01*
X850Y1009D02*
X876Y1009D01*
X886Y1009D02*
X912Y1009D01*
X950Y1009D02*
X976Y1009D01*
X986Y1009D02*
X1012Y1009D01*
X1050Y1009D02*
X1076Y1009D01*
X1086Y1009D02*
X1112Y1009D01*
X1150Y1009D02*
X1176Y1009D01*
X1186Y1009D02*
X1212Y1009D01*
X1250Y1009D02*
X1276Y1009D01*
X1286Y1009D02*
X1312Y1009D01*
X1350Y1009D02*
X1376Y1009D01*
X1386Y1009D02*
X1412Y1009D01*
X1450Y1009D02*
X1476Y1009D01*
X1486Y1009D02*
X1512Y1009D01*
X1550Y1009D02*
X1576Y1009D01*
X1586Y1009D02*
X1612Y1009D01*
X1650Y1009D02*
X1676Y1009D01*
X1686Y1009D02*
X1712Y1009D01*
X1750Y1009D02*
X1776Y1009D01*
X1786Y1009D02*
X1812Y1009D01*
X551Y1008D02*
X612Y1008D01*
X651Y1008D02*
X712Y1008D01*
X751Y1008D02*
X812Y1008D01*
X851Y1008D02*
X912Y1008D01*
X951Y1008D02*
X1012Y1008D01*
X1051Y1008D02*
X1112Y1008D01*
X1151Y1008D02*
X1212Y1008D01*
X1251Y1008D02*
X1311Y1008D01*
X1351Y1008D02*
X1411Y1008D01*
X1451Y1008D02*
X1511Y1008D01*
X1551Y1008D02*
X1611Y1008D01*
X1651Y1008D02*
X1711Y1008D01*
X1751Y1008D02*
X1811Y1008D01*
X552Y1007D02*
X611Y1007D01*
X652Y1007D02*
X711Y1007D01*
X752Y1007D02*
X811Y1007D01*
X852Y1007D02*
X911Y1007D01*
X952Y1007D02*
X1011Y1007D01*
X1052Y1007D02*
X1111Y1007D01*
X1151Y1007D02*
X1211Y1007D01*
X1251Y1007D02*
X1311Y1007D01*
X1351Y1007D02*
X1411Y1007D01*
X1451Y1007D02*
X1511Y1007D01*
X1551Y1007D02*
X1611Y1007D01*
X1651Y1007D02*
X1711Y1007D01*
X1751Y1007D02*
X1811Y1007D01*
X552Y1006D02*
X611Y1006D01*
X652Y1006D02*
X711Y1006D01*
X752Y1006D02*
X810Y1006D01*
X852Y1006D02*
X910Y1006D01*
X952Y1006D02*
X1010Y1006D01*
X1052Y1006D02*
X1110Y1006D01*
X1152Y1006D02*
X1210Y1006D01*
X1252Y1006D02*
X1310Y1006D01*
X1352Y1006D02*
X1410Y1006D01*
X1452Y1006D02*
X1510Y1006D01*
X1552Y1006D02*
X1610Y1006D01*
X1652Y1006D02*
X1710Y1006D01*
X1752Y1006D02*
X1810Y1006D01*
X553Y1005D02*
X610Y1005D01*
X653Y1005D02*
X710Y1005D01*
X753Y1005D02*
X810Y1005D01*
X853Y1005D02*
X910Y1005D01*
X953Y1005D02*
X1010Y1005D01*
X1053Y1005D02*
X1110Y1005D01*
X1153Y1005D02*
X1210Y1005D01*
X1253Y1005D02*
X1310Y1005D01*
X1353Y1005D02*
X1410Y1005D01*
X1453Y1005D02*
X1510Y1005D01*
X1553Y1005D02*
X1610Y1005D01*
X1653Y1005D02*
X1710Y1005D01*
X1753Y1005D02*
X1809Y1005D01*
X554Y1004D02*
X609Y1004D01*
X654Y1004D02*
X709Y1004D01*
X754Y1004D02*
X809Y1004D01*
X854Y1004D02*
X909Y1004D01*
X954Y1004D02*
X1009Y1004D01*
X1053Y1004D02*
X1109Y1004D01*
X1153Y1004D02*
X1209Y1004D01*
X1253Y1004D02*
X1309Y1004D01*
X1353Y1004D02*
X1409Y1004D01*
X1453Y1004D02*
X1509Y1004D01*
X1553Y1004D02*
X1609Y1004D01*
X1653Y1004D02*
X1709Y1004D01*
X1753Y1004D02*
X1809Y1004D01*
X554Y1003D02*
X608Y1003D01*
X654Y1003D02*
X708Y1003D01*
X754Y1003D02*
X808Y1003D01*
X854Y1003D02*
X908Y1003D01*
X954Y1003D02*
X1008Y1003D01*
X1054Y1003D02*
X1108Y1003D01*
X1154Y1003D02*
X1208Y1003D01*
X1254Y1003D02*
X1308Y1003D01*
X1354Y1003D02*
X1408Y1003D01*
X1454Y1003D02*
X1508Y1003D01*
X1554Y1003D02*
X1608Y1003D01*
X1654Y1003D02*
X1708Y1003D01*
X1754Y1003D02*
X1808Y1003D01*
X555Y1002D02*
X608Y1002D01*
X655Y1002D02*
X708Y1002D01*
X755Y1002D02*
X808Y1002D01*
X855Y1002D02*
X908Y1002D01*
X955Y1002D02*
X1007Y1002D01*
X1055Y1002D02*
X1107Y1002D01*
X1155Y1002D02*
X1207Y1002D01*
X1255Y1002D02*
X1307Y1002D01*
X1355Y1002D02*
X1407Y1002D01*
X1455Y1002D02*
X1507Y1002D01*
X1555Y1002D02*
X1607Y1002D01*
X1655Y1002D02*
X1707Y1002D01*
X1755Y1002D02*
X1807Y1002D01*
X556Y1001D02*
X607Y1001D01*
X656Y1001D02*
X707Y1001D01*
X756Y1001D02*
X807Y1001D01*
X856Y1001D02*
X907Y1001D01*
X956Y1001D02*
X1007Y1001D01*
X1056Y1001D02*
X1107Y1001D01*
X1156Y1001D02*
X1207Y1001D01*
X1256Y1001D02*
X1307Y1001D01*
X1356Y1001D02*
X1406Y1001D01*
X1456Y1001D02*
X1506Y1001D01*
X1556Y1001D02*
X1606Y1001D01*
X1656Y1001D02*
X1706Y1001D01*
X1756Y1001D02*
X1806Y1001D01*
X557Y1000D02*
X606Y1000D01*
X657Y1000D02*
X706Y1000D01*
X757Y1000D02*
X806Y1000D01*
X857Y1000D02*
X906Y1000D01*
X957Y1000D02*
X1006Y1000D01*
X1057Y1000D02*
X1106Y1000D01*
X1157Y1000D02*
X1206Y1000D01*
X1257Y1000D02*
X1306Y1000D01*
X1357Y1000D02*
X1406Y1000D01*
X1457Y1000D02*
X1506Y1000D01*
X1557Y1000D02*
X1606Y1000D01*
X1657Y1000D02*
X1705Y1000D01*
X1757Y1000D02*
X1805Y1000D01*
X558Y999D02*
X605Y999D01*
X658Y999D02*
X705Y999D01*
X758Y999D02*
X805Y999D01*
X858Y999D02*
X905Y999D01*
X958Y999D02*
X1005Y999D01*
X1058Y999D02*
X1105Y999D01*
X1158Y999D02*
X1205Y999D01*
X1258Y999D02*
X1305Y999D01*
X1358Y999D02*
X1405Y999D01*
X1458Y999D02*
X1505Y999D01*
X1558Y999D02*
X1605Y999D01*
X1658Y999D02*
X1704Y999D01*
X1758Y999D02*
X1804Y999D01*
X559Y998D02*
X604Y998D01*
X659Y998D02*
X704Y998D01*
X759Y998D02*
X804Y998D01*
X859Y998D02*
X904Y998D01*
X959Y998D02*
X1004Y998D01*
X1059Y998D02*
X1104Y998D01*
X1159Y998D02*
X1204Y998D01*
X1259Y998D02*
X1304Y998D01*
X1359Y998D02*
X1404Y998D01*
X1459Y998D02*
X1503Y998D01*
X1559Y998D02*
X1603Y998D01*
X1659Y998D02*
X1703Y998D01*
X1759Y998D02*
X1803Y998D01*
X560Y997D02*
X603Y997D01*
X660Y997D02*
X703Y997D01*
X760Y997D02*
X803Y997D01*
X860Y997D02*
X903Y997D01*
X960Y997D02*
X1003Y997D01*
X1060Y997D02*
X1103Y997D01*
X1160Y997D02*
X1202Y997D01*
X1260Y997D02*
X1302Y997D01*
X1360Y997D02*
X1402Y997D01*
X1460Y997D02*
X1502Y997D01*
X1560Y997D02*
X1602Y997D01*
X1660Y997D02*
X1702Y997D01*
X1760Y997D02*
X1802Y997D01*
X561Y996D02*
X601Y996D01*
X661Y996D02*
X701Y996D01*
X761Y996D02*
X801Y996D01*
X861Y996D02*
X901Y996D01*
X961Y996D02*
X1001Y996D01*
X1061Y996D02*
X1101Y996D01*
X1161Y996D02*
X1201Y996D01*
X1261Y996D02*
X1301Y996D01*
X1361Y996D02*
X1401Y996D01*
X1461Y996D02*
X1501Y996D01*
X1561Y996D02*
X1601Y996D01*
X1661Y996D02*
X1701Y996D01*
X1761Y996D02*
X1801Y996D01*
X563Y995D02*
X600Y995D01*
X663Y995D02*
X700Y995D01*
X763Y995D02*
X800Y995D01*
X863Y995D02*
X900Y995D01*
X963Y995D02*
X1000Y995D01*
X1063Y995D02*
X1100Y995D01*
X1163Y995D02*
X1200Y995D01*
X1263Y995D02*
X1300Y995D01*
X1362Y995D02*
X1400Y995D01*
X1462Y995D02*
X1500Y995D01*
X1562Y995D02*
X1600Y995D01*
X1662Y995D02*
X1700Y995D01*
X1762Y995D02*
X1800Y995D01*
X564Y994D02*
X599Y994D01*
X664Y994D02*
X699Y994D01*
X764Y994D02*
X799Y994D01*
X864Y994D02*
X899Y994D01*
X964Y994D02*
X998Y994D01*
X1064Y994D02*
X1098Y994D01*
X1164Y994D02*
X1198Y994D01*
X1264Y994D02*
X1298Y994D01*
X1364Y994D02*
X1398Y994D01*
X1464Y994D02*
X1498Y994D01*
X1564Y994D02*
X1598Y994D01*
X1664Y994D02*
X1698Y994D01*
X1764Y994D02*
X1798Y994D01*
X566Y993D02*
X597Y993D01*
X666Y993D02*
X697Y993D01*
X766Y993D02*
X797Y993D01*
X866Y993D02*
X897Y993D01*
X966Y993D02*
X997Y993D01*
X1066Y993D02*
X1097Y993D01*
X1166Y993D02*
X1197Y993D01*
X1266Y993D02*
X1297Y993D01*
X1366Y993D02*
X1397Y993D01*
X1466Y993D02*
X1497Y993D01*
X1566Y993D02*
X1597Y993D01*
X1665Y993D02*
X1697Y993D01*
X1765Y993D02*
X1797Y993D01*
X568Y992D02*
X595Y992D01*
X668Y992D02*
X695Y992D01*
X768Y992D02*
X795Y992D01*
X868Y992D02*
X895Y992D01*
X968Y992D02*
X995Y992D01*
X1068Y992D02*
X1095Y992D01*
X1168Y992D02*
X1195Y992D01*
X1267Y992D02*
X1295Y992D01*
X1367Y992D02*
X1395Y992D01*
X1467Y992D02*
X1495Y992D01*
X1567Y992D02*
X1595Y992D01*
X1667Y992D02*
X1695Y992D01*
X1767Y992D02*
X1795Y992D01*
X570Y991D02*
X593Y991D01*
X670Y991D02*
X693Y991D01*
X770Y991D02*
X793Y991D01*
X870Y991D02*
X893Y991D01*
X970Y991D02*
X993Y991D01*
X1070Y991D02*
X1093Y991D01*
X1170Y991D02*
X1193Y991D01*
X1270Y991D02*
X1293Y991D01*
X1370Y991D02*
X1393Y991D01*
X1470Y991D02*
X1493Y991D01*
X1570Y991D02*
X1593Y991D01*
X1670Y991D02*
X1693Y991D01*
X1769Y991D02*
X1792Y991D01*
X573Y990D02*
X590Y990D01*
X673Y990D02*
X690Y990D01*
X773Y990D02*
X790Y990D01*
X873Y990D02*
X890Y990D01*
X973Y990D02*
X990Y990D01*
X1072Y990D02*
X1090Y990D01*
X1172Y990D02*
X1190Y990D01*
X1272Y990D02*
X1290Y990D01*
X1372Y990D02*
X1390Y990D01*
X1472Y990D02*
X1490Y990D01*
X1572Y990D02*
X1590Y990D01*
X1672Y990D02*
X1690Y990D01*
X1772Y990D02*
X1790Y990D01*
X577Y989D02*
X586Y989D01*
X677Y989D02*
X686Y989D01*
X777Y989D02*
X786Y989D01*
X877Y989D02*
X886Y989D01*
X976Y989D02*
X986Y989D01*
X1076Y989D02*
X1086Y989D01*
X1176Y989D02*
X1186Y989D01*
X1276Y989D02*
X1286Y989D01*
X1376Y989D02*
X1386Y989D01*
X1476Y989D02*
X1486Y989D01*
X1576Y989D02*
X1586Y989D01*
X1676Y989D02*
X1686Y989D01*
X1776Y989D02*
X1786Y989D01*
X576Y958D02*
X586Y958D01*
X676Y958D02*
X686Y958D01*
X776Y958D02*
X786Y958D01*
X876Y958D02*
X886Y958D01*
X976Y958D02*
X986Y958D01*
X1076Y958D02*
X1086Y958D01*
X1176Y958D02*
X1186Y958D01*
X1276Y958D02*
X1286Y958D01*
X1376Y958D02*
X1386Y958D01*
X1476Y958D02*
X1486Y958D01*
X1576Y958D02*
X1586Y958D01*
X1676Y958D02*
X1686Y958D01*
X1776Y958D02*
X1786Y958D01*
X573Y957D02*
X590Y957D01*
X673Y957D02*
X690Y957D01*
X773Y957D02*
X790Y957D01*
X872Y957D02*
X890Y957D01*
X972Y957D02*
X990Y957D01*
X1072Y957D02*
X1090Y957D01*
X1172Y957D02*
X1190Y957D01*
X1272Y957D02*
X1290Y957D01*
X1372Y957D02*
X1390Y957D01*
X1472Y957D02*
X1490Y957D01*
X1572Y957D02*
X1590Y957D01*
X1672Y957D02*
X1690Y957D01*
X1772Y957D02*
X1790Y957D01*
X570Y956D02*
X593Y956D01*
X670Y956D02*
X693Y956D01*
X770Y956D02*
X793Y956D01*
X870Y956D02*
X893Y956D01*
X970Y956D02*
X993Y956D01*
X1070Y956D02*
X1093Y956D01*
X1170Y956D02*
X1193Y956D01*
X1270Y956D02*
X1293Y956D01*
X1370Y956D02*
X1393Y956D01*
X1470Y956D02*
X1493Y956D01*
X1569Y956D02*
X1593Y956D01*
X1669Y956D02*
X1693Y956D01*
X1769Y956D02*
X1793Y956D01*
X568Y955D02*
X595Y955D01*
X668Y955D02*
X695Y955D01*
X768Y955D02*
X795Y955D01*
X868Y955D02*
X895Y955D01*
X968Y955D02*
X995Y955D01*
X1068Y955D02*
X1095Y955D01*
X1167Y955D02*
X1195Y955D01*
X1267Y955D02*
X1295Y955D01*
X1367Y955D02*
X1395Y955D01*
X1467Y955D02*
X1495Y955D01*
X1567Y955D02*
X1595Y955D01*
X1667Y955D02*
X1695Y955D01*
X1767Y955D02*
X1795Y955D01*
X566Y954D02*
X597Y954D01*
X666Y954D02*
X697Y954D01*
X766Y954D02*
X797Y954D01*
X866Y954D02*
X897Y954D01*
X966Y954D02*
X997Y954D01*
X1066Y954D02*
X1097Y954D01*
X1166Y954D02*
X1197Y954D01*
X1266Y954D02*
X1297Y954D01*
X1366Y954D02*
X1397Y954D01*
X1466Y954D02*
X1497Y954D01*
X1565Y954D02*
X1597Y954D01*
X1665Y954D02*
X1697Y954D01*
X1765Y954D02*
X1797Y954D01*
X564Y953D02*
X599Y953D01*
X664Y953D02*
X699Y953D01*
X764Y953D02*
X799Y953D01*
X864Y953D02*
X899Y953D01*
X964Y953D02*
X999Y953D01*
X1064Y953D02*
X1099Y953D01*
X1164Y953D02*
X1198Y953D01*
X1264Y953D02*
X1298Y953D01*
X1364Y953D02*
X1398Y953D01*
X1464Y953D02*
X1498Y953D01*
X1564Y953D02*
X1598Y953D01*
X1664Y953D02*
X1698Y953D01*
X1764Y953D02*
X1798Y953D01*
X563Y952D02*
X600Y952D01*
X663Y952D02*
X700Y952D01*
X763Y952D02*
X800Y952D01*
X863Y952D02*
X900Y952D01*
X963Y952D02*
X1000Y952D01*
X1063Y952D02*
X1100Y952D01*
X1162Y952D02*
X1200Y952D01*
X1262Y952D02*
X1300Y952D01*
X1362Y952D02*
X1400Y952D01*
X1462Y952D02*
X1500Y952D01*
X1562Y952D02*
X1600Y952D01*
X1662Y952D02*
X1700Y952D01*
X1762Y952D02*
X1800Y952D01*
X561Y951D02*
X601Y951D01*
X661Y951D02*
X701Y951D01*
X761Y951D02*
X801Y951D01*
X861Y951D02*
X901Y951D01*
X961Y951D02*
X1001Y951D01*
X1061Y951D02*
X1101Y951D01*
X1161Y951D02*
X1201Y951D01*
X1261Y951D02*
X1301Y951D01*
X1361Y951D02*
X1401Y951D01*
X1461Y951D02*
X1501Y951D01*
X1561Y951D02*
X1601Y951D01*
X1661Y951D02*
X1701Y951D01*
X1761Y951D02*
X1801Y951D01*
X560Y950D02*
X603Y950D01*
X660Y950D02*
X703Y950D01*
X760Y950D02*
X803Y950D01*
X860Y950D02*
X903Y950D01*
X960Y950D02*
X1003Y950D01*
X1060Y950D02*
X1103Y950D01*
X1160Y950D02*
X1203Y950D01*
X1260Y950D02*
X1302Y950D01*
X1360Y950D02*
X1402Y950D01*
X1460Y950D02*
X1502Y950D01*
X1560Y950D02*
X1602Y950D01*
X1660Y950D02*
X1702Y950D01*
X1760Y950D02*
X1802Y950D01*
X559Y949D02*
X604Y949D01*
X659Y949D02*
X704Y949D01*
X759Y949D02*
X804Y949D01*
X859Y949D02*
X904Y949D01*
X959Y949D02*
X1004Y949D01*
X1059Y949D02*
X1104Y949D01*
X1159Y949D02*
X1204Y949D01*
X1259Y949D02*
X1304Y949D01*
X1359Y949D02*
X1404Y949D01*
X1459Y949D02*
X1504Y949D01*
X1559Y949D02*
X1603Y949D01*
X1659Y949D02*
X1703Y949D01*
X1759Y949D02*
X1803Y949D01*
X558Y948D02*
X605Y948D01*
X658Y948D02*
X705Y948D01*
X758Y948D02*
X805Y948D01*
X858Y948D02*
X905Y948D01*
X958Y948D02*
X1005Y948D01*
X1058Y948D02*
X1105Y948D01*
X1158Y948D02*
X1205Y948D01*
X1258Y948D02*
X1305Y948D01*
X1358Y948D02*
X1405Y948D01*
X1458Y948D02*
X1505Y948D01*
X1558Y948D02*
X1605Y948D01*
X1658Y948D02*
X1705Y948D01*
X1758Y948D02*
X1804Y948D01*
X557Y947D02*
X606Y947D01*
X657Y947D02*
X706Y947D01*
X757Y947D02*
X806Y947D01*
X857Y947D02*
X906Y947D01*
X957Y947D02*
X1006Y947D01*
X1057Y947D02*
X1106Y947D01*
X1157Y947D02*
X1206Y947D01*
X1257Y947D02*
X1306Y947D01*
X1357Y947D02*
X1406Y947D01*
X1457Y947D02*
X1506Y947D01*
X1557Y947D02*
X1606Y947D01*
X1657Y947D02*
X1705Y947D01*
X1757Y947D02*
X1805Y947D01*
X556Y946D02*
X607Y946D01*
X656Y946D02*
X707Y946D01*
X756Y946D02*
X807Y946D01*
X856Y946D02*
X907Y946D01*
X956Y946D02*
X1007Y946D01*
X1056Y946D02*
X1107Y946D01*
X1156Y946D02*
X1207Y946D01*
X1256Y946D02*
X1307Y946D01*
X1356Y946D02*
X1407Y946D01*
X1456Y946D02*
X1506Y946D01*
X1556Y946D02*
X1606Y946D01*
X1656Y946D02*
X1706Y946D01*
X1756Y946D02*
X1806Y946D01*
X555Y945D02*
X608Y945D01*
X655Y945D02*
X708Y945D01*
X755Y945D02*
X808Y945D01*
X855Y945D02*
X908Y945D01*
X955Y945D02*
X1008Y945D01*
X1055Y945D02*
X1107Y945D01*
X1155Y945D02*
X1207Y945D01*
X1255Y945D02*
X1307Y945D01*
X1355Y945D02*
X1407Y945D01*
X1455Y945D02*
X1507Y945D01*
X1555Y945D02*
X1607Y945D01*
X1655Y945D02*
X1707Y945D01*
X1755Y945D02*
X1807Y945D01*
X554Y944D02*
X608Y944D01*
X654Y944D02*
X708Y944D01*
X754Y944D02*
X808Y944D01*
X854Y944D02*
X908Y944D01*
X954Y944D02*
X1008Y944D01*
X1054Y944D02*
X1108Y944D01*
X1154Y944D02*
X1208Y944D01*
X1254Y944D02*
X1308Y944D01*
X1354Y944D02*
X1408Y944D01*
X1454Y944D02*
X1508Y944D01*
X1554Y944D02*
X1608Y944D01*
X1654Y944D02*
X1708Y944D01*
X1754Y944D02*
X1808Y944D01*
X554Y943D02*
X609Y943D01*
X654Y943D02*
X709Y943D01*
X754Y943D02*
X809Y943D01*
X854Y943D02*
X909Y943D01*
X954Y943D02*
X1009Y943D01*
X1053Y943D02*
X1109Y943D01*
X1153Y943D02*
X1209Y943D01*
X1253Y943D02*
X1309Y943D01*
X1353Y943D02*
X1409Y943D01*
X1453Y943D02*
X1509Y943D01*
X1553Y943D02*
X1609Y943D01*
X1653Y943D02*
X1709Y943D01*
X1753Y943D02*
X1809Y943D01*
X553Y942D02*
X610Y942D01*
X653Y942D02*
X710Y942D01*
X753Y942D02*
X810Y942D01*
X853Y942D02*
X910Y942D01*
X953Y942D02*
X1010Y942D01*
X1053Y942D02*
X1110Y942D01*
X1153Y942D02*
X1210Y942D01*
X1253Y942D02*
X1310Y942D01*
X1353Y942D02*
X1410Y942D01*
X1453Y942D02*
X1510Y942D01*
X1553Y942D02*
X1610Y942D01*
X1653Y942D02*
X1710Y942D01*
X1753Y942D02*
X1809Y942D01*
X552Y941D02*
X611Y941D01*
X652Y941D02*
X711Y941D01*
X752Y941D02*
X811Y941D01*
X852Y941D02*
X910Y941D01*
X952Y941D02*
X1010Y941D01*
X1052Y941D02*
X1110Y941D01*
X1152Y941D02*
X1210Y941D01*
X1252Y941D02*
X1310Y941D01*
X1352Y941D02*
X1410Y941D01*
X1452Y941D02*
X1510Y941D01*
X1552Y941D02*
X1610Y941D01*
X1652Y941D02*
X1710Y941D01*
X1752Y941D02*
X1810Y941D01*
X552Y940D02*
X611Y940D01*
X652Y940D02*
X711Y940D01*
X752Y940D02*
X811Y940D01*
X852Y940D02*
X911Y940D01*
X952Y940D02*
X1011Y940D01*
X1051Y940D02*
X1111Y940D01*
X1151Y940D02*
X1211Y940D01*
X1251Y940D02*
X1311Y940D01*
X1351Y940D02*
X1411Y940D01*
X1451Y940D02*
X1511Y940D01*
X1551Y940D02*
X1611Y940D01*
X1651Y940D02*
X1711Y940D01*
X1751Y940D02*
X1811Y940D01*
X551Y939D02*
X612Y939D01*
X651Y939D02*
X712Y939D01*
X751Y939D02*
X812Y939D01*
X851Y939D02*
X912Y939D01*
X951Y939D02*
X1012Y939D01*
X1051Y939D02*
X1112Y939D01*
X1151Y939D02*
X1212Y939D01*
X1251Y939D02*
X1311Y939D01*
X1351Y939D02*
X1411Y939D01*
X1451Y939D02*
X1511Y939D01*
X1551Y939D02*
X1611Y939D01*
X1651Y939D02*
X1711Y939D01*
X1751Y939D02*
X1811Y939D01*
X551Y938D02*
X576Y938D01*
X587Y938D02*
X612Y938D01*
X651Y938D02*
X676Y938D01*
X687Y938D02*
X712Y938D01*
X751Y938D02*
X776Y938D01*
X787Y938D02*
X812Y938D01*
X850Y938D02*
X876Y938D01*
X887Y938D02*
X912Y938D01*
X950Y938D02*
X976Y938D01*
X987Y938D02*
X1012Y938D01*
X1050Y938D02*
X1076Y938D01*
X1087Y938D02*
X1112Y938D01*
X1150Y938D02*
X1176Y938D01*
X1187Y938D02*
X1212Y938D01*
X1250Y938D02*
X1276Y938D01*
X1286Y938D02*
X1312Y938D01*
X1350Y938D02*
X1376Y938D01*
X1386Y938D02*
X1412Y938D01*
X1450Y938D02*
X1476Y938D01*
X1486Y938D02*
X1512Y938D01*
X1550Y938D02*
X1576Y938D01*
X1586Y938D02*
X1612Y938D01*
X1650Y938D02*
X1676Y938D01*
X1686Y938D02*
X1712Y938D01*
X1750Y938D02*
X1776Y938D01*
X1786Y938D02*
X1812Y938D01*
X550Y937D02*
X573Y937D01*
X590Y937D02*
X613Y937D01*
X650Y937D02*
X673Y937D01*
X690Y937D02*
X713Y937D01*
X750Y937D02*
X773Y937D01*
X790Y937D02*
X813Y937D01*
X850Y937D02*
X873Y937D01*
X890Y937D02*
X913Y937D01*
X950Y937D02*
X973Y937D01*
X990Y937D02*
X1013Y937D01*
X1050Y937D02*
X1073Y937D01*
X1089Y937D02*
X1113Y937D01*
X1150Y937D02*
X1173Y937D01*
X1189Y937D02*
X1213Y937D01*
X1250Y937D02*
X1273Y937D01*
X1289Y937D02*
X1313Y937D01*
X1350Y937D02*
X1373Y937D01*
X1389Y937D02*
X1412Y937D01*
X1450Y937D02*
X1473Y937D01*
X1489Y937D02*
X1512Y937D01*
X1550Y937D02*
X1573Y937D01*
X1589Y937D02*
X1612Y937D01*
X1650Y937D02*
X1673Y937D01*
X1689Y937D02*
X1712Y937D01*
X1750Y937D02*
X1773Y937D01*
X1789Y937D02*
X1812Y937D01*
X550Y936D02*
X571Y936D01*
X591Y936D02*
X613Y936D01*
X650Y936D02*
X671Y936D01*
X691Y936D02*
X713Y936D01*
X750Y936D02*
X771Y936D01*
X791Y936D02*
X813Y936D01*
X850Y936D02*
X871Y936D01*
X891Y936D02*
X913Y936D01*
X950Y936D02*
X971Y936D01*
X991Y936D02*
X1013Y936D01*
X1049Y936D02*
X1071Y936D01*
X1091Y936D02*
X1113Y936D01*
X1149Y936D02*
X1171Y936D01*
X1191Y936D02*
X1213Y936D01*
X1249Y936D02*
X1271Y936D01*
X1291Y936D02*
X1313Y936D01*
X1349Y936D02*
X1371Y936D01*
X1391Y936D02*
X1413Y936D01*
X1449Y936D02*
X1471Y936D01*
X1491Y936D02*
X1513Y936D01*
X1549Y936D02*
X1571Y936D01*
X1591Y936D02*
X1613Y936D01*
X1649Y936D02*
X1671Y936D01*
X1691Y936D02*
X1713Y936D01*
X1749Y936D02*
X1771Y936D01*
X1791Y936D02*
X1813Y936D01*
X549Y935D02*
X570Y935D01*
X593Y935D02*
X614Y935D01*
X649Y935D02*
X670Y935D01*
X693Y935D02*
X714Y935D01*
X749Y935D02*
X770Y935D01*
X793Y935D02*
X814Y935D01*
X849Y935D02*
X870Y935D01*
X893Y935D02*
X914Y935D01*
X949Y935D02*
X970Y935D01*
X993Y935D02*
X1014Y935D01*
X1049Y935D02*
X1070Y935D01*
X1092Y935D02*
X1113Y935D01*
X1149Y935D02*
X1170Y935D01*
X1192Y935D02*
X1213Y935D01*
X1249Y935D02*
X1270Y935D01*
X1292Y935D02*
X1313Y935D01*
X1349Y935D02*
X1370Y935D01*
X1392Y935D02*
X1413Y935D01*
X1449Y935D02*
X1470Y935D01*
X1492Y935D02*
X1513Y935D01*
X1549Y935D02*
X1570Y935D01*
X1592Y935D02*
X1613Y935D01*
X1649Y935D02*
X1670Y935D01*
X1692Y935D02*
X1713Y935D01*
X1749Y935D02*
X1770Y935D01*
X1792Y935D02*
X1813Y935D01*
X549Y934D02*
X569Y934D01*
X594Y934D02*
X614Y934D01*
X649Y934D02*
X669Y934D01*
X694Y934D02*
X714Y934D01*
X749Y934D02*
X769Y934D01*
X794Y934D02*
X814Y934D01*
X849Y934D02*
X869Y934D01*
X894Y934D02*
X914Y934D01*
X949Y934D02*
X969Y934D01*
X993Y934D02*
X1014Y934D01*
X1049Y934D02*
X1069Y934D01*
X1093Y934D02*
X1114Y934D01*
X1149Y934D02*
X1169Y934D01*
X1193Y934D02*
X1214Y934D01*
X1249Y934D02*
X1269Y934D01*
X1293Y934D02*
X1314Y934D01*
X1349Y934D02*
X1369Y934D01*
X1393Y934D02*
X1414Y934D01*
X1449Y934D02*
X1469Y934D01*
X1493Y934D02*
X1514Y934D01*
X1548Y934D02*
X1569Y934D01*
X1593Y934D02*
X1614Y934D01*
X1648Y934D02*
X1669Y934D01*
X1693Y934D02*
X1714Y934D01*
X1748Y934D02*
X1769Y934D01*
X1793Y934D02*
X1814Y934D01*
X549Y933D02*
X568Y933D01*
X594Y933D02*
X614Y933D01*
X648Y933D02*
X668Y933D01*
X694Y933D02*
X714Y933D01*
X748Y933D02*
X768Y933D01*
X794Y933D02*
X814Y933D01*
X848Y933D02*
X868Y933D01*
X894Y933D02*
X914Y933D01*
X948Y933D02*
X968Y933D01*
X994Y933D02*
X1014Y933D01*
X1048Y933D02*
X1068Y933D01*
X1094Y933D02*
X1114Y933D01*
X1148Y933D02*
X1168Y933D01*
X1194Y933D02*
X1214Y933D01*
X1248Y933D02*
X1268Y933D01*
X1294Y933D02*
X1314Y933D01*
X1348Y933D02*
X1368Y933D01*
X1394Y933D02*
X1414Y933D01*
X1448Y933D02*
X1468Y933D01*
X1494Y933D02*
X1514Y933D01*
X1548Y933D02*
X1568Y933D01*
X1594Y933D02*
X1614Y933D01*
X1648Y933D02*
X1668Y933D01*
X1694Y933D02*
X1714Y933D01*
X1748Y933D02*
X1768Y933D01*
X1794Y933D02*
X1814Y933D01*
X548Y932D02*
X568Y932D01*
X595Y932D02*
X615Y932D01*
X648Y932D02*
X668Y932D01*
X695Y932D02*
X715Y932D01*
X748Y932D02*
X768Y932D01*
X795Y932D02*
X815Y932D01*
X848Y932D02*
X868Y932D01*
X895Y932D02*
X915Y932D01*
X948Y932D02*
X968Y932D01*
X995Y932D02*
X1015Y932D01*
X1048Y932D02*
X1068Y932D01*
X1095Y932D02*
X1115Y932D01*
X1148Y932D02*
X1168Y932D01*
X1195Y932D02*
X1214Y932D01*
X1248Y932D02*
X1268Y932D01*
X1295Y932D02*
X1314Y932D01*
X1348Y932D02*
X1368Y932D01*
X1395Y932D02*
X1414Y932D01*
X1448Y932D02*
X1468Y932D01*
X1495Y932D02*
X1514Y932D01*
X1548Y932D02*
X1567Y932D01*
X1595Y932D02*
X1614Y932D01*
X1648Y932D02*
X1667Y932D01*
X1695Y932D02*
X1714Y932D01*
X1748Y932D02*
X1767Y932D01*
X1795Y932D02*
X1814Y932D01*
X548Y931D02*
X567Y931D01*
X596Y931D02*
X615Y931D01*
X648Y931D02*
X667Y931D01*
X695Y931D02*
X715Y931D01*
X748Y931D02*
X767Y931D01*
X795Y931D02*
X815Y931D01*
X848Y931D02*
X867Y931D01*
X895Y931D02*
X915Y931D01*
X948Y931D02*
X967Y931D01*
X995Y931D02*
X1015Y931D01*
X1048Y931D02*
X1067Y931D01*
X1095Y931D02*
X1115Y931D01*
X1148Y931D02*
X1167Y931D01*
X1195Y931D02*
X1215Y931D01*
X1248Y931D02*
X1267Y931D01*
X1295Y931D02*
X1315Y931D01*
X1348Y931D02*
X1367Y931D01*
X1395Y931D02*
X1415Y931D01*
X1448Y931D02*
X1467Y931D01*
X1495Y931D02*
X1515Y931D01*
X1548Y931D02*
X1567Y931D01*
X1595Y931D02*
X1615Y931D01*
X1648Y931D02*
X1667Y931D01*
X1695Y931D02*
X1715Y931D01*
X1747Y931D02*
X1767Y931D01*
X1795Y931D02*
X1815Y931D01*
X548Y930D02*
X567Y930D01*
X596Y930D02*
X615Y930D01*
X648Y930D02*
X667Y930D01*
X696Y930D02*
X715Y930D01*
X748Y930D02*
X767Y930D01*
X796Y930D02*
X815Y930D01*
X848Y930D02*
X867Y930D01*
X896Y930D02*
X915Y930D01*
X948Y930D02*
X967Y930D01*
X996Y930D02*
X1015Y930D01*
X1047Y930D02*
X1067Y930D01*
X1096Y930D02*
X1115Y930D01*
X1147Y930D02*
X1167Y930D01*
X1196Y930D02*
X1215Y930D01*
X1247Y930D02*
X1267Y930D01*
X1296Y930D02*
X1315Y930D01*
X1347Y930D02*
X1367Y930D01*
X1396Y930D02*
X1415Y930D01*
X1447Y930D02*
X1467Y930D01*
X1496Y930D02*
X1515Y930D01*
X1547Y930D02*
X1567Y930D01*
X1596Y930D02*
X1615Y930D01*
X1647Y930D02*
X1667Y930D01*
X1696Y930D02*
X1715Y930D01*
X1747Y930D02*
X1767Y930D01*
X1795Y930D02*
X1815Y930D01*
X547Y929D02*
X567Y929D01*
X596Y929D02*
X615Y929D01*
X647Y929D02*
X667Y929D01*
X696Y929D02*
X715Y929D01*
X747Y929D02*
X767Y929D01*
X796Y929D02*
X815Y929D01*
X847Y929D02*
X867Y929D01*
X896Y929D02*
X915Y929D01*
X947Y929D02*
X966Y929D01*
X996Y929D02*
X1015Y929D01*
X1047Y929D02*
X1066Y929D01*
X1096Y929D02*
X1115Y929D01*
X1147Y929D02*
X1166Y929D01*
X1196Y929D02*
X1215Y929D01*
X1247Y929D02*
X1266Y929D01*
X1296Y929D02*
X1315Y929D01*
X1347Y929D02*
X1366Y929D01*
X1396Y929D02*
X1415Y929D01*
X1447Y929D02*
X1466Y929D01*
X1496Y929D02*
X1515Y929D01*
X1547Y929D02*
X1566Y929D01*
X1596Y929D02*
X1615Y929D01*
X1647Y929D02*
X1666Y929D01*
X1696Y929D02*
X1715Y929D01*
X1747Y929D02*
X1766Y929D01*
X1796Y929D02*
X1815Y929D01*
X547Y928D02*
X566Y928D01*
X596Y928D02*
X616Y928D01*
X647Y928D02*
X666Y928D01*
X696Y928D02*
X716Y928D01*
X747Y928D02*
X766Y928D01*
X796Y928D02*
X815Y928D01*
X847Y928D02*
X866Y928D01*
X896Y928D02*
X915Y928D01*
X947Y928D02*
X966Y928D01*
X996Y928D02*
X1015Y928D01*
X1047Y928D02*
X1066Y928D01*
X1096Y928D02*
X1115Y928D01*
X1147Y928D02*
X1166Y928D01*
X1196Y928D02*
X1215Y928D01*
X1247Y928D02*
X1266Y928D01*
X1296Y928D02*
X1315Y928D01*
X1347Y928D02*
X1366Y928D01*
X1396Y928D02*
X1415Y928D01*
X1447Y928D02*
X1466Y928D01*
X1496Y928D02*
X1515Y928D01*
X1547Y928D02*
X1566Y928D01*
X1596Y928D02*
X1615Y928D01*
X1647Y928D02*
X1666Y928D01*
X1696Y928D02*
X1715Y928D01*
X1747Y928D02*
X1766Y928D01*
X1796Y928D02*
X1815Y928D01*
X547Y927D02*
X566Y927D01*
X597Y927D02*
X616Y927D01*
X647Y927D02*
X666Y927D01*
X697Y927D02*
X716Y927D01*
X747Y927D02*
X766Y927D01*
X797Y927D02*
X816Y927D01*
X847Y927D02*
X866Y927D01*
X897Y927D02*
X916Y927D01*
X947Y927D02*
X966Y927D01*
X997Y927D02*
X1016Y927D01*
X1047Y927D02*
X1066Y927D01*
X1096Y927D02*
X1116Y927D01*
X1147Y927D02*
X1166Y927D01*
X1196Y927D02*
X1215Y927D01*
X1247Y927D02*
X1266Y927D01*
X1296Y927D02*
X1315Y927D01*
X1347Y927D02*
X1366Y927D01*
X1396Y927D02*
X1415Y927D01*
X1447Y927D02*
X1466Y927D01*
X1496Y927D02*
X1515Y927D01*
X1547Y927D02*
X1566Y927D01*
X1596Y927D02*
X1615Y927D01*
X1647Y927D02*
X1666Y927D01*
X1696Y927D02*
X1715Y927D01*
X1747Y927D02*
X1766Y927D01*
X1796Y927D02*
X1815Y927D01*
X547Y926D02*
X566Y926D01*
X597Y926D02*
X616Y926D01*
X647Y926D02*
X666Y926D01*
X697Y926D02*
X716Y926D01*
X747Y926D02*
X766Y926D01*
X797Y926D02*
X816Y926D01*
X847Y926D02*
X866Y926D01*
X897Y926D02*
X916Y926D01*
X947Y926D02*
X966Y926D01*
X997Y926D02*
X1016Y926D01*
X1047Y926D02*
X1066Y926D01*
X1097Y926D02*
X1116Y926D01*
X1147Y926D02*
X1166Y926D01*
X1197Y926D02*
X1216Y926D01*
X1247Y926D02*
X1266Y926D01*
X1297Y926D02*
X1316Y926D01*
X1347Y926D02*
X1366Y926D01*
X1397Y926D02*
X1416Y926D01*
X1447Y926D02*
X1466Y926D01*
X1496Y926D02*
X1515Y926D01*
X1547Y926D02*
X1566Y926D01*
X1596Y926D02*
X1615Y926D01*
X1647Y926D02*
X1666Y926D01*
X1696Y926D02*
X1715Y926D01*
X1747Y926D02*
X1766Y926D01*
X1796Y926D02*
X1815Y926D01*
X547Y925D02*
X566Y925D01*
X597Y925D02*
X616Y925D01*
X647Y925D02*
X666Y925D01*
X697Y925D02*
X716Y925D01*
X747Y925D02*
X766Y925D01*
X797Y925D02*
X816Y925D01*
X847Y925D02*
X866Y925D01*
X897Y925D02*
X916Y925D01*
X947Y925D02*
X966Y925D01*
X997Y925D02*
X1016Y925D01*
X1047Y925D02*
X1066Y925D01*
X1097Y925D02*
X1116Y925D01*
X1147Y925D02*
X1166Y925D01*
X1197Y925D02*
X1216Y925D01*
X1247Y925D02*
X1266Y925D01*
X1297Y925D02*
X1316Y925D01*
X1347Y925D02*
X1366Y925D01*
X1397Y925D02*
X1416Y925D01*
X1447Y925D02*
X1466Y925D01*
X1497Y925D02*
X1516Y925D01*
X1547Y925D02*
X1566Y925D01*
X1597Y925D02*
X1616Y925D01*
X1647Y925D02*
X1666Y925D01*
X1696Y925D02*
X1715Y925D01*
X1747Y925D02*
X1766Y925D01*
X1796Y925D02*
X1815Y925D01*
X547Y924D02*
X566Y924D01*
X597Y924D02*
X616Y924D01*
X647Y924D02*
X666Y924D01*
X697Y924D02*
X716Y924D01*
X747Y924D02*
X766Y924D01*
X797Y924D02*
X816Y924D01*
X847Y924D02*
X866Y924D01*
X897Y924D02*
X916Y924D01*
X947Y924D02*
X966Y924D01*
X997Y924D02*
X1016Y924D01*
X1047Y924D02*
X1066Y924D01*
X1097Y924D02*
X1116Y924D01*
X1147Y924D02*
X1166Y924D01*
X1197Y924D02*
X1216Y924D01*
X1247Y924D02*
X1266Y924D01*
X1297Y924D02*
X1316Y924D01*
X1347Y924D02*
X1366Y924D01*
X1397Y924D02*
X1416Y924D01*
X1447Y924D02*
X1466Y924D01*
X1497Y924D02*
X1516Y924D01*
X1547Y924D02*
X1566Y924D01*
X1597Y924D02*
X1616Y924D01*
X1647Y924D02*
X1666Y924D01*
X1697Y924D02*
X1716Y924D01*
X1747Y924D02*
X1766Y924D01*
X1796Y924D02*
X1815Y924D01*
X547Y923D02*
X566Y923D01*
X597Y923D02*
X616Y923D01*
X647Y923D02*
X666Y923D01*
X697Y923D02*
X716Y923D01*
X747Y923D02*
X766Y923D01*
X797Y923D02*
X816Y923D01*
X847Y923D02*
X866Y923D01*
X897Y923D02*
X916Y923D01*
X947Y923D02*
X966Y923D01*
X997Y923D02*
X1016Y923D01*
X1047Y923D02*
X1066Y923D01*
X1097Y923D02*
X1116Y923D01*
X1147Y923D02*
X1166Y923D01*
X1197Y923D02*
X1216Y923D01*
X1247Y923D02*
X1266Y923D01*
X1297Y923D02*
X1316Y923D01*
X1347Y923D02*
X1366Y923D01*
X1397Y923D02*
X1416Y923D01*
X1447Y923D02*
X1466Y923D01*
X1497Y923D02*
X1516Y923D01*
X1547Y923D02*
X1566Y923D01*
X1597Y923D02*
X1616Y923D01*
X1647Y923D02*
X1666Y923D01*
X1697Y923D02*
X1716Y923D01*
X1747Y923D02*
X1766Y923D01*
X1796Y923D02*
X1815Y923D01*
X547Y922D02*
X566Y922D01*
X597Y922D02*
X616Y922D01*
X647Y922D02*
X666Y922D01*
X697Y922D02*
X716Y922D01*
X747Y922D02*
X766Y922D01*
X797Y922D02*
X816Y922D01*
X847Y922D02*
X866Y922D01*
X897Y922D02*
X916Y922D01*
X947Y922D02*
X966Y922D01*
X997Y922D02*
X1016Y922D01*
X1047Y922D02*
X1066Y922D01*
X1097Y922D02*
X1116Y922D01*
X1147Y922D02*
X1166Y922D01*
X1197Y922D02*
X1216Y922D01*
X1247Y922D02*
X1266Y922D01*
X1297Y922D02*
X1316Y922D01*
X1347Y922D02*
X1366Y922D01*
X1397Y922D02*
X1416Y922D01*
X1447Y922D02*
X1466Y922D01*
X1497Y922D02*
X1516Y922D01*
X1547Y922D02*
X1566Y922D01*
X1597Y922D02*
X1616Y922D01*
X1647Y922D02*
X1666Y922D01*
X1696Y922D02*
X1715Y922D01*
X1747Y922D02*
X1766Y922D01*
X1796Y922D02*
X1815Y922D01*
X547Y921D02*
X566Y921D01*
X597Y921D02*
X616Y921D01*
X647Y921D02*
X666Y921D01*
X697Y921D02*
X716Y921D01*
X747Y921D02*
X766Y921D01*
X797Y921D02*
X816Y921D01*
X847Y921D02*
X866Y921D01*
X897Y921D02*
X916Y921D01*
X947Y921D02*
X966Y921D01*
X997Y921D02*
X1016Y921D01*
X1047Y921D02*
X1066Y921D01*
X1097Y921D02*
X1116Y921D01*
X1147Y921D02*
X1166Y921D01*
X1197Y921D02*
X1216Y921D01*
X1247Y921D02*
X1266Y921D01*
X1297Y921D02*
X1316Y921D01*
X1347Y921D02*
X1366Y921D01*
X1396Y921D02*
X1416Y921D01*
X1447Y921D02*
X1466Y921D01*
X1496Y921D02*
X1515Y921D01*
X1547Y921D02*
X1566Y921D01*
X1596Y921D02*
X1615Y921D01*
X1647Y921D02*
X1666Y921D01*
X1696Y921D02*
X1715Y921D01*
X1747Y921D02*
X1766Y921D01*
X1796Y921D02*
X1815Y921D01*
X547Y920D02*
X566Y920D01*
X597Y920D02*
X616Y920D01*
X647Y920D02*
X666Y920D01*
X697Y920D02*
X716Y920D01*
X747Y920D02*
X766Y920D01*
X797Y920D02*
X816Y920D01*
X847Y920D02*
X866Y920D01*
X897Y920D02*
X916Y920D01*
X947Y920D02*
X966Y920D01*
X997Y920D02*
X1016Y920D01*
X1047Y920D02*
X1066Y920D01*
X1096Y920D02*
X1116Y920D01*
X1147Y920D02*
X1166Y920D01*
X1196Y920D02*
X1215Y920D01*
X1247Y920D02*
X1266Y920D01*
X1296Y920D02*
X1315Y920D01*
X1347Y920D02*
X1366Y920D01*
X1396Y920D02*
X1415Y920D01*
X1447Y920D02*
X1466Y920D01*
X1496Y920D02*
X1515Y920D01*
X1547Y920D02*
X1566Y920D01*
X1596Y920D02*
X1615Y920D01*
X1647Y920D02*
X1666Y920D01*
X1696Y920D02*
X1715Y920D01*
X1747Y920D02*
X1766Y920D01*
X1796Y920D02*
X1815Y920D01*
X547Y919D02*
X566Y919D01*
X596Y919D02*
X616Y919D01*
X647Y919D02*
X666Y919D01*
X696Y919D02*
X716Y919D01*
X747Y919D02*
X766Y919D01*
X796Y919D02*
X815Y919D01*
X847Y919D02*
X866Y919D01*
X896Y919D02*
X915Y919D01*
X947Y919D02*
X966Y919D01*
X996Y919D02*
X1015Y919D01*
X1047Y919D02*
X1066Y919D01*
X1096Y919D02*
X1115Y919D01*
X1147Y919D02*
X1166Y919D01*
X1196Y919D02*
X1215Y919D01*
X1247Y919D02*
X1266Y919D01*
X1296Y919D02*
X1315Y919D01*
X1347Y919D02*
X1366Y919D01*
X1396Y919D02*
X1415Y919D01*
X1447Y919D02*
X1466Y919D01*
X1496Y919D02*
X1515Y919D01*
X1547Y919D02*
X1566Y919D01*
X1596Y919D02*
X1615Y919D01*
X1647Y919D02*
X1666Y919D01*
X1696Y919D02*
X1715Y919D01*
X1747Y919D02*
X1766Y919D01*
X1796Y919D02*
X1815Y919D01*
X547Y918D02*
X567Y918D01*
X596Y918D02*
X615Y918D01*
X647Y918D02*
X667Y918D01*
X696Y918D02*
X715Y918D01*
X747Y918D02*
X767Y918D01*
X796Y918D02*
X815Y918D01*
X847Y918D02*
X867Y918D01*
X896Y918D02*
X915Y918D01*
X947Y918D02*
X967Y918D01*
X996Y918D02*
X1015Y918D01*
X1047Y918D02*
X1066Y918D01*
X1096Y918D02*
X1115Y918D01*
X1147Y918D02*
X1166Y918D01*
X1196Y918D02*
X1215Y918D01*
X1247Y918D02*
X1266Y918D01*
X1296Y918D02*
X1315Y918D01*
X1347Y918D02*
X1366Y918D01*
X1396Y918D02*
X1415Y918D01*
X1447Y918D02*
X1466Y918D01*
X1496Y918D02*
X1515Y918D01*
X1547Y918D02*
X1566Y918D01*
X1596Y918D02*
X1615Y918D01*
X1647Y918D02*
X1666Y918D01*
X1696Y918D02*
X1715Y918D01*
X1747Y918D02*
X1766Y918D01*
X1796Y918D02*
X1815Y918D01*
X548Y917D02*
X567Y917D01*
X596Y917D02*
X615Y917D01*
X648Y917D02*
X667Y917D01*
X696Y917D02*
X715Y917D01*
X748Y917D02*
X767Y917D01*
X796Y917D02*
X815Y917D01*
X848Y917D02*
X867Y917D01*
X896Y917D02*
X915Y917D01*
X948Y917D02*
X967Y917D01*
X996Y917D02*
X1015Y917D01*
X1048Y917D02*
X1067Y917D01*
X1096Y917D02*
X1115Y917D01*
X1147Y917D02*
X1167Y917D01*
X1196Y917D02*
X1215Y917D01*
X1247Y917D02*
X1267Y917D01*
X1296Y917D02*
X1315Y917D01*
X1347Y917D02*
X1367Y917D01*
X1396Y917D02*
X1415Y917D01*
X1447Y917D02*
X1467Y917D01*
X1496Y917D02*
X1515Y917D01*
X1547Y917D02*
X1567Y917D01*
X1596Y917D02*
X1615Y917D01*
X1647Y917D02*
X1667Y917D01*
X1695Y917D02*
X1715Y917D01*
X1747Y917D02*
X1767Y917D01*
X1795Y917D02*
X1815Y917D01*
X548Y916D02*
X567Y916D01*
X595Y916D02*
X615Y916D01*
X648Y916D02*
X667Y916D01*
X695Y916D02*
X715Y916D01*
X748Y916D02*
X767Y916D01*
X795Y916D02*
X815Y916D01*
X848Y916D02*
X867Y916D01*
X895Y916D02*
X915Y916D01*
X948Y916D02*
X967Y916D01*
X995Y916D02*
X1015Y916D01*
X1048Y916D02*
X1067Y916D01*
X1095Y916D02*
X1115Y916D01*
X1148Y916D02*
X1167Y916D01*
X1195Y916D02*
X1215Y916D01*
X1248Y916D02*
X1267Y916D01*
X1295Y916D02*
X1315Y916D01*
X1348Y916D02*
X1367Y916D01*
X1395Y916D02*
X1415Y916D01*
X1448Y916D02*
X1467Y916D01*
X1495Y916D02*
X1515Y916D01*
X1548Y916D02*
X1567Y916D01*
X1595Y916D02*
X1615Y916D01*
X1648Y916D02*
X1667Y916D01*
X1695Y916D02*
X1715Y916D01*
X1747Y916D02*
X1767Y916D01*
X1795Y916D02*
X1814Y916D01*
X548Y915D02*
X568Y915D01*
X595Y915D02*
X615Y915D01*
X648Y915D02*
X668Y915D01*
X695Y915D02*
X715Y915D01*
X748Y915D02*
X768Y915D01*
X795Y915D02*
X815Y915D01*
X848Y915D02*
X868Y915D01*
X895Y915D02*
X915Y915D01*
X948Y915D02*
X968Y915D01*
X995Y915D02*
X1015Y915D01*
X1048Y915D02*
X1068Y915D01*
X1095Y915D02*
X1114Y915D01*
X1148Y915D02*
X1168Y915D01*
X1195Y915D02*
X1214Y915D01*
X1248Y915D02*
X1268Y915D01*
X1295Y915D02*
X1314Y915D01*
X1348Y915D02*
X1368Y915D01*
X1395Y915D02*
X1414Y915D01*
X1448Y915D02*
X1468Y915D01*
X1495Y915D02*
X1514Y915D01*
X1548Y915D02*
X1568Y915D01*
X1595Y915D02*
X1614Y915D01*
X1648Y915D02*
X1667Y915D01*
X1695Y915D02*
X1714Y915D01*
X1748Y915D02*
X1767Y915D01*
X1795Y915D02*
X1814Y915D01*
X549Y914D02*
X569Y914D01*
X594Y914D02*
X614Y914D01*
X648Y914D02*
X668Y914D01*
X694Y914D02*
X714Y914D01*
X748Y914D02*
X768Y914D01*
X794Y914D02*
X814Y914D01*
X848Y914D02*
X868Y914D01*
X894Y914D02*
X914Y914D01*
X948Y914D02*
X968Y914D01*
X994Y914D02*
X1014Y914D01*
X1048Y914D02*
X1068Y914D01*
X1094Y914D02*
X1114Y914D01*
X1148Y914D02*
X1168Y914D01*
X1194Y914D02*
X1214Y914D01*
X1248Y914D02*
X1268Y914D01*
X1294Y914D02*
X1314Y914D01*
X1348Y914D02*
X1368Y914D01*
X1394Y914D02*
X1414Y914D01*
X1448Y914D02*
X1468Y914D01*
X1494Y914D02*
X1514Y914D01*
X1548Y914D02*
X1568Y914D01*
X1594Y914D02*
X1614Y914D01*
X1648Y914D02*
X1668Y914D01*
X1694Y914D02*
X1714Y914D01*
X1748Y914D02*
X1768Y914D01*
X1794Y914D02*
X1814Y914D01*
X549Y913D02*
X569Y913D01*
X594Y913D02*
X614Y913D01*
X649Y913D02*
X669Y913D01*
X694Y913D02*
X714Y913D01*
X749Y913D02*
X769Y913D01*
X794Y913D02*
X814Y913D01*
X849Y913D02*
X869Y913D01*
X893Y913D02*
X914Y913D01*
X949Y913D02*
X969Y913D01*
X993Y913D02*
X1014Y913D01*
X1049Y913D02*
X1069Y913D01*
X1093Y913D02*
X1114Y913D01*
X1149Y913D02*
X1169Y913D01*
X1193Y913D02*
X1214Y913D01*
X1249Y913D02*
X1269Y913D01*
X1293Y913D02*
X1314Y913D01*
X1349Y913D02*
X1369Y913D01*
X1393Y913D02*
X1414Y913D01*
X1449Y913D02*
X1469Y913D01*
X1493Y913D02*
X1514Y913D01*
X1549Y913D02*
X1569Y913D01*
X1593Y913D02*
X1614Y913D01*
X1648Y913D02*
X1669Y913D01*
X1693Y913D02*
X1714Y913D01*
X1748Y913D02*
X1769Y913D01*
X1793Y913D02*
X1814Y913D01*
X549Y912D02*
X570Y912D01*
X593Y912D02*
X614Y912D01*
X649Y912D02*
X670Y912D01*
X693Y912D02*
X714Y912D01*
X749Y912D02*
X770Y912D01*
X793Y912D02*
X814Y912D01*
X849Y912D02*
X870Y912D01*
X892Y912D02*
X914Y912D01*
X949Y912D02*
X970Y912D01*
X992Y912D02*
X1013Y912D01*
X1049Y912D02*
X1070Y912D01*
X1092Y912D02*
X1113Y912D01*
X1149Y912D02*
X1170Y912D01*
X1192Y912D02*
X1213Y912D01*
X1249Y912D02*
X1270Y912D01*
X1292Y912D02*
X1313Y912D01*
X1349Y912D02*
X1370Y912D01*
X1392Y912D02*
X1413Y912D01*
X1449Y912D02*
X1470Y912D01*
X1492Y912D02*
X1513Y912D01*
X1549Y912D02*
X1570Y912D01*
X1592Y912D02*
X1613Y912D01*
X1649Y912D02*
X1670Y912D01*
X1692Y912D02*
X1713Y912D01*
X1749Y912D02*
X1770Y912D01*
X1792Y912D02*
X1813Y912D01*
X550Y911D02*
X572Y911D01*
X591Y911D02*
X613Y911D01*
X650Y911D02*
X672Y911D01*
X691Y911D02*
X713Y911D01*
X750Y911D02*
X771Y911D01*
X791Y911D02*
X813Y911D01*
X850Y911D02*
X871Y911D01*
X891Y911D02*
X913Y911D01*
X950Y911D02*
X971Y911D01*
X991Y911D02*
X1013Y911D01*
X1049Y911D02*
X1071Y911D01*
X1091Y911D02*
X1113Y911D01*
X1149Y911D02*
X1171Y911D01*
X1191Y911D02*
X1213Y911D01*
X1249Y911D02*
X1271Y911D01*
X1291Y911D02*
X1313Y911D01*
X1349Y911D02*
X1371Y911D01*
X1391Y911D02*
X1413Y911D01*
X1449Y911D02*
X1471Y911D01*
X1491Y911D02*
X1513Y911D01*
X1549Y911D02*
X1571Y911D01*
X1591Y911D02*
X1613Y911D01*
X1649Y911D02*
X1671Y911D01*
X1691Y911D02*
X1713Y911D01*
X1749Y911D02*
X1771Y911D01*
X1791Y911D02*
X1813Y911D01*
X550Y910D02*
X573Y910D01*
X590Y910D02*
X613Y910D01*
X650Y910D02*
X673Y910D01*
X689Y910D02*
X713Y910D01*
X750Y910D02*
X773Y910D01*
X789Y910D02*
X813Y910D01*
X850Y910D02*
X873Y910D01*
X889Y910D02*
X913Y910D01*
X950Y910D02*
X973Y910D01*
X989Y910D02*
X1013Y910D01*
X1050Y910D02*
X1073Y910D01*
X1089Y910D02*
X1113Y910D01*
X1150Y910D02*
X1173Y910D01*
X1189Y910D02*
X1213Y910D01*
X1250Y910D02*
X1273Y910D01*
X1289Y910D02*
X1312Y910D01*
X1350Y910D02*
X1373Y910D01*
X1389Y910D02*
X1412Y910D01*
X1450Y910D02*
X1473Y910D01*
X1489Y910D02*
X1512Y910D01*
X1550Y910D02*
X1573Y910D01*
X1589Y910D02*
X1612Y910D01*
X1650Y910D02*
X1673Y910D01*
X1689Y910D02*
X1712Y910D01*
X1750Y910D02*
X1773Y910D01*
X1789Y910D02*
X1812Y910D01*
X551Y909D02*
X576Y909D01*
X586Y909D02*
X612Y909D01*
X651Y909D02*
X676Y909D01*
X686Y909D02*
X712Y909D01*
X751Y909D02*
X776Y909D01*
X786Y909D02*
X812Y909D01*
X851Y909D02*
X876Y909D01*
X886Y909D02*
X912Y909D01*
X950Y909D02*
X976Y909D01*
X986Y909D02*
X1012Y909D01*
X1050Y909D02*
X1076Y909D01*
X1086Y909D02*
X1112Y909D01*
X1150Y909D02*
X1176Y909D01*
X1186Y909D02*
X1212Y909D01*
X1250Y909D02*
X1276Y909D01*
X1286Y909D02*
X1312Y909D01*
X1350Y909D02*
X1376Y909D01*
X1386Y909D02*
X1412Y909D01*
X1450Y909D02*
X1476Y909D01*
X1486Y909D02*
X1512Y909D01*
X1550Y909D02*
X1576Y909D01*
X1586Y909D02*
X1612Y909D01*
X1650Y909D02*
X1676Y909D01*
X1686Y909D02*
X1712Y909D01*
X1750Y909D02*
X1776Y909D01*
X1786Y909D02*
X1812Y909D01*
X551Y908D02*
X612Y908D01*
X651Y908D02*
X712Y908D01*
X751Y908D02*
X812Y908D01*
X851Y908D02*
X912Y908D01*
X951Y908D02*
X1012Y908D01*
X1051Y908D02*
X1112Y908D01*
X1151Y908D02*
X1211Y908D01*
X1251Y908D02*
X1311Y908D01*
X1351Y908D02*
X1411Y908D01*
X1451Y908D02*
X1511Y908D01*
X1551Y908D02*
X1611Y908D01*
X1651Y908D02*
X1711Y908D01*
X1751Y908D02*
X1811Y908D01*
X552Y907D02*
X611Y907D01*
X652Y907D02*
X711Y907D01*
X752Y907D02*
X811Y907D01*
X852Y907D02*
X911Y907D01*
X952Y907D02*
X1011Y907D01*
X1052Y907D02*
X1111Y907D01*
X1152Y907D02*
X1211Y907D01*
X1251Y907D02*
X1311Y907D01*
X1351Y907D02*
X1411Y907D01*
X1451Y907D02*
X1511Y907D01*
X1551Y907D02*
X1611Y907D01*
X1651Y907D02*
X1711Y907D01*
X1751Y907D02*
X1811Y907D01*
X552Y906D02*
X611Y906D01*
X652Y906D02*
X710Y906D01*
X752Y906D02*
X810Y906D01*
X852Y906D02*
X910Y906D01*
X952Y906D02*
X1010Y906D01*
X1052Y906D02*
X1110Y906D01*
X1152Y906D02*
X1210Y906D01*
X1252Y906D02*
X1310Y906D01*
X1352Y906D02*
X1410Y906D01*
X1452Y906D02*
X1510Y906D01*
X1552Y906D02*
X1610Y906D01*
X1652Y906D02*
X1710Y906D01*
X1752Y906D02*
X1810Y906D01*
X553Y905D02*
X610Y905D01*
X653Y905D02*
X710Y905D01*
X753Y905D02*
X810Y905D01*
X853Y905D02*
X910Y905D01*
X953Y905D02*
X1010Y905D01*
X1053Y905D02*
X1110Y905D01*
X1153Y905D02*
X1210Y905D01*
X1253Y905D02*
X1310Y905D01*
X1353Y905D02*
X1410Y905D01*
X1453Y905D02*
X1510Y905D01*
X1553Y905D02*
X1610Y905D01*
X1653Y905D02*
X1709Y905D01*
X1753Y905D02*
X1809Y905D01*
X554Y904D02*
X609Y904D01*
X654Y904D02*
X709Y904D01*
X754Y904D02*
X809Y904D01*
X854Y904D02*
X909Y904D01*
X954Y904D02*
X1009Y904D01*
X1054Y904D02*
X1109Y904D01*
X1153Y904D02*
X1209Y904D01*
X1253Y904D02*
X1309Y904D01*
X1353Y904D02*
X1409Y904D01*
X1453Y904D02*
X1509Y904D01*
X1553Y904D02*
X1609Y904D01*
X1653Y904D02*
X1709Y904D01*
X1753Y904D02*
X1809Y904D01*
X554Y903D02*
X608Y903D01*
X654Y903D02*
X708Y903D01*
X754Y903D02*
X808Y903D01*
X854Y903D02*
X908Y903D01*
X954Y903D02*
X1008Y903D01*
X1054Y903D02*
X1108Y903D01*
X1154Y903D02*
X1208Y903D01*
X1254Y903D02*
X1308Y903D01*
X1354Y903D02*
X1408Y903D01*
X1454Y903D02*
X1508Y903D01*
X1554Y903D02*
X1608Y903D01*
X1654Y903D02*
X1708Y903D01*
X1754Y903D02*
X1808Y903D01*
X555Y902D02*
X608Y902D01*
X655Y902D02*
X708Y902D01*
X755Y902D02*
X808Y902D01*
X855Y902D02*
X907Y902D01*
X955Y902D02*
X1007Y902D01*
X1055Y902D02*
X1107Y902D01*
X1155Y902D02*
X1207Y902D01*
X1255Y902D02*
X1307Y902D01*
X1355Y902D02*
X1407Y902D01*
X1455Y902D02*
X1507Y902D01*
X1555Y902D02*
X1607Y902D01*
X1655Y902D02*
X1707Y902D01*
X1755Y902D02*
X1807Y902D01*
X556Y901D02*
X607Y901D01*
X656Y901D02*
X707Y901D01*
X756Y901D02*
X807Y901D01*
X856Y901D02*
X907Y901D01*
X956Y901D02*
X1007Y901D01*
X1056Y901D02*
X1107Y901D01*
X1156Y901D02*
X1207Y901D01*
X1256Y901D02*
X1306Y901D01*
X1356Y901D02*
X1406Y901D01*
X1456Y901D02*
X1506Y901D01*
X1556Y901D02*
X1606Y901D01*
X1656Y901D02*
X1706Y901D01*
X1756Y901D02*
X1806Y901D01*
X557Y900D02*
X606Y900D01*
X657Y900D02*
X706Y900D01*
X757Y900D02*
X806Y900D01*
X857Y900D02*
X906Y900D01*
X957Y900D02*
X1006Y900D01*
X1057Y900D02*
X1106Y900D01*
X1157Y900D02*
X1206Y900D01*
X1257Y900D02*
X1306Y900D01*
X1357Y900D02*
X1406Y900D01*
X1457Y900D02*
X1505Y900D01*
X1557Y900D02*
X1605Y900D01*
X1657Y900D02*
X1705Y900D01*
X1757Y900D02*
X1805Y900D01*
X558Y899D02*
X605Y899D01*
X658Y899D02*
X705Y899D01*
X758Y899D02*
X805Y899D01*
X858Y899D02*
X905Y899D01*
X958Y899D02*
X1005Y899D01*
X1058Y899D02*
X1105Y899D01*
X1158Y899D02*
X1205Y899D01*
X1258Y899D02*
X1305Y899D01*
X1358Y899D02*
X1405Y899D01*
X1458Y899D02*
X1505Y899D01*
X1558Y899D02*
X1604Y899D01*
X1658Y899D02*
X1704Y899D01*
X1758Y899D02*
X1804Y899D01*
X559Y898D02*
X604Y898D01*
X659Y898D02*
X704Y898D01*
X759Y898D02*
X804Y898D01*
X859Y898D02*
X904Y898D01*
X959Y898D02*
X1004Y898D01*
X1059Y898D02*
X1104Y898D01*
X1159Y898D02*
X1204Y898D01*
X1259Y898D02*
X1304Y898D01*
X1359Y898D02*
X1403Y898D01*
X1459Y898D02*
X1503Y898D01*
X1559Y898D02*
X1603Y898D01*
X1659Y898D02*
X1703Y898D01*
X1759Y898D02*
X1803Y898D01*
X560Y897D02*
X603Y897D01*
X660Y897D02*
X703Y897D01*
X760Y897D02*
X803Y897D01*
X860Y897D02*
X903Y897D01*
X960Y897D02*
X1002Y897D01*
X1060Y897D02*
X1102Y897D01*
X1160Y897D02*
X1202Y897D01*
X1260Y897D02*
X1302Y897D01*
X1360Y897D02*
X1402Y897D01*
X1460Y897D02*
X1502Y897D01*
X1560Y897D02*
X1602Y897D01*
X1660Y897D02*
X1702Y897D01*
X1760Y897D02*
X1802Y897D01*
X561Y896D02*
X601Y896D01*
X661Y896D02*
X701Y896D01*
X761Y896D02*
X801Y896D01*
X861Y896D02*
X901Y896D01*
X961Y896D02*
X1001Y896D01*
X1061Y896D02*
X1101Y896D01*
X1161Y896D02*
X1201Y896D01*
X1261Y896D02*
X1301Y896D01*
X1361Y896D02*
X1401Y896D01*
X1461Y896D02*
X1501Y896D01*
X1561Y896D02*
X1601Y896D01*
X1661Y896D02*
X1701Y896D01*
X1761Y896D02*
X1801Y896D01*
X563Y895D02*
X600Y895D01*
X663Y895D02*
X700Y895D01*
X763Y895D02*
X800Y895D01*
X863Y895D02*
X900Y895D01*
X963Y895D02*
X1000Y895D01*
X1063Y895D02*
X1100Y895D01*
X1163Y895D02*
X1200Y895D01*
X1263Y895D02*
X1300Y895D01*
X1363Y895D02*
X1400Y895D01*
X1462Y895D02*
X1500Y895D01*
X1562Y895D02*
X1600Y895D01*
X1662Y895D02*
X1700Y895D01*
X1762Y895D02*
X1800Y895D01*
X564Y894D02*
X599Y894D01*
X664Y894D02*
X699Y894D01*
X764Y894D02*
X798Y894D01*
X864Y894D02*
X898Y894D01*
X964Y894D02*
X998Y894D01*
X1064Y894D02*
X1098Y894D01*
X1164Y894D02*
X1198Y894D01*
X1264Y894D02*
X1298Y894D01*
X1364Y894D02*
X1398Y894D01*
X1464Y894D02*
X1498Y894D01*
X1564Y894D02*
X1598Y894D01*
X1664Y894D02*
X1698Y894D01*
X1764Y894D02*
X1798Y894D01*
X566Y893D02*
X597Y893D01*
X666Y893D02*
X697Y893D01*
X766Y893D02*
X797Y893D01*
X866Y893D02*
X897Y893D01*
X966Y893D02*
X997Y893D01*
X1066Y893D02*
X1097Y893D01*
X1166Y893D02*
X1197Y893D01*
X1266Y893D02*
X1297Y893D01*
X1366Y893D02*
X1397Y893D01*
X1466Y893D02*
X1497Y893D01*
X1566Y893D02*
X1597Y893D01*
X1666Y893D02*
X1697Y893D01*
X1766Y893D02*
X1796Y893D01*
X568Y892D02*
X595Y892D01*
X668Y892D02*
X695Y892D01*
X768Y892D02*
X795Y892D01*
X868Y892D02*
X895Y892D01*
X968Y892D02*
X995Y892D01*
X1068Y892D02*
X1095Y892D01*
X1168Y892D02*
X1195Y892D01*
X1268Y892D02*
X1295Y892D01*
X1368Y892D02*
X1395Y892D01*
X1468Y892D02*
X1495Y892D01*
X1567Y892D02*
X1595Y892D01*
X1667Y892D02*
X1695Y892D01*
X1767Y892D02*
X1795Y892D01*
X570Y891D02*
X593Y891D01*
X670Y891D02*
X693Y891D01*
X770Y891D02*
X793Y891D01*
X870Y891D02*
X893Y891D01*
X970Y891D02*
X993Y891D01*
X1070Y891D02*
X1093Y891D01*
X1170Y891D02*
X1193Y891D01*
X1270Y891D02*
X1293Y891D01*
X1370Y891D02*
X1393Y891D01*
X1470Y891D02*
X1492Y891D01*
X1570Y891D02*
X1592Y891D01*
X1670Y891D02*
X1692Y891D01*
X1770Y891D02*
X1792Y891D01*
X573Y890D02*
X590Y890D01*
X673Y890D02*
X690Y890D01*
X773Y890D02*
X790Y890D01*
X873Y890D02*
X890Y890D01*
X973Y890D02*
X990Y890D01*
X1073Y890D02*
X1090Y890D01*
X1173Y890D02*
X1190Y890D01*
X1273Y890D02*
X1290Y890D01*
X1372Y890D02*
X1390Y890D01*
X1472Y890D02*
X1490Y890D01*
X1572Y890D02*
X1590Y890D01*
X1672Y890D02*
X1690Y890D01*
X1772Y890D02*
X1790Y890D01*
X577Y889D02*
X586Y889D01*
X677Y889D02*
X686Y889D01*
X777Y889D02*
X786Y889D01*
X877Y889D02*
X886Y889D01*
X977Y889D02*
X986Y889D01*
X1077Y889D02*
X1086Y889D01*
X1177Y889D02*
X1186Y889D01*
X1277Y889D02*
X1286Y889D01*
X1377Y889D02*
X1386Y889D01*
X1477Y889D02*
X1486Y889D01*
X1577Y889D02*
X1586Y889D01*
X1676Y889D02*
X1686Y889D01*
X1776Y889D02*
X1786Y889D01*
X0Y86D02*
X43Y86D01*
X0Y85D02*
X43Y85D01*
X0Y84D02*
X43Y84D01*
X0Y83D02*
X43Y83D01*
X0Y82D02*
X43Y82D01*
X0Y81D02*
X43Y81D01*
X0Y80D02*
X43Y80D01*
X0Y79D02*
X43Y79D01*
X0Y78D02*
X43Y78D01*
X0Y77D02*
X43Y77D01*
X0Y76D02*
X43Y76D01*
X0Y75D02*
X43Y75D01*
X0Y74D02*
X43Y74D01*
X0Y73D02*
X43Y73D01*
X0Y72D02*
X43Y72D01*
X0Y71D02*
X43Y71D01*
X0Y70D02*
X43Y70D01*
X0Y69D02*
X43Y69D01*
X0Y68D02*
X43Y68D01*
X0Y67D02*
X43Y67D01*
X0Y66D02*
X43Y66D01*
X0Y65D02*
X43Y65D01*
X0Y64D02*
X43Y64D01*
X0Y63D02*
X43Y63D01*
X0Y62D02*
X43Y62D01*
X0Y61D02*
X43Y61D01*
X0Y60D02*
X43Y60D01*
X0Y59D02*
X43Y59D01*
X0Y58D02*
X43Y58D01*
X0Y57D02*
X43Y57D01*
X0Y56D02*
X43Y56D01*
X0Y55D02*
X43Y55D01*
X0Y54D02*
X43Y54D01*
X0Y53D02*
X43Y53D01*
X0Y52D02*
X43Y52D01*
X0Y51D02*
X43Y51D01*
X0Y50D02*
X43Y50D01*
D02*
G04 End of Copper1*
M02*