M48
INCH
T10C0.035000
T11C0.041000
T12C0.046111
T13C0.030000
T14C0.015748
%
T10
X017361Y000636
X014802Y000636
X017361Y002408
X014802Y002408
X012637Y000636
X010078Y000636
X012637Y002408
X010078Y002408
X018739Y000912
X019739Y000912
X020739Y000912
X007912Y000636
X005353Y000636
X007912Y002408
X005353Y002408
X003188Y000636
X000629Y000636
X003188Y002408
X000629Y002408
X015542Y016502
X014542Y016502
X013542Y016502
X012542Y016502
X011542Y016502
X010542Y016502
X009542Y016502
X008542Y016502
X007542Y016502
X006542Y016502
X005542Y016502
X004542Y016502
X003542Y016502
X002542Y016502
X001542Y016502
X000542Y016502
T11
X002936Y012293
X003936Y014293
X001936Y014293
T12
X001797Y010601
X001797Y009601
X001797Y008601
X001797Y007601
T13
X006821Y009223
X005821Y009223
X006821Y010223
X005821Y010223
X015821Y010223
X017821Y010223
X016821Y010223
X011821Y010223
X010821Y010223
X014821Y010223
X013821Y010223
X012821Y010223
X009821Y010223
X008821Y010223
X007821Y010223
X015821Y009223
X017821Y009223
X016821Y009223
X011821Y009223
X010821Y009223
X014821Y009223
X013821Y009223
X012821Y009223
X009821Y009223
X008821Y009223
X007821Y009223
T14
X002772Y011100
X010441Y012669
X019330Y014730
X013779Y011345
X012834Y011305
X005314Y011896
X018306Y007526
X005786Y005321
X002440Y005321
T00
M30
