<?xml version='1.0' encoding='UTF-8' standalone='no'?>
<!-- Created with Fritzing (http://www.fritzing.org/) -->
<svg xmlns="http://www.w3.org/2000/svg" width="2.35263in" x="0in" version="1.2" y="0in"  height="1.95287in" viewBox="0 0 169.389 140.606" baseProfile="tiny" xmlns:svg="http://www.w3.org/2000/svg">
 <g transform="matrix(-1, 0, 0, 1, 169.389, 0)">
  <g partID="12040">
   <g id="board">
    <rect width="168.813" x="0.576" y="0.576" fill="none" height="140.03" stroke="black" fill-opacity="0.5" id="boardoutline" stroke-width="0.5"/>
   </g>
  </g>
  <g partID="7487940">
   <g transform="translate(161.027,-0.224572)">
    <g  id="copper0">
     <circle fill="black" cx="4.71811"  cy="4.71811" stroke="black" r="3.11811" id="nonconn0" stroke-width="0"/>
    </g>
   </g>
  </g>
  <g partID="7383500">
   <g transform="translate(-12.0463,8.06521)">
    <g  id="copper0">
     <rect width="3.96" x="20.664" y="5.184" fill="none"  height="3.96" stroke="black" stroke-width="1.44"/>
     <circle fill="none" cx="22.68"  cy="7.2" stroke="black" id="connector0pin" r="1.98" stroke-width="1.44"/>
     <circle fill="none" cx="29.88"  cy="7.2" stroke="black" id="connector1pin" r="1.98" stroke-width="1.44"/>
     <circle fill="none" cx="37.08"  cy="7.2" stroke="black" id="connector2pin" r="1.98" stroke-width="1.44"/>
     <circle fill="none" cx="44.28"  cy="7.2" stroke="black" id="connector3pin" r="1.98" stroke-width="1.44"/>
     <circle fill="none" cx="51.48"  cy="7.2" stroke="black" id="connector4pin" r="1.98" stroke-width="1.44"/>
     <circle fill="none" cx="58.68"  cy="7.2" stroke="black" id="connector5pin" r="1.98" stroke-width="1.44"/>
     <circle fill="none" cx="65.88"  cy="7.2" stroke="black" id="connector6pin" r="1.98" stroke-width="1.44"/>
     <circle fill="none" cx="73.08"  cy="7.2" stroke="black" id="connector7pin" r="1.98" stroke-width="1.44"/>
     <circle fill="none" cx="80.28"  cy="7.2" stroke="black" id="connector8pin" r="1.98" stroke-width="1.44"/>
     <circle fill="none" cx="87.48"  cy="7.2" stroke="black" id="connector9pin" r="1.98" stroke-width="1.44"/>
     <circle fill="none" cx="94.68"  cy="7.2" stroke="black" id="connector10pin" r="1.98" stroke-width="1.44"/>
     <circle fill="none" cx="101.88"  cy="7.2" stroke="black" id="connector11pin" r="1.98" stroke-width="1.44"/>
     <circle fill="none" cx="109.08"  cy="7.2" stroke="black" id="connector12pin" r="1.98" stroke-width="1.44"/>
     <circle fill="none" cx="116.28"  cy="7.2" stroke="black" id="connector13pin" r="1.98" stroke-width="1.44"/>
     <circle fill="none" cx="123.48"  cy="7.2" stroke="black" id="connector14pin" r="1.98" stroke-width="1.44"/>
     <circle fill="none" cx="130.68"  cy="7.2" stroke="black" id="connector15pin" r="1.98" stroke-width="1.44"/>
    </g>
   </g>
  </g>
  <g partID="6832280">
   <g transform="translate(38.5936,27.6417)">
    <g transform="matrix(0,1,-1,0,0,0)">
     <g  id="copper0">
      <circle fill="none" cx="3.528"  cy="17.928" stroke="black" id="connector2pad" r="2.52" stroke-width="2.088"/>
      <rect width="5.04" x="1.008" y="1.008" fill="none"  height="5.04" stroke="black" stroke-width="2.088"/>
      <circle fill="none" cx="3.528"  cy="3.528" stroke="black" id="connector0pad" r="2.52" stroke-width="2.088"/>
      <circle fill="none" cx="17.928"  cy="10.728" stroke="black" id="connector1pad" r="2.52" stroke-width="2.088"/>
     </g>
    </g>
   </g>
  </g>
  <g partID="6445070">
   <g transform="translate(32.1036,132.348)">
    <g transform="matrix(-1,0,0,-1,0,0)">
     <g  id="copper0">
      <circle fill="none" cx="20.8462"  cy="15.6024" stroke="black" id="connector0pad" r="1.98" stroke-width="1.44"/>
      <circle fill="none" cx="2.42064"  cy="15.6024" stroke="black" id="connector1pad" r="1.98" stroke-width="1.44"/>
      <circle fill="none" cx="20.8462"  cy="2.84616" stroke="black" id="connector2pad" r="1.98" stroke-width="1.44"/>
      <circle fill="none" cx="2.42064"  cy="2.84616" stroke="black" id="connector3pad" r="1.98" stroke-width="1.44"/>
     </g>
    </g>
   </g>
  </g>
  <g partID="6437830">
   <g transform="translate(66.1196,132.348)">
    <g transform="matrix(-1,0,0,-1,0,0)">
     <g  id="copper0">
      <circle fill="none" cx="20.8462"  cy="15.6024" stroke="black" id="connector0pad" r="1.98" stroke-width="1.44"/>
      <circle fill="none" cx="2.42064"  cy="15.6024" stroke="black" id="connector1pad" r="1.98" stroke-width="1.44"/>
      <circle fill="none" cx="20.8462"  cy="2.84616" stroke="black" id="connector2pad" r="1.98" stroke-width="1.44"/>
      <circle fill="none" cx="2.42064"  cy="2.84616" stroke="black" id="connector3pad" r="1.98" stroke-width="1.44"/>
     </g>
    </g>
   </g>
  </g>
  <g partID="6784700">
   <g transform="translate(34.0509,107.156)">
    <g transform="matrix(0,-1,1,0,0,0)">
     <g  flipped="1" id="copper0" transform="matrix(1, 0, 0, -1, 0, 6.51969)">
      <g >
       <rect width="4.53543" x="0.566929" y="0.566929" fill="black"  height="5.38583" stroke="none" fill-opacity="1" id="connector0pad"/>
       <rect width="4.53543" x="9.35433" y="0.566929" fill="black"  height="5.38583" stroke="none" fill-opacity="1" id="connector1pad"/>
      </g>
     </g>
    </g>
   </g>
  </g>
  <g partID="7007910">
   <g transform="translate(113.421,107.44)">
    <g transform="matrix(0,-1,1,0,0,0)">
     <g  flipped="1" id="copper0" transform="matrix(1, 0, 0, -1, 0, 6.51969)">
      <g >
       <rect width="4.53543" x="0.566929" y="0.566929" fill="black"  height="5.38583" stroke="none" fill-opacity="1" id="connector0pad"/>
       <rect width="4.53543" x="9.35433" y="0.566929" fill="black"  height="5.38583" stroke="none" fill-opacity="1" id="connector1pad"/>
      </g>
     </g>
    </g>
   </g>
  </g>
  <g partID="7007810">
   <g transform="translate(146.895,107.391)">
    <g transform="matrix(0,-1,1,0,0,0)">
     <g  flipped="1" id="copper0" transform="matrix(1, 0, 0, -1, 0, 6.51969)">
      <g >
       <rect width="4.53543" x="0.566929" y="0.566929" fill="black"  height="5.38583" stroke="none" fill-opacity="1" id="connector0pad"/>
       <rect width="4.53543" x="9.35433" y="0.566929" fill="black"  height="5.38583" stroke="none" fill-opacity="1" id="connector1pad"/>
      </g>
     </g>
    </g>
   </g>
  </g>
  <g partID="7007630">
   <g transform="translate(100.099,92.9836)">
    <g transform="matrix(0,1,-1,0,0,0)">
     <g  flipped="1" id="copper0" transform="matrix(1, 0, 0, -1, 0, 6.51969)">
      <g >
       <rect width="4.53543" x="0.566929" y="0.566929" fill="black"  height="5.38583" stroke="none" fill-opacity="1" id="connector0pad"/>
       <rect width="4.53543" x="9.35433" y="0.566929" fill="black"  height="5.38583" stroke="none" fill-opacity="1" id="connector1pad"/>
      </g>
     </g>
    </g>
   </g>
  </g>
  <g partID="6784820">
   <g transform="translate(20.7281,92.9836)">
    <g transform="matrix(0,1,-1,0,0,0)">
     <g  flipped="1" id="copper0" transform="matrix(1, 0, 0, -1, 0, 6.51969)">
      <g >
       <rect width="4.53543" x="0.566929" y="0.566929" fill="black"  height="5.38583" stroke="none" fill-opacity="1" id="connector0pad"/>
       <rect width="4.53543" x="9.35433" y="0.566929" fill="black"  height="5.38583" stroke="none" fill-opacity="1" id="connector1pad"/>
      </g>
     </g>
    </g>
   </g>
  </g>
  <g partID="7003330">
   <g transform="translate(139.783,92.9836)">
    <g transform="matrix(0,1,-1,0,0,0)">
     <g  flipped="1" id="copper0" transform="matrix(1, 0, 0, -1, 0, 6.51969)">
      <g >
       <rect width="4.53543" x="0.566929" y="0.566929" fill="black"  height="5.38583" stroke="none" fill-opacity="1" id="connector0pad"/>
       <rect width="4.53543" x="9.35433" y="0.566929" fill="black"  height="5.38583" stroke="none" fill-opacity="1" id="connector1pad"/>
      </g>
     </g>
    </g>
   </g>
  </g>
  <g partID="6784920">
   <g transform="translate(53.8941,107.156)">
    <g transform="matrix(0,-1,1,0,0,0)">
     <g  flipped="1" id="copper0" transform="matrix(1, 0, 0, -1, 0, 6.51969)">
      <g >
       <rect width="4.53543" x="0.566929" y="0.566929" fill="black"  height="5.38583" stroke="none" fill-opacity="1" id="connector0pad"/>
       <rect width="4.53543" x="9.35433" y="0.566929" fill="black"  height="5.38583" stroke="none" fill-opacity="1" id="connector1pad"/>
      </g>
     </g>
    </g>
   </g>
  </g>
  <g partID="6785020">
   <g transform="translate(73.7365,107.156)">
    <g transform="matrix(0,-1,1,0,0,0)">
     <g  flipped="1" id="copper0" transform="matrix(1, 0, 0, -1, 0, 6.51969)">
      <g >
       <rect width="4.53543" x="0.566929" y="0.566929" fill="black"  height="5.38583" stroke="none" fill-opacity="1" id="connector0pad"/>
       <rect width="4.53543" x="9.35433" y="0.566929" fill="black"  height="5.38583" stroke="none" fill-opacity="1" id="connector1pad"/>
      </g>
     </g>
    </g>
   </g>
  </g>
  <g partID="6999740">
   <g transform="translate(159.651,135.725)">
    <g transform="matrix(-1,0,0,-1,0,0)">
     <g  id="copper0">
      <rect width="3.96" x="16.02" y="6.228" fill="none"  height="3.96" stroke="black" id="rect10" stroke-width="1.44"/>
      <circle fill="none" cx="3.6"  cy="8.208" stroke="black" id="connector0pin" r="1.98" stroke-width="1.44"/>
      <circle fill="none" cx="10.8"  cy="8.208" stroke="black" id="connector1pin" r="1.98" stroke-width="1.44"/>
      <circle fill="none" cx="18"  cy="8.208" stroke="black" id="connector2pin" r="1.98" stroke-width="1.44"/>
     </g>
    </g>
   </g>
  </g>
  <g partID="7002930">
   <g transform="translate(100.135,132.348)">
    <g transform="matrix(-1,0,0,-1,0,0)">
     <g  id="copper0">
      <circle fill="none" cx="20.8462"  cy="15.6024" stroke="black" id="connector0pad" r="1.98" stroke-width="1.44"/>
      <circle fill="none" cx="2.42064"  cy="15.6024" stroke="black" id="connector1pad" r="1.98" stroke-width="1.44"/>
      <circle fill="none" cx="20.8462"  cy="2.84616" stroke="black" id="connector2pad" r="1.98" stroke-width="1.44"/>
      <circle fill="none" cx="2.42064"  cy="2.84616" stroke="black" id="connector3pad" r="1.98" stroke-width="1.44"/>
     </g>
    </g>
   </g>
  </g>
  <g partID="7003300">
   <g transform="translate(134.151,132.348)">
    <g transform="matrix(-1,0,0,-1,0,0)">
     <g  id="copper0">
      <circle fill="none" cx="20.8462"  cy="15.6024" stroke="black" id="connector0pad" r="1.98" stroke-width="1.44"/>
      <circle fill="none" cx="2.42064"  cy="15.6024" stroke="black" id="connector1pad" r="1.98" stroke-width="1.44"/>
      <circle fill="none" cx="20.8462"  cy="2.84616" stroke="black" id="connector2pad" r="1.98" stroke-width="1.44"/>
      <circle fill="none" cx="2.42064"  cy="2.84616" stroke="black" id="connector3pad" r="1.98" stroke-width="1.44"/>
     </g>
    </g>
   </g>
  </g>
  <g partID="7148160">
   <g transform="translate(6.64155,47.0177)">
    <g transform="matrix(1,0,0,1,0,0)">
     <g  id="copper0">
      <g  id="copper1">
       <circle fill="none" cx="13.029"  cy="32.333" stroke="black" id="connector11pad" r="2.16" stroke-width="0.999999"/>
       <circle fill="none" cx="13.029"  cy="25.134" stroke="black" id="connector10pad" r="2.16" stroke-width="0.999999"/>
       <circle fill="none" cx="13.029"  cy="17.934" stroke="black" id="connector9pad" r="2.16" stroke-width="0.999999"/>
       <circle fill="none" cx="13.029"  cy="10.734" stroke="black" id="connector8pad" r="2.16" stroke-width="0.999999"/>
      </g>
     </g>
    </g>
   </g>
  </g>
  <g partID="7303290">
   <g transform="translate(153.041,80.2729)">
    <g transform="matrix(-1,0,0,-1,0,0)">
     <g id="copper0" transform="matrix(1, 0, 0, 1, 0, -809.49)">
      <g stroke-opacity="1" fill="none" stroke="black" style="display:inline" transform="matrix(1, 0, 0, 1, -3.6, 796.89)">
       <g transform="matrix(1, 0, 0, 1, -14.4, 0)">
        <path stroke-opacity="1" fill="none" stroke="black" style="stroke-linecap:round;stroke-linejoin:miter;stroke-miterlimit:4;stroke-dasharray:none;display:inline" id="connector5pad" stroke-width="1.44" d="m109.8,25.2a1.8,1.8,0,1,1,-3.6,0,1.8,1.8,0,1,1,3.6,0z"/>
       </g>
       <g transform="matrix(1, 0, 0, 1, -21.6, 0)">
        <path stroke-opacity="1" fill="none" stroke="black" style="stroke-linecap:round;stroke-linejoin:miter;stroke-miterlimit:4;stroke-dasharray:none;display:inline" id="connector7pad" stroke-width="1.44" d="m109.8,25.2a1.8,1.8,0,1,1,-3.6,0,1.8,1.8,0,1,1,3.6,0z"/>
       </g>
       <g transform="matrix(1, 0, 0, 1, -28.8, 0)">
        <path stroke-opacity="1" fill="none" stroke="black" style="stroke-linecap:round;stroke-linejoin:miter;stroke-miterlimit:4;stroke-dasharray:none;display:inline" id="connector9pad" stroke-width="1.44" d="m109.8,25.2a1.8,1.8,0,1,1,-3.6,0,1.8,1.8,0,1,1,3.6,0z"/>
       </g>
       <g transform="matrix(1, 0, 0, 1, -50.4, 0)">
        <path stroke-opacity="1" fill="none" stroke="black" style="stroke-linecap:round;stroke-linejoin:miter;stroke-miterlimit:4;stroke-dasharray:none;display:inline" id="connector15pad" stroke-width="1.44" d="m109.8,25.2a1.8,1.8,0,1,1,-3.6,0,1.8,1.8,0,1,1,3.6,0z"/>
       </g>
       <g transform="matrix(1, 0, 0, 1, -57.6, 0)">
        <path stroke-opacity="1" fill="none" stroke="black" style="stroke-linecap:round;stroke-linejoin:miter;stroke-miterlimit:4;stroke-dasharray:none;display:inline" id="connector17pad" stroke-width="1.44" d="m109.8,25.2a1.8,1.8,0,1,1,-3.6,0,1.8,1.8,0,1,1,3.6,0z"/>
       </g>
       <g transform="matrix(1, 0, 0, 1, -64.8, 0)">
        <path stroke-opacity="1" fill="none" stroke="black" style="stroke-linecap:round;stroke-linejoin:miter;stroke-miterlimit:4;stroke-dasharray:none;display:inline" id="connector19pad" stroke-width="1.44" d="m109.8,25.2a1.8,1.8,0,1,1,-3.6,0,1.8,1.8,0,1,1,3.6,0z"/>
       </g>
       <g transform="matrix(1, 0, 0, 1, -36, 0)">
        <path stroke-opacity="1" fill="none" stroke="black" style="stroke-linecap:round;stroke-linejoin:miter;stroke-miterlimit:4;stroke-dasharray:none;display:inline" id="connector11pad" stroke-width="1.44" d="m109.8,25.2a1.8,1.8,0,1,1,-3.6,0,1.8,1.8,0,1,1,3.6,0z"/>
       </g>
       <g transform="matrix(1, 0, 0, 1, -43.2, 0)">
        <path stroke-opacity="1" fill="none" stroke="black" style="stroke-linecap:round;stroke-linejoin:miter;stroke-miterlimit:4;stroke-dasharray:none;display:inline" id="connector13pad" stroke-width="1.44" d="m109.8,25.2a1.8,1.8,0,1,1,-3.6,0,1.8,1.8,0,1,1,3.6,0z"/>
       </g>
       <g transform="matrix(1, 0, 0, 1, -79.2, 0)">
        <path stroke-opacity="1" fill="none" stroke="black" style="stroke-linecap:round;stroke-linejoin:miter;stroke-miterlimit:4;stroke-dasharray:none;display:inline" id="connector23pad" stroke-width="1.44" d="m109.8,25.2a1.8,1.8,0,1,1,-3.6,0,1.8,1.8,0,1,1,3.6,0z"/>
       </g>
       <g transform="matrix(1, 0, 0, 1, -86.4, 0)">
        <path stroke-opacity="1" fill="none" stroke="black" style="stroke-linecap:round;stroke-linejoin:miter;stroke-miterlimit:4;stroke-dasharray:none;display:inline" id="connector25pad" stroke-width="1.44" d="m109.8,25.2a1.8,1.8,0,1,1,-3.6,0,1.8,1.8,0,1,1,3.6,0z"/>
       </g>
       <g transform="matrix(1, 0, 0, 1, -72, 0)">
        <path stroke-opacity="1" fill="none" stroke="black" style="stroke-linecap:round;stroke-linejoin:miter;stroke-miterlimit:4;stroke-dasharray:none;display:inline" id="connector21pad" stroke-width="1.44" d="m109.8,25.2a1.8,1.8,0,1,1,-3.6,0,1.8,1.8,0,1,1,3.6,0z"/>
       </g>
       <g transform="matrix(1, 0, 0, 1, -14.4, 7.2)">
        <path stroke-opacity="1" fill="none" stroke="black" style="stroke-linecap:round;stroke-linejoin:miter;stroke-miterlimit:4;stroke-dasharray:none;display:inline" id="connector6pad" stroke-width="1.44" d="m109.8,25.2a1.8,1.8,0,1,1,-3.6,0,1.8,1.8,0,1,1,3.6,0z"/>
       </g>
       <g transform="matrix(1, 0, 0, 1, -21.6, 7.2)">
        <path stroke-opacity="1" fill="none" stroke="black" style="stroke-linecap:round;stroke-linejoin:miter;stroke-miterlimit:4;stroke-dasharray:none;display:inline" id="connector8pad" stroke-width="1.44" d="m109.8,25.2a1.8,1.8,0,1,1,-3.6,0,1.8,1.8,0,1,1,3.6,0z"/>
       </g>
       <g transform="matrix(1, 0, 0, 1, -28.8, 7.2)">
        <path stroke-opacity="1" fill="none" stroke="black" style="stroke-linecap:round;stroke-linejoin:miter;stroke-miterlimit:4;stroke-dasharray:none;display:inline" id="connector10pad" stroke-width="1.44" d="m109.8,25.2a1.8,1.8,0,1,1,-3.6,0,1.8,1.8,0,1,1,3.6,0z"/>
       </g>
       <g transform="matrix(1, 0, 0, 1, -50.4, 7.2)">
        <path stroke-opacity="1" fill="none" stroke="black" style="stroke-linecap:round;stroke-linejoin:miter;stroke-miterlimit:4;stroke-dasharray:none;display:inline" id="connector16pad" stroke-width="1.44" d="m109.8,25.2a1.8,1.8,0,1,1,-3.6,0,1.8,1.8,0,1,1,3.6,0z"/>
       </g>
       <g transform="matrix(1, 0, 0, 1, -57.6, 7.2)">
        <path stroke-opacity="1" fill="none" stroke="black" style="stroke-linecap:round;stroke-linejoin:miter;stroke-miterlimit:4;stroke-dasharray:none;display:inline" id="connector18pad" stroke-width="1.44" d="m109.8,25.2a1.8,1.8,0,1,1,-3.6,0,1.8,1.8,0,1,1,3.6,0z"/>
       </g>
       <g transform="matrix(1, 0, 0, 1, -64.8, 7.2)">
        <path stroke-opacity="1" fill="none" stroke="black" style="stroke-linecap:round;stroke-linejoin:miter;stroke-miterlimit:4;stroke-dasharray:none;display:inline" id="connector20pad" stroke-width="1.44" d="m109.8,25.2a1.8,1.8,0,1,1,-3.6,0,1.8,1.8,0,1,1,3.6,0z"/>
       </g>
       <g transform="matrix(1, 0, 0, 1, -36, 7.2)">
        <path stroke-opacity="1" fill="none" stroke="black" style="stroke-linecap:round;stroke-linejoin:miter;stroke-miterlimit:4;stroke-dasharray:none;display:inline" id="connector12pad" stroke-width="1.44" d="m109.8,25.2a1.8,1.8,0,1,1,-3.6,0,1.8,1.8,0,1,1,3.6,0z"/>
       </g>
       <g transform="matrix(1, 0, 0, 1, -43.2, 7.2)">
        <path stroke-opacity="1" fill="none" stroke="black" style="stroke-linecap:round;stroke-linejoin:miter;stroke-miterlimit:4;stroke-dasharray:none;display:inline" id="connector14pad" stroke-width="1.44" d="m109.8,25.2a1.8,1.8,0,1,1,-3.6,0,1.8,1.8,0,1,1,3.6,0z"/>
       </g>
       <g transform="matrix(1, 0, 0, 1, -79.2, 7.2)">
        <path stroke-opacity="1" fill="none" stroke="black" style="stroke-linecap:round;stroke-linejoin:miter;stroke-miterlimit:4;stroke-dasharray:none;display:inline" id="connector24pad" stroke-width="1.44" d="m109.8,25.2a1.8,1.8,0,1,1,-3.6,0,1.8,1.8,0,1,1,3.6,0z"/>
       </g>
       <g transform="matrix(1, 0, 0, 1, -86.4, 7.2)">
        <path stroke-opacity="1" fill="none" stroke="black" style="stroke-linecap:round;stroke-linejoin:miter;stroke-miterlimit:4;stroke-dasharray:none;display:inline" id="connector26pad" stroke-width="1.44" d="m109.8,25.2a1.8,1.8,0,1,1,-3.6,0,1.8,1.8,0,1,1,3.6,0z"/>
       </g>
       <g transform="matrix(1, 0, 0, 1, -72, 7.2)">
        <path stroke-opacity="1" fill="none" stroke="black" style="stroke-linecap:round;stroke-linejoin:miter;stroke-miterlimit:4;stroke-dasharray:none;display:inline" id="connector22pad" stroke-width="1.44" d="m109.8,25.2a1.8,1.8,0,1,1,-3.6,0,1.8,1.8,0,1,1,3.6,0z"/>
       </g>
       <g transform="matrix(1, 0, 0, 1, 0, 7.2)">
        <path stroke-opacity="1" fill="none" stroke="black" style="stroke-linecap:round;stroke-linejoin:miter;stroke-miterlimit:4;stroke-dasharray:none;display:inline" id="connector2pad" stroke-width="1.44" d="m109.8,25.2a1.8,1.8,0,1,1,-3.6,0,1.8,1.8,0,1,1,3.6,0z"/>
       </g>
       <g transform="matrix(1, 0, 0, 1, -7.2, 7.2)">
        <path stroke-opacity="1" fill="none" stroke="black" style="stroke-linecap:round;stroke-linejoin:miter;stroke-miterlimit:4;stroke-dasharray:none;display:inline" id="connector4pad" stroke-width="1.44" d="m109.8,25.2a1.8,1.8,0,1,1,-3.6,0,1.8,1.8,0,1,1,3.6,0z"/>
       </g>
       <rect width="3.6" x="106.2" y="23.4" stroke-opacity="1" fill="none" height="3.6" stroke="black" style="stroke-linecap:round;stroke-linejoin:miter;stroke-miterlimit:4;stroke-dasharray:none;display:inline" id="rect4984-3" stroke-width="1.44"/>
       <path stroke-opacity="1" fill="none" stroke="black" style="stroke-linecap:round;stroke-linejoin:miter;stroke-miterlimit:4;stroke-dasharray:none" id="connector1pad" stroke-width="1.44" d="m109.8,25.2a1.8,1.8,0,1,1,-3.6,0,1.8,1.8,0,1,1,3.6,0z"/>
       <g transform="matrix(1, 0, 0, 1, -7.2, 0)">
        <path stroke-opacity="1" fill="none" stroke="black" style="stroke-linecap:round;stroke-linejoin:miter;stroke-miterlimit:4;stroke-dasharray:none" id="connector3pad" stroke-width="1.44" d="m109.8,25.2a1.8,1.8,0,1,1,-3.6,0,1.8,1.8,0,1,1,3.6,0z"/>
       </g>
      </g>
     </g>
    </g>
   </g>
  </g>
  <g partID="7407980">
   <g transform="translate(21.2794,92.7518)">
    <g  id="copper0">
     <circle fill="none" cx="3.01733"  cy="3.01733" stroke="black" r="0.992124" id="connector0pin" stroke-width="0.850392"/>
    </g>
   </g>
  </g>
  <g partID="7409470">
   <g transform="translate(45.3739,92.7518)">
    <g  id="copper0">
     <circle fill="none" cx="3.01733"  cy="3.01733" stroke="black" r="0.992124" id="connector0pin" stroke-width="0.850392"/>
    </g>
   </g>
  </g>
  <g partID="7473910">
   <g transform="translate(135.516,76.8778)">
    <g  id="copper0">
     <circle fill="none" cx="3.01732"  cy="3.01732" stroke="black" r="0.992124" id="connector0pin" stroke-width="0.850392"/>
    </g>
   </g>
  </g>
  <g partID="7474370">
   <g transform="translate(41.9723,45.4132)">
    <g  id="copper0">
     <circle fill="none" cx="3.01732"  cy="3.01732" stroke="black" r="0.992124" id="connector0pin" stroke-width="0.850392"/>
    </g>
   </g>
  </g>
  <g partID="7475910">
   <g transform="translate(96.1141,49.6652)">
    <g  id="copper0">
     <circle fill="none" cx="3.01732"  cy="3.01732" stroke="black" r="0.992124" id="connector0pin" stroke-width="0.850392"/>
    </g>
   </g>
  </g>
  <g partID="7487630">
   <g transform="translate(0.0195603,-0.224572)">
    <g  id="copper0">
     <circle fill="black" cx="4.71811"  cy="4.71811" stroke="black" r="3.11811" id="nonconn0" stroke-width="0"/>
    </g>
   </g>
  </g>
  <g partID="7487970">
   <g transform="translate(160.744,131.87)">
    <g  id="copper0">
     <circle fill="black" cx="4.71811"  cy="4.71811" stroke="black" r="3.11811" id="nonconn0" stroke-width="0"/>
    </g>
   </g>
  </g>
  <g partID="7497520">
   <g transform="translate(102.917,49.3817)">
    <g  id="copper0">
     <circle fill="none" cx="3.01733"  cy="3.01733" stroke="black" r="0.992124" id="connector0pin" stroke-width="0.850392"/>
    </g>
   </g>
  </g>
  <g partID="7498410">
   <g transform="translate(142.886,25.0038)">
    <g  id="copper0">
     <circle fill="none" cx="3.01733"  cy="3.01733" stroke="black" r="0.992124" id="connector0pin" stroke-width="0.850392"/>
    </g>
   </g>
  </g>
  <g partID="7499290">
   <g transform="translate(78.8851,39.8489)">
    <g  id="copper0">
     <circle fill="none" cx="3.01733"  cy="3.01733" stroke="black" r="0.992124" id="connector0pin" stroke-width="0.850392"/>
    </g>
   </g>
  </g>
  <g partID="7503030">
   <g transform="translate(23.6694,51.1431)">
    <g  id="copper0">
     <circle fill="none" cx="3.01733"  cy="3.01733" stroke="black" r="0.992124" id="connector0pin" stroke-width="0.850392"/>
    </g>
   </g>
  </g>
  <g partID="7367850">
   <line stroke="black" stroke-linecap="round" y1="69.1765" x1="136.169" y2="78.756" stroke-width="1.728" x2="143.36"/>
  </g>
  <g partID="7367970">
   <line stroke="black" stroke-linecap="round" y1="78.756" x1="143.36" y2="100.33" stroke-width="1.728" x2="143.6"/>
  </g>
  <g partID="7368050">
   <line stroke="black" stroke-linecap="round" y1="100.33" x1="143.6" y2="100.33" stroke-width="1.728" x2="155.791"/>
  </g>
  <g partID="7368070">
   <line stroke="black" stroke-linecap="round" y1="100.33" x1="155.791" y2="113.35" stroke-width="1.728" x2="155.818"/>
  </g>
  <g partID="7368090">
   <line stroke="black" stroke-linecap="round" y1="113.35" x1="155.818" y2="126.06" stroke-width="1.728" x2="143.108"/>
  </g>
  <g partID="7368150">
   <line stroke="black" stroke-linecap="round" y1="58.9877" x1="114.593" y2="55.5444" stroke-width="1.728" x2="117.266"/>
  </g>
  <g partID="7368190">
   <line stroke="black" stroke-linecap="round" y1="55.5444" x1="117.266" y2="55.5167" stroke-width="1.728" x2="137.753"/>
  </g>
  <g partID="7368210">
   <line stroke="black" stroke-linecap="round" y1="55.5167" x1="137.753" y2="80.1996" stroke-width="1.728" x2="155.55"/>
  </g>
  <g partID="7386430">
   <line stroke="black" stroke-linecap="round" y1="29.2863" x1="19.3876" y2="26.8663" stroke-width="1.728" x2="17.7456"/>
  </g>
  <g partID="7390880">
   <line stroke="black" stroke-linecap="round" y1="13.7853" x1="110.001" y2="8.74133" stroke-width="1.728" x2="105.117"/>
  </g>
  <g partID="7391150">
   <line stroke="black" stroke-linecap="round" y1="8.74201" x1="22.9545" y2="13.6448" stroke-width="1.728" x2="19.1058"/>
  </g>
  <g partID="7390870">
   <line stroke="black" stroke-linecap="round" y1="8.74201" x1="105.117" y2="8.74201" stroke-width="1.728" x2="22.9545"/>
  </g>
  <g partID="7393980">
   <line stroke="black" stroke-linecap="round" y1="100.009" x1="131.498" y2="100.009" stroke-width="1.728" x2="102.546"/>
  </g>
  <g partID="7393910">
   <line stroke="black" stroke-linecap="round" y1="100.009" x1="102.546" y2="97.502" stroke-width="1.728" x2="99.1316"/>
  </g>
  <g partID="7393840">
   <line stroke="black" stroke-linecap="round" y1="97.686" x1="134.284" y2="100.009" stroke-width="1.728" x2="131.498"/>
  </g>
  <g partID="7394680">
   <line stroke="black" stroke-linecap="round" y1="80.1996" x1="155.55" y2="100.33" stroke-width="1.728" x2="155.791"/>
  </g>
  <g partID="7407900">
   <line stroke="black" stroke-linecap="round" y1="95.779" x1="22.9298" y2="95.8018" stroke-width="1.728" x2="19.7612"/>
  </g>
  <g partID="7407820">
   <line stroke="black" stroke-linecap="round" y1="95.5958" x1="54.861" y2="95.7325" stroke-width="1.728" x2="49.7577"/>
  </g>
  <g partID="7409280">
   <line stroke="black" stroke-linecap="round" y1="90.3553" x1="90.872" y2="93.9505" stroke-width="1.728" x2="94.7985"/>
  </g>
  <g partID="7409190">
   <line stroke="black" stroke-linecap="round" y1="90.4785" x1="62.788" y2="90.3556" stroke-width="1.728" x2="90.8723"/>
  </g>
  <g partID="7409110">
   <line stroke="black" stroke-linecap="round" y1="93.6666" x1="59.2357" y2="90.4783" stroke-width="1.728" x2="62.7883"/>
  </g>
  <g partID="7424200">
   <line stroke="black" stroke-linecap="round" y1="76.4897" x1="54.36" y2="76.4578" stroke-width="1.728" x2="78.4668"/>
  </g>
  <g partID="7424070">
   <line stroke="black" stroke-linecap="round" y1="76.4578" x1="78.4668" y2="69.2111" stroke-width="1.728" x2="83.5598"/>
  </g>
  <g partID="7412620">
   <line stroke="black" stroke-linecap="round" y1="93.6666" x1="38.9826" y2="76.4896" stroke-width="1.728" x2="54.3597"/>
  </g>
  <g partID="7430910">
   <line stroke="black" stroke-linecap="round" y1="59.085" x1="97.7727" y2="50.3957" stroke-width="1.728" x2="89.8337"/>
  </g>
  <g partID="7457740">
   <line stroke="black" stroke-linecap="round" y1="81.0016" x1="150.177" y2="62.6849" stroke-width="1.728" x2="137.241"/>
  </g>
  <g partID="7432220">
   <line stroke="black" stroke-linecap="round" y1="93.9014" x1="150.158" y2="81.0016" stroke-width="1.728" x2="150.177"/>
  </g>
  <g partID="7432560">
   <line stroke="black" stroke-linecap="round" y1="62.6849" x1="137.241" y2="61.8059" stroke-width="1.728" x2="136.366"/>
  </g>
  <g partID="7472190">
   <line stroke="black" stroke-linecap="round" y1="106.473" x1="15.2935" y2="110.16" stroke-width="1.728" x2="11.0005"/>
  </g>
  <g partID="7472270">
   <line stroke="black" stroke-linecap="round" y1="106.026" x1="35.0178" y2="110.004" stroke-width="1.728" x2="29.6671"/>
  </g>
  <g partID="7472550">
   <line stroke="black" stroke-linecap="round" y1="106.473" x1="97.4768" y2="107.364" stroke-width="1.728" x2="97.7811"/>
  </g>
  <g partID="7492880">
   <line stroke="black" stroke-linecap="round" y1="107.364" x1="97.7811" y2="114.686" stroke-width="1.728" x2="97.7288"/>
  </g>
  <g partID="7472670">
   <line stroke="black" stroke-linecap="round" y1="104.606" x1="114.388" y2="104.606" stroke-width="1.728" x2="99.1316"/>
  </g>
  <g partID="7472930">
   <line stroke="black" stroke-linecap="round" y1="106.473" x1="136.525" y2="111.963" stroke-width="1.728" x2="136.53"/>
  </g>
  <g partID="7473030">
   <line stroke="black" stroke-linecap="round" y1="104.565" x1="147.862" y2="104.597" stroke-width="1.728" x2="138.817"/>
  </g>
  <g partID="7492760">
   <line stroke="black" stroke-linecap="round" y1="79.0618" x1="112.146" y2="79.0618" stroke-width="1.728" x2="107.879"/>
  </g>
  <g partID="7492670">
   <line stroke="black" stroke-linecap="round" y1="79.0618" x1="107.879" y2="69.1582" stroke-width="1.728" x2="100.193"/>
  </g>
  <g partID="7492520">
   <line stroke="black" stroke-linecap="round" y1="83.3092" x1="116.701" y2="79.0618" stroke-width="1.728" x2="112.146"/>
  </g>
  <g partID="7473090">
   <line stroke="black" stroke-linecap="round" y1="93.9506" x1="116.684" y2="83.3092" stroke-width="1.728" x2="116.701"/>
  </g>
  <g partID="7473250">
   <line stroke="black" stroke-linecap="round" y1="17.3249" x1="25.0704" y2="22.6923" stroke-width="1.728" x2="25.1658"/>
  </g>
  <g partID="7489070">
   <line stroke="black" stroke-linecap="round" y1="26.0547" x1="27.7166" y2="43.2938" stroke-width="1.728" x2="27.8482"/>
  </g>
  <g partID="7492620">
   <line stroke="black" stroke-linecap="round" y1="75.587" x1="120.737" y2="69.5528" stroke-width="1.728" x2="120.664"/>
  </g>
  <g partID="7492570">
   <line stroke="black" stroke-linecap="round" y1="79.9113" x1="126.646" y2="75.587" stroke-width="1.728" x2="120.737"/>
  </g>
  <g partID="7473930">
   <line stroke="black" stroke-linecap="round" y1="79.897" x1="137.166" y2="79.9113" stroke-width="1.728" x2="126.646"/>
  </g>
  <g partID="7473970">
   <line stroke="black" stroke-linecap="round" y1="70.8146" x1="21.7354" y2="54.1729" stroke-width="1.728" x2="47.4344"/>
  </g>
  <g partID="7474090">
   <line stroke="black" stroke-linecap="round" y1="54.1729" x1="47.4344" y2="53.7953" stroke-width="1.728" x2="72.4344"/>
  </g>
  <g partID="7474110">
   <line stroke="black" stroke-linecap="round" y1="53.7953" x1="72.4344" y2="58.9687" stroke-width="1.728" x2="76.313"/>
  </g>
  <g partID="7474150">
   <line stroke="black" stroke-linecap="round" y1="63.6074" x1="21.7307" y2="49.1775" stroke-width="1.728" x2="43.8449"/>
  </g>
  <g partID="7474750">
   <line stroke="black" stroke-linecap="round" y1="97.0275" x1="79.2892" y2="101.69" stroke-width="1.728" x2="86.4511"/>
  </g>
  <g partID="7474870">
   <line stroke="black" stroke-linecap="round" y1="101.69" x1="86.4512" y2="116.09" stroke-width="1.728" x2="86.3354"/>
  </g>
  <g partID="7478930">
   <line stroke="black" stroke-linecap="round" y1="123.303" x1="94.0736" y2="123.303" stroke-width="1.728" x2="129.221"/>
  </g>
  <g partID="7474890">
   <line stroke="black" stroke-linecap="round" y1="116.091" x1="86.336" y2="123.304" stroke-width="1.728" x2="94.0737"/>
  </g>
  <g partID="7475110">
   <line stroke="black" stroke-linecap="round" y1="123.303" x1="129.221" y2="125.587" stroke-width="1.728" x2="133.588"/>
  </g>
  <g partID="7475130">
   <line stroke="black" stroke-linecap="round" y1="125.587" x1="133.588" y2="125.587" stroke-width="1.728" x2="137.044"/>
  </g>
  <g partID="7475150">
   <line stroke="black" stroke-linecap="round" y1="125.587" x1="137.044" y2="132.499" stroke-width="1.728" x2="137.044"/>
  </g>
  <g partID="7475170">
   <line stroke="black" stroke-linecap="round" y1="132.499" x1="137.044" y2="132.093" stroke-width="1.728" x2="158.066"/>
  </g>
  <g partID="7475190">
   <line stroke="black" stroke-linecap="round" y1="132.093" x1="158.066" y2="128.573" stroke-width="1.728" x2="161.266"/>
  </g>
  <g partID="7475210">
   <line stroke="black" stroke-linecap="round" y1="128.573" x1="161.266" y2="80.0349" stroke-width="1.728" x2="160.85"/>
  </g>
  <g partID="7475730">
   <line stroke="black" stroke-linecap="round" y1="49.2976" x1="138.216" y2="49.2976" stroke-width="1.728" x2="116.726"/>
  </g>
  <g partID="7475750">
   <line stroke="black" stroke-linecap="round" y1="49.2976" x1="116.726" y2="59.1019" stroke-width="1.728" x2="107.527"/>
  </g>
  <g partID="7475790">
   <line stroke="black" stroke-linecap="round" y1="17.3252" x1="104.23" y2="45.5329" stroke-width="1.728" x2="104.177"/>
  </g>
  <g partID="7476670">
   <line stroke="black" stroke-linecap="round" y1="129.502" x1="99.7736" y2="129.502" stroke-width="1.728" x2="111.244"/>
  </g>
  <g partID="7492820">
   <line stroke="black" stroke-linecap="round" y1="108.278" x1="63.7063" y2="104.2" stroke-width="1.728" x2="59.9416"/>
  </g>
  <g partID="7478770">
   <line stroke="black" stroke-linecap="round" y1="114.686" x1="63.7007" y2="108.278" stroke-width="1.728" x2="63.7063"/>
  </g>
  <g partID="7478810">
   <line stroke="black" stroke-linecap="round" y1="114.686" x1="63.7007" y2="107.964" stroke-width="1.728" x2="63.7063"/>
  </g>
  <g partID="7492850">
   <line stroke="black" stroke-linecap="round" y1="107.964" x1="63.7063" y2="104.513" stroke-width="1.728" x2="67.3142"/>
  </g>
  <g partID="7494980">
   <line stroke="black" stroke-linecap="round" y1="50.3957" x1="89.8337" y2="17.3252" stroke-width="1.728" x2="89.8337"/>
  </g>
  <g partID="7496160">
   <line stroke="black" stroke-linecap="round" y1="26.8663" x1="17.7456" y2="17.3251" stroke-width="1.728" x2="17.8181"/>
  </g>
  <g partID="7496270">
   <line stroke="black" stroke-linecap="round" y1="22.6923" x1="25.1658" y2="26.0547" stroke-width="1.728" x2="27.7166"/>
  </g>
  <g partID="7496320">
   <line stroke="black" stroke-linecap="round" y1="111.963" x1="136.53" y2="115.292" stroke-width="1.728" x2="133.189"/>
  </g>
  <g partID="7496460">
   <line stroke="black" stroke-linecap="round" y1="110.004" x1="29.6671" y2="114.686" stroke-width="1.728" x2="29.6781"/>
  </g>
  <g partID="7497960">
   <line stroke="black" stroke-linecap="round" y1="29.388" x1="145.895" y2="34.0178" stroke-width="1.728" x2="145.867"/>
  </g>
  <g partID="7429700">
   <line stroke="black" stroke-linecap="round" y1="43.0231" x1="114.687" y2="51.3998" stroke-width="1.728" x2="106.867"/>
  </g>
  <g partID="7499010">
   <line stroke="black" stroke-linecap="round" y1="45.5329" x1="104.177" y2="51.5657" stroke-width="1.728" x2="99.9195"/>
  </g>
  <g partID="7499330">
   <line stroke="black" stroke-linecap="round" y1="42.9981" x1="59.9666" y2="16.7218" stroke-width="1.728" x2="33.6904"/>
  </g>
  <g partID="7499140">
   <line stroke="black" stroke-linecap="round" y1="42.8745" x1="80.5355" y2="42.9981" stroke-width="1.728" x2="59.9666"/>
  </g>
  <g partID="7500990">
   <line stroke="black" stroke-linecap="round" y1="43.1087" x1="133.988" y2="43.0231" stroke-width="1.728" x2="114.687"/>
  </g>
  <g partID="7500220">
   <line stroke="black" stroke-linecap="round" y1="34.0178" x1="145.867" y2="43.1087" stroke-width="1.728" x2="133.988"/>
  </g>
  <g partID="7500710">
   <line stroke="black" stroke-linecap="round" y1="104.513" x1="67.3142" y2="104.367" stroke-width="1.728" x2="74.7034"/>
  </g>
  <g partID="7500740">
   <line stroke="black" stroke-linecap="round" y1="104.2" x1="59.9416" y2="104.221" stroke-width="1.728" x2="59.4468"/>
  </g>
  <g partID="7500770">
   <line stroke="black" stroke-linecap="round" y1="110.16" x1="11.0005" y2="114.687" stroke-width="1.728" x2="11.1771"/>
  </g>
  <g partID="7502390">
   <line stroke="black" stroke-linecap="round" y1="80.0349" x1="160.85" y2="49.2976" stroke-width="1.728" x2="138.216"/>
  </g>
  <g partID="7504820">
   <line stroke="black" stroke-linecap="round" y1="103.102" x1="29.9809" y2="93.2261" stroke-width="1.728" x2="29.9461"/>
  </g>
  <g partID="7506620">
   <line stroke="black" stroke-linecap="round" y1="54.3172" x1="14.6083" y2="48.1052" stroke-width="1.728" x2="20.601"/>
  </g>
  <g partID="7505720">
   <line stroke="black" stroke-linecap="round" y1="83.3368" x1="14.6083" y2="54.3172" stroke-width="1.728" x2="14.6083"/>
  </g>
  <g partID="7503470">
   <line stroke="black" stroke-linecap="round" y1="128.252" x1="12.895" y2="122.396" stroke-width="1.728" x2="20.5691"/>
  </g>
  <g partID="7503920">
   <line stroke="black" stroke-linecap="round" y1="122.396" x1="20.5691" y2="111.415" stroke-width="1.728" x2="20.5691"/>
  </g>
  <g partID="7505270">
   <line stroke="black" stroke-linecap="round" y1="93.2261" x1="29.9461" y2="83.3368" stroke-width="1.728" x2="14.6083"/>
  </g>
  <g partID="7506170">
   <line stroke="black" stroke-linecap="round" y1="48.1052" x1="20.601" y2="53.1962" stroke-width="1.728" x2="25.7177"/>
  </g>
  <g partID="7504370">
   <line stroke="black" stroke-linecap="round" y1="111.415" x1="20.5691" y2="103.102" stroke-width="1.728" x2="29.9809"/>
  </g>
  <g partID="7476790">
   <line stroke="black" stroke-linecap="round" y1="129.502" x1="31.7429" y2="129.502" stroke-width="1.728" x2="43.2134"/>
  </g>
  <g partID="7476730">
   <line stroke="black" stroke-linecap="round" y1="129.502" x1="65.7589" y2="129.502" stroke-width="1.728" x2="77.2286"/>
  </g>
 </g>
</svg>
