G04 MADE WITH FRITZING*
G04 WWW.FRITZING.ORG*
G04 DOUBLE SIDED*
G04 HOLES PLATED*
G04 CONTOUR ON CENTER OF CONTOUR VECTOR*
%ASAXBY*%
%FSLAX23Y23*%
%MOIN*%
%OFA0B0*%
%SFA1.0B1.0*%
%ADD10R,0.001000X0.001000*%
%LNSILK0*%
G90*
G70*
G54D10*
X473Y666D02*
X562Y666D01*
X748Y666D02*
X838Y666D01*
X1024Y666D02*
X1113Y666D01*
X473Y665D02*
X562Y665D01*
X748Y665D02*
X838Y665D01*
X1024Y665D02*
X1113Y665D01*
X473Y664D02*
X562Y664D01*
X748Y664D02*
X838Y664D01*
X1024Y664D02*
X1113Y664D01*
X473Y663D02*
X475Y663D01*
X560Y663D02*
X562Y663D01*
X748Y663D02*
X750Y663D01*
X836Y663D02*
X838Y663D01*
X1024Y663D02*
X1026Y663D01*
X1111Y663D02*
X1113Y663D01*
X2040Y663D02*
X2129Y663D01*
X197Y662D02*
X287Y662D01*
X473Y662D02*
X475Y662D01*
X560Y662D02*
X562Y662D01*
X748Y662D02*
X750Y662D01*
X836Y662D02*
X838Y662D01*
X1024Y662D02*
X1026Y662D01*
X1111Y662D02*
X1113Y662D01*
X1299Y662D02*
X1389Y662D01*
X1575Y662D02*
X1664Y662D01*
X1850Y662D02*
X1940Y662D01*
X2040Y662D02*
X2129Y662D01*
X197Y661D02*
X287Y661D01*
X473Y661D02*
X475Y661D01*
X560Y661D02*
X562Y661D01*
X748Y661D02*
X750Y661D01*
X836Y661D02*
X838Y661D01*
X1024Y661D02*
X1026Y661D01*
X1111Y661D02*
X1113Y661D01*
X1299Y661D02*
X1389Y661D01*
X1575Y661D02*
X1664Y661D01*
X1850Y661D02*
X1940Y661D01*
X2040Y661D02*
X2129Y661D01*
X197Y660D02*
X287Y660D01*
X473Y660D02*
X475Y660D01*
X560Y660D02*
X562Y660D01*
X748Y660D02*
X750Y660D01*
X836Y660D02*
X838Y660D01*
X1024Y660D02*
X1026Y660D01*
X1111Y660D02*
X1113Y660D01*
X1299Y660D02*
X1389Y660D01*
X1575Y660D02*
X1664Y660D01*
X1850Y660D02*
X1940Y660D01*
X2040Y660D02*
X2042Y660D01*
X2127Y660D02*
X2129Y660D01*
X197Y659D02*
X199Y659D01*
X285Y659D02*
X287Y659D01*
X473Y659D02*
X475Y659D01*
X560Y659D02*
X562Y659D01*
X748Y659D02*
X750Y659D01*
X836Y659D02*
X838Y659D01*
X1024Y659D02*
X1026Y659D01*
X1111Y659D02*
X1113Y659D01*
X1299Y659D02*
X1301Y659D01*
X1387Y659D02*
X1389Y659D01*
X1575Y659D02*
X1577Y659D01*
X1663Y659D02*
X1664Y659D01*
X1850Y659D02*
X1852Y659D01*
X1938Y659D02*
X1940Y659D01*
X2040Y659D02*
X2042Y659D01*
X2127Y659D02*
X2129Y659D01*
X197Y658D02*
X199Y658D01*
X285Y658D02*
X287Y658D01*
X473Y658D02*
X475Y658D01*
X560Y658D02*
X562Y658D01*
X748Y658D02*
X750Y658D01*
X836Y658D02*
X838Y658D01*
X1024Y658D02*
X1026Y658D01*
X1111Y658D02*
X1113Y658D01*
X1299Y658D02*
X1301Y658D01*
X1387Y658D02*
X1389Y658D01*
X1575Y658D02*
X1577Y658D01*
X1663Y658D02*
X1664Y658D01*
X1850Y658D02*
X1852Y658D01*
X1938Y658D02*
X1940Y658D01*
X2040Y658D02*
X2042Y658D01*
X2127Y658D02*
X2129Y658D01*
X197Y657D02*
X199Y657D01*
X285Y657D02*
X287Y657D01*
X473Y657D02*
X475Y657D01*
X560Y657D02*
X562Y657D01*
X748Y657D02*
X750Y657D01*
X836Y657D02*
X838Y657D01*
X1024Y657D02*
X1026Y657D01*
X1111Y657D02*
X1113Y657D01*
X1299Y657D02*
X1301Y657D01*
X1387Y657D02*
X1389Y657D01*
X1575Y657D02*
X1577Y657D01*
X1663Y657D02*
X1664Y657D01*
X1850Y657D02*
X1852Y657D01*
X1938Y657D02*
X1940Y657D01*
X2040Y657D02*
X2042Y657D01*
X2127Y657D02*
X2129Y657D01*
X197Y656D02*
X199Y656D01*
X285Y656D02*
X287Y656D01*
X473Y656D02*
X475Y656D01*
X560Y656D02*
X562Y656D01*
X748Y656D02*
X750Y656D01*
X836Y656D02*
X838Y656D01*
X1024Y656D02*
X1026Y656D01*
X1111Y656D02*
X1113Y656D01*
X1299Y656D02*
X1301Y656D01*
X1387Y656D02*
X1389Y656D01*
X1575Y656D02*
X1577Y656D01*
X1663Y656D02*
X1664Y656D01*
X1850Y656D02*
X1852Y656D01*
X1938Y656D02*
X1940Y656D01*
X2040Y656D02*
X2042Y656D01*
X2127Y656D02*
X2129Y656D01*
X197Y655D02*
X199Y655D01*
X285Y655D02*
X287Y655D01*
X473Y655D02*
X475Y655D01*
X560Y655D02*
X562Y655D01*
X748Y655D02*
X750Y655D01*
X836Y655D02*
X838Y655D01*
X1024Y655D02*
X1026Y655D01*
X1111Y655D02*
X1113Y655D01*
X1299Y655D02*
X1301Y655D01*
X1387Y655D02*
X1389Y655D01*
X1575Y655D02*
X1577Y655D01*
X1663Y655D02*
X1664Y655D01*
X1850Y655D02*
X1852Y655D01*
X1938Y655D02*
X1940Y655D01*
X2040Y655D02*
X2042Y655D01*
X2127Y655D02*
X2129Y655D01*
X197Y654D02*
X199Y654D01*
X285Y654D02*
X287Y654D01*
X473Y654D02*
X475Y654D01*
X560Y654D02*
X562Y654D01*
X748Y654D02*
X750Y654D01*
X836Y654D02*
X838Y654D01*
X1024Y654D02*
X1026Y654D01*
X1111Y654D02*
X1113Y654D01*
X1299Y654D02*
X1301Y654D01*
X1387Y654D02*
X1389Y654D01*
X1575Y654D02*
X1577Y654D01*
X1663Y654D02*
X1664Y654D01*
X1850Y654D02*
X1852Y654D01*
X1938Y654D02*
X1940Y654D01*
X2040Y654D02*
X2042Y654D01*
X2127Y654D02*
X2129Y654D01*
X197Y653D02*
X199Y653D01*
X285Y653D02*
X287Y653D01*
X473Y653D02*
X475Y653D01*
X560Y653D02*
X562Y653D01*
X748Y653D02*
X750Y653D01*
X836Y653D02*
X838Y653D01*
X1024Y653D02*
X1026Y653D01*
X1111Y653D02*
X1113Y653D01*
X1299Y653D02*
X1301Y653D01*
X1387Y653D02*
X1389Y653D01*
X1575Y653D02*
X1577Y653D01*
X1663Y653D02*
X1664Y653D01*
X1850Y653D02*
X1852Y653D01*
X1938Y653D02*
X1940Y653D01*
X2040Y653D02*
X2042Y653D01*
X2127Y653D02*
X2129Y653D01*
X197Y652D02*
X199Y652D01*
X285Y652D02*
X287Y652D01*
X473Y652D02*
X475Y652D01*
X560Y652D02*
X562Y652D01*
X748Y652D02*
X750Y652D01*
X836Y652D02*
X838Y652D01*
X1024Y652D02*
X1026Y652D01*
X1111Y652D02*
X1113Y652D01*
X1299Y652D02*
X1301Y652D01*
X1387Y652D02*
X1389Y652D01*
X1575Y652D02*
X1577Y652D01*
X1663Y652D02*
X1664Y652D01*
X1850Y652D02*
X1852Y652D01*
X1938Y652D02*
X1940Y652D01*
X2040Y652D02*
X2042Y652D01*
X2127Y652D02*
X2129Y652D01*
X197Y651D02*
X199Y651D01*
X285Y651D02*
X287Y651D01*
X473Y651D02*
X475Y651D01*
X560Y651D02*
X562Y651D01*
X748Y651D02*
X750Y651D01*
X836Y651D02*
X838Y651D01*
X1024Y651D02*
X1026Y651D01*
X1111Y651D02*
X1113Y651D01*
X1299Y651D02*
X1301Y651D01*
X1387Y651D02*
X1389Y651D01*
X1575Y651D02*
X1577Y651D01*
X1663Y651D02*
X1664Y651D01*
X1850Y651D02*
X1852Y651D01*
X1938Y651D02*
X1940Y651D01*
X2040Y651D02*
X2042Y651D01*
X2127Y651D02*
X2129Y651D01*
X197Y650D02*
X199Y650D01*
X285Y650D02*
X287Y650D01*
X473Y650D02*
X475Y650D01*
X560Y650D02*
X562Y650D01*
X748Y650D02*
X750Y650D01*
X836Y650D02*
X838Y650D01*
X1024Y650D02*
X1026Y650D01*
X1111Y650D02*
X1113Y650D01*
X1299Y650D02*
X1301Y650D01*
X1387Y650D02*
X1389Y650D01*
X1575Y650D02*
X1577Y650D01*
X1663Y650D02*
X1664Y650D01*
X1850Y650D02*
X1852Y650D01*
X1938Y650D02*
X1940Y650D01*
X2040Y650D02*
X2042Y650D01*
X2127Y650D02*
X2129Y650D01*
X197Y649D02*
X199Y649D01*
X285Y649D02*
X287Y649D01*
X473Y649D02*
X475Y649D01*
X560Y649D02*
X562Y649D01*
X748Y649D02*
X750Y649D01*
X836Y649D02*
X838Y649D01*
X1024Y649D02*
X1026Y649D01*
X1111Y649D02*
X1113Y649D01*
X1299Y649D02*
X1301Y649D01*
X1387Y649D02*
X1389Y649D01*
X1575Y649D02*
X1577Y649D01*
X1663Y649D02*
X1664Y649D01*
X1850Y649D02*
X1852Y649D01*
X1938Y649D02*
X1940Y649D01*
X2040Y649D02*
X2042Y649D01*
X2127Y649D02*
X2129Y649D01*
X197Y648D02*
X199Y648D01*
X285Y648D02*
X287Y648D01*
X473Y648D02*
X475Y648D01*
X560Y648D02*
X562Y648D01*
X748Y648D02*
X750Y648D01*
X836Y648D02*
X838Y648D01*
X1024Y648D02*
X1026Y648D01*
X1111Y648D02*
X1113Y648D01*
X1299Y648D02*
X1301Y648D01*
X1387Y648D02*
X1389Y648D01*
X1575Y648D02*
X1577Y648D01*
X1663Y648D02*
X1664Y648D01*
X1850Y648D02*
X1852Y648D01*
X1938Y648D02*
X1940Y648D01*
X2040Y648D02*
X2042Y648D01*
X2127Y648D02*
X2129Y648D01*
X197Y647D02*
X199Y647D01*
X285Y647D02*
X287Y647D01*
X473Y647D02*
X475Y647D01*
X560Y647D02*
X562Y647D01*
X748Y647D02*
X750Y647D01*
X836Y647D02*
X838Y647D01*
X1024Y647D02*
X1026Y647D01*
X1111Y647D02*
X1113Y647D01*
X1299Y647D02*
X1301Y647D01*
X1387Y647D02*
X1389Y647D01*
X1575Y647D02*
X1577Y647D01*
X1663Y647D02*
X1664Y647D01*
X1850Y647D02*
X1852Y647D01*
X1938Y647D02*
X1940Y647D01*
X2040Y647D02*
X2042Y647D01*
X2127Y647D02*
X2129Y647D01*
X197Y646D02*
X199Y646D01*
X285Y646D02*
X287Y646D01*
X473Y646D02*
X475Y646D01*
X560Y646D02*
X562Y646D01*
X748Y646D02*
X750Y646D01*
X836Y646D02*
X838Y646D01*
X1024Y646D02*
X1026Y646D01*
X1111Y646D02*
X1113Y646D01*
X1299Y646D02*
X1301Y646D01*
X1387Y646D02*
X1389Y646D01*
X1575Y646D02*
X1577Y646D01*
X1663Y646D02*
X1664Y646D01*
X1850Y646D02*
X1852Y646D01*
X1938Y646D02*
X1940Y646D01*
X2040Y646D02*
X2042Y646D01*
X2127Y646D02*
X2129Y646D01*
X197Y645D02*
X199Y645D01*
X285Y645D02*
X287Y645D01*
X473Y645D02*
X475Y645D01*
X560Y645D02*
X562Y645D01*
X748Y645D02*
X750Y645D01*
X836Y645D02*
X838Y645D01*
X1024Y645D02*
X1026Y645D01*
X1111Y645D02*
X1113Y645D01*
X1299Y645D02*
X1301Y645D01*
X1387Y645D02*
X1389Y645D01*
X1575Y645D02*
X1577Y645D01*
X1663Y645D02*
X1664Y645D01*
X1850Y645D02*
X1852Y645D01*
X1938Y645D02*
X1940Y645D01*
X2040Y645D02*
X2042Y645D01*
X2127Y645D02*
X2129Y645D01*
X197Y644D02*
X199Y644D01*
X285Y644D02*
X287Y644D01*
X473Y644D02*
X475Y644D01*
X560Y644D02*
X562Y644D01*
X748Y644D02*
X750Y644D01*
X836Y644D02*
X838Y644D01*
X1024Y644D02*
X1026Y644D01*
X1111Y644D02*
X1113Y644D01*
X1299Y644D02*
X1301Y644D01*
X1387Y644D02*
X1389Y644D01*
X1575Y644D02*
X1577Y644D01*
X1663Y644D02*
X1664Y644D01*
X1850Y644D02*
X1852Y644D01*
X1938Y644D02*
X1940Y644D01*
X2040Y644D02*
X2042Y644D01*
X2127Y644D02*
X2129Y644D01*
X197Y643D02*
X199Y643D01*
X285Y643D02*
X287Y643D01*
X473Y643D02*
X475Y643D01*
X560Y643D02*
X562Y643D01*
X748Y643D02*
X750Y643D01*
X836Y643D02*
X838Y643D01*
X1024Y643D02*
X1026Y643D01*
X1111Y643D02*
X1113Y643D01*
X1299Y643D02*
X1301Y643D01*
X1387Y643D02*
X1389Y643D01*
X1575Y643D02*
X1577Y643D01*
X1663Y643D02*
X1664Y643D01*
X1850Y643D02*
X1852Y643D01*
X1938Y643D02*
X1940Y643D01*
X2040Y643D02*
X2042Y643D01*
X2127Y643D02*
X2129Y643D01*
X197Y642D02*
X199Y642D01*
X285Y642D02*
X287Y642D01*
X473Y642D02*
X475Y642D01*
X560Y642D02*
X562Y642D01*
X748Y642D02*
X750Y642D01*
X836Y642D02*
X838Y642D01*
X1024Y642D02*
X1026Y642D01*
X1111Y642D02*
X1113Y642D01*
X1299Y642D02*
X1301Y642D01*
X1387Y642D02*
X1389Y642D01*
X1575Y642D02*
X1577Y642D01*
X1663Y642D02*
X1664Y642D01*
X1850Y642D02*
X1852Y642D01*
X1938Y642D02*
X1940Y642D01*
X2040Y642D02*
X2042Y642D01*
X2127Y642D02*
X2129Y642D01*
X197Y641D02*
X199Y641D01*
X285Y641D02*
X287Y641D01*
X473Y641D02*
X475Y641D01*
X560Y641D02*
X562Y641D01*
X748Y641D02*
X750Y641D01*
X836Y641D02*
X838Y641D01*
X1024Y641D02*
X1026Y641D01*
X1111Y641D02*
X1113Y641D01*
X1299Y641D02*
X1301Y641D01*
X1387Y641D02*
X1389Y641D01*
X1575Y641D02*
X1577Y641D01*
X1663Y641D02*
X1664Y641D01*
X1850Y641D02*
X1852Y641D01*
X1938Y641D02*
X1940Y641D01*
X2040Y641D02*
X2042Y641D01*
X2127Y641D02*
X2129Y641D01*
X197Y640D02*
X199Y640D01*
X285Y640D02*
X287Y640D01*
X473Y640D02*
X475Y640D01*
X560Y640D02*
X562Y640D01*
X748Y640D02*
X750Y640D01*
X836Y640D02*
X838Y640D01*
X1024Y640D02*
X1026Y640D01*
X1111Y640D02*
X1113Y640D01*
X1299Y640D02*
X1301Y640D01*
X1387Y640D02*
X1389Y640D01*
X1575Y640D02*
X1577Y640D01*
X1663Y640D02*
X1664Y640D01*
X1850Y640D02*
X1852Y640D01*
X1938Y640D02*
X1940Y640D01*
X2040Y640D02*
X2042Y640D01*
X2127Y640D02*
X2129Y640D01*
X197Y639D02*
X199Y639D01*
X285Y639D02*
X287Y639D01*
X473Y639D02*
X475Y639D01*
X560Y639D02*
X562Y639D01*
X748Y639D02*
X750Y639D01*
X836Y639D02*
X838Y639D01*
X1024Y639D02*
X1026Y639D01*
X1111Y639D02*
X1113Y639D01*
X1299Y639D02*
X1301Y639D01*
X1387Y639D02*
X1389Y639D01*
X1575Y639D02*
X1577Y639D01*
X1663Y639D02*
X1664Y639D01*
X1850Y639D02*
X1852Y639D01*
X1938Y639D02*
X1940Y639D01*
X2040Y639D02*
X2042Y639D01*
X2127Y639D02*
X2129Y639D01*
X197Y638D02*
X199Y638D01*
X285Y638D02*
X287Y638D01*
X473Y638D02*
X475Y638D01*
X560Y638D02*
X562Y638D01*
X748Y638D02*
X750Y638D01*
X836Y638D02*
X838Y638D01*
X1024Y638D02*
X1026Y638D01*
X1111Y638D02*
X1113Y638D01*
X1299Y638D02*
X1301Y638D01*
X1387Y638D02*
X1389Y638D01*
X1575Y638D02*
X1577Y638D01*
X1663Y638D02*
X1664Y638D01*
X1850Y638D02*
X1852Y638D01*
X1938Y638D02*
X1940Y638D01*
X2040Y638D02*
X2042Y638D01*
X2127Y638D02*
X2129Y638D01*
X197Y637D02*
X199Y637D01*
X285Y637D02*
X287Y637D01*
X473Y637D02*
X475Y637D01*
X560Y637D02*
X562Y637D01*
X748Y637D02*
X750Y637D01*
X836Y637D02*
X838Y637D01*
X1024Y637D02*
X1026Y637D01*
X1111Y637D02*
X1113Y637D01*
X1299Y637D02*
X1301Y637D01*
X1387Y637D02*
X1389Y637D01*
X1575Y637D02*
X1577Y637D01*
X1663Y637D02*
X1664Y637D01*
X1850Y637D02*
X1852Y637D01*
X1938Y637D02*
X1940Y637D01*
X2040Y637D02*
X2042Y637D01*
X2127Y637D02*
X2129Y637D01*
X197Y636D02*
X199Y636D01*
X285Y636D02*
X287Y636D01*
X473Y636D02*
X475Y636D01*
X560Y636D02*
X562Y636D01*
X748Y636D02*
X750Y636D01*
X836Y636D02*
X838Y636D01*
X1024Y636D02*
X1026Y636D01*
X1111Y636D02*
X1113Y636D01*
X1299Y636D02*
X1301Y636D01*
X1387Y636D02*
X1389Y636D01*
X1575Y636D02*
X1577Y636D01*
X1663Y636D02*
X1664Y636D01*
X1850Y636D02*
X1852Y636D01*
X1938Y636D02*
X1940Y636D01*
X2040Y636D02*
X2042Y636D01*
X2127Y636D02*
X2129Y636D01*
X197Y635D02*
X199Y635D01*
X285Y635D02*
X287Y635D01*
X473Y635D02*
X475Y635D01*
X560Y635D02*
X562Y635D01*
X748Y635D02*
X750Y635D01*
X836Y635D02*
X838Y635D01*
X1024Y635D02*
X1026Y635D01*
X1111Y635D02*
X1113Y635D01*
X1299Y635D02*
X1301Y635D01*
X1387Y635D02*
X1389Y635D01*
X1575Y635D02*
X1577Y635D01*
X1663Y635D02*
X1664Y635D01*
X1850Y635D02*
X1852Y635D01*
X1938Y635D02*
X1940Y635D01*
X2040Y635D02*
X2042Y635D01*
X2127Y635D02*
X2129Y635D01*
X197Y634D02*
X199Y634D01*
X285Y634D02*
X287Y634D01*
X473Y634D02*
X475Y634D01*
X560Y634D02*
X562Y634D01*
X748Y634D02*
X750Y634D01*
X836Y634D02*
X838Y634D01*
X1024Y634D02*
X1026Y634D01*
X1111Y634D02*
X1113Y634D01*
X1299Y634D02*
X1301Y634D01*
X1387Y634D02*
X1389Y634D01*
X1575Y634D02*
X1577Y634D01*
X1663Y634D02*
X1664Y634D01*
X1850Y634D02*
X1852Y634D01*
X1938Y634D02*
X1940Y634D01*
X2040Y634D02*
X2042Y634D01*
X2127Y634D02*
X2129Y634D01*
X197Y633D02*
X199Y633D01*
X285Y633D02*
X287Y633D01*
X473Y633D02*
X475Y633D01*
X560Y633D02*
X562Y633D01*
X748Y633D02*
X750Y633D01*
X836Y633D02*
X838Y633D01*
X1024Y633D02*
X1026Y633D01*
X1111Y633D02*
X1113Y633D01*
X1299Y633D02*
X1301Y633D01*
X1387Y633D02*
X1389Y633D01*
X1575Y633D02*
X1577Y633D01*
X1663Y633D02*
X1664Y633D01*
X1850Y633D02*
X1852Y633D01*
X1938Y633D02*
X1940Y633D01*
X2040Y633D02*
X2042Y633D01*
X2127Y633D02*
X2129Y633D01*
X197Y632D02*
X199Y632D01*
X285Y632D02*
X287Y632D01*
X473Y632D02*
X475Y632D01*
X560Y632D02*
X562Y632D01*
X748Y632D02*
X750Y632D01*
X836Y632D02*
X838Y632D01*
X1024Y632D02*
X1026Y632D01*
X1111Y632D02*
X1113Y632D01*
X1299Y632D02*
X1301Y632D01*
X1387Y632D02*
X1389Y632D01*
X1575Y632D02*
X1577Y632D01*
X1663Y632D02*
X1664Y632D01*
X1850Y632D02*
X1852Y632D01*
X1938Y632D02*
X1940Y632D01*
X2040Y632D02*
X2042Y632D01*
X2127Y632D02*
X2129Y632D01*
X197Y631D02*
X199Y631D01*
X285Y631D02*
X287Y631D01*
X473Y631D02*
X475Y631D01*
X560Y631D02*
X562Y631D01*
X748Y631D02*
X750Y631D01*
X836Y631D02*
X838Y631D01*
X1024Y631D02*
X1026Y631D01*
X1111Y631D02*
X1113Y631D01*
X1299Y631D02*
X1301Y631D01*
X1387Y631D02*
X1389Y631D01*
X1575Y631D02*
X1577Y631D01*
X1663Y631D02*
X1664Y631D01*
X1850Y631D02*
X1852Y631D01*
X1938Y631D02*
X1940Y631D01*
X2040Y631D02*
X2042Y631D01*
X2127Y631D02*
X2129Y631D01*
X197Y630D02*
X199Y630D01*
X285Y630D02*
X287Y630D01*
X473Y630D02*
X475Y630D01*
X560Y630D02*
X562Y630D01*
X748Y630D02*
X750Y630D01*
X836Y630D02*
X838Y630D01*
X1024Y630D02*
X1026Y630D01*
X1111Y630D02*
X1113Y630D01*
X1299Y630D02*
X1301Y630D01*
X1387Y630D02*
X1389Y630D01*
X1575Y630D02*
X1577Y630D01*
X1663Y630D02*
X1664Y630D01*
X1850Y630D02*
X1852Y630D01*
X1938Y630D02*
X1940Y630D01*
X2040Y630D02*
X2042Y630D01*
X2127Y630D02*
X2129Y630D01*
X197Y629D02*
X199Y629D01*
X285Y629D02*
X287Y629D01*
X473Y629D02*
X475Y629D01*
X560Y629D02*
X562Y629D01*
X748Y629D02*
X750Y629D01*
X836Y629D02*
X838Y629D01*
X1024Y629D02*
X1026Y629D01*
X1111Y629D02*
X1113Y629D01*
X1299Y629D02*
X1301Y629D01*
X1387Y629D02*
X1389Y629D01*
X1575Y629D02*
X1577Y629D01*
X1663Y629D02*
X1664Y629D01*
X1850Y629D02*
X1852Y629D01*
X1938Y629D02*
X1940Y629D01*
X2040Y629D02*
X2042Y629D01*
X2127Y629D02*
X2129Y629D01*
X197Y628D02*
X199Y628D01*
X285Y628D02*
X287Y628D01*
X473Y628D02*
X475Y628D01*
X560Y628D02*
X562Y628D01*
X748Y628D02*
X750Y628D01*
X836Y628D02*
X838Y628D01*
X1024Y628D02*
X1026Y628D01*
X1111Y628D02*
X1113Y628D01*
X1299Y628D02*
X1301Y628D01*
X1387Y628D02*
X1389Y628D01*
X1575Y628D02*
X1577Y628D01*
X1663Y628D02*
X1664Y628D01*
X1850Y628D02*
X1852Y628D01*
X1938Y628D02*
X1940Y628D01*
X2040Y628D02*
X2042Y628D01*
X2127Y628D02*
X2129Y628D01*
X197Y627D02*
X199Y627D01*
X285Y627D02*
X287Y627D01*
X473Y627D02*
X475Y627D01*
X560Y627D02*
X562Y627D01*
X748Y627D02*
X750Y627D01*
X836Y627D02*
X838Y627D01*
X1024Y627D02*
X1026Y627D01*
X1111Y627D02*
X1113Y627D01*
X1299Y627D02*
X1301Y627D01*
X1387Y627D02*
X1389Y627D01*
X1575Y627D02*
X1577Y627D01*
X1663Y627D02*
X1664Y627D01*
X1850Y627D02*
X1852Y627D01*
X1938Y627D02*
X1940Y627D01*
X2040Y627D02*
X2042Y627D01*
X2127Y627D02*
X2129Y627D01*
X197Y626D02*
X199Y626D01*
X285Y626D02*
X287Y626D01*
X473Y626D02*
X475Y626D01*
X560Y626D02*
X562Y626D01*
X748Y626D02*
X750Y626D01*
X836Y626D02*
X838Y626D01*
X1024Y626D02*
X1026Y626D01*
X1111Y626D02*
X1113Y626D01*
X1299Y626D02*
X1301Y626D01*
X1387Y626D02*
X1389Y626D01*
X1575Y626D02*
X1577Y626D01*
X1663Y626D02*
X1664Y626D01*
X1850Y626D02*
X1852Y626D01*
X1938Y626D02*
X1940Y626D01*
X2040Y626D02*
X2042Y626D01*
X2127Y626D02*
X2129Y626D01*
X197Y625D02*
X199Y625D01*
X285Y625D02*
X287Y625D01*
X473Y625D02*
X475Y625D01*
X560Y625D02*
X562Y625D01*
X748Y625D02*
X750Y625D01*
X836Y625D02*
X838Y625D01*
X1024Y625D02*
X1026Y625D01*
X1111Y625D02*
X1113Y625D01*
X1299Y625D02*
X1301Y625D01*
X1387Y625D02*
X1389Y625D01*
X1575Y625D02*
X1577Y625D01*
X1663Y625D02*
X1664Y625D01*
X1850Y625D02*
X1852Y625D01*
X1938Y625D02*
X1940Y625D01*
X2040Y625D02*
X2042Y625D01*
X2127Y625D02*
X2129Y625D01*
X197Y624D02*
X199Y624D01*
X285Y624D02*
X287Y624D01*
X473Y624D02*
X475Y624D01*
X560Y624D02*
X562Y624D01*
X748Y624D02*
X750Y624D01*
X836Y624D02*
X838Y624D01*
X1024Y624D02*
X1026Y624D01*
X1111Y624D02*
X1113Y624D01*
X1299Y624D02*
X1301Y624D01*
X1387Y624D02*
X1389Y624D01*
X1575Y624D02*
X1577Y624D01*
X1663Y624D02*
X1664Y624D01*
X1850Y624D02*
X1852Y624D01*
X1938Y624D02*
X1940Y624D01*
X2040Y624D02*
X2042Y624D01*
X2127Y624D02*
X2129Y624D01*
X197Y623D02*
X199Y623D01*
X285Y623D02*
X287Y623D01*
X473Y623D02*
X475Y623D01*
X560Y623D02*
X562Y623D01*
X748Y623D02*
X750Y623D01*
X836Y623D02*
X838Y623D01*
X1024Y623D02*
X1026Y623D01*
X1111Y623D02*
X1113Y623D01*
X1299Y623D02*
X1301Y623D01*
X1387Y623D02*
X1389Y623D01*
X1575Y623D02*
X1577Y623D01*
X1663Y623D02*
X1664Y623D01*
X1850Y623D02*
X1852Y623D01*
X1938Y623D02*
X1940Y623D01*
X2040Y623D02*
X2042Y623D01*
X2127Y623D02*
X2129Y623D01*
X197Y622D02*
X199Y622D01*
X285Y622D02*
X287Y622D01*
X473Y622D02*
X475Y622D01*
X560Y622D02*
X562Y622D01*
X748Y622D02*
X750Y622D01*
X836Y622D02*
X838Y622D01*
X1024Y622D02*
X1026Y622D01*
X1111Y622D02*
X1113Y622D01*
X1299Y622D02*
X1301Y622D01*
X1387Y622D02*
X1389Y622D01*
X1575Y622D02*
X1577Y622D01*
X1663Y622D02*
X1664Y622D01*
X1850Y622D02*
X1852Y622D01*
X1938Y622D02*
X1940Y622D01*
X2040Y622D02*
X2042Y622D01*
X2127Y622D02*
X2129Y622D01*
X197Y621D02*
X199Y621D01*
X285Y621D02*
X287Y621D01*
X473Y621D02*
X475Y621D01*
X560Y621D02*
X562Y621D01*
X748Y621D02*
X750Y621D01*
X836Y621D02*
X838Y621D01*
X1024Y621D02*
X1026Y621D01*
X1111Y621D02*
X1113Y621D01*
X1299Y621D02*
X1301Y621D01*
X1387Y621D02*
X1389Y621D01*
X1575Y621D02*
X1577Y621D01*
X1663Y621D02*
X1664Y621D01*
X1850Y621D02*
X1852Y621D01*
X1938Y621D02*
X1940Y621D01*
X2040Y621D02*
X2042Y621D01*
X2127Y621D02*
X2129Y621D01*
X197Y620D02*
X199Y620D01*
X285Y620D02*
X287Y620D01*
X473Y620D02*
X475Y620D01*
X560Y620D02*
X562Y620D01*
X748Y620D02*
X750Y620D01*
X836Y620D02*
X838Y620D01*
X1024Y620D02*
X1026Y620D01*
X1111Y620D02*
X1113Y620D01*
X1299Y620D02*
X1301Y620D01*
X1387Y620D02*
X1389Y620D01*
X1575Y620D02*
X1577Y620D01*
X1663Y620D02*
X1664Y620D01*
X1850Y620D02*
X1852Y620D01*
X1938Y620D02*
X1940Y620D01*
X2040Y620D02*
X2042Y620D01*
X2127Y620D02*
X2129Y620D01*
X197Y619D02*
X199Y619D01*
X285Y619D02*
X287Y619D01*
X473Y619D02*
X475Y619D01*
X560Y619D02*
X562Y619D01*
X748Y619D02*
X750Y619D01*
X836Y619D02*
X838Y619D01*
X1024Y619D02*
X1026Y619D01*
X1111Y619D02*
X1113Y619D01*
X1299Y619D02*
X1301Y619D01*
X1387Y619D02*
X1389Y619D01*
X1575Y619D02*
X1577Y619D01*
X1663Y619D02*
X1664Y619D01*
X1850Y619D02*
X1852Y619D01*
X1938Y619D02*
X1940Y619D01*
X2040Y619D02*
X2042Y619D01*
X2127Y619D02*
X2129Y619D01*
X197Y618D02*
X199Y618D01*
X285Y618D02*
X287Y618D01*
X473Y618D02*
X475Y618D01*
X560Y618D02*
X562Y618D01*
X748Y618D02*
X750Y618D01*
X836Y618D02*
X838Y618D01*
X1024Y618D02*
X1026Y618D01*
X1111Y618D02*
X1113Y618D01*
X1299Y618D02*
X1301Y618D01*
X1387Y618D02*
X1389Y618D01*
X1575Y618D02*
X1577Y618D01*
X1663Y618D02*
X1664Y618D01*
X1850Y618D02*
X1852Y618D01*
X1938Y618D02*
X1940Y618D01*
X2040Y618D02*
X2042Y618D01*
X2127Y618D02*
X2129Y618D01*
X197Y617D02*
X199Y617D01*
X285Y617D02*
X287Y617D01*
X473Y617D02*
X475Y617D01*
X560Y617D02*
X562Y617D01*
X748Y617D02*
X750Y617D01*
X836Y617D02*
X838Y617D01*
X1024Y617D02*
X1026Y617D01*
X1111Y617D02*
X1113Y617D01*
X1299Y617D02*
X1301Y617D01*
X1387Y617D02*
X1389Y617D01*
X1575Y617D02*
X1577Y617D01*
X1663Y617D02*
X1664Y617D01*
X1850Y617D02*
X1852Y617D01*
X1938Y617D02*
X1940Y617D01*
X2040Y617D02*
X2042Y617D01*
X2127Y617D02*
X2129Y617D01*
X197Y616D02*
X199Y616D01*
X285Y616D02*
X287Y616D01*
X473Y616D02*
X475Y616D01*
X560Y616D02*
X562Y616D01*
X748Y616D02*
X750Y616D01*
X836Y616D02*
X838Y616D01*
X1024Y616D02*
X1026Y616D01*
X1111Y616D02*
X1113Y616D01*
X1299Y616D02*
X1301Y616D01*
X1387Y616D02*
X1389Y616D01*
X1575Y616D02*
X1577Y616D01*
X1663Y616D02*
X1664Y616D01*
X1850Y616D02*
X1852Y616D01*
X1938Y616D02*
X1940Y616D01*
X2040Y616D02*
X2042Y616D01*
X2127Y616D02*
X2129Y616D01*
X197Y615D02*
X199Y615D01*
X285Y615D02*
X287Y615D01*
X473Y615D02*
X475Y615D01*
X560Y615D02*
X562Y615D01*
X748Y615D02*
X750Y615D01*
X836Y615D02*
X838Y615D01*
X1024Y615D02*
X1026Y615D01*
X1111Y615D02*
X1113Y615D01*
X1299Y615D02*
X1301Y615D01*
X1387Y615D02*
X1389Y615D01*
X1575Y615D02*
X1577Y615D01*
X1663Y615D02*
X1664Y615D01*
X1850Y615D02*
X1852Y615D01*
X1938Y615D02*
X1940Y615D01*
X2040Y615D02*
X2042Y615D01*
X2127Y615D02*
X2129Y615D01*
X197Y614D02*
X199Y614D01*
X285Y614D02*
X287Y614D01*
X473Y614D02*
X475Y614D01*
X560Y614D02*
X562Y614D01*
X748Y614D02*
X750Y614D01*
X836Y614D02*
X838Y614D01*
X1024Y614D02*
X1026Y614D01*
X1111Y614D02*
X1113Y614D01*
X1299Y614D02*
X1301Y614D01*
X1387Y614D02*
X1389Y614D01*
X1575Y614D02*
X1577Y614D01*
X1663Y614D02*
X1664Y614D01*
X1850Y614D02*
X1852Y614D01*
X1938Y614D02*
X1940Y614D01*
X2040Y614D02*
X2042Y614D01*
X2127Y614D02*
X2129Y614D01*
X197Y613D02*
X199Y613D01*
X285Y613D02*
X287Y613D01*
X473Y613D02*
X475Y613D01*
X560Y613D02*
X562Y613D01*
X748Y613D02*
X750Y613D01*
X836Y613D02*
X838Y613D01*
X1024Y613D02*
X1026Y613D01*
X1111Y613D02*
X1113Y613D01*
X1299Y613D02*
X1301Y613D01*
X1387Y613D02*
X1389Y613D01*
X1575Y613D02*
X1577Y613D01*
X1663Y613D02*
X1664Y613D01*
X1850Y613D02*
X1852Y613D01*
X1938Y613D02*
X1940Y613D01*
X2040Y613D02*
X2042Y613D01*
X2127Y613D02*
X2129Y613D01*
X197Y612D02*
X199Y612D01*
X285Y612D02*
X287Y612D01*
X473Y612D02*
X475Y612D01*
X560Y612D02*
X562Y612D01*
X748Y612D02*
X750Y612D01*
X836Y612D02*
X838Y612D01*
X1024Y612D02*
X1026Y612D01*
X1111Y612D02*
X1113Y612D01*
X1299Y612D02*
X1301Y612D01*
X1387Y612D02*
X1389Y612D01*
X1575Y612D02*
X1577Y612D01*
X1663Y612D02*
X1664Y612D01*
X1850Y612D02*
X1852Y612D01*
X1938Y612D02*
X1940Y612D01*
X2040Y612D02*
X2042Y612D01*
X2127Y612D02*
X2129Y612D01*
X197Y611D02*
X199Y611D01*
X285Y611D02*
X287Y611D01*
X473Y611D02*
X475Y611D01*
X560Y611D02*
X562Y611D01*
X748Y611D02*
X750Y611D01*
X836Y611D02*
X838Y611D01*
X1024Y611D02*
X1026Y611D01*
X1111Y611D02*
X1113Y611D01*
X1299Y611D02*
X1301Y611D01*
X1387Y611D02*
X1389Y611D01*
X1575Y611D02*
X1577Y611D01*
X1663Y611D02*
X1664Y611D01*
X1850Y611D02*
X1852Y611D01*
X1938Y611D02*
X1940Y611D01*
X2040Y611D02*
X2042Y611D01*
X2127Y611D02*
X2129Y611D01*
X197Y610D02*
X199Y610D01*
X285Y610D02*
X287Y610D01*
X473Y610D02*
X475Y610D01*
X560Y610D02*
X562Y610D01*
X748Y610D02*
X750Y610D01*
X836Y610D02*
X838Y610D01*
X1024Y610D02*
X1026Y610D01*
X1111Y610D02*
X1113Y610D01*
X1299Y610D02*
X1301Y610D01*
X1387Y610D02*
X1389Y610D01*
X1575Y610D02*
X1577Y610D01*
X1663Y610D02*
X1664Y610D01*
X1850Y610D02*
X1852Y610D01*
X1938Y610D02*
X1940Y610D01*
X2040Y610D02*
X2042Y610D01*
X2127Y610D02*
X2129Y610D01*
X197Y609D02*
X199Y609D01*
X285Y609D02*
X287Y609D01*
X473Y609D02*
X475Y609D01*
X560Y609D02*
X562Y609D01*
X748Y609D02*
X750Y609D01*
X836Y609D02*
X838Y609D01*
X1024Y609D02*
X1026Y609D01*
X1111Y609D02*
X1113Y609D01*
X1299Y609D02*
X1301Y609D01*
X1387Y609D02*
X1389Y609D01*
X1575Y609D02*
X1577Y609D01*
X1663Y609D02*
X1664Y609D01*
X1850Y609D02*
X1852Y609D01*
X1938Y609D02*
X1940Y609D01*
X2040Y609D02*
X2042Y609D01*
X2127Y609D02*
X2129Y609D01*
X197Y608D02*
X199Y608D01*
X285Y608D02*
X287Y608D01*
X473Y608D02*
X475Y608D01*
X560Y608D02*
X562Y608D01*
X748Y608D02*
X750Y608D01*
X836Y608D02*
X838Y608D01*
X1024Y608D02*
X1026Y608D01*
X1111Y608D02*
X1113Y608D01*
X1299Y608D02*
X1301Y608D01*
X1387Y608D02*
X1389Y608D01*
X1575Y608D02*
X1577Y608D01*
X1663Y608D02*
X1664Y608D01*
X1850Y608D02*
X1852Y608D01*
X1938Y608D02*
X1940Y608D01*
X2040Y608D02*
X2042Y608D01*
X2127Y608D02*
X2129Y608D01*
X197Y607D02*
X199Y607D01*
X285Y607D02*
X287Y607D01*
X473Y607D02*
X475Y607D01*
X560Y607D02*
X562Y607D01*
X748Y607D02*
X750Y607D01*
X836Y607D02*
X838Y607D01*
X1024Y607D02*
X1026Y607D01*
X1111Y607D02*
X1113Y607D01*
X1299Y607D02*
X1301Y607D01*
X1387Y607D02*
X1389Y607D01*
X1575Y607D02*
X1577Y607D01*
X1663Y607D02*
X1664Y607D01*
X1850Y607D02*
X1852Y607D01*
X1938Y607D02*
X1940Y607D01*
X2040Y607D02*
X2042Y607D01*
X2127Y607D02*
X2129Y607D01*
X197Y606D02*
X199Y606D01*
X285Y606D02*
X287Y606D01*
X473Y606D02*
X475Y606D01*
X560Y606D02*
X562Y606D01*
X748Y606D02*
X750Y606D01*
X836Y606D02*
X838Y606D01*
X1024Y606D02*
X1026Y606D01*
X1111Y606D02*
X1113Y606D01*
X1299Y606D02*
X1301Y606D01*
X1387Y606D02*
X1389Y606D01*
X1575Y606D02*
X1577Y606D01*
X1663Y606D02*
X1664Y606D01*
X1850Y606D02*
X1852Y606D01*
X1938Y606D02*
X1940Y606D01*
X2040Y606D02*
X2042Y606D01*
X2127Y606D02*
X2129Y606D01*
X197Y605D02*
X199Y605D01*
X285Y605D02*
X287Y605D01*
X473Y605D02*
X475Y605D01*
X560Y605D02*
X562Y605D01*
X748Y605D02*
X750Y605D01*
X836Y605D02*
X838Y605D01*
X1024Y605D02*
X1026Y605D01*
X1111Y605D02*
X1113Y605D01*
X1299Y605D02*
X1301Y605D01*
X1387Y605D02*
X1389Y605D01*
X1575Y605D02*
X1577Y605D01*
X1663Y605D02*
X1664Y605D01*
X1850Y605D02*
X1852Y605D01*
X1938Y605D02*
X1940Y605D01*
X2040Y605D02*
X2042Y605D01*
X2127Y605D02*
X2129Y605D01*
X197Y604D02*
X199Y604D01*
X285Y604D02*
X287Y604D01*
X473Y604D02*
X475Y604D01*
X560Y604D02*
X562Y604D01*
X748Y604D02*
X750Y604D01*
X836Y604D02*
X838Y604D01*
X1024Y604D02*
X1026Y604D01*
X1111Y604D02*
X1113Y604D01*
X1299Y604D02*
X1301Y604D01*
X1387Y604D02*
X1389Y604D01*
X1575Y604D02*
X1577Y604D01*
X1663Y604D02*
X1664Y604D01*
X1850Y604D02*
X1852Y604D01*
X1938Y604D02*
X1940Y604D01*
X2040Y604D02*
X2042Y604D01*
X2127Y604D02*
X2129Y604D01*
X197Y603D02*
X199Y603D01*
X285Y603D02*
X287Y603D01*
X473Y603D02*
X475Y603D01*
X560Y603D02*
X562Y603D01*
X748Y603D02*
X750Y603D01*
X836Y603D02*
X838Y603D01*
X1024Y603D02*
X1026Y603D01*
X1111Y603D02*
X1113Y603D01*
X1299Y603D02*
X1301Y603D01*
X1387Y603D02*
X1389Y603D01*
X1575Y603D02*
X1577Y603D01*
X1663Y603D02*
X1664Y603D01*
X1850Y603D02*
X1852Y603D01*
X1938Y603D02*
X1940Y603D01*
X2040Y603D02*
X2042Y603D01*
X2127Y603D02*
X2129Y603D01*
X197Y602D02*
X199Y602D01*
X285Y602D02*
X287Y602D01*
X473Y602D02*
X475Y602D01*
X560Y602D02*
X562Y602D01*
X748Y602D02*
X750Y602D01*
X836Y602D02*
X838Y602D01*
X1024Y602D02*
X1026Y602D01*
X1111Y602D02*
X1113Y602D01*
X1299Y602D02*
X1301Y602D01*
X1387Y602D02*
X1389Y602D01*
X1575Y602D02*
X1577Y602D01*
X1663Y602D02*
X1664Y602D01*
X1850Y602D02*
X1852Y602D01*
X1938Y602D02*
X1940Y602D01*
X2040Y602D02*
X2042Y602D01*
X2127Y602D02*
X2129Y602D01*
X197Y601D02*
X199Y601D01*
X285Y601D02*
X287Y601D01*
X473Y601D02*
X475Y601D01*
X560Y601D02*
X562Y601D01*
X748Y601D02*
X750Y601D01*
X836Y601D02*
X838Y601D01*
X1024Y601D02*
X1026Y601D01*
X1111Y601D02*
X1113Y601D01*
X1299Y601D02*
X1301Y601D01*
X1387Y601D02*
X1389Y601D01*
X1575Y601D02*
X1577Y601D01*
X1663Y601D02*
X1664Y601D01*
X1850Y601D02*
X1852Y601D01*
X1938Y601D02*
X1940Y601D01*
X2040Y601D02*
X2042Y601D01*
X2127Y601D02*
X2129Y601D01*
X197Y600D02*
X199Y600D01*
X285Y600D02*
X287Y600D01*
X473Y600D02*
X475Y600D01*
X560Y600D02*
X562Y600D01*
X748Y600D02*
X750Y600D01*
X836Y600D02*
X838Y600D01*
X1024Y600D02*
X1026Y600D01*
X1111Y600D02*
X1113Y600D01*
X1299Y600D02*
X1301Y600D01*
X1387Y600D02*
X1389Y600D01*
X1575Y600D02*
X1577Y600D01*
X1663Y600D02*
X1664Y600D01*
X1850Y600D02*
X1852Y600D01*
X1938Y600D02*
X1940Y600D01*
X2040Y600D02*
X2042Y600D01*
X2127Y600D02*
X2129Y600D01*
X197Y599D02*
X199Y599D01*
X285Y599D02*
X287Y599D01*
X473Y599D02*
X475Y599D01*
X560Y599D02*
X562Y599D01*
X748Y599D02*
X750Y599D01*
X836Y599D02*
X838Y599D01*
X1024Y599D02*
X1026Y599D01*
X1111Y599D02*
X1113Y599D01*
X1299Y599D02*
X1301Y599D01*
X1387Y599D02*
X1389Y599D01*
X1575Y599D02*
X1577Y599D01*
X1663Y599D02*
X1664Y599D01*
X1850Y599D02*
X1852Y599D01*
X1938Y599D02*
X1940Y599D01*
X2040Y599D02*
X2042Y599D01*
X2127Y599D02*
X2129Y599D01*
X197Y598D02*
X199Y598D01*
X285Y598D02*
X287Y598D01*
X473Y598D02*
X475Y598D01*
X560Y598D02*
X562Y598D01*
X748Y598D02*
X750Y598D01*
X836Y598D02*
X838Y598D01*
X1024Y598D02*
X1026Y598D01*
X1111Y598D02*
X1113Y598D01*
X1299Y598D02*
X1301Y598D01*
X1387Y598D02*
X1389Y598D01*
X1575Y598D02*
X1577Y598D01*
X1663Y598D02*
X1664Y598D01*
X1850Y598D02*
X1852Y598D01*
X1938Y598D02*
X1940Y598D01*
X2040Y598D02*
X2042Y598D01*
X2127Y598D02*
X2129Y598D01*
X197Y597D02*
X199Y597D01*
X285Y597D02*
X287Y597D01*
X473Y597D02*
X475Y597D01*
X560Y597D02*
X562Y597D01*
X748Y597D02*
X750Y597D01*
X836Y597D02*
X838Y597D01*
X1024Y597D02*
X1026Y597D01*
X1111Y597D02*
X1113Y597D01*
X1299Y597D02*
X1301Y597D01*
X1387Y597D02*
X1389Y597D01*
X1575Y597D02*
X1577Y597D01*
X1663Y597D02*
X1664Y597D01*
X1850Y597D02*
X1852Y597D01*
X1938Y597D02*
X1940Y597D01*
X2040Y597D02*
X2042Y597D01*
X2127Y597D02*
X2129Y597D01*
X197Y596D02*
X199Y596D01*
X285Y596D02*
X287Y596D01*
X473Y596D02*
X475Y596D01*
X560Y596D02*
X562Y596D01*
X748Y596D02*
X750Y596D01*
X836Y596D02*
X838Y596D01*
X1024Y596D02*
X1026Y596D01*
X1111Y596D02*
X1113Y596D01*
X1299Y596D02*
X1301Y596D01*
X1387Y596D02*
X1389Y596D01*
X1575Y596D02*
X1577Y596D01*
X1663Y596D02*
X1664Y596D01*
X1850Y596D02*
X1852Y596D01*
X1938Y596D02*
X1940Y596D01*
X2040Y596D02*
X2042Y596D01*
X2127Y596D02*
X2129Y596D01*
X197Y595D02*
X199Y595D01*
X285Y595D02*
X287Y595D01*
X473Y595D02*
X475Y595D01*
X560Y595D02*
X562Y595D01*
X748Y595D02*
X750Y595D01*
X836Y595D02*
X838Y595D01*
X1024Y595D02*
X1026Y595D01*
X1111Y595D02*
X1113Y595D01*
X1299Y595D02*
X1301Y595D01*
X1387Y595D02*
X1389Y595D01*
X1575Y595D02*
X1577Y595D01*
X1663Y595D02*
X1664Y595D01*
X1850Y595D02*
X1852Y595D01*
X1938Y595D02*
X1940Y595D01*
X2040Y595D02*
X2042Y595D01*
X2127Y595D02*
X2129Y595D01*
X197Y594D02*
X199Y594D01*
X285Y594D02*
X287Y594D01*
X473Y594D02*
X475Y594D01*
X560Y594D02*
X562Y594D01*
X748Y594D02*
X750Y594D01*
X836Y594D02*
X838Y594D01*
X1024Y594D02*
X1026Y594D01*
X1111Y594D02*
X1113Y594D01*
X1299Y594D02*
X1301Y594D01*
X1387Y594D02*
X1389Y594D01*
X1575Y594D02*
X1577Y594D01*
X1663Y594D02*
X1664Y594D01*
X1850Y594D02*
X1852Y594D01*
X1938Y594D02*
X1940Y594D01*
X2040Y594D02*
X2042Y594D01*
X2127Y594D02*
X2129Y594D01*
X197Y593D02*
X199Y593D01*
X285Y593D02*
X287Y593D01*
X473Y593D02*
X475Y593D01*
X560Y593D02*
X562Y593D01*
X748Y593D02*
X750Y593D01*
X836Y593D02*
X838Y593D01*
X1024Y593D02*
X1026Y593D01*
X1111Y593D02*
X1113Y593D01*
X1299Y593D02*
X1301Y593D01*
X1387Y593D02*
X1389Y593D01*
X1575Y593D02*
X1577Y593D01*
X1663Y593D02*
X1664Y593D01*
X1850Y593D02*
X1852Y593D01*
X1938Y593D02*
X1940Y593D01*
X2040Y593D02*
X2042Y593D01*
X2127Y593D02*
X2129Y593D01*
X197Y592D02*
X199Y592D01*
X285Y592D02*
X287Y592D01*
X473Y592D02*
X475Y592D01*
X560Y592D02*
X562Y592D01*
X748Y592D02*
X750Y592D01*
X836Y592D02*
X838Y592D01*
X1024Y592D02*
X1026Y592D01*
X1111Y592D02*
X1113Y592D01*
X1299Y592D02*
X1301Y592D01*
X1387Y592D02*
X1389Y592D01*
X1575Y592D02*
X1577Y592D01*
X1663Y592D02*
X1664Y592D01*
X1850Y592D02*
X1852Y592D01*
X1938Y592D02*
X1940Y592D01*
X2040Y592D02*
X2042Y592D01*
X2127Y592D02*
X2129Y592D01*
X197Y591D02*
X199Y591D01*
X285Y591D02*
X287Y591D01*
X473Y591D02*
X475Y591D01*
X560Y591D02*
X562Y591D01*
X748Y591D02*
X750Y591D01*
X836Y591D02*
X838Y591D01*
X1024Y591D02*
X1026Y591D01*
X1111Y591D02*
X1113Y591D01*
X1299Y591D02*
X1301Y591D01*
X1387Y591D02*
X1389Y591D01*
X1575Y591D02*
X1577Y591D01*
X1663Y591D02*
X1664Y591D01*
X1850Y591D02*
X1852Y591D01*
X1938Y591D02*
X1940Y591D01*
X2040Y591D02*
X2042Y591D01*
X2127Y591D02*
X2129Y591D01*
X197Y590D02*
X199Y590D01*
X285Y590D02*
X287Y590D01*
X473Y590D02*
X476Y590D01*
X559Y590D02*
X562Y590D01*
X748Y590D02*
X751Y590D01*
X835Y590D02*
X838Y590D01*
X1024Y590D02*
X1027Y590D01*
X1110Y590D02*
X1113Y590D01*
X1299Y590D02*
X1301Y590D01*
X1387Y590D02*
X1389Y590D01*
X1575Y590D02*
X1577Y590D01*
X1663Y590D02*
X1664Y590D01*
X1850Y590D02*
X1852Y590D01*
X1938Y590D02*
X1940Y590D01*
X2040Y590D02*
X2042Y590D01*
X2127Y590D02*
X2129Y590D01*
X197Y589D02*
X199Y589D01*
X285Y589D02*
X287Y589D01*
X473Y589D02*
X476Y589D01*
X559Y589D02*
X562Y589D01*
X748Y589D02*
X751Y589D01*
X835Y589D02*
X838Y589D01*
X1024Y589D02*
X1027Y589D01*
X1110Y589D02*
X1113Y589D01*
X1299Y589D02*
X1301Y589D01*
X1387Y589D02*
X1389Y589D01*
X1575Y589D02*
X1577Y589D01*
X1663Y589D02*
X1664Y589D01*
X1850Y589D02*
X1852Y589D01*
X1938Y589D02*
X1940Y589D01*
X2040Y589D02*
X2042Y589D01*
X2127Y589D02*
X2129Y589D01*
X197Y588D02*
X199Y588D01*
X285Y588D02*
X287Y588D01*
X473Y588D02*
X476Y588D01*
X559Y588D02*
X562Y588D01*
X748Y588D02*
X751Y588D01*
X835Y588D02*
X838Y588D01*
X1024Y588D02*
X1027Y588D01*
X1110Y588D02*
X1113Y588D01*
X1299Y588D02*
X1301Y588D01*
X1387Y588D02*
X1389Y588D01*
X1575Y588D02*
X1577Y588D01*
X1663Y588D02*
X1664Y588D01*
X1850Y588D02*
X1852Y588D01*
X1938Y588D02*
X1940Y588D01*
X2040Y588D02*
X2042Y588D01*
X2127Y588D02*
X2129Y588D01*
X197Y587D02*
X199Y587D01*
X285Y587D02*
X287Y587D01*
X473Y587D02*
X476Y587D01*
X559Y587D02*
X562Y587D01*
X748Y587D02*
X751Y587D01*
X835Y587D02*
X838Y587D01*
X1024Y587D02*
X1027Y587D01*
X1110Y587D02*
X1113Y587D01*
X1299Y587D02*
X1301Y587D01*
X1387Y587D02*
X1389Y587D01*
X1575Y587D02*
X1577Y587D01*
X1662Y587D02*
X1664Y587D01*
X1850Y587D02*
X1852Y587D01*
X1938Y587D02*
X1940Y587D01*
X2040Y587D02*
X2043Y587D01*
X2126Y587D02*
X2129Y587D01*
X197Y586D02*
X200Y586D01*
X284Y586D02*
X287Y586D01*
X473Y586D02*
X476Y586D01*
X559Y586D02*
X562Y586D01*
X748Y586D02*
X751Y586D01*
X835Y586D02*
X838Y586D01*
X1024Y586D02*
X1027Y586D01*
X1110Y586D02*
X1113Y586D01*
X1299Y586D02*
X1302Y586D01*
X1386Y586D02*
X1389Y586D01*
X1575Y586D02*
X1578Y586D01*
X1661Y586D02*
X1664Y586D01*
X1850Y586D02*
X1853Y586D01*
X1937Y586D02*
X1940Y586D01*
X2040Y586D02*
X2043Y586D01*
X2126Y586D02*
X2129Y586D01*
X197Y585D02*
X200Y585D01*
X284Y585D02*
X287Y585D01*
X473Y585D02*
X476Y585D01*
X559Y585D02*
X562Y585D01*
X748Y585D02*
X751Y585D01*
X835Y585D02*
X838Y585D01*
X1024Y585D02*
X1027Y585D01*
X1110Y585D02*
X1113Y585D01*
X1299Y585D02*
X1302Y585D01*
X1386Y585D02*
X1389Y585D01*
X1575Y585D02*
X1578Y585D01*
X1661Y585D02*
X1664Y585D01*
X1850Y585D02*
X1853Y585D01*
X1937Y585D02*
X1940Y585D01*
X2040Y585D02*
X2043Y585D01*
X2126Y585D02*
X2129Y585D01*
X197Y584D02*
X200Y584D01*
X284Y584D02*
X287Y584D01*
X473Y584D02*
X476Y584D01*
X559Y584D02*
X562Y584D01*
X748Y584D02*
X751Y584D01*
X835Y584D02*
X838Y584D01*
X1024Y584D02*
X1027Y584D01*
X1110Y584D02*
X1113Y584D01*
X1299Y584D02*
X1302Y584D01*
X1386Y584D02*
X1389Y584D01*
X1575Y584D02*
X1578Y584D01*
X1661Y584D02*
X1664Y584D01*
X1850Y584D02*
X1853Y584D01*
X1937Y584D02*
X1940Y584D01*
X2040Y584D02*
X2043Y584D01*
X2126Y584D02*
X2129Y584D01*
X197Y583D02*
X200Y583D01*
X284Y583D02*
X287Y583D01*
X473Y583D02*
X476Y583D01*
X559Y583D02*
X562Y583D01*
X748Y583D02*
X751Y583D01*
X835Y583D02*
X838Y583D01*
X1024Y583D02*
X1027Y583D01*
X1110Y583D02*
X1113Y583D01*
X1299Y583D02*
X1302Y583D01*
X1386Y583D02*
X1389Y583D01*
X1575Y583D02*
X1578Y583D01*
X1661Y583D02*
X1664Y583D01*
X1850Y583D02*
X1853Y583D01*
X1937Y583D02*
X1940Y583D01*
X2040Y583D02*
X2043Y583D01*
X2126Y583D02*
X2129Y583D01*
X197Y582D02*
X200Y582D01*
X284Y582D02*
X287Y582D01*
X473Y582D02*
X476Y582D01*
X559Y582D02*
X562Y582D01*
X748Y582D02*
X751Y582D01*
X835Y582D02*
X838Y582D01*
X1024Y582D02*
X1027Y582D01*
X1110Y582D02*
X1113Y582D01*
X1299Y582D02*
X1302Y582D01*
X1386Y582D02*
X1389Y582D01*
X1575Y582D02*
X1578Y582D01*
X1661Y582D02*
X1664Y582D01*
X1850Y582D02*
X1853Y582D01*
X1937Y582D02*
X1940Y582D01*
X2040Y582D02*
X2043Y582D01*
X2126Y582D02*
X2129Y582D01*
X197Y581D02*
X200Y581D01*
X284Y581D02*
X287Y581D01*
X473Y581D02*
X476Y581D01*
X559Y581D02*
X562Y581D01*
X748Y581D02*
X751Y581D01*
X835Y581D02*
X838Y581D01*
X1024Y581D02*
X1027Y581D01*
X1110Y581D02*
X1113Y581D01*
X1299Y581D02*
X1302Y581D01*
X1386Y581D02*
X1389Y581D01*
X1575Y581D02*
X1578Y581D01*
X1661Y581D02*
X1664Y581D01*
X1850Y581D02*
X1853Y581D01*
X1937Y581D02*
X1940Y581D01*
X2040Y581D02*
X2043Y581D01*
X2126Y581D02*
X2129Y581D01*
X197Y580D02*
X200Y580D01*
X284Y580D02*
X287Y580D01*
X473Y580D02*
X476Y580D01*
X559Y580D02*
X562Y580D01*
X748Y580D02*
X751Y580D01*
X835Y580D02*
X838Y580D01*
X1024Y580D02*
X1027Y580D01*
X1110Y580D02*
X1113Y580D01*
X1299Y580D02*
X1302Y580D01*
X1386Y580D02*
X1389Y580D01*
X1575Y580D02*
X1578Y580D01*
X1661Y580D02*
X1664Y580D01*
X1850Y580D02*
X1853Y580D01*
X1937Y580D02*
X1940Y580D01*
X2040Y580D02*
X2043Y580D01*
X2126Y580D02*
X2129Y580D01*
X197Y579D02*
X200Y579D01*
X284Y579D02*
X287Y579D01*
X473Y579D02*
X476Y579D01*
X559Y579D02*
X562Y579D01*
X748Y579D02*
X751Y579D01*
X835Y579D02*
X838Y579D01*
X1024Y579D02*
X1027Y579D01*
X1110Y579D02*
X1113Y579D01*
X1299Y579D02*
X1302Y579D01*
X1386Y579D02*
X1389Y579D01*
X1575Y579D02*
X1578Y579D01*
X1661Y579D02*
X1664Y579D01*
X1850Y579D02*
X1853Y579D01*
X1937Y579D02*
X1940Y579D01*
X2040Y579D02*
X2043Y579D01*
X2126Y579D02*
X2129Y579D01*
X197Y578D02*
X200Y578D01*
X284Y578D02*
X287Y578D01*
X473Y578D02*
X476Y578D01*
X559Y578D02*
X562Y578D01*
X748Y578D02*
X751Y578D01*
X835Y578D02*
X838Y578D01*
X1024Y578D02*
X1027Y578D01*
X1110Y578D02*
X1113Y578D01*
X1299Y578D02*
X1302Y578D01*
X1386Y578D02*
X1389Y578D01*
X1575Y578D02*
X1578Y578D01*
X1661Y578D02*
X1664Y578D01*
X1850Y578D02*
X1853Y578D01*
X1937Y578D02*
X1940Y578D01*
X2040Y578D02*
X2043Y578D01*
X2126Y578D02*
X2129Y578D01*
X197Y577D02*
X200Y577D01*
X284Y577D02*
X287Y577D01*
X473Y577D02*
X476Y577D01*
X559Y577D02*
X562Y577D01*
X748Y577D02*
X751Y577D01*
X835Y577D02*
X838Y577D01*
X1024Y577D02*
X1027Y577D01*
X1110Y577D02*
X1113Y577D01*
X1299Y577D02*
X1302Y577D01*
X1386Y577D02*
X1389Y577D01*
X1575Y577D02*
X1578Y577D01*
X1661Y577D02*
X1664Y577D01*
X1850Y577D02*
X1853Y577D01*
X1937Y577D02*
X1940Y577D01*
X2040Y577D02*
X2043Y577D01*
X2126Y577D02*
X2129Y577D01*
X197Y576D02*
X200Y576D01*
X284Y576D02*
X287Y576D01*
X473Y576D02*
X476Y576D01*
X559Y576D02*
X562Y576D01*
X748Y576D02*
X751Y576D01*
X835Y576D02*
X838Y576D01*
X1024Y576D02*
X1027Y576D01*
X1110Y576D02*
X1113Y576D01*
X1299Y576D02*
X1302Y576D01*
X1386Y576D02*
X1389Y576D01*
X1575Y576D02*
X1578Y576D01*
X1661Y576D02*
X1664Y576D01*
X1850Y576D02*
X1853Y576D01*
X1937Y576D02*
X1940Y576D01*
X2040Y576D02*
X2043Y576D01*
X2126Y576D02*
X2129Y576D01*
X197Y575D02*
X200Y575D01*
X284Y575D02*
X287Y575D01*
X473Y575D02*
X476Y575D01*
X559Y575D02*
X562Y575D01*
X748Y575D02*
X751Y575D01*
X835Y575D02*
X838Y575D01*
X1024Y575D02*
X1027Y575D01*
X1110Y575D02*
X1113Y575D01*
X1299Y575D02*
X1302Y575D01*
X1386Y575D02*
X1389Y575D01*
X1575Y575D02*
X1578Y575D01*
X1661Y575D02*
X1664Y575D01*
X1850Y575D02*
X1853Y575D01*
X1937Y575D02*
X1940Y575D01*
X2040Y575D02*
X2043Y575D01*
X2126Y575D02*
X2129Y575D01*
X197Y574D02*
X200Y574D01*
X284Y574D02*
X287Y574D01*
X473Y574D02*
X476Y574D01*
X559Y574D02*
X562Y574D01*
X748Y574D02*
X751Y574D01*
X835Y574D02*
X838Y574D01*
X1024Y574D02*
X1027Y574D01*
X1110Y574D02*
X1113Y574D01*
X1299Y574D02*
X1302Y574D01*
X1386Y574D02*
X1389Y574D01*
X1575Y574D02*
X1578Y574D01*
X1661Y574D02*
X1664Y574D01*
X1850Y574D02*
X1853Y574D01*
X1937Y574D02*
X1940Y574D01*
X2040Y574D02*
X2043Y574D01*
X2126Y574D02*
X2129Y574D01*
X197Y573D02*
X200Y573D01*
X284Y573D02*
X287Y573D01*
X473Y573D02*
X476Y573D01*
X559Y573D02*
X562Y573D01*
X748Y573D02*
X751Y573D01*
X835Y573D02*
X838Y573D01*
X1024Y573D02*
X1027Y573D01*
X1110Y573D02*
X1113Y573D01*
X1299Y573D02*
X1302Y573D01*
X1386Y573D02*
X1389Y573D01*
X1575Y573D02*
X1578Y573D01*
X1661Y573D02*
X1664Y573D01*
X1850Y573D02*
X1853Y573D01*
X1937Y573D02*
X1940Y573D01*
X2040Y573D02*
X2043Y573D01*
X2126Y573D02*
X2129Y573D01*
X197Y572D02*
X200Y572D01*
X284Y572D02*
X287Y572D01*
X473Y572D02*
X476Y572D01*
X559Y572D02*
X562Y572D01*
X748Y572D02*
X751Y572D01*
X835Y572D02*
X838Y572D01*
X1024Y572D02*
X1027Y572D01*
X1110Y572D02*
X1113Y572D01*
X1299Y572D02*
X1302Y572D01*
X1386Y572D02*
X1389Y572D01*
X1575Y572D02*
X1578Y572D01*
X1661Y572D02*
X1664Y572D01*
X1850Y572D02*
X1853Y572D01*
X1937Y572D02*
X1940Y572D01*
X2040Y572D02*
X2043Y572D01*
X2126Y572D02*
X2129Y572D01*
X197Y571D02*
X200Y571D01*
X284Y571D02*
X287Y571D01*
X473Y571D02*
X476Y571D01*
X559Y571D02*
X562Y571D01*
X748Y571D02*
X751Y571D01*
X835Y571D02*
X838Y571D01*
X1024Y571D02*
X1027Y571D01*
X1110Y571D02*
X1113Y571D01*
X1299Y571D02*
X1302Y571D01*
X1386Y571D02*
X1389Y571D01*
X1575Y571D02*
X1578Y571D01*
X1661Y571D02*
X1664Y571D01*
X1850Y571D02*
X1853Y571D01*
X1937Y571D02*
X1940Y571D01*
X2040Y571D02*
X2043Y571D01*
X2126Y571D02*
X2129Y571D01*
X197Y570D02*
X200Y570D01*
X284Y570D02*
X287Y570D01*
X473Y570D02*
X476Y570D01*
X559Y570D02*
X562Y570D01*
X748Y570D02*
X751Y570D01*
X835Y570D02*
X838Y570D01*
X1024Y570D02*
X1027Y570D01*
X1110Y570D02*
X1113Y570D01*
X1299Y570D02*
X1302Y570D01*
X1386Y570D02*
X1389Y570D01*
X1575Y570D02*
X1578Y570D01*
X1661Y570D02*
X1664Y570D01*
X1850Y570D02*
X1853Y570D01*
X1937Y570D02*
X1940Y570D01*
X2040Y570D02*
X2043Y570D01*
X2126Y570D02*
X2129Y570D01*
X197Y569D02*
X200Y569D01*
X284Y569D02*
X287Y569D01*
X473Y569D02*
X476Y569D01*
X559Y569D02*
X562Y569D01*
X748Y569D02*
X751Y569D01*
X835Y569D02*
X838Y569D01*
X1024Y569D02*
X1027Y569D01*
X1110Y569D02*
X1113Y569D01*
X1299Y569D02*
X1302Y569D01*
X1386Y569D02*
X1389Y569D01*
X1575Y569D02*
X1578Y569D01*
X1661Y569D02*
X1664Y569D01*
X1850Y569D02*
X1853Y569D01*
X1937Y569D02*
X1940Y569D01*
X2040Y569D02*
X2043Y569D01*
X2126Y569D02*
X2129Y569D01*
X197Y568D02*
X200Y568D01*
X284Y568D02*
X287Y568D01*
X473Y568D02*
X476Y568D01*
X559Y568D02*
X562Y568D01*
X748Y568D02*
X751Y568D01*
X835Y568D02*
X838Y568D01*
X1024Y568D02*
X1027Y568D01*
X1110Y568D02*
X1113Y568D01*
X1299Y568D02*
X1302Y568D01*
X1386Y568D02*
X1389Y568D01*
X1575Y568D02*
X1578Y568D01*
X1661Y568D02*
X1664Y568D01*
X1850Y568D02*
X1853Y568D01*
X1937Y568D02*
X1940Y568D01*
X2040Y568D02*
X2043Y568D01*
X2126Y568D02*
X2129Y568D01*
X197Y567D02*
X200Y567D01*
X284Y567D02*
X287Y567D01*
X473Y567D02*
X476Y567D01*
X559Y567D02*
X562Y567D01*
X748Y567D02*
X751Y567D01*
X835Y567D02*
X838Y567D01*
X1024Y567D02*
X1027Y567D01*
X1110Y567D02*
X1113Y567D01*
X1299Y567D02*
X1302Y567D01*
X1386Y567D02*
X1389Y567D01*
X1575Y567D02*
X1578Y567D01*
X1661Y567D02*
X1664Y567D01*
X1850Y567D02*
X1853Y567D01*
X1937Y567D02*
X1940Y567D01*
X2040Y567D02*
X2043Y567D01*
X2126Y567D02*
X2129Y567D01*
X197Y566D02*
X200Y566D01*
X284Y566D02*
X287Y566D01*
X473Y566D02*
X476Y566D01*
X559Y566D02*
X562Y566D01*
X748Y566D02*
X751Y566D01*
X835Y566D02*
X838Y566D01*
X1024Y566D02*
X1027Y566D01*
X1110Y566D02*
X1113Y566D01*
X1299Y566D02*
X1302Y566D01*
X1386Y566D02*
X1389Y566D01*
X1575Y566D02*
X1578Y566D01*
X1661Y566D02*
X1664Y566D01*
X1850Y566D02*
X1853Y566D01*
X1937Y566D02*
X1940Y566D01*
X2040Y566D02*
X2043Y566D01*
X2126Y566D02*
X2129Y566D01*
X197Y565D02*
X200Y565D01*
X284Y565D02*
X287Y565D01*
X473Y565D02*
X476Y565D01*
X559Y565D02*
X562Y565D01*
X748Y565D02*
X751Y565D01*
X835Y565D02*
X838Y565D01*
X1024Y565D02*
X1027Y565D01*
X1110Y565D02*
X1113Y565D01*
X1299Y565D02*
X1302Y565D01*
X1386Y565D02*
X1389Y565D01*
X1575Y565D02*
X1578Y565D01*
X1661Y565D02*
X1664Y565D01*
X1850Y565D02*
X1853Y565D01*
X1937Y565D02*
X1940Y565D01*
X2040Y565D02*
X2043Y565D01*
X2126Y565D02*
X2129Y565D01*
X197Y564D02*
X200Y564D01*
X284Y564D02*
X287Y564D01*
X473Y564D02*
X476Y564D01*
X559Y564D02*
X562Y564D01*
X748Y564D02*
X751Y564D01*
X835Y564D02*
X838Y564D01*
X1024Y564D02*
X1027Y564D01*
X1110Y564D02*
X1113Y564D01*
X1299Y564D02*
X1302Y564D01*
X1386Y564D02*
X1389Y564D01*
X1575Y564D02*
X1578Y564D01*
X1661Y564D02*
X1664Y564D01*
X1850Y564D02*
X1853Y564D01*
X1937Y564D02*
X1940Y564D01*
X2040Y564D02*
X2043Y564D01*
X2126Y564D02*
X2129Y564D01*
X197Y563D02*
X200Y563D01*
X284Y563D02*
X287Y563D01*
X473Y563D02*
X476Y563D01*
X559Y563D02*
X562Y563D01*
X748Y563D02*
X751Y563D01*
X835Y563D02*
X838Y563D01*
X1024Y563D02*
X1027Y563D01*
X1110Y563D02*
X1113Y563D01*
X1299Y563D02*
X1302Y563D01*
X1386Y563D02*
X1389Y563D01*
X1575Y563D02*
X1578Y563D01*
X1661Y563D02*
X1664Y563D01*
X1850Y563D02*
X1853Y563D01*
X1937Y563D02*
X1940Y563D01*
X2040Y563D02*
X2043Y563D01*
X2126Y563D02*
X2129Y563D01*
X197Y562D02*
X200Y562D01*
X284Y562D02*
X287Y562D01*
X473Y562D02*
X476Y562D01*
X559Y562D02*
X562Y562D01*
X748Y562D02*
X751Y562D01*
X835Y562D02*
X838Y562D01*
X1024Y562D02*
X1027Y562D01*
X1110Y562D02*
X1113Y562D01*
X1299Y562D02*
X1302Y562D01*
X1386Y562D02*
X1389Y562D01*
X1575Y562D02*
X1578Y562D01*
X1661Y562D02*
X1664Y562D01*
X1850Y562D02*
X1853Y562D01*
X1937Y562D02*
X1940Y562D01*
X2040Y562D02*
X2043Y562D01*
X2126Y562D02*
X2129Y562D01*
X197Y561D02*
X200Y561D01*
X284Y561D02*
X287Y561D01*
X473Y561D02*
X476Y561D01*
X559Y561D02*
X562Y561D01*
X748Y561D02*
X751Y561D01*
X835Y561D02*
X838Y561D01*
X1024Y561D02*
X1027Y561D01*
X1110Y561D02*
X1113Y561D01*
X1299Y561D02*
X1302Y561D01*
X1386Y561D02*
X1389Y561D01*
X1575Y561D02*
X1578Y561D01*
X1661Y561D02*
X1664Y561D01*
X1850Y561D02*
X1853Y561D01*
X1937Y561D02*
X1940Y561D01*
X2040Y561D02*
X2043Y561D01*
X2126Y561D02*
X2129Y561D01*
X197Y560D02*
X200Y560D01*
X284Y560D02*
X287Y560D01*
X473Y560D02*
X476Y560D01*
X559Y560D02*
X562Y560D01*
X748Y560D02*
X751Y560D01*
X835Y560D02*
X838Y560D01*
X1024Y560D02*
X1027Y560D01*
X1110Y560D02*
X1113Y560D01*
X1299Y560D02*
X1302Y560D01*
X1386Y560D02*
X1389Y560D01*
X1575Y560D02*
X1578Y560D01*
X1661Y560D02*
X1664Y560D01*
X1850Y560D02*
X1853Y560D01*
X1937Y560D02*
X1940Y560D01*
X2040Y560D02*
X2043Y560D01*
X2126Y560D02*
X2129Y560D01*
X197Y559D02*
X200Y559D01*
X284Y559D02*
X287Y559D01*
X473Y559D02*
X476Y559D01*
X559Y559D02*
X562Y559D01*
X748Y559D02*
X751Y559D01*
X835Y559D02*
X838Y559D01*
X1024Y559D02*
X1027Y559D01*
X1110Y559D02*
X1113Y559D01*
X1299Y559D02*
X1302Y559D01*
X1386Y559D02*
X1389Y559D01*
X1575Y559D02*
X1578Y559D01*
X1661Y559D02*
X1664Y559D01*
X1850Y559D02*
X1853Y559D01*
X1937Y559D02*
X1940Y559D01*
X2040Y559D02*
X2043Y559D01*
X2126Y559D02*
X2129Y559D01*
X197Y558D02*
X200Y558D01*
X284Y558D02*
X287Y558D01*
X473Y558D02*
X476Y558D01*
X559Y558D02*
X562Y558D01*
X748Y558D02*
X751Y558D01*
X835Y558D02*
X838Y558D01*
X1024Y558D02*
X1027Y558D01*
X1110Y558D02*
X1113Y558D01*
X1299Y558D02*
X1302Y558D01*
X1386Y558D02*
X1389Y558D01*
X1575Y558D02*
X1578Y558D01*
X1661Y558D02*
X1664Y558D01*
X1850Y558D02*
X1853Y558D01*
X1937Y558D02*
X1940Y558D01*
X2040Y558D02*
X2043Y558D01*
X2126Y558D02*
X2129Y558D01*
X197Y557D02*
X200Y557D01*
X284Y557D02*
X287Y557D01*
X473Y557D02*
X476Y557D01*
X559Y557D02*
X562Y557D01*
X748Y557D02*
X751Y557D01*
X835Y557D02*
X838Y557D01*
X1024Y557D02*
X1027Y557D01*
X1110Y557D02*
X1113Y557D01*
X1299Y557D02*
X1302Y557D01*
X1386Y557D02*
X1389Y557D01*
X1575Y557D02*
X1578Y557D01*
X1661Y557D02*
X1664Y557D01*
X1850Y557D02*
X1853Y557D01*
X1937Y557D02*
X1940Y557D01*
X2040Y557D02*
X2043Y557D01*
X2126Y557D02*
X2129Y557D01*
X197Y556D02*
X200Y556D01*
X284Y556D02*
X287Y556D01*
X473Y556D02*
X476Y556D01*
X559Y556D02*
X562Y556D01*
X748Y556D02*
X751Y556D01*
X835Y556D02*
X838Y556D01*
X1024Y556D02*
X1027Y556D01*
X1110Y556D02*
X1113Y556D01*
X1299Y556D02*
X1302Y556D01*
X1386Y556D02*
X1389Y556D01*
X1575Y556D02*
X1578Y556D01*
X1661Y556D02*
X1664Y556D01*
X1850Y556D02*
X1853Y556D01*
X1937Y556D02*
X1940Y556D01*
X2040Y556D02*
X2043Y556D01*
X2126Y556D02*
X2129Y556D01*
X197Y555D02*
X200Y555D01*
X284Y555D02*
X287Y555D01*
X473Y555D02*
X476Y555D01*
X559Y555D02*
X562Y555D01*
X748Y555D02*
X751Y555D01*
X835Y555D02*
X838Y555D01*
X1024Y555D02*
X1027Y555D01*
X1110Y555D02*
X1113Y555D01*
X1299Y555D02*
X1302Y555D01*
X1386Y555D02*
X1389Y555D01*
X1575Y555D02*
X1578Y555D01*
X1661Y555D02*
X1664Y555D01*
X1850Y555D02*
X1853Y555D01*
X1937Y555D02*
X1940Y555D01*
X2040Y555D02*
X2043Y555D01*
X2126Y555D02*
X2129Y555D01*
X197Y554D02*
X200Y554D01*
X284Y554D02*
X287Y554D01*
X473Y554D02*
X476Y554D01*
X559Y554D02*
X562Y554D01*
X748Y554D02*
X751Y554D01*
X835Y554D02*
X838Y554D01*
X1024Y554D02*
X1027Y554D01*
X1110Y554D02*
X1113Y554D01*
X1299Y554D02*
X1302Y554D01*
X1386Y554D02*
X1389Y554D01*
X1575Y554D02*
X1578Y554D01*
X1661Y554D02*
X1664Y554D01*
X1850Y554D02*
X1853Y554D01*
X1937Y554D02*
X1940Y554D01*
X2040Y554D02*
X2043Y554D01*
X2126Y554D02*
X2129Y554D01*
X197Y553D02*
X200Y553D01*
X284Y553D02*
X287Y553D01*
X473Y553D02*
X476Y553D01*
X559Y553D02*
X562Y553D01*
X748Y553D02*
X751Y553D01*
X835Y553D02*
X838Y553D01*
X1024Y553D02*
X1027Y553D01*
X1110Y553D02*
X1113Y553D01*
X1299Y553D02*
X1302Y553D01*
X1386Y553D02*
X1389Y553D01*
X1575Y553D02*
X1578Y553D01*
X1661Y553D02*
X1664Y553D01*
X1850Y553D02*
X1853Y553D01*
X1937Y553D02*
X1940Y553D01*
X2040Y553D02*
X2043Y553D01*
X2126Y553D02*
X2129Y553D01*
X197Y552D02*
X200Y552D01*
X284Y552D02*
X287Y552D01*
X473Y552D02*
X476Y552D01*
X559Y552D02*
X562Y552D01*
X748Y552D02*
X751Y552D01*
X835Y552D02*
X838Y552D01*
X1024Y552D02*
X1027Y552D01*
X1110Y552D02*
X1113Y552D01*
X1299Y552D02*
X1302Y552D01*
X1386Y552D02*
X1389Y552D01*
X1575Y552D02*
X1578Y552D01*
X1661Y552D02*
X1664Y552D01*
X1850Y552D02*
X1853Y552D01*
X1937Y552D02*
X1940Y552D01*
X2040Y552D02*
X2043Y552D01*
X2126Y552D02*
X2129Y552D01*
X197Y551D02*
X200Y551D01*
X284Y551D02*
X287Y551D01*
X473Y551D02*
X476Y551D01*
X559Y551D02*
X562Y551D01*
X748Y551D02*
X751Y551D01*
X835Y551D02*
X838Y551D01*
X1024Y551D02*
X1027Y551D01*
X1110Y551D02*
X1113Y551D01*
X1299Y551D02*
X1302Y551D01*
X1386Y551D02*
X1389Y551D01*
X1575Y551D02*
X1578Y551D01*
X1661Y551D02*
X1664Y551D01*
X1850Y551D02*
X1853Y551D01*
X1937Y551D02*
X1940Y551D01*
X2040Y551D02*
X2043Y551D01*
X2126Y551D02*
X2129Y551D01*
X197Y550D02*
X200Y550D01*
X284Y550D02*
X287Y550D01*
X473Y550D02*
X476Y550D01*
X559Y550D02*
X562Y550D01*
X748Y550D02*
X751Y550D01*
X835Y550D02*
X838Y550D01*
X1024Y550D02*
X1027Y550D01*
X1110Y550D02*
X1113Y550D01*
X1299Y550D02*
X1302Y550D01*
X1386Y550D02*
X1389Y550D01*
X1575Y550D02*
X1578Y550D01*
X1661Y550D02*
X1664Y550D01*
X1850Y550D02*
X1853Y550D01*
X1937Y550D02*
X1940Y550D01*
X2040Y550D02*
X2043Y550D01*
X2126Y550D02*
X2129Y550D01*
X197Y549D02*
X200Y549D01*
X284Y549D02*
X287Y549D01*
X473Y549D02*
X476Y549D01*
X559Y549D02*
X562Y549D01*
X748Y549D02*
X751Y549D01*
X835Y549D02*
X838Y549D01*
X1024Y549D02*
X1027Y549D01*
X1110Y549D02*
X1113Y549D01*
X1299Y549D02*
X1302Y549D01*
X1386Y549D02*
X1389Y549D01*
X1575Y549D02*
X1578Y549D01*
X1661Y549D02*
X1664Y549D01*
X1850Y549D02*
X1853Y549D01*
X1937Y549D02*
X1940Y549D01*
X2040Y549D02*
X2043Y549D01*
X2126Y549D02*
X2129Y549D01*
X197Y548D02*
X200Y548D01*
X284Y548D02*
X287Y548D01*
X473Y548D02*
X476Y548D01*
X559Y548D02*
X562Y548D01*
X748Y548D02*
X751Y548D01*
X835Y548D02*
X838Y548D01*
X1024Y548D02*
X1027Y548D01*
X1110Y548D02*
X1113Y548D01*
X1299Y548D02*
X1302Y548D01*
X1386Y548D02*
X1389Y548D01*
X1575Y548D02*
X1578Y548D01*
X1661Y548D02*
X1664Y548D01*
X1850Y548D02*
X1853Y548D01*
X1937Y548D02*
X1940Y548D01*
X2040Y548D02*
X2043Y548D01*
X2126Y548D02*
X2129Y548D01*
X197Y547D02*
X200Y547D01*
X284Y547D02*
X287Y547D01*
X473Y547D02*
X476Y547D01*
X559Y547D02*
X562Y547D01*
X748Y547D02*
X751Y547D01*
X835Y547D02*
X838Y547D01*
X1024Y547D02*
X1027Y547D01*
X1110Y547D02*
X1113Y547D01*
X1299Y547D02*
X1302Y547D01*
X1386Y547D02*
X1389Y547D01*
X1575Y547D02*
X1578Y547D01*
X1661Y547D02*
X1664Y547D01*
X1850Y547D02*
X1853Y547D01*
X1937Y547D02*
X1940Y547D01*
X2040Y547D02*
X2043Y547D01*
X2126Y547D02*
X2129Y547D01*
X197Y546D02*
X200Y546D01*
X284Y546D02*
X287Y546D01*
X473Y546D02*
X476Y546D01*
X559Y546D02*
X562Y546D01*
X748Y546D02*
X751Y546D01*
X835Y546D02*
X838Y546D01*
X1024Y546D02*
X1027Y546D01*
X1110Y546D02*
X1113Y546D01*
X1299Y546D02*
X1302Y546D01*
X1386Y546D02*
X1389Y546D01*
X1575Y546D02*
X1578Y546D01*
X1661Y546D02*
X1664Y546D01*
X1850Y546D02*
X1853Y546D01*
X1937Y546D02*
X1940Y546D01*
X2040Y546D02*
X2043Y546D01*
X2126Y546D02*
X2129Y546D01*
X197Y545D02*
X200Y545D01*
X284Y545D02*
X287Y545D01*
X473Y545D02*
X476Y545D01*
X559Y545D02*
X562Y545D01*
X748Y545D02*
X751Y545D01*
X835Y545D02*
X838Y545D01*
X1024Y545D02*
X1027Y545D01*
X1110Y545D02*
X1113Y545D01*
X1299Y545D02*
X1302Y545D01*
X1386Y545D02*
X1389Y545D01*
X1575Y545D02*
X1578Y545D01*
X1661Y545D02*
X1664Y545D01*
X1850Y545D02*
X1853Y545D01*
X1937Y545D02*
X1940Y545D01*
X2040Y545D02*
X2043Y545D01*
X2126Y545D02*
X2129Y545D01*
X197Y544D02*
X200Y544D01*
X284Y544D02*
X287Y544D01*
X473Y544D02*
X476Y544D01*
X559Y544D02*
X562Y544D01*
X748Y544D02*
X751Y544D01*
X835Y544D02*
X838Y544D01*
X1024Y544D02*
X1027Y544D01*
X1110Y544D02*
X1113Y544D01*
X1299Y544D02*
X1302Y544D01*
X1386Y544D02*
X1389Y544D01*
X1575Y544D02*
X1578Y544D01*
X1661Y544D02*
X1664Y544D01*
X1850Y544D02*
X1853Y544D01*
X1937Y544D02*
X1940Y544D01*
X2040Y544D02*
X2043Y544D01*
X2126Y544D02*
X2129Y544D01*
X197Y543D02*
X200Y543D01*
X284Y543D02*
X287Y543D01*
X473Y543D02*
X476Y543D01*
X559Y543D02*
X562Y543D01*
X748Y543D02*
X751Y543D01*
X835Y543D02*
X838Y543D01*
X1024Y543D02*
X1027Y543D01*
X1110Y543D02*
X1113Y543D01*
X1299Y543D02*
X1302Y543D01*
X1386Y543D02*
X1389Y543D01*
X1575Y543D02*
X1578Y543D01*
X1661Y543D02*
X1664Y543D01*
X1850Y543D02*
X1853Y543D01*
X1937Y543D02*
X1940Y543D01*
X2040Y543D02*
X2043Y543D01*
X2126Y543D02*
X2129Y543D01*
X197Y542D02*
X200Y542D01*
X284Y542D02*
X287Y542D01*
X473Y542D02*
X476Y542D01*
X559Y542D02*
X562Y542D01*
X748Y542D02*
X751Y542D01*
X835Y542D02*
X838Y542D01*
X1024Y542D02*
X1027Y542D01*
X1110Y542D02*
X1113Y542D01*
X1299Y542D02*
X1302Y542D01*
X1386Y542D02*
X1389Y542D01*
X1575Y542D02*
X1578Y542D01*
X1661Y542D02*
X1664Y542D01*
X1850Y542D02*
X1853Y542D01*
X1937Y542D02*
X1940Y542D01*
X2040Y542D02*
X2043Y542D01*
X2126Y542D02*
X2129Y542D01*
X197Y541D02*
X200Y541D01*
X284Y541D02*
X287Y541D01*
X473Y541D02*
X475Y541D01*
X560Y541D02*
X562Y541D01*
X748Y541D02*
X750Y541D01*
X836Y541D02*
X838Y541D01*
X1024Y541D02*
X1026Y541D01*
X1111Y541D02*
X1113Y541D01*
X1299Y541D02*
X1302Y541D01*
X1386Y541D02*
X1389Y541D01*
X1575Y541D02*
X1578Y541D01*
X1661Y541D02*
X1664Y541D01*
X1850Y541D02*
X1853Y541D01*
X1937Y541D02*
X1940Y541D01*
X2040Y541D02*
X2043Y541D01*
X2126Y541D02*
X2129Y541D01*
X197Y540D02*
X200Y540D01*
X284Y540D02*
X287Y540D01*
X473Y540D02*
X475Y540D01*
X560Y540D02*
X562Y540D01*
X748Y540D02*
X750Y540D01*
X836Y540D02*
X838Y540D01*
X1024Y540D02*
X1026Y540D01*
X1111Y540D02*
X1113Y540D01*
X1299Y540D02*
X1302Y540D01*
X1386Y540D02*
X1389Y540D01*
X1575Y540D02*
X1578Y540D01*
X1661Y540D02*
X1664Y540D01*
X1850Y540D02*
X1853Y540D01*
X1937Y540D02*
X1940Y540D01*
X2040Y540D02*
X2043Y540D01*
X2126Y540D02*
X2129Y540D01*
X197Y539D02*
X200Y539D01*
X284Y539D02*
X287Y539D01*
X473Y539D02*
X475Y539D01*
X560Y539D02*
X562Y539D01*
X748Y539D02*
X750Y539D01*
X836Y539D02*
X838Y539D01*
X1024Y539D02*
X1026Y539D01*
X1111Y539D02*
X1113Y539D01*
X1299Y539D02*
X1302Y539D01*
X1386Y539D02*
X1389Y539D01*
X1575Y539D02*
X1578Y539D01*
X1661Y539D02*
X1664Y539D01*
X1850Y539D02*
X1853Y539D01*
X1937Y539D02*
X1940Y539D01*
X2040Y539D02*
X2043Y539D01*
X2126Y539D02*
X2129Y539D01*
X197Y538D02*
X200Y538D01*
X284Y538D02*
X287Y538D01*
X473Y538D02*
X475Y538D01*
X560Y538D02*
X562Y538D01*
X748Y538D02*
X750Y538D01*
X836Y538D02*
X838Y538D01*
X1024Y538D02*
X1026Y538D01*
X1111Y538D02*
X1113Y538D01*
X1299Y538D02*
X1302Y538D01*
X1386Y538D02*
X1389Y538D01*
X1575Y538D02*
X1578Y538D01*
X1661Y538D02*
X1664Y538D01*
X1850Y538D02*
X1853Y538D01*
X1937Y538D02*
X1940Y538D01*
X2040Y538D02*
X2042Y538D01*
X2127Y538D02*
X2129Y538D01*
X197Y537D02*
X199Y537D01*
X285Y537D02*
X287Y537D01*
X473Y537D02*
X475Y537D01*
X560Y537D02*
X562Y537D01*
X748Y537D02*
X750Y537D01*
X836Y537D02*
X838Y537D01*
X1024Y537D02*
X1026Y537D01*
X1111Y537D02*
X1113Y537D01*
X1299Y537D02*
X1301Y537D01*
X1387Y537D02*
X1389Y537D01*
X1575Y537D02*
X1577Y537D01*
X1663Y537D02*
X1664Y537D01*
X1850Y537D02*
X1852Y537D01*
X1938Y537D02*
X1940Y537D01*
X2040Y537D02*
X2042Y537D01*
X2127Y537D02*
X2129Y537D01*
X197Y536D02*
X199Y536D01*
X285Y536D02*
X287Y536D01*
X473Y536D02*
X475Y536D01*
X560Y536D02*
X562Y536D01*
X748Y536D02*
X750Y536D01*
X836Y536D02*
X838Y536D01*
X1024Y536D02*
X1026Y536D01*
X1111Y536D02*
X1113Y536D01*
X1299Y536D02*
X1301Y536D01*
X1387Y536D02*
X1389Y536D01*
X1575Y536D02*
X1577Y536D01*
X1663Y536D02*
X1664Y536D01*
X1850Y536D02*
X1852Y536D01*
X1938Y536D02*
X1940Y536D01*
X2040Y536D02*
X2042Y536D01*
X2127Y536D02*
X2129Y536D01*
X197Y535D02*
X199Y535D01*
X285Y535D02*
X287Y535D01*
X473Y535D02*
X475Y535D01*
X560Y535D02*
X562Y535D01*
X748Y535D02*
X750Y535D01*
X836Y535D02*
X838Y535D01*
X1024Y535D02*
X1026Y535D01*
X1111Y535D02*
X1113Y535D01*
X1299Y535D02*
X1301Y535D01*
X1387Y535D02*
X1389Y535D01*
X1575Y535D02*
X1577Y535D01*
X1663Y535D02*
X1664Y535D01*
X1850Y535D02*
X1852Y535D01*
X1938Y535D02*
X1940Y535D01*
X2040Y535D02*
X2042Y535D01*
X2127Y535D02*
X2129Y535D01*
X197Y534D02*
X199Y534D01*
X285Y534D02*
X287Y534D01*
X473Y534D02*
X475Y534D01*
X560Y534D02*
X562Y534D01*
X748Y534D02*
X750Y534D01*
X836Y534D02*
X838Y534D01*
X1024Y534D02*
X1026Y534D01*
X1111Y534D02*
X1113Y534D01*
X1299Y534D02*
X1301Y534D01*
X1387Y534D02*
X1389Y534D01*
X1575Y534D02*
X1577Y534D01*
X1663Y534D02*
X1664Y534D01*
X1850Y534D02*
X1852Y534D01*
X1938Y534D02*
X1940Y534D01*
X2040Y534D02*
X2042Y534D01*
X2127Y534D02*
X2129Y534D01*
X197Y533D02*
X199Y533D01*
X285Y533D02*
X287Y533D01*
X473Y533D02*
X475Y533D01*
X560Y533D02*
X562Y533D01*
X748Y533D02*
X750Y533D01*
X836Y533D02*
X838Y533D01*
X1024Y533D02*
X1026Y533D01*
X1111Y533D02*
X1113Y533D01*
X1299Y533D02*
X1301Y533D01*
X1387Y533D02*
X1389Y533D01*
X1575Y533D02*
X1577Y533D01*
X1663Y533D02*
X1664Y533D01*
X1850Y533D02*
X1852Y533D01*
X1938Y533D02*
X1940Y533D01*
X2040Y533D02*
X2042Y533D01*
X2127Y533D02*
X2129Y533D01*
X197Y532D02*
X199Y532D01*
X285Y532D02*
X287Y532D01*
X473Y532D02*
X475Y532D01*
X560Y532D02*
X562Y532D01*
X748Y532D02*
X750Y532D01*
X836Y532D02*
X838Y532D01*
X1024Y532D02*
X1026Y532D01*
X1111Y532D02*
X1113Y532D01*
X1299Y532D02*
X1301Y532D01*
X1387Y532D02*
X1389Y532D01*
X1575Y532D02*
X1577Y532D01*
X1663Y532D02*
X1664Y532D01*
X1850Y532D02*
X1852Y532D01*
X1938Y532D02*
X1940Y532D01*
X2040Y532D02*
X2042Y532D01*
X2127Y532D02*
X2129Y532D01*
X197Y531D02*
X199Y531D01*
X285Y531D02*
X287Y531D01*
X473Y531D02*
X475Y531D01*
X560Y531D02*
X562Y531D01*
X748Y531D02*
X750Y531D01*
X836Y531D02*
X838Y531D01*
X1024Y531D02*
X1026Y531D01*
X1111Y531D02*
X1113Y531D01*
X1299Y531D02*
X1301Y531D01*
X1387Y531D02*
X1389Y531D01*
X1575Y531D02*
X1577Y531D01*
X1663Y531D02*
X1664Y531D01*
X1850Y531D02*
X1852Y531D01*
X1938Y531D02*
X1940Y531D01*
X2040Y531D02*
X2042Y531D01*
X2127Y531D02*
X2129Y531D01*
X197Y530D02*
X199Y530D01*
X285Y530D02*
X287Y530D01*
X473Y530D02*
X475Y530D01*
X560Y530D02*
X562Y530D01*
X748Y530D02*
X750Y530D01*
X836Y530D02*
X838Y530D01*
X1024Y530D02*
X1026Y530D01*
X1111Y530D02*
X1113Y530D01*
X1299Y530D02*
X1301Y530D01*
X1387Y530D02*
X1389Y530D01*
X1575Y530D02*
X1577Y530D01*
X1663Y530D02*
X1664Y530D01*
X1850Y530D02*
X1852Y530D01*
X1938Y530D02*
X1940Y530D01*
X2040Y530D02*
X2042Y530D01*
X2127Y530D02*
X2129Y530D01*
X197Y529D02*
X199Y529D01*
X285Y529D02*
X287Y529D01*
X473Y529D02*
X475Y529D01*
X560Y529D02*
X562Y529D01*
X748Y529D02*
X750Y529D01*
X836Y529D02*
X838Y529D01*
X1024Y529D02*
X1026Y529D01*
X1111Y529D02*
X1113Y529D01*
X1299Y529D02*
X1301Y529D01*
X1387Y529D02*
X1389Y529D01*
X1575Y529D02*
X1577Y529D01*
X1663Y529D02*
X1664Y529D01*
X1850Y529D02*
X1852Y529D01*
X1938Y529D02*
X1940Y529D01*
X2040Y529D02*
X2042Y529D01*
X2127Y529D02*
X2129Y529D01*
X197Y528D02*
X199Y528D01*
X285Y528D02*
X287Y528D01*
X473Y528D02*
X475Y528D01*
X560Y528D02*
X562Y528D01*
X748Y528D02*
X750Y528D01*
X836Y528D02*
X838Y528D01*
X1024Y528D02*
X1026Y528D01*
X1111Y528D02*
X1113Y528D01*
X1299Y528D02*
X1301Y528D01*
X1387Y528D02*
X1389Y528D01*
X1575Y528D02*
X1577Y528D01*
X1663Y528D02*
X1664Y528D01*
X1850Y528D02*
X1852Y528D01*
X1938Y528D02*
X1940Y528D01*
X2040Y528D02*
X2042Y528D01*
X2127Y528D02*
X2129Y528D01*
X197Y527D02*
X199Y527D01*
X285Y527D02*
X287Y527D01*
X473Y527D02*
X475Y527D01*
X560Y527D02*
X562Y527D01*
X748Y527D02*
X750Y527D01*
X836Y527D02*
X838Y527D01*
X1024Y527D02*
X1026Y527D01*
X1111Y527D02*
X1113Y527D01*
X1299Y527D02*
X1301Y527D01*
X1387Y527D02*
X1389Y527D01*
X1575Y527D02*
X1577Y527D01*
X1663Y527D02*
X1664Y527D01*
X1850Y527D02*
X1852Y527D01*
X1938Y527D02*
X1940Y527D01*
X2040Y527D02*
X2042Y527D01*
X2127Y527D02*
X2129Y527D01*
X197Y526D02*
X199Y526D01*
X285Y526D02*
X287Y526D01*
X473Y526D02*
X475Y526D01*
X560Y526D02*
X562Y526D01*
X748Y526D02*
X750Y526D01*
X836Y526D02*
X838Y526D01*
X1024Y526D02*
X1026Y526D01*
X1111Y526D02*
X1113Y526D01*
X1299Y526D02*
X1301Y526D01*
X1387Y526D02*
X1389Y526D01*
X1575Y526D02*
X1577Y526D01*
X1663Y526D02*
X1664Y526D01*
X1850Y526D02*
X1852Y526D01*
X1938Y526D02*
X1940Y526D01*
X2040Y526D02*
X2042Y526D01*
X2127Y526D02*
X2129Y526D01*
X197Y525D02*
X199Y525D01*
X285Y525D02*
X287Y525D01*
X473Y525D02*
X475Y525D01*
X560Y525D02*
X562Y525D01*
X748Y525D02*
X750Y525D01*
X836Y525D02*
X838Y525D01*
X1024Y525D02*
X1026Y525D01*
X1111Y525D02*
X1113Y525D01*
X1299Y525D02*
X1301Y525D01*
X1387Y525D02*
X1389Y525D01*
X1575Y525D02*
X1577Y525D01*
X1663Y525D02*
X1664Y525D01*
X1850Y525D02*
X1852Y525D01*
X1938Y525D02*
X1940Y525D01*
X2040Y525D02*
X2042Y525D01*
X2127Y525D02*
X2129Y525D01*
X197Y524D02*
X199Y524D01*
X285Y524D02*
X287Y524D01*
X473Y524D02*
X475Y524D01*
X560Y524D02*
X562Y524D01*
X748Y524D02*
X750Y524D01*
X836Y524D02*
X838Y524D01*
X1024Y524D02*
X1026Y524D01*
X1111Y524D02*
X1113Y524D01*
X1299Y524D02*
X1301Y524D01*
X1387Y524D02*
X1389Y524D01*
X1575Y524D02*
X1577Y524D01*
X1663Y524D02*
X1664Y524D01*
X1850Y524D02*
X1852Y524D01*
X1938Y524D02*
X1940Y524D01*
X2040Y524D02*
X2042Y524D01*
X2127Y524D02*
X2129Y524D01*
X197Y523D02*
X199Y523D01*
X285Y523D02*
X287Y523D01*
X473Y523D02*
X475Y523D01*
X560Y523D02*
X562Y523D01*
X748Y523D02*
X750Y523D01*
X836Y523D02*
X838Y523D01*
X1024Y523D02*
X1026Y523D01*
X1111Y523D02*
X1113Y523D01*
X1299Y523D02*
X1301Y523D01*
X1387Y523D02*
X1389Y523D01*
X1575Y523D02*
X1577Y523D01*
X1663Y523D02*
X1664Y523D01*
X1850Y523D02*
X1852Y523D01*
X1938Y523D02*
X1940Y523D01*
X2040Y523D02*
X2042Y523D01*
X2127Y523D02*
X2129Y523D01*
X197Y522D02*
X199Y522D01*
X285Y522D02*
X287Y522D01*
X473Y522D02*
X475Y522D01*
X560Y522D02*
X562Y522D01*
X748Y522D02*
X750Y522D01*
X836Y522D02*
X838Y522D01*
X1024Y522D02*
X1026Y522D01*
X1111Y522D02*
X1113Y522D01*
X1299Y522D02*
X1301Y522D01*
X1387Y522D02*
X1389Y522D01*
X1575Y522D02*
X1577Y522D01*
X1663Y522D02*
X1664Y522D01*
X1850Y522D02*
X1852Y522D01*
X1938Y522D02*
X1940Y522D01*
X2040Y522D02*
X2042Y522D01*
X2127Y522D02*
X2129Y522D01*
X197Y521D02*
X199Y521D01*
X285Y521D02*
X287Y521D01*
X473Y521D02*
X475Y521D01*
X560Y521D02*
X562Y521D01*
X748Y521D02*
X750Y521D01*
X836Y521D02*
X838Y521D01*
X1024Y521D02*
X1026Y521D01*
X1111Y521D02*
X1113Y521D01*
X1299Y521D02*
X1301Y521D01*
X1387Y521D02*
X1389Y521D01*
X1575Y521D02*
X1577Y521D01*
X1663Y521D02*
X1664Y521D01*
X1850Y521D02*
X1852Y521D01*
X1938Y521D02*
X1940Y521D01*
X2040Y521D02*
X2042Y521D01*
X2127Y521D02*
X2129Y521D01*
X197Y520D02*
X199Y520D01*
X285Y520D02*
X287Y520D01*
X473Y520D02*
X475Y520D01*
X560Y520D02*
X562Y520D01*
X748Y520D02*
X750Y520D01*
X836Y520D02*
X838Y520D01*
X1024Y520D02*
X1026Y520D01*
X1111Y520D02*
X1113Y520D01*
X1299Y520D02*
X1301Y520D01*
X1387Y520D02*
X1389Y520D01*
X1575Y520D02*
X1577Y520D01*
X1663Y520D02*
X1664Y520D01*
X1850Y520D02*
X1852Y520D01*
X1938Y520D02*
X1940Y520D01*
X2040Y520D02*
X2042Y520D01*
X2127Y520D02*
X2129Y520D01*
X197Y519D02*
X199Y519D01*
X285Y519D02*
X287Y519D01*
X473Y519D02*
X475Y519D01*
X560Y519D02*
X562Y519D01*
X748Y519D02*
X750Y519D01*
X836Y519D02*
X838Y519D01*
X1024Y519D02*
X1026Y519D01*
X1111Y519D02*
X1113Y519D01*
X1299Y519D02*
X1301Y519D01*
X1387Y519D02*
X1389Y519D01*
X1575Y519D02*
X1577Y519D01*
X1663Y519D02*
X1664Y519D01*
X1850Y519D02*
X1852Y519D01*
X1938Y519D02*
X1940Y519D01*
X2040Y519D02*
X2042Y519D01*
X2127Y519D02*
X2129Y519D01*
X197Y518D02*
X199Y518D01*
X285Y518D02*
X287Y518D01*
X473Y518D02*
X475Y518D01*
X560Y518D02*
X562Y518D01*
X748Y518D02*
X750Y518D01*
X836Y518D02*
X838Y518D01*
X1024Y518D02*
X1026Y518D01*
X1111Y518D02*
X1113Y518D01*
X1299Y518D02*
X1301Y518D01*
X1387Y518D02*
X1389Y518D01*
X1575Y518D02*
X1577Y518D01*
X1663Y518D02*
X1664Y518D01*
X1850Y518D02*
X1852Y518D01*
X1938Y518D02*
X1940Y518D01*
X2040Y518D02*
X2042Y518D01*
X2127Y518D02*
X2129Y518D01*
X197Y517D02*
X199Y517D01*
X285Y517D02*
X287Y517D01*
X473Y517D02*
X475Y517D01*
X560Y517D02*
X562Y517D01*
X748Y517D02*
X750Y517D01*
X836Y517D02*
X838Y517D01*
X1024Y517D02*
X1026Y517D01*
X1111Y517D02*
X1113Y517D01*
X1299Y517D02*
X1301Y517D01*
X1387Y517D02*
X1389Y517D01*
X1575Y517D02*
X1577Y517D01*
X1663Y517D02*
X1664Y517D01*
X1850Y517D02*
X1852Y517D01*
X1938Y517D02*
X1940Y517D01*
X2040Y517D02*
X2042Y517D01*
X2127Y517D02*
X2129Y517D01*
X197Y516D02*
X199Y516D01*
X285Y516D02*
X287Y516D01*
X473Y516D02*
X475Y516D01*
X560Y516D02*
X562Y516D01*
X748Y516D02*
X750Y516D01*
X836Y516D02*
X838Y516D01*
X1024Y516D02*
X1026Y516D01*
X1111Y516D02*
X1113Y516D01*
X1299Y516D02*
X1301Y516D01*
X1387Y516D02*
X1389Y516D01*
X1575Y516D02*
X1577Y516D01*
X1663Y516D02*
X1664Y516D01*
X1850Y516D02*
X1852Y516D01*
X1938Y516D02*
X1940Y516D01*
X2040Y516D02*
X2042Y516D01*
X2127Y516D02*
X2129Y516D01*
X197Y515D02*
X199Y515D01*
X285Y515D02*
X287Y515D01*
X473Y515D02*
X475Y515D01*
X560Y515D02*
X562Y515D01*
X748Y515D02*
X750Y515D01*
X836Y515D02*
X838Y515D01*
X1024Y515D02*
X1026Y515D01*
X1111Y515D02*
X1113Y515D01*
X1299Y515D02*
X1301Y515D01*
X1387Y515D02*
X1389Y515D01*
X1575Y515D02*
X1577Y515D01*
X1663Y515D02*
X1664Y515D01*
X1850Y515D02*
X1852Y515D01*
X1938Y515D02*
X1940Y515D01*
X2040Y515D02*
X2042Y515D01*
X2127Y515D02*
X2129Y515D01*
X197Y514D02*
X199Y514D01*
X285Y514D02*
X287Y514D01*
X473Y514D02*
X475Y514D01*
X560Y514D02*
X562Y514D01*
X748Y514D02*
X750Y514D01*
X836Y514D02*
X838Y514D01*
X1024Y514D02*
X1026Y514D01*
X1111Y514D02*
X1113Y514D01*
X1299Y514D02*
X1301Y514D01*
X1387Y514D02*
X1389Y514D01*
X1575Y514D02*
X1577Y514D01*
X1663Y514D02*
X1664Y514D01*
X1850Y514D02*
X1852Y514D01*
X1938Y514D02*
X1940Y514D01*
X2040Y514D02*
X2042Y514D01*
X2127Y514D02*
X2129Y514D01*
X197Y513D02*
X199Y513D01*
X285Y513D02*
X287Y513D01*
X473Y513D02*
X475Y513D01*
X560Y513D02*
X562Y513D01*
X748Y513D02*
X750Y513D01*
X836Y513D02*
X838Y513D01*
X1024Y513D02*
X1026Y513D01*
X1111Y513D02*
X1113Y513D01*
X1299Y513D02*
X1301Y513D01*
X1387Y513D02*
X1389Y513D01*
X1575Y513D02*
X1577Y513D01*
X1663Y513D02*
X1664Y513D01*
X1850Y513D02*
X1852Y513D01*
X1938Y513D02*
X1940Y513D01*
X2040Y513D02*
X2042Y513D01*
X2127Y513D02*
X2129Y513D01*
X197Y512D02*
X199Y512D01*
X285Y512D02*
X287Y512D01*
X473Y512D02*
X475Y512D01*
X560Y512D02*
X562Y512D01*
X748Y512D02*
X750Y512D01*
X836Y512D02*
X838Y512D01*
X1024Y512D02*
X1026Y512D01*
X1111Y512D02*
X1113Y512D01*
X1299Y512D02*
X1301Y512D01*
X1387Y512D02*
X1389Y512D01*
X1575Y512D02*
X1577Y512D01*
X1663Y512D02*
X1664Y512D01*
X1850Y512D02*
X1852Y512D01*
X1938Y512D02*
X1940Y512D01*
X2040Y512D02*
X2042Y512D01*
X2127Y512D02*
X2129Y512D01*
X197Y511D02*
X199Y511D01*
X285Y511D02*
X287Y511D01*
X473Y511D02*
X475Y511D01*
X560Y511D02*
X562Y511D01*
X748Y511D02*
X750Y511D01*
X836Y511D02*
X838Y511D01*
X1024Y511D02*
X1026Y511D01*
X1111Y511D02*
X1113Y511D01*
X1299Y511D02*
X1301Y511D01*
X1387Y511D02*
X1389Y511D01*
X1575Y511D02*
X1577Y511D01*
X1663Y511D02*
X1664Y511D01*
X1850Y511D02*
X1852Y511D01*
X1938Y511D02*
X1940Y511D01*
X2040Y511D02*
X2042Y511D01*
X2127Y511D02*
X2129Y511D01*
X197Y510D02*
X199Y510D01*
X285Y510D02*
X287Y510D01*
X473Y510D02*
X475Y510D01*
X560Y510D02*
X562Y510D01*
X748Y510D02*
X750Y510D01*
X836Y510D02*
X838Y510D01*
X1024Y510D02*
X1026Y510D01*
X1111Y510D02*
X1113Y510D01*
X1299Y510D02*
X1301Y510D01*
X1387Y510D02*
X1389Y510D01*
X1575Y510D02*
X1577Y510D01*
X1663Y510D02*
X1664Y510D01*
X1850Y510D02*
X1852Y510D01*
X1938Y510D02*
X1940Y510D01*
X2040Y510D02*
X2042Y510D01*
X2127Y510D02*
X2129Y510D01*
X197Y509D02*
X199Y509D01*
X285Y509D02*
X287Y509D01*
X473Y509D02*
X475Y509D01*
X560Y509D02*
X562Y509D01*
X748Y509D02*
X750Y509D01*
X836Y509D02*
X838Y509D01*
X1024Y509D02*
X1026Y509D01*
X1111Y509D02*
X1113Y509D01*
X1299Y509D02*
X1301Y509D01*
X1387Y509D02*
X1389Y509D01*
X1575Y509D02*
X1577Y509D01*
X1663Y509D02*
X1664Y509D01*
X1850Y509D02*
X1852Y509D01*
X1938Y509D02*
X1940Y509D01*
X2040Y509D02*
X2042Y509D01*
X2127Y509D02*
X2129Y509D01*
X197Y508D02*
X199Y508D01*
X285Y508D02*
X287Y508D01*
X473Y508D02*
X475Y508D01*
X560Y508D02*
X562Y508D01*
X748Y508D02*
X750Y508D01*
X836Y508D02*
X838Y508D01*
X1024Y508D02*
X1026Y508D01*
X1111Y508D02*
X1113Y508D01*
X1299Y508D02*
X1301Y508D01*
X1387Y508D02*
X1389Y508D01*
X1575Y508D02*
X1577Y508D01*
X1663Y508D02*
X1664Y508D01*
X1850Y508D02*
X1852Y508D01*
X1938Y508D02*
X1940Y508D01*
X2040Y508D02*
X2042Y508D01*
X2127Y508D02*
X2129Y508D01*
X197Y507D02*
X199Y507D01*
X285Y507D02*
X287Y507D01*
X473Y507D02*
X475Y507D01*
X560Y507D02*
X562Y507D01*
X748Y507D02*
X750Y507D01*
X836Y507D02*
X838Y507D01*
X1024Y507D02*
X1026Y507D01*
X1111Y507D02*
X1113Y507D01*
X1299Y507D02*
X1301Y507D01*
X1387Y507D02*
X1389Y507D01*
X1575Y507D02*
X1577Y507D01*
X1663Y507D02*
X1664Y507D01*
X1850Y507D02*
X1852Y507D01*
X1938Y507D02*
X1940Y507D01*
X2040Y507D02*
X2042Y507D01*
X2127Y507D02*
X2129Y507D01*
X197Y506D02*
X199Y506D01*
X285Y506D02*
X287Y506D01*
X473Y506D02*
X475Y506D01*
X560Y506D02*
X562Y506D01*
X748Y506D02*
X750Y506D01*
X836Y506D02*
X838Y506D01*
X1024Y506D02*
X1026Y506D01*
X1111Y506D02*
X1113Y506D01*
X1299Y506D02*
X1301Y506D01*
X1387Y506D02*
X1389Y506D01*
X1575Y506D02*
X1577Y506D01*
X1663Y506D02*
X1664Y506D01*
X1850Y506D02*
X1852Y506D01*
X1938Y506D02*
X1940Y506D01*
X2040Y506D02*
X2042Y506D01*
X2127Y506D02*
X2129Y506D01*
X197Y505D02*
X199Y505D01*
X285Y505D02*
X287Y505D01*
X473Y505D02*
X475Y505D01*
X560Y505D02*
X562Y505D01*
X748Y505D02*
X750Y505D01*
X836Y505D02*
X838Y505D01*
X1024Y505D02*
X1026Y505D01*
X1111Y505D02*
X1113Y505D01*
X1299Y505D02*
X1301Y505D01*
X1387Y505D02*
X1389Y505D01*
X1575Y505D02*
X1577Y505D01*
X1663Y505D02*
X1664Y505D01*
X1850Y505D02*
X1852Y505D01*
X1938Y505D02*
X1940Y505D01*
X2040Y505D02*
X2042Y505D01*
X2127Y505D02*
X2129Y505D01*
X197Y504D02*
X199Y504D01*
X285Y504D02*
X287Y504D01*
X473Y504D02*
X475Y504D01*
X560Y504D02*
X562Y504D01*
X748Y504D02*
X750Y504D01*
X836Y504D02*
X838Y504D01*
X1024Y504D02*
X1026Y504D01*
X1111Y504D02*
X1113Y504D01*
X1299Y504D02*
X1301Y504D01*
X1387Y504D02*
X1389Y504D01*
X1575Y504D02*
X1577Y504D01*
X1663Y504D02*
X1664Y504D01*
X1850Y504D02*
X1852Y504D01*
X1938Y504D02*
X1940Y504D01*
X2040Y504D02*
X2042Y504D01*
X2127Y504D02*
X2129Y504D01*
X197Y503D02*
X199Y503D01*
X285Y503D02*
X287Y503D01*
X473Y503D02*
X475Y503D01*
X560Y503D02*
X562Y503D01*
X748Y503D02*
X750Y503D01*
X836Y503D02*
X838Y503D01*
X1024Y503D02*
X1026Y503D01*
X1111Y503D02*
X1113Y503D01*
X1299Y503D02*
X1301Y503D01*
X1387Y503D02*
X1389Y503D01*
X1575Y503D02*
X1577Y503D01*
X1663Y503D02*
X1664Y503D01*
X1850Y503D02*
X1852Y503D01*
X1938Y503D02*
X1940Y503D01*
X2040Y503D02*
X2042Y503D01*
X2127Y503D02*
X2129Y503D01*
X197Y502D02*
X199Y502D01*
X285Y502D02*
X287Y502D01*
X473Y502D02*
X475Y502D01*
X560Y502D02*
X562Y502D01*
X748Y502D02*
X750Y502D01*
X836Y502D02*
X838Y502D01*
X1024Y502D02*
X1026Y502D01*
X1111Y502D02*
X1113Y502D01*
X1299Y502D02*
X1301Y502D01*
X1387Y502D02*
X1389Y502D01*
X1575Y502D02*
X1577Y502D01*
X1663Y502D02*
X1664Y502D01*
X1850Y502D02*
X1852Y502D01*
X1938Y502D02*
X1940Y502D01*
X2040Y502D02*
X2042Y502D01*
X2127Y502D02*
X2129Y502D01*
X197Y501D02*
X199Y501D01*
X285Y501D02*
X287Y501D01*
X473Y501D02*
X475Y501D01*
X560Y501D02*
X562Y501D01*
X748Y501D02*
X750Y501D01*
X836Y501D02*
X838Y501D01*
X1024Y501D02*
X1026Y501D01*
X1111Y501D02*
X1113Y501D01*
X1299Y501D02*
X1301Y501D01*
X1387Y501D02*
X1389Y501D01*
X1575Y501D02*
X1577Y501D01*
X1663Y501D02*
X1664Y501D01*
X1850Y501D02*
X1852Y501D01*
X1938Y501D02*
X1940Y501D01*
X2040Y501D02*
X2042Y501D01*
X2127Y501D02*
X2129Y501D01*
X197Y500D02*
X199Y500D01*
X285Y500D02*
X287Y500D01*
X473Y500D02*
X475Y500D01*
X560Y500D02*
X562Y500D01*
X748Y500D02*
X750Y500D01*
X836Y500D02*
X838Y500D01*
X1024Y500D02*
X1026Y500D01*
X1111Y500D02*
X1113Y500D01*
X1299Y500D02*
X1301Y500D01*
X1387Y500D02*
X1389Y500D01*
X1575Y500D02*
X1577Y500D01*
X1663Y500D02*
X1664Y500D01*
X1850Y500D02*
X1852Y500D01*
X1938Y500D02*
X1940Y500D01*
X2040Y500D02*
X2042Y500D01*
X2127Y500D02*
X2129Y500D01*
X197Y499D02*
X199Y499D01*
X285Y499D02*
X287Y499D01*
X473Y499D02*
X475Y499D01*
X560Y499D02*
X562Y499D01*
X748Y499D02*
X750Y499D01*
X836Y499D02*
X838Y499D01*
X1024Y499D02*
X1026Y499D01*
X1111Y499D02*
X1113Y499D01*
X1299Y499D02*
X1301Y499D01*
X1387Y499D02*
X1389Y499D01*
X1575Y499D02*
X1577Y499D01*
X1663Y499D02*
X1664Y499D01*
X1850Y499D02*
X1852Y499D01*
X1938Y499D02*
X1940Y499D01*
X2040Y499D02*
X2042Y499D01*
X2127Y499D02*
X2129Y499D01*
X197Y498D02*
X199Y498D01*
X285Y498D02*
X287Y498D01*
X473Y498D02*
X475Y498D01*
X560Y498D02*
X562Y498D01*
X748Y498D02*
X750Y498D01*
X836Y498D02*
X838Y498D01*
X1024Y498D02*
X1026Y498D01*
X1111Y498D02*
X1113Y498D01*
X1299Y498D02*
X1301Y498D01*
X1387Y498D02*
X1389Y498D01*
X1575Y498D02*
X1577Y498D01*
X1663Y498D02*
X1664Y498D01*
X1850Y498D02*
X1852Y498D01*
X1938Y498D02*
X1940Y498D01*
X2040Y498D02*
X2042Y498D01*
X2127Y498D02*
X2129Y498D01*
X197Y497D02*
X199Y497D01*
X285Y497D02*
X287Y497D01*
X473Y497D02*
X475Y497D01*
X560Y497D02*
X562Y497D01*
X748Y497D02*
X750Y497D01*
X836Y497D02*
X838Y497D01*
X1024Y497D02*
X1026Y497D01*
X1111Y497D02*
X1113Y497D01*
X1299Y497D02*
X1301Y497D01*
X1387Y497D02*
X1389Y497D01*
X1575Y497D02*
X1577Y497D01*
X1663Y497D02*
X1664Y497D01*
X1850Y497D02*
X1852Y497D01*
X1938Y497D02*
X1940Y497D01*
X2040Y497D02*
X2042Y497D01*
X2127Y497D02*
X2129Y497D01*
X197Y496D02*
X199Y496D01*
X285Y496D02*
X287Y496D01*
X473Y496D02*
X475Y496D01*
X560Y496D02*
X562Y496D01*
X748Y496D02*
X750Y496D01*
X836Y496D02*
X838Y496D01*
X1024Y496D02*
X1026Y496D01*
X1111Y496D02*
X1113Y496D01*
X1299Y496D02*
X1301Y496D01*
X1387Y496D02*
X1389Y496D01*
X1575Y496D02*
X1577Y496D01*
X1663Y496D02*
X1664Y496D01*
X1850Y496D02*
X1852Y496D01*
X1938Y496D02*
X1940Y496D01*
X2040Y496D02*
X2042Y496D01*
X2127Y496D02*
X2129Y496D01*
X197Y495D02*
X199Y495D01*
X285Y495D02*
X287Y495D01*
X473Y495D02*
X475Y495D01*
X560Y495D02*
X562Y495D01*
X748Y495D02*
X750Y495D01*
X836Y495D02*
X838Y495D01*
X1024Y495D02*
X1026Y495D01*
X1111Y495D02*
X1113Y495D01*
X1299Y495D02*
X1301Y495D01*
X1387Y495D02*
X1389Y495D01*
X1575Y495D02*
X1577Y495D01*
X1663Y495D02*
X1664Y495D01*
X1850Y495D02*
X1852Y495D01*
X1938Y495D02*
X1940Y495D01*
X2040Y495D02*
X2042Y495D01*
X2127Y495D02*
X2129Y495D01*
X197Y494D02*
X199Y494D01*
X285Y494D02*
X287Y494D01*
X473Y494D02*
X475Y494D01*
X560Y494D02*
X562Y494D01*
X748Y494D02*
X750Y494D01*
X836Y494D02*
X838Y494D01*
X1024Y494D02*
X1026Y494D01*
X1111Y494D02*
X1113Y494D01*
X1299Y494D02*
X1301Y494D01*
X1387Y494D02*
X1389Y494D01*
X1575Y494D02*
X1577Y494D01*
X1663Y494D02*
X1664Y494D01*
X1850Y494D02*
X1852Y494D01*
X1938Y494D02*
X1940Y494D01*
X2040Y494D02*
X2042Y494D01*
X2127Y494D02*
X2129Y494D01*
X197Y493D02*
X199Y493D01*
X285Y493D02*
X287Y493D01*
X473Y493D02*
X475Y493D01*
X560Y493D02*
X562Y493D01*
X748Y493D02*
X750Y493D01*
X836Y493D02*
X838Y493D01*
X1024Y493D02*
X1026Y493D01*
X1111Y493D02*
X1113Y493D01*
X1299Y493D02*
X1301Y493D01*
X1387Y493D02*
X1389Y493D01*
X1575Y493D02*
X1577Y493D01*
X1663Y493D02*
X1664Y493D01*
X1850Y493D02*
X1852Y493D01*
X1938Y493D02*
X1940Y493D01*
X2040Y493D02*
X2042Y493D01*
X2127Y493D02*
X2129Y493D01*
X197Y492D02*
X199Y492D01*
X285Y492D02*
X287Y492D01*
X473Y492D02*
X475Y492D01*
X560Y492D02*
X562Y492D01*
X748Y492D02*
X750Y492D01*
X836Y492D02*
X838Y492D01*
X1024Y492D02*
X1026Y492D01*
X1111Y492D02*
X1113Y492D01*
X1299Y492D02*
X1301Y492D01*
X1387Y492D02*
X1389Y492D01*
X1575Y492D02*
X1577Y492D01*
X1663Y492D02*
X1664Y492D01*
X1850Y492D02*
X1852Y492D01*
X1938Y492D02*
X1940Y492D01*
X2040Y492D02*
X2042Y492D01*
X2127Y492D02*
X2129Y492D01*
X197Y491D02*
X199Y491D01*
X285Y491D02*
X287Y491D01*
X473Y491D02*
X475Y491D01*
X560Y491D02*
X562Y491D01*
X748Y491D02*
X750Y491D01*
X836Y491D02*
X838Y491D01*
X1024Y491D02*
X1026Y491D01*
X1111Y491D02*
X1113Y491D01*
X1299Y491D02*
X1301Y491D01*
X1387Y491D02*
X1389Y491D01*
X1575Y491D02*
X1577Y491D01*
X1663Y491D02*
X1664Y491D01*
X1850Y491D02*
X1852Y491D01*
X1938Y491D02*
X1940Y491D01*
X2040Y491D02*
X2042Y491D01*
X2127Y491D02*
X2129Y491D01*
X197Y490D02*
X199Y490D01*
X285Y490D02*
X287Y490D01*
X473Y490D02*
X475Y490D01*
X560Y490D02*
X562Y490D01*
X748Y490D02*
X750Y490D01*
X836Y490D02*
X838Y490D01*
X1024Y490D02*
X1026Y490D01*
X1111Y490D02*
X1113Y490D01*
X1299Y490D02*
X1301Y490D01*
X1387Y490D02*
X1389Y490D01*
X1575Y490D02*
X1577Y490D01*
X1663Y490D02*
X1664Y490D01*
X1850Y490D02*
X1852Y490D01*
X1938Y490D02*
X1940Y490D01*
X2040Y490D02*
X2042Y490D01*
X2127Y490D02*
X2129Y490D01*
X197Y489D02*
X199Y489D01*
X285Y489D02*
X287Y489D01*
X473Y489D02*
X475Y489D01*
X560Y489D02*
X562Y489D01*
X748Y489D02*
X750Y489D01*
X836Y489D02*
X838Y489D01*
X1024Y489D02*
X1026Y489D01*
X1111Y489D02*
X1113Y489D01*
X1299Y489D02*
X1301Y489D01*
X1387Y489D02*
X1389Y489D01*
X1575Y489D02*
X1577Y489D01*
X1663Y489D02*
X1664Y489D01*
X1850Y489D02*
X1852Y489D01*
X1938Y489D02*
X1940Y489D01*
X2040Y489D02*
X2042Y489D01*
X2127Y489D02*
X2129Y489D01*
X197Y488D02*
X199Y488D01*
X285Y488D02*
X287Y488D01*
X473Y488D02*
X475Y488D01*
X560Y488D02*
X562Y488D01*
X748Y488D02*
X750Y488D01*
X836Y488D02*
X838Y488D01*
X1024Y488D02*
X1026Y488D01*
X1111Y488D02*
X1113Y488D01*
X1299Y488D02*
X1301Y488D01*
X1387Y488D02*
X1389Y488D01*
X1575Y488D02*
X1577Y488D01*
X1663Y488D02*
X1664Y488D01*
X1850Y488D02*
X1852Y488D01*
X1938Y488D02*
X1940Y488D01*
X2040Y488D02*
X2042Y488D01*
X2127Y488D02*
X2129Y488D01*
X197Y487D02*
X199Y487D01*
X285Y487D02*
X287Y487D01*
X473Y487D02*
X475Y487D01*
X560Y487D02*
X562Y487D01*
X748Y487D02*
X750Y487D01*
X836Y487D02*
X838Y487D01*
X1024Y487D02*
X1026Y487D01*
X1111Y487D02*
X1113Y487D01*
X1299Y487D02*
X1301Y487D01*
X1387Y487D02*
X1389Y487D01*
X1575Y487D02*
X1577Y487D01*
X1663Y487D02*
X1664Y487D01*
X1850Y487D02*
X1852Y487D01*
X1938Y487D02*
X1940Y487D01*
X2040Y487D02*
X2042Y487D01*
X2127Y487D02*
X2129Y487D01*
X197Y486D02*
X199Y486D01*
X285Y486D02*
X287Y486D01*
X473Y486D02*
X475Y486D01*
X560Y486D02*
X562Y486D01*
X748Y486D02*
X750Y486D01*
X836Y486D02*
X838Y486D01*
X1024Y486D02*
X1026Y486D01*
X1111Y486D02*
X1113Y486D01*
X1299Y486D02*
X1301Y486D01*
X1387Y486D02*
X1389Y486D01*
X1575Y486D02*
X1577Y486D01*
X1663Y486D02*
X1664Y486D01*
X1850Y486D02*
X1852Y486D01*
X1938Y486D02*
X1940Y486D01*
X2040Y486D02*
X2042Y486D01*
X2127Y486D02*
X2129Y486D01*
X197Y485D02*
X199Y485D01*
X285Y485D02*
X287Y485D01*
X473Y485D02*
X475Y485D01*
X560Y485D02*
X562Y485D01*
X748Y485D02*
X750Y485D01*
X836Y485D02*
X838Y485D01*
X1024Y485D02*
X1026Y485D01*
X1111Y485D02*
X1113Y485D01*
X1299Y485D02*
X1301Y485D01*
X1387Y485D02*
X1389Y485D01*
X1575Y485D02*
X1577Y485D01*
X1663Y485D02*
X1664Y485D01*
X1850Y485D02*
X1852Y485D01*
X1938Y485D02*
X1940Y485D01*
X2040Y485D02*
X2042Y485D01*
X2127Y485D02*
X2129Y485D01*
X197Y484D02*
X199Y484D01*
X285Y484D02*
X287Y484D01*
X473Y484D02*
X475Y484D01*
X560Y484D02*
X562Y484D01*
X748Y484D02*
X750Y484D01*
X836Y484D02*
X838Y484D01*
X1024Y484D02*
X1026Y484D01*
X1111Y484D02*
X1113Y484D01*
X1299Y484D02*
X1301Y484D01*
X1387Y484D02*
X1389Y484D01*
X1575Y484D02*
X1577Y484D01*
X1663Y484D02*
X1664Y484D01*
X1850Y484D02*
X1852Y484D01*
X1938Y484D02*
X1940Y484D01*
X2040Y484D02*
X2042Y484D01*
X2127Y484D02*
X2129Y484D01*
X197Y483D02*
X199Y483D01*
X285Y483D02*
X287Y483D01*
X473Y483D02*
X475Y483D01*
X560Y483D02*
X562Y483D01*
X748Y483D02*
X750Y483D01*
X836Y483D02*
X838Y483D01*
X1024Y483D02*
X1026Y483D01*
X1111Y483D02*
X1113Y483D01*
X1299Y483D02*
X1301Y483D01*
X1387Y483D02*
X1389Y483D01*
X1575Y483D02*
X1577Y483D01*
X1663Y483D02*
X1664Y483D01*
X1850Y483D02*
X1852Y483D01*
X1938Y483D02*
X1940Y483D01*
X2040Y483D02*
X2042Y483D01*
X2127Y483D02*
X2129Y483D01*
X197Y482D02*
X199Y482D01*
X285Y482D02*
X287Y482D01*
X473Y482D02*
X475Y482D01*
X560Y482D02*
X562Y482D01*
X748Y482D02*
X750Y482D01*
X836Y482D02*
X838Y482D01*
X1024Y482D02*
X1026Y482D01*
X1111Y482D02*
X1113Y482D01*
X1299Y482D02*
X1301Y482D01*
X1387Y482D02*
X1389Y482D01*
X1575Y482D02*
X1577Y482D01*
X1663Y482D02*
X1664Y482D01*
X1850Y482D02*
X1852Y482D01*
X1938Y482D02*
X1940Y482D01*
X2040Y482D02*
X2042Y482D01*
X2127Y482D02*
X2129Y482D01*
X197Y481D02*
X199Y481D01*
X285Y481D02*
X287Y481D01*
X473Y481D02*
X475Y481D01*
X560Y481D02*
X562Y481D01*
X748Y481D02*
X750Y481D01*
X836Y481D02*
X838Y481D01*
X1024Y481D02*
X1026Y481D01*
X1111Y481D02*
X1113Y481D01*
X1299Y481D02*
X1301Y481D01*
X1387Y481D02*
X1389Y481D01*
X1575Y481D02*
X1577Y481D01*
X1663Y481D02*
X1664Y481D01*
X1850Y481D02*
X1852Y481D01*
X1938Y481D02*
X1940Y481D01*
X2040Y481D02*
X2042Y481D01*
X2127Y481D02*
X2129Y481D01*
X197Y480D02*
X199Y480D01*
X285Y480D02*
X287Y480D01*
X473Y480D02*
X475Y480D01*
X560Y480D02*
X562Y480D01*
X748Y480D02*
X750Y480D01*
X836Y480D02*
X838Y480D01*
X1024Y480D02*
X1026Y480D01*
X1111Y480D02*
X1113Y480D01*
X1299Y480D02*
X1301Y480D01*
X1387Y480D02*
X1389Y480D01*
X1575Y480D02*
X1577Y480D01*
X1663Y480D02*
X1664Y480D01*
X1850Y480D02*
X1852Y480D01*
X1938Y480D02*
X1940Y480D01*
X2040Y480D02*
X2042Y480D01*
X2127Y480D02*
X2129Y480D01*
X197Y479D02*
X199Y479D01*
X285Y479D02*
X287Y479D01*
X473Y479D02*
X475Y479D01*
X560Y479D02*
X562Y479D01*
X748Y479D02*
X750Y479D01*
X836Y479D02*
X838Y479D01*
X1024Y479D02*
X1026Y479D01*
X1111Y479D02*
X1113Y479D01*
X1299Y479D02*
X1301Y479D01*
X1387Y479D02*
X1389Y479D01*
X1575Y479D02*
X1577Y479D01*
X1663Y479D02*
X1664Y479D01*
X1850Y479D02*
X1852Y479D01*
X1938Y479D02*
X1940Y479D01*
X2040Y479D02*
X2042Y479D01*
X2127Y479D02*
X2129Y479D01*
X197Y478D02*
X199Y478D01*
X285Y478D02*
X287Y478D01*
X473Y478D02*
X475Y478D01*
X560Y478D02*
X562Y478D01*
X748Y478D02*
X750Y478D01*
X836Y478D02*
X838Y478D01*
X1024Y478D02*
X1026Y478D01*
X1111Y478D02*
X1113Y478D01*
X1299Y478D02*
X1301Y478D01*
X1387Y478D02*
X1389Y478D01*
X1575Y478D02*
X1577Y478D01*
X1663Y478D02*
X1664Y478D01*
X1850Y478D02*
X1852Y478D01*
X1938Y478D02*
X1940Y478D01*
X2040Y478D02*
X2042Y478D01*
X2127Y478D02*
X2129Y478D01*
X197Y477D02*
X199Y477D01*
X285Y477D02*
X287Y477D01*
X473Y477D02*
X475Y477D01*
X560Y477D02*
X562Y477D01*
X748Y477D02*
X750Y477D01*
X836Y477D02*
X838Y477D01*
X1024Y477D02*
X1026Y477D01*
X1111Y477D02*
X1113Y477D01*
X1299Y477D02*
X1301Y477D01*
X1387Y477D02*
X1389Y477D01*
X1575Y477D02*
X1577Y477D01*
X1663Y477D02*
X1664Y477D01*
X1850Y477D02*
X1852Y477D01*
X1938Y477D02*
X1940Y477D01*
X2040Y477D02*
X2042Y477D01*
X2127Y477D02*
X2129Y477D01*
X197Y476D02*
X199Y476D01*
X285Y476D02*
X287Y476D01*
X473Y476D02*
X475Y476D01*
X560Y476D02*
X562Y476D01*
X748Y476D02*
X750Y476D01*
X836Y476D02*
X838Y476D01*
X1024Y476D02*
X1026Y476D01*
X1111Y476D02*
X1113Y476D01*
X1299Y476D02*
X1301Y476D01*
X1387Y476D02*
X1389Y476D01*
X1575Y476D02*
X1577Y476D01*
X1663Y476D02*
X1664Y476D01*
X1850Y476D02*
X1852Y476D01*
X1938Y476D02*
X1940Y476D01*
X2040Y476D02*
X2042Y476D01*
X2127Y476D02*
X2129Y476D01*
X197Y475D02*
X199Y475D01*
X285Y475D02*
X287Y475D01*
X473Y475D02*
X475Y475D01*
X560Y475D02*
X562Y475D01*
X748Y475D02*
X750Y475D01*
X836Y475D02*
X838Y475D01*
X1024Y475D02*
X1026Y475D01*
X1111Y475D02*
X1113Y475D01*
X1299Y475D02*
X1301Y475D01*
X1387Y475D02*
X1389Y475D01*
X1575Y475D02*
X1577Y475D01*
X1663Y475D02*
X1664Y475D01*
X1850Y475D02*
X1852Y475D01*
X1938Y475D02*
X1940Y475D01*
X2040Y475D02*
X2042Y475D01*
X2127Y475D02*
X2129Y475D01*
X197Y474D02*
X199Y474D01*
X285Y474D02*
X287Y474D01*
X473Y474D02*
X475Y474D01*
X560Y474D02*
X562Y474D01*
X748Y474D02*
X750Y474D01*
X836Y474D02*
X838Y474D01*
X1024Y474D02*
X1026Y474D01*
X1111Y474D02*
X1113Y474D01*
X1299Y474D02*
X1301Y474D01*
X1387Y474D02*
X1389Y474D01*
X1575Y474D02*
X1577Y474D01*
X1663Y474D02*
X1664Y474D01*
X1850Y474D02*
X1852Y474D01*
X1938Y474D02*
X1940Y474D01*
X2040Y474D02*
X2042Y474D01*
X2127Y474D02*
X2129Y474D01*
X197Y473D02*
X199Y473D01*
X285Y473D02*
X287Y473D01*
X473Y473D02*
X475Y473D01*
X560Y473D02*
X562Y473D01*
X748Y473D02*
X750Y473D01*
X836Y473D02*
X838Y473D01*
X1024Y473D02*
X1026Y473D01*
X1111Y473D02*
X1113Y473D01*
X1299Y473D02*
X1301Y473D01*
X1387Y473D02*
X1389Y473D01*
X1575Y473D02*
X1577Y473D01*
X1663Y473D02*
X1664Y473D01*
X1850Y473D02*
X1852Y473D01*
X1938Y473D02*
X1940Y473D01*
X2040Y473D02*
X2042Y473D01*
X2127Y473D02*
X2129Y473D01*
X197Y472D02*
X199Y472D01*
X285Y472D02*
X287Y472D01*
X473Y472D02*
X475Y472D01*
X560Y472D02*
X562Y472D01*
X748Y472D02*
X750Y472D01*
X836Y472D02*
X838Y472D01*
X1024Y472D02*
X1026Y472D01*
X1111Y472D02*
X1113Y472D01*
X1299Y472D02*
X1301Y472D01*
X1387Y472D02*
X1389Y472D01*
X1575Y472D02*
X1577Y472D01*
X1663Y472D02*
X1664Y472D01*
X1850Y472D02*
X1852Y472D01*
X1938Y472D02*
X1940Y472D01*
X2040Y472D02*
X2042Y472D01*
X2127Y472D02*
X2129Y472D01*
X197Y471D02*
X199Y471D01*
X285Y471D02*
X287Y471D01*
X473Y471D02*
X475Y471D01*
X560Y471D02*
X562Y471D01*
X748Y471D02*
X750Y471D01*
X836Y471D02*
X838Y471D01*
X1024Y471D02*
X1026Y471D01*
X1111Y471D02*
X1113Y471D01*
X1299Y471D02*
X1301Y471D01*
X1387Y471D02*
X1389Y471D01*
X1575Y471D02*
X1577Y471D01*
X1663Y471D02*
X1664Y471D01*
X1850Y471D02*
X1852Y471D01*
X1938Y471D02*
X1940Y471D01*
X2040Y471D02*
X2042Y471D01*
X2127Y471D02*
X2129Y471D01*
X197Y470D02*
X199Y470D01*
X285Y470D02*
X287Y470D01*
X473Y470D02*
X475Y470D01*
X560Y470D02*
X562Y470D01*
X748Y470D02*
X750Y470D01*
X836Y470D02*
X838Y470D01*
X1024Y470D02*
X1026Y470D01*
X1111Y470D02*
X1113Y470D01*
X1299Y470D02*
X1301Y470D01*
X1387Y470D02*
X1389Y470D01*
X1575Y470D02*
X1577Y470D01*
X1663Y470D02*
X1664Y470D01*
X1850Y470D02*
X1852Y470D01*
X1938Y470D02*
X1940Y470D01*
X2040Y470D02*
X2042Y470D01*
X2127Y470D02*
X2129Y470D01*
X197Y469D02*
X199Y469D01*
X285Y469D02*
X287Y469D01*
X473Y469D02*
X475Y469D01*
X560Y469D02*
X562Y469D01*
X748Y469D02*
X750Y469D01*
X836Y469D02*
X838Y469D01*
X1024Y469D02*
X1026Y469D01*
X1111Y469D02*
X1113Y469D01*
X1299Y469D02*
X1301Y469D01*
X1387Y469D02*
X1389Y469D01*
X1575Y469D02*
X1577Y469D01*
X1663Y469D02*
X1664Y469D01*
X1850Y469D02*
X1852Y469D01*
X1938Y469D02*
X1940Y469D01*
X2040Y469D02*
X2042Y469D01*
X2127Y469D02*
X2129Y469D01*
X197Y468D02*
X199Y468D01*
X285Y468D02*
X287Y468D01*
X473Y468D02*
X562Y468D01*
X748Y468D02*
X838Y468D01*
X1024Y468D02*
X1113Y468D01*
X1299Y468D02*
X1301Y468D01*
X1387Y468D02*
X1389Y468D01*
X1575Y468D02*
X1577Y468D01*
X1663Y468D02*
X1664Y468D01*
X1850Y468D02*
X1852Y468D01*
X1938Y468D02*
X1940Y468D01*
X2040Y468D02*
X2042Y468D01*
X2127Y468D02*
X2129Y468D01*
X197Y467D02*
X199Y467D01*
X285Y467D02*
X287Y467D01*
X473Y467D02*
X562Y467D01*
X748Y467D02*
X838Y467D01*
X1024Y467D02*
X1113Y467D01*
X1299Y467D02*
X1301Y467D01*
X1387Y467D02*
X1389Y467D01*
X1575Y467D02*
X1577Y467D01*
X1663Y467D02*
X1664Y467D01*
X1850Y467D02*
X1852Y467D01*
X1938Y467D02*
X1940Y467D01*
X2040Y467D02*
X2042Y467D01*
X2127Y467D02*
X2129Y467D01*
X197Y466D02*
X199Y466D01*
X285Y466D02*
X287Y466D01*
X473Y466D02*
X562Y466D01*
X749Y466D02*
X838Y466D01*
X1024Y466D02*
X1113Y466D01*
X1299Y466D02*
X1301Y466D01*
X1387Y466D02*
X1389Y466D01*
X1575Y466D02*
X1577Y466D01*
X1663Y466D02*
X1664Y466D01*
X1850Y466D02*
X1852Y466D01*
X1938Y466D02*
X1940Y466D01*
X2040Y466D02*
X2042Y466D01*
X2127Y466D02*
X2129Y466D01*
X197Y465D02*
X199Y465D01*
X285Y465D02*
X287Y465D01*
X1299Y465D02*
X1301Y465D01*
X1387Y465D02*
X1389Y465D01*
X1575Y465D02*
X1577Y465D01*
X1662Y465D02*
X1664Y465D01*
X1850Y465D02*
X1852Y465D01*
X1938Y465D02*
X1940Y465D01*
X2040Y465D02*
X2129Y465D01*
X197Y464D02*
X287Y464D01*
X1299Y464D02*
X1389Y464D01*
X1575Y464D02*
X1664Y464D01*
X1850Y464D02*
X1940Y464D01*
X2040Y464D02*
X2129Y464D01*
X197Y463D02*
X287Y463D01*
X1299Y463D02*
X1389Y463D01*
X1575Y463D02*
X1664Y463D01*
X1850Y463D02*
X1940Y463D01*
X2040Y463D02*
X2129Y463D01*
X198Y462D02*
X286Y462D01*
X1300Y462D02*
X1388Y462D01*
X1575Y462D02*
X1664Y462D01*
X1851Y462D02*
X1939Y462D01*
D02*
G04 End of Silk0*
M02*