<?xml version='1.0' encoding='UTF-8' standalone='no'?>
<!-- Created with Fritzing (http://www.fritzing.org/) -->
<svg xmlns="http://www.w3.org/2000/svg" width="2.35263in" x="0in" version="1.2" y="0in"  height="1.95287in" viewBox="0 0 169.389 140.606" baseProfile="tiny" xmlns:svg="http://www.w3.org/2000/svg">
 <g partID="12040">
  <g id="board">
   <rect width="168.813" x="0.576" y="0.576" fill="none" height="140.03" stroke="black" fill-opacity="0.5" id="boardoutline" stroke-width="0.5"/>
  </g>
 </g>
 <g partID="7487941">
  <g transform="translate(161.027,-0.224572)">
   <g  id="copper1">
    <circle fill="black" cx="4.71811"  cy="4.71811" stroke="black" r="3.11811" id="nonconn0" stroke-width="0"/>
   </g>
  </g>
 </g>
 <g partID="7383501">
  <g transform="translate(-12.0463,8.06521)">
   <g  id="copper1">
    <g  id="copper0">
     <rect width="3.96" x="20.664" y="5.184" fill="none"  height="3.96" stroke="black" stroke-width="1.44"/>
     <circle fill="none" cx="22.68"  cy="7.2" stroke="black" id="connector0pin" r="1.98" stroke-width="1.44"/>
     <circle fill="none" cx="29.88"  cy="7.2" stroke="black" id="connector1pin" r="1.98" stroke-width="1.44"/>
     <circle fill="none" cx="37.08"  cy="7.2" stroke="black" id="connector2pin" r="1.98" stroke-width="1.44"/>
     <circle fill="none" cx="44.28"  cy="7.2" stroke="black" id="connector3pin" r="1.98" stroke-width="1.44"/>
     <circle fill="none" cx="51.48"  cy="7.2" stroke="black" id="connector4pin" r="1.98" stroke-width="1.44"/>
     <circle fill="none" cx="58.68"  cy="7.2" stroke="black" id="connector5pin" r="1.98" stroke-width="1.44"/>
     <circle fill="none" cx="65.88"  cy="7.2" stroke="black" id="connector6pin" r="1.98" stroke-width="1.44"/>
     <circle fill="none" cx="73.08"  cy="7.2" stroke="black" id="connector7pin" r="1.98" stroke-width="1.44"/>
     <circle fill="none" cx="80.28"  cy="7.2" stroke="black" id="connector8pin" r="1.98" stroke-width="1.44"/>
     <circle fill="none" cx="87.48"  cy="7.2" stroke="black" id="connector9pin" r="1.98" stroke-width="1.44"/>
     <circle fill="none" cx="94.68"  cy="7.2" stroke="black" id="connector10pin" r="1.98" stroke-width="1.44"/>
     <circle fill="none" cx="101.88"  cy="7.2" stroke="black" id="connector11pin" r="1.98" stroke-width="1.44"/>
     <circle fill="none" cx="109.08"  cy="7.2" stroke="black" id="connector12pin" r="1.98" stroke-width="1.44"/>
     <circle fill="none" cx="116.28"  cy="7.2" stroke="black" id="connector13pin" r="1.98" stroke-width="1.44"/>
     <circle fill="none" cx="123.48"  cy="7.2" stroke="black" id="connector14pin" r="1.98" stroke-width="1.44"/>
     <circle fill="none" cx="130.68"  cy="7.2" stroke="black" id="connector15pin" r="1.98" stroke-width="1.44"/>
    </g>
   </g>
  </g>
 </g>
 <g partID="6832281">
  <g transform="translate(38.5936,27.6417)">
   <g transform="matrix(0,1,-1,0,0,0)">
    <g  id="copper1">
     <g  id="copper0">
      <circle fill="none" cx="3.528"  cy="17.928" stroke="black" id="connector2pad" r="2.52" stroke-width="2.088"/>
      <rect width="5.04" x="1.008" y="1.008" fill="none"  height="5.04" stroke="black" stroke-width="2.088"/>
      <circle fill="none" cx="3.528"  cy="3.528" stroke="black" id="connector0pad" r="2.52" stroke-width="2.088"/>
      <circle fill="none" cx="17.928"  cy="10.728" stroke="black" id="connector1pad" r="2.52" stroke-width="2.088"/>
     </g>
    </g>
   </g>
  </g>
 </g>
 <g partID="6445071">
  <g transform="translate(32.1036,132.348)">
   <g transform="matrix(-1,0,0,-1,0,0)">
    <g  id="copper1">
     <g  id="copper0">
      <circle fill="none" cx="20.8462"  cy="15.6024" stroke="black" id="connector0pad" r="1.98" stroke-width="1.44"/>
      <circle fill="none" cx="2.42064"  cy="15.6024" stroke="black" id="connector1pad" r="1.98" stroke-width="1.44"/>
      <circle fill="none" cx="20.8462"  cy="2.84616" stroke="black" id="connector2pad" r="1.98" stroke-width="1.44"/>
      <circle fill="none" cx="2.42064"  cy="2.84616" stroke="black" id="connector3pad" r="1.98" stroke-width="1.44"/>
     </g>
    </g>
   </g>
  </g>
 </g>
 <g partID="6437831">
  <g transform="translate(66.1196,132.348)">
   <g transform="matrix(-1,0,0,-1,0,0)">
    <g  id="copper1">
     <g  id="copper0">
      <circle fill="none" cx="20.8462"  cy="15.6024" stroke="black" id="connector0pad" r="1.98" stroke-width="1.44"/>
      <circle fill="none" cx="2.42064"  cy="15.6024" stroke="black" id="connector1pad" r="1.98" stroke-width="1.44"/>
      <circle fill="none" cx="20.8462"  cy="2.84616" stroke="black" id="connector2pad" r="1.98" stroke-width="1.44"/>
      <circle fill="none" cx="2.42064"  cy="2.84616" stroke="black" id="connector3pad" r="1.98" stroke-width="1.44"/>
     </g>
    </g>
   </g>
  </g>
 </g>
 <g partID="7108110">
  <g transform="translate(124.785,34.966)">
   <g transform="matrix(0,-1,1,0,0,0)">
    <g  id="copper1">
     <!-- unten links -->
     <rect width="2.26772" x="0.425197" y="5.66929" fill="black"  height="2.55118" stroke="none" fill-opacity="1" id="connector0pin"/>
     <g width="0" x="1.55906" y="6.94488" fill="none"  height="0" id="connector0terminal" stroke-width="0"/>
     <!-- unten rechts -->
     <rect width="2.26772" x="5.81102" y="5.66929" fill="black"  height="2.55118" stroke="none" fill-opacity="1" id="connector1pin"/>
     <g width="0" x="6.94488" y="6.94488" fill="none"  height="0" id="connector1terminal" stroke-width="0"/>
     <!-- oben mitte -->
     <rect width="2.26772" x="3.11811" y="0" fill="black"  height="2.55118" stroke="none" fill-opacity="1" id="connector2pin"/>
     <g width="0" x="4.25197" y="1.27559" fill="none"  height="0" id="connector2terminal" stroke-width="0"/>
    </g>
   </g>
  </g>
 </g>
 <g partID="7125070">
  <g transform="translate(155.824,114.336)">
   <g transform="matrix(-1,0,0,-1,0,0)">
    <g  id="copper1">
     <rect width="4.53543" x="0.566929" y="0.566929" fill="black"  height="5.38583" stroke="none" fill-opacity="1" id="connector0pad"/>
     <rect width="4.53543" x="9.35433" y="0.566929" fill="black"  height="5.38583" stroke="none" fill-opacity="1" id="connector1pad"/>
    </g>
   </g>
  </g>
 </g>
 <g partID="6815150">
  <g transform="translate(141.793,30.5723)">
   <g transform="matrix(0,1,-1,0,0,0)">
    <g  id="copper1">
     <rect width="4.53543" x="0.566929" y="0.566929" fill="black"  height="5.38583" stroke="none" fill-opacity="1" id="connector0pad"/>
     <rect width="4.53543" x="9.35433" y="0.566929" fill="black"  height="5.38583" stroke="none" fill-opacity="1" id="connector1pad"/>
    </g>
   </g>
  </g>
 </g>
 <g partID="6999741">
  <g transform="translate(159.651,135.725)">
   <g transform="matrix(-1,0,0,-1,0,0)">
    <g  id="copper1">
     <g  id="copper0">
      <rect width="3.96" x="16.02" y="6.228" fill="none"  height="3.96" stroke="black" id="rect10" stroke-width="1.44"/>
      <circle fill="none" cx="3.6"  cy="8.208" stroke="black" id="connector0pin" r="1.98" stroke-width="1.44"/>
      <circle fill="none" cx="10.8"  cy="8.208" stroke="black" id="connector1pin" r="1.98" stroke-width="1.44"/>
      <circle fill="none" cx="18"  cy="8.208" stroke="black" id="connector2pin" r="1.98" stroke-width="1.44"/>
     </g>
    </g>
   </g>
  </g>
 </g>
 <g partID="7002931">
  <g transform="translate(100.135,132.348)">
   <g transform="matrix(-1,0,0,-1,0,0)">
    <g  id="copper1">
     <g  id="copper0">
      <circle fill="none" cx="20.8462"  cy="15.6024" stroke="black" id="connector0pad" r="1.98" stroke-width="1.44"/>
      <circle fill="none" cx="2.42064"  cy="15.6024" stroke="black" id="connector1pad" r="1.98" stroke-width="1.44"/>
      <circle fill="none" cx="20.8462"  cy="2.84616" stroke="black" id="connector2pad" r="1.98" stroke-width="1.44"/>
      <circle fill="none" cx="2.42064"  cy="2.84616" stroke="black" id="connector3pad" r="1.98" stroke-width="1.44"/>
     </g>
    </g>
   </g>
  </g>
 </g>
 <g partID="7003301">
  <g transform="translate(134.151,132.348)">
   <g transform="matrix(-1,0,0,-1,0,0)">
    <g  id="copper1">
     <g  id="copper0">
      <circle fill="none" cx="20.8462"  cy="15.6024" stroke="black" id="connector0pad" r="1.98" stroke-width="1.44"/>
      <circle fill="none" cx="2.42064"  cy="15.6024" stroke="black" id="connector1pad" r="1.98" stroke-width="1.44"/>
      <circle fill="none" cx="20.8462"  cy="2.84616" stroke="black" id="connector2pad" r="1.98" stroke-width="1.44"/>
      <circle fill="none" cx="2.42064"  cy="2.84616" stroke="black" id="connector3pad" r="1.98" stroke-width="1.44"/>
     </g>
    </g>
   </g>
  </g>
 </g>
 <g partID="7148161">
  <g transform="translate(6.64155,47.0177)">
   <g transform="matrix(1,0,0,1,0,0)">
    <g  id="copper1">
     <circle fill="none" cx="13.029"  cy="32.333" stroke="black" id="connector11pad" r="2.16" stroke-width="0.999999"/>
     <circle fill="none" cx="13.029"  cy="25.134" stroke="black" id="connector10pad" r="2.16" stroke-width="0.999999"/>
     <circle fill="none" cx="13.029"  cy="17.934" stroke="black" id="connector9pad" r="2.16" stroke-width="0.999999"/>
     <circle fill="none" cx="13.029"  cy="10.734" stroke="black" id="connector8pad" r="2.16" stroke-width="0.999999"/>
    </g>
   </g>
  </g>
 </g>
 <g partID="7303291">
  <g transform="translate(153.041,80.2729)">
   <g transform="matrix(-1,0,0,-1,0,0)">
    <g id="copper1" transform="matrix(1, 0, 0, 1, 0, -809.49)">
     <g stroke-opacity="1" fill="none" stroke="black" style="display:inline" transform="matrix(1, 0, 0, 1, -3.60117, 796.891)">
      <g transform="matrix(1, 0, 0, 1, -14.4, 0)">
       <path stroke-opacity="1" fill="none" stroke="black" style="stroke-linecap:round;stroke-linejoin:miter;stroke-miterlimit:4;stroke-dasharray:none;display:inline" id="connector5pad" stroke-width="1.44" d="m109.8,25.2a1.8,1.8,0,1,1,-3.6,0,1.8,1.8,0,1,1,3.6,0z"/>
      </g>
      <g transform="matrix(1, 0, 0, 1, -21.6, 0)">
       <path stroke-opacity="1" fill="none" stroke="black" style="stroke-linecap:round;stroke-linejoin:miter;stroke-miterlimit:4;stroke-dasharray:none;display:inline" id="connector7pad" stroke-width="1.44" d="m109.8,25.2a1.8,1.8,0,1,1,-3.6,0,1.8,1.8,0,1,1,3.6,0z"/>
      </g>
      <g transform="matrix(1, 0, 0, 1, -28.8, 0)">
       <path stroke-opacity="1" fill="none" stroke="black" style="stroke-linecap:round;stroke-linejoin:miter;stroke-miterlimit:4;stroke-dasharray:none;display:inline" id="connector9pad" stroke-width="1.44" d="m109.8,25.2a1.8,1.8,0,1,1,-3.6,0,1.8,1.8,0,1,1,3.6,0z"/>
      </g>
      <g transform="matrix(1, 0, 0, 1, -50.4, 0)">
       <path stroke-opacity="1" fill="none" stroke="black" style="stroke-linecap:round;stroke-linejoin:miter;stroke-miterlimit:4;stroke-dasharray:none;display:inline" id="connector15pad" stroke-width="1.44" d="m109.8,25.2a1.8,1.8,0,1,1,-3.6,0,1.8,1.8,0,1,1,3.6,0z"/>
      </g>
      <g transform="matrix(1, 0, 0, 1, -57.6, 0)">
       <path stroke-opacity="1" fill="none" stroke="black" style="stroke-linecap:round;stroke-linejoin:miter;stroke-miterlimit:4;stroke-dasharray:none;display:inline" id="connector17pad" stroke-width="1.44" d="m109.8,25.2a1.8,1.8,0,1,1,-3.6,0,1.8,1.8,0,1,1,3.6,0z"/>
      </g>
      <g transform="matrix(1, 0, 0, 1, -64.8, 0)">
       <path stroke-opacity="1" fill="none" stroke="black" style="stroke-linecap:round;stroke-linejoin:miter;stroke-miterlimit:4;stroke-dasharray:none;display:inline" id="connector19pad" stroke-width="1.44" d="m109.8,25.2a1.8,1.8,0,1,1,-3.6,0,1.8,1.8,0,1,1,3.6,0z"/>
      </g>
      <g transform="matrix(1, 0, 0, 1, -36, 0)">
       <path stroke-opacity="1" fill="none" stroke="black" style="stroke-linecap:round;stroke-linejoin:miter;stroke-miterlimit:4;stroke-dasharray:none;display:inline" id="connector11pad" stroke-width="1.44" d="m109.8,25.2a1.8,1.8,0,1,1,-3.6,0,1.8,1.8,0,1,1,3.6,0z"/>
      </g>
      <g transform="matrix(1, 0, 0, 1, -43.2, 0)">
       <path stroke-opacity="1" fill="none" stroke="black" style="stroke-linecap:round;stroke-linejoin:miter;stroke-miterlimit:4;stroke-dasharray:none;display:inline" id="connector13pad" stroke-width="1.44" d="m109.8,25.2a1.8,1.8,0,1,1,-3.6,0,1.8,1.8,0,1,1,3.6,0z"/>
      </g>
      <g transform="matrix(1, 0, 0, 1, -79.2, 0)">
       <path stroke-opacity="1" fill="none" stroke="black" style="stroke-linecap:round;stroke-linejoin:miter;stroke-miterlimit:4;stroke-dasharray:none;display:inline" id="connector23pad" stroke-width="1.44" d="m109.8,25.2a1.8,1.8,0,1,1,-3.6,0,1.8,1.8,0,1,1,3.6,0z"/>
      </g>
      <g transform="matrix(1, 0, 0, 1, -86.4, 0)">
       <path stroke-opacity="1" fill="none" stroke="black" style="stroke-linecap:round;stroke-linejoin:miter;stroke-miterlimit:4;stroke-dasharray:none;display:inline" id="connector25pad" stroke-width="1.44" d="m109.8,25.2a1.8,1.8,0,1,1,-3.6,0,1.8,1.8,0,1,1,3.6,0z"/>
      </g>
      <g transform="matrix(1, 0, 0, 1, -72, 0)">
       <path stroke-opacity="1" fill="none" stroke="black" style="stroke-linecap:round;stroke-linejoin:miter;stroke-miterlimit:4;stroke-dasharray:none;display:inline" id="connector21pad" stroke-width="1.44" d="m109.8,25.2a1.8,1.8,0,1,1,-3.6,0,1.8,1.8,0,1,1,3.6,0z"/>
      </g>
      <g transform="matrix(1, 0, 0, 1, -14.4, 7.2)">
       <path stroke-opacity="1" fill="none" stroke="black" style="stroke-linecap:round;stroke-linejoin:miter;stroke-miterlimit:4;stroke-dasharray:none;display:inline" id="connector6pad" stroke-width="1.44" d="m109.8,25.2a1.8,1.8,0,1,1,-3.6,0,1.8,1.8,0,1,1,3.6,0z"/>
      </g>
      <g transform="matrix(1, 0, 0, 1, -21.6, 7.2)">
       <path stroke-opacity="1" fill="none" stroke="black" style="stroke-linecap:round;stroke-linejoin:miter;stroke-miterlimit:4;stroke-dasharray:none;display:inline" id="connector8pad" stroke-width="1.44" d="m109.8,25.2a1.8,1.8,0,1,1,-3.6,0,1.8,1.8,0,1,1,3.6,0z"/>
      </g>
      <g transform="matrix(1, 0, 0, 1, -28.8, 7.2)">
       <path stroke-opacity="1" fill="none" stroke="black" style="stroke-linecap:round;stroke-linejoin:miter;stroke-miterlimit:4;stroke-dasharray:none;display:inline" id="connector10pad" stroke-width="1.44" d="m109.8,25.2a1.8,1.8,0,1,1,-3.6,0,1.8,1.8,0,1,1,3.6,0z"/>
      </g>
      <g transform="matrix(1, 0, 0, 1, -50.4, 7.2)">
       <path stroke-opacity="1" fill="none" stroke="black" style="stroke-linecap:round;stroke-linejoin:miter;stroke-miterlimit:4;stroke-dasharray:none;display:inline" id="connector16pad" stroke-width="1.44" d="m109.8,25.2a1.8,1.8,0,1,1,-3.6,0,1.8,1.8,0,1,1,3.6,0z"/>
      </g>
      <g transform="matrix(1, 0, 0, 1, -57.6, 7.2)">
       <path stroke-opacity="1" fill="none" stroke="black" style="stroke-linecap:round;stroke-linejoin:miter;stroke-miterlimit:4;stroke-dasharray:none;display:inline" id="connector18pad" stroke-width="1.44" d="m109.8,25.2a1.8,1.8,0,1,1,-3.6,0,1.8,1.8,0,1,1,3.6,0z"/>
      </g>
      <g transform="matrix(1, 0, 0, 1, -64.8, 7.2)">
       <path stroke-opacity="1" fill="none" stroke="black" style="stroke-linecap:round;stroke-linejoin:miter;stroke-miterlimit:4;stroke-dasharray:none;display:inline" id="connector20pad" stroke-width="1.44" d="m109.8,25.2a1.8,1.8,0,1,1,-3.6,0,1.8,1.8,0,1,1,3.6,0z"/>
      </g>
      <g transform="matrix(1, 0, 0, 1, -36, 7.2)">
       <path stroke-opacity="1" fill="none" stroke="black" style="stroke-linecap:round;stroke-linejoin:miter;stroke-miterlimit:4;stroke-dasharray:none;display:inline" id="connector12pad" stroke-width="1.44" d="m109.8,25.2a1.8,1.8,0,1,1,-3.6,0,1.8,1.8,0,1,1,3.6,0z"/>
      </g>
      <g transform="matrix(1, 0, 0, 1, -43.2, 7.2)">
       <path stroke-opacity="1" fill="none" stroke="black" style="stroke-linecap:round;stroke-linejoin:miter;stroke-miterlimit:4;stroke-dasharray:none;display:inline" id="connector14pad" stroke-width="1.44" d="m109.8,25.2a1.8,1.8,0,1,1,-3.6,0,1.8,1.8,0,1,1,3.6,0z"/>
      </g>
      <g transform="matrix(1, 0, 0, 1, -79.2, 7.2)">
       <path stroke-opacity="1" fill="none" stroke="black" style="stroke-linecap:round;stroke-linejoin:miter;stroke-miterlimit:4;stroke-dasharray:none;display:inline" id="connector24pad" stroke-width="1.44" d="m109.8,25.2a1.8,1.8,0,1,1,-3.6,0,1.8,1.8,0,1,1,3.6,0z"/>
      </g>
      <g transform="matrix(1, 0, 0, 1, -86.4, 7.2)">
       <path stroke-opacity="1" fill="none" stroke="black" style="stroke-linecap:round;stroke-linejoin:miter;stroke-miterlimit:4;stroke-dasharray:none;display:inline" id="connector26pad" stroke-width="1.44" d="m109.8,25.2a1.8,1.8,0,1,1,-3.6,0,1.8,1.8,0,1,1,3.6,0z"/>
      </g>
      <g transform="matrix(1, 0, 0, 1, -72, 7.2)">
       <path stroke-opacity="1" fill="none" stroke="black" style="stroke-linecap:round;stroke-linejoin:miter;stroke-miterlimit:4;stroke-dasharray:none;display:inline" id="connector22pad" stroke-width="1.44" d="m109.8,25.2a1.8,1.8,0,1,1,-3.6,0,1.8,1.8,0,1,1,3.6,0z"/>
      </g>
      <g transform="matrix(1, 0, 0, 1, 0, 7.2)">
       <path stroke-opacity="1" fill="none" stroke="black" style="stroke-linecap:round;stroke-linejoin:miter;stroke-miterlimit:4;stroke-dasharray:none;display:inline" id="connector2pad" stroke-width="1.44" d="m109.8,25.2a1.8,1.8,0,1,1,-3.6,0,1.8,1.8,0,1,1,3.6,0z"/>
      </g>
      <g transform="matrix(1, 0, 0, 1, -7.2, 7.2)">
       <path stroke-opacity="1" fill="none" stroke="black" style="stroke-linecap:round;stroke-linejoin:miter;stroke-miterlimit:4;stroke-dasharray:none;display:inline" id="connector4pad" stroke-width="1.44" d="m109.8,25.2a1.8,1.8,0,1,1,-3.6,0,1.8,1.8,0,1,1,3.6,0z"/>
      </g>
      <rect width="3.6" x="106.2" y="23.4" stroke-opacity="1" fill="none" height="3.6" stroke="black" style="stroke-linecap:round;stroke-linejoin:miter;stroke-miterlimit:4;stroke-dasharray:none;display:inline" id="rect4984" stroke-width="1.44"/>
      <path stroke-opacity="1" fill="none" stroke="black" style="stroke-linecap:round;stroke-linejoin:miter;stroke-miterlimit:4;stroke-dasharray:none" id="connector1pad" stroke-width="1.44" d="m109.8,25.2a1.8,1.8,0,1,1,-3.6,0,1.8,1.8,0,1,1,3.6,0z"/>
      <g transform="matrix(1, 0, 0, 1, -7.2, 0)">
       <path stroke-opacity="1" fill="none" stroke="black" style="stroke-linecap:round;stroke-linejoin:miter;stroke-miterlimit:4;stroke-dasharray:none" id="connector3pad" stroke-width="1.44" d="m109.8,25.2a1.8,1.8,0,1,1,-3.6,0,1.8,1.8,0,1,1,3.6,0z"/>
      </g>
     </g>
    </g>
   </g>
  </g>
 </g>
 <g partID="7407981">
  <g transform="translate(21.2794,92.7518)">
   <g  id="copper1">
    <circle fill="none" cx="3.01733"  cy="3.01733" stroke="black" r="0.992124" id="connector0pin" stroke-width="0.850392"/>
   </g>
  </g>
 </g>
 <g partID="7409471">
  <g transform="translate(45.3739,92.7518)">
   <g  id="copper1">
    <circle fill="none" cx="3.01733"  cy="3.01733" stroke="black" r="0.992124" id="connector0pin" stroke-width="0.850392"/>
   </g>
  </g>
 </g>
 <g partID="7473911">
  <g transform="translate(135.516,76.8778)">
   <g  id="copper1">
    <circle fill="none" cx="3.01732"  cy="3.01732" stroke="black" r="0.992124" id="connector0pin" stroke-width="0.850392"/>
   </g>
  </g>
 </g>
 <g partID="7474371">
  <g transform="translate(41.9723,45.4132)">
   <g  id="copper1">
    <circle fill="none" cx="3.01732"  cy="3.01732" stroke="black" r="0.992124" id="connector0pin" stroke-width="0.850392"/>
   </g>
  </g>
 </g>
 <g partID="7475911">
  <g transform="translate(96.1141,49.6652)">
   <g  id="copper1">
    <circle fill="none" cx="3.01732"  cy="3.01732" stroke="black" r="0.992124" id="connector0pin" stroke-width="0.850392"/>
   </g>
  </g>
 </g>
 <g partID="7487631">
  <g transform="translate(0.0195603,-0.224572)">
   <g  id="copper1">
    <circle fill="black" cx="4.71811"  cy="4.71811" stroke="black" r="3.11811" id="nonconn0" stroke-width="0"/>
   </g>
  </g>
 </g>
 <g partID="7487971">
  <g transform="translate(160.744,131.87)">
   <g  id="copper1">
    <circle fill="black" cx="4.71811"  cy="4.71811" stroke="black" r="3.11811" id="nonconn0" stroke-width="0"/>
   </g>
  </g>
 </g>
 <g partID="7497521">
  <g transform="translate(102.917,49.3817)">
   <g  id="copper1">
    <circle fill="none" cx="3.01733"  cy="3.01733" stroke="black" r="0.992124" id="connector0pin" stroke-width="0.850392"/>
   </g>
  </g>
 </g>
 <g partID="7498411">
  <g transform="translate(142.886,25.0038)">
   <g  id="copper1">
    <circle fill="none" cx="3.01733"  cy="3.01733" stroke="black" r="0.992124" id="connector0pin" stroke-width="0.850392"/>
   </g>
  </g>
 </g>
 <g partID="7499291">
  <g transform="translate(78.8851,39.8489)">
   <g  id="copper1">
    <circle fill="none" cx="3.01733"  cy="3.01733" stroke="black" r="0.992124" id="connector0pin" stroke-width="0.850392"/>
   </g>
  </g>
 </g>
 <g partID="7503031">
  <g transform="translate(23.6694,51.1431)">
   <g  id="copper1">
    <circle fill="none" cx="3.01733"  cy="3.01733" stroke="black" r="0.992124" id="connector0pin" stroke-width="0.850392"/>
   </g>
  </g>
 </g>
 <g partID="7361490">
  <line stroke="black" stroke-linecap="round" y1="69.5507" x1="70.307" y2="71.0698" stroke-width="1.728" x2="70.3597"/>
 </g>
 <g partID="7361530">
  <line stroke="black" stroke-linecap="round" y1="71.0698" x1="70.3597" y2="83.7964" stroke-width="1.728" x2="80.1769"/>
 </g>
 <g partID="7361710">
  <line stroke="black" stroke-linecap="round" y1="83.7964" x1="80.1769" y2="83.7964" stroke-width="1.728" x2="136.282"/>
 </g>
 <g partID="7458720">
  <line stroke="black" stroke-linecap="round" y1="92.0241" x1="144.146" y2="108.783" stroke-width="1.728" x2="144.195"/>
 </g>
 <g partID="7458570">
  <line stroke="black" stroke-linecap="round" y1="83.7964" x1="136.282" y2="92.0241" stroke-width="1.728" x2="144.146"/>
 </g>
 <g partID="7384970">
  <line stroke="black" stroke-linecap="round" y1="29.3548" x1="33.6921" y2="21.7648" stroke-width="1.728" x2="27.9485"/>
 </g>
 <g partID="7387520">
  <line stroke="black" stroke-linecap="round" y1="8.76888" x1="35.6332" y2="13.4871" stroke-width="1.728" x2="38.3935"/>
 </g>
 <g partID="7387050">
  <line stroke="black" stroke-linecap="round" y1="8.69571" x1="14.5828" y2="8.76888" stroke-width="1.728" x2="35.6332"/>
 </g>
 <g partID="7386570">
  <line stroke="black" stroke-linecap="round" y1="13.4996" x1="11.6951" y2="8.69571" stroke-width="1.728" x2="14.5828"/>
 </g>
 <g partID="7389140">
  <line stroke="black" stroke-linecap="round" y1="8.80921" x1="49.8409" y2="13.5134" stroke-width="1.728" x2="52.7506"/>
 </g>
 <g partID="7388690">
  <line stroke="black" stroke-linecap="round" y1="8.67001" x1="43.4409" y2="8.80914" stroke-width="1.728" x2="49.8409"/>
 </g>
 <g partID="7388010">
  <line stroke="black" stroke-linecap="round" y1="13.5047" x1="40.5034" y2="8.67001" stroke-width="1.728" x2="43.4409"/>
 </g>
 <g partID="7389650">
  <line stroke="black" stroke-linecap="round" y1="15.2652" x1="55.8937" y2="15.2652" stroke-width="1.728" x2="58.9737"/>
 </g>
 <g partID="7390070">
  <line stroke="black" stroke-linecap="round" y1="15.2652" x1="63.0937" y2="15.2652" stroke-width="1.728" x2="66.1737"/>
 </g>
 <g partID="7390470">
  <line stroke="black" stroke-linecap="round" y1="15.2652" x1="70.2937" y2="15.2652" stroke-width="1.728" x2="73.3737"/>
 </g>
 <g partID="7391790">
  <line stroke="black" stroke-linecap="round" y1="29.9802" x1="125.504" y2="20.9095" stroke-width="1.728" x2="118.629"/>
 </g>
 <g partID="7491290">
  <line stroke="black" stroke-linecap="round" y1="54.0763" x1="42.1078" y2="54.0763" stroke-width="1.728" x2="58.0474"/>
 </g>
 <g partID="7403180">
  <line stroke="black" stroke-linecap="round" y1="33.4457" x1="35.0705" y2="48.7631" stroke-width="1.728" x2="35.104"/>
 </g>
 <g partID="7490000">
  <line stroke="black" stroke-linecap="round" y1="48.7631" x1="35.104" y2="54.0763" stroke-width="1.728" x2="42.1078"/>
 </g>
 <g partID="7403170">
  <line stroke="black" stroke-linecap="round" y1="54.0763" x1="58.0474" y2="58.9901" stroke-width="1.728" x2="61.8848"/>
 </g>
 <g partID="7404440">
  <line stroke="black" stroke-linecap="round" y1="63.9721" x1="74.1656" y2="64.0272" stroke-width="0.576" x2="66.5203"/>
 </g>
 <g partID="7404030">
  <line stroke="black" stroke-linecap="round" y1="64.0272" x1="66.5203" y2="61.5297" stroke-width="0.576" x2="64.0769"/>
 </g>
 <g partID="7403630">
  <line stroke="black" stroke-linecap="round" y1="66.5638" x1="76.4607" y2="63.9721" stroke-width="0.576" x2="74.1656"/>
 </g>
 <g partID="7409390">
  <line stroke="black" stroke-linecap="round" y1="95.7691" x1="47.0243" y2="95.7691" stroke-width="1.728" x2="25.6637"/>
 </g>
 <g partID="7409550">
  <line stroke="black" stroke-linecap="round" y1="94.4023" x1="48.4034" y2="69.5518" stroke-width="1.728" x2="48.6252"/>
 </g>
 <g partID="7409720">
  <line stroke="black" stroke-linecap="round" y1="16.7218" x1="48.0904" y2="47.4844" stroke-width="1.728" x2="78.8529"/>
 </g>
 <g partID="7409980">
  <line stroke="black" stroke-linecap="round" y1="47.4844" x1="78.8529" y2="47.5721" stroke-width="1.728" x2="109.981"/>
 </g>
 <g partID="7410140">
  <line stroke="black" stroke-linecap="round" y1="47.5721" x1="109.981" y2="59.0227" stroke-width="1.728" x2="119.444"/>
 </g>
 <g partID="7410220">
  <line stroke="black" stroke-linecap="round" y1="33.4069" x1="132.605" y2="33.4069" stroke-width="1.728" x2="136.24"/>
 </g>
 <g partID="7412040">
  <line stroke="black" stroke-linecap="round" y1="37.6898" x1="115.314" y2="55.5721" stroke-width="1.728" x2="130.53"/>
 </g>
 <g partID="7412060">
  <line stroke="black" stroke-linecap="round" y1="55.5721" x1="140.255" y2="72.5133" stroke-width="1.728" x2="140.255"/>
 </g>
 <g partID="7412240">
  <line stroke="black" stroke-linecap="round" y1="72.5133" x1="140.255" y2="72.5809" stroke-width="1.728" x2="116.412"/>
 </g>
 <g partID="7412260">
  <line stroke="black" stroke-linecap="round" y1="72.5809" x1="116.412" y2="69.2804" stroke-width="1.728" x2="114.415"/>
 </g>
 <g partID="7413500">
  <line stroke="black" stroke-linecap="round" y1="51.0231" x1="143.863" y2="75.9643" stroke-width="1.728" x2="143.863"/>
 </g>
 <g partID="7413680">
  <line stroke="black" stroke-linecap="round" y1="75.9643" x1="143.863" y2="76.2529" stroke-width="1.728" x2="98.0088"/>
 </g>
 <g partID="7413700">
  <line stroke="black" stroke-linecap="round" y1="76.2529" x1="98.0088" y2="69.1985" stroke-width="1.728" x2="92.9391"/>
 </g>
 <g partID="7411840">
  <line stroke="black" stroke-linecap="round" y1="16.7769" x1="84.0332" y2="37.6898" stroke-width="1.728" x2="103.393"/>
 </g>
 <g partID="7413280">
  <line stroke="black" stroke-linecap="round" y1="16.8274" x1="98.3765" y2="34.1604" stroke-width="1.728" x2="113.275"/>
 </g>
 <g partID="7427570">
  <line stroke="black" stroke-linecap="round" y1="63.9721" x1="95.9878" y2="61.4266" stroke-width="0.576" x2="92.9728"/>
 </g>
 <g partID="7428010">
  <line stroke="black" stroke-linecap="round" y1="63.9721" x1="109.627" y2="63.9721" stroke-width="0.576" x2="95.9878"/>
 </g>
 <g partID="7427580">
  <line stroke="black" stroke-linecap="round" y1="61.4721" x1="112.352" y2="63.9721" stroke-width="0.576" x2="109.627"/>
 </g>
 <g partID="7429310">
  <line stroke="black" stroke-linecap="round" y1="53.4" x1="106.865" y2="59.0951" stroke-width="1.728" x2="112.162"/>
 </g>
 <g partID="7428920">
  <line stroke="black" stroke-linecap="round" y1="28.0211" x1="132.605" y2="28.0211" stroke-width="1.728" x2="144.536"/>
 </g>
 <g partID="7457930">
  <line stroke="black" stroke-linecap="round" y1="60.4552" x1="46.762" y2="60.3437" stroke-width="1.728" x2="34.178"/>
 </g>
 <g partID="7458090">
  <line stroke="black" stroke-linecap="round" y1="79.5505" x1="19.7632" y2="74.2455" stroke-width="1.728" x2="26.7717"/>
 </g>
 <g partID="7458420">
  <line stroke="black" stroke-linecap="round" y1="75.9325" x1="14.6152" y2="79.5505" stroke-width="1.728" x2="19.7632"/>
 </g>
 <g partID="7458310">
  <line stroke="black" stroke-linecap="round" y1="54.3673" x1="14.6152" y2="75.9325" stroke-width="1.728" x2="14.6152"/>
 </g>
 <g partID="7458210">
  <line stroke="black" stroke-linecap="round" y1="47.8859" x1="20.5691" y2="54.3673" stroke-width="1.728" x2="14.6152"/>
 </g>
 <g partID="7458100">
  <line stroke="black" stroke-linecap="round" y1="33.4457" x1="20.6524" y2="47.8859" stroke-width="1.728" x2="20.5691"/>
 </g>
 <g partID="7472430">
  <line stroke="black" stroke-linecap="round" y1="113.369" x1="153.005" y2="119.929" stroke-width="1.728" x2="153.05"/>
 </g>
 <g partID="7473510">
  <line stroke="black" stroke-linecap="round" y1="42.3484" x1="140.826" y2="42.5525" stroke-width="1.728" x2="143.863"/>
 </g>
 <g partID="7474390">
  <line stroke="black" stroke-linecap="round" y1="48.428" x1="46.3566" y2="48.4008" stroke-width="1.728" x2="60.5833"/>
 </g>
 <g partID="7474710">
  <line stroke="black" stroke-linecap="round" y1="48.4008" x1="60.5833" y2="59.0039" stroke-width="1.728" x2="69.0674"/>
 </g>
 <g partID="7475930">
  <line stroke="black" stroke-linecap="round" y1="52.6925" x1="97.7645" y2="52.7486" stroke-width="1.728" x2="90.0593"/>
 </g>
 <g partID="7476210">
  <line stroke="black" stroke-linecap="round" y1="125.738" x1="147.812" y2="119.62" stroke-width="1.728" x2="144.238"/>
 </g>
 <g partID="7476510">
  <line stroke="black" stroke-linecap="round" y1="119.62" x1="144.238" y2="113.369" stroke-width="1.728" x2="144.212"/>
 </g>
 <g partID="7476610">
  <line stroke="black" stroke-linecap="round" y1="129.098" x1="133.75" y2="127.921" stroke-width="1.728" x2="139.631"/>
 </g>
 <g partID="7476850">
  <line stroke="black" stroke-linecap="round" y1="57.2508" x1="22.079" y2="57.1408" stroke-width="1.728" x2="22.6083"/>
 </g>
 <g partID="7476990">
  <line stroke="black" stroke-linecap="round" y1="48.7631" x1="35.104" y2="33.4457" stroke-width="1.728" x2="35.0705"/>
 </g>
 <g partID="7493480">
  <line stroke="black" stroke-linecap="round" y1="65.5329" x1="26.8266" y2="60.6681" stroke-width="1.728" x2="34.178"/>
 </g>
 <g partID="7493590">
  <line stroke="black" stroke-linecap="round" y1="60.6681" x1="34.178" y2="60.4973" stroke-width="1.728" x2="46.7621"/>
 </g>
 <g partID="7493380">
  <line stroke="black" stroke-linecap="round" y1="74.2455" x1="26.7717" y2="65.5329" stroke-width="1.728" x2="26.8266"/>
 </g>
 <g partID="7494090">
  <line stroke="black" stroke-linecap="round" y1="74.1816" x1="26.8266" y2="77.9102" stroke-width="1.728" x2="21.6647"/>
 </g>
 <g partID="7493980">
  <line stroke="black" stroke-linecap="round" y1="65.2086" x1="26.8266" y2="74.1816" stroke-width="1.728" x2="26.8266"/>
 </g>
 <g partID="7493870">
  <line stroke="black" stroke-linecap="round" y1="60.3437" x1="34.178" y2="65.2086" stroke-width="1.728" x2="26.8266"/>
 </g>
 <g partID="7494410">
  <line stroke="black" stroke-linecap="round" y1="119.929" x1="153.05" y2="125.601" stroke-width="1.728" x2="155.293"/>
 </g>
 <g partID="7495030">
  <line stroke="black" stroke-linecap="round" y1="21.7648" x1="15.1948" y2="16.9514" stroke-width="1.728" x2="11.8171"/>
 </g>
 <g partID="7495480">
  <line stroke="black" stroke-linecap="round" y1="21.7648" x1="27.9485" y2="21.7648" stroke-width="1.728" x2="15.1948"/>
 </g>
 <g partID="7496910">
  <line stroke="black" stroke-linecap="round" y1="57.1408" x1="22.6083" y2="54.9669" stroke-width="1.728" x2="25.5831"/>
 </g>
 <g partID="7498960">
  <line stroke="black" stroke-linecap="round" y1="52.7486" x1="90.0593" y2="58.9327" stroke-width="1.728" x2="85.7215"/>
 </g>
 <g partID="7499100">
  <line stroke="black" stroke-linecap="round" y1="59.0414" x1="126.622" y2="43.0231" stroke-width="1.728" x2="112.961"/>
 </g>
 <g partID="7499190">
  <line stroke="black" stroke-linecap="round" y1="43.0231" x1="112.961" y2="42.8732" stroke-width="1.728" x2="83.2693"/>
 </g>
 <g partID="7499440">
  <line stroke="black" stroke-linecap="round" y1="55.5721" x1="130.53" y2="55.5721" stroke-width="1.728" x2="140.255"/>
 </g>
 <g partID="7499490">
  <line stroke="black" stroke-linecap="round" y1="37.6898" x1="103.393" y2="37.6898" stroke-width="1.728" x2="115.314"/>
 </g>
 <g partID="7499560">
  <line stroke="black" stroke-linecap="round" y1="51.0231" x1="135.079" y2="51.0231" stroke-width="1.728" x2="143.863"/>
 </g>
 <g partID="7499610">
  <line stroke="black" stroke-linecap="round" y1="34.1604" x1="120.177" y2="51.0231" stroke-width="1.728" x2="135.079"/>
 </g>
 <g partID="7499660">
  <line stroke="black" stroke-linecap="round" y1="34.1604" x1="113.275" y2="34.1604" stroke-width="1.728" x2="120.177"/>
 </g>
 <g partID="7499900">
  <line stroke="black" stroke-linecap="round" y1="42.5525" x1="143.863" y2="48.3565" stroke-width="1.728" x2="148.412"/>
 </g>
 <g partID="7473790">
  <line stroke="black" stroke-linecap="round" y1="79.8951" x1="148.412" y2="79.8951" stroke-width="1.728" x2="139.9"/>
 </g>
 <g partID="7500170">
  <line stroke="black" stroke-linecap="round" y1="20.9095" x1="118.629" y2="17.3252" stroke-width="1.728" x2="118.632"/>
 </g>
 <g partID="7500670">
  <line stroke="black" stroke-linecap="round" y1="48.3565" x1="148.412" y2="79.8951" stroke-width="1.728" x2="148.412"/>
 </g>
 <g partID="7502590">
  <line stroke="black" stroke-linecap="round" y1="53.4225" x1="27.8374" y2="48.7631" stroke-width="1.728" x2="35.104"/>
 </g>
 <g partID="7405230">
  <line stroke="black" stroke-linecap="round" y1="63.9993" x1="81.012" y2="63.9993" stroke-width="0.576" x2="88.3744"/>
 </g>
 <g partID="7405620">
  <line stroke="black" stroke-linecap="round" y1="63.9993" x1="88.3744" y2="61.5273" stroke-width="0.576" x2="90.8044"/>
 </g>
 <g partID="7404850">
  <line stroke="black" stroke-linecap="round" y1="66.6106" x1="78.4735" y2="63.9993" stroke-width="0.576" x2="81.012"/>
 </g>
</svg>
