<?xml version='1.0' encoding='UTF-8' standalone='no'?>
<!-- Created with Fritzing (http://www.fritzing.org/) -->
<svg xmlns="http://www.w3.org/2000/svg" width="1.45513in" x="0in" version="1.2" y="0in"  height="1.41771in" viewBox="0 0 104.77 102.075" baseProfile="tiny" xmlns:svg="http://www.w3.org/2000/svg">
 <g transform="matrix(-1, 0, 0, 1, 104.77, 0)">
  <g partID="12040">
   <g id="board">
    <rect width="104.194" x="0.288" y="0.288" fill="none" height="101.499" stroke="black" fill-opacity="0.5" id="boardoutline" stroke-width="0.5"/>
   </g>
  </g>
  <g partID="8164301">
   <g transform="translate(28.2916,45.8875)">
    <g  id="copper1">
     <circle fill="none" cx="3.01733"  cy="3.01733" stroke="black" r="0.992124" id="connector0pin" stroke-width="0.850392"/>
    </g>
   </g>
  </g>
  <g partID="8166991">
   <g transform="translate(46.099,63.1611)">
    <g  id="copper1">
     <circle fill="none" cx="3.01733"  cy="3.01733" stroke="black" r="0.992124" id="connector0pin" stroke-width="0.850392"/>
    </g>
   </g>
  </g>
  <g partID="8155071">
   <g transform="translate(28.2133,19.1691)">
    <g  id="copper1">
     <circle fill="none" cx="3.01732"  cy="3.01732" stroke="black" r="0.992124" id="connector0pin" stroke-width="0.850392"/>
    </g>
   </g>
  </g>
  <g partID="7717641">
   <g transform="translate(56.8588,92.2819)">
    <g  id="copper1">
     <g  id="copper0">
      <circle fill="none" cx="5.04"  cy="5.04" stroke="black" id="connector0pin" r="2.088" stroke-width="1.44"/>
     </g>
    </g>
   </g>
  </g>
  <g partID="7717621">
   <g transform="translate(3.28403,92.282)">
    <g  id="copper1">
     <g  id="copper0">
      <circle fill="none" cx="5.04"  cy="5.04" stroke="black" id="connector0pin" r="2.088" stroke-width="1.44"/>
     </g>
    </g>
   </g>
  </g>
  <g partID="7717601">
   <g transform="translate(47.788,92.2819)">
    <g  id="copper1">
     <g  id="copper0">
      <circle fill="none" cx="5.04"  cy="5.04" stroke="black" id="connector0pin" r="2.088" stroke-width="1.44"/>
     </g>
    </g>
   </g>
  </g>
  <g partID="7717561">
   <g transform="translate(23.9769,63.3683)">
    <g  id="copper1">
     <g  id="copper0">
      <circle fill="none" cx="5.04"  cy="5.04" stroke="black" id="connector0pin" r="2.088" stroke-width="1.44"/>
     </g>
    </g>
   </g>
  </g>
  <g partID="7717501">
   <g transform="translate(32.1974,63.3683)">
    <g  id="copper1">
     <g  id="copper0">
      <circle fill="none" cx="5.04"  cy="5.04" stroke="black" id="connector0pin" r="2.088" stroke-width="1.44"/>
     </g>
    </g>
   </g>
  </g>
  <g partID="7717481">
   <g transform="translate(20.8588,92.282)">
    <g  id="copper1">
     <g  id="copper0">
      <circle fill="none" cx="5.04"  cy="5.04" stroke="black" id="connector0pin" r="2.088" stroke-width="1.44"/>
     </g>
    </g>
   </g>
  </g>
  <g partID="7717461">
   <g transform="translate(12.0714,92.282)">
    <g  id="copper1">
     <g  id="copper0">
      <circle fill="none" cx="5.04"  cy="5.04" stroke="black" id="connector0pin" r="2.088" stroke-width="1.44"/>
     </g>
    </g>
   </g>
  </g>
  <g partID="7717441">
   <g transform="translate(92.5754,31.9043)">
    <g  id="copper1">
     <g  id="copper0">
      <circle fill="none" cx="5.04"  cy="5.04" stroke="black" id="connector0pin" r="2.088" stroke-width="1.44"/>
     </g>
    </g>
   </g>
  </g>
  <g partID="7979061">
   <g transform="translate(92.0084,92.2819)">
    <g  id="copper1">
     <g  id="copper0">
      <circle fill="none" cx="5.04"  cy="5.04" stroke="black" id="connector0pin" r="2.088" stroke-width="1.44"/>
     </g>
    </g>
   </g>
  </g>
  <g partID="7717361">
   <g transform="translate(74.1502,92.2819)">
    <g  id="copper1">
     <g  id="copper0">
      <circle fill="none" cx="5.04"  cy="5.04" stroke="black" id="connector0pin" r="2.088" stroke-width="1.44"/>
     </g>
    </g>
   </g>
  </g>
  <g partID="7716181">
   <g transform="translate(29.6463,92.2819)">
    <g transform="matrix(1,4.26227e-18,-4.26227e-18,1,0,0)">
     <g  id="copper1">
      <g  id="copper0">
       <circle fill="none" cx="5.04"  cy="5.04" stroke="black" id="connector0pin" r="2.088" stroke-width="1.44"/>
      </g>
     </g>
    </g>
   </g>
  </g>
  <g partID="7978001">
   <g transform="translate(83.2211,92.2819)">
    <g  id="copper1">
     <g  id="copper0">
      <circle fill="none" cx="5.04"  cy="5.04" stroke="black" id="connector0pin" r="2.088" stroke-width="1.44"/>
     </g>
    </g>
   </g>
  </g>
  <g partID="7716141">
   <g transform="translate(66.2131,92.2819)">
    <g  id="copper1">
     <g  id="copper0">
      <circle fill="none" cx="5.04"  cy="5.04" stroke="black" id="connector0pin" r="2.088" stroke-width="1.44"/>
     </g>
    </g>
   </g>
  </g>
  <g partID="7716051">
   <g transform="translate(38.7171,92.2819)">
    <g  id="copper1">
     <g  id="copper0">
      <circle fill="none" cx="5.04"  cy="5.04" stroke="black" id="connector0pin" r="2.088" stroke-width="1.44"/>
     </g>
    </g>
   </g>
  </g>
  <g partID="6832281">
   <g transform="translate(80.1976,67.9683)">
    <g transform="matrix(0,-1,1,0,0,0)">
     <g  id="copper1">
      <g  id="copper0">
       <circle fill="none" cx="3.528"  cy="17.928" stroke="black" id="connector2pad" r="2.52" stroke-width="2.088"/>
       <rect width="5.04" x="1.008" y="1.008" fill="none"  height="5.04" stroke="black" stroke-width="2.088"/>
       <circle fill="none" cx="3.528"  cy="3.528" stroke="black" id="connector0pad" r="2.52" stroke-width="2.088"/>
       <circle fill="none" cx="17.928"  cy="10.728" stroke="black" id="connector1pad" r="2.52" stroke-width="2.088"/>
      </g>
     </g>
    </g>
   </g>
  </g>
  <g partID="7838102">
   <g transform="translate(74.2411,48.0114)">
    <g transform="matrix(-1,0,0,-1,0,0)">
     <g flipped="1" id="copper1">
      <g transform="matrix(-1, 0, 0, 1, 23.2668, 0)">
       <g>
        <g>
         <circle fill="none" cx="20.8462" cy="15.6024" stroke="black" id="connector0pad" r="1.98" stroke-width="1.44"/>
         <circle fill="none" cx="2.42064" cy="15.6024" stroke="black" id="connector1pad" r="1.98" stroke-width="1.44"/>
         <circle fill="none" cx="20.8462" cy="2.84616" stroke="black" id="connector2pad" r="1.98" stroke-width="1.44"/>
         <circle fill="none" cx="2.42064" cy="2.84616" stroke="black" id="connector3pad" r="1.98" stroke-width="1.44"/>
        </g>
       </g>
      </g>
     </g>
    </g>
   </g>
  </g>
  <g partID="7838302">
   <g transform="translate(24.6347,21.6482)">
    <g transform="matrix(-1,0,0,-1,0,0)">
     <g flipped="1" id="copper1">
      <g transform="matrix(-1, 0, 0, 1, 23.2668, 0)">
       <g>
        <g>
         <circle fill="none" cx="20.8462" cy="15.6024" stroke="black" id="connector0pad" r="1.98" stroke-width="1.44"/>
         <circle fill="none" cx="2.42064" cy="15.6024" stroke="black" id="connector1pad" r="1.98" stroke-width="1.44"/>
         <circle fill="none" cx="20.8462" cy="2.84616" stroke="black" id="connector2pad" r="1.98" stroke-width="1.44"/>
         <circle fill="none" cx="2.42064" cy="2.84616" stroke="black" id="connector3pad" r="1.98" stroke-width="1.44"/>
        </g>
       </g>
      </g>
     </g>
    </g>
   </g>
  </g>
  <g partID="7837862">
   <g transform="translate(74.2411,21.6482)">
    <g transform="matrix(-1,0,0,-1,0,0)">
     <g flipped="1" id="copper1">
      <g transform="matrix(-1, 0, 0, 1, 23.2668, 0)">
       <g>
        <g>
         <circle fill="none" cx="20.8462" cy="15.6024" stroke="black" id="connector0pad" r="1.98" stroke-width="1.44"/>
         <circle fill="none" cx="2.42064" cy="15.6024" stroke="black" id="connector1pad" r="1.98" stroke-width="1.44"/>
         <circle fill="none" cx="20.8462" cy="2.84616" stroke="black" id="connector2pad" r="1.98" stroke-width="1.44"/>
         <circle fill="none" cx="2.42064" cy="2.84616" stroke="black" id="connector3pad" r="1.98" stroke-width="1.44"/>
        </g>
       </g>
      </g>
     </g>
    </g>
   </g>
  </g>
  <g partID="7838502">
   <g transform="translate(24.6347,48.0106)">
    <g transform="matrix(-1,0,0,-1,0,0)">
     <g flipped="1" id="copper1">
      <g transform="matrix(-1, 0, 0, 1, 23.2668, 0)">
       <g>
        <g>
         <circle fill="none" cx="20.8462" cy="15.6024" stroke="black" id="connector0pad" r="1.98" stroke-width="1.44"/>
         <circle fill="none" cx="2.42064" cy="15.6024" stroke="black" id="connector1pad" r="1.98" stroke-width="1.44"/>
         <circle fill="none" cx="20.8462" cy="2.84616" stroke="black" id="connector2pad" r="1.98" stroke-width="1.44"/>
         <circle fill="none" cx="2.42064" cy="2.84616" stroke="black" id="connector3pad" r="1.98" stroke-width="1.44"/>
        </g>
       </g>
      </g>
     </g>
    </g>
   </g>
  </g>
  <g partID="7303291">
   <g transform="translate(-7.40942,65.7307)">
    <g transform="matrix(1, 0, 0, 1, 0, -809.49)">
     <g id="copper1">
      <g transform="matrix(1, 0, 0, 1, -3.60117, 796.891)">
       <g stroke-opacity="1" fill="none" stroke="black" style="display:inline">
        <g transform="matrix(1, 0, 0, 1, -14.4, 0)">
         <path stroke-opacity="1" fill="none" stroke="black" style="stroke-linecap:round;stroke-linejoin:miter;stroke-miterlimit:4;stroke-dasharray:none;display:inline" id="connector5pad" stroke-width="1.44" d="m109.8,25.2a1.8,1.8,0,1,1,-3.6,0,1.8,1.8,0,1,1,3.6,0z"/>
        </g>
        <g transform="matrix(1, 0, 0, 1, -21.6, 0)">
         <path stroke-opacity="1" fill="none" stroke="black" style="stroke-linecap:round;stroke-linejoin:miter;stroke-miterlimit:4;stroke-dasharray:none;display:inline" id="connector7pad" stroke-width="1.44" d="m109.8,25.2a1.8,1.8,0,1,1,-3.6,0,1.8,1.8,0,1,1,3.6,0z"/>
        </g>
        <g transform="matrix(1, 0, 0, 1, -28.8, 0)">
         <path stroke-opacity="1" fill="none" stroke="black" style="stroke-linecap:round;stroke-linejoin:miter;stroke-miterlimit:4;stroke-dasharray:none;display:inline" id="connector9pad" stroke-width="1.44" d="m109.8,25.2a1.8,1.8,0,1,1,-3.6,0,1.8,1.8,0,1,1,3.6,0z"/>
        </g>
        <g transform="matrix(1, 0, 0, 1, -50.4, 0)">
         <path stroke-opacity="1" fill="none" stroke="black" style="stroke-linecap:round;stroke-linejoin:miter;stroke-miterlimit:4;stroke-dasharray:none;display:inline" id="connector15pad" stroke-width="1.44" d="m109.8,25.2a1.8,1.8,0,1,1,-3.6,0,1.8,1.8,0,1,1,3.6,0z"/>
        </g>
        <g transform="matrix(1, 0, 0, 1, -57.6, 0)">
         <path stroke-opacity="1" fill="none" stroke="black" style="stroke-linecap:round;stroke-linejoin:miter;stroke-miterlimit:4;stroke-dasharray:none;display:inline" id="connector17pad" stroke-width="1.44" d="m109.8,25.2a1.8,1.8,0,1,1,-3.6,0,1.8,1.8,0,1,1,3.6,0z"/>
        </g>
        <g transform="matrix(1, 0, 0, 1, -64.8, 0)">
         <path stroke-opacity="1" fill="none" stroke="black" style="stroke-linecap:round;stroke-linejoin:miter;stroke-miterlimit:4;stroke-dasharray:none;display:inline" id="connector19pad" stroke-width="1.44" d="m109.8,25.2a1.8,1.8,0,1,1,-3.6,0,1.8,1.8,0,1,1,3.6,0z"/>
        </g>
        <g transform="matrix(1, 0, 0, 1, -36, 0)">
         <path stroke-opacity="1" fill="none" stroke="black" style="stroke-linecap:round;stroke-linejoin:miter;stroke-miterlimit:4;stroke-dasharray:none;display:inline" id="connector11pad" stroke-width="1.44" d="m109.8,25.2a1.8,1.8,0,1,1,-3.6,0,1.8,1.8,0,1,1,3.6,0z"/>
        </g>
        <g transform="matrix(1, 0, 0, 1, -43.2, 0)">
         <path stroke-opacity="1" fill="none" stroke="black" style="stroke-linecap:round;stroke-linejoin:miter;stroke-miterlimit:4;stroke-dasharray:none;display:inline" id="connector13pad" stroke-width="1.44" d="m109.8,25.2a1.8,1.8,0,1,1,-3.6,0,1.8,1.8,0,1,1,3.6,0z"/>
        </g>
        <g transform="matrix(1, 0, 0, 1, -79.2, 0)">
         <path stroke-opacity="1" fill="none" stroke="black" style="stroke-linecap:round;stroke-linejoin:miter;stroke-miterlimit:4;stroke-dasharray:none;display:inline" id="connector23pad" stroke-width="1.44" d="m109.8,25.2a1.8,1.8,0,1,1,-3.6,0,1.8,1.8,0,1,1,3.6,0z"/>
        </g>
        <g transform="matrix(1, 0, 0, 1, -86.4, 0)">
         <path stroke-opacity="1" fill="none" stroke="black" style="stroke-linecap:round;stroke-linejoin:miter;stroke-miterlimit:4;stroke-dasharray:none;display:inline" id="connector25pad" stroke-width="1.44" d="m109.8,25.2a1.8,1.8,0,1,1,-3.6,0,1.8,1.8,0,1,1,3.6,0z"/>
        </g>
        <g transform="matrix(1, 0, 0, 1, -72, 0)">
         <path stroke-opacity="1" fill="none" stroke="black" style="stroke-linecap:round;stroke-linejoin:miter;stroke-miterlimit:4;stroke-dasharray:none;display:inline" id="connector21pad" stroke-width="1.44" d="m109.8,25.2a1.8,1.8,0,1,1,-3.6,0,1.8,1.8,0,1,1,3.6,0z"/>
        </g>
        <g transform="matrix(1, 0, 0, 1, -14.4, 7.2)">
         <path stroke-opacity="1" fill="none" stroke="black" style="stroke-linecap:round;stroke-linejoin:miter;stroke-miterlimit:4;stroke-dasharray:none;display:inline" id="connector6pad" stroke-width="1.44" d="m109.8,25.2a1.8,1.8,0,1,1,-3.6,0,1.8,1.8,0,1,1,3.6,0z"/>
        </g>
        <g transform="matrix(1, 0, 0, 1, -21.6, 7.2)">
         <path stroke-opacity="1" fill="none" stroke="black" style="stroke-linecap:round;stroke-linejoin:miter;stroke-miterlimit:4;stroke-dasharray:none;display:inline" id="connector8pad" stroke-width="1.44" d="m109.8,25.2a1.8,1.8,0,1,1,-3.6,0,1.8,1.8,0,1,1,3.6,0z"/>
        </g>
        <g transform="matrix(1, 0, 0, 1, -28.8, 7.2)">
         <path stroke-opacity="1" fill="none" stroke="black" style="stroke-linecap:round;stroke-linejoin:miter;stroke-miterlimit:4;stroke-dasharray:none;display:inline" id="connector10pad" stroke-width="1.44" d="m109.8,25.2a1.8,1.8,0,1,1,-3.6,0,1.8,1.8,0,1,1,3.6,0z"/>
        </g>
        <g transform="matrix(1, 0, 0, 1, -50.4, 7.2)">
         <path stroke-opacity="1" fill="none" stroke="black" style="stroke-linecap:round;stroke-linejoin:miter;stroke-miterlimit:4;stroke-dasharray:none;display:inline" id="connector16pad" stroke-width="1.44" d="m109.8,25.2a1.8,1.8,0,1,1,-3.6,0,1.8,1.8,0,1,1,3.6,0z"/>
        </g>
        <g transform="matrix(1, 0, 0, 1, -57.6, 7.2)">
         <path stroke-opacity="1" fill="none" stroke="black" style="stroke-linecap:round;stroke-linejoin:miter;stroke-miterlimit:4;stroke-dasharray:none;display:inline" id="connector18pad" stroke-width="1.44" d="m109.8,25.2a1.8,1.8,0,1,1,-3.6,0,1.8,1.8,0,1,1,3.6,0z"/>
        </g>
        <g transform="matrix(1, 0, 0, 1, -64.8, 7.2)">
         <path stroke-opacity="1" fill="none" stroke="black" style="stroke-linecap:round;stroke-linejoin:miter;stroke-miterlimit:4;stroke-dasharray:none;display:inline" id="connector20pad" stroke-width="1.44" d="m109.8,25.2a1.8,1.8,0,1,1,-3.6,0,1.8,1.8,0,1,1,3.6,0z"/>
        </g>
        <g transform="matrix(1, 0, 0, 1, -36, 7.2)">
         <path stroke-opacity="1" fill="none" stroke="black" style="stroke-linecap:round;stroke-linejoin:miter;stroke-miterlimit:4;stroke-dasharray:none;display:inline" id="connector12pad" stroke-width="1.44" d="m109.8,25.2a1.8,1.8,0,1,1,-3.6,0,1.8,1.8,0,1,1,3.6,0z"/>
        </g>
        <g transform="matrix(1, 0, 0, 1, -43.2, 7.2)">
         <path stroke-opacity="1" fill="none" stroke="black" style="stroke-linecap:round;stroke-linejoin:miter;stroke-miterlimit:4;stroke-dasharray:none;display:inline" id="connector14pad" stroke-width="1.44" d="m109.8,25.2a1.8,1.8,0,1,1,-3.6,0,1.8,1.8,0,1,1,3.6,0z"/>
        </g>
        <g transform="matrix(1, 0, 0, 1, -79.2, 7.2)">
         <path stroke-opacity="1" fill="none" stroke="black" style="stroke-linecap:round;stroke-linejoin:miter;stroke-miterlimit:4;stroke-dasharray:none;display:inline" id="connector24pad" stroke-width="1.44" d="m109.8,25.2a1.8,1.8,0,1,1,-3.6,0,1.8,1.8,0,1,1,3.6,0z"/>
        </g>
        <g transform="matrix(1, 0, 0, 1, -86.4, 7.2)">
         <path stroke-opacity="1" fill="none" stroke="black" style="stroke-linecap:round;stroke-linejoin:miter;stroke-miterlimit:4;stroke-dasharray:none;display:inline" id="connector26pad" stroke-width="1.44" d="m109.8,25.2a1.8,1.8,0,1,1,-3.6,0,1.8,1.8,0,1,1,3.6,0z"/>
        </g>
        <g transform="matrix(1, 0, 0, 1, -72, 7.2)">
         <path stroke-opacity="1" fill="none" stroke="black" style="stroke-linecap:round;stroke-linejoin:miter;stroke-miterlimit:4;stroke-dasharray:none;display:inline" id="connector22pad" stroke-width="1.44" d="m109.8,25.2a1.8,1.8,0,1,1,-3.6,0,1.8,1.8,0,1,1,3.6,0z"/>
        </g>
        <g transform="matrix(1, 0, 0, 1, 0, 7.2)">
         <path stroke-opacity="1" fill="none" stroke="black" style="stroke-linecap:round;stroke-linejoin:miter;stroke-miterlimit:4;stroke-dasharray:none;display:inline" id="connector2pad" stroke-width="1.44" d="m109.8,25.2a1.8,1.8,0,1,1,-3.6,0,1.8,1.8,0,1,1,3.6,0z"/>
        </g>
        <g transform="matrix(1, 0, 0, 1, -7.2, 7.2)">
         <path stroke-opacity="1" fill="none" stroke="black" style="stroke-linecap:round;stroke-linejoin:miter;stroke-miterlimit:4;stroke-dasharray:none;display:inline" id="connector4pad" stroke-width="1.44" d="m109.8,25.2a1.8,1.8,0,1,1,-3.6,0,1.8,1.8,0,1,1,3.6,0z"/>
        </g>
        <rect width="3.6" x="106.2" y="23.4" stroke-opacity="1" fill="none" height="3.6" stroke="black" style="stroke-linecap:round;stroke-linejoin:miter;stroke-miterlimit:4;stroke-dasharray:none;display:inline" id="rect4984" stroke-width="1.44"/>
        <path stroke-opacity="1" fill="none" stroke="black" style="stroke-linecap:round;stroke-linejoin:miter;stroke-miterlimit:4;stroke-dasharray:none" id="connector1pad" stroke-width="1.44" d="m109.8,25.2a1.8,1.8,0,1,1,-3.6,0,1.8,1.8,0,1,1,3.6,0z"/>
        <g transform="matrix(1, 0, 0, 1, -7.2, 0)">
         <path stroke-opacity="1" fill="none" stroke="black" style="stroke-linecap:round;stroke-linejoin:miter;stroke-miterlimit:4;stroke-dasharray:none" id="connector3pad" stroke-width="1.44" d="m109.8,25.2a1.8,1.8,0,1,1,-3.6,0,1.8,1.8,0,1,1,3.6,0z"/>
        </g>
       </g>
      </g>
     </g>
    </g>
   </g>
  </g>
  <g partID="7784001">
   <g transform="translate(80.5451,60.8171)">
    <g transform="matrix(0,1,-1,0,0,0)">
     <g  id="copper1">
      <g  id="copper0">
       <circle fill="none" cx="5.04"  cy="5.04" stroke="black" id="connector0pin" r="2.088" stroke-width="1.44"/>
       <circle fill="none" cx="5.04"  cy="12.24" stroke="black" id="connector1pin" r="2.088" stroke-width="1.44"/>
       <circle fill="none" cx="5.04"  cy="19.44" stroke="black" id="connector2pin" r="2.088" stroke-width="1.44"/>
      </g>
     </g>
    </g>
   </g>
  </g>
  <g partID="8168950">
   <line stroke="black" stroke-linecap="round" y1="62.1789" x1="75.4452" y2="63.6894" stroke-width="1.728" x2="75.4698"/>
  </g>
  <g partID="8165500">
   <line stroke="black" stroke-linecap="round" y1="48.6107" x1="41.4541" y2="58.5047" stroke-width="1.728" x2="52.5237"/>
  </g>
  <g partID="8164870">
   <line stroke="black" stroke-linecap="round" y1="56.2235" x1="40.9386" y2="63.3643" stroke-width="1.728" x2="49.0867"/>
  </g>
  <g partID="8164450">
   <line stroke="black" stroke-linecap="round" y1="63.3635" x1="49.0867" y2="64.8115" stroke-width="1.728" x2="49.1019"/>
  </g>
  <g partID="8155770">
   <line stroke="black" stroke-linecap="round" y1="66.1421" x1="50.4828" y2="65.9156" stroke-width="1.728" x2="58.9379"/>
  </g>
  <g partID="8154950">
   <line stroke="black" stroke-linecap="round" y1="58.4811" x1="71.0363" y2="62.1789" stroke-width="1.728" x2="75.4452"/>
  </g>
  <g partID="8154930">
   <line stroke="black" stroke-linecap="round" y1="58.5043" x1="52.5237" y2="58.4806" stroke-width="1.728" x2="71.0363"/>
  </g>
  <g partID="8154850">
   <line stroke="black" stroke-linecap="round" y1="48.8648" x1="32.6753" y2="48.6104" stroke-width="1.728" x2="41.4541"/>
  </g>
  <g partID="8155090">
   <line stroke="black" stroke-linecap="round" y1="23.5537" x1="31.2346" y2="47.5381" stroke-width="1.728" x2="31.3049"/>
  </g>
  <g partID="8165290">
   <line stroke="black" stroke-linecap="round" y1="51.1563" x1="22.183" y2="56.2526" stroke-width="1.728" x2="28.4645"/>
  </g>
  <g partID="8165080">
   <line stroke="black" stroke-linecap="round" y1="56.2531" x1="28.4645" y2="56.2235" stroke-width="1.728" x2="40.9386"/>
  </g>
  <g partID="8156170">
   <line stroke="black" stroke-linecap="round" y1="47.2243" x1="22.2034" y2="51.1563" stroke-width="1.728" x2="22.183"/>
  </g>
  <g partID="8150850">
   <line stroke="black" stroke-linecap="round" y1="95.1576" x1="17.2359" y2="87.4087" stroke-width="1.728" x2="17.6815"/>
  </g>
  <g partID="8150730">
   <line stroke="black" stroke-linecap="round" y1="95.1605" x1="25.7321" y2="87.4063" stroke-width="1.728" x2="25.134"/>
  </g>
  <g partID="8161590">
   <line stroke="black" stroke-linecap="round" y1="90.8603" x1="40.0793" y2="90.8603" stroke-width="1.728" x2="42.9238"/>
  </g>
  <g partID="8160180">
   <line stroke="black" stroke-linecap="round" y1="90.8603" x1="42.9238" y2="87.0807" stroke-width="1.728" x2="45.5239"/>
  </g>
  <g partID="8151750">
   <line stroke="black" stroke-linecap="round" y1="95.6575" x1="36.0754" y2="90.8602" stroke-width="1.728" x2="40.0793"/>
  </g>
  <g partID="8151170">
   <line stroke="black" stroke-linecap="round" y1="76.9417" x1="74.1238" y2="70.6685" stroke-width="1.728" x2="68.4125"/>
  </g>
  <g partID="8170210">
   <line stroke="black" stroke-linecap="round" y1="70.6685" x1="68.4125" y2="68.0246" stroke-width="1.728" x2="68.3535"/>
  </g>
  <g partID="8161690">
   <line stroke="black" stroke-linecap="round" y1="90.8603" x1="57.0274" y2="90.8603" stroke-width="1.728" x2="65.3238"/>
  </g>
  <g partID="8161640">
   <line stroke="black" stroke-linecap="round" y1="90.8603" x1="65.3238" y2="87.1876" stroke-width="1.728" x2="67.299"/>
  </g>
  <g partID="8152110">
   <line stroke="black" stroke-linecap="round" y1="95.5041" x1="54.0094" y2="90.8602" stroke-width="1.728" x2="57.0274"/>
  </g>
  <g partID="8152350">
   <line stroke="black" stroke-linecap="round" y1="87.4115" x1="96.9988" y2="95.1536" stroke-width="1.728" x2="97.0375"/>
  </g>
  <g partID="8170440">
   <line stroke="black" stroke-linecap="round" y1="89.1404" x1="3.76219" y2="76.8851" stroke-width="1.728" x2="3.76219"/>
  </g>
  <g partID="8152750">
   <line stroke="black" stroke-linecap="round" y1="95.4285" x1="7.26823" y2="89.1404" stroke-width="1.728" x2="3.76219"/>
  </g>
  <g partID="8152550">
   <line stroke="black" stroke-linecap="round" y1="82.6667" x1="102.079" y2="84.6096" stroke-width="1.728" x2="98.6276"/>
  </g>
  <g partID="8152530">
   <line stroke="black" stroke-linecap="round" y1="68.6971" x1="101.827" y2="82.6667" stroke-width="1.728" x2="102.079"/>
  </g>
  <g partID="8152470">
   <line stroke="black" stroke-linecap="round" y1="66.1578" x1="99.6191" y2="68.6973" stroke-width="1.728" x2="101.827"/>
  </g>
  <g partID="8152930">
   <line stroke="black" stroke-linecap="round" y1="72.5971" x1="14.6336" y2="76.6846" stroke-width="1.728" x2="16.883"/>
  </g>
  <g partID="8159980">
   <line stroke="black" stroke-linecap="round" y1="72.6368" x1="6.26973" y2="72.5971" stroke-width="1.728" x2="14.6336"/>
  </g>
  <g partID="8152910">
   <line stroke="black" stroke-linecap="round" y1="76.8851" x1="3.76219" y2="72.6368" stroke-width="1.728" x2="6.26973"/>
  </g>
  <g partID="8154110">
   <line stroke="black" stroke-linecap="round" y1="72.3665" x1="77.8166" y2="69.8849" stroke-width="1.728" x2="75.4655"/>
  </g>
  <g partID="8170280">
   <line stroke="black" stroke-linecap="round" y1="69.8849" x1="75.4655" y2="68.025" stroke-width="1.728" x2="75.4838"/>
  </g>
  <g partID="8154010">
   <line stroke="black" stroke-linecap="round" y1="72.4185" x1="91.943" y2="72.3665" stroke-width="1.728" x2="77.8166"/>
  </g>
  <g partID="8153950">
   <line stroke="black" stroke-linecap="round" y1="76.9018" x1="95.769" y2="72.4185" stroke-width="1.728" x2="91.943"/>
  </g>
  <g partID="8166420">
   <line stroke="black" stroke-linecap="round" y1="52.5787" x1="78.0052" y2="57.0824" stroke-width="1.728" x2="83.4571"/>
  </g>
  <g partID="8166210">
   <line stroke="black" stroke-linecap="round" y1="52.5787" x1="60.82" y2="52.5787" stroke-width="1.728" x2="78.0052"/>
  </g>
  <g partID="8155830">
   <line stroke="black" stroke-linecap="round" y1="46.6207" x1="54.8526" y2="52.5789" stroke-width="1.728" x2="60.82"/>
  </g>
  <g partID="8155990">
   <line stroke="black" stroke-linecap="round" y1="57.0827" x1="83.4571" y2="62.1662" stroke-width="1.728" x2="83.6426"/>
  </g>
  <g partID="8156030">
   <line stroke="black" stroke-linecap="round" y1="20.3606" x1="70.4734" y2="25.326" stroke-width="1.728" x2="66.182"/>
  </g>
  <g partID="8156110">
   <line stroke="black" stroke-linecap="round" y1="38.2958" x1="65.899" y2="43.6049" stroke-width="1.728" x2="70.4754"/>
  </g>
  <g partID="8156090">
   <line stroke="black" stroke-linecap="round" y1="25.326" x1="66.182" y2="38.2958" stroke-width="1.728" x2="65.899"/>
  </g>
  <g partID="8165610">
   <line stroke="black" stroke-linecap="round" y1="23.6381" x1="22.226" y2="28.1635" stroke-width="1.728" x2="16.8496"/>
  </g>
  <g partID="8156410">
   <line stroke="black" stroke-linecap="round" y1="20.862" x1="22.2192" y2="23.6381" stroke-width="1.728" x2="22.226"/>
  </g>
  <g partID="8156550">
   <line stroke="black" stroke-linecap="round" y1="40.3707" x1="16.8496" y2="43.7916" stroke-width="1.728" x2="20.678"/>
  </g>
  <g partID="8156530">
   <line stroke="black" stroke-linecap="round" y1="28.1635" x1="16.8496" y2="40.3707" stroke-width="1.728" x2="16.8496"/>
  </g>
 </g>
</svg>
