<?xml version='1.0' encoding='UTF-8' standalone='no'?>
<!-- Created with Fritzing (http://www.fritzing.org/) -->
<svg xmlns="http://www.w3.org/2000/svg" width="1.45513in" x="0in" version="1.2" y="0in"  height="1.41771in" viewBox="0 0 104.77 102.075" baseProfile="tiny" xmlns:svg="http://www.w3.org/2000/svg">
 <g partID="12041">
  <g id="silkscreen0">
   <rect width="104.194" x="0.288" y="0.288" fill="none" height="101.499" stroke="black" stroke-width="0.576"/>
  </g>
 </g>
 <g partID="12040">
  <g id="board">
   <rect width="104.194" x="0.288" y="0.288" fill="none" height="101.499" stroke="black" fill-opacity="0.5" id="boardoutline" stroke-width="0.5"/>
  </g>
 </g>
 <g partID="8054041">
  <g transform="translate(10.1665,32.6921)">
   <g transform="matrix(0,-1,1,0,0,0)">
    <g flipped="1" id="silkscreen0">
     <g transform="matrix(-1, 0, 0, 1, 14.4567, 0)">
      <g>
       <g>
        <rect width="14.1732" x="0.141732" y="0.141732" stroke-opacity="1" fill="none" height="6.23622" stroke="black" id="silkscreen" stroke-width="0.283465"/>
       </g>
      </g>
     </g>
    </g>
   </g>
  </g>
 </g>
 <g partID="8054121">
  <g transform="translate(28.0248,17.3853)">
   <g transform="matrix(0,-1,1,0,0,0)">
    <g flipped="1" id="silkscreen0">
     <g transform="matrix(-1, 0, 0, 1, 14.4567, 0)">
      <g>
       <g>
        <rect width="14.1732" x="0.141732" y="0.141732" stroke-opacity="1" fill="none" height="6.23622" stroke="black" id="silkscreen" stroke-width="0.283465"/>
       </g>
      </g>
     </g>
    </g>
   </g>
  </g>
 </g>
 <g partID="8054301">
  <g transform="translate(41.6311,44.0309)">
   <g transform="matrix(0,-1,1,0,0,0)">
    <g flipped="1" id="silkscreen0">
     <g transform="matrix(-1, 0, 0, 1, 14.4567, 0)">
      <g>
       <g>
        <rect width="14.1732" x="0.141732" y="0.141732" stroke-opacity="1" fill="none" height="6.23622" stroke="black" id="silkscreen" stroke-width="0.283465"/>
       </g>
      </g>
     </g>
    </g>
   </g>
  </g>
 </g>
 <g partID="8054401">
  <g transform="translate(82.7335,29.5742)">
   <g transform="matrix(0,1,-1,0,0,0)">
    <g flipped="1" id="silkscreen0">
     <g transform="matrix(-1, 0, 0, 1, 14.4567, 0)">
      <g>
       <g>
        <rect width="14.1732" x="0.141732" y="0.141732" stroke-opacity="1" fill="none" height="6.23622" stroke="black" id="silkscreen" stroke-width="0.283465"/>
       </g>
      </g>
     </g>
    </g>
   </g>
  </g>
 </g>
 <g partID="8054601">
  <g transform="translate(83.0169,3.21184)">
   <g transform="matrix(0,1,-1,0,0,0)">
    <g flipped="1" id="silkscreen0">
     <g transform="matrix(-1, 0, 0, 1, 14.4567, 0)">
      <g>
       <g>
        <rect width="14.1732" x="0.141732" y="0.141732" stroke-opacity="1" fill="none" height="6.23622" stroke="black" id="silkscreen" stroke-width="0.283465"/>
       </g>
      </g>
     </g>
    </g>
   </g>
  </g>
 </g>
 <g partID="8054841">
  <g transform="translate(41.6311,17.6685)">
   <g transform="matrix(0,-1,1,0,0,0)">
    <g flipped="1" id="silkscreen0">
     <g transform="matrix(-1, 0, 0, 1, 14.4567, 0)">
      <g>
       <g>
        <rect width="14.1732" x="0.141732" y="0.141732" stroke-opacity="1" fill="none" height="6.23622" stroke="black" id="silkscreen" stroke-width="0.283465"/>
       </g>
      </g>
     </g>
    </g>
   </g>
  </g>
 </g>
 <g partID="8054981">
  <g transform="translate(34.5445,29.5742)">
   <g transform="matrix(0,1,-1,0,0,0)">
    <g flipped="1" id="silkscreen0">
     <g transform="matrix(-1, 0, 0, 1, 14.4567, 0)">
      <g>
       <g>
        <rect width="14.1732" x="0.141732" y="0.141732" stroke-opacity="1" fill="none" height="6.23622" stroke="black" id="silkscreen" stroke-width="0.283465"/>
       </g>
      </g>
     </g>
    </g>
   </g>
  </g>
 </g>
 <g partID="8055221">
  <g transform="translate(10.45,69.5425)">
   <g transform="matrix(0,-1,1,0,0,0)">
    <g flipped="1" id="silkscreen0">
     <g transform="matrix(-1, 0, 0, 1, 14.4567, 0)">
      <g>
       <g>
        <rect width="14.1732" x="0.141732" y="0.141732" stroke-opacity="1" fill="none" height="6.23622" stroke="black" id="silkscreen" stroke-width="0.283465"/>
       </g>
      </g>
     </g>
    </g>
   </g>
  </g>
 </g>
 <g partID="7988451">
  <g transform="translate(18.5287,55.2275)">
   <g flipped="1" id="silkscreen0">
    <g transform="matrix(-1, 0, 0, 1, 14.4567, 0)">
     <g>
      <g>
       <rect width="14.1732" x="0.141732" y="0.141732" stroke-opacity="1" fill="none" height="6.23622" stroke="black" id="silkscreen" stroke-width="0.283465"/>
      </g>
     </g>
    </g>
   </g>
  </g>
 </g>
 <g partID="7988551">
  <g transform="translate(47.8673,65.432)">
   <g transform="matrix(-1,0,0,-1,0,0)">
    <g flipped="1" id="silkscreen0">
     <g transform="matrix(-1, 0, 0, 1, 8.50394, 0)">
      <g>
       <g>
        <rect width="8.22047" x="0.141732" y="2.83465" stroke-opacity="1" fill="none" height="2.55118" stroke="black" stroke-width="0.283465"/>
       </g>
      </g>
     </g>
    </g>
   </g>
  </g>
 </g>
 <g partID="7998601">
  <g transform="translate(63.8831,54.0939)">
   <g flipped="1" id="silkscreen0">
    <g transform="matrix(-1, 0, 0, 1, 14.4567, 0)">
     <g>
      <g>
       <rect width="14.1732" x="0.141732" y="0.141732" stroke-opacity="1" fill="none" height="6.23622" stroke="black" id="silkscreen" stroke-width="0.283465"/>
      </g>
     </g>
    </g>
   </g>
  </g>
 </g>
 <g partID="12041">
  <g id="silkscreen0">
   <rect width="104.194" x="0.288" y="0.288" fill="none" height="101.499" stroke="black" stroke-width="0.576"/>
  </g>
 </g>
 <g partID="7838101">
  <g transform="translate(74.2411,48.0114)">
   <g transform="matrix(-1,0,0,-1,0,0)">
    <g flipped="1" id="silkscreen0">
     <g transform="matrix(-1, 0, 0, 1, 23.2668, 0)">
      <g>
       <g>
        <line stroke="black" y1="6.38928" stroke-width="0.72" x1="20.137" y2="12.0586" x2="20.137"/>
        <line stroke="black" y1="0.72" stroke-width="0.72" x1="5.96376" y2="0.72" x2="18.0115"/>
        <line stroke="black" y1="17.7278" stroke-width="0.72" x1="5.96376" y2="17.7278" x2="18.0115"/>
        <line stroke="black" y1="6.38928" stroke-width="0.72" x1="3.12912" y2="12.0586" x2="3.12912"/>
        <line stroke="black" y1="7.80696" stroke-width="0.72" x1="11.633" y2="10.6416" x2="11.633"/>
        <line stroke="black" y1="9.22392" stroke-width="0.72" x1="13.0507" y2="9.22392" x2="10.2161"/>
       </g>
      </g>
     </g>
    </g>
   </g>
  </g>
 </g>
 <g partID="7838301">
  <g transform="translate(24.6347,21.6482)">
   <g transform="matrix(-1,0,0,-1,0,0)">
    <g flipped="1" id="silkscreen0">
     <g transform="matrix(-1, 0, 0, 1, 23.2668, 0)">
      <g>
       <g>
        <line stroke="black" y1="6.38928" stroke-width="0.72" x1="20.137" y2="12.0586" x2="20.137"/>
        <line stroke="black" y1="0.72" stroke-width="0.72" x1="5.96376" y2="0.72" x2="18.0115"/>
        <line stroke="black" y1="17.7278" stroke-width="0.72" x1="5.96376" y2="17.7278" x2="18.0115"/>
        <line stroke="black" y1="6.38928" stroke-width="0.72" x1="3.12912" y2="12.0586" x2="3.12912"/>
        <line stroke="black" y1="7.80696" stroke-width="0.72" x1="11.633" y2="10.6416" x2="11.633"/>
        <line stroke="black" y1="9.22392" stroke-width="0.72" x1="13.0507" y2="9.22392" x2="10.2161"/>
       </g>
      </g>
     </g>
    </g>
   </g>
  </g>
 </g>
 <g partID="7837861">
  <g transform="translate(74.2411,21.6482)">
   <g transform="matrix(-1,0,0,-1,0,0)">
    <g flipped="1" id="silkscreen0">
     <g transform="matrix(-1, 0, 0, 1, 23.2668, 0)">
      <g>
       <g>
        <line stroke="black" y1="6.38928" stroke-width="0.72" x1="20.137" y2="12.0586" x2="20.137"/>
        <line stroke="black" y1="0.72" stroke-width="0.72" x1="5.96376" y2="0.72" x2="18.0115"/>
        <line stroke="black" y1="17.7278" stroke-width="0.72" x1="5.96376" y2="17.7278" x2="18.0115"/>
        <line stroke="black" y1="6.38928" stroke-width="0.72" x1="3.12912" y2="12.0586" x2="3.12912"/>
        <line stroke="black" y1="7.80696" stroke-width="0.72" x1="11.633" y2="10.6416" x2="11.633"/>
        <line stroke="black" y1="9.22392" stroke-width="0.72" x1="13.0507" y2="9.22392" x2="10.2161"/>
       </g>
      </g>
     </g>
    </g>
   </g>
  </g>
 </g>
 <g partID="7838501">
  <g transform="translate(24.6347,48.0106)">
   <g transform="matrix(-1,0,0,-1,0,0)">
    <g flipped="1" id="silkscreen0">
     <g transform="matrix(-1, 0, 0, 1, 23.2668, 0)">
      <g>
       <g>
        <line stroke="black" y1="6.38928" stroke-width="0.72" x1="20.137" y2="12.0586" x2="20.137"/>
        <line stroke="black" y1="0.72" stroke-width="0.72" x1="5.96376" y2="0.72" x2="18.0115"/>
        <line stroke="black" y1="17.7278" stroke-width="0.72" x1="5.96376" y2="17.7278" x2="18.0115"/>
        <line stroke="black" y1="6.38928" stroke-width="0.72" x1="3.12912" y2="12.0586" x2="3.12912"/>
        <line stroke="black" y1="7.80696" stroke-width="0.72" x1="11.633" y2="10.6416" x2="11.633"/>
        <line stroke="black" y1="9.22392" stroke-width="0.72" x1="13.0507" y2="9.22392" x2="10.2161"/>
       </g>
      </g>
     </g>
    </g>
   </g>
  </g>
 </g>
 <g id="partLabel" partID="7988450">
  <g transform="translate(29.9239,56.0083)">
   <g transform="matrix(0,1,1,0,0,0)">
    <g fill="#000000" font-family="'OCRA'" stroke="none" font-style="normal" fill-opacity="1" font-weight="normal" id="silkscreen0Label" font-size="3">
     <text x="0" y="2.25">R4</text>
    </g>
   </g>
  </g>
 </g>
 <g id="partLabel" partID="7988550">
  <g transform="translate(38.9769,60.2755)">
   <g transform="matrix(-1,0,0,1,0,0)">
    <g fill="#000000" font-family="'OCRA'" stroke="none" font-style="normal" fill-opacity="1" font-weight="normal" id="silkscreen0Label" font-size="3">
     <text x="0" y="2.25">Q1</text>
    </g>
   </g>
  </g>
 </g>
 <g id="partLabel" partID="7998600">
  <g transform="translate(73.0338,52.0499)">
   <g transform="matrix(-1,0,0,1,0,0)">
    <g fill="#000000" font-family="'OCRA'" stroke="none" font-style="normal" fill-opacity="1" font-weight="normal" id="silkscreen0Label" font-size="3">
     <text x="0" y="2.25">R3</text>
    </g>
   </g>
  </g>
 </g>
 <g id="partLabel" partID="8054040">
  <g transform="translate(9.81318,24.6315)">
   <g transform="matrix(-1,0,0,1,0,0)">
    <g fill="#000000" font-family="'OCRA'" stroke="none" font-style="normal" fill-opacity="1" font-weight="normal" id="silkscreen0Label" font-size="3">
     <text x="0" y="2.25">R2</text>
    </g>
   </g>
  </g>
 </g>
 <g id="partLabel" partID="8054120">
  <g transform="translate(38.3436,9.30594)">
   <g transform="matrix(-1,0,0,1,0,0)">
    <g fill="#000000" font-family="'OCRA'" stroke="none" font-style="normal" fill-opacity="1" font-weight="normal" id="silkscreen0Label" font-size="3">
     <text x="0" y="2.25">R1</text>
    </g>
   </g>
  </g>
 </g>
 <g id="partLabel" partID="8054300">
  <g transform="translate(51.9966,35.9331)">
   <g transform="matrix(-1,0,0,1,0,0)">
    <g fill="#000000" font-family="'OCRA'" stroke="none" font-style="normal" fill-opacity="1" font-weight="normal" id="silkscreen0Label" font-size="3">
     <text x="0" y="2.25">R2</text>
    </g>
   </g>
  </g>
 </g>
 <g id="partLabel" partID="8054400">
  <g transform="translate(76.0324,36.0803)">
   <g transform="matrix(-1,0,0,1,0,0)">
    <g fill="#000000" font-family="'OCRA'" stroke="none" font-style="normal" fill-opacity="1" font-weight="normal" id="silkscreen0Label" font-size="3">
     <text x="0" y="2.25">R1</text>
    </g>
   </g>
  </g>
 </g>
 <g id="partLabel" partID="8054600">
  <g transform="translate(86.9319,9.78274)">
   <g transform="matrix(-1,0,0,1,0,0)">
    <g fill="#000000" font-family="'OCRA'" stroke="none" font-style="normal" fill-opacity="1" font-weight="normal" id="silkscreen0Label" font-size="3">
     <text x="0" y="2.25">R1</text>
    </g>
   </g>
  </g>
 </g>
 <g id="partLabel" partID="8054840">
  <g transform="translate(52.1398,9.68754)">
   <g transform="matrix(-1,0,0,1,0,0)">
    <g fill="#000000" font-family="'OCRA'" stroke="none" font-style="normal" fill-opacity="1" font-weight="normal" id="silkscreen0Label" font-size="3">
     <text x="0" y="2.25">R2</text>
    </g>
   </g>
  </g>
 </g>
 <g id="partLabel" partID="8054980">
  <g transform="translate(38.6291,35.7907)">
   <g transform="matrix(-1,0,0,1,0,0)">
    <g fill="#000000" font-family="'OCRA'" stroke="none" font-style="normal" fill-opacity="1" font-weight="normal" id="silkscreen0Label" font-size="3">
     <text x="0" y="2.25">R1</text>
    </g>
   </g>
  </g>
 </g>
 <g id="partLabel" partID="8055220">
  <g transform="translate(10.0396,61.3254)">
   <g transform="matrix(-1,0,0,1,0,0)">
    <g fill="#000000" font-family="'OCRA'" stroke="none" font-style="normal" fill-opacity="1" font-weight="normal" id="silkscreen0Label" font-size="3">
     <text x="0" y="2.25">R2</text>
    </g>
   </g>
  </g>
 </g>
 <g id="partLabel" partID="7837860">
  <g transform="translate(64.7942,21.8931)">
   <g transform="matrix(-1,0,0,1,0,0)">
    <g fill="#000000" font-family="'OCRA'" stroke="none" font-style="normal" fill-opacity="1" font-weight="normal" id="silkscreen0Label" font-size="3">
     <text x="0" y="2.25">S3</text>
    </g>
   </g>
  </g>
 </g>
 <g id="partLabel" partID="7838100">
  <g transform="translate(64.4695,48.0819)">
   <g transform="matrix(-1,0,0,1,0,0)">
    <g fill="#000000" font-family="'OCRA'" stroke="none" font-style="normal" fill-opacity="1" font-weight="normal" id="silkscreen0Label" font-size="3">
     <text x="0" y="2.25">S1</text>
    </g>
   </g>
  </g>
 </g>
 <g id="partLabel" partID="7838300">
  <g transform="translate(21.0579,21.9027)">
   <g transform="matrix(-1,0,0,1,0,0)">
    <g fill="#000000" font-family="'OCRA'" stroke="none" font-style="normal" fill-opacity="1" font-weight="normal" id="silkscreen0Label" font-size="3">
     <text x="0" y="2.25">S2</text>
    </g>
   </g>
  </g>
 </g>
 <g id="partLabel" partID="7838500">
  <g transform="translate(20.8445,48.3163)">
   <g transform="matrix(-1,0,0,1,0,0)">
    <g fill="#000000" font-family="'OCRA'" stroke="none" font-style="normal" fill-opacity="1" font-weight="normal" id="silkscreen0Label" font-size="3">
     <text x="0" y="2.25">S4</text>
    </g>
   </g>
  </g>
 </g>
 <g partID="8164300">
  <g transform="translate(28.2916,45.8875)">
   <g id="copper0">
    <circle fill="white" cx="3.01733" cy="3.01733" stroke="white" r="0.992124" id="connector0pin" stroke-width="1.57039"/>
   </g>
  </g>
 </g>
 <g partID="8166990">
  <g transform="translate(46.099,63.1611)">
   <g id="copper0">
    <circle fill="white" cx="3.01733" cy="3.01733" stroke="white" r="0.992124" id="connector0pin" stroke-width="1.57039"/>
   </g>
  </g>
 </g>
 <g partID="8054040">
  <g transform="translate(10.1665,32.6921)">
   <g transform="matrix(0,-1,1,0,0,0)">
    <g flipped="1" id="copper0">
     <g transform="matrix(-1, 0, 0, 1, 14.4567, 0)">
      <g>
       <g>
        <rect width="4.53543" x="0.566929" y="0.566929" fill="white" height="5.38583" stroke="white" fill-opacity="1" id="connector0pad" stroke-width="0.72"/>
        <rect width="4.53543" x="9.35433" y="0.566929" fill="white" height="5.38583" stroke="white" fill-opacity="1" id="connector1pad" stroke-width="0.72"/>
       </g>
      </g>
     </g>
    </g>
   </g>
  </g>
 </g>
 <g partID="8054120">
  <g transform="translate(28.0248,17.3853)">
   <g transform="matrix(0,-1,1,0,0,0)">
    <g flipped="1" id="copper0">
     <g transform="matrix(-1, 0, 0, 1, 14.4567, 0)">
      <g>
       <g>
        <rect width="4.53543" x="0.566929" y="0.566929" fill="white" height="5.38583" stroke="white" fill-opacity="1" id="connector0pad" stroke-width="0.72"/>
        <rect width="4.53543" x="9.35433" y="0.566929" fill="white" height="5.38583" stroke="white" fill-opacity="1" id="connector1pad" stroke-width="0.72"/>
       </g>
      </g>
     </g>
    </g>
   </g>
  </g>
 </g>
 <g partID="8054300">
  <g transform="translate(41.6311,44.0309)">
   <g transform="matrix(0,-1,1,0,0,0)">
    <g flipped="1" id="copper0">
     <g transform="matrix(-1, 0, 0, 1, 14.4567, 0)">
      <g>
       <g>
        <rect width="4.53543" x="0.566929" y="0.566929" fill="white" height="5.38583" stroke="white" fill-opacity="1" id="connector0pad" stroke-width="0.72"/>
        <rect width="4.53543" x="9.35433" y="0.566929" fill="white" height="5.38583" stroke="white" fill-opacity="1" id="connector1pad" stroke-width="0.72"/>
       </g>
      </g>
     </g>
    </g>
   </g>
  </g>
 </g>
 <g partID="8054400">
  <g transform="translate(82.7335,29.5742)">
   <g transform="matrix(0,1,-1,0,0,0)">
    <g flipped="1" id="copper0">
     <g transform="matrix(-1, 0, 0, 1, 14.4567, 0)">
      <g>
       <g>
        <rect width="4.53543" x="0.566929" y="0.566929" fill="white" height="5.38583" stroke="white" fill-opacity="1" id="connector0pad" stroke-width="0.72"/>
        <rect width="4.53543" x="9.35433" y="0.566929" fill="white" height="5.38583" stroke="white" fill-opacity="1" id="connector1pad" stroke-width="0.72"/>
       </g>
      </g>
     </g>
    </g>
   </g>
  </g>
 </g>
 <g partID="8054600">
  <g transform="translate(83.0169,3.21184)">
   <g transform="matrix(0,1,-1,0,0,0)">
    <g flipped="1" id="copper0">
     <g transform="matrix(-1, 0, 0, 1, 14.4567, 0)">
      <g>
       <g>
        <rect width="4.53543" x="0.566929" y="0.566929" fill="white" height="5.38583" stroke="white" fill-opacity="1" id="connector0pad" stroke-width="0.72"/>
        <rect width="4.53543" x="9.35433" y="0.566929" fill="white" height="5.38583" stroke="white" fill-opacity="1" id="connector1pad" stroke-width="0.72"/>
       </g>
      </g>
     </g>
    </g>
   </g>
  </g>
 </g>
 <g partID="8054840">
  <g transform="translate(41.6311,17.6685)">
   <g transform="matrix(0,-1,1,0,0,0)">
    <g flipped="1" id="copper0">
     <g transform="matrix(-1, 0, 0, 1, 14.4567, 0)">
      <g>
       <g>
        <rect width="4.53543" x="0.566929" y="0.566929" fill="white" height="5.38583" stroke="white" fill-opacity="1" id="connector0pad" stroke-width="0.72"/>
        <rect width="4.53543" x="9.35433" y="0.566929" fill="white" height="5.38583" stroke="white" fill-opacity="1" id="connector1pad" stroke-width="0.72"/>
       </g>
      </g>
     </g>
    </g>
   </g>
  </g>
 </g>
 <g partID="8054980">
  <g transform="translate(34.5445,29.5742)">
   <g transform="matrix(0,1,-1,0,0,0)">
    <g flipped="1" id="copper0">
     <g transform="matrix(-1, 0, 0, 1, 14.4567, 0)">
      <g>
       <g>
        <rect width="4.53543" x="0.566929" y="0.566929" fill="white" height="5.38583" stroke="white" fill-opacity="1" id="connector0pad" stroke-width="0.72"/>
        <rect width="4.53543" x="9.35433" y="0.566929" fill="white" height="5.38583" stroke="white" fill-opacity="1" id="connector1pad" stroke-width="0.72"/>
       </g>
      </g>
     </g>
    </g>
   </g>
  </g>
 </g>
 <g partID="8055220">
  <g transform="translate(10.45,69.5425)">
   <g transform="matrix(0,-1,1,0,0,0)">
    <g flipped="1" id="copper0">
     <g transform="matrix(-1, 0, 0, 1, 14.4567, 0)">
      <g>
       <g>
        <rect width="4.53543" x="0.566929" y="0.566929" fill="white" height="5.38583" stroke="white" fill-opacity="1" id="connector0pad" stroke-width="0.72"/>
        <rect width="4.53543" x="9.35433" y="0.566929" fill="white" height="5.38583" stroke="white" fill-opacity="1" id="connector1pad" stroke-width="0.72"/>
       </g>
      </g>
     </g>
    </g>
   </g>
  </g>
 </g>
 <g partID="8155070">
  <g transform="translate(28.2133,19.1691)">
   <g id="copper0">
    <circle fill="white" cx="3.01732" cy="3.01732" stroke="white" r="0.992124" id="connector0pin" stroke-width="1.57039"/>
   </g>
  </g>
 </g>
 <g partID="7988450">
  <g transform="translate(18.5287,55.2275)">
   <g flipped="1" id="copper0">
    <g transform="matrix(-1, 0, 0, 1, 14.4567, 0)">
     <g>
      <g>
       <rect width="4.53543" x="0.566929" y="0.566929" fill="white" height="5.38583" stroke="white" fill-opacity="1" id="connector0pad" stroke-width="0.72"/>
       <rect width="4.53543" x="9.35433" y="0.566929" fill="white" height="5.38583" stroke="white" fill-opacity="1" id="connector1pad" stroke-width="0.72"/>
      </g>
     </g>
    </g>
   </g>
  </g>
 </g>
 <g partID="7988550">
  <g transform="translate(47.8673,65.432)">
   <g transform="matrix(-1,0,0,-1,0,0)">
    <g flipped="1" id="copper0">
     <g transform="matrix(-1, 0, 0, 1, 8.50394, 0)">
      <g>
       <g>
        <!-- unten links -->
        <rect width="2.26772" x="0.425197" y="5.66929" fill="white" height="2.55118" stroke="white" fill-opacity="1" id="connector0pin" stroke-width="0.72"/>
        <g width="0" x="1.55906" y="6.94488" fill="white" height="0" stroke="white" id="connector0terminal" stroke-width="0.72"/>
        <!-- unten rechts -->
        <rect width="2.26772" x="5.81102" y="5.66929" fill="white" height="2.55118" stroke="white" fill-opacity="1" id="connector1pin" stroke-width="0.72"/>
        <g width="0" x="6.94488" y="6.94488" fill="white" height="0" stroke="white" id="connector1terminal" stroke-width="0.72"/>
        <!-- oben mitte -->
        <rect width="2.26772" x="3.11811" y="0" fill="white" height="2.55118" stroke="white" fill-opacity="1" id="connector2pin" stroke-width="0.72"/>
        <g width="0" x="4.25197" y="1.27559" fill="white" height="0" stroke="white" id="connector2terminal" stroke-width="0.72"/>
       </g>
      </g>
     </g>
    </g>
   </g>
  </g>
 </g>
 <g partID="7998600">
  <g transform="translate(63.8831,54.0939)">
   <g flipped="1" id="copper0">
    <g transform="matrix(-1, 0, 0, 1, 14.4567, 0)">
     <g>
      <g>
       <rect width="4.53543" x="0.566929" y="0.566929" fill="white" height="5.38583" stroke="white" fill-opacity="1" id="connector0pad" stroke-width="0.72"/>
       <rect width="4.53543" x="9.35433" y="0.566929" fill="white" height="5.38583" stroke="white" fill-opacity="1" id="connector1pad" stroke-width="0.72"/>
      </g>
     </g>
    </g>
   </g>
  </g>
 </g>
 <g partID="7717640">
  <g transform="translate(56.8588,92.2819)">
   <g id="copper0">
    <circle fill="white" cx="5.04" cy="5.04" stroke="white" id="connector0pin" r="2.088" stroke-width="2.16"/>
   </g>
  </g>
 </g>
 <g partID="7717620">
  <g transform="translate(3.28403,92.282)">
   <g id="copper0">
    <circle fill="white" cx="5.04" cy="5.04" stroke="white" id="connector0pin" r="2.088" stroke-width="2.16"/>
   </g>
  </g>
 </g>
 <g partID="7717600">
  <g transform="translate(47.788,92.2819)">
   <g id="copper0">
    <circle fill="white" cx="5.04" cy="5.04" stroke="white" id="connector0pin" r="2.088" stroke-width="2.16"/>
   </g>
  </g>
 </g>
 <g partID="7717560">
  <g transform="translate(23.9769,63.3683)">
   <g id="copper0">
    <circle fill="white" cx="5.04" cy="5.04" stroke="white" id="connector0pin" r="2.088" stroke-width="2.16"/>
   </g>
  </g>
 </g>
 <g partID="7717500">
  <g transform="translate(32.1974,63.3683)">
   <g id="copper0">
    <circle fill="white" cx="5.04" cy="5.04" stroke="white" id="connector0pin" r="2.088" stroke-width="2.16"/>
   </g>
  </g>
 </g>
 <g partID="7717480">
  <g transform="translate(20.8588,92.282)">
   <g id="copper0">
    <circle fill="white" cx="5.04" cy="5.04" stroke="white" id="connector0pin" r="2.088" stroke-width="2.16"/>
   </g>
  </g>
 </g>
 <g partID="7717460">
  <g transform="translate(12.0714,92.282)">
   <g id="copper0">
    <circle fill="white" cx="5.04" cy="5.04" stroke="white" id="connector0pin" r="2.088" stroke-width="2.16"/>
   </g>
  </g>
 </g>
 <g partID="7717440">
  <g transform="translate(92.5754,31.9043)">
   <g id="copper0">
    <circle fill="white" cx="5.04" cy="5.04" stroke="white" id="connector0pin" r="2.088" stroke-width="2.16"/>
   </g>
  </g>
 </g>
 <g partID="7979060">
  <g transform="translate(92.0084,92.2819)">
   <g id="copper0">
    <circle fill="white" cx="5.04" cy="5.04" stroke="white" id="connector0pin" r="2.088" stroke-width="2.16"/>
   </g>
  </g>
 </g>
 <g partID="7717360">
  <g transform="translate(74.1502,92.2819)">
   <g id="copper0">
    <circle fill="white" cx="5.04" cy="5.04" stroke="white" id="connector0pin" r="2.088" stroke-width="2.16"/>
   </g>
  </g>
 </g>
 <g partID="7716180">
  <g transform="translate(29.6463,92.2819)">
   <g transform="matrix(1,4.26227e-18,-4.26227e-18,1,0,0)">
    <g id="copper0">
     <circle fill="white" cx="5.04" cy="5.04" stroke="white" id="connector0pin" r="2.088" stroke-width="2.16"/>
    </g>
   </g>
  </g>
 </g>
 <g partID="7978000">
  <g transform="translate(83.2211,92.2819)">
   <g id="copper0">
    <circle fill="white" cx="5.04" cy="5.04" stroke="white" id="connector0pin" r="2.088" stroke-width="2.16"/>
   </g>
  </g>
 </g>
 <g partID="7716140">
  <g transform="translate(66.2131,92.2819)">
   <g id="copper0">
    <circle fill="white" cx="5.04" cy="5.04" stroke="white" id="connector0pin" r="2.088" stroke-width="2.16"/>
   </g>
  </g>
 </g>
 <g partID="7716050">
  <g transform="translate(38.7171,92.2819)">
   <g id="copper0">
    <circle fill="white" cx="5.04" cy="5.04" stroke="white" id="connector0pin" r="2.088" stroke-width="2.16"/>
   </g>
  </g>
 </g>
 <g partID="6832280">
  <g transform="translate(80.1976,67.9683)">
   <g transform="matrix(0,-1,1,0,0,0)">
    <g id="copper0">
     <circle fill="white" cx="3.528" cy="17.928" stroke="white" id="connector2pad" r="2.52" stroke-width="2.808"/>
     <rect width="5.04" x="1.008" y="1.008" fill="white" height="5.04" stroke="white" stroke-width="2.808"/>
     <circle fill="white" cx="3.528" cy="3.528" stroke="white" id="connector0pad" r="2.52" stroke-width="2.808"/>
     <circle fill="white" cx="17.928" cy="10.728" stroke="white" id="connector1pad" r="2.52" stroke-width="2.808"/>
    </g>
   </g>
  </g>
 </g>
 <g partID="7838100">
  <g transform="translate(74.2411,48.0114)">
   <g transform="matrix(-1,0,0,-1,0,0)">
    <g flipped="1" id="copper0">
     <g transform="matrix(-1, 0, 0, 1, 23.2668, 0)">
      <g>
       <g>
        <g id="">
         <circle fill="white" cx="20.8462" cy="15.6024" stroke="white" id="connector0pad" r="1.98" stroke-width="2.16"/>
         <circle fill="white" cx="2.42064" cy="15.6024" stroke="white" id="connector1pad" r="1.98" stroke-width="2.16"/>
         <circle fill="white" cx="20.8462" cy="2.84616" stroke="white" id="connector2pad" r="1.98" stroke-width="2.16"/>
         <circle fill="white" cx="2.42064" cy="2.84616" stroke="white" id="connector3pad" r="1.98" stroke-width="2.16"/>
        </g>
       </g>
      </g>
     </g>
    </g>
   </g>
  </g>
 </g>
 <g partID="7838300">
  <g transform="translate(24.6347,21.6482)">
   <g transform="matrix(-1,0,0,-1,0,0)">
    <g flipped="1" id="copper0">
     <g transform="matrix(-1, 0, 0, 1, 23.2668, 0)">
      <g>
       <g>
        <g id="">
         <circle fill="white" cx="20.8462" cy="15.6024" stroke="white" id="connector0pad" r="1.98" stroke-width="2.16"/>
         <circle fill="white" cx="2.42064" cy="15.6024" stroke="white" id="connector1pad" r="1.98" stroke-width="2.16"/>
         <circle fill="white" cx="20.8462" cy="2.84616" stroke="white" id="connector2pad" r="1.98" stroke-width="2.16"/>
         <circle fill="white" cx="2.42064" cy="2.84616" stroke="white" id="connector3pad" r="1.98" stroke-width="2.16"/>
        </g>
       </g>
      </g>
     </g>
    </g>
   </g>
  </g>
 </g>
 <g partID="7837860">
  <g transform="translate(74.2411,21.6482)">
   <g transform="matrix(-1,0,0,-1,0,0)">
    <g flipped="1" id="copper0">
     <g transform="matrix(-1, 0, 0, 1, 23.2668, 0)">
      <g>
       <g>
        <g id="">
         <circle fill="white" cx="20.8462" cy="15.6024" stroke="white" id="connector0pad" r="1.98" stroke-width="2.16"/>
         <circle fill="white" cx="2.42064" cy="15.6024" stroke="white" id="connector1pad" r="1.98" stroke-width="2.16"/>
         <circle fill="white" cx="20.8462" cy="2.84616" stroke="white" id="connector2pad" r="1.98" stroke-width="2.16"/>
         <circle fill="white" cx="2.42064" cy="2.84616" stroke="white" id="connector3pad" r="1.98" stroke-width="2.16"/>
        </g>
       </g>
      </g>
     </g>
    </g>
   </g>
  </g>
 </g>
 <g partID="7838500">
  <g transform="translate(24.6347,48.0106)">
   <g transform="matrix(-1,0,0,-1,0,0)">
    <g flipped="1" id="copper0">
     <g transform="matrix(-1, 0, 0, 1, 23.2668, 0)">
      <g>
       <g>
        <g id="">
         <circle fill="white" cx="20.8462" cy="15.6024" stroke="white" id="connector0pad" r="1.98" stroke-width="2.16"/>
         <circle fill="white" cx="2.42064" cy="15.6024" stroke="white" id="connector1pad" r="1.98" stroke-width="2.16"/>
         <circle fill="white" cx="20.8462" cy="2.84616" stroke="white" id="connector2pad" r="1.98" stroke-width="2.16"/>
         <circle fill="white" cx="2.42064" cy="2.84616" stroke="white" id="connector3pad" r="1.98" stroke-width="2.16"/>
        </g>
       </g>
      </g>
     </g>
    </g>
   </g>
  </g>
 </g>
 <g partID="7303290">
  <g transform="translate(-7.40942,65.7307)">
   <g transform="matrix(1, 0, 0, 1, 0, -809.49)">
    <g id="copper0">
     <g transform="matrix(1, 0, 0, 1, -3.6, 796.89)">
      <g stroke-opacity="1" fill="none" stroke="black" style="display:inline">
       <g transform="matrix(1, 0, 0, 1, -14.4, 0)">
        <path stroke-opacity="1" fill="white" stroke="white" style="stroke-linecap:round;stroke-linejoin:miter;stroke-miterlimit:4;stroke-dasharray:none;display:inline" id="connector5pad" stroke-width="2.16" d="m109.8,25.2a1.8,1.8,0,1,1,-3.6,0,1.8,1.8,0,1,1,3.6,0z"/>
       </g>
       <g transform="matrix(1, 0, 0, 1, -21.6, 0)">
        <path stroke-opacity="1" fill="white" stroke="white" style="stroke-linecap:round;stroke-linejoin:miter;stroke-miterlimit:4;stroke-dasharray:none;display:inline" id="connector7pad" stroke-width="2.16" d="m109.8,25.2a1.8,1.8,0,1,1,-3.6,0,1.8,1.8,0,1,1,3.6,0z"/>
       </g>
       <g transform="matrix(1, 0, 0, 1, -28.8, 0)">
        <path stroke-opacity="1" fill="white" stroke="white" style="stroke-linecap:round;stroke-linejoin:miter;stroke-miterlimit:4;stroke-dasharray:none;display:inline" id="connector9pad" stroke-width="2.16" d="m109.8,25.2a1.8,1.8,0,1,1,-3.6,0,1.8,1.8,0,1,1,3.6,0z"/>
       </g>
       <g transform="matrix(1, 0, 0, 1, -50.4, 0)">
        <path stroke-opacity="1" fill="white" stroke="white" style="stroke-linecap:round;stroke-linejoin:miter;stroke-miterlimit:4;stroke-dasharray:none;display:inline" id="connector15pad" stroke-width="2.16" d="m109.8,25.2a1.8,1.8,0,1,1,-3.6,0,1.8,1.8,0,1,1,3.6,0z"/>
       </g>
       <g transform="matrix(1, 0, 0, 1, -57.6, 0)">
        <path stroke-opacity="1" fill="white" stroke="white" style="stroke-linecap:round;stroke-linejoin:miter;stroke-miterlimit:4;stroke-dasharray:none;display:inline" id="connector17pad" stroke-width="2.16" d="m109.8,25.2a1.8,1.8,0,1,1,-3.6,0,1.8,1.8,0,1,1,3.6,0z"/>
       </g>
       <g transform="matrix(1, 0, 0, 1, -64.8, 0)">
        <path stroke-opacity="1" fill="white" stroke="white" style="stroke-linecap:round;stroke-linejoin:miter;stroke-miterlimit:4;stroke-dasharray:none;display:inline" id="connector19pad" stroke-width="2.16" d="m109.8,25.2a1.8,1.8,0,1,1,-3.6,0,1.8,1.8,0,1,1,3.6,0z"/>
       </g>
       <g transform="matrix(1, 0, 0, 1, -36, 0)">
        <path stroke-opacity="1" fill="white" stroke="white" style="stroke-linecap:round;stroke-linejoin:miter;stroke-miterlimit:4;stroke-dasharray:none;display:inline" id="connector11pad" stroke-width="2.16" d="m109.8,25.2a1.8,1.8,0,1,1,-3.6,0,1.8,1.8,0,1,1,3.6,0z"/>
       </g>
       <g transform="matrix(1, 0, 0, 1, -43.2, 0)">
        <path stroke-opacity="1" fill="white" stroke="white" style="stroke-linecap:round;stroke-linejoin:miter;stroke-miterlimit:4;stroke-dasharray:none;display:inline" id="connector13pad" stroke-width="2.16" d="m109.8,25.2a1.8,1.8,0,1,1,-3.6,0,1.8,1.8,0,1,1,3.6,0z"/>
       </g>
       <g transform="matrix(1, 0, 0, 1, -79.2, 0)">
        <path stroke-opacity="1" fill="white" stroke="white" style="stroke-linecap:round;stroke-linejoin:miter;stroke-miterlimit:4;stroke-dasharray:none;display:inline" id="connector23pad" stroke-width="2.16" d="m109.8,25.2a1.8,1.8,0,1,1,-3.6,0,1.8,1.8,0,1,1,3.6,0z"/>
       </g>
       <g transform="matrix(1, 0, 0, 1, -86.4, 0)">
        <path stroke-opacity="1" fill="white" stroke="white" style="stroke-linecap:round;stroke-linejoin:miter;stroke-miterlimit:4;stroke-dasharray:none;display:inline" id="connector25pad" stroke-width="2.16" d="m109.8,25.2a1.8,1.8,0,1,1,-3.6,0,1.8,1.8,0,1,1,3.6,0z"/>
       </g>
       <g transform="matrix(1, 0, 0, 1, -72, 0)">
        <path stroke-opacity="1" fill="white" stroke="white" style="stroke-linecap:round;stroke-linejoin:miter;stroke-miterlimit:4;stroke-dasharray:none;display:inline" id="connector21pad" stroke-width="2.16" d="m109.8,25.2a1.8,1.8,0,1,1,-3.6,0,1.8,1.8,0,1,1,3.6,0z"/>
       </g>
       <g transform="matrix(1, 0, 0, 1, -14.4, 7.2)">
        <path stroke-opacity="1" fill="white" stroke="white" style="stroke-linecap:round;stroke-linejoin:miter;stroke-miterlimit:4;stroke-dasharray:none;display:inline" id="connector6pad" stroke-width="2.16" d="m109.8,25.2a1.8,1.8,0,1,1,-3.6,0,1.8,1.8,0,1,1,3.6,0z"/>
       </g>
       <g transform="matrix(1, 0, 0, 1, -21.6, 7.2)">
        <path stroke-opacity="1" fill="white" stroke="white" style="stroke-linecap:round;stroke-linejoin:miter;stroke-miterlimit:4;stroke-dasharray:none;display:inline" id="connector8pad" stroke-width="2.16" d="m109.8,25.2a1.8,1.8,0,1,1,-3.6,0,1.8,1.8,0,1,1,3.6,0z"/>
       </g>
       <g transform="matrix(1, 0, 0, 1, -28.8, 7.2)">
        <path stroke-opacity="1" fill="white" stroke="white" style="stroke-linecap:round;stroke-linejoin:miter;stroke-miterlimit:4;stroke-dasharray:none;display:inline" id="connector10pad" stroke-width="2.16" d="m109.8,25.2a1.8,1.8,0,1,1,-3.6,0,1.8,1.8,0,1,1,3.6,0z"/>
       </g>
       <g transform="matrix(1, 0, 0, 1, -50.4, 7.2)">
        <path stroke-opacity="1" fill="white" stroke="white" style="stroke-linecap:round;stroke-linejoin:miter;stroke-miterlimit:4;stroke-dasharray:none;display:inline" id="connector16pad" stroke-width="2.16" d="m109.8,25.2a1.8,1.8,0,1,1,-3.6,0,1.8,1.8,0,1,1,3.6,0z"/>
       </g>
       <g transform="matrix(1, 0, 0, 1, -57.6, 7.2)">
        <path stroke-opacity="1" fill="white" stroke="white" style="stroke-linecap:round;stroke-linejoin:miter;stroke-miterlimit:4;stroke-dasharray:none;display:inline" id="connector18pad" stroke-width="2.16" d="m109.8,25.2a1.8,1.8,0,1,1,-3.6,0,1.8,1.8,0,1,1,3.6,0z"/>
       </g>
       <g transform="matrix(1, 0, 0, 1, -64.8, 7.2)">
        <path stroke-opacity="1" fill="white" stroke="white" style="stroke-linecap:round;stroke-linejoin:miter;stroke-miterlimit:4;stroke-dasharray:none;display:inline" id="connector20pad" stroke-width="2.16" d="m109.8,25.2a1.8,1.8,0,1,1,-3.6,0,1.8,1.8,0,1,1,3.6,0z"/>
       </g>
       <g transform="matrix(1, 0, 0, 1, -36, 7.2)">
        <path stroke-opacity="1" fill="white" stroke="white" style="stroke-linecap:round;stroke-linejoin:miter;stroke-miterlimit:4;stroke-dasharray:none;display:inline" id="connector12pad" stroke-width="2.16" d="m109.8,25.2a1.8,1.8,0,1,1,-3.6,0,1.8,1.8,0,1,1,3.6,0z"/>
       </g>
       <g transform="matrix(1, 0, 0, 1, -43.2, 7.2)">
        <path stroke-opacity="1" fill="white" stroke="white" style="stroke-linecap:round;stroke-linejoin:miter;stroke-miterlimit:4;stroke-dasharray:none;display:inline" id="connector14pad" stroke-width="2.16" d="m109.8,25.2a1.8,1.8,0,1,1,-3.6,0,1.8,1.8,0,1,1,3.6,0z"/>
       </g>
       <g transform="matrix(1, 0, 0, 1, -79.2, 7.2)">
        <path stroke-opacity="1" fill="white" stroke="white" style="stroke-linecap:round;stroke-linejoin:miter;stroke-miterlimit:4;stroke-dasharray:none;display:inline" id="connector24pad" stroke-width="2.16" d="m109.8,25.2a1.8,1.8,0,1,1,-3.6,0,1.8,1.8,0,1,1,3.6,0z"/>
       </g>
       <g transform="matrix(1, 0, 0, 1, -86.4, 7.2)">
        <path stroke-opacity="1" fill="white" stroke="white" style="stroke-linecap:round;stroke-linejoin:miter;stroke-miterlimit:4;stroke-dasharray:none;display:inline" id="connector26pad" stroke-width="2.16" d="m109.8,25.2a1.8,1.8,0,1,1,-3.6,0,1.8,1.8,0,1,1,3.6,0z"/>
       </g>
       <g transform="matrix(1, 0, 0, 1, -72, 7.2)">
        <path stroke-opacity="1" fill="white" stroke="white" style="stroke-linecap:round;stroke-linejoin:miter;stroke-miterlimit:4;stroke-dasharray:none;display:inline" id="connector22pad" stroke-width="2.16" d="m109.8,25.2a1.8,1.8,0,1,1,-3.6,0,1.8,1.8,0,1,1,3.6,0z"/>
       </g>
       <g transform="matrix(1, 0, 0, 1, 0, 7.2)">
        <path stroke-opacity="1" fill="white" stroke="white" style="stroke-linecap:round;stroke-linejoin:miter;stroke-miterlimit:4;stroke-dasharray:none;display:inline" id="connector2pad" stroke-width="2.16" d="m109.8,25.2a1.8,1.8,0,1,1,-3.6,0,1.8,1.8,0,1,1,3.6,0z"/>
       </g>
       <g transform="matrix(1, 0, 0, 1, -7.2, 7.2)">
        <path stroke-opacity="1" fill="white" stroke="white" style="stroke-linecap:round;stroke-linejoin:miter;stroke-miterlimit:4;stroke-dasharray:none;display:inline" id="connector4pad" stroke-width="2.16" d="m109.8,25.2a1.8,1.8,0,1,1,-3.6,0,1.8,1.8,0,1,1,3.6,0z"/>
       </g>
       <rect width="3.6" x="106.2" y="23.4" stroke-opacity="1" fill="white" height="3.6" stroke="white" style="stroke-linecap:round;stroke-linejoin:miter;stroke-miterlimit:4;stroke-dasharray:none;display:inline" id="rect4984-3" stroke-width="2.16"/>
       <path stroke-opacity="1" fill="white" stroke="white" style="stroke-linecap:round;stroke-linejoin:miter;stroke-miterlimit:4;stroke-dasharray:none" id="connector1pad" stroke-width="2.16" d="m109.8,25.2a1.8,1.8,0,1,1,-3.6,0,1.8,1.8,0,1,1,3.6,0z"/>
       <g transform="matrix(1, 0, 0, 1, -7.2, 0)">
        <path stroke-opacity="1" fill="white" stroke="white" style="stroke-linecap:round;stroke-linejoin:miter;stroke-miterlimit:4;stroke-dasharray:none" id="connector3pad" stroke-width="2.16" d="m109.8,25.2a1.8,1.8,0,1,1,-3.6,0,1.8,1.8,0,1,1,3.6,0z"/>
       </g>
      </g>
     </g>
    </g>
   </g>
  </g>
 </g>
 <g partID="7784000">
  <g transform="translate(80.5451,60.8171)">
   <g transform="matrix(0,1,-1,0,0,0)">
    <g id="copper0">
     <circle fill="white" cx="5.04" cy="5.04" stroke="white" id="connector0pin" r="2.088" stroke-width="2.16"/>
     <circle fill="white" cx="5.04" cy="12.24" stroke="white" id="connector1pin" r="2.088" stroke-width="2.16"/>
     <circle fill="white" cx="5.04" cy="19.44" stroke="white" id="connector2pin" r="2.088" stroke-width="2.16"/>
    </g>
   </g>
  </g>
 </g>
</svg>
