G04 MADE WITH FRITZING*
G04 WWW.FRITZING.ORG*
G04 DOUBLE SIDED*
G04 HOLES PLATED*
G04 CONTOUR ON CENTER OF CONTOUR VECTOR*
%ASAXBY*%
%FSLAX23Y23*%
%MOIN*%
%OFA0B0*%
%SFA1.0B1.0*%
%ADD10C,0.039370*%
%ADD11C,0.078000*%
%ADD12C,0.099000*%
%ADD13C,0.075000*%
%ADD14C,0.070000*%
%ADD15R,0.074803X0.062992*%
%ADD16R,0.062992X0.074803*%
%ADD17R,0.031496X0.035433*%
%ADD18R,0.099000X0.099000*%
%ADD19R,0.070000X0.070000*%
%ADD20C,0.024000*%
%ADD21R,0.001000X0.001000*%
%LNCOPPER0*%
G90*
G70*
G54D10*
X435Y738D03*
X682Y499D03*
X434Y1110D03*
G54D11*
X860Y66D03*
X116Y66D03*
X734Y66D03*
X403Y468D03*
X517Y468D03*
X360Y66D03*
X238Y66D03*
X1356Y905D03*
X1348Y66D03*
X1100Y66D03*
X482Y66D03*
X1226Y66D03*
X990Y66D03*
X608Y66D03*
G54D12*
X1363Y523D03*
X1163Y523D03*
X1263Y723D03*
G54D13*
X998Y968D03*
X742Y968D03*
X998Y790D03*
X742Y790D03*
X309Y1334D03*
X53Y1334D03*
X309Y1157D03*
X53Y1157D03*
X998Y1334D03*
X742Y1334D03*
X998Y1157D03*
X742Y1157D03*
X309Y968D03*
X53Y968D03*
X309Y790D03*
X53Y790D03*
G54D14*
X1147Y330D03*
X1047Y330D03*
X947Y330D03*
X647Y330D03*
X547Y330D03*
X447Y330D03*
X847Y330D03*
X747Y330D03*
X247Y330D03*
X147Y330D03*
X347Y330D03*
X1147Y230D03*
X1047Y230D03*
X947Y230D03*
X647Y230D03*
X547Y230D03*
X447Y230D03*
X847Y230D03*
X747Y230D03*
X247Y230D03*
X147Y230D03*
X347Y230D03*
X1347Y230D03*
X1247Y230D03*
X1347Y330D03*
X1247Y330D03*
G54D11*
X1049Y503D03*
X949Y503D03*
X849Y503D03*
G54D15*
X186Y1125D03*
X186Y1003D03*
X435Y1338D03*
X435Y1216D03*
X623Y968D03*
X623Y846D03*
X1104Y846D03*
X1104Y968D03*
X1108Y1212D03*
X1108Y1334D03*
X623Y1334D03*
X623Y1212D03*
X435Y846D03*
X435Y968D03*
X190Y613D03*
X190Y491D03*
G54D16*
X419Y605D03*
X297Y605D03*
G54D17*
X568Y605D03*
X643Y605D03*
X606Y527D03*
G54D16*
X1049Y621D03*
X927Y621D03*
G54D18*
X1163Y523D03*
G54D19*
X1347Y330D03*
G54D20*
X655Y968D02*
X713Y968D01*
D02*
X1214Y936D02*
X1135Y871D01*
D02*
X1214Y1141D02*
X1214Y936D01*
D02*
X1140Y1190D02*
X1214Y1141D01*
D02*
X1104Y735D02*
X1064Y653D01*
D02*
X1104Y820D02*
X1104Y735D01*
D02*
X1026Y968D02*
X1072Y968D01*
D02*
X445Y605D02*
X558Y605D01*
D02*
X604Y515D02*
X544Y482D01*
D02*
X606Y527D02*
X604Y515D01*
D02*
X1265Y811D02*
X1264Y754D01*
D02*
X1335Y883D02*
X1265Y811D01*
D02*
X190Y857D02*
X288Y948D01*
D02*
X190Y639D02*
X190Y857D01*
D02*
X403Y968D02*
X337Y968D01*
D02*
X187Y1239D02*
X286Y1316D01*
D02*
X186Y1151D02*
X187Y1239D01*
D02*
X403Y1337D02*
X337Y1335D01*
D02*
X655Y1334D02*
X713Y1334D01*
D02*
X1076Y1334D02*
X1026Y1334D01*
D02*
X297Y605D02*
X290Y582D01*
D02*
X290Y582D02*
X290Y486D01*
D02*
X290Y486D02*
X338Y354D01*
D02*
X412Y439D02*
X439Y355D01*
D02*
X930Y557D02*
X939Y532D01*
D02*
X928Y589D02*
X930Y557D01*
D02*
X624Y1125D02*
X530Y1030D01*
D02*
X624Y1186D02*
X624Y1125D01*
D02*
X530Y1030D02*
X530Y751D01*
D02*
X636Y653D02*
X722Y654D01*
D02*
X530Y750D02*
X636Y653D01*
D02*
X722Y654D02*
X726Y413D01*
D02*
X726Y413D02*
X665Y349D01*
D02*
X163Y465D02*
X84Y390D01*
D02*
X84Y390D02*
X84Y274D01*
D02*
X84Y274D02*
X126Y245D01*
D02*
X1009Y156D02*
X1035Y207D01*
D02*
X902Y156D02*
X1009Y156D01*
D02*
X873Y93D02*
X902Y156D01*
D02*
X1256Y66D02*
X1318Y66D01*
D02*
X670Y156D02*
X809Y156D01*
D02*
X809Y156D02*
X835Y207D01*
D02*
X625Y91D02*
X670Y156D01*
D02*
X624Y820D02*
X624Y758D01*
D02*
X677Y712D02*
X738Y709D01*
D02*
X738Y709D02*
X769Y676D01*
D02*
X624Y758D02*
X677Y712D01*
D02*
X769Y409D02*
X829Y348D01*
D02*
X769Y676D02*
X769Y409D01*
D02*
X171Y977D02*
X135Y917D01*
D02*
X135Y751D02*
X37Y656D01*
D02*
X135Y917D02*
X135Y751D01*
D02*
X37Y656D02*
X30Y216D01*
D02*
X30Y216D02*
X91Y164D01*
D02*
X91Y164D02*
X486Y164D01*
D02*
X486Y164D02*
X529Y211D01*
D02*
X1049Y589D02*
X1049Y533D01*
D02*
X435Y820D02*
X435Y757D01*
D02*
X434Y1190D02*
X434Y1129D01*
D02*
X1070Y66D02*
X1020Y66D01*
D02*
X1140Y205D02*
X1108Y95D01*
D02*
X1258Y416D02*
X1363Y416D01*
D02*
X1363Y416D02*
X1431Y376D01*
D02*
X1184Y499D02*
X1258Y416D01*
D02*
X1431Y215D02*
X1375Y156D01*
D02*
X1431Y376D02*
X1431Y215D01*
D02*
X1375Y156D02*
X1210Y152D01*
D02*
X1210Y152D02*
X1164Y210D01*
D02*
X865Y478D02*
X907Y413D01*
D02*
X907Y413D02*
X1103Y413D01*
D02*
X1103Y413D02*
X1148Y495D01*
D02*
X653Y594D02*
X682Y562D01*
D02*
X682Y562D02*
X682Y518D01*
G54D21*
X144Y366D02*
X149Y366D01*
X244Y366D02*
X249Y366D01*
X344Y366D02*
X349Y366D01*
X444Y366D02*
X449Y366D01*
X544Y366D02*
X549Y366D01*
X644Y366D02*
X649Y366D01*
X744Y366D02*
X749Y366D01*
X844Y366D02*
X849Y366D01*
X944Y366D02*
X949Y366D01*
X1044Y366D02*
X1049Y366D01*
X1144Y366D02*
X1149Y366D01*
X1244Y366D02*
X1249Y366D01*
X1344Y366D02*
X1349Y366D01*
X139Y365D02*
X154Y365D01*
X239Y365D02*
X254Y365D01*
X339Y365D02*
X354Y365D01*
X439Y365D02*
X454Y365D01*
X539Y365D02*
X554Y365D01*
X639Y365D02*
X654Y365D01*
X739Y365D02*
X754Y365D01*
X839Y365D02*
X854Y365D01*
X939Y365D02*
X954Y365D01*
X1039Y365D02*
X1054Y365D01*
X1139Y365D02*
X1154Y365D01*
X1239Y365D02*
X1254Y365D01*
X1339Y365D02*
X1354Y365D01*
X136Y364D02*
X157Y364D01*
X236Y364D02*
X257Y364D01*
X336Y364D02*
X357Y364D01*
X436Y364D02*
X457Y364D01*
X536Y364D02*
X557Y364D01*
X636Y364D02*
X657Y364D01*
X736Y364D02*
X757Y364D01*
X836Y364D02*
X857Y364D01*
X936Y364D02*
X957Y364D01*
X1036Y364D02*
X1057Y364D01*
X1136Y364D02*
X1157Y364D01*
X1236Y364D02*
X1257Y364D01*
X1336Y364D02*
X1357Y364D01*
X134Y363D02*
X159Y363D01*
X234Y363D02*
X259Y363D01*
X334Y363D02*
X359Y363D01*
X434Y363D02*
X459Y363D01*
X534Y363D02*
X559Y363D01*
X634Y363D02*
X659Y363D01*
X734Y363D02*
X759Y363D01*
X834Y363D02*
X859Y363D01*
X934Y363D02*
X959Y363D01*
X1034Y363D02*
X1059Y363D01*
X1134Y363D02*
X1159Y363D01*
X1234Y363D02*
X1259Y363D01*
X1334Y363D02*
X1359Y363D01*
X132Y362D02*
X161Y362D01*
X232Y362D02*
X261Y362D01*
X332Y362D02*
X361Y362D01*
X432Y362D02*
X461Y362D01*
X532Y362D02*
X561Y362D01*
X632Y362D02*
X661Y362D01*
X732Y362D02*
X761Y362D01*
X832Y362D02*
X861Y362D01*
X932Y362D02*
X961Y362D01*
X1032Y362D02*
X1061Y362D01*
X1132Y362D02*
X1161Y362D01*
X1232Y362D02*
X1261Y362D01*
X1332Y362D02*
X1361Y362D01*
X130Y361D02*
X163Y361D01*
X230Y361D02*
X263Y361D01*
X330Y361D02*
X363Y361D01*
X430Y361D02*
X463Y361D01*
X530Y361D02*
X563Y361D01*
X630Y361D02*
X663Y361D01*
X730Y361D02*
X763Y361D01*
X830Y361D02*
X863Y361D01*
X930Y361D02*
X963Y361D01*
X1030Y361D02*
X1063Y361D01*
X1130Y361D02*
X1163Y361D01*
X1230Y361D02*
X1263Y361D01*
X1330Y361D02*
X1363Y361D01*
X128Y360D02*
X165Y360D01*
X228Y360D02*
X265Y360D01*
X328Y360D02*
X365Y360D01*
X428Y360D02*
X465Y360D01*
X528Y360D02*
X565Y360D01*
X628Y360D02*
X665Y360D01*
X728Y360D02*
X765Y360D01*
X828Y360D02*
X865Y360D01*
X928Y360D02*
X965Y360D01*
X1028Y360D02*
X1065Y360D01*
X1128Y360D02*
X1165Y360D01*
X1228Y360D02*
X1265Y360D01*
X1328Y360D02*
X1365Y360D01*
X127Y359D02*
X166Y359D01*
X227Y359D02*
X266Y359D01*
X327Y359D02*
X366Y359D01*
X427Y359D02*
X466Y359D01*
X527Y359D02*
X566Y359D01*
X627Y359D02*
X666Y359D01*
X727Y359D02*
X766Y359D01*
X827Y359D02*
X866Y359D01*
X927Y359D02*
X966Y359D01*
X1027Y359D02*
X1066Y359D01*
X1127Y359D02*
X1166Y359D01*
X1227Y359D02*
X1266Y359D01*
X1327Y359D02*
X1366Y359D01*
X126Y358D02*
X167Y358D01*
X226Y358D02*
X267Y358D01*
X326Y358D02*
X367Y358D01*
X426Y358D02*
X467Y358D01*
X526Y358D02*
X567Y358D01*
X626Y358D02*
X667Y358D01*
X726Y358D02*
X767Y358D01*
X826Y358D02*
X867Y358D01*
X926Y358D02*
X967Y358D01*
X1026Y358D02*
X1067Y358D01*
X1126Y358D02*
X1167Y358D01*
X1226Y358D02*
X1267Y358D01*
X1326Y358D02*
X1367Y358D01*
X125Y357D02*
X169Y357D01*
X225Y357D02*
X269Y357D01*
X325Y357D02*
X369Y357D01*
X425Y357D02*
X469Y357D01*
X525Y357D02*
X569Y357D01*
X625Y357D02*
X668Y357D01*
X725Y357D02*
X768Y357D01*
X825Y357D02*
X868Y357D01*
X925Y357D02*
X968Y357D01*
X1025Y357D02*
X1068Y357D01*
X1124Y357D02*
X1168Y357D01*
X1224Y357D02*
X1268Y357D01*
X1324Y357D02*
X1368Y357D01*
X124Y356D02*
X170Y356D01*
X223Y356D02*
X270Y356D01*
X323Y356D02*
X370Y356D01*
X423Y356D02*
X470Y356D01*
X523Y356D02*
X570Y356D01*
X623Y356D02*
X670Y356D01*
X723Y356D02*
X770Y356D01*
X823Y356D02*
X870Y356D01*
X923Y356D02*
X970Y356D01*
X1023Y356D02*
X1070Y356D01*
X1123Y356D02*
X1170Y356D01*
X1223Y356D02*
X1270Y356D01*
X1323Y356D02*
X1370Y356D01*
X122Y355D02*
X171Y355D01*
X222Y355D02*
X271Y355D01*
X322Y355D02*
X371Y355D01*
X422Y355D02*
X471Y355D01*
X522Y355D02*
X571Y355D01*
X622Y355D02*
X671Y355D01*
X722Y355D02*
X771Y355D01*
X822Y355D02*
X871Y355D01*
X922Y355D02*
X971Y355D01*
X1022Y355D02*
X1071Y355D01*
X1122Y355D02*
X1171Y355D01*
X1222Y355D02*
X1271Y355D01*
X1322Y355D02*
X1371Y355D01*
X122Y354D02*
X172Y354D01*
X222Y354D02*
X272Y354D01*
X322Y354D02*
X372Y354D01*
X422Y354D02*
X472Y354D01*
X522Y354D02*
X572Y354D01*
X622Y354D02*
X672Y354D01*
X721Y354D02*
X772Y354D01*
X821Y354D02*
X872Y354D01*
X921Y354D02*
X972Y354D01*
X1021Y354D02*
X1071Y354D01*
X1121Y354D02*
X1171Y354D01*
X1221Y354D02*
X1271Y354D01*
X1321Y354D02*
X1371Y354D01*
X121Y353D02*
X172Y353D01*
X221Y353D02*
X272Y353D01*
X321Y353D02*
X372Y353D01*
X421Y353D02*
X472Y353D01*
X521Y353D02*
X572Y353D01*
X621Y353D02*
X672Y353D01*
X721Y353D02*
X772Y353D01*
X821Y353D02*
X872Y353D01*
X921Y353D02*
X972Y353D01*
X1021Y353D02*
X1072Y353D01*
X1121Y353D02*
X1172Y353D01*
X1221Y353D02*
X1272Y353D01*
X1321Y353D02*
X1372Y353D01*
X120Y352D02*
X173Y352D01*
X220Y352D02*
X273Y352D01*
X320Y352D02*
X373Y352D01*
X420Y352D02*
X473Y352D01*
X520Y352D02*
X573Y352D01*
X620Y352D02*
X673Y352D01*
X720Y352D02*
X773Y352D01*
X820Y352D02*
X873Y352D01*
X920Y352D02*
X973Y352D01*
X1020Y352D02*
X1073Y352D01*
X1120Y352D02*
X1173Y352D01*
X1220Y352D02*
X1273Y352D01*
X1320Y352D02*
X1373Y352D01*
X119Y351D02*
X174Y351D01*
X219Y351D02*
X274Y351D01*
X319Y351D02*
X374Y351D01*
X419Y351D02*
X474Y351D01*
X519Y351D02*
X574Y351D01*
X619Y351D02*
X674Y351D01*
X719Y351D02*
X774Y351D01*
X819Y351D02*
X874Y351D01*
X919Y351D02*
X974Y351D01*
X1019Y351D02*
X1074Y351D01*
X1119Y351D02*
X1174Y351D01*
X1219Y351D02*
X1274Y351D01*
X1319Y351D02*
X1374Y351D01*
X118Y350D02*
X175Y350D01*
X218Y350D02*
X275Y350D01*
X318Y350D02*
X375Y350D01*
X418Y350D02*
X475Y350D01*
X518Y350D02*
X575Y350D01*
X618Y350D02*
X675Y350D01*
X718Y350D02*
X775Y350D01*
X818Y350D02*
X875Y350D01*
X918Y350D02*
X975Y350D01*
X1018Y350D02*
X1075Y350D01*
X1118Y350D02*
X1175Y350D01*
X1218Y350D02*
X1275Y350D01*
X1318Y350D02*
X1375Y350D01*
X118Y349D02*
X175Y349D01*
X218Y349D02*
X275Y349D01*
X318Y349D02*
X375Y349D01*
X418Y349D02*
X475Y349D01*
X518Y349D02*
X575Y349D01*
X618Y349D02*
X675Y349D01*
X718Y349D02*
X775Y349D01*
X818Y349D02*
X875Y349D01*
X918Y349D02*
X975Y349D01*
X1018Y349D02*
X1075Y349D01*
X1118Y349D02*
X1175Y349D01*
X1218Y349D02*
X1275Y349D01*
X1318Y349D02*
X1375Y349D01*
X117Y348D02*
X176Y348D01*
X217Y348D02*
X276Y348D01*
X317Y348D02*
X376Y348D01*
X417Y348D02*
X476Y348D01*
X517Y348D02*
X576Y348D01*
X617Y348D02*
X676Y348D01*
X717Y348D02*
X776Y348D01*
X817Y348D02*
X876Y348D01*
X917Y348D02*
X976Y348D01*
X1017Y348D02*
X1076Y348D01*
X1117Y348D02*
X1176Y348D01*
X1217Y348D02*
X1276Y348D01*
X1317Y348D02*
X1376Y348D01*
X116Y347D02*
X177Y347D01*
X216Y347D02*
X277Y347D01*
X316Y347D02*
X377Y347D01*
X416Y347D02*
X477Y347D01*
X516Y347D02*
X577Y347D01*
X616Y347D02*
X677Y347D01*
X716Y347D02*
X777Y347D01*
X816Y347D02*
X877Y347D01*
X916Y347D02*
X977Y347D01*
X1016Y347D02*
X1077Y347D01*
X1116Y347D02*
X1177Y347D01*
X1216Y347D02*
X1277Y347D01*
X1316Y347D02*
X1377Y347D01*
X116Y346D02*
X144Y346D01*
X150Y346D02*
X177Y346D01*
X216Y346D02*
X244Y346D01*
X250Y346D02*
X277Y346D01*
X316Y346D02*
X344Y346D01*
X350Y346D02*
X377Y346D01*
X416Y346D02*
X444Y346D01*
X449Y346D02*
X477Y346D01*
X516Y346D02*
X544Y346D01*
X549Y346D02*
X577Y346D01*
X616Y346D02*
X644Y346D01*
X649Y346D02*
X677Y346D01*
X716Y346D02*
X744Y346D01*
X749Y346D02*
X777Y346D01*
X816Y346D02*
X844Y346D01*
X849Y346D02*
X877Y346D01*
X916Y346D02*
X944Y346D01*
X949Y346D02*
X977Y346D01*
X1016Y346D02*
X1044Y346D01*
X1049Y346D02*
X1077Y346D01*
X1116Y346D02*
X1144Y346D01*
X1149Y346D02*
X1177Y346D01*
X1216Y346D02*
X1244Y346D01*
X1249Y346D02*
X1277Y346D01*
X1316Y346D02*
X1344Y346D01*
X1349Y346D02*
X1377Y346D01*
X115Y345D02*
X139Y345D01*
X154Y345D02*
X178Y345D01*
X215Y345D02*
X239Y345D01*
X254Y345D02*
X278Y345D01*
X315Y345D02*
X339Y345D01*
X354Y345D02*
X378Y345D01*
X415Y345D02*
X439Y345D01*
X454Y345D02*
X478Y345D01*
X515Y345D02*
X539Y345D01*
X554Y345D02*
X578Y345D01*
X615Y345D02*
X639Y345D01*
X654Y345D02*
X678Y345D01*
X715Y345D02*
X739Y345D01*
X754Y345D02*
X778Y345D01*
X815Y345D02*
X839Y345D01*
X854Y345D02*
X878Y345D01*
X915Y345D02*
X939Y345D01*
X954Y345D02*
X978Y345D01*
X1015Y345D02*
X1039Y345D01*
X1054Y345D02*
X1078Y345D01*
X1115Y345D02*
X1139Y345D01*
X1154Y345D02*
X1178Y345D01*
X1215Y345D02*
X1239Y345D01*
X1254Y345D02*
X1278Y345D01*
X1315Y345D02*
X1339Y345D01*
X1354Y345D02*
X1378Y345D01*
X115Y344D02*
X137Y344D01*
X156Y344D02*
X178Y344D01*
X215Y344D02*
X237Y344D01*
X256Y344D02*
X278Y344D01*
X315Y344D02*
X337Y344D01*
X356Y344D02*
X378Y344D01*
X415Y344D02*
X437Y344D01*
X456Y344D02*
X478Y344D01*
X515Y344D02*
X537Y344D01*
X556Y344D02*
X578Y344D01*
X615Y344D02*
X637Y344D01*
X656Y344D02*
X678Y344D01*
X715Y344D02*
X737Y344D01*
X756Y344D02*
X778Y344D01*
X815Y344D02*
X837Y344D01*
X856Y344D02*
X878Y344D01*
X915Y344D02*
X937Y344D01*
X956Y344D02*
X978Y344D01*
X1015Y344D02*
X1037Y344D01*
X1056Y344D02*
X1078Y344D01*
X1115Y344D02*
X1137Y344D01*
X1156Y344D02*
X1178Y344D01*
X1215Y344D02*
X1237Y344D01*
X1256Y344D02*
X1278Y344D01*
X1315Y344D02*
X1337Y344D01*
X1356Y344D02*
X1378Y344D01*
X115Y343D02*
X136Y343D01*
X157Y343D02*
X179Y343D01*
X214Y343D02*
X236Y343D01*
X257Y343D02*
X279Y343D01*
X314Y343D02*
X336Y343D01*
X357Y343D02*
X379Y343D01*
X414Y343D02*
X436Y343D01*
X457Y343D02*
X479Y343D01*
X514Y343D02*
X536Y343D01*
X557Y343D02*
X579Y343D01*
X614Y343D02*
X636Y343D01*
X657Y343D02*
X679Y343D01*
X714Y343D02*
X736Y343D01*
X757Y343D02*
X779Y343D01*
X814Y343D02*
X836Y343D01*
X857Y343D02*
X879Y343D01*
X914Y343D02*
X936Y343D01*
X957Y343D02*
X979Y343D01*
X1014Y343D02*
X1036Y343D01*
X1057Y343D02*
X1079Y343D01*
X1114Y343D02*
X1136Y343D01*
X1157Y343D02*
X1179Y343D01*
X1214Y343D02*
X1236Y343D01*
X1257Y343D02*
X1279Y343D01*
X1314Y343D02*
X1336Y343D01*
X1357Y343D02*
X1379Y343D01*
X114Y342D02*
X135Y342D01*
X158Y342D02*
X179Y342D01*
X214Y342D02*
X235Y342D01*
X258Y342D02*
X279Y342D01*
X314Y342D02*
X335Y342D01*
X358Y342D02*
X379Y342D01*
X414Y342D02*
X435Y342D01*
X458Y342D02*
X479Y342D01*
X514Y342D02*
X535Y342D01*
X558Y342D02*
X579Y342D01*
X614Y342D02*
X635Y342D01*
X658Y342D02*
X679Y342D01*
X714Y342D02*
X735Y342D01*
X758Y342D02*
X779Y342D01*
X814Y342D02*
X835Y342D01*
X858Y342D02*
X879Y342D01*
X914Y342D02*
X935Y342D01*
X958Y342D02*
X979Y342D01*
X1014Y342D02*
X1035Y342D01*
X1058Y342D02*
X1079Y342D01*
X1114Y342D02*
X1135Y342D01*
X1158Y342D02*
X1179Y342D01*
X1214Y342D02*
X1235Y342D01*
X1258Y342D02*
X1279Y342D01*
X1314Y342D02*
X1335Y342D01*
X1358Y342D02*
X1379Y342D01*
X114Y341D02*
X134Y341D01*
X159Y341D02*
X179Y341D01*
X214Y341D02*
X234Y341D01*
X259Y341D02*
X279Y341D01*
X314Y341D02*
X334Y341D01*
X359Y341D02*
X379Y341D01*
X414Y341D02*
X434Y341D01*
X459Y341D02*
X479Y341D01*
X514Y341D02*
X534Y341D01*
X559Y341D02*
X579Y341D01*
X614Y341D02*
X634Y341D01*
X659Y341D02*
X679Y341D01*
X714Y341D02*
X734Y341D01*
X759Y341D02*
X779Y341D01*
X814Y341D02*
X834Y341D01*
X859Y341D02*
X879Y341D01*
X914Y341D02*
X934Y341D01*
X959Y341D02*
X979Y341D01*
X1014Y341D02*
X1034Y341D01*
X1059Y341D02*
X1079Y341D01*
X1114Y341D02*
X1134Y341D01*
X1159Y341D02*
X1179Y341D01*
X1214Y341D02*
X1234Y341D01*
X1259Y341D02*
X1279Y341D01*
X1314Y341D02*
X1334Y341D01*
X1359Y341D02*
X1379Y341D01*
X113Y340D02*
X133Y340D01*
X160Y340D02*
X180Y340D01*
X213Y340D02*
X233Y340D01*
X260Y340D02*
X280Y340D01*
X313Y340D02*
X333Y340D01*
X360Y340D02*
X380Y340D01*
X413Y340D02*
X433Y340D01*
X460Y340D02*
X480Y340D01*
X513Y340D02*
X533Y340D01*
X560Y340D02*
X580Y340D01*
X613Y340D02*
X633Y340D01*
X660Y340D02*
X680Y340D01*
X713Y340D02*
X733Y340D01*
X760Y340D02*
X780Y340D01*
X813Y340D02*
X833Y340D01*
X860Y340D02*
X880Y340D01*
X913Y340D02*
X933Y340D01*
X960Y340D02*
X980Y340D01*
X1013Y340D02*
X1033Y340D01*
X1060Y340D02*
X1080Y340D01*
X1113Y340D02*
X1133Y340D01*
X1160Y340D02*
X1180Y340D01*
X1213Y340D02*
X1233Y340D01*
X1260Y340D02*
X1280Y340D01*
X1313Y340D02*
X1333Y340D01*
X1360Y340D02*
X1380Y340D01*
X113Y339D02*
X133Y339D01*
X160Y339D02*
X180Y339D01*
X213Y339D02*
X233Y339D01*
X260Y339D02*
X280Y339D01*
X313Y339D02*
X333Y339D01*
X360Y339D02*
X380Y339D01*
X413Y339D02*
X433Y339D01*
X460Y339D02*
X480Y339D01*
X513Y339D02*
X533Y339D01*
X560Y339D02*
X580Y339D01*
X613Y339D02*
X633Y339D01*
X660Y339D02*
X680Y339D01*
X713Y339D02*
X733Y339D01*
X760Y339D02*
X780Y339D01*
X813Y339D02*
X833Y339D01*
X860Y339D02*
X880Y339D01*
X913Y339D02*
X933Y339D01*
X960Y339D02*
X980Y339D01*
X1013Y339D02*
X1033Y339D01*
X1060Y339D02*
X1080Y339D01*
X1113Y339D02*
X1133Y339D01*
X1160Y339D02*
X1180Y339D01*
X1213Y339D02*
X1233Y339D01*
X1260Y339D02*
X1280Y339D01*
X1313Y339D02*
X1333Y339D01*
X1360Y339D02*
X1380Y339D01*
X113Y338D02*
X132Y338D01*
X161Y338D02*
X180Y338D01*
X213Y338D02*
X232Y338D01*
X261Y338D02*
X280Y338D01*
X313Y338D02*
X332Y338D01*
X361Y338D02*
X380Y338D01*
X413Y338D02*
X432Y338D01*
X461Y338D02*
X480Y338D01*
X513Y338D02*
X532Y338D01*
X561Y338D02*
X580Y338D01*
X613Y338D02*
X632Y338D01*
X661Y338D02*
X680Y338D01*
X713Y338D02*
X732Y338D01*
X761Y338D02*
X780Y338D01*
X813Y338D02*
X832Y338D01*
X861Y338D02*
X880Y338D01*
X913Y338D02*
X932Y338D01*
X961Y338D02*
X980Y338D01*
X1013Y338D02*
X1032Y338D01*
X1061Y338D02*
X1080Y338D01*
X1113Y338D02*
X1132Y338D01*
X1161Y338D02*
X1180Y338D01*
X1213Y338D02*
X1232Y338D01*
X1261Y338D02*
X1280Y338D01*
X1313Y338D02*
X1332Y338D01*
X1361Y338D02*
X1380Y338D01*
X113Y337D02*
X132Y337D01*
X161Y337D02*
X180Y337D01*
X213Y337D02*
X232Y337D01*
X261Y337D02*
X280Y337D01*
X313Y337D02*
X332Y337D01*
X361Y337D02*
X380Y337D01*
X413Y337D02*
X432Y337D01*
X461Y337D02*
X480Y337D01*
X513Y337D02*
X532Y337D01*
X561Y337D02*
X580Y337D01*
X613Y337D02*
X632Y337D01*
X661Y337D02*
X680Y337D01*
X713Y337D02*
X732Y337D01*
X761Y337D02*
X780Y337D01*
X813Y337D02*
X832Y337D01*
X861Y337D02*
X880Y337D01*
X913Y337D02*
X932Y337D01*
X961Y337D02*
X980Y337D01*
X1013Y337D02*
X1032Y337D01*
X1061Y337D02*
X1080Y337D01*
X1113Y337D02*
X1132Y337D01*
X1161Y337D02*
X1180Y337D01*
X1213Y337D02*
X1232Y337D01*
X1261Y337D02*
X1280Y337D01*
X1313Y337D02*
X1332Y337D01*
X1361Y337D02*
X1380Y337D01*
X112Y336D02*
X132Y336D01*
X162Y336D02*
X181Y336D01*
X212Y336D02*
X232Y336D01*
X262Y336D02*
X281Y336D01*
X312Y336D02*
X332Y336D01*
X361Y336D02*
X381Y336D01*
X412Y336D02*
X432Y336D01*
X461Y336D02*
X481Y336D01*
X512Y336D02*
X532Y336D01*
X561Y336D02*
X581Y336D01*
X612Y336D02*
X632Y336D01*
X661Y336D02*
X681Y336D01*
X712Y336D02*
X732Y336D01*
X761Y336D02*
X781Y336D01*
X812Y336D02*
X832Y336D01*
X861Y336D02*
X881Y336D01*
X912Y336D02*
X932Y336D01*
X961Y336D02*
X981Y336D01*
X1012Y336D02*
X1032Y336D01*
X1061Y336D02*
X1081Y336D01*
X1112Y336D02*
X1132Y336D01*
X1161Y336D02*
X1181Y336D01*
X1212Y336D02*
X1232Y336D01*
X1261Y336D02*
X1281Y336D01*
X1312Y336D02*
X1332Y336D01*
X1361Y336D02*
X1381Y336D01*
X112Y335D02*
X131Y335D01*
X162Y335D02*
X181Y335D01*
X212Y335D02*
X231Y335D01*
X262Y335D02*
X281Y335D01*
X312Y335D02*
X331Y335D01*
X362Y335D02*
X381Y335D01*
X412Y335D02*
X431Y335D01*
X462Y335D02*
X481Y335D01*
X512Y335D02*
X531Y335D01*
X562Y335D02*
X581Y335D01*
X612Y335D02*
X631Y335D01*
X662Y335D02*
X681Y335D01*
X712Y335D02*
X731Y335D01*
X762Y335D02*
X781Y335D01*
X812Y335D02*
X831Y335D01*
X862Y335D02*
X881Y335D01*
X912Y335D02*
X931Y335D01*
X962Y335D02*
X981Y335D01*
X1012Y335D02*
X1031Y335D01*
X1062Y335D02*
X1081Y335D01*
X1112Y335D02*
X1131Y335D01*
X1162Y335D02*
X1181Y335D01*
X1212Y335D02*
X1231Y335D01*
X1262Y335D02*
X1281Y335D01*
X1312Y335D02*
X1331Y335D01*
X1362Y335D02*
X1381Y335D01*
X112Y334D02*
X131Y334D01*
X162Y334D02*
X181Y334D01*
X212Y334D02*
X231Y334D01*
X262Y334D02*
X281Y334D01*
X312Y334D02*
X331Y334D01*
X362Y334D02*
X381Y334D01*
X412Y334D02*
X431Y334D01*
X462Y334D02*
X481Y334D01*
X512Y334D02*
X531Y334D01*
X562Y334D02*
X581Y334D01*
X612Y334D02*
X631Y334D01*
X662Y334D02*
X681Y334D01*
X712Y334D02*
X731Y334D01*
X762Y334D02*
X781Y334D01*
X812Y334D02*
X831Y334D01*
X862Y334D02*
X881Y334D01*
X912Y334D02*
X931Y334D01*
X962Y334D02*
X981Y334D01*
X1012Y334D02*
X1031Y334D01*
X1062Y334D02*
X1081Y334D01*
X1112Y334D02*
X1131Y334D01*
X1162Y334D02*
X1181Y334D01*
X1212Y334D02*
X1231Y334D01*
X1262Y334D02*
X1281Y334D01*
X1312Y334D02*
X1331Y334D01*
X1362Y334D02*
X1381Y334D01*
X112Y333D02*
X131Y333D01*
X162Y333D02*
X181Y333D01*
X212Y333D02*
X231Y333D01*
X262Y333D02*
X281Y333D01*
X312Y333D02*
X331Y333D01*
X362Y333D02*
X381Y333D01*
X412Y333D02*
X431Y333D01*
X462Y333D02*
X481Y333D01*
X512Y333D02*
X531Y333D01*
X562Y333D02*
X581Y333D01*
X612Y333D02*
X631Y333D01*
X662Y333D02*
X681Y333D01*
X712Y333D02*
X731Y333D01*
X762Y333D02*
X781Y333D01*
X812Y333D02*
X831Y333D01*
X862Y333D02*
X881Y333D01*
X912Y333D02*
X931Y333D01*
X962Y333D02*
X981Y333D01*
X1012Y333D02*
X1031Y333D01*
X1062Y333D02*
X1081Y333D01*
X1112Y333D02*
X1131Y333D01*
X1162Y333D02*
X1181Y333D01*
X1212Y333D02*
X1231Y333D01*
X1262Y333D02*
X1281Y333D01*
X1312Y333D02*
X1331Y333D01*
X1362Y333D02*
X1381Y333D01*
X112Y332D02*
X131Y332D01*
X162Y332D02*
X181Y332D01*
X212Y332D02*
X231Y332D01*
X262Y332D02*
X281Y332D01*
X312Y332D02*
X331Y332D01*
X362Y332D02*
X381Y332D01*
X412Y332D02*
X431Y332D01*
X462Y332D02*
X481Y332D01*
X512Y332D02*
X531Y332D01*
X562Y332D02*
X581Y332D01*
X612Y332D02*
X631Y332D01*
X662Y332D02*
X681Y332D01*
X712Y332D02*
X731Y332D01*
X762Y332D02*
X781Y332D01*
X812Y332D02*
X831Y332D01*
X862Y332D02*
X881Y332D01*
X912Y332D02*
X931Y332D01*
X962Y332D02*
X981Y332D01*
X1012Y332D02*
X1031Y332D01*
X1062Y332D02*
X1081Y332D01*
X1112Y332D02*
X1131Y332D01*
X1162Y332D02*
X1181Y332D01*
X1212Y332D02*
X1231Y332D01*
X1262Y332D02*
X1281Y332D01*
X1312Y332D02*
X1331Y332D01*
X1362Y332D02*
X1381Y332D01*
X112Y331D02*
X131Y331D01*
X162Y331D02*
X181Y331D01*
X212Y331D02*
X231Y331D01*
X262Y331D02*
X281Y331D01*
X312Y331D02*
X331Y331D01*
X362Y331D02*
X381Y331D01*
X412Y331D02*
X431Y331D01*
X462Y331D02*
X481Y331D01*
X512Y331D02*
X531Y331D01*
X562Y331D02*
X581Y331D01*
X612Y331D02*
X631Y331D01*
X662Y331D02*
X681Y331D01*
X712Y331D02*
X731Y331D01*
X762Y331D02*
X781Y331D01*
X812Y331D02*
X831Y331D01*
X862Y331D02*
X881Y331D01*
X912Y331D02*
X931Y331D01*
X962Y331D02*
X981Y331D01*
X1012Y331D02*
X1031Y331D01*
X1062Y331D02*
X1081Y331D01*
X1112Y331D02*
X1131Y331D01*
X1162Y331D02*
X1181Y331D01*
X1212Y331D02*
X1231Y331D01*
X1262Y331D02*
X1281Y331D01*
X1312Y331D02*
X1331Y331D01*
X1362Y331D02*
X1381Y331D01*
X112Y330D02*
X131Y330D01*
X162Y330D02*
X181Y330D01*
X212Y330D02*
X231Y330D01*
X262Y330D02*
X281Y330D01*
X312Y330D02*
X331Y330D01*
X362Y330D02*
X381Y330D01*
X412Y330D02*
X431Y330D01*
X462Y330D02*
X481Y330D01*
X512Y330D02*
X531Y330D01*
X562Y330D02*
X581Y330D01*
X612Y330D02*
X631Y330D01*
X662Y330D02*
X681Y330D01*
X712Y330D02*
X731Y330D01*
X762Y330D02*
X781Y330D01*
X812Y330D02*
X831Y330D01*
X862Y330D02*
X881Y330D01*
X912Y330D02*
X931Y330D01*
X962Y330D02*
X981Y330D01*
X1012Y330D02*
X1031Y330D01*
X1062Y330D02*
X1081Y330D01*
X1112Y330D02*
X1131Y330D01*
X1162Y330D02*
X1181Y330D01*
X1212Y330D02*
X1231Y330D01*
X1262Y330D02*
X1281Y330D01*
X1312Y330D02*
X1331Y330D01*
X1362Y330D02*
X1381Y330D01*
X112Y329D02*
X131Y329D01*
X162Y329D02*
X181Y329D01*
X212Y329D02*
X231Y329D01*
X262Y329D02*
X281Y329D01*
X312Y329D02*
X331Y329D01*
X362Y329D02*
X381Y329D01*
X412Y329D02*
X431Y329D01*
X462Y329D02*
X481Y329D01*
X512Y329D02*
X531Y329D01*
X562Y329D02*
X581Y329D01*
X612Y329D02*
X631Y329D01*
X662Y329D02*
X681Y329D01*
X712Y329D02*
X731Y329D01*
X762Y329D02*
X781Y329D01*
X812Y329D02*
X831Y329D01*
X862Y329D02*
X881Y329D01*
X912Y329D02*
X931Y329D01*
X962Y329D02*
X981Y329D01*
X1012Y329D02*
X1031Y329D01*
X1062Y329D02*
X1081Y329D01*
X1112Y329D02*
X1131Y329D01*
X1162Y329D02*
X1181Y329D01*
X1212Y329D02*
X1231Y329D01*
X1262Y329D02*
X1281Y329D01*
X1312Y329D02*
X1331Y329D01*
X1362Y329D02*
X1381Y329D01*
X112Y328D02*
X131Y328D01*
X162Y328D02*
X181Y328D01*
X212Y328D02*
X231Y328D01*
X262Y328D02*
X281Y328D01*
X312Y328D02*
X331Y328D01*
X362Y328D02*
X381Y328D01*
X412Y328D02*
X431Y328D01*
X462Y328D02*
X481Y328D01*
X512Y328D02*
X531Y328D01*
X562Y328D02*
X581Y328D01*
X612Y328D02*
X631Y328D01*
X662Y328D02*
X681Y328D01*
X712Y328D02*
X731Y328D01*
X762Y328D02*
X781Y328D01*
X812Y328D02*
X831Y328D01*
X862Y328D02*
X881Y328D01*
X912Y328D02*
X931Y328D01*
X962Y328D02*
X981Y328D01*
X1012Y328D02*
X1031Y328D01*
X1062Y328D02*
X1081Y328D01*
X1112Y328D02*
X1131Y328D01*
X1162Y328D02*
X1181Y328D01*
X1212Y328D02*
X1231Y328D01*
X1262Y328D02*
X1281Y328D01*
X1312Y328D02*
X1331Y328D01*
X1362Y328D02*
X1381Y328D01*
X112Y327D02*
X131Y327D01*
X162Y327D02*
X181Y327D01*
X212Y327D02*
X231Y327D01*
X262Y327D02*
X281Y327D01*
X312Y327D02*
X331Y327D01*
X362Y327D02*
X381Y327D01*
X412Y327D02*
X431Y327D01*
X462Y327D02*
X481Y327D01*
X512Y327D02*
X531Y327D01*
X562Y327D02*
X581Y327D01*
X612Y327D02*
X631Y327D01*
X662Y327D02*
X681Y327D01*
X712Y327D02*
X731Y327D01*
X762Y327D02*
X781Y327D01*
X812Y327D02*
X831Y327D01*
X862Y327D02*
X881Y327D01*
X912Y327D02*
X931Y327D01*
X962Y327D02*
X981Y327D01*
X1012Y327D02*
X1031Y327D01*
X1062Y327D02*
X1081Y327D01*
X1112Y327D02*
X1131Y327D01*
X1162Y327D02*
X1181Y327D01*
X1212Y327D02*
X1231Y327D01*
X1262Y327D02*
X1281Y327D01*
X1312Y327D02*
X1331Y327D01*
X1362Y327D02*
X1381Y327D01*
X113Y326D02*
X132Y326D01*
X161Y326D02*
X181Y326D01*
X213Y326D02*
X232Y326D01*
X261Y326D02*
X281Y326D01*
X313Y326D02*
X332Y326D01*
X361Y326D02*
X381Y326D01*
X412Y326D02*
X432Y326D01*
X461Y326D02*
X481Y326D01*
X512Y326D02*
X532Y326D01*
X561Y326D02*
X581Y326D01*
X612Y326D02*
X632Y326D01*
X661Y326D02*
X681Y326D01*
X712Y326D02*
X732Y326D01*
X761Y326D02*
X781Y326D01*
X812Y326D02*
X832Y326D01*
X861Y326D02*
X881Y326D01*
X912Y326D02*
X932Y326D01*
X961Y326D02*
X981Y326D01*
X1012Y326D02*
X1032Y326D01*
X1061Y326D02*
X1081Y326D01*
X1112Y326D02*
X1132Y326D01*
X1161Y326D02*
X1181Y326D01*
X1212Y326D02*
X1232Y326D01*
X1261Y326D02*
X1281Y326D01*
X1312Y326D02*
X1332Y326D01*
X1361Y326D02*
X1380Y326D01*
X113Y325D02*
X132Y325D01*
X161Y325D02*
X180Y325D01*
X213Y325D02*
X232Y325D01*
X261Y325D02*
X280Y325D01*
X313Y325D02*
X332Y325D01*
X361Y325D02*
X380Y325D01*
X413Y325D02*
X432Y325D01*
X461Y325D02*
X480Y325D01*
X513Y325D02*
X532Y325D01*
X561Y325D02*
X580Y325D01*
X613Y325D02*
X632Y325D01*
X661Y325D02*
X680Y325D01*
X713Y325D02*
X732Y325D01*
X761Y325D02*
X780Y325D01*
X813Y325D02*
X832Y325D01*
X861Y325D02*
X880Y325D01*
X913Y325D02*
X932Y325D01*
X961Y325D02*
X980Y325D01*
X1013Y325D02*
X1032Y325D01*
X1061Y325D02*
X1080Y325D01*
X1113Y325D02*
X1132Y325D01*
X1161Y325D02*
X1180Y325D01*
X1213Y325D02*
X1232Y325D01*
X1261Y325D02*
X1280Y325D01*
X1313Y325D02*
X1332Y325D01*
X1361Y325D02*
X1380Y325D01*
X113Y324D02*
X132Y324D01*
X161Y324D02*
X180Y324D01*
X213Y324D02*
X232Y324D01*
X261Y324D02*
X280Y324D01*
X313Y324D02*
X332Y324D01*
X361Y324D02*
X380Y324D01*
X413Y324D02*
X432Y324D01*
X461Y324D02*
X480Y324D01*
X513Y324D02*
X532Y324D01*
X561Y324D02*
X580Y324D01*
X613Y324D02*
X632Y324D01*
X661Y324D02*
X680Y324D01*
X713Y324D02*
X732Y324D01*
X761Y324D02*
X780Y324D01*
X813Y324D02*
X832Y324D01*
X861Y324D02*
X880Y324D01*
X913Y324D02*
X932Y324D01*
X961Y324D02*
X980Y324D01*
X1013Y324D02*
X1032Y324D01*
X1061Y324D02*
X1080Y324D01*
X1113Y324D02*
X1132Y324D01*
X1161Y324D02*
X1180Y324D01*
X1213Y324D02*
X1232Y324D01*
X1261Y324D02*
X1280Y324D01*
X1313Y324D02*
X1332Y324D01*
X1361Y324D02*
X1380Y324D01*
X113Y323D02*
X133Y323D01*
X160Y323D02*
X180Y323D01*
X213Y323D02*
X233Y323D01*
X260Y323D02*
X280Y323D01*
X313Y323D02*
X333Y323D01*
X360Y323D02*
X380Y323D01*
X413Y323D02*
X433Y323D01*
X460Y323D02*
X480Y323D01*
X513Y323D02*
X533Y323D01*
X560Y323D02*
X580Y323D01*
X613Y323D02*
X633Y323D01*
X660Y323D02*
X680Y323D01*
X713Y323D02*
X733Y323D01*
X760Y323D02*
X780Y323D01*
X813Y323D02*
X833Y323D01*
X860Y323D02*
X880Y323D01*
X913Y323D02*
X933Y323D01*
X960Y323D02*
X980Y323D01*
X1013Y323D02*
X1033Y323D01*
X1060Y323D02*
X1080Y323D01*
X1113Y323D02*
X1133Y323D01*
X1160Y323D02*
X1180Y323D01*
X1213Y323D02*
X1233Y323D01*
X1260Y323D02*
X1280Y323D01*
X1313Y323D02*
X1333Y323D01*
X1360Y323D02*
X1380Y323D01*
X114Y322D02*
X133Y322D01*
X160Y322D02*
X180Y322D01*
X213Y322D02*
X233Y322D01*
X260Y322D02*
X280Y322D01*
X313Y322D02*
X333Y322D01*
X360Y322D02*
X380Y322D01*
X413Y322D02*
X433Y322D01*
X460Y322D02*
X480Y322D01*
X513Y322D02*
X533Y322D01*
X560Y322D02*
X580Y322D01*
X613Y322D02*
X633Y322D01*
X660Y322D02*
X680Y322D01*
X713Y322D02*
X733Y322D01*
X760Y322D02*
X780Y322D01*
X813Y322D02*
X833Y322D01*
X860Y322D02*
X880Y322D01*
X913Y322D02*
X933Y322D01*
X960Y322D02*
X980Y322D01*
X1013Y322D02*
X1033Y322D01*
X1060Y322D02*
X1080Y322D01*
X1113Y322D02*
X1133Y322D01*
X1160Y322D02*
X1180Y322D01*
X1213Y322D02*
X1233Y322D01*
X1260Y322D02*
X1280Y322D01*
X1313Y322D02*
X1333Y322D01*
X1360Y322D02*
X1380Y322D01*
X114Y321D02*
X134Y321D01*
X159Y321D02*
X179Y321D01*
X214Y321D02*
X234Y321D01*
X259Y321D02*
X279Y321D01*
X314Y321D02*
X334Y321D01*
X359Y321D02*
X379Y321D01*
X414Y321D02*
X434Y321D01*
X459Y321D02*
X479Y321D01*
X514Y321D02*
X534Y321D01*
X559Y321D02*
X579Y321D01*
X614Y321D02*
X634Y321D01*
X659Y321D02*
X679Y321D01*
X714Y321D02*
X734Y321D01*
X759Y321D02*
X779Y321D01*
X814Y321D02*
X834Y321D01*
X859Y321D02*
X879Y321D01*
X914Y321D02*
X934Y321D01*
X959Y321D02*
X979Y321D01*
X1014Y321D02*
X1034Y321D01*
X1059Y321D02*
X1079Y321D01*
X1114Y321D02*
X1134Y321D01*
X1159Y321D02*
X1179Y321D01*
X1214Y321D02*
X1234Y321D01*
X1259Y321D02*
X1279Y321D01*
X1314Y321D02*
X1334Y321D01*
X1359Y321D02*
X1379Y321D01*
X114Y320D02*
X135Y320D01*
X158Y320D02*
X179Y320D01*
X214Y320D02*
X235Y320D01*
X258Y320D02*
X279Y320D01*
X314Y320D02*
X335Y320D01*
X358Y320D02*
X379Y320D01*
X414Y320D02*
X435Y320D01*
X458Y320D02*
X479Y320D01*
X514Y320D02*
X535Y320D01*
X558Y320D02*
X579Y320D01*
X614Y320D02*
X635Y320D01*
X658Y320D02*
X679Y320D01*
X714Y320D02*
X735Y320D01*
X758Y320D02*
X779Y320D01*
X814Y320D02*
X835Y320D01*
X858Y320D02*
X879Y320D01*
X914Y320D02*
X935Y320D01*
X958Y320D02*
X979Y320D01*
X1014Y320D02*
X1035Y320D01*
X1058Y320D02*
X1079Y320D01*
X1114Y320D02*
X1135Y320D01*
X1158Y320D02*
X1179Y320D01*
X1214Y320D02*
X1235Y320D01*
X1258Y320D02*
X1279Y320D01*
X1314Y320D02*
X1335Y320D01*
X1358Y320D02*
X1379Y320D01*
X115Y319D02*
X136Y319D01*
X157Y319D02*
X179Y319D01*
X215Y319D02*
X236Y319D01*
X257Y319D02*
X279Y319D01*
X315Y319D02*
X336Y319D01*
X357Y319D02*
X378Y319D01*
X415Y319D02*
X436Y319D01*
X457Y319D02*
X478Y319D01*
X515Y319D02*
X536Y319D01*
X557Y319D02*
X578Y319D01*
X615Y319D02*
X636Y319D01*
X657Y319D02*
X678Y319D01*
X715Y319D02*
X736Y319D01*
X757Y319D02*
X778Y319D01*
X815Y319D02*
X836Y319D01*
X857Y319D02*
X878Y319D01*
X915Y319D02*
X936Y319D01*
X957Y319D02*
X978Y319D01*
X1015Y319D02*
X1036Y319D01*
X1057Y319D02*
X1078Y319D01*
X1115Y319D02*
X1136Y319D01*
X1157Y319D02*
X1178Y319D01*
X1215Y319D02*
X1236Y319D01*
X1257Y319D02*
X1278Y319D01*
X1315Y319D02*
X1336Y319D01*
X1357Y319D02*
X1378Y319D01*
X115Y318D02*
X138Y318D01*
X155Y318D02*
X178Y318D01*
X215Y318D02*
X238Y318D01*
X255Y318D02*
X278Y318D01*
X315Y318D02*
X338Y318D01*
X355Y318D02*
X378Y318D01*
X415Y318D02*
X438Y318D01*
X455Y318D02*
X478Y318D01*
X515Y318D02*
X538Y318D01*
X555Y318D02*
X578Y318D01*
X615Y318D02*
X638Y318D01*
X655Y318D02*
X678Y318D01*
X715Y318D02*
X738Y318D01*
X755Y318D02*
X778Y318D01*
X815Y318D02*
X838Y318D01*
X855Y318D02*
X878Y318D01*
X915Y318D02*
X938Y318D01*
X955Y318D02*
X978Y318D01*
X1015Y318D02*
X1038Y318D01*
X1055Y318D02*
X1078Y318D01*
X1115Y318D02*
X1138Y318D01*
X1155Y318D02*
X1178Y318D01*
X1215Y318D02*
X1238Y318D01*
X1255Y318D02*
X1278Y318D01*
X1315Y318D02*
X1338Y318D01*
X1355Y318D02*
X1378Y318D01*
X116Y317D02*
X140Y317D01*
X153Y317D02*
X178Y317D01*
X216Y317D02*
X240Y317D01*
X253Y317D02*
X278Y317D01*
X316Y317D02*
X340Y317D01*
X353Y317D02*
X378Y317D01*
X416Y317D02*
X440Y317D01*
X453Y317D02*
X478Y317D01*
X515Y317D02*
X540Y317D01*
X553Y317D02*
X578Y317D01*
X615Y317D02*
X640Y317D01*
X653Y317D02*
X678Y317D01*
X715Y317D02*
X740Y317D01*
X753Y317D02*
X778Y317D01*
X815Y317D02*
X840Y317D01*
X853Y317D02*
X878Y317D01*
X915Y317D02*
X940Y317D01*
X953Y317D02*
X978Y317D01*
X1015Y317D02*
X1040Y317D01*
X1053Y317D02*
X1078Y317D01*
X1115Y317D02*
X1140Y317D01*
X1153Y317D02*
X1178Y317D01*
X1215Y317D02*
X1240Y317D01*
X1253Y317D02*
X1277Y317D01*
X1315Y317D02*
X1340Y317D01*
X1353Y317D02*
X1377Y317D01*
X116Y316D02*
X177Y316D01*
X216Y316D02*
X277Y316D01*
X316Y316D02*
X377Y316D01*
X416Y316D02*
X477Y316D01*
X516Y316D02*
X577Y316D01*
X616Y316D02*
X677Y316D01*
X716Y316D02*
X777Y316D01*
X816Y316D02*
X877Y316D01*
X916Y316D02*
X977Y316D01*
X1016Y316D02*
X1077Y316D01*
X1116Y316D02*
X1177Y316D01*
X1216Y316D02*
X1277Y316D01*
X1316Y316D02*
X1377Y316D01*
X117Y315D02*
X177Y315D01*
X217Y315D02*
X277Y315D01*
X317Y315D02*
X376Y315D01*
X417Y315D02*
X476Y315D01*
X517Y315D02*
X576Y315D01*
X617Y315D02*
X676Y315D01*
X717Y315D02*
X776Y315D01*
X817Y315D02*
X876Y315D01*
X917Y315D02*
X976Y315D01*
X1017Y315D02*
X1076Y315D01*
X1117Y315D02*
X1176Y315D01*
X1217Y315D02*
X1276Y315D01*
X1317Y315D02*
X1376Y315D01*
X117Y314D02*
X176Y314D01*
X217Y314D02*
X276Y314D01*
X317Y314D02*
X376Y314D01*
X417Y314D02*
X476Y314D01*
X517Y314D02*
X576Y314D01*
X617Y314D02*
X676Y314D01*
X717Y314D02*
X776Y314D01*
X817Y314D02*
X876Y314D01*
X917Y314D02*
X976Y314D01*
X1017Y314D02*
X1076Y314D01*
X1117Y314D02*
X1176Y314D01*
X1217Y314D02*
X1276Y314D01*
X1317Y314D02*
X1376Y314D01*
X118Y313D02*
X175Y313D01*
X218Y313D02*
X275Y313D01*
X318Y313D02*
X375Y313D01*
X418Y313D02*
X475Y313D01*
X518Y313D02*
X575Y313D01*
X618Y313D02*
X675Y313D01*
X718Y313D02*
X775Y313D01*
X818Y313D02*
X875Y313D01*
X918Y313D02*
X975Y313D01*
X1018Y313D02*
X1075Y313D01*
X1118Y313D02*
X1175Y313D01*
X1218Y313D02*
X1275Y313D01*
X1318Y313D02*
X1375Y313D01*
X119Y312D02*
X175Y312D01*
X219Y312D02*
X275Y312D01*
X319Y312D02*
X375Y312D01*
X419Y312D02*
X475Y312D01*
X518Y312D02*
X575Y312D01*
X618Y312D02*
X675Y312D01*
X718Y312D02*
X775Y312D01*
X818Y312D02*
X875Y312D01*
X918Y312D02*
X975Y312D01*
X1018Y312D02*
X1075Y312D01*
X1118Y312D02*
X1175Y312D01*
X1218Y312D02*
X1274Y312D01*
X1318Y312D02*
X1374Y312D01*
X119Y311D02*
X174Y311D01*
X219Y311D02*
X274Y311D01*
X319Y311D02*
X374Y311D01*
X419Y311D02*
X474Y311D01*
X519Y311D02*
X574Y311D01*
X619Y311D02*
X674Y311D01*
X719Y311D02*
X774Y311D01*
X819Y311D02*
X874Y311D01*
X919Y311D02*
X974Y311D01*
X1019Y311D02*
X1074Y311D01*
X1119Y311D02*
X1174Y311D01*
X1219Y311D02*
X1274Y311D01*
X1319Y311D02*
X1374Y311D01*
X120Y310D02*
X173Y310D01*
X220Y310D02*
X273Y310D01*
X320Y310D02*
X373Y310D01*
X420Y310D02*
X473Y310D01*
X520Y310D02*
X573Y310D01*
X620Y310D02*
X673Y310D01*
X720Y310D02*
X773Y310D01*
X820Y310D02*
X873Y310D01*
X920Y310D02*
X973Y310D01*
X1020Y310D02*
X1073Y310D01*
X1120Y310D02*
X1173Y310D01*
X1220Y310D02*
X1273Y310D01*
X1320Y310D02*
X1373Y310D01*
X121Y309D02*
X172Y309D01*
X221Y309D02*
X272Y309D01*
X321Y309D02*
X372Y309D01*
X421Y309D02*
X472Y309D01*
X521Y309D02*
X572Y309D01*
X621Y309D02*
X672Y309D01*
X721Y309D02*
X772Y309D01*
X821Y309D02*
X872Y309D01*
X921Y309D02*
X972Y309D01*
X1021Y309D02*
X1072Y309D01*
X1121Y309D02*
X1172Y309D01*
X1221Y309D02*
X1272Y309D01*
X1321Y309D02*
X1372Y309D01*
X122Y308D02*
X171Y308D01*
X222Y308D02*
X271Y308D01*
X322Y308D02*
X371Y308D01*
X422Y308D02*
X471Y308D01*
X522Y308D02*
X571Y308D01*
X622Y308D02*
X671Y308D01*
X722Y308D02*
X771Y308D01*
X822Y308D02*
X871Y308D01*
X922Y308D02*
X971Y308D01*
X1022Y308D02*
X1071Y308D01*
X1122Y308D02*
X1171Y308D01*
X1222Y308D02*
X1271Y308D01*
X1322Y308D02*
X1371Y308D01*
X123Y307D02*
X170Y307D01*
X223Y307D02*
X270Y307D01*
X323Y307D02*
X370Y307D01*
X423Y307D02*
X470Y307D01*
X523Y307D02*
X570Y307D01*
X623Y307D02*
X670Y307D01*
X723Y307D02*
X770Y307D01*
X823Y307D02*
X870Y307D01*
X923Y307D02*
X970Y307D01*
X1023Y307D02*
X1070Y307D01*
X1123Y307D02*
X1170Y307D01*
X1223Y307D02*
X1270Y307D01*
X1323Y307D02*
X1370Y307D01*
X124Y306D02*
X169Y306D01*
X224Y306D02*
X269Y306D01*
X324Y306D02*
X369Y306D01*
X424Y306D02*
X469Y306D01*
X524Y306D02*
X569Y306D01*
X624Y306D02*
X669Y306D01*
X724Y306D02*
X769Y306D01*
X824Y306D02*
X869Y306D01*
X924Y306D02*
X969Y306D01*
X1024Y306D02*
X1069Y306D01*
X1124Y306D02*
X1169Y306D01*
X1224Y306D02*
X1269Y306D01*
X1324Y306D02*
X1369Y306D01*
X125Y305D02*
X168Y305D01*
X225Y305D02*
X268Y305D01*
X325Y305D02*
X368Y305D01*
X425Y305D02*
X468Y305D01*
X525Y305D02*
X568Y305D01*
X625Y305D02*
X668Y305D01*
X725Y305D02*
X768Y305D01*
X825Y305D02*
X868Y305D01*
X925Y305D02*
X968Y305D01*
X1025Y305D02*
X1068Y305D01*
X1125Y305D02*
X1168Y305D01*
X1225Y305D02*
X1268Y305D01*
X1325Y305D02*
X1368Y305D01*
X126Y304D02*
X167Y304D01*
X226Y304D02*
X267Y304D01*
X326Y304D02*
X367Y304D01*
X426Y304D02*
X467Y304D01*
X526Y304D02*
X567Y304D01*
X626Y304D02*
X667Y304D01*
X726Y304D02*
X767Y304D01*
X826Y304D02*
X867Y304D01*
X926Y304D02*
X967Y304D01*
X1026Y304D02*
X1067Y304D01*
X1126Y304D02*
X1167Y304D01*
X1226Y304D02*
X1267Y304D01*
X1326Y304D02*
X1367Y304D01*
X127Y303D02*
X166Y303D01*
X227Y303D02*
X266Y303D01*
X327Y303D02*
X366Y303D01*
X427Y303D02*
X466Y303D01*
X527Y303D02*
X566Y303D01*
X627Y303D02*
X666Y303D01*
X727Y303D02*
X766Y303D01*
X827Y303D02*
X866Y303D01*
X927Y303D02*
X966Y303D01*
X1027Y303D02*
X1066Y303D01*
X1127Y303D02*
X1166Y303D01*
X1227Y303D02*
X1266Y303D01*
X1327Y303D02*
X1366Y303D01*
X129Y302D02*
X164Y302D01*
X229Y302D02*
X264Y302D01*
X329Y302D02*
X364Y302D01*
X429Y302D02*
X464Y302D01*
X529Y302D02*
X564Y302D01*
X629Y302D02*
X664Y302D01*
X729Y302D02*
X764Y302D01*
X829Y302D02*
X864Y302D01*
X929Y302D02*
X964Y302D01*
X1029Y302D02*
X1064Y302D01*
X1129Y302D02*
X1164Y302D01*
X1229Y302D02*
X1264Y302D01*
X1329Y302D02*
X1364Y302D01*
X130Y301D02*
X163Y301D01*
X230Y301D02*
X263Y301D01*
X330Y301D02*
X363Y301D01*
X430Y301D02*
X463Y301D01*
X530Y301D02*
X563Y301D01*
X630Y301D02*
X663Y301D01*
X730Y301D02*
X763Y301D01*
X830Y301D02*
X863Y301D01*
X930Y301D02*
X963Y301D01*
X1030Y301D02*
X1063Y301D01*
X1130Y301D02*
X1163Y301D01*
X1230Y301D02*
X1263Y301D01*
X1330Y301D02*
X1363Y301D01*
X132Y300D02*
X161Y300D01*
X232Y300D02*
X261Y300D01*
X332Y300D02*
X361Y300D01*
X432Y300D02*
X461Y300D01*
X532Y300D02*
X561Y300D01*
X632Y300D02*
X661Y300D01*
X732Y300D02*
X761Y300D01*
X832Y300D02*
X861Y300D01*
X932Y300D02*
X961Y300D01*
X1032Y300D02*
X1061Y300D01*
X1132Y300D02*
X1161Y300D01*
X1232Y300D02*
X1261Y300D01*
X1332Y300D02*
X1361Y300D01*
X134Y299D02*
X159Y299D01*
X234Y299D02*
X259Y299D01*
X334Y299D02*
X359Y299D01*
X434Y299D02*
X459Y299D01*
X534Y299D02*
X559Y299D01*
X634Y299D02*
X659Y299D01*
X734Y299D02*
X759Y299D01*
X834Y299D02*
X859Y299D01*
X934Y299D02*
X959Y299D01*
X1034Y299D02*
X1059Y299D01*
X1134Y299D02*
X1159Y299D01*
X1234Y299D02*
X1259Y299D01*
X1334Y299D02*
X1359Y299D01*
X137Y298D02*
X156Y298D01*
X237Y298D02*
X256Y298D01*
X337Y298D02*
X356Y298D01*
X437Y298D02*
X456Y298D01*
X537Y298D02*
X556Y298D01*
X637Y298D02*
X656Y298D01*
X737Y298D02*
X756Y298D01*
X837Y298D02*
X856Y298D01*
X937Y298D02*
X956Y298D01*
X1037Y298D02*
X1056Y298D01*
X1137Y298D02*
X1156Y298D01*
X1237Y298D02*
X1256Y298D01*
X1337Y298D02*
X1356Y298D01*
X140Y297D02*
X153Y297D01*
X240Y297D02*
X253Y297D01*
X340Y297D02*
X353Y297D01*
X440Y297D02*
X453Y297D01*
X540Y297D02*
X553Y297D01*
X640Y297D02*
X653Y297D01*
X740Y297D02*
X753Y297D01*
X840Y297D02*
X853Y297D01*
X940Y297D02*
X953Y297D01*
X1040Y297D02*
X1053Y297D01*
X1140Y297D02*
X1153Y297D01*
X1240Y297D02*
X1253Y297D01*
X1340Y297D02*
X1353Y297D01*
X144Y266D02*
X149Y266D01*
X244Y266D02*
X249Y266D01*
X344Y266D02*
X349Y266D01*
X444Y266D02*
X449Y266D01*
X544Y266D02*
X549Y266D01*
X644Y266D02*
X649Y266D01*
X744Y266D02*
X749Y266D01*
X844Y266D02*
X849Y266D01*
X944Y266D02*
X949Y266D01*
X1044Y266D02*
X1049Y266D01*
X1144Y266D02*
X1149Y266D01*
X1244Y266D02*
X1249Y266D01*
X1344Y266D02*
X1349Y266D01*
X139Y265D02*
X154Y265D01*
X239Y265D02*
X254Y265D01*
X339Y265D02*
X354Y265D01*
X439Y265D02*
X454Y265D01*
X539Y265D02*
X554Y265D01*
X639Y265D02*
X654Y265D01*
X739Y265D02*
X754Y265D01*
X839Y265D02*
X854Y265D01*
X939Y265D02*
X954Y265D01*
X1039Y265D02*
X1054Y265D01*
X1139Y265D02*
X1154Y265D01*
X1239Y265D02*
X1254Y265D01*
X1339Y265D02*
X1354Y265D01*
X136Y264D02*
X157Y264D01*
X236Y264D02*
X257Y264D01*
X336Y264D02*
X357Y264D01*
X436Y264D02*
X457Y264D01*
X536Y264D02*
X557Y264D01*
X636Y264D02*
X657Y264D01*
X736Y264D02*
X757Y264D01*
X836Y264D02*
X857Y264D01*
X936Y264D02*
X957Y264D01*
X1036Y264D02*
X1057Y264D01*
X1136Y264D02*
X1157Y264D01*
X1236Y264D02*
X1257Y264D01*
X1336Y264D02*
X1357Y264D01*
X134Y263D02*
X160Y263D01*
X234Y263D02*
X260Y263D01*
X334Y263D02*
X360Y263D01*
X434Y263D02*
X460Y263D01*
X534Y263D02*
X560Y263D01*
X634Y263D02*
X660Y263D01*
X733Y263D02*
X760Y263D01*
X833Y263D02*
X860Y263D01*
X933Y263D02*
X960Y263D01*
X1033Y263D02*
X1059Y263D01*
X1133Y263D02*
X1159Y263D01*
X1233Y263D02*
X1259Y263D01*
X1333Y263D02*
X1359Y263D01*
X132Y262D02*
X162Y262D01*
X232Y262D02*
X262Y262D01*
X332Y262D02*
X362Y262D01*
X432Y262D02*
X462Y262D01*
X532Y262D02*
X562Y262D01*
X632Y262D02*
X661Y262D01*
X732Y262D02*
X761Y262D01*
X832Y262D02*
X861Y262D01*
X932Y262D02*
X961Y262D01*
X1032Y262D02*
X1061Y262D01*
X1132Y262D02*
X1161Y262D01*
X1231Y262D02*
X1261Y262D01*
X1331Y262D02*
X1361Y262D01*
X130Y261D02*
X163Y261D01*
X230Y261D02*
X263Y261D01*
X330Y261D02*
X363Y261D01*
X430Y261D02*
X463Y261D01*
X530Y261D02*
X563Y261D01*
X630Y261D02*
X663Y261D01*
X730Y261D02*
X763Y261D01*
X830Y261D02*
X863Y261D01*
X930Y261D02*
X963Y261D01*
X1030Y261D02*
X1063Y261D01*
X1130Y261D02*
X1163Y261D01*
X1230Y261D02*
X1263Y261D01*
X1330Y261D02*
X1363Y261D01*
X128Y260D02*
X165Y260D01*
X228Y260D02*
X265Y260D01*
X328Y260D02*
X365Y260D01*
X428Y260D02*
X465Y260D01*
X528Y260D02*
X565Y260D01*
X628Y260D02*
X665Y260D01*
X728Y260D02*
X765Y260D01*
X828Y260D02*
X865Y260D01*
X928Y260D02*
X965Y260D01*
X1028Y260D02*
X1065Y260D01*
X1128Y260D02*
X1165Y260D01*
X1228Y260D02*
X1265Y260D01*
X1328Y260D02*
X1365Y260D01*
X127Y259D02*
X166Y259D01*
X227Y259D02*
X266Y259D01*
X327Y259D02*
X366Y259D01*
X427Y259D02*
X466Y259D01*
X527Y259D02*
X566Y259D01*
X627Y259D02*
X666Y259D01*
X727Y259D02*
X766Y259D01*
X827Y259D02*
X866Y259D01*
X927Y259D02*
X966Y259D01*
X1027Y259D02*
X1066Y259D01*
X1127Y259D02*
X1166Y259D01*
X1227Y259D02*
X1266Y259D01*
X1327Y259D02*
X1366Y259D01*
X126Y258D02*
X167Y258D01*
X226Y258D02*
X267Y258D01*
X326Y258D02*
X367Y258D01*
X426Y258D02*
X467Y258D01*
X526Y258D02*
X567Y258D01*
X626Y258D02*
X667Y258D01*
X726Y258D02*
X767Y258D01*
X826Y258D02*
X867Y258D01*
X926Y258D02*
X967Y258D01*
X1026Y258D02*
X1067Y258D01*
X1126Y258D02*
X1167Y258D01*
X1226Y258D02*
X1267Y258D01*
X1326Y258D02*
X1367Y258D01*
X125Y257D02*
X169Y257D01*
X225Y257D02*
X269Y257D01*
X325Y257D02*
X369Y257D01*
X425Y257D02*
X469Y257D01*
X524Y257D02*
X569Y257D01*
X624Y257D02*
X669Y257D01*
X724Y257D02*
X769Y257D01*
X824Y257D02*
X869Y257D01*
X924Y257D02*
X969Y257D01*
X1024Y257D02*
X1069Y257D01*
X1124Y257D02*
X1169Y257D01*
X1224Y257D02*
X1268Y257D01*
X1324Y257D02*
X1368Y257D01*
X123Y256D02*
X170Y256D01*
X223Y256D02*
X270Y256D01*
X323Y256D02*
X370Y256D01*
X423Y256D02*
X470Y256D01*
X523Y256D02*
X570Y256D01*
X623Y256D02*
X670Y256D01*
X723Y256D02*
X770Y256D01*
X823Y256D02*
X870Y256D01*
X923Y256D02*
X970Y256D01*
X1023Y256D02*
X1070Y256D01*
X1123Y256D02*
X1170Y256D01*
X1223Y256D02*
X1270Y256D01*
X1323Y256D02*
X1370Y256D01*
X122Y255D02*
X171Y255D01*
X222Y255D02*
X271Y255D01*
X322Y255D02*
X371Y255D01*
X422Y255D02*
X471Y255D01*
X522Y255D02*
X571Y255D01*
X622Y255D02*
X671Y255D01*
X722Y255D02*
X771Y255D01*
X822Y255D02*
X871Y255D01*
X922Y255D02*
X971Y255D01*
X1022Y255D02*
X1071Y255D01*
X1122Y255D02*
X1171Y255D01*
X1222Y255D02*
X1271Y255D01*
X1322Y255D02*
X1371Y255D01*
X122Y254D02*
X172Y254D01*
X221Y254D02*
X272Y254D01*
X321Y254D02*
X372Y254D01*
X421Y254D02*
X472Y254D01*
X521Y254D02*
X572Y254D01*
X621Y254D02*
X672Y254D01*
X721Y254D02*
X772Y254D01*
X821Y254D02*
X872Y254D01*
X921Y254D02*
X972Y254D01*
X1021Y254D02*
X1072Y254D01*
X1121Y254D02*
X1172Y254D01*
X1221Y254D02*
X1272Y254D01*
X1321Y254D02*
X1372Y254D01*
X121Y253D02*
X172Y253D01*
X221Y253D02*
X272Y253D01*
X321Y253D02*
X372Y253D01*
X421Y253D02*
X472Y253D01*
X521Y253D02*
X572Y253D01*
X621Y253D02*
X672Y253D01*
X721Y253D02*
X772Y253D01*
X821Y253D02*
X872Y253D01*
X921Y253D02*
X972Y253D01*
X1021Y253D02*
X1072Y253D01*
X1121Y253D02*
X1172Y253D01*
X1221Y253D02*
X1272Y253D01*
X1321Y253D02*
X1372Y253D01*
X120Y252D02*
X173Y252D01*
X220Y252D02*
X273Y252D01*
X320Y252D02*
X373Y252D01*
X420Y252D02*
X473Y252D01*
X520Y252D02*
X573Y252D01*
X620Y252D02*
X673Y252D01*
X720Y252D02*
X773Y252D01*
X820Y252D02*
X873Y252D01*
X920Y252D02*
X973Y252D01*
X1020Y252D02*
X1073Y252D01*
X1120Y252D02*
X1173Y252D01*
X1220Y252D02*
X1273Y252D01*
X1320Y252D02*
X1373Y252D01*
X119Y251D02*
X174Y251D01*
X219Y251D02*
X274Y251D01*
X319Y251D02*
X374Y251D01*
X419Y251D02*
X474Y251D01*
X519Y251D02*
X574Y251D01*
X619Y251D02*
X674Y251D01*
X719Y251D02*
X774Y251D01*
X819Y251D02*
X874Y251D01*
X919Y251D02*
X974Y251D01*
X1019Y251D02*
X1074Y251D01*
X1119Y251D02*
X1174Y251D01*
X1219Y251D02*
X1274Y251D01*
X1319Y251D02*
X1374Y251D01*
X118Y250D02*
X175Y250D01*
X218Y250D02*
X275Y250D01*
X318Y250D02*
X375Y250D01*
X418Y250D02*
X475Y250D01*
X518Y250D02*
X575Y250D01*
X618Y250D02*
X675Y250D01*
X718Y250D02*
X775Y250D01*
X818Y250D02*
X875Y250D01*
X918Y250D02*
X975Y250D01*
X1018Y250D02*
X1075Y250D01*
X1118Y250D02*
X1175Y250D01*
X1218Y250D02*
X1275Y250D01*
X1318Y250D02*
X1375Y250D01*
X118Y249D02*
X175Y249D01*
X218Y249D02*
X275Y249D01*
X318Y249D02*
X375Y249D01*
X418Y249D02*
X475Y249D01*
X518Y249D02*
X575Y249D01*
X618Y249D02*
X675Y249D01*
X718Y249D02*
X775Y249D01*
X818Y249D02*
X875Y249D01*
X918Y249D02*
X975Y249D01*
X1018Y249D02*
X1075Y249D01*
X1118Y249D02*
X1175Y249D01*
X1218Y249D02*
X1275Y249D01*
X1318Y249D02*
X1375Y249D01*
X117Y248D02*
X176Y248D01*
X217Y248D02*
X276Y248D01*
X317Y248D02*
X376Y248D01*
X417Y248D02*
X476Y248D01*
X517Y248D02*
X576Y248D01*
X617Y248D02*
X676Y248D01*
X717Y248D02*
X776Y248D01*
X817Y248D02*
X876Y248D01*
X917Y248D02*
X976Y248D01*
X1017Y248D02*
X1076Y248D01*
X1117Y248D02*
X1176Y248D01*
X1217Y248D02*
X1276Y248D01*
X1317Y248D02*
X1376Y248D01*
X116Y247D02*
X177Y247D01*
X216Y247D02*
X277Y247D01*
X316Y247D02*
X377Y247D01*
X416Y247D02*
X477Y247D01*
X516Y247D02*
X577Y247D01*
X616Y247D02*
X677Y247D01*
X716Y247D02*
X777Y247D01*
X816Y247D02*
X877Y247D01*
X916Y247D02*
X977Y247D01*
X1016Y247D02*
X1077Y247D01*
X1116Y247D02*
X1177Y247D01*
X1216Y247D02*
X1277Y247D01*
X1316Y247D02*
X1377Y247D01*
X116Y246D02*
X143Y246D01*
X150Y246D02*
X177Y246D01*
X216Y246D02*
X243Y246D01*
X250Y246D02*
X277Y246D01*
X316Y246D02*
X343Y246D01*
X350Y246D02*
X377Y246D01*
X416Y246D02*
X443Y246D01*
X450Y246D02*
X477Y246D01*
X516Y246D02*
X543Y246D01*
X550Y246D02*
X577Y246D01*
X616Y246D02*
X643Y246D01*
X650Y246D02*
X677Y246D01*
X716Y246D02*
X743Y246D01*
X750Y246D02*
X777Y246D01*
X816Y246D02*
X843Y246D01*
X850Y246D02*
X877Y246D01*
X916Y246D02*
X943Y246D01*
X950Y246D02*
X977Y246D01*
X1016Y246D02*
X1043Y246D01*
X1050Y246D02*
X1077Y246D01*
X1116Y246D02*
X1143Y246D01*
X1150Y246D02*
X1177Y246D01*
X1216Y246D02*
X1243Y246D01*
X1250Y246D02*
X1277Y246D01*
X1316Y246D02*
X1343Y246D01*
X1350Y246D02*
X1377Y246D01*
X115Y245D02*
X139Y245D01*
X154Y245D02*
X178Y245D01*
X215Y245D02*
X239Y245D01*
X254Y245D02*
X278Y245D01*
X315Y245D02*
X339Y245D01*
X354Y245D02*
X378Y245D01*
X415Y245D02*
X439Y245D01*
X454Y245D02*
X478Y245D01*
X515Y245D02*
X539Y245D01*
X554Y245D02*
X578Y245D01*
X615Y245D02*
X639Y245D01*
X654Y245D02*
X678Y245D01*
X715Y245D02*
X739Y245D01*
X754Y245D02*
X778Y245D01*
X815Y245D02*
X839Y245D01*
X854Y245D02*
X878Y245D01*
X915Y245D02*
X939Y245D01*
X954Y245D02*
X978Y245D01*
X1015Y245D02*
X1039Y245D01*
X1054Y245D02*
X1078Y245D01*
X1115Y245D02*
X1139Y245D01*
X1154Y245D02*
X1178Y245D01*
X1215Y245D02*
X1239Y245D01*
X1254Y245D02*
X1278Y245D01*
X1315Y245D02*
X1339Y245D01*
X1354Y245D02*
X1378Y245D01*
X115Y244D02*
X137Y244D01*
X156Y244D02*
X178Y244D01*
X215Y244D02*
X237Y244D01*
X256Y244D02*
X278Y244D01*
X315Y244D02*
X337Y244D01*
X356Y244D02*
X378Y244D01*
X415Y244D02*
X437Y244D01*
X456Y244D02*
X478Y244D01*
X515Y244D02*
X537Y244D01*
X556Y244D02*
X578Y244D01*
X615Y244D02*
X637Y244D01*
X656Y244D02*
X678Y244D01*
X715Y244D02*
X737Y244D01*
X756Y244D02*
X778Y244D01*
X815Y244D02*
X837Y244D01*
X856Y244D02*
X878Y244D01*
X915Y244D02*
X937Y244D01*
X956Y244D02*
X978Y244D01*
X1015Y244D02*
X1037Y244D01*
X1056Y244D02*
X1078Y244D01*
X1115Y244D02*
X1137Y244D01*
X1156Y244D02*
X1178Y244D01*
X1215Y244D02*
X1237Y244D01*
X1256Y244D02*
X1278Y244D01*
X1315Y244D02*
X1337Y244D01*
X1356Y244D02*
X1378Y244D01*
X114Y243D02*
X136Y243D01*
X157Y243D02*
X179Y243D01*
X214Y243D02*
X236Y243D01*
X257Y243D02*
X279Y243D01*
X314Y243D02*
X336Y243D01*
X357Y243D02*
X379Y243D01*
X414Y243D02*
X436Y243D01*
X457Y243D02*
X479Y243D01*
X514Y243D02*
X536Y243D01*
X557Y243D02*
X579Y243D01*
X614Y243D02*
X636Y243D01*
X657Y243D02*
X679Y243D01*
X714Y243D02*
X736Y243D01*
X757Y243D02*
X779Y243D01*
X814Y243D02*
X836Y243D01*
X857Y243D02*
X879Y243D01*
X914Y243D02*
X936Y243D01*
X957Y243D02*
X979Y243D01*
X1014Y243D02*
X1036Y243D01*
X1057Y243D02*
X1079Y243D01*
X1114Y243D02*
X1136Y243D01*
X1157Y243D02*
X1179Y243D01*
X1214Y243D02*
X1236Y243D01*
X1257Y243D02*
X1279Y243D01*
X1314Y243D02*
X1336Y243D01*
X1357Y243D02*
X1379Y243D01*
X114Y242D02*
X135Y242D01*
X158Y242D02*
X179Y242D01*
X214Y242D02*
X235Y242D01*
X258Y242D02*
X279Y242D01*
X314Y242D02*
X335Y242D01*
X358Y242D02*
X379Y242D01*
X414Y242D02*
X435Y242D01*
X458Y242D02*
X479Y242D01*
X514Y242D02*
X535Y242D01*
X558Y242D02*
X579Y242D01*
X614Y242D02*
X635Y242D01*
X658Y242D02*
X679Y242D01*
X714Y242D02*
X735Y242D01*
X758Y242D02*
X779Y242D01*
X814Y242D02*
X835Y242D01*
X858Y242D02*
X879Y242D01*
X914Y242D02*
X935Y242D01*
X958Y242D02*
X979Y242D01*
X1014Y242D02*
X1035Y242D01*
X1058Y242D02*
X1079Y242D01*
X1114Y242D02*
X1135Y242D01*
X1158Y242D02*
X1179Y242D01*
X1214Y242D02*
X1235Y242D01*
X1258Y242D02*
X1279Y242D01*
X1314Y242D02*
X1335Y242D01*
X1358Y242D02*
X1379Y242D01*
X114Y241D02*
X134Y241D01*
X159Y241D02*
X179Y241D01*
X214Y241D02*
X234Y241D01*
X259Y241D02*
X279Y241D01*
X314Y241D02*
X334Y241D01*
X359Y241D02*
X379Y241D01*
X414Y241D02*
X434Y241D01*
X459Y241D02*
X479Y241D01*
X514Y241D02*
X534Y241D01*
X559Y241D02*
X579Y241D01*
X614Y241D02*
X634Y241D01*
X659Y241D02*
X679Y241D01*
X714Y241D02*
X734Y241D01*
X759Y241D02*
X779Y241D01*
X814Y241D02*
X834Y241D01*
X859Y241D02*
X879Y241D01*
X914Y241D02*
X934Y241D01*
X959Y241D02*
X979Y241D01*
X1014Y241D02*
X1034Y241D01*
X1059Y241D02*
X1079Y241D01*
X1114Y241D02*
X1134Y241D01*
X1159Y241D02*
X1179Y241D01*
X1214Y241D02*
X1234Y241D01*
X1259Y241D02*
X1279Y241D01*
X1314Y241D02*
X1334Y241D01*
X1359Y241D02*
X1379Y241D01*
X113Y240D02*
X133Y240D01*
X160Y240D02*
X180Y240D01*
X213Y240D02*
X233Y240D01*
X260Y240D02*
X280Y240D01*
X313Y240D02*
X333Y240D01*
X360Y240D02*
X380Y240D01*
X413Y240D02*
X433Y240D01*
X460Y240D02*
X480Y240D01*
X513Y240D02*
X533Y240D01*
X560Y240D02*
X580Y240D01*
X613Y240D02*
X633Y240D01*
X660Y240D02*
X680Y240D01*
X713Y240D02*
X733Y240D01*
X760Y240D02*
X780Y240D01*
X813Y240D02*
X833Y240D01*
X860Y240D02*
X880Y240D01*
X913Y240D02*
X933Y240D01*
X960Y240D02*
X980Y240D01*
X1013Y240D02*
X1033Y240D01*
X1060Y240D02*
X1080Y240D01*
X1113Y240D02*
X1133Y240D01*
X1160Y240D02*
X1180Y240D01*
X1213Y240D02*
X1233Y240D01*
X1260Y240D02*
X1280Y240D01*
X1313Y240D02*
X1333Y240D01*
X1360Y240D02*
X1380Y240D01*
X113Y239D02*
X133Y239D01*
X160Y239D02*
X180Y239D01*
X213Y239D02*
X233Y239D01*
X260Y239D02*
X280Y239D01*
X313Y239D02*
X333Y239D01*
X360Y239D02*
X380Y239D01*
X413Y239D02*
X433Y239D01*
X460Y239D02*
X480Y239D01*
X513Y239D02*
X533Y239D01*
X560Y239D02*
X580Y239D01*
X613Y239D02*
X633Y239D01*
X660Y239D02*
X680Y239D01*
X713Y239D02*
X733Y239D01*
X760Y239D02*
X780Y239D01*
X813Y239D02*
X833Y239D01*
X860Y239D02*
X880Y239D01*
X913Y239D02*
X933Y239D01*
X960Y239D02*
X980Y239D01*
X1013Y239D02*
X1033Y239D01*
X1060Y239D02*
X1080Y239D01*
X1113Y239D02*
X1133Y239D01*
X1160Y239D02*
X1180Y239D01*
X1213Y239D02*
X1233Y239D01*
X1260Y239D02*
X1280Y239D01*
X1313Y239D02*
X1333Y239D01*
X1360Y239D02*
X1380Y239D01*
X113Y238D02*
X132Y238D01*
X161Y238D02*
X180Y238D01*
X213Y238D02*
X232Y238D01*
X261Y238D02*
X280Y238D01*
X313Y238D02*
X332Y238D01*
X361Y238D02*
X380Y238D01*
X413Y238D02*
X432Y238D01*
X461Y238D02*
X480Y238D01*
X513Y238D02*
X532Y238D01*
X561Y238D02*
X580Y238D01*
X613Y238D02*
X632Y238D01*
X661Y238D02*
X680Y238D01*
X713Y238D02*
X732Y238D01*
X761Y238D02*
X780Y238D01*
X813Y238D02*
X832Y238D01*
X861Y238D02*
X880Y238D01*
X913Y238D02*
X932Y238D01*
X961Y238D02*
X980Y238D01*
X1013Y238D02*
X1032Y238D01*
X1061Y238D02*
X1080Y238D01*
X1113Y238D02*
X1132Y238D01*
X1161Y238D02*
X1180Y238D01*
X1213Y238D02*
X1232Y238D01*
X1261Y238D02*
X1280Y238D01*
X1313Y238D02*
X1332Y238D01*
X1361Y238D02*
X1380Y238D01*
X113Y237D02*
X132Y237D01*
X161Y237D02*
X180Y237D01*
X213Y237D02*
X232Y237D01*
X261Y237D02*
X280Y237D01*
X313Y237D02*
X332Y237D01*
X361Y237D02*
X380Y237D01*
X413Y237D02*
X432Y237D01*
X461Y237D02*
X480Y237D01*
X513Y237D02*
X532Y237D01*
X561Y237D02*
X580Y237D01*
X613Y237D02*
X632Y237D01*
X661Y237D02*
X680Y237D01*
X713Y237D02*
X732Y237D01*
X761Y237D02*
X780Y237D01*
X813Y237D02*
X832Y237D01*
X861Y237D02*
X880Y237D01*
X913Y237D02*
X932Y237D01*
X961Y237D02*
X980Y237D01*
X1013Y237D02*
X1032Y237D01*
X1061Y237D02*
X1080Y237D01*
X1113Y237D02*
X1132Y237D01*
X1161Y237D02*
X1180Y237D01*
X1213Y237D02*
X1232Y237D01*
X1261Y237D02*
X1280Y237D01*
X1313Y237D02*
X1332Y237D01*
X1361Y237D02*
X1380Y237D01*
X112Y236D02*
X132Y236D01*
X162Y236D02*
X181Y236D01*
X212Y236D02*
X232Y236D01*
X262Y236D02*
X281Y236D01*
X312Y236D02*
X332Y236D01*
X362Y236D02*
X381Y236D01*
X412Y236D02*
X432Y236D01*
X462Y236D02*
X481Y236D01*
X512Y236D02*
X532Y236D01*
X561Y236D02*
X581Y236D01*
X612Y236D02*
X632Y236D01*
X661Y236D02*
X681Y236D01*
X712Y236D02*
X732Y236D01*
X761Y236D02*
X781Y236D01*
X812Y236D02*
X832Y236D01*
X861Y236D02*
X881Y236D01*
X912Y236D02*
X932Y236D01*
X961Y236D02*
X981Y236D01*
X1012Y236D02*
X1032Y236D01*
X1061Y236D02*
X1081Y236D01*
X1112Y236D02*
X1132Y236D01*
X1161Y236D02*
X1181Y236D01*
X1212Y236D02*
X1231Y236D01*
X1261Y236D02*
X1281Y236D01*
X1312Y236D02*
X1331Y236D01*
X1361Y236D02*
X1381Y236D01*
X112Y235D02*
X131Y235D01*
X162Y235D02*
X181Y235D01*
X212Y235D02*
X231Y235D01*
X262Y235D02*
X281Y235D01*
X312Y235D02*
X331Y235D01*
X362Y235D02*
X381Y235D01*
X412Y235D02*
X431Y235D01*
X462Y235D02*
X481Y235D01*
X512Y235D02*
X531Y235D01*
X562Y235D02*
X581Y235D01*
X612Y235D02*
X631Y235D01*
X662Y235D02*
X681Y235D01*
X712Y235D02*
X731Y235D01*
X762Y235D02*
X781Y235D01*
X812Y235D02*
X831Y235D01*
X862Y235D02*
X881Y235D01*
X912Y235D02*
X931Y235D01*
X962Y235D02*
X981Y235D01*
X1012Y235D02*
X1031Y235D01*
X1062Y235D02*
X1081Y235D01*
X1112Y235D02*
X1131Y235D01*
X1162Y235D02*
X1181Y235D01*
X1212Y235D02*
X1231Y235D01*
X1262Y235D02*
X1281Y235D01*
X1312Y235D02*
X1331Y235D01*
X1362Y235D02*
X1381Y235D01*
X112Y234D02*
X131Y234D01*
X162Y234D02*
X181Y234D01*
X212Y234D02*
X231Y234D01*
X262Y234D02*
X281Y234D01*
X312Y234D02*
X331Y234D01*
X362Y234D02*
X381Y234D01*
X412Y234D02*
X431Y234D01*
X462Y234D02*
X481Y234D01*
X512Y234D02*
X531Y234D01*
X562Y234D02*
X581Y234D01*
X612Y234D02*
X631Y234D01*
X662Y234D02*
X681Y234D01*
X712Y234D02*
X731Y234D01*
X762Y234D02*
X781Y234D01*
X812Y234D02*
X831Y234D01*
X862Y234D02*
X881Y234D01*
X912Y234D02*
X931Y234D01*
X962Y234D02*
X981Y234D01*
X1012Y234D02*
X1031Y234D01*
X1062Y234D02*
X1081Y234D01*
X1112Y234D02*
X1131Y234D01*
X1162Y234D02*
X1181Y234D01*
X1212Y234D02*
X1231Y234D01*
X1262Y234D02*
X1281Y234D01*
X1312Y234D02*
X1331Y234D01*
X1362Y234D02*
X1381Y234D01*
X112Y233D02*
X131Y233D01*
X162Y233D02*
X181Y233D01*
X212Y233D02*
X231Y233D01*
X262Y233D02*
X281Y233D01*
X312Y233D02*
X331Y233D01*
X362Y233D02*
X381Y233D01*
X412Y233D02*
X431Y233D01*
X462Y233D02*
X481Y233D01*
X512Y233D02*
X531Y233D01*
X562Y233D02*
X581Y233D01*
X612Y233D02*
X631Y233D01*
X662Y233D02*
X681Y233D01*
X712Y233D02*
X731Y233D01*
X762Y233D02*
X781Y233D01*
X812Y233D02*
X831Y233D01*
X862Y233D02*
X881Y233D01*
X912Y233D02*
X931Y233D01*
X962Y233D02*
X981Y233D01*
X1012Y233D02*
X1031Y233D01*
X1062Y233D02*
X1081Y233D01*
X1112Y233D02*
X1131Y233D01*
X1162Y233D02*
X1181Y233D01*
X1212Y233D02*
X1231Y233D01*
X1262Y233D02*
X1281Y233D01*
X1312Y233D02*
X1331Y233D01*
X1362Y233D02*
X1381Y233D01*
X112Y232D02*
X131Y232D01*
X162Y232D02*
X181Y232D01*
X212Y232D02*
X231Y232D01*
X262Y232D02*
X281Y232D01*
X312Y232D02*
X331Y232D01*
X362Y232D02*
X381Y232D01*
X412Y232D02*
X431Y232D01*
X462Y232D02*
X481Y232D01*
X512Y232D02*
X531Y232D01*
X562Y232D02*
X581Y232D01*
X612Y232D02*
X631Y232D01*
X662Y232D02*
X681Y232D01*
X712Y232D02*
X731Y232D01*
X762Y232D02*
X781Y232D01*
X812Y232D02*
X831Y232D01*
X862Y232D02*
X881Y232D01*
X912Y232D02*
X931Y232D01*
X962Y232D02*
X981Y232D01*
X1012Y232D02*
X1031Y232D01*
X1062Y232D02*
X1081Y232D01*
X1112Y232D02*
X1131Y232D01*
X1162Y232D02*
X1181Y232D01*
X1212Y232D02*
X1231Y232D01*
X1262Y232D02*
X1281Y232D01*
X1312Y232D02*
X1331Y232D01*
X1362Y232D02*
X1381Y232D01*
X112Y231D02*
X131Y231D01*
X162Y231D02*
X181Y231D01*
X212Y231D02*
X231Y231D01*
X262Y231D02*
X281Y231D01*
X312Y231D02*
X331Y231D01*
X362Y231D02*
X381Y231D01*
X412Y231D02*
X431Y231D01*
X462Y231D02*
X481Y231D01*
X512Y231D02*
X531Y231D01*
X562Y231D02*
X581Y231D01*
X612Y231D02*
X631Y231D01*
X662Y231D02*
X681Y231D01*
X712Y231D02*
X731Y231D01*
X762Y231D02*
X781Y231D01*
X812Y231D02*
X831Y231D01*
X862Y231D02*
X881Y231D01*
X912Y231D02*
X931Y231D01*
X962Y231D02*
X981Y231D01*
X1012Y231D02*
X1031Y231D01*
X1062Y231D02*
X1081Y231D01*
X1112Y231D02*
X1131Y231D01*
X1162Y231D02*
X1181Y231D01*
X1212Y231D02*
X1231Y231D01*
X1262Y231D02*
X1281Y231D01*
X1312Y231D02*
X1331Y231D01*
X1362Y231D02*
X1381Y231D01*
X112Y230D02*
X131Y230D01*
X162Y230D02*
X181Y230D01*
X212Y230D02*
X231Y230D01*
X262Y230D02*
X281Y230D01*
X312Y230D02*
X331Y230D01*
X362Y230D02*
X381Y230D01*
X412Y230D02*
X431Y230D01*
X462Y230D02*
X481Y230D01*
X512Y230D02*
X531Y230D01*
X562Y230D02*
X581Y230D01*
X612Y230D02*
X631Y230D01*
X662Y230D02*
X681Y230D01*
X712Y230D02*
X731Y230D01*
X762Y230D02*
X781Y230D01*
X812Y230D02*
X831Y230D01*
X862Y230D02*
X881Y230D01*
X912Y230D02*
X931Y230D01*
X962Y230D02*
X981Y230D01*
X1012Y230D02*
X1031Y230D01*
X1062Y230D02*
X1081Y230D01*
X1112Y230D02*
X1131Y230D01*
X1162Y230D02*
X1181Y230D01*
X1212Y230D02*
X1231Y230D01*
X1262Y230D02*
X1281Y230D01*
X1312Y230D02*
X1331Y230D01*
X1362Y230D02*
X1381Y230D01*
X112Y229D02*
X131Y229D01*
X162Y229D02*
X181Y229D01*
X212Y229D02*
X231Y229D01*
X262Y229D02*
X281Y229D01*
X312Y229D02*
X331Y229D01*
X362Y229D02*
X381Y229D01*
X412Y229D02*
X431Y229D01*
X462Y229D02*
X481Y229D01*
X512Y229D02*
X531Y229D01*
X562Y229D02*
X581Y229D01*
X612Y229D02*
X631Y229D01*
X662Y229D02*
X681Y229D01*
X712Y229D02*
X731Y229D01*
X762Y229D02*
X781Y229D01*
X812Y229D02*
X831Y229D01*
X862Y229D02*
X881Y229D01*
X912Y229D02*
X931Y229D01*
X962Y229D02*
X981Y229D01*
X1012Y229D02*
X1031Y229D01*
X1062Y229D02*
X1081Y229D01*
X1112Y229D02*
X1131Y229D01*
X1162Y229D02*
X1181Y229D01*
X1212Y229D02*
X1231Y229D01*
X1262Y229D02*
X1281Y229D01*
X1312Y229D02*
X1331Y229D01*
X1362Y229D02*
X1381Y229D01*
X112Y228D02*
X131Y228D01*
X162Y228D02*
X181Y228D01*
X212Y228D02*
X231Y228D01*
X262Y228D02*
X281Y228D01*
X312Y228D02*
X331Y228D01*
X362Y228D02*
X381Y228D01*
X412Y228D02*
X431Y228D01*
X462Y228D02*
X481Y228D01*
X512Y228D02*
X531Y228D01*
X562Y228D02*
X581Y228D01*
X612Y228D02*
X631Y228D01*
X662Y228D02*
X681Y228D01*
X712Y228D02*
X731Y228D01*
X762Y228D02*
X781Y228D01*
X812Y228D02*
X831Y228D01*
X862Y228D02*
X881Y228D01*
X912Y228D02*
X931Y228D01*
X962Y228D02*
X981Y228D01*
X1012Y228D02*
X1031Y228D01*
X1062Y228D02*
X1081Y228D01*
X1112Y228D02*
X1131Y228D01*
X1162Y228D02*
X1181Y228D01*
X1212Y228D02*
X1231Y228D01*
X1262Y228D02*
X1281Y228D01*
X1312Y228D02*
X1331Y228D01*
X1362Y228D02*
X1381Y228D01*
X112Y227D02*
X131Y227D01*
X162Y227D02*
X181Y227D01*
X212Y227D02*
X231Y227D01*
X262Y227D02*
X281Y227D01*
X312Y227D02*
X331Y227D01*
X362Y227D02*
X381Y227D01*
X412Y227D02*
X431Y227D01*
X462Y227D02*
X481Y227D01*
X512Y227D02*
X531Y227D01*
X562Y227D02*
X581Y227D01*
X612Y227D02*
X631Y227D01*
X662Y227D02*
X681Y227D01*
X712Y227D02*
X731Y227D01*
X762Y227D02*
X781Y227D01*
X812Y227D02*
X831Y227D01*
X862Y227D02*
X881Y227D01*
X912Y227D02*
X931Y227D01*
X962Y227D02*
X981Y227D01*
X1012Y227D02*
X1031Y227D01*
X1062Y227D02*
X1081Y227D01*
X1112Y227D02*
X1131Y227D01*
X1162Y227D02*
X1181Y227D01*
X1212Y227D02*
X1231Y227D01*
X1262Y227D02*
X1281Y227D01*
X1312Y227D02*
X1331Y227D01*
X1362Y227D02*
X1381Y227D01*
X113Y226D02*
X132Y226D01*
X161Y226D02*
X181Y226D01*
X213Y226D02*
X232Y226D01*
X261Y226D02*
X281Y226D01*
X313Y226D02*
X332Y226D01*
X361Y226D02*
X381Y226D01*
X413Y226D02*
X432Y226D01*
X461Y226D02*
X481Y226D01*
X512Y226D02*
X532Y226D01*
X561Y226D02*
X581Y226D01*
X612Y226D02*
X632Y226D01*
X661Y226D02*
X681Y226D01*
X712Y226D02*
X732Y226D01*
X761Y226D02*
X781Y226D01*
X812Y226D02*
X832Y226D01*
X861Y226D02*
X881Y226D01*
X912Y226D02*
X932Y226D01*
X961Y226D02*
X981Y226D01*
X1012Y226D02*
X1032Y226D01*
X1061Y226D02*
X1081Y226D01*
X1112Y226D02*
X1132Y226D01*
X1161Y226D02*
X1181Y226D01*
X1212Y226D02*
X1232Y226D01*
X1261Y226D02*
X1280Y226D01*
X1312Y226D02*
X1332Y226D01*
X1361Y226D02*
X1380Y226D01*
X113Y225D02*
X132Y225D01*
X161Y225D02*
X180Y225D01*
X213Y225D02*
X232Y225D01*
X261Y225D02*
X280Y225D01*
X313Y225D02*
X332Y225D01*
X361Y225D02*
X380Y225D01*
X413Y225D02*
X432Y225D01*
X461Y225D02*
X480Y225D01*
X513Y225D02*
X532Y225D01*
X561Y225D02*
X580Y225D01*
X613Y225D02*
X632Y225D01*
X661Y225D02*
X680Y225D01*
X713Y225D02*
X732Y225D01*
X761Y225D02*
X780Y225D01*
X813Y225D02*
X832Y225D01*
X861Y225D02*
X880Y225D01*
X913Y225D02*
X932Y225D01*
X961Y225D02*
X980Y225D01*
X1013Y225D02*
X1032Y225D01*
X1061Y225D02*
X1080Y225D01*
X1113Y225D02*
X1132Y225D01*
X1161Y225D02*
X1180Y225D01*
X1213Y225D02*
X1232Y225D01*
X1261Y225D02*
X1280Y225D01*
X1313Y225D02*
X1332Y225D01*
X1361Y225D02*
X1380Y225D01*
X113Y224D02*
X132Y224D01*
X161Y224D02*
X180Y224D01*
X213Y224D02*
X232Y224D01*
X261Y224D02*
X280Y224D01*
X313Y224D02*
X332Y224D01*
X361Y224D02*
X380Y224D01*
X413Y224D02*
X432Y224D01*
X461Y224D02*
X480Y224D01*
X513Y224D02*
X532Y224D01*
X561Y224D02*
X580Y224D01*
X613Y224D02*
X632Y224D01*
X661Y224D02*
X680Y224D01*
X713Y224D02*
X732Y224D01*
X761Y224D02*
X780Y224D01*
X813Y224D02*
X832Y224D01*
X861Y224D02*
X880Y224D01*
X913Y224D02*
X932Y224D01*
X961Y224D02*
X980Y224D01*
X1013Y224D02*
X1032Y224D01*
X1061Y224D02*
X1080Y224D01*
X1113Y224D02*
X1132Y224D01*
X1161Y224D02*
X1180Y224D01*
X1213Y224D02*
X1232Y224D01*
X1261Y224D02*
X1280Y224D01*
X1313Y224D02*
X1332Y224D01*
X1361Y224D02*
X1380Y224D01*
X113Y223D02*
X133Y223D01*
X160Y223D02*
X180Y223D01*
X213Y223D02*
X233Y223D01*
X260Y223D02*
X280Y223D01*
X313Y223D02*
X333Y223D01*
X360Y223D02*
X380Y223D01*
X413Y223D02*
X433Y223D01*
X460Y223D02*
X480Y223D01*
X513Y223D02*
X533Y223D01*
X560Y223D02*
X580Y223D01*
X613Y223D02*
X633Y223D01*
X660Y223D02*
X680Y223D01*
X713Y223D02*
X733Y223D01*
X760Y223D02*
X780Y223D01*
X813Y223D02*
X833Y223D01*
X860Y223D02*
X880Y223D01*
X913Y223D02*
X933Y223D01*
X960Y223D02*
X980Y223D01*
X1013Y223D02*
X1033Y223D01*
X1060Y223D02*
X1080Y223D01*
X1113Y223D02*
X1133Y223D01*
X1160Y223D02*
X1180Y223D01*
X1213Y223D02*
X1233Y223D01*
X1260Y223D02*
X1280Y223D01*
X1313Y223D02*
X1333Y223D01*
X1360Y223D02*
X1380Y223D01*
X114Y222D02*
X133Y222D01*
X160Y222D02*
X180Y222D01*
X214Y222D02*
X233Y222D01*
X260Y222D02*
X280Y222D01*
X314Y222D02*
X333Y222D01*
X360Y222D02*
X380Y222D01*
X413Y222D02*
X433Y222D01*
X460Y222D02*
X480Y222D01*
X513Y222D02*
X533Y222D01*
X560Y222D02*
X580Y222D01*
X613Y222D02*
X633Y222D01*
X660Y222D02*
X680Y222D01*
X713Y222D02*
X733Y222D01*
X760Y222D02*
X780Y222D01*
X813Y222D02*
X833Y222D01*
X860Y222D02*
X880Y222D01*
X913Y222D02*
X933Y222D01*
X960Y222D02*
X980Y222D01*
X1013Y222D02*
X1033Y222D01*
X1060Y222D02*
X1080Y222D01*
X1113Y222D02*
X1133Y222D01*
X1160Y222D02*
X1180Y222D01*
X1213Y222D02*
X1233Y222D01*
X1260Y222D02*
X1280Y222D01*
X1313Y222D02*
X1333Y222D01*
X1360Y222D02*
X1379Y222D01*
X114Y221D02*
X134Y221D01*
X159Y221D02*
X179Y221D01*
X214Y221D02*
X234Y221D01*
X259Y221D02*
X279Y221D01*
X314Y221D02*
X334Y221D01*
X359Y221D02*
X379Y221D01*
X414Y221D02*
X434Y221D01*
X459Y221D02*
X479Y221D01*
X514Y221D02*
X534Y221D01*
X559Y221D02*
X579Y221D01*
X614Y221D02*
X634Y221D01*
X659Y221D02*
X679Y221D01*
X714Y221D02*
X734Y221D01*
X759Y221D02*
X779Y221D01*
X814Y221D02*
X834Y221D01*
X859Y221D02*
X879Y221D01*
X914Y221D02*
X934Y221D01*
X959Y221D02*
X979Y221D01*
X1014Y221D02*
X1034Y221D01*
X1059Y221D02*
X1079Y221D01*
X1114Y221D02*
X1134Y221D01*
X1159Y221D02*
X1179Y221D01*
X1214Y221D02*
X1234Y221D01*
X1259Y221D02*
X1279Y221D01*
X1314Y221D02*
X1334Y221D01*
X1359Y221D02*
X1379Y221D01*
X114Y220D02*
X135Y220D01*
X158Y220D02*
X179Y220D01*
X214Y220D02*
X235Y220D01*
X258Y220D02*
X279Y220D01*
X314Y220D02*
X335Y220D01*
X358Y220D02*
X379Y220D01*
X414Y220D02*
X435Y220D01*
X458Y220D02*
X479Y220D01*
X514Y220D02*
X535Y220D01*
X558Y220D02*
X579Y220D01*
X614Y220D02*
X635Y220D01*
X658Y220D02*
X679Y220D01*
X714Y220D02*
X735Y220D01*
X758Y220D02*
X779Y220D01*
X814Y220D02*
X835Y220D01*
X858Y220D02*
X879Y220D01*
X914Y220D02*
X935Y220D01*
X958Y220D02*
X979Y220D01*
X1014Y220D02*
X1035Y220D01*
X1058Y220D02*
X1079Y220D01*
X1114Y220D02*
X1135Y220D01*
X1158Y220D02*
X1179Y220D01*
X1214Y220D02*
X1235Y220D01*
X1258Y220D02*
X1279Y220D01*
X1314Y220D02*
X1335Y220D01*
X1358Y220D02*
X1379Y220D01*
X115Y219D02*
X136Y219D01*
X157Y219D02*
X178Y219D01*
X215Y219D02*
X236Y219D01*
X257Y219D02*
X278Y219D01*
X315Y219D02*
X336Y219D01*
X357Y219D02*
X378Y219D01*
X415Y219D02*
X436Y219D01*
X457Y219D02*
X478Y219D01*
X515Y219D02*
X536Y219D01*
X557Y219D02*
X578Y219D01*
X615Y219D02*
X636Y219D01*
X657Y219D02*
X678Y219D01*
X715Y219D02*
X736Y219D01*
X757Y219D02*
X778Y219D01*
X815Y219D02*
X836Y219D01*
X857Y219D02*
X878Y219D01*
X915Y219D02*
X936Y219D01*
X957Y219D02*
X978Y219D01*
X1015Y219D02*
X1036Y219D01*
X1057Y219D02*
X1078Y219D01*
X1115Y219D02*
X1136Y219D01*
X1157Y219D02*
X1178Y219D01*
X1215Y219D02*
X1236Y219D01*
X1257Y219D02*
X1278Y219D01*
X1315Y219D02*
X1336Y219D01*
X1357Y219D02*
X1378Y219D01*
X115Y218D02*
X138Y218D01*
X155Y218D02*
X178Y218D01*
X215Y218D02*
X238Y218D01*
X255Y218D02*
X278Y218D01*
X315Y218D02*
X338Y218D01*
X355Y218D02*
X378Y218D01*
X415Y218D02*
X438Y218D01*
X455Y218D02*
X478Y218D01*
X515Y218D02*
X538Y218D01*
X555Y218D02*
X578Y218D01*
X615Y218D02*
X638Y218D01*
X655Y218D02*
X678Y218D01*
X715Y218D02*
X738Y218D01*
X755Y218D02*
X778Y218D01*
X815Y218D02*
X838Y218D01*
X855Y218D02*
X878Y218D01*
X915Y218D02*
X938Y218D01*
X955Y218D02*
X978Y218D01*
X1015Y218D02*
X1038Y218D01*
X1055Y218D02*
X1078Y218D01*
X1115Y218D02*
X1138Y218D01*
X1155Y218D02*
X1178Y218D01*
X1215Y218D02*
X1238Y218D01*
X1255Y218D02*
X1278Y218D01*
X1315Y218D02*
X1338Y218D01*
X1355Y218D02*
X1378Y218D01*
X116Y217D02*
X140Y217D01*
X153Y217D02*
X178Y217D01*
X216Y217D02*
X240Y217D01*
X253Y217D02*
X278Y217D01*
X316Y217D02*
X340Y217D01*
X353Y217D02*
X378Y217D01*
X416Y217D02*
X440Y217D01*
X453Y217D02*
X478Y217D01*
X516Y217D02*
X540Y217D01*
X553Y217D02*
X578Y217D01*
X616Y217D02*
X640Y217D01*
X653Y217D02*
X678Y217D01*
X716Y217D02*
X740Y217D01*
X753Y217D02*
X778Y217D01*
X816Y217D02*
X840Y217D01*
X853Y217D02*
X878Y217D01*
X915Y217D02*
X940Y217D01*
X953Y217D02*
X978Y217D01*
X1015Y217D02*
X1040Y217D01*
X1053Y217D02*
X1077Y217D01*
X1115Y217D02*
X1140Y217D01*
X1153Y217D02*
X1177Y217D01*
X1215Y217D02*
X1240Y217D01*
X1253Y217D02*
X1277Y217D01*
X1315Y217D02*
X1340Y217D01*
X1353Y217D02*
X1377Y217D01*
X116Y216D02*
X177Y216D01*
X216Y216D02*
X277Y216D01*
X316Y216D02*
X377Y216D01*
X416Y216D02*
X477Y216D01*
X516Y216D02*
X577Y216D01*
X616Y216D02*
X677Y216D01*
X716Y216D02*
X777Y216D01*
X816Y216D02*
X877Y216D01*
X916Y216D02*
X977Y216D01*
X1016Y216D02*
X1077Y216D01*
X1116Y216D02*
X1177Y216D01*
X1216Y216D02*
X1277Y216D01*
X1316Y216D02*
X1377Y216D01*
X117Y215D02*
X176Y215D01*
X217Y215D02*
X276Y215D01*
X317Y215D02*
X376Y215D01*
X417Y215D02*
X476Y215D01*
X517Y215D02*
X576Y215D01*
X617Y215D02*
X676Y215D01*
X717Y215D02*
X776Y215D01*
X817Y215D02*
X876Y215D01*
X917Y215D02*
X976Y215D01*
X1017Y215D02*
X1076Y215D01*
X1117Y215D02*
X1176Y215D01*
X1217Y215D02*
X1276Y215D01*
X1317Y215D02*
X1376Y215D01*
X117Y214D02*
X176Y214D01*
X217Y214D02*
X276Y214D01*
X317Y214D02*
X376Y214D01*
X417Y214D02*
X476Y214D01*
X517Y214D02*
X576Y214D01*
X617Y214D02*
X676Y214D01*
X717Y214D02*
X776Y214D01*
X817Y214D02*
X876Y214D01*
X917Y214D02*
X976Y214D01*
X1017Y214D02*
X1076Y214D01*
X1117Y214D02*
X1176Y214D01*
X1217Y214D02*
X1276Y214D01*
X1317Y214D02*
X1376Y214D01*
X118Y213D02*
X175Y213D01*
X218Y213D02*
X275Y213D01*
X318Y213D02*
X375Y213D01*
X418Y213D02*
X475Y213D01*
X518Y213D02*
X575Y213D01*
X618Y213D02*
X675Y213D01*
X718Y213D02*
X775Y213D01*
X818Y213D02*
X875Y213D01*
X918Y213D02*
X975Y213D01*
X1018Y213D02*
X1075Y213D01*
X1118Y213D02*
X1175Y213D01*
X1218Y213D02*
X1275Y213D01*
X1318Y213D02*
X1375Y213D01*
X119Y212D02*
X175Y212D01*
X219Y212D02*
X275Y212D01*
X319Y212D02*
X375Y212D01*
X419Y212D02*
X475Y212D01*
X519Y212D02*
X575Y212D01*
X619Y212D02*
X675Y212D01*
X719Y212D02*
X775Y212D01*
X819Y212D02*
X874Y212D01*
X918Y212D02*
X974Y212D01*
X1018Y212D02*
X1074Y212D01*
X1118Y212D02*
X1174Y212D01*
X1218Y212D02*
X1274Y212D01*
X1318Y212D02*
X1374Y212D01*
X119Y211D02*
X174Y211D01*
X219Y211D02*
X274Y211D01*
X319Y211D02*
X374Y211D01*
X419Y211D02*
X474Y211D01*
X519Y211D02*
X574Y211D01*
X619Y211D02*
X674Y211D01*
X719Y211D02*
X774Y211D01*
X819Y211D02*
X874Y211D01*
X919Y211D02*
X974Y211D01*
X1019Y211D02*
X1074Y211D01*
X1119Y211D02*
X1174Y211D01*
X1219Y211D02*
X1274Y211D01*
X1319Y211D02*
X1374Y211D01*
X120Y210D02*
X173Y210D01*
X220Y210D02*
X273Y210D01*
X320Y210D02*
X373Y210D01*
X420Y210D02*
X473Y210D01*
X520Y210D02*
X573Y210D01*
X620Y210D02*
X673Y210D01*
X720Y210D02*
X773Y210D01*
X820Y210D02*
X873Y210D01*
X920Y210D02*
X973Y210D01*
X1020Y210D02*
X1073Y210D01*
X1120Y210D02*
X1173Y210D01*
X1220Y210D02*
X1273Y210D01*
X1320Y210D02*
X1373Y210D01*
X121Y209D02*
X172Y209D01*
X221Y209D02*
X272Y209D01*
X321Y209D02*
X372Y209D01*
X421Y209D02*
X472Y209D01*
X521Y209D02*
X572Y209D01*
X621Y209D02*
X672Y209D01*
X721Y209D02*
X772Y209D01*
X821Y209D02*
X872Y209D01*
X921Y209D02*
X972Y209D01*
X1021Y209D02*
X1072Y209D01*
X1121Y209D02*
X1172Y209D01*
X1221Y209D02*
X1272Y209D01*
X1321Y209D02*
X1372Y209D01*
X122Y208D02*
X171Y208D01*
X222Y208D02*
X271Y208D01*
X322Y208D02*
X371Y208D01*
X422Y208D02*
X471Y208D01*
X522Y208D02*
X571Y208D01*
X622Y208D02*
X671Y208D01*
X722Y208D02*
X771Y208D01*
X822Y208D02*
X871Y208D01*
X922Y208D02*
X971Y208D01*
X1022Y208D02*
X1071Y208D01*
X1122Y208D02*
X1171Y208D01*
X1222Y208D02*
X1271Y208D01*
X1322Y208D02*
X1371Y208D01*
X123Y207D02*
X170Y207D01*
X223Y207D02*
X270Y207D01*
X323Y207D02*
X370Y207D01*
X423Y207D02*
X470Y207D01*
X523Y207D02*
X570Y207D01*
X623Y207D02*
X670Y207D01*
X723Y207D02*
X770Y207D01*
X823Y207D02*
X870Y207D01*
X923Y207D02*
X970Y207D01*
X1023Y207D02*
X1070Y207D01*
X1123Y207D02*
X1170Y207D01*
X1223Y207D02*
X1270Y207D01*
X1323Y207D02*
X1370Y207D01*
X124Y206D02*
X169Y206D01*
X224Y206D02*
X269Y206D01*
X324Y206D02*
X369Y206D01*
X424Y206D02*
X469Y206D01*
X524Y206D02*
X569Y206D01*
X624Y206D02*
X669Y206D01*
X724Y206D02*
X769Y206D01*
X824Y206D02*
X869Y206D01*
X924Y206D02*
X969Y206D01*
X1024Y206D02*
X1069Y206D01*
X1124Y206D02*
X1169Y206D01*
X1224Y206D02*
X1269Y206D01*
X1324Y206D02*
X1369Y206D01*
X125Y205D02*
X168Y205D01*
X225Y205D02*
X268Y205D01*
X325Y205D02*
X368Y205D01*
X425Y205D02*
X468Y205D01*
X525Y205D02*
X568Y205D01*
X625Y205D02*
X668Y205D01*
X725Y205D02*
X768Y205D01*
X825Y205D02*
X868Y205D01*
X925Y205D02*
X968Y205D01*
X1025Y205D02*
X1068Y205D01*
X1125Y205D02*
X1168Y205D01*
X1225Y205D02*
X1268Y205D01*
X1325Y205D02*
X1368Y205D01*
X126Y204D02*
X167Y204D01*
X226Y204D02*
X267Y204D01*
X326Y204D02*
X367Y204D01*
X426Y204D02*
X467Y204D01*
X526Y204D02*
X567Y204D01*
X626Y204D02*
X667Y204D01*
X726Y204D02*
X767Y204D01*
X826Y204D02*
X867Y204D01*
X926Y204D02*
X967Y204D01*
X1026Y204D02*
X1067Y204D01*
X1126Y204D02*
X1167Y204D01*
X1226Y204D02*
X1267Y204D01*
X1326Y204D02*
X1367Y204D01*
X127Y203D02*
X166Y203D01*
X227Y203D02*
X266Y203D01*
X327Y203D02*
X366Y203D01*
X427Y203D02*
X466Y203D01*
X527Y203D02*
X566Y203D01*
X627Y203D02*
X666Y203D01*
X727Y203D02*
X766Y203D01*
X827Y203D02*
X866Y203D01*
X927Y203D02*
X966Y203D01*
X1027Y203D02*
X1066Y203D01*
X1127Y203D02*
X1166Y203D01*
X1227Y203D02*
X1266Y203D01*
X1327Y203D02*
X1366Y203D01*
X129Y202D02*
X164Y202D01*
X229Y202D02*
X264Y202D01*
X329Y202D02*
X364Y202D01*
X429Y202D02*
X464Y202D01*
X529Y202D02*
X564Y202D01*
X629Y202D02*
X664Y202D01*
X729Y202D02*
X764Y202D01*
X829Y202D02*
X864Y202D01*
X929Y202D02*
X964Y202D01*
X1029Y202D02*
X1064Y202D01*
X1129Y202D02*
X1164Y202D01*
X1229Y202D02*
X1264Y202D01*
X1329Y202D02*
X1364Y202D01*
X130Y201D02*
X163Y201D01*
X230Y201D02*
X263Y201D01*
X330Y201D02*
X363Y201D01*
X430Y201D02*
X463Y201D01*
X530Y201D02*
X563Y201D01*
X630Y201D02*
X663Y201D01*
X730Y201D02*
X763Y201D01*
X830Y201D02*
X863Y201D01*
X930Y201D02*
X963Y201D01*
X1030Y201D02*
X1063Y201D01*
X1130Y201D02*
X1163Y201D01*
X1230Y201D02*
X1263Y201D01*
X1330Y201D02*
X1363Y201D01*
X132Y200D02*
X161Y200D01*
X232Y200D02*
X261Y200D01*
X332Y200D02*
X361Y200D01*
X432Y200D02*
X461Y200D01*
X532Y200D02*
X561Y200D01*
X632Y200D02*
X661Y200D01*
X732Y200D02*
X761Y200D01*
X832Y200D02*
X861Y200D01*
X932Y200D02*
X961Y200D01*
X1032Y200D02*
X1061Y200D01*
X1132Y200D02*
X1161Y200D01*
X1232Y200D02*
X1261Y200D01*
X1332Y200D02*
X1361Y200D01*
X134Y199D02*
X159Y199D01*
X234Y199D02*
X259Y199D01*
X334Y199D02*
X359Y199D01*
X434Y199D02*
X459Y199D01*
X534Y199D02*
X559Y199D01*
X634Y199D02*
X659Y199D01*
X734Y199D02*
X759Y199D01*
X834Y199D02*
X859Y199D01*
X934Y199D02*
X959Y199D01*
X1034Y199D02*
X1059Y199D01*
X1134Y199D02*
X1159Y199D01*
X1234Y199D02*
X1259Y199D01*
X1334Y199D02*
X1359Y199D01*
X137Y198D02*
X156Y198D01*
X237Y198D02*
X256Y198D01*
X337Y198D02*
X356Y198D01*
X437Y198D02*
X456Y198D01*
X537Y198D02*
X556Y198D01*
X637Y198D02*
X656Y198D01*
X737Y198D02*
X756Y198D01*
X837Y198D02*
X856Y198D01*
X937Y198D02*
X956Y198D01*
X1037Y198D02*
X1056Y198D01*
X1137Y198D02*
X1156Y198D01*
X1237Y198D02*
X1256Y198D01*
X1337Y198D02*
X1356Y198D01*
X140Y197D02*
X153Y197D01*
X240Y197D02*
X253Y197D01*
X340Y197D02*
X353Y197D01*
X440Y197D02*
X453Y197D01*
X540Y197D02*
X553Y197D01*
X640Y197D02*
X653Y197D01*
X740Y197D02*
X753Y197D01*
X840Y197D02*
X853Y197D01*
X940Y197D02*
X953Y197D01*
X1040Y197D02*
X1053Y197D01*
X1140Y197D02*
X1153Y197D01*
X1240Y197D02*
X1253Y197D01*
X1340Y197D02*
X1353Y197D01*
D02*
G04 End of Copper0*
M02*