<?xml version='1.0' encoding='UTF-8' standalone='no'?>
<!-- Created with Fritzing (http://www.fritzing.org/) -->
<svg xmlns="http://www.w3.org/2000/svg" width="2.1658in" x="0in" version="1.2" y="0in"  height="1.77169in" viewBox="0 0 155.937 127.562" baseProfile="tiny" xmlns:svg="http://www.w3.org/2000/svg">
 <g partID="12040">
  <g id="board">
   <rect width="155.361" x="0.576" y="0.576" fill="none" height="126.986" stroke="black" fill-opacity="0.5" id="boardoutline" stroke-width="0.5"/>
  </g>
 </g>
 <g partID="7383501">
  <g transform="translate(-18.7724,1.54291)">
   <g  id="copper1">
    <g  id="copper0">
     <rect width="3.96" x="20.664" y="5.184" fill="none"  height="3.96" stroke="black" stroke-width="1.44"/>
     <circle fill="none" cx="22.68"  cy="7.2" stroke="black" id="connector0pin" r="1.98" stroke-width="1.44"/>
     <circle fill="none" cx="29.88"  cy="7.2" stroke="black" id="connector1pin" r="1.98" stroke-width="1.44"/>
     <circle fill="none" cx="37.08"  cy="7.2" stroke="black" id="connector2pin" r="1.98" stroke-width="1.44"/>
     <circle fill="none" cx="44.28"  cy="7.2" stroke="black" id="connector3pin" r="1.98" stroke-width="1.44"/>
     <circle fill="none" cx="51.48"  cy="7.2" stroke="black" id="connector4pin" r="1.98" stroke-width="1.44"/>
     <circle fill="none" cx="58.68"  cy="7.2" stroke="black" id="connector5pin" r="1.98" stroke-width="1.44"/>
     <circle fill="none" cx="65.88"  cy="7.2" stroke="black" id="connector6pin" r="1.98" stroke-width="1.44"/>
     <circle fill="none" cx="73.08"  cy="7.2" stroke="black" id="connector7pin" r="1.98" stroke-width="1.44"/>
     <circle fill="none" cx="80.28"  cy="7.2" stroke="black" id="connector8pin" r="1.98" stroke-width="1.44"/>
     <circle fill="none" cx="87.48"  cy="7.2" stroke="black" id="connector9pin" r="1.98" stroke-width="1.44"/>
     <circle fill="none" cx="94.68"  cy="7.2" stroke="black" id="connector10pin" r="1.98" stroke-width="1.44"/>
     <circle fill="none" cx="101.88"  cy="7.2" stroke="black" id="connector11pin" r="1.98" stroke-width="1.44"/>
     <circle fill="none" cx="109.08"  cy="7.2" stroke="black" id="connector12pin" r="1.98" stroke-width="1.44"/>
     <circle fill="none" cx="116.28"  cy="7.2" stroke="black" id="connector13pin" r="1.98" stroke-width="1.44"/>
     <circle fill="none" cx="123.48"  cy="7.2" stroke="black" id="connector14pin" r="1.98" stroke-width="1.44"/>
     <circle fill="none" cx="130.68"  cy="7.2" stroke="black" id="connector15pin" r="1.98" stroke-width="1.44"/>
    </g>
   </g>
  </g>
 </g>
 <g partID="6832281">
  <g transform="translate(31.8674,21.1194)">
   <g transform="matrix(0,1,-1,0,0,0)">
    <g  id="copper1">
     <g  id="copper0">
      <circle fill="none" cx="3.528"  cy="17.928" stroke="black" id="connector2pad" r="2.52" stroke-width="2.088"/>
      <rect width="5.04" x="1.008" y="1.008" fill="none"  height="5.04" stroke="black" stroke-width="2.088"/>
      <circle fill="none" cx="3.528"  cy="3.528" stroke="black" id="connector0pad" r="2.52" stroke-width="2.088"/>
      <circle fill="none" cx="17.928"  cy="10.728" stroke="black" id="connector1pad" r="2.52" stroke-width="2.088"/>
     </g>
    </g>
   </g>
  </g>
 </g>
 <g partID="6445071">
  <g transform="translate(25.3774,125.826)">
   <g transform="matrix(-1,0,0,-1,0,0)">
    <g  id="copper1">
     <g  id="copper0">
      <circle fill="none" cx="20.8462"  cy="15.6024" stroke="black" id="connector0pad" r="1.98" stroke-width="1.44"/>
      <circle fill="none" cx="2.42064"  cy="15.6024" stroke="black" id="connector1pad" r="1.98" stroke-width="1.44"/>
      <circle fill="none" cx="20.8462"  cy="2.84616" stroke="black" id="connector2pad" r="1.98" stroke-width="1.44"/>
      <circle fill="none" cx="2.42064"  cy="2.84616" stroke="black" id="connector3pad" r="1.98" stroke-width="1.44"/>
     </g>
    </g>
   </g>
  </g>
 </g>
 <g partID="6437831">
  <g transform="translate(59.3934,125.826)">
   <g transform="matrix(-1,0,0,-1,0,0)">
    <g  id="copper1">
     <g  id="copper0">
      <circle fill="none" cx="20.8462"  cy="15.6024" stroke="black" id="connector0pad" r="1.98" stroke-width="1.44"/>
      <circle fill="none" cx="2.42064"  cy="15.6024" stroke="black" id="connector1pad" r="1.98" stroke-width="1.44"/>
      <circle fill="none" cx="20.8462"  cy="2.84616" stroke="black" id="connector2pad" r="1.98" stroke-width="1.44"/>
      <circle fill="none" cx="2.42064"  cy="2.84616" stroke="black" id="connector3pad" r="1.98" stroke-width="1.44"/>
     </g>
    </g>
   </g>
  </g>
 </g>
 <g partID="7108110">
  <g transform="translate(118.059,28.4437)">
   <g transform="matrix(0,-1,1,0,0,0)">
    <g  id="copper1">
     <!-- unten links -->
     <rect width="2.26772" x="0.425197" y="5.66929" fill="black"  height="2.55118" stroke="none" fill-opacity="1" id="connector0pin"/>
     <g width="0" x="1.55906" y="6.94488" fill="none"  height="0" id="connector0terminal" stroke-width="0"/>
     <!-- unten rechts -->
     <rect width="2.26772" x="5.81102" y="5.66929" fill="black"  height="2.55118" stroke="none" fill-opacity="1" id="connector1pin"/>
     <g width="0" x="6.94488" y="6.94488" fill="none"  height="0" id="connector1terminal" stroke-width="0"/>
     <!-- oben mitte -->
     <rect width="2.26772" x="3.11811" y="0" fill="black"  height="2.55118" stroke="none" fill-opacity="1" id="connector2pin"/>
     <g width="0" x="4.25197" y="1.27559" fill="none"  height="0" id="connector2terminal" stroke-width="0"/>
    </g>
   </g>
  </g>
 </g>
 <g partID="7125070">
  <g transform="translate(149.098,107.813)">
   <g transform="matrix(-1,0,0,-1,0,0)">
    <g  id="copper1">
     <rect width="4.53543" x="0.566929" y="0.566929" fill="black"  height="5.38583" stroke="none" fill-opacity="1" id="connector0pad"/>
     <rect width="4.53543" x="9.35433" y="0.566929" fill="black"  height="5.38583" stroke="none" fill-opacity="1" id="connector1pad"/>
    </g>
   </g>
  </g>
 </g>
 <g partID="6815150">
  <g transform="translate(135.067,24.05)">
   <g transform="matrix(0,1,-1,0,0,0)">
    <g  id="copper1">
     <rect width="4.53543" x="0.566929" y="0.566929" fill="black"  height="5.38583" stroke="none" fill-opacity="1" id="connector0pad"/>
     <rect width="4.53543" x="9.35433" y="0.566929" fill="black"  height="5.38583" stroke="none" fill-opacity="1" id="connector1pad"/>
    </g>
   </g>
  </g>
 </g>
 <g partID="6999741">
  <g transform="translate(152.925,129.203)">
   <g transform="matrix(-1,0,0,-1,0,0)">
    <g  id="copper1">
     <g  id="copper0">
      <rect width="3.96" x="16.02" y="6.228" fill="none"  height="3.96" stroke="black" id="rect10" stroke-width="1.44"/>
      <circle fill="none" cx="3.6"  cy="8.208" stroke="black" id="connector0pin" r="1.98" stroke-width="1.44"/>
      <circle fill="none" cx="10.8"  cy="8.208" stroke="black" id="connector1pin" r="1.98" stroke-width="1.44"/>
      <circle fill="none" cx="18"  cy="8.208" stroke="black" id="connector2pin" r="1.98" stroke-width="1.44"/>
     </g>
    </g>
   </g>
  </g>
 </g>
 <g partID="7002931">
  <g transform="translate(93.4086,125.826)">
   <g transform="matrix(-1,0,0,-1,0,0)">
    <g  id="copper1">
     <g  id="copper0">
      <circle fill="none" cx="20.8462"  cy="15.6024" stroke="black" id="connector0pad" r="1.98" stroke-width="1.44"/>
      <circle fill="none" cx="2.42064"  cy="15.6024" stroke="black" id="connector1pad" r="1.98" stroke-width="1.44"/>
      <circle fill="none" cx="20.8462"  cy="2.84616" stroke="black" id="connector2pad" r="1.98" stroke-width="1.44"/>
      <circle fill="none" cx="2.42064"  cy="2.84616" stroke="black" id="connector3pad" r="1.98" stroke-width="1.44"/>
     </g>
    </g>
   </g>
  </g>
 </g>
 <g partID="7003301">
  <g transform="translate(127.425,125.826)">
   <g transform="matrix(-1,0,0,-1,0,0)">
    <g  id="copper1">
     <g  id="copper0">
      <circle fill="none" cx="20.8462"  cy="15.6024" stroke="black" id="connector0pad" r="1.98" stroke-width="1.44"/>
      <circle fill="none" cx="2.42064"  cy="15.6024" stroke="black" id="connector1pad" r="1.98" stroke-width="1.44"/>
      <circle fill="none" cx="20.8462"  cy="2.84616" stroke="black" id="connector2pad" r="1.98" stroke-width="1.44"/>
      <circle fill="none" cx="2.42064"  cy="2.84616" stroke="black" id="connector3pad" r="1.98" stroke-width="1.44"/>
     </g>
    </g>
   </g>
  </g>
 </g>
 <g partID="7148161">
  <g transform="translate(-0.0845683,40.4954)">
   <g transform="matrix(1,0,0,1,0,0)">
    <g  id="copper1">
     <circle fill="none" cx="13.029"  cy="32.333" stroke="black" id="connector11pad" r="2.16" stroke-width="0.999999"/>
     <circle fill="none" cx="13.029"  cy="25.134" stroke="black" id="connector10pad" r="2.16" stroke-width="0.999999"/>
     <circle fill="none" cx="13.029"  cy="17.934" stroke="black" id="connector9pad" r="2.16" stroke-width="0.999999"/>
     <circle fill="none" cx="13.029"  cy="10.734" stroke="black" id="connector8pad" r="2.16" stroke-width="0.999999"/>
    </g>
   </g>
  </g>
 </g>
 <g partID="7303291">
  <g transform="translate(146.315,73.7506)">
   <g transform="matrix(-1,0,0,-1,0,0)">
    <g id="copper1" transform="matrix(1, 0, 0, 1, 0, -809.49)">
     <g stroke-opacity="1" fill="none" stroke="black" style="display:inline" transform="matrix(1, 0, 0, 1, -3.60117, 796.891)">
      <g transform="matrix(1, 0, 0, 1, -14.4, 0)">
       <path stroke-opacity="1" fill="none" stroke="black" style="stroke-linecap:round;stroke-linejoin:miter;stroke-miterlimit:4;stroke-dasharray:none;display:inline" id="connector5pad" stroke-width="1.44" d="m109.8,25.2a1.8,1.8,0,1,1,-3.6,0,1.8,1.8,0,1,1,3.6,0z"/>
      </g>
      <g transform="matrix(1, 0, 0, 1, -21.6, 0)">
       <path stroke-opacity="1" fill="none" stroke="black" style="stroke-linecap:round;stroke-linejoin:miter;stroke-miterlimit:4;stroke-dasharray:none;display:inline" id="connector7pad" stroke-width="1.44" d="m109.8,25.2a1.8,1.8,0,1,1,-3.6,0,1.8,1.8,0,1,1,3.6,0z"/>
      </g>
      <g transform="matrix(1, 0, 0, 1, -28.8, 0)">
       <path stroke-opacity="1" fill="none" stroke="black" style="stroke-linecap:round;stroke-linejoin:miter;stroke-miterlimit:4;stroke-dasharray:none;display:inline" id="connector9pad" stroke-width="1.44" d="m109.8,25.2a1.8,1.8,0,1,1,-3.6,0,1.8,1.8,0,1,1,3.6,0z"/>
      </g>
      <g transform="matrix(1, 0, 0, 1, -50.4, 0)">
       <path stroke-opacity="1" fill="none" stroke="black" style="stroke-linecap:round;stroke-linejoin:miter;stroke-miterlimit:4;stroke-dasharray:none;display:inline" id="connector15pad" stroke-width="1.44" d="m109.8,25.2a1.8,1.8,0,1,1,-3.6,0,1.8,1.8,0,1,1,3.6,0z"/>
      </g>
      <g transform="matrix(1, 0, 0, 1, -57.6, 0)">
       <path stroke-opacity="1" fill="none" stroke="black" style="stroke-linecap:round;stroke-linejoin:miter;stroke-miterlimit:4;stroke-dasharray:none;display:inline" id="connector17pad" stroke-width="1.44" d="m109.8,25.2a1.8,1.8,0,1,1,-3.6,0,1.8,1.8,0,1,1,3.6,0z"/>
      </g>
      <g transform="matrix(1, 0, 0, 1, -64.8, 0)">
       <path stroke-opacity="1" fill="none" stroke="black" style="stroke-linecap:round;stroke-linejoin:miter;stroke-miterlimit:4;stroke-dasharray:none;display:inline" id="connector19pad" stroke-width="1.44" d="m109.8,25.2a1.8,1.8,0,1,1,-3.6,0,1.8,1.8,0,1,1,3.6,0z"/>
      </g>
      <g transform="matrix(1, 0, 0, 1, -36, 0)">
       <path stroke-opacity="1" fill="none" stroke="black" style="stroke-linecap:round;stroke-linejoin:miter;stroke-miterlimit:4;stroke-dasharray:none;display:inline" id="connector11pad" stroke-width="1.44" d="m109.8,25.2a1.8,1.8,0,1,1,-3.6,0,1.8,1.8,0,1,1,3.6,0z"/>
      </g>
      <g transform="matrix(1, 0, 0, 1, -43.2, 0)">
       <path stroke-opacity="1" fill="none" stroke="black" style="stroke-linecap:round;stroke-linejoin:miter;stroke-miterlimit:4;stroke-dasharray:none;display:inline" id="connector13pad" stroke-width="1.44" d="m109.8,25.2a1.8,1.8,0,1,1,-3.6,0,1.8,1.8,0,1,1,3.6,0z"/>
      </g>
      <g transform="matrix(1, 0, 0, 1, -79.2, 0)">
       <path stroke-opacity="1" fill="none" stroke="black" style="stroke-linecap:round;stroke-linejoin:miter;stroke-miterlimit:4;stroke-dasharray:none;display:inline" id="connector23pad" stroke-width="1.44" d="m109.8,25.2a1.8,1.8,0,1,1,-3.6,0,1.8,1.8,0,1,1,3.6,0z"/>
      </g>
      <g transform="matrix(1, 0, 0, 1, -86.4, 0)">
       <path stroke-opacity="1" fill="none" stroke="black" style="stroke-linecap:round;stroke-linejoin:miter;stroke-miterlimit:4;stroke-dasharray:none;display:inline" id="connector25pad" stroke-width="1.44" d="m109.8,25.2a1.8,1.8,0,1,1,-3.6,0,1.8,1.8,0,1,1,3.6,0z"/>
      </g>
      <g transform="matrix(1, 0, 0, 1, -72, 0)">
       <path stroke-opacity="1" fill="none" stroke="black" style="stroke-linecap:round;stroke-linejoin:miter;stroke-miterlimit:4;stroke-dasharray:none;display:inline" id="connector21pad" stroke-width="1.44" d="m109.8,25.2a1.8,1.8,0,1,1,-3.6,0,1.8,1.8,0,1,1,3.6,0z"/>
      </g>
      <g transform="matrix(1, 0, 0, 1, -14.4, 7.2)">
       <path stroke-opacity="1" fill="none" stroke="black" style="stroke-linecap:round;stroke-linejoin:miter;stroke-miterlimit:4;stroke-dasharray:none;display:inline" id="connector6pad" stroke-width="1.44" d="m109.8,25.2a1.8,1.8,0,1,1,-3.6,0,1.8,1.8,0,1,1,3.6,0z"/>
      </g>
      <g transform="matrix(1, 0, 0, 1, -21.6, 7.2)">
       <path stroke-opacity="1" fill="none" stroke="black" style="stroke-linecap:round;stroke-linejoin:miter;stroke-miterlimit:4;stroke-dasharray:none;display:inline" id="connector8pad" stroke-width="1.44" d="m109.8,25.2a1.8,1.8,0,1,1,-3.6,0,1.8,1.8,0,1,1,3.6,0z"/>
      </g>
      <g transform="matrix(1, 0, 0, 1, -28.8, 7.2)">
       <path stroke-opacity="1" fill="none" stroke="black" style="stroke-linecap:round;stroke-linejoin:miter;stroke-miterlimit:4;stroke-dasharray:none;display:inline" id="connector10pad" stroke-width="1.44" d="m109.8,25.2a1.8,1.8,0,1,1,-3.6,0,1.8,1.8,0,1,1,3.6,0z"/>
      </g>
      <g transform="matrix(1, 0, 0, 1, -50.4, 7.2)">
       <path stroke-opacity="1" fill="none" stroke="black" style="stroke-linecap:round;stroke-linejoin:miter;stroke-miterlimit:4;stroke-dasharray:none;display:inline" id="connector16pad" stroke-width="1.44" d="m109.8,25.2a1.8,1.8,0,1,1,-3.6,0,1.8,1.8,0,1,1,3.6,0z"/>
      </g>
      <g transform="matrix(1, 0, 0, 1, -57.6, 7.2)">
       <path stroke-opacity="1" fill="none" stroke="black" style="stroke-linecap:round;stroke-linejoin:miter;stroke-miterlimit:4;stroke-dasharray:none;display:inline" id="connector18pad" stroke-width="1.44" d="m109.8,25.2a1.8,1.8,0,1,1,-3.6,0,1.8,1.8,0,1,1,3.6,0z"/>
      </g>
      <g transform="matrix(1, 0, 0, 1, -64.8, 7.2)">
       <path stroke-opacity="1" fill="none" stroke="black" style="stroke-linecap:round;stroke-linejoin:miter;stroke-miterlimit:4;stroke-dasharray:none;display:inline" id="connector20pad" stroke-width="1.44" d="m109.8,25.2a1.8,1.8,0,1,1,-3.6,0,1.8,1.8,0,1,1,3.6,0z"/>
      </g>
      <g transform="matrix(1, 0, 0, 1, -36, 7.2)">
       <path stroke-opacity="1" fill="none" stroke="black" style="stroke-linecap:round;stroke-linejoin:miter;stroke-miterlimit:4;stroke-dasharray:none;display:inline" id="connector12pad" stroke-width="1.44" d="m109.8,25.2a1.8,1.8,0,1,1,-3.6,0,1.8,1.8,0,1,1,3.6,0z"/>
      </g>
      <g transform="matrix(1, 0, 0, 1, -43.2, 7.2)">
       <path stroke-opacity="1" fill="none" stroke="black" style="stroke-linecap:round;stroke-linejoin:miter;stroke-miterlimit:4;stroke-dasharray:none;display:inline" id="connector14pad" stroke-width="1.44" d="m109.8,25.2a1.8,1.8,0,1,1,-3.6,0,1.8,1.8,0,1,1,3.6,0z"/>
      </g>
      <g transform="matrix(1, 0, 0, 1, -79.2, 7.2)">
       <path stroke-opacity="1" fill="none" stroke="black" style="stroke-linecap:round;stroke-linejoin:miter;stroke-miterlimit:4;stroke-dasharray:none;display:inline" id="connector24pad" stroke-width="1.44" d="m109.8,25.2a1.8,1.8,0,1,1,-3.6,0,1.8,1.8,0,1,1,3.6,0z"/>
      </g>
      <g transform="matrix(1, 0, 0, 1, -86.4, 7.2)">
       <path stroke-opacity="1" fill="none" stroke="black" style="stroke-linecap:round;stroke-linejoin:miter;stroke-miterlimit:4;stroke-dasharray:none;display:inline" id="connector26pad" stroke-width="1.44" d="m109.8,25.2a1.8,1.8,0,1,1,-3.6,0,1.8,1.8,0,1,1,3.6,0z"/>
      </g>
      <g transform="matrix(1, 0, 0, 1, -72, 7.2)">
       <path stroke-opacity="1" fill="none" stroke="black" style="stroke-linecap:round;stroke-linejoin:miter;stroke-miterlimit:4;stroke-dasharray:none;display:inline" id="connector22pad" stroke-width="1.44" d="m109.8,25.2a1.8,1.8,0,1,1,-3.6,0,1.8,1.8,0,1,1,3.6,0z"/>
      </g>
      <g transform="matrix(1, 0, 0, 1, 0, 7.2)">
       <path stroke-opacity="1" fill="none" stroke="black" style="stroke-linecap:round;stroke-linejoin:miter;stroke-miterlimit:4;stroke-dasharray:none;display:inline" id="connector2pad" stroke-width="1.44" d="m109.8,25.2a1.8,1.8,0,1,1,-3.6,0,1.8,1.8,0,1,1,3.6,0z"/>
      </g>
      <g transform="matrix(1, 0, 0, 1, -7.2, 7.2)">
       <path stroke-opacity="1" fill="none" stroke="black" style="stroke-linecap:round;stroke-linejoin:miter;stroke-miterlimit:4;stroke-dasharray:none;display:inline" id="connector4pad" stroke-width="1.44" d="m109.8,25.2a1.8,1.8,0,1,1,-3.6,0,1.8,1.8,0,1,1,3.6,0z"/>
      </g>
      <rect width="3.6" x="106.2" y="23.4" stroke-opacity="1" fill="none" height="3.6" stroke="black" style="stroke-linecap:round;stroke-linejoin:miter;stroke-miterlimit:4;stroke-dasharray:none;display:inline" id="rect4984" stroke-width="1.44"/>
      <path stroke-opacity="1" fill="none" stroke="black" style="stroke-linecap:round;stroke-linejoin:miter;stroke-miterlimit:4;stroke-dasharray:none" id="connector1pad" stroke-width="1.44" d="m109.8,25.2a1.8,1.8,0,1,1,-3.6,0,1.8,1.8,0,1,1,3.6,0z"/>
      <g transform="matrix(1, 0, 0, 1, -7.2, 0)">
       <path stroke-opacity="1" fill="none" stroke="black" style="stroke-linecap:round;stroke-linejoin:miter;stroke-miterlimit:4;stroke-dasharray:none" id="connector3pad" stroke-width="1.44" d="m109.8,25.2a1.8,1.8,0,1,1,-3.6,0,1.8,1.8,0,1,1,3.6,0z"/>
      </g>
     </g>
    </g>
   </g>
  </g>
 </g>
 <g partID="7407981">
  <g transform="translate(14.5533,86.2295)">
   <g  id="copper1">
    <circle fill="none" cx="3.01733"  cy="3.01733" stroke="black" r="0.992124" id="connector0pin" stroke-width="0.850392"/>
   </g>
  </g>
 </g>
 <g partID="7409471">
  <g transform="translate(38.6478,86.2295)">
   <g  id="copper1">
    <circle fill="none" cx="3.01733"  cy="3.01733" stroke="black" r="0.992124" id="connector0pin" stroke-width="0.850392"/>
   </g>
  </g>
 </g>
 <g partID="7473911">
  <g transform="translate(128.79,70.3555)">
   <g  id="copper1">
    <circle fill="none" cx="3.01732"  cy="3.01732" stroke="black" r="0.992124" id="connector0pin" stroke-width="0.850392"/>
   </g>
  </g>
 </g>
 <g partID="7474371">
  <g transform="translate(35.2462,38.8909)">
   <g  id="copper1">
    <circle fill="none" cx="3.01732"  cy="3.01732" stroke="black" r="0.992124" id="connector0pin" stroke-width="0.850392"/>
   </g>
  </g>
 </g>
 <g partID="7475911">
  <g transform="translate(89.388,43.1429)">
   <g  id="copper1">
    <circle fill="none" cx="3.01732"  cy="3.01732" stroke="black" r="0.992124" id="connector0pin" stroke-width="0.850392"/>
   </g>
  </g>
 </g>
 <g partID="7497521">
  <g transform="translate(96.1911,42.8594)">
   <g  id="copper1">
    <circle fill="none" cx="3.01733"  cy="3.01733" stroke="black" r="0.992124" id="connector0pin" stroke-width="0.850392"/>
   </g>
  </g>
 </g>
 <g partID="7498411">
  <g transform="translate(136.16,18.4815)">
   <g  id="copper1">
    <circle fill="none" cx="3.01733"  cy="3.01733" stroke="black" r="0.992124" id="connector0pin" stroke-width="0.850392"/>
   </g>
  </g>
 </g>
 <g partID="7499291">
  <g transform="translate(72.159,33.3266)">
   <g  id="copper1">
    <circle fill="none" cx="3.01733"  cy="3.01733" stroke="black" r="0.992124" id="connector0pin" stroke-width="0.850392"/>
   </g>
  </g>
 </g>
 <g partID="7503031">
  <g transform="translate(16.9433,44.6208)">
   <g  id="copper1">
    <circle fill="none" cx="3.01733"  cy="3.01733" stroke="black" r="0.992124" id="connector0pin" stroke-width="0.850392"/>
   </g>
  </g>
 </g>
 <g partID="7361490">
  <line stroke="black" stroke-linecap="round" y1="63.0284" x1="63.5809" y2="64.5475" stroke-width="1.728" x2="63.6335"/>
 </g>
 <g partID="7361530">
  <line stroke="black" stroke-linecap="round" y1="64.5475" x1="63.6335" y2="77.2741" stroke-width="1.728" x2="73.4508"/>
 </g>
 <g partID="7361710">
  <line stroke="black" stroke-linecap="round" y1="77.2741" x1="73.4508" y2="77.2741" stroke-width="1.728" x2="129.556"/>
 </g>
 <g partID="7458720">
  <line stroke="black" stroke-linecap="round" y1="85.5018" x1="137.419" y2="102.261" stroke-width="1.728" x2="137.469"/>
 </g>
 <g partID="7458570">
  <line stroke="black" stroke-linecap="round" y1="77.2741" x1="129.556" y2="85.5018" stroke-width="1.728" x2="137.419"/>
 </g>
 <g partID="7384970">
  <line stroke="black" stroke-linecap="round" y1="22.8325" x1="26.966" y2="15.2425" stroke-width="1.728" x2="21.2223"/>
 </g>
 <g partID="7387520">
  <line stroke="black" stroke-linecap="round" y1="2.24658" x1="28.9071" y2="6.96484" stroke-width="1.728" x2="31.6674"/>
 </g>
 <g partID="7387050">
  <line stroke="black" stroke-linecap="round" y1="2.17342" x1="7.85665" y2="2.24658" stroke-width="1.728" x2="28.9071"/>
 </g>
 <g partID="7386570">
  <line stroke="black" stroke-linecap="round" y1="6.97735" x1="4.96894" y2="2.17342" stroke-width="1.728" x2="7.85665"/>
 </g>
 <g partID="7389140">
  <line stroke="black" stroke-linecap="round" y1="2.28691" x1="43.1148" y2="6.99114" stroke-width="1.728" x2="46.0245"/>
 </g>
 <g partID="7388690">
  <line stroke="black" stroke-linecap="round" y1="2.14771" x1="36.7148" y2="2.28684" stroke-width="1.728" x2="43.1148"/>
 </g>
 <g partID="7388010">
  <line stroke="black" stroke-linecap="round" y1="6.9824" x1="33.7773" y2="2.14771" stroke-width="1.728" x2="36.7148"/>
 </g>
 <g partID="7389650">
  <line stroke="black" stroke-linecap="round" y1="8.74291" x1="49.1676" y2="8.74291" stroke-width="1.728" x2="52.2476"/>
 </g>
 <g partID="7390070">
  <line stroke="black" stroke-linecap="round" y1="8.74291" x1="56.3676" y2="8.74291" stroke-width="1.728" x2="59.4476"/>
 </g>
 <g partID="7390470">
  <line stroke="black" stroke-linecap="round" y1="8.74291" x1="63.5676" y2="8.74291" stroke-width="1.728" x2="66.6476"/>
 </g>
 <g partID="7391790">
  <line stroke="black" stroke-linecap="round" y1="23.4579" x1="118.778" y2="14.3873" stroke-width="1.728" x2="111.903"/>
 </g>
 <g partID="7491290">
  <line stroke="black" stroke-linecap="round" y1="47.554" x1="35.3817" y2="47.554" stroke-width="1.728" x2="51.3213"/>
 </g>
 <g partID="7403180">
  <line stroke="black" stroke-linecap="round" y1="26.9234" x1="28.3444" y2="42.2408" stroke-width="1.728" x2="28.3779"/>
 </g>
 <g partID="7490000">
  <line stroke="black" stroke-linecap="round" y1="42.2408" x1="28.3779" y2="47.554" stroke-width="1.728" x2="35.3817"/>
 </g>
 <g partID="7403170">
  <line stroke="black" stroke-linecap="round" y1="47.554" x1="51.3213" y2="52.4678" stroke-width="1.728" x2="55.1587"/>
 </g>
 <g partID="7404440">
  <line stroke="black" stroke-linecap="round" y1="57.4498" x1="67.4394" y2="57.5049" stroke-width="0.576" x2="59.7942"/>
 </g>
 <g partID="7404030">
  <line stroke="black" stroke-linecap="round" y1="57.5049" x1="59.7942" y2="55.0075" stroke-width="0.576" x2="57.3508"/>
 </g>
 <g partID="7403630">
  <line stroke="black" stroke-linecap="round" y1="60.0416" x1="69.7346" y2="57.4498" stroke-width="0.576" x2="67.4394"/>
 </g>
 <g partID="7409390">
  <line stroke="black" stroke-linecap="round" y1="89.2468" x1="40.2982" y2="89.2468" stroke-width="1.728" x2="18.9376"/>
 </g>
 <g partID="7409550">
  <line stroke="black" stroke-linecap="round" y1="87.88" x1="41.6773" y2="63.0295" stroke-width="1.728" x2="41.899"/>
 </g>
 <g partID="7409720">
  <line stroke="black" stroke-linecap="round" y1="10.1996" x1="41.3643" y2="40.9621" stroke-width="1.728" x2="72.1268"/>
 </g>
 <g partID="7409980">
  <line stroke="black" stroke-linecap="round" y1="40.9621" x1="72.1268" y2="41.0498" stroke-width="1.728" x2="103.255"/>
 </g>
 <g partID="7410140">
  <line stroke="black" stroke-linecap="round" y1="41.0498" x1="103.255" y2="52.5004" stroke-width="1.728" x2="112.718"/>
 </g>
 <g partID="7410220">
  <line stroke="black" stroke-linecap="round" y1="26.8846" x1="125.879" y2="26.8846" stroke-width="1.728" x2="129.514"/>
 </g>
 <g partID="7412040">
  <line stroke="black" stroke-linecap="round" y1="31.1675" x1="108.588" y2="49.0498" stroke-width="1.728" x2="123.804"/>
 </g>
 <g partID="7412060">
  <line stroke="black" stroke-linecap="round" y1="49.0498" x1="133.529" y2="65.991" stroke-width="1.728" x2="133.529"/>
 </g>
 <g partID="7412240">
  <line stroke="black" stroke-linecap="round" y1="65.991" x1="133.529" y2="66.0586" stroke-width="1.728" x2="109.686"/>
 </g>
 <g partID="7412260">
  <line stroke="black" stroke-linecap="round" y1="66.0586" x1="109.686" y2="62.7581" stroke-width="1.728" x2="107.689"/>
 </g>
 <g partID="7413500">
  <line stroke="black" stroke-linecap="round" y1="44.5008" x1="137.137" y2="69.442" stroke-width="1.728" x2="137.137"/>
 </g>
 <g partID="7413680">
  <line stroke="black" stroke-linecap="round" y1="69.442" x1="137.137" y2="69.7306" stroke-width="1.728" x2="91.2826"/>
 </g>
 <g partID="7413700">
  <line stroke="black" stroke-linecap="round" y1="69.7306" x1="91.2826" y2="62.6762" stroke-width="1.728" x2="86.213"/>
 </g>
 <g partID="7411840">
  <line stroke="black" stroke-linecap="round" y1="10.2546" x1="77.307" y2="31.1675" stroke-width="1.728" x2="96.6665"/>
 </g>
 <g partID="7413280">
  <line stroke="black" stroke-linecap="round" y1="10.3051" x1="91.6504" y2="27.6381" stroke-width="1.728" x2="106.549"/>
 </g>
 <g partID="7427570">
  <line stroke="black" stroke-linecap="round" y1="57.4498" x1="89.2617" y2="54.9043" stroke-width="0.576" x2="86.2467"/>
 </g>
 <g partID="7428010">
  <line stroke="black" stroke-linecap="round" y1="57.4498" x1="102.901" y2="57.4498" stroke-width="0.576" x2="89.2617"/>
 </g>
 <g partID="7427580">
  <line stroke="black" stroke-linecap="round" y1="54.9498" x1="105.626" y2="57.4498" stroke-width="0.576" x2="102.901"/>
 </g>
 <g partID="7429310">
  <line stroke="black" stroke-linecap="round" y1="46.8778" x1="100.139" y2="52.5728" stroke-width="1.728" x2="105.436"/>
 </g>
 <g partID="7428920">
  <line stroke="black" stroke-linecap="round" y1="21.4988" x1="125.879" y2="21.4988" stroke-width="1.728" x2="137.81"/>
 </g>
 <g partID="7457930">
  <line stroke="black" stroke-linecap="round" y1="53.9329" x1="40.0359" y2="53.8214" stroke-width="1.728" x2="27.4519"/>
 </g>
 <g partID="7458090">
  <line stroke="black" stroke-linecap="round" y1="73.0282" x1="13.037" y2="67.7232" stroke-width="1.728" x2="20.0456"/>
 </g>
 <g partID="7458420">
  <line stroke="black" stroke-linecap="round" y1="69.4102" x1="7.88904" y2="73.0282" stroke-width="1.728" x2="13.037"/>
 </g>
 <g partID="7458310">
  <line stroke="black" stroke-linecap="round" y1="47.845" x1="7.88904" y2="69.4102" stroke-width="1.728" x2="7.88904"/>
 </g>
 <g partID="7458210">
  <line stroke="black" stroke-linecap="round" y1="41.3636" x1="13.843" y2="47.845" stroke-width="1.728" x2="7.88904"/>
 </g>
 <g partID="7458100">
  <line stroke="black" stroke-linecap="round" y1="26.9234" x1="13.9263" y2="41.3636" stroke-width="1.728" x2="13.843"/>
 </g>
 <g partID="7472430">
  <line stroke="black" stroke-linecap="round" y1="106.847" x1="146.279" y2="113.407" stroke-width="1.728" x2="146.324"/>
 </g>
 <g partID="7473510">
  <line stroke="black" stroke-linecap="round" y1="35.8261" x1="134.1" y2="36.0302" stroke-width="1.728" x2="137.137"/>
 </g>
 <g partID="7474390">
  <line stroke="black" stroke-linecap="round" y1="41.9057" x1="39.6305" y2="41.8786" stroke-width="1.728" x2="53.8572"/>
 </g>
 <g partID="7474710">
  <line stroke="black" stroke-linecap="round" y1="41.8786" x1="53.8572" y2="52.4816" stroke-width="1.728" x2="62.3412"/>
 </g>
 <g partID="7475930">
  <line stroke="black" stroke-linecap="round" y1="46.1702" x1="91.0384" y2="46.2263" stroke-width="1.728" x2="83.3332"/>
 </g>
 <g partID="7476210">
  <line stroke="black" stroke-linecap="round" y1="119.216" x1="141.086" y2="113.098" stroke-width="1.728" x2="137.512"/>
 </g>
 <g partID="7476510">
  <line stroke="black" stroke-linecap="round" y1="113.098" x1="137.512" y2="106.847" stroke-width="1.728" x2="137.486"/>
 </g>
 <g partID="7476610">
  <line stroke="black" stroke-linecap="round" y1="122.575" x1="127.024" y2="121.399" stroke-width="1.728" x2="132.905"/>
 </g>
 <g partID="7476850">
  <line stroke="black" stroke-linecap="round" y1="50.7285" x1="15.3529" y2="50.6185" stroke-width="1.728" x2="15.8822"/>
 </g>
 <g partID="7476990">
  <line stroke="black" stroke-linecap="round" y1="42.2408" x1="28.3779" y2="26.9234" stroke-width="1.728" x2="28.3444"/>
 </g>
 <g partID="7493480">
  <line stroke="black" stroke-linecap="round" y1="59.0106" x1="20.1005" y2="54.1458" stroke-width="1.728" x2="27.4519"/>
 </g>
 <g partID="7493590">
  <line stroke="black" stroke-linecap="round" y1="54.1458" x1="27.4519" y2="53.975" stroke-width="1.728" x2="40.036"/>
 </g>
 <g partID="7493380">
  <line stroke="black" stroke-linecap="round" y1="67.7232" x1="20.0456" y2="59.0106" stroke-width="1.728" x2="20.1005"/>
 </g>
 <g partID="7494090">
  <line stroke="black" stroke-linecap="round" y1="67.6593" x1="20.1005" y2="71.3879" stroke-width="1.728" x2="14.9386"/>
 </g>
 <g partID="7493980">
  <line stroke="black" stroke-linecap="round" y1="58.6863" x1="20.1005" y2="67.6593" stroke-width="1.728" x2="20.1005"/>
 </g>
 <g partID="7493870">
  <line stroke="black" stroke-linecap="round" y1="53.8214" x1="27.4519" y2="58.6863" stroke-width="1.728" x2="20.1005"/>
 </g>
 <g partID="7494410">
  <line stroke="black" stroke-linecap="round" y1="113.407" x1="146.324" y2="119.079" stroke-width="1.728" x2="148.567"/>
 </g>
 <g partID="7495030">
  <line stroke="black" stroke-linecap="round" y1="15.2425" x1="8.46872" y2="10.4291" stroke-width="1.728" x2="5.09094"/>
 </g>
 <g partID="7495480">
  <line stroke="black" stroke-linecap="round" y1="15.2425" x1="21.2223" y2="15.2425" stroke-width="1.728" x2="8.46872"/>
 </g>
 <g partID="7496910">
  <line stroke="black" stroke-linecap="round" y1="50.6185" x1="15.8822" y2="48.4446" stroke-width="1.728" x2="18.857"/>
 </g>
 <g partID="7498960">
  <line stroke="black" stroke-linecap="round" y1="46.2263" x1="83.3332" y2="52.4104" stroke-width="1.728" x2="78.9954"/>
 </g>
 <g partID="7499100">
  <line stroke="black" stroke-linecap="round" y1="52.5191" x1="119.896" y2="36.5008" stroke-width="1.728" x2="106.235"/>
 </g>
 <g partID="7499190">
  <line stroke="black" stroke-linecap="round" y1="36.5008" x1="106.235" y2="36.3509" stroke-width="1.728" x2="76.5432"/>
 </g>
 <g partID="7499440">
  <line stroke="black" stroke-linecap="round" y1="49.0498" x1="123.804" y2="49.0498" stroke-width="1.728" x2="133.529"/>
 </g>
 <g partID="7499490">
  <line stroke="black" stroke-linecap="round" y1="31.1675" x1="96.6665" y2="31.1675" stroke-width="1.728" x2="108.588"/>
 </g>
 <g partID="7499560">
  <line stroke="black" stroke-linecap="round" y1="44.5008" x1="128.353" y2="44.5008" stroke-width="1.728" x2="137.137"/>
 </g>
 <g partID="7499610">
  <line stroke="black" stroke-linecap="round" y1="27.6381" x1="113.451" y2="44.5008" stroke-width="1.728" x2="128.353"/>
 </g>
 <g partID="7499660">
  <line stroke="black" stroke-linecap="round" y1="27.6381" x1="106.549" y2="27.6381" stroke-width="1.728" x2="113.451"/>
 </g>
 <g partID="7499900">
  <line stroke="black" stroke-linecap="round" y1="36.0302" x1="137.137" y2="41.8342" stroke-width="1.728" x2="141.686"/>
 </g>
 <g partID="7473790">
  <line stroke="black" stroke-linecap="round" y1="73.3728" x1="141.686" y2="73.3728" stroke-width="1.728" x2="133.174"/>
 </g>
 <g partID="7500170">
  <line stroke="black" stroke-linecap="round" y1="14.3873" x1="111.903" y2="10.8029" stroke-width="1.728" x2="111.906"/>
 </g>
 <g partID="7500670">
  <line stroke="black" stroke-linecap="round" y1="41.8342" x1="141.686" y2="73.3728" stroke-width="1.728" x2="141.686"/>
 </g>
 <g partID="7502590">
  <line stroke="black" stroke-linecap="round" y1="46.9002" x1="21.1113" y2="42.2408" stroke-width="1.728" x2="28.3779"/>
 </g>
 <g partID="7405230">
  <line stroke="black" stroke-linecap="round" y1="57.477" x1="74.2858" y2="57.477" stroke-width="0.576" x2="81.6483"/>
 </g>
 <g partID="7405620">
  <line stroke="black" stroke-linecap="round" y1="57.477" x1="81.6483" y2="55.005" stroke-width="0.576" x2="84.0783"/>
 </g>
 <g partID="7404850">
  <line stroke="black" stroke-linecap="round" y1="60.0883" x1="71.7474" y2="57.477" stroke-width="0.576" x2="74.2858"/>
 </g>
</svg>
