G04 MADE WITH FRITZING*
G04 WWW.FRITZING.ORG*
G04 DOUBLE SIDED*
G04 HOLES PLATED*
G04 CONTOUR ON CENTER OF CONTOUR VECTOR*
%ASAXBY*%
%FSLAX23Y23*%
%MOIN*%
%OFA0B0*%
%SFA1.0B1.0*%
%ADD10C,0.075000*%
%ADD11C,0.099000*%
%ADD12C,0.073889*%
%ADD13C,0.070000*%
%ADD14C,0.039370*%
%ADD15R,0.075000X0.075000*%
%ADD16R,0.099000X0.099000*%
%ADD17R,0.035433X0.031496*%
%ADD18R,0.062992X0.074803*%
%ADD19R,0.074803X0.062992*%
%ADD20R,0.070000X0.070000*%
%ADD21C,0.024000*%
%ADD22C,0.008000*%
%ADD23R,0.001000X0.001000*%
%LNCOPPER1*%
G90*
G70*
G54D10*
X54Y1650D03*
X154Y1650D03*
X254Y1650D03*
X354Y1650D03*
X454Y1650D03*
X554Y1650D03*
X654Y1650D03*
X754Y1650D03*
X854Y1650D03*
X954Y1650D03*
X1054Y1650D03*
X1154Y1650D03*
X1254Y1650D03*
X1354Y1650D03*
X1454Y1650D03*
X1554Y1650D03*
G54D11*
X194Y1429D03*
X394Y1429D03*
X294Y1229D03*
G54D10*
X63Y241D03*
X319Y241D03*
X63Y64D03*
X319Y64D03*
X535Y241D03*
X791Y241D03*
X535Y64D03*
X791Y64D03*
X2074Y91D03*
X1974Y91D03*
X1874Y91D03*
X1008Y241D03*
X1264Y241D03*
X1008Y64D03*
X1264Y64D03*
X1480Y241D03*
X1736Y241D03*
X1480Y64D03*
X1736Y64D03*
G54D12*
X180Y760D03*
X180Y860D03*
X180Y960D03*
X180Y1060D03*
G54D13*
X782Y922D03*
X882Y922D03*
X982Y922D03*
X1282Y922D03*
X1382Y922D03*
X1482Y922D03*
X1082Y922D03*
X1182Y922D03*
X1682Y922D03*
X1782Y922D03*
X1582Y922D03*
X782Y1022D03*
X882Y1022D03*
X982Y1022D03*
X1282Y1022D03*
X1382Y1022D03*
X1482Y1022D03*
X1082Y1022D03*
X1182Y1022D03*
X1682Y1022D03*
X1782Y1022D03*
X1582Y1022D03*
X582Y1022D03*
X682Y1022D03*
X582Y922D03*
X682Y922D03*
G54D14*
X244Y532D03*
X579Y532D03*
X1831Y753D03*
X531Y1190D03*
X1283Y1131D03*
X1378Y1135D03*
X1933Y1473D03*
X1044Y1267D03*
X277Y1110D03*
G54D15*
X54Y1651D03*
G54D16*
X394Y1429D03*
G54D17*
X1736Y1398D03*
X1736Y1473D03*
X1657Y1436D03*
G54D18*
X2031Y320D03*
X1909Y320D03*
G54D19*
X1831Y1398D03*
X1831Y1276D03*
G54D15*
X1874Y91D03*
G54D20*
X582Y922D03*
G54D21*
X883Y896D02*
X884Y875D01*
D02*
X884Y875D02*
X1020Y698D01*
D02*
X1020Y698D02*
X1799Y698D01*
D02*
X1909Y584D02*
X1909Y351D01*
D02*
X1799Y698D02*
X1909Y584D01*
D02*
X375Y1455D02*
X295Y1560D01*
D02*
X401Y1740D02*
X440Y1675D01*
D02*
X109Y1742D02*
X401Y1740D01*
D02*
X69Y1675D02*
X109Y1742D01*
D02*
X599Y1740D02*
X639Y1675D01*
D02*
X510Y1742D02*
X599Y1740D01*
D02*
X469Y1675D02*
X510Y1742D01*
D02*
X683Y1650D02*
X726Y1650D01*
D02*
X783Y1650D02*
X826Y1650D01*
D02*
X883Y1650D02*
X926Y1650D01*
D02*
X1650Y1446D02*
X1554Y1572D01*
D02*
X491Y1111D02*
X713Y1111D01*
D02*
X394Y1398D02*
X394Y1185D01*
D02*
X394Y1185D02*
X491Y1111D01*
D02*
X713Y1111D02*
X766Y1043D01*
G54D22*
D02*
X937Y974D02*
X830Y973D01*
D02*
X830Y973D02*
X797Y1008D01*
D02*
X969Y938D02*
X937Y974D01*
G54D21*
D02*
X560Y532D02*
X263Y532D01*
D02*
X579Y551D02*
X582Y896D01*
D02*
X575Y1630D02*
X1002Y1203D01*
D02*
X1002Y1203D02*
X1434Y1202D01*
D02*
X1434Y1202D02*
X1566Y1043D01*
D02*
X1748Y1398D02*
X1799Y1398D01*
D02*
X1508Y1339D02*
X1720Y1090D01*
D02*
X1855Y1090D02*
X1855Y855D01*
D02*
X1855Y855D02*
X1523Y854D01*
D02*
X1523Y854D02*
X1496Y900D01*
D02*
X1905Y1154D02*
X1905Y807D01*
D02*
X1905Y807D02*
X1268Y803D01*
D02*
X1268Y803D02*
X1197Y901D01*
D02*
X1074Y1629D02*
X1343Y1339D01*
D02*
X1273Y1629D02*
X1480Y1388D01*
G54D22*
D02*
X1240Y974D02*
X1198Y1009D01*
D02*
X1429Y974D02*
X1240Y974D01*
D02*
X1467Y1008D02*
X1429Y974D01*
G54D21*
D02*
X1391Y1121D02*
X1464Y1042D01*
D02*
X1748Y1473D02*
X1914Y1473D01*
D02*
X556Y1023D02*
X381Y1024D01*
D02*
X181Y757D02*
X278Y831D01*
D02*
X110Y808D02*
X181Y757D01*
D02*
X110Y1107D02*
X110Y808D01*
D02*
X192Y1197D02*
X110Y1107D01*
D02*
X193Y1398D02*
X192Y1197D01*
D02*
X2032Y288D02*
X2032Y197D01*
D02*
X1863Y1274D02*
X1905Y1271D01*
D02*
X550Y1190D02*
X748Y1190D01*
D02*
X748Y1190D02*
X866Y1043D01*
D02*
X1264Y1130D02*
X1157Y1130D01*
D02*
X1960Y116D02*
X1910Y201D01*
D02*
X1910Y201D02*
X1910Y288D01*
D02*
X1764Y69D02*
X1846Y86D01*
D02*
X213Y1067D02*
X221Y1069D01*
D02*
X394Y1185D02*
X394Y1398D01*
D02*
X279Y952D02*
X381Y1020D01*
D02*
X381Y1020D02*
X556Y1022D01*
D02*
X278Y831D02*
X279Y952D01*
D02*
X279Y832D02*
X207Y780D01*
D02*
X279Y957D02*
X279Y832D01*
D02*
X381Y1024D02*
X279Y957D01*
D02*
X2032Y197D02*
X2063Y118D01*
D02*
X118Y1560D02*
X71Y1627D01*
D02*
X295Y1560D02*
X118Y1560D01*
D02*
X221Y1069D02*
X262Y1099D01*
D02*
X1157Y1130D02*
X1097Y1044D01*
D02*
X1665Y1042D02*
X1475Y1265D01*
D02*
X1475Y1265D02*
X1063Y1267D01*
D02*
X1720Y1090D02*
X1855Y1090D01*
D02*
X1343Y1339D02*
X1508Y1339D01*
D02*
X1783Y1154D02*
X1905Y1154D01*
D02*
X1576Y1388D02*
X1783Y1154D01*
D02*
X1480Y1388D02*
X1576Y1388D01*
D02*
X1905Y1271D02*
X1968Y1191D01*
D02*
X1968Y753D02*
X1850Y753D01*
D02*
X1554Y1572D02*
X1554Y1622D01*
D02*
X1968Y1191D02*
X1968Y753D01*
D02*
X293Y1120D02*
X394Y1185D01*
G54D22*
D02*
X1032Y973D02*
X1134Y973D01*
D02*
X1134Y973D02*
X1168Y1008D01*
D02*
X996Y937D02*
X1032Y973D01*
G54D23*
X577Y1058D02*
X586Y1058D01*
X677Y1058D02*
X686Y1058D01*
X777Y1058D02*
X786Y1058D01*
X877Y1058D02*
X886Y1058D01*
X977Y1058D02*
X986Y1058D01*
X1077Y1058D02*
X1086Y1058D01*
X1176Y1058D02*
X1186Y1058D01*
X1276Y1058D02*
X1286Y1058D01*
X1376Y1058D02*
X1386Y1058D01*
X1476Y1058D02*
X1486Y1058D01*
X1576Y1058D02*
X1586Y1058D01*
X1676Y1058D02*
X1686Y1058D01*
X1776Y1058D02*
X1786Y1058D01*
X573Y1057D02*
X590Y1057D01*
X673Y1057D02*
X690Y1057D01*
X773Y1057D02*
X790Y1057D01*
X873Y1057D02*
X890Y1057D01*
X973Y1057D02*
X990Y1057D01*
X1073Y1057D02*
X1090Y1057D01*
X1172Y1057D02*
X1190Y1057D01*
X1272Y1057D02*
X1290Y1057D01*
X1372Y1057D02*
X1390Y1057D01*
X1472Y1057D02*
X1490Y1057D01*
X1572Y1057D02*
X1590Y1057D01*
X1672Y1057D02*
X1690Y1057D01*
X1772Y1057D02*
X1790Y1057D01*
X570Y1056D02*
X593Y1056D01*
X670Y1056D02*
X693Y1056D01*
X770Y1056D02*
X793Y1056D01*
X870Y1056D02*
X893Y1056D01*
X970Y1056D02*
X993Y1056D01*
X1070Y1056D02*
X1093Y1056D01*
X1170Y1056D02*
X1193Y1056D01*
X1270Y1056D02*
X1293Y1056D01*
X1370Y1056D02*
X1393Y1056D01*
X1470Y1056D02*
X1493Y1056D01*
X1570Y1056D02*
X1593Y1056D01*
X1670Y1056D02*
X1692Y1056D01*
X1770Y1056D02*
X1792Y1056D01*
X568Y1055D02*
X595Y1055D01*
X668Y1055D02*
X695Y1055D01*
X768Y1055D02*
X795Y1055D01*
X868Y1055D02*
X895Y1055D01*
X968Y1055D02*
X995Y1055D01*
X1068Y1055D02*
X1095Y1055D01*
X1168Y1055D02*
X1195Y1055D01*
X1268Y1055D02*
X1295Y1055D01*
X1367Y1055D02*
X1395Y1055D01*
X1467Y1055D02*
X1495Y1055D01*
X1567Y1055D02*
X1595Y1055D01*
X1667Y1055D02*
X1695Y1055D01*
X1767Y1055D02*
X1795Y1055D01*
X566Y1054D02*
X597Y1054D01*
X666Y1054D02*
X697Y1054D01*
X766Y1054D02*
X797Y1054D01*
X866Y1054D02*
X897Y1054D01*
X966Y1054D02*
X997Y1054D01*
X1066Y1054D02*
X1097Y1054D01*
X1166Y1054D02*
X1197Y1054D01*
X1266Y1054D02*
X1297Y1054D01*
X1366Y1054D02*
X1397Y1054D01*
X1466Y1054D02*
X1497Y1054D01*
X1566Y1054D02*
X1597Y1054D01*
X1665Y1054D02*
X1697Y1054D01*
X1765Y1054D02*
X1797Y1054D01*
X564Y1053D02*
X599Y1053D01*
X664Y1053D02*
X699Y1053D01*
X764Y1053D02*
X799Y1053D01*
X864Y1053D02*
X898Y1053D01*
X964Y1053D02*
X998Y1053D01*
X1064Y1053D02*
X1098Y1053D01*
X1164Y1053D02*
X1198Y1053D01*
X1264Y1053D02*
X1298Y1053D01*
X1364Y1053D02*
X1398Y1053D01*
X1464Y1053D02*
X1498Y1053D01*
X1564Y1053D02*
X1598Y1053D01*
X1664Y1053D02*
X1698Y1053D01*
X1764Y1053D02*
X1798Y1053D01*
X563Y1052D02*
X600Y1052D01*
X663Y1052D02*
X700Y1052D01*
X763Y1052D02*
X800Y1052D01*
X863Y1052D02*
X900Y1052D01*
X963Y1052D02*
X1000Y1052D01*
X1063Y1052D02*
X1100Y1052D01*
X1163Y1052D02*
X1200Y1052D01*
X1263Y1052D02*
X1300Y1052D01*
X1362Y1052D02*
X1400Y1052D01*
X1462Y1052D02*
X1500Y1052D01*
X1562Y1052D02*
X1600Y1052D01*
X1662Y1052D02*
X1700Y1052D01*
X1762Y1052D02*
X1800Y1052D01*
X561Y1051D02*
X601Y1051D01*
X661Y1051D02*
X701Y1051D01*
X761Y1051D02*
X801Y1051D01*
X861Y1051D02*
X901Y1051D01*
X961Y1051D02*
X1001Y1051D01*
X1061Y1051D02*
X1101Y1051D01*
X1161Y1051D02*
X1201Y1051D01*
X1261Y1051D02*
X1301Y1051D01*
X1361Y1051D02*
X1401Y1051D01*
X1461Y1051D02*
X1501Y1051D01*
X1561Y1051D02*
X1601Y1051D01*
X1661Y1051D02*
X1701Y1051D01*
X1761Y1051D02*
X1801Y1051D01*
X560Y1050D02*
X603Y1050D01*
X660Y1050D02*
X703Y1050D01*
X760Y1050D02*
X803Y1050D01*
X860Y1050D02*
X903Y1050D01*
X960Y1050D02*
X1003Y1050D01*
X1060Y1050D02*
X1102Y1050D01*
X1160Y1050D02*
X1202Y1050D01*
X1260Y1050D02*
X1302Y1050D01*
X1360Y1050D02*
X1402Y1050D01*
X1460Y1050D02*
X1502Y1050D01*
X1560Y1050D02*
X1602Y1050D01*
X1660Y1050D02*
X1702Y1050D01*
X1760Y1050D02*
X1802Y1050D01*
X559Y1049D02*
X604Y1049D01*
X659Y1049D02*
X704Y1049D01*
X759Y1049D02*
X804Y1049D01*
X859Y1049D02*
X904Y1049D01*
X959Y1049D02*
X1004Y1049D01*
X1059Y1049D02*
X1104Y1049D01*
X1159Y1049D02*
X1204Y1049D01*
X1259Y1049D02*
X1304Y1049D01*
X1359Y1049D02*
X1404Y1049D01*
X1459Y1049D02*
X1503Y1049D01*
X1559Y1049D02*
X1603Y1049D01*
X1659Y1049D02*
X1703Y1049D01*
X1759Y1049D02*
X1803Y1049D01*
X558Y1048D02*
X605Y1048D01*
X658Y1048D02*
X705Y1048D01*
X758Y1048D02*
X805Y1048D01*
X858Y1048D02*
X905Y1048D01*
X958Y1048D02*
X1005Y1048D01*
X1058Y1048D02*
X1105Y1048D01*
X1158Y1048D02*
X1205Y1048D01*
X1258Y1048D02*
X1305Y1048D01*
X1358Y1048D02*
X1405Y1048D01*
X1458Y1048D02*
X1505Y1048D01*
X1558Y1048D02*
X1605Y1048D01*
X1658Y1048D02*
X1704Y1048D01*
X1758Y1048D02*
X1804Y1048D01*
X557Y1047D02*
X606Y1047D01*
X657Y1047D02*
X706Y1047D01*
X757Y1047D02*
X806Y1047D01*
X857Y1047D02*
X906Y1047D01*
X957Y1047D02*
X1006Y1047D01*
X1057Y1047D02*
X1106Y1047D01*
X1157Y1047D02*
X1206Y1047D01*
X1257Y1047D02*
X1306Y1047D01*
X1357Y1047D02*
X1406Y1047D01*
X1457Y1047D02*
X1506Y1047D01*
X1557Y1047D02*
X1605Y1047D01*
X1657Y1047D02*
X1705Y1047D01*
X1757Y1047D02*
X1805Y1047D01*
X556Y1046D02*
X607Y1046D01*
X656Y1046D02*
X707Y1046D01*
X756Y1046D02*
X807Y1046D01*
X856Y1046D02*
X907Y1046D01*
X956Y1046D02*
X1007Y1046D01*
X1056Y1046D02*
X1107Y1046D01*
X1156Y1046D02*
X1207Y1046D01*
X1256Y1046D02*
X1307Y1046D01*
X1356Y1046D02*
X1406Y1046D01*
X1456Y1046D02*
X1506Y1046D01*
X1556Y1046D02*
X1606Y1046D01*
X1656Y1046D02*
X1706Y1046D01*
X1756Y1046D02*
X1806Y1046D01*
X555Y1045D02*
X608Y1045D01*
X655Y1045D02*
X708Y1045D01*
X755Y1045D02*
X808Y1045D01*
X855Y1045D02*
X908Y1045D01*
X955Y1045D02*
X1007Y1045D01*
X1055Y1045D02*
X1107Y1045D01*
X1155Y1045D02*
X1207Y1045D01*
X1255Y1045D02*
X1307Y1045D01*
X1355Y1045D02*
X1407Y1045D01*
X1455Y1045D02*
X1507Y1045D01*
X1555Y1045D02*
X1607Y1045D01*
X1655Y1045D02*
X1707Y1045D01*
X1755Y1045D02*
X1807Y1045D01*
X554Y1044D02*
X608Y1044D01*
X654Y1044D02*
X708Y1044D01*
X754Y1044D02*
X808Y1044D01*
X854Y1044D02*
X908Y1044D01*
X954Y1044D02*
X1008Y1044D01*
X1054Y1044D02*
X1108Y1044D01*
X1154Y1044D02*
X1208Y1044D01*
X1254Y1044D02*
X1308Y1044D01*
X1354Y1044D02*
X1408Y1044D01*
X1454Y1044D02*
X1508Y1044D01*
X1554Y1044D02*
X1608Y1044D01*
X1654Y1044D02*
X1708Y1044D01*
X1754Y1044D02*
X1808Y1044D01*
X554Y1043D02*
X609Y1043D01*
X654Y1043D02*
X709Y1043D01*
X754Y1043D02*
X809Y1043D01*
X854Y1043D02*
X909Y1043D01*
X954Y1043D02*
X1009Y1043D01*
X1053Y1043D02*
X1109Y1043D01*
X1153Y1043D02*
X1209Y1043D01*
X1253Y1043D02*
X1309Y1043D01*
X1353Y1043D02*
X1409Y1043D01*
X1453Y1043D02*
X1509Y1043D01*
X1553Y1043D02*
X1609Y1043D01*
X1653Y1043D02*
X1709Y1043D01*
X1753Y1043D02*
X1809Y1043D01*
X553Y1042D02*
X610Y1042D01*
X653Y1042D02*
X710Y1042D01*
X753Y1042D02*
X810Y1042D01*
X853Y1042D02*
X910Y1042D01*
X953Y1042D02*
X1010Y1042D01*
X1053Y1042D02*
X1110Y1042D01*
X1153Y1042D02*
X1210Y1042D01*
X1253Y1042D02*
X1310Y1042D01*
X1353Y1042D02*
X1410Y1042D01*
X1453Y1042D02*
X1510Y1042D01*
X1553Y1042D02*
X1610Y1042D01*
X1653Y1042D02*
X1709Y1042D01*
X1753Y1042D02*
X1809Y1042D01*
X552Y1041D02*
X611Y1041D01*
X652Y1041D02*
X711Y1041D01*
X752Y1041D02*
X810Y1041D01*
X852Y1041D02*
X910Y1041D01*
X952Y1041D02*
X1010Y1041D01*
X1052Y1041D02*
X1110Y1041D01*
X1152Y1041D02*
X1210Y1041D01*
X1252Y1041D02*
X1310Y1041D01*
X1352Y1041D02*
X1410Y1041D01*
X1452Y1041D02*
X1510Y1041D01*
X1552Y1041D02*
X1610Y1041D01*
X1652Y1041D02*
X1710Y1041D01*
X1752Y1041D02*
X1810Y1041D01*
X552Y1040D02*
X611Y1040D01*
X652Y1040D02*
X711Y1040D01*
X752Y1040D02*
X811Y1040D01*
X852Y1040D02*
X911Y1040D01*
X952Y1040D02*
X1011Y1040D01*
X1052Y1040D02*
X1111Y1040D01*
X1151Y1040D02*
X1211Y1040D01*
X1251Y1040D02*
X1311Y1040D01*
X1351Y1040D02*
X1411Y1040D01*
X1451Y1040D02*
X1511Y1040D01*
X1551Y1040D02*
X1611Y1040D01*
X1651Y1040D02*
X1711Y1040D01*
X1751Y1040D02*
X1811Y1040D01*
X551Y1039D02*
X612Y1039D01*
X651Y1039D02*
X712Y1039D01*
X751Y1039D02*
X812Y1039D01*
X851Y1039D02*
X912Y1039D01*
X951Y1039D02*
X1012Y1039D01*
X1051Y1039D02*
X1112Y1039D01*
X1151Y1039D02*
X1212Y1039D01*
X1251Y1039D02*
X1311Y1039D01*
X1351Y1039D02*
X1411Y1039D01*
X1451Y1039D02*
X1511Y1039D01*
X1551Y1039D02*
X1611Y1039D01*
X1651Y1039D02*
X1711Y1039D01*
X1751Y1039D02*
X1811Y1039D01*
X551Y1038D02*
X576Y1038D01*
X587Y1038D02*
X612Y1038D01*
X651Y1038D02*
X676Y1038D01*
X687Y1038D02*
X712Y1038D01*
X751Y1038D02*
X776Y1038D01*
X787Y1038D02*
X812Y1038D01*
X850Y1038D02*
X876Y1038D01*
X886Y1038D02*
X912Y1038D01*
X950Y1038D02*
X976Y1038D01*
X986Y1038D02*
X1012Y1038D01*
X1050Y1038D02*
X1076Y1038D01*
X1086Y1038D02*
X1112Y1038D01*
X1150Y1038D02*
X1176Y1038D01*
X1186Y1038D02*
X1212Y1038D01*
X1250Y1038D02*
X1276Y1038D01*
X1286Y1038D02*
X1312Y1038D01*
X1350Y1038D02*
X1376Y1038D01*
X1386Y1038D02*
X1412Y1038D01*
X1450Y1038D02*
X1476Y1038D01*
X1486Y1038D02*
X1512Y1038D01*
X1550Y1038D02*
X1576Y1038D01*
X1586Y1038D02*
X1612Y1038D01*
X1650Y1038D02*
X1676Y1038D01*
X1686Y1038D02*
X1712Y1038D01*
X1750Y1038D02*
X1776Y1038D01*
X1786Y1038D02*
X1812Y1038D01*
X550Y1037D02*
X573Y1037D01*
X590Y1037D02*
X613Y1037D01*
X650Y1037D02*
X673Y1037D01*
X690Y1037D02*
X713Y1037D01*
X750Y1037D02*
X773Y1037D01*
X790Y1037D02*
X813Y1037D01*
X850Y1037D02*
X873Y1037D01*
X889Y1037D02*
X913Y1037D01*
X950Y1037D02*
X973Y1037D01*
X989Y1037D02*
X1013Y1037D01*
X1050Y1037D02*
X1073Y1037D01*
X1089Y1037D02*
X1113Y1037D01*
X1150Y1037D02*
X1173Y1037D01*
X1189Y1037D02*
X1213Y1037D01*
X1250Y1037D02*
X1273Y1037D01*
X1289Y1037D02*
X1313Y1037D01*
X1350Y1037D02*
X1373Y1037D01*
X1389Y1037D02*
X1412Y1037D01*
X1450Y1037D02*
X1473Y1037D01*
X1489Y1037D02*
X1512Y1037D01*
X1550Y1037D02*
X1573Y1037D01*
X1589Y1037D02*
X1612Y1037D01*
X1650Y1037D02*
X1673Y1037D01*
X1689Y1037D02*
X1712Y1037D01*
X1750Y1037D02*
X1773Y1037D01*
X1789Y1037D02*
X1812Y1037D01*
X550Y1036D02*
X572Y1036D01*
X591Y1036D02*
X613Y1036D01*
X650Y1036D02*
X671Y1036D01*
X691Y1036D02*
X713Y1036D01*
X750Y1036D02*
X771Y1036D01*
X791Y1036D02*
X813Y1036D01*
X850Y1036D02*
X871Y1036D01*
X891Y1036D02*
X913Y1036D01*
X950Y1036D02*
X971Y1036D01*
X991Y1036D02*
X1013Y1036D01*
X1049Y1036D02*
X1071Y1036D01*
X1091Y1036D02*
X1113Y1036D01*
X1149Y1036D02*
X1171Y1036D01*
X1191Y1036D02*
X1213Y1036D01*
X1249Y1036D02*
X1271Y1036D01*
X1291Y1036D02*
X1313Y1036D01*
X1349Y1036D02*
X1371Y1036D01*
X1391Y1036D02*
X1413Y1036D01*
X1449Y1036D02*
X1471Y1036D01*
X1491Y1036D02*
X1513Y1036D01*
X1549Y1036D02*
X1571Y1036D01*
X1591Y1036D02*
X1613Y1036D01*
X1649Y1036D02*
X1671Y1036D01*
X1691Y1036D02*
X1713Y1036D01*
X1749Y1036D02*
X1771Y1036D01*
X1791Y1036D02*
X1813Y1036D01*
X549Y1035D02*
X570Y1035D01*
X593Y1035D02*
X614Y1035D01*
X649Y1035D02*
X670Y1035D01*
X693Y1035D02*
X714Y1035D01*
X749Y1035D02*
X770Y1035D01*
X793Y1035D02*
X814Y1035D01*
X849Y1035D02*
X870Y1035D01*
X893Y1035D02*
X914Y1035D01*
X949Y1035D02*
X970Y1035D01*
X992Y1035D02*
X1013Y1035D01*
X1049Y1035D02*
X1070Y1035D01*
X1092Y1035D02*
X1113Y1035D01*
X1149Y1035D02*
X1170Y1035D01*
X1192Y1035D02*
X1213Y1035D01*
X1249Y1035D02*
X1270Y1035D01*
X1292Y1035D02*
X1313Y1035D01*
X1349Y1035D02*
X1370Y1035D01*
X1392Y1035D02*
X1413Y1035D01*
X1449Y1035D02*
X1470Y1035D01*
X1492Y1035D02*
X1513Y1035D01*
X1549Y1035D02*
X1570Y1035D01*
X1592Y1035D02*
X1613Y1035D01*
X1649Y1035D02*
X1670Y1035D01*
X1692Y1035D02*
X1713Y1035D01*
X1749Y1035D02*
X1770Y1035D01*
X1792Y1035D02*
X1813Y1035D01*
X549Y1034D02*
X569Y1034D01*
X594Y1034D02*
X614Y1034D01*
X649Y1034D02*
X669Y1034D01*
X694Y1034D02*
X714Y1034D01*
X749Y1034D02*
X769Y1034D01*
X794Y1034D02*
X814Y1034D01*
X849Y1034D02*
X869Y1034D01*
X894Y1034D02*
X914Y1034D01*
X949Y1034D02*
X969Y1034D01*
X993Y1034D02*
X1014Y1034D01*
X1049Y1034D02*
X1069Y1034D01*
X1093Y1034D02*
X1114Y1034D01*
X1149Y1034D02*
X1169Y1034D01*
X1193Y1034D02*
X1214Y1034D01*
X1249Y1034D02*
X1269Y1034D01*
X1293Y1034D02*
X1314Y1034D01*
X1349Y1034D02*
X1369Y1034D01*
X1393Y1034D02*
X1414Y1034D01*
X1449Y1034D02*
X1469Y1034D01*
X1493Y1034D02*
X1514Y1034D01*
X1548Y1034D02*
X1569Y1034D01*
X1593Y1034D02*
X1614Y1034D01*
X1648Y1034D02*
X1669Y1034D01*
X1693Y1034D02*
X1714Y1034D01*
X1748Y1034D02*
X1769Y1034D01*
X1793Y1034D02*
X1814Y1034D01*
X549Y1033D02*
X568Y1033D01*
X594Y1033D02*
X614Y1033D01*
X648Y1033D02*
X668Y1033D01*
X694Y1033D02*
X714Y1033D01*
X748Y1033D02*
X768Y1033D01*
X794Y1033D02*
X814Y1033D01*
X848Y1033D02*
X868Y1033D01*
X894Y1033D02*
X914Y1033D01*
X948Y1033D02*
X968Y1033D01*
X994Y1033D02*
X1014Y1033D01*
X1048Y1033D02*
X1068Y1033D01*
X1094Y1033D02*
X1114Y1033D01*
X1148Y1033D02*
X1168Y1033D01*
X1194Y1033D02*
X1214Y1033D01*
X1248Y1033D02*
X1268Y1033D01*
X1294Y1033D02*
X1314Y1033D01*
X1348Y1033D02*
X1368Y1033D01*
X1394Y1033D02*
X1414Y1033D01*
X1448Y1033D02*
X1468Y1033D01*
X1494Y1033D02*
X1514Y1033D01*
X1548Y1033D02*
X1568Y1033D01*
X1594Y1033D02*
X1614Y1033D01*
X1648Y1033D02*
X1668Y1033D01*
X1694Y1033D02*
X1714Y1033D01*
X1748Y1033D02*
X1768Y1033D01*
X1794Y1033D02*
X1814Y1033D01*
X548Y1032D02*
X568Y1032D01*
X595Y1032D02*
X615Y1032D01*
X648Y1032D02*
X668Y1032D01*
X695Y1032D02*
X715Y1032D01*
X748Y1032D02*
X768Y1032D01*
X795Y1032D02*
X815Y1032D01*
X848Y1032D02*
X868Y1032D01*
X895Y1032D02*
X915Y1032D01*
X948Y1032D02*
X968Y1032D01*
X995Y1032D02*
X1015Y1032D01*
X1048Y1032D02*
X1068Y1032D01*
X1095Y1032D02*
X1114Y1032D01*
X1148Y1032D02*
X1168Y1032D01*
X1195Y1032D02*
X1214Y1032D01*
X1248Y1032D02*
X1268Y1032D01*
X1295Y1032D02*
X1314Y1032D01*
X1348Y1032D02*
X1368Y1032D01*
X1395Y1032D02*
X1414Y1032D01*
X1448Y1032D02*
X1468Y1032D01*
X1495Y1032D02*
X1514Y1032D01*
X1548Y1032D02*
X1567Y1032D01*
X1595Y1032D02*
X1614Y1032D01*
X1648Y1032D02*
X1667Y1032D01*
X1695Y1032D02*
X1714Y1032D01*
X1748Y1032D02*
X1767Y1032D01*
X1795Y1032D02*
X1814Y1032D01*
X548Y1031D02*
X567Y1031D01*
X596Y1031D02*
X615Y1031D01*
X648Y1031D02*
X667Y1031D01*
X695Y1031D02*
X715Y1031D01*
X748Y1031D02*
X767Y1031D01*
X795Y1031D02*
X815Y1031D01*
X848Y1031D02*
X867Y1031D01*
X895Y1031D02*
X915Y1031D01*
X948Y1031D02*
X967Y1031D01*
X995Y1031D02*
X1015Y1031D01*
X1048Y1031D02*
X1067Y1031D01*
X1095Y1031D02*
X1115Y1031D01*
X1148Y1031D02*
X1167Y1031D01*
X1195Y1031D02*
X1215Y1031D01*
X1248Y1031D02*
X1267Y1031D01*
X1295Y1031D02*
X1315Y1031D01*
X1348Y1031D02*
X1367Y1031D01*
X1395Y1031D02*
X1415Y1031D01*
X1448Y1031D02*
X1467Y1031D01*
X1495Y1031D02*
X1515Y1031D01*
X1548Y1031D02*
X1567Y1031D01*
X1595Y1031D02*
X1615Y1031D01*
X1648Y1031D02*
X1667Y1031D01*
X1695Y1031D02*
X1715Y1031D01*
X1747Y1031D02*
X1767Y1031D01*
X1795Y1031D02*
X1815Y1031D01*
X548Y1030D02*
X567Y1030D01*
X596Y1030D02*
X615Y1030D01*
X648Y1030D02*
X667Y1030D01*
X696Y1030D02*
X715Y1030D01*
X748Y1030D02*
X767Y1030D01*
X796Y1030D02*
X815Y1030D01*
X848Y1030D02*
X867Y1030D01*
X896Y1030D02*
X915Y1030D01*
X948Y1030D02*
X967Y1030D01*
X996Y1030D02*
X1015Y1030D01*
X1047Y1030D02*
X1067Y1030D01*
X1096Y1030D02*
X1115Y1030D01*
X1147Y1030D02*
X1167Y1030D01*
X1196Y1030D02*
X1215Y1030D01*
X1247Y1030D02*
X1267Y1030D01*
X1296Y1030D02*
X1315Y1030D01*
X1347Y1030D02*
X1367Y1030D01*
X1396Y1030D02*
X1415Y1030D01*
X1447Y1030D02*
X1467Y1030D01*
X1496Y1030D02*
X1515Y1030D01*
X1547Y1030D02*
X1567Y1030D01*
X1596Y1030D02*
X1615Y1030D01*
X1647Y1030D02*
X1667Y1030D01*
X1696Y1030D02*
X1715Y1030D01*
X1747Y1030D02*
X1767Y1030D01*
X1795Y1030D02*
X1815Y1030D01*
X547Y1029D02*
X567Y1029D01*
X596Y1029D02*
X615Y1029D01*
X647Y1029D02*
X667Y1029D01*
X696Y1029D02*
X715Y1029D01*
X747Y1029D02*
X767Y1029D01*
X796Y1029D02*
X815Y1029D01*
X847Y1029D02*
X867Y1029D01*
X896Y1029D02*
X915Y1029D01*
X947Y1029D02*
X966Y1029D01*
X996Y1029D02*
X1015Y1029D01*
X1047Y1029D02*
X1066Y1029D01*
X1096Y1029D02*
X1115Y1029D01*
X1147Y1029D02*
X1166Y1029D01*
X1196Y1029D02*
X1215Y1029D01*
X1247Y1029D02*
X1266Y1029D01*
X1296Y1029D02*
X1315Y1029D01*
X1347Y1029D02*
X1366Y1029D01*
X1396Y1029D02*
X1415Y1029D01*
X1447Y1029D02*
X1466Y1029D01*
X1496Y1029D02*
X1515Y1029D01*
X1547Y1029D02*
X1566Y1029D01*
X1596Y1029D02*
X1615Y1029D01*
X1647Y1029D02*
X1666Y1029D01*
X1696Y1029D02*
X1715Y1029D01*
X1747Y1029D02*
X1766Y1029D01*
X1796Y1029D02*
X1815Y1029D01*
X547Y1028D02*
X566Y1028D01*
X596Y1028D02*
X616Y1028D01*
X647Y1028D02*
X666Y1028D01*
X696Y1028D02*
X716Y1028D01*
X747Y1028D02*
X766Y1028D01*
X796Y1028D02*
X815Y1028D01*
X847Y1028D02*
X866Y1028D01*
X896Y1028D02*
X915Y1028D01*
X947Y1028D02*
X966Y1028D01*
X996Y1028D02*
X1015Y1028D01*
X1047Y1028D02*
X1066Y1028D01*
X1096Y1028D02*
X1115Y1028D01*
X1147Y1028D02*
X1166Y1028D01*
X1196Y1028D02*
X1215Y1028D01*
X1247Y1028D02*
X1266Y1028D01*
X1296Y1028D02*
X1315Y1028D01*
X1347Y1028D02*
X1366Y1028D01*
X1396Y1028D02*
X1415Y1028D01*
X1447Y1028D02*
X1466Y1028D01*
X1496Y1028D02*
X1515Y1028D01*
X1547Y1028D02*
X1566Y1028D01*
X1596Y1028D02*
X1615Y1028D01*
X1647Y1028D02*
X1666Y1028D01*
X1696Y1028D02*
X1715Y1028D01*
X1747Y1028D02*
X1766Y1028D01*
X1796Y1028D02*
X1815Y1028D01*
X547Y1027D02*
X566Y1027D01*
X597Y1027D02*
X616Y1027D01*
X647Y1027D02*
X666Y1027D01*
X697Y1027D02*
X716Y1027D01*
X747Y1027D02*
X766Y1027D01*
X797Y1027D02*
X816Y1027D01*
X847Y1027D02*
X866Y1027D01*
X897Y1027D02*
X916Y1027D01*
X947Y1027D02*
X966Y1027D01*
X997Y1027D02*
X1016Y1027D01*
X1047Y1027D02*
X1066Y1027D01*
X1096Y1027D02*
X1116Y1027D01*
X1147Y1027D02*
X1166Y1027D01*
X1196Y1027D02*
X1215Y1027D01*
X1247Y1027D02*
X1266Y1027D01*
X1296Y1027D02*
X1315Y1027D01*
X1347Y1027D02*
X1366Y1027D01*
X1396Y1027D02*
X1415Y1027D01*
X1447Y1027D02*
X1466Y1027D01*
X1496Y1027D02*
X1515Y1027D01*
X1547Y1027D02*
X1566Y1027D01*
X1596Y1027D02*
X1615Y1027D01*
X1647Y1027D02*
X1666Y1027D01*
X1696Y1027D02*
X1715Y1027D01*
X1747Y1027D02*
X1766Y1027D01*
X1796Y1027D02*
X1815Y1027D01*
X547Y1026D02*
X566Y1026D01*
X597Y1026D02*
X616Y1026D01*
X647Y1026D02*
X666Y1026D01*
X697Y1026D02*
X716Y1026D01*
X747Y1026D02*
X766Y1026D01*
X797Y1026D02*
X816Y1026D01*
X847Y1026D02*
X866Y1026D01*
X897Y1026D02*
X916Y1026D01*
X947Y1026D02*
X966Y1026D01*
X997Y1026D02*
X1016Y1026D01*
X1047Y1026D02*
X1066Y1026D01*
X1097Y1026D02*
X1116Y1026D01*
X1147Y1026D02*
X1166Y1026D01*
X1197Y1026D02*
X1216Y1026D01*
X1247Y1026D02*
X1266Y1026D01*
X1297Y1026D02*
X1316Y1026D01*
X1347Y1026D02*
X1366Y1026D01*
X1396Y1026D02*
X1416Y1026D01*
X1447Y1026D02*
X1466Y1026D01*
X1496Y1026D02*
X1515Y1026D01*
X1547Y1026D02*
X1566Y1026D01*
X1596Y1026D02*
X1615Y1026D01*
X1647Y1026D02*
X1666Y1026D01*
X1696Y1026D02*
X1715Y1026D01*
X1747Y1026D02*
X1766Y1026D01*
X1796Y1026D02*
X1815Y1026D01*
X547Y1025D02*
X566Y1025D01*
X597Y1025D02*
X616Y1025D01*
X647Y1025D02*
X666Y1025D01*
X697Y1025D02*
X716Y1025D01*
X747Y1025D02*
X766Y1025D01*
X797Y1025D02*
X816Y1025D01*
X847Y1025D02*
X866Y1025D01*
X897Y1025D02*
X916Y1025D01*
X947Y1025D02*
X966Y1025D01*
X997Y1025D02*
X1016Y1025D01*
X1047Y1025D02*
X1066Y1025D01*
X1097Y1025D02*
X1116Y1025D01*
X1147Y1025D02*
X1166Y1025D01*
X1197Y1025D02*
X1216Y1025D01*
X1247Y1025D02*
X1266Y1025D01*
X1297Y1025D02*
X1316Y1025D01*
X1347Y1025D02*
X1366Y1025D01*
X1397Y1025D02*
X1416Y1025D01*
X1447Y1025D02*
X1466Y1025D01*
X1497Y1025D02*
X1516Y1025D01*
X1547Y1025D02*
X1566Y1025D01*
X1597Y1025D02*
X1616Y1025D01*
X1647Y1025D02*
X1666Y1025D01*
X1696Y1025D02*
X1715Y1025D01*
X1747Y1025D02*
X1766Y1025D01*
X1796Y1025D02*
X1815Y1025D01*
X547Y1024D02*
X566Y1024D01*
X597Y1024D02*
X616Y1024D01*
X647Y1024D02*
X666Y1024D01*
X697Y1024D02*
X716Y1024D01*
X747Y1024D02*
X766Y1024D01*
X797Y1024D02*
X816Y1024D01*
X847Y1024D02*
X866Y1024D01*
X897Y1024D02*
X916Y1024D01*
X947Y1024D02*
X966Y1024D01*
X997Y1024D02*
X1016Y1024D01*
X1047Y1024D02*
X1066Y1024D01*
X1097Y1024D02*
X1116Y1024D01*
X1147Y1024D02*
X1166Y1024D01*
X1197Y1024D02*
X1216Y1024D01*
X1247Y1024D02*
X1266Y1024D01*
X1297Y1024D02*
X1316Y1024D01*
X1347Y1024D02*
X1366Y1024D01*
X1397Y1024D02*
X1416Y1024D01*
X1447Y1024D02*
X1466Y1024D01*
X1497Y1024D02*
X1516Y1024D01*
X1547Y1024D02*
X1566Y1024D01*
X1597Y1024D02*
X1616Y1024D01*
X1647Y1024D02*
X1666Y1024D01*
X1697Y1024D02*
X1716Y1024D01*
X1747Y1024D02*
X1766Y1024D01*
X1796Y1024D02*
X1815Y1024D01*
X547Y1023D02*
X566Y1023D01*
X597Y1023D02*
X616Y1023D01*
X647Y1023D02*
X666Y1023D01*
X697Y1023D02*
X716Y1023D01*
X747Y1023D02*
X766Y1023D01*
X797Y1023D02*
X816Y1023D01*
X847Y1023D02*
X866Y1023D01*
X897Y1023D02*
X916Y1023D01*
X947Y1023D02*
X966Y1023D01*
X997Y1023D02*
X1016Y1023D01*
X1047Y1023D02*
X1066Y1023D01*
X1097Y1023D02*
X1116Y1023D01*
X1147Y1023D02*
X1166Y1023D01*
X1197Y1023D02*
X1216Y1023D01*
X1247Y1023D02*
X1266Y1023D01*
X1297Y1023D02*
X1316Y1023D01*
X1347Y1023D02*
X1366Y1023D01*
X1397Y1023D02*
X1416Y1023D01*
X1447Y1023D02*
X1466Y1023D01*
X1497Y1023D02*
X1516Y1023D01*
X1547Y1023D02*
X1566Y1023D01*
X1597Y1023D02*
X1616Y1023D01*
X1647Y1023D02*
X1666Y1023D01*
X1697Y1023D02*
X1716Y1023D01*
X1747Y1023D02*
X1766Y1023D01*
X1796Y1023D02*
X1815Y1023D01*
X547Y1022D02*
X566Y1022D01*
X597Y1022D02*
X616Y1022D01*
X647Y1022D02*
X666Y1022D01*
X697Y1022D02*
X716Y1022D01*
X747Y1022D02*
X766Y1022D01*
X797Y1022D02*
X816Y1022D01*
X847Y1022D02*
X866Y1022D01*
X897Y1022D02*
X916Y1022D01*
X947Y1022D02*
X966Y1022D01*
X997Y1022D02*
X1016Y1022D01*
X1047Y1022D02*
X1066Y1022D01*
X1097Y1022D02*
X1116Y1022D01*
X1147Y1022D02*
X1166Y1022D01*
X1197Y1022D02*
X1216Y1022D01*
X1247Y1022D02*
X1266Y1022D01*
X1297Y1022D02*
X1316Y1022D01*
X1347Y1022D02*
X1366Y1022D01*
X1397Y1022D02*
X1416Y1022D01*
X1447Y1022D02*
X1466Y1022D01*
X1497Y1022D02*
X1516Y1022D01*
X1547Y1022D02*
X1566Y1022D01*
X1597Y1022D02*
X1616Y1022D01*
X1647Y1022D02*
X1666Y1022D01*
X1696Y1022D02*
X1715Y1022D01*
X1747Y1022D02*
X1766Y1022D01*
X1796Y1022D02*
X1815Y1022D01*
X547Y1021D02*
X566Y1021D01*
X597Y1021D02*
X616Y1021D01*
X647Y1021D02*
X666Y1021D01*
X697Y1021D02*
X716Y1021D01*
X747Y1021D02*
X766Y1021D01*
X797Y1021D02*
X816Y1021D01*
X847Y1021D02*
X866Y1021D01*
X897Y1021D02*
X916Y1021D01*
X947Y1021D02*
X966Y1021D01*
X997Y1021D02*
X1016Y1021D01*
X1047Y1021D02*
X1066Y1021D01*
X1097Y1021D02*
X1116Y1021D01*
X1147Y1021D02*
X1166Y1021D01*
X1197Y1021D02*
X1216Y1021D01*
X1247Y1021D02*
X1266Y1021D01*
X1297Y1021D02*
X1316Y1021D01*
X1347Y1021D02*
X1366Y1021D01*
X1396Y1021D02*
X1416Y1021D01*
X1447Y1021D02*
X1466Y1021D01*
X1496Y1021D02*
X1515Y1021D01*
X1547Y1021D02*
X1566Y1021D01*
X1596Y1021D02*
X1615Y1021D01*
X1647Y1021D02*
X1666Y1021D01*
X1696Y1021D02*
X1715Y1021D01*
X1747Y1021D02*
X1766Y1021D01*
X1796Y1021D02*
X1815Y1021D01*
X547Y1020D02*
X566Y1020D01*
X597Y1020D02*
X616Y1020D01*
X647Y1020D02*
X666Y1020D01*
X697Y1020D02*
X716Y1020D01*
X747Y1020D02*
X766Y1020D01*
X797Y1020D02*
X816Y1020D01*
X847Y1020D02*
X866Y1020D01*
X897Y1020D02*
X916Y1020D01*
X947Y1020D02*
X966Y1020D01*
X997Y1020D02*
X1016Y1020D01*
X1047Y1020D02*
X1066Y1020D01*
X1096Y1020D02*
X1116Y1020D01*
X1147Y1020D02*
X1166Y1020D01*
X1196Y1020D02*
X1215Y1020D01*
X1247Y1020D02*
X1266Y1020D01*
X1296Y1020D02*
X1315Y1020D01*
X1347Y1020D02*
X1366Y1020D01*
X1396Y1020D02*
X1415Y1020D01*
X1447Y1020D02*
X1466Y1020D01*
X1496Y1020D02*
X1515Y1020D01*
X1547Y1020D02*
X1566Y1020D01*
X1596Y1020D02*
X1615Y1020D01*
X1647Y1020D02*
X1666Y1020D01*
X1696Y1020D02*
X1715Y1020D01*
X1747Y1020D02*
X1766Y1020D01*
X1796Y1020D02*
X1815Y1020D01*
X547Y1019D02*
X566Y1019D01*
X596Y1019D02*
X616Y1019D01*
X647Y1019D02*
X666Y1019D01*
X696Y1019D02*
X716Y1019D01*
X747Y1019D02*
X766Y1019D01*
X796Y1019D02*
X815Y1019D01*
X847Y1019D02*
X866Y1019D01*
X896Y1019D02*
X915Y1019D01*
X947Y1019D02*
X966Y1019D01*
X996Y1019D02*
X1015Y1019D01*
X1047Y1019D02*
X1066Y1019D01*
X1096Y1019D02*
X1115Y1019D01*
X1147Y1019D02*
X1166Y1019D01*
X1196Y1019D02*
X1215Y1019D01*
X1247Y1019D02*
X1266Y1019D01*
X1296Y1019D02*
X1315Y1019D01*
X1347Y1019D02*
X1366Y1019D01*
X1396Y1019D02*
X1415Y1019D01*
X1447Y1019D02*
X1466Y1019D01*
X1496Y1019D02*
X1515Y1019D01*
X1547Y1019D02*
X1566Y1019D01*
X1596Y1019D02*
X1615Y1019D01*
X1647Y1019D02*
X1666Y1019D01*
X1696Y1019D02*
X1715Y1019D01*
X1747Y1019D02*
X1766Y1019D01*
X1796Y1019D02*
X1815Y1019D01*
X547Y1018D02*
X567Y1018D01*
X596Y1018D02*
X615Y1018D01*
X647Y1018D02*
X667Y1018D01*
X696Y1018D02*
X715Y1018D01*
X747Y1018D02*
X767Y1018D01*
X796Y1018D02*
X815Y1018D01*
X847Y1018D02*
X867Y1018D01*
X896Y1018D02*
X915Y1018D01*
X947Y1018D02*
X966Y1018D01*
X996Y1018D02*
X1015Y1018D01*
X1047Y1018D02*
X1066Y1018D01*
X1096Y1018D02*
X1115Y1018D01*
X1147Y1018D02*
X1166Y1018D01*
X1196Y1018D02*
X1215Y1018D01*
X1247Y1018D02*
X1266Y1018D01*
X1296Y1018D02*
X1315Y1018D01*
X1347Y1018D02*
X1366Y1018D01*
X1396Y1018D02*
X1415Y1018D01*
X1447Y1018D02*
X1466Y1018D01*
X1496Y1018D02*
X1515Y1018D01*
X1547Y1018D02*
X1566Y1018D01*
X1596Y1018D02*
X1615Y1018D01*
X1647Y1018D02*
X1666Y1018D01*
X1696Y1018D02*
X1715Y1018D01*
X1747Y1018D02*
X1766Y1018D01*
X1796Y1018D02*
X1815Y1018D01*
X548Y1017D02*
X567Y1017D01*
X596Y1017D02*
X615Y1017D01*
X648Y1017D02*
X667Y1017D01*
X696Y1017D02*
X715Y1017D01*
X748Y1017D02*
X767Y1017D01*
X796Y1017D02*
X815Y1017D01*
X848Y1017D02*
X867Y1017D01*
X896Y1017D02*
X915Y1017D01*
X948Y1017D02*
X967Y1017D01*
X996Y1017D02*
X1015Y1017D01*
X1047Y1017D02*
X1067Y1017D01*
X1096Y1017D02*
X1115Y1017D01*
X1147Y1017D02*
X1167Y1017D01*
X1196Y1017D02*
X1215Y1017D01*
X1247Y1017D02*
X1267Y1017D01*
X1296Y1017D02*
X1315Y1017D01*
X1347Y1017D02*
X1367Y1017D01*
X1396Y1017D02*
X1415Y1017D01*
X1447Y1017D02*
X1467Y1017D01*
X1496Y1017D02*
X1515Y1017D01*
X1547Y1017D02*
X1567Y1017D01*
X1596Y1017D02*
X1615Y1017D01*
X1647Y1017D02*
X1667Y1017D01*
X1696Y1017D02*
X1715Y1017D01*
X1747Y1017D02*
X1767Y1017D01*
X1795Y1017D02*
X1815Y1017D01*
X548Y1016D02*
X567Y1016D01*
X596Y1016D02*
X615Y1016D01*
X648Y1016D02*
X667Y1016D01*
X695Y1016D02*
X715Y1016D01*
X748Y1016D02*
X767Y1016D01*
X795Y1016D02*
X815Y1016D01*
X848Y1016D02*
X867Y1016D01*
X895Y1016D02*
X915Y1016D01*
X948Y1016D02*
X967Y1016D01*
X995Y1016D02*
X1015Y1016D01*
X1048Y1016D02*
X1067Y1016D01*
X1095Y1016D02*
X1115Y1016D01*
X1148Y1016D02*
X1167Y1016D01*
X1195Y1016D02*
X1215Y1016D01*
X1248Y1016D02*
X1267Y1016D01*
X1295Y1016D02*
X1315Y1016D01*
X1348Y1016D02*
X1367Y1016D01*
X1395Y1016D02*
X1415Y1016D01*
X1448Y1016D02*
X1467Y1016D01*
X1495Y1016D02*
X1515Y1016D01*
X1548Y1016D02*
X1567Y1016D01*
X1595Y1016D02*
X1615Y1016D01*
X1648Y1016D02*
X1667Y1016D01*
X1695Y1016D02*
X1715Y1016D01*
X1747Y1016D02*
X1767Y1016D01*
X1795Y1016D02*
X1815Y1016D01*
X548Y1015D02*
X568Y1015D01*
X595Y1015D02*
X615Y1015D01*
X648Y1015D02*
X668Y1015D01*
X695Y1015D02*
X715Y1015D01*
X748Y1015D02*
X768Y1015D01*
X795Y1015D02*
X815Y1015D01*
X848Y1015D02*
X868Y1015D01*
X895Y1015D02*
X915Y1015D01*
X948Y1015D02*
X968Y1015D01*
X995Y1015D02*
X1015Y1015D01*
X1048Y1015D02*
X1068Y1015D01*
X1095Y1015D02*
X1114Y1015D01*
X1148Y1015D02*
X1168Y1015D01*
X1195Y1015D02*
X1214Y1015D01*
X1248Y1015D02*
X1268Y1015D01*
X1295Y1015D02*
X1314Y1015D01*
X1348Y1015D02*
X1368Y1015D01*
X1395Y1015D02*
X1414Y1015D01*
X1448Y1015D02*
X1468Y1015D01*
X1495Y1015D02*
X1514Y1015D01*
X1548Y1015D02*
X1567Y1015D01*
X1595Y1015D02*
X1614Y1015D01*
X1648Y1015D02*
X1667Y1015D01*
X1695Y1015D02*
X1714Y1015D01*
X1748Y1015D02*
X1767Y1015D01*
X1795Y1015D02*
X1814Y1015D01*
X549Y1014D02*
X568Y1014D01*
X594Y1014D02*
X614Y1014D01*
X648Y1014D02*
X668Y1014D01*
X694Y1014D02*
X714Y1014D01*
X748Y1014D02*
X768Y1014D01*
X794Y1014D02*
X814Y1014D01*
X848Y1014D02*
X868Y1014D01*
X894Y1014D02*
X914Y1014D01*
X948Y1014D02*
X968Y1014D01*
X994Y1014D02*
X1014Y1014D01*
X1048Y1014D02*
X1068Y1014D01*
X1094Y1014D02*
X1114Y1014D01*
X1148Y1014D02*
X1168Y1014D01*
X1194Y1014D02*
X1214Y1014D01*
X1248Y1014D02*
X1268Y1014D01*
X1294Y1014D02*
X1314Y1014D01*
X1348Y1014D02*
X1368Y1014D01*
X1394Y1014D02*
X1414Y1014D01*
X1448Y1014D02*
X1468Y1014D01*
X1494Y1014D02*
X1514Y1014D01*
X1548Y1014D02*
X1568Y1014D01*
X1594Y1014D02*
X1614Y1014D01*
X1648Y1014D02*
X1668Y1014D01*
X1694Y1014D02*
X1714Y1014D01*
X1748Y1014D02*
X1768Y1014D01*
X1794Y1014D02*
X1814Y1014D01*
X549Y1013D02*
X569Y1013D01*
X594Y1013D02*
X614Y1013D01*
X649Y1013D02*
X669Y1013D01*
X694Y1013D02*
X714Y1013D01*
X749Y1013D02*
X769Y1013D01*
X794Y1013D02*
X814Y1013D01*
X849Y1013D02*
X869Y1013D01*
X894Y1013D02*
X914Y1013D01*
X949Y1013D02*
X969Y1013D01*
X993Y1013D02*
X1014Y1013D01*
X1049Y1013D02*
X1069Y1013D01*
X1093Y1013D02*
X1114Y1013D01*
X1149Y1013D02*
X1169Y1013D01*
X1193Y1013D02*
X1214Y1013D01*
X1249Y1013D02*
X1269Y1013D01*
X1293Y1013D02*
X1314Y1013D01*
X1349Y1013D02*
X1369Y1013D01*
X1393Y1013D02*
X1414Y1013D01*
X1449Y1013D02*
X1469Y1013D01*
X1493Y1013D02*
X1514Y1013D01*
X1548Y1013D02*
X1569Y1013D01*
X1593Y1013D02*
X1614Y1013D01*
X1648Y1013D02*
X1669Y1013D01*
X1693Y1013D02*
X1714Y1013D01*
X1748Y1013D02*
X1769Y1013D01*
X1793Y1013D02*
X1814Y1013D01*
X549Y1012D02*
X570Y1012D01*
X593Y1012D02*
X614Y1012D01*
X649Y1012D02*
X670Y1012D01*
X693Y1012D02*
X714Y1012D01*
X749Y1012D02*
X770Y1012D01*
X793Y1012D02*
X814Y1012D01*
X849Y1012D02*
X870Y1012D01*
X893Y1012D02*
X914Y1012D01*
X949Y1012D02*
X970Y1012D01*
X993Y1012D02*
X1013Y1012D01*
X1049Y1012D02*
X1070Y1012D01*
X1092Y1012D02*
X1113Y1012D01*
X1149Y1012D02*
X1170Y1012D01*
X1192Y1012D02*
X1213Y1012D01*
X1249Y1012D02*
X1270Y1012D01*
X1292Y1012D02*
X1313Y1012D01*
X1349Y1012D02*
X1370Y1012D01*
X1392Y1012D02*
X1413Y1012D01*
X1449Y1012D02*
X1470Y1012D01*
X1492Y1012D02*
X1513Y1012D01*
X1549Y1012D02*
X1570Y1012D01*
X1592Y1012D02*
X1613Y1012D01*
X1649Y1012D02*
X1670Y1012D01*
X1692Y1012D02*
X1713Y1012D01*
X1749Y1012D02*
X1770Y1012D01*
X1792Y1012D02*
X1813Y1012D01*
X550Y1011D02*
X572Y1011D01*
X591Y1011D02*
X613Y1011D01*
X650Y1011D02*
X671Y1011D01*
X691Y1011D02*
X713Y1011D01*
X750Y1011D02*
X771Y1011D01*
X791Y1011D02*
X813Y1011D01*
X850Y1011D02*
X871Y1011D01*
X891Y1011D02*
X913Y1011D01*
X950Y1011D02*
X971Y1011D01*
X991Y1011D02*
X1013Y1011D01*
X1049Y1011D02*
X1071Y1011D01*
X1091Y1011D02*
X1113Y1011D01*
X1149Y1011D02*
X1171Y1011D01*
X1191Y1011D02*
X1213Y1011D01*
X1249Y1011D02*
X1271Y1011D01*
X1291Y1011D02*
X1313Y1011D01*
X1349Y1011D02*
X1371Y1011D01*
X1391Y1011D02*
X1413Y1011D01*
X1449Y1011D02*
X1471Y1011D01*
X1491Y1011D02*
X1513Y1011D01*
X1549Y1011D02*
X1571Y1011D01*
X1591Y1011D02*
X1613Y1011D01*
X1649Y1011D02*
X1671Y1011D01*
X1691Y1011D02*
X1713Y1011D01*
X1749Y1011D02*
X1771Y1011D01*
X1791Y1011D02*
X1813Y1011D01*
X550Y1010D02*
X573Y1010D01*
X590Y1010D02*
X613Y1010D01*
X650Y1010D02*
X673Y1010D01*
X690Y1010D02*
X713Y1010D01*
X750Y1010D02*
X773Y1010D01*
X790Y1010D02*
X813Y1010D01*
X850Y1010D02*
X873Y1010D01*
X889Y1010D02*
X913Y1010D01*
X950Y1010D02*
X973Y1010D01*
X989Y1010D02*
X1013Y1010D01*
X1050Y1010D02*
X1073Y1010D01*
X1089Y1010D02*
X1113Y1010D01*
X1150Y1010D02*
X1173Y1010D01*
X1189Y1010D02*
X1213Y1010D01*
X1250Y1010D02*
X1273Y1010D01*
X1289Y1010D02*
X1313Y1010D01*
X1350Y1010D02*
X1373Y1010D01*
X1389Y1010D02*
X1412Y1010D01*
X1450Y1010D02*
X1473Y1010D01*
X1489Y1010D02*
X1512Y1010D01*
X1550Y1010D02*
X1573Y1010D01*
X1589Y1010D02*
X1612Y1010D01*
X1650Y1010D02*
X1673Y1010D01*
X1689Y1010D02*
X1712Y1010D01*
X1750Y1010D02*
X1773Y1010D01*
X1789Y1010D02*
X1812Y1010D01*
X551Y1009D02*
X576Y1009D01*
X587Y1009D02*
X612Y1009D01*
X651Y1009D02*
X676Y1009D01*
X687Y1009D02*
X712Y1009D01*
X751Y1009D02*
X776Y1009D01*
X787Y1009D02*
X812Y1009D01*
X850Y1009D02*
X876Y1009D01*
X886Y1009D02*
X912Y1009D01*
X950Y1009D02*
X976Y1009D01*
X986Y1009D02*
X1012Y1009D01*
X1050Y1009D02*
X1076Y1009D01*
X1086Y1009D02*
X1112Y1009D01*
X1150Y1009D02*
X1176Y1009D01*
X1186Y1009D02*
X1212Y1009D01*
X1250Y1009D02*
X1276Y1009D01*
X1286Y1009D02*
X1312Y1009D01*
X1350Y1009D02*
X1376Y1009D01*
X1386Y1009D02*
X1412Y1009D01*
X1450Y1009D02*
X1476Y1009D01*
X1486Y1009D02*
X1512Y1009D01*
X1550Y1009D02*
X1576Y1009D01*
X1586Y1009D02*
X1612Y1009D01*
X1650Y1009D02*
X1676Y1009D01*
X1686Y1009D02*
X1712Y1009D01*
X1750Y1009D02*
X1776Y1009D01*
X1786Y1009D02*
X1812Y1009D01*
X551Y1008D02*
X612Y1008D01*
X651Y1008D02*
X712Y1008D01*
X751Y1008D02*
X812Y1008D01*
X851Y1008D02*
X912Y1008D01*
X951Y1008D02*
X1012Y1008D01*
X1051Y1008D02*
X1112Y1008D01*
X1151Y1008D02*
X1212Y1008D01*
X1251Y1008D02*
X1311Y1008D01*
X1351Y1008D02*
X1411Y1008D01*
X1451Y1008D02*
X1511Y1008D01*
X1551Y1008D02*
X1611Y1008D01*
X1651Y1008D02*
X1711Y1008D01*
X1751Y1008D02*
X1811Y1008D01*
X552Y1007D02*
X611Y1007D01*
X652Y1007D02*
X711Y1007D01*
X752Y1007D02*
X811Y1007D01*
X852Y1007D02*
X911Y1007D01*
X952Y1007D02*
X1011Y1007D01*
X1052Y1007D02*
X1111Y1007D01*
X1151Y1007D02*
X1211Y1007D01*
X1251Y1007D02*
X1311Y1007D01*
X1351Y1007D02*
X1411Y1007D01*
X1451Y1007D02*
X1511Y1007D01*
X1551Y1007D02*
X1611Y1007D01*
X1651Y1007D02*
X1711Y1007D01*
X1751Y1007D02*
X1811Y1007D01*
X552Y1006D02*
X611Y1006D01*
X652Y1006D02*
X711Y1006D01*
X752Y1006D02*
X810Y1006D01*
X852Y1006D02*
X910Y1006D01*
X952Y1006D02*
X1010Y1006D01*
X1052Y1006D02*
X1110Y1006D01*
X1152Y1006D02*
X1210Y1006D01*
X1252Y1006D02*
X1310Y1006D01*
X1352Y1006D02*
X1410Y1006D01*
X1452Y1006D02*
X1510Y1006D01*
X1552Y1006D02*
X1610Y1006D01*
X1652Y1006D02*
X1710Y1006D01*
X1752Y1006D02*
X1810Y1006D01*
X553Y1005D02*
X610Y1005D01*
X653Y1005D02*
X710Y1005D01*
X753Y1005D02*
X810Y1005D01*
X853Y1005D02*
X910Y1005D01*
X953Y1005D02*
X1010Y1005D01*
X1053Y1005D02*
X1110Y1005D01*
X1153Y1005D02*
X1210Y1005D01*
X1253Y1005D02*
X1310Y1005D01*
X1353Y1005D02*
X1410Y1005D01*
X1453Y1005D02*
X1510Y1005D01*
X1553Y1005D02*
X1610Y1005D01*
X1653Y1005D02*
X1710Y1005D01*
X1753Y1005D02*
X1809Y1005D01*
X554Y1004D02*
X609Y1004D01*
X654Y1004D02*
X709Y1004D01*
X754Y1004D02*
X809Y1004D01*
X854Y1004D02*
X909Y1004D01*
X954Y1004D02*
X1009Y1004D01*
X1053Y1004D02*
X1109Y1004D01*
X1153Y1004D02*
X1209Y1004D01*
X1253Y1004D02*
X1309Y1004D01*
X1353Y1004D02*
X1409Y1004D01*
X1453Y1004D02*
X1509Y1004D01*
X1553Y1004D02*
X1609Y1004D01*
X1653Y1004D02*
X1709Y1004D01*
X1753Y1004D02*
X1809Y1004D01*
X554Y1003D02*
X608Y1003D01*
X654Y1003D02*
X708Y1003D01*
X754Y1003D02*
X808Y1003D01*
X854Y1003D02*
X908Y1003D01*
X954Y1003D02*
X1008Y1003D01*
X1054Y1003D02*
X1108Y1003D01*
X1154Y1003D02*
X1208Y1003D01*
X1254Y1003D02*
X1308Y1003D01*
X1354Y1003D02*
X1408Y1003D01*
X1454Y1003D02*
X1508Y1003D01*
X1554Y1003D02*
X1608Y1003D01*
X1654Y1003D02*
X1708Y1003D01*
X1754Y1003D02*
X1808Y1003D01*
X555Y1002D02*
X608Y1002D01*
X655Y1002D02*
X708Y1002D01*
X755Y1002D02*
X808Y1002D01*
X855Y1002D02*
X908Y1002D01*
X955Y1002D02*
X1007Y1002D01*
X1055Y1002D02*
X1107Y1002D01*
X1155Y1002D02*
X1207Y1002D01*
X1255Y1002D02*
X1307Y1002D01*
X1355Y1002D02*
X1407Y1002D01*
X1455Y1002D02*
X1507Y1002D01*
X1555Y1002D02*
X1607Y1002D01*
X1655Y1002D02*
X1707Y1002D01*
X1755Y1002D02*
X1807Y1002D01*
X556Y1001D02*
X607Y1001D01*
X656Y1001D02*
X707Y1001D01*
X756Y1001D02*
X807Y1001D01*
X856Y1001D02*
X907Y1001D01*
X956Y1001D02*
X1007Y1001D01*
X1056Y1001D02*
X1107Y1001D01*
X1156Y1001D02*
X1207Y1001D01*
X1256Y1001D02*
X1307Y1001D01*
X1356Y1001D02*
X1406Y1001D01*
X1456Y1001D02*
X1506Y1001D01*
X1556Y1001D02*
X1606Y1001D01*
X1656Y1001D02*
X1706Y1001D01*
X1756Y1001D02*
X1806Y1001D01*
X557Y1000D02*
X606Y1000D01*
X657Y1000D02*
X706Y1000D01*
X757Y1000D02*
X806Y1000D01*
X857Y1000D02*
X906Y1000D01*
X957Y1000D02*
X1006Y1000D01*
X1057Y1000D02*
X1106Y1000D01*
X1157Y1000D02*
X1206Y1000D01*
X1257Y1000D02*
X1306Y1000D01*
X1357Y1000D02*
X1406Y1000D01*
X1457Y1000D02*
X1506Y1000D01*
X1557Y1000D02*
X1606Y1000D01*
X1657Y1000D02*
X1705Y1000D01*
X1757Y1000D02*
X1805Y1000D01*
X558Y999D02*
X605Y999D01*
X658Y999D02*
X705Y999D01*
X758Y999D02*
X805Y999D01*
X858Y999D02*
X905Y999D01*
X958Y999D02*
X1005Y999D01*
X1058Y999D02*
X1105Y999D01*
X1158Y999D02*
X1205Y999D01*
X1258Y999D02*
X1305Y999D01*
X1358Y999D02*
X1405Y999D01*
X1458Y999D02*
X1505Y999D01*
X1558Y999D02*
X1605Y999D01*
X1658Y999D02*
X1704Y999D01*
X1758Y999D02*
X1804Y999D01*
X559Y998D02*
X604Y998D01*
X659Y998D02*
X704Y998D01*
X759Y998D02*
X804Y998D01*
X859Y998D02*
X904Y998D01*
X959Y998D02*
X1004Y998D01*
X1059Y998D02*
X1104Y998D01*
X1159Y998D02*
X1204Y998D01*
X1259Y998D02*
X1304Y998D01*
X1359Y998D02*
X1404Y998D01*
X1459Y998D02*
X1503Y998D01*
X1559Y998D02*
X1603Y998D01*
X1659Y998D02*
X1703Y998D01*
X1759Y998D02*
X1803Y998D01*
X560Y997D02*
X603Y997D01*
X660Y997D02*
X703Y997D01*
X760Y997D02*
X803Y997D01*
X860Y997D02*
X903Y997D01*
X960Y997D02*
X1003Y997D01*
X1060Y997D02*
X1103Y997D01*
X1160Y997D02*
X1202Y997D01*
X1260Y997D02*
X1302Y997D01*
X1360Y997D02*
X1402Y997D01*
X1460Y997D02*
X1502Y997D01*
X1560Y997D02*
X1602Y997D01*
X1660Y997D02*
X1702Y997D01*
X1760Y997D02*
X1802Y997D01*
X561Y996D02*
X601Y996D01*
X661Y996D02*
X701Y996D01*
X761Y996D02*
X801Y996D01*
X861Y996D02*
X901Y996D01*
X961Y996D02*
X1001Y996D01*
X1061Y996D02*
X1101Y996D01*
X1161Y996D02*
X1201Y996D01*
X1261Y996D02*
X1301Y996D01*
X1361Y996D02*
X1401Y996D01*
X1461Y996D02*
X1501Y996D01*
X1561Y996D02*
X1601Y996D01*
X1661Y996D02*
X1701Y996D01*
X1761Y996D02*
X1801Y996D01*
X563Y995D02*
X600Y995D01*
X663Y995D02*
X700Y995D01*
X763Y995D02*
X800Y995D01*
X863Y995D02*
X900Y995D01*
X963Y995D02*
X1000Y995D01*
X1063Y995D02*
X1100Y995D01*
X1163Y995D02*
X1200Y995D01*
X1263Y995D02*
X1300Y995D01*
X1362Y995D02*
X1400Y995D01*
X1462Y995D02*
X1500Y995D01*
X1562Y995D02*
X1600Y995D01*
X1662Y995D02*
X1700Y995D01*
X1762Y995D02*
X1800Y995D01*
X564Y994D02*
X599Y994D01*
X664Y994D02*
X699Y994D01*
X764Y994D02*
X799Y994D01*
X864Y994D02*
X899Y994D01*
X964Y994D02*
X998Y994D01*
X1064Y994D02*
X1098Y994D01*
X1164Y994D02*
X1198Y994D01*
X1264Y994D02*
X1298Y994D01*
X1364Y994D02*
X1398Y994D01*
X1464Y994D02*
X1498Y994D01*
X1564Y994D02*
X1598Y994D01*
X1664Y994D02*
X1698Y994D01*
X1764Y994D02*
X1798Y994D01*
X566Y993D02*
X597Y993D01*
X666Y993D02*
X697Y993D01*
X766Y993D02*
X797Y993D01*
X866Y993D02*
X897Y993D01*
X966Y993D02*
X997Y993D01*
X1066Y993D02*
X1097Y993D01*
X1166Y993D02*
X1197Y993D01*
X1266Y993D02*
X1297Y993D01*
X1366Y993D02*
X1397Y993D01*
X1466Y993D02*
X1497Y993D01*
X1566Y993D02*
X1597Y993D01*
X1665Y993D02*
X1697Y993D01*
X1765Y993D02*
X1797Y993D01*
X568Y992D02*
X595Y992D01*
X668Y992D02*
X695Y992D01*
X768Y992D02*
X795Y992D01*
X868Y992D02*
X895Y992D01*
X968Y992D02*
X995Y992D01*
X1068Y992D02*
X1095Y992D01*
X1168Y992D02*
X1195Y992D01*
X1267Y992D02*
X1295Y992D01*
X1367Y992D02*
X1395Y992D01*
X1467Y992D02*
X1495Y992D01*
X1567Y992D02*
X1595Y992D01*
X1667Y992D02*
X1695Y992D01*
X1767Y992D02*
X1795Y992D01*
X570Y991D02*
X593Y991D01*
X670Y991D02*
X693Y991D01*
X770Y991D02*
X793Y991D01*
X870Y991D02*
X893Y991D01*
X970Y991D02*
X993Y991D01*
X1070Y991D02*
X1093Y991D01*
X1170Y991D02*
X1193Y991D01*
X1270Y991D02*
X1293Y991D01*
X1370Y991D02*
X1393Y991D01*
X1470Y991D02*
X1493Y991D01*
X1570Y991D02*
X1593Y991D01*
X1670Y991D02*
X1693Y991D01*
X1769Y991D02*
X1792Y991D01*
X573Y990D02*
X590Y990D01*
X673Y990D02*
X690Y990D01*
X773Y990D02*
X790Y990D01*
X873Y990D02*
X890Y990D01*
X973Y990D02*
X990Y990D01*
X1072Y990D02*
X1090Y990D01*
X1172Y990D02*
X1190Y990D01*
X1272Y990D02*
X1290Y990D01*
X1372Y990D02*
X1390Y990D01*
X1472Y990D02*
X1490Y990D01*
X1572Y990D02*
X1590Y990D01*
X1672Y990D02*
X1690Y990D01*
X1772Y990D02*
X1790Y990D01*
X577Y989D02*
X586Y989D01*
X677Y989D02*
X686Y989D01*
X777Y989D02*
X786Y989D01*
X877Y989D02*
X886Y989D01*
X976Y989D02*
X986Y989D01*
X1076Y989D02*
X1086Y989D01*
X1176Y989D02*
X1186Y989D01*
X1276Y989D02*
X1286Y989D01*
X1376Y989D02*
X1386Y989D01*
X1476Y989D02*
X1486Y989D01*
X1576Y989D02*
X1586Y989D01*
X1676Y989D02*
X1686Y989D01*
X1776Y989D02*
X1786Y989D01*
X576Y958D02*
X586Y958D01*
X676Y958D02*
X686Y958D01*
X776Y958D02*
X786Y958D01*
X876Y958D02*
X886Y958D01*
X976Y958D02*
X986Y958D01*
X1076Y958D02*
X1086Y958D01*
X1176Y958D02*
X1186Y958D01*
X1276Y958D02*
X1286Y958D01*
X1376Y958D02*
X1386Y958D01*
X1476Y958D02*
X1486Y958D01*
X1576Y958D02*
X1586Y958D01*
X1676Y958D02*
X1686Y958D01*
X1776Y958D02*
X1786Y958D01*
X573Y957D02*
X590Y957D01*
X673Y957D02*
X690Y957D01*
X773Y957D02*
X790Y957D01*
X872Y957D02*
X890Y957D01*
X972Y957D02*
X990Y957D01*
X1072Y957D02*
X1090Y957D01*
X1172Y957D02*
X1190Y957D01*
X1272Y957D02*
X1290Y957D01*
X1372Y957D02*
X1390Y957D01*
X1472Y957D02*
X1490Y957D01*
X1572Y957D02*
X1590Y957D01*
X1672Y957D02*
X1690Y957D01*
X1772Y957D02*
X1790Y957D01*
X570Y956D02*
X593Y956D01*
X670Y956D02*
X693Y956D01*
X770Y956D02*
X793Y956D01*
X870Y956D02*
X893Y956D01*
X970Y956D02*
X993Y956D01*
X1070Y956D02*
X1093Y956D01*
X1170Y956D02*
X1193Y956D01*
X1270Y956D02*
X1293Y956D01*
X1370Y956D02*
X1393Y956D01*
X1470Y956D02*
X1493Y956D01*
X1569Y956D02*
X1593Y956D01*
X1669Y956D02*
X1693Y956D01*
X1769Y956D02*
X1793Y956D01*
X568Y955D02*
X595Y955D01*
X668Y955D02*
X695Y955D01*
X768Y955D02*
X795Y955D01*
X868Y955D02*
X895Y955D01*
X968Y955D02*
X995Y955D01*
X1068Y955D02*
X1095Y955D01*
X1167Y955D02*
X1195Y955D01*
X1267Y955D02*
X1295Y955D01*
X1367Y955D02*
X1395Y955D01*
X1467Y955D02*
X1495Y955D01*
X1567Y955D02*
X1595Y955D01*
X1667Y955D02*
X1695Y955D01*
X1767Y955D02*
X1795Y955D01*
X566Y954D02*
X597Y954D01*
X666Y954D02*
X697Y954D01*
X766Y954D02*
X797Y954D01*
X866Y954D02*
X897Y954D01*
X966Y954D02*
X997Y954D01*
X1066Y954D02*
X1097Y954D01*
X1166Y954D02*
X1197Y954D01*
X1266Y954D02*
X1297Y954D01*
X1366Y954D02*
X1397Y954D01*
X1466Y954D02*
X1497Y954D01*
X1565Y954D02*
X1597Y954D01*
X1665Y954D02*
X1697Y954D01*
X1765Y954D02*
X1797Y954D01*
X564Y953D02*
X599Y953D01*
X664Y953D02*
X699Y953D01*
X764Y953D02*
X799Y953D01*
X864Y953D02*
X899Y953D01*
X964Y953D02*
X999Y953D01*
X1064Y953D02*
X1099Y953D01*
X1164Y953D02*
X1198Y953D01*
X1264Y953D02*
X1298Y953D01*
X1364Y953D02*
X1398Y953D01*
X1464Y953D02*
X1498Y953D01*
X1564Y953D02*
X1598Y953D01*
X1664Y953D02*
X1698Y953D01*
X1764Y953D02*
X1798Y953D01*
X563Y952D02*
X600Y952D01*
X663Y952D02*
X700Y952D01*
X763Y952D02*
X800Y952D01*
X863Y952D02*
X900Y952D01*
X963Y952D02*
X1000Y952D01*
X1063Y952D02*
X1100Y952D01*
X1162Y952D02*
X1200Y952D01*
X1262Y952D02*
X1300Y952D01*
X1362Y952D02*
X1400Y952D01*
X1462Y952D02*
X1500Y952D01*
X1562Y952D02*
X1600Y952D01*
X1662Y952D02*
X1700Y952D01*
X1762Y952D02*
X1800Y952D01*
X561Y951D02*
X601Y951D01*
X661Y951D02*
X701Y951D01*
X761Y951D02*
X801Y951D01*
X861Y951D02*
X901Y951D01*
X961Y951D02*
X1001Y951D01*
X1061Y951D02*
X1101Y951D01*
X1161Y951D02*
X1201Y951D01*
X1261Y951D02*
X1301Y951D01*
X1361Y951D02*
X1401Y951D01*
X1461Y951D02*
X1501Y951D01*
X1561Y951D02*
X1601Y951D01*
X1661Y951D02*
X1701Y951D01*
X1761Y951D02*
X1801Y951D01*
X560Y950D02*
X603Y950D01*
X660Y950D02*
X703Y950D01*
X760Y950D02*
X803Y950D01*
X860Y950D02*
X903Y950D01*
X960Y950D02*
X1003Y950D01*
X1060Y950D02*
X1103Y950D01*
X1160Y950D02*
X1203Y950D01*
X1260Y950D02*
X1302Y950D01*
X1360Y950D02*
X1402Y950D01*
X1460Y950D02*
X1502Y950D01*
X1560Y950D02*
X1602Y950D01*
X1660Y950D02*
X1702Y950D01*
X1760Y950D02*
X1802Y950D01*
X559Y949D02*
X604Y949D01*
X659Y949D02*
X704Y949D01*
X759Y949D02*
X804Y949D01*
X859Y949D02*
X904Y949D01*
X959Y949D02*
X1004Y949D01*
X1059Y949D02*
X1104Y949D01*
X1159Y949D02*
X1204Y949D01*
X1259Y949D02*
X1304Y949D01*
X1359Y949D02*
X1404Y949D01*
X1459Y949D02*
X1504Y949D01*
X1559Y949D02*
X1603Y949D01*
X1659Y949D02*
X1703Y949D01*
X1759Y949D02*
X1803Y949D01*
X558Y948D02*
X605Y948D01*
X658Y948D02*
X705Y948D01*
X758Y948D02*
X805Y948D01*
X858Y948D02*
X905Y948D01*
X958Y948D02*
X1005Y948D01*
X1058Y948D02*
X1105Y948D01*
X1158Y948D02*
X1205Y948D01*
X1258Y948D02*
X1305Y948D01*
X1358Y948D02*
X1405Y948D01*
X1458Y948D02*
X1505Y948D01*
X1558Y948D02*
X1605Y948D01*
X1658Y948D02*
X1705Y948D01*
X1758Y948D02*
X1804Y948D01*
X557Y947D02*
X606Y947D01*
X657Y947D02*
X706Y947D01*
X757Y947D02*
X806Y947D01*
X857Y947D02*
X906Y947D01*
X957Y947D02*
X1006Y947D01*
X1057Y947D02*
X1106Y947D01*
X1157Y947D02*
X1206Y947D01*
X1257Y947D02*
X1306Y947D01*
X1357Y947D02*
X1406Y947D01*
X1457Y947D02*
X1506Y947D01*
X1557Y947D02*
X1606Y947D01*
X1657Y947D02*
X1705Y947D01*
X1757Y947D02*
X1805Y947D01*
X556Y946D02*
X607Y946D01*
X656Y946D02*
X707Y946D01*
X756Y946D02*
X807Y946D01*
X856Y946D02*
X907Y946D01*
X956Y946D02*
X1007Y946D01*
X1056Y946D02*
X1107Y946D01*
X1156Y946D02*
X1207Y946D01*
X1256Y946D02*
X1307Y946D01*
X1356Y946D02*
X1407Y946D01*
X1456Y946D02*
X1506Y946D01*
X1556Y946D02*
X1606Y946D01*
X1656Y946D02*
X1706Y946D01*
X1756Y946D02*
X1806Y946D01*
X555Y945D02*
X608Y945D01*
X655Y945D02*
X708Y945D01*
X755Y945D02*
X808Y945D01*
X855Y945D02*
X908Y945D01*
X955Y945D02*
X1008Y945D01*
X1055Y945D02*
X1107Y945D01*
X1155Y945D02*
X1207Y945D01*
X1255Y945D02*
X1307Y945D01*
X1355Y945D02*
X1407Y945D01*
X1455Y945D02*
X1507Y945D01*
X1555Y945D02*
X1607Y945D01*
X1655Y945D02*
X1707Y945D01*
X1755Y945D02*
X1807Y945D01*
X554Y944D02*
X608Y944D01*
X654Y944D02*
X708Y944D01*
X754Y944D02*
X808Y944D01*
X854Y944D02*
X908Y944D01*
X954Y944D02*
X1008Y944D01*
X1054Y944D02*
X1108Y944D01*
X1154Y944D02*
X1208Y944D01*
X1254Y944D02*
X1308Y944D01*
X1354Y944D02*
X1408Y944D01*
X1454Y944D02*
X1508Y944D01*
X1554Y944D02*
X1608Y944D01*
X1654Y944D02*
X1708Y944D01*
X1754Y944D02*
X1808Y944D01*
X554Y943D02*
X609Y943D01*
X654Y943D02*
X709Y943D01*
X754Y943D02*
X809Y943D01*
X854Y943D02*
X909Y943D01*
X954Y943D02*
X1009Y943D01*
X1053Y943D02*
X1109Y943D01*
X1153Y943D02*
X1209Y943D01*
X1253Y943D02*
X1309Y943D01*
X1353Y943D02*
X1409Y943D01*
X1453Y943D02*
X1509Y943D01*
X1553Y943D02*
X1609Y943D01*
X1653Y943D02*
X1709Y943D01*
X1753Y943D02*
X1809Y943D01*
X553Y942D02*
X610Y942D01*
X653Y942D02*
X710Y942D01*
X753Y942D02*
X810Y942D01*
X853Y942D02*
X910Y942D01*
X953Y942D02*
X1010Y942D01*
X1053Y942D02*
X1110Y942D01*
X1153Y942D02*
X1210Y942D01*
X1253Y942D02*
X1310Y942D01*
X1353Y942D02*
X1410Y942D01*
X1453Y942D02*
X1510Y942D01*
X1553Y942D02*
X1610Y942D01*
X1653Y942D02*
X1710Y942D01*
X1753Y942D02*
X1809Y942D01*
X552Y941D02*
X611Y941D01*
X652Y941D02*
X711Y941D01*
X752Y941D02*
X811Y941D01*
X852Y941D02*
X910Y941D01*
X952Y941D02*
X1010Y941D01*
X1052Y941D02*
X1110Y941D01*
X1152Y941D02*
X1210Y941D01*
X1252Y941D02*
X1310Y941D01*
X1352Y941D02*
X1410Y941D01*
X1452Y941D02*
X1510Y941D01*
X1552Y941D02*
X1610Y941D01*
X1652Y941D02*
X1710Y941D01*
X1752Y941D02*
X1810Y941D01*
X552Y940D02*
X611Y940D01*
X652Y940D02*
X711Y940D01*
X752Y940D02*
X811Y940D01*
X852Y940D02*
X911Y940D01*
X952Y940D02*
X1011Y940D01*
X1051Y940D02*
X1111Y940D01*
X1151Y940D02*
X1211Y940D01*
X1251Y940D02*
X1311Y940D01*
X1351Y940D02*
X1411Y940D01*
X1451Y940D02*
X1511Y940D01*
X1551Y940D02*
X1611Y940D01*
X1651Y940D02*
X1711Y940D01*
X1751Y940D02*
X1811Y940D01*
X551Y939D02*
X612Y939D01*
X651Y939D02*
X712Y939D01*
X751Y939D02*
X812Y939D01*
X851Y939D02*
X912Y939D01*
X951Y939D02*
X1012Y939D01*
X1051Y939D02*
X1112Y939D01*
X1151Y939D02*
X1212Y939D01*
X1251Y939D02*
X1311Y939D01*
X1351Y939D02*
X1411Y939D01*
X1451Y939D02*
X1511Y939D01*
X1551Y939D02*
X1611Y939D01*
X1651Y939D02*
X1711Y939D01*
X1751Y939D02*
X1811Y939D01*
X551Y938D02*
X576Y938D01*
X587Y938D02*
X612Y938D01*
X651Y938D02*
X676Y938D01*
X687Y938D02*
X712Y938D01*
X751Y938D02*
X776Y938D01*
X787Y938D02*
X812Y938D01*
X850Y938D02*
X876Y938D01*
X887Y938D02*
X912Y938D01*
X950Y938D02*
X976Y938D01*
X987Y938D02*
X1012Y938D01*
X1050Y938D02*
X1076Y938D01*
X1087Y938D02*
X1112Y938D01*
X1150Y938D02*
X1176Y938D01*
X1187Y938D02*
X1212Y938D01*
X1250Y938D02*
X1276Y938D01*
X1286Y938D02*
X1312Y938D01*
X1350Y938D02*
X1376Y938D01*
X1386Y938D02*
X1412Y938D01*
X1450Y938D02*
X1476Y938D01*
X1486Y938D02*
X1512Y938D01*
X1550Y938D02*
X1576Y938D01*
X1586Y938D02*
X1612Y938D01*
X1650Y938D02*
X1676Y938D01*
X1686Y938D02*
X1712Y938D01*
X1750Y938D02*
X1776Y938D01*
X1786Y938D02*
X1812Y938D01*
X550Y937D02*
X573Y937D01*
X590Y937D02*
X613Y937D01*
X650Y937D02*
X673Y937D01*
X690Y937D02*
X713Y937D01*
X750Y937D02*
X773Y937D01*
X790Y937D02*
X813Y937D01*
X850Y937D02*
X873Y937D01*
X890Y937D02*
X913Y937D01*
X950Y937D02*
X973Y937D01*
X990Y937D02*
X1013Y937D01*
X1050Y937D02*
X1073Y937D01*
X1089Y937D02*
X1113Y937D01*
X1150Y937D02*
X1173Y937D01*
X1189Y937D02*
X1213Y937D01*
X1250Y937D02*
X1273Y937D01*
X1289Y937D02*
X1313Y937D01*
X1350Y937D02*
X1373Y937D01*
X1389Y937D02*
X1412Y937D01*
X1450Y937D02*
X1473Y937D01*
X1489Y937D02*
X1512Y937D01*
X1550Y937D02*
X1573Y937D01*
X1589Y937D02*
X1612Y937D01*
X1650Y937D02*
X1673Y937D01*
X1689Y937D02*
X1712Y937D01*
X1750Y937D02*
X1773Y937D01*
X1789Y937D02*
X1812Y937D01*
X550Y936D02*
X571Y936D01*
X591Y936D02*
X613Y936D01*
X650Y936D02*
X671Y936D01*
X691Y936D02*
X713Y936D01*
X750Y936D02*
X771Y936D01*
X791Y936D02*
X813Y936D01*
X850Y936D02*
X871Y936D01*
X891Y936D02*
X913Y936D01*
X950Y936D02*
X971Y936D01*
X991Y936D02*
X1013Y936D01*
X1049Y936D02*
X1071Y936D01*
X1091Y936D02*
X1113Y936D01*
X1149Y936D02*
X1171Y936D01*
X1191Y936D02*
X1213Y936D01*
X1249Y936D02*
X1271Y936D01*
X1291Y936D02*
X1313Y936D01*
X1349Y936D02*
X1371Y936D01*
X1391Y936D02*
X1413Y936D01*
X1449Y936D02*
X1471Y936D01*
X1491Y936D02*
X1513Y936D01*
X1549Y936D02*
X1571Y936D01*
X1591Y936D02*
X1613Y936D01*
X1649Y936D02*
X1671Y936D01*
X1691Y936D02*
X1713Y936D01*
X1749Y936D02*
X1771Y936D01*
X1791Y936D02*
X1813Y936D01*
X549Y935D02*
X570Y935D01*
X593Y935D02*
X614Y935D01*
X649Y935D02*
X670Y935D01*
X693Y935D02*
X714Y935D01*
X749Y935D02*
X770Y935D01*
X793Y935D02*
X814Y935D01*
X849Y935D02*
X870Y935D01*
X893Y935D02*
X914Y935D01*
X949Y935D02*
X970Y935D01*
X993Y935D02*
X1014Y935D01*
X1049Y935D02*
X1070Y935D01*
X1092Y935D02*
X1113Y935D01*
X1149Y935D02*
X1170Y935D01*
X1192Y935D02*
X1213Y935D01*
X1249Y935D02*
X1270Y935D01*
X1292Y935D02*
X1313Y935D01*
X1349Y935D02*
X1370Y935D01*
X1392Y935D02*
X1413Y935D01*
X1449Y935D02*
X1470Y935D01*
X1492Y935D02*
X1513Y935D01*
X1549Y935D02*
X1570Y935D01*
X1592Y935D02*
X1613Y935D01*
X1649Y935D02*
X1670Y935D01*
X1692Y935D02*
X1713Y935D01*
X1749Y935D02*
X1770Y935D01*
X1792Y935D02*
X1813Y935D01*
X549Y934D02*
X569Y934D01*
X594Y934D02*
X614Y934D01*
X649Y934D02*
X669Y934D01*
X694Y934D02*
X714Y934D01*
X749Y934D02*
X769Y934D01*
X794Y934D02*
X814Y934D01*
X849Y934D02*
X869Y934D01*
X894Y934D02*
X914Y934D01*
X949Y934D02*
X969Y934D01*
X993Y934D02*
X1014Y934D01*
X1049Y934D02*
X1069Y934D01*
X1093Y934D02*
X1114Y934D01*
X1149Y934D02*
X1169Y934D01*
X1193Y934D02*
X1214Y934D01*
X1249Y934D02*
X1269Y934D01*
X1293Y934D02*
X1314Y934D01*
X1349Y934D02*
X1369Y934D01*
X1393Y934D02*
X1414Y934D01*
X1449Y934D02*
X1469Y934D01*
X1493Y934D02*
X1514Y934D01*
X1548Y934D02*
X1569Y934D01*
X1593Y934D02*
X1614Y934D01*
X1648Y934D02*
X1669Y934D01*
X1693Y934D02*
X1714Y934D01*
X1748Y934D02*
X1769Y934D01*
X1793Y934D02*
X1814Y934D01*
X549Y933D02*
X568Y933D01*
X594Y933D02*
X614Y933D01*
X648Y933D02*
X668Y933D01*
X694Y933D02*
X714Y933D01*
X748Y933D02*
X768Y933D01*
X794Y933D02*
X814Y933D01*
X848Y933D02*
X868Y933D01*
X894Y933D02*
X914Y933D01*
X948Y933D02*
X968Y933D01*
X994Y933D02*
X1014Y933D01*
X1048Y933D02*
X1068Y933D01*
X1094Y933D02*
X1114Y933D01*
X1148Y933D02*
X1168Y933D01*
X1194Y933D02*
X1214Y933D01*
X1248Y933D02*
X1268Y933D01*
X1294Y933D02*
X1314Y933D01*
X1348Y933D02*
X1368Y933D01*
X1394Y933D02*
X1414Y933D01*
X1448Y933D02*
X1468Y933D01*
X1494Y933D02*
X1514Y933D01*
X1548Y933D02*
X1568Y933D01*
X1594Y933D02*
X1614Y933D01*
X1648Y933D02*
X1668Y933D01*
X1694Y933D02*
X1714Y933D01*
X1748Y933D02*
X1768Y933D01*
X1794Y933D02*
X1814Y933D01*
X548Y932D02*
X568Y932D01*
X595Y932D02*
X615Y932D01*
X648Y932D02*
X668Y932D01*
X695Y932D02*
X715Y932D01*
X748Y932D02*
X768Y932D01*
X795Y932D02*
X815Y932D01*
X848Y932D02*
X868Y932D01*
X895Y932D02*
X915Y932D01*
X948Y932D02*
X968Y932D01*
X995Y932D02*
X1015Y932D01*
X1048Y932D02*
X1068Y932D01*
X1095Y932D02*
X1115Y932D01*
X1148Y932D02*
X1168Y932D01*
X1195Y932D02*
X1214Y932D01*
X1248Y932D02*
X1268Y932D01*
X1295Y932D02*
X1314Y932D01*
X1348Y932D02*
X1368Y932D01*
X1395Y932D02*
X1414Y932D01*
X1448Y932D02*
X1468Y932D01*
X1495Y932D02*
X1514Y932D01*
X1548Y932D02*
X1567Y932D01*
X1595Y932D02*
X1614Y932D01*
X1648Y932D02*
X1667Y932D01*
X1695Y932D02*
X1714Y932D01*
X1748Y932D02*
X1767Y932D01*
X1795Y932D02*
X1814Y932D01*
X548Y931D02*
X567Y931D01*
X596Y931D02*
X615Y931D01*
X648Y931D02*
X667Y931D01*
X695Y931D02*
X715Y931D01*
X748Y931D02*
X767Y931D01*
X795Y931D02*
X815Y931D01*
X848Y931D02*
X867Y931D01*
X895Y931D02*
X915Y931D01*
X948Y931D02*
X967Y931D01*
X995Y931D02*
X1015Y931D01*
X1048Y931D02*
X1067Y931D01*
X1095Y931D02*
X1115Y931D01*
X1148Y931D02*
X1167Y931D01*
X1195Y931D02*
X1215Y931D01*
X1248Y931D02*
X1267Y931D01*
X1295Y931D02*
X1315Y931D01*
X1348Y931D02*
X1367Y931D01*
X1395Y931D02*
X1415Y931D01*
X1448Y931D02*
X1467Y931D01*
X1495Y931D02*
X1515Y931D01*
X1548Y931D02*
X1567Y931D01*
X1595Y931D02*
X1615Y931D01*
X1648Y931D02*
X1667Y931D01*
X1695Y931D02*
X1715Y931D01*
X1747Y931D02*
X1767Y931D01*
X1795Y931D02*
X1815Y931D01*
X548Y930D02*
X567Y930D01*
X596Y930D02*
X615Y930D01*
X648Y930D02*
X667Y930D01*
X696Y930D02*
X715Y930D01*
X748Y930D02*
X767Y930D01*
X796Y930D02*
X815Y930D01*
X848Y930D02*
X867Y930D01*
X896Y930D02*
X915Y930D01*
X948Y930D02*
X967Y930D01*
X996Y930D02*
X1015Y930D01*
X1047Y930D02*
X1067Y930D01*
X1096Y930D02*
X1115Y930D01*
X1147Y930D02*
X1167Y930D01*
X1196Y930D02*
X1215Y930D01*
X1247Y930D02*
X1267Y930D01*
X1296Y930D02*
X1315Y930D01*
X1347Y930D02*
X1367Y930D01*
X1396Y930D02*
X1415Y930D01*
X1447Y930D02*
X1467Y930D01*
X1496Y930D02*
X1515Y930D01*
X1547Y930D02*
X1567Y930D01*
X1596Y930D02*
X1615Y930D01*
X1647Y930D02*
X1667Y930D01*
X1696Y930D02*
X1715Y930D01*
X1747Y930D02*
X1767Y930D01*
X1795Y930D02*
X1815Y930D01*
X547Y929D02*
X567Y929D01*
X596Y929D02*
X615Y929D01*
X647Y929D02*
X667Y929D01*
X696Y929D02*
X715Y929D01*
X747Y929D02*
X767Y929D01*
X796Y929D02*
X815Y929D01*
X847Y929D02*
X867Y929D01*
X896Y929D02*
X915Y929D01*
X947Y929D02*
X966Y929D01*
X996Y929D02*
X1015Y929D01*
X1047Y929D02*
X1066Y929D01*
X1096Y929D02*
X1115Y929D01*
X1147Y929D02*
X1166Y929D01*
X1196Y929D02*
X1215Y929D01*
X1247Y929D02*
X1266Y929D01*
X1296Y929D02*
X1315Y929D01*
X1347Y929D02*
X1366Y929D01*
X1396Y929D02*
X1415Y929D01*
X1447Y929D02*
X1466Y929D01*
X1496Y929D02*
X1515Y929D01*
X1547Y929D02*
X1566Y929D01*
X1596Y929D02*
X1615Y929D01*
X1647Y929D02*
X1666Y929D01*
X1696Y929D02*
X1715Y929D01*
X1747Y929D02*
X1766Y929D01*
X1796Y929D02*
X1815Y929D01*
X547Y928D02*
X566Y928D01*
X596Y928D02*
X616Y928D01*
X647Y928D02*
X666Y928D01*
X696Y928D02*
X716Y928D01*
X747Y928D02*
X766Y928D01*
X796Y928D02*
X815Y928D01*
X847Y928D02*
X866Y928D01*
X896Y928D02*
X915Y928D01*
X947Y928D02*
X966Y928D01*
X996Y928D02*
X1015Y928D01*
X1047Y928D02*
X1066Y928D01*
X1096Y928D02*
X1115Y928D01*
X1147Y928D02*
X1166Y928D01*
X1196Y928D02*
X1215Y928D01*
X1247Y928D02*
X1266Y928D01*
X1296Y928D02*
X1315Y928D01*
X1347Y928D02*
X1366Y928D01*
X1396Y928D02*
X1415Y928D01*
X1447Y928D02*
X1466Y928D01*
X1496Y928D02*
X1515Y928D01*
X1547Y928D02*
X1566Y928D01*
X1596Y928D02*
X1615Y928D01*
X1647Y928D02*
X1666Y928D01*
X1696Y928D02*
X1715Y928D01*
X1747Y928D02*
X1766Y928D01*
X1796Y928D02*
X1815Y928D01*
X547Y927D02*
X566Y927D01*
X597Y927D02*
X616Y927D01*
X647Y927D02*
X666Y927D01*
X697Y927D02*
X716Y927D01*
X747Y927D02*
X766Y927D01*
X797Y927D02*
X816Y927D01*
X847Y927D02*
X866Y927D01*
X897Y927D02*
X916Y927D01*
X947Y927D02*
X966Y927D01*
X997Y927D02*
X1016Y927D01*
X1047Y927D02*
X1066Y927D01*
X1096Y927D02*
X1116Y927D01*
X1147Y927D02*
X1166Y927D01*
X1196Y927D02*
X1215Y927D01*
X1247Y927D02*
X1266Y927D01*
X1296Y927D02*
X1315Y927D01*
X1347Y927D02*
X1366Y927D01*
X1396Y927D02*
X1415Y927D01*
X1447Y927D02*
X1466Y927D01*
X1496Y927D02*
X1515Y927D01*
X1547Y927D02*
X1566Y927D01*
X1596Y927D02*
X1615Y927D01*
X1647Y927D02*
X1666Y927D01*
X1696Y927D02*
X1715Y927D01*
X1747Y927D02*
X1766Y927D01*
X1796Y927D02*
X1815Y927D01*
X547Y926D02*
X566Y926D01*
X597Y926D02*
X616Y926D01*
X647Y926D02*
X666Y926D01*
X697Y926D02*
X716Y926D01*
X747Y926D02*
X766Y926D01*
X797Y926D02*
X816Y926D01*
X847Y926D02*
X866Y926D01*
X897Y926D02*
X916Y926D01*
X947Y926D02*
X966Y926D01*
X997Y926D02*
X1016Y926D01*
X1047Y926D02*
X1066Y926D01*
X1097Y926D02*
X1116Y926D01*
X1147Y926D02*
X1166Y926D01*
X1197Y926D02*
X1216Y926D01*
X1247Y926D02*
X1266Y926D01*
X1297Y926D02*
X1316Y926D01*
X1347Y926D02*
X1366Y926D01*
X1397Y926D02*
X1416Y926D01*
X1447Y926D02*
X1466Y926D01*
X1496Y926D02*
X1515Y926D01*
X1547Y926D02*
X1566Y926D01*
X1596Y926D02*
X1615Y926D01*
X1647Y926D02*
X1666Y926D01*
X1696Y926D02*
X1715Y926D01*
X1747Y926D02*
X1766Y926D01*
X1796Y926D02*
X1815Y926D01*
X547Y925D02*
X566Y925D01*
X597Y925D02*
X616Y925D01*
X647Y925D02*
X666Y925D01*
X697Y925D02*
X716Y925D01*
X747Y925D02*
X766Y925D01*
X797Y925D02*
X816Y925D01*
X847Y925D02*
X866Y925D01*
X897Y925D02*
X916Y925D01*
X947Y925D02*
X966Y925D01*
X997Y925D02*
X1016Y925D01*
X1047Y925D02*
X1066Y925D01*
X1097Y925D02*
X1116Y925D01*
X1147Y925D02*
X1166Y925D01*
X1197Y925D02*
X1216Y925D01*
X1247Y925D02*
X1266Y925D01*
X1297Y925D02*
X1316Y925D01*
X1347Y925D02*
X1366Y925D01*
X1397Y925D02*
X1416Y925D01*
X1447Y925D02*
X1466Y925D01*
X1497Y925D02*
X1516Y925D01*
X1547Y925D02*
X1566Y925D01*
X1597Y925D02*
X1616Y925D01*
X1647Y925D02*
X1666Y925D01*
X1696Y925D02*
X1715Y925D01*
X1747Y925D02*
X1766Y925D01*
X1796Y925D02*
X1815Y925D01*
X547Y924D02*
X566Y924D01*
X597Y924D02*
X616Y924D01*
X647Y924D02*
X666Y924D01*
X697Y924D02*
X716Y924D01*
X747Y924D02*
X766Y924D01*
X797Y924D02*
X816Y924D01*
X847Y924D02*
X866Y924D01*
X897Y924D02*
X916Y924D01*
X947Y924D02*
X966Y924D01*
X997Y924D02*
X1016Y924D01*
X1047Y924D02*
X1066Y924D01*
X1097Y924D02*
X1116Y924D01*
X1147Y924D02*
X1166Y924D01*
X1197Y924D02*
X1216Y924D01*
X1247Y924D02*
X1266Y924D01*
X1297Y924D02*
X1316Y924D01*
X1347Y924D02*
X1366Y924D01*
X1397Y924D02*
X1416Y924D01*
X1447Y924D02*
X1466Y924D01*
X1497Y924D02*
X1516Y924D01*
X1547Y924D02*
X1566Y924D01*
X1597Y924D02*
X1616Y924D01*
X1647Y924D02*
X1666Y924D01*
X1697Y924D02*
X1716Y924D01*
X1747Y924D02*
X1766Y924D01*
X1796Y924D02*
X1815Y924D01*
X547Y923D02*
X566Y923D01*
X597Y923D02*
X616Y923D01*
X647Y923D02*
X666Y923D01*
X697Y923D02*
X716Y923D01*
X747Y923D02*
X766Y923D01*
X797Y923D02*
X816Y923D01*
X847Y923D02*
X866Y923D01*
X897Y923D02*
X916Y923D01*
X947Y923D02*
X966Y923D01*
X997Y923D02*
X1016Y923D01*
X1047Y923D02*
X1066Y923D01*
X1097Y923D02*
X1116Y923D01*
X1147Y923D02*
X1166Y923D01*
X1197Y923D02*
X1216Y923D01*
X1247Y923D02*
X1266Y923D01*
X1297Y923D02*
X1316Y923D01*
X1347Y923D02*
X1366Y923D01*
X1397Y923D02*
X1416Y923D01*
X1447Y923D02*
X1466Y923D01*
X1497Y923D02*
X1516Y923D01*
X1547Y923D02*
X1566Y923D01*
X1597Y923D02*
X1616Y923D01*
X1647Y923D02*
X1666Y923D01*
X1697Y923D02*
X1716Y923D01*
X1747Y923D02*
X1766Y923D01*
X1796Y923D02*
X1815Y923D01*
X547Y922D02*
X566Y922D01*
X597Y922D02*
X616Y922D01*
X647Y922D02*
X666Y922D01*
X697Y922D02*
X716Y922D01*
X747Y922D02*
X766Y922D01*
X797Y922D02*
X816Y922D01*
X847Y922D02*
X866Y922D01*
X897Y922D02*
X916Y922D01*
X947Y922D02*
X966Y922D01*
X997Y922D02*
X1016Y922D01*
X1047Y922D02*
X1066Y922D01*
X1097Y922D02*
X1116Y922D01*
X1147Y922D02*
X1166Y922D01*
X1197Y922D02*
X1216Y922D01*
X1247Y922D02*
X1266Y922D01*
X1297Y922D02*
X1316Y922D01*
X1347Y922D02*
X1366Y922D01*
X1397Y922D02*
X1416Y922D01*
X1447Y922D02*
X1466Y922D01*
X1497Y922D02*
X1516Y922D01*
X1547Y922D02*
X1566Y922D01*
X1597Y922D02*
X1616Y922D01*
X1647Y922D02*
X1666Y922D01*
X1696Y922D02*
X1715Y922D01*
X1747Y922D02*
X1766Y922D01*
X1796Y922D02*
X1815Y922D01*
X547Y921D02*
X566Y921D01*
X597Y921D02*
X616Y921D01*
X647Y921D02*
X666Y921D01*
X697Y921D02*
X716Y921D01*
X747Y921D02*
X766Y921D01*
X797Y921D02*
X816Y921D01*
X847Y921D02*
X866Y921D01*
X897Y921D02*
X916Y921D01*
X947Y921D02*
X966Y921D01*
X997Y921D02*
X1016Y921D01*
X1047Y921D02*
X1066Y921D01*
X1097Y921D02*
X1116Y921D01*
X1147Y921D02*
X1166Y921D01*
X1197Y921D02*
X1216Y921D01*
X1247Y921D02*
X1266Y921D01*
X1297Y921D02*
X1316Y921D01*
X1347Y921D02*
X1366Y921D01*
X1396Y921D02*
X1416Y921D01*
X1447Y921D02*
X1466Y921D01*
X1496Y921D02*
X1515Y921D01*
X1547Y921D02*
X1566Y921D01*
X1596Y921D02*
X1615Y921D01*
X1647Y921D02*
X1666Y921D01*
X1696Y921D02*
X1715Y921D01*
X1747Y921D02*
X1766Y921D01*
X1796Y921D02*
X1815Y921D01*
X547Y920D02*
X566Y920D01*
X597Y920D02*
X616Y920D01*
X647Y920D02*
X666Y920D01*
X697Y920D02*
X716Y920D01*
X747Y920D02*
X766Y920D01*
X797Y920D02*
X816Y920D01*
X847Y920D02*
X866Y920D01*
X897Y920D02*
X916Y920D01*
X947Y920D02*
X966Y920D01*
X997Y920D02*
X1016Y920D01*
X1047Y920D02*
X1066Y920D01*
X1096Y920D02*
X1116Y920D01*
X1147Y920D02*
X1166Y920D01*
X1196Y920D02*
X1215Y920D01*
X1247Y920D02*
X1266Y920D01*
X1296Y920D02*
X1315Y920D01*
X1347Y920D02*
X1366Y920D01*
X1396Y920D02*
X1415Y920D01*
X1447Y920D02*
X1466Y920D01*
X1496Y920D02*
X1515Y920D01*
X1547Y920D02*
X1566Y920D01*
X1596Y920D02*
X1615Y920D01*
X1647Y920D02*
X1666Y920D01*
X1696Y920D02*
X1715Y920D01*
X1747Y920D02*
X1766Y920D01*
X1796Y920D02*
X1815Y920D01*
X547Y919D02*
X566Y919D01*
X596Y919D02*
X616Y919D01*
X647Y919D02*
X666Y919D01*
X696Y919D02*
X716Y919D01*
X747Y919D02*
X766Y919D01*
X796Y919D02*
X815Y919D01*
X847Y919D02*
X866Y919D01*
X896Y919D02*
X915Y919D01*
X947Y919D02*
X966Y919D01*
X996Y919D02*
X1015Y919D01*
X1047Y919D02*
X1066Y919D01*
X1096Y919D02*
X1115Y919D01*
X1147Y919D02*
X1166Y919D01*
X1196Y919D02*
X1215Y919D01*
X1247Y919D02*
X1266Y919D01*
X1296Y919D02*
X1315Y919D01*
X1347Y919D02*
X1366Y919D01*
X1396Y919D02*
X1415Y919D01*
X1447Y919D02*
X1466Y919D01*
X1496Y919D02*
X1515Y919D01*
X1547Y919D02*
X1566Y919D01*
X1596Y919D02*
X1615Y919D01*
X1647Y919D02*
X1666Y919D01*
X1696Y919D02*
X1715Y919D01*
X1747Y919D02*
X1766Y919D01*
X1796Y919D02*
X1815Y919D01*
X547Y918D02*
X567Y918D01*
X596Y918D02*
X615Y918D01*
X647Y918D02*
X667Y918D01*
X696Y918D02*
X715Y918D01*
X747Y918D02*
X767Y918D01*
X796Y918D02*
X815Y918D01*
X847Y918D02*
X867Y918D01*
X896Y918D02*
X915Y918D01*
X947Y918D02*
X967Y918D01*
X996Y918D02*
X1015Y918D01*
X1047Y918D02*
X1066Y918D01*
X1096Y918D02*
X1115Y918D01*
X1147Y918D02*
X1166Y918D01*
X1196Y918D02*
X1215Y918D01*
X1247Y918D02*
X1266Y918D01*
X1296Y918D02*
X1315Y918D01*
X1347Y918D02*
X1366Y918D01*
X1396Y918D02*
X1415Y918D01*
X1447Y918D02*
X1466Y918D01*
X1496Y918D02*
X1515Y918D01*
X1547Y918D02*
X1566Y918D01*
X1596Y918D02*
X1615Y918D01*
X1647Y918D02*
X1666Y918D01*
X1696Y918D02*
X1715Y918D01*
X1747Y918D02*
X1766Y918D01*
X1796Y918D02*
X1815Y918D01*
X548Y917D02*
X567Y917D01*
X596Y917D02*
X615Y917D01*
X648Y917D02*
X667Y917D01*
X696Y917D02*
X715Y917D01*
X748Y917D02*
X767Y917D01*
X796Y917D02*
X815Y917D01*
X848Y917D02*
X867Y917D01*
X896Y917D02*
X915Y917D01*
X948Y917D02*
X967Y917D01*
X996Y917D02*
X1015Y917D01*
X1048Y917D02*
X1067Y917D01*
X1096Y917D02*
X1115Y917D01*
X1147Y917D02*
X1167Y917D01*
X1196Y917D02*
X1215Y917D01*
X1247Y917D02*
X1267Y917D01*
X1296Y917D02*
X1315Y917D01*
X1347Y917D02*
X1367Y917D01*
X1396Y917D02*
X1415Y917D01*
X1447Y917D02*
X1467Y917D01*
X1496Y917D02*
X1515Y917D01*
X1547Y917D02*
X1567Y917D01*
X1596Y917D02*
X1615Y917D01*
X1647Y917D02*
X1667Y917D01*
X1695Y917D02*
X1715Y917D01*
X1747Y917D02*
X1767Y917D01*
X1795Y917D02*
X1815Y917D01*
X548Y916D02*
X567Y916D01*
X595Y916D02*
X615Y916D01*
X648Y916D02*
X667Y916D01*
X695Y916D02*
X715Y916D01*
X748Y916D02*
X767Y916D01*
X795Y916D02*
X815Y916D01*
X848Y916D02*
X867Y916D01*
X895Y916D02*
X915Y916D01*
X948Y916D02*
X967Y916D01*
X995Y916D02*
X1015Y916D01*
X1048Y916D02*
X1067Y916D01*
X1095Y916D02*
X1115Y916D01*
X1148Y916D02*
X1167Y916D01*
X1195Y916D02*
X1215Y916D01*
X1248Y916D02*
X1267Y916D01*
X1295Y916D02*
X1315Y916D01*
X1348Y916D02*
X1367Y916D01*
X1395Y916D02*
X1415Y916D01*
X1448Y916D02*
X1467Y916D01*
X1495Y916D02*
X1515Y916D01*
X1548Y916D02*
X1567Y916D01*
X1595Y916D02*
X1615Y916D01*
X1648Y916D02*
X1667Y916D01*
X1695Y916D02*
X1715Y916D01*
X1747Y916D02*
X1767Y916D01*
X1795Y916D02*
X1814Y916D01*
X548Y915D02*
X568Y915D01*
X595Y915D02*
X615Y915D01*
X648Y915D02*
X668Y915D01*
X695Y915D02*
X715Y915D01*
X748Y915D02*
X768Y915D01*
X795Y915D02*
X815Y915D01*
X848Y915D02*
X868Y915D01*
X895Y915D02*
X915Y915D01*
X948Y915D02*
X968Y915D01*
X995Y915D02*
X1015Y915D01*
X1048Y915D02*
X1068Y915D01*
X1095Y915D02*
X1114Y915D01*
X1148Y915D02*
X1168Y915D01*
X1195Y915D02*
X1214Y915D01*
X1248Y915D02*
X1268Y915D01*
X1295Y915D02*
X1314Y915D01*
X1348Y915D02*
X1368Y915D01*
X1395Y915D02*
X1414Y915D01*
X1448Y915D02*
X1468Y915D01*
X1495Y915D02*
X1514Y915D01*
X1548Y915D02*
X1568Y915D01*
X1595Y915D02*
X1614Y915D01*
X1648Y915D02*
X1667Y915D01*
X1695Y915D02*
X1714Y915D01*
X1748Y915D02*
X1767Y915D01*
X1795Y915D02*
X1814Y915D01*
X549Y914D02*
X569Y914D01*
X594Y914D02*
X614Y914D01*
X648Y914D02*
X668Y914D01*
X694Y914D02*
X714Y914D01*
X748Y914D02*
X768Y914D01*
X794Y914D02*
X814Y914D01*
X848Y914D02*
X868Y914D01*
X894Y914D02*
X914Y914D01*
X948Y914D02*
X968Y914D01*
X994Y914D02*
X1014Y914D01*
X1048Y914D02*
X1068Y914D01*
X1094Y914D02*
X1114Y914D01*
X1148Y914D02*
X1168Y914D01*
X1194Y914D02*
X1214Y914D01*
X1248Y914D02*
X1268Y914D01*
X1294Y914D02*
X1314Y914D01*
X1348Y914D02*
X1368Y914D01*
X1394Y914D02*
X1414Y914D01*
X1448Y914D02*
X1468Y914D01*
X1494Y914D02*
X1514Y914D01*
X1548Y914D02*
X1568Y914D01*
X1594Y914D02*
X1614Y914D01*
X1648Y914D02*
X1668Y914D01*
X1694Y914D02*
X1714Y914D01*
X1748Y914D02*
X1768Y914D01*
X1794Y914D02*
X1814Y914D01*
X549Y913D02*
X569Y913D01*
X594Y913D02*
X614Y913D01*
X649Y913D02*
X669Y913D01*
X694Y913D02*
X714Y913D01*
X749Y913D02*
X769Y913D01*
X794Y913D02*
X814Y913D01*
X849Y913D02*
X869Y913D01*
X893Y913D02*
X914Y913D01*
X949Y913D02*
X969Y913D01*
X993Y913D02*
X1014Y913D01*
X1049Y913D02*
X1069Y913D01*
X1093Y913D02*
X1114Y913D01*
X1149Y913D02*
X1169Y913D01*
X1193Y913D02*
X1214Y913D01*
X1249Y913D02*
X1269Y913D01*
X1293Y913D02*
X1314Y913D01*
X1349Y913D02*
X1369Y913D01*
X1393Y913D02*
X1414Y913D01*
X1449Y913D02*
X1469Y913D01*
X1493Y913D02*
X1514Y913D01*
X1549Y913D02*
X1569Y913D01*
X1593Y913D02*
X1614Y913D01*
X1648Y913D02*
X1669Y913D01*
X1693Y913D02*
X1714Y913D01*
X1748Y913D02*
X1769Y913D01*
X1793Y913D02*
X1814Y913D01*
X549Y912D02*
X570Y912D01*
X593Y912D02*
X614Y912D01*
X649Y912D02*
X670Y912D01*
X693Y912D02*
X714Y912D01*
X749Y912D02*
X770Y912D01*
X793Y912D02*
X814Y912D01*
X849Y912D02*
X870Y912D01*
X892Y912D02*
X914Y912D01*
X949Y912D02*
X970Y912D01*
X992Y912D02*
X1013Y912D01*
X1049Y912D02*
X1070Y912D01*
X1092Y912D02*
X1113Y912D01*
X1149Y912D02*
X1170Y912D01*
X1192Y912D02*
X1213Y912D01*
X1249Y912D02*
X1270Y912D01*
X1292Y912D02*
X1313Y912D01*
X1349Y912D02*
X1370Y912D01*
X1392Y912D02*
X1413Y912D01*
X1449Y912D02*
X1470Y912D01*
X1492Y912D02*
X1513Y912D01*
X1549Y912D02*
X1570Y912D01*
X1592Y912D02*
X1613Y912D01*
X1649Y912D02*
X1670Y912D01*
X1692Y912D02*
X1713Y912D01*
X1749Y912D02*
X1770Y912D01*
X1792Y912D02*
X1813Y912D01*
X550Y911D02*
X572Y911D01*
X591Y911D02*
X613Y911D01*
X650Y911D02*
X672Y911D01*
X691Y911D02*
X713Y911D01*
X750Y911D02*
X771Y911D01*
X791Y911D02*
X813Y911D01*
X850Y911D02*
X871Y911D01*
X891Y911D02*
X913Y911D01*
X950Y911D02*
X971Y911D01*
X991Y911D02*
X1013Y911D01*
X1049Y911D02*
X1071Y911D01*
X1091Y911D02*
X1113Y911D01*
X1149Y911D02*
X1171Y911D01*
X1191Y911D02*
X1213Y911D01*
X1249Y911D02*
X1271Y911D01*
X1291Y911D02*
X1313Y911D01*
X1349Y911D02*
X1371Y911D01*
X1391Y911D02*
X1413Y911D01*
X1449Y911D02*
X1471Y911D01*
X1491Y911D02*
X1513Y911D01*
X1549Y911D02*
X1571Y911D01*
X1591Y911D02*
X1613Y911D01*
X1649Y911D02*
X1671Y911D01*
X1691Y911D02*
X1713Y911D01*
X1749Y911D02*
X1771Y911D01*
X1791Y911D02*
X1813Y911D01*
X550Y910D02*
X573Y910D01*
X590Y910D02*
X613Y910D01*
X650Y910D02*
X673Y910D01*
X689Y910D02*
X713Y910D01*
X750Y910D02*
X773Y910D01*
X789Y910D02*
X813Y910D01*
X850Y910D02*
X873Y910D01*
X889Y910D02*
X913Y910D01*
X950Y910D02*
X973Y910D01*
X989Y910D02*
X1013Y910D01*
X1050Y910D02*
X1073Y910D01*
X1089Y910D02*
X1113Y910D01*
X1150Y910D02*
X1173Y910D01*
X1189Y910D02*
X1213Y910D01*
X1250Y910D02*
X1273Y910D01*
X1289Y910D02*
X1312Y910D01*
X1350Y910D02*
X1373Y910D01*
X1389Y910D02*
X1412Y910D01*
X1450Y910D02*
X1473Y910D01*
X1489Y910D02*
X1512Y910D01*
X1550Y910D02*
X1573Y910D01*
X1589Y910D02*
X1612Y910D01*
X1650Y910D02*
X1673Y910D01*
X1689Y910D02*
X1712Y910D01*
X1750Y910D02*
X1773Y910D01*
X1789Y910D02*
X1812Y910D01*
X551Y909D02*
X576Y909D01*
X586Y909D02*
X612Y909D01*
X651Y909D02*
X676Y909D01*
X686Y909D02*
X712Y909D01*
X751Y909D02*
X776Y909D01*
X786Y909D02*
X812Y909D01*
X851Y909D02*
X876Y909D01*
X886Y909D02*
X912Y909D01*
X950Y909D02*
X976Y909D01*
X986Y909D02*
X1012Y909D01*
X1050Y909D02*
X1076Y909D01*
X1086Y909D02*
X1112Y909D01*
X1150Y909D02*
X1176Y909D01*
X1186Y909D02*
X1212Y909D01*
X1250Y909D02*
X1276Y909D01*
X1286Y909D02*
X1312Y909D01*
X1350Y909D02*
X1376Y909D01*
X1386Y909D02*
X1412Y909D01*
X1450Y909D02*
X1476Y909D01*
X1486Y909D02*
X1512Y909D01*
X1550Y909D02*
X1576Y909D01*
X1586Y909D02*
X1612Y909D01*
X1650Y909D02*
X1676Y909D01*
X1686Y909D02*
X1712Y909D01*
X1750Y909D02*
X1776Y909D01*
X1786Y909D02*
X1812Y909D01*
X551Y908D02*
X612Y908D01*
X651Y908D02*
X712Y908D01*
X751Y908D02*
X812Y908D01*
X851Y908D02*
X912Y908D01*
X951Y908D02*
X1012Y908D01*
X1051Y908D02*
X1112Y908D01*
X1151Y908D02*
X1211Y908D01*
X1251Y908D02*
X1311Y908D01*
X1351Y908D02*
X1411Y908D01*
X1451Y908D02*
X1511Y908D01*
X1551Y908D02*
X1611Y908D01*
X1651Y908D02*
X1711Y908D01*
X1751Y908D02*
X1811Y908D01*
X552Y907D02*
X611Y907D01*
X652Y907D02*
X711Y907D01*
X752Y907D02*
X811Y907D01*
X852Y907D02*
X911Y907D01*
X952Y907D02*
X1011Y907D01*
X1052Y907D02*
X1111Y907D01*
X1152Y907D02*
X1211Y907D01*
X1251Y907D02*
X1311Y907D01*
X1351Y907D02*
X1411Y907D01*
X1451Y907D02*
X1511Y907D01*
X1551Y907D02*
X1611Y907D01*
X1651Y907D02*
X1711Y907D01*
X1751Y907D02*
X1811Y907D01*
X552Y906D02*
X611Y906D01*
X652Y906D02*
X710Y906D01*
X752Y906D02*
X810Y906D01*
X852Y906D02*
X910Y906D01*
X952Y906D02*
X1010Y906D01*
X1052Y906D02*
X1110Y906D01*
X1152Y906D02*
X1210Y906D01*
X1252Y906D02*
X1310Y906D01*
X1352Y906D02*
X1410Y906D01*
X1452Y906D02*
X1510Y906D01*
X1552Y906D02*
X1610Y906D01*
X1652Y906D02*
X1710Y906D01*
X1752Y906D02*
X1810Y906D01*
X553Y905D02*
X610Y905D01*
X653Y905D02*
X710Y905D01*
X753Y905D02*
X810Y905D01*
X853Y905D02*
X910Y905D01*
X953Y905D02*
X1010Y905D01*
X1053Y905D02*
X1110Y905D01*
X1153Y905D02*
X1210Y905D01*
X1253Y905D02*
X1310Y905D01*
X1353Y905D02*
X1410Y905D01*
X1453Y905D02*
X1510Y905D01*
X1553Y905D02*
X1610Y905D01*
X1653Y905D02*
X1709Y905D01*
X1753Y905D02*
X1809Y905D01*
X554Y904D02*
X609Y904D01*
X654Y904D02*
X709Y904D01*
X754Y904D02*
X809Y904D01*
X854Y904D02*
X909Y904D01*
X954Y904D02*
X1009Y904D01*
X1054Y904D02*
X1109Y904D01*
X1153Y904D02*
X1209Y904D01*
X1253Y904D02*
X1309Y904D01*
X1353Y904D02*
X1409Y904D01*
X1453Y904D02*
X1509Y904D01*
X1553Y904D02*
X1609Y904D01*
X1653Y904D02*
X1709Y904D01*
X1753Y904D02*
X1809Y904D01*
X554Y903D02*
X608Y903D01*
X654Y903D02*
X708Y903D01*
X754Y903D02*
X808Y903D01*
X854Y903D02*
X908Y903D01*
X954Y903D02*
X1008Y903D01*
X1054Y903D02*
X1108Y903D01*
X1154Y903D02*
X1208Y903D01*
X1254Y903D02*
X1308Y903D01*
X1354Y903D02*
X1408Y903D01*
X1454Y903D02*
X1508Y903D01*
X1554Y903D02*
X1608Y903D01*
X1654Y903D02*
X1708Y903D01*
X1754Y903D02*
X1808Y903D01*
X555Y902D02*
X608Y902D01*
X655Y902D02*
X708Y902D01*
X755Y902D02*
X808Y902D01*
X855Y902D02*
X907Y902D01*
X955Y902D02*
X1007Y902D01*
X1055Y902D02*
X1107Y902D01*
X1155Y902D02*
X1207Y902D01*
X1255Y902D02*
X1307Y902D01*
X1355Y902D02*
X1407Y902D01*
X1455Y902D02*
X1507Y902D01*
X1555Y902D02*
X1607Y902D01*
X1655Y902D02*
X1707Y902D01*
X1755Y902D02*
X1807Y902D01*
X556Y901D02*
X607Y901D01*
X656Y901D02*
X707Y901D01*
X756Y901D02*
X807Y901D01*
X856Y901D02*
X907Y901D01*
X956Y901D02*
X1007Y901D01*
X1056Y901D02*
X1107Y901D01*
X1156Y901D02*
X1207Y901D01*
X1256Y901D02*
X1306Y901D01*
X1356Y901D02*
X1406Y901D01*
X1456Y901D02*
X1506Y901D01*
X1556Y901D02*
X1606Y901D01*
X1656Y901D02*
X1706Y901D01*
X1756Y901D02*
X1806Y901D01*
X557Y900D02*
X606Y900D01*
X657Y900D02*
X706Y900D01*
X757Y900D02*
X806Y900D01*
X857Y900D02*
X906Y900D01*
X957Y900D02*
X1006Y900D01*
X1057Y900D02*
X1106Y900D01*
X1157Y900D02*
X1206Y900D01*
X1257Y900D02*
X1306Y900D01*
X1357Y900D02*
X1406Y900D01*
X1457Y900D02*
X1505Y900D01*
X1557Y900D02*
X1605Y900D01*
X1657Y900D02*
X1705Y900D01*
X1757Y900D02*
X1805Y900D01*
X558Y899D02*
X605Y899D01*
X658Y899D02*
X705Y899D01*
X758Y899D02*
X805Y899D01*
X858Y899D02*
X905Y899D01*
X958Y899D02*
X1005Y899D01*
X1058Y899D02*
X1105Y899D01*
X1158Y899D02*
X1205Y899D01*
X1258Y899D02*
X1305Y899D01*
X1358Y899D02*
X1405Y899D01*
X1458Y899D02*
X1505Y899D01*
X1558Y899D02*
X1604Y899D01*
X1658Y899D02*
X1704Y899D01*
X1758Y899D02*
X1804Y899D01*
X559Y898D02*
X604Y898D01*
X659Y898D02*
X704Y898D01*
X759Y898D02*
X804Y898D01*
X859Y898D02*
X904Y898D01*
X959Y898D02*
X1004Y898D01*
X1059Y898D02*
X1104Y898D01*
X1159Y898D02*
X1204Y898D01*
X1259Y898D02*
X1304Y898D01*
X1359Y898D02*
X1403Y898D01*
X1459Y898D02*
X1503Y898D01*
X1559Y898D02*
X1603Y898D01*
X1659Y898D02*
X1703Y898D01*
X1759Y898D02*
X1803Y898D01*
X560Y897D02*
X603Y897D01*
X660Y897D02*
X703Y897D01*
X760Y897D02*
X803Y897D01*
X860Y897D02*
X903Y897D01*
X960Y897D02*
X1002Y897D01*
X1060Y897D02*
X1102Y897D01*
X1160Y897D02*
X1202Y897D01*
X1260Y897D02*
X1302Y897D01*
X1360Y897D02*
X1402Y897D01*
X1460Y897D02*
X1502Y897D01*
X1560Y897D02*
X1602Y897D01*
X1660Y897D02*
X1702Y897D01*
X1760Y897D02*
X1802Y897D01*
X561Y896D02*
X601Y896D01*
X661Y896D02*
X701Y896D01*
X761Y896D02*
X801Y896D01*
X861Y896D02*
X901Y896D01*
X961Y896D02*
X1001Y896D01*
X1061Y896D02*
X1101Y896D01*
X1161Y896D02*
X1201Y896D01*
X1261Y896D02*
X1301Y896D01*
X1361Y896D02*
X1401Y896D01*
X1461Y896D02*
X1501Y896D01*
X1561Y896D02*
X1601Y896D01*
X1661Y896D02*
X1701Y896D01*
X1761Y896D02*
X1801Y896D01*
X563Y895D02*
X600Y895D01*
X663Y895D02*
X700Y895D01*
X763Y895D02*
X800Y895D01*
X863Y895D02*
X900Y895D01*
X963Y895D02*
X1000Y895D01*
X1063Y895D02*
X1100Y895D01*
X1163Y895D02*
X1200Y895D01*
X1263Y895D02*
X1300Y895D01*
X1363Y895D02*
X1400Y895D01*
X1462Y895D02*
X1500Y895D01*
X1562Y895D02*
X1600Y895D01*
X1662Y895D02*
X1700Y895D01*
X1762Y895D02*
X1800Y895D01*
X564Y894D02*
X599Y894D01*
X664Y894D02*
X699Y894D01*
X764Y894D02*
X798Y894D01*
X864Y894D02*
X898Y894D01*
X964Y894D02*
X998Y894D01*
X1064Y894D02*
X1098Y894D01*
X1164Y894D02*
X1198Y894D01*
X1264Y894D02*
X1298Y894D01*
X1364Y894D02*
X1398Y894D01*
X1464Y894D02*
X1498Y894D01*
X1564Y894D02*
X1598Y894D01*
X1664Y894D02*
X1698Y894D01*
X1764Y894D02*
X1798Y894D01*
X566Y893D02*
X597Y893D01*
X666Y893D02*
X697Y893D01*
X766Y893D02*
X797Y893D01*
X866Y893D02*
X897Y893D01*
X966Y893D02*
X997Y893D01*
X1066Y893D02*
X1097Y893D01*
X1166Y893D02*
X1197Y893D01*
X1266Y893D02*
X1297Y893D01*
X1366Y893D02*
X1397Y893D01*
X1466Y893D02*
X1497Y893D01*
X1566Y893D02*
X1597Y893D01*
X1666Y893D02*
X1697Y893D01*
X1766Y893D02*
X1796Y893D01*
X568Y892D02*
X595Y892D01*
X668Y892D02*
X695Y892D01*
X768Y892D02*
X795Y892D01*
X868Y892D02*
X895Y892D01*
X968Y892D02*
X995Y892D01*
X1068Y892D02*
X1095Y892D01*
X1168Y892D02*
X1195Y892D01*
X1268Y892D02*
X1295Y892D01*
X1368Y892D02*
X1395Y892D01*
X1468Y892D02*
X1495Y892D01*
X1567Y892D02*
X1595Y892D01*
X1667Y892D02*
X1695Y892D01*
X1767Y892D02*
X1795Y892D01*
X570Y891D02*
X593Y891D01*
X670Y891D02*
X693Y891D01*
X770Y891D02*
X793Y891D01*
X870Y891D02*
X893Y891D01*
X970Y891D02*
X993Y891D01*
X1070Y891D02*
X1093Y891D01*
X1170Y891D02*
X1193Y891D01*
X1270Y891D02*
X1293Y891D01*
X1370Y891D02*
X1393Y891D01*
X1470Y891D02*
X1492Y891D01*
X1570Y891D02*
X1592Y891D01*
X1670Y891D02*
X1692Y891D01*
X1770Y891D02*
X1792Y891D01*
X573Y890D02*
X590Y890D01*
X673Y890D02*
X690Y890D01*
X773Y890D02*
X790Y890D01*
X873Y890D02*
X890Y890D01*
X973Y890D02*
X990Y890D01*
X1073Y890D02*
X1090Y890D01*
X1173Y890D02*
X1190Y890D01*
X1273Y890D02*
X1290Y890D01*
X1372Y890D02*
X1390Y890D01*
X1472Y890D02*
X1490Y890D01*
X1572Y890D02*
X1590Y890D01*
X1672Y890D02*
X1690Y890D01*
X1772Y890D02*
X1790Y890D01*
X577Y889D02*
X586Y889D01*
X677Y889D02*
X686Y889D01*
X777Y889D02*
X786Y889D01*
X877Y889D02*
X886Y889D01*
X977Y889D02*
X986Y889D01*
X1077Y889D02*
X1086Y889D01*
X1177Y889D02*
X1186Y889D01*
X1277Y889D02*
X1286Y889D01*
X1377Y889D02*
X1386Y889D01*
X1477Y889D02*
X1486Y889D01*
X1577Y889D02*
X1586Y889D01*
X1676Y889D02*
X1686Y889D01*
X1776Y889D02*
X1786Y889D01*
D02*
G04 End of Copper1*
M02*