<?xml version='1.0' encoding='UTF-8' standalone='no'?>
<!-- Created with Fritzing (http://www.fritzing.org/) -->
<svg xmlns="http://www.w3.org/2000/svg" width="2.1658in" x="0in" version="1.2" y="0in"  height="1.77169in" viewBox="0 0 155.937 127.562" baseProfile="tiny" xmlns:svg="http://www.w3.org/2000/svg">
 <g transform="matrix(-1, 0, 0, 1, 155.937, 0)">
  <g partID="12040">
   <g id="board">
    <rect width="155.361" x="0.576" y="0.576" fill="none" height="126.986" stroke="black" fill-opacity="0.5" id="boardoutline" stroke-width="0.5"/>
   </g>
  </g>
  <g partID="7383500">
   <g transform="translate(-18.7724,1.54291)">
    <g  id="copper0">
     <rect width="3.96" x="20.664" y="5.184" fill="black"  height="3.96" stroke="black" stroke-width="2.16"/>
     <circle fill="black" cx="22.68"  cy="7.2" stroke="black" id="connector0pin" r="1.98" stroke-width="2.16"/>
     <circle fill="black" cx="29.88"  cy="7.2" stroke="black" id="connector1pin" r="1.98" stroke-width="2.16"/>
     <circle fill="black" cx="37.08"  cy="7.2" stroke="black" id="connector2pin" r="1.98" stroke-width="2.16"/>
     <circle fill="black" cx="44.28"  cy="7.2" stroke="black" id="connector3pin" r="1.98" stroke-width="2.16"/>
     <circle fill="black" cx="51.48"  cy="7.2" stroke="black" id="connector4pin" r="1.98" stroke-width="2.16"/>
     <circle fill="black" cx="58.68"  cy="7.2" stroke="black" id="connector5pin" r="1.98" stroke-width="2.16"/>
     <circle fill="black" cx="65.88"  cy="7.2" stroke="black" id="connector6pin" r="1.98" stroke-width="2.16"/>
     <circle fill="black" cx="73.08"  cy="7.2" stroke="black" id="connector7pin" r="1.98" stroke-width="2.16"/>
     <circle fill="black" cx="80.28"  cy="7.2" stroke="black" id="connector8pin" r="1.98" stroke-width="2.16"/>
     <circle fill="black" cx="87.48"  cy="7.2" stroke="black" id="connector9pin" r="1.98" stroke-width="2.16"/>
     <circle fill="black" cx="94.68"  cy="7.2" stroke="black" id="connector10pin" r="1.98" stroke-width="2.16"/>
     <circle fill="black" cx="101.88"  cy="7.2" stroke="black" id="connector11pin" r="1.98" stroke-width="2.16"/>
     <circle fill="black" cx="109.08"  cy="7.2" stroke="black" id="connector12pin" r="1.98" stroke-width="2.16"/>
     <circle fill="black" cx="116.28"  cy="7.2" stroke="black" id="connector13pin" r="1.98" stroke-width="2.16"/>
     <circle fill="black" cx="123.48"  cy="7.2" stroke="black" id="connector14pin" r="1.98" stroke-width="2.16"/>
     <circle fill="black" cx="130.68"  cy="7.2" stroke="black" id="connector15pin" r="1.98" stroke-width="2.16"/>
    </g>
   </g>
  </g>
  <g partID="6832280">
   <g transform="translate(31.8674,21.1194)">
    <g transform="matrix(0,1,-1,0,0,0)">
     <g  id="copper0">
      <circle fill="black" cx="3.528"  cy="17.928" stroke="black" id="connector2pad" r="2.52" stroke-width="2.808"/>
      <rect width="5.04" x="1.008" y="1.008" fill="black"  height="5.04" stroke="black" stroke-width="2.808"/>
      <circle fill="black" cx="3.528"  cy="3.528" stroke="black" id="connector0pad" r="2.52" stroke-width="2.808"/>
      <circle fill="black" cx="17.928"  cy="10.728" stroke="black" id="connector1pad" r="2.52" stroke-width="2.808"/>
     </g>
    </g>
   </g>
  </g>
  <g partID="6445070">
   <g transform="translate(25.3774,125.826)">
    <g transform="matrix(-1,0,0,-1,0,0)">
     <g  id="copper0">
      <circle fill="black" cx="20.8462"  cy="15.6024" stroke="black" id="connector0pad" r="1.98" stroke-width="2.16"/>
      <circle fill="black" cx="2.42064"  cy="15.6024" stroke="black" id="connector1pad" r="1.98" stroke-width="2.16"/>
      <circle fill="black" cx="20.8462"  cy="2.84616" stroke="black" id="connector2pad" r="1.98" stroke-width="2.16"/>
      <circle fill="black" cx="2.42064"  cy="2.84616" stroke="black" id="connector3pad" r="1.98" stroke-width="2.16"/>
     </g>
    </g>
   </g>
  </g>
  <g partID="6437830">
   <g transform="translate(59.3934,125.826)">
    <g transform="matrix(-1,0,0,-1,0,0)">
     <g  id="copper0">
      <circle fill="black" cx="20.8462"  cy="15.6024" stroke="black" id="connector0pad" r="1.98" stroke-width="2.16"/>
      <circle fill="black" cx="2.42064"  cy="15.6024" stroke="black" id="connector1pad" r="1.98" stroke-width="2.16"/>
      <circle fill="black" cx="20.8462"  cy="2.84616" stroke="black" id="connector2pad" r="1.98" stroke-width="2.16"/>
      <circle fill="black" cx="2.42064"  cy="2.84616" stroke="black" id="connector3pad" r="1.98" stroke-width="2.16"/>
     </g>
    </g>
   </g>
  </g>
  <g partID="6784700">
   <g transform="translate(27.3247,100.634)">
    <g transform="matrix(0,-1,1,0,0,0)">
     <g  flipped="1" id="copper0" transform="matrix(1, 0, 0, -1, 0, 6.51969)">
      <g >
       <rect width="4.53543" x="0.566929" y="0.566929" fill="black"  height="5.38583" stroke="black" fill-opacity="1" id="connector0pad" stroke-width="0.72"/>
       <rect width="4.53543" x="9.35433" y="0.566929" fill="black"  height="5.38583" stroke="black" fill-opacity="1" id="connector1pad" stroke-width="0.72"/>
      </g>
     </g>
    </g>
   </g>
  </g>
  <g partID="7007910">
   <g transform="translate(106.695,100.918)">
    <g transform="matrix(0,-1,1,0,0,0)">
     <g  flipped="1" id="copper0" transform="matrix(1, 0, 0, -1, 0, 6.51969)">
      <g >
       <rect width="4.53543" x="0.566929" y="0.566929" fill="black"  height="5.38583" stroke="black" fill-opacity="1" id="connector0pad" stroke-width="0.72"/>
       <rect width="4.53543" x="9.35433" y="0.566929" fill="black"  height="5.38583" stroke="black" fill-opacity="1" id="connector1pad" stroke-width="0.72"/>
      </g>
     </g>
    </g>
   </g>
  </g>
  <g partID="7007810">
   <g transform="translate(140.169,100.869)">
    <g transform="matrix(0,-1,1,0,0,0)">
     <g  flipped="1" id="copper0" transform="matrix(1, 0, 0, -1, 0, 6.51969)">
      <g >
       <rect width="4.53543" x="0.566929" y="0.566929" fill="black"  height="5.38583" stroke="black" fill-opacity="1" id="connector0pad" stroke-width="0.72"/>
       <rect width="4.53543" x="9.35433" y="0.566929" fill="black"  height="5.38583" stroke="black" fill-opacity="1" id="connector1pad" stroke-width="0.72"/>
      </g>
     </g>
    </g>
   </g>
  </g>
  <g partID="7007630">
   <g transform="translate(93.3724,86.4613)">
    <g transform="matrix(0,1,-1,0,0,0)">
     <g  flipped="1" id="copper0" transform="matrix(1, 0, 0, -1, 0, 6.51969)">
      <g >
       <rect width="4.53543" x="0.566929" y="0.566929" fill="black"  height="5.38583" stroke="black" fill-opacity="1" id="connector0pad" stroke-width="0.72"/>
       <rect width="4.53543" x="9.35433" y="0.566929" fill="black"  height="5.38583" stroke="black" fill-opacity="1" id="connector1pad" stroke-width="0.72"/>
      </g>
     </g>
    </g>
   </g>
  </g>
  <g partID="6784820">
   <g transform="translate(14.002,86.4613)">
    <g transform="matrix(0,1,-1,0,0,0)">
     <g  flipped="1" id="copper0" transform="matrix(1, 0, 0, -1, 0, 6.51969)">
      <g >
       <rect width="4.53543" x="0.566929" y="0.566929" fill="black"  height="5.38583" stroke="black" fill-opacity="1" id="connector0pad" stroke-width="0.72"/>
       <rect width="4.53543" x="9.35433" y="0.566929" fill="black"  height="5.38583" stroke="black" fill-opacity="1" id="connector1pad" stroke-width="0.72"/>
      </g>
     </g>
    </g>
   </g>
  </g>
  <g partID="7003330">
   <g transform="translate(133.057,86.4613)">
    <g transform="matrix(0,1,-1,0,0,0)">
     <g  flipped="1" id="copper0" transform="matrix(1, 0, 0, -1, 0, 6.51969)">
      <g >
       <rect width="4.53543" x="0.566929" y="0.566929" fill="black"  height="5.38583" stroke="black" fill-opacity="1" id="connector0pad" stroke-width="0.72"/>
       <rect width="4.53543" x="9.35433" y="0.566929" fill="black"  height="5.38583" stroke="black" fill-opacity="1" id="connector1pad" stroke-width="0.72"/>
      </g>
     </g>
    </g>
   </g>
  </g>
  <g partID="6784920">
   <g transform="translate(47.1679,100.634)">
    <g transform="matrix(0,-1,1,0,0,0)">
     <g  flipped="1" id="copper0" transform="matrix(1, 0, 0, -1, 0, 6.51969)">
      <g >
       <rect width="4.53543" x="0.566929" y="0.566929" fill="black"  height="5.38583" stroke="black" fill-opacity="1" id="connector0pad" stroke-width="0.72"/>
       <rect width="4.53543" x="9.35433" y="0.566929" fill="black"  height="5.38583" stroke="black" fill-opacity="1" id="connector1pad" stroke-width="0.72"/>
      </g>
     </g>
    </g>
   </g>
  </g>
  <g partID="6785020">
   <g transform="translate(67.0103,100.634)">
    <g transform="matrix(0,-1,1,0,0,0)">
     <g  flipped="1" id="copper0" transform="matrix(1, 0, 0, -1, 0, 6.51969)">
      <g >
       <rect width="4.53543" x="0.566929" y="0.566929" fill="black"  height="5.38583" stroke="black" fill-opacity="1" id="connector0pad" stroke-width="0.72"/>
       <rect width="4.53543" x="9.35433" y="0.566929" fill="black"  height="5.38583" stroke="black" fill-opacity="1" id="connector1pad" stroke-width="0.72"/>
      </g>
     </g>
    </g>
   </g>
  </g>
  <g partID="6999740">
   <g transform="translate(152.925,129.203)">
    <g transform="matrix(-1,0,0,-1,0,0)">
     <g  id="copper0">
      <rect width="3.96" x="16.02" y="6.228" fill="black"  height="3.96" stroke="black" id="rect10" stroke-width="2.16"/>
      <circle fill="black" cx="3.6"  cy="8.208" stroke="black" id="connector0pin" r="1.98" stroke-width="2.16"/>
      <circle fill="black" cx="10.8"  cy="8.208" stroke="black" id="connector1pin" r="1.98" stroke-width="2.16"/>
      <circle fill="black" cx="18"  cy="8.208" stroke="black" id="connector2pin" r="1.98" stroke-width="2.16"/>
     </g>
    </g>
   </g>
  </g>
  <g partID="7002930">
   <g transform="translate(93.4086,125.826)">
    <g transform="matrix(-1,0,0,-1,0,0)">
     <g  id="copper0">
      <circle fill="black" cx="20.8462"  cy="15.6024" stroke="black" id="connector0pad" r="1.98" stroke-width="2.16"/>
      <circle fill="black" cx="2.42064"  cy="15.6024" stroke="black" id="connector1pad" r="1.98" stroke-width="2.16"/>
      <circle fill="black" cx="20.8462"  cy="2.84616" stroke="black" id="connector2pad" r="1.98" stroke-width="2.16"/>
      <circle fill="black" cx="2.42064"  cy="2.84616" stroke="black" id="connector3pad" r="1.98" stroke-width="2.16"/>
     </g>
    </g>
   </g>
  </g>
  <g partID="7003300">
   <g transform="translate(127.425,125.826)">
    <g transform="matrix(-1,0,0,-1,0,0)">
     <g  id="copper0">
      <circle fill="black" cx="20.8462"  cy="15.6024" stroke="black" id="connector0pad" r="1.98" stroke-width="2.16"/>
      <circle fill="black" cx="2.42064"  cy="15.6024" stroke="black" id="connector1pad" r="1.98" stroke-width="2.16"/>
      <circle fill="black" cx="20.8462"  cy="2.84616" stroke="black" id="connector2pad" r="1.98" stroke-width="2.16"/>
      <circle fill="black" cx="2.42064"  cy="2.84616" stroke="black" id="connector3pad" r="1.98" stroke-width="2.16"/>
     </g>
    </g>
   </g>
  </g>
  <g partID="7148160">
   <g transform="translate(-0.0845683,40.4954)">
    <g transform="matrix(1,0,0,1,0,0)">
     <g  id="copper0">
      <g  id="copper1">
       <circle fill="black" cx="13.029"  cy="32.333" stroke="black" id="connector11pad" r="2.16" stroke-width="1.72"/>
       <circle fill="black" cx="13.029"  cy="25.134" stroke="black" id="connector10pad" r="2.16" stroke-width="1.72"/>
       <circle fill="black" cx="13.029"  cy="17.934" stroke="black" id="connector9pad" r="2.16" stroke-width="1.72"/>
       <circle fill="black" cx="13.029"  cy="10.734" stroke="black" id="connector8pad" r="2.16" stroke-width="1.72"/>
      </g>
     </g>
    </g>
   </g>
  </g>
  <g partID="7303290">
   <g transform="translate(146.315,73.7506)">
    <g transform="matrix(-1,0,0,-1,0,0)">
     <g id="copper0" transform="matrix(1, 0, 0, 1, 0, -809.49)">
      <g stroke-opacity="1" fill="none" stroke="black" style="display:inline" transform="matrix(1, 0, 0, 1, -3.6, 796.89)">
       <g transform="matrix(1, 0, 0, 1, -14.4, 0)">
        <path stroke-opacity="1" fill="black" stroke="black" style="stroke-linecap:round;stroke-linejoin:miter;stroke-miterlimit:4;stroke-dasharray:none;display:inline" id="connector5pad" stroke-width="2.16" d="m109.8,25.2a1.8,1.8,0,1,1,-3.6,0,1.8,1.8,0,1,1,3.6,0z"/>
       </g>
       <g transform="matrix(1, 0, 0, 1, -21.6, 0)">
        <path stroke-opacity="1" fill="black" stroke="black" style="stroke-linecap:round;stroke-linejoin:miter;stroke-miterlimit:4;stroke-dasharray:none;display:inline" id="connector7pad" stroke-width="2.16" d="m109.8,25.2a1.8,1.8,0,1,1,-3.6,0,1.8,1.8,0,1,1,3.6,0z"/>
       </g>
       <g transform="matrix(1, 0, 0, 1, -28.8, 0)">
        <path stroke-opacity="1" fill="black" stroke="black" style="stroke-linecap:round;stroke-linejoin:miter;stroke-miterlimit:4;stroke-dasharray:none;display:inline" id="connector9pad" stroke-width="2.16" d="m109.8,25.2a1.8,1.8,0,1,1,-3.6,0,1.8,1.8,0,1,1,3.6,0z"/>
       </g>
       <g transform="matrix(1, 0, 0, 1, -50.4, 0)">
        <path stroke-opacity="1" fill="black" stroke="black" style="stroke-linecap:round;stroke-linejoin:miter;stroke-miterlimit:4;stroke-dasharray:none;display:inline" id="connector15pad" stroke-width="2.16" d="m109.8,25.2a1.8,1.8,0,1,1,-3.6,0,1.8,1.8,0,1,1,3.6,0z"/>
       </g>
       <g transform="matrix(1, 0, 0, 1, -57.6, 0)">
        <path stroke-opacity="1" fill="black" stroke="black" style="stroke-linecap:round;stroke-linejoin:miter;stroke-miterlimit:4;stroke-dasharray:none;display:inline" id="connector17pad" stroke-width="2.16" d="m109.8,25.2a1.8,1.8,0,1,1,-3.6,0,1.8,1.8,0,1,1,3.6,0z"/>
       </g>
       <g transform="matrix(1, 0, 0, 1, -64.8, 0)">
        <path stroke-opacity="1" fill="black" stroke="black" style="stroke-linecap:round;stroke-linejoin:miter;stroke-miterlimit:4;stroke-dasharray:none;display:inline" id="connector19pad" stroke-width="2.16" d="m109.8,25.2a1.8,1.8,0,1,1,-3.6,0,1.8,1.8,0,1,1,3.6,0z"/>
       </g>
       <g transform="matrix(1, 0, 0, 1, -36, 0)">
        <path stroke-opacity="1" fill="black" stroke="black" style="stroke-linecap:round;stroke-linejoin:miter;stroke-miterlimit:4;stroke-dasharray:none;display:inline" id="connector11pad" stroke-width="2.16" d="m109.8,25.2a1.8,1.8,0,1,1,-3.6,0,1.8,1.8,0,1,1,3.6,0z"/>
       </g>
       <g transform="matrix(1, 0, 0, 1, -43.2, 0)">
        <path stroke-opacity="1" fill="black" stroke="black" style="stroke-linecap:round;stroke-linejoin:miter;stroke-miterlimit:4;stroke-dasharray:none;display:inline" id="connector13pad" stroke-width="2.16" d="m109.8,25.2a1.8,1.8,0,1,1,-3.6,0,1.8,1.8,0,1,1,3.6,0z"/>
       </g>
       <g transform="matrix(1, 0, 0, 1, -79.2, 0)">
        <path stroke-opacity="1" fill="black" stroke="black" style="stroke-linecap:round;stroke-linejoin:miter;stroke-miterlimit:4;stroke-dasharray:none;display:inline" id="connector23pad" stroke-width="2.16" d="m109.8,25.2a1.8,1.8,0,1,1,-3.6,0,1.8,1.8,0,1,1,3.6,0z"/>
       </g>
       <g transform="matrix(1, 0, 0, 1, -86.4, 0)">
        <path stroke-opacity="1" fill="black" stroke="black" style="stroke-linecap:round;stroke-linejoin:miter;stroke-miterlimit:4;stroke-dasharray:none;display:inline" id="connector25pad" stroke-width="2.16" d="m109.8,25.2a1.8,1.8,0,1,1,-3.6,0,1.8,1.8,0,1,1,3.6,0z"/>
       </g>
       <g transform="matrix(1, 0, 0, 1, -72, 0)">
        <path stroke-opacity="1" fill="black" stroke="black" style="stroke-linecap:round;stroke-linejoin:miter;stroke-miterlimit:4;stroke-dasharray:none;display:inline" id="connector21pad" stroke-width="2.16" d="m109.8,25.2a1.8,1.8,0,1,1,-3.6,0,1.8,1.8,0,1,1,3.6,0z"/>
       </g>
       <g transform="matrix(1, 0, 0, 1, -14.4, 7.2)">
        <path stroke-opacity="1" fill="black" stroke="black" style="stroke-linecap:round;stroke-linejoin:miter;stroke-miterlimit:4;stroke-dasharray:none;display:inline" id="connector6pad" stroke-width="2.16" d="m109.8,25.2a1.8,1.8,0,1,1,-3.6,0,1.8,1.8,0,1,1,3.6,0z"/>
       </g>
       <g transform="matrix(1, 0, 0, 1, -21.6, 7.2)">
        <path stroke-opacity="1" fill="black" stroke="black" style="stroke-linecap:round;stroke-linejoin:miter;stroke-miterlimit:4;stroke-dasharray:none;display:inline" id="connector8pad" stroke-width="2.16" d="m109.8,25.2a1.8,1.8,0,1,1,-3.6,0,1.8,1.8,0,1,1,3.6,0z"/>
       </g>
       <g transform="matrix(1, 0, 0, 1, -28.8, 7.2)">
        <path stroke-opacity="1" fill="black" stroke="black" style="stroke-linecap:round;stroke-linejoin:miter;stroke-miterlimit:4;stroke-dasharray:none;display:inline" id="connector10pad" stroke-width="2.16" d="m109.8,25.2a1.8,1.8,0,1,1,-3.6,0,1.8,1.8,0,1,1,3.6,0z"/>
       </g>
       <g transform="matrix(1, 0, 0, 1, -50.4, 7.2)">
        <path stroke-opacity="1" fill="black" stroke="black" style="stroke-linecap:round;stroke-linejoin:miter;stroke-miterlimit:4;stroke-dasharray:none;display:inline" id="connector16pad" stroke-width="2.16" d="m109.8,25.2a1.8,1.8,0,1,1,-3.6,0,1.8,1.8,0,1,1,3.6,0z"/>
       </g>
       <g transform="matrix(1, 0, 0, 1, -57.6, 7.2)">
        <path stroke-opacity="1" fill="black" stroke="black" style="stroke-linecap:round;stroke-linejoin:miter;stroke-miterlimit:4;stroke-dasharray:none;display:inline" id="connector18pad" stroke-width="2.16" d="m109.8,25.2a1.8,1.8,0,1,1,-3.6,0,1.8,1.8,0,1,1,3.6,0z"/>
       </g>
       <g transform="matrix(1, 0, 0, 1, -64.8, 7.2)">
        <path stroke-opacity="1" fill="black" stroke="black" style="stroke-linecap:round;stroke-linejoin:miter;stroke-miterlimit:4;stroke-dasharray:none;display:inline" id="connector20pad" stroke-width="2.16" d="m109.8,25.2a1.8,1.8,0,1,1,-3.6,0,1.8,1.8,0,1,1,3.6,0z"/>
       </g>
       <g transform="matrix(1, 0, 0, 1, -36, 7.2)">
        <path stroke-opacity="1" fill="black" stroke="black" style="stroke-linecap:round;stroke-linejoin:miter;stroke-miterlimit:4;stroke-dasharray:none;display:inline" id="connector12pad" stroke-width="2.16" d="m109.8,25.2a1.8,1.8,0,1,1,-3.6,0,1.8,1.8,0,1,1,3.6,0z"/>
       </g>
       <g transform="matrix(1, 0, 0, 1, -43.2, 7.2)">
        <path stroke-opacity="1" fill="black" stroke="black" style="stroke-linecap:round;stroke-linejoin:miter;stroke-miterlimit:4;stroke-dasharray:none;display:inline" id="connector14pad" stroke-width="2.16" d="m109.8,25.2a1.8,1.8,0,1,1,-3.6,0,1.8,1.8,0,1,1,3.6,0z"/>
       </g>
       <g transform="matrix(1, 0, 0, 1, -79.2, 7.2)">
        <path stroke-opacity="1" fill="black" stroke="black" style="stroke-linecap:round;stroke-linejoin:miter;stroke-miterlimit:4;stroke-dasharray:none;display:inline" id="connector24pad" stroke-width="2.16" d="m109.8,25.2a1.8,1.8,0,1,1,-3.6,0,1.8,1.8,0,1,1,3.6,0z"/>
       </g>
       <g transform="matrix(1, 0, 0, 1, -86.4, 7.2)">
        <path stroke-opacity="1" fill="black" stroke="black" style="stroke-linecap:round;stroke-linejoin:miter;stroke-miterlimit:4;stroke-dasharray:none;display:inline" id="connector26pad" stroke-width="2.16" d="m109.8,25.2a1.8,1.8,0,1,1,-3.6,0,1.8,1.8,0,1,1,3.6,0z"/>
       </g>
       <g transform="matrix(1, 0, 0, 1, -72, 7.2)">
        <path stroke-opacity="1" fill="black" stroke="black" style="stroke-linecap:round;stroke-linejoin:miter;stroke-miterlimit:4;stroke-dasharray:none;display:inline" id="connector22pad" stroke-width="2.16" d="m109.8,25.2a1.8,1.8,0,1,1,-3.6,0,1.8,1.8,0,1,1,3.6,0z"/>
       </g>
       <g transform="matrix(1, 0, 0, 1, 0, 7.2)">
        <path stroke-opacity="1" fill="black" stroke="black" style="stroke-linecap:round;stroke-linejoin:miter;stroke-miterlimit:4;stroke-dasharray:none;display:inline" id="connector2pad" stroke-width="2.16" d="m109.8,25.2a1.8,1.8,0,1,1,-3.6,0,1.8,1.8,0,1,1,3.6,0z"/>
       </g>
       <g transform="matrix(1, 0, 0, 1, -7.2, 7.2)">
        <path stroke-opacity="1" fill="black" stroke="black" style="stroke-linecap:round;stroke-linejoin:miter;stroke-miterlimit:4;stroke-dasharray:none;display:inline" id="connector4pad" stroke-width="2.16" d="m109.8,25.2a1.8,1.8,0,1,1,-3.6,0,1.8,1.8,0,1,1,3.6,0z"/>
       </g>
       <rect width="3.6" x="106.2" y="23.4" stroke-opacity="1" fill="black" height="3.6" stroke="black" style="stroke-linecap:round;stroke-linejoin:miter;stroke-miterlimit:4;stroke-dasharray:none;display:inline" id="rect4984-3" stroke-width="2.16"/>
       <path stroke-opacity="1" fill="black" stroke="black" style="stroke-linecap:round;stroke-linejoin:miter;stroke-miterlimit:4;stroke-dasharray:none" id="connector1pad" stroke-width="2.16" d="m109.8,25.2a1.8,1.8,0,1,1,-3.6,0,1.8,1.8,0,1,1,3.6,0z"/>
       <g transform="matrix(1, 0, 0, 1, -7.2, 0)">
        <path stroke-opacity="1" fill="black" stroke="black" style="stroke-linecap:round;stroke-linejoin:miter;stroke-miterlimit:4;stroke-dasharray:none" id="connector3pad" stroke-width="2.16" d="m109.8,25.2a1.8,1.8,0,1,1,-3.6,0,1.8,1.8,0,1,1,3.6,0z"/>
       </g>
      </g>
     </g>
    </g>
   </g>
  </g>
  <g partID="7407980">
   <g transform="translate(14.5533,86.2295)">
    <g  id="copper0">
     <circle fill="black" cx="3.01733"  cy="3.01733" stroke="black" r="0.992124" id="connector0pin" stroke-width="1.57039"/>
    </g>
   </g>
  </g>
  <g partID="7409470">
   <g transform="translate(38.6478,86.2295)">
    <g  id="copper0">
     <circle fill="black" cx="3.01733"  cy="3.01733" stroke="black" r="0.992124" id="connector0pin" stroke-width="1.57039"/>
    </g>
   </g>
  </g>
  <g partID="7473910">
   <g transform="translate(128.79,70.3555)">
    <g  id="copper0">
     <circle fill="black" cx="3.01732"  cy="3.01732" stroke="black" r="0.992124" id="connector0pin" stroke-width="1.57039"/>
    </g>
   </g>
  </g>
  <g partID="7474370">
   <g transform="translate(35.2462,38.8909)">
    <g  id="copper0">
     <circle fill="black" cx="3.01732"  cy="3.01732" stroke="black" r="0.992124" id="connector0pin" stroke-width="1.57039"/>
    </g>
   </g>
  </g>
  <g partID="7475910">
   <g transform="translate(89.388,43.1429)">
    <g  id="copper0">
     <circle fill="black" cx="3.01732"  cy="3.01732" stroke="black" r="0.992124" id="connector0pin" stroke-width="1.57039"/>
    </g>
   </g>
  </g>
  <g partID="7497520">
   <g transform="translate(96.1911,42.8594)">
    <g  id="copper0">
     <circle fill="black" cx="3.01733"  cy="3.01733" stroke="black" r="0.992124" id="connector0pin" stroke-width="1.57039"/>
    </g>
   </g>
  </g>
  <g partID="7498410">
   <g transform="translate(136.16,18.4815)">
    <g  id="copper0">
     <circle fill="black" cx="3.01733"  cy="3.01733" stroke="black" r="0.992124" id="connector0pin" stroke-width="1.57039"/>
    </g>
   </g>
  </g>
  <g partID="7499290">
   <g transform="translate(72.159,33.3266)">
    <g  id="copper0">
     <circle fill="black" cx="3.01733"  cy="3.01733" stroke="black" r="0.992124" id="connector0pin" stroke-width="1.57039"/>
    </g>
   </g>
  </g>
  <g partID="7503030">
   <g transform="translate(16.9433,44.6208)">
    <g  id="copper0">
     <circle fill="black" cx="3.01733"  cy="3.01733" stroke="black" r="0.992124" id="connector0pin" stroke-width="1.57039"/>
    </g>
   </g>
  </g>
 </g>
</svg>
