<?xml version='1.0' encoding='UTF-8' standalone='no'?>
<!-- Created with Fritzing (http://www.fritzing.org/) -->
<svg xmlns="http://www.w3.org/2000/svg" width="2.1658in" x="0in" version="1.2" y="0in"  height="1.77169in" viewBox="0 0 155.937 127.562" baseProfile="tiny" xmlns:svg="http://www.w3.org/2000/svg">
 <g partID="12040">
  <g id="board">
   <rect width="155.361" x="0.576" y="0.576" fill="none" height="126.986" stroke="black" fill-opacity="0.5" id="boardoutline" stroke-width="0.5"/>
  </g>
 </g>
 <g partID="7383501">
  <g transform="translate(-18.7724,1.54291)">
   <g  id="copper1">
    <g  id="copper0">
     <g width="3.96" x="20.664" y="5.184" fill="none"  height="3.96" stroke="black" id="0" stroke-width="1.44"/>
     <g fill="none" cx="22.68"  cy="7.2" stroke="black" id="1" r="1.98" stroke-width="1.44"/>
     <g fill="none" cx="29.88"  cy="7.2" stroke="black" id="2" r="1.98" stroke-width="1.44"/>
     <g fill="none" cx="37.08"  cy="7.2" stroke="black" id="3" r="1.98" stroke-width="1.44"/>
     <g fill="none" cx="44.28"  cy="7.2" stroke="black" id="4" r="1.98" stroke-width="1.44"/>
     <g fill="none" cx="51.48"  cy="7.2" stroke="black" id="5" r="1.98" stroke-width="1.44"/>
     <g fill="none" cx="58.68"  cy="7.2" stroke="black" id="6" r="1.98" stroke-width="1.44"/>
     <g fill="none" cx="65.88"  cy="7.2" stroke="black" id="7" r="1.98" stroke-width="1.44"/>
     <g fill="none" cx="73.08"  cy="7.2" stroke="black" id="8" r="1.98" stroke-width="1.44"/>
     <g fill="none" cx="80.28"  cy="7.2" stroke="black" id="9" r="1.98" stroke-width="1.44"/>
     <g fill="none" cx="87.48"  cy="7.2" stroke="black" id="10" r="1.98" stroke-width="1.44"/>
     <g fill="none" cx="94.68"  cy="7.2" stroke="black" id="11" r="1.98" stroke-width="1.44"/>
     <g fill="none" cx="101.88"  cy="7.2" stroke="black" id="12" r="1.98" stroke-width="1.44"/>
     <g fill="none" cx="109.08"  cy="7.2" stroke="black" id="13" r="1.98" stroke-width="1.44"/>
     <g fill="none" cx="116.28"  cy="7.2" stroke="black" id="14" r="1.98" stroke-width="1.44"/>
     <g fill="none" cx="123.48"  cy="7.2" stroke="black" id="15" r="1.98" stroke-width="1.44"/>
     <g fill="none" cx="130.68"  cy="7.2" stroke="black" id="16" r="1.98" stroke-width="1.44"/>
    </g>
   </g>
  </g>
 </g>
 <g partID="6832281">
  <g transform="translate(31.8674,21.1194)">
   <g transform="matrix(0,1,-1,0,0,0)">
    <g  id="copper1">
     <g  id="copper0">
      <g fill="none" cx="3.528"  cy="17.928" stroke="black" id="17" r="2.52" stroke-width="2.088"/>
      <g width="5.04" x="1.008" y="1.008" fill="none"  height="5.04" stroke="black" id="18" stroke-width="2.088"/>
      <g fill="none" cx="3.528"  cy="3.528" stroke="black" id="19" r="2.52" stroke-width="2.088"/>
      <g fill="none" cx="17.928"  cy="10.728" stroke="black" id="20" r="2.52" stroke-width="2.088"/>
     </g>
    </g>
   </g>
  </g>
 </g>
 <g partID="6445071">
  <g transform="translate(25.3774,125.826)">
   <g transform="matrix(-1,0,0,-1,0,0)">
    <g  id="copper1">
     <g  id="copper0">
      <g fill="none" cx="20.8462"  cy="15.6024" stroke="black" id="21" r="1.98" stroke-width="1.44"/>
      <g fill="none" cx="2.42064"  cy="15.6024" stroke="black" id="22" r="1.98" stroke-width="1.44"/>
      <g fill="none" cx="20.8462"  cy="2.84616" stroke="black" id="23" r="1.98" stroke-width="1.44"/>
      <g fill="none" cx="2.42064"  cy="2.84616" stroke="black" id="24" r="1.98" stroke-width="1.44"/>
     </g>
    </g>
   </g>
  </g>
 </g>
 <g partID="6437831">
  <g transform="translate(59.3934,125.826)">
   <g transform="matrix(-1,0,0,-1,0,0)">
    <g  id="copper1">
     <g  id="copper0">
      <g fill="none" cx="20.8462"  cy="15.6024" stroke="black" id="25" r="1.98" stroke-width="1.44"/>
      <g fill="none" cx="2.42064"  cy="15.6024" stroke="black" id="26" r="1.98" stroke-width="1.44"/>
      <g fill="none" cx="20.8462"  cy="2.84616" stroke="black" id="27" r="1.98" stroke-width="1.44"/>
      <g fill="none" cx="2.42064"  cy="2.84616" stroke="black" id="28" r="1.98" stroke-width="1.44"/>
     </g>
    </g>
   </g>
  </g>
 </g>
 <g partID="7108110">
  <g transform="translate(118.059,28.4437)">
   <g transform="matrix(0,-1,1,0,0,0)">
    <g  id="copper1">
     <!-- unten links -->
     <rect width="2.26772" x="0.425197" y="5.66929" fill="black"  height="2.55118" stroke="none" fill-opacity="1" id="29"/>
     <g width="0" x="1.55906" y="6.94488" fill="none"  height="0" id="30" stroke-width="0"/>
     <!-- unten rechts -->
     <rect width="2.26772" x="5.81102" y="5.66929" fill="black"  height="2.55118" stroke="none" fill-opacity="1" id="31"/>
     <g width="0" x="6.94488" y="6.94488" fill="none"  height="0" id="32" stroke-width="0"/>
     <!-- oben mitte -->
     <rect width="2.26772" x="3.11811" y="0" fill="black"  height="2.55118" stroke="none" fill-opacity="1" id="33"/>
     <g width="0" x="4.25197" y="1.27559" fill="none"  height="0" id="34" stroke-width="0"/>
    </g>
   </g>
  </g>
 </g>
 <g partID="7125070">
  <g transform="translate(149.098,107.813)">
   <g transform="matrix(-1,0,0,-1,0,0)">
    <g  id="copper1">
     <rect width="4.53543" x="0.566929" y="0.566929" fill="black"  height="5.38583" stroke="none" fill-opacity="1" id="35"/>
     <rect width="4.53543" x="9.35433" y="0.566929" fill="black"  height="5.38583" stroke="none" fill-opacity="1" id="36"/>
    </g>
   </g>
  </g>
 </g>
 <g partID="6815150">
  <g transform="translate(135.067,24.05)">
   <g transform="matrix(0,1,-1,0,0,0)">
    <g  id="copper1">
     <rect width="4.53543" x="0.566929" y="0.566929" fill="black"  height="5.38583" stroke="none" fill-opacity="1" id="37"/>
     <rect width="4.53543" x="9.35433" y="0.566929" fill="black"  height="5.38583" stroke="none" fill-opacity="1" id="38"/>
    </g>
   </g>
  </g>
 </g>
 <g partID="6999741">
  <g transform="translate(152.925,129.203)">
   <g transform="matrix(-1,0,0,-1,0,0)">
    <g  id="copper1">
     <g  id="copper0">
      <g width="3.96" x="16.02" y="6.228" fill="none"  height="3.96" stroke="black" id="39" stroke-width="1.44"/>
      <g fill="none" cx="3.6"  cy="8.208" stroke="black" id="40" r="1.98" stroke-width="1.44"/>
      <g fill="none" cx="10.8"  cy="8.208" stroke="black" id="41" r="1.98" stroke-width="1.44"/>
      <g fill="none" cx="18"  cy="8.208" stroke="black" id="42" r="1.98" stroke-width="1.44"/>
     </g>
    </g>
   </g>
  </g>
 </g>
 <g partID="7002931">
  <g transform="translate(93.4086,125.826)">
   <g transform="matrix(-1,0,0,-1,0,0)">
    <g  id="copper1">
     <g  id="copper0">
      <g fill="none" cx="20.8462"  cy="15.6024" stroke="black" id="43" r="1.98" stroke-width="1.44"/>
      <g fill="none" cx="2.42064"  cy="15.6024" stroke="black" id="44" r="1.98" stroke-width="1.44"/>
      <g fill="none" cx="20.8462"  cy="2.84616" stroke="black" id="45" r="1.98" stroke-width="1.44"/>
      <g fill="none" cx="2.42064"  cy="2.84616" stroke="black" id="46" r="1.98" stroke-width="1.44"/>
     </g>
    </g>
   </g>
  </g>
 </g>
 <g partID="7003301">
  <g transform="translate(127.425,125.826)">
   <g transform="matrix(-1,0,0,-1,0,0)">
    <g  id="copper1">
     <g  id="copper0">
      <g fill="none" cx="20.8462"  cy="15.6024" stroke="black" id="47" r="1.98" stroke-width="1.44"/>
      <g fill="none" cx="2.42064"  cy="15.6024" stroke="black" id="48" r="1.98" stroke-width="1.44"/>
      <g fill="none" cx="20.8462"  cy="2.84616" stroke="black" id="49" r="1.98" stroke-width="1.44"/>
      <g fill="none" cx="2.42064"  cy="2.84616" stroke="black" id="50" r="1.98" stroke-width="1.44"/>
     </g>
    </g>
   </g>
  </g>
 </g>
 <g partID="7148161">
  <g transform="translate(-0.0845683,40.4954)">
   <g transform="matrix(1,0,0,1,0,0)">
    <g  id="copper1">
     <g fill="none" cx="13.029"  cy="32.333" stroke="black" id="51" r="2.16" stroke-width="0.999999"/>
     <g fill="none" cx="13.029"  cy="25.134" stroke="black" id="52" r="2.16" stroke-width="0.999999"/>
     <g fill="none" cx="13.029"  cy="17.934" stroke="black" id="53" r="2.16" stroke-width="0.999999"/>
     <g fill="none" cx="13.029"  cy="10.734" stroke="black" id="54" r="2.16" stroke-width="0.999999"/>
    </g>
   </g>
  </g>
 </g>
 <g partID="7303291">
  <g transform="translate(146.315,73.7506)">
   <g transform="matrix(-1,0,0,-1,0,0)">
    <g id="copper1" transform="matrix(1, 0, 0, 1, 0, -809.49)">
     <g stroke-opacity="1" fill="none" stroke="black" style="display:inline" transform="matrix(1, 0, 0, 1, -3.60117, 796.891)">
      <g transform="matrix(1, 0, 0, 1, -14.4, 0)">
       <g stroke-opacity="1" fill="none" stroke="black" style="stroke-linecap:round;stroke-linejoin:miter;stroke-miterlimit:4;stroke-dasharray:none;display:inline" id="55" stroke-width="1.44" d="m109.8,25.2a1.8,1.8,0,1,1,-3.6,0,1.8,1.8,0,1,1,3.6,0z"/>
      </g>
      <g transform="matrix(1, 0, 0, 1, -21.6, 0)">
       <g stroke-opacity="1" fill="none" stroke="black" style="stroke-linecap:round;stroke-linejoin:miter;stroke-miterlimit:4;stroke-dasharray:none;display:inline" id="56" stroke-width="1.44" d="m109.8,25.2a1.8,1.8,0,1,1,-3.6,0,1.8,1.8,0,1,1,3.6,0z"/>
      </g>
      <g transform="matrix(1, 0, 0, 1, -28.8, 0)">
       <g stroke-opacity="1" fill="none" stroke="black" style="stroke-linecap:round;stroke-linejoin:miter;stroke-miterlimit:4;stroke-dasharray:none;display:inline" id="57" stroke-width="1.44" d="m109.8,25.2a1.8,1.8,0,1,1,-3.6,0,1.8,1.8,0,1,1,3.6,0z"/>
      </g>
      <g transform="matrix(1, 0, 0, 1, -50.4, 0)">
       <g stroke-opacity="1" fill="none" stroke="black" style="stroke-linecap:round;stroke-linejoin:miter;stroke-miterlimit:4;stroke-dasharray:none;display:inline" id="58" stroke-width="1.44" d="m109.8,25.2a1.8,1.8,0,1,1,-3.6,0,1.8,1.8,0,1,1,3.6,0z"/>
      </g>
      <g transform="matrix(1, 0, 0, 1, -57.6, 0)">
       <g stroke-opacity="1" fill="none" stroke="black" style="stroke-linecap:round;stroke-linejoin:miter;stroke-miterlimit:4;stroke-dasharray:none;display:inline" id="59" stroke-width="1.44" d="m109.8,25.2a1.8,1.8,0,1,1,-3.6,0,1.8,1.8,0,1,1,3.6,0z"/>
      </g>
      <g transform="matrix(1, 0, 0, 1, -64.8, 0)">
       <g stroke-opacity="1" fill="none" stroke="black" style="stroke-linecap:round;stroke-linejoin:miter;stroke-miterlimit:4;stroke-dasharray:none;display:inline" id="60" stroke-width="1.44" d="m109.8,25.2a1.8,1.8,0,1,1,-3.6,0,1.8,1.8,0,1,1,3.6,0z"/>
      </g>
      <g transform="matrix(1, 0, 0, 1, -36, 0)">
       <g stroke-opacity="1" fill="none" stroke="black" style="stroke-linecap:round;stroke-linejoin:miter;stroke-miterlimit:4;stroke-dasharray:none;display:inline" id="61" stroke-width="1.44" d="m109.8,25.2a1.8,1.8,0,1,1,-3.6,0,1.8,1.8,0,1,1,3.6,0z"/>
      </g>
      <g transform="matrix(1, 0, 0, 1, -43.2, 0)">
       <g stroke-opacity="1" fill="none" stroke="black" style="stroke-linecap:round;stroke-linejoin:miter;stroke-miterlimit:4;stroke-dasharray:none;display:inline" id="62" stroke-width="1.44" d="m109.8,25.2a1.8,1.8,0,1,1,-3.6,0,1.8,1.8,0,1,1,3.6,0z"/>
      </g>
      <g transform="matrix(1, 0, 0, 1, -79.2, 0)">
       <g stroke-opacity="1" fill="none" stroke="black" style="stroke-linecap:round;stroke-linejoin:miter;stroke-miterlimit:4;stroke-dasharray:none;display:inline" id="63" stroke-width="1.44" d="m109.8,25.2a1.8,1.8,0,1,1,-3.6,0,1.8,1.8,0,1,1,3.6,0z"/>
      </g>
      <g transform="matrix(1, 0, 0, 1, -86.4, 0)">
       <g stroke-opacity="1" fill="none" stroke="black" style="stroke-linecap:round;stroke-linejoin:miter;stroke-miterlimit:4;stroke-dasharray:none;display:inline" id="64" stroke-width="1.44" d="m109.8,25.2a1.8,1.8,0,1,1,-3.6,0,1.8,1.8,0,1,1,3.6,0z"/>
      </g>
      <g transform="matrix(1, 0, 0, 1, -72, 0)">
       <g stroke-opacity="1" fill="none" stroke="black" style="stroke-linecap:round;stroke-linejoin:miter;stroke-miterlimit:4;stroke-dasharray:none;display:inline" id="65" stroke-width="1.44" d="m109.8,25.2a1.8,1.8,0,1,1,-3.6,0,1.8,1.8,0,1,1,3.6,0z"/>
      </g>
      <g transform="matrix(1, 0, 0, 1, -14.4, 7.2)">
       <g stroke-opacity="1" fill="none" stroke="black" style="stroke-linecap:round;stroke-linejoin:miter;stroke-miterlimit:4;stroke-dasharray:none;display:inline" id="66" stroke-width="1.44" d="m109.8,25.2a1.8,1.8,0,1,1,-3.6,0,1.8,1.8,0,1,1,3.6,0z"/>
      </g>
      <g transform="matrix(1, 0, 0, 1, -21.6, 7.2)">
       <g stroke-opacity="1" fill="none" stroke="black" style="stroke-linecap:round;stroke-linejoin:miter;stroke-miterlimit:4;stroke-dasharray:none;display:inline" id="67" stroke-width="1.44" d="m109.8,25.2a1.8,1.8,0,1,1,-3.6,0,1.8,1.8,0,1,1,3.6,0z"/>
      </g>
      <g transform="matrix(1, 0, 0, 1, -28.8, 7.2)">
       <g stroke-opacity="1" fill="none" stroke="black" style="stroke-linecap:round;stroke-linejoin:miter;stroke-miterlimit:4;stroke-dasharray:none;display:inline" id="68" stroke-width="1.44" d="m109.8,25.2a1.8,1.8,0,1,1,-3.6,0,1.8,1.8,0,1,1,3.6,0z"/>
      </g>
      <g transform="matrix(1, 0, 0, 1, -50.4, 7.2)">
       <g stroke-opacity="1" fill="none" stroke="black" style="stroke-linecap:round;stroke-linejoin:miter;stroke-miterlimit:4;stroke-dasharray:none;display:inline" id="69" stroke-width="1.44" d="m109.8,25.2a1.8,1.8,0,1,1,-3.6,0,1.8,1.8,0,1,1,3.6,0z"/>
      </g>
      <g transform="matrix(1, 0, 0, 1, -57.6, 7.2)">
       <g stroke-opacity="1" fill="none" stroke="black" style="stroke-linecap:round;stroke-linejoin:miter;stroke-miterlimit:4;stroke-dasharray:none;display:inline" id="70" stroke-width="1.44" d="m109.8,25.2a1.8,1.8,0,1,1,-3.6,0,1.8,1.8,0,1,1,3.6,0z"/>
      </g>
      <g transform="matrix(1, 0, 0, 1, -64.8, 7.2)">
       <g stroke-opacity="1" fill="none" stroke="black" style="stroke-linecap:round;stroke-linejoin:miter;stroke-miterlimit:4;stroke-dasharray:none;display:inline" id="71" stroke-width="1.44" d="m109.8,25.2a1.8,1.8,0,1,1,-3.6,0,1.8,1.8,0,1,1,3.6,0z"/>
      </g>
      <g transform="matrix(1, 0, 0, 1, -36, 7.2)">
       <g stroke-opacity="1" fill="none" stroke="black" style="stroke-linecap:round;stroke-linejoin:miter;stroke-miterlimit:4;stroke-dasharray:none;display:inline" id="72" stroke-width="1.44" d="m109.8,25.2a1.8,1.8,0,1,1,-3.6,0,1.8,1.8,0,1,1,3.6,0z"/>
      </g>
      <g transform="matrix(1, 0, 0, 1, -43.2, 7.2)">
       <g stroke-opacity="1" fill="none" stroke="black" style="stroke-linecap:round;stroke-linejoin:miter;stroke-miterlimit:4;stroke-dasharray:none;display:inline" id="73" stroke-width="1.44" d="m109.8,25.2a1.8,1.8,0,1,1,-3.6,0,1.8,1.8,0,1,1,3.6,0z"/>
      </g>
      <g transform="matrix(1, 0, 0, 1, -79.2, 7.2)">
       <g stroke-opacity="1" fill="none" stroke="black" style="stroke-linecap:round;stroke-linejoin:miter;stroke-miterlimit:4;stroke-dasharray:none;display:inline" id="74" stroke-width="1.44" d="m109.8,25.2a1.8,1.8,0,1,1,-3.6,0,1.8,1.8,0,1,1,3.6,0z"/>
      </g>
      <g transform="matrix(1, 0, 0, 1, -86.4, 7.2)">
       <g stroke-opacity="1" fill="none" stroke="black" style="stroke-linecap:round;stroke-linejoin:miter;stroke-miterlimit:4;stroke-dasharray:none;display:inline" id="75" stroke-width="1.44" d="m109.8,25.2a1.8,1.8,0,1,1,-3.6,0,1.8,1.8,0,1,1,3.6,0z"/>
      </g>
      <g transform="matrix(1, 0, 0, 1, -72, 7.2)">
       <g stroke-opacity="1" fill="none" stroke="black" style="stroke-linecap:round;stroke-linejoin:miter;stroke-miterlimit:4;stroke-dasharray:none;display:inline" id="76" stroke-width="1.44" d="m109.8,25.2a1.8,1.8,0,1,1,-3.6,0,1.8,1.8,0,1,1,3.6,0z"/>
      </g>
      <g transform="matrix(1, 0, 0, 1, 0, 7.2)">
       <g stroke-opacity="1" fill="none" stroke="black" style="stroke-linecap:round;stroke-linejoin:miter;stroke-miterlimit:4;stroke-dasharray:none;display:inline" id="77" stroke-width="1.44" d="m109.8,25.2a1.8,1.8,0,1,1,-3.6,0,1.8,1.8,0,1,1,3.6,0z"/>
      </g>
      <g transform="matrix(1, 0, 0, 1, -7.2, 7.2)">
       <g stroke-opacity="1" fill="none" stroke="black" style="stroke-linecap:round;stroke-linejoin:miter;stroke-miterlimit:4;stroke-dasharray:none;display:inline" id="78" stroke-width="1.44" d="m109.8,25.2a1.8,1.8,0,1,1,-3.6,0,1.8,1.8,0,1,1,3.6,0z"/>
      </g>
      <g width="3.6" x="106.2" y="23.4" stroke-opacity="1" fill="none" height="3.6" stroke="black" style="stroke-linecap:round;stroke-linejoin:miter;stroke-miterlimit:4;stroke-dasharray:none;display:inline" id="79" stroke-width="1.44"/>
      <g stroke-opacity="1" fill="none" stroke="black" style="stroke-linecap:round;stroke-linejoin:miter;stroke-miterlimit:4;stroke-dasharray:none" id="80" stroke-width="1.44" d="m109.8,25.2a1.8,1.8,0,1,1,-3.6,0,1.8,1.8,0,1,1,3.6,0z"/>
      <g transform="matrix(1, 0, 0, 1, -7.2, 0)">
       <g stroke-opacity="1" fill="none" stroke="black" style="stroke-linecap:round;stroke-linejoin:miter;stroke-miterlimit:4;stroke-dasharray:none" id="81" stroke-width="1.44" d="m109.8,25.2a1.8,1.8,0,1,1,-3.6,0,1.8,1.8,0,1,1,3.6,0z"/>
      </g>
     </g>
    </g>
   </g>
  </g>
 </g>
 <g partID="7407981">
  <g transform="translate(14.5533,86.2295)">
   <g  id="copper1">
    <g fill="none" cx="3.01733"  cy="3.01733" stroke="black" r="0.992124" id="82" stroke-width="0.850392"/>
   </g>
  </g>
 </g>
 <g partID="7409471">
  <g transform="translate(38.6478,86.2295)">
   <g  id="copper1">
    <g fill="none" cx="3.01733"  cy="3.01733" stroke="black" r="0.992124" id="83" stroke-width="0.850392"/>
   </g>
  </g>
 </g>
 <g partID="7473911">
  <g transform="translate(128.79,70.3555)">
   <g  id="copper1">
    <g fill="none" cx="3.01732"  cy="3.01732" stroke="black" r="0.992124" id="84" stroke-width="0.850392"/>
   </g>
  </g>
 </g>
 <g partID="7474371">
  <g transform="translate(35.2462,38.8909)">
   <g  id="copper1">
    <g fill="none" cx="3.01732"  cy="3.01732" stroke="black" r="0.992124" id="85" stroke-width="0.850392"/>
   </g>
  </g>
 </g>
 <g partID="7475911">
  <g transform="translate(89.388,43.1429)">
   <g  id="copper1">
    <g fill="none" cx="3.01732"  cy="3.01732" stroke="black" r="0.992124" id="86" stroke-width="0.850392"/>
   </g>
  </g>
 </g>
 <g partID="7497521">
  <g transform="translate(96.1911,42.8594)">
   <g  id="copper1">
    <g fill="none" cx="3.01733"  cy="3.01733" stroke="black" r="0.992124" id="87" stroke-width="0.850392"/>
   </g>
  </g>
 </g>
 <g partID="7498411">
  <g transform="translate(136.16,18.4815)">
   <g  id="copper1">
    <g fill="none" cx="3.01733"  cy="3.01733" stroke="black" r="0.992124" id="88" stroke-width="0.850392"/>
   </g>
  </g>
 </g>
 <g partID="7499291">
  <g transform="translate(72.159,33.3266)">
   <g  id="copper1">
    <g fill="none" cx="3.01733"  cy="3.01733" stroke="black" r="0.992124" id="89" stroke-width="0.850392"/>
   </g>
  </g>
 </g>
 <g partID="7503031">
  <g transform="translate(16.9433,44.6208)">
   <g  id="copper1">
    <g fill="none" cx="3.01733"  cy="3.01733" stroke="black" r="0.992124" id="90" stroke-width="0.850392"/>
   </g>
  </g>
 </g>
</svg>
