<?xml version='1.0' encoding='UTF-8' standalone='no'?>
<!-- Created with Fritzing (http://www.fritzing.org/) -->
<svg xmlns="http://www.w3.org/2000/svg" width="2.1658in" x="0in" version="1.2" y="0in"  height="1.77169in" viewBox="0 0 155.937 127.562" baseProfile="tiny" xmlns:svg="http://www.w3.org/2000/svg">
 <g transform="matrix(-1, 0, 0, 1, 155.937, 0)">
  <g partID="12040">
   <g id="board">
    <rect width="155.361" x="0.576" y="0.576" fill="none" height="126.986" stroke="black" fill-opacity="0.5" id="boardoutline" stroke-width="0.5"/>
   </g>
  </g>
  <g partID="7383500">
   <g transform="translate(-18.7724,1.54291)">
    <g  id="copper0">
     <rect width="3.96" x="20.664" y="5.184" fill="none"  height="3.96" stroke="black" stroke-width="1.44"/>
     <circle fill="none" cx="22.68"  cy="7.2" stroke="black" id="connector0pin" r="1.98" stroke-width="1.44"/>
     <circle fill="none" cx="29.88"  cy="7.2" stroke="black" id="connector1pin" r="1.98" stroke-width="1.44"/>
     <circle fill="none" cx="37.08"  cy="7.2" stroke="black" id="connector2pin" r="1.98" stroke-width="1.44"/>
     <circle fill="none" cx="44.28"  cy="7.2" stroke="black" id="connector3pin" r="1.98" stroke-width="1.44"/>
     <circle fill="none" cx="51.48"  cy="7.2" stroke="black" id="connector4pin" r="1.98" stroke-width="1.44"/>
     <circle fill="none" cx="58.68"  cy="7.2" stroke="black" id="connector5pin" r="1.98" stroke-width="1.44"/>
     <circle fill="none" cx="65.88"  cy="7.2" stroke="black" id="connector6pin" r="1.98" stroke-width="1.44"/>
     <circle fill="none" cx="73.08"  cy="7.2" stroke="black" id="connector7pin" r="1.98" stroke-width="1.44"/>
     <circle fill="none" cx="80.28"  cy="7.2" stroke="black" id="connector8pin" r="1.98" stroke-width="1.44"/>
     <circle fill="none" cx="87.48"  cy="7.2" stroke="black" id="connector9pin" r="1.98" stroke-width="1.44"/>
     <circle fill="none" cx="94.68"  cy="7.2" stroke="black" id="connector10pin" r="1.98" stroke-width="1.44"/>
     <circle fill="none" cx="101.88"  cy="7.2" stroke="black" id="connector11pin" r="1.98" stroke-width="1.44"/>
     <circle fill="none" cx="109.08"  cy="7.2" stroke="black" id="connector12pin" r="1.98" stroke-width="1.44"/>
     <circle fill="none" cx="116.28"  cy="7.2" stroke="black" id="connector13pin" r="1.98" stroke-width="1.44"/>
     <circle fill="none" cx="123.48"  cy="7.2" stroke="black" id="connector14pin" r="1.98" stroke-width="1.44"/>
     <circle fill="none" cx="130.68"  cy="7.2" stroke="black" id="connector15pin" r="1.98" stroke-width="1.44"/>
    </g>
   </g>
  </g>
  <g partID="6832280">
   <g transform="translate(31.8674,21.1194)">
    <g transform="matrix(0,1,-1,0,0,0)">
     <g  id="copper0">
      <circle fill="none" cx="3.528"  cy="17.928" stroke="black" id="connector2pad" r="2.52" stroke-width="2.088"/>
      <rect width="5.04" x="1.008" y="1.008" fill="none"  height="5.04" stroke="black" stroke-width="2.088"/>
      <circle fill="none" cx="3.528"  cy="3.528" stroke="black" id="connector0pad" r="2.52" stroke-width="2.088"/>
      <circle fill="none" cx="17.928"  cy="10.728" stroke="black" id="connector1pad" r="2.52" stroke-width="2.088"/>
     </g>
    </g>
   </g>
  </g>
  <g partID="6445070">
   <g transform="translate(25.3774,125.826)">
    <g transform="matrix(-1,0,0,-1,0,0)">
     <g  id="copper0">
      <circle fill="none" cx="20.8462"  cy="15.6024" stroke="black" id="connector0pad" r="1.98" stroke-width="1.44"/>
      <circle fill="none" cx="2.42064"  cy="15.6024" stroke="black" id="connector1pad" r="1.98" stroke-width="1.44"/>
      <circle fill="none" cx="20.8462"  cy="2.84616" stroke="black" id="connector2pad" r="1.98" stroke-width="1.44"/>
      <circle fill="none" cx="2.42064"  cy="2.84616" stroke="black" id="connector3pad" r="1.98" stroke-width="1.44"/>
     </g>
    </g>
   </g>
  </g>
  <g partID="6437830">
   <g transform="translate(59.3934,125.826)">
    <g transform="matrix(-1,0,0,-1,0,0)">
     <g  id="copper0">
      <circle fill="none" cx="20.8462"  cy="15.6024" stroke="black" id="connector0pad" r="1.98" stroke-width="1.44"/>
      <circle fill="none" cx="2.42064"  cy="15.6024" stroke="black" id="connector1pad" r="1.98" stroke-width="1.44"/>
      <circle fill="none" cx="20.8462"  cy="2.84616" stroke="black" id="connector2pad" r="1.98" stroke-width="1.44"/>
      <circle fill="none" cx="2.42064"  cy="2.84616" stroke="black" id="connector3pad" r="1.98" stroke-width="1.44"/>
     </g>
    </g>
   </g>
  </g>
  <g partID="6784700">
   <g transform="translate(27.3247,100.634)">
    <g transform="matrix(0,-1,1,0,0,0)">
     <g  flipped="1" id="copper0" transform="matrix(1, 0, 0, -1, 0, 6.51969)">
      <g >
       <rect width="4.53543" x="0.566929" y="0.566929" fill="black"  height="5.38583" stroke="none" fill-opacity="1" id="connector0pad"/>
       <rect width="4.53543" x="9.35433" y="0.566929" fill="black"  height="5.38583" stroke="none" fill-opacity="1" id="connector1pad"/>
      </g>
     </g>
    </g>
   </g>
  </g>
  <g partID="7007910">
   <g transform="translate(106.695,100.918)">
    <g transform="matrix(0,-1,1,0,0,0)">
     <g  flipped="1" id="copper0" transform="matrix(1, 0, 0, -1, 0, 6.51969)">
      <g >
       <rect width="4.53543" x="0.566929" y="0.566929" fill="black"  height="5.38583" stroke="none" fill-opacity="1" id="connector0pad"/>
       <rect width="4.53543" x="9.35433" y="0.566929" fill="black"  height="5.38583" stroke="none" fill-opacity="1" id="connector1pad"/>
      </g>
     </g>
    </g>
   </g>
  </g>
  <g partID="7007810">
   <g transform="translate(140.169,100.869)">
    <g transform="matrix(0,-1,1,0,0,0)">
     <g  flipped="1" id="copper0" transform="matrix(1, 0, 0, -1, 0, 6.51969)">
      <g >
       <rect width="4.53543" x="0.566929" y="0.566929" fill="black"  height="5.38583" stroke="none" fill-opacity="1" id="connector0pad"/>
       <rect width="4.53543" x="9.35433" y="0.566929" fill="black"  height="5.38583" stroke="none" fill-opacity="1" id="connector1pad"/>
      </g>
     </g>
    </g>
   </g>
  </g>
  <g partID="7007630">
   <g transform="translate(93.3724,86.4613)">
    <g transform="matrix(0,1,-1,0,0,0)">
     <g  flipped="1" id="copper0" transform="matrix(1, 0, 0, -1, 0, 6.51969)">
      <g >
       <rect width="4.53543" x="0.566929" y="0.566929" fill="black"  height="5.38583" stroke="none" fill-opacity="1" id="connector0pad"/>
       <rect width="4.53543" x="9.35433" y="0.566929" fill="black"  height="5.38583" stroke="none" fill-opacity="1" id="connector1pad"/>
      </g>
     </g>
    </g>
   </g>
  </g>
  <g partID="6784820">
   <g transform="translate(14.002,86.4613)">
    <g transform="matrix(0,1,-1,0,0,0)">
     <g  flipped="1" id="copper0" transform="matrix(1, 0, 0, -1, 0, 6.51969)">
      <g >
       <rect width="4.53543" x="0.566929" y="0.566929" fill="black"  height="5.38583" stroke="none" fill-opacity="1" id="connector0pad"/>
       <rect width="4.53543" x="9.35433" y="0.566929" fill="black"  height="5.38583" stroke="none" fill-opacity="1" id="connector1pad"/>
      </g>
     </g>
    </g>
   </g>
  </g>
  <g partID="7003330">
   <g transform="translate(133.057,86.4613)">
    <g transform="matrix(0,1,-1,0,0,0)">
     <g  flipped="1" id="copper0" transform="matrix(1, 0, 0, -1, 0, 6.51969)">
      <g >
       <rect width="4.53543" x="0.566929" y="0.566929" fill="black"  height="5.38583" stroke="none" fill-opacity="1" id="connector0pad"/>
       <rect width="4.53543" x="9.35433" y="0.566929" fill="black"  height="5.38583" stroke="none" fill-opacity="1" id="connector1pad"/>
      </g>
     </g>
    </g>
   </g>
  </g>
  <g partID="6784920">
   <g transform="translate(47.1679,100.634)">
    <g transform="matrix(0,-1,1,0,0,0)">
     <g  flipped="1" id="copper0" transform="matrix(1, 0, 0, -1, 0, 6.51969)">
      <g >
       <rect width="4.53543" x="0.566929" y="0.566929" fill="black"  height="5.38583" stroke="none" fill-opacity="1" id="connector0pad"/>
       <rect width="4.53543" x="9.35433" y="0.566929" fill="black"  height="5.38583" stroke="none" fill-opacity="1" id="connector1pad"/>
      </g>
     </g>
    </g>
   </g>
  </g>
  <g partID="6785020">
   <g transform="translate(67.0103,100.634)">
    <g transform="matrix(0,-1,1,0,0,0)">
     <g  flipped="1" id="copper0" transform="matrix(1, 0, 0, -1, 0, 6.51969)">
      <g >
       <rect width="4.53543" x="0.566929" y="0.566929" fill="black"  height="5.38583" stroke="none" fill-opacity="1" id="connector0pad"/>
       <rect width="4.53543" x="9.35433" y="0.566929" fill="black"  height="5.38583" stroke="none" fill-opacity="1" id="connector1pad"/>
      </g>
     </g>
    </g>
   </g>
  </g>
  <g partID="6999740">
   <g transform="translate(152.925,129.203)">
    <g transform="matrix(-1,0,0,-1,0,0)">
     <g  id="copper0">
      <rect width="3.96" x="16.02" y="6.228" fill="none"  height="3.96" stroke="black" id="rect10" stroke-width="1.44"/>
      <circle fill="none" cx="3.6"  cy="8.208" stroke="black" id="connector0pin" r="1.98" stroke-width="1.44"/>
      <circle fill="none" cx="10.8"  cy="8.208" stroke="black" id="connector1pin" r="1.98" stroke-width="1.44"/>
      <circle fill="none" cx="18"  cy="8.208" stroke="black" id="connector2pin" r="1.98" stroke-width="1.44"/>
     </g>
    </g>
   </g>
  </g>
  <g partID="7002930">
   <g transform="translate(93.4086,125.826)">
    <g transform="matrix(-1,0,0,-1,0,0)">
     <g  id="copper0">
      <circle fill="none" cx="20.8462"  cy="15.6024" stroke="black" id="connector0pad" r="1.98" stroke-width="1.44"/>
      <circle fill="none" cx="2.42064"  cy="15.6024" stroke="black" id="connector1pad" r="1.98" stroke-width="1.44"/>
      <circle fill="none" cx="20.8462"  cy="2.84616" stroke="black" id="connector2pad" r="1.98" stroke-width="1.44"/>
      <circle fill="none" cx="2.42064"  cy="2.84616" stroke="black" id="connector3pad" r="1.98" stroke-width="1.44"/>
     </g>
    </g>
   </g>
  </g>
  <g partID="7003300">
   <g transform="translate(127.425,125.826)">
    <g transform="matrix(-1,0,0,-1,0,0)">
     <g  id="copper0">
      <circle fill="none" cx="20.8462"  cy="15.6024" stroke="black" id="connector0pad" r="1.98" stroke-width="1.44"/>
      <circle fill="none" cx="2.42064"  cy="15.6024" stroke="black" id="connector1pad" r="1.98" stroke-width="1.44"/>
      <circle fill="none" cx="20.8462"  cy="2.84616" stroke="black" id="connector2pad" r="1.98" stroke-width="1.44"/>
      <circle fill="none" cx="2.42064"  cy="2.84616" stroke="black" id="connector3pad" r="1.98" stroke-width="1.44"/>
     </g>
    </g>
   </g>
  </g>
  <g partID="7148160">
   <g transform="translate(-0.0845683,40.4954)">
    <g transform="matrix(1,0,0,1,0,0)">
     <g  id="copper0">
      <g  id="copper1">
       <circle fill="none" cx="13.029"  cy="32.333" stroke="black" id="connector11pad" r="2.16" stroke-width="0.999999"/>
       <circle fill="none" cx="13.029"  cy="25.134" stroke="black" id="connector10pad" r="2.16" stroke-width="0.999999"/>
       <circle fill="none" cx="13.029"  cy="17.934" stroke="black" id="connector9pad" r="2.16" stroke-width="0.999999"/>
       <circle fill="none" cx="13.029"  cy="10.734" stroke="black" id="connector8pad" r="2.16" stroke-width="0.999999"/>
      </g>
     </g>
    </g>
   </g>
  </g>
  <g partID="7303290">
   <g transform="translate(146.315,73.7506)">
    <g transform="matrix(-1,0,0,-1,0,0)">
     <g id="copper0" transform="matrix(1, 0, 0, 1, 0, -809.49)">
      <g stroke-opacity="1" fill="none" stroke="black" style="display:inline" transform="matrix(1, 0, 0, 1, -3.6, 796.89)">
       <g transform="matrix(1, 0, 0, 1, -14.4, 0)">
        <path stroke-opacity="1" fill="none" stroke="black" style="stroke-linecap:round;stroke-linejoin:miter;stroke-miterlimit:4;stroke-dasharray:none;display:inline" id="connector5pad" stroke-width="1.44" d="m109.8,25.2a1.8,1.8,0,1,1,-3.6,0,1.8,1.8,0,1,1,3.6,0z"/>
       </g>
       <g transform="matrix(1, 0, 0, 1, -21.6, 0)">
        <path stroke-opacity="1" fill="none" stroke="black" style="stroke-linecap:round;stroke-linejoin:miter;stroke-miterlimit:4;stroke-dasharray:none;display:inline" id="connector7pad" stroke-width="1.44" d="m109.8,25.2a1.8,1.8,0,1,1,-3.6,0,1.8,1.8,0,1,1,3.6,0z"/>
       </g>
       <g transform="matrix(1, 0, 0, 1, -28.8, 0)">
        <path stroke-opacity="1" fill="none" stroke="black" style="stroke-linecap:round;stroke-linejoin:miter;stroke-miterlimit:4;stroke-dasharray:none;display:inline" id="connector9pad" stroke-width="1.44" d="m109.8,25.2a1.8,1.8,0,1,1,-3.6,0,1.8,1.8,0,1,1,3.6,0z"/>
       </g>
       <g transform="matrix(1, 0, 0, 1, -50.4, 0)">
        <path stroke-opacity="1" fill="none" stroke="black" style="stroke-linecap:round;stroke-linejoin:miter;stroke-miterlimit:4;stroke-dasharray:none;display:inline" id="connector15pad" stroke-width="1.44" d="m109.8,25.2a1.8,1.8,0,1,1,-3.6,0,1.8,1.8,0,1,1,3.6,0z"/>
       </g>
       <g transform="matrix(1, 0, 0, 1, -57.6, 0)">
        <path stroke-opacity="1" fill="none" stroke="black" style="stroke-linecap:round;stroke-linejoin:miter;stroke-miterlimit:4;stroke-dasharray:none;display:inline" id="connector17pad" stroke-width="1.44" d="m109.8,25.2a1.8,1.8,0,1,1,-3.6,0,1.8,1.8,0,1,1,3.6,0z"/>
       </g>
       <g transform="matrix(1, 0, 0, 1, -64.8, 0)">
        <path stroke-opacity="1" fill="none" stroke="black" style="stroke-linecap:round;stroke-linejoin:miter;stroke-miterlimit:4;stroke-dasharray:none;display:inline" id="connector19pad" stroke-width="1.44" d="m109.8,25.2a1.8,1.8,0,1,1,-3.6,0,1.8,1.8,0,1,1,3.6,0z"/>
       </g>
       <g transform="matrix(1, 0, 0, 1, -36, 0)">
        <path stroke-opacity="1" fill="none" stroke="black" style="stroke-linecap:round;stroke-linejoin:miter;stroke-miterlimit:4;stroke-dasharray:none;display:inline" id="connector11pad" stroke-width="1.44" d="m109.8,25.2a1.8,1.8,0,1,1,-3.6,0,1.8,1.8,0,1,1,3.6,0z"/>
       </g>
       <g transform="matrix(1, 0, 0, 1, -43.2, 0)">
        <path stroke-opacity="1" fill="none" stroke="black" style="stroke-linecap:round;stroke-linejoin:miter;stroke-miterlimit:4;stroke-dasharray:none;display:inline" id="connector13pad" stroke-width="1.44" d="m109.8,25.2a1.8,1.8,0,1,1,-3.6,0,1.8,1.8,0,1,1,3.6,0z"/>
       </g>
       <g transform="matrix(1, 0, 0, 1, -79.2, 0)">
        <path stroke-opacity="1" fill="none" stroke="black" style="stroke-linecap:round;stroke-linejoin:miter;stroke-miterlimit:4;stroke-dasharray:none;display:inline" id="connector23pad" stroke-width="1.44" d="m109.8,25.2a1.8,1.8,0,1,1,-3.6,0,1.8,1.8,0,1,1,3.6,0z"/>
       </g>
       <g transform="matrix(1, 0, 0, 1, -86.4, 0)">
        <path stroke-opacity="1" fill="none" stroke="black" style="stroke-linecap:round;stroke-linejoin:miter;stroke-miterlimit:4;stroke-dasharray:none;display:inline" id="connector25pad" stroke-width="1.44" d="m109.8,25.2a1.8,1.8,0,1,1,-3.6,0,1.8,1.8,0,1,1,3.6,0z"/>
       </g>
       <g transform="matrix(1, 0, 0, 1, -72, 0)">
        <path stroke-opacity="1" fill="none" stroke="black" style="stroke-linecap:round;stroke-linejoin:miter;stroke-miterlimit:4;stroke-dasharray:none;display:inline" id="connector21pad" stroke-width="1.44" d="m109.8,25.2a1.8,1.8,0,1,1,-3.6,0,1.8,1.8,0,1,1,3.6,0z"/>
       </g>
       <g transform="matrix(1, 0, 0, 1, -14.4, 7.2)">
        <path stroke-opacity="1" fill="none" stroke="black" style="stroke-linecap:round;stroke-linejoin:miter;stroke-miterlimit:4;stroke-dasharray:none;display:inline" id="connector6pad" stroke-width="1.44" d="m109.8,25.2a1.8,1.8,0,1,1,-3.6,0,1.8,1.8,0,1,1,3.6,0z"/>
       </g>
       <g transform="matrix(1, 0, 0, 1, -21.6, 7.2)">
        <path stroke-opacity="1" fill="none" stroke="black" style="stroke-linecap:round;stroke-linejoin:miter;stroke-miterlimit:4;stroke-dasharray:none;display:inline" id="connector8pad" stroke-width="1.44" d="m109.8,25.2a1.8,1.8,0,1,1,-3.6,0,1.8,1.8,0,1,1,3.6,0z"/>
       </g>
       <g transform="matrix(1, 0, 0, 1, -28.8, 7.2)">
        <path stroke-opacity="1" fill="none" stroke="black" style="stroke-linecap:round;stroke-linejoin:miter;stroke-miterlimit:4;stroke-dasharray:none;display:inline" id="connector10pad" stroke-width="1.44" d="m109.8,25.2a1.8,1.8,0,1,1,-3.6,0,1.8,1.8,0,1,1,3.6,0z"/>
       </g>
       <g transform="matrix(1, 0, 0, 1, -50.4, 7.2)">
        <path stroke-opacity="1" fill="none" stroke="black" style="stroke-linecap:round;stroke-linejoin:miter;stroke-miterlimit:4;stroke-dasharray:none;display:inline" id="connector16pad" stroke-width="1.44" d="m109.8,25.2a1.8,1.8,0,1,1,-3.6,0,1.8,1.8,0,1,1,3.6,0z"/>
       </g>
       <g transform="matrix(1, 0, 0, 1, -57.6, 7.2)">
        <path stroke-opacity="1" fill="none" stroke="black" style="stroke-linecap:round;stroke-linejoin:miter;stroke-miterlimit:4;stroke-dasharray:none;display:inline" id="connector18pad" stroke-width="1.44" d="m109.8,25.2a1.8,1.8,0,1,1,-3.6,0,1.8,1.8,0,1,1,3.6,0z"/>
       </g>
       <g transform="matrix(1, 0, 0, 1, -64.8, 7.2)">
        <path stroke-opacity="1" fill="none" stroke="black" style="stroke-linecap:round;stroke-linejoin:miter;stroke-miterlimit:4;stroke-dasharray:none;display:inline" id="connector20pad" stroke-width="1.44" d="m109.8,25.2a1.8,1.8,0,1,1,-3.6,0,1.8,1.8,0,1,1,3.6,0z"/>
       </g>
       <g transform="matrix(1, 0, 0, 1, -36, 7.2)">
        <path stroke-opacity="1" fill="none" stroke="black" style="stroke-linecap:round;stroke-linejoin:miter;stroke-miterlimit:4;stroke-dasharray:none;display:inline" id="connector12pad" stroke-width="1.44" d="m109.8,25.2a1.8,1.8,0,1,1,-3.6,0,1.8,1.8,0,1,1,3.6,0z"/>
       </g>
       <g transform="matrix(1, 0, 0, 1, -43.2, 7.2)">
        <path stroke-opacity="1" fill="none" stroke="black" style="stroke-linecap:round;stroke-linejoin:miter;stroke-miterlimit:4;stroke-dasharray:none;display:inline" id="connector14pad" stroke-width="1.44" d="m109.8,25.2a1.8,1.8,0,1,1,-3.6,0,1.8,1.8,0,1,1,3.6,0z"/>
       </g>
       <g transform="matrix(1, 0, 0, 1, -79.2, 7.2)">
        <path stroke-opacity="1" fill="none" stroke="black" style="stroke-linecap:round;stroke-linejoin:miter;stroke-miterlimit:4;stroke-dasharray:none;display:inline" id="connector24pad" stroke-width="1.44" d="m109.8,25.2a1.8,1.8,0,1,1,-3.6,0,1.8,1.8,0,1,1,3.6,0z"/>
       </g>
       <g transform="matrix(1, 0, 0, 1, -86.4, 7.2)">
        <path stroke-opacity="1" fill="none" stroke="black" style="stroke-linecap:round;stroke-linejoin:miter;stroke-miterlimit:4;stroke-dasharray:none;display:inline" id="connector26pad" stroke-width="1.44" d="m109.8,25.2a1.8,1.8,0,1,1,-3.6,0,1.8,1.8,0,1,1,3.6,0z"/>
       </g>
       <g transform="matrix(1, 0, 0, 1, -72, 7.2)">
        <path stroke-opacity="1" fill="none" stroke="black" style="stroke-linecap:round;stroke-linejoin:miter;stroke-miterlimit:4;stroke-dasharray:none;display:inline" id="connector22pad" stroke-width="1.44" d="m109.8,25.2a1.8,1.8,0,1,1,-3.6,0,1.8,1.8,0,1,1,3.6,0z"/>
       </g>
       <g transform="matrix(1, 0, 0, 1, 0, 7.2)">
        <path stroke-opacity="1" fill="none" stroke="black" style="stroke-linecap:round;stroke-linejoin:miter;stroke-miterlimit:4;stroke-dasharray:none;display:inline" id="connector2pad" stroke-width="1.44" d="m109.8,25.2a1.8,1.8,0,1,1,-3.6,0,1.8,1.8,0,1,1,3.6,0z"/>
       </g>
       <g transform="matrix(1, 0, 0, 1, -7.2, 7.2)">
        <path stroke-opacity="1" fill="none" stroke="black" style="stroke-linecap:round;stroke-linejoin:miter;stroke-miterlimit:4;stroke-dasharray:none;display:inline" id="connector4pad" stroke-width="1.44" d="m109.8,25.2a1.8,1.8,0,1,1,-3.6,0,1.8,1.8,0,1,1,3.6,0z"/>
       </g>
       <rect width="3.6" x="106.2" y="23.4" stroke-opacity="1" fill="none" height="3.6" stroke="black" style="stroke-linecap:round;stroke-linejoin:miter;stroke-miterlimit:4;stroke-dasharray:none;display:inline" id="rect4984-3" stroke-width="1.44"/>
       <path stroke-opacity="1" fill="none" stroke="black" style="stroke-linecap:round;stroke-linejoin:miter;stroke-miterlimit:4;stroke-dasharray:none" id="connector1pad" stroke-width="1.44" d="m109.8,25.2a1.8,1.8,0,1,1,-3.6,0,1.8,1.8,0,1,1,3.6,0z"/>
       <g transform="matrix(1, 0, 0, 1, -7.2, 0)">
        <path stroke-opacity="1" fill="none" stroke="black" style="stroke-linecap:round;stroke-linejoin:miter;stroke-miterlimit:4;stroke-dasharray:none" id="connector3pad" stroke-width="1.44" d="m109.8,25.2a1.8,1.8,0,1,1,-3.6,0,1.8,1.8,0,1,1,3.6,0z"/>
       </g>
      </g>
     </g>
    </g>
   </g>
  </g>
  <g partID="7407980">
   <g transform="translate(14.5533,86.2295)">
    <g  id="copper0">
     <circle fill="none" cx="3.01733"  cy="3.01733" stroke="black" r="0.992124" id="connector0pin" stroke-width="0.850392"/>
    </g>
   </g>
  </g>
  <g partID="7409470">
   <g transform="translate(38.6478,86.2295)">
    <g  id="copper0">
     <circle fill="none" cx="3.01733"  cy="3.01733" stroke="black" r="0.992124" id="connector0pin" stroke-width="0.850392"/>
    </g>
   </g>
  </g>
  <g partID="7473910">
   <g transform="translate(128.79,70.3555)">
    <g  id="copper0">
     <circle fill="none" cx="3.01732"  cy="3.01732" stroke="black" r="0.992124" id="connector0pin" stroke-width="0.850392"/>
    </g>
   </g>
  </g>
  <g partID="7474370">
   <g transform="translate(35.2462,38.8909)">
    <g  id="copper0">
     <circle fill="none" cx="3.01732"  cy="3.01732" stroke="black" r="0.992124" id="connector0pin" stroke-width="0.850392"/>
    </g>
   </g>
  </g>
  <g partID="7475910">
   <g transform="translate(89.388,43.1429)">
    <g  id="copper0">
     <circle fill="none" cx="3.01732"  cy="3.01732" stroke="black" r="0.992124" id="connector0pin" stroke-width="0.850392"/>
    </g>
   </g>
  </g>
  <g partID="7497520">
   <g transform="translate(96.1911,42.8594)">
    <g  id="copper0">
     <circle fill="none" cx="3.01733"  cy="3.01733" stroke="black" r="0.992124" id="connector0pin" stroke-width="0.850392"/>
    </g>
   </g>
  </g>
  <g partID="7498410">
   <g transform="translate(136.16,18.4815)">
    <g  id="copper0">
     <circle fill="none" cx="3.01733"  cy="3.01733" stroke="black" r="0.992124" id="connector0pin" stroke-width="0.850392"/>
    </g>
   </g>
  </g>
  <g partID="7499290">
   <g transform="translate(72.159,33.3266)">
    <g  id="copper0">
     <circle fill="none" cx="3.01733"  cy="3.01733" stroke="black" r="0.992124" id="connector0pin" stroke-width="0.850392"/>
    </g>
   </g>
  </g>
  <g partID="7503030">
   <g transform="translate(16.9433,44.6208)">
    <g  id="copper0">
     <circle fill="none" cx="3.01733"  cy="3.01733" stroke="black" r="0.992124" id="connector0pin" stroke-width="0.850392"/>
    </g>
   </g>
  </g>
  <g partID="7367850">
   <line stroke="black" stroke-linecap="round" y1="62.6542" x1="129.443" y2="72.2337" stroke-width="1.728" x2="136.633"/>
  </g>
  <g partID="7367970">
   <line stroke="black" stroke-linecap="round" y1="72.2337" x1="136.633" y2="93.8076" stroke-width="1.728" x2="136.874"/>
  </g>
  <g partID="7368050">
   <line stroke="black" stroke-linecap="round" y1="93.8076" x1="136.874" y2="93.8076" stroke-width="1.728" x2="149.065"/>
  </g>
  <g partID="7368070">
   <line stroke="black" stroke-linecap="round" y1="93.8076" x1="149.065" y2="106.828" stroke-width="1.728" x2="149.092"/>
  </g>
  <g partID="7368090">
   <line stroke="black" stroke-linecap="round" y1="106.828" x1="149.092" y2="119.538" stroke-width="1.728" x2="136.382"/>
  </g>
  <g partID="7368150">
   <line stroke="black" stroke-linecap="round" y1="52.4654" x1="107.867" y2="49.0221" stroke-width="1.728" x2="110.539"/>
  </g>
  <g partID="7368190">
   <line stroke="black" stroke-linecap="round" y1="49.0221" x1="110.539" y2="48.9944" stroke-width="1.728" x2="131.027"/>
  </g>
  <g partID="7368210">
   <line stroke="black" stroke-linecap="round" y1="48.9944" x1="131.027" y2="73.6773" stroke-width="1.728" x2="148.824"/>
  </g>
  <g partID="7386430">
   <line stroke="black" stroke-linecap="round" y1="22.7641" x1="12.6615" y2="20.344" stroke-width="1.728" x2="11.0194"/>
  </g>
  <g partID="7390880">
   <line stroke="black" stroke-linecap="round" y1="7.26301" x1="103.275" y2="2.21904" stroke-width="1.728" x2="98.3909"/>
  </g>
  <g partID="7391150">
   <line stroke="black" stroke-linecap="round" y1="2.21971" x1="16.2284" y2="7.12255" stroke-width="1.728" x2="12.3796"/>
  </g>
  <g partID="7390870">
   <line stroke="black" stroke-linecap="round" y1="2.21971" x1="98.3908" y2="2.21971" stroke-width="1.728" x2="16.2284"/>
  </g>
  <g partID="7393980">
   <line stroke="black" stroke-linecap="round" y1="93.4866" x1="124.772" y2="93.4866" stroke-width="1.728" x2="95.8194"/>
  </g>
  <g partID="7393910">
   <line stroke="black" stroke-linecap="round" y1="93.4866" x1="95.8194" y2="90.9797" stroke-width="1.728" x2="92.4055"/>
  </g>
  <g partID="7393840">
   <line stroke="black" stroke-linecap="round" y1="91.1637" x1="127.558" y2="93.4869" stroke-width="1.728" x2="124.772"/>
  </g>
  <g partID="7394680">
   <line stroke="black" stroke-linecap="round" y1="73.6773" x1="148.824" y2="93.8076" stroke-width="1.728" x2="149.065"/>
  </g>
  <g partID="7407900">
   <line stroke="black" stroke-linecap="round" y1="89.2567" x1="16.2037" y2="89.2795" stroke-width="1.728" x2="13.0351"/>
  </g>
  <g partID="7407820">
   <line stroke="black" stroke-linecap="round" y1="89.0735" x1="48.1349" y2="89.2102" stroke-width="1.728" x2="43.0316"/>
  </g>
  <g partID="7409280">
   <line stroke="black" stroke-linecap="round" y1="83.833" x1="84.1458" y2="87.4282" stroke-width="1.728" x2="88.0724"/>
  </g>
  <g partID="7409190">
   <line stroke="black" stroke-linecap="round" y1="83.9562" x1="56.0618" y2="83.8333" stroke-width="1.728" x2="84.1462"/>
  </g>
  <g partID="7409110">
   <line stroke="black" stroke-linecap="round" y1="87.1443" x1="52.5096" y2="83.956" stroke-width="1.728" x2="56.0622"/>
  </g>
  <g partID="7424200">
   <line stroke="black" stroke-linecap="round" y1="69.9674" x1="47.6338" y2="69.9355" stroke-width="1.728" x2="71.7406"/>
  </g>
  <g partID="7424070">
   <line stroke="black" stroke-linecap="round" y1="69.9355" x1="71.7406" y2="62.6888" stroke-width="1.728" x2="76.8336"/>
  </g>
  <g partID="7412620">
   <line stroke="black" stroke-linecap="round" y1="87.1443" x1="32.2564" y2="69.9673" stroke-width="1.728" x2="47.6336"/>
  </g>
  <g partID="7430910">
   <line stroke="black" stroke-linecap="round" y1="52.5627" x1="91.0466" y2="43.8734" stroke-width="1.728" x2="83.1076"/>
  </g>
  <g partID="7457740">
   <line stroke="black" stroke-linecap="round" y1="74.4793" x1="143.451" y2="56.1626" stroke-width="1.728" x2="130.515"/>
  </g>
  <g partID="7432220">
   <line stroke="black" stroke-linecap="round" y1="87.3791" x1="143.432" y2="74.4793" stroke-width="1.728" x2="143.451"/>
  </g>
  <g partID="7432560">
   <line stroke="black" stroke-linecap="round" y1="56.1626" x1="130.515" y2="55.2836" stroke-width="1.728" x2="129.64"/>
  </g>
  <g partID="7472190">
   <line stroke="black" stroke-linecap="round" y1="99.9511" x1="8.56743" y2="103.638" stroke-width="1.728" x2="4.27435"/>
  </g>
  <g partID="7472270">
   <line stroke="black" stroke-linecap="round" y1="99.5038" x1="28.2917" y2="103.481" stroke-width="1.728" x2="22.941"/>
  </g>
  <g partID="7472550">
   <line stroke="black" stroke-linecap="round" y1="99.9511" x1="90.7507" y2="100.842" stroke-width="1.728" x2="91.055"/>
  </g>
  <g partID="7492880">
   <line stroke="black" stroke-linecap="round" y1="100.842" x1="91.055" y2="108.163" stroke-width="1.728" x2="91.0027"/>
  </g>
  <g partID="7472670">
   <line stroke="black" stroke-linecap="round" y1="98.0834" x1="107.662" y2="98.0834" stroke-width="1.728" x2="92.4055"/>
  </g>
  <g partID="7472930">
   <line stroke="black" stroke-linecap="round" y1="99.9511" x1="129.799" y2="105.441" stroke-width="1.728" x2="129.804"/>
  </g>
  <g partID="7473030">
   <line stroke="black" stroke-linecap="round" y1="98.0425" x1="141.136" y2="98.0751" stroke-width="1.728" x2="132.09"/>
  </g>
  <g partID="7492760">
   <line stroke="black" stroke-linecap="round" y1="72.5395" x1="105.419" y2="72.5395" stroke-width="1.728" x2="101.153"/>
  </g>
  <g partID="7492670">
   <line stroke="black" stroke-linecap="round" y1="72.5395" x1="101.153" y2="62.6359" stroke-width="1.728" x2="93.4672"/>
  </g>
  <g partID="7492520">
   <line stroke="black" stroke-linecap="round" y1="76.7869" x1="109.975" y2="72.5395" stroke-width="1.728" x2="105.419"/>
  </g>
  <g partID="7473090">
   <line stroke="black" stroke-linecap="round" y1="87.4283" x1="109.958" y2="76.7869" stroke-width="1.728" x2="109.975"/>
  </g>
  <g partID="7473250">
   <line stroke="black" stroke-linecap="round" y1="10.8026" x1="18.3443" y2="16.17" stroke-width="1.728" x2="18.4397"/>
  </g>
  <g partID="7489070">
   <line stroke="black" stroke-linecap="round" y1="19.5324" x1="20.9905" y2="36.7715" stroke-width="1.728" x2="21.1221"/>
  </g>
  <g partID="7492620">
   <line stroke="black" stroke-linecap="round" y1="69.0647" x1="114.01" y2="63.0305" stroke-width="1.728" x2="113.937"/>
  </g>
  <g partID="7492570">
   <line stroke="black" stroke-linecap="round" y1="73.389" x1="119.92" y2="69.0647" stroke-width="1.728" x2="114.01"/>
  </g>
  <g partID="7473930">
   <line stroke="black" stroke-linecap="round" y1="73.3747" x1="130.44" y2="73.389" stroke-width="1.728" x2="119.92"/>
  </g>
  <g partID="7473970">
   <line stroke="black" stroke-linecap="round" y1="64.2923" x1="15.0093" y2="47.6506" stroke-width="1.728" x2="40.7083"/>
  </g>
  <g partID="7474090">
   <line stroke="black" stroke-linecap="round" y1="47.6506" x1="40.7083" y2="47.273" stroke-width="1.728" x2="65.7082"/>
  </g>
  <g partID="7474110">
   <line stroke="black" stroke-linecap="round" y1="47.273" x1="65.7082" y2="52.4464" stroke-width="1.728" x2="69.5869"/>
  </g>
  <g partID="7474150">
   <line stroke="black" stroke-linecap="round" y1="57.0851" x1="15.0046" y2="42.6553" stroke-width="1.728" x2="37.1188"/>
  </g>
  <g partID="7474750">
   <line stroke="black" stroke-linecap="round" y1="90.5052" x1="72.5631" y2="95.1678" stroke-width="1.728" x2="79.725"/>
  </g>
  <g partID="7474870">
   <line stroke="black" stroke-linecap="round" y1="95.1674" x1="79.725" y2="109.568" stroke-width="1.728" x2="79.6093"/>
  </g>
  <g partID="7478930">
   <line stroke="black" stroke-linecap="round" y1="116.781" x1="87.3474" y2="116.781" stroke-width="1.728" x2="122.495"/>
  </g>
  <g partID="7474890">
   <line stroke="black" stroke-linecap="round" y1="109.568" x1="79.6098" y2="116.781" stroke-width="1.728" x2="87.3475"/>
  </g>
  <g partID="7475110">
   <line stroke="black" stroke-linecap="round" y1="116.781" x1="122.495" y2="119.065" stroke-width="1.728" x2="126.862"/>
  </g>
  <g partID="7475130">
   <line stroke="black" stroke-linecap="round" y1="119.065" x1="126.861" y2="119.065" stroke-width="1.728" x2="130.317"/>
  </g>
  <g partID="7475150">
   <line stroke="black" stroke-linecap="round" y1="119.065" x1="130.317" y2="125.977" stroke-width="1.728" x2="130.317"/>
  </g>
  <g partID="7475170">
   <line stroke="black" stroke-linecap="round" y1="125.977" x1="130.317" y2="125.571" stroke-width="1.728" x2="151.339"/>
  </g>
  <g partID="7475190">
   <line stroke="black" stroke-linecap="round" y1="125.571" x1="151.339" y2="122.051" stroke-width="1.728" x2="154.539"/>
  </g>
  <g partID="7475210">
   <line stroke="black" stroke-linecap="round" y1="122.051" x1="154.539" y2="73.5126" stroke-width="1.728" x2="154.124"/>
  </g>
  <g partID="7475730">
   <line stroke="black" stroke-linecap="round" y1="42.7753" x1="131.49" y2="42.7753" stroke-width="1.728" x2="110"/>
  </g>
  <g partID="7475750">
   <line stroke="black" stroke-linecap="round" y1="42.7753" x1="110" y2="52.5796" stroke-width="1.728" x2="100.801"/>
  </g>
  <g partID="7475790">
   <line stroke="black" stroke-linecap="round" y1="10.8029" x1="97.5038" y2="39.0106" stroke-width="1.728" x2="97.4508"/>
  </g>
  <g partID="7476670">
   <line stroke="black" stroke-linecap="round" y1="122.979" x1="93.0474" y2="122.979" stroke-width="1.728" x2="104.518"/>
  </g>
  <g partID="7492820">
   <line stroke="black" stroke-linecap="round" y1="101.756" x1="56.9802" y2="97.6773" stroke-width="1.728" x2="53.2155"/>
  </g>
  <g partID="7478770">
   <line stroke="black" stroke-linecap="round" y1="108.163" x1="56.9746" y2="101.756" stroke-width="1.728" x2="56.9802"/>
  </g>
  <g partID="7478810">
   <line stroke="black" stroke-linecap="round" y1="108.163" x1="56.9745" y2="101.442" stroke-width="1.728" x2="56.9802"/>
  </g>
  <g partID="7492850">
   <line stroke="black" stroke-linecap="round" y1="101.442" x1="56.9802" y2="97.991" stroke-width="1.728" x2="60.5881"/>
  </g>
  <g partID="7494980">
   <line stroke="black" stroke-linecap="round" y1="43.8734" x1="83.1076" y2="10.8029" stroke-width="1.728" x2="83.1076"/>
  </g>
  <g partID="7496160">
   <line stroke="black" stroke-linecap="round" y1="20.344" x1="11.0194" y2="10.8029" stroke-width="1.728" x2="11.092"/>
  </g>
  <g partID="7496270">
   <line stroke="black" stroke-linecap="round" y1="16.17" x1="18.4397" y2="19.5324" stroke-width="1.728" x2="20.9905"/>
  </g>
  <g partID="7496320">
   <line stroke="black" stroke-linecap="round" y1="105.441" x1="129.804" y2="108.769" stroke-width="1.728" x2="126.463"/>
  </g>
  <g partID="7496460">
   <line stroke="black" stroke-linecap="round" y1="103.481" x1="22.941" y2="108.163" stroke-width="1.728" x2="22.952"/>
  </g>
  <g partID="7497960">
   <line stroke="black" stroke-linecap="round" y1="22.8657" x1="139.169" y2="27.4955" stroke-width="1.728" x2="139.141"/>
  </g>
  <g partID="7429700">
   <line stroke="black" stroke-linecap="round" y1="36.5008" x1="107.961" y2="44.8775" stroke-width="1.728" x2="100.141"/>
  </g>
  <g partID="7499010">
   <line stroke="black" stroke-linecap="round" y1="39.0106" x1="97.4508" y2="45.0434" stroke-width="1.728" x2="93.1934"/>
  </g>
  <g partID="7499330">
   <line stroke="black" stroke-linecap="round" y1="36.4758" x1="53.2405" y2="10.1996" stroke-width="1.728" x2="26.9643"/>
  </g>
  <g partID="7499140">
   <line stroke="black" stroke-linecap="round" y1="36.3522" x1="73.8094" y2="36.4758" stroke-width="1.728" x2="53.2405"/>
  </g>
  <g partID="7500990">
   <line stroke="black" stroke-linecap="round" y1="36.5864" x1="127.262" y2="36.5008" stroke-width="1.728" x2="107.961"/>
  </g>
  <g partID="7500220">
   <line stroke="black" stroke-linecap="round" y1="27.4955" x1="139.141" y2="36.5864" stroke-width="1.728" x2="127.262"/>
  </g>
  <g partID="7500710">
   <line stroke="black" stroke-linecap="round" y1="97.991" x1="60.5881" y2="97.8447" stroke-width="1.728" x2="67.9773"/>
  </g>
  <g partID="7500740">
   <line stroke="black" stroke-linecap="round" y1="97.6773" x1="53.2155" y2="97.699" stroke-width="1.728" x2="52.7207"/>
  </g>
  <g partID="7500770">
   <line stroke="black" stroke-linecap="round" y1="103.638" x1="4.27435" y2="108.165" stroke-width="1.728" x2="4.45097"/>
  </g>
  <g partID="7502390">
   <line stroke="black" stroke-linecap="round" y1="73.5126" x1="154.124" y2="42.7753" stroke-width="1.728" x2="131.49"/>
  </g>
  <g partID="7504820">
   <line stroke="black" stroke-linecap="round" y1="96.5793" x1="23.2547" y2="86.7038" stroke-width="1.728" x2="23.22"/>
  </g>
  <g partID="7506620">
   <line stroke="black" stroke-linecap="round" y1="47.7949" x1="7.88219" y2="41.5829" stroke-width="1.728" x2="13.8749"/>
  </g>
  <g partID="7505720">
   <line stroke="black" stroke-linecap="round" y1="76.8146" x1="7.88219" y2="47.7949" stroke-width="1.728" x2="7.88219"/>
  </g>
  <g partID="7503470">
   <line stroke="black" stroke-linecap="round" y1="121.73" x1="6.1689" y2="115.873" stroke-width="1.728" x2="13.843"/>
  </g>
  <g partID="7503920">
   <line stroke="black" stroke-linecap="round" y1="115.873" x1="13.843" y2="104.893" stroke-width="1.728" x2="13.843"/>
  </g>
  <g partID="7505270">
   <line stroke="black" stroke-linecap="round" y1="86.7038" x1="23.22" y2="76.8146" stroke-width="1.728" x2="7.88219"/>
  </g>
  <g partID="7506170">
   <line stroke="black" stroke-linecap="round" y1="41.5829" x1="13.8749" y2="46.674" stroke-width="1.728" x2="18.9916"/>
  </g>
  <g partID="7504370">
   <line stroke="black" stroke-linecap="round" y1="104.893" x1="13.843" y2="96.5793" stroke-width="1.728" x2="23.2547"/>
  </g>
  <g partID="7476790">
   <line stroke="black" stroke-linecap="round" y1="122.98" x1="25.0168" y2="122.98" stroke-width="1.728" x2="36.4873"/>
  </g>
  <g partID="7476730">
   <line stroke="black" stroke-linecap="round" y1="122.98" x1="59.0328" y2="122.98" stroke-width="1.728" x2="70.5025"/>
  </g>
 </g>
</svg>
