G04 MADE WITH FRITZING*
G04 WWW.FRITZING.ORG*
G04 DOUBLE SIDED*
G04 HOLES PLATED*
G04 CONTOUR ON CENTER OF CONTOUR VECTOR*
%ASAXBY*%
%FSLAX23Y23*%
%MOIN*%
%OFA0B0*%
%SFA1.0B1.0*%
%ADD10R,0.001000X0.001000*%
%LNSILK0*%
G90*
G70*
G54D10*
X459Y661D02*
X548Y661D01*
X735Y661D02*
X823Y661D01*
X1010Y661D02*
X1099Y661D01*
X459Y660D02*
X548Y660D01*
X734Y660D02*
X824Y660D01*
X1010Y660D02*
X1099Y660D01*
X459Y659D02*
X548Y659D01*
X734Y659D02*
X824Y659D01*
X1010Y659D02*
X1099Y659D01*
X459Y658D02*
X461Y658D01*
X546Y658D02*
X548Y658D01*
X734Y658D02*
X736Y658D01*
X822Y658D02*
X824Y658D01*
X1010Y658D02*
X1012Y658D01*
X1097Y658D02*
X1099Y658D01*
X184Y657D02*
X272Y657D01*
X459Y657D02*
X461Y657D01*
X546Y657D02*
X548Y657D01*
X734Y657D02*
X736Y657D01*
X822Y657D02*
X824Y657D01*
X1010Y657D02*
X1012Y657D01*
X1097Y657D02*
X1099Y657D01*
X1286Y657D02*
X1375Y657D01*
X1561Y657D02*
X1650Y657D01*
X1837Y657D02*
X1926Y657D01*
X2026Y657D02*
X2115Y657D01*
X183Y656D02*
X273Y656D01*
X459Y656D02*
X461Y656D01*
X546Y656D02*
X548Y656D01*
X734Y656D02*
X736Y656D01*
X822Y656D02*
X824Y656D01*
X1010Y656D02*
X1012Y656D01*
X1097Y656D02*
X1099Y656D01*
X1285Y656D02*
X1375Y656D01*
X1561Y656D02*
X1650Y656D01*
X1836Y656D02*
X1926Y656D01*
X2026Y656D02*
X2115Y656D01*
X183Y655D02*
X273Y655D01*
X459Y655D02*
X461Y655D01*
X546Y655D02*
X548Y655D01*
X734Y655D02*
X736Y655D01*
X822Y655D02*
X824Y655D01*
X1010Y655D02*
X1012Y655D01*
X1097Y655D02*
X1099Y655D01*
X1285Y655D02*
X1375Y655D01*
X1561Y655D02*
X1650Y655D01*
X1836Y655D02*
X1926Y655D01*
X2026Y655D02*
X2115Y655D01*
X183Y654D02*
X185Y654D01*
X271Y654D02*
X273Y654D01*
X459Y654D02*
X461Y654D01*
X546Y654D02*
X548Y654D01*
X734Y654D02*
X736Y654D01*
X822Y654D02*
X824Y654D01*
X1010Y654D02*
X1012Y654D01*
X1097Y654D02*
X1099Y654D01*
X1285Y654D02*
X1287Y654D01*
X1373Y654D02*
X1375Y654D01*
X1561Y654D02*
X1563Y654D01*
X1648Y654D02*
X1650Y654D01*
X1836Y654D02*
X1839Y654D01*
X1924Y654D02*
X1926Y654D01*
X2026Y654D02*
X2028Y654D01*
X2113Y654D02*
X2115Y654D01*
X183Y653D02*
X185Y653D01*
X271Y653D02*
X273Y653D01*
X459Y653D02*
X461Y653D01*
X546Y653D02*
X548Y653D01*
X734Y653D02*
X736Y653D01*
X822Y653D02*
X824Y653D01*
X1010Y653D02*
X1012Y653D01*
X1097Y653D02*
X1099Y653D01*
X1285Y653D02*
X1287Y653D01*
X1373Y653D02*
X1375Y653D01*
X1561Y653D02*
X1563Y653D01*
X1649Y653D02*
X1650Y653D01*
X1836Y653D02*
X1838Y653D01*
X1924Y653D02*
X1926Y653D01*
X2026Y653D02*
X2028Y653D01*
X2113Y653D02*
X2115Y653D01*
X183Y652D02*
X185Y652D01*
X271Y652D02*
X273Y652D01*
X459Y652D02*
X461Y652D01*
X546Y652D02*
X548Y652D01*
X734Y652D02*
X736Y652D01*
X822Y652D02*
X824Y652D01*
X1010Y652D02*
X1012Y652D01*
X1097Y652D02*
X1099Y652D01*
X1285Y652D02*
X1287Y652D01*
X1373Y652D02*
X1375Y652D01*
X1561Y652D02*
X1563Y652D01*
X1649Y652D02*
X1650Y652D01*
X1836Y652D02*
X1838Y652D01*
X1924Y652D02*
X1926Y652D01*
X2026Y652D02*
X2028Y652D01*
X2113Y652D02*
X2115Y652D01*
X183Y651D02*
X185Y651D01*
X271Y651D02*
X273Y651D01*
X459Y651D02*
X461Y651D01*
X546Y651D02*
X548Y651D01*
X734Y651D02*
X736Y651D01*
X822Y651D02*
X824Y651D01*
X1010Y651D02*
X1012Y651D01*
X1097Y651D02*
X1099Y651D01*
X1285Y651D02*
X1287Y651D01*
X1373Y651D02*
X1375Y651D01*
X1561Y651D02*
X1563Y651D01*
X1649Y651D02*
X1650Y651D01*
X1836Y651D02*
X1838Y651D01*
X1924Y651D02*
X1926Y651D01*
X2026Y651D02*
X2028Y651D01*
X2113Y651D02*
X2115Y651D01*
X183Y650D02*
X185Y650D01*
X271Y650D02*
X273Y650D01*
X459Y650D02*
X461Y650D01*
X546Y650D02*
X548Y650D01*
X734Y650D02*
X736Y650D01*
X822Y650D02*
X824Y650D01*
X1010Y650D02*
X1012Y650D01*
X1097Y650D02*
X1099Y650D01*
X1285Y650D02*
X1287Y650D01*
X1373Y650D02*
X1375Y650D01*
X1561Y650D02*
X1563Y650D01*
X1649Y650D02*
X1650Y650D01*
X1836Y650D02*
X1838Y650D01*
X1924Y650D02*
X1926Y650D01*
X2026Y650D02*
X2028Y650D01*
X2113Y650D02*
X2115Y650D01*
X183Y649D02*
X185Y649D01*
X271Y649D02*
X273Y649D01*
X459Y649D02*
X461Y649D01*
X546Y649D02*
X548Y649D01*
X734Y649D02*
X736Y649D01*
X822Y649D02*
X824Y649D01*
X1010Y649D02*
X1012Y649D01*
X1097Y649D02*
X1099Y649D01*
X1285Y649D02*
X1287Y649D01*
X1373Y649D02*
X1375Y649D01*
X1561Y649D02*
X1563Y649D01*
X1649Y649D02*
X1650Y649D01*
X1836Y649D02*
X1838Y649D01*
X1924Y649D02*
X1926Y649D01*
X2026Y649D02*
X2028Y649D01*
X2113Y649D02*
X2115Y649D01*
X183Y648D02*
X185Y648D01*
X271Y648D02*
X273Y648D01*
X459Y648D02*
X461Y648D01*
X546Y648D02*
X548Y648D01*
X734Y648D02*
X736Y648D01*
X822Y648D02*
X824Y648D01*
X1010Y648D02*
X1012Y648D01*
X1097Y648D02*
X1099Y648D01*
X1285Y648D02*
X1287Y648D01*
X1373Y648D02*
X1375Y648D01*
X1561Y648D02*
X1563Y648D01*
X1649Y648D02*
X1650Y648D01*
X1836Y648D02*
X1838Y648D01*
X1924Y648D02*
X1926Y648D01*
X2026Y648D02*
X2028Y648D01*
X2113Y648D02*
X2115Y648D01*
X183Y647D02*
X185Y647D01*
X271Y647D02*
X273Y647D01*
X459Y647D02*
X461Y647D01*
X546Y647D02*
X548Y647D01*
X734Y647D02*
X736Y647D01*
X822Y647D02*
X824Y647D01*
X1010Y647D02*
X1012Y647D01*
X1097Y647D02*
X1099Y647D01*
X1285Y647D02*
X1287Y647D01*
X1373Y647D02*
X1375Y647D01*
X1561Y647D02*
X1563Y647D01*
X1649Y647D02*
X1650Y647D01*
X1836Y647D02*
X1838Y647D01*
X1924Y647D02*
X1926Y647D01*
X2026Y647D02*
X2028Y647D01*
X2113Y647D02*
X2115Y647D01*
X183Y646D02*
X185Y646D01*
X271Y646D02*
X273Y646D01*
X459Y646D02*
X461Y646D01*
X546Y646D02*
X548Y646D01*
X734Y646D02*
X736Y646D01*
X822Y646D02*
X824Y646D01*
X1010Y646D02*
X1012Y646D01*
X1097Y646D02*
X1099Y646D01*
X1285Y646D02*
X1287Y646D01*
X1373Y646D02*
X1375Y646D01*
X1561Y646D02*
X1563Y646D01*
X1649Y646D02*
X1650Y646D01*
X1836Y646D02*
X1838Y646D01*
X1924Y646D02*
X1926Y646D01*
X2026Y646D02*
X2028Y646D01*
X2113Y646D02*
X2115Y646D01*
X183Y645D02*
X185Y645D01*
X271Y645D02*
X273Y645D01*
X459Y645D02*
X461Y645D01*
X546Y645D02*
X548Y645D01*
X734Y645D02*
X736Y645D01*
X822Y645D02*
X824Y645D01*
X1010Y645D02*
X1012Y645D01*
X1097Y645D02*
X1099Y645D01*
X1285Y645D02*
X1287Y645D01*
X1373Y645D02*
X1375Y645D01*
X1561Y645D02*
X1563Y645D01*
X1649Y645D02*
X1650Y645D01*
X1836Y645D02*
X1838Y645D01*
X1924Y645D02*
X1926Y645D01*
X2026Y645D02*
X2028Y645D01*
X2113Y645D02*
X2115Y645D01*
X183Y644D02*
X185Y644D01*
X271Y644D02*
X273Y644D01*
X459Y644D02*
X461Y644D01*
X546Y644D02*
X548Y644D01*
X734Y644D02*
X736Y644D01*
X822Y644D02*
X824Y644D01*
X1010Y644D02*
X1012Y644D01*
X1097Y644D02*
X1099Y644D01*
X1285Y644D02*
X1287Y644D01*
X1373Y644D02*
X1375Y644D01*
X1561Y644D02*
X1563Y644D01*
X1649Y644D02*
X1650Y644D01*
X1836Y644D02*
X1838Y644D01*
X1924Y644D02*
X1926Y644D01*
X2026Y644D02*
X2028Y644D01*
X2113Y644D02*
X2115Y644D01*
X183Y643D02*
X185Y643D01*
X271Y643D02*
X273Y643D01*
X459Y643D02*
X461Y643D01*
X546Y643D02*
X548Y643D01*
X734Y643D02*
X736Y643D01*
X822Y643D02*
X824Y643D01*
X1010Y643D02*
X1012Y643D01*
X1097Y643D02*
X1099Y643D01*
X1285Y643D02*
X1287Y643D01*
X1373Y643D02*
X1375Y643D01*
X1561Y643D02*
X1563Y643D01*
X1649Y643D02*
X1650Y643D01*
X1836Y643D02*
X1838Y643D01*
X1924Y643D02*
X1926Y643D01*
X2026Y643D02*
X2028Y643D01*
X2113Y643D02*
X2115Y643D01*
X183Y642D02*
X185Y642D01*
X271Y642D02*
X273Y642D01*
X459Y642D02*
X461Y642D01*
X546Y642D02*
X548Y642D01*
X734Y642D02*
X736Y642D01*
X822Y642D02*
X824Y642D01*
X1010Y642D02*
X1012Y642D01*
X1097Y642D02*
X1099Y642D01*
X1285Y642D02*
X1287Y642D01*
X1373Y642D02*
X1375Y642D01*
X1561Y642D02*
X1563Y642D01*
X1649Y642D02*
X1650Y642D01*
X1836Y642D02*
X1838Y642D01*
X1924Y642D02*
X1926Y642D01*
X2026Y642D02*
X2028Y642D01*
X2113Y642D02*
X2115Y642D01*
X183Y641D02*
X185Y641D01*
X271Y641D02*
X273Y641D01*
X459Y641D02*
X461Y641D01*
X546Y641D02*
X548Y641D01*
X734Y641D02*
X736Y641D01*
X822Y641D02*
X824Y641D01*
X1010Y641D02*
X1012Y641D01*
X1097Y641D02*
X1099Y641D01*
X1285Y641D02*
X1287Y641D01*
X1373Y641D02*
X1375Y641D01*
X1561Y641D02*
X1563Y641D01*
X1649Y641D02*
X1650Y641D01*
X1836Y641D02*
X1838Y641D01*
X1924Y641D02*
X1926Y641D01*
X2026Y641D02*
X2028Y641D01*
X2113Y641D02*
X2115Y641D01*
X183Y640D02*
X185Y640D01*
X271Y640D02*
X273Y640D01*
X459Y640D02*
X461Y640D01*
X546Y640D02*
X548Y640D01*
X734Y640D02*
X736Y640D01*
X822Y640D02*
X824Y640D01*
X1010Y640D02*
X1012Y640D01*
X1097Y640D02*
X1099Y640D01*
X1285Y640D02*
X1287Y640D01*
X1373Y640D02*
X1375Y640D01*
X1561Y640D02*
X1563Y640D01*
X1649Y640D02*
X1650Y640D01*
X1836Y640D02*
X1838Y640D01*
X1924Y640D02*
X1926Y640D01*
X2026Y640D02*
X2028Y640D01*
X2113Y640D02*
X2115Y640D01*
X183Y639D02*
X185Y639D01*
X271Y639D02*
X273Y639D01*
X459Y639D02*
X461Y639D01*
X546Y639D02*
X548Y639D01*
X734Y639D02*
X736Y639D01*
X822Y639D02*
X824Y639D01*
X1010Y639D02*
X1012Y639D01*
X1097Y639D02*
X1099Y639D01*
X1285Y639D02*
X1287Y639D01*
X1373Y639D02*
X1375Y639D01*
X1561Y639D02*
X1563Y639D01*
X1649Y639D02*
X1650Y639D01*
X1836Y639D02*
X1838Y639D01*
X1924Y639D02*
X1926Y639D01*
X2026Y639D02*
X2028Y639D01*
X2113Y639D02*
X2115Y639D01*
X183Y638D02*
X185Y638D01*
X271Y638D02*
X273Y638D01*
X459Y638D02*
X461Y638D01*
X546Y638D02*
X548Y638D01*
X734Y638D02*
X736Y638D01*
X822Y638D02*
X824Y638D01*
X1010Y638D02*
X1012Y638D01*
X1097Y638D02*
X1099Y638D01*
X1285Y638D02*
X1287Y638D01*
X1373Y638D02*
X1375Y638D01*
X1561Y638D02*
X1563Y638D01*
X1649Y638D02*
X1650Y638D01*
X1836Y638D02*
X1838Y638D01*
X1924Y638D02*
X1926Y638D01*
X2026Y638D02*
X2028Y638D01*
X2113Y638D02*
X2115Y638D01*
X183Y637D02*
X185Y637D01*
X271Y637D02*
X273Y637D01*
X459Y637D02*
X461Y637D01*
X546Y637D02*
X548Y637D01*
X734Y637D02*
X736Y637D01*
X822Y637D02*
X824Y637D01*
X1010Y637D02*
X1012Y637D01*
X1097Y637D02*
X1099Y637D01*
X1285Y637D02*
X1287Y637D01*
X1373Y637D02*
X1375Y637D01*
X1561Y637D02*
X1563Y637D01*
X1649Y637D02*
X1650Y637D01*
X1836Y637D02*
X1838Y637D01*
X1924Y637D02*
X1926Y637D01*
X2026Y637D02*
X2028Y637D01*
X2113Y637D02*
X2115Y637D01*
X183Y636D02*
X185Y636D01*
X271Y636D02*
X273Y636D01*
X459Y636D02*
X461Y636D01*
X546Y636D02*
X548Y636D01*
X734Y636D02*
X736Y636D01*
X822Y636D02*
X824Y636D01*
X1010Y636D02*
X1012Y636D01*
X1097Y636D02*
X1099Y636D01*
X1285Y636D02*
X1287Y636D01*
X1373Y636D02*
X1375Y636D01*
X1561Y636D02*
X1563Y636D01*
X1649Y636D02*
X1650Y636D01*
X1836Y636D02*
X1838Y636D01*
X1924Y636D02*
X1926Y636D01*
X2026Y636D02*
X2028Y636D01*
X2113Y636D02*
X2115Y636D01*
X183Y635D02*
X185Y635D01*
X271Y635D02*
X273Y635D01*
X459Y635D02*
X461Y635D01*
X546Y635D02*
X548Y635D01*
X734Y635D02*
X736Y635D01*
X822Y635D02*
X824Y635D01*
X1010Y635D02*
X1012Y635D01*
X1097Y635D02*
X1099Y635D01*
X1285Y635D02*
X1287Y635D01*
X1373Y635D02*
X1375Y635D01*
X1561Y635D02*
X1563Y635D01*
X1649Y635D02*
X1650Y635D01*
X1836Y635D02*
X1838Y635D01*
X1924Y635D02*
X1926Y635D01*
X2026Y635D02*
X2028Y635D01*
X2113Y635D02*
X2115Y635D01*
X183Y634D02*
X185Y634D01*
X271Y634D02*
X273Y634D01*
X459Y634D02*
X461Y634D01*
X546Y634D02*
X548Y634D01*
X734Y634D02*
X736Y634D01*
X822Y634D02*
X824Y634D01*
X1010Y634D02*
X1012Y634D01*
X1097Y634D02*
X1099Y634D01*
X1285Y634D02*
X1287Y634D01*
X1373Y634D02*
X1375Y634D01*
X1561Y634D02*
X1563Y634D01*
X1649Y634D02*
X1650Y634D01*
X1836Y634D02*
X1838Y634D01*
X1924Y634D02*
X1926Y634D01*
X2026Y634D02*
X2028Y634D01*
X2113Y634D02*
X2115Y634D01*
X183Y633D02*
X185Y633D01*
X271Y633D02*
X273Y633D01*
X459Y633D02*
X461Y633D01*
X546Y633D02*
X548Y633D01*
X734Y633D02*
X736Y633D01*
X822Y633D02*
X824Y633D01*
X1010Y633D02*
X1012Y633D01*
X1097Y633D02*
X1099Y633D01*
X1285Y633D02*
X1287Y633D01*
X1373Y633D02*
X1375Y633D01*
X1561Y633D02*
X1563Y633D01*
X1649Y633D02*
X1650Y633D01*
X1836Y633D02*
X1838Y633D01*
X1924Y633D02*
X1926Y633D01*
X2026Y633D02*
X2028Y633D01*
X2113Y633D02*
X2115Y633D01*
X183Y632D02*
X185Y632D01*
X271Y632D02*
X273Y632D01*
X459Y632D02*
X461Y632D01*
X546Y632D02*
X548Y632D01*
X734Y632D02*
X736Y632D01*
X822Y632D02*
X824Y632D01*
X1010Y632D02*
X1012Y632D01*
X1097Y632D02*
X1099Y632D01*
X1285Y632D02*
X1287Y632D01*
X1373Y632D02*
X1375Y632D01*
X1561Y632D02*
X1563Y632D01*
X1649Y632D02*
X1650Y632D01*
X1836Y632D02*
X1838Y632D01*
X1924Y632D02*
X1926Y632D01*
X2026Y632D02*
X2028Y632D01*
X2113Y632D02*
X2115Y632D01*
X183Y631D02*
X185Y631D01*
X271Y631D02*
X273Y631D01*
X459Y631D02*
X461Y631D01*
X546Y631D02*
X548Y631D01*
X734Y631D02*
X736Y631D01*
X822Y631D02*
X824Y631D01*
X1010Y631D02*
X1012Y631D01*
X1097Y631D02*
X1099Y631D01*
X1285Y631D02*
X1287Y631D01*
X1373Y631D02*
X1375Y631D01*
X1561Y631D02*
X1563Y631D01*
X1649Y631D02*
X1650Y631D01*
X1836Y631D02*
X1838Y631D01*
X1924Y631D02*
X1926Y631D01*
X2026Y631D02*
X2028Y631D01*
X2113Y631D02*
X2115Y631D01*
X183Y630D02*
X185Y630D01*
X271Y630D02*
X273Y630D01*
X459Y630D02*
X461Y630D01*
X546Y630D02*
X548Y630D01*
X734Y630D02*
X736Y630D01*
X822Y630D02*
X824Y630D01*
X1010Y630D02*
X1012Y630D01*
X1097Y630D02*
X1099Y630D01*
X1285Y630D02*
X1287Y630D01*
X1373Y630D02*
X1375Y630D01*
X1561Y630D02*
X1563Y630D01*
X1649Y630D02*
X1650Y630D01*
X1836Y630D02*
X1838Y630D01*
X1924Y630D02*
X1926Y630D01*
X2026Y630D02*
X2028Y630D01*
X2113Y630D02*
X2115Y630D01*
X183Y629D02*
X185Y629D01*
X271Y629D02*
X273Y629D01*
X459Y629D02*
X461Y629D01*
X546Y629D02*
X548Y629D01*
X734Y629D02*
X736Y629D01*
X822Y629D02*
X824Y629D01*
X1010Y629D02*
X1012Y629D01*
X1097Y629D02*
X1099Y629D01*
X1285Y629D02*
X1287Y629D01*
X1373Y629D02*
X1375Y629D01*
X1561Y629D02*
X1563Y629D01*
X1649Y629D02*
X1650Y629D01*
X1836Y629D02*
X1838Y629D01*
X1924Y629D02*
X1926Y629D01*
X2026Y629D02*
X2028Y629D01*
X2113Y629D02*
X2115Y629D01*
X183Y628D02*
X185Y628D01*
X271Y628D02*
X273Y628D01*
X459Y628D02*
X461Y628D01*
X546Y628D02*
X548Y628D01*
X734Y628D02*
X736Y628D01*
X822Y628D02*
X824Y628D01*
X1010Y628D02*
X1012Y628D01*
X1097Y628D02*
X1099Y628D01*
X1285Y628D02*
X1287Y628D01*
X1373Y628D02*
X1375Y628D01*
X1561Y628D02*
X1563Y628D01*
X1649Y628D02*
X1650Y628D01*
X1836Y628D02*
X1838Y628D01*
X1924Y628D02*
X1926Y628D01*
X2026Y628D02*
X2028Y628D01*
X2113Y628D02*
X2115Y628D01*
X183Y627D02*
X185Y627D01*
X271Y627D02*
X273Y627D01*
X459Y627D02*
X461Y627D01*
X546Y627D02*
X548Y627D01*
X734Y627D02*
X736Y627D01*
X822Y627D02*
X824Y627D01*
X1010Y627D02*
X1012Y627D01*
X1097Y627D02*
X1099Y627D01*
X1285Y627D02*
X1287Y627D01*
X1373Y627D02*
X1375Y627D01*
X1561Y627D02*
X1563Y627D01*
X1649Y627D02*
X1650Y627D01*
X1836Y627D02*
X1838Y627D01*
X1924Y627D02*
X1926Y627D01*
X2026Y627D02*
X2028Y627D01*
X2113Y627D02*
X2115Y627D01*
X183Y626D02*
X185Y626D01*
X271Y626D02*
X273Y626D01*
X459Y626D02*
X461Y626D01*
X546Y626D02*
X548Y626D01*
X734Y626D02*
X736Y626D01*
X822Y626D02*
X824Y626D01*
X1010Y626D02*
X1012Y626D01*
X1097Y626D02*
X1099Y626D01*
X1285Y626D02*
X1287Y626D01*
X1373Y626D02*
X1375Y626D01*
X1561Y626D02*
X1563Y626D01*
X1649Y626D02*
X1650Y626D01*
X1836Y626D02*
X1838Y626D01*
X1924Y626D02*
X1926Y626D01*
X2026Y626D02*
X2028Y626D01*
X2113Y626D02*
X2115Y626D01*
X183Y625D02*
X185Y625D01*
X271Y625D02*
X273Y625D01*
X459Y625D02*
X461Y625D01*
X546Y625D02*
X548Y625D01*
X734Y625D02*
X736Y625D01*
X822Y625D02*
X824Y625D01*
X1010Y625D02*
X1012Y625D01*
X1097Y625D02*
X1099Y625D01*
X1285Y625D02*
X1287Y625D01*
X1373Y625D02*
X1375Y625D01*
X1561Y625D02*
X1563Y625D01*
X1649Y625D02*
X1650Y625D01*
X1836Y625D02*
X1838Y625D01*
X1924Y625D02*
X1926Y625D01*
X2026Y625D02*
X2028Y625D01*
X2113Y625D02*
X2115Y625D01*
X183Y624D02*
X185Y624D01*
X271Y624D02*
X273Y624D01*
X459Y624D02*
X461Y624D01*
X546Y624D02*
X548Y624D01*
X734Y624D02*
X736Y624D01*
X822Y624D02*
X824Y624D01*
X1010Y624D02*
X1012Y624D01*
X1097Y624D02*
X1099Y624D01*
X1285Y624D02*
X1287Y624D01*
X1373Y624D02*
X1375Y624D01*
X1561Y624D02*
X1563Y624D01*
X1649Y624D02*
X1650Y624D01*
X1836Y624D02*
X1838Y624D01*
X1924Y624D02*
X1926Y624D01*
X2026Y624D02*
X2028Y624D01*
X2113Y624D02*
X2115Y624D01*
X183Y623D02*
X185Y623D01*
X271Y623D02*
X273Y623D01*
X459Y623D02*
X461Y623D01*
X546Y623D02*
X548Y623D01*
X734Y623D02*
X736Y623D01*
X822Y623D02*
X824Y623D01*
X1010Y623D02*
X1012Y623D01*
X1097Y623D02*
X1099Y623D01*
X1285Y623D02*
X1287Y623D01*
X1373Y623D02*
X1375Y623D01*
X1561Y623D02*
X1563Y623D01*
X1649Y623D02*
X1650Y623D01*
X1836Y623D02*
X1838Y623D01*
X1924Y623D02*
X1926Y623D01*
X2026Y623D02*
X2028Y623D01*
X2113Y623D02*
X2115Y623D01*
X183Y622D02*
X185Y622D01*
X271Y622D02*
X273Y622D01*
X459Y622D02*
X461Y622D01*
X546Y622D02*
X548Y622D01*
X734Y622D02*
X736Y622D01*
X822Y622D02*
X824Y622D01*
X1010Y622D02*
X1012Y622D01*
X1097Y622D02*
X1099Y622D01*
X1285Y622D02*
X1287Y622D01*
X1373Y622D02*
X1375Y622D01*
X1561Y622D02*
X1563Y622D01*
X1649Y622D02*
X1650Y622D01*
X1836Y622D02*
X1838Y622D01*
X1924Y622D02*
X1926Y622D01*
X2026Y622D02*
X2028Y622D01*
X2113Y622D02*
X2115Y622D01*
X183Y621D02*
X185Y621D01*
X271Y621D02*
X273Y621D01*
X459Y621D02*
X461Y621D01*
X546Y621D02*
X548Y621D01*
X734Y621D02*
X736Y621D01*
X822Y621D02*
X824Y621D01*
X1010Y621D02*
X1012Y621D01*
X1097Y621D02*
X1099Y621D01*
X1285Y621D02*
X1287Y621D01*
X1373Y621D02*
X1375Y621D01*
X1561Y621D02*
X1563Y621D01*
X1649Y621D02*
X1650Y621D01*
X1836Y621D02*
X1838Y621D01*
X1924Y621D02*
X1926Y621D01*
X2026Y621D02*
X2028Y621D01*
X2113Y621D02*
X2115Y621D01*
X183Y620D02*
X185Y620D01*
X271Y620D02*
X273Y620D01*
X459Y620D02*
X461Y620D01*
X546Y620D02*
X548Y620D01*
X734Y620D02*
X736Y620D01*
X822Y620D02*
X824Y620D01*
X1010Y620D02*
X1012Y620D01*
X1097Y620D02*
X1099Y620D01*
X1285Y620D02*
X1287Y620D01*
X1373Y620D02*
X1375Y620D01*
X1561Y620D02*
X1563Y620D01*
X1649Y620D02*
X1650Y620D01*
X1836Y620D02*
X1838Y620D01*
X1924Y620D02*
X1926Y620D01*
X2026Y620D02*
X2028Y620D01*
X2113Y620D02*
X2115Y620D01*
X183Y619D02*
X185Y619D01*
X271Y619D02*
X273Y619D01*
X459Y619D02*
X461Y619D01*
X546Y619D02*
X548Y619D01*
X734Y619D02*
X736Y619D01*
X822Y619D02*
X824Y619D01*
X1010Y619D02*
X1012Y619D01*
X1097Y619D02*
X1099Y619D01*
X1285Y619D02*
X1287Y619D01*
X1373Y619D02*
X1375Y619D01*
X1561Y619D02*
X1563Y619D01*
X1649Y619D02*
X1650Y619D01*
X1836Y619D02*
X1838Y619D01*
X1924Y619D02*
X1926Y619D01*
X2026Y619D02*
X2028Y619D01*
X2113Y619D02*
X2115Y619D01*
X183Y618D02*
X185Y618D01*
X271Y618D02*
X273Y618D01*
X459Y618D02*
X461Y618D01*
X546Y618D02*
X548Y618D01*
X734Y618D02*
X736Y618D01*
X822Y618D02*
X824Y618D01*
X1010Y618D02*
X1012Y618D01*
X1097Y618D02*
X1099Y618D01*
X1285Y618D02*
X1287Y618D01*
X1373Y618D02*
X1375Y618D01*
X1561Y618D02*
X1563Y618D01*
X1649Y618D02*
X1650Y618D01*
X1836Y618D02*
X1838Y618D01*
X1924Y618D02*
X1926Y618D01*
X2026Y618D02*
X2028Y618D01*
X2113Y618D02*
X2115Y618D01*
X183Y617D02*
X185Y617D01*
X271Y617D02*
X273Y617D01*
X459Y617D02*
X461Y617D01*
X546Y617D02*
X548Y617D01*
X734Y617D02*
X736Y617D01*
X822Y617D02*
X824Y617D01*
X1010Y617D02*
X1012Y617D01*
X1097Y617D02*
X1099Y617D01*
X1285Y617D02*
X1287Y617D01*
X1373Y617D02*
X1375Y617D01*
X1561Y617D02*
X1563Y617D01*
X1649Y617D02*
X1650Y617D01*
X1836Y617D02*
X1838Y617D01*
X1924Y617D02*
X1926Y617D01*
X2026Y617D02*
X2028Y617D01*
X2113Y617D02*
X2115Y617D01*
X183Y616D02*
X185Y616D01*
X271Y616D02*
X273Y616D01*
X459Y616D02*
X461Y616D01*
X546Y616D02*
X548Y616D01*
X734Y616D02*
X736Y616D01*
X822Y616D02*
X824Y616D01*
X1010Y616D02*
X1012Y616D01*
X1097Y616D02*
X1099Y616D01*
X1285Y616D02*
X1287Y616D01*
X1373Y616D02*
X1375Y616D01*
X1561Y616D02*
X1563Y616D01*
X1649Y616D02*
X1650Y616D01*
X1836Y616D02*
X1838Y616D01*
X1924Y616D02*
X1926Y616D01*
X2026Y616D02*
X2028Y616D01*
X2113Y616D02*
X2115Y616D01*
X183Y615D02*
X185Y615D01*
X271Y615D02*
X273Y615D01*
X459Y615D02*
X461Y615D01*
X546Y615D02*
X548Y615D01*
X734Y615D02*
X736Y615D01*
X822Y615D02*
X824Y615D01*
X1010Y615D02*
X1012Y615D01*
X1097Y615D02*
X1099Y615D01*
X1285Y615D02*
X1287Y615D01*
X1373Y615D02*
X1375Y615D01*
X1561Y615D02*
X1563Y615D01*
X1649Y615D02*
X1650Y615D01*
X1836Y615D02*
X1838Y615D01*
X1924Y615D02*
X1926Y615D01*
X2026Y615D02*
X2028Y615D01*
X2113Y615D02*
X2115Y615D01*
X183Y614D02*
X185Y614D01*
X271Y614D02*
X273Y614D01*
X459Y614D02*
X461Y614D01*
X546Y614D02*
X548Y614D01*
X734Y614D02*
X736Y614D01*
X822Y614D02*
X824Y614D01*
X1010Y614D02*
X1012Y614D01*
X1097Y614D02*
X1099Y614D01*
X1285Y614D02*
X1287Y614D01*
X1373Y614D02*
X1375Y614D01*
X1561Y614D02*
X1563Y614D01*
X1649Y614D02*
X1650Y614D01*
X1836Y614D02*
X1838Y614D01*
X1924Y614D02*
X1926Y614D01*
X2026Y614D02*
X2028Y614D01*
X2113Y614D02*
X2115Y614D01*
X183Y613D02*
X185Y613D01*
X271Y613D02*
X273Y613D01*
X459Y613D02*
X461Y613D01*
X546Y613D02*
X548Y613D01*
X734Y613D02*
X736Y613D01*
X822Y613D02*
X824Y613D01*
X1010Y613D02*
X1012Y613D01*
X1097Y613D02*
X1099Y613D01*
X1285Y613D02*
X1287Y613D01*
X1373Y613D02*
X1375Y613D01*
X1561Y613D02*
X1563Y613D01*
X1649Y613D02*
X1650Y613D01*
X1836Y613D02*
X1838Y613D01*
X1924Y613D02*
X1926Y613D01*
X2026Y613D02*
X2028Y613D01*
X2113Y613D02*
X2115Y613D01*
X183Y612D02*
X185Y612D01*
X271Y612D02*
X273Y612D01*
X459Y612D02*
X461Y612D01*
X546Y612D02*
X548Y612D01*
X734Y612D02*
X736Y612D01*
X822Y612D02*
X824Y612D01*
X1010Y612D02*
X1012Y612D01*
X1097Y612D02*
X1099Y612D01*
X1285Y612D02*
X1287Y612D01*
X1373Y612D02*
X1375Y612D01*
X1561Y612D02*
X1563Y612D01*
X1649Y612D02*
X1650Y612D01*
X1836Y612D02*
X1838Y612D01*
X1924Y612D02*
X1926Y612D01*
X2026Y612D02*
X2028Y612D01*
X2113Y612D02*
X2115Y612D01*
X183Y611D02*
X185Y611D01*
X271Y611D02*
X273Y611D01*
X459Y611D02*
X461Y611D01*
X546Y611D02*
X548Y611D01*
X734Y611D02*
X736Y611D01*
X822Y611D02*
X824Y611D01*
X1010Y611D02*
X1012Y611D01*
X1097Y611D02*
X1099Y611D01*
X1285Y611D02*
X1287Y611D01*
X1373Y611D02*
X1375Y611D01*
X1561Y611D02*
X1563Y611D01*
X1649Y611D02*
X1650Y611D01*
X1836Y611D02*
X1838Y611D01*
X1924Y611D02*
X1926Y611D01*
X2026Y611D02*
X2028Y611D01*
X2113Y611D02*
X2115Y611D01*
X183Y610D02*
X185Y610D01*
X271Y610D02*
X273Y610D01*
X459Y610D02*
X461Y610D01*
X546Y610D02*
X548Y610D01*
X734Y610D02*
X736Y610D01*
X822Y610D02*
X824Y610D01*
X1010Y610D02*
X1012Y610D01*
X1097Y610D02*
X1099Y610D01*
X1285Y610D02*
X1287Y610D01*
X1373Y610D02*
X1375Y610D01*
X1561Y610D02*
X1563Y610D01*
X1649Y610D02*
X1650Y610D01*
X1836Y610D02*
X1838Y610D01*
X1924Y610D02*
X1926Y610D01*
X2026Y610D02*
X2028Y610D01*
X2113Y610D02*
X2115Y610D01*
X183Y609D02*
X185Y609D01*
X271Y609D02*
X273Y609D01*
X459Y609D02*
X461Y609D01*
X546Y609D02*
X548Y609D01*
X734Y609D02*
X736Y609D01*
X822Y609D02*
X824Y609D01*
X1010Y609D02*
X1012Y609D01*
X1097Y609D02*
X1099Y609D01*
X1285Y609D02*
X1287Y609D01*
X1373Y609D02*
X1375Y609D01*
X1561Y609D02*
X1563Y609D01*
X1649Y609D02*
X1650Y609D01*
X1836Y609D02*
X1838Y609D01*
X1924Y609D02*
X1926Y609D01*
X2026Y609D02*
X2028Y609D01*
X2113Y609D02*
X2115Y609D01*
X183Y608D02*
X185Y608D01*
X271Y608D02*
X273Y608D01*
X459Y608D02*
X461Y608D01*
X546Y608D02*
X548Y608D01*
X734Y608D02*
X736Y608D01*
X822Y608D02*
X824Y608D01*
X1010Y608D02*
X1012Y608D01*
X1097Y608D02*
X1099Y608D01*
X1285Y608D02*
X1287Y608D01*
X1373Y608D02*
X1375Y608D01*
X1561Y608D02*
X1563Y608D01*
X1649Y608D02*
X1650Y608D01*
X1836Y608D02*
X1838Y608D01*
X1924Y608D02*
X1926Y608D01*
X2026Y608D02*
X2028Y608D01*
X2113Y608D02*
X2115Y608D01*
X183Y607D02*
X185Y607D01*
X271Y607D02*
X273Y607D01*
X459Y607D02*
X461Y607D01*
X546Y607D02*
X548Y607D01*
X734Y607D02*
X736Y607D01*
X822Y607D02*
X824Y607D01*
X1010Y607D02*
X1012Y607D01*
X1097Y607D02*
X1099Y607D01*
X1285Y607D02*
X1287Y607D01*
X1373Y607D02*
X1375Y607D01*
X1561Y607D02*
X1563Y607D01*
X1649Y607D02*
X1650Y607D01*
X1836Y607D02*
X1838Y607D01*
X1924Y607D02*
X1926Y607D01*
X2026Y607D02*
X2028Y607D01*
X2113Y607D02*
X2115Y607D01*
X183Y606D02*
X185Y606D01*
X271Y606D02*
X273Y606D01*
X459Y606D02*
X461Y606D01*
X546Y606D02*
X548Y606D01*
X734Y606D02*
X736Y606D01*
X822Y606D02*
X824Y606D01*
X1010Y606D02*
X1012Y606D01*
X1097Y606D02*
X1099Y606D01*
X1285Y606D02*
X1287Y606D01*
X1373Y606D02*
X1375Y606D01*
X1561Y606D02*
X1563Y606D01*
X1649Y606D02*
X1650Y606D01*
X1836Y606D02*
X1838Y606D01*
X1924Y606D02*
X1926Y606D01*
X2026Y606D02*
X2028Y606D01*
X2113Y606D02*
X2115Y606D01*
X183Y605D02*
X185Y605D01*
X271Y605D02*
X273Y605D01*
X459Y605D02*
X461Y605D01*
X546Y605D02*
X548Y605D01*
X734Y605D02*
X736Y605D01*
X822Y605D02*
X824Y605D01*
X1010Y605D02*
X1012Y605D01*
X1097Y605D02*
X1099Y605D01*
X1285Y605D02*
X1287Y605D01*
X1373Y605D02*
X1375Y605D01*
X1561Y605D02*
X1563Y605D01*
X1649Y605D02*
X1650Y605D01*
X1836Y605D02*
X1838Y605D01*
X1924Y605D02*
X1926Y605D01*
X2026Y605D02*
X2028Y605D01*
X2113Y605D02*
X2115Y605D01*
X183Y604D02*
X185Y604D01*
X271Y604D02*
X273Y604D01*
X459Y604D02*
X461Y604D01*
X546Y604D02*
X548Y604D01*
X734Y604D02*
X736Y604D01*
X822Y604D02*
X824Y604D01*
X1010Y604D02*
X1012Y604D01*
X1097Y604D02*
X1099Y604D01*
X1285Y604D02*
X1287Y604D01*
X1373Y604D02*
X1375Y604D01*
X1561Y604D02*
X1563Y604D01*
X1649Y604D02*
X1650Y604D01*
X1836Y604D02*
X1838Y604D01*
X1924Y604D02*
X1926Y604D01*
X2026Y604D02*
X2028Y604D01*
X2113Y604D02*
X2115Y604D01*
X183Y603D02*
X185Y603D01*
X271Y603D02*
X273Y603D01*
X459Y603D02*
X461Y603D01*
X546Y603D02*
X548Y603D01*
X734Y603D02*
X736Y603D01*
X822Y603D02*
X824Y603D01*
X1010Y603D02*
X1012Y603D01*
X1097Y603D02*
X1099Y603D01*
X1285Y603D02*
X1287Y603D01*
X1373Y603D02*
X1375Y603D01*
X1561Y603D02*
X1563Y603D01*
X1649Y603D02*
X1650Y603D01*
X1836Y603D02*
X1838Y603D01*
X1924Y603D02*
X1926Y603D01*
X2026Y603D02*
X2028Y603D01*
X2113Y603D02*
X2115Y603D01*
X183Y602D02*
X185Y602D01*
X271Y602D02*
X273Y602D01*
X459Y602D02*
X461Y602D01*
X546Y602D02*
X548Y602D01*
X734Y602D02*
X736Y602D01*
X822Y602D02*
X824Y602D01*
X1010Y602D02*
X1012Y602D01*
X1097Y602D02*
X1099Y602D01*
X1285Y602D02*
X1287Y602D01*
X1373Y602D02*
X1375Y602D01*
X1561Y602D02*
X1563Y602D01*
X1649Y602D02*
X1650Y602D01*
X1836Y602D02*
X1838Y602D01*
X1924Y602D02*
X1926Y602D01*
X2026Y602D02*
X2028Y602D01*
X2113Y602D02*
X2115Y602D01*
X183Y601D02*
X185Y601D01*
X271Y601D02*
X273Y601D01*
X459Y601D02*
X461Y601D01*
X546Y601D02*
X548Y601D01*
X734Y601D02*
X736Y601D01*
X822Y601D02*
X824Y601D01*
X1010Y601D02*
X1012Y601D01*
X1097Y601D02*
X1099Y601D01*
X1285Y601D02*
X1287Y601D01*
X1373Y601D02*
X1375Y601D01*
X1561Y601D02*
X1563Y601D01*
X1649Y601D02*
X1650Y601D01*
X1836Y601D02*
X1838Y601D01*
X1924Y601D02*
X1926Y601D01*
X2026Y601D02*
X2028Y601D01*
X2113Y601D02*
X2115Y601D01*
X183Y600D02*
X185Y600D01*
X271Y600D02*
X273Y600D01*
X459Y600D02*
X461Y600D01*
X546Y600D02*
X548Y600D01*
X734Y600D02*
X736Y600D01*
X822Y600D02*
X824Y600D01*
X1010Y600D02*
X1012Y600D01*
X1097Y600D02*
X1099Y600D01*
X1285Y600D02*
X1287Y600D01*
X1373Y600D02*
X1375Y600D01*
X1561Y600D02*
X1563Y600D01*
X1649Y600D02*
X1650Y600D01*
X1836Y600D02*
X1838Y600D01*
X1924Y600D02*
X1926Y600D01*
X2026Y600D02*
X2028Y600D01*
X2113Y600D02*
X2115Y600D01*
X183Y599D02*
X185Y599D01*
X271Y599D02*
X273Y599D01*
X459Y599D02*
X461Y599D01*
X546Y599D02*
X548Y599D01*
X734Y599D02*
X736Y599D01*
X822Y599D02*
X824Y599D01*
X1010Y599D02*
X1012Y599D01*
X1097Y599D02*
X1099Y599D01*
X1285Y599D02*
X1287Y599D01*
X1373Y599D02*
X1375Y599D01*
X1561Y599D02*
X1563Y599D01*
X1649Y599D02*
X1650Y599D01*
X1836Y599D02*
X1838Y599D01*
X1924Y599D02*
X1926Y599D01*
X2026Y599D02*
X2028Y599D01*
X2113Y599D02*
X2115Y599D01*
X183Y598D02*
X185Y598D01*
X271Y598D02*
X273Y598D01*
X459Y598D02*
X461Y598D01*
X546Y598D02*
X548Y598D01*
X734Y598D02*
X736Y598D01*
X822Y598D02*
X824Y598D01*
X1010Y598D02*
X1012Y598D01*
X1097Y598D02*
X1099Y598D01*
X1285Y598D02*
X1287Y598D01*
X1373Y598D02*
X1375Y598D01*
X1561Y598D02*
X1563Y598D01*
X1649Y598D02*
X1650Y598D01*
X1836Y598D02*
X1838Y598D01*
X1924Y598D02*
X1926Y598D01*
X2026Y598D02*
X2028Y598D01*
X2113Y598D02*
X2115Y598D01*
X183Y597D02*
X185Y597D01*
X271Y597D02*
X273Y597D01*
X459Y597D02*
X461Y597D01*
X546Y597D02*
X548Y597D01*
X734Y597D02*
X736Y597D01*
X822Y597D02*
X824Y597D01*
X1010Y597D02*
X1012Y597D01*
X1097Y597D02*
X1099Y597D01*
X1285Y597D02*
X1287Y597D01*
X1373Y597D02*
X1375Y597D01*
X1561Y597D02*
X1563Y597D01*
X1649Y597D02*
X1650Y597D01*
X1836Y597D02*
X1838Y597D01*
X1924Y597D02*
X1926Y597D01*
X2026Y597D02*
X2028Y597D01*
X2113Y597D02*
X2115Y597D01*
X183Y596D02*
X185Y596D01*
X271Y596D02*
X273Y596D01*
X459Y596D02*
X461Y596D01*
X546Y596D02*
X548Y596D01*
X734Y596D02*
X736Y596D01*
X822Y596D02*
X824Y596D01*
X1010Y596D02*
X1012Y596D01*
X1097Y596D02*
X1099Y596D01*
X1285Y596D02*
X1287Y596D01*
X1373Y596D02*
X1375Y596D01*
X1561Y596D02*
X1563Y596D01*
X1649Y596D02*
X1650Y596D01*
X1836Y596D02*
X1838Y596D01*
X1924Y596D02*
X1926Y596D01*
X2026Y596D02*
X2028Y596D01*
X2113Y596D02*
X2115Y596D01*
X183Y595D02*
X185Y595D01*
X271Y595D02*
X273Y595D01*
X459Y595D02*
X461Y595D01*
X546Y595D02*
X548Y595D01*
X734Y595D02*
X736Y595D01*
X822Y595D02*
X824Y595D01*
X1010Y595D02*
X1012Y595D01*
X1097Y595D02*
X1099Y595D01*
X1285Y595D02*
X1287Y595D01*
X1373Y595D02*
X1375Y595D01*
X1561Y595D02*
X1563Y595D01*
X1649Y595D02*
X1650Y595D01*
X1836Y595D02*
X1838Y595D01*
X1924Y595D02*
X1926Y595D01*
X2026Y595D02*
X2028Y595D01*
X2113Y595D02*
X2115Y595D01*
X183Y594D02*
X185Y594D01*
X271Y594D02*
X273Y594D01*
X459Y594D02*
X461Y594D01*
X546Y594D02*
X548Y594D01*
X734Y594D02*
X736Y594D01*
X822Y594D02*
X824Y594D01*
X1010Y594D02*
X1012Y594D01*
X1097Y594D02*
X1099Y594D01*
X1285Y594D02*
X1287Y594D01*
X1373Y594D02*
X1375Y594D01*
X1561Y594D02*
X1563Y594D01*
X1649Y594D02*
X1650Y594D01*
X1836Y594D02*
X1838Y594D01*
X1924Y594D02*
X1926Y594D01*
X2026Y594D02*
X2028Y594D01*
X2113Y594D02*
X2115Y594D01*
X183Y593D02*
X185Y593D01*
X271Y593D02*
X273Y593D01*
X459Y593D02*
X461Y593D01*
X546Y593D02*
X548Y593D01*
X734Y593D02*
X736Y593D01*
X822Y593D02*
X824Y593D01*
X1010Y593D02*
X1012Y593D01*
X1097Y593D02*
X1099Y593D01*
X1285Y593D02*
X1287Y593D01*
X1373Y593D02*
X1375Y593D01*
X1561Y593D02*
X1563Y593D01*
X1649Y593D02*
X1650Y593D01*
X1836Y593D02*
X1838Y593D01*
X1924Y593D02*
X1926Y593D01*
X2026Y593D02*
X2028Y593D01*
X2113Y593D02*
X2115Y593D01*
X183Y592D02*
X185Y592D01*
X271Y592D02*
X273Y592D01*
X459Y592D02*
X461Y592D01*
X546Y592D02*
X548Y592D01*
X734Y592D02*
X736Y592D01*
X822Y592D02*
X824Y592D01*
X1010Y592D02*
X1012Y592D01*
X1097Y592D02*
X1099Y592D01*
X1285Y592D02*
X1287Y592D01*
X1373Y592D02*
X1375Y592D01*
X1561Y592D02*
X1563Y592D01*
X1649Y592D02*
X1650Y592D01*
X1836Y592D02*
X1838Y592D01*
X1924Y592D02*
X1926Y592D01*
X2026Y592D02*
X2028Y592D01*
X2113Y592D02*
X2115Y592D01*
X183Y591D02*
X185Y591D01*
X271Y591D02*
X273Y591D01*
X459Y591D02*
X461Y591D01*
X546Y591D02*
X548Y591D01*
X734Y591D02*
X736Y591D01*
X822Y591D02*
X824Y591D01*
X1010Y591D02*
X1012Y591D01*
X1097Y591D02*
X1099Y591D01*
X1285Y591D02*
X1287Y591D01*
X1373Y591D02*
X1375Y591D01*
X1561Y591D02*
X1563Y591D01*
X1649Y591D02*
X1650Y591D01*
X1836Y591D02*
X1838Y591D01*
X1924Y591D02*
X1926Y591D01*
X2026Y591D02*
X2028Y591D01*
X2113Y591D02*
X2115Y591D01*
X183Y590D02*
X185Y590D01*
X271Y590D02*
X273Y590D01*
X459Y590D02*
X461Y590D01*
X546Y590D02*
X548Y590D01*
X734Y590D02*
X736Y590D01*
X822Y590D02*
X824Y590D01*
X1010Y590D02*
X1012Y590D01*
X1097Y590D02*
X1099Y590D01*
X1285Y590D02*
X1287Y590D01*
X1373Y590D02*
X1375Y590D01*
X1561Y590D02*
X1563Y590D01*
X1649Y590D02*
X1650Y590D01*
X1836Y590D02*
X1838Y590D01*
X1924Y590D02*
X1926Y590D01*
X2026Y590D02*
X2028Y590D01*
X2113Y590D02*
X2115Y590D01*
X183Y589D02*
X185Y589D01*
X271Y589D02*
X273Y589D01*
X459Y589D02*
X461Y589D01*
X546Y589D02*
X548Y589D01*
X734Y589D02*
X736Y589D01*
X822Y589D02*
X824Y589D01*
X1010Y589D02*
X1012Y589D01*
X1097Y589D02*
X1099Y589D01*
X1285Y589D02*
X1287Y589D01*
X1373Y589D02*
X1375Y589D01*
X1561Y589D02*
X1563Y589D01*
X1649Y589D02*
X1650Y589D01*
X1836Y589D02*
X1838Y589D01*
X1924Y589D02*
X1926Y589D01*
X2026Y589D02*
X2028Y589D01*
X2113Y589D02*
X2115Y589D01*
X183Y588D02*
X185Y588D01*
X271Y588D02*
X273Y588D01*
X459Y588D02*
X461Y588D01*
X546Y588D02*
X548Y588D01*
X734Y588D02*
X736Y588D01*
X822Y588D02*
X824Y588D01*
X1010Y588D02*
X1012Y588D01*
X1097Y588D02*
X1099Y588D01*
X1285Y588D02*
X1287Y588D01*
X1373Y588D02*
X1375Y588D01*
X1561Y588D02*
X1563Y588D01*
X1649Y588D02*
X1650Y588D01*
X1836Y588D02*
X1838Y588D01*
X1924Y588D02*
X1926Y588D01*
X2026Y588D02*
X2028Y588D01*
X2113Y588D02*
X2115Y588D01*
X183Y587D02*
X185Y587D01*
X271Y587D02*
X273Y587D01*
X459Y587D02*
X461Y587D01*
X546Y587D02*
X548Y587D01*
X734Y587D02*
X736Y587D01*
X822Y587D02*
X824Y587D01*
X1010Y587D02*
X1012Y587D01*
X1097Y587D02*
X1099Y587D01*
X1285Y587D02*
X1287Y587D01*
X1373Y587D02*
X1375Y587D01*
X1561Y587D02*
X1563Y587D01*
X1649Y587D02*
X1650Y587D01*
X1836Y587D02*
X1838Y587D01*
X1924Y587D02*
X1926Y587D01*
X2026Y587D02*
X2028Y587D01*
X2113Y587D02*
X2115Y587D01*
X183Y586D02*
X185Y586D01*
X271Y586D02*
X273Y586D01*
X459Y586D02*
X461Y586D01*
X546Y586D02*
X548Y586D01*
X734Y586D02*
X736Y586D01*
X822Y586D02*
X824Y586D01*
X1010Y586D02*
X1012Y586D01*
X1097Y586D02*
X1099Y586D01*
X1285Y586D02*
X1287Y586D01*
X1373Y586D02*
X1375Y586D01*
X1561Y586D02*
X1563Y586D01*
X1649Y586D02*
X1650Y586D01*
X1836Y586D02*
X1838Y586D01*
X1924Y586D02*
X1926Y586D01*
X2026Y586D02*
X2028Y586D01*
X2113Y586D02*
X2115Y586D01*
X183Y585D02*
X185Y585D01*
X271Y585D02*
X273Y585D01*
X459Y585D02*
X462Y585D01*
X545Y585D02*
X548Y585D01*
X734Y585D02*
X737Y585D01*
X821Y585D02*
X824Y585D01*
X1010Y585D02*
X1013Y585D01*
X1096Y585D02*
X1099Y585D01*
X1285Y585D02*
X1287Y585D01*
X1373Y585D02*
X1375Y585D01*
X1561Y585D02*
X1563Y585D01*
X1649Y585D02*
X1650Y585D01*
X1836Y585D02*
X1838Y585D01*
X1924Y585D02*
X1926Y585D01*
X2026Y585D02*
X2028Y585D01*
X2113Y585D02*
X2115Y585D01*
X183Y584D02*
X185Y584D01*
X271Y584D02*
X273Y584D01*
X459Y584D02*
X462Y584D01*
X545Y584D02*
X548Y584D01*
X734Y584D02*
X737Y584D01*
X821Y584D02*
X824Y584D01*
X1010Y584D02*
X1013Y584D01*
X1096Y584D02*
X1099Y584D01*
X1285Y584D02*
X1287Y584D01*
X1373Y584D02*
X1375Y584D01*
X1561Y584D02*
X1563Y584D01*
X1649Y584D02*
X1650Y584D01*
X1836Y584D02*
X1838Y584D01*
X1924Y584D02*
X1926Y584D01*
X2026Y584D02*
X2028Y584D01*
X2113Y584D02*
X2115Y584D01*
X183Y583D02*
X185Y583D01*
X271Y583D02*
X273Y583D01*
X459Y583D02*
X462Y583D01*
X545Y583D02*
X548Y583D01*
X734Y583D02*
X737Y583D01*
X821Y583D02*
X824Y583D01*
X1010Y583D02*
X1013Y583D01*
X1096Y583D02*
X1099Y583D01*
X1285Y583D02*
X1287Y583D01*
X1373Y583D02*
X1375Y583D01*
X1561Y583D02*
X1563Y583D01*
X1649Y583D02*
X1650Y583D01*
X1836Y583D02*
X1838Y583D01*
X1924Y583D02*
X1926Y583D01*
X2026Y583D02*
X2028Y583D01*
X2113Y583D02*
X2115Y583D01*
X183Y582D02*
X185Y582D01*
X271Y582D02*
X273Y582D01*
X459Y582D02*
X462Y582D01*
X545Y582D02*
X548Y582D01*
X734Y582D02*
X737Y582D01*
X821Y582D02*
X824Y582D01*
X1010Y582D02*
X1013Y582D01*
X1096Y582D02*
X1099Y582D01*
X1285Y582D02*
X1287Y582D01*
X1373Y582D02*
X1375Y582D01*
X1561Y582D02*
X1563Y582D01*
X1649Y582D02*
X1650Y582D01*
X1836Y582D02*
X1838Y582D01*
X1924Y582D02*
X1926Y582D01*
X2026Y582D02*
X2028Y582D01*
X2113Y582D02*
X2115Y582D01*
X183Y581D02*
X186Y581D01*
X270Y581D02*
X273Y581D01*
X459Y581D02*
X462Y581D01*
X545Y581D02*
X548Y581D01*
X734Y581D02*
X737Y581D01*
X821Y581D02*
X824Y581D01*
X1010Y581D02*
X1013Y581D01*
X1096Y581D02*
X1099Y581D01*
X1285Y581D02*
X1288Y581D01*
X1372Y581D02*
X1375Y581D01*
X1561Y581D02*
X1564Y581D01*
X1648Y581D02*
X1650Y581D01*
X1836Y581D02*
X1839Y581D01*
X1923Y581D02*
X1926Y581D01*
X2026Y581D02*
X2029Y581D01*
X2112Y581D02*
X2115Y581D01*
X183Y580D02*
X186Y580D01*
X270Y580D02*
X273Y580D01*
X459Y580D02*
X462Y580D01*
X545Y580D02*
X548Y580D01*
X734Y580D02*
X737Y580D01*
X821Y580D02*
X824Y580D01*
X1010Y580D02*
X1013Y580D01*
X1096Y580D02*
X1099Y580D01*
X1285Y580D02*
X1288Y580D01*
X1372Y580D02*
X1375Y580D01*
X1561Y580D02*
X1564Y580D01*
X1648Y580D02*
X1650Y580D01*
X1836Y580D02*
X1839Y580D01*
X1923Y580D02*
X1926Y580D01*
X2026Y580D02*
X2029Y580D01*
X2112Y580D02*
X2115Y580D01*
X183Y579D02*
X186Y579D01*
X270Y579D02*
X273Y579D01*
X459Y579D02*
X462Y579D01*
X545Y579D02*
X548Y579D01*
X734Y579D02*
X737Y579D01*
X821Y579D02*
X824Y579D01*
X1010Y579D02*
X1013Y579D01*
X1096Y579D02*
X1099Y579D01*
X1285Y579D02*
X1288Y579D01*
X1372Y579D02*
X1375Y579D01*
X1561Y579D02*
X1564Y579D01*
X1648Y579D02*
X1650Y579D01*
X1836Y579D02*
X1839Y579D01*
X1923Y579D02*
X1926Y579D01*
X2026Y579D02*
X2029Y579D01*
X2112Y579D02*
X2115Y579D01*
X183Y578D02*
X186Y578D01*
X270Y578D02*
X273Y578D01*
X459Y578D02*
X462Y578D01*
X545Y578D02*
X548Y578D01*
X734Y578D02*
X737Y578D01*
X821Y578D02*
X824Y578D01*
X1010Y578D02*
X1013Y578D01*
X1096Y578D02*
X1099Y578D01*
X1285Y578D02*
X1288Y578D01*
X1372Y578D02*
X1375Y578D01*
X1561Y578D02*
X1564Y578D01*
X1648Y578D02*
X1650Y578D01*
X1836Y578D02*
X1839Y578D01*
X1923Y578D02*
X1926Y578D01*
X2026Y578D02*
X2029Y578D01*
X2112Y578D02*
X2115Y578D01*
X183Y577D02*
X186Y577D01*
X270Y577D02*
X273Y577D01*
X459Y577D02*
X462Y577D01*
X545Y577D02*
X548Y577D01*
X734Y577D02*
X737Y577D01*
X821Y577D02*
X824Y577D01*
X1010Y577D02*
X1013Y577D01*
X1096Y577D02*
X1099Y577D01*
X1285Y577D02*
X1288Y577D01*
X1372Y577D02*
X1375Y577D01*
X1561Y577D02*
X1564Y577D01*
X1648Y577D02*
X1650Y577D01*
X1836Y577D02*
X1839Y577D01*
X1923Y577D02*
X1926Y577D01*
X2026Y577D02*
X2029Y577D01*
X2112Y577D02*
X2115Y577D01*
X183Y576D02*
X186Y576D01*
X270Y576D02*
X273Y576D01*
X459Y576D02*
X462Y576D01*
X545Y576D02*
X548Y576D01*
X734Y576D02*
X737Y576D01*
X821Y576D02*
X824Y576D01*
X1010Y576D02*
X1013Y576D01*
X1096Y576D02*
X1099Y576D01*
X1285Y576D02*
X1288Y576D01*
X1372Y576D02*
X1375Y576D01*
X1561Y576D02*
X1564Y576D01*
X1648Y576D02*
X1650Y576D01*
X1836Y576D02*
X1839Y576D01*
X1923Y576D02*
X1926Y576D01*
X2026Y576D02*
X2029Y576D01*
X2112Y576D02*
X2115Y576D01*
X183Y575D02*
X186Y575D01*
X270Y575D02*
X273Y575D01*
X459Y575D02*
X462Y575D01*
X545Y575D02*
X548Y575D01*
X734Y575D02*
X737Y575D01*
X821Y575D02*
X824Y575D01*
X1010Y575D02*
X1013Y575D01*
X1096Y575D02*
X1099Y575D01*
X1285Y575D02*
X1288Y575D01*
X1372Y575D02*
X1375Y575D01*
X1561Y575D02*
X1564Y575D01*
X1648Y575D02*
X1650Y575D01*
X1836Y575D02*
X1839Y575D01*
X1923Y575D02*
X1926Y575D01*
X2026Y575D02*
X2029Y575D01*
X2112Y575D02*
X2115Y575D01*
X183Y574D02*
X186Y574D01*
X270Y574D02*
X273Y574D01*
X459Y574D02*
X462Y574D01*
X545Y574D02*
X548Y574D01*
X734Y574D02*
X737Y574D01*
X821Y574D02*
X824Y574D01*
X1010Y574D02*
X1013Y574D01*
X1096Y574D02*
X1099Y574D01*
X1285Y574D02*
X1288Y574D01*
X1372Y574D02*
X1375Y574D01*
X1561Y574D02*
X1564Y574D01*
X1648Y574D02*
X1650Y574D01*
X1836Y574D02*
X1839Y574D01*
X1923Y574D02*
X1926Y574D01*
X2026Y574D02*
X2029Y574D01*
X2112Y574D02*
X2115Y574D01*
X183Y573D02*
X186Y573D01*
X270Y573D02*
X273Y573D01*
X459Y573D02*
X462Y573D01*
X545Y573D02*
X548Y573D01*
X734Y573D02*
X737Y573D01*
X821Y573D02*
X824Y573D01*
X1010Y573D02*
X1013Y573D01*
X1096Y573D02*
X1099Y573D01*
X1285Y573D02*
X1288Y573D01*
X1372Y573D02*
X1375Y573D01*
X1561Y573D02*
X1564Y573D01*
X1648Y573D02*
X1650Y573D01*
X1836Y573D02*
X1839Y573D01*
X1923Y573D02*
X1926Y573D01*
X2026Y573D02*
X2029Y573D01*
X2112Y573D02*
X2115Y573D01*
X183Y572D02*
X186Y572D01*
X270Y572D02*
X273Y572D01*
X459Y572D02*
X462Y572D01*
X545Y572D02*
X548Y572D01*
X734Y572D02*
X737Y572D01*
X821Y572D02*
X824Y572D01*
X1010Y572D02*
X1013Y572D01*
X1096Y572D02*
X1099Y572D01*
X1285Y572D02*
X1288Y572D01*
X1372Y572D02*
X1375Y572D01*
X1561Y572D02*
X1564Y572D01*
X1648Y572D02*
X1650Y572D01*
X1836Y572D02*
X1839Y572D01*
X1923Y572D02*
X1926Y572D01*
X2026Y572D02*
X2029Y572D01*
X2112Y572D02*
X2115Y572D01*
X183Y571D02*
X186Y571D01*
X270Y571D02*
X273Y571D01*
X459Y571D02*
X462Y571D01*
X545Y571D02*
X548Y571D01*
X734Y571D02*
X737Y571D01*
X821Y571D02*
X824Y571D01*
X1010Y571D02*
X1013Y571D01*
X1096Y571D02*
X1099Y571D01*
X1285Y571D02*
X1288Y571D01*
X1372Y571D02*
X1375Y571D01*
X1561Y571D02*
X1564Y571D01*
X1648Y571D02*
X1650Y571D01*
X1836Y571D02*
X1839Y571D01*
X1923Y571D02*
X1926Y571D01*
X2026Y571D02*
X2029Y571D01*
X2112Y571D02*
X2115Y571D01*
X183Y570D02*
X186Y570D01*
X270Y570D02*
X273Y570D01*
X459Y570D02*
X462Y570D01*
X545Y570D02*
X548Y570D01*
X734Y570D02*
X737Y570D01*
X821Y570D02*
X824Y570D01*
X1010Y570D02*
X1013Y570D01*
X1096Y570D02*
X1099Y570D01*
X1285Y570D02*
X1288Y570D01*
X1372Y570D02*
X1375Y570D01*
X1561Y570D02*
X1564Y570D01*
X1648Y570D02*
X1650Y570D01*
X1836Y570D02*
X1839Y570D01*
X1923Y570D02*
X1926Y570D01*
X2026Y570D02*
X2029Y570D01*
X2112Y570D02*
X2115Y570D01*
X183Y569D02*
X186Y569D01*
X270Y569D02*
X273Y569D01*
X459Y569D02*
X462Y569D01*
X545Y569D02*
X548Y569D01*
X734Y569D02*
X737Y569D01*
X821Y569D02*
X824Y569D01*
X1010Y569D02*
X1013Y569D01*
X1096Y569D02*
X1099Y569D01*
X1285Y569D02*
X1288Y569D01*
X1372Y569D02*
X1375Y569D01*
X1561Y569D02*
X1564Y569D01*
X1648Y569D02*
X1650Y569D01*
X1836Y569D02*
X1839Y569D01*
X1923Y569D02*
X1926Y569D01*
X2026Y569D02*
X2029Y569D01*
X2112Y569D02*
X2115Y569D01*
X183Y568D02*
X186Y568D01*
X270Y568D02*
X273Y568D01*
X459Y568D02*
X462Y568D01*
X545Y568D02*
X548Y568D01*
X734Y568D02*
X737Y568D01*
X821Y568D02*
X824Y568D01*
X1010Y568D02*
X1013Y568D01*
X1096Y568D02*
X1099Y568D01*
X1285Y568D02*
X1288Y568D01*
X1372Y568D02*
X1375Y568D01*
X1561Y568D02*
X1564Y568D01*
X1648Y568D02*
X1650Y568D01*
X1836Y568D02*
X1839Y568D01*
X1923Y568D02*
X1926Y568D01*
X2026Y568D02*
X2029Y568D01*
X2112Y568D02*
X2115Y568D01*
X183Y567D02*
X186Y567D01*
X270Y567D02*
X273Y567D01*
X459Y567D02*
X462Y567D01*
X545Y567D02*
X548Y567D01*
X734Y567D02*
X737Y567D01*
X821Y567D02*
X824Y567D01*
X1010Y567D02*
X1013Y567D01*
X1096Y567D02*
X1099Y567D01*
X1285Y567D02*
X1288Y567D01*
X1372Y567D02*
X1375Y567D01*
X1561Y567D02*
X1564Y567D01*
X1648Y567D02*
X1650Y567D01*
X1836Y567D02*
X1839Y567D01*
X1923Y567D02*
X1926Y567D01*
X2026Y567D02*
X2029Y567D01*
X2112Y567D02*
X2115Y567D01*
X183Y566D02*
X186Y566D01*
X270Y566D02*
X273Y566D01*
X459Y566D02*
X462Y566D01*
X545Y566D02*
X548Y566D01*
X734Y566D02*
X737Y566D01*
X821Y566D02*
X824Y566D01*
X1010Y566D02*
X1013Y566D01*
X1096Y566D02*
X1099Y566D01*
X1285Y566D02*
X1288Y566D01*
X1372Y566D02*
X1375Y566D01*
X1561Y566D02*
X1564Y566D01*
X1648Y566D02*
X1650Y566D01*
X1836Y566D02*
X1839Y566D01*
X1923Y566D02*
X1926Y566D01*
X2026Y566D02*
X2029Y566D01*
X2112Y566D02*
X2115Y566D01*
X183Y565D02*
X186Y565D01*
X270Y565D02*
X273Y565D01*
X459Y565D02*
X462Y565D01*
X545Y565D02*
X548Y565D01*
X734Y565D02*
X737Y565D01*
X821Y565D02*
X824Y565D01*
X1010Y565D02*
X1013Y565D01*
X1096Y565D02*
X1099Y565D01*
X1285Y565D02*
X1288Y565D01*
X1372Y565D02*
X1375Y565D01*
X1561Y565D02*
X1564Y565D01*
X1648Y565D02*
X1650Y565D01*
X1836Y565D02*
X1839Y565D01*
X1923Y565D02*
X1926Y565D01*
X2026Y565D02*
X2029Y565D01*
X2112Y565D02*
X2115Y565D01*
X183Y564D02*
X186Y564D01*
X270Y564D02*
X273Y564D01*
X459Y564D02*
X462Y564D01*
X545Y564D02*
X548Y564D01*
X734Y564D02*
X737Y564D01*
X821Y564D02*
X824Y564D01*
X1010Y564D02*
X1013Y564D01*
X1096Y564D02*
X1099Y564D01*
X1285Y564D02*
X1288Y564D01*
X1372Y564D02*
X1375Y564D01*
X1561Y564D02*
X1564Y564D01*
X1648Y564D02*
X1650Y564D01*
X1836Y564D02*
X1839Y564D01*
X1923Y564D02*
X1926Y564D01*
X2026Y564D02*
X2029Y564D01*
X2112Y564D02*
X2115Y564D01*
X183Y563D02*
X186Y563D01*
X270Y563D02*
X273Y563D01*
X459Y563D02*
X462Y563D01*
X545Y563D02*
X548Y563D01*
X734Y563D02*
X737Y563D01*
X821Y563D02*
X824Y563D01*
X1010Y563D02*
X1013Y563D01*
X1096Y563D02*
X1099Y563D01*
X1285Y563D02*
X1288Y563D01*
X1372Y563D02*
X1375Y563D01*
X1561Y563D02*
X1564Y563D01*
X1648Y563D02*
X1650Y563D01*
X1836Y563D02*
X1839Y563D01*
X1923Y563D02*
X1926Y563D01*
X2026Y563D02*
X2029Y563D01*
X2112Y563D02*
X2115Y563D01*
X183Y562D02*
X186Y562D01*
X270Y562D02*
X273Y562D01*
X459Y562D02*
X462Y562D01*
X545Y562D02*
X548Y562D01*
X734Y562D02*
X737Y562D01*
X821Y562D02*
X824Y562D01*
X1010Y562D02*
X1013Y562D01*
X1096Y562D02*
X1099Y562D01*
X1285Y562D02*
X1288Y562D01*
X1372Y562D02*
X1375Y562D01*
X1561Y562D02*
X1564Y562D01*
X1648Y562D02*
X1650Y562D01*
X1836Y562D02*
X1839Y562D01*
X1923Y562D02*
X1926Y562D01*
X2026Y562D02*
X2029Y562D01*
X2112Y562D02*
X2115Y562D01*
X183Y561D02*
X186Y561D01*
X270Y561D02*
X273Y561D01*
X459Y561D02*
X462Y561D01*
X545Y561D02*
X548Y561D01*
X734Y561D02*
X737Y561D01*
X821Y561D02*
X824Y561D01*
X1010Y561D02*
X1013Y561D01*
X1096Y561D02*
X1099Y561D01*
X1285Y561D02*
X1288Y561D01*
X1372Y561D02*
X1375Y561D01*
X1561Y561D02*
X1564Y561D01*
X1648Y561D02*
X1650Y561D01*
X1836Y561D02*
X1839Y561D01*
X1923Y561D02*
X1926Y561D01*
X2026Y561D02*
X2029Y561D01*
X2112Y561D02*
X2115Y561D01*
X183Y560D02*
X186Y560D01*
X270Y560D02*
X273Y560D01*
X459Y560D02*
X462Y560D01*
X545Y560D02*
X548Y560D01*
X734Y560D02*
X737Y560D01*
X821Y560D02*
X824Y560D01*
X1010Y560D02*
X1013Y560D01*
X1096Y560D02*
X1099Y560D01*
X1285Y560D02*
X1288Y560D01*
X1372Y560D02*
X1375Y560D01*
X1561Y560D02*
X1564Y560D01*
X1648Y560D02*
X1650Y560D01*
X1836Y560D02*
X1839Y560D01*
X1923Y560D02*
X1926Y560D01*
X2026Y560D02*
X2029Y560D01*
X2112Y560D02*
X2115Y560D01*
X183Y559D02*
X186Y559D01*
X270Y559D02*
X273Y559D01*
X459Y559D02*
X462Y559D01*
X545Y559D02*
X548Y559D01*
X734Y559D02*
X737Y559D01*
X821Y559D02*
X824Y559D01*
X1010Y559D02*
X1013Y559D01*
X1096Y559D02*
X1099Y559D01*
X1285Y559D02*
X1288Y559D01*
X1372Y559D02*
X1375Y559D01*
X1561Y559D02*
X1564Y559D01*
X1648Y559D02*
X1650Y559D01*
X1836Y559D02*
X1839Y559D01*
X1923Y559D02*
X1926Y559D01*
X2026Y559D02*
X2029Y559D01*
X2112Y559D02*
X2115Y559D01*
X183Y558D02*
X186Y558D01*
X270Y558D02*
X273Y558D01*
X459Y558D02*
X462Y558D01*
X545Y558D02*
X548Y558D01*
X734Y558D02*
X737Y558D01*
X821Y558D02*
X824Y558D01*
X1010Y558D02*
X1013Y558D01*
X1096Y558D02*
X1099Y558D01*
X1285Y558D02*
X1288Y558D01*
X1372Y558D02*
X1375Y558D01*
X1561Y558D02*
X1564Y558D01*
X1648Y558D02*
X1650Y558D01*
X1836Y558D02*
X1839Y558D01*
X1923Y558D02*
X1926Y558D01*
X2026Y558D02*
X2029Y558D01*
X2112Y558D02*
X2115Y558D01*
X183Y557D02*
X186Y557D01*
X270Y557D02*
X273Y557D01*
X459Y557D02*
X462Y557D01*
X545Y557D02*
X548Y557D01*
X734Y557D02*
X737Y557D01*
X821Y557D02*
X824Y557D01*
X1010Y557D02*
X1013Y557D01*
X1096Y557D02*
X1099Y557D01*
X1285Y557D02*
X1288Y557D01*
X1372Y557D02*
X1375Y557D01*
X1561Y557D02*
X1564Y557D01*
X1648Y557D02*
X1650Y557D01*
X1836Y557D02*
X1839Y557D01*
X1923Y557D02*
X1926Y557D01*
X2026Y557D02*
X2029Y557D01*
X2112Y557D02*
X2115Y557D01*
X183Y556D02*
X186Y556D01*
X270Y556D02*
X273Y556D01*
X459Y556D02*
X462Y556D01*
X545Y556D02*
X548Y556D01*
X734Y556D02*
X737Y556D01*
X821Y556D02*
X824Y556D01*
X1010Y556D02*
X1013Y556D01*
X1096Y556D02*
X1099Y556D01*
X1285Y556D02*
X1288Y556D01*
X1372Y556D02*
X1375Y556D01*
X1561Y556D02*
X1564Y556D01*
X1648Y556D02*
X1650Y556D01*
X1836Y556D02*
X1839Y556D01*
X1923Y556D02*
X1926Y556D01*
X2026Y556D02*
X2029Y556D01*
X2112Y556D02*
X2115Y556D01*
X183Y555D02*
X186Y555D01*
X270Y555D02*
X273Y555D01*
X459Y555D02*
X462Y555D01*
X545Y555D02*
X548Y555D01*
X734Y555D02*
X737Y555D01*
X821Y555D02*
X824Y555D01*
X1010Y555D02*
X1013Y555D01*
X1096Y555D02*
X1099Y555D01*
X1285Y555D02*
X1288Y555D01*
X1372Y555D02*
X1375Y555D01*
X1561Y555D02*
X1564Y555D01*
X1648Y555D02*
X1650Y555D01*
X1836Y555D02*
X1839Y555D01*
X1923Y555D02*
X1926Y555D01*
X2026Y555D02*
X2029Y555D01*
X2112Y555D02*
X2115Y555D01*
X183Y554D02*
X186Y554D01*
X270Y554D02*
X273Y554D01*
X459Y554D02*
X462Y554D01*
X545Y554D02*
X548Y554D01*
X734Y554D02*
X737Y554D01*
X821Y554D02*
X824Y554D01*
X1010Y554D02*
X1013Y554D01*
X1096Y554D02*
X1099Y554D01*
X1285Y554D02*
X1288Y554D01*
X1372Y554D02*
X1375Y554D01*
X1561Y554D02*
X1564Y554D01*
X1648Y554D02*
X1650Y554D01*
X1836Y554D02*
X1839Y554D01*
X1923Y554D02*
X1926Y554D01*
X2026Y554D02*
X2029Y554D01*
X2112Y554D02*
X2115Y554D01*
X183Y553D02*
X186Y553D01*
X270Y553D02*
X273Y553D01*
X459Y553D02*
X462Y553D01*
X545Y553D02*
X548Y553D01*
X734Y553D02*
X737Y553D01*
X821Y553D02*
X824Y553D01*
X1010Y553D02*
X1013Y553D01*
X1096Y553D02*
X1099Y553D01*
X1285Y553D02*
X1288Y553D01*
X1372Y553D02*
X1375Y553D01*
X1561Y553D02*
X1564Y553D01*
X1648Y553D02*
X1650Y553D01*
X1836Y553D02*
X1839Y553D01*
X1923Y553D02*
X1926Y553D01*
X2026Y553D02*
X2029Y553D01*
X2112Y553D02*
X2115Y553D01*
X183Y552D02*
X186Y552D01*
X270Y552D02*
X273Y552D01*
X459Y552D02*
X462Y552D01*
X545Y552D02*
X548Y552D01*
X734Y552D02*
X737Y552D01*
X821Y552D02*
X824Y552D01*
X1010Y552D02*
X1013Y552D01*
X1096Y552D02*
X1099Y552D01*
X1285Y552D02*
X1288Y552D01*
X1372Y552D02*
X1375Y552D01*
X1561Y552D02*
X1564Y552D01*
X1648Y552D02*
X1650Y552D01*
X1836Y552D02*
X1839Y552D01*
X1923Y552D02*
X1926Y552D01*
X2026Y552D02*
X2029Y552D01*
X2112Y552D02*
X2115Y552D01*
X183Y551D02*
X186Y551D01*
X270Y551D02*
X273Y551D01*
X459Y551D02*
X462Y551D01*
X545Y551D02*
X548Y551D01*
X734Y551D02*
X737Y551D01*
X821Y551D02*
X824Y551D01*
X1010Y551D02*
X1013Y551D01*
X1096Y551D02*
X1099Y551D01*
X1285Y551D02*
X1288Y551D01*
X1372Y551D02*
X1375Y551D01*
X1561Y551D02*
X1564Y551D01*
X1648Y551D02*
X1650Y551D01*
X1836Y551D02*
X1839Y551D01*
X1923Y551D02*
X1926Y551D01*
X2026Y551D02*
X2029Y551D01*
X2112Y551D02*
X2115Y551D01*
X183Y550D02*
X186Y550D01*
X270Y550D02*
X273Y550D01*
X459Y550D02*
X462Y550D01*
X545Y550D02*
X548Y550D01*
X734Y550D02*
X737Y550D01*
X821Y550D02*
X824Y550D01*
X1010Y550D02*
X1013Y550D01*
X1096Y550D02*
X1099Y550D01*
X1285Y550D02*
X1288Y550D01*
X1372Y550D02*
X1375Y550D01*
X1561Y550D02*
X1564Y550D01*
X1648Y550D02*
X1650Y550D01*
X1836Y550D02*
X1839Y550D01*
X1923Y550D02*
X1926Y550D01*
X2026Y550D02*
X2029Y550D01*
X2112Y550D02*
X2115Y550D01*
X183Y549D02*
X186Y549D01*
X270Y549D02*
X273Y549D01*
X459Y549D02*
X462Y549D01*
X545Y549D02*
X548Y549D01*
X734Y549D02*
X737Y549D01*
X821Y549D02*
X824Y549D01*
X1010Y549D02*
X1013Y549D01*
X1096Y549D02*
X1099Y549D01*
X1285Y549D02*
X1288Y549D01*
X1372Y549D02*
X1375Y549D01*
X1561Y549D02*
X1564Y549D01*
X1648Y549D02*
X1650Y549D01*
X1836Y549D02*
X1839Y549D01*
X1923Y549D02*
X1926Y549D01*
X2026Y549D02*
X2029Y549D01*
X2112Y549D02*
X2115Y549D01*
X183Y548D02*
X186Y548D01*
X270Y548D02*
X273Y548D01*
X459Y548D02*
X462Y548D01*
X545Y548D02*
X548Y548D01*
X734Y548D02*
X737Y548D01*
X821Y548D02*
X824Y548D01*
X1010Y548D02*
X1013Y548D01*
X1096Y548D02*
X1099Y548D01*
X1285Y548D02*
X1288Y548D01*
X1372Y548D02*
X1375Y548D01*
X1561Y548D02*
X1564Y548D01*
X1648Y548D02*
X1650Y548D01*
X1836Y548D02*
X1839Y548D01*
X1923Y548D02*
X1926Y548D01*
X2026Y548D02*
X2029Y548D01*
X2112Y548D02*
X2115Y548D01*
X183Y547D02*
X186Y547D01*
X270Y547D02*
X273Y547D01*
X459Y547D02*
X462Y547D01*
X545Y547D02*
X548Y547D01*
X734Y547D02*
X737Y547D01*
X821Y547D02*
X824Y547D01*
X1010Y547D02*
X1013Y547D01*
X1096Y547D02*
X1099Y547D01*
X1285Y547D02*
X1288Y547D01*
X1372Y547D02*
X1375Y547D01*
X1561Y547D02*
X1564Y547D01*
X1648Y547D02*
X1650Y547D01*
X1836Y547D02*
X1839Y547D01*
X1923Y547D02*
X1926Y547D01*
X2026Y547D02*
X2029Y547D01*
X2112Y547D02*
X2115Y547D01*
X183Y546D02*
X186Y546D01*
X270Y546D02*
X273Y546D01*
X459Y546D02*
X462Y546D01*
X545Y546D02*
X548Y546D01*
X734Y546D02*
X737Y546D01*
X821Y546D02*
X824Y546D01*
X1010Y546D02*
X1013Y546D01*
X1096Y546D02*
X1099Y546D01*
X1285Y546D02*
X1288Y546D01*
X1372Y546D02*
X1375Y546D01*
X1561Y546D02*
X1564Y546D01*
X1648Y546D02*
X1650Y546D01*
X1836Y546D02*
X1839Y546D01*
X1923Y546D02*
X1926Y546D01*
X2026Y546D02*
X2029Y546D01*
X2112Y546D02*
X2115Y546D01*
X183Y545D02*
X186Y545D01*
X270Y545D02*
X273Y545D01*
X459Y545D02*
X462Y545D01*
X545Y545D02*
X548Y545D01*
X734Y545D02*
X737Y545D01*
X821Y545D02*
X824Y545D01*
X1010Y545D02*
X1013Y545D01*
X1096Y545D02*
X1099Y545D01*
X1285Y545D02*
X1288Y545D01*
X1372Y545D02*
X1375Y545D01*
X1561Y545D02*
X1564Y545D01*
X1648Y545D02*
X1650Y545D01*
X1836Y545D02*
X1839Y545D01*
X1923Y545D02*
X1926Y545D01*
X2026Y545D02*
X2029Y545D01*
X2112Y545D02*
X2115Y545D01*
X183Y544D02*
X186Y544D01*
X270Y544D02*
X273Y544D01*
X459Y544D02*
X462Y544D01*
X545Y544D02*
X548Y544D01*
X734Y544D02*
X737Y544D01*
X821Y544D02*
X824Y544D01*
X1010Y544D02*
X1013Y544D01*
X1096Y544D02*
X1099Y544D01*
X1285Y544D02*
X1288Y544D01*
X1372Y544D02*
X1375Y544D01*
X1561Y544D02*
X1564Y544D01*
X1648Y544D02*
X1650Y544D01*
X1836Y544D02*
X1839Y544D01*
X1923Y544D02*
X1926Y544D01*
X2026Y544D02*
X2029Y544D01*
X2112Y544D02*
X2115Y544D01*
X183Y543D02*
X186Y543D01*
X270Y543D02*
X273Y543D01*
X459Y543D02*
X462Y543D01*
X545Y543D02*
X548Y543D01*
X734Y543D02*
X737Y543D01*
X821Y543D02*
X824Y543D01*
X1010Y543D02*
X1013Y543D01*
X1096Y543D02*
X1099Y543D01*
X1285Y543D02*
X1288Y543D01*
X1372Y543D02*
X1375Y543D01*
X1561Y543D02*
X1564Y543D01*
X1648Y543D02*
X1650Y543D01*
X1836Y543D02*
X1839Y543D01*
X1923Y543D02*
X1926Y543D01*
X2026Y543D02*
X2029Y543D01*
X2112Y543D02*
X2115Y543D01*
X183Y542D02*
X186Y542D01*
X270Y542D02*
X273Y542D01*
X459Y542D02*
X462Y542D01*
X545Y542D02*
X548Y542D01*
X734Y542D02*
X737Y542D01*
X821Y542D02*
X824Y542D01*
X1010Y542D02*
X1013Y542D01*
X1096Y542D02*
X1099Y542D01*
X1285Y542D02*
X1288Y542D01*
X1372Y542D02*
X1375Y542D01*
X1561Y542D02*
X1564Y542D01*
X1648Y542D02*
X1650Y542D01*
X1836Y542D02*
X1839Y542D01*
X1923Y542D02*
X1926Y542D01*
X2026Y542D02*
X2029Y542D01*
X2112Y542D02*
X2115Y542D01*
X183Y541D02*
X186Y541D01*
X270Y541D02*
X273Y541D01*
X459Y541D02*
X462Y541D01*
X545Y541D02*
X548Y541D01*
X734Y541D02*
X737Y541D01*
X821Y541D02*
X824Y541D01*
X1010Y541D02*
X1013Y541D01*
X1096Y541D02*
X1099Y541D01*
X1285Y541D02*
X1288Y541D01*
X1372Y541D02*
X1375Y541D01*
X1561Y541D02*
X1564Y541D01*
X1648Y541D02*
X1650Y541D01*
X1836Y541D02*
X1839Y541D01*
X1923Y541D02*
X1926Y541D01*
X2026Y541D02*
X2029Y541D01*
X2112Y541D02*
X2115Y541D01*
X183Y540D02*
X186Y540D01*
X270Y540D02*
X273Y540D01*
X459Y540D02*
X462Y540D01*
X545Y540D02*
X548Y540D01*
X734Y540D02*
X737Y540D01*
X821Y540D02*
X824Y540D01*
X1010Y540D02*
X1013Y540D01*
X1096Y540D02*
X1099Y540D01*
X1285Y540D02*
X1288Y540D01*
X1372Y540D02*
X1375Y540D01*
X1561Y540D02*
X1564Y540D01*
X1648Y540D02*
X1650Y540D01*
X1836Y540D02*
X1839Y540D01*
X1923Y540D02*
X1926Y540D01*
X2026Y540D02*
X2029Y540D01*
X2112Y540D02*
X2115Y540D01*
X183Y539D02*
X186Y539D01*
X270Y539D02*
X273Y539D01*
X459Y539D02*
X462Y539D01*
X545Y539D02*
X548Y539D01*
X734Y539D02*
X737Y539D01*
X821Y539D02*
X824Y539D01*
X1010Y539D02*
X1013Y539D01*
X1096Y539D02*
X1099Y539D01*
X1285Y539D02*
X1288Y539D01*
X1372Y539D02*
X1375Y539D01*
X1561Y539D02*
X1564Y539D01*
X1648Y539D02*
X1650Y539D01*
X1836Y539D02*
X1839Y539D01*
X1923Y539D02*
X1926Y539D01*
X2026Y539D02*
X2029Y539D01*
X2112Y539D02*
X2115Y539D01*
X183Y538D02*
X186Y538D01*
X270Y538D02*
X273Y538D01*
X459Y538D02*
X462Y538D01*
X545Y538D02*
X548Y538D01*
X734Y538D02*
X737Y538D01*
X821Y538D02*
X824Y538D01*
X1010Y538D02*
X1013Y538D01*
X1096Y538D02*
X1099Y538D01*
X1285Y538D02*
X1288Y538D01*
X1372Y538D02*
X1375Y538D01*
X1561Y538D02*
X1564Y538D01*
X1648Y538D02*
X1650Y538D01*
X1836Y538D02*
X1839Y538D01*
X1923Y538D02*
X1926Y538D01*
X2026Y538D02*
X2029Y538D01*
X2112Y538D02*
X2115Y538D01*
X183Y537D02*
X186Y537D01*
X270Y537D02*
X273Y537D01*
X459Y537D02*
X462Y537D01*
X545Y537D02*
X548Y537D01*
X734Y537D02*
X737Y537D01*
X821Y537D02*
X824Y537D01*
X1010Y537D02*
X1013Y537D01*
X1096Y537D02*
X1099Y537D01*
X1285Y537D02*
X1288Y537D01*
X1372Y537D02*
X1375Y537D01*
X1561Y537D02*
X1564Y537D01*
X1648Y537D02*
X1650Y537D01*
X1836Y537D02*
X1839Y537D01*
X1923Y537D02*
X1926Y537D01*
X2026Y537D02*
X2029Y537D01*
X2112Y537D02*
X2115Y537D01*
X183Y536D02*
X186Y536D01*
X270Y536D02*
X273Y536D01*
X459Y536D02*
X461Y536D01*
X546Y536D02*
X548Y536D01*
X734Y536D02*
X736Y536D01*
X822Y536D02*
X824Y536D01*
X1010Y536D02*
X1012Y536D01*
X1097Y536D02*
X1099Y536D01*
X1285Y536D02*
X1288Y536D01*
X1372Y536D02*
X1375Y536D01*
X1561Y536D02*
X1564Y536D01*
X1648Y536D02*
X1650Y536D01*
X1836Y536D02*
X1839Y536D01*
X1923Y536D02*
X1926Y536D01*
X2026Y536D02*
X2029Y536D01*
X2112Y536D02*
X2115Y536D01*
X183Y535D02*
X186Y535D01*
X270Y535D02*
X273Y535D01*
X459Y535D02*
X461Y535D01*
X546Y535D02*
X548Y535D01*
X734Y535D02*
X736Y535D01*
X822Y535D02*
X824Y535D01*
X1010Y535D02*
X1012Y535D01*
X1097Y535D02*
X1099Y535D01*
X1285Y535D02*
X1288Y535D01*
X1372Y535D02*
X1375Y535D01*
X1561Y535D02*
X1564Y535D01*
X1648Y535D02*
X1650Y535D01*
X1836Y535D02*
X1839Y535D01*
X1923Y535D02*
X1926Y535D01*
X2026Y535D02*
X2029Y535D01*
X2112Y535D02*
X2115Y535D01*
X183Y534D02*
X186Y534D01*
X270Y534D02*
X273Y534D01*
X459Y534D02*
X461Y534D01*
X546Y534D02*
X548Y534D01*
X734Y534D02*
X736Y534D01*
X822Y534D02*
X824Y534D01*
X1010Y534D02*
X1012Y534D01*
X1097Y534D02*
X1099Y534D01*
X1285Y534D02*
X1288Y534D01*
X1372Y534D02*
X1375Y534D01*
X1561Y534D02*
X1564Y534D01*
X1648Y534D02*
X1650Y534D01*
X1836Y534D02*
X1839Y534D01*
X1923Y534D02*
X1926Y534D01*
X2026Y534D02*
X2029Y534D01*
X2112Y534D02*
X2115Y534D01*
X183Y533D02*
X186Y533D01*
X270Y533D02*
X273Y533D01*
X459Y533D02*
X461Y533D01*
X546Y533D02*
X548Y533D01*
X734Y533D02*
X736Y533D01*
X822Y533D02*
X824Y533D01*
X1010Y533D02*
X1012Y533D01*
X1097Y533D02*
X1099Y533D01*
X1285Y533D02*
X1288Y533D01*
X1372Y533D02*
X1375Y533D01*
X1561Y533D02*
X1564Y533D01*
X1648Y533D02*
X1650Y533D01*
X1836Y533D02*
X1839Y533D01*
X1923Y533D02*
X1926Y533D01*
X2026Y533D02*
X2029Y533D01*
X2112Y533D02*
X2115Y533D01*
X183Y532D02*
X185Y532D01*
X271Y532D02*
X273Y532D01*
X459Y532D02*
X461Y532D01*
X546Y532D02*
X548Y532D01*
X734Y532D02*
X736Y532D01*
X822Y532D02*
X824Y532D01*
X1010Y532D02*
X1012Y532D01*
X1097Y532D02*
X1099Y532D01*
X1285Y532D02*
X1287Y532D01*
X1373Y532D02*
X1375Y532D01*
X1561Y532D02*
X1563Y532D01*
X1648Y532D02*
X1650Y532D01*
X1836Y532D02*
X1839Y532D01*
X1924Y532D02*
X1926Y532D01*
X2026Y532D02*
X2028Y532D01*
X2113Y532D02*
X2115Y532D01*
X183Y531D02*
X185Y531D01*
X271Y531D02*
X273Y531D01*
X459Y531D02*
X461Y531D01*
X546Y531D02*
X548Y531D01*
X734Y531D02*
X736Y531D01*
X822Y531D02*
X824Y531D01*
X1010Y531D02*
X1012Y531D01*
X1097Y531D02*
X1099Y531D01*
X1285Y531D02*
X1287Y531D01*
X1373Y531D02*
X1375Y531D01*
X1561Y531D02*
X1563Y531D01*
X1649Y531D02*
X1650Y531D01*
X1836Y531D02*
X1838Y531D01*
X1924Y531D02*
X1926Y531D01*
X2026Y531D02*
X2028Y531D01*
X2113Y531D02*
X2115Y531D01*
X183Y530D02*
X185Y530D01*
X271Y530D02*
X273Y530D01*
X459Y530D02*
X461Y530D01*
X546Y530D02*
X548Y530D01*
X734Y530D02*
X736Y530D01*
X822Y530D02*
X824Y530D01*
X1010Y530D02*
X1012Y530D01*
X1097Y530D02*
X1099Y530D01*
X1285Y530D02*
X1287Y530D01*
X1373Y530D02*
X1375Y530D01*
X1561Y530D02*
X1563Y530D01*
X1649Y530D02*
X1650Y530D01*
X1836Y530D02*
X1838Y530D01*
X1924Y530D02*
X1926Y530D01*
X2026Y530D02*
X2028Y530D01*
X2113Y530D02*
X2115Y530D01*
X183Y529D02*
X185Y529D01*
X271Y529D02*
X273Y529D01*
X459Y529D02*
X461Y529D01*
X546Y529D02*
X548Y529D01*
X734Y529D02*
X736Y529D01*
X822Y529D02*
X824Y529D01*
X1010Y529D02*
X1012Y529D01*
X1097Y529D02*
X1099Y529D01*
X1285Y529D02*
X1287Y529D01*
X1373Y529D02*
X1375Y529D01*
X1561Y529D02*
X1563Y529D01*
X1649Y529D02*
X1650Y529D01*
X1836Y529D02*
X1838Y529D01*
X1924Y529D02*
X1926Y529D01*
X2026Y529D02*
X2028Y529D01*
X2113Y529D02*
X2115Y529D01*
X183Y528D02*
X185Y528D01*
X271Y528D02*
X273Y528D01*
X459Y528D02*
X461Y528D01*
X546Y528D02*
X548Y528D01*
X734Y528D02*
X736Y528D01*
X822Y528D02*
X824Y528D01*
X1010Y528D02*
X1012Y528D01*
X1097Y528D02*
X1099Y528D01*
X1285Y528D02*
X1287Y528D01*
X1373Y528D02*
X1375Y528D01*
X1561Y528D02*
X1563Y528D01*
X1649Y528D02*
X1650Y528D01*
X1836Y528D02*
X1838Y528D01*
X1924Y528D02*
X1926Y528D01*
X2026Y528D02*
X2028Y528D01*
X2113Y528D02*
X2115Y528D01*
X183Y527D02*
X185Y527D01*
X271Y527D02*
X273Y527D01*
X459Y527D02*
X461Y527D01*
X546Y527D02*
X548Y527D01*
X734Y527D02*
X736Y527D01*
X822Y527D02*
X824Y527D01*
X1010Y527D02*
X1012Y527D01*
X1097Y527D02*
X1099Y527D01*
X1285Y527D02*
X1287Y527D01*
X1373Y527D02*
X1375Y527D01*
X1561Y527D02*
X1563Y527D01*
X1649Y527D02*
X1650Y527D01*
X1836Y527D02*
X1838Y527D01*
X1924Y527D02*
X1926Y527D01*
X2026Y527D02*
X2028Y527D01*
X2113Y527D02*
X2115Y527D01*
X183Y526D02*
X185Y526D01*
X271Y526D02*
X273Y526D01*
X459Y526D02*
X461Y526D01*
X546Y526D02*
X548Y526D01*
X734Y526D02*
X736Y526D01*
X822Y526D02*
X824Y526D01*
X1010Y526D02*
X1012Y526D01*
X1097Y526D02*
X1099Y526D01*
X1285Y526D02*
X1287Y526D01*
X1373Y526D02*
X1375Y526D01*
X1561Y526D02*
X1563Y526D01*
X1649Y526D02*
X1650Y526D01*
X1836Y526D02*
X1838Y526D01*
X1924Y526D02*
X1926Y526D01*
X2026Y526D02*
X2028Y526D01*
X2113Y526D02*
X2115Y526D01*
X183Y525D02*
X185Y525D01*
X271Y525D02*
X273Y525D01*
X459Y525D02*
X461Y525D01*
X546Y525D02*
X548Y525D01*
X734Y525D02*
X736Y525D01*
X822Y525D02*
X824Y525D01*
X1010Y525D02*
X1012Y525D01*
X1097Y525D02*
X1099Y525D01*
X1285Y525D02*
X1287Y525D01*
X1373Y525D02*
X1375Y525D01*
X1561Y525D02*
X1563Y525D01*
X1649Y525D02*
X1650Y525D01*
X1836Y525D02*
X1838Y525D01*
X1924Y525D02*
X1926Y525D01*
X2026Y525D02*
X2028Y525D01*
X2113Y525D02*
X2115Y525D01*
X183Y524D02*
X185Y524D01*
X271Y524D02*
X273Y524D01*
X459Y524D02*
X461Y524D01*
X546Y524D02*
X548Y524D01*
X734Y524D02*
X736Y524D01*
X822Y524D02*
X824Y524D01*
X1010Y524D02*
X1012Y524D01*
X1097Y524D02*
X1099Y524D01*
X1285Y524D02*
X1287Y524D01*
X1373Y524D02*
X1375Y524D01*
X1561Y524D02*
X1563Y524D01*
X1649Y524D02*
X1650Y524D01*
X1836Y524D02*
X1838Y524D01*
X1924Y524D02*
X1926Y524D01*
X2026Y524D02*
X2028Y524D01*
X2113Y524D02*
X2115Y524D01*
X183Y523D02*
X185Y523D01*
X271Y523D02*
X273Y523D01*
X459Y523D02*
X461Y523D01*
X546Y523D02*
X548Y523D01*
X734Y523D02*
X736Y523D01*
X822Y523D02*
X824Y523D01*
X1010Y523D02*
X1012Y523D01*
X1097Y523D02*
X1099Y523D01*
X1285Y523D02*
X1287Y523D01*
X1373Y523D02*
X1375Y523D01*
X1561Y523D02*
X1563Y523D01*
X1649Y523D02*
X1650Y523D01*
X1836Y523D02*
X1838Y523D01*
X1924Y523D02*
X1926Y523D01*
X2026Y523D02*
X2028Y523D01*
X2113Y523D02*
X2115Y523D01*
X183Y522D02*
X185Y522D01*
X271Y522D02*
X273Y522D01*
X459Y522D02*
X461Y522D01*
X546Y522D02*
X548Y522D01*
X734Y522D02*
X736Y522D01*
X822Y522D02*
X824Y522D01*
X1010Y522D02*
X1012Y522D01*
X1097Y522D02*
X1099Y522D01*
X1285Y522D02*
X1287Y522D01*
X1373Y522D02*
X1375Y522D01*
X1561Y522D02*
X1563Y522D01*
X1649Y522D02*
X1650Y522D01*
X1836Y522D02*
X1838Y522D01*
X1924Y522D02*
X1926Y522D01*
X2026Y522D02*
X2028Y522D01*
X2113Y522D02*
X2115Y522D01*
X183Y521D02*
X185Y521D01*
X271Y521D02*
X273Y521D01*
X459Y521D02*
X461Y521D01*
X546Y521D02*
X548Y521D01*
X734Y521D02*
X736Y521D01*
X822Y521D02*
X824Y521D01*
X1010Y521D02*
X1012Y521D01*
X1097Y521D02*
X1099Y521D01*
X1285Y521D02*
X1287Y521D01*
X1373Y521D02*
X1375Y521D01*
X1561Y521D02*
X1563Y521D01*
X1649Y521D02*
X1650Y521D01*
X1836Y521D02*
X1838Y521D01*
X1924Y521D02*
X1926Y521D01*
X2026Y521D02*
X2028Y521D01*
X2113Y521D02*
X2115Y521D01*
X183Y520D02*
X185Y520D01*
X271Y520D02*
X273Y520D01*
X459Y520D02*
X461Y520D01*
X546Y520D02*
X548Y520D01*
X734Y520D02*
X736Y520D01*
X822Y520D02*
X824Y520D01*
X1010Y520D02*
X1012Y520D01*
X1097Y520D02*
X1099Y520D01*
X1285Y520D02*
X1287Y520D01*
X1373Y520D02*
X1375Y520D01*
X1561Y520D02*
X1563Y520D01*
X1649Y520D02*
X1650Y520D01*
X1836Y520D02*
X1838Y520D01*
X1924Y520D02*
X1926Y520D01*
X2026Y520D02*
X2028Y520D01*
X2113Y520D02*
X2115Y520D01*
X183Y519D02*
X185Y519D01*
X271Y519D02*
X273Y519D01*
X459Y519D02*
X461Y519D01*
X546Y519D02*
X548Y519D01*
X734Y519D02*
X736Y519D01*
X822Y519D02*
X824Y519D01*
X1010Y519D02*
X1012Y519D01*
X1097Y519D02*
X1099Y519D01*
X1285Y519D02*
X1287Y519D01*
X1373Y519D02*
X1375Y519D01*
X1561Y519D02*
X1563Y519D01*
X1649Y519D02*
X1650Y519D01*
X1836Y519D02*
X1838Y519D01*
X1924Y519D02*
X1926Y519D01*
X2026Y519D02*
X2028Y519D01*
X2113Y519D02*
X2115Y519D01*
X183Y518D02*
X185Y518D01*
X271Y518D02*
X273Y518D01*
X459Y518D02*
X461Y518D01*
X546Y518D02*
X548Y518D01*
X734Y518D02*
X736Y518D01*
X822Y518D02*
X824Y518D01*
X1010Y518D02*
X1012Y518D01*
X1097Y518D02*
X1099Y518D01*
X1285Y518D02*
X1287Y518D01*
X1373Y518D02*
X1375Y518D01*
X1561Y518D02*
X1563Y518D01*
X1649Y518D02*
X1650Y518D01*
X1836Y518D02*
X1838Y518D01*
X1924Y518D02*
X1926Y518D01*
X2026Y518D02*
X2028Y518D01*
X2113Y518D02*
X2115Y518D01*
X183Y517D02*
X185Y517D01*
X271Y517D02*
X273Y517D01*
X459Y517D02*
X461Y517D01*
X546Y517D02*
X548Y517D01*
X734Y517D02*
X736Y517D01*
X822Y517D02*
X824Y517D01*
X1010Y517D02*
X1012Y517D01*
X1097Y517D02*
X1099Y517D01*
X1285Y517D02*
X1287Y517D01*
X1373Y517D02*
X1375Y517D01*
X1561Y517D02*
X1563Y517D01*
X1649Y517D02*
X1650Y517D01*
X1836Y517D02*
X1838Y517D01*
X1924Y517D02*
X1926Y517D01*
X2026Y517D02*
X2028Y517D01*
X2113Y517D02*
X2115Y517D01*
X183Y516D02*
X185Y516D01*
X271Y516D02*
X273Y516D01*
X459Y516D02*
X461Y516D01*
X546Y516D02*
X548Y516D01*
X734Y516D02*
X736Y516D01*
X822Y516D02*
X824Y516D01*
X1010Y516D02*
X1012Y516D01*
X1097Y516D02*
X1099Y516D01*
X1285Y516D02*
X1287Y516D01*
X1373Y516D02*
X1375Y516D01*
X1561Y516D02*
X1563Y516D01*
X1649Y516D02*
X1650Y516D01*
X1836Y516D02*
X1838Y516D01*
X1924Y516D02*
X1926Y516D01*
X2026Y516D02*
X2028Y516D01*
X2113Y516D02*
X2115Y516D01*
X183Y515D02*
X185Y515D01*
X271Y515D02*
X273Y515D01*
X459Y515D02*
X461Y515D01*
X546Y515D02*
X548Y515D01*
X734Y515D02*
X736Y515D01*
X822Y515D02*
X824Y515D01*
X1010Y515D02*
X1012Y515D01*
X1097Y515D02*
X1099Y515D01*
X1285Y515D02*
X1287Y515D01*
X1373Y515D02*
X1375Y515D01*
X1561Y515D02*
X1563Y515D01*
X1649Y515D02*
X1650Y515D01*
X1836Y515D02*
X1838Y515D01*
X1924Y515D02*
X1926Y515D01*
X2026Y515D02*
X2028Y515D01*
X2113Y515D02*
X2115Y515D01*
X183Y514D02*
X185Y514D01*
X271Y514D02*
X273Y514D01*
X459Y514D02*
X461Y514D01*
X546Y514D02*
X548Y514D01*
X734Y514D02*
X736Y514D01*
X822Y514D02*
X824Y514D01*
X1010Y514D02*
X1012Y514D01*
X1097Y514D02*
X1099Y514D01*
X1285Y514D02*
X1287Y514D01*
X1373Y514D02*
X1375Y514D01*
X1561Y514D02*
X1563Y514D01*
X1649Y514D02*
X1650Y514D01*
X1836Y514D02*
X1838Y514D01*
X1924Y514D02*
X1926Y514D01*
X2026Y514D02*
X2028Y514D01*
X2113Y514D02*
X2115Y514D01*
X183Y513D02*
X185Y513D01*
X271Y513D02*
X273Y513D01*
X459Y513D02*
X461Y513D01*
X546Y513D02*
X548Y513D01*
X734Y513D02*
X736Y513D01*
X822Y513D02*
X824Y513D01*
X1010Y513D02*
X1012Y513D01*
X1097Y513D02*
X1099Y513D01*
X1285Y513D02*
X1287Y513D01*
X1373Y513D02*
X1375Y513D01*
X1561Y513D02*
X1563Y513D01*
X1649Y513D02*
X1650Y513D01*
X1836Y513D02*
X1838Y513D01*
X1924Y513D02*
X1926Y513D01*
X2026Y513D02*
X2028Y513D01*
X2113Y513D02*
X2115Y513D01*
X183Y512D02*
X185Y512D01*
X271Y512D02*
X273Y512D01*
X459Y512D02*
X461Y512D01*
X546Y512D02*
X548Y512D01*
X734Y512D02*
X736Y512D01*
X822Y512D02*
X824Y512D01*
X1010Y512D02*
X1012Y512D01*
X1097Y512D02*
X1099Y512D01*
X1285Y512D02*
X1287Y512D01*
X1373Y512D02*
X1375Y512D01*
X1561Y512D02*
X1563Y512D01*
X1649Y512D02*
X1650Y512D01*
X1836Y512D02*
X1838Y512D01*
X1924Y512D02*
X1926Y512D01*
X2026Y512D02*
X2028Y512D01*
X2113Y512D02*
X2115Y512D01*
X183Y511D02*
X185Y511D01*
X271Y511D02*
X273Y511D01*
X459Y511D02*
X461Y511D01*
X546Y511D02*
X548Y511D01*
X734Y511D02*
X736Y511D01*
X822Y511D02*
X824Y511D01*
X1010Y511D02*
X1012Y511D01*
X1097Y511D02*
X1099Y511D01*
X1285Y511D02*
X1287Y511D01*
X1373Y511D02*
X1375Y511D01*
X1561Y511D02*
X1563Y511D01*
X1649Y511D02*
X1650Y511D01*
X1836Y511D02*
X1838Y511D01*
X1924Y511D02*
X1926Y511D01*
X2026Y511D02*
X2028Y511D01*
X2113Y511D02*
X2115Y511D01*
X183Y510D02*
X185Y510D01*
X271Y510D02*
X273Y510D01*
X459Y510D02*
X461Y510D01*
X546Y510D02*
X548Y510D01*
X734Y510D02*
X736Y510D01*
X822Y510D02*
X824Y510D01*
X1010Y510D02*
X1012Y510D01*
X1097Y510D02*
X1099Y510D01*
X1285Y510D02*
X1287Y510D01*
X1373Y510D02*
X1375Y510D01*
X1561Y510D02*
X1563Y510D01*
X1649Y510D02*
X1650Y510D01*
X1836Y510D02*
X1838Y510D01*
X1924Y510D02*
X1926Y510D01*
X2026Y510D02*
X2028Y510D01*
X2113Y510D02*
X2115Y510D01*
X183Y509D02*
X185Y509D01*
X271Y509D02*
X273Y509D01*
X459Y509D02*
X461Y509D01*
X546Y509D02*
X548Y509D01*
X734Y509D02*
X736Y509D01*
X822Y509D02*
X824Y509D01*
X1010Y509D02*
X1012Y509D01*
X1097Y509D02*
X1099Y509D01*
X1285Y509D02*
X1287Y509D01*
X1373Y509D02*
X1375Y509D01*
X1561Y509D02*
X1563Y509D01*
X1649Y509D02*
X1650Y509D01*
X1836Y509D02*
X1838Y509D01*
X1924Y509D02*
X1926Y509D01*
X2026Y509D02*
X2028Y509D01*
X2113Y509D02*
X2115Y509D01*
X183Y508D02*
X185Y508D01*
X271Y508D02*
X273Y508D01*
X459Y508D02*
X461Y508D01*
X546Y508D02*
X548Y508D01*
X734Y508D02*
X736Y508D01*
X822Y508D02*
X824Y508D01*
X1010Y508D02*
X1012Y508D01*
X1097Y508D02*
X1099Y508D01*
X1285Y508D02*
X1287Y508D01*
X1373Y508D02*
X1375Y508D01*
X1561Y508D02*
X1563Y508D01*
X1649Y508D02*
X1650Y508D01*
X1836Y508D02*
X1838Y508D01*
X1924Y508D02*
X1926Y508D01*
X2026Y508D02*
X2028Y508D01*
X2113Y508D02*
X2115Y508D01*
X183Y507D02*
X185Y507D01*
X271Y507D02*
X273Y507D01*
X459Y507D02*
X461Y507D01*
X546Y507D02*
X548Y507D01*
X734Y507D02*
X736Y507D01*
X822Y507D02*
X824Y507D01*
X1010Y507D02*
X1012Y507D01*
X1097Y507D02*
X1099Y507D01*
X1285Y507D02*
X1287Y507D01*
X1373Y507D02*
X1375Y507D01*
X1561Y507D02*
X1563Y507D01*
X1649Y507D02*
X1650Y507D01*
X1836Y507D02*
X1838Y507D01*
X1924Y507D02*
X1926Y507D01*
X2026Y507D02*
X2028Y507D01*
X2113Y507D02*
X2115Y507D01*
X183Y506D02*
X185Y506D01*
X271Y506D02*
X273Y506D01*
X459Y506D02*
X461Y506D01*
X546Y506D02*
X548Y506D01*
X734Y506D02*
X736Y506D01*
X822Y506D02*
X824Y506D01*
X1010Y506D02*
X1012Y506D01*
X1097Y506D02*
X1099Y506D01*
X1285Y506D02*
X1287Y506D01*
X1373Y506D02*
X1375Y506D01*
X1561Y506D02*
X1563Y506D01*
X1649Y506D02*
X1650Y506D01*
X1836Y506D02*
X1838Y506D01*
X1924Y506D02*
X1926Y506D01*
X2026Y506D02*
X2028Y506D01*
X2113Y506D02*
X2115Y506D01*
X183Y505D02*
X185Y505D01*
X271Y505D02*
X273Y505D01*
X459Y505D02*
X461Y505D01*
X546Y505D02*
X548Y505D01*
X734Y505D02*
X736Y505D01*
X822Y505D02*
X824Y505D01*
X1010Y505D02*
X1012Y505D01*
X1097Y505D02*
X1099Y505D01*
X1285Y505D02*
X1287Y505D01*
X1373Y505D02*
X1375Y505D01*
X1561Y505D02*
X1563Y505D01*
X1649Y505D02*
X1650Y505D01*
X1836Y505D02*
X1838Y505D01*
X1924Y505D02*
X1926Y505D01*
X2026Y505D02*
X2028Y505D01*
X2113Y505D02*
X2115Y505D01*
X183Y504D02*
X185Y504D01*
X271Y504D02*
X273Y504D01*
X459Y504D02*
X461Y504D01*
X546Y504D02*
X548Y504D01*
X734Y504D02*
X736Y504D01*
X822Y504D02*
X824Y504D01*
X1010Y504D02*
X1012Y504D01*
X1097Y504D02*
X1099Y504D01*
X1285Y504D02*
X1287Y504D01*
X1373Y504D02*
X1375Y504D01*
X1561Y504D02*
X1563Y504D01*
X1649Y504D02*
X1650Y504D01*
X1836Y504D02*
X1838Y504D01*
X1924Y504D02*
X1926Y504D01*
X2026Y504D02*
X2028Y504D01*
X2113Y504D02*
X2115Y504D01*
X183Y503D02*
X185Y503D01*
X271Y503D02*
X273Y503D01*
X459Y503D02*
X461Y503D01*
X546Y503D02*
X548Y503D01*
X734Y503D02*
X736Y503D01*
X822Y503D02*
X824Y503D01*
X1010Y503D02*
X1012Y503D01*
X1097Y503D02*
X1099Y503D01*
X1285Y503D02*
X1287Y503D01*
X1373Y503D02*
X1375Y503D01*
X1561Y503D02*
X1563Y503D01*
X1649Y503D02*
X1650Y503D01*
X1836Y503D02*
X1838Y503D01*
X1924Y503D02*
X1926Y503D01*
X2026Y503D02*
X2028Y503D01*
X2113Y503D02*
X2115Y503D01*
X183Y502D02*
X185Y502D01*
X271Y502D02*
X273Y502D01*
X459Y502D02*
X461Y502D01*
X546Y502D02*
X548Y502D01*
X734Y502D02*
X736Y502D01*
X822Y502D02*
X824Y502D01*
X1010Y502D02*
X1012Y502D01*
X1097Y502D02*
X1099Y502D01*
X1285Y502D02*
X1287Y502D01*
X1373Y502D02*
X1375Y502D01*
X1561Y502D02*
X1563Y502D01*
X1649Y502D02*
X1650Y502D01*
X1836Y502D02*
X1838Y502D01*
X1924Y502D02*
X1926Y502D01*
X2026Y502D02*
X2028Y502D01*
X2113Y502D02*
X2115Y502D01*
X183Y501D02*
X185Y501D01*
X271Y501D02*
X273Y501D01*
X459Y501D02*
X461Y501D01*
X546Y501D02*
X548Y501D01*
X734Y501D02*
X736Y501D01*
X822Y501D02*
X824Y501D01*
X1010Y501D02*
X1012Y501D01*
X1097Y501D02*
X1099Y501D01*
X1285Y501D02*
X1287Y501D01*
X1373Y501D02*
X1375Y501D01*
X1561Y501D02*
X1563Y501D01*
X1649Y501D02*
X1650Y501D01*
X1836Y501D02*
X1838Y501D01*
X1924Y501D02*
X1926Y501D01*
X2026Y501D02*
X2028Y501D01*
X2113Y501D02*
X2115Y501D01*
X183Y500D02*
X185Y500D01*
X271Y500D02*
X273Y500D01*
X459Y500D02*
X461Y500D01*
X546Y500D02*
X548Y500D01*
X734Y500D02*
X736Y500D01*
X822Y500D02*
X824Y500D01*
X1010Y500D02*
X1012Y500D01*
X1097Y500D02*
X1099Y500D01*
X1285Y500D02*
X1287Y500D01*
X1373Y500D02*
X1375Y500D01*
X1561Y500D02*
X1563Y500D01*
X1649Y500D02*
X1650Y500D01*
X1836Y500D02*
X1838Y500D01*
X1924Y500D02*
X1926Y500D01*
X2026Y500D02*
X2028Y500D01*
X2113Y500D02*
X2115Y500D01*
X183Y499D02*
X185Y499D01*
X271Y499D02*
X273Y499D01*
X459Y499D02*
X461Y499D01*
X546Y499D02*
X548Y499D01*
X734Y499D02*
X736Y499D01*
X822Y499D02*
X824Y499D01*
X1010Y499D02*
X1012Y499D01*
X1097Y499D02*
X1099Y499D01*
X1285Y499D02*
X1287Y499D01*
X1373Y499D02*
X1375Y499D01*
X1561Y499D02*
X1563Y499D01*
X1649Y499D02*
X1650Y499D01*
X1836Y499D02*
X1838Y499D01*
X1924Y499D02*
X1926Y499D01*
X2026Y499D02*
X2028Y499D01*
X2113Y499D02*
X2115Y499D01*
X183Y498D02*
X185Y498D01*
X271Y498D02*
X273Y498D01*
X459Y498D02*
X461Y498D01*
X546Y498D02*
X548Y498D01*
X734Y498D02*
X736Y498D01*
X822Y498D02*
X824Y498D01*
X1010Y498D02*
X1012Y498D01*
X1097Y498D02*
X1099Y498D01*
X1285Y498D02*
X1287Y498D01*
X1373Y498D02*
X1375Y498D01*
X1561Y498D02*
X1563Y498D01*
X1649Y498D02*
X1650Y498D01*
X1836Y498D02*
X1838Y498D01*
X1924Y498D02*
X1926Y498D01*
X2026Y498D02*
X2028Y498D01*
X2113Y498D02*
X2115Y498D01*
X183Y497D02*
X185Y497D01*
X271Y497D02*
X273Y497D01*
X459Y497D02*
X461Y497D01*
X546Y497D02*
X548Y497D01*
X734Y497D02*
X736Y497D01*
X822Y497D02*
X824Y497D01*
X1010Y497D02*
X1012Y497D01*
X1097Y497D02*
X1099Y497D01*
X1285Y497D02*
X1287Y497D01*
X1373Y497D02*
X1375Y497D01*
X1561Y497D02*
X1563Y497D01*
X1649Y497D02*
X1650Y497D01*
X1836Y497D02*
X1838Y497D01*
X1924Y497D02*
X1926Y497D01*
X2026Y497D02*
X2028Y497D01*
X2113Y497D02*
X2115Y497D01*
X183Y496D02*
X185Y496D01*
X271Y496D02*
X273Y496D01*
X459Y496D02*
X461Y496D01*
X546Y496D02*
X548Y496D01*
X734Y496D02*
X736Y496D01*
X822Y496D02*
X824Y496D01*
X1010Y496D02*
X1012Y496D01*
X1097Y496D02*
X1099Y496D01*
X1285Y496D02*
X1287Y496D01*
X1373Y496D02*
X1375Y496D01*
X1561Y496D02*
X1563Y496D01*
X1649Y496D02*
X1650Y496D01*
X1836Y496D02*
X1838Y496D01*
X1924Y496D02*
X1926Y496D01*
X2026Y496D02*
X2028Y496D01*
X2113Y496D02*
X2115Y496D01*
X183Y495D02*
X185Y495D01*
X271Y495D02*
X273Y495D01*
X459Y495D02*
X461Y495D01*
X546Y495D02*
X548Y495D01*
X734Y495D02*
X736Y495D01*
X822Y495D02*
X824Y495D01*
X1010Y495D02*
X1012Y495D01*
X1097Y495D02*
X1099Y495D01*
X1285Y495D02*
X1287Y495D01*
X1373Y495D02*
X1375Y495D01*
X1561Y495D02*
X1563Y495D01*
X1649Y495D02*
X1650Y495D01*
X1836Y495D02*
X1838Y495D01*
X1924Y495D02*
X1926Y495D01*
X2026Y495D02*
X2028Y495D01*
X2113Y495D02*
X2115Y495D01*
X183Y494D02*
X185Y494D01*
X271Y494D02*
X273Y494D01*
X459Y494D02*
X461Y494D01*
X546Y494D02*
X548Y494D01*
X734Y494D02*
X736Y494D01*
X822Y494D02*
X824Y494D01*
X1010Y494D02*
X1012Y494D01*
X1097Y494D02*
X1099Y494D01*
X1285Y494D02*
X1287Y494D01*
X1373Y494D02*
X1375Y494D01*
X1561Y494D02*
X1563Y494D01*
X1649Y494D02*
X1650Y494D01*
X1836Y494D02*
X1838Y494D01*
X1924Y494D02*
X1926Y494D01*
X2026Y494D02*
X2028Y494D01*
X2113Y494D02*
X2115Y494D01*
X183Y493D02*
X185Y493D01*
X271Y493D02*
X273Y493D01*
X459Y493D02*
X461Y493D01*
X546Y493D02*
X548Y493D01*
X734Y493D02*
X736Y493D01*
X822Y493D02*
X824Y493D01*
X1010Y493D02*
X1012Y493D01*
X1097Y493D02*
X1099Y493D01*
X1285Y493D02*
X1287Y493D01*
X1373Y493D02*
X1375Y493D01*
X1561Y493D02*
X1563Y493D01*
X1649Y493D02*
X1650Y493D01*
X1836Y493D02*
X1838Y493D01*
X1924Y493D02*
X1926Y493D01*
X2026Y493D02*
X2028Y493D01*
X2113Y493D02*
X2115Y493D01*
X183Y492D02*
X185Y492D01*
X271Y492D02*
X273Y492D01*
X459Y492D02*
X461Y492D01*
X546Y492D02*
X548Y492D01*
X734Y492D02*
X736Y492D01*
X822Y492D02*
X824Y492D01*
X1010Y492D02*
X1012Y492D01*
X1097Y492D02*
X1099Y492D01*
X1285Y492D02*
X1287Y492D01*
X1373Y492D02*
X1375Y492D01*
X1561Y492D02*
X1563Y492D01*
X1649Y492D02*
X1650Y492D01*
X1836Y492D02*
X1838Y492D01*
X1924Y492D02*
X1926Y492D01*
X2026Y492D02*
X2028Y492D01*
X2113Y492D02*
X2115Y492D01*
X183Y491D02*
X185Y491D01*
X271Y491D02*
X273Y491D01*
X459Y491D02*
X461Y491D01*
X546Y491D02*
X548Y491D01*
X734Y491D02*
X736Y491D01*
X822Y491D02*
X824Y491D01*
X1010Y491D02*
X1012Y491D01*
X1097Y491D02*
X1099Y491D01*
X1285Y491D02*
X1287Y491D01*
X1373Y491D02*
X1375Y491D01*
X1561Y491D02*
X1563Y491D01*
X1649Y491D02*
X1650Y491D01*
X1836Y491D02*
X1838Y491D01*
X1924Y491D02*
X1926Y491D01*
X2026Y491D02*
X2028Y491D01*
X2113Y491D02*
X2115Y491D01*
X183Y490D02*
X185Y490D01*
X271Y490D02*
X273Y490D01*
X459Y490D02*
X461Y490D01*
X546Y490D02*
X548Y490D01*
X734Y490D02*
X736Y490D01*
X822Y490D02*
X824Y490D01*
X1010Y490D02*
X1012Y490D01*
X1097Y490D02*
X1099Y490D01*
X1285Y490D02*
X1287Y490D01*
X1373Y490D02*
X1375Y490D01*
X1561Y490D02*
X1563Y490D01*
X1649Y490D02*
X1650Y490D01*
X1836Y490D02*
X1838Y490D01*
X1924Y490D02*
X1926Y490D01*
X2026Y490D02*
X2028Y490D01*
X2113Y490D02*
X2115Y490D01*
X183Y489D02*
X185Y489D01*
X271Y489D02*
X273Y489D01*
X459Y489D02*
X461Y489D01*
X546Y489D02*
X548Y489D01*
X734Y489D02*
X736Y489D01*
X822Y489D02*
X824Y489D01*
X1010Y489D02*
X1012Y489D01*
X1097Y489D02*
X1099Y489D01*
X1285Y489D02*
X1287Y489D01*
X1373Y489D02*
X1375Y489D01*
X1561Y489D02*
X1563Y489D01*
X1649Y489D02*
X1650Y489D01*
X1836Y489D02*
X1838Y489D01*
X1924Y489D02*
X1926Y489D01*
X2026Y489D02*
X2028Y489D01*
X2113Y489D02*
X2115Y489D01*
X183Y488D02*
X185Y488D01*
X271Y488D02*
X273Y488D01*
X459Y488D02*
X461Y488D01*
X546Y488D02*
X548Y488D01*
X734Y488D02*
X736Y488D01*
X822Y488D02*
X824Y488D01*
X1010Y488D02*
X1012Y488D01*
X1097Y488D02*
X1099Y488D01*
X1285Y488D02*
X1287Y488D01*
X1373Y488D02*
X1375Y488D01*
X1561Y488D02*
X1563Y488D01*
X1649Y488D02*
X1650Y488D01*
X1836Y488D02*
X1838Y488D01*
X1924Y488D02*
X1926Y488D01*
X2026Y488D02*
X2028Y488D01*
X2113Y488D02*
X2115Y488D01*
X183Y487D02*
X185Y487D01*
X271Y487D02*
X273Y487D01*
X459Y487D02*
X461Y487D01*
X546Y487D02*
X548Y487D01*
X734Y487D02*
X736Y487D01*
X822Y487D02*
X824Y487D01*
X1010Y487D02*
X1012Y487D01*
X1097Y487D02*
X1099Y487D01*
X1285Y487D02*
X1287Y487D01*
X1373Y487D02*
X1375Y487D01*
X1561Y487D02*
X1563Y487D01*
X1649Y487D02*
X1650Y487D01*
X1836Y487D02*
X1838Y487D01*
X1924Y487D02*
X1926Y487D01*
X2026Y487D02*
X2028Y487D01*
X2113Y487D02*
X2115Y487D01*
X183Y486D02*
X185Y486D01*
X271Y486D02*
X273Y486D01*
X459Y486D02*
X461Y486D01*
X546Y486D02*
X548Y486D01*
X734Y486D02*
X736Y486D01*
X822Y486D02*
X824Y486D01*
X1010Y486D02*
X1012Y486D01*
X1097Y486D02*
X1099Y486D01*
X1285Y486D02*
X1287Y486D01*
X1373Y486D02*
X1375Y486D01*
X1561Y486D02*
X1563Y486D01*
X1649Y486D02*
X1650Y486D01*
X1836Y486D02*
X1838Y486D01*
X1924Y486D02*
X1926Y486D01*
X2026Y486D02*
X2028Y486D01*
X2113Y486D02*
X2115Y486D01*
X183Y485D02*
X185Y485D01*
X271Y485D02*
X273Y485D01*
X459Y485D02*
X461Y485D01*
X546Y485D02*
X548Y485D01*
X734Y485D02*
X736Y485D01*
X822Y485D02*
X824Y485D01*
X1010Y485D02*
X1012Y485D01*
X1097Y485D02*
X1099Y485D01*
X1285Y485D02*
X1287Y485D01*
X1373Y485D02*
X1375Y485D01*
X1561Y485D02*
X1563Y485D01*
X1649Y485D02*
X1650Y485D01*
X1836Y485D02*
X1838Y485D01*
X1924Y485D02*
X1926Y485D01*
X2026Y485D02*
X2028Y485D01*
X2113Y485D02*
X2115Y485D01*
X183Y484D02*
X185Y484D01*
X271Y484D02*
X273Y484D01*
X459Y484D02*
X461Y484D01*
X546Y484D02*
X548Y484D01*
X734Y484D02*
X736Y484D01*
X822Y484D02*
X824Y484D01*
X1010Y484D02*
X1012Y484D01*
X1097Y484D02*
X1099Y484D01*
X1285Y484D02*
X1287Y484D01*
X1373Y484D02*
X1375Y484D01*
X1561Y484D02*
X1563Y484D01*
X1649Y484D02*
X1650Y484D01*
X1836Y484D02*
X1838Y484D01*
X1924Y484D02*
X1926Y484D01*
X2026Y484D02*
X2028Y484D01*
X2113Y484D02*
X2115Y484D01*
X183Y483D02*
X185Y483D01*
X271Y483D02*
X273Y483D01*
X459Y483D02*
X461Y483D01*
X546Y483D02*
X548Y483D01*
X734Y483D02*
X736Y483D01*
X822Y483D02*
X824Y483D01*
X1010Y483D02*
X1012Y483D01*
X1097Y483D02*
X1099Y483D01*
X1285Y483D02*
X1287Y483D01*
X1373Y483D02*
X1375Y483D01*
X1561Y483D02*
X1563Y483D01*
X1649Y483D02*
X1650Y483D01*
X1836Y483D02*
X1838Y483D01*
X1924Y483D02*
X1926Y483D01*
X2026Y483D02*
X2028Y483D01*
X2113Y483D02*
X2115Y483D01*
X183Y482D02*
X185Y482D01*
X271Y482D02*
X273Y482D01*
X459Y482D02*
X461Y482D01*
X546Y482D02*
X548Y482D01*
X734Y482D02*
X736Y482D01*
X822Y482D02*
X824Y482D01*
X1010Y482D02*
X1012Y482D01*
X1097Y482D02*
X1099Y482D01*
X1285Y482D02*
X1287Y482D01*
X1373Y482D02*
X1375Y482D01*
X1561Y482D02*
X1563Y482D01*
X1649Y482D02*
X1650Y482D01*
X1836Y482D02*
X1838Y482D01*
X1924Y482D02*
X1926Y482D01*
X2026Y482D02*
X2028Y482D01*
X2113Y482D02*
X2115Y482D01*
X183Y481D02*
X185Y481D01*
X271Y481D02*
X273Y481D01*
X459Y481D02*
X461Y481D01*
X546Y481D02*
X548Y481D01*
X734Y481D02*
X736Y481D01*
X822Y481D02*
X824Y481D01*
X1010Y481D02*
X1012Y481D01*
X1097Y481D02*
X1099Y481D01*
X1285Y481D02*
X1287Y481D01*
X1373Y481D02*
X1375Y481D01*
X1561Y481D02*
X1563Y481D01*
X1649Y481D02*
X1650Y481D01*
X1836Y481D02*
X1838Y481D01*
X1924Y481D02*
X1926Y481D01*
X2026Y481D02*
X2028Y481D01*
X2113Y481D02*
X2115Y481D01*
X183Y480D02*
X185Y480D01*
X271Y480D02*
X273Y480D01*
X459Y480D02*
X461Y480D01*
X546Y480D02*
X548Y480D01*
X734Y480D02*
X736Y480D01*
X822Y480D02*
X824Y480D01*
X1010Y480D02*
X1012Y480D01*
X1097Y480D02*
X1099Y480D01*
X1285Y480D02*
X1287Y480D01*
X1373Y480D02*
X1375Y480D01*
X1561Y480D02*
X1563Y480D01*
X1649Y480D02*
X1650Y480D01*
X1836Y480D02*
X1838Y480D01*
X1924Y480D02*
X1926Y480D01*
X2026Y480D02*
X2028Y480D01*
X2113Y480D02*
X2115Y480D01*
X183Y479D02*
X185Y479D01*
X271Y479D02*
X273Y479D01*
X459Y479D02*
X461Y479D01*
X546Y479D02*
X548Y479D01*
X734Y479D02*
X736Y479D01*
X822Y479D02*
X824Y479D01*
X1010Y479D02*
X1012Y479D01*
X1097Y479D02*
X1099Y479D01*
X1285Y479D02*
X1287Y479D01*
X1373Y479D02*
X1375Y479D01*
X1561Y479D02*
X1563Y479D01*
X1649Y479D02*
X1650Y479D01*
X1836Y479D02*
X1838Y479D01*
X1924Y479D02*
X1926Y479D01*
X2026Y479D02*
X2028Y479D01*
X2113Y479D02*
X2115Y479D01*
X183Y478D02*
X185Y478D01*
X271Y478D02*
X273Y478D01*
X459Y478D02*
X461Y478D01*
X546Y478D02*
X548Y478D01*
X734Y478D02*
X736Y478D01*
X822Y478D02*
X824Y478D01*
X1010Y478D02*
X1012Y478D01*
X1097Y478D02*
X1099Y478D01*
X1285Y478D02*
X1287Y478D01*
X1373Y478D02*
X1375Y478D01*
X1561Y478D02*
X1563Y478D01*
X1649Y478D02*
X1650Y478D01*
X1836Y478D02*
X1838Y478D01*
X1924Y478D02*
X1926Y478D01*
X2026Y478D02*
X2028Y478D01*
X2113Y478D02*
X2115Y478D01*
X183Y477D02*
X185Y477D01*
X271Y477D02*
X273Y477D01*
X459Y477D02*
X461Y477D01*
X546Y477D02*
X548Y477D01*
X734Y477D02*
X736Y477D01*
X822Y477D02*
X824Y477D01*
X1010Y477D02*
X1012Y477D01*
X1097Y477D02*
X1099Y477D01*
X1285Y477D02*
X1287Y477D01*
X1373Y477D02*
X1375Y477D01*
X1561Y477D02*
X1563Y477D01*
X1649Y477D02*
X1650Y477D01*
X1836Y477D02*
X1838Y477D01*
X1924Y477D02*
X1926Y477D01*
X2026Y477D02*
X2028Y477D01*
X2113Y477D02*
X2115Y477D01*
X183Y476D02*
X185Y476D01*
X271Y476D02*
X273Y476D01*
X459Y476D02*
X461Y476D01*
X546Y476D02*
X548Y476D01*
X734Y476D02*
X736Y476D01*
X822Y476D02*
X824Y476D01*
X1010Y476D02*
X1012Y476D01*
X1097Y476D02*
X1099Y476D01*
X1285Y476D02*
X1287Y476D01*
X1373Y476D02*
X1375Y476D01*
X1561Y476D02*
X1563Y476D01*
X1649Y476D02*
X1650Y476D01*
X1836Y476D02*
X1838Y476D01*
X1924Y476D02*
X1926Y476D01*
X2026Y476D02*
X2028Y476D01*
X2113Y476D02*
X2115Y476D01*
X183Y475D02*
X185Y475D01*
X271Y475D02*
X273Y475D01*
X459Y475D02*
X461Y475D01*
X546Y475D02*
X548Y475D01*
X734Y475D02*
X736Y475D01*
X822Y475D02*
X824Y475D01*
X1010Y475D02*
X1012Y475D01*
X1097Y475D02*
X1099Y475D01*
X1285Y475D02*
X1287Y475D01*
X1373Y475D02*
X1375Y475D01*
X1561Y475D02*
X1563Y475D01*
X1649Y475D02*
X1650Y475D01*
X1836Y475D02*
X1838Y475D01*
X1924Y475D02*
X1926Y475D01*
X2026Y475D02*
X2028Y475D01*
X2113Y475D02*
X2115Y475D01*
X183Y474D02*
X185Y474D01*
X271Y474D02*
X273Y474D01*
X459Y474D02*
X461Y474D01*
X546Y474D02*
X548Y474D01*
X734Y474D02*
X736Y474D01*
X822Y474D02*
X824Y474D01*
X1010Y474D02*
X1012Y474D01*
X1097Y474D02*
X1099Y474D01*
X1285Y474D02*
X1287Y474D01*
X1373Y474D02*
X1375Y474D01*
X1561Y474D02*
X1563Y474D01*
X1649Y474D02*
X1650Y474D01*
X1836Y474D02*
X1838Y474D01*
X1924Y474D02*
X1926Y474D01*
X2026Y474D02*
X2028Y474D01*
X2113Y474D02*
X2115Y474D01*
X183Y473D02*
X185Y473D01*
X271Y473D02*
X273Y473D01*
X459Y473D02*
X461Y473D01*
X546Y473D02*
X548Y473D01*
X734Y473D02*
X736Y473D01*
X822Y473D02*
X824Y473D01*
X1010Y473D02*
X1012Y473D01*
X1097Y473D02*
X1099Y473D01*
X1285Y473D02*
X1287Y473D01*
X1373Y473D02*
X1375Y473D01*
X1561Y473D02*
X1563Y473D01*
X1649Y473D02*
X1650Y473D01*
X1836Y473D02*
X1838Y473D01*
X1924Y473D02*
X1926Y473D01*
X2026Y473D02*
X2028Y473D01*
X2113Y473D02*
X2115Y473D01*
X183Y472D02*
X185Y472D01*
X271Y472D02*
X273Y472D01*
X459Y472D02*
X461Y472D01*
X546Y472D02*
X548Y472D01*
X734Y472D02*
X736Y472D01*
X822Y472D02*
X824Y472D01*
X1010Y472D02*
X1012Y472D01*
X1097Y472D02*
X1099Y472D01*
X1285Y472D02*
X1287Y472D01*
X1373Y472D02*
X1375Y472D01*
X1561Y472D02*
X1563Y472D01*
X1649Y472D02*
X1650Y472D01*
X1836Y472D02*
X1838Y472D01*
X1924Y472D02*
X1926Y472D01*
X2026Y472D02*
X2028Y472D01*
X2113Y472D02*
X2115Y472D01*
X183Y471D02*
X185Y471D01*
X271Y471D02*
X273Y471D01*
X459Y471D02*
X461Y471D01*
X546Y471D02*
X548Y471D01*
X734Y471D02*
X736Y471D01*
X822Y471D02*
X824Y471D01*
X1010Y471D02*
X1012Y471D01*
X1097Y471D02*
X1099Y471D01*
X1285Y471D02*
X1287Y471D01*
X1373Y471D02*
X1375Y471D01*
X1561Y471D02*
X1563Y471D01*
X1649Y471D02*
X1650Y471D01*
X1836Y471D02*
X1838Y471D01*
X1924Y471D02*
X1926Y471D01*
X2026Y471D02*
X2028Y471D01*
X2113Y471D02*
X2115Y471D01*
X183Y470D02*
X185Y470D01*
X271Y470D02*
X273Y470D01*
X459Y470D02*
X461Y470D01*
X546Y470D02*
X548Y470D01*
X734Y470D02*
X736Y470D01*
X822Y470D02*
X824Y470D01*
X1010Y470D02*
X1012Y470D01*
X1097Y470D02*
X1099Y470D01*
X1285Y470D02*
X1287Y470D01*
X1373Y470D02*
X1375Y470D01*
X1561Y470D02*
X1563Y470D01*
X1649Y470D02*
X1650Y470D01*
X1836Y470D02*
X1838Y470D01*
X1924Y470D02*
X1926Y470D01*
X2026Y470D02*
X2028Y470D01*
X2113Y470D02*
X2115Y470D01*
X183Y469D02*
X185Y469D01*
X271Y469D02*
X273Y469D01*
X459Y469D02*
X461Y469D01*
X546Y469D02*
X548Y469D01*
X734Y469D02*
X736Y469D01*
X822Y469D02*
X824Y469D01*
X1010Y469D02*
X1012Y469D01*
X1097Y469D02*
X1099Y469D01*
X1285Y469D02*
X1287Y469D01*
X1373Y469D02*
X1375Y469D01*
X1561Y469D02*
X1563Y469D01*
X1649Y469D02*
X1650Y469D01*
X1836Y469D02*
X1838Y469D01*
X1924Y469D02*
X1926Y469D01*
X2026Y469D02*
X2028Y469D01*
X2113Y469D02*
X2115Y469D01*
X183Y468D02*
X185Y468D01*
X271Y468D02*
X273Y468D01*
X459Y468D02*
X461Y468D01*
X546Y468D02*
X548Y468D01*
X734Y468D02*
X736Y468D01*
X822Y468D02*
X824Y468D01*
X1010Y468D02*
X1012Y468D01*
X1097Y468D02*
X1099Y468D01*
X1285Y468D02*
X1287Y468D01*
X1373Y468D02*
X1375Y468D01*
X1561Y468D02*
X1563Y468D01*
X1649Y468D02*
X1650Y468D01*
X1836Y468D02*
X1838Y468D01*
X1924Y468D02*
X1926Y468D01*
X2026Y468D02*
X2028Y468D01*
X2113Y468D02*
X2115Y468D01*
X183Y467D02*
X185Y467D01*
X271Y467D02*
X273Y467D01*
X459Y467D02*
X461Y467D01*
X546Y467D02*
X548Y467D01*
X734Y467D02*
X736Y467D01*
X822Y467D02*
X824Y467D01*
X1010Y467D02*
X1012Y467D01*
X1097Y467D02*
X1099Y467D01*
X1285Y467D02*
X1287Y467D01*
X1373Y467D02*
X1375Y467D01*
X1561Y467D02*
X1563Y467D01*
X1649Y467D02*
X1650Y467D01*
X1836Y467D02*
X1838Y467D01*
X1924Y467D02*
X1926Y467D01*
X2026Y467D02*
X2028Y467D01*
X2113Y467D02*
X2115Y467D01*
X183Y466D02*
X185Y466D01*
X271Y466D02*
X273Y466D01*
X459Y466D02*
X461Y466D01*
X546Y466D02*
X548Y466D01*
X734Y466D02*
X736Y466D01*
X822Y466D02*
X824Y466D01*
X1010Y466D02*
X1012Y466D01*
X1097Y466D02*
X1099Y466D01*
X1285Y466D02*
X1287Y466D01*
X1373Y466D02*
X1375Y466D01*
X1561Y466D02*
X1563Y466D01*
X1649Y466D02*
X1650Y466D01*
X1836Y466D02*
X1838Y466D01*
X1924Y466D02*
X1926Y466D01*
X2026Y466D02*
X2028Y466D01*
X2113Y466D02*
X2115Y466D01*
X183Y465D02*
X185Y465D01*
X271Y465D02*
X273Y465D01*
X459Y465D02*
X461Y465D01*
X546Y465D02*
X548Y465D01*
X734Y465D02*
X736Y465D01*
X822Y465D02*
X824Y465D01*
X1010Y465D02*
X1012Y465D01*
X1097Y465D02*
X1099Y465D01*
X1285Y465D02*
X1287Y465D01*
X1373Y465D02*
X1375Y465D01*
X1561Y465D02*
X1563Y465D01*
X1649Y465D02*
X1650Y465D01*
X1836Y465D02*
X1838Y465D01*
X1924Y465D02*
X1926Y465D01*
X2026Y465D02*
X2028Y465D01*
X2113Y465D02*
X2115Y465D01*
X183Y464D02*
X185Y464D01*
X271Y464D02*
X273Y464D01*
X459Y464D02*
X461Y464D01*
X546Y464D02*
X548Y464D01*
X734Y464D02*
X736Y464D01*
X822Y464D02*
X824Y464D01*
X1010Y464D02*
X1012Y464D01*
X1097Y464D02*
X1099Y464D01*
X1285Y464D02*
X1287Y464D01*
X1373Y464D02*
X1375Y464D01*
X1561Y464D02*
X1563Y464D01*
X1649Y464D02*
X1650Y464D01*
X1836Y464D02*
X1838Y464D01*
X1924Y464D02*
X1926Y464D01*
X2026Y464D02*
X2028Y464D01*
X2113Y464D02*
X2115Y464D01*
X183Y463D02*
X185Y463D01*
X271Y463D02*
X273Y463D01*
X459Y463D02*
X548Y463D01*
X734Y463D02*
X824Y463D01*
X1010Y463D02*
X1099Y463D01*
X1285Y463D02*
X1287Y463D01*
X1373Y463D02*
X1375Y463D01*
X1561Y463D02*
X1563Y463D01*
X1649Y463D02*
X1650Y463D01*
X1836Y463D02*
X1838Y463D01*
X1924Y463D02*
X1926Y463D01*
X2026Y463D02*
X2028Y463D01*
X2113Y463D02*
X2115Y463D01*
X183Y462D02*
X185Y462D01*
X271Y462D02*
X273Y462D01*
X459Y462D02*
X548Y462D01*
X734Y462D02*
X824Y462D01*
X1010Y462D02*
X1099Y462D01*
X1285Y462D02*
X1287Y462D01*
X1373Y462D02*
X1375Y462D01*
X1561Y462D02*
X1563Y462D01*
X1649Y462D02*
X1650Y462D01*
X1836Y462D02*
X1838Y462D01*
X1924Y462D02*
X1926Y462D01*
X2026Y462D02*
X2028Y462D01*
X2113Y462D02*
X2115Y462D01*
X183Y461D02*
X185Y461D01*
X271Y461D02*
X273Y461D01*
X459Y461D02*
X548Y461D01*
X734Y461D02*
X824Y461D01*
X1010Y461D02*
X1099Y461D01*
X1285Y461D02*
X1287Y461D01*
X1373Y461D02*
X1375Y461D01*
X1561Y461D02*
X1563Y461D01*
X1649Y461D02*
X1650Y461D01*
X1836Y461D02*
X1838Y461D01*
X1924Y461D02*
X1926Y461D01*
X2026Y461D02*
X2028Y461D01*
X2113Y461D02*
X2115Y461D01*
X183Y460D02*
X185Y460D01*
X271Y460D02*
X273Y460D01*
X1285Y460D02*
X1287Y460D01*
X1373Y460D02*
X1375Y460D01*
X1561Y460D02*
X1563Y460D01*
X1649Y460D02*
X1650Y460D01*
X1836Y460D02*
X1838Y460D01*
X1924Y460D02*
X1926Y460D01*
X2026Y460D02*
X2028Y460D01*
X2113Y460D02*
X2115Y460D01*
X183Y459D02*
X273Y459D01*
X1285Y459D02*
X1375Y459D01*
X1561Y459D02*
X1650Y459D01*
X1836Y459D02*
X1926Y459D01*
X2026Y459D02*
X2115Y459D01*
X183Y458D02*
X273Y458D01*
X1285Y458D02*
X1375Y458D01*
X1561Y458D02*
X1650Y458D01*
X1836Y458D02*
X1926Y458D01*
X2026Y458D02*
X2115Y458D01*
X183Y457D02*
X273Y457D01*
X1285Y457D02*
X1375Y457D01*
X1561Y457D02*
X1650Y457D01*
X1836Y457D02*
X1926Y457D01*
D02*
G04 End of Silk0*
M02*