M48
INCH
T10C0.035000
T11C0.041000
T12C0.046111
T13C0.030000
T14C0.015748
T15C0.086614
%
T10
X018154Y001485
X015595Y001485
X018154Y003257
X015595Y003257
X013429Y001485
X010870Y001485
X013429Y003257
X010870Y003257
X019532Y001761
X020532Y001761
X021532Y001761
X008705Y001485
X006146Y001485
X008705Y003257
X006146Y003257
X003981Y001485
X001421Y001485
X003981Y003257
X001421Y003257
X016335Y017351
X015335Y017351
X014335Y017351
X013335Y017351
X012335Y017351
X011335Y017351
X010335Y017351
X009335Y017351
X008335Y017351
X007335Y017351
X006335Y017351
X005335Y017351
X004335Y017351
X003335Y017351
X002335Y017351
X001335Y017351
T11
X003728Y013142
X004728Y015142
X002728Y015142
T12
X002590Y011450
X002590Y010450
X002590Y009450
X002590Y008451
T13
X007614Y010072
X006614Y010072
X007614Y011072
X006614Y011072
X016614Y011072
X018614Y011072
X017614Y011072
X012614Y011072
X011614Y011072
X015614Y011072
X014614Y011072
X013614Y011072
X010614Y011072
X009614Y011072
X008614Y011072
X016614Y010072
X018614Y010072
X017614Y010072
X012614Y010072
X011614Y010072
X015614Y010072
X014614Y010072
X013614Y010072
X010614Y010072
X009614Y010072
X008614Y010072
T14
X003564Y011949
X011233Y013518
X020122Y015580
X014571Y012194
X013626Y012155
X006107Y012745
X019099Y008375
X006579Y006170
X003233Y006170
T15
X022721Y018808
X022760Y000501
X000555Y018847
T00
M30
