<?xml version='1.0' encoding='UTF-8' standalone='no'?>
<!-- Created with Fritzing (http://www.fritzing.org/) -->
<svg xmlns="http://www.w3.org/2000/svg" width="2.32432in" x="0in" version="1.2" y="0in"  height="1.94154in" viewBox="0 0 167.351 139.791" baseProfile="tiny" xmlns:svg="http://www.w3.org/2000/svg">
 <g transform="matrix(-1, 0, 0, 1, 167.351, 0)">
  <g partID="12041">
   <g id="silkscreen">
    <rect width="166.775" x="0.576" y="0.576" fill="none" height="139.215" stroke="black" stroke-width="0.576"/>
   </g>
  </g>
  <g partID="12040">
   <g id="board">
    <rect width="166.775" x="0.576" y="0.576" fill="none" height="139.215" stroke="black" fill-opacity="0.5" id="boardoutline" stroke-width="0.5"/>
   </g>
  </g>
  <g partID="6535650">
   <g transform="translate(114.666,7.35362)">
    <g id="silkscreen">
     <text x="26.9291" y="4.39539" fill="black" font-family="OCRA" text-anchor="middle" xmlns:xml="http://www.w3.org/XML/1998/namespace" id="label" xml:space="preserve" stroke-width="0" font-size="4.8962">Hestia v1.0</text>
    </g>
   </g>
  </g>
  <g partID="6832282">
   <g transform="translate(37.5745,27.2341)">
    <g transform="matrix(0,1,-1,0,0,0)">
     <g id="silkscreen">
      <circle fill="none" cx="10.728" cy="10.728" stroke="black" r="2.88" stroke-width="0.864"/>
     </g>
    </g>
   </g>
  </g>
  <g partID="6445072">
   <g transform="translate(31.0845,131.94)">
    <g transform="matrix(-1,0,0,-1,0,0)">
     <g id="silkscreen">
      <line stroke="black" y1="6.38928" stroke-width="0.72" x1="20.137" y2="12.0586" x2="20.137"/>
      <line stroke="black" y1="0.72" stroke-width="0.72" x1="5.96376" y2="0.72" x2="18.0115"/>
      <line stroke="black" y1="17.7278" stroke-width="0.72" x1="5.96376" y2="17.7278" x2="18.0115"/>
      <line stroke="black" y1="6.38928" stroke-width="0.72" x1="3.12912" y2="12.0586" x2="3.12912"/>
      <line stroke="black" y1="7.80696" stroke-width="0.72" x1="11.633" y2="10.6416" x2="11.633"/>
      <line stroke="black" y1="9.22392" stroke-width="0.72" x1="13.0507" y2="9.22392" x2="10.2161"/>
     </g>
    </g>
   </g>
  </g>
  <g partID="6437832">
   <g transform="translate(65.1005,131.94)">
    <g transform="matrix(-1,0,0,-1,0,0)">
     <g id="silkscreen">
      <line stroke="black" y1="6.38928" stroke-width="0.72" x1="20.137" y2="12.0586" x2="20.137"/>
      <line stroke="black" y1="0.72" stroke-width="0.72" x1="5.96376" y2="0.72" x2="18.0115"/>
      <line stroke="black" y1="17.7278" stroke-width="0.72" x1="5.96376" y2="17.7278" x2="18.0115"/>
      <line stroke="black" y1="6.38928" stroke-width="0.72" x1="3.12912" y2="12.0586" x2="3.12912"/>
      <line stroke="black" y1="7.80696" stroke-width="0.72" x1="11.633" y2="10.6416" x2="11.633"/>
      <line stroke="black" y1="9.22392" stroke-width="0.72" x1="13.0507" y2="9.22392" x2="10.2161"/>
     </g>
    </g>
   </g>
  </g>
  <g partID="7108111">
   <g transform="translate(123.766,34.5583)">
    <g transform="matrix(0,-1,1,0,0,0)">
     <g id="silkscreen">
      <rect width="8.22047" x="0.141732" y="2.83465" stroke-opacity="1" fill="none" height="2.55118" stroke="black" stroke-width="0.283465"/>
     </g>
    </g>
   </g>
  </g>
  <g partID="7125071">
   <g transform="translate(154.805,113.928)">
    <g transform="matrix(-1,0,0,-1,0,0)">
     <g id="silkscreen">
      <rect width="14.1732" x="0.141732" y="0.141732" stroke-opacity="1" fill="none" height="6.23622" stroke="black" id="silkscreen" stroke-width="0.283465"/>
     </g>
    </g>
   </g>
  </g>
  <g partID="6815151">
   <g transform="translate(140.774,30.1646)">
    <g transform="matrix(0,1,-1,0,0,0)">
     <g id="silkscreen">
      <rect width="14.1732" x="0.141732" y="0.141732" stroke-opacity="1" fill="none" height="6.23622" stroke="black" id="silkscreen" stroke-width="0.283465"/>
     </g>
    </g>
   </g>
  </g>
  <g partID="6565870">
   <g transform="translate(46.4535,22.7126)">
    <g id="silkscreen">
     <path fill="black" display="none" id="path3024" d="M149.17,69.149l-1.15454,-0.21466c-0.294283,-0.0537995,-0.774174,-0.143645,-1.06846,-0.196906l-9.83293,-1.82811c-0.294283,-0.0559514,-0.616542,-0.330329,-0.712843,-0.614928l-3.69656,-8.62082c-0.138265,-0.266307,-0.110827,-0.684867,0.0570274,-0.932345L138.509,48.3657c0.168392,-0.246939,0.445998,-0.651511,0.615466,-0.898451l0.663885,-0.966776c0.168392,-0.246939,0.133961,-0.620846,-0.0785472,-0.834968l-0.82905,-0.82905l-0.769332,-0.769332l-2.4043,-2.40591l-0.770408,-0.769332l-2.40322,-2.40484l-0.770946,-0.76987l-0.829588,-0.82905c-0.213046,-0.213046,-0.586414,-0.246939,-0.833354,-0.0785472l-0.968928,0.662809c-0.24694,0.168392,-0.650436,0.445459,-0.897375,0.616542L119.682,43.959c-0.246402,0.16893,-0.667651,0.199596,-0.935573,0.0683253l-8.35882,-3.42003c-0.282985,-0.095225,-0.561128,-0.41318,-0.616542,-0.706387l-1.90719,-10.2483c-0.0559515,-0.295897,-0.145797,-0.774174,-0.19852,-1.069l-0.213584,-1.15454c-0.0559515,-0.294283,-0.345931,-0.533153,-0.642366,-0.533153l-1.17337,0l-1.08729,0l-3.40013,0l-1.08729,0l-3.39959,0l-1.08729,0l-1.17175,0c-0.300739,0,-0.59018,0.23887,-0.642904,0.534229l-0.213584,1.154c-0.0559515,0.294821,-0.145797,0.773636,-0.197982,1.069l-1.90773,10.2483c-0.0559515,0.294283,-0.330329,0.613314,-0.616542,0.706387l-8.35829,3.42003c-0.267921,0.131271,-0.689171,0.101143,-0.935573,-0.0683253L72.9768,38.09c-0.24694,-0.168392,-0.650436,-0.446535,-0.897375,-0.616542l-0.967853,-0.662809c-0.24694,-0.168392,-0.620846,-0.134499,-0.833354,0.0785472l-0.829588,0.82905l-0.770408,0.76987l-2.40484,2.40591l-0.769332,0.769332l-2.4043,2.40484l-0.770408,0.769332l-0.82905,0.82905c-0.213046,0.213046,-0.24694,0.588028,-0.0785472,0.834968l0.662272,0.966776c0.168392,0.246939,0.44546,0.651511,0.616542,0.898451l5.7474,8.37281c0.168392,0.247477,0.195292,0.666037,0.0575654,0.931807l-3.69549,8.62244c-0.099529,0.280833,-0.419098,0.557362,-0.713381,0.613852l-9.83239,1.82918c-0.294821,0.0548754,-0.774712,0.144721,-1.06953,0.19583l-1.15454,0.213584c-0.294283,0.0559514,-0.534229,0.34593,-0.534229,0.643979l0,1.17444l0,1.08729l0,3.39905l0,1.08729l0,3.3969l0,1.08729l0,1.1739c0,0.300201,0.241022,0.589642,0.535305,0.642903l1.154,0.213046c0.295359,0.0559514,0.774174,0.145797,1.06953,0.199596l9.53811,1.77538c0.294283,0.0548754,0.608472,0.331943,0.698855,0.616542l3.6702,9.17281c0.131271,0.268459,0.101143,0.689709,-0.0694013,0.936648l-5.40093,7.87032c-0.16893,0.247477,-0.446536,0.650973,-0.616542,0.896299l-0.662809,0.968928c-0.168392,0.246401,-0.134499,0.620846,0.0785472,0.833892l0.830126,0.82905l0.76987,0.76987l2.40591,2.40645l0.769332,0.769332l2.4043,2.4043l0.770408,0.769332l0.830126,0.82905c0.212508,0.212508,0.58749,0.245864,0.83443,0.0780092l0.966777,-0.661733c0.245864,-0.168392,0.64936,-0.446535,0.896299,-0.616542l7.69978,-5.28203c0.246402,-0.168392,0.660658,-0.183456,0.916743,-0.0328177l1.59946,0.899527c0.262003,0.143107,0.696703,0.37014,0.963549,0.504639l1.65487,0.847879c0.266845,0.135575,0.577806,0.0209818,0.692399,-0.257161l0.710153,-1.7162c0.114593,-0.278143,0.302891,-0.728445,0.41587,-1.00551l6.67867,-16.1409c0.115669,-0.275991,0.302891,-0.728445,0.415332,-1.00444l0.473435,-1.14324c0.114593,-0.276529,-0.00161398,-0.63053,-0.257699,-0.78601l-1.05501,-0.645055c-0.195292,-0.119973,-0.459447,-0.324949,-0.667113,-0.510557c-3.80793,-2.43819,-6.33274,-6.70395,-6.33274,-11.5594c0,-7.58034,6.14444,-13.7248,13.7237,-13.7248s13.7242,6.1439,13.7242,13.7248c0,4.85594,-2.52481,9.12116,-6.33274,11.5594c-0.208204,0.188298,-0.471821,0.392198,-0.666575,0.510557l-1.05501,0.645055c-0.256085,0.15548,-0.37014,0.509481,-0.257161,0.78601l0.473435,1.14324c0.115131,0.277605,0.302891,0.728445,0.414794,1.00444l6.67867,16.1409c0.115669,0.277067,0.302891,0.728445,0.414794,1.00551l0.712305,1.7162c0.114593,0.278143,0.425554,0.392198,0.692399,0.257161l1.65487,-0.847879c0.266845,-0.136651,0.701007,-0.362608,0.963549,-0.504639l1.59838,-0.899527c0.257699,-0.150638,0.671417,-0.137727,0.917281,0.0328177l7.70032,5.28203c0.245864,0.168392,0.650974,0.446535,0.895761,0.616542l0.969466,0.661733c0.245864,0.168392,0.620308,0.134499,0.832278,-0.0780092l0.82905,-0.82905l0.770946,-0.769332l2.40376,-2.40537l0.770408,-0.769332l2.40645,-2.40537l0.769332,-0.76987l0.830126,-0.82905c0.212508,-0.213046,0.245864,-0.58749,0.0780092,-0.833892l-0.663347,-0.968928c-0.168392,-0.245326,-0.445998,-0.648821,-0.616542,-0.895761l-5.40201,-7.87086c-0.168392,-0.246939,-0.200672,-0.667651,-0.0683253,-0.936648l3.66966,-9.17281c0.0903831,-0.284599,0.40511,-0.564356,0.699393,-0.616542l9.53811,-1.77538c0.294821,-0.0559514,0.775788,-0.145797,1.07007,-0.199058l1.15292,-0.213046c0.294821,-0.0559514,0.534229,-0.34593,0.534229,-0.642903l0,-1.1739l0,-1.08729l0,-3.3969l0,-1.08729l0.00107599,-3.39905l0,-1.08729l0,-1.17444C149.706,69.4933,149.465,69.2044,149.17,69.149"/>
     <path fill="black" id="path3028" d="M18.7179,8.6106c-0.168392,-0.775788,-0.483657,-1.4967,-0.916205,-2.13315l1.31109,-1.90988l-0.56328,-0.56328l-0.56328,-0.562204l-1.93517,1.32777c-0.628378,-0.406186,-1.33476,-0.701545,-2.09388,-0.855949l0,0l-0.43201,-2.31929l-0.795694,0l-0.796232,0L11.5023,3.91391l0,0c-0.758035,0.154404,-1.46496,0.449763,-2.09388,0.855949l-1.93463,-1.32777l-0.56328,0.562204L6.3478,4.56757l1.31056,1.90988c-0.43201,0.636448,-0.747275,1.35682,-0.915667,2.13315L4.50033,9.02755l0,0.795694l0,0.796232l2.19986,0.409414c0.148487,0.81291,0.457834,1.56933,0.892533,2.23591l-1.24546,1.81466l0.563818,0.562742l0.562204,0.563818l1.79152,-1.22932c0.216274,0.148486,0.443308,0.283523,0.678949,0.404572l1.25891,-3.04075c-0.8425,-0.515937,-1.4047,-1.44505,-1.4047,-2.50383c0,-1.61936,1.31217,-2.93207,2.93261,-2.93207c1.61936,0,2.931,1.31271,2.931,2.93207c0,1.06039,-0.562204,1.98789,-1.40417,2.50383l1.25891,3.04075c0.235642,-0.120511,0.461599,-0.256085,0.679487,-0.404572l1.79152,1.22932l0.56328,-0.563818l0.562204,-0.562742l-1.24438,-1.81466c0.435776,-0.666575,0.744585,-1.42353,0.892533,-2.23591l2.2004,-0.409414l0,-0.796232L20.9614,9.02755L18.7179,8.6106z"/>
     <path fill="black" d="M10.2795,19.8714l0,-2.3661l0.263617,-0.115131l0,0.75104c0.102757,-0.0731673,0.221116,-0.109751,0.354539,-0.109751c0.171082,0,0.317955,0.0602554,0.438466,0.180766c0.122125,0.121587,0.182918,0.266845,0.182918,0.43739l0,1.10827l-0.263079,0.114593l0,-1.21802c-0.00215198,-0.101143,-0.0371216,-0.186684,-0.105447,-0.252857c-0.0694013,-0.0688633,-0.152253,-0.103295,-0.248016,-0.103295c-0.101681,0,-0.187222,0.0344317,-0.256623,0.103295c-0.0677873,0.0677873,-0.101681,0.148486,-0.102757,0.243174l0,0.0096839l0,1.10343L10.2795,19.8714z"/>
     <path fill="black" d="M12.1829,19.3866c0,0.0365836,0.0145259,0.0742432,0.0430396,0.112441c0.0532615,0.0704773,0.136651,0.105985,0.251244,0.105985c0.0704773,0,0.132347,-0.0161398,0.186146,-0.0494955l0.098991,0.248015c-0.0850032,0.0451915,-0.180766,0.0672493,-0.284599,0.0672493c-0.164088,0,-0.309885,-0.0597174,-0.43739,-0.180766c-0.0850032,-0.0871551,-0.128043,-0.189374,-0.128043,-0.302891c0,-0.00484195,0,-0.00914591,0,-0.0118359c0,-0.204976,0.104371,-0.34862,0.315265,-0.435238l0.667651,-0.277605c0,-0.102219,-0.0338937,-0.19045,-0.103295,-0.260389s-0.156556,-0.105447,-0.261465,-0.105447c-0.0914591,0,-0.172696,0.0338937,-0.243174,0.102757c-0.0672493,0.0667113,-0.103295,0.149562,-0.104371,0.252857l0,0.0236718l-0.263617,0.117283l0,-0.145797c0,-0.15279,0.0661734,-0.301277,0.197444,-0.44008c0.112441,-0.118359,0.253934,-0.175924,0.424478,-0.175924c0.170006,0,0.316341,0.0586414,0.43739,0.17969c0.121587,0.121587,0.180766,0.265769,0.180766,0.43739l0,1.10881l-0.263079,0.114593l0,-0.921585l-0.541761,0.22004C12.2394,19.2236,12.1829,19.2968,12.1829,19.3866z"/>
     <path fill="black" d="M13.5548,19.8714l0,-1.22179c0,-0.170544,0.0597174,-0.316341,0.181304,-0.43739c0.120511,-0.120511,0.265231,-0.180766,0.43739,-0.180766c0.172696,0,0.320645,0.0602554,0.43739,0.180766c0.123201,0.124815,0.182918,0.271149,0.182918,0.43739l0,0.00699393l-0.263079,0.115669l0,-0.117821c-0.00215198,-0.101681,-0.0360456,-0.186684,-0.104371,-0.253395c-0.0704773,-0.0683253,-0.152253,-0.102757,-0.248016,-0.102757c-0.100605,0,-0.185608,0.0344317,-0.255547,0.102757c-0.0704773,0.0694013,-0.103833,0.151176,-0.103833,0.248553c0,0.00215198,0,0.00376596,0,0.00484195l0,1.10343L13.5548,19.8714z"/>
     <path fill="black" d="M16.4314,17.388l0,1.86577c0,0.169468,-0.0602554,0.316341,-0.18238,0.43739c-0.122125,0.120511,-0.267383,0.17969,-0.437928,0.17969c-0.169468,0,-0.316341,-0.0591794,-0.43739,-0.17969c-0.121049,-0.121587,-0.180766,-0.266845,-0.180766,-0.43739l0,-0.604706c0,-0.170006,0.0597174,-0.316341,0.180766,-0.43739c0.120511,-0.121587,0.265769,-0.180766,0.43739,-0.180766c0.134499,0,0.254472,0.0360456,0.358304,0.111365l0,-0.639138L16.4314,17.388zM15.4561,19.2478c0,0.101143,0.0360456,0.186146,0.110289,0.253933c0.0753193,0.0683253,0.158708,0.102219,0.255547,0.102219c0.0919971,0,0.172158,-0.0338937,0.24156,-0.102219c0.0683253,-0.0672493,0.102757,-0.151176,0.105985,-0.253933l0,-0.594484c-0.00322797,-0.101143,-0.0376596,-0.186146,-0.105985,-0.252857c-0.0694013,-0.0688633,-0.157632,-0.102757,-0.261465,-0.102757c-0.0919971,0,-0.172158,0.0338937,-0.24156,0.102757c-0.0677873,0.0677873,-0.101681,0.149562,-0.102757,0.243174l0,0.0096839l0,0.594484L15.4561,19.2478z"/>
     <path fill="black" d="M16.6854,19.4238L16.6854,18.1466l0.262541,-0.115669l-0.00161398,1.3848c0,0.0559514,0.0182918,0.101143,0.0554135,0.140955c0.0349697,0.0365836,0.0785472,0.0559514,0.127505,0.0559514c0.0521855,0,0.0963011,-0.0188298,0.131271,-0.0559514c0.0371216,-0.0398116,0.0559515,-0.0860791,0.0559515,-0.139879L17.3164,19.4162l0.00215198,-1.26913l0.262541,-0.115669l-0.00268997,1.3848c0,0.0559514,0.0182918,0.101143,0.0554135,0.139879s0.0785472,0.0570274,0.128043,0.0570274c0.0505715,0,0.0946871,-0.0188298,0.130733,-0.0570274c0.0365836,-0.0371216,0.0559515,-0.0839271,0.0559515,-0.139879l0.00268997,-1.26913l0.262003,-0.115669l0,1.39341c0,0.123201,-0.0430396,0.229186,-0.131271,0.315265c-0.0866172,0.0882311,-0.192602,0.131271,-0.316341,0.131271c-0.128043,0,-0.235104,-0.0430396,-0.317417,-0.126429c-0.0871551,0.0833892,-0.192602,0.126429,-0.315265,0.126429c-0.131271,0,-0.238332,-0.0430396,-0.321721,-0.126429C16.7295,19.6567,16.6864,19.5502,16.6854,19.4238z"/>
     <path fill="black" d="M18.7319,19.3866c0,0.0365836,0.0129119,0.0742432,0.0419636,0.112441c0.0532615,0.0704773,0.136651,0.105985,0.25232,0.105985c0.0699393,0,0.132347,-0.0161398,0.186146,-0.0494955l0.098991,0.248015c-0.0860792,0.0451915,-0.180766,0.0672493,-0.283523,0.0672493c-0.165164,0,-0.309885,-0.0597174,-0.43739,-0.180766c-0.0850032,-0.0871551,-0.128043,-0.189374,-0.128043,-0.302891c0,-0.00484195,0,-0.00914591,0,-0.0118359c0,-0.204976,0.103833,-0.34862,0.314189,-0.435238l0.668189,-0.277605c0,-0.102219,-0.0344317,-0.19045,-0.103833,-0.260389c-0.0683253,-0.0704773,-0.15548,-0.105447,-0.260389,-0.105447c-0.0919971,0,-0.173234,0.0338937,-0.242636,0.102757c-0.0683253,0.0667113,-0.102757,0.149562,-0.104909,0.252857l0,0.0236718l-0.262541,0.117283l0,-0.145797c0,-0.15279,0.0656354,-0.301277,0.196368,-0.44008c0.111365,-0.118359,0.253934,-0.175924,0.423402,-0.175924c0.171082,0,0.317955,0.0586414,0.43739,0.17969c0.120511,0.121587,0.180766,0.265769,0.180766,0.43739l0,1.10881l-0.263079,0.114593l0,-0.921585l-0.541223,0.22004C18.7884,19.2236,18.7319,19.2968,18.7319,19.3866z"/>
     <path fill="black" d="M20.1043,19.8714l0,-1.22179c0,-0.170544,0.0597174,-0.316341,0.180766,-0.43739c0.121049,-0.120511,0.266307,-0.180766,0.43739,-0.180766c0.173772,0,0.320645,0.0602554,0.438466,0.180766c0.121587,0.124815,0.18238,0.271149,0.18238,0.43739l0,0.00699393l-0.262541,0.115669l0,-0.117821c-0.00215198,-0.101681,-0.0360456,-0.186684,-0.104909,-0.253395c-0.0704773,-0.0683253,-0.152253,-0.102757,-0.248016,-0.102757c-0.100605,0,-0.18507,0.0344317,-0.255547,0.102757c-0.0704773,0.0694013,-0.104909,0.151176,-0.104909,0.248553c0,0.00215198,0,0.00376596,0,0.00484195l0,1.10343L20.1043,19.8714z"/>
     <path fill="black" d="M22.3698,19.6051c0.0919971,0,0.172158,-0.0344317,0.243174,-0.102757c0.0677873,-0.0672493,0.102219,-0.151176,0.104371,-0.253395l0,-0.0242098l0.262541,-0.115669l0,0.144721c0,0.15279,-0.0656354,0.301277,-0.196368,0.439542c-0.111365,0.119435,-0.253934,0.177538,-0.423402,0.177538c-0.171082,0,-0.317417,-0.0597174,-0.43739,-0.180766s-0.180228,-0.265769,-0.180228,-0.43739l0,-0.604706c0,-0.170006,0.0597174,-0.316341,0.180228,-0.43739c0.120511,-0.121587,0.266307,-0.181842,0.43739,-0.181842c0.164088,0,0.309885,0.0602554,0.43739,0.181842c0.123201,0.113517,0.18238,0.258775,0.18238,0.43739l0,0.154404L22.004,19.2365c0,0.103833,0.0338937,0.190988,0.102757,0.262003C22.1767,19.569,22.2649,19.6051,22.3698,19.6051zM22.3505,18.2977c-0.0919971,0,-0.172696,0.0338937,-0.241022,0.102757c-0.0694013,0.0694013,-0.103833,0.151714,-0.103833,0.248553c0,0.00215198,0,0.00376596,0,0.00484195l0,0.295897l0.711229,-0.316341c-0.00537995,-0.0925351,-0.0398116,-0.16893,-0.102219,-0.232414C22.542,18.3316,22.4548,18.2977,22.3505,18.2977z"/>
     <path fill="black" stroke="black" stroke-width="0.107599" d="M2.92239,17.9792c-0.170006,0,-0.316879,0.0602554,-0.43739,0.180766c-0.121049,0.120511,-0.180766,0.266307,-0.180766,0.43739l0,0.604168c0,0.169468,0.0597174,0.316879,0.180766,0.43739c0.120511,0.121049,0.265769,0.180228,0.43739,0.180228c0.17162,0,0.317417,-0.0591794,0.438466,-0.180228c0.121587,-0.120511,0.18238,-0.266307,0.18238,-0.43739l0,-0.604168c0,-0.171082,-0.0607934,-0.317417,-0.18238,-0.43739C3.23927,18.04,3.09293,17.9792,2.92239,17.9792zM3.28069,19.1978c-0.00215198,0.101143,-0.0365836,0.186684,-0.104909,0.253933c-0.0704773,0.0688633,-0.151177,0.102219,-0.243174,0.102219c-0.0952251,0,-0.180228,-0.0338937,-0.255009,-0.102219c-0.0737053,-0.0688633,-0.110289,-0.15279,-0.110289,-0.253933l0,0l0,-0.593946l0,-0.0112979c0.00107599,-0.094687,0.0349697,-0.17431,0.102757,-0.242636c0.0688633,-0.0694013,0.149563,-0.102757,0.24156,-0.102757c0.104909,0,0.192064,0.0338937,0.262541,0.102757c0.0683253,0.0672493,0.103295,0.151176,0.105985,0.253933L3.28069,19.1978L3.28069,19.1978z"/>
     <path fill="black" stroke="black" stroke-width="0.107599" d="M4.64774,17.9792c-0.171082,0,-0.317417,0.0602554,-0.439004,0.180766c-0.121587,0.120511,-0.181842,0.266307,-0.181842,0.43739l0,1.86523l0.262541,-0.115669l0,-0.639138c0.103295,0.0753192,0.223806,0.111365,0.358304,0.111365c0.170544,0,0.316341,-0.0591794,0.43739,-0.180228c0.121049,-0.120511,0.180766,-0.266307,0.180766,-0.43739l0,-0.604168c0,-0.171082,-0.0602554,-0.317417,-0.180766,-0.43739C4.96408,18.0395,4.81774,17.9792,4.64774,17.9792zM5.00174,19.1978c-0.00215198,0.101143,-0.0365836,0.186684,-0.104909,0.253933c-0.0704773,0.0688633,-0.151177,0.102219,-0.243712,0.102219c-0.0946871,0,-0.17969,-0.0338937,-0.255009,-0.102219c-0.0737053,-0.0688633,-0.109751,-0.15279,-0.109751,-0.253933l0,0l0,-0.593946l0,-0.0112979c0.00107599,-0.094687,0.0355077,-0.17431,0.103295,-0.242636c0.0688633,-0.0694013,0.148487,-0.102757,0.241022,-0.102757c0.105985,0,0.19314,0.0338937,0.263617,0.102757c0.0672493,0.0672493,0.102219,0.151176,0.104371,0.253933L5.00174,19.1978L5.00174,19.1978z"/>
     <path fill="black" stroke="black" stroke-width="0.107599" d="M6.36555,17.9792c-0.170006,0,-0.316879,0.0602554,-0.43739,0.180766c-0.121587,0.120511,-0.180766,0.266307,-0.180766,0.43739l0,0.604168c0,0.169468,0.0597174,0.316879,0.180766,0.43739c0.119973,0.121049,0.265769,0.180228,0.43739,0.180228s0.312037,-0.0581034,0.42394,-0.177538c0.131809,-0.139879,0.196906,-0.286213,0.196906,-0.439542l0,-0.145797l-0.262541,0.117283l0,0.0231338c-0.00161398,0.101681,-0.0365836,0.187222,-0.104909,0.253395c-0.0704773,0.0699393,-0.151177,0.103295,-0.243712,0.103295c-0.104909,0,-0.191526,-0.0349696,-0.260389,-0.105447c-0.0694013,-0.0704773,-0.103833,-0.158708,-0.103833,-0.261465l0.975922,-0.435238l0,-0.154404c0,-0.177538,-0.0602554,-0.323873,-0.181842,-0.43739C6.67598,18.0395,6.52964,17.9792,6.36555,17.9792zM6.01048,18.8981l0,-0.295897c0,-0.00107599,0,-0.00376596,0,-0.00591794c0,-0.095763,0.0344317,-0.178614,0.102757,-0.248015c0.0694013,-0.0694013,0.150101,-0.102757,0.24156,-0.102757c0.105447,0,0.192602,0.0338937,0.263617,0.102757c0.0634834,0.0629454,0.097915,0.140955,0.102757,0.232952L6.01048,18.8981z"/>
     <path fill="black" stroke="black" stroke-width="0.107599" d="M8.52614,18.16c-0.122663,-0.120511,-0.268997,-0.180228,-0.438466,-0.180228c-0.170544,0,-0.316879,0.0597174,-0.43739,0.180228c-0.120511,0.120511,-0.180228,0.266307,-0.180228,0.43739l0,1.22179l0.263079,-0.115131l0,-1.10289c0,-0.00107599,0,-0.00268997,0,-0.00484195c0,-0.097915,0.0344317,-0.178614,0.104909,-0.246939c0.0715533,-0.0704773,0.156556,-0.104371,0.254472,-0.104371c0.0952251,0,0.178076,0.0338937,0.248554,0.103295c0.0672493,0.0661733,0.102219,0.149562,0.104909,0.252857l0,1.21802l0.263079,-0.115131l0,-1.10773C8.70798,18.4263,8.64719,18.2805,8.52614,18.16z"/>
    </g>
   </g>
  </g>
  <g partID="6999742">
   <g transform="translate(158.632,135.317)">
    <g transform="matrix(-1,0,0,-1,0,0)">
     <g id="silkscreen">
      <line stroke="black" id="line7" y1="3.6" x1="5.76" y2="3.6" stroke-width="0.72" x2="15.84"/>
      <path stroke-opacity="1" fill="none" stroke="black" style="opacity:1;fill-rule:nonzero;stroke-linecap:round;stroke-linejoin:round;stroke-miterlimit:4;stroke-dasharray:none;" fill-opacity="1" id="path2413" stroke-width="0.72" d="M16.7479,11.2431A6.11074,3.79092,0,0,1,4.52687,11.2864"/>
     </g>
    </g>
   </g>
  </g>
  <g partID="7002932">
   <g transform="translate(99.1157,131.94)">
    <g transform="matrix(-1,0,0,-1,0,0)">
     <g id="silkscreen">
      <line stroke="black" y1="6.38928" stroke-width="0.72" x1="20.137" y2="12.0586" x2="20.137"/>
      <line stroke="black" y1="0.72" stroke-width="0.72" x1="5.96376" y2="0.72" x2="18.0115"/>
      <line stroke="black" y1="17.7278" stroke-width="0.72" x1="5.96376" y2="17.7278" x2="18.0115"/>
      <line stroke="black" y1="6.38928" stroke-width="0.72" x1="3.12912" y2="12.0586" x2="3.12912"/>
      <line stroke="black" y1="7.80696" stroke-width="0.72" x1="11.633" y2="10.6416" x2="11.633"/>
      <line stroke="black" y1="9.22392" stroke-width="0.72" x1="13.0507" y2="9.22392" x2="10.2161"/>
     </g>
    </g>
   </g>
  </g>
  <g partID="7003302">
   <g transform="translate(133.132,131.94)">
    <g transform="matrix(-1,0,0,-1,0,0)">
     <g id="silkscreen">
      <line stroke="black" y1="6.38928" stroke-width="0.72" x1="20.137" y2="12.0586" x2="20.137"/>
      <line stroke="black" y1="0.72" stroke-width="0.72" x1="5.96376" y2="0.72" x2="18.0115"/>
      <line stroke="black" y1="17.7278" stroke-width="0.72" x1="5.96376" y2="17.7278" x2="18.0115"/>
      <line stroke="black" y1="6.38928" stroke-width="0.72" x1="3.12912" y2="12.0586" x2="3.12912"/>
      <line stroke="black" y1="7.80696" stroke-width="0.72" x1="11.633" y2="10.6416" x2="11.633"/>
      <line stroke="black" y1="9.22392" stroke-width="0.72" x1="13.0507" y2="9.22392" x2="10.2161"/>
     </g>
    </g>
   </g>
  </g>
  <g partID="7303292">
   <g transform="translate(152.022,79.8653)">
    <g transform="matrix(-1,0,0,-1,0,0)">
     <g id="silkscreen" transform="matrix(1, 0, 0, 1, 0, -809.49)">
      <g style="display:inline" transform="matrix(1, 0, 0, 1, -3.60117, 710.491)">
       <path stroke-opacity="1" fill="none" stroke="black" style="stroke-linecap:butt;stroke-linejoin:miter;stroke-miterlimit:4;stroke-dasharray:none;display:inline" id="path14906" stroke-width="1" d="m7.20117,127.799,0,-25.2,52.2,0,0,3.6,10.8,0,0,-3.6,52.2,0,0,25.2z"/>
       <path stroke-opacity="1" fill="black" stroke="black" style="stroke-linecap:butt;stroke-linejoin:miter;stroke-miterlimit:4;stroke-dasharray:none" fill-opacity="1" id="path4994" stroke-width="0.36" d="m106.2,107.64,1.8,-2.88,1.8,2.88z"/>
      </g>
     </g>
    </g>
   </g>
  </g>
  <g partID="12041">
   <g id="silkscreen">
    <rect width="166.775" x="0.576" y="0.576" fill="none" height="139.215" stroke="black" stroke-width="0.576"/>
   </g>
  </g>
  <g id="partLabel" partID="6445070">
   <g transform="translate(13.4845,116.692)">
    <g fill="#000000" font-family="'OCRA'" stroke="none" font-style="normal" fill-opacity="1" font-weight="normal" id="silkscreenLabel" font-size="5">
     <text x="0" y="3.75">S1</text>
    </g>
   </g>
  </g>
  <g id="partLabel" partID="7148160">
   <g transform="translate(12.9289,82.9932)">
    <g fill="#000000" font-family="'OCRA'" stroke="none" font-style="normal" fill-opacity="1" font-weight="normal" id="silkscreenLabel" font-size="5">
     <text x="0" y="3.75">RL1</text>
    </g>
   </g>
  </g>
  <g id="partLabel" partID="7007630">
   <g transform="translate(98.7071,98.0193)">
    <g fill="#000000" font-family="'OCRA'" stroke="none" font-style="normal" fill-opacity="1" font-weight="normal" id="silkscreenLabel" font-size="5">
     <text x="0" y="3.75">R5</text>
    </g>
   </g>
  </g>
  <g id="partLabel" partID="6785020">
   <g transform="translate(78.9325,97.8531)">
    <g fill="#000000" font-family="'OCRA'" stroke="none" font-style="normal" fill-opacity="1" font-weight="normal" id="silkscreenLabel" font-size="5">
     <text x="0" y="3.75">R4</text>
    </g>
   </g>
  </g>
  <g id="partLabel" partID="7003330">
   <g transform="translate(138.501,98.1282)">
    <g fill="#000000" font-family="'OCRA'" stroke="none" font-style="normal" fill-opacity="1" font-weight="normal" id="silkscreenLabel" font-size="5">
     <text x="0" y="3.75">R7</text>
    </g>
   </g>
  </g>
  <g id="partLabel" partID="6784920">
   <g transform="translate(58.9633,97.8531)">
    <g fill="#000000" font-family="'OCRA'" stroke="none" font-style="normal" fill-opacity="1" font-weight="normal" id="silkscreenLabel" font-size="5">
     <text x="0" y="3.75">R3</text>
    </g>
   </g>
  </g>
  <g id="partLabel" partID="7007810">
   <g transform="translate(151.159,92.1389)">
    <g fill="#000000" font-family="'OCRA'" stroke="none" font-style="normal" fill-opacity="1" font-weight="normal" id="silkscreenLabel" font-size="5">
     <text x="0" y="3.75">R8</text>
    </g>
   </g>
  </g>
  <g id="partLabel" partID="6815150">
   <g transform="translate(140.667,35.6422)">
    <g fill="#000000" font-family="'OCRA'" stroke="none" font-style="normal" fill-opacity="1" font-weight="normal" id="silkscreenLabel" font-size="5">
     <text x="0" y="3.75">R10</text>
    </g>
   </g>
  </g>
  <g id="partLabel" partID="6784820">
   <g transform="translate(19.4455,98.1282)">
    <g fill="#000000" font-family="'OCRA'" stroke="none" font-style="normal" fill-opacity="1" font-weight="normal" id="silkscreenLabel" font-size="5">
     <text x="0" y="3.75">R1</text>
    </g>
   </g>
  </g>
  <g id="partLabel" partID="6832280">
   <g transform="translate(23.1525,28.7869)">
    <g fill="#000000" font-family="'OCRA'" stroke="none" font-style="normal" fill-opacity="1" font-weight="normal" id="silkscreenLabel" font-size="5">
     <text x="0" y="3.75">R9</text>
    </g>
   </g>
  </g>
  <g id="partLabel" partID="7007910">
   <g transform="translate(118.724,97.9416)">
    <g fill="#000000" font-family="'OCRA'" stroke="none" font-style="normal" fill-opacity="1" font-weight="normal" id="silkscreenLabel" font-size="5">
     <text x="0" y="3.75">R6</text>
    </g>
   </g>
  </g>
  <g id="partLabel" partID="6784700">
   <g transform="translate(39.229,97.8442)">
    <g fill="#000000" font-family="'OCRA'" stroke="none" font-style="normal" fill-opacity="1" font-weight="normal" id="silkscreenLabel" font-size="5">
     <text x="0" y="3.75">R2</text>
    </g>
   </g>
  </g>
  <g id="partLabel" partID="7383500">
   <g transform="translate(7.46712,7.56075)">
    <g fill="#000000" font-family="'OCRA'" stroke="none" font-style="normal" fill-opacity="1" font-weight="normal" id="silkscreenLabel" font-size="5">
     <text x="0" y="3.75">LCD1</text>
    </g>
   </g>
  </g>
  <g id="partLabel" partID="6999740">
   <g transform="translate(150.298,116.595)">
    <g fill="#000000" font-family="'OCRA'" stroke="none" font-style="normal" fill-opacity="1" font-weight="normal" id="silkscreenLabel" font-size="5">
     <text x="0" y="3.75">Q2</text>
    </g>
   </g>
  </g>
  <g id="partLabel" partID="7108110">
   <g transform="translate(125.154,35.2774)">
    <g fill="#000000" font-family="'OCRA'" stroke="none" font-style="normal" fill-opacity="1" font-weight="normal" id="silkscreenLabel" font-size="5">
     <text x="0" y="3.75">Q1</text>
    </g>
   </g>
  </g>
  <g id="partLabel" partID="7002930">
   <g transform="translate(82.0494,115.999)">
    <g fill="#000000" font-family="'OCRA'" stroke="none" font-style="normal" fill-opacity="1" font-weight="normal" id="silkscreenLabel" font-size="5">
     <text x="0" y="3.75">S3</text>
    </g>
   </g>
  </g>
  <g id="partLabel" partID="7003300">
   <g transform="translate(116.065,115.999)">
    <g fill="#000000" font-family="'OCRA'" stroke="none" font-style="normal" fill-opacity="1" font-weight="normal" id="silkscreenLabel" font-size="5">
     <text x="0" y="3.75">S4</text>
    </g>
   </g>
  </g>
  <g id="partLabel" partID="7125070">
   <g transform="translate(142.357,103.743)">
    <g fill="#000000" font-family="'OCRA'" stroke="none" font-style="normal" fill-opacity="1" font-weight="normal" id="silkscreenLabel" font-size="5">
     <text x="0" y="3.75">R11</text>
    </g>
   </g>
  </g>
  <g id="partLabel" partID="7303290">
   <g transform="translate(137.393,52.0748)">
    <g fill="#000000" font-family="'OCRA'" stroke="none" font-style="normal" fill-opacity="1" font-weight="normal" id="silkscreenLabel" font-size="5">
     <text x="0" y="3.75">Pi1</text>
    </g>
   </g>
  </g>
  <g id="partLabel" partID="6437830">
   <g transform="translate(47.7671,116.159)">
    <g fill="#000000" font-family="'OCRA'" stroke="none" font-style="normal" fill-opacity="1" font-weight="normal" id="silkscreenLabel" font-size="5">
     <text x="0" y="3.75">S2</text>
    </g>
   </g>
  </g>
  <g partID="7383501">
   <g transform="translate(-13.0654,7.65756)">
    <g id="copper1">
     <g id="copper0">
      <rect width="3.96" x="20.664" y="5.184" fill="white" height="3.96" stroke="white" stroke-width="2.16"/>
      <circle fill="white" cx="22.68" cy="7.2" stroke="white" id="connector0pin" r="1.98" stroke-width="2.16"/>
      <circle fill="white" cx="29.88" cy="7.2" stroke="white" id="connector1pin" r="1.98" stroke-width="2.16"/>
      <circle fill="white" cx="37.08" cy="7.2" stroke="white" id="connector2pin" r="1.98" stroke-width="2.16"/>
      <circle fill="white" cx="44.28" cy="7.2" stroke="white" id="connector3pin" r="1.98" stroke-width="2.16"/>
      <circle fill="white" cx="51.48" cy="7.2" stroke="white" id="connector4pin" r="1.98" stroke-width="2.16"/>
      <circle fill="white" cx="58.68" cy="7.2" stroke="white" id="connector5pin" r="1.98" stroke-width="2.16"/>
      <circle fill="white" cx="65.88" cy="7.2" stroke="white" id="connector6pin" r="1.98" stroke-width="2.16"/>
      <circle fill="white" cx="73.08" cy="7.2" stroke="white" id="connector7pin" r="1.98" stroke-width="2.16"/>
      <circle fill="white" cx="80.28" cy="7.2" stroke="white" id="connector8pin" r="1.98" stroke-width="2.16"/>
      <circle fill="white" cx="87.48" cy="7.2" stroke="white" id="connector9pin" r="1.98" stroke-width="2.16"/>
      <circle fill="white" cx="94.68" cy="7.2" stroke="white" id="connector10pin" r="1.98" stroke-width="2.16"/>
      <circle fill="white" cx="101.88" cy="7.2" stroke="white" id="connector11pin" r="1.98" stroke-width="2.16"/>
      <circle fill="white" cx="109.08" cy="7.2" stroke="white" id="connector12pin" r="1.98" stroke-width="2.16"/>
      <circle fill="white" cx="116.28" cy="7.2" stroke="white" id="connector13pin" r="1.98" stroke-width="2.16"/>
      <circle fill="white" cx="123.48" cy="7.2" stroke="white" id="connector14pin" r="1.98" stroke-width="2.16"/>
      <circle fill="white" cx="130.68" cy="7.2" stroke="white" id="connector15pin" r="1.98" stroke-width="2.16"/>
     </g>
    </g>
   </g>
  </g>
  <g partID="6832281">
   <g transform="translate(37.5745,27.2341)">
    <g transform="matrix(0,1,-1,0,0,0)">
     <g id="copper1">
      <g id="copper0">
       <circle fill="white" cx="3.528" cy="17.928" stroke="white" id="connector2pad" r="2.52" stroke-width="2.808"/>
       <rect width="5.04" x="1.008" y="1.008" fill="white" height="5.04" stroke="white" stroke-width="2.808"/>
       <circle fill="white" cx="3.528" cy="3.528" stroke="white" id="connector0pad" r="2.52" stroke-width="2.808"/>
       <circle fill="white" cx="17.928" cy="10.728" stroke="white" id="connector1pad" r="2.52" stroke-width="2.808"/>
      </g>
     </g>
    </g>
   </g>
  </g>
  <g partID="6445071">
   <g transform="translate(31.0845,131.94)">
    <g transform="matrix(-1,0,0,-1,0,0)">
     <g id="copper1">
      <g id="copper0">
       <circle fill="white" cx="20.8462" cy="15.6024" stroke="white" id="connector0pad" r="1.98" stroke-width="2.16"/>
       <circle fill="white" cx="2.42064" cy="15.6024" stroke="white" id="connector1pad" r="1.98" stroke-width="2.16"/>
       <circle fill="white" cx="20.8462" cy="2.84616" stroke="white" id="connector2pad" r="1.98" stroke-width="2.16"/>
       <circle fill="white" cx="2.42064" cy="2.84616" stroke="white" id="connector3pad" r="1.98" stroke-width="2.16"/>
      </g>
     </g>
    </g>
   </g>
  </g>
  <g partID="6437831">
   <g transform="translate(65.1005,131.94)">
    <g transform="matrix(-1,0,0,-1,0,0)">
     <g id="copper1">
      <g id="copper0">
       <circle fill="white" cx="20.8462" cy="15.6024" stroke="white" id="connector0pad" r="1.98" stroke-width="2.16"/>
       <circle fill="white" cx="2.42064" cy="15.6024" stroke="white" id="connector1pad" r="1.98" stroke-width="2.16"/>
       <circle fill="white" cx="20.8462" cy="2.84616" stroke="white" id="connector2pad" r="1.98" stroke-width="2.16"/>
       <circle fill="white" cx="2.42064" cy="2.84616" stroke="white" id="connector3pad" r="1.98" stroke-width="2.16"/>
      </g>
     </g>
    </g>
   </g>
  </g>
  <g partID="7108110">
   <g transform="translate(123.766,34.5583)">
    <g transform="matrix(0,-1,1,0,0,0)">
     <g id="copper1">
      <!-- unten links -->
      <rect width="2.26772" x="0.425197" y="5.66929" fill="white" height="2.55118" stroke="white" fill-opacity="1" id="connector0pin" stroke-width="0.72"/>
      <g width="0" x="1.55906" y="6.94488" fill="white" height="0" stroke="white" id="connector0terminal" stroke-width="0.72"/>
      <!-- unten rechts -->
      <rect width="2.26772" x="5.81102" y="5.66929" fill="white" height="2.55118" stroke="white" fill-opacity="1" id="connector1pin" stroke-width="0.72"/>
      <g width="0" x="6.94488" y="6.94488" fill="white" height="0" stroke="white" id="connector1terminal" stroke-width="0.72"/>
      <!-- oben mitte -->
      <rect width="2.26772" x="3.11811" y="0" fill="white" height="2.55118" stroke="white" fill-opacity="1" id="connector2pin" stroke-width="0.72"/>
      <g width="0" x="4.25197" y="1.27559" fill="white" height="0" stroke="white" id="connector2terminal" stroke-width="0.72"/>
     </g>
    </g>
   </g>
  </g>
  <g partID="7125070">
   <g transform="translate(154.805,113.928)">
    <g transform="matrix(-1,0,0,-1,0,0)">
     <g id="copper1">
      <rect width="4.53543" x="0.566929" y="0.566929" fill="white" height="5.38583" stroke="white" fill-opacity="1" id="connector0pad" stroke-width="0.72"/>
      <rect width="4.53543" x="9.35433" y="0.566929" fill="white" height="5.38583" stroke="white" fill-opacity="1" id="connector1pad" stroke-width="0.72"/>
     </g>
    </g>
   </g>
  </g>
  <g partID="6815150">
   <g transform="translate(140.774,30.1646)">
    <g transform="matrix(0,1,-1,0,0,0)">
     <g id="copper1">
      <rect width="4.53543" x="0.566929" y="0.566929" fill="white" height="5.38583" stroke="white" fill-opacity="1" id="connector0pad" stroke-width="0.72"/>
      <rect width="4.53543" x="9.35433" y="0.566929" fill="white" height="5.38583" stroke="white" fill-opacity="1" id="connector1pad" stroke-width="0.72"/>
     </g>
    </g>
   </g>
  </g>
  <g partID="6999741">
   <g transform="translate(158.632,135.317)">
    <g transform="matrix(-1,0,0,-1,0,0)">
     <g id="copper1">
      <g id="copper0">
       <rect width="3.96" x="16.02" y="6.228" fill="white" height="3.96" stroke="white" id="rect10" stroke-width="2.16"/>
       <circle fill="white" cx="3.6" cy="8.208" stroke="white" id="connector0pin" r="1.98" stroke-width="2.16"/>
       <circle fill="white" cx="10.8" cy="8.208" stroke="white" id="connector1pin" r="1.98" stroke-width="2.16"/>
       <circle fill="white" cx="18" cy="8.208" stroke="white" id="connector2pin" r="1.98" stroke-width="2.16"/>
      </g>
     </g>
    </g>
   </g>
  </g>
  <g partID="7002931">
   <g transform="translate(99.1157,131.94)">
    <g transform="matrix(-1,0,0,-1,0,0)">
     <g id="copper1">
      <g id="copper0">
       <circle fill="white" cx="20.8462" cy="15.6024" stroke="white" id="connector0pad" r="1.98" stroke-width="2.16"/>
       <circle fill="white" cx="2.42064" cy="15.6024" stroke="white" id="connector1pad" r="1.98" stroke-width="2.16"/>
       <circle fill="white" cx="20.8462" cy="2.84616" stroke="white" id="connector2pad" r="1.98" stroke-width="2.16"/>
       <circle fill="white" cx="2.42064" cy="2.84616" stroke="white" id="connector3pad" r="1.98" stroke-width="2.16"/>
      </g>
     </g>
    </g>
   </g>
  </g>
  <g partID="7003301">
   <g transform="translate(133.132,131.94)">
    <g transform="matrix(-1,0,0,-1,0,0)">
     <g id="copper1">
      <g id="copper0">
       <circle fill="white" cx="20.8462" cy="15.6024" stroke="white" id="connector0pad" r="1.98" stroke-width="2.16"/>
       <circle fill="white" cx="2.42064" cy="15.6024" stroke="white" id="connector1pad" r="1.98" stroke-width="2.16"/>
       <circle fill="white" cx="20.8462" cy="2.84616" stroke="white" id="connector2pad" r="1.98" stroke-width="2.16"/>
       <circle fill="white" cx="2.42064" cy="2.84616" stroke="white" id="connector3pad" r="1.98" stroke-width="2.16"/>
      </g>
     </g>
    </g>
   </g>
  </g>
  <g partID="7148161">
   <g transform="translate(5.62244,46.6101)">
    <g transform="matrix(1,0,0,1,0,0)">
     <g id="copper1">
      <circle fill="white" cx="13.029" cy="32.333" stroke="white" id="connector11pad" r="2.16" stroke-width="1.72"/>
      <circle fill="white" cx="13.029" cy="25.134" stroke="white" id="connector10pad" r="2.16" stroke-width="1.72"/>
      <circle fill="white" cx="13.029" cy="17.934" stroke="white" id="connector9pad" r="2.16" stroke-width="1.72"/>
      <circle fill="white" cx="13.029" cy="10.734" stroke="white" id="connector8pad" r="2.16" stroke-width="1.72"/>
     </g>
    </g>
   </g>
  </g>
  <g partID="7303291">
   <g transform="translate(152.022,79.8653)">
    <g transform="matrix(-1,0,0,-1,0,0)">
     <g id="copper1" transform="matrix(1, 0, 0, 1, 0, -809.49)">
      <g stroke-opacity="1" fill="none" stroke="black" style="display:inline" transform="matrix(1, 0, 0, 1, -3.60117, 796.891)">
       <g transform="matrix(1, 0, 0, 1, -14.4, 0)">
        <path stroke-opacity="1" fill="white" stroke="white" style="stroke-linecap:round;stroke-linejoin:miter;stroke-miterlimit:4;stroke-dasharray:none;display:inline" id="connector5pad" stroke-width="2.16" d="m109.8,25.2a1.8,1.8,0,1,1,-3.6,0,1.8,1.8,0,1,1,3.6,0z"/>
       </g>
       <g transform="matrix(1, 0, 0, 1, -21.6, 0)">
        <path stroke-opacity="1" fill="white" stroke="white" style="stroke-linecap:round;stroke-linejoin:miter;stroke-miterlimit:4;stroke-dasharray:none;display:inline" id="connector7pad" stroke-width="2.16" d="m109.8,25.2a1.8,1.8,0,1,1,-3.6,0,1.8,1.8,0,1,1,3.6,0z"/>
       </g>
       <g transform="matrix(1, 0, 0, 1, -28.8, 0)">
        <path stroke-opacity="1" fill="white" stroke="white" style="stroke-linecap:round;stroke-linejoin:miter;stroke-miterlimit:4;stroke-dasharray:none;display:inline" id="connector9pad" stroke-width="2.16" d="m109.8,25.2a1.8,1.8,0,1,1,-3.6,0,1.8,1.8,0,1,1,3.6,0z"/>
       </g>
       <g transform="matrix(1, 0, 0, 1, -50.4, 0)">
        <path stroke-opacity="1" fill="white" stroke="white" style="stroke-linecap:round;stroke-linejoin:miter;stroke-miterlimit:4;stroke-dasharray:none;display:inline" id="connector15pad" stroke-width="2.16" d="m109.8,25.2a1.8,1.8,0,1,1,-3.6,0,1.8,1.8,0,1,1,3.6,0z"/>
       </g>
       <g transform="matrix(1, 0, 0, 1, -57.6, 0)">
        <path stroke-opacity="1" fill="white" stroke="white" style="stroke-linecap:round;stroke-linejoin:miter;stroke-miterlimit:4;stroke-dasharray:none;display:inline" id="connector17pad" stroke-width="2.16" d="m109.8,25.2a1.8,1.8,0,1,1,-3.6,0,1.8,1.8,0,1,1,3.6,0z"/>
       </g>
       <g transform="matrix(1, 0, 0, 1, -64.8, 0)">
        <path stroke-opacity="1" fill="white" stroke="white" style="stroke-linecap:round;stroke-linejoin:miter;stroke-miterlimit:4;stroke-dasharray:none;display:inline" id="connector19pad" stroke-width="2.16" d="m109.8,25.2a1.8,1.8,0,1,1,-3.6,0,1.8,1.8,0,1,1,3.6,0z"/>
       </g>
       <g transform="matrix(1, 0, 0, 1, -36, 0)">
        <path stroke-opacity="1" fill="white" stroke="white" style="stroke-linecap:round;stroke-linejoin:miter;stroke-miterlimit:4;stroke-dasharray:none;display:inline" id="connector11pad" stroke-width="2.16" d="m109.8,25.2a1.8,1.8,0,1,1,-3.6,0,1.8,1.8,0,1,1,3.6,0z"/>
       </g>
       <g transform="matrix(1, 0, 0, 1, -43.2, 0)">
        <path stroke-opacity="1" fill="white" stroke="white" style="stroke-linecap:round;stroke-linejoin:miter;stroke-miterlimit:4;stroke-dasharray:none;display:inline" id="connector13pad" stroke-width="2.16" d="m109.8,25.2a1.8,1.8,0,1,1,-3.6,0,1.8,1.8,0,1,1,3.6,0z"/>
       </g>
       <g transform="matrix(1, 0, 0, 1, -79.2, 0)">
        <path stroke-opacity="1" fill="white" stroke="white" style="stroke-linecap:round;stroke-linejoin:miter;stroke-miterlimit:4;stroke-dasharray:none;display:inline" id="connector23pad" stroke-width="2.16" d="m109.8,25.2a1.8,1.8,0,1,1,-3.6,0,1.8,1.8,0,1,1,3.6,0z"/>
       </g>
       <g transform="matrix(1, 0, 0, 1, -86.4, 0)">
        <path stroke-opacity="1" fill="white" stroke="white" style="stroke-linecap:round;stroke-linejoin:miter;stroke-miterlimit:4;stroke-dasharray:none;display:inline" id="connector25pad" stroke-width="2.16" d="m109.8,25.2a1.8,1.8,0,1,1,-3.6,0,1.8,1.8,0,1,1,3.6,0z"/>
       </g>
       <g transform="matrix(1, 0, 0, 1, -72, 0)">
        <path stroke-opacity="1" fill="white" stroke="white" style="stroke-linecap:round;stroke-linejoin:miter;stroke-miterlimit:4;stroke-dasharray:none;display:inline" id="connector21pad" stroke-width="2.16" d="m109.8,25.2a1.8,1.8,0,1,1,-3.6,0,1.8,1.8,0,1,1,3.6,0z"/>
       </g>
       <g transform="matrix(1, 0, 0, 1, -14.4, 7.2)">
        <path stroke-opacity="1" fill="white" stroke="white" style="stroke-linecap:round;stroke-linejoin:miter;stroke-miterlimit:4;stroke-dasharray:none;display:inline" id="connector6pad" stroke-width="2.16" d="m109.8,25.2a1.8,1.8,0,1,1,-3.6,0,1.8,1.8,0,1,1,3.6,0z"/>
       </g>
       <g transform="matrix(1, 0, 0, 1, -21.6, 7.2)">
        <path stroke-opacity="1" fill="white" stroke="white" style="stroke-linecap:round;stroke-linejoin:miter;stroke-miterlimit:4;stroke-dasharray:none;display:inline" id="connector8pad" stroke-width="2.16" d="m109.8,25.2a1.8,1.8,0,1,1,-3.6,0,1.8,1.8,0,1,1,3.6,0z"/>
       </g>
       <g transform="matrix(1, 0, 0, 1, -28.8, 7.2)">
        <path stroke-opacity="1" fill="white" stroke="white" style="stroke-linecap:round;stroke-linejoin:miter;stroke-miterlimit:4;stroke-dasharray:none;display:inline" id="connector10pad" stroke-width="2.16" d="m109.8,25.2a1.8,1.8,0,1,1,-3.6,0,1.8,1.8,0,1,1,3.6,0z"/>
       </g>
       <g transform="matrix(1, 0, 0, 1, -50.4, 7.2)">
        <path stroke-opacity="1" fill="white" stroke="white" style="stroke-linecap:round;stroke-linejoin:miter;stroke-miterlimit:4;stroke-dasharray:none;display:inline" id="connector16pad" stroke-width="2.16" d="m109.8,25.2a1.8,1.8,0,1,1,-3.6,0,1.8,1.8,0,1,1,3.6,0z"/>
       </g>
       <g transform="matrix(1, 0, 0, 1, -57.6, 7.2)">
        <path stroke-opacity="1" fill="white" stroke="white" style="stroke-linecap:round;stroke-linejoin:miter;stroke-miterlimit:4;stroke-dasharray:none;display:inline" id="connector18pad" stroke-width="2.16" d="m109.8,25.2a1.8,1.8,0,1,1,-3.6,0,1.8,1.8,0,1,1,3.6,0z"/>
       </g>
       <g transform="matrix(1, 0, 0, 1, -64.8, 7.2)">
        <path stroke-opacity="1" fill="white" stroke="white" style="stroke-linecap:round;stroke-linejoin:miter;stroke-miterlimit:4;stroke-dasharray:none;display:inline" id="connector20pad" stroke-width="2.16" d="m109.8,25.2a1.8,1.8,0,1,1,-3.6,0,1.8,1.8,0,1,1,3.6,0z"/>
       </g>
       <g transform="matrix(1, 0, 0, 1, -36, 7.2)">
        <path stroke-opacity="1" fill="white" stroke="white" style="stroke-linecap:round;stroke-linejoin:miter;stroke-miterlimit:4;stroke-dasharray:none;display:inline" id="connector12pad" stroke-width="2.16" d="m109.8,25.2a1.8,1.8,0,1,1,-3.6,0,1.8,1.8,0,1,1,3.6,0z"/>
       </g>
       <g transform="matrix(1, 0, 0, 1, -43.2, 7.2)">
        <path stroke-opacity="1" fill="white" stroke="white" style="stroke-linecap:round;stroke-linejoin:miter;stroke-miterlimit:4;stroke-dasharray:none;display:inline" id="connector14pad" stroke-width="2.16" d="m109.8,25.2a1.8,1.8,0,1,1,-3.6,0,1.8,1.8,0,1,1,3.6,0z"/>
       </g>
       <g transform="matrix(1, 0, 0, 1, -79.2, 7.2)">
        <path stroke-opacity="1" fill="white" stroke="white" style="stroke-linecap:round;stroke-linejoin:miter;stroke-miterlimit:4;stroke-dasharray:none;display:inline" id="connector24pad" stroke-width="2.16" d="m109.8,25.2a1.8,1.8,0,1,1,-3.6,0,1.8,1.8,0,1,1,3.6,0z"/>
       </g>
       <g transform="matrix(1, 0, 0, 1, -86.4, 7.2)">
        <path stroke-opacity="1" fill="white" stroke="white" style="stroke-linecap:round;stroke-linejoin:miter;stroke-miterlimit:4;stroke-dasharray:none;display:inline" id="connector26pad" stroke-width="2.16" d="m109.8,25.2a1.8,1.8,0,1,1,-3.6,0,1.8,1.8,0,1,1,3.6,0z"/>
       </g>
       <g transform="matrix(1, 0, 0, 1, -72, 7.2)">
        <path stroke-opacity="1" fill="white" stroke="white" style="stroke-linecap:round;stroke-linejoin:miter;stroke-miterlimit:4;stroke-dasharray:none;display:inline" id="connector22pad" stroke-width="2.16" d="m109.8,25.2a1.8,1.8,0,1,1,-3.6,0,1.8,1.8,0,1,1,3.6,0z"/>
       </g>
       <g transform="matrix(1, 0, 0, 1, 0, 7.2)">
        <path stroke-opacity="1" fill="white" stroke="white" style="stroke-linecap:round;stroke-linejoin:miter;stroke-miterlimit:4;stroke-dasharray:none;display:inline" id="connector2pad" stroke-width="2.16" d="m109.8,25.2a1.8,1.8,0,1,1,-3.6,0,1.8,1.8,0,1,1,3.6,0z"/>
       </g>
       <g transform="matrix(1, 0, 0, 1, -7.2, 7.2)">
        <path stroke-opacity="1" fill="white" stroke="white" style="stroke-linecap:round;stroke-linejoin:miter;stroke-miterlimit:4;stroke-dasharray:none;display:inline" id="connector4pad" stroke-width="2.16" d="m109.8,25.2a1.8,1.8,0,1,1,-3.6,0,1.8,1.8,0,1,1,3.6,0z"/>
       </g>
       <rect width="3.6" x="106.2" y="23.4" stroke-opacity="1" fill="white" height="3.6" stroke="white" style="stroke-linecap:round;stroke-linejoin:miter;stroke-miterlimit:4;stroke-dasharray:none;display:inline" id="rect4984" stroke-width="2.16"/>
       <path stroke-opacity="1" fill="white" stroke="white" style="stroke-linecap:round;stroke-linejoin:miter;stroke-miterlimit:4;stroke-dasharray:none" id="connector1pad" stroke-width="2.16" d="m109.8,25.2a1.8,1.8,0,1,1,-3.6,0,1.8,1.8,0,1,1,3.6,0z"/>
       <g transform="matrix(1, 0, 0, 1, -7.2, 0)">
        <path stroke-opacity="1" fill="white" stroke="white" style="stroke-linecap:round;stroke-linejoin:miter;stroke-miterlimit:4;stroke-dasharray:none" id="connector3pad" stroke-width="2.16" d="m109.8,25.2a1.8,1.8,0,1,1,-3.6,0,1.8,1.8,0,1,1,3.6,0z"/>
       </g>
      </g>
     </g>
    </g>
   </g>
  </g>
  <g partID="7407981">
   <g transform="translate(20.2603,92.3442)">
    <g id="copper1">
     <circle fill="white" cx="3.01733" cy="3.01733" stroke="white" r="0.992124" id="connector0pin" stroke-width="1.57039"/>
    </g>
   </g>
  </g>
  <g partID="7409471">
   <g transform="translate(44.3548,92.3442)">
    <g id="copper1">
     <circle fill="white" cx="3.01733" cy="3.01733" stroke="white" r="0.992124" id="connector0pin" stroke-width="1.57039"/>
    </g>
   </g>
  </g>
  <g partID="7473911">
   <g transform="translate(134.497,76.4702)">
    <g id="copper1">
     <circle fill="white" cx="3.01732" cy="3.01732" stroke="white" r="0.992124" id="connector0pin" stroke-width="1.57039"/>
    </g>
   </g>
  </g>
  <g partID="7474371">
   <g transform="translate(40.9532,45.0056)">
    <g id="copper1">
     <circle fill="white" cx="3.01732" cy="3.01732" stroke="white" r="0.992124" id="connector0pin" stroke-width="1.57039"/>
    </g>
   </g>
  </g>
  <g partID="7475911">
   <g transform="translate(95.095,49.2576)">
    <g id="copper1">
     <circle fill="white" cx="3.01732" cy="3.01732" stroke="white" r="0.992124" id="connector0pin" stroke-width="1.57039"/>
    </g>
   </g>
  </g>
  <g partID="7497521">
   <g transform="translate(101.898,48.9741)">
    <g id="copper1">
     <circle fill="white" cx="3.01733" cy="3.01733" stroke="white" r="0.992124" id="connector0pin" stroke-width="1.57039"/>
    </g>
   </g>
  </g>
  <g partID="7498411">
   <g transform="translate(141.867,24.5961)">
    <g id="copper1">
     <circle fill="white" cx="3.01733" cy="3.01733" stroke="white" r="0.992124" id="connector0pin" stroke-width="1.57039"/>
    </g>
   </g>
  </g>
  <g partID="7499291">
   <g transform="translate(77.866,39.4413)">
    <g id="copper1">
     <circle fill="white" cx="3.01733" cy="3.01733" stroke="white" r="0.992124" id="connector0pin" stroke-width="1.57039"/>
    </g>
   </g>
  </g>
  <g partID="7503031">
   <g transform="translate(22.6503,50.7354)">
    <g id="copper1">
     <circle fill="white" cx="3.01733" cy="3.01733" stroke="white" r="0.992124" id="connector0pin" stroke-width="1.57039"/>
    </g>
   </g>
  </g>
  <g partID="7487631">
   <g transform="translate(-0.716083,-0.632215)">
    <g id="copper1">
     <circle fill="white" cx="4.71811" cy="4.71811" stroke="white" r="3.11811" id="nonconn0" stroke-width="0.72"/>
    </g>
   </g>
  </g>
  <g partID="7487971">
   <g transform="translate(159.158,131.462)">
    <g id="copper1">
     <circle fill="white" cx="4.71811" cy="4.71811" stroke="white" r="3.11811" id="nonconn0" stroke-width="0.72"/>
    </g>
   </g>
  </g>
  <g partID="7487941">
   <g transform="translate(158.874,-0.34875)">
    <g id="copper1">
     <circle fill="white" cx="4.71811" cy="4.71811" stroke="white" r="3.11811" id="nonconn0" stroke-width="0.72"/>
    </g>
   </g>
  </g>
 </g>
</svg>
