G04 MADE WITH FRITZING*
G04 WWW.FRITZING.ORG*
G04 DOUBLE SIDED*
G04 HOLES PLATED*
G04 CONTOUR ON CENTER OF CONTOUR VECTOR*
%ASAXBY*%
%FSLAX23Y23*%
%MOIN*%
%OFA0B0*%
%SFA1.0B1.0*%
%ADD10C,0.075000*%
%ADD11C,0.099000*%
%ADD12C,0.073889*%
%ADD13C,0.070000*%
%ADD14C,0.039370*%
%ADD15R,0.075000X0.075000*%
%ADD16R,0.099000X0.099000*%
%ADD17R,0.074803X0.062992*%
%ADD18R,0.070000X0.070000*%
%ADD19C,0.024000*%
%ADD20R,0.001000X0.001000*%
%LNCOPPER0*%
G90*
G70*
G54D10*
X720Y1593D03*
X1331Y1588D03*
X1761Y1751D03*
X194Y1362D03*
X595Y1392D03*
X1726Y719D03*
X1702Y444D03*
X134Y1735D03*
X234Y1735D03*
X334Y1735D03*
X434Y1735D03*
X534Y1735D03*
X634Y1735D03*
X734Y1735D03*
X834Y1735D03*
X934Y1735D03*
X1034Y1735D03*
X1134Y1735D03*
X1234Y1735D03*
X1334Y1735D03*
X1434Y1735D03*
X1534Y1735D03*
X1634Y1735D03*
G54D11*
X273Y1514D03*
X473Y1514D03*
X373Y1314D03*
G54D10*
X142Y326D03*
X398Y326D03*
X142Y149D03*
X398Y149D03*
X615Y326D03*
X871Y326D03*
X615Y149D03*
X871Y149D03*
X2153Y176D03*
X2053Y176D03*
X1953Y176D03*
X1087Y326D03*
X1343Y326D03*
X1087Y149D03*
X1343Y149D03*
X1560Y326D03*
X1815Y326D03*
X1560Y149D03*
X1815Y149D03*
G54D12*
X259Y845D03*
X259Y945D03*
X259Y1045D03*
X259Y1145D03*
G54D13*
X861Y1007D03*
X961Y1007D03*
X1061Y1007D03*
X1361Y1007D03*
X1461Y1007D03*
X1561Y1007D03*
X1161Y1007D03*
X1261Y1007D03*
X1761Y1007D03*
X1861Y1007D03*
X1661Y1007D03*
X861Y1107D03*
X961Y1107D03*
X1061Y1107D03*
X1361Y1107D03*
X1461Y1107D03*
X1561Y1107D03*
X1161Y1107D03*
X1261Y1107D03*
X1761Y1107D03*
X1861Y1107D03*
X1661Y1107D03*
X661Y1107D03*
X761Y1107D03*
X661Y1007D03*
X761Y1007D03*
G54D14*
X323Y617D03*
X658Y617D03*
X1910Y838D03*
X611Y1275D03*
X1363Y1216D03*
X1457Y1219D03*
X2012Y1558D03*
X1123Y1352D03*
X356Y1195D03*
G54D15*
X133Y1736D03*
G54D16*
X473Y1514D03*
G54D17*
X504Y498D03*
X504Y620D03*
X1606Y494D03*
X1606Y616D03*
X2071Y495D03*
X2071Y617D03*
X1331Y616D03*
X1331Y494D03*
X228Y616D03*
X228Y494D03*
X1882Y616D03*
X1882Y494D03*
X780Y498D03*
X780Y620D03*
X1055Y498D03*
X1055Y620D03*
G54D15*
X1953Y176D03*
G54D18*
X661Y1007D03*
G54D19*
X1877Y986D02*
X1977Y853D01*
D02*
X1977Y853D02*
X1980Y554D01*
D02*
X1980Y554D02*
X2150Y554D01*
D02*
X2150Y554D02*
X2150Y373D01*
D02*
X2150Y373D02*
X1973Y196D01*
D02*
X1577Y1128D02*
X1615Y1176D01*
D02*
X1615Y1176D02*
X1899Y1176D01*
D02*
X1899Y1176D02*
X2146Y833D01*
D02*
X255Y1540D02*
X232Y1574D01*
D02*
X1514Y1756D02*
X1446Y1826D01*
D02*
X305Y1826D02*
X251Y1758D01*
D02*
X1446Y1826D02*
X305Y1826D01*
D02*
X1812Y558D02*
X1410Y558D01*
D02*
X1410Y558D02*
X1363Y593D01*
D02*
X1851Y590D02*
X1812Y558D01*
D02*
X2146Y833D02*
X2150Y554D01*
D02*
X304Y617D02*
X260Y617D01*
D02*
X748Y619D02*
X677Y618D01*
D02*
X1248Y692D02*
X1302Y642D01*
D02*
X858Y691D02*
X1248Y692D01*
D02*
X809Y646D02*
X858Y691D01*
D02*
X741Y885D02*
X1076Y885D01*
D02*
X1076Y885D02*
X1146Y986D01*
D02*
X527Y646D02*
X741Y885D01*
D02*
X1344Y1127D02*
X1234Y1247D01*
D02*
X2072Y822D02*
X1892Y1077D01*
D02*
X2071Y643D02*
X2072Y822D01*
D02*
X1892Y1077D02*
X1880Y1089D01*
D02*
X198Y468D02*
X139Y417D01*
D02*
X472Y475D02*
X398Y419D01*
D02*
X1340Y468D02*
X1344Y456D01*
D02*
X1344Y456D02*
X1343Y354D01*
D02*
X1575Y494D02*
X1363Y494D01*
D02*
X1882Y468D02*
X1882Y392D01*
D02*
X2039Y495D02*
X1914Y494D01*
D02*
X1543Y849D02*
X1484Y849D01*
D02*
X1484Y849D02*
X1377Y987D01*
D02*
X1607Y790D02*
X1543Y849D01*
D02*
X1606Y642D02*
X1607Y790D01*
D02*
X334Y1707D02*
X335Y1632D01*
D02*
X371Y1585D02*
X373Y1346D01*
D02*
X1663Y897D02*
X1662Y981D01*
D02*
X1745Y837D02*
X1663Y897D01*
D02*
X1891Y838D02*
X1745Y837D01*
D02*
X288Y964D02*
X645Y1195D01*
D02*
X645Y1195D02*
X992Y1200D01*
D02*
X992Y1200D02*
X1046Y1128D01*
D02*
X288Y1064D02*
X595Y1264D01*
D02*
X1087Y600D02*
X1187Y535D01*
D02*
X1187Y535D02*
X1185Y335D01*
D02*
X1292Y235D02*
X1781Y235D01*
D02*
X1185Y335D02*
X1292Y235D01*
D02*
X1781Y235D02*
X1841Y203D01*
D02*
X1841Y203D02*
X1889Y203D01*
D02*
X1889Y203D02*
X1889Y107D01*
D02*
X1889Y107D02*
X2181Y113D01*
D02*
X2181Y113D02*
X2226Y161D01*
D02*
X2226Y161D02*
X2220Y836D01*
D02*
X1906Y1263D02*
X1607Y1263D01*
D02*
X1607Y1263D02*
X1479Y1126D01*
D02*
X1433Y1707D02*
X1433Y1315D01*
D02*
X1372Y149D02*
X1531Y149D01*
D02*
X871Y443D02*
X818Y500D01*
D02*
X871Y354D02*
X871Y443D01*
D02*
X871Y354D02*
X871Y448D01*
D02*
X871Y448D02*
X921Y496D01*
D02*
X1234Y1247D02*
X1234Y1707D01*
D02*
X232Y1574D02*
X233Y1707D01*
D02*
X335Y1632D02*
X371Y1585D01*
D02*
X1882Y392D02*
X1836Y346D01*
D02*
X398Y419D02*
X398Y354D01*
D02*
X2012Y1539D02*
X2012Y1475D01*
D02*
X1579Y1350D02*
X1470Y1233D01*
D02*
X1433Y1315D02*
X1374Y1231D01*
D02*
X819Y1350D02*
X454Y1715D01*
D02*
X1104Y1352D02*
X819Y1350D01*
D02*
X1847Y1348D02*
X1579Y1350D01*
D02*
X2012Y1475D02*
X1847Y1348D01*
D02*
X921Y496D02*
X1023Y498D01*
D02*
X818Y500D02*
X811Y500D01*
D02*
X139Y417D02*
X141Y354D01*
D02*
X2220Y836D02*
X1906Y1263D01*
D02*
X402Y515D02*
X402Y652D01*
D02*
X189Y1193D02*
X272Y1279D01*
D02*
X189Y790D02*
X189Y1193D01*
D02*
X165Y166D02*
X272Y247D01*
D02*
X272Y247D02*
X272Y400D01*
D02*
X402Y652D02*
X189Y790D01*
D02*
X272Y1279D02*
X343Y1208D01*
D02*
X272Y400D02*
X402Y515D01*
D02*
X427Y149D02*
X586Y149D01*
D02*
X899Y149D02*
X1058Y149D01*
G36*
X673Y1679D02*
X673Y1677D01*
X671Y1677D01*
X671Y1675D01*
X667Y1675D01*
X667Y1673D01*
X663Y1673D01*
X663Y1671D01*
X659Y1671D01*
X659Y1669D01*
X653Y1669D01*
X653Y1667D01*
X713Y1667D01*
X713Y1669D01*
X707Y1669D01*
X707Y1671D01*
X703Y1671D01*
X703Y1673D01*
X699Y1673D01*
X699Y1675D01*
X697Y1675D01*
X697Y1677D01*
X693Y1677D01*
X693Y1679D01*
X673Y1679D01*
G37*
D02*
G36*
X773Y1679D02*
X773Y1677D01*
X771Y1677D01*
X771Y1675D01*
X767Y1675D01*
X767Y1673D01*
X763Y1673D01*
X763Y1671D01*
X759Y1671D01*
X759Y1669D01*
X753Y1669D01*
X753Y1667D01*
X813Y1667D01*
X813Y1669D01*
X807Y1669D01*
X807Y1671D01*
X803Y1671D01*
X803Y1673D01*
X799Y1673D01*
X799Y1675D01*
X797Y1675D01*
X797Y1677D01*
X793Y1677D01*
X793Y1679D01*
X773Y1679D01*
G37*
D02*
G36*
X873Y1679D02*
X873Y1677D01*
X871Y1677D01*
X871Y1675D01*
X867Y1675D01*
X867Y1673D01*
X863Y1673D01*
X863Y1671D01*
X859Y1671D01*
X859Y1669D01*
X853Y1669D01*
X853Y1667D01*
X913Y1667D01*
X913Y1669D01*
X907Y1669D01*
X907Y1671D01*
X903Y1671D01*
X903Y1673D01*
X899Y1673D01*
X899Y1675D01*
X897Y1675D01*
X897Y1677D01*
X893Y1677D01*
X893Y1679D01*
X873Y1679D01*
G37*
D02*
G36*
X973Y1679D02*
X973Y1677D01*
X971Y1677D01*
X971Y1675D01*
X967Y1675D01*
X967Y1673D01*
X963Y1673D01*
X963Y1671D01*
X959Y1671D01*
X959Y1669D01*
X953Y1669D01*
X953Y1667D01*
X1013Y1667D01*
X1013Y1669D01*
X1007Y1669D01*
X1007Y1671D01*
X1003Y1671D01*
X1003Y1673D01*
X999Y1673D01*
X999Y1675D01*
X997Y1675D01*
X997Y1677D01*
X993Y1677D01*
X993Y1679D01*
X973Y1679D01*
G37*
D02*
G36*
X1073Y1679D02*
X1073Y1677D01*
X1071Y1677D01*
X1071Y1675D01*
X1067Y1675D01*
X1067Y1673D01*
X1063Y1673D01*
X1063Y1671D01*
X1059Y1671D01*
X1059Y1669D01*
X1053Y1669D01*
X1053Y1667D01*
X1113Y1667D01*
X1113Y1669D01*
X1107Y1669D01*
X1107Y1671D01*
X1103Y1671D01*
X1103Y1673D01*
X1099Y1673D01*
X1099Y1675D01*
X1097Y1675D01*
X1097Y1677D01*
X1093Y1677D01*
X1093Y1679D01*
X1073Y1679D01*
G37*
D02*
G36*
X575Y1677D02*
X575Y1667D01*
X613Y1667D01*
X613Y1669D01*
X607Y1669D01*
X607Y1671D01*
X603Y1671D01*
X603Y1673D01*
X599Y1673D01*
X599Y1675D01*
X597Y1675D01*
X597Y1677D01*
X575Y1677D01*
G37*
D02*
G36*
X1167Y1675D02*
X1167Y1673D01*
X1163Y1673D01*
X1163Y1671D01*
X1159Y1671D01*
X1159Y1669D01*
X1153Y1669D01*
X1153Y1667D01*
X1189Y1667D01*
X1189Y1675D01*
X1167Y1675D01*
G37*
D02*
G36*
X575Y1667D02*
X575Y1665D01*
X1189Y1665D01*
X1189Y1667D01*
X575Y1667D01*
G37*
D02*
G36*
X575Y1667D02*
X575Y1665D01*
X1189Y1665D01*
X1189Y1667D01*
X575Y1667D01*
G37*
D02*
G36*
X575Y1667D02*
X575Y1665D01*
X1189Y1665D01*
X1189Y1667D01*
X575Y1667D01*
G37*
D02*
G36*
X575Y1667D02*
X575Y1665D01*
X1189Y1665D01*
X1189Y1667D01*
X575Y1667D01*
G37*
D02*
G36*
X575Y1667D02*
X575Y1665D01*
X1189Y1665D01*
X1189Y1667D01*
X575Y1667D01*
G37*
D02*
G36*
X575Y1667D02*
X575Y1665D01*
X1189Y1665D01*
X1189Y1667D01*
X575Y1667D01*
G37*
D02*
G36*
X575Y1667D02*
X575Y1665D01*
X1189Y1665D01*
X1189Y1667D01*
X575Y1667D01*
G37*
D02*
G36*
X575Y1665D02*
X575Y1659D01*
X577Y1659D01*
X577Y1657D01*
X579Y1657D01*
X579Y1655D01*
X581Y1655D01*
X581Y1653D01*
X583Y1653D01*
X583Y1651D01*
X585Y1651D01*
X585Y1649D01*
X587Y1649D01*
X587Y1647D01*
X589Y1647D01*
X589Y1645D01*
X591Y1645D01*
X591Y1643D01*
X593Y1643D01*
X593Y1641D01*
X595Y1641D01*
X595Y1639D01*
X597Y1639D01*
X597Y1637D01*
X599Y1637D01*
X599Y1635D01*
X601Y1635D01*
X601Y1633D01*
X603Y1633D01*
X603Y1631D01*
X605Y1631D01*
X605Y1629D01*
X607Y1629D01*
X607Y1627D01*
X609Y1627D01*
X609Y1625D01*
X611Y1625D01*
X611Y1623D01*
X613Y1623D01*
X613Y1621D01*
X615Y1621D01*
X615Y1619D01*
X617Y1619D01*
X617Y1617D01*
X619Y1617D01*
X619Y1615D01*
X621Y1615D01*
X621Y1613D01*
X623Y1613D01*
X623Y1611D01*
X625Y1611D01*
X625Y1609D01*
X627Y1609D01*
X627Y1607D01*
X629Y1607D01*
X629Y1605D01*
X631Y1605D01*
X631Y1603D01*
X633Y1603D01*
X633Y1601D01*
X635Y1601D01*
X635Y1599D01*
X637Y1599D01*
X637Y1597D01*
X639Y1597D01*
X639Y1595D01*
X641Y1595D01*
X641Y1593D01*
X643Y1593D01*
X643Y1591D01*
X645Y1591D01*
X645Y1589D01*
X647Y1589D01*
X647Y1587D01*
X649Y1587D01*
X649Y1585D01*
X651Y1585D01*
X651Y1583D01*
X653Y1583D01*
X653Y1581D01*
X655Y1581D01*
X655Y1579D01*
X657Y1579D01*
X657Y1577D01*
X659Y1577D01*
X659Y1575D01*
X661Y1575D01*
X661Y1573D01*
X663Y1573D01*
X663Y1571D01*
X665Y1571D01*
X665Y1569D01*
X667Y1569D01*
X667Y1567D01*
X669Y1567D01*
X669Y1565D01*
X671Y1565D01*
X671Y1563D01*
X673Y1563D01*
X673Y1561D01*
X675Y1561D01*
X675Y1559D01*
X677Y1559D01*
X677Y1557D01*
X679Y1557D01*
X679Y1555D01*
X681Y1555D01*
X681Y1553D01*
X683Y1553D01*
X683Y1551D01*
X685Y1551D01*
X685Y1549D01*
X687Y1549D01*
X687Y1547D01*
X689Y1547D01*
X689Y1545D01*
X691Y1545D01*
X691Y1543D01*
X693Y1543D01*
X693Y1541D01*
X695Y1541D01*
X695Y1539D01*
X697Y1539D01*
X697Y1537D01*
X699Y1537D01*
X699Y1535D01*
X701Y1535D01*
X701Y1533D01*
X703Y1533D01*
X703Y1531D01*
X705Y1531D01*
X705Y1529D01*
X707Y1529D01*
X707Y1527D01*
X709Y1527D01*
X709Y1525D01*
X711Y1525D01*
X711Y1523D01*
X713Y1523D01*
X713Y1521D01*
X715Y1521D01*
X715Y1519D01*
X717Y1519D01*
X717Y1517D01*
X719Y1517D01*
X719Y1515D01*
X721Y1515D01*
X721Y1513D01*
X723Y1513D01*
X723Y1511D01*
X725Y1511D01*
X725Y1509D01*
X727Y1509D01*
X727Y1507D01*
X729Y1507D01*
X729Y1505D01*
X731Y1505D01*
X731Y1503D01*
X733Y1503D01*
X733Y1501D01*
X735Y1501D01*
X735Y1499D01*
X737Y1499D01*
X737Y1497D01*
X739Y1497D01*
X739Y1495D01*
X741Y1495D01*
X741Y1493D01*
X743Y1493D01*
X743Y1491D01*
X745Y1491D01*
X745Y1489D01*
X747Y1489D01*
X747Y1487D01*
X749Y1487D01*
X749Y1485D01*
X751Y1485D01*
X751Y1483D01*
X753Y1483D01*
X753Y1481D01*
X755Y1481D01*
X755Y1479D01*
X757Y1479D01*
X757Y1477D01*
X759Y1477D01*
X759Y1475D01*
X761Y1475D01*
X761Y1473D01*
X763Y1473D01*
X763Y1471D01*
X765Y1471D01*
X765Y1469D01*
X767Y1469D01*
X767Y1467D01*
X769Y1467D01*
X769Y1465D01*
X771Y1465D01*
X771Y1463D01*
X773Y1463D01*
X773Y1461D01*
X775Y1461D01*
X775Y1459D01*
X777Y1459D01*
X777Y1457D01*
X779Y1457D01*
X779Y1455D01*
X781Y1455D01*
X781Y1453D01*
X783Y1453D01*
X783Y1451D01*
X785Y1451D01*
X785Y1449D01*
X787Y1449D01*
X787Y1447D01*
X789Y1447D01*
X789Y1445D01*
X791Y1445D01*
X791Y1443D01*
X793Y1443D01*
X793Y1441D01*
X795Y1441D01*
X795Y1439D01*
X797Y1439D01*
X797Y1437D01*
X799Y1437D01*
X799Y1435D01*
X801Y1435D01*
X801Y1433D01*
X803Y1433D01*
X803Y1431D01*
X805Y1431D01*
X805Y1429D01*
X807Y1429D01*
X807Y1427D01*
X809Y1427D01*
X809Y1425D01*
X811Y1425D01*
X811Y1423D01*
X813Y1423D01*
X813Y1421D01*
X815Y1421D01*
X815Y1419D01*
X817Y1419D01*
X817Y1417D01*
X819Y1417D01*
X819Y1415D01*
X821Y1415D01*
X821Y1413D01*
X823Y1413D01*
X823Y1411D01*
X825Y1411D01*
X825Y1409D01*
X827Y1409D01*
X827Y1407D01*
X829Y1407D01*
X829Y1405D01*
X831Y1405D01*
X831Y1403D01*
X1141Y1403D01*
X1141Y1401D01*
X1145Y1401D01*
X1145Y1399D01*
X1149Y1399D01*
X1149Y1397D01*
X1153Y1397D01*
X1153Y1395D01*
X1155Y1395D01*
X1155Y1393D01*
X1157Y1393D01*
X1157Y1391D01*
X1159Y1391D01*
X1159Y1389D01*
X1161Y1389D01*
X1161Y1387D01*
X1163Y1387D01*
X1163Y1385D01*
X1165Y1385D01*
X1165Y1383D01*
X1167Y1383D01*
X1167Y1379D01*
X1169Y1379D01*
X1169Y1377D01*
X1189Y1377D01*
X1189Y1665D01*
X575Y1665D01*
G37*
D02*
G36*
X833Y1403D02*
X833Y1401D01*
X835Y1401D01*
X835Y1399D01*
X837Y1399D01*
X837Y1397D01*
X839Y1397D01*
X839Y1395D01*
X1075Y1395D01*
X1075Y1397D01*
X1097Y1397D01*
X1097Y1399D01*
X1101Y1399D01*
X1101Y1401D01*
X1105Y1401D01*
X1105Y1403D01*
X833Y1403D01*
G37*
D02*
G36*
X1277Y1677D02*
X1277Y1675D01*
X1297Y1675D01*
X1297Y1677D01*
X1277Y1677D01*
G37*
D02*
G36*
X1277Y1675D02*
X1277Y1667D01*
X1313Y1667D01*
X1313Y1669D01*
X1307Y1669D01*
X1307Y1671D01*
X1303Y1671D01*
X1303Y1673D01*
X1299Y1673D01*
X1299Y1675D01*
X1277Y1675D01*
G37*
D02*
G36*
X1367Y1675D02*
X1367Y1673D01*
X1363Y1673D01*
X1363Y1671D01*
X1359Y1671D01*
X1359Y1669D01*
X1353Y1669D01*
X1353Y1667D01*
X1389Y1667D01*
X1389Y1675D01*
X1367Y1675D01*
G37*
D02*
G36*
X1277Y1667D02*
X1277Y1665D01*
X1389Y1665D01*
X1389Y1667D01*
X1277Y1667D01*
G37*
D02*
G36*
X1277Y1667D02*
X1277Y1665D01*
X1389Y1665D01*
X1389Y1667D01*
X1277Y1667D01*
G37*
D02*
G36*
X1277Y1665D02*
X1277Y1269D01*
X1279Y1269D01*
X1279Y1267D01*
X1281Y1267D01*
X1281Y1263D01*
X1283Y1263D01*
X1283Y1261D01*
X1285Y1261D01*
X1285Y1259D01*
X1287Y1259D01*
X1287Y1257D01*
X1289Y1257D01*
X1289Y1255D01*
X1291Y1255D01*
X1291Y1253D01*
X1293Y1253D01*
X1293Y1251D01*
X1295Y1251D01*
X1295Y1249D01*
X1297Y1249D01*
X1297Y1247D01*
X1299Y1247D01*
X1299Y1245D01*
X1319Y1245D01*
X1319Y1247D01*
X1321Y1247D01*
X1321Y1249D01*
X1323Y1249D01*
X1323Y1251D01*
X1325Y1251D01*
X1325Y1253D01*
X1327Y1253D01*
X1327Y1255D01*
X1329Y1255D01*
X1329Y1257D01*
X1331Y1257D01*
X1331Y1259D01*
X1333Y1259D01*
X1333Y1261D01*
X1337Y1261D01*
X1337Y1263D01*
X1339Y1263D01*
X1339Y1265D01*
X1341Y1265D01*
X1341Y1269D01*
X1343Y1269D01*
X1343Y1271D01*
X1345Y1271D01*
X1345Y1273D01*
X1347Y1273D01*
X1347Y1277D01*
X1349Y1277D01*
X1349Y1279D01*
X1351Y1279D01*
X1351Y1283D01*
X1353Y1283D01*
X1353Y1285D01*
X1355Y1285D01*
X1355Y1287D01*
X1357Y1287D01*
X1357Y1291D01*
X1359Y1291D01*
X1359Y1293D01*
X1361Y1293D01*
X1361Y1297D01*
X1363Y1297D01*
X1363Y1299D01*
X1365Y1299D01*
X1365Y1303D01*
X1367Y1303D01*
X1367Y1305D01*
X1369Y1305D01*
X1369Y1307D01*
X1371Y1307D01*
X1371Y1311D01*
X1373Y1311D01*
X1373Y1313D01*
X1375Y1313D01*
X1375Y1317D01*
X1377Y1317D01*
X1377Y1319D01*
X1379Y1319D01*
X1379Y1321D01*
X1381Y1321D01*
X1381Y1325D01*
X1383Y1325D01*
X1383Y1327D01*
X1385Y1327D01*
X1385Y1331D01*
X1387Y1331D01*
X1387Y1333D01*
X1389Y1333D01*
X1389Y1665D01*
X1277Y1665D01*
G37*
D02*
G36*
X1675Y1811D02*
X1675Y1791D01*
X1677Y1791D01*
X1677Y1789D01*
X1679Y1789D01*
X1679Y1787D01*
X1681Y1787D01*
X1681Y1785D01*
X1683Y1785D01*
X1683Y1783D01*
X1685Y1783D01*
X1685Y1781D01*
X1687Y1781D01*
X1687Y1779D01*
X1689Y1779D01*
X1689Y1777D01*
X1691Y1777D01*
X1691Y1773D01*
X1693Y1773D01*
X1693Y1771D01*
X1695Y1771D01*
X1695Y1767D01*
X1697Y1767D01*
X1697Y1763D01*
X1699Y1763D01*
X1699Y1757D01*
X1701Y1757D01*
X1701Y1751D01*
X1703Y1751D01*
X1703Y1721D01*
X1701Y1721D01*
X1701Y1713D01*
X1699Y1713D01*
X1699Y1709D01*
X1697Y1709D01*
X1697Y1705D01*
X1695Y1705D01*
X1695Y1701D01*
X1693Y1701D01*
X1693Y1697D01*
X1691Y1697D01*
X1691Y1695D01*
X1689Y1695D01*
X1689Y1693D01*
X1687Y1693D01*
X1687Y1689D01*
X1685Y1689D01*
X1685Y1687D01*
X1683Y1687D01*
X1683Y1685D01*
X1681Y1685D01*
X1681Y1683D01*
X1679Y1683D01*
X1679Y1681D01*
X1675Y1681D01*
X1675Y1679D01*
X1673Y1679D01*
X1673Y1677D01*
X1671Y1677D01*
X1671Y1675D01*
X1667Y1675D01*
X1667Y1673D01*
X1663Y1673D01*
X1663Y1671D01*
X1659Y1671D01*
X1659Y1669D01*
X1653Y1669D01*
X1653Y1667D01*
X2201Y1667D01*
X2201Y1811D01*
X1675Y1811D01*
G37*
D02*
G36*
X1573Y1679D02*
X1573Y1677D01*
X1571Y1677D01*
X1571Y1675D01*
X1567Y1675D01*
X1567Y1673D01*
X1563Y1673D01*
X1563Y1671D01*
X1559Y1671D01*
X1559Y1669D01*
X1553Y1669D01*
X1553Y1667D01*
X1613Y1667D01*
X1613Y1669D01*
X1607Y1669D01*
X1607Y1671D01*
X1603Y1671D01*
X1603Y1673D01*
X1599Y1673D01*
X1599Y1675D01*
X1597Y1675D01*
X1597Y1677D01*
X1593Y1677D01*
X1593Y1679D01*
X1573Y1679D01*
G37*
D02*
G36*
X1477Y1677D02*
X1477Y1667D01*
X1513Y1667D01*
X1513Y1669D01*
X1507Y1669D01*
X1507Y1671D01*
X1503Y1671D01*
X1503Y1673D01*
X1499Y1673D01*
X1499Y1675D01*
X1497Y1675D01*
X1497Y1677D01*
X1477Y1677D01*
G37*
D02*
G36*
X1477Y1667D02*
X1477Y1665D01*
X2201Y1665D01*
X2201Y1667D01*
X1477Y1667D01*
G37*
D02*
G36*
X1477Y1667D02*
X1477Y1665D01*
X2201Y1665D01*
X2201Y1667D01*
X1477Y1667D01*
G37*
D02*
G36*
X1477Y1667D02*
X1477Y1665D01*
X2201Y1665D01*
X2201Y1667D01*
X1477Y1667D01*
G37*
D02*
G36*
X1477Y1665D02*
X1477Y1611D01*
X2021Y1611D01*
X2021Y1609D01*
X2029Y1609D01*
X2029Y1607D01*
X2035Y1607D01*
X2035Y1605D01*
X2039Y1605D01*
X2039Y1603D01*
X2041Y1603D01*
X2041Y1601D01*
X2043Y1601D01*
X2043Y1599D01*
X2047Y1599D01*
X2047Y1597D01*
X2049Y1597D01*
X2049Y1595D01*
X2051Y1595D01*
X2051Y1593D01*
X2053Y1593D01*
X2053Y1589D01*
X2055Y1589D01*
X2055Y1587D01*
X2057Y1587D01*
X2057Y1583D01*
X2059Y1583D01*
X2059Y1581D01*
X2061Y1581D01*
X2061Y1575D01*
X2063Y1575D01*
X2063Y1541D01*
X2061Y1541D01*
X2061Y1537D01*
X2059Y1537D01*
X2059Y1533D01*
X2057Y1533D01*
X2057Y1529D01*
X2055Y1529D01*
X2055Y1527D01*
X2053Y1527D01*
X2053Y1525D01*
X2051Y1525D01*
X2051Y1523D01*
X2049Y1523D01*
X2049Y1521D01*
X2047Y1521D01*
X2047Y1519D01*
X2045Y1519D01*
X2045Y1517D01*
X2043Y1517D01*
X2043Y1515D01*
X2039Y1515D01*
X2039Y1513D01*
X2037Y1513D01*
X2037Y1511D01*
X2033Y1511D01*
X2033Y1509D01*
X2027Y1509D01*
X2027Y1507D01*
X2201Y1507D01*
X2201Y1665D01*
X1477Y1665D01*
G37*
D02*
G36*
X1477Y1611D02*
X1477Y1507D01*
X1997Y1507D01*
X1997Y1509D01*
X1991Y1509D01*
X1991Y1511D01*
X1987Y1511D01*
X1987Y1513D01*
X1985Y1513D01*
X1985Y1515D01*
X1981Y1515D01*
X1981Y1517D01*
X1979Y1517D01*
X1979Y1519D01*
X1977Y1519D01*
X1977Y1521D01*
X1975Y1521D01*
X1975Y1523D01*
X1973Y1523D01*
X1973Y1525D01*
X1971Y1525D01*
X1971Y1527D01*
X1969Y1527D01*
X1969Y1529D01*
X1967Y1529D01*
X1967Y1533D01*
X1965Y1533D01*
X1965Y1537D01*
X1963Y1537D01*
X1963Y1541D01*
X1961Y1541D01*
X1961Y1575D01*
X1963Y1575D01*
X1963Y1581D01*
X1965Y1581D01*
X1965Y1583D01*
X1967Y1583D01*
X1967Y1587D01*
X1969Y1587D01*
X1969Y1589D01*
X1971Y1589D01*
X1971Y1593D01*
X1973Y1593D01*
X1973Y1595D01*
X1975Y1595D01*
X1975Y1597D01*
X1977Y1597D01*
X1977Y1599D01*
X1981Y1599D01*
X1981Y1601D01*
X1983Y1601D01*
X1983Y1603D01*
X1985Y1603D01*
X1985Y1605D01*
X1989Y1605D01*
X1989Y1607D01*
X1995Y1607D01*
X1995Y1609D01*
X2003Y1609D01*
X2003Y1611D01*
X1477Y1611D01*
G37*
D02*
G36*
X1477Y1507D02*
X1477Y1505D01*
X2201Y1505D01*
X2201Y1507D01*
X1477Y1507D01*
G37*
D02*
G36*
X1477Y1507D02*
X1477Y1505D01*
X2201Y1505D01*
X2201Y1507D01*
X1477Y1507D01*
G37*
D02*
G36*
X1477Y1505D02*
X1477Y1307D01*
X1921Y1307D01*
X1921Y1305D01*
X1927Y1305D01*
X1927Y1303D01*
X1931Y1303D01*
X1931Y1301D01*
X1933Y1301D01*
X1933Y1299D01*
X1937Y1299D01*
X1937Y1297D01*
X1939Y1297D01*
X1939Y1295D01*
X1941Y1295D01*
X1941Y1291D01*
X1943Y1291D01*
X1943Y1289D01*
X1945Y1289D01*
X1945Y1287D01*
X1947Y1287D01*
X1947Y1283D01*
X1949Y1283D01*
X1949Y1281D01*
X1951Y1281D01*
X1951Y1279D01*
X1953Y1279D01*
X1953Y1275D01*
X1955Y1275D01*
X1955Y1273D01*
X1957Y1273D01*
X1957Y1271D01*
X1959Y1271D01*
X1959Y1267D01*
X1961Y1267D01*
X1961Y1265D01*
X1963Y1265D01*
X1963Y1263D01*
X1965Y1263D01*
X1965Y1259D01*
X1967Y1259D01*
X1967Y1257D01*
X1969Y1257D01*
X1969Y1253D01*
X1971Y1253D01*
X1971Y1251D01*
X1973Y1251D01*
X1973Y1249D01*
X1975Y1249D01*
X1975Y1245D01*
X1977Y1245D01*
X1977Y1243D01*
X1979Y1243D01*
X1979Y1241D01*
X1981Y1241D01*
X1981Y1237D01*
X1983Y1237D01*
X1983Y1235D01*
X1985Y1235D01*
X1985Y1233D01*
X1987Y1233D01*
X1987Y1229D01*
X1989Y1229D01*
X1989Y1227D01*
X1991Y1227D01*
X1991Y1223D01*
X1993Y1223D01*
X1993Y1221D01*
X1995Y1221D01*
X1995Y1219D01*
X1997Y1219D01*
X1997Y1215D01*
X1999Y1215D01*
X1999Y1213D01*
X2001Y1213D01*
X2001Y1211D01*
X2003Y1211D01*
X2003Y1207D01*
X2005Y1207D01*
X2005Y1205D01*
X2007Y1205D01*
X2007Y1203D01*
X2009Y1203D01*
X2009Y1199D01*
X2011Y1199D01*
X2011Y1197D01*
X2013Y1197D01*
X2013Y1195D01*
X2015Y1195D01*
X2015Y1191D01*
X2017Y1191D01*
X2017Y1189D01*
X2019Y1189D01*
X2019Y1185D01*
X2021Y1185D01*
X2021Y1183D01*
X2023Y1183D01*
X2023Y1181D01*
X2025Y1181D01*
X2025Y1177D01*
X2027Y1177D01*
X2027Y1175D01*
X2029Y1175D01*
X2029Y1173D01*
X2031Y1173D01*
X2031Y1169D01*
X2033Y1169D01*
X2033Y1167D01*
X2035Y1167D01*
X2035Y1165D01*
X2037Y1165D01*
X2037Y1161D01*
X2039Y1161D01*
X2039Y1159D01*
X2041Y1159D01*
X2041Y1157D01*
X2043Y1157D01*
X2043Y1153D01*
X2045Y1153D01*
X2045Y1151D01*
X2047Y1151D01*
X2047Y1147D01*
X2049Y1147D01*
X2049Y1145D01*
X2051Y1145D01*
X2051Y1143D01*
X2053Y1143D01*
X2053Y1139D01*
X2055Y1139D01*
X2055Y1137D01*
X2057Y1137D01*
X2057Y1135D01*
X2059Y1135D01*
X2059Y1131D01*
X2061Y1131D01*
X2061Y1129D01*
X2063Y1129D01*
X2063Y1127D01*
X2065Y1127D01*
X2065Y1123D01*
X2067Y1123D01*
X2067Y1121D01*
X2069Y1121D01*
X2069Y1119D01*
X2071Y1119D01*
X2071Y1115D01*
X2073Y1115D01*
X2073Y1113D01*
X2075Y1113D01*
X2075Y1109D01*
X2077Y1109D01*
X2077Y1107D01*
X2079Y1107D01*
X2079Y1105D01*
X2081Y1105D01*
X2081Y1101D01*
X2083Y1101D01*
X2083Y1099D01*
X2085Y1099D01*
X2085Y1097D01*
X2087Y1097D01*
X2087Y1093D01*
X2089Y1093D01*
X2089Y1091D01*
X2091Y1091D01*
X2091Y1089D01*
X2093Y1089D01*
X2093Y1085D01*
X2095Y1085D01*
X2095Y1083D01*
X2097Y1083D01*
X2097Y1081D01*
X2099Y1081D01*
X2099Y1077D01*
X2101Y1077D01*
X2101Y1075D01*
X2103Y1075D01*
X2103Y1071D01*
X2105Y1071D01*
X2105Y1069D01*
X2107Y1069D01*
X2107Y1067D01*
X2109Y1067D01*
X2109Y1063D01*
X2111Y1063D01*
X2111Y1061D01*
X2113Y1061D01*
X2113Y1059D01*
X2115Y1059D01*
X2115Y1055D01*
X2117Y1055D01*
X2117Y1053D01*
X2119Y1053D01*
X2119Y1051D01*
X2121Y1051D01*
X2121Y1047D01*
X2123Y1047D01*
X2123Y1045D01*
X2125Y1045D01*
X2125Y1043D01*
X2127Y1043D01*
X2127Y1039D01*
X2129Y1039D01*
X2129Y1037D01*
X2131Y1037D01*
X2131Y1033D01*
X2133Y1033D01*
X2133Y1031D01*
X2135Y1031D01*
X2135Y1029D01*
X2137Y1029D01*
X2137Y1025D01*
X2139Y1025D01*
X2139Y1023D01*
X2141Y1023D01*
X2141Y1021D01*
X2143Y1021D01*
X2143Y1017D01*
X2145Y1017D01*
X2145Y1015D01*
X2147Y1015D01*
X2147Y1013D01*
X2149Y1013D01*
X2149Y1009D01*
X2151Y1009D01*
X2151Y1007D01*
X2153Y1007D01*
X2153Y1003D01*
X2155Y1003D01*
X2155Y1001D01*
X2157Y1001D01*
X2157Y999D01*
X2159Y999D01*
X2159Y995D01*
X2161Y995D01*
X2161Y993D01*
X2163Y993D01*
X2163Y991D01*
X2165Y991D01*
X2165Y987D01*
X2167Y987D01*
X2167Y985D01*
X2169Y985D01*
X2169Y983D01*
X2171Y983D01*
X2171Y979D01*
X2173Y979D01*
X2173Y977D01*
X2175Y977D01*
X2175Y975D01*
X2177Y975D01*
X2177Y971D01*
X2179Y971D01*
X2179Y969D01*
X2181Y969D01*
X2181Y965D01*
X2201Y965D01*
X2201Y1505D01*
X1477Y1505D01*
G37*
D02*
G36*
X1477Y1307D02*
X1477Y1303D01*
X1475Y1303D01*
X1475Y1295D01*
X1473Y1295D01*
X1473Y1291D01*
X1471Y1291D01*
X1471Y1271D01*
X1473Y1271D01*
X1473Y1269D01*
X1479Y1269D01*
X1479Y1267D01*
X1483Y1267D01*
X1483Y1265D01*
X1485Y1265D01*
X1485Y1263D01*
X1487Y1263D01*
X1487Y1261D01*
X1491Y1261D01*
X1491Y1259D01*
X1493Y1259D01*
X1493Y1257D01*
X1495Y1257D01*
X1495Y1255D01*
X1497Y1255D01*
X1497Y1253D01*
X1499Y1253D01*
X1499Y1249D01*
X1501Y1249D01*
X1501Y1247D01*
X1503Y1247D01*
X1503Y1243D01*
X1525Y1243D01*
X1525Y1245D01*
X1527Y1245D01*
X1527Y1247D01*
X1529Y1247D01*
X1529Y1249D01*
X1531Y1249D01*
X1531Y1251D01*
X1533Y1251D01*
X1533Y1253D01*
X1535Y1253D01*
X1535Y1257D01*
X1537Y1257D01*
X1537Y1259D01*
X1539Y1259D01*
X1539Y1261D01*
X1541Y1261D01*
X1541Y1263D01*
X1543Y1263D01*
X1543Y1265D01*
X1545Y1265D01*
X1545Y1267D01*
X1547Y1267D01*
X1547Y1269D01*
X1549Y1269D01*
X1549Y1271D01*
X1551Y1271D01*
X1551Y1273D01*
X1553Y1273D01*
X1553Y1275D01*
X1555Y1275D01*
X1555Y1277D01*
X1557Y1277D01*
X1557Y1279D01*
X1559Y1279D01*
X1559Y1281D01*
X1561Y1281D01*
X1561Y1283D01*
X1563Y1283D01*
X1563Y1285D01*
X1565Y1285D01*
X1565Y1289D01*
X1567Y1289D01*
X1567Y1291D01*
X1569Y1291D01*
X1569Y1293D01*
X1571Y1293D01*
X1571Y1295D01*
X1573Y1295D01*
X1573Y1297D01*
X1575Y1297D01*
X1575Y1299D01*
X1579Y1299D01*
X1579Y1301D01*
X1581Y1301D01*
X1581Y1303D01*
X1585Y1303D01*
X1585Y1305D01*
X1591Y1305D01*
X1591Y1307D01*
X1477Y1307D01*
G37*
D02*
G36*
X379Y1675D02*
X379Y1651D01*
X381Y1651D01*
X381Y1649D01*
X383Y1649D01*
X383Y1645D01*
X385Y1645D01*
X385Y1643D01*
X387Y1643D01*
X387Y1641D01*
X389Y1641D01*
X389Y1637D01*
X391Y1637D01*
X391Y1635D01*
X393Y1635D01*
X393Y1633D01*
X395Y1633D01*
X395Y1629D01*
X397Y1629D01*
X397Y1627D01*
X399Y1627D01*
X399Y1625D01*
X401Y1625D01*
X401Y1621D01*
X403Y1621D01*
X403Y1619D01*
X405Y1619D01*
X405Y1617D01*
X407Y1617D01*
X407Y1613D01*
X409Y1613D01*
X409Y1611D01*
X411Y1611D01*
X411Y1607D01*
X413Y1607D01*
X413Y1599D01*
X415Y1599D01*
X415Y1597D01*
X487Y1597D01*
X487Y1617D01*
X485Y1617D01*
X485Y1619D01*
X483Y1619D01*
X483Y1621D01*
X481Y1621D01*
X481Y1623D01*
X479Y1623D01*
X479Y1625D01*
X477Y1625D01*
X477Y1627D01*
X475Y1627D01*
X475Y1629D01*
X473Y1629D01*
X473Y1631D01*
X471Y1631D01*
X471Y1633D01*
X469Y1633D01*
X469Y1635D01*
X467Y1635D01*
X467Y1637D01*
X465Y1637D01*
X465Y1639D01*
X463Y1639D01*
X463Y1641D01*
X461Y1641D01*
X461Y1643D01*
X459Y1643D01*
X459Y1645D01*
X457Y1645D01*
X457Y1647D01*
X455Y1647D01*
X455Y1649D01*
X453Y1649D01*
X453Y1651D01*
X451Y1651D01*
X451Y1653D01*
X449Y1653D01*
X449Y1655D01*
X447Y1655D01*
X447Y1657D01*
X445Y1657D01*
X445Y1659D01*
X443Y1659D01*
X443Y1661D01*
X441Y1661D01*
X441Y1663D01*
X439Y1663D01*
X439Y1665D01*
X437Y1665D01*
X437Y1667D01*
X413Y1667D01*
X413Y1669D01*
X407Y1669D01*
X407Y1671D01*
X403Y1671D01*
X403Y1673D01*
X399Y1673D01*
X399Y1675D01*
X379Y1675D01*
G37*
D02*
G36*
X125Y1667D02*
X125Y1433D01*
X257Y1433D01*
X257Y1435D01*
X249Y1435D01*
X249Y1437D01*
X243Y1437D01*
X243Y1439D01*
X239Y1439D01*
X239Y1441D01*
X235Y1441D01*
X235Y1443D01*
X231Y1443D01*
X231Y1445D01*
X229Y1445D01*
X229Y1447D01*
X225Y1447D01*
X225Y1449D01*
X223Y1449D01*
X223Y1451D01*
X221Y1451D01*
X221Y1453D01*
X219Y1453D01*
X219Y1455D01*
X217Y1455D01*
X217Y1457D01*
X215Y1457D01*
X215Y1459D01*
X213Y1459D01*
X213Y1461D01*
X211Y1461D01*
X211Y1463D01*
X209Y1463D01*
X209Y1465D01*
X207Y1465D01*
X207Y1467D01*
X205Y1467D01*
X205Y1471D01*
X203Y1471D01*
X203Y1473D01*
X201Y1473D01*
X201Y1477D01*
X199Y1477D01*
X199Y1481D01*
X197Y1481D01*
X197Y1485D01*
X195Y1485D01*
X195Y1491D01*
X193Y1491D01*
X193Y1499D01*
X191Y1499D01*
X191Y1531D01*
X193Y1531D01*
X193Y1551D01*
X191Y1551D01*
X191Y1555D01*
X189Y1555D01*
X189Y1667D01*
X125Y1667D01*
G37*
D02*
G36*
X307Y1441D02*
X307Y1439D01*
X303Y1439D01*
X303Y1437D01*
X297Y1437D01*
X297Y1435D01*
X289Y1435D01*
X289Y1433D01*
X327Y1433D01*
X327Y1441D01*
X307Y1441D01*
G37*
D02*
G36*
X125Y1433D02*
X125Y1431D01*
X327Y1431D01*
X327Y1433D01*
X125Y1433D01*
G37*
D02*
G36*
X125Y1433D02*
X125Y1431D01*
X327Y1431D01*
X327Y1433D01*
X125Y1433D01*
G37*
D02*
G36*
X125Y1431D02*
X125Y1215D01*
X271Y1215D01*
X271Y1213D01*
X281Y1213D01*
X281Y1211D01*
X285Y1211D01*
X285Y1209D01*
X305Y1209D01*
X305Y1211D01*
X307Y1211D01*
X307Y1217D01*
X309Y1217D01*
X309Y1221D01*
X311Y1221D01*
X311Y1223D01*
X313Y1223D01*
X313Y1227D01*
X315Y1227D01*
X315Y1229D01*
X317Y1229D01*
X317Y1231D01*
X319Y1231D01*
X319Y1233D01*
X321Y1233D01*
X321Y1253D01*
X319Y1253D01*
X319Y1255D01*
X317Y1255D01*
X317Y1257D01*
X315Y1257D01*
X315Y1259D01*
X313Y1259D01*
X313Y1261D01*
X311Y1261D01*
X311Y1263D01*
X309Y1263D01*
X309Y1265D01*
X307Y1265D01*
X307Y1267D01*
X305Y1267D01*
X305Y1271D01*
X303Y1271D01*
X303Y1273D01*
X301Y1273D01*
X301Y1277D01*
X299Y1277D01*
X299Y1281D01*
X297Y1281D01*
X297Y1285D01*
X295Y1285D01*
X295Y1291D01*
X293Y1291D01*
X293Y1299D01*
X291Y1299D01*
X291Y1331D01*
X293Y1331D01*
X293Y1339D01*
X295Y1339D01*
X295Y1345D01*
X297Y1345D01*
X297Y1349D01*
X299Y1349D01*
X299Y1353D01*
X301Y1353D01*
X301Y1357D01*
X303Y1357D01*
X303Y1359D01*
X305Y1359D01*
X305Y1361D01*
X307Y1361D01*
X307Y1365D01*
X309Y1365D01*
X309Y1367D01*
X311Y1367D01*
X311Y1369D01*
X313Y1369D01*
X313Y1371D01*
X315Y1371D01*
X315Y1373D01*
X317Y1373D01*
X317Y1375D01*
X319Y1375D01*
X319Y1377D01*
X321Y1377D01*
X321Y1379D01*
X323Y1379D01*
X323Y1381D01*
X327Y1381D01*
X327Y1431D01*
X125Y1431D01*
G37*
D02*
G36*
X125Y1215D02*
X125Y777D01*
X241Y777D01*
X241Y779D01*
X235Y779D01*
X235Y781D01*
X229Y781D01*
X229Y783D01*
X225Y783D01*
X225Y785D01*
X223Y785D01*
X223Y787D01*
X219Y787D01*
X219Y789D01*
X217Y789D01*
X217Y791D01*
X215Y791D01*
X215Y793D01*
X213Y793D01*
X213Y795D01*
X209Y795D01*
X209Y799D01*
X207Y799D01*
X207Y801D01*
X205Y801D01*
X205Y803D01*
X203Y803D01*
X203Y805D01*
X201Y805D01*
X201Y809D01*
X199Y809D01*
X199Y811D01*
X197Y811D01*
X197Y815D01*
X195Y815D01*
X195Y819D01*
X193Y819D01*
X193Y825D01*
X191Y825D01*
X191Y835D01*
X189Y835D01*
X189Y857D01*
X191Y857D01*
X191Y867D01*
X193Y867D01*
X193Y871D01*
X195Y871D01*
X195Y877D01*
X197Y877D01*
X197Y879D01*
X199Y879D01*
X199Y883D01*
X201Y883D01*
X201Y885D01*
X203Y885D01*
X203Y905D01*
X201Y905D01*
X201Y909D01*
X199Y909D01*
X199Y911D01*
X197Y911D01*
X197Y915D01*
X195Y915D01*
X195Y919D01*
X193Y919D01*
X193Y925D01*
X191Y925D01*
X191Y935D01*
X189Y935D01*
X189Y957D01*
X191Y957D01*
X191Y967D01*
X193Y967D01*
X193Y971D01*
X195Y971D01*
X195Y977D01*
X197Y977D01*
X197Y979D01*
X199Y979D01*
X199Y983D01*
X201Y983D01*
X201Y985D01*
X203Y985D01*
X203Y1005D01*
X201Y1005D01*
X201Y1009D01*
X199Y1009D01*
X199Y1011D01*
X197Y1011D01*
X197Y1015D01*
X195Y1015D01*
X195Y1019D01*
X193Y1019D01*
X193Y1025D01*
X191Y1025D01*
X191Y1035D01*
X189Y1035D01*
X189Y1057D01*
X191Y1057D01*
X191Y1067D01*
X193Y1067D01*
X193Y1071D01*
X195Y1071D01*
X195Y1077D01*
X197Y1077D01*
X197Y1079D01*
X199Y1079D01*
X199Y1083D01*
X201Y1083D01*
X201Y1085D01*
X203Y1085D01*
X203Y1105D01*
X201Y1105D01*
X201Y1109D01*
X199Y1109D01*
X199Y1111D01*
X197Y1111D01*
X197Y1115D01*
X195Y1115D01*
X195Y1119D01*
X193Y1119D01*
X193Y1125D01*
X191Y1125D01*
X191Y1135D01*
X189Y1135D01*
X189Y1157D01*
X191Y1157D01*
X191Y1167D01*
X193Y1167D01*
X193Y1171D01*
X195Y1171D01*
X195Y1177D01*
X197Y1177D01*
X197Y1179D01*
X199Y1179D01*
X199Y1183D01*
X201Y1183D01*
X201Y1185D01*
X203Y1185D01*
X203Y1189D01*
X205Y1189D01*
X205Y1191D01*
X207Y1191D01*
X207Y1193D01*
X209Y1193D01*
X209Y1195D01*
X211Y1195D01*
X211Y1197D01*
X213Y1197D01*
X213Y1199D01*
X215Y1199D01*
X215Y1201D01*
X219Y1201D01*
X219Y1203D01*
X221Y1203D01*
X221Y1205D01*
X225Y1205D01*
X225Y1207D01*
X227Y1207D01*
X227Y1209D01*
X231Y1209D01*
X231Y1211D01*
X237Y1211D01*
X237Y1213D01*
X245Y1213D01*
X245Y1215D01*
X125Y1215D01*
G37*
D02*
G36*
X573Y1095D02*
X573Y1093D01*
X571Y1093D01*
X571Y1091D01*
X567Y1091D01*
X567Y1089D01*
X565Y1089D01*
X565Y1087D01*
X561Y1087D01*
X561Y1085D01*
X559Y1085D01*
X559Y1083D01*
X555Y1083D01*
X555Y1081D01*
X553Y1081D01*
X553Y1079D01*
X549Y1079D01*
X549Y1077D01*
X547Y1077D01*
X547Y1075D01*
X543Y1075D01*
X543Y1073D01*
X541Y1073D01*
X541Y1071D01*
X537Y1071D01*
X537Y1069D01*
X533Y1069D01*
X533Y1067D01*
X531Y1067D01*
X531Y1065D01*
X527Y1065D01*
X527Y1063D01*
X525Y1063D01*
X525Y1061D01*
X521Y1061D01*
X521Y1059D01*
X519Y1059D01*
X519Y1057D01*
X515Y1057D01*
X515Y1055D01*
X513Y1055D01*
X513Y1053D01*
X509Y1053D01*
X509Y1051D01*
X507Y1051D01*
X507Y1049D01*
X503Y1049D01*
X503Y1047D01*
X499Y1047D01*
X499Y1045D01*
X497Y1045D01*
X497Y1043D01*
X493Y1043D01*
X493Y1041D01*
X491Y1041D01*
X491Y1039D01*
X487Y1039D01*
X487Y1037D01*
X485Y1037D01*
X485Y1035D01*
X481Y1035D01*
X481Y1033D01*
X479Y1033D01*
X479Y1031D01*
X475Y1031D01*
X475Y1029D01*
X473Y1029D01*
X473Y1027D01*
X469Y1027D01*
X469Y1025D01*
X465Y1025D01*
X465Y1023D01*
X463Y1023D01*
X463Y1021D01*
X459Y1021D01*
X459Y1019D01*
X457Y1019D01*
X457Y1017D01*
X453Y1017D01*
X453Y1015D01*
X451Y1015D01*
X451Y1013D01*
X447Y1013D01*
X447Y1011D01*
X445Y1011D01*
X445Y1009D01*
X441Y1009D01*
X441Y1007D01*
X439Y1007D01*
X439Y1005D01*
X435Y1005D01*
X435Y1003D01*
X431Y1003D01*
X431Y1001D01*
X429Y1001D01*
X429Y999D01*
X425Y999D01*
X425Y997D01*
X423Y997D01*
X423Y995D01*
X419Y995D01*
X419Y993D01*
X417Y993D01*
X417Y991D01*
X413Y991D01*
X413Y989D01*
X411Y989D01*
X411Y987D01*
X407Y987D01*
X407Y985D01*
X405Y985D01*
X405Y983D01*
X401Y983D01*
X401Y981D01*
X397Y981D01*
X397Y979D01*
X395Y979D01*
X395Y977D01*
X391Y977D01*
X391Y975D01*
X389Y975D01*
X389Y973D01*
X385Y973D01*
X385Y971D01*
X383Y971D01*
X383Y969D01*
X379Y969D01*
X379Y967D01*
X377Y967D01*
X377Y965D01*
X373Y965D01*
X373Y963D01*
X371Y963D01*
X371Y961D01*
X367Y961D01*
X367Y959D01*
X363Y959D01*
X363Y957D01*
X361Y957D01*
X361Y955D01*
X357Y955D01*
X357Y953D01*
X355Y953D01*
X355Y951D01*
X351Y951D01*
X351Y949D01*
X349Y949D01*
X349Y947D01*
X345Y947D01*
X345Y945D01*
X343Y945D01*
X343Y943D01*
X339Y943D01*
X339Y941D01*
X337Y941D01*
X337Y939D01*
X333Y939D01*
X333Y937D01*
X331Y937D01*
X331Y935D01*
X327Y935D01*
X327Y927D01*
X325Y927D01*
X325Y921D01*
X323Y921D01*
X323Y915D01*
X321Y915D01*
X321Y913D01*
X319Y913D01*
X319Y909D01*
X317Y909D01*
X317Y905D01*
X315Y905D01*
X315Y885D01*
X317Y885D01*
X317Y883D01*
X319Y883D01*
X319Y879D01*
X321Y879D01*
X321Y875D01*
X323Y875D01*
X323Y871D01*
X325Y871D01*
X325Y865D01*
X327Y865D01*
X327Y827D01*
X325Y827D01*
X325Y821D01*
X323Y821D01*
X323Y815D01*
X321Y815D01*
X321Y813D01*
X319Y813D01*
X319Y809D01*
X317Y809D01*
X317Y805D01*
X315Y805D01*
X315Y803D01*
X313Y803D01*
X313Y801D01*
X311Y801D01*
X311Y799D01*
X309Y799D01*
X309Y797D01*
X307Y797D01*
X307Y795D01*
X305Y795D01*
X305Y793D01*
X303Y793D01*
X303Y791D01*
X301Y791D01*
X301Y789D01*
X297Y789D01*
X297Y787D01*
X295Y787D01*
X295Y785D01*
X291Y785D01*
X291Y783D01*
X287Y783D01*
X287Y781D01*
X283Y781D01*
X283Y779D01*
X277Y779D01*
X277Y777D01*
X581Y777D01*
X581Y779D01*
X583Y779D01*
X583Y781D01*
X585Y781D01*
X585Y783D01*
X587Y783D01*
X587Y785D01*
X589Y785D01*
X589Y787D01*
X591Y787D01*
X591Y789D01*
X593Y789D01*
X593Y791D01*
X595Y791D01*
X595Y795D01*
X597Y795D01*
X597Y797D01*
X599Y797D01*
X599Y799D01*
X601Y799D01*
X601Y801D01*
X603Y801D01*
X603Y803D01*
X605Y803D01*
X605Y805D01*
X607Y805D01*
X607Y807D01*
X609Y807D01*
X609Y809D01*
X611Y809D01*
X611Y811D01*
X613Y811D01*
X613Y815D01*
X615Y815D01*
X615Y817D01*
X617Y817D01*
X617Y819D01*
X619Y819D01*
X619Y821D01*
X621Y821D01*
X621Y823D01*
X623Y823D01*
X623Y825D01*
X625Y825D01*
X625Y827D01*
X627Y827D01*
X627Y829D01*
X629Y829D01*
X629Y833D01*
X631Y833D01*
X631Y835D01*
X633Y835D01*
X633Y837D01*
X635Y837D01*
X635Y839D01*
X637Y839D01*
X637Y841D01*
X639Y841D01*
X639Y843D01*
X641Y843D01*
X641Y845D01*
X643Y845D01*
X643Y847D01*
X645Y847D01*
X645Y849D01*
X647Y849D01*
X647Y853D01*
X649Y853D01*
X649Y855D01*
X651Y855D01*
X651Y857D01*
X653Y857D01*
X653Y859D01*
X655Y859D01*
X655Y861D01*
X657Y861D01*
X657Y863D01*
X659Y863D01*
X659Y865D01*
X661Y865D01*
X661Y867D01*
X663Y867D01*
X663Y871D01*
X665Y871D01*
X665Y873D01*
X667Y873D01*
X667Y875D01*
X669Y875D01*
X669Y877D01*
X671Y877D01*
X671Y879D01*
X673Y879D01*
X673Y881D01*
X675Y881D01*
X675Y883D01*
X677Y883D01*
X677Y885D01*
X679Y885D01*
X679Y887D01*
X681Y887D01*
X681Y891D01*
X683Y891D01*
X683Y893D01*
X685Y893D01*
X685Y895D01*
X687Y895D01*
X687Y897D01*
X689Y897D01*
X689Y899D01*
X691Y899D01*
X691Y901D01*
X693Y901D01*
X693Y903D01*
X695Y903D01*
X695Y905D01*
X697Y905D01*
X697Y909D01*
X699Y909D01*
X699Y911D01*
X701Y911D01*
X701Y913D01*
X703Y913D01*
X703Y915D01*
X705Y915D01*
X705Y917D01*
X707Y917D01*
X707Y919D01*
X709Y919D01*
X709Y921D01*
X711Y921D01*
X711Y941D01*
X595Y941D01*
X595Y1095D01*
X573Y1095D01*
G37*
D02*
G36*
X1201Y955D02*
X1201Y953D01*
X1199Y953D01*
X1199Y951D01*
X1197Y951D01*
X1197Y949D01*
X1193Y949D01*
X1193Y947D01*
X1189Y947D01*
X1189Y945D01*
X1185Y945D01*
X1185Y943D01*
X1179Y943D01*
X1179Y941D01*
X1245Y941D01*
X1245Y943D01*
X1237Y943D01*
X1237Y945D01*
X1233Y945D01*
X1233Y947D01*
X1229Y947D01*
X1229Y949D01*
X1225Y949D01*
X1225Y951D01*
X1223Y951D01*
X1223Y953D01*
X1221Y953D01*
X1221Y955D01*
X1201Y955D01*
G37*
D02*
G36*
X1301Y955D02*
X1301Y953D01*
X1299Y953D01*
X1299Y951D01*
X1297Y951D01*
X1297Y949D01*
X1293Y949D01*
X1293Y947D01*
X1289Y947D01*
X1289Y945D01*
X1285Y945D01*
X1285Y943D01*
X1279Y943D01*
X1279Y941D01*
X1345Y941D01*
X1345Y943D01*
X1337Y943D01*
X1337Y945D01*
X1333Y945D01*
X1333Y947D01*
X1329Y947D01*
X1329Y949D01*
X1325Y949D01*
X1325Y951D01*
X1323Y951D01*
X1323Y953D01*
X1321Y953D01*
X1321Y955D01*
X1301Y955D01*
G37*
D02*
G36*
X1171Y941D02*
X1171Y939D01*
X1355Y939D01*
X1355Y941D01*
X1171Y941D01*
G37*
D02*
G36*
X1171Y941D02*
X1171Y939D01*
X1355Y939D01*
X1355Y941D01*
X1171Y941D01*
G37*
D02*
G36*
X1169Y939D02*
X1169Y937D01*
X1167Y937D01*
X1167Y933D01*
X1165Y933D01*
X1165Y931D01*
X1163Y931D01*
X1163Y927D01*
X1161Y927D01*
X1161Y925D01*
X1159Y925D01*
X1159Y921D01*
X1157Y921D01*
X1157Y919D01*
X1155Y919D01*
X1155Y917D01*
X1153Y917D01*
X1153Y913D01*
X1151Y913D01*
X1151Y911D01*
X1149Y911D01*
X1149Y907D01*
X1147Y907D01*
X1147Y905D01*
X1145Y905D01*
X1145Y903D01*
X1143Y903D01*
X1143Y899D01*
X1141Y899D01*
X1141Y897D01*
X1139Y897D01*
X1139Y893D01*
X1137Y893D01*
X1137Y891D01*
X1135Y891D01*
X1135Y887D01*
X1133Y887D01*
X1133Y885D01*
X1131Y885D01*
X1131Y883D01*
X1129Y883D01*
X1129Y879D01*
X1127Y879D01*
X1127Y877D01*
X1125Y877D01*
X1125Y873D01*
X1123Y873D01*
X1123Y871D01*
X1121Y871D01*
X1121Y867D01*
X1119Y867D01*
X1119Y865D01*
X1117Y865D01*
X1117Y863D01*
X1115Y863D01*
X1115Y859D01*
X1113Y859D01*
X1113Y857D01*
X1111Y857D01*
X1111Y855D01*
X1109Y855D01*
X1109Y853D01*
X1107Y853D01*
X1107Y851D01*
X1105Y851D01*
X1105Y849D01*
X1103Y849D01*
X1103Y847D01*
X1099Y847D01*
X1099Y845D01*
X1095Y845D01*
X1095Y843D01*
X1087Y843D01*
X1087Y841D01*
X763Y841D01*
X763Y839D01*
X761Y839D01*
X761Y837D01*
X759Y837D01*
X759Y835D01*
X757Y835D01*
X757Y833D01*
X755Y833D01*
X755Y829D01*
X753Y829D01*
X753Y827D01*
X751Y827D01*
X751Y825D01*
X749Y825D01*
X749Y823D01*
X747Y823D01*
X747Y821D01*
X745Y821D01*
X745Y819D01*
X743Y819D01*
X743Y817D01*
X741Y817D01*
X741Y815D01*
X739Y815D01*
X739Y813D01*
X737Y813D01*
X737Y809D01*
X735Y809D01*
X735Y807D01*
X733Y807D01*
X733Y805D01*
X731Y805D01*
X731Y803D01*
X729Y803D01*
X729Y801D01*
X727Y801D01*
X727Y799D01*
X725Y799D01*
X725Y797D01*
X723Y797D01*
X723Y795D01*
X721Y795D01*
X721Y791D01*
X719Y791D01*
X719Y789D01*
X717Y789D01*
X717Y787D01*
X715Y787D01*
X715Y785D01*
X713Y785D01*
X713Y783D01*
X711Y783D01*
X711Y781D01*
X709Y781D01*
X709Y779D01*
X707Y779D01*
X707Y777D01*
X705Y777D01*
X705Y775D01*
X703Y775D01*
X703Y771D01*
X701Y771D01*
X701Y769D01*
X699Y769D01*
X699Y767D01*
X697Y767D01*
X697Y765D01*
X695Y765D01*
X695Y763D01*
X693Y763D01*
X693Y761D01*
X691Y761D01*
X691Y759D01*
X689Y759D01*
X689Y757D01*
X687Y757D01*
X687Y755D01*
X685Y755D01*
X685Y751D01*
X683Y751D01*
X683Y749D01*
X681Y749D01*
X681Y747D01*
X679Y747D01*
X679Y745D01*
X677Y745D01*
X677Y743D01*
X675Y743D01*
X675Y741D01*
X673Y741D01*
X673Y739D01*
X671Y739D01*
X671Y737D01*
X1261Y737D01*
X1261Y735D01*
X1269Y735D01*
X1269Y733D01*
X1273Y733D01*
X1273Y731D01*
X1275Y731D01*
X1275Y729D01*
X1279Y729D01*
X1279Y727D01*
X1281Y727D01*
X1281Y725D01*
X1283Y725D01*
X1283Y723D01*
X1285Y723D01*
X1285Y721D01*
X1287Y721D01*
X1287Y719D01*
X1289Y719D01*
X1289Y717D01*
X1291Y717D01*
X1291Y715D01*
X1293Y715D01*
X1293Y713D01*
X1297Y713D01*
X1297Y711D01*
X1299Y711D01*
X1299Y709D01*
X1301Y709D01*
X1301Y707D01*
X1303Y707D01*
X1303Y705D01*
X1305Y705D01*
X1305Y703D01*
X1307Y703D01*
X1307Y701D01*
X1309Y701D01*
X1309Y699D01*
X1311Y699D01*
X1311Y697D01*
X1313Y697D01*
X1313Y695D01*
X1315Y695D01*
X1315Y693D01*
X1317Y693D01*
X1317Y691D01*
X1321Y691D01*
X1321Y689D01*
X1323Y689D01*
X1323Y687D01*
X1325Y687D01*
X1325Y685D01*
X1327Y685D01*
X1327Y683D01*
X1329Y683D01*
X1329Y681D01*
X1331Y681D01*
X1331Y679D01*
X1333Y679D01*
X1333Y677D01*
X1335Y677D01*
X1335Y675D01*
X1337Y675D01*
X1337Y673D01*
X1339Y673D01*
X1339Y671D01*
X1341Y671D01*
X1341Y667D01*
X1343Y667D01*
X1343Y663D01*
X1345Y663D01*
X1345Y655D01*
X1375Y655D01*
X1375Y637D01*
X1379Y637D01*
X1379Y635D01*
X1385Y635D01*
X1385Y633D01*
X1389Y633D01*
X1389Y631D01*
X1391Y631D01*
X1391Y629D01*
X1395Y629D01*
X1395Y627D01*
X1397Y627D01*
X1397Y625D01*
X1399Y625D01*
X1399Y623D01*
X1403Y623D01*
X1403Y621D01*
X1405Y621D01*
X1405Y619D01*
X1407Y619D01*
X1407Y617D01*
X1411Y617D01*
X1411Y615D01*
X1413Y615D01*
X1413Y613D01*
X1417Y613D01*
X1417Y611D01*
X1419Y611D01*
X1419Y609D01*
X1421Y609D01*
X1421Y607D01*
X1425Y607D01*
X1425Y605D01*
X1427Y605D01*
X1427Y603D01*
X1561Y603D01*
X1561Y655D01*
X1563Y655D01*
X1563Y767D01*
X1561Y767D01*
X1561Y769D01*
X1559Y769D01*
X1559Y771D01*
X1557Y771D01*
X1557Y773D01*
X1555Y773D01*
X1555Y775D01*
X1553Y775D01*
X1553Y777D01*
X1551Y777D01*
X1551Y779D01*
X1549Y779D01*
X1549Y781D01*
X1547Y781D01*
X1547Y783D01*
X1545Y783D01*
X1545Y785D01*
X1543Y785D01*
X1543Y787D01*
X1541Y787D01*
X1541Y789D01*
X1539Y789D01*
X1539Y791D01*
X1537Y791D01*
X1537Y793D01*
X1533Y793D01*
X1533Y795D01*
X1531Y795D01*
X1531Y797D01*
X1529Y797D01*
X1529Y799D01*
X1527Y799D01*
X1527Y801D01*
X1525Y801D01*
X1525Y803D01*
X1523Y803D01*
X1523Y805D01*
X1471Y805D01*
X1471Y807D01*
X1463Y807D01*
X1463Y809D01*
X1459Y809D01*
X1459Y811D01*
X1455Y811D01*
X1455Y813D01*
X1453Y813D01*
X1453Y815D01*
X1451Y815D01*
X1451Y817D01*
X1449Y817D01*
X1449Y819D01*
X1447Y819D01*
X1447Y821D01*
X1445Y821D01*
X1445Y825D01*
X1443Y825D01*
X1443Y827D01*
X1441Y827D01*
X1441Y829D01*
X1439Y829D01*
X1439Y833D01*
X1437Y833D01*
X1437Y835D01*
X1435Y835D01*
X1435Y837D01*
X1433Y837D01*
X1433Y841D01*
X1431Y841D01*
X1431Y843D01*
X1429Y843D01*
X1429Y845D01*
X1427Y845D01*
X1427Y847D01*
X1425Y847D01*
X1425Y851D01*
X1423Y851D01*
X1423Y853D01*
X1421Y853D01*
X1421Y855D01*
X1419Y855D01*
X1419Y859D01*
X1417Y859D01*
X1417Y861D01*
X1415Y861D01*
X1415Y863D01*
X1413Y863D01*
X1413Y865D01*
X1411Y865D01*
X1411Y869D01*
X1409Y869D01*
X1409Y871D01*
X1407Y871D01*
X1407Y873D01*
X1405Y873D01*
X1405Y877D01*
X1403Y877D01*
X1403Y879D01*
X1401Y879D01*
X1401Y881D01*
X1399Y881D01*
X1399Y883D01*
X1397Y883D01*
X1397Y887D01*
X1395Y887D01*
X1395Y889D01*
X1393Y889D01*
X1393Y891D01*
X1391Y891D01*
X1391Y895D01*
X1389Y895D01*
X1389Y897D01*
X1387Y897D01*
X1387Y899D01*
X1385Y899D01*
X1385Y901D01*
X1383Y901D01*
X1383Y905D01*
X1381Y905D01*
X1381Y907D01*
X1379Y907D01*
X1379Y909D01*
X1377Y909D01*
X1377Y913D01*
X1375Y913D01*
X1375Y915D01*
X1373Y915D01*
X1373Y917D01*
X1371Y917D01*
X1371Y919D01*
X1369Y919D01*
X1369Y923D01*
X1367Y923D01*
X1367Y925D01*
X1365Y925D01*
X1365Y927D01*
X1363Y927D01*
X1363Y931D01*
X1361Y931D01*
X1361Y933D01*
X1359Y933D01*
X1359Y935D01*
X1357Y935D01*
X1357Y937D01*
X1355Y937D01*
X1355Y939D01*
X1169Y939D01*
G37*
D02*
G36*
X125Y777D02*
X125Y775D01*
X579Y775D01*
X579Y777D01*
X125Y777D01*
G37*
D02*
G36*
X125Y777D02*
X125Y775D01*
X579Y775D01*
X579Y777D01*
X125Y777D01*
G37*
D02*
G36*
X125Y775D02*
X125Y669D01*
X339Y669D01*
X339Y667D01*
X343Y667D01*
X343Y665D01*
X347Y665D01*
X347Y663D01*
X351Y663D01*
X351Y661D01*
X353Y661D01*
X353Y659D01*
X357Y659D01*
X357Y657D01*
X359Y657D01*
X359Y655D01*
X361Y655D01*
X361Y653D01*
X363Y653D01*
X363Y651D01*
X365Y651D01*
X365Y647D01*
X367Y647D01*
X367Y645D01*
X369Y645D01*
X369Y641D01*
X371Y641D01*
X371Y637D01*
X373Y637D01*
X373Y631D01*
X375Y631D01*
X375Y605D01*
X373Y605D01*
X373Y597D01*
X371Y597D01*
X371Y593D01*
X369Y593D01*
X369Y591D01*
X367Y591D01*
X367Y587D01*
X365Y587D01*
X365Y585D01*
X363Y585D01*
X363Y583D01*
X459Y583D01*
X459Y659D01*
X483Y659D01*
X483Y663D01*
X485Y663D01*
X485Y669D01*
X487Y669D01*
X487Y673D01*
X489Y673D01*
X489Y675D01*
X491Y675D01*
X491Y677D01*
X493Y677D01*
X493Y681D01*
X495Y681D01*
X495Y683D01*
X497Y683D01*
X497Y685D01*
X499Y685D01*
X499Y687D01*
X501Y687D01*
X501Y689D01*
X503Y689D01*
X503Y691D01*
X505Y691D01*
X505Y693D01*
X507Y693D01*
X507Y695D01*
X509Y695D01*
X509Y697D01*
X511Y697D01*
X511Y701D01*
X513Y701D01*
X513Y703D01*
X515Y703D01*
X515Y705D01*
X517Y705D01*
X517Y707D01*
X519Y707D01*
X519Y709D01*
X521Y709D01*
X521Y711D01*
X523Y711D01*
X523Y713D01*
X525Y713D01*
X525Y715D01*
X527Y715D01*
X527Y719D01*
X529Y719D01*
X529Y721D01*
X531Y721D01*
X531Y723D01*
X533Y723D01*
X533Y725D01*
X535Y725D01*
X535Y727D01*
X537Y727D01*
X537Y729D01*
X539Y729D01*
X539Y731D01*
X541Y731D01*
X541Y733D01*
X543Y733D01*
X543Y735D01*
X545Y735D01*
X545Y739D01*
X547Y739D01*
X547Y741D01*
X549Y741D01*
X549Y743D01*
X551Y743D01*
X551Y745D01*
X553Y745D01*
X553Y747D01*
X555Y747D01*
X555Y749D01*
X557Y749D01*
X557Y751D01*
X559Y751D01*
X559Y753D01*
X561Y753D01*
X561Y757D01*
X563Y757D01*
X563Y759D01*
X565Y759D01*
X565Y761D01*
X567Y761D01*
X567Y763D01*
X569Y763D01*
X569Y765D01*
X571Y765D01*
X571Y767D01*
X573Y767D01*
X573Y769D01*
X575Y769D01*
X575Y771D01*
X577Y771D01*
X577Y773D01*
X579Y773D01*
X579Y775D01*
X125Y775D01*
G37*
D02*
G36*
X669Y737D02*
X669Y733D01*
X667Y733D01*
X667Y731D01*
X665Y731D01*
X665Y729D01*
X663Y729D01*
X663Y727D01*
X661Y727D01*
X661Y725D01*
X659Y725D01*
X659Y723D01*
X657Y723D01*
X657Y721D01*
X655Y721D01*
X655Y719D01*
X653Y719D01*
X653Y717D01*
X651Y717D01*
X651Y713D01*
X649Y713D01*
X649Y711D01*
X647Y711D01*
X647Y709D01*
X645Y709D01*
X645Y707D01*
X643Y707D01*
X643Y705D01*
X641Y705D01*
X641Y703D01*
X639Y703D01*
X639Y701D01*
X637Y701D01*
X637Y699D01*
X635Y699D01*
X635Y695D01*
X633Y695D01*
X633Y693D01*
X631Y693D01*
X631Y691D01*
X629Y691D01*
X629Y689D01*
X627Y689D01*
X627Y687D01*
X625Y687D01*
X625Y685D01*
X623Y685D01*
X623Y683D01*
X621Y683D01*
X621Y681D01*
X619Y681D01*
X619Y679D01*
X617Y679D01*
X617Y675D01*
X615Y675D01*
X615Y673D01*
X613Y673D01*
X613Y671D01*
X611Y671D01*
X611Y669D01*
X673Y669D01*
X673Y667D01*
X679Y667D01*
X679Y665D01*
X683Y665D01*
X683Y663D01*
X765Y663D01*
X765Y665D01*
X767Y665D01*
X767Y669D01*
X769Y669D01*
X769Y673D01*
X771Y673D01*
X771Y677D01*
X773Y677D01*
X773Y679D01*
X775Y679D01*
X775Y681D01*
X777Y681D01*
X777Y683D01*
X779Y683D01*
X779Y685D01*
X781Y685D01*
X781Y687D01*
X785Y687D01*
X785Y689D01*
X787Y689D01*
X787Y691D01*
X789Y691D01*
X789Y693D01*
X791Y693D01*
X791Y695D01*
X793Y695D01*
X793Y697D01*
X795Y697D01*
X795Y699D01*
X797Y699D01*
X797Y701D01*
X799Y701D01*
X799Y703D01*
X801Y703D01*
X801Y705D01*
X805Y705D01*
X805Y707D01*
X807Y707D01*
X807Y709D01*
X809Y709D01*
X809Y711D01*
X811Y711D01*
X811Y713D01*
X813Y713D01*
X813Y715D01*
X815Y715D01*
X815Y717D01*
X817Y717D01*
X817Y719D01*
X819Y719D01*
X819Y721D01*
X821Y721D01*
X821Y723D01*
X825Y723D01*
X825Y725D01*
X827Y725D01*
X827Y727D01*
X829Y727D01*
X829Y729D01*
X833Y729D01*
X833Y731D01*
X837Y731D01*
X837Y733D01*
X843Y733D01*
X843Y735D01*
X1087Y735D01*
X1087Y737D01*
X669Y737D01*
G37*
D02*
G36*
X125Y669D02*
X125Y565D01*
X313Y565D01*
X313Y567D01*
X305Y567D01*
X305Y569D01*
X301Y569D01*
X301Y571D01*
X297Y571D01*
X297Y573D01*
X245Y573D01*
X245Y575D01*
X239Y575D01*
X239Y577D01*
X235Y577D01*
X235Y579D01*
X183Y579D01*
X183Y655D01*
X235Y655D01*
X235Y657D01*
X239Y657D01*
X239Y659D01*
X245Y659D01*
X245Y661D01*
X295Y661D01*
X295Y663D01*
X299Y663D01*
X299Y665D01*
X303Y665D01*
X303Y667D01*
X307Y667D01*
X307Y669D01*
X125Y669D01*
G37*
D02*
G36*
X609Y669D02*
X609Y667D01*
X607Y667D01*
X607Y665D01*
X605Y665D01*
X605Y663D01*
X603Y663D01*
X603Y661D01*
X601Y661D01*
X601Y657D01*
X599Y657D01*
X599Y655D01*
X597Y655D01*
X597Y653D01*
X595Y653D01*
X595Y651D01*
X593Y651D01*
X593Y649D01*
X591Y649D01*
X591Y647D01*
X589Y647D01*
X589Y645D01*
X587Y645D01*
X587Y643D01*
X585Y643D01*
X585Y641D01*
X583Y641D01*
X583Y637D01*
X581Y637D01*
X581Y635D01*
X579Y635D01*
X579Y633D01*
X577Y633D01*
X577Y631D01*
X575Y631D01*
X575Y629D01*
X573Y629D01*
X573Y627D01*
X571Y627D01*
X571Y625D01*
X569Y625D01*
X569Y623D01*
X567Y623D01*
X567Y619D01*
X565Y619D01*
X565Y617D01*
X563Y617D01*
X563Y615D01*
X561Y615D01*
X561Y613D01*
X559Y613D01*
X559Y611D01*
X557Y611D01*
X557Y609D01*
X553Y609D01*
X553Y607D01*
X549Y607D01*
X549Y583D01*
X617Y583D01*
X617Y585D01*
X615Y585D01*
X615Y589D01*
X613Y589D01*
X613Y591D01*
X611Y591D01*
X611Y595D01*
X609Y595D01*
X609Y599D01*
X607Y599D01*
X607Y609D01*
X605Y609D01*
X605Y625D01*
X607Y625D01*
X607Y635D01*
X609Y635D01*
X609Y639D01*
X611Y639D01*
X611Y643D01*
X613Y643D01*
X613Y647D01*
X615Y647D01*
X615Y649D01*
X617Y649D01*
X617Y651D01*
X619Y651D01*
X619Y653D01*
X621Y653D01*
X621Y655D01*
X623Y655D01*
X623Y657D01*
X625Y657D01*
X625Y659D01*
X627Y659D01*
X627Y661D01*
X629Y661D01*
X629Y663D01*
X633Y663D01*
X633Y665D01*
X637Y665D01*
X637Y667D01*
X643Y667D01*
X643Y669D01*
X609Y669D01*
G37*
D02*
G36*
X877Y647D02*
X877Y645D01*
X875Y645D01*
X875Y643D01*
X873Y643D01*
X873Y641D01*
X871Y641D01*
X871Y639D01*
X869Y639D01*
X869Y637D01*
X867Y637D01*
X867Y635D01*
X865Y635D01*
X865Y633D01*
X863Y633D01*
X863Y631D01*
X859Y631D01*
X859Y629D01*
X857Y629D01*
X857Y627D01*
X855Y627D01*
X855Y625D01*
X853Y625D01*
X853Y623D01*
X851Y623D01*
X851Y621D01*
X849Y621D01*
X849Y619D01*
X847Y619D01*
X847Y617D01*
X845Y617D01*
X845Y615D01*
X843Y615D01*
X843Y613D01*
X839Y613D01*
X839Y611D01*
X837Y611D01*
X837Y609D01*
X835Y609D01*
X835Y607D01*
X831Y607D01*
X831Y605D01*
X825Y605D01*
X825Y603D01*
X823Y603D01*
X823Y583D01*
X775Y583D01*
X775Y581D01*
X771Y581D01*
X771Y579D01*
X767Y579D01*
X767Y577D01*
X757Y577D01*
X757Y575D01*
X687Y575D01*
X687Y573D01*
X683Y573D01*
X683Y571D01*
X681Y571D01*
X681Y569D01*
X675Y569D01*
X675Y567D01*
X667Y567D01*
X667Y565D01*
X1055Y565D01*
X1055Y567D01*
X1053Y567D01*
X1053Y569D01*
X1051Y569D01*
X1051Y571D01*
X1049Y571D01*
X1049Y575D01*
X1047Y575D01*
X1047Y577D01*
X1045Y577D01*
X1045Y583D01*
X1011Y583D01*
X1011Y647D01*
X877Y647D01*
G37*
D02*
G36*
X361Y583D02*
X361Y581D01*
X619Y581D01*
X619Y583D01*
X361Y583D01*
G37*
D02*
G36*
X361Y583D02*
X361Y581D01*
X619Y581D01*
X619Y583D01*
X361Y583D01*
G37*
D02*
G36*
X359Y581D02*
X359Y579D01*
X357Y579D01*
X357Y577D01*
X355Y577D01*
X355Y575D01*
X353Y575D01*
X353Y573D01*
X349Y573D01*
X349Y571D01*
X345Y571D01*
X345Y569D01*
X341Y569D01*
X341Y567D01*
X333Y567D01*
X333Y565D01*
X647Y565D01*
X647Y567D01*
X639Y567D01*
X639Y569D01*
X635Y569D01*
X635Y571D01*
X631Y571D01*
X631Y573D01*
X629Y573D01*
X629Y575D01*
X625Y575D01*
X625Y577D01*
X623Y577D01*
X623Y579D01*
X621Y579D01*
X621Y581D01*
X359Y581D01*
G37*
D02*
G36*
X125Y565D02*
X125Y563D01*
X1057Y563D01*
X1057Y565D01*
X125Y565D01*
G37*
D02*
G36*
X125Y565D02*
X125Y563D01*
X1057Y563D01*
X1057Y565D01*
X125Y565D01*
G37*
D02*
G36*
X125Y565D02*
X125Y563D01*
X1057Y563D01*
X1057Y565D01*
X125Y565D01*
G37*
D02*
G36*
X125Y563D02*
X125Y545D01*
X831Y545D01*
X831Y543D01*
X1033Y543D01*
X1033Y541D01*
X1043Y541D01*
X1043Y539D01*
X1047Y539D01*
X1047Y537D01*
X1069Y537D01*
X1069Y557D01*
X1065Y557D01*
X1065Y559D01*
X1063Y559D01*
X1063Y561D01*
X1059Y561D01*
X1059Y563D01*
X125Y563D01*
G37*
D02*
G36*
X125Y545D02*
X125Y537D01*
X549Y537D01*
X549Y461D01*
X515Y461D01*
X515Y457D01*
X513Y457D01*
X513Y451D01*
X511Y451D01*
X511Y447D01*
X509Y447D01*
X509Y445D01*
X507Y445D01*
X507Y443D01*
X505Y443D01*
X505Y441D01*
X503Y441D01*
X503Y439D01*
X501Y439D01*
X501Y437D01*
X497Y437D01*
X497Y435D01*
X495Y435D01*
X495Y433D01*
X493Y433D01*
X493Y431D01*
X489Y431D01*
X489Y429D01*
X487Y429D01*
X487Y427D01*
X485Y427D01*
X485Y425D01*
X481Y425D01*
X481Y423D01*
X479Y423D01*
X479Y421D01*
X477Y421D01*
X477Y419D01*
X473Y419D01*
X473Y417D01*
X471Y417D01*
X471Y415D01*
X469Y415D01*
X469Y413D01*
X465Y413D01*
X465Y411D01*
X463Y411D01*
X463Y409D01*
X461Y409D01*
X461Y407D01*
X457Y407D01*
X457Y405D01*
X455Y405D01*
X455Y403D01*
X453Y403D01*
X453Y401D01*
X449Y401D01*
X449Y399D01*
X447Y399D01*
X447Y397D01*
X445Y397D01*
X445Y395D01*
X633Y395D01*
X633Y393D01*
X639Y393D01*
X639Y391D01*
X643Y391D01*
X643Y389D01*
X647Y389D01*
X647Y387D01*
X651Y387D01*
X651Y385D01*
X653Y385D01*
X653Y383D01*
X657Y383D01*
X657Y381D01*
X659Y381D01*
X659Y379D01*
X661Y379D01*
X661Y377D01*
X663Y377D01*
X663Y375D01*
X665Y375D01*
X665Y373D01*
X667Y373D01*
X667Y371D01*
X669Y371D01*
X669Y369D01*
X671Y369D01*
X671Y365D01*
X673Y365D01*
X673Y363D01*
X675Y363D01*
X675Y359D01*
X677Y359D01*
X677Y355D01*
X679Y355D01*
X679Y351D01*
X681Y351D01*
X681Y345D01*
X683Y345D01*
X683Y307D01*
X681Y307D01*
X681Y301D01*
X679Y301D01*
X679Y297D01*
X677Y297D01*
X677Y293D01*
X675Y293D01*
X675Y289D01*
X673Y289D01*
X673Y287D01*
X671Y287D01*
X671Y283D01*
X669Y283D01*
X669Y281D01*
X667Y281D01*
X667Y279D01*
X665Y279D01*
X665Y277D01*
X663Y277D01*
X663Y275D01*
X661Y275D01*
X661Y273D01*
X659Y273D01*
X659Y271D01*
X657Y271D01*
X657Y269D01*
X653Y269D01*
X653Y267D01*
X651Y267D01*
X651Y265D01*
X647Y265D01*
X647Y263D01*
X643Y263D01*
X643Y261D01*
X639Y261D01*
X639Y259D01*
X633Y259D01*
X633Y257D01*
X853Y257D01*
X853Y259D01*
X847Y259D01*
X847Y261D01*
X841Y261D01*
X841Y263D01*
X837Y263D01*
X837Y265D01*
X835Y265D01*
X835Y267D01*
X831Y267D01*
X831Y269D01*
X829Y269D01*
X829Y271D01*
X827Y271D01*
X827Y273D01*
X823Y273D01*
X823Y275D01*
X821Y275D01*
X821Y277D01*
X819Y277D01*
X819Y279D01*
X817Y279D01*
X817Y283D01*
X815Y283D01*
X815Y285D01*
X813Y285D01*
X813Y287D01*
X811Y287D01*
X811Y291D01*
X809Y291D01*
X809Y293D01*
X807Y293D01*
X807Y297D01*
X805Y297D01*
X805Y303D01*
X803Y303D01*
X803Y309D01*
X801Y309D01*
X801Y343D01*
X803Y343D01*
X803Y349D01*
X805Y349D01*
X805Y355D01*
X807Y355D01*
X807Y359D01*
X809Y359D01*
X809Y361D01*
X811Y361D01*
X811Y365D01*
X813Y365D01*
X813Y367D01*
X815Y367D01*
X815Y371D01*
X817Y371D01*
X817Y373D01*
X819Y373D01*
X819Y375D01*
X821Y375D01*
X821Y377D01*
X823Y377D01*
X823Y379D01*
X825Y379D01*
X825Y381D01*
X827Y381D01*
X827Y423D01*
X825Y423D01*
X825Y425D01*
X823Y425D01*
X823Y427D01*
X821Y427D01*
X821Y429D01*
X819Y429D01*
X819Y431D01*
X817Y431D01*
X817Y433D01*
X815Y433D01*
X815Y435D01*
X813Y435D01*
X813Y437D01*
X811Y437D01*
X811Y441D01*
X809Y441D01*
X809Y443D01*
X807Y443D01*
X807Y445D01*
X805Y445D01*
X805Y447D01*
X803Y447D01*
X803Y449D01*
X801Y449D01*
X801Y451D01*
X799Y451D01*
X799Y453D01*
X797Y453D01*
X797Y455D01*
X795Y455D01*
X795Y457D01*
X793Y457D01*
X793Y459D01*
X787Y459D01*
X787Y461D01*
X735Y461D01*
X735Y537D01*
X783Y537D01*
X783Y539D01*
X787Y539D01*
X787Y541D01*
X791Y541D01*
X791Y543D01*
X801Y543D01*
X801Y545D01*
X125Y545D01*
G37*
D02*
G36*
X839Y543D02*
X839Y541D01*
X843Y541D01*
X843Y539D01*
X845Y539D01*
X845Y537D01*
X849Y537D01*
X849Y535D01*
X851Y535D01*
X851Y533D01*
X853Y533D01*
X853Y531D01*
X855Y531D01*
X855Y529D01*
X857Y529D01*
X857Y527D01*
X859Y527D01*
X859Y525D01*
X861Y525D01*
X861Y523D01*
X881Y523D01*
X881Y525D01*
X883Y525D01*
X883Y527D01*
X887Y527D01*
X887Y529D01*
X889Y529D01*
X889Y531D01*
X891Y531D01*
X891Y533D01*
X893Y533D01*
X893Y535D01*
X897Y535D01*
X897Y537D01*
X901Y537D01*
X901Y539D01*
X911Y539D01*
X911Y541D01*
X1011Y541D01*
X1011Y543D01*
X839Y543D01*
G37*
D02*
G36*
X125Y537D02*
X125Y533D01*
X273Y533D01*
X273Y457D01*
X241Y457D01*
X241Y449D01*
X239Y449D01*
X239Y445D01*
X237Y445D01*
X237Y441D01*
X235Y441D01*
X235Y439D01*
X233Y439D01*
X233Y437D01*
X231Y437D01*
X231Y435D01*
X229Y435D01*
X229Y433D01*
X227Y433D01*
X227Y431D01*
X225Y431D01*
X225Y429D01*
X223Y429D01*
X223Y427D01*
X221Y427D01*
X221Y425D01*
X217Y425D01*
X217Y423D01*
X215Y423D01*
X215Y421D01*
X213Y421D01*
X213Y419D01*
X211Y419D01*
X211Y417D01*
X209Y417D01*
X209Y415D01*
X207Y415D01*
X207Y413D01*
X203Y413D01*
X203Y411D01*
X201Y411D01*
X201Y409D01*
X199Y409D01*
X199Y407D01*
X197Y407D01*
X197Y405D01*
X195Y405D01*
X195Y403D01*
X193Y403D01*
X193Y401D01*
X189Y401D01*
X189Y399D01*
X187Y399D01*
X187Y379D01*
X189Y379D01*
X189Y377D01*
X191Y377D01*
X191Y375D01*
X193Y375D01*
X193Y373D01*
X195Y373D01*
X195Y371D01*
X197Y371D01*
X197Y367D01*
X199Y367D01*
X199Y365D01*
X201Y365D01*
X201Y363D01*
X203Y363D01*
X203Y359D01*
X205Y359D01*
X205Y355D01*
X207Y355D01*
X207Y351D01*
X209Y351D01*
X209Y345D01*
X211Y345D01*
X211Y309D01*
X209Y309D01*
X209Y301D01*
X207Y301D01*
X207Y297D01*
X205Y297D01*
X205Y293D01*
X203Y293D01*
X203Y291D01*
X201Y291D01*
X201Y287D01*
X199Y287D01*
X199Y285D01*
X197Y285D01*
X197Y281D01*
X195Y281D01*
X195Y279D01*
X193Y279D01*
X193Y277D01*
X191Y277D01*
X191Y275D01*
X189Y275D01*
X189Y273D01*
X187Y273D01*
X187Y271D01*
X183Y271D01*
X183Y269D01*
X181Y269D01*
X181Y267D01*
X177Y267D01*
X177Y265D01*
X175Y265D01*
X175Y263D01*
X171Y263D01*
X171Y261D01*
X167Y261D01*
X167Y259D01*
X159Y259D01*
X159Y257D01*
X381Y257D01*
X381Y259D01*
X373Y259D01*
X373Y261D01*
X369Y261D01*
X369Y263D01*
X365Y263D01*
X365Y265D01*
X361Y265D01*
X361Y267D01*
X359Y267D01*
X359Y269D01*
X357Y269D01*
X357Y271D01*
X353Y271D01*
X353Y273D01*
X351Y273D01*
X351Y275D01*
X349Y275D01*
X349Y277D01*
X347Y277D01*
X347Y279D01*
X345Y279D01*
X345Y281D01*
X343Y281D01*
X343Y285D01*
X341Y285D01*
X341Y287D01*
X339Y287D01*
X339Y289D01*
X337Y289D01*
X337Y293D01*
X335Y293D01*
X335Y297D01*
X333Y297D01*
X333Y301D01*
X331Y301D01*
X331Y307D01*
X329Y307D01*
X329Y345D01*
X331Y345D01*
X331Y351D01*
X333Y351D01*
X333Y355D01*
X335Y355D01*
X335Y359D01*
X337Y359D01*
X337Y363D01*
X339Y363D01*
X339Y365D01*
X341Y365D01*
X341Y369D01*
X343Y369D01*
X343Y371D01*
X345Y371D01*
X345Y373D01*
X347Y373D01*
X347Y375D01*
X349Y375D01*
X349Y377D01*
X351Y377D01*
X351Y379D01*
X353Y379D01*
X353Y433D01*
X355Y433D01*
X355Y439D01*
X357Y439D01*
X357Y445D01*
X359Y445D01*
X359Y447D01*
X361Y447D01*
X361Y451D01*
X363Y451D01*
X363Y453D01*
X365Y453D01*
X365Y455D01*
X367Y455D01*
X367Y457D01*
X371Y457D01*
X371Y459D01*
X373Y459D01*
X373Y461D01*
X375Y461D01*
X375Y463D01*
X379Y463D01*
X379Y465D01*
X381Y465D01*
X381Y467D01*
X385Y467D01*
X385Y469D01*
X387Y469D01*
X387Y471D01*
X389Y471D01*
X389Y473D01*
X393Y473D01*
X393Y475D01*
X395Y475D01*
X395Y477D01*
X397Y477D01*
X397Y479D01*
X401Y479D01*
X401Y481D01*
X403Y481D01*
X403Y483D01*
X405Y483D01*
X405Y485D01*
X409Y485D01*
X409Y487D01*
X411Y487D01*
X411Y489D01*
X413Y489D01*
X413Y491D01*
X417Y491D01*
X417Y493D01*
X419Y493D01*
X419Y495D01*
X421Y495D01*
X421Y497D01*
X425Y497D01*
X425Y499D01*
X427Y499D01*
X427Y501D01*
X429Y501D01*
X429Y503D01*
X433Y503D01*
X433Y505D01*
X435Y505D01*
X435Y507D01*
X437Y507D01*
X437Y509D01*
X441Y509D01*
X441Y511D01*
X443Y511D01*
X443Y513D01*
X447Y513D01*
X447Y515D01*
X451Y515D01*
X451Y517D01*
X457Y517D01*
X457Y519D01*
X459Y519D01*
X459Y537D01*
X125Y537D01*
G37*
D02*
G36*
X125Y533D02*
X125Y485D01*
X147Y485D01*
X147Y487D01*
X149Y487D01*
X149Y489D01*
X151Y489D01*
X151Y491D01*
X153Y491D01*
X153Y493D01*
X155Y493D01*
X155Y495D01*
X157Y495D01*
X157Y497D01*
X161Y497D01*
X161Y499D01*
X163Y499D01*
X163Y501D01*
X165Y501D01*
X165Y503D01*
X167Y503D01*
X167Y505D01*
X169Y505D01*
X169Y507D01*
X173Y507D01*
X173Y509D01*
X177Y509D01*
X177Y511D01*
X183Y511D01*
X183Y533D01*
X125Y533D01*
G37*
D02*
G36*
X1099Y523D02*
X1099Y461D01*
X1051Y461D01*
X1051Y459D01*
X1047Y459D01*
X1047Y457D01*
X1041Y457D01*
X1041Y455D01*
X1027Y455D01*
X1027Y453D01*
X943Y453D01*
X943Y451D01*
X941Y451D01*
X941Y449D01*
X939Y449D01*
X939Y447D01*
X937Y447D01*
X937Y445D01*
X933Y445D01*
X933Y443D01*
X931Y443D01*
X931Y441D01*
X929Y441D01*
X929Y439D01*
X927Y439D01*
X927Y437D01*
X925Y437D01*
X925Y435D01*
X923Y435D01*
X923Y433D01*
X921Y433D01*
X921Y431D01*
X919Y431D01*
X919Y429D01*
X917Y429D01*
X917Y427D01*
X915Y427D01*
X915Y395D01*
X1105Y395D01*
X1105Y393D01*
X1111Y393D01*
X1111Y391D01*
X1117Y391D01*
X1117Y389D01*
X1119Y389D01*
X1119Y387D01*
X1141Y387D01*
X1141Y509D01*
X1139Y509D01*
X1139Y511D01*
X1137Y511D01*
X1137Y513D01*
X1133Y513D01*
X1133Y515D01*
X1131Y515D01*
X1131Y517D01*
X1127Y517D01*
X1127Y519D01*
X1125Y519D01*
X1125Y521D01*
X1121Y521D01*
X1121Y523D01*
X1099Y523D01*
G37*
D02*
G36*
X445Y395D02*
X445Y377D01*
X447Y377D01*
X447Y375D01*
X449Y375D01*
X449Y373D01*
X451Y373D01*
X451Y371D01*
X453Y371D01*
X453Y367D01*
X455Y367D01*
X455Y365D01*
X457Y365D01*
X457Y363D01*
X459Y363D01*
X459Y359D01*
X461Y359D01*
X461Y355D01*
X463Y355D01*
X463Y351D01*
X465Y351D01*
X465Y343D01*
X467Y343D01*
X467Y309D01*
X465Y309D01*
X465Y303D01*
X463Y303D01*
X463Y297D01*
X461Y297D01*
X461Y293D01*
X459Y293D01*
X459Y291D01*
X457Y291D01*
X457Y287D01*
X455Y287D01*
X455Y285D01*
X453Y285D01*
X453Y283D01*
X451Y283D01*
X451Y279D01*
X449Y279D01*
X449Y277D01*
X447Y277D01*
X447Y275D01*
X445Y275D01*
X445Y273D01*
X441Y273D01*
X441Y271D01*
X439Y271D01*
X439Y269D01*
X437Y269D01*
X437Y267D01*
X433Y267D01*
X433Y265D01*
X431Y265D01*
X431Y263D01*
X427Y263D01*
X427Y261D01*
X421Y261D01*
X421Y259D01*
X415Y259D01*
X415Y257D01*
X597Y257D01*
X597Y259D01*
X591Y259D01*
X591Y261D01*
X585Y261D01*
X585Y263D01*
X581Y263D01*
X581Y265D01*
X579Y265D01*
X579Y267D01*
X575Y267D01*
X575Y269D01*
X573Y269D01*
X573Y271D01*
X571Y271D01*
X571Y273D01*
X567Y273D01*
X567Y275D01*
X565Y275D01*
X565Y277D01*
X563Y277D01*
X563Y279D01*
X561Y279D01*
X561Y283D01*
X559Y283D01*
X559Y285D01*
X557Y285D01*
X557Y287D01*
X555Y287D01*
X555Y291D01*
X553Y291D01*
X553Y293D01*
X551Y293D01*
X551Y297D01*
X549Y297D01*
X549Y303D01*
X547Y303D01*
X547Y309D01*
X545Y309D01*
X545Y343D01*
X547Y343D01*
X547Y349D01*
X549Y349D01*
X549Y355D01*
X551Y355D01*
X551Y359D01*
X553Y359D01*
X553Y361D01*
X555Y361D01*
X555Y365D01*
X557Y365D01*
X557Y367D01*
X559Y367D01*
X559Y371D01*
X561Y371D01*
X561Y373D01*
X563Y373D01*
X563Y375D01*
X565Y375D01*
X565Y377D01*
X567Y377D01*
X567Y379D01*
X569Y379D01*
X569Y381D01*
X573Y381D01*
X573Y383D01*
X575Y383D01*
X575Y385D01*
X577Y385D01*
X577Y387D01*
X581Y387D01*
X581Y389D01*
X585Y389D01*
X585Y391D01*
X589Y391D01*
X589Y393D01*
X595Y393D01*
X595Y395D01*
X445Y395D01*
G37*
D02*
G36*
X915Y395D02*
X915Y379D01*
X917Y379D01*
X917Y377D01*
X919Y377D01*
X919Y375D01*
X921Y375D01*
X921Y373D01*
X923Y373D01*
X923Y371D01*
X925Y371D01*
X925Y369D01*
X927Y369D01*
X927Y365D01*
X929Y365D01*
X929Y363D01*
X931Y363D01*
X931Y359D01*
X933Y359D01*
X933Y355D01*
X935Y355D01*
X935Y351D01*
X937Y351D01*
X937Y345D01*
X939Y345D01*
X939Y307D01*
X937Y307D01*
X937Y301D01*
X935Y301D01*
X935Y297D01*
X933Y297D01*
X933Y293D01*
X931Y293D01*
X931Y289D01*
X929Y289D01*
X929Y287D01*
X927Y287D01*
X927Y283D01*
X925Y283D01*
X925Y281D01*
X923Y281D01*
X923Y279D01*
X921Y279D01*
X921Y277D01*
X919Y277D01*
X919Y275D01*
X917Y275D01*
X917Y273D01*
X915Y273D01*
X915Y271D01*
X911Y271D01*
X911Y269D01*
X909Y269D01*
X909Y267D01*
X907Y267D01*
X907Y265D01*
X903Y265D01*
X903Y263D01*
X899Y263D01*
X899Y261D01*
X895Y261D01*
X895Y259D01*
X889Y259D01*
X889Y257D01*
X1069Y257D01*
X1069Y259D01*
X1063Y259D01*
X1063Y261D01*
X1057Y261D01*
X1057Y263D01*
X1055Y263D01*
X1055Y265D01*
X1051Y265D01*
X1051Y267D01*
X1047Y267D01*
X1047Y269D01*
X1045Y269D01*
X1045Y271D01*
X1043Y271D01*
X1043Y273D01*
X1041Y273D01*
X1041Y275D01*
X1039Y275D01*
X1039Y277D01*
X1037Y277D01*
X1037Y279D01*
X1035Y279D01*
X1035Y281D01*
X1033Y281D01*
X1033Y283D01*
X1031Y283D01*
X1031Y285D01*
X1029Y285D01*
X1029Y289D01*
X1027Y289D01*
X1027Y291D01*
X1025Y291D01*
X1025Y295D01*
X1023Y295D01*
X1023Y299D01*
X1021Y299D01*
X1021Y303D01*
X1019Y303D01*
X1019Y311D01*
X1017Y311D01*
X1017Y341D01*
X1019Y341D01*
X1019Y349D01*
X1021Y349D01*
X1021Y353D01*
X1023Y353D01*
X1023Y357D01*
X1025Y357D01*
X1025Y361D01*
X1027Y361D01*
X1027Y365D01*
X1029Y365D01*
X1029Y367D01*
X1031Y367D01*
X1031Y369D01*
X1033Y369D01*
X1033Y371D01*
X1035Y371D01*
X1035Y375D01*
X1037Y375D01*
X1037Y377D01*
X1039Y377D01*
X1039Y379D01*
X1043Y379D01*
X1043Y381D01*
X1045Y381D01*
X1045Y383D01*
X1047Y383D01*
X1047Y385D01*
X1051Y385D01*
X1051Y387D01*
X1053Y387D01*
X1053Y389D01*
X1057Y389D01*
X1057Y391D01*
X1061Y391D01*
X1061Y393D01*
X1067Y393D01*
X1067Y395D01*
X915Y395D01*
G37*
D02*
G36*
X1145Y289D02*
X1145Y285D01*
X1143Y285D01*
X1143Y283D01*
X1141Y283D01*
X1141Y281D01*
X1139Y281D01*
X1139Y279D01*
X1137Y279D01*
X1137Y277D01*
X1135Y277D01*
X1135Y275D01*
X1133Y275D01*
X1133Y273D01*
X1131Y273D01*
X1131Y271D01*
X1129Y271D01*
X1129Y269D01*
X1125Y269D01*
X1125Y267D01*
X1123Y267D01*
X1123Y265D01*
X1119Y265D01*
X1119Y263D01*
X1115Y263D01*
X1115Y261D01*
X1111Y261D01*
X1111Y259D01*
X1105Y259D01*
X1105Y257D01*
X1199Y257D01*
X1199Y259D01*
X1197Y259D01*
X1197Y261D01*
X1195Y261D01*
X1195Y263D01*
X1193Y263D01*
X1193Y265D01*
X1191Y265D01*
X1191Y267D01*
X1189Y267D01*
X1189Y269D01*
X1185Y269D01*
X1185Y271D01*
X1183Y271D01*
X1183Y273D01*
X1181Y273D01*
X1181Y275D01*
X1179Y275D01*
X1179Y277D01*
X1177Y277D01*
X1177Y279D01*
X1175Y279D01*
X1175Y281D01*
X1173Y281D01*
X1173Y283D01*
X1171Y283D01*
X1171Y285D01*
X1169Y285D01*
X1169Y287D01*
X1167Y287D01*
X1167Y289D01*
X1145Y289D01*
G37*
D02*
G36*
X125Y257D02*
X125Y255D01*
X1201Y255D01*
X1201Y257D01*
X125Y257D01*
G37*
D02*
G36*
X125Y257D02*
X125Y255D01*
X1201Y255D01*
X1201Y257D01*
X125Y257D01*
G37*
D02*
G36*
X125Y257D02*
X125Y255D01*
X1201Y255D01*
X1201Y257D01*
X125Y257D01*
G37*
D02*
G36*
X125Y257D02*
X125Y255D01*
X1201Y255D01*
X1201Y257D01*
X125Y257D01*
G37*
D02*
G36*
X125Y257D02*
X125Y255D01*
X1201Y255D01*
X1201Y257D01*
X125Y257D01*
G37*
D02*
G36*
X125Y255D02*
X125Y219D01*
X1101Y219D01*
X1101Y217D01*
X1109Y217D01*
X1109Y215D01*
X1113Y215D01*
X1113Y213D01*
X1117Y213D01*
X1117Y211D01*
X1121Y211D01*
X1121Y209D01*
X1125Y209D01*
X1125Y207D01*
X1127Y207D01*
X1127Y205D01*
X1129Y205D01*
X1129Y203D01*
X1133Y203D01*
X1133Y201D01*
X1135Y201D01*
X1135Y199D01*
X1137Y199D01*
X1137Y197D01*
X1139Y197D01*
X1139Y195D01*
X1141Y195D01*
X1141Y191D01*
X1143Y191D01*
X1143Y189D01*
X1145Y189D01*
X1145Y187D01*
X1147Y187D01*
X1147Y183D01*
X1149Y183D01*
X1149Y179D01*
X1151Y179D01*
X1151Y175D01*
X1153Y175D01*
X1153Y169D01*
X1155Y169D01*
X1155Y161D01*
X1157Y161D01*
X1157Y129D01*
X1273Y129D01*
X1273Y165D01*
X1275Y165D01*
X1275Y171D01*
X1277Y171D01*
X1277Y193D01*
X1271Y193D01*
X1271Y195D01*
X1267Y195D01*
X1267Y197D01*
X1263Y197D01*
X1263Y199D01*
X1261Y199D01*
X1261Y201D01*
X1259Y201D01*
X1259Y203D01*
X1257Y203D01*
X1257Y205D01*
X1255Y205D01*
X1255Y207D01*
X1253Y207D01*
X1253Y209D01*
X1251Y209D01*
X1251Y211D01*
X1249Y211D01*
X1249Y213D01*
X1245Y213D01*
X1245Y215D01*
X1243Y215D01*
X1243Y217D01*
X1241Y217D01*
X1241Y219D01*
X1239Y219D01*
X1239Y221D01*
X1237Y221D01*
X1237Y223D01*
X1235Y223D01*
X1235Y225D01*
X1233Y225D01*
X1233Y227D01*
X1231Y227D01*
X1231Y229D01*
X1229Y229D01*
X1229Y231D01*
X1227Y231D01*
X1227Y233D01*
X1225Y233D01*
X1225Y235D01*
X1223Y235D01*
X1223Y237D01*
X1221Y237D01*
X1221Y239D01*
X1219Y239D01*
X1219Y241D01*
X1215Y241D01*
X1215Y243D01*
X1213Y243D01*
X1213Y245D01*
X1211Y245D01*
X1211Y247D01*
X1209Y247D01*
X1209Y249D01*
X1207Y249D01*
X1207Y251D01*
X1205Y251D01*
X1205Y253D01*
X1203Y253D01*
X1203Y255D01*
X125Y255D01*
G37*
D02*
G36*
X155Y219D02*
X155Y217D01*
X163Y217D01*
X163Y215D01*
X169Y215D01*
X169Y213D01*
X173Y213D01*
X173Y211D01*
X177Y211D01*
X177Y209D01*
X179Y209D01*
X179Y207D01*
X183Y207D01*
X183Y205D01*
X185Y205D01*
X185Y203D01*
X187Y203D01*
X187Y201D01*
X189Y201D01*
X189Y199D01*
X191Y199D01*
X191Y197D01*
X193Y197D01*
X193Y195D01*
X195Y195D01*
X195Y193D01*
X197Y193D01*
X197Y191D01*
X199Y191D01*
X199Y189D01*
X201Y189D01*
X201Y185D01*
X203Y185D01*
X203Y181D01*
X205Y181D01*
X205Y177D01*
X207Y177D01*
X207Y173D01*
X209Y173D01*
X209Y167D01*
X211Y167D01*
X211Y129D01*
X329Y129D01*
X329Y169D01*
X331Y169D01*
X331Y173D01*
X333Y173D01*
X333Y179D01*
X335Y179D01*
X335Y183D01*
X337Y183D01*
X337Y185D01*
X339Y185D01*
X339Y189D01*
X341Y189D01*
X341Y191D01*
X343Y191D01*
X343Y193D01*
X345Y193D01*
X345Y195D01*
X347Y195D01*
X347Y197D01*
X349Y197D01*
X349Y199D01*
X351Y199D01*
X351Y201D01*
X353Y201D01*
X353Y203D01*
X355Y203D01*
X355Y205D01*
X357Y205D01*
X357Y207D01*
X361Y207D01*
X361Y209D01*
X363Y209D01*
X363Y211D01*
X367Y211D01*
X367Y213D01*
X371Y213D01*
X371Y215D01*
X377Y215D01*
X377Y217D01*
X385Y217D01*
X385Y219D01*
X155Y219D01*
G37*
D02*
G36*
X411Y219D02*
X411Y217D01*
X419Y217D01*
X419Y215D01*
X425Y215D01*
X425Y213D01*
X429Y213D01*
X429Y211D01*
X433Y211D01*
X433Y209D01*
X435Y209D01*
X435Y207D01*
X439Y207D01*
X439Y205D01*
X441Y205D01*
X441Y203D01*
X443Y203D01*
X443Y201D01*
X445Y201D01*
X445Y199D01*
X447Y199D01*
X447Y197D01*
X449Y197D01*
X449Y195D01*
X451Y195D01*
X451Y193D01*
X453Y193D01*
X453Y191D01*
X455Y191D01*
X455Y187D01*
X457Y187D01*
X457Y185D01*
X459Y185D01*
X459Y181D01*
X461Y181D01*
X461Y177D01*
X463Y177D01*
X463Y173D01*
X465Y173D01*
X465Y167D01*
X467Y167D01*
X467Y129D01*
X545Y129D01*
X545Y165D01*
X547Y165D01*
X547Y173D01*
X549Y173D01*
X549Y177D01*
X551Y177D01*
X551Y181D01*
X553Y181D01*
X553Y185D01*
X555Y185D01*
X555Y187D01*
X557Y187D01*
X557Y191D01*
X559Y191D01*
X559Y193D01*
X561Y193D01*
X561Y195D01*
X563Y195D01*
X563Y197D01*
X565Y197D01*
X565Y199D01*
X567Y199D01*
X567Y201D01*
X569Y201D01*
X569Y203D01*
X571Y203D01*
X571Y205D01*
X573Y205D01*
X573Y207D01*
X577Y207D01*
X577Y209D01*
X579Y209D01*
X579Y211D01*
X583Y211D01*
X583Y213D01*
X587Y213D01*
X587Y215D01*
X593Y215D01*
X593Y217D01*
X601Y217D01*
X601Y219D01*
X411Y219D01*
G37*
D02*
G36*
X627Y219D02*
X627Y217D01*
X637Y217D01*
X637Y215D01*
X641Y215D01*
X641Y213D01*
X645Y213D01*
X645Y211D01*
X649Y211D01*
X649Y209D01*
X653Y209D01*
X653Y207D01*
X655Y207D01*
X655Y205D01*
X657Y205D01*
X657Y203D01*
X659Y203D01*
X659Y201D01*
X663Y201D01*
X663Y199D01*
X665Y199D01*
X665Y197D01*
X667Y197D01*
X667Y193D01*
X669Y193D01*
X669Y191D01*
X671Y191D01*
X671Y189D01*
X673Y189D01*
X673Y185D01*
X675Y185D01*
X675Y183D01*
X677Y183D01*
X677Y179D01*
X679Y179D01*
X679Y175D01*
X681Y175D01*
X681Y169D01*
X683Y169D01*
X683Y129D01*
X801Y129D01*
X801Y167D01*
X803Y167D01*
X803Y173D01*
X805Y173D01*
X805Y177D01*
X807Y177D01*
X807Y181D01*
X809Y181D01*
X809Y185D01*
X811Y185D01*
X811Y187D01*
X813Y187D01*
X813Y191D01*
X815Y191D01*
X815Y193D01*
X817Y193D01*
X817Y195D01*
X819Y195D01*
X819Y197D01*
X821Y197D01*
X821Y199D01*
X823Y199D01*
X823Y201D01*
X825Y201D01*
X825Y203D01*
X827Y203D01*
X827Y205D01*
X829Y205D01*
X829Y207D01*
X833Y207D01*
X833Y209D01*
X835Y209D01*
X835Y211D01*
X839Y211D01*
X839Y213D01*
X843Y213D01*
X843Y215D01*
X849Y215D01*
X849Y217D01*
X857Y217D01*
X857Y219D01*
X627Y219D01*
G37*
D02*
G36*
X883Y219D02*
X883Y217D01*
X891Y217D01*
X891Y215D01*
X897Y215D01*
X897Y213D01*
X901Y213D01*
X901Y211D01*
X905Y211D01*
X905Y209D01*
X907Y209D01*
X907Y207D01*
X911Y207D01*
X911Y205D01*
X913Y205D01*
X913Y203D01*
X915Y203D01*
X915Y201D01*
X917Y201D01*
X917Y199D01*
X921Y199D01*
X921Y195D01*
X923Y195D01*
X923Y193D01*
X925Y193D01*
X925Y191D01*
X927Y191D01*
X927Y189D01*
X929Y189D01*
X929Y185D01*
X931Y185D01*
X931Y183D01*
X933Y183D01*
X933Y179D01*
X935Y179D01*
X935Y175D01*
X937Y175D01*
X937Y169D01*
X939Y169D01*
X939Y129D01*
X1017Y129D01*
X1017Y163D01*
X1019Y163D01*
X1019Y171D01*
X1021Y171D01*
X1021Y177D01*
X1023Y177D01*
X1023Y181D01*
X1025Y181D01*
X1025Y183D01*
X1027Y183D01*
X1027Y187D01*
X1029Y187D01*
X1029Y189D01*
X1031Y189D01*
X1031Y193D01*
X1033Y193D01*
X1033Y195D01*
X1035Y195D01*
X1035Y197D01*
X1037Y197D01*
X1037Y199D01*
X1039Y199D01*
X1039Y201D01*
X1041Y201D01*
X1041Y203D01*
X1043Y203D01*
X1043Y205D01*
X1047Y205D01*
X1047Y207D01*
X1049Y207D01*
X1049Y209D01*
X1053Y209D01*
X1053Y211D01*
X1055Y211D01*
X1055Y213D01*
X1059Y213D01*
X1059Y215D01*
X1065Y215D01*
X1065Y217D01*
X1073Y217D01*
X1073Y219D01*
X883Y219D01*
G37*
D02*
G36*
X555Y1529D02*
X555Y1435D01*
X553Y1435D01*
X553Y1433D01*
X415Y1433D01*
X415Y1399D01*
X417Y1399D01*
X417Y1383D01*
X419Y1383D01*
X419Y1381D01*
X421Y1381D01*
X421Y1379D01*
X425Y1379D01*
X425Y1377D01*
X427Y1377D01*
X427Y1375D01*
X429Y1375D01*
X429Y1373D01*
X431Y1373D01*
X431Y1371D01*
X433Y1371D01*
X433Y1369D01*
X435Y1369D01*
X435Y1365D01*
X437Y1365D01*
X437Y1363D01*
X439Y1363D01*
X439Y1361D01*
X441Y1361D01*
X441Y1357D01*
X443Y1357D01*
X443Y1355D01*
X445Y1355D01*
X445Y1351D01*
X447Y1351D01*
X447Y1347D01*
X449Y1347D01*
X449Y1343D01*
X451Y1343D01*
X451Y1337D01*
X453Y1337D01*
X453Y1327D01*
X623Y1327D01*
X623Y1325D01*
X629Y1325D01*
X629Y1323D01*
X635Y1323D01*
X635Y1321D01*
X637Y1321D01*
X637Y1319D01*
X641Y1319D01*
X641Y1317D01*
X643Y1317D01*
X643Y1315D01*
X645Y1315D01*
X645Y1313D01*
X647Y1313D01*
X647Y1311D01*
X649Y1311D01*
X649Y1309D01*
X651Y1309D01*
X651Y1307D01*
X653Y1307D01*
X653Y1305D01*
X655Y1305D01*
X655Y1301D01*
X1107Y1301D01*
X1107Y1303D01*
X1101Y1303D01*
X1101Y1305D01*
X1099Y1305D01*
X1099Y1307D01*
X801Y1307D01*
X801Y1309D01*
X795Y1309D01*
X795Y1311D01*
X791Y1311D01*
X791Y1313D01*
X789Y1313D01*
X789Y1315D01*
X787Y1315D01*
X787Y1317D01*
X785Y1317D01*
X785Y1319D01*
X783Y1319D01*
X783Y1321D01*
X781Y1321D01*
X781Y1323D01*
X779Y1323D01*
X779Y1325D01*
X777Y1325D01*
X777Y1327D01*
X775Y1327D01*
X775Y1329D01*
X773Y1329D01*
X773Y1331D01*
X771Y1331D01*
X771Y1333D01*
X769Y1333D01*
X769Y1335D01*
X767Y1335D01*
X767Y1337D01*
X765Y1337D01*
X765Y1339D01*
X763Y1339D01*
X763Y1341D01*
X761Y1341D01*
X761Y1343D01*
X759Y1343D01*
X759Y1345D01*
X757Y1345D01*
X757Y1347D01*
X755Y1347D01*
X755Y1349D01*
X753Y1349D01*
X753Y1351D01*
X751Y1351D01*
X751Y1353D01*
X749Y1353D01*
X749Y1355D01*
X747Y1355D01*
X747Y1357D01*
X745Y1357D01*
X745Y1359D01*
X743Y1359D01*
X743Y1361D01*
X741Y1361D01*
X741Y1363D01*
X739Y1363D01*
X739Y1365D01*
X737Y1365D01*
X737Y1367D01*
X735Y1367D01*
X735Y1369D01*
X733Y1369D01*
X733Y1371D01*
X731Y1371D01*
X731Y1373D01*
X729Y1373D01*
X729Y1375D01*
X727Y1375D01*
X727Y1377D01*
X725Y1377D01*
X725Y1379D01*
X723Y1379D01*
X723Y1381D01*
X721Y1381D01*
X721Y1383D01*
X719Y1383D01*
X719Y1385D01*
X717Y1385D01*
X717Y1387D01*
X715Y1387D01*
X715Y1389D01*
X713Y1389D01*
X713Y1391D01*
X711Y1391D01*
X711Y1393D01*
X709Y1393D01*
X709Y1395D01*
X707Y1395D01*
X707Y1397D01*
X705Y1397D01*
X705Y1399D01*
X703Y1399D01*
X703Y1401D01*
X701Y1401D01*
X701Y1403D01*
X699Y1403D01*
X699Y1405D01*
X697Y1405D01*
X697Y1407D01*
X695Y1407D01*
X695Y1409D01*
X693Y1409D01*
X693Y1411D01*
X691Y1411D01*
X691Y1413D01*
X689Y1413D01*
X689Y1415D01*
X687Y1415D01*
X687Y1417D01*
X685Y1417D01*
X685Y1419D01*
X683Y1419D01*
X683Y1421D01*
X681Y1421D01*
X681Y1423D01*
X679Y1423D01*
X679Y1425D01*
X677Y1425D01*
X677Y1427D01*
X675Y1427D01*
X675Y1429D01*
X673Y1429D01*
X673Y1431D01*
X671Y1431D01*
X671Y1433D01*
X669Y1433D01*
X669Y1435D01*
X667Y1435D01*
X667Y1437D01*
X665Y1437D01*
X665Y1439D01*
X663Y1439D01*
X663Y1441D01*
X661Y1441D01*
X661Y1443D01*
X659Y1443D01*
X659Y1445D01*
X657Y1445D01*
X657Y1447D01*
X655Y1447D01*
X655Y1449D01*
X653Y1449D01*
X653Y1451D01*
X651Y1451D01*
X651Y1453D01*
X649Y1453D01*
X649Y1455D01*
X647Y1455D01*
X647Y1457D01*
X645Y1457D01*
X645Y1459D01*
X643Y1459D01*
X643Y1461D01*
X641Y1461D01*
X641Y1463D01*
X639Y1463D01*
X639Y1465D01*
X637Y1465D01*
X637Y1467D01*
X635Y1467D01*
X635Y1469D01*
X633Y1469D01*
X633Y1471D01*
X631Y1471D01*
X631Y1473D01*
X629Y1473D01*
X629Y1475D01*
X627Y1475D01*
X627Y1477D01*
X625Y1477D01*
X625Y1479D01*
X623Y1479D01*
X623Y1481D01*
X621Y1481D01*
X621Y1483D01*
X619Y1483D01*
X619Y1485D01*
X617Y1485D01*
X617Y1487D01*
X615Y1487D01*
X615Y1489D01*
X613Y1489D01*
X613Y1491D01*
X611Y1491D01*
X611Y1493D01*
X609Y1493D01*
X609Y1495D01*
X607Y1495D01*
X607Y1497D01*
X605Y1497D01*
X605Y1499D01*
X603Y1499D01*
X603Y1501D01*
X601Y1501D01*
X601Y1503D01*
X599Y1503D01*
X599Y1505D01*
X597Y1505D01*
X597Y1507D01*
X595Y1507D01*
X595Y1509D01*
X593Y1509D01*
X593Y1511D01*
X591Y1511D01*
X591Y1513D01*
X589Y1513D01*
X589Y1515D01*
X587Y1515D01*
X587Y1517D01*
X585Y1517D01*
X585Y1519D01*
X583Y1519D01*
X583Y1521D01*
X581Y1521D01*
X581Y1523D01*
X579Y1523D01*
X579Y1525D01*
X577Y1525D01*
X577Y1527D01*
X575Y1527D01*
X575Y1529D01*
X555Y1529D01*
G37*
D02*
G36*
X1169Y1329D02*
X1169Y1325D01*
X1167Y1325D01*
X1167Y1323D01*
X1165Y1323D01*
X1165Y1319D01*
X1163Y1319D01*
X1163Y1317D01*
X1161Y1317D01*
X1161Y1315D01*
X1159Y1315D01*
X1159Y1313D01*
X1157Y1313D01*
X1157Y1311D01*
X1155Y1311D01*
X1155Y1309D01*
X1151Y1309D01*
X1151Y1307D01*
X1149Y1307D01*
X1149Y1305D01*
X1145Y1305D01*
X1145Y1303D01*
X1139Y1303D01*
X1139Y1301D01*
X1189Y1301D01*
X1189Y1329D01*
X1169Y1329D01*
G37*
D02*
G36*
X453Y1327D02*
X453Y1325D01*
X455Y1325D01*
X455Y1305D01*
X453Y1305D01*
X453Y1293D01*
X451Y1293D01*
X451Y1287D01*
X449Y1287D01*
X449Y1283D01*
X447Y1283D01*
X447Y1279D01*
X445Y1279D01*
X445Y1275D01*
X443Y1275D01*
X443Y1271D01*
X441Y1271D01*
X441Y1269D01*
X439Y1269D01*
X439Y1265D01*
X437Y1265D01*
X437Y1263D01*
X435Y1263D01*
X435Y1261D01*
X433Y1261D01*
X433Y1259D01*
X431Y1259D01*
X431Y1257D01*
X429Y1257D01*
X429Y1255D01*
X427Y1255D01*
X427Y1253D01*
X425Y1253D01*
X425Y1251D01*
X423Y1251D01*
X423Y1249D01*
X419Y1249D01*
X419Y1247D01*
X417Y1247D01*
X417Y1245D01*
X413Y1245D01*
X413Y1243D01*
X411Y1243D01*
X411Y1241D01*
X407Y1241D01*
X407Y1239D01*
X403Y1239D01*
X403Y1217D01*
X405Y1217D01*
X405Y1213D01*
X407Y1213D01*
X407Y1211D01*
X429Y1211D01*
X429Y1213D01*
X431Y1213D01*
X431Y1215D01*
X435Y1215D01*
X435Y1217D01*
X437Y1217D01*
X437Y1219D01*
X441Y1219D01*
X441Y1221D01*
X443Y1221D01*
X443Y1223D01*
X447Y1223D01*
X447Y1225D01*
X449Y1225D01*
X449Y1227D01*
X453Y1227D01*
X453Y1229D01*
X457Y1229D01*
X457Y1231D01*
X459Y1231D01*
X459Y1233D01*
X463Y1233D01*
X463Y1235D01*
X465Y1235D01*
X465Y1237D01*
X469Y1237D01*
X469Y1239D01*
X471Y1239D01*
X471Y1241D01*
X475Y1241D01*
X475Y1243D01*
X477Y1243D01*
X477Y1245D01*
X481Y1245D01*
X481Y1247D01*
X483Y1247D01*
X483Y1249D01*
X487Y1249D01*
X487Y1251D01*
X489Y1251D01*
X489Y1253D01*
X493Y1253D01*
X493Y1255D01*
X495Y1255D01*
X495Y1257D01*
X499Y1257D01*
X499Y1259D01*
X503Y1259D01*
X503Y1261D01*
X505Y1261D01*
X505Y1263D01*
X509Y1263D01*
X509Y1265D01*
X511Y1265D01*
X511Y1267D01*
X515Y1267D01*
X515Y1269D01*
X517Y1269D01*
X517Y1271D01*
X521Y1271D01*
X521Y1273D01*
X523Y1273D01*
X523Y1275D01*
X527Y1275D01*
X527Y1277D01*
X529Y1277D01*
X529Y1279D01*
X533Y1279D01*
X533Y1281D01*
X535Y1281D01*
X535Y1283D01*
X539Y1283D01*
X539Y1285D01*
X541Y1285D01*
X541Y1287D01*
X545Y1287D01*
X545Y1289D01*
X549Y1289D01*
X549Y1291D01*
X551Y1291D01*
X551Y1293D01*
X555Y1293D01*
X555Y1295D01*
X557Y1295D01*
X557Y1297D01*
X561Y1297D01*
X561Y1299D01*
X563Y1299D01*
X563Y1301D01*
X565Y1301D01*
X565Y1303D01*
X567Y1303D01*
X567Y1305D01*
X569Y1305D01*
X569Y1309D01*
X571Y1309D01*
X571Y1311D01*
X573Y1311D01*
X573Y1313D01*
X575Y1313D01*
X575Y1315D01*
X577Y1315D01*
X577Y1317D01*
X581Y1317D01*
X581Y1319D01*
X583Y1319D01*
X583Y1321D01*
X587Y1321D01*
X587Y1323D01*
X591Y1323D01*
X591Y1325D01*
X597Y1325D01*
X597Y1327D01*
X453Y1327D01*
G37*
D02*
G36*
X657Y1301D02*
X657Y1299D01*
X1189Y1299D01*
X1189Y1301D01*
X657Y1301D01*
G37*
D02*
G36*
X657Y1301D02*
X657Y1299D01*
X1189Y1299D01*
X1189Y1301D01*
X657Y1301D01*
G37*
D02*
G36*
X657Y1299D02*
X657Y1297D01*
X659Y1297D01*
X659Y1293D01*
X661Y1293D01*
X661Y1283D01*
X663Y1283D01*
X663Y1267D01*
X661Y1267D01*
X661Y1245D01*
X1005Y1245D01*
X1005Y1243D01*
X1011Y1243D01*
X1011Y1241D01*
X1017Y1241D01*
X1017Y1239D01*
X1019Y1239D01*
X1019Y1237D01*
X1023Y1237D01*
X1023Y1235D01*
X1025Y1235D01*
X1025Y1233D01*
X1027Y1233D01*
X1027Y1229D01*
X1029Y1229D01*
X1029Y1227D01*
X1031Y1227D01*
X1031Y1225D01*
X1033Y1225D01*
X1033Y1221D01*
X1035Y1221D01*
X1035Y1219D01*
X1037Y1219D01*
X1037Y1217D01*
X1039Y1217D01*
X1039Y1213D01*
X1041Y1213D01*
X1041Y1211D01*
X1043Y1211D01*
X1043Y1209D01*
X1045Y1209D01*
X1045Y1205D01*
X1047Y1205D01*
X1047Y1203D01*
X1049Y1203D01*
X1049Y1201D01*
X1051Y1201D01*
X1051Y1197D01*
X1053Y1197D01*
X1053Y1195D01*
X1055Y1195D01*
X1055Y1193D01*
X1057Y1193D01*
X1057Y1189D01*
X1059Y1189D01*
X1059Y1187D01*
X1061Y1187D01*
X1061Y1185D01*
X1063Y1185D01*
X1063Y1181D01*
X1065Y1181D01*
X1065Y1179D01*
X1067Y1179D01*
X1067Y1177D01*
X1069Y1177D01*
X1069Y1175D01*
X1175Y1175D01*
X1175Y1173D01*
X1183Y1173D01*
X1183Y1171D01*
X1189Y1171D01*
X1189Y1169D01*
X1191Y1169D01*
X1191Y1167D01*
X1195Y1167D01*
X1195Y1165D01*
X1199Y1165D01*
X1199Y1163D01*
X1201Y1163D01*
X1201Y1161D01*
X1221Y1161D01*
X1221Y1163D01*
X1223Y1163D01*
X1223Y1165D01*
X1227Y1165D01*
X1227Y1187D01*
X1225Y1187D01*
X1225Y1189D01*
X1223Y1189D01*
X1223Y1191D01*
X1221Y1191D01*
X1221Y1193D01*
X1219Y1193D01*
X1219Y1195D01*
X1217Y1195D01*
X1217Y1197D01*
X1215Y1197D01*
X1215Y1199D01*
X1213Y1199D01*
X1213Y1201D01*
X1211Y1201D01*
X1211Y1203D01*
X1209Y1203D01*
X1209Y1205D01*
X1207Y1205D01*
X1207Y1207D01*
X1205Y1207D01*
X1205Y1211D01*
X1203Y1211D01*
X1203Y1213D01*
X1201Y1213D01*
X1201Y1215D01*
X1199Y1215D01*
X1199Y1217D01*
X1197Y1217D01*
X1197Y1219D01*
X1195Y1219D01*
X1195Y1223D01*
X1193Y1223D01*
X1193Y1227D01*
X1191Y1227D01*
X1191Y1233D01*
X1189Y1233D01*
X1189Y1299D01*
X657Y1299D01*
G37*
D02*
G36*
X661Y1245D02*
X661Y1239D01*
X689Y1239D01*
X689Y1241D01*
X823Y1241D01*
X823Y1243D01*
X955Y1243D01*
X955Y1245D01*
X661Y1245D01*
G37*
D02*
G36*
X1075Y1175D02*
X1075Y1173D01*
X1083Y1173D01*
X1083Y1171D01*
X1089Y1171D01*
X1089Y1169D01*
X1091Y1169D01*
X1091Y1167D01*
X1095Y1167D01*
X1095Y1165D01*
X1099Y1165D01*
X1099Y1163D01*
X1101Y1163D01*
X1101Y1161D01*
X1121Y1161D01*
X1121Y1163D01*
X1123Y1163D01*
X1123Y1165D01*
X1127Y1165D01*
X1127Y1167D01*
X1131Y1167D01*
X1131Y1169D01*
X1135Y1169D01*
X1135Y1171D01*
X1139Y1171D01*
X1139Y1173D01*
X1147Y1173D01*
X1147Y1175D01*
X1075Y1175D01*
G37*
D02*
G36*
X1629Y1219D02*
X1629Y1217D01*
X1627Y1217D01*
X1627Y1215D01*
X1625Y1215D01*
X1625Y1213D01*
X1623Y1213D01*
X1623Y1211D01*
X1621Y1211D01*
X1621Y1209D01*
X1619Y1209D01*
X1619Y1207D01*
X1617Y1207D01*
X1617Y1205D01*
X1615Y1205D01*
X1615Y1203D01*
X1613Y1203D01*
X1613Y1199D01*
X1611Y1199D01*
X1611Y1197D01*
X1609Y1197D01*
X1609Y1195D01*
X1607Y1195D01*
X1607Y1193D01*
X1605Y1193D01*
X1605Y1191D01*
X1603Y1191D01*
X1603Y1189D01*
X1601Y1189D01*
X1601Y1187D01*
X1599Y1187D01*
X1599Y1185D01*
X1597Y1185D01*
X1597Y1175D01*
X1875Y1175D01*
X1875Y1173D01*
X1883Y1173D01*
X1883Y1171D01*
X1889Y1171D01*
X1889Y1169D01*
X1891Y1169D01*
X1891Y1167D01*
X1895Y1167D01*
X1895Y1165D01*
X1899Y1165D01*
X1899Y1163D01*
X1901Y1163D01*
X1901Y1161D01*
X1903Y1161D01*
X1903Y1159D01*
X1905Y1159D01*
X1905Y1157D01*
X1925Y1157D01*
X1925Y1159D01*
X1923Y1159D01*
X1923Y1161D01*
X1921Y1161D01*
X1921Y1163D01*
X1919Y1163D01*
X1919Y1167D01*
X1917Y1167D01*
X1917Y1169D01*
X1915Y1169D01*
X1915Y1173D01*
X1913Y1173D01*
X1913Y1175D01*
X1911Y1175D01*
X1911Y1177D01*
X1909Y1177D01*
X1909Y1181D01*
X1907Y1181D01*
X1907Y1183D01*
X1905Y1183D01*
X1905Y1185D01*
X1903Y1185D01*
X1903Y1189D01*
X1901Y1189D01*
X1901Y1191D01*
X1899Y1191D01*
X1899Y1193D01*
X1897Y1193D01*
X1897Y1197D01*
X1895Y1197D01*
X1895Y1199D01*
X1893Y1199D01*
X1893Y1201D01*
X1891Y1201D01*
X1891Y1205D01*
X1889Y1205D01*
X1889Y1207D01*
X1887Y1207D01*
X1887Y1211D01*
X1885Y1211D01*
X1885Y1213D01*
X1883Y1213D01*
X1883Y1215D01*
X1881Y1215D01*
X1881Y1219D01*
X1629Y1219D01*
G37*
D02*
G36*
X1597Y1175D02*
X1597Y1165D01*
X1599Y1165D01*
X1599Y1163D01*
X1601Y1163D01*
X1601Y1161D01*
X1621Y1161D01*
X1621Y1163D01*
X1623Y1163D01*
X1623Y1165D01*
X1627Y1165D01*
X1627Y1167D01*
X1631Y1167D01*
X1631Y1169D01*
X1635Y1169D01*
X1635Y1171D01*
X1639Y1171D01*
X1639Y1173D01*
X1647Y1173D01*
X1647Y1175D01*
X1597Y1175D01*
G37*
D02*
G36*
X1675Y1175D02*
X1675Y1173D01*
X1683Y1173D01*
X1683Y1171D01*
X1689Y1171D01*
X1689Y1169D01*
X1691Y1169D01*
X1691Y1167D01*
X1695Y1167D01*
X1695Y1165D01*
X1699Y1165D01*
X1699Y1163D01*
X1701Y1163D01*
X1701Y1161D01*
X1721Y1161D01*
X1721Y1163D01*
X1723Y1163D01*
X1723Y1165D01*
X1727Y1165D01*
X1727Y1167D01*
X1731Y1167D01*
X1731Y1169D01*
X1735Y1169D01*
X1735Y1171D01*
X1739Y1171D01*
X1739Y1173D01*
X1747Y1173D01*
X1747Y1175D01*
X1675Y1175D01*
G37*
D02*
G36*
X1775Y1175D02*
X1775Y1173D01*
X1783Y1173D01*
X1783Y1171D01*
X1789Y1171D01*
X1789Y1169D01*
X1791Y1169D01*
X1791Y1167D01*
X1795Y1167D01*
X1795Y1165D01*
X1799Y1165D01*
X1799Y1163D01*
X1801Y1163D01*
X1801Y1161D01*
X1821Y1161D01*
X1821Y1163D01*
X1823Y1163D01*
X1823Y1165D01*
X1827Y1165D01*
X1827Y1167D01*
X1831Y1167D01*
X1831Y1169D01*
X1835Y1169D01*
X1835Y1171D01*
X1839Y1171D01*
X1839Y1173D01*
X1847Y1173D01*
X1847Y1175D01*
X1775Y1175D01*
G37*
D02*
G36*
X1925Y1131D02*
X1925Y1127D01*
X1927Y1127D01*
X1927Y1117D01*
X1929Y1117D01*
X1929Y1103D01*
X1931Y1103D01*
X1931Y1101D01*
X1933Y1101D01*
X1933Y1099D01*
X1935Y1099D01*
X1935Y1095D01*
X1937Y1095D01*
X1937Y1093D01*
X1939Y1093D01*
X1939Y1089D01*
X1941Y1089D01*
X1941Y1087D01*
X1943Y1087D01*
X1943Y1083D01*
X1945Y1083D01*
X1945Y1081D01*
X1947Y1081D01*
X1947Y1079D01*
X1949Y1079D01*
X1949Y1075D01*
X1951Y1075D01*
X1951Y1073D01*
X1953Y1073D01*
X1953Y1069D01*
X1955Y1069D01*
X1955Y1067D01*
X1957Y1067D01*
X1957Y1065D01*
X1959Y1065D01*
X1959Y1061D01*
X1961Y1061D01*
X1961Y1059D01*
X1963Y1059D01*
X1963Y1055D01*
X1965Y1055D01*
X1965Y1053D01*
X1967Y1053D01*
X1967Y1049D01*
X1969Y1049D01*
X1969Y1047D01*
X1971Y1047D01*
X1971Y1045D01*
X1973Y1045D01*
X1973Y1041D01*
X1975Y1041D01*
X1975Y1039D01*
X1977Y1039D01*
X1977Y1035D01*
X1979Y1035D01*
X1979Y1033D01*
X1981Y1033D01*
X1981Y1031D01*
X1983Y1031D01*
X1983Y1027D01*
X1985Y1027D01*
X1985Y1025D01*
X1987Y1025D01*
X1987Y1021D01*
X1989Y1021D01*
X1989Y1019D01*
X1991Y1019D01*
X1991Y1015D01*
X1993Y1015D01*
X1993Y1013D01*
X1995Y1013D01*
X1995Y1011D01*
X1997Y1011D01*
X1997Y1007D01*
X1999Y1007D01*
X1999Y1005D01*
X2001Y1005D01*
X2001Y1001D01*
X2003Y1001D01*
X2003Y999D01*
X2005Y999D01*
X2005Y997D01*
X2007Y997D01*
X2007Y993D01*
X2009Y993D01*
X2009Y991D01*
X2011Y991D01*
X2011Y987D01*
X2013Y987D01*
X2013Y985D01*
X2015Y985D01*
X2015Y983D01*
X2017Y983D01*
X2017Y979D01*
X2019Y979D01*
X2019Y977D01*
X2021Y977D01*
X2021Y973D01*
X2023Y973D01*
X2023Y971D01*
X2025Y971D01*
X2025Y967D01*
X2027Y967D01*
X2027Y965D01*
X2029Y965D01*
X2029Y963D01*
X2031Y963D01*
X2031Y959D01*
X2033Y959D01*
X2033Y957D01*
X2035Y957D01*
X2035Y953D01*
X2037Y953D01*
X2037Y951D01*
X2039Y951D01*
X2039Y949D01*
X2041Y949D01*
X2041Y945D01*
X2043Y945D01*
X2043Y943D01*
X2045Y943D01*
X2045Y939D01*
X2047Y939D01*
X2047Y937D01*
X2049Y937D01*
X2049Y933D01*
X2051Y933D01*
X2051Y931D01*
X2053Y931D01*
X2053Y929D01*
X2055Y929D01*
X2055Y925D01*
X2057Y925D01*
X2057Y923D01*
X2059Y923D01*
X2059Y919D01*
X2061Y919D01*
X2061Y917D01*
X2063Y917D01*
X2063Y915D01*
X2065Y915D01*
X2065Y911D01*
X2067Y911D01*
X2067Y909D01*
X2069Y909D01*
X2069Y905D01*
X2071Y905D01*
X2071Y903D01*
X2073Y903D01*
X2073Y899D01*
X2075Y899D01*
X2075Y897D01*
X2077Y897D01*
X2077Y895D01*
X2079Y895D01*
X2079Y891D01*
X2081Y891D01*
X2081Y889D01*
X2083Y889D01*
X2083Y885D01*
X2085Y885D01*
X2085Y883D01*
X2087Y883D01*
X2087Y881D01*
X2089Y881D01*
X2089Y877D01*
X2091Y877D01*
X2091Y875D01*
X2093Y875D01*
X2093Y871D01*
X2095Y871D01*
X2095Y869D01*
X2097Y869D01*
X2097Y865D01*
X2099Y865D01*
X2099Y863D01*
X2101Y863D01*
X2101Y861D01*
X2103Y861D01*
X2103Y857D01*
X2105Y857D01*
X2105Y855D01*
X2107Y855D01*
X2107Y851D01*
X2109Y851D01*
X2109Y849D01*
X2111Y849D01*
X2111Y845D01*
X2113Y845D01*
X2113Y839D01*
X2115Y839D01*
X2115Y579D01*
X2177Y579D01*
X2177Y781D01*
X2175Y781D01*
X2175Y819D01*
X2173Y819D01*
X2173Y821D01*
X2171Y821D01*
X2171Y825D01*
X2169Y825D01*
X2169Y827D01*
X2167Y827D01*
X2167Y829D01*
X2165Y829D01*
X2165Y833D01*
X2163Y833D01*
X2163Y835D01*
X2161Y835D01*
X2161Y837D01*
X2159Y837D01*
X2159Y841D01*
X2157Y841D01*
X2157Y843D01*
X2155Y843D01*
X2155Y847D01*
X2153Y847D01*
X2153Y849D01*
X2151Y849D01*
X2151Y851D01*
X2149Y851D01*
X2149Y855D01*
X2147Y855D01*
X2147Y857D01*
X2145Y857D01*
X2145Y859D01*
X2143Y859D01*
X2143Y863D01*
X2141Y863D01*
X2141Y865D01*
X2139Y865D01*
X2139Y867D01*
X2137Y867D01*
X2137Y871D01*
X2135Y871D01*
X2135Y873D01*
X2133Y873D01*
X2133Y877D01*
X2131Y877D01*
X2131Y879D01*
X2129Y879D01*
X2129Y881D01*
X2127Y881D01*
X2127Y885D01*
X2125Y885D01*
X2125Y887D01*
X2123Y887D01*
X2123Y889D01*
X2121Y889D01*
X2121Y893D01*
X2119Y893D01*
X2119Y895D01*
X2117Y895D01*
X2117Y897D01*
X2115Y897D01*
X2115Y901D01*
X2113Y901D01*
X2113Y903D01*
X2111Y903D01*
X2111Y905D01*
X2109Y905D01*
X2109Y909D01*
X2107Y909D01*
X2107Y911D01*
X2105Y911D01*
X2105Y915D01*
X2103Y915D01*
X2103Y917D01*
X2101Y917D01*
X2101Y919D01*
X2099Y919D01*
X2099Y923D01*
X2097Y923D01*
X2097Y925D01*
X2095Y925D01*
X2095Y927D01*
X2093Y927D01*
X2093Y931D01*
X2091Y931D01*
X2091Y933D01*
X2089Y933D01*
X2089Y935D01*
X2087Y935D01*
X2087Y939D01*
X2085Y939D01*
X2085Y941D01*
X2083Y941D01*
X2083Y943D01*
X2081Y943D01*
X2081Y947D01*
X2079Y947D01*
X2079Y949D01*
X2077Y949D01*
X2077Y953D01*
X2075Y953D01*
X2075Y955D01*
X2073Y955D01*
X2073Y957D01*
X2071Y957D01*
X2071Y961D01*
X2069Y961D01*
X2069Y963D01*
X2067Y963D01*
X2067Y965D01*
X2065Y965D01*
X2065Y969D01*
X2063Y969D01*
X2063Y971D01*
X2061Y971D01*
X2061Y973D01*
X2059Y973D01*
X2059Y977D01*
X2057Y977D01*
X2057Y979D01*
X2055Y979D01*
X2055Y981D01*
X2053Y981D01*
X2053Y985D01*
X2051Y985D01*
X2051Y987D01*
X2049Y987D01*
X2049Y991D01*
X2047Y991D01*
X2047Y993D01*
X2045Y993D01*
X2045Y995D01*
X2043Y995D01*
X2043Y999D01*
X2041Y999D01*
X2041Y1001D01*
X2039Y1001D01*
X2039Y1003D01*
X2037Y1003D01*
X2037Y1007D01*
X2035Y1007D01*
X2035Y1009D01*
X2033Y1009D01*
X2033Y1011D01*
X2031Y1011D01*
X2031Y1015D01*
X2029Y1015D01*
X2029Y1017D01*
X2027Y1017D01*
X2027Y1019D01*
X2025Y1019D01*
X2025Y1023D01*
X2023Y1023D01*
X2023Y1025D01*
X2021Y1025D01*
X2021Y1029D01*
X2019Y1029D01*
X2019Y1031D01*
X2017Y1031D01*
X2017Y1033D01*
X2015Y1033D01*
X2015Y1037D01*
X2013Y1037D01*
X2013Y1039D01*
X2011Y1039D01*
X2011Y1041D01*
X2009Y1041D01*
X2009Y1045D01*
X2007Y1045D01*
X2007Y1047D01*
X2005Y1047D01*
X2005Y1049D01*
X2003Y1049D01*
X2003Y1053D01*
X2001Y1053D01*
X2001Y1055D01*
X1999Y1055D01*
X1999Y1057D01*
X1997Y1057D01*
X1997Y1061D01*
X1995Y1061D01*
X1995Y1063D01*
X1993Y1063D01*
X1993Y1067D01*
X1991Y1067D01*
X1991Y1069D01*
X1989Y1069D01*
X1989Y1071D01*
X1987Y1071D01*
X1987Y1075D01*
X1985Y1075D01*
X1985Y1077D01*
X1983Y1077D01*
X1983Y1079D01*
X1981Y1079D01*
X1981Y1083D01*
X1979Y1083D01*
X1979Y1085D01*
X1977Y1085D01*
X1977Y1087D01*
X1975Y1087D01*
X1975Y1091D01*
X1973Y1091D01*
X1973Y1093D01*
X1971Y1093D01*
X1971Y1097D01*
X1969Y1097D01*
X1969Y1099D01*
X1967Y1099D01*
X1967Y1101D01*
X1965Y1101D01*
X1965Y1105D01*
X1963Y1105D01*
X1963Y1107D01*
X1961Y1107D01*
X1961Y1109D01*
X1959Y1109D01*
X1959Y1113D01*
X1957Y1113D01*
X1957Y1115D01*
X1955Y1115D01*
X1955Y1117D01*
X1953Y1117D01*
X1953Y1121D01*
X1951Y1121D01*
X1951Y1123D01*
X1949Y1123D01*
X1949Y1125D01*
X1947Y1125D01*
X1947Y1129D01*
X1945Y1129D01*
X1945Y1131D01*
X1925Y1131D01*
G37*
D02*
G36*
X1501Y955D02*
X1501Y953D01*
X1499Y953D01*
X1499Y951D01*
X1497Y951D01*
X1497Y949D01*
X1493Y949D01*
X1493Y947D01*
X1489Y947D01*
X1489Y945D01*
X1485Y945D01*
X1485Y941D01*
X1545Y941D01*
X1545Y943D01*
X1537Y943D01*
X1537Y945D01*
X1533Y945D01*
X1533Y947D01*
X1529Y947D01*
X1529Y949D01*
X1525Y949D01*
X1525Y951D01*
X1523Y951D01*
X1523Y953D01*
X1521Y953D01*
X1521Y955D01*
X1501Y955D01*
G37*
D02*
G36*
X1801Y955D02*
X1801Y953D01*
X1799Y953D01*
X1799Y951D01*
X1797Y951D01*
X1797Y949D01*
X1793Y949D01*
X1793Y947D01*
X1789Y947D01*
X1789Y945D01*
X1785Y945D01*
X1785Y943D01*
X1779Y943D01*
X1779Y941D01*
X1845Y941D01*
X1845Y943D01*
X1837Y943D01*
X1837Y945D01*
X1833Y945D01*
X1833Y947D01*
X1829Y947D01*
X1829Y949D01*
X1825Y949D01*
X1825Y951D01*
X1823Y951D01*
X1823Y953D01*
X1821Y953D01*
X1821Y955D01*
X1801Y955D01*
G37*
D02*
G36*
X1901Y955D02*
X1901Y953D01*
X1899Y953D01*
X1899Y951D01*
X1897Y951D01*
X1897Y949D01*
X1893Y949D01*
X1893Y947D01*
X1889Y947D01*
X1889Y945D01*
X1885Y945D01*
X1885Y943D01*
X1879Y943D01*
X1879Y941D01*
X1929Y941D01*
X1929Y945D01*
X1927Y945D01*
X1927Y947D01*
X1925Y947D01*
X1925Y951D01*
X1923Y951D01*
X1923Y953D01*
X1921Y953D01*
X1921Y955D01*
X1901Y955D01*
G37*
D02*
G36*
X1597Y951D02*
X1597Y949D01*
X1593Y949D01*
X1593Y947D01*
X1589Y947D01*
X1589Y945D01*
X1585Y945D01*
X1585Y943D01*
X1579Y943D01*
X1579Y941D01*
X1617Y941D01*
X1617Y951D01*
X1597Y951D01*
G37*
D02*
G36*
X1707Y949D02*
X1707Y941D01*
X1745Y941D01*
X1745Y943D01*
X1737Y943D01*
X1737Y945D01*
X1733Y945D01*
X1733Y947D01*
X1729Y947D01*
X1729Y949D01*
X1707Y949D01*
G37*
D02*
G36*
X1485Y941D02*
X1485Y939D01*
X1617Y939D01*
X1617Y941D01*
X1485Y941D01*
G37*
D02*
G36*
X1485Y941D02*
X1485Y939D01*
X1617Y939D01*
X1617Y941D01*
X1485Y941D01*
G37*
D02*
G36*
X1707Y941D02*
X1707Y939D01*
X1931Y939D01*
X1931Y941D01*
X1707Y941D01*
G37*
D02*
G36*
X1707Y941D02*
X1707Y939D01*
X1931Y939D01*
X1931Y941D01*
X1707Y941D01*
G37*
D02*
G36*
X1707Y941D02*
X1707Y939D01*
X1931Y939D01*
X1931Y941D01*
X1707Y941D01*
G37*
D02*
G36*
X1485Y939D02*
X1485Y923D01*
X1487Y923D01*
X1487Y921D01*
X1489Y921D01*
X1489Y919D01*
X1491Y919D01*
X1491Y915D01*
X1493Y915D01*
X1493Y913D01*
X1495Y913D01*
X1495Y911D01*
X1497Y911D01*
X1497Y907D01*
X1499Y907D01*
X1499Y905D01*
X1501Y905D01*
X1501Y903D01*
X1503Y903D01*
X1503Y899D01*
X1505Y899D01*
X1505Y897D01*
X1507Y897D01*
X1507Y895D01*
X1509Y895D01*
X1509Y893D01*
X1561Y893D01*
X1561Y891D01*
X1565Y891D01*
X1565Y889D01*
X1569Y889D01*
X1569Y887D01*
X1573Y887D01*
X1573Y885D01*
X1575Y885D01*
X1575Y883D01*
X1577Y883D01*
X1577Y881D01*
X1579Y881D01*
X1579Y879D01*
X1581Y879D01*
X1581Y877D01*
X1583Y877D01*
X1583Y875D01*
X1585Y875D01*
X1585Y873D01*
X1587Y873D01*
X1587Y871D01*
X1589Y871D01*
X1589Y869D01*
X1593Y869D01*
X1593Y867D01*
X1595Y867D01*
X1595Y865D01*
X1597Y865D01*
X1597Y863D01*
X1599Y863D01*
X1599Y861D01*
X1601Y861D01*
X1601Y859D01*
X1603Y859D01*
X1603Y857D01*
X1605Y857D01*
X1605Y855D01*
X1607Y855D01*
X1607Y853D01*
X1609Y853D01*
X1609Y851D01*
X1611Y851D01*
X1611Y849D01*
X1613Y849D01*
X1613Y847D01*
X1615Y847D01*
X1615Y845D01*
X1617Y845D01*
X1617Y843D01*
X1619Y843D01*
X1619Y841D01*
X1623Y841D01*
X1623Y839D01*
X1625Y839D01*
X1625Y837D01*
X1627Y837D01*
X1627Y835D01*
X1629Y835D01*
X1629Y833D01*
X1631Y833D01*
X1631Y831D01*
X1633Y831D01*
X1633Y829D01*
X1635Y829D01*
X1635Y827D01*
X1637Y827D01*
X1637Y825D01*
X1639Y825D01*
X1639Y823D01*
X1641Y823D01*
X1641Y821D01*
X1643Y821D01*
X1643Y819D01*
X1645Y819D01*
X1645Y815D01*
X1647Y815D01*
X1647Y811D01*
X1649Y811D01*
X1649Y803D01*
X1651Y803D01*
X1651Y787D01*
X1893Y787D01*
X1893Y789D01*
X1887Y789D01*
X1887Y791D01*
X1885Y791D01*
X1885Y793D01*
X1733Y793D01*
X1733Y795D01*
X1725Y795D01*
X1725Y797D01*
X1721Y797D01*
X1721Y799D01*
X1717Y799D01*
X1717Y801D01*
X1715Y801D01*
X1715Y803D01*
X1711Y803D01*
X1711Y805D01*
X1709Y805D01*
X1709Y807D01*
X1705Y807D01*
X1705Y809D01*
X1703Y809D01*
X1703Y811D01*
X1701Y811D01*
X1701Y813D01*
X1697Y813D01*
X1697Y815D01*
X1695Y815D01*
X1695Y817D01*
X1693Y817D01*
X1693Y819D01*
X1689Y819D01*
X1689Y821D01*
X1687Y821D01*
X1687Y823D01*
X1685Y823D01*
X1685Y825D01*
X1681Y825D01*
X1681Y827D01*
X1679Y827D01*
X1679Y829D01*
X1675Y829D01*
X1675Y831D01*
X1673Y831D01*
X1673Y833D01*
X1671Y833D01*
X1671Y835D01*
X1667Y835D01*
X1667Y837D01*
X1665Y837D01*
X1665Y839D01*
X1663Y839D01*
X1663Y841D01*
X1659Y841D01*
X1659Y843D01*
X1657Y843D01*
X1657Y845D01*
X1653Y845D01*
X1653Y847D01*
X1651Y847D01*
X1651Y849D01*
X1649Y849D01*
X1649Y851D01*
X1645Y851D01*
X1645Y853D01*
X1643Y853D01*
X1643Y855D01*
X1641Y855D01*
X1641Y857D01*
X1637Y857D01*
X1637Y859D01*
X1635Y859D01*
X1635Y861D01*
X1633Y861D01*
X1633Y863D01*
X1629Y863D01*
X1629Y865D01*
X1627Y865D01*
X1627Y869D01*
X1625Y869D01*
X1625Y871D01*
X1623Y871D01*
X1623Y875D01*
X1621Y875D01*
X1621Y881D01*
X1619Y881D01*
X1619Y927D01*
X1617Y927D01*
X1617Y939D01*
X1485Y939D01*
G37*
D02*
G36*
X1707Y939D02*
X1707Y923D01*
X1709Y923D01*
X1709Y921D01*
X1711Y921D01*
X1711Y919D01*
X1715Y919D01*
X1715Y917D01*
X1717Y917D01*
X1717Y915D01*
X1719Y915D01*
X1719Y913D01*
X1723Y913D01*
X1723Y911D01*
X1725Y911D01*
X1725Y909D01*
X1727Y909D01*
X1727Y907D01*
X1731Y907D01*
X1731Y905D01*
X1733Y905D01*
X1733Y903D01*
X1735Y903D01*
X1735Y901D01*
X1739Y901D01*
X1739Y899D01*
X1741Y899D01*
X1741Y897D01*
X1745Y897D01*
X1745Y895D01*
X1747Y895D01*
X1747Y893D01*
X1749Y893D01*
X1749Y891D01*
X1753Y891D01*
X1753Y889D01*
X1927Y889D01*
X1927Y887D01*
X1931Y887D01*
X1931Y885D01*
X1935Y885D01*
X1935Y883D01*
X1939Y883D01*
X1939Y881D01*
X1941Y881D01*
X1941Y879D01*
X1943Y879D01*
X1943Y877D01*
X1945Y877D01*
X1945Y875D01*
X1947Y875D01*
X1947Y873D01*
X1949Y873D01*
X1949Y871D01*
X1951Y871D01*
X1951Y869D01*
X1953Y869D01*
X1953Y865D01*
X1955Y865D01*
X1955Y863D01*
X1957Y863D01*
X1957Y859D01*
X1959Y859D01*
X1959Y853D01*
X1961Y853D01*
X1961Y823D01*
X1959Y823D01*
X1959Y817D01*
X1957Y817D01*
X1957Y813D01*
X1955Y813D01*
X1955Y809D01*
X1953Y809D01*
X1953Y807D01*
X1951Y807D01*
X1951Y805D01*
X1949Y805D01*
X1949Y803D01*
X1947Y803D01*
X1947Y801D01*
X1945Y801D01*
X1945Y799D01*
X1943Y799D01*
X1943Y797D01*
X1941Y797D01*
X1941Y795D01*
X1939Y795D01*
X1939Y793D01*
X1935Y793D01*
X1935Y791D01*
X1931Y791D01*
X1931Y789D01*
X1927Y789D01*
X1927Y787D01*
X2027Y787D01*
X2027Y805D01*
X2025Y805D01*
X2025Y809D01*
X2023Y809D01*
X2023Y811D01*
X2021Y811D01*
X2021Y815D01*
X2019Y815D01*
X2019Y817D01*
X2017Y817D01*
X2017Y819D01*
X2015Y819D01*
X2015Y823D01*
X2013Y823D01*
X2013Y825D01*
X2011Y825D01*
X2011Y829D01*
X2009Y829D01*
X2009Y831D01*
X2007Y831D01*
X2007Y835D01*
X2005Y835D01*
X2005Y837D01*
X2003Y837D01*
X2003Y839D01*
X2001Y839D01*
X2001Y843D01*
X1999Y843D01*
X1999Y845D01*
X1997Y845D01*
X1997Y849D01*
X1995Y849D01*
X1995Y851D01*
X1993Y851D01*
X1993Y853D01*
X1991Y853D01*
X1991Y857D01*
X1989Y857D01*
X1989Y859D01*
X1987Y859D01*
X1987Y863D01*
X1985Y863D01*
X1985Y865D01*
X1983Y865D01*
X1983Y869D01*
X1981Y869D01*
X1981Y871D01*
X1979Y871D01*
X1979Y873D01*
X1977Y873D01*
X1977Y877D01*
X1975Y877D01*
X1975Y879D01*
X1973Y879D01*
X1973Y883D01*
X1971Y883D01*
X1971Y885D01*
X1969Y885D01*
X1969Y887D01*
X1967Y887D01*
X1967Y891D01*
X1965Y891D01*
X1965Y893D01*
X1963Y893D01*
X1963Y897D01*
X1961Y897D01*
X1961Y899D01*
X1959Y899D01*
X1959Y903D01*
X1957Y903D01*
X1957Y905D01*
X1955Y905D01*
X1955Y907D01*
X1953Y907D01*
X1953Y911D01*
X1951Y911D01*
X1951Y913D01*
X1949Y913D01*
X1949Y917D01*
X1947Y917D01*
X1947Y919D01*
X1945Y919D01*
X1945Y921D01*
X1943Y921D01*
X1943Y925D01*
X1941Y925D01*
X1941Y927D01*
X1939Y927D01*
X1939Y931D01*
X1937Y931D01*
X1937Y933D01*
X1935Y933D01*
X1935Y937D01*
X1933Y937D01*
X1933Y939D01*
X1707Y939D01*
G37*
D02*
G36*
X1755Y889D02*
X1755Y887D01*
X1757Y887D01*
X1757Y885D01*
X1761Y885D01*
X1761Y883D01*
X1763Y883D01*
X1763Y881D01*
X1881Y881D01*
X1881Y883D01*
X1885Y883D01*
X1885Y885D01*
X1889Y885D01*
X1889Y887D01*
X1893Y887D01*
X1893Y889D01*
X1755Y889D01*
G37*
D02*
G36*
X1651Y787D02*
X1651Y785D01*
X2027Y785D01*
X2027Y787D01*
X1651Y787D01*
G37*
D02*
G36*
X1651Y787D02*
X1651Y785D01*
X2027Y785D01*
X2027Y787D01*
X1651Y787D01*
G37*
D02*
G36*
X1651Y785D02*
X1651Y655D01*
X1927Y655D01*
X1927Y579D01*
X2027Y579D01*
X2027Y785D01*
X1651Y785D01*
G37*
D02*
G36*
X1651Y655D02*
X1651Y603D01*
X1793Y603D01*
X1793Y605D01*
X1795Y605D01*
X1795Y607D01*
X1797Y607D01*
X1797Y609D01*
X1801Y609D01*
X1801Y611D01*
X1803Y611D01*
X1803Y613D01*
X1805Y613D01*
X1805Y615D01*
X1807Y615D01*
X1807Y617D01*
X1809Y617D01*
X1809Y619D01*
X1813Y619D01*
X1813Y621D01*
X1815Y621D01*
X1815Y623D01*
X1817Y623D01*
X1817Y625D01*
X1819Y625D01*
X1819Y627D01*
X1823Y627D01*
X1823Y629D01*
X1825Y629D01*
X1825Y631D01*
X1829Y631D01*
X1829Y633D01*
X1835Y633D01*
X1835Y635D01*
X1837Y635D01*
X1837Y655D01*
X1651Y655D01*
G37*
D02*
G36*
X1895Y579D02*
X1895Y577D01*
X2177Y577D01*
X2177Y579D01*
X1895Y579D01*
G37*
D02*
G36*
X1895Y579D02*
X1895Y577D01*
X2177Y577D01*
X2177Y579D01*
X1895Y579D01*
G37*
D02*
G36*
X1893Y577D02*
X1893Y571D01*
X1891Y571D01*
X1891Y565D01*
X1889Y565D01*
X1889Y563D01*
X1887Y563D01*
X1887Y561D01*
X1885Y561D01*
X1885Y557D01*
X1881Y557D01*
X1881Y555D01*
X1879Y555D01*
X1879Y553D01*
X1877Y553D01*
X1877Y539D01*
X2055Y539D01*
X2055Y537D01*
X2061Y537D01*
X2061Y535D01*
X2065Y535D01*
X2065Y533D01*
X2115Y533D01*
X2115Y457D01*
X2065Y457D01*
X2065Y455D01*
X2061Y455D01*
X2061Y453D01*
X2053Y453D01*
X2053Y451D01*
X1925Y451D01*
X1925Y375D01*
X1923Y375D01*
X1923Y369D01*
X1921Y369D01*
X1921Y365D01*
X1919Y365D01*
X1919Y363D01*
X1917Y363D01*
X1917Y361D01*
X1915Y361D01*
X1915Y359D01*
X1913Y359D01*
X1913Y357D01*
X1911Y357D01*
X1911Y355D01*
X1909Y355D01*
X1909Y353D01*
X1907Y353D01*
X1907Y351D01*
X1905Y351D01*
X1905Y349D01*
X1903Y349D01*
X1903Y347D01*
X1901Y347D01*
X1901Y345D01*
X1899Y345D01*
X1899Y343D01*
X1897Y343D01*
X1897Y341D01*
X1895Y341D01*
X1895Y339D01*
X1893Y339D01*
X1893Y337D01*
X1891Y337D01*
X1891Y335D01*
X1889Y335D01*
X1889Y333D01*
X1887Y333D01*
X1887Y331D01*
X1885Y331D01*
X1885Y311D01*
X1883Y311D01*
X1883Y305D01*
X1881Y305D01*
X1881Y299D01*
X1879Y299D01*
X1879Y295D01*
X1877Y295D01*
X1877Y291D01*
X1875Y291D01*
X1875Y289D01*
X1873Y289D01*
X1873Y285D01*
X1871Y285D01*
X1871Y283D01*
X1869Y283D01*
X1869Y281D01*
X1867Y281D01*
X1867Y279D01*
X1865Y279D01*
X1865Y277D01*
X1863Y277D01*
X1863Y275D01*
X1861Y275D01*
X1861Y273D01*
X1859Y273D01*
X1859Y271D01*
X1857Y271D01*
X1857Y269D01*
X1855Y269D01*
X1855Y247D01*
X2161Y247D01*
X2161Y245D01*
X2181Y245D01*
X2181Y313D01*
X2179Y313D01*
X2179Y547D01*
X2177Y547D01*
X2177Y577D01*
X1893Y577D01*
G37*
D02*
G36*
X1877Y539D02*
X1877Y537D01*
X1899Y537D01*
X1899Y539D01*
X1877Y539D01*
G37*
D02*
G36*
X2021Y247D02*
X2021Y245D01*
X2045Y245D01*
X2045Y247D01*
X2021Y247D01*
G37*
D02*
G36*
X2061Y247D02*
X2061Y245D01*
X2073Y245D01*
X2073Y243D01*
X2079Y243D01*
X2079Y241D01*
X2083Y241D01*
X2083Y239D01*
X2087Y239D01*
X2087Y237D01*
X2089Y237D01*
X2089Y235D01*
X2093Y235D01*
X2093Y233D01*
X2113Y233D01*
X2113Y235D01*
X2115Y235D01*
X2115Y237D01*
X2119Y237D01*
X2119Y239D01*
X2123Y239D01*
X2123Y241D01*
X2127Y241D01*
X2127Y243D01*
X2133Y243D01*
X2133Y245D01*
X2145Y245D01*
X2145Y247D01*
X2061Y247D01*
G37*
D02*
G36*
X1127Y649D02*
X1127Y629D01*
X1129Y629D01*
X1129Y627D01*
X1133Y627D01*
X1133Y625D01*
X1135Y625D01*
X1135Y623D01*
X1139Y623D01*
X1139Y621D01*
X1141Y621D01*
X1141Y619D01*
X1145Y619D01*
X1145Y617D01*
X1147Y617D01*
X1147Y615D01*
X1151Y615D01*
X1151Y613D01*
X1153Y613D01*
X1153Y611D01*
X1157Y611D01*
X1157Y609D01*
X1161Y609D01*
X1161Y607D01*
X1163Y607D01*
X1163Y605D01*
X1167Y605D01*
X1167Y603D01*
X1169Y603D01*
X1169Y601D01*
X1173Y601D01*
X1173Y599D01*
X1175Y599D01*
X1175Y597D01*
X1179Y597D01*
X1179Y595D01*
X1181Y595D01*
X1181Y593D01*
X1185Y593D01*
X1185Y591D01*
X1187Y591D01*
X1187Y589D01*
X1191Y589D01*
X1191Y587D01*
X1193Y587D01*
X1193Y585D01*
X1197Y585D01*
X1197Y583D01*
X1201Y583D01*
X1201Y581D01*
X1203Y581D01*
X1203Y579D01*
X1207Y579D01*
X1207Y577D01*
X1209Y577D01*
X1209Y575D01*
X1213Y575D01*
X1213Y573D01*
X1215Y573D01*
X1215Y571D01*
X1217Y571D01*
X1217Y569D01*
X1219Y569D01*
X1219Y567D01*
X1221Y567D01*
X1221Y565D01*
X1223Y565D01*
X1223Y563D01*
X1225Y563D01*
X1225Y559D01*
X1227Y559D01*
X1227Y555D01*
X1229Y555D01*
X1229Y547D01*
X1231Y547D01*
X1231Y493D01*
X1229Y493D01*
X1229Y357D01*
X1231Y357D01*
X1231Y355D01*
X1233Y355D01*
X1233Y353D01*
X1235Y353D01*
X1235Y351D01*
X1237Y351D01*
X1237Y349D01*
X1239Y349D01*
X1239Y347D01*
X1241Y347D01*
X1241Y345D01*
X1245Y345D01*
X1245Y343D01*
X1247Y343D01*
X1247Y341D01*
X1249Y341D01*
X1249Y339D01*
X1251Y339D01*
X1251Y337D01*
X1253Y337D01*
X1253Y335D01*
X1273Y335D01*
X1273Y341D01*
X1275Y341D01*
X1275Y349D01*
X1277Y349D01*
X1277Y353D01*
X1279Y353D01*
X1279Y357D01*
X1281Y357D01*
X1281Y361D01*
X1283Y361D01*
X1283Y365D01*
X1285Y365D01*
X1285Y367D01*
X1287Y367D01*
X1287Y369D01*
X1289Y369D01*
X1289Y371D01*
X1291Y371D01*
X1291Y375D01*
X1293Y375D01*
X1293Y377D01*
X1295Y377D01*
X1295Y379D01*
X1299Y379D01*
X1299Y449D01*
X1297Y449D01*
X1297Y455D01*
X1295Y455D01*
X1295Y457D01*
X1287Y457D01*
X1287Y533D01*
X1337Y533D01*
X1337Y555D01*
X1335Y555D01*
X1335Y557D01*
X1331Y557D01*
X1331Y559D01*
X1329Y559D01*
X1329Y561D01*
X1327Y561D01*
X1327Y563D01*
X1325Y563D01*
X1325Y567D01*
X1323Y567D01*
X1323Y571D01*
X1321Y571D01*
X1321Y575D01*
X1319Y575D01*
X1319Y579D01*
X1287Y579D01*
X1287Y599D01*
X1285Y599D01*
X1285Y601D01*
X1281Y601D01*
X1281Y603D01*
X1277Y603D01*
X1277Y605D01*
X1273Y605D01*
X1273Y607D01*
X1271Y607D01*
X1271Y609D01*
X1269Y609D01*
X1269Y611D01*
X1267Y611D01*
X1267Y613D01*
X1265Y613D01*
X1265Y615D01*
X1261Y615D01*
X1261Y617D01*
X1259Y617D01*
X1259Y619D01*
X1257Y619D01*
X1257Y621D01*
X1255Y621D01*
X1255Y623D01*
X1253Y623D01*
X1253Y625D01*
X1251Y625D01*
X1251Y627D01*
X1249Y627D01*
X1249Y629D01*
X1247Y629D01*
X1247Y631D01*
X1245Y631D01*
X1245Y633D01*
X1243Y633D01*
X1243Y635D01*
X1241Y635D01*
X1241Y637D01*
X1237Y637D01*
X1237Y639D01*
X1235Y639D01*
X1235Y641D01*
X1233Y641D01*
X1233Y643D01*
X1231Y643D01*
X1231Y645D01*
X1229Y645D01*
X1229Y647D01*
X1227Y647D01*
X1227Y649D01*
X1127Y649D01*
G37*
D02*
G36*
X1651Y515D02*
X1651Y457D01*
X1601Y457D01*
X1601Y455D01*
X1597Y455D01*
X1597Y453D01*
X1591Y453D01*
X1591Y451D01*
X1387Y451D01*
X1387Y395D01*
X1579Y395D01*
X1579Y393D01*
X1585Y393D01*
X1585Y391D01*
X1589Y391D01*
X1589Y389D01*
X1593Y389D01*
X1593Y387D01*
X1595Y387D01*
X1595Y385D01*
X1599Y385D01*
X1599Y383D01*
X1601Y383D01*
X1601Y381D01*
X1603Y381D01*
X1603Y379D01*
X1607Y379D01*
X1607Y377D01*
X1609Y377D01*
X1609Y375D01*
X1611Y375D01*
X1611Y371D01*
X1613Y371D01*
X1613Y369D01*
X1615Y369D01*
X1615Y367D01*
X1617Y367D01*
X1617Y365D01*
X1619Y365D01*
X1619Y361D01*
X1621Y361D01*
X1621Y357D01*
X1623Y357D01*
X1623Y353D01*
X1625Y353D01*
X1625Y349D01*
X1627Y349D01*
X1627Y341D01*
X1629Y341D01*
X1629Y311D01*
X1627Y311D01*
X1627Y303D01*
X1625Y303D01*
X1625Y299D01*
X1623Y299D01*
X1623Y279D01*
X1751Y279D01*
X1751Y299D01*
X1749Y299D01*
X1749Y305D01*
X1747Y305D01*
X1747Y313D01*
X1745Y313D01*
X1745Y339D01*
X1747Y339D01*
X1747Y347D01*
X1749Y347D01*
X1749Y353D01*
X1751Y353D01*
X1751Y357D01*
X1753Y357D01*
X1753Y361D01*
X1755Y361D01*
X1755Y363D01*
X1757Y363D01*
X1757Y367D01*
X1759Y367D01*
X1759Y369D01*
X1761Y369D01*
X1761Y371D01*
X1763Y371D01*
X1763Y373D01*
X1765Y373D01*
X1765Y375D01*
X1767Y375D01*
X1767Y377D01*
X1769Y377D01*
X1769Y379D01*
X1771Y379D01*
X1771Y381D01*
X1773Y381D01*
X1773Y383D01*
X1775Y383D01*
X1775Y385D01*
X1779Y385D01*
X1779Y387D01*
X1781Y387D01*
X1781Y389D01*
X1785Y389D01*
X1785Y391D01*
X1791Y391D01*
X1791Y393D01*
X1797Y393D01*
X1797Y395D01*
X1819Y395D01*
X1819Y397D01*
X1821Y397D01*
X1821Y399D01*
X1823Y399D01*
X1823Y401D01*
X1825Y401D01*
X1825Y403D01*
X1827Y403D01*
X1827Y405D01*
X1829Y405D01*
X1829Y407D01*
X1831Y407D01*
X1831Y409D01*
X1833Y409D01*
X1833Y411D01*
X1835Y411D01*
X1835Y413D01*
X1837Y413D01*
X1837Y515D01*
X1651Y515D01*
G37*
D02*
G36*
X1387Y395D02*
X1387Y379D01*
X1389Y379D01*
X1389Y377D01*
X1391Y377D01*
X1391Y375D01*
X1393Y375D01*
X1393Y373D01*
X1395Y373D01*
X1395Y371D01*
X1397Y371D01*
X1397Y369D01*
X1399Y369D01*
X1399Y367D01*
X1401Y367D01*
X1401Y363D01*
X1403Y363D01*
X1403Y361D01*
X1405Y361D01*
X1405Y357D01*
X1407Y357D01*
X1407Y353D01*
X1409Y353D01*
X1409Y347D01*
X1411Y347D01*
X1411Y337D01*
X1413Y337D01*
X1413Y315D01*
X1411Y315D01*
X1411Y305D01*
X1409Y305D01*
X1409Y299D01*
X1407Y299D01*
X1407Y279D01*
X1495Y279D01*
X1495Y299D01*
X1493Y299D01*
X1493Y305D01*
X1491Y305D01*
X1491Y315D01*
X1489Y315D01*
X1489Y337D01*
X1491Y337D01*
X1491Y347D01*
X1493Y347D01*
X1493Y353D01*
X1495Y353D01*
X1495Y357D01*
X1497Y357D01*
X1497Y361D01*
X1499Y361D01*
X1499Y363D01*
X1501Y363D01*
X1501Y367D01*
X1503Y367D01*
X1503Y369D01*
X1505Y369D01*
X1505Y371D01*
X1507Y371D01*
X1507Y373D01*
X1509Y373D01*
X1509Y375D01*
X1511Y375D01*
X1511Y377D01*
X1513Y377D01*
X1513Y379D01*
X1515Y379D01*
X1515Y381D01*
X1517Y381D01*
X1517Y383D01*
X1519Y383D01*
X1519Y385D01*
X1523Y385D01*
X1523Y387D01*
X1527Y387D01*
X1527Y389D01*
X1529Y389D01*
X1529Y391D01*
X1535Y391D01*
X1535Y393D01*
X1541Y393D01*
X1541Y395D01*
X1387Y395D01*
G37*
D02*
G36*
X1409Y191D02*
X1409Y169D01*
X1411Y169D01*
X1411Y159D01*
X1413Y159D01*
X1413Y129D01*
X1489Y129D01*
X1489Y161D01*
X1491Y161D01*
X1491Y169D01*
X1493Y169D01*
X1493Y191D01*
X1409Y191D01*
G37*
D02*
G36*
X1625Y191D02*
X1625Y171D01*
X1627Y171D01*
X1627Y163D01*
X1629Y163D01*
X1629Y129D01*
X1745Y129D01*
X1745Y161D01*
X1747Y161D01*
X1747Y171D01*
X1749Y171D01*
X1749Y191D01*
X1625Y191D01*
G37*
D02*
G36*
X446Y1497D02*
X495Y1497D01*
X495Y1433D01*
X446Y1433D01*
X446Y1497D01*
G37*
D02*
G36*
X122Y135D02*
X159Y135D01*
X159Y87D01*
X122Y87D01*
X122Y135D01*
G37*
D02*
G36*
X75Y170D02*
X123Y170D01*
X123Y133D01*
X75Y133D01*
X75Y170D01*
G37*
D02*
G36*
X594Y223D02*
X631Y223D01*
X631Y169D01*
X594Y169D01*
X594Y223D01*
G37*
D02*
G36*
X594Y135D02*
X631Y135D01*
X631Y87D01*
X594Y87D01*
X594Y135D01*
G37*
D02*
G36*
X629Y170D02*
X683Y170D01*
X683Y133D01*
X629Y133D01*
X629Y170D01*
G37*
D02*
G36*
X378Y223D02*
X415Y223D01*
X415Y169D01*
X378Y169D01*
X378Y223D01*
G37*
D02*
G36*
X378Y135D02*
X415Y135D01*
X415Y87D01*
X378Y87D01*
X378Y135D01*
G37*
D02*
G36*
X325Y170D02*
X379Y170D01*
X379Y133D01*
X325Y133D01*
X325Y170D01*
G37*
D02*
G36*
X850Y223D02*
X887Y223D01*
X887Y169D01*
X850Y169D01*
X850Y223D01*
G37*
D02*
G36*
X850Y135D02*
X887Y135D01*
X887Y87D01*
X850Y87D01*
X850Y135D01*
G37*
D02*
G36*
X797Y170D02*
X851Y170D01*
X851Y133D01*
X797Y133D01*
X797Y170D01*
G37*
D02*
G36*
X1538Y135D02*
X1575Y135D01*
X1575Y87D01*
X1538Y87D01*
X1538Y135D01*
G37*
D02*
G36*
X1573Y170D02*
X1629Y170D01*
X1629Y133D01*
X1573Y133D01*
X1573Y170D01*
G37*
D02*
G36*
X1066Y223D02*
X1103Y223D01*
X1103Y169D01*
X1066Y169D01*
X1066Y223D01*
G37*
D02*
G36*
X1066Y135D02*
X1103Y135D01*
X1103Y87D01*
X1066Y87D01*
X1066Y135D01*
G37*
D02*
G36*
X1101Y170D02*
X1157Y170D01*
X1157Y133D01*
X1101Y133D01*
X1101Y170D01*
G37*
D02*
G36*
X1794Y135D02*
X1831Y135D01*
X1831Y87D01*
X1794Y87D01*
X1794Y135D01*
G37*
D02*
G36*
X1741Y170D02*
X1795Y170D01*
X1795Y133D01*
X1741Y133D01*
X1741Y170D01*
G37*
D02*
G36*
X1322Y135D02*
X1359Y135D01*
X1359Y87D01*
X1322Y87D01*
X1322Y135D01*
G37*
D02*
G36*
X1269Y170D02*
X1323Y170D01*
X1323Y133D01*
X1269Y133D01*
X1269Y170D01*
G37*
D02*
G36*
X114Y1809D02*
X151Y1809D01*
X151Y1755D01*
X114Y1755D01*
X114Y1809D01*
G37*
D02*
G36*
X114Y1721D02*
X151Y1721D01*
X151Y1667D01*
X114Y1667D01*
X114Y1721D01*
G37*
D02*
G36*
X75Y1756D02*
X115Y1756D01*
X115Y1719D01*
X75Y1719D01*
X75Y1756D01*
G37*
D02*
G36*
X712Y1721D02*
X749Y1721D01*
X749Y1667D01*
X712Y1667D01*
X712Y1721D01*
G37*
D02*
G36*
X1999Y1615D02*
X2018Y1615D01*
X2018Y1567D01*
X1999Y1567D01*
X1999Y1615D01*
G37*
D02*
G36*
X1957Y1569D02*
X2001Y1569D01*
X2001Y1550D01*
X1957Y1550D01*
X1957Y1569D01*
G37*
D02*
G36*
X2015Y1569D02*
X2063Y1569D01*
X2063Y1550D01*
X2015Y1550D01*
X2015Y1569D01*
G37*
D02*
G36*
X812Y1721D02*
X849Y1721D01*
X849Y1667D01*
X812Y1667D01*
X812Y1721D01*
G37*
D02*
G36*
X912Y1721D02*
X949Y1721D01*
X949Y1667D01*
X912Y1667D01*
X912Y1721D01*
G37*
D02*
G36*
X1012Y1721D02*
X1049Y1721D01*
X1049Y1667D01*
X1012Y1667D01*
X1012Y1721D01*
G37*
D02*
G54D20*
X656Y1143D02*
X666Y1143D01*
X756Y1143D02*
X766Y1143D01*
X856Y1143D02*
X866Y1143D01*
X956Y1143D02*
X966Y1143D01*
X1056Y1143D02*
X1066Y1143D01*
X1156Y1143D02*
X1166Y1143D01*
X1256Y1143D02*
X1266Y1143D01*
X1356Y1143D02*
X1366Y1143D01*
X1456Y1143D02*
X1466Y1143D01*
X1556Y1143D02*
X1565Y1143D01*
X1656Y1143D02*
X1665Y1143D01*
X1756Y1143D02*
X1765Y1143D01*
X1856Y1143D02*
X1865Y1143D01*
X652Y1142D02*
X670Y1142D01*
X752Y1142D02*
X770Y1142D01*
X852Y1142D02*
X870Y1142D01*
X952Y1142D02*
X970Y1142D01*
X1052Y1142D02*
X1070Y1142D01*
X1152Y1142D02*
X1170Y1142D01*
X1252Y1142D02*
X1270Y1142D01*
X1352Y1142D02*
X1369Y1142D01*
X1452Y1142D02*
X1469Y1142D01*
X1552Y1142D02*
X1569Y1142D01*
X1652Y1142D02*
X1669Y1142D01*
X1752Y1142D02*
X1769Y1142D01*
X1852Y1142D02*
X1869Y1142D01*
X649Y1141D02*
X672Y1141D01*
X749Y1141D02*
X772Y1141D01*
X849Y1141D02*
X872Y1141D01*
X949Y1141D02*
X972Y1141D01*
X1049Y1141D02*
X1072Y1141D01*
X1149Y1141D02*
X1172Y1141D01*
X1249Y1141D02*
X1272Y1141D01*
X1349Y1141D02*
X1372Y1141D01*
X1449Y1141D02*
X1472Y1141D01*
X1549Y1141D02*
X1572Y1141D01*
X1649Y1141D02*
X1672Y1141D01*
X1749Y1141D02*
X1772Y1141D01*
X1849Y1141D02*
X1872Y1141D01*
X647Y1140D02*
X674Y1140D01*
X747Y1140D02*
X774Y1140D01*
X847Y1140D02*
X874Y1140D01*
X947Y1140D02*
X974Y1140D01*
X1047Y1140D02*
X1074Y1140D01*
X1147Y1140D02*
X1174Y1140D01*
X1247Y1140D02*
X1274Y1140D01*
X1347Y1140D02*
X1374Y1140D01*
X1447Y1140D02*
X1474Y1140D01*
X1547Y1140D02*
X1574Y1140D01*
X1647Y1140D02*
X1674Y1140D01*
X1747Y1140D02*
X1774Y1140D01*
X1847Y1140D02*
X1874Y1140D01*
X645Y1139D02*
X676Y1139D01*
X745Y1139D02*
X776Y1139D01*
X845Y1139D02*
X876Y1139D01*
X945Y1139D02*
X976Y1139D01*
X1045Y1139D02*
X1076Y1139D01*
X1145Y1139D02*
X1176Y1139D01*
X1245Y1139D02*
X1276Y1139D01*
X1345Y1139D02*
X1376Y1139D01*
X1445Y1139D02*
X1476Y1139D01*
X1545Y1139D02*
X1576Y1139D01*
X1645Y1139D02*
X1676Y1139D01*
X1745Y1139D02*
X1776Y1139D01*
X1845Y1139D02*
X1876Y1139D01*
X644Y1138D02*
X678Y1138D01*
X744Y1138D02*
X778Y1138D01*
X844Y1138D02*
X878Y1138D01*
X944Y1138D02*
X978Y1138D01*
X1044Y1138D02*
X1078Y1138D01*
X1144Y1138D02*
X1178Y1138D01*
X1244Y1138D02*
X1278Y1138D01*
X1343Y1138D02*
X1378Y1138D01*
X1443Y1138D02*
X1478Y1138D01*
X1543Y1138D02*
X1578Y1138D01*
X1643Y1138D02*
X1678Y1138D01*
X1743Y1138D02*
X1778Y1138D01*
X1843Y1138D02*
X1878Y1138D01*
X642Y1137D02*
X679Y1137D01*
X742Y1137D02*
X779Y1137D01*
X842Y1137D02*
X879Y1137D01*
X942Y1137D02*
X979Y1137D01*
X1042Y1137D02*
X1079Y1137D01*
X1142Y1137D02*
X1179Y1137D01*
X1242Y1137D02*
X1279Y1137D01*
X1342Y1137D02*
X1379Y1137D01*
X1442Y1137D02*
X1479Y1137D01*
X1542Y1137D02*
X1579Y1137D01*
X1642Y1137D02*
X1679Y1137D01*
X1742Y1137D02*
X1779Y1137D01*
X1842Y1137D02*
X1879Y1137D01*
X641Y1136D02*
X681Y1136D01*
X741Y1136D02*
X781Y1136D01*
X841Y1136D02*
X881Y1136D01*
X941Y1136D02*
X981Y1136D01*
X1041Y1136D02*
X1081Y1136D01*
X1141Y1136D02*
X1181Y1136D01*
X1241Y1136D02*
X1281Y1136D01*
X1341Y1136D02*
X1381Y1136D01*
X1441Y1136D02*
X1481Y1136D01*
X1541Y1136D02*
X1581Y1136D01*
X1641Y1136D02*
X1681Y1136D01*
X1741Y1136D02*
X1781Y1136D01*
X1841Y1136D02*
X1881Y1136D01*
X640Y1135D02*
X682Y1135D01*
X740Y1135D02*
X782Y1135D01*
X840Y1135D02*
X882Y1135D01*
X940Y1135D02*
X982Y1135D01*
X1039Y1135D02*
X1082Y1135D01*
X1139Y1135D02*
X1182Y1135D01*
X1239Y1135D02*
X1282Y1135D01*
X1339Y1135D02*
X1382Y1135D01*
X1439Y1135D02*
X1482Y1135D01*
X1539Y1135D02*
X1582Y1135D01*
X1639Y1135D02*
X1682Y1135D01*
X1739Y1135D02*
X1782Y1135D01*
X1839Y1135D02*
X1882Y1135D01*
X638Y1134D02*
X683Y1134D01*
X738Y1134D02*
X783Y1134D01*
X838Y1134D02*
X883Y1134D01*
X938Y1134D02*
X983Y1134D01*
X1038Y1134D02*
X1083Y1134D01*
X1138Y1134D02*
X1183Y1134D01*
X1238Y1134D02*
X1283Y1134D01*
X1338Y1134D02*
X1383Y1134D01*
X1438Y1134D02*
X1483Y1134D01*
X1538Y1134D02*
X1583Y1134D01*
X1638Y1134D02*
X1683Y1134D01*
X1738Y1134D02*
X1783Y1134D01*
X1838Y1134D02*
X1883Y1134D01*
X637Y1133D02*
X684Y1133D01*
X737Y1133D02*
X784Y1133D01*
X837Y1133D02*
X884Y1133D01*
X937Y1133D02*
X984Y1133D01*
X1037Y1133D02*
X1084Y1133D01*
X1137Y1133D02*
X1184Y1133D01*
X1237Y1133D02*
X1284Y1133D01*
X1337Y1133D02*
X1384Y1133D01*
X1437Y1133D02*
X1484Y1133D01*
X1537Y1133D02*
X1584Y1133D01*
X1637Y1133D02*
X1684Y1133D01*
X1737Y1133D02*
X1784Y1133D01*
X1837Y1133D02*
X1884Y1133D01*
X636Y1132D02*
X685Y1132D01*
X736Y1132D02*
X785Y1132D01*
X836Y1132D02*
X885Y1132D01*
X936Y1132D02*
X985Y1132D01*
X1036Y1132D02*
X1085Y1132D01*
X1136Y1132D02*
X1185Y1132D01*
X1236Y1132D02*
X1285Y1132D01*
X1336Y1132D02*
X1385Y1132D01*
X1436Y1132D02*
X1485Y1132D01*
X1536Y1132D02*
X1585Y1132D01*
X1636Y1132D02*
X1685Y1132D01*
X1736Y1132D02*
X1785Y1132D01*
X1836Y1132D02*
X1885Y1132D01*
X635Y1131D02*
X686Y1131D01*
X735Y1131D02*
X786Y1131D01*
X835Y1131D02*
X886Y1131D01*
X935Y1131D02*
X986Y1131D01*
X1035Y1131D02*
X1086Y1131D01*
X1135Y1131D02*
X1186Y1131D01*
X1235Y1131D02*
X1286Y1131D01*
X1335Y1131D02*
X1386Y1131D01*
X1435Y1131D02*
X1486Y1131D01*
X1535Y1131D02*
X1586Y1131D01*
X1635Y1131D02*
X1686Y1131D01*
X1735Y1131D02*
X1786Y1131D01*
X1835Y1131D02*
X1886Y1131D01*
X635Y1130D02*
X687Y1130D01*
X735Y1130D02*
X787Y1130D01*
X835Y1130D02*
X887Y1130D01*
X935Y1130D02*
X987Y1130D01*
X1035Y1130D02*
X1087Y1130D01*
X1135Y1130D02*
X1187Y1130D01*
X1235Y1130D02*
X1287Y1130D01*
X1334Y1130D02*
X1387Y1130D01*
X1434Y1130D02*
X1487Y1130D01*
X1534Y1130D02*
X1587Y1130D01*
X1634Y1130D02*
X1687Y1130D01*
X1734Y1130D02*
X1787Y1130D01*
X1834Y1130D02*
X1887Y1130D01*
X634Y1129D02*
X688Y1129D01*
X734Y1129D02*
X788Y1129D01*
X834Y1129D02*
X888Y1129D01*
X934Y1129D02*
X988Y1129D01*
X1034Y1129D02*
X1088Y1129D01*
X1134Y1129D02*
X1188Y1129D01*
X1234Y1129D02*
X1288Y1129D01*
X1334Y1129D02*
X1388Y1129D01*
X1434Y1129D02*
X1488Y1129D01*
X1534Y1129D02*
X1588Y1129D01*
X1634Y1129D02*
X1688Y1129D01*
X1734Y1129D02*
X1788Y1129D01*
X1834Y1129D02*
X1888Y1129D01*
X633Y1128D02*
X689Y1128D01*
X733Y1128D02*
X789Y1128D01*
X833Y1128D02*
X889Y1128D01*
X933Y1128D02*
X989Y1128D01*
X1033Y1128D02*
X1089Y1128D01*
X1133Y1128D02*
X1189Y1128D01*
X1233Y1128D02*
X1288Y1128D01*
X1333Y1128D02*
X1388Y1128D01*
X1433Y1128D02*
X1488Y1128D01*
X1533Y1128D02*
X1588Y1128D01*
X1633Y1128D02*
X1688Y1128D01*
X1733Y1128D02*
X1788Y1128D01*
X1833Y1128D02*
X1888Y1128D01*
X632Y1127D02*
X689Y1127D01*
X732Y1127D02*
X789Y1127D01*
X832Y1127D02*
X889Y1127D01*
X932Y1127D02*
X989Y1127D01*
X1032Y1127D02*
X1089Y1127D01*
X1132Y1127D02*
X1189Y1127D01*
X1232Y1127D02*
X1289Y1127D01*
X1332Y1127D02*
X1389Y1127D01*
X1432Y1127D02*
X1489Y1127D01*
X1532Y1127D02*
X1589Y1127D01*
X1632Y1127D02*
X1689Y1127D01*
X1732Y1127D02*
X1789Y1127D01*
X1832Y1127D02*
X1889Y1127D01*
X632Y1126D02*
X690Y1126D01*
X732Y1126D02*
X790Y1126D01*
X832Y1126D02*
X890Y1126D01*
X932Y1126D02*
X990Y1126D01*
X1032Y1126D02*
X1090Y1126D01*
X1132Y1126D02*
X1190Y1126D01*
X1232Y1126D02*
X1290Y1126D01*
X1332Y1126D02*
X1390Y1126D01*
X1432Y1126D02*
X1490Y1126D01*
X1532Y1126D02*
X1590Y1126D01*
X1632Y1126D02*
X1690Y1126D01*
X1732Y1126D02*
X1790Y1126D01*
X1832Y1126D02*
X1890Y1126D01*
X631Y1125D02*
X691Y1125D01*
X731Y1125D02*
X791Y1125D01*
X831Y1125D02*
X891Y1125D01*
X931Y1125D02*
X990Y1125D01*
X1031Y1125D02*
X1090Y1125D01*
X1131Y1125D02*
X1190Y1125D01*
X1231Y1125D02*
X1290Y1125D01*
X1331Y1125D02*
X1390Y1125D01*
X1431Y1125D02*
X1490Y1125D01*
X1531Y1125D02*
X1590Y1125D01*
X1631Y1125D02*
X1690Y1125D01*
X1731Y1125D02*
X1790Y1125D01*
X1831Y1125D02*
X1890Y1125D01*
X630Y1124D02*
X691Y1124D01*
X730Y1124D02*
X791Y1124D01*
X830Y1124D02*
X891Y1124D01*
X930Y1124D02*
X991Y1124D01*
X1030Y1124D02*
X1091Y1124D01*
X1130Y1124D02*
X1191Y1124D01*
X1230Y1124D02*
X1291Y1124D01*
X1330Y1124D02*
X1391Y1124D01*
X1430Y1124D02*
X1491Y1124D01*
X1530Y1124D02*
X1591Y1124D01*
X1630Y1124D02*
X1691Y1124D01*
X1730Y1124D02*
X1791Y1124D01*
X1830Y1124D02*
X1891Y1124D01*
X630Y1123D02*
X656Y1123D01*
X666Y1123D02*
X692Y1123D01*
X730Y1123D02*
X756Y1123D01*
X766Y1123D02*
X792Y1123D01*
X830Y1123D02*
X856Y1123D01*
X866Y1123D02*
X892Y1123D01*
X930Y1123D02*
X956Y1123D01*
X966Y1123D02*
X992Y1123D01*
X1030Y1123D02*
X1056Y1123D01*
X1066Y1123D02*
X1092Y1123D01*
X1130Y1123D02*
X1156Y1123D01*
X1166Y1123D02*
X1192Y1123D01*
X1230Y1123D02*
X1255Y1123D01*
X1266Y1123D02*
X1292Y1123D01*
X1330Y1123D02*
X1355Y1123D01*
X1366Y1123D02*
X1392Y1123D01*
X1430Y1123D02*
X1455Y1123D01*
X1466Y1123D02*
X1492Y1123D01*
X1530Y1123D02*
X1555Y1123D01*
X1566Y1123D02*
X1592Y1123D01*
X1630Y1123D02*
X1655Y1123D01*
X1666Y1123D02*
X1692Y1123D01*
X1730Y1123D02*
X1755Y1123D01*
X1766Y1123D02*
X1791Y1123D01*
X1830Y1123D02*
X1855Y1123D01*
X1866Y1123D02*
X1891Y1123D01*
X629Y1122D02*
X653Y1122D01*
X669Y1122D02*
X692Y1122D01*
X729Y1122D02*
X753Y1122D01*
X769Y1122D02*
X792Y1122D01*
X829Y1122D02*
X853Y1122D01*
X869Y1122D02*
X892Y1122D01*
X929Y1122D02*
X953Y1122D01*
X969Y1122D02*
X992Y1122D01*
X1029Y1122D02*
X1053Y1122D01*
X1069Y1122D02*
X1092Y1122D01*
X1129Y1122D02*
X1153Y1122D01*
X1169Y1122D02*
X1192Y1122D01*
X1229Y1122D02*
X1253Y1122D01*
X1269Y1122D02*
X1292Y1122D01*
X1329Y1122D02*
X1353Y1122D01*
X1369Y1122D02*
X1392Y1122D01*
X1429Y1122D02*
X1453Y1122D01*
X1469Y1122D02*
X1492Y1122D01*
X1529Y1122D02*
X1552Y1122D01*
X1569Y1122D02*
X1592Y1122D01*
X1629Y1122D02*
X1652Y1122D01*
X1669Y1122D02*
X1692Y1122D01*
X1729Y1122D02*
X1752Y1122D01*
X1769Y1122D02*
X1792Y1122D01*
X1829Y1122D02*
X1852Y1122D01*
X1869Y1122D02*
X1892Y1122D01*
X629Y1121D02*
X651Y1121D01*
X671Y1121D02*
X693Y1121D01*
X729Y1121D02*
X751Y1121D01*
X771Y1121D02*
X793Y1121D01*
X829Y1121D02*
X851Y1121D01*
X871Y1121D02*
X893Y1121D01*
X929Y1121D02*
X951Y1121D01*
X971Y1121D02*
X993Y1121D01*
X1029Y1121D02*
X1051Y1121D01*
X1071Y1121D02*
X1093Y1121D01*
X1129Y1121D02*
X1151Y1121D01*
X1171Y1121D02*
X1193Y1121D01*
X1229Y1121D02*
X1251Y1121D01*
X1271Y1121D02*
X1293Y1121D01*
X1329Y1121D02*
X1351Y1121D01*
X1371Y1121D02*
X1392Y1121D01*
X1429Y1121D02*
X1451Y1121D01*
X1471Y1121D02*
X1492Y1121D01*
X1529Y1121D02*
X1551Y1121D01*
X1571Y1121D02*
X1592Y1121D01*
X1629Y1121D02*
X1651Y1121D01*
X1671Y1121D02*
X1692Y1121D01*
X1729Y1121D02*
X1751Y1121D01*
X1771Y1121D02*
X1792Y1121D01*
X1829Y1121D02*
X1851Y1121D01*
X1871Y1121D02*
X1892Y1121D01*
X629Y1120D02*
X650Y1120D01*
X672Y1120D02*
X693Y1120D01*
X729Y1120D02*
X750Y1120D01*
X772Y1120D02*
X793Y1120D01*
X829Y1120D02*
X850Y1120D01*
X872Y1120D02*
X893Y1120D01*
X929Y1120D02*
X950Y1120D01*
X972Y1120D02*
X993Y1120D01*
X1029Y1120D02*
X1050Y1120D01*
X1072Y1120D02*
X1093Y1120D01*
X1129Y1120D02*
X1150Y1120D01*
X1172Y1120D02*
X1193Y1120D01*
X1229Y1120D02*
X1250Y1120D01*
X1272Y1120D02*
X1293Y1120D01*
X1328Y1120D02*
X1349Y1120D01*
X1372Y1120D02*
X1393Y1120D01*
X1428Y1120D02*
X1449Y1120D01*
X1472Y1120D02*
X1493Y1120D01*
X1528Y1120D02*
X1549Y1120D01*
X1572Y1120D02*
X1593Y1120D01*
X1628Y1120D02*
X1649Y1120D01*
X1672Y1120D02*
X1693Y1120D01*
X1728Y1120D02*
X1749Y1120D01*
X1772Y1120D02*
X1793Y1120D01*
X1828Y1120D02*
X1849Y1120D01*
X1872Y1120D02*
X1893Y1120D01*
X628Y1119D02*
X649Y1119D01*
X673Y1119D02*
X693Y1119D01*
X728Y1119D02*
X749Y1119D01*
X773Y1119D02*
X793Y1119D01*
X828Y1119D02*
X849Y1119D01*
X873Y1119D02*
X893Y1119D01*
X928Y1119D02*
X949Y1119D01*
X973Y1119D02*
X993Y1119D01*
X1028Y1119D02*
X1049Y1119D01*
X1073Y1119D02*
X1093Y1119D01*
X1128Y1119D02*
X1149Y1119D01*
X1173Y1119D02*
X1193Y1119D01*
X1228Y1119D02*
X1249Y1119D01*
X1273Y1119D02*
X1293Y1119D01*
X1328Y1119D02*
X1349Y1119D01*
X1373Y1119D02*
X1393Y1119D01*
X1428Y1119D02*
X1449Y1119D01*
X1473Y1119D02*
X1493Y1119D01*
X1528Y1119D02*
X1548Y1119D01*
X1573Y1119D02*
X1593Y1119D01*
X1628Y1119D02*
X1648Y1119D01*
X1673Y1119D02*
X1693Y1119D01*
X1728Y1119D02*
X1748Y1119D01*
X1773Y1119D02*
X1793Y1119D01*
X1828Y1119D02*
X1848Y1119D01*
X1873Y1119D02*
X1893Y1119D01*
X628Y1118D02*
X648Y1118D01*
X674Y1118D02*
X694Y1118D01*
X728Y1118D02*
X748Y1118D01*
X774Y1118D02*
X794Y1118D01*
X828Y1118D02*
X848Y1118D01*
X874Y1118D02*
X894Y1118D01*
X928Y1118D02*
X948Y1118D01*
X974Y1118D02*
X994Y1118D01*
X1028Y1118D02*
X1048Y1118D01*
X1074Y1118D02*
X1094Y1118D01*
X1128Y1118D02*
X1148Y1118D01*
X1174Y1118D02*
X1194Y1118D01*
X1228Y1118D02*
X1248Y1118D01*
X1274Y1118D02*
X1294Y1118D01*
X1328Y1118D02*
X1348Y1118D01*
X1374Y1118D02*
X1394Y1118D01*
X1428Y1118D02*
X1448Y1118D01*
X1474Y1118D02*
X1494Y1118D01*
X1528Y1118D02*
X1548Y1118D01*
X1574Y1118D02*
X1594Y1118D01*
X1628Y1118D02*
X1648Y1118D01*
X1674Y1118D02*
X1694Y1118D01*
X1728Y1118D02*
X1748Y1118D01*
X1774Y1118D02*
X1794Y1118D01*
X1828Y1118D02*
X1848Y1118D01*
X1874Y1118D02*
X1894Y1118D01*
X628Y1117D02*
X647Y1117D01*
X674Y1117D02*
X694Y1117D01*
X728Y1117D02*
X747Y1117D01*
X774Y1117D02*
X794Y1117D01*
X828Y1117D02*
X847Y1117D01*
X874Y1117D02*
X894Y1117D01*
X928Y1117D02*
X947Y1117D01*
X974Y1117D02*
X994Y1117D01*
X1028Y1117D02*
X1047Y1117D01*
X1074Y1117D02*
X1094Y1117D01*
X1127Y1117D02*
X1147Y1117D01*
X1174Y1117D02*
X1194Y1117D01*
X1227Y1117D02*
X1247Y1117D01*
X1274Y1117D02*
X1294Y1117D01*
X1327Y1117D02*
X1347Y1117D01*
X1374Y1117D02*
X1394Y1117D01*
X1427Y1117D02*
X1447Y1117D01*
X1474Y1117D02*
X1494Y1117D01*
X1527Y1117D02*
X1547Y1117D01*
X1574Y1117D02*
X1594Y1117D01*
X1627Y1117D02*
X1647Y1117D01*
X1674Y1117D02*
X1694Y1117D01*
X1727Y1117D02*
X1747Y1117D01*
X1774Y1117D02*
X1794Y1117D01*
X1827Y1117D02*
X1847Y1117D01*
X1874Y1117D02*
X1894Y1117D01*
X627Y1116D02*
X647Y1116D01*
X675Y1116D02*
X694Y1116D01*
X727Y1116D02*
X747Y1116D01*
X775Y1116D02*
X794Y1116D01*
X827Y1116D02*
X847Y1116D01*
X875Y1116D02*
X894Y1116D01*
X927Y1116D02*
X947Y1116D01*
X975Y1116D02*
X994Y1116D01*
X1027Y1116D02*
X1047Y1116D01*
X1075Y1116D02*
X1094Y1116D01*
X1127Y1116D02*
X1147Y1116D01*
X1175Y1116D02*
X1194Y1116D01*
X1227Y1116D02*
X1247Y1116D01*
X1275Y1116D02*
X1294Y1116D01*
X1327Y1116D02*
X1347Y1116D01*
X1375Y1116D02*
X1394Y1116D01*
X1427Y1116D02*
X1447Y1116D01*
X1475Y1116D02*
X1494Y1116D01*
X1527Y1116D02*
X1547Y1116D01*
X1575Y1116D02*
X1594Y1116D01*
X1627Y1116D02*
X1647Y1116D01*
X1675Y1116D02*
X1694Y1116D01*
X1727Y1116D02*
X1747Y1116D01*
X1775Y1116D02*
X1794Y1116D01*
X1827Y1116D02*
X1847Y1116D01*
X1875Y1116D02*
X1894Y1116D01*
X627Y1115D02*
X646Y1115D01*
X675Y1115D02*
X695Y1115D01*
X727Y1115D02*
X746Y1115D01*
X775Y1115D02*
X795Y1115D01*
X827Y1115D02*
X846Y1115D01*
X875Y1115D02*
X895Y1115D01*
X927Y1115D02*
X946Y1115D01*
X975Y1115D02*
X995Y1115D01*
X1027Y1115D02*
X1046Y1115D01*
X1075Y1115D02*
X1095Y1115D01*
X1127Y1115D02*
X1146Y1115D01*
X1175Y1115D02*
X1194Y1115D01*
X1227Y1115D02*
X1246Y1115D01*
X1275Y1115D02*
X1294Y1115D01*
X1327Y1115D02*
X1346Y1115D01*
X1375Y1115D02*
X1394Y1115D01*
X1427Y1115D02*
X1446Y1115D01*
X1475Y1115D02*
X1494Y1115D01*
X1527Y1115D02*
X1546Y1115D01*
X1575Y1115D02*
X1594Y1115D01*
X1627Y1115D02*
X1646Y1115D01*
X1675Y1115D02*
X1694Y1115D01*
X1727Y1115D02*
X1746Y1115D01*
X1775Y1115D02*
X1794Y1115D01*
X1827Y1115D02*
X1846Y1115D01*
X1875Y1115D02*
X1894Y1115D01*
X627Y1114D02*
X646Y1114D01*
X676Y1114D02*
X695Y1114D01*
X727Y1114D02*
X746Y1114D01*
X776Y1114D02*
X795Y1114D01*
X827Y1114D02*
X846Y1114D01*
X876Y1114D02*
X895Y1114D01*
X927Y1114D02*
X946Y1114D01*
X976Y1114D02*
X995Y1114D01*
X1027Y1114D02*
X1046Y1114D01*
X1076Y1114D02*
X1095Y1114D01*
X1127Y1114D02*
X1146Y1114D01*
X1176Y1114D02*
X1195Y1114D01*
X1227Y1114D02*
X1246Y1114D01*
X1276Y1114D02*
X1295Y1114D01*
X1327Y1114D02*
X1346Y1114D01*
X1376Y1114D02*
X1395Y1114D01*
X1427Y1114D02*
X1446Y1114D01*
X1475Y1114D02*
X1495Y1114D01*
X1527Y1114D02*
X1546Y1114D01*
X1575Y1114D02*
X1595Y1114D01*
X1627Y1114D02*
X1646Y1114D01*
X1675Y1114D02*
X1695Y1114D01*
X1727Y1114D02*
X1746Y1114D01*
X1775Y1114D02*
X1795Y1114D01*
X1827Y1114D02*
X1846Y1114D01*
X1875Y1114D02*
X1895Y1114D01*
X627Y1113D02*
X646Y1113D01*
X676Y1113D02*
X695Y1113D01*
X727Y1113D02*
X746Y1113D01*
X776Y1113D02*
X795Y1113D01*
X827Y1113D02*
X846Y1113D01*
X876Y1113D02*
X895Y1113D01*
X927Y1113D02*
X946Y1113D01*
X976Y1113D02*
X995Y1113D01*
X1027Y1113D02*
X1046Y1113D01*
X1076Y1113D02*
X1095Y1113D01*
X1127Y1113D02*
X1146Y1113D01*
X1176Y1113D02*
X1195Y1113D01*
X1227Y1113D02*
X1246Y1113D01*
X1276Y1113D02*
X1295Y1113D01*
X1327Y1113D02*
X1346Y1113D01*
X1376Y1113D02*
X1395Y1113D01*
X1427Y1113D02*
X1446Y1113D01*
X1476Y1113D02*
X1495Y1113D01*
X1527Y1113D02*
X1546Y1113D01*
X1576Y1113D02*
X1595Y1113D01*
X1627Y1113D02*
X1646Y1113D01*
X1676Y1113D02*
X1695Y1113D01*
X1727Y1113D02*
X1746Y1113D01*
X1776Y1113D02*
X1795Y1113D01*
X1827Y1113D02*
X1846Y1113D01*
X1876Y1113D02*
X1895Y1113D01*
X627Y1112D02*
X646Y1112D01*
X676Y1112D02*
X695Y1112D01*
X727Y1112D02*
X746Y1112D01*
X776Y1112D02*
X795Y1112D01*
X826Y1112D02*
X846Y1112D01*
X876Y1112D02*
X895Y1112D01*
X926Y1112D02*
X946Y1112D01*
X976Y1112D02*
X995Y1112D01*
X1026Y1112D02*
X1046Y1112D01*
X1076Y1112D02*
X1095Y1112D01*
X1126Y1112D02*
X1146Y1112D01*
X1176Y1112D02*
X1195Y1112D01*
X1226Y1112D02*
X1245Y1112D01*
X1276Y1112D02*
X1295Y1112D01*
X1326Y1112D02*
X1345Y1112D01*
X1376Y1112D02*
X1395Y1112D01*
X1426Y1112D02*
X1445Y1112D01*
X1476Y1112D02*
X1495Y1112D01*
X1526Y1112D02*
X1545Y1112D01*
X1576Y1112D02*
X1595Y1112D01*
X1626Y1112D02*
X1645Y1112D01*
X1676Y1112D02*
X1695Y1112D01*
X1726Y1112D02*
X1745Y1112D01*
X1776Y1112D02*
X1795Y1112D01*
X1826Y1112D02*
X1845Y1112D01*
X1876Y1112D02*
X1895Y1112D01*
X626Y1111D02*
X645Y1111D01*
X676Y1111D02*
X695Y1111D01*
X726Y1111D02*
X745Y1111D01*
X776Y1111D02*
X795Y1111D01*
X826Y1111D02*
X845Y1111D01*
X876Y1111D02*
X895Y1111D01*
X926Y1111D02*
X945Y1111D01*
X976Y1111D02*
X995Y1111D01*
X1026Y1111D02*
X1045Y1111D01*
X1076Y1111D02*
X1095Y1111D01*
X1126Y1111D02*
X1145Y1111D01*
X1176Y1111D02*
X1195Y1111D01*
X1226Y1111D02*
X1245Y1111D01*
X1276Y1111D02*
X1295Y1111D01*
X1326Y1111D02*
X1345Y1111D01*
X1376Y1111D02*
X1395Y1111D01*
X1426Y1111D02*
X1445Y1111D01*
X1476Y1111D02*
X1495Y1111D01*
X1526Y1111D02*
X1545Y1111D01*
X1576Y1111D02*
X1595Y1111D01*
X1626Y1111D02*
X1645Y1111D01*
X1676Y1111D02*
X1695Y1111D01*
X1726Y1111D02*
X1745Y1111D01*
X1776Y1111D02*
X1795Y1111D01*
X1826Y1111D02*
X1845Y1111D01*
X1876Y1111D02*
X1895Y1111D01*
X626Y1110D02*
X645Y1110D01*
X676Y1110D02*
X695Y1110D01*
X726Y1110D02*
X745Y1110D01*
X776Y1110D02*
X795Y1110D01*
X826Y1110D02*
X845Y1110D01*
X876Y1110D02*
X895Y1110D01*
X926Y1110D02*
X945Y1110D01*
X976Y1110D02*
X995Y1110D01*
X1026Y1110D02*
X1045Y1110D01*
X1076Y1110D02*
X1095Y1110D01*
X1126Y1110D02*
X1145Y1110D01*
X1176Y1110D02*
X1195Y1110D01*
X1226Y1110D02*
X1245Y1110D01*
X1276Y1110D02*
X1295Y1110D01*
X1326Y1110D02*
X1345Y1110D01*
X1376Y1110D02*
X1395Y1110D01*
X1426Y1110D02*
X1445Y1110D01*
X1476Y1110D02*
X1495Y1110D01*
X1526Y1110D02*
X1545Y1110D01*
X1576Y1110D02*
X1595Y1110D01*
X1626Y1110D02*
X1645Y1110D01*
X1676Y1110D02*
X1695Y1110D01*
X1726Y1110D02*
X1745Y1110D01*
X1776Y1110D02*
X1795Y1110D01*
X1826Y1110D02*
X1845Y1110D01*
X1876Y1110D02*
X1895Y1110D01*
X626Y1109D02*
X645Y1109D01*
X676Y1109D02*
X695Y1109D01*
X726Y1109D02*
X745Y1109D01*
X776Y1109D02*
X795Y1109D01*
X826Y1109D02*
X845Y1109D01*
X876Y1109D02*
X895Y1109D01*
X926Y1109D02*
X945Y1109D01*
X976Y1109D02*
X995Y1109D01*
X1026Y1109D02*
X1045Y1109D01*
X1076Y1109D02*
X1095Y1109D01*
X1126Y1109D02*
X1145Y1109D01*
X1176Y1109D02*
X1195Y1109D01*
X1226Y1109D02*
X1245Y1109D01*
X1276Y1109D02*
X1295Y1109D01*
X1326Y1109D02*
X1345Y1109D01*
X1376Y1109D02*
X1395Y1109D01*
X1426Y1109D02*
X1445Y1109D01*
X1476Y1109D02*
X1495Y1109D01*
X1526Y1109D02*
X1545Y1109D01*
X1576Y1109D02*
X1595Y1109D01*
X1626Y1109D02*
X1645Y1109D01*
X1676Y1109D02*
X1695Y1109D01*
X1726Y1109D02*
X1745Y1109D01*
X1776Y1109D02*
X1795Y1109D01*
X1826Y1109D02*
X1845Y1109D01*
X1876Y1109D02*
X1895Y1109D01*
X626Y1108D02*
X645Y1108D01*
X676Y1108D02*
X695Y1108D01*
X726Y1108D02*
X745Y1108D01*
X776Y1108D02*
X795Y1108D01*
X826Y1108D02*
X845Y1108D01*
X876Y1108D02*
X895Y1108D01*
X926Y1108D02*
X945Y1108D01*
X976Y1108D02*
X995Y1108D01*
X1026Y1108D02*
X1045Y1108D01*
X1076Y1108D02*
X1095Y1108D01*
X1126Y1108D02*
X1145Y1108D01*
X1176Y1108D02*
X1195Y1108D01*
X1226Y1108D02*
X1245Y1108D01*
X1276Y1108D02*
X1295Y1108D01*
X1326Y1108D02*
X1345Y1108D01*
X1376Y1108D02*
X1395Y1108D01*
X1426Y1108D02*
X1445Y1108D01*
X1476Y1108D02*
X1495Y1108D01*
X1526Y1108D02*
X1545Y1108D01*
X1576Y1108D02*
X1595Y1108D01*
X1626Y1108D02*
X1645Y1108D01*
X1676Y1108D02*
X1695Y1108D01*
X1726Y1108D02*
X1745Y1108D01*
X1776Y1108D02*
X1795Y1108D01*
X1826Y1108D02*
X1845Y1108D01*
X1876Y1108D02*
X1895Y1108D01*
X626Y1107D02*
X645Y1107D01*
X676Y1107D02*
X695Y1107D01*
X726Y1107D02*
X745Y1107D01*
X776Y1107D02*
X795Y1107D01*
X826Y1107D02*
X845Y1107D01*
X876Y1107D02*
X895Y1107D01*
X926Y1107D02*
X945Y1107D01*
X976Y1107D02*
X995Y1107D01*
X1026Y1107D02*
X1045Y1107D01*
X1076Y1107D02*
X1095Y1107D01*
X1126Y1107D02*
X1145Y1107D01*
X1176Y1107D02*
X1195Y1107D01*
X1226Y1107D02*
X1245Y1107D01*
X1276Y1107D02*
X1295Y1107D01*
X1326Y1107D02*
X1345Y1107D01*
X1376Y1107D02*
X1395Y1107D01*
X1426Y1107D02*
X1445Y1107D01*
X1476Y1107D02*
X1495Y1107D01*
X1526Y1107D02*
X1545Y1107D01*
X1576Y1107D02*
X1595Y1107D01*
X1626Y1107D02*
X1645Y1107D01*
X1676Y1107D02*
X1695Y1107D01*
X1726Y1107D02*
X1745Y1107D01*
X1776Y1107D02*
X1795Y1107D01*
X1826Y1107D02*
X1845Y1107D01*
X1876Y1107D02*
X1895Y1107D01*
X626Y1106D02*
X645Y1106D01*
X676Y1106D02*
X695Y1106D01*
X726Y1106D02*
X745Y1106D01*
X776Y1106D02*
X795Y1106D01*
X826Y1106D02*
X845Y1106D01*
X876Y1106D02*
X895Y1106D01*
X926Y1106D02*
X945Y1106D01*
X976Y1106D02*
X995Y1106D01*
X1026Y1106D02*
X1045Y1106D01*
X1076Y1106D02*
X1095Y1106D01*
X1126Y1106D02*
X1145Y1106D01*
X1176Y1106D02*
X1195Y1106D01*
X1226Y1106D02*
X1245Y1106D01*
X1276Y1106D02*
X1295Y1106D01*
X1326Y1106D02*
X1345Y1106D01*
X1376Y1106D02*
X1395Y1106D01*
X1426Y1106D02*
X1445Y1106D01*
X1476Y1106D02*
X1495Y1106D01*
X1526Y1106D02*
X1545Y1106D01*
X1576Y1106D02*
X1595Y1106D01*
X1626Y1106D02*
X1645Y1106D01*
X1676Y1106D02*
X1695Y1106D01*
X1726Y1106D02*
X1745Y1106D01*
X1776Y1106D02*
X1795Y1106D01*
X1826Y1106D02*
X1845Y1106D01*
X1876Y1106D02*
X1895Y1106D01*
X627Y1105D02*
X646Y1105D01*
X676Y1105D02*
X695Y1105D01*
X727Y1105D02*
X746Y1105D01*
X776Y1105D02*
X795Y1105D01*
X826Y1105D02*
X846Y1105D01*
X876Y1105D02*
X895Y1105D01*
X926Y1105D02*
X946Y1105D01*
X976Y1105D02*
X995Y1105D01*
X1026Y1105D02*
X1046Y1105D01*
X1076Y1105D02*
X1095Y1105D01*
X1126Y1105D02*
X1146Y1105D01*
X1176Y1105D02*
X1195Y1105D01*
X1226Y1105D02*
X1245Y1105D01*
X1276Y1105D02*
X1295Y1105D01*
X1326Y1105D02*
X1345Y1105D01*
X1376Y1105D02*
X1395Y1105D01*
X1426Y1105D02*
X1445Y1105D01*
X1476Y1105D02*
X1495Y1105D01*
X1526Y1105D02*
X1545Y1105D01*
X1576Y1105D02*
X1595Y1105D01*
X1626Y1105D02*
X1645Y1105D01*
X1676Y1105D02*
X1695Y1105D01*
X1726Y1105D02*
X1745Y1105D01*
X1776Y1105D02*
X1795Y1105D01*
X1826Y1105D02*
X1845Y1105D01*
X1876Y1105D02*
X1895Y1105D01*
X627Y1104D02*
X646Y1104D01*
X676Y1104D02*
X695Y1104D01*
X727Y1104D02*
X746Y1104D01*
X776Y1104D02*
X795Y1104D01*
X827Y1104D02*
X846Y1104D01*
X876Y1104D02*
X895Y1104D01*
X927Y1104D02*
X946Y1104D01*
X976Y1104D02*
X995Y1104D01*
X1027Y1104D02*
X1046Y1104D01*
X1076Y1104D02*
X1095Y1104D01*
X1127Y1104D02*
X1146Y1104D01*
X1176Y1104D02*
X1195Y1104D01*
X1227Y1104D02*
X1246Y1104D01*
X1276Y1104D02*
X1295Y1104D01*
X1327Y1104D02*
X1346Y1104D01*
X1376Y1104D02*
X1395Y1104D01*
X1427Y1104D02*
X1446Y1104D01*
X1476Y1104D02*
X1495Y1104D01*
X1527Y1104D02*
X1546Y1104D01*
X1576Y1104D02*
X1595Y1104D01*
X1627Y1104D02*
X1646Y1104D01*
X1676Y1104D02*
X1695Y1104D01*
X1727Y1104D02*
X1746Y1104D01*
X1776Y1104D02*
X1795Y1104D01*
X1827Y1104D02*
X1846Y1104D01*
X1876Y1104D02*
X1895Y1104D01*
X627Y1103D02*
X646Y1103D01*
X676Y1103D02*
X695Y1103D01*
X727Y1103D02*
X746Y1103D01*
X776Y1103D02*
X795Y1103D01*
X827Y1103D02*
X846Y1103D01*
X876Y1103D02*
X895Y1103D01*
X927Y1103D02*
X946Y1103D01*
X976Y1103D02*
X995Y1103D01*
X1027Y1103D02*
X1046Y1103D01*
X1076Y1103D02*
X1095Y1103D01*
X1127Y1103D02*
X1146Y1103D01*
X1176Y1103D02*
X1195Y1103D01*
X1227Y1103D02*
X1246Y1103D01*
X1276Y1103D02*
X1295Y1103D01*
X1327Y1103D02*
X1346Y1103D01*
X1376Y1103D02*
X1395Y1103D01*
X1427Y1103D02*
X1446Y1103D01*
X1475Y1103D02*
X1495Y1103D01*
X1527Y1103D02*
X1546Y1103D01*
X1575Y1103D02*
X1595Y1103D01*
X1627Y1103D02*
X1646Y1103D01*
X1675Y1103D02*
X1695Y1103D01*
X1727Y1103D02*
X1746Y1103D01*
X1775Y1103D02*
X1795Y1103D01*
X1827Y1103D02*
X1846Y1103D01*
X1875Y1103D02*
X1895Y1103D01*
X627Y1102D02*
X646Y1102D01*
X675Y1102D02*
X695Y1102D01*
X727Y1102D02*
X746Y1102D01*
X775Y1102D02*
X795Y1102D01*
X827Y1102D02*
X846Y1102D01*
X875Y1102D02*
X895Y1102D01*
X927Y1102D02*
X946Y1102D01*
X975Y1102D02*
X995Y1102D01*
X1027Y1102D02*
X1046Y1102D01*
X1075Y1102D02*
X1095Y1102D01*
X1127Y1102D02*
X1146Y1102D01*
X1175Y1102D02*
X1194Y1102D01*
X1227Y1102D02*
X1246Y1102D01*
X1275Y1102D02*
X1294Y1102D01*
X1327Y1102D02*
X1346Y1102D01*
X1375Y1102D02*
X1394Y1102D01*
X1427Y1102D02*
X1446Y1102D01*
X1475Y1102D02*
X1494Y1102D01*
X1527Y1102D02*
X1546Y1102D01*
X1575Y1102D02*
X1594Y1102D01*
X1627Y1102D02*
X1646Y1102D01*
X1675Y1102D02*
X1694Y1102D01*
X1727Y1102D02*
X1746Y1102D01*
X1775Y1102D02*
X1794Y1102D01*
X1827Y1102D02*
X1846Y1102D01*
X1875Y1102D02*
X1894Y1102D01*
X627Y1101D02*
X647Y1101D01*
X675Y1101D02*
X694Y1101D01*
X727Y1101D02*
X747Y1101D01*
X775Y1101D02*
X794Y1101D01*
X827Y1101D02*
X847Y1101D01*
X875Y1101D02*
X894Y1101D01*
X927Y1101D02*
X947Y1101D01*
X975Y1101D02*
X994Y1101D01*
X1027Y1101D02*
X1047Y1101D01*
X1075Y1101D02*
X1094Y1101D01*
X1127Y1101D02*
X1147Y1101D01*
X1175Y1101D02*
X1194Y1101D01*
X1227Y1101D02*
X1247Y1101D01*
X1275Y1101D02*
X1294Y1101D01*
X1327Y1101D02*
X1347Y1101D01*
X1375Y1101D02*
X1394Y1101D01*
X1427Y1101D02*
X1447Y1101D01*
X1475Y1101D02*
X1494Y1101D01*
X1527Y1101D02*
X1547Y1101D01*
X1575Y1101D02*
X1594Y1101D01*
X1627Y1101D02*
X1647Y1101D01*
X1675Y1101D02*
X1694Y1101D01*
X1727Y1101D02*
X1747Y1101D01*
X1775Y1101D02*
X1794Y1101D01*
X1827Y1101D02*
X1847Y1101D01*
X1875Y1101D02*
X1894Y1101D01*
X628Y1100D02*
X647Y1100D01*
X674Y1100D02*
X694Y1100D01*
X728Y1100D02*
X747Y1100D01*
X774Y1100D02*
X794Y1100D01*
X828Y1100D02*
X847Y1100D01*
X874Y1100D02*
X894Y1100D01*
X928Y1100D02*
X947Y1100D01*
X974Y1100D02*
X994Y1100D01*
X1028Y1100D02*
X1047Y1100D01*
X1074Y1100D02*
X1094Y1100D01*
X1127Y1100D02*
X1147Y1100D01*
X1174Y1100D02*
X1194Y1100D01*
X1227Y1100D02*
X1247Y1100D01*
X1274Y1100D02*
X1294Y1100D01*
X1327Y1100D02*
X1347Y1100D01*
X1374Y1100D02*
X1394Y1100D01*
X1427Y1100D02*
X1447Y1100D01*
X1474Y1100D02*
X1494Y1100D01*
X1527Y1100D02*
X1547Y1100D01*
X1574Y1100D02*
X1594Y1100D01*
X1627Y1100D02*
X1647Y1100D01*
X1674Y1100D02*
X1694Y1100D01*
X1727Y1100D02*
X1747Y1100D01*
X1774Y1100D02*
X1794Y1100D01*
X1827Y1100D02*
X1847Y1100D01*
X1874Y1100D02*
X1894Y1100D01*
X628Y1099D02*
X648Y1099D01*
X674Y1099D02*
X694Y1099D01*
X728Y1099D02*
X748Y1099D01*
X774Y1099D02*
X794Y1099D01*
X828Y1099D02*
X848Y1099D01*
X874Y1099D02*
X894Y1099D01*
X928Y1099D02*
X948Y1099D01*
X974Y1099D02*
X994Y1099D01*
X1028Y1099D02*
X1048Y1099D01*
X1074Y1099D02*
X1094Y1099D01*
X1128Y1099D02*
X1148Y1099D01*
X1174Y1099D02*
X1194Y1099D01*
X1228Y1099D02*
X1248Y1099D01*
X1274Y1099D02*
X1294Y1099D01*
X1328Y1099D02*
X1348Y1099D01*
X1374Y1099D02*
X1394Y1099D01*
X1428Y1099D02*
X1448Y1099D01*
X1474Y1099D02*
X1494Y1099D01*
X1528Y1099D02*
X1548Y1099D01*
X1574Y1099D02*
X1594Y1099D01*
X1628Y1099D02*
X1648Y1099D01*
X1674Y1099D02*
X1694Y1099D01*
X1728Y1099D02*
X1748Y1099D01*
X1774Y1099D02*
X1794Y1099D01*
X1828Y1099D02*
X1848Y1099D01*
X1874Y1099D02*
X1894Y1099D01*
X628Y1098D02*
X649Y1098D01*
X673Y1098D02*
X693Y1098D01*
X728Y1098D02*
X749Y1098D01*
X773Y1098D02*
X793Y1098D01*
X828Y1098D02*
X849Y1098D01*
X873Y1098D02*
X893Y1098D01*
X928Y1098D02*
X949Y1098D01*
X973Y1098D02*
X993Y1098D01*
X1028Y1098D02*
X1049Y1098D01*
X1073Y1098D02*
X1093Y1098D01*
X1128Y1098D02*
X1149Y1098D01*
X1173Y1098D02*
X1193Y1098D01*
X1228Y1098D02*
X1249Y1098D01*
X1273Y1098D02*
X1293Y1098D01*
X1328Y1098D02*
X1349Y1098D01*
X1373Y1098D02*
X1393Y1098D01*
X1428Y1098D02*
X1449Y1098D01*
X1473Y1098D02*
X1493Y1098D01*
X1528Y1098D02*
X1549Y1098D01*
X1573Y1098D02*
X1593Y1098D01*
X1628Y1098D02*
X1648Y1098D01*
X1673Y1098D02*
X1693Y1098D01*
X1728Y1098D02*
X1748Y1098D01*
X1773Y1098D02*
X1793Y1098D01*
X1828Y1098D02*
X1848Y1098D01*
X1873Y1098D02*
X1893Y1098D01*
X629Y1097D02*
X650Y1097D01*
X672Y1097D02*
X693Y1097D01*
X729Y1097D02*
X750Y1097D01*
X772Y1097D02*
X793Y1097D01*
X829Y1097D02*
X850Y1097D01*
X872Y1097D02*
X893Y1097D01*
X929Y1097D02*
X950Y1097D01*
X972Y1097D02*
X993Y1097D01*
X1029Y1097D02*
X1050Y1097D01*
X1072Y1097D02*
X1093Y1097D01*
X1129Y1097D02*
X1150Y1097D01*
X1172Y1097D02*
X1193Y1097D01*
X1229Y1097D02*
X1250Y1097D01*
X1272Y1097D02*
X1293Y1097D01*
X1329Y1097D02*
X1350Y1097D01*
X1372Y1097D02*
X1393Y1097D01*
X1428Y1097D02*
X1449Y1097D01*
X1472Y1097D02*
X1493Y1097D01*
X1528Y1097D02*
X1549Y1097D01*
X1572Y1097D02*
X1593Y1097D01*
X1628Y1097D02*
X1649Y1097D01*
X1672Y1097D02*
X1693Y1097D01*
X1728Y1097D02*
X1749Y1097D01*
X1772Y1097D02*
X1793Y1097D01*
X1828Y1097D02*
X1849Y1097D01*
X1872Y1097D02*
X1893Y1097D01*
X629Y1096D02*
X651Y1096D01*
X671Y1096D02*
X693Y1096D01*
X729Y1096D02*
X751Y1096D01*
X771Y1096D02*
X793Y1096D01*
X829Y1096D02*
X851Y1096D01*
X871Y1096D02*
X893Y1096D01*
X929Y1096D02*
X951Y1096D01*
X971Y1096D02*
X993Y1096D01*
X1029Y1096D02*
X1051Y1096D01*
X1071Y1096D02*
X1093Y1096D01*
X1129Y1096D02*
X1151Y1096D01*
X1171Y1096D02*
X1193Y1096D01*
X1229Y1096D02*
X1251Y1096D01*
X1271Y1096D02*
X1293Y1096D01*
X1329Y1096D02*
X1351Y1096D01*
X1371Y1096D02*
X1392Y1096D01*
X1429Y1096D02*
X1451Y1096D01*
X1471Y1096D02*
X1492Y1096D01*
X1529Y1096D02*
X1551Y1096D01*
X1571Y1096D02*
X1592Y1096D01*
X1629Y1096D02*
X1651Y1096D01*
X1671Y1096D02*
X1692Y1096D01*
X1729Y1096D02*
X1751Y1096D01*
X1771Y1096D02*
X1792Y1096D01*
X1829Y1096D02*
X1851Y1096D01*
X1871Y1096D02*
X1892Y1096D01*
X629Y1095D02*
X653Y1095D01*
X669Y1095D02*
X692Y1095D01*
X729Y1095D02*
X753Y1095D01*
X769Y1095D02*
X792Y1095D01*
X829Y1095D02*
X853Y1095D01*
X869Y1095D02*
X892Y1095D01*
X929Y1095D02*
X953Y1095D01*
X969Y1095D02*
X992Y1095D01*
X1029Y1095D02*
X1053Y1095D01*
X1069Y1095D02*
X1092Y1095D01*
X1129Y1095D02*
X1153Y1095D01*
X1169Y1095D02*
X1192Y1095D01*
X1229Y1095D02*
X1253Y1095D01*
X1269Y1095D02*
X1292Y1095D01*
X1329Y1095D02*
X1353Y1095D01*
X1369Y1095D02*
X1392Y1095D01*
X1429Y1095D02*
X1453Y1095D01*
X1469Y1095D02*
X1492Y1095D01*
X1529Y1095D02*
X1553Y1095D01*
X1569Y1095D02*
X1592Y1095D01*
X1629Y1095D02*
X1653Y1095D01*
X1669Y1095D02*
X1692Y1095D01*
X1729Y1095D02*
X1753Y1095D01*
X1769Y1095D02*
X1792Y1095D01*
X1829Y1095D02*
X1852Y1095D01*
X1869Y1095D02*
X1892Y1095D01*
X630Y1094D02*
X656Y1094D01*
X666Y1094D02*
X692Y1094D01*
X730Y1094D02*
X756Y1094D01*
X766Y1094D02*
X792Y1094D01*
X830Y1094D02*
X856Y1094D01*
X866Y1094D02*
X892Y1094D01*
X930Y1094D02*
X956Y1094D01*
X966Y1094D02*
X992Y1094D01*
X1030Y1094D02*
X1056Y1094D01*
X1066Y1094D02*
X1092Y1094D01*
X1130Y1094D02*
X1156Y1094D01*
X1166Y1094D02*
X1192Y1094D01*
X1230Y1094D02*
X1256Y1094D01*
X1266Y1094D02*
X1292Y1094D01*
X1330Y1094D02*
X1356Y1094D01*
X1366Y1094D02*
X1392Y1094D01*
X1430Y1094D02*
X1456Y1094D01*
X1466Y1094D02*
X1492Y1094D01*
X1530Y1094D02*
X1556Y1094D01*
X1566Y1094D02*
X1592Y1094D01*
X1630Y1094D02*
X1656Y1094D01*
X1666Y1094D02*
X1692Y1094D01*
X1730Y1094D02*
X1756Y1094D01*
X1766Y1094D02*
X1791Y1094D01*
X1830Y1094D02*
X1855Y1094D01*
X1866Y1094D02*
X1891Y1094D01*
X630Y1093D02*
X691Y1093D01*
X730Y1093D02*
X791Y1093D01*
X830Y1093D02*
X891Y1093D01*
X930Y1093D02*
X991Y1093D01*
X1030Y1093D02*
X1091Y1093D01*
X1130Y1093D02*
X1191Y1093D01*
X1230Y1093D02*
X1291Y1093D01*
X1330Y1093D02*
X1391Y1093D01*
X1430Y1093D02*
X1491Y1093D01*
X1530Y1093D02*
X1591Y1093D01*
X1630Y1093D02*
X1691Y1093D01*
X1730Y1093D02*
X1791Y1093D01*
X1830Y1093D02*
X1891Y1093D01*
X631Y1092D02*
X691Y1092D01*
X731Y1092D02*
X791Y1092D01*
X831Y1092D02*
X891Y1092D01*
X931Y1092D02*
X990Y1092D01*
X1031Y1092D02*
X1090Y1092D01*
X1131Y1092D02*
X1190Y1092D01*
X1231Y1092D02*
X1290Y1092D01*
X1331Y1092D02*
X1390Y1092D01*
X1431Y1092D02*
X1490Y1092D01*
X1531Y1092D02*
X1590Y1092D01*
X1631Y1092D02*
X1690Y1092D01*
X1731Y1092D02*
X1790Y1092D01*
X1831Y1092D02*
X1890Y1092D01*
X632Y1091D02*
X690Y1091D01*
X732Y1091D02*
X790Y1091D01*
X832Y1091D02*
X890Y1091D01*
X932Y1091D02*
X990Y1091D01*
X1032Y1091D02*
X1090Y1091D01*
X1132Y1091D02*
X1190Y1091D01*
X1232Y1091D02*
X1290Y1091D01*
X1332Y1091D02*
X1390Y1091D01*
X1432Y1091D02*
X1490Y1091D01*
X1532Y1091D02*
X1590Y1091D01*
X1632Y1091D02*
X1690Y1091D01*
X1732Y1091D02*
X1790Y1091D01*
X1832Y1091D02*
X1890Y1091D01*
X632Y1090D02*
X689Y1090D01*
X732Y1090D02*
X789Y1090D01*
X832Y1090D02*
X889Y1090D01*
X932Y1090D02*
X989Y1090D01*
X1032Y1090D02*
X1089Y1090D01*
X1132Y1090D02*
X1189Y1090D01*
X1232Y1090D02*
X1289Y1090D01*
X1332Y1090D02*
X1389Y1090D01*
X1432Y1090D02*
X1489Y1090D01*
X1532Y1090D02*
X1589Y1090D01*
X1632Y1090D02*
X1689Y1090D01*
X1732Y1090D02*
X1789Y1090D01*
X1832Y1090D02*
X1889Y1090D01*
X633Y1089D02*
X689Y1089D01*
X733Y1089D02*
X789Y1089D01*
X833Y1089D02*
X889Y1089D01*
X933Y1089D02*
X989Y1089D01*
X1033Y1089D02*
X1089Y1089D01*
X1133Y1089D02*
X1188Y1089D01*
X1233Y1089D02*
X1288Y1089D01*
X1333Y1089D02*
X1388Y1089D01*
X1433Y1089D02*
X1488Y1089D01*
X1533Y1089D02*
X1588Y1089D01*
X1633Y1089D02*
X1688Y1089D01*
X1733Y1089D02*
X1788Y1089D01*
X1833Y1089D02*
X1888Y1089D01*
X634Y1088D02*
X688Y1088D01*
X734Y1088D02*
X788Y1088D01*
X834Y1088D02*
X888Y1088D01*
X934Y1088D02*
X988Y1088D01*
X1034Y1088D02*
X1088Y1088D01*
X1134Y1088D02*
X1188Y1088D01*
X1234Y1088D02*
X1288Y1088D01*
X1334Y1088D02*
X1388Y1088D01*
X1434Y1088D02*
X1488Y1088D01*
X1534Y1088D02*
X1588Y1088D01*
X1634Y1088D02*
X1688Y1088D01*
X1734Y1088D02*
X1788Y1088D01*
X1834Y1088D02*
X1888Y1088D01*
X635Y1087D02*
X687Y1087D01*
X735Y1087D02*
X787Y1087D01*
X835Y1087D02*
X887Y1087D01*
X935Y1087D02*
X987Y1087D01*
X1035Y1087D02*
X1087Y1087D01*
X1135Y1087D02*
X1187Y1087D01*
X1235Y1087D02*
X1287Y1087D01*
X1334Y1087D02*
X1387Y1087D01*
X1434Y1087D02*
X1487Y1087D01*
X1534Y1087D02*
X1587Y1087D01*
X1634Y1087D02*
X1687Y1087D01*
X1734Y1087D02*
X1787Y1087D01*
X1834Y1087D02*
X1887Y1087D01*
X635Y1086D02*
X686Y1086D01*
X735Y1086D02*
X786Y1086D01*
X835Y1086D02*
X886Y1086D01*
X935Y1086D02*
X986Y1086D01*
X1035Y1086D02*
X1086Y1086D01*
X1135Y1086D02*
X1186Y1086D01*
X1235Y1086D02*
X1286Y1086D01*
X1335Y1086D02*
X1386Y1086D01*
X1435Y1086D02*
X1486Y1086D01*
X1535Y1086D02*
X1586Y1086D01*
X1635Y1086D02*
X1686Y1086D01*
X1735Y1086D02*
X1786Y1086D01*
X1835Y1086D02*
X1886Y1086D01*
X636Y1085D02*
X685Y1085D01*
X736Y1085D02*
X785Y1085D01*
X836Y1085D02*
X885Y1085D01*
X936Y1085D02*
X985Y1085D01*
X1036Y1085D02*
X1085Y1085D01*
X1136Y1085D02*
X1185Y1085D01*
X1236Y1085D02*
X1285Y1085D01*
X1336Y1085D02*
X1385Y1085D01*
X1436Y1085D02*
X1485Y1085D01*
X1536Y1085D02*
X1585Y1085D01*
X1636Y1085D02*
X1685Y1085D01*
X1736Y1085D02*
X1785Y1085D01*
X1836Y1085D02*
X1885Y1085D01*
X637Y1084D02*
X684Y1084D01*
X737Y1084D02*
X784Y1084D01*
X837Y1084D02*
X884Y1084D01*
X937Y1084D02*
X984Y1084D01*
X1037Y1084D02*
X1084Y1084D01*
X1137Y1084D02*
X1184Y1084D01*
X1237Y1084D02*
X1284Y1084D01*
X1337Y1084D02*
X1384Y1084D01*
X1437Y1084D02*
X1484Y1084D01*
X1537Y1084D02*
X1584Y1084D01*
X1637Y1084D02*
X1684Y1084D01*
X1737Y1084D02*
X1784Y1084D01*
X1837Y1084D02*
X1884Y1084D01*
X638Y1083D02*
X683Y1083D01*
X738Y1083D02*
X783Y1083D01*
X838Y1083D02*
X883Y1083D01*
X938Y1083D02*
X983Y1083D01*
X1038Y1083D02*
X1083Y1083D01*
X1138Y1083D02*
X1183Y1083D01*
X1238Y1083D02*
X1283Y1083D01*
X1338Y1083D02*
X1383Y1083D01*
X1438Y1083D02*
X1483Y1083D01*
X1538Y1083D02*
X1583Y1083D01*
X1638Y1083D02*
X1683Y1083D01*
X1738Y1083D02*
X1783Y1083D01*
X1838Y1083D02*
X1883Y1083D01*
X640Y1082D02*
X682Y1082D01*
X740Y1082D02*
X782Y1082D01*
X840Y1082D02*
X882Y1082D01*
X940Y1082D02*
X982Y1082D01*
X1040Y1082D02*
X1082Y1082D01*
X1140Y1082D02*
X1182Y1082D01*
X1239Y1082D02*
X1282Y1082D01*
X1339Y1082D02*
X1382Y1082D01*
X1439Y1082D02*
X1482Y1082D01*
X1539Y1082D02*
X1582Y1082D01*
X1639Y1082D02*
X1682Y1082D01*
X1739Y1082D02*
X1782Y1082D01*
X1839Y1082D02*
X1882Y1082D01*
X641Y1081D02*
X681Y1081D01*
X741Y1081D02*
X781Y1081D01*
X841Y1081D02*
X881Y1081D01*
X941Y1081D02*
X981Y1081D01*
X1041Y1081D02*
X1081Y1081D01*
X1141Y1081D02*
X1181Y1081D01*
X1241Y1081D02*
X1281Y1081D01*
X1341Y1081D02*
X1381Y1081D01*
X1441Y1081D02*
X1481Y1081D01*
X1541Y1081D02*
X1581Y1081D01*
X1641Y1081D02*
X1681Y1081D01*
X1741Y1081D02*
X1781Y1081D01*
X1841Y1081D02*
X1881Y1081D01*
X642Y1080D02*
X679Y1080D01*
X742Y1080D02*
X779Y1080D01*
X842Y1080D02*
X879Y1080D01*
X942Y1080D02*
X979Y1080D01*
X1042Y1080D02*
X1079Y1080D01*
X1142Y1080D02*
X1179Y1080D01*
X1242Y1080D02*
X1279Y1080D01*
X1342Y1080D02*
X1379Y1080D01*
X1442Y1080D02*
X1479Y1080D01*
X1542Y1080D02*
X1579Y1080D01*
X1642Y1080D02*
X1679Y1080D01*
X1742Y1080D02*
X1779Y1080D01*
X1842Y1080D02*
X1879Y1080D01*
X644Y1079D02*
X678Y1079D01*
X744Y1079D02*
X778Y1079D01*
X844Y1079D02*
X878Y1079D01*
X944Y1079D02*
X978Y1079D01*
X1044Y1079D02*
X1078Y1079D01*
X1144Y1079D02*
X1178Y1079D01*
X1244Y1079D02*
X1278Y1079D01*
X1344Y1079D02*
X1378Y1079D01*
X1444Y1079D02*
X1478Y1079D01*
X1544Y1079D02*
X1578Y1079D01*
X1643Y1079D02*
X1678Y1079D01*
X1743Y1079D02*
X1778Y1079D01*
X1843Y1079D02*
X1878Y1079D01*
X645Y1078D02*
X676Y1078D01*
X745Y1078D02*
X776Y1078D01*
X845Y1078D02*
X876Y1078D01*
X945Y1078D02*
X976Y1078D01*
X1045Y1078D02*
X1076Y1078D01*
X1145Y1078D02*
X1176Y1078D01*
X1245Y1078D02*
X1276Y1078D01*
X1345Y1078D02*
X1376Y1078D01*
X1445Y1078D02*
X1476Y1078D01*
X1545Y1078D02*
X1576Y1078D01*
X1645Y1078D02*
X1676Y1078D01*
X1745Y1078D02*
X1776Y1078D01*
X1845Y1078D02*
X1876Y1078D01*
X647Y1077D02*
X674Y1077D01*
X747Y1077D02*
X774Y1077D01*
X847Y1077D02*
X874Y1077D01*
X947Y1077D02*
X974Y1077D01*
X1047Y1077D02*
X1074Y1077D01*
X1147Y1077D02*
X1174Y1077D01*
X1247Y1077D02*
X1274Y1077D01*
X1347Y1077D02*
X1374Y1077D01*
X1447Y1077D02*
X1474Y1077D01*
X1547Y1077D02*
X1574Y1077D01*
X1647Y1077D02*
X1674Y1077D01*
X1747Y1077D02*
X1774Y1077D01*
X1847Y1077D02*
X1874Y1077D01*
X649Y1076D02*
X672Y1076D01*
X749Y1076D02*
X772Y1076D01*
X849Y1076D02*
X872Y1076D01*
X949Y1076D02*
X972Y1076D01*
X1049Y1076D02*
X1072Y1076D01*
X1149Y1076D02*
X1172Y1076D01*
X1249Y1076D02*
X1272Y1076D01*
X1349Y1076D02*
X1372Y1076D01*
X1449Y1076D02*
X1472Y1076D01*
X1549Y1076D02*
X1572Y1076D01*
X1649Y1076D02*
X1672Y1076D01*
X1749Y1076D02*
X1772Y1076D01*
X1849Y1076D02*
X1872Y1076D01*
X652Y1075D02*
X670Y1075D01*
X752Y1075D02*
X770Y1075D01*
X852Y1075D02*
X869Y1075D01*
X952Y1075D02*
X969Y1075D01*
X1052Y1075D02*
X1069Y1075D01*
X1152Y1075D02*
X1169Y1075D01*
X1252Y1075D02*
X1269Y1075D01*
X1352Y1075D02*
X1369Y1075D01*
X1452Y1075D02*
X1469Y1075D01*
X1552Y1075D02*
X1569Y1075D01*
X1652Y1075D02*
X1669Y1075D01*
X1752Y1075D02*
X1769Y1075D01*
X1852Y1075D02*
X1869Y1075D01*
X656Y1074D02*
X666Y1074D01*
X756Y1074D02*
X766Y1074D01*
X856Y1074D02*
X865Y1074D01*
X956Y1074D02*
X965Y1074D01*
X1056Y1074D02*
X1065Y1074D01*
X1156Y1074D02*
X1165Y1074D01*
X1256Y1074D02*
X1265Y1074D01*
X1356Y1074D02*
X1365Y1074D01*
X1456Y1074D02*
X1465Y1074D01*
X1556Y1074D02*
X1565Y1074D01*
X1656Y1074D02*
X1665Y1074D01*
X1756Y1074D02*
X1765Y1074D01*
X1856Y1074D02*
X1865Y1074D01*
X656Y1043D02*
X666Y1043D01*
X756Y1043D02*
X766Y1043D01*
X856Y1043D02*
X866Y1043D01*
X956Y1043D02*
X966Y1043D01*
X1056Y1043D02*
X1066Y1043D01*
X1156Y1043D02*
X1166Y1043D01*
X1256Y1043D02*
X1266Y1043D01*
X1356Y1043D02*
X1366Y1043D01*
X1456Y1043D02*
X1466Y1043D01*
X1556Y1043D02*
X1566Y1043D01*
X1656Y1043D02*
X1666Y1043D01*
X1756Y1043D02*
X1766Y1043D01*
X1856Y1043D02*
X1866Y1043D01*
X652Y1042D02*
X670Y1042D01*
X752Y1042D02*
X770Y1042D01*
X852Y1042D02*
X870Y1042D01*
X952Y1042D02*
X970Y1042D01*
X1052Y1042D02*
X1070Y1042D01*
X1152Y1042D02*
X1170Y1042D01*
X1252Y1042D02*
X1270Y1042D01*
X1352Y1042D02*
X1370Y1042D01*
X1452Y1042D02*
X1470Y1042D01*
X1552Y1042D02*
X1570Y1042D01*
X1652Y1042D02*
X1670Y1042D01*
X1752Y1042D02*
X1770Y1042D01*
X1852Y1042D02*
X1870Y1042D01*
X649Y1041D02*
X672Y1041D01*
X749Y1041D02*
X772Y1041D01*
X849Y1041D02*
X872Y1041D01*
X949Y1041D02*
X972Y1041D01*
X1049Y1041D02*
X1072Y1041D01*
X1149Y1041D02*
X1172Y1041D01*
X1249Y1041D02*
X1272Y1041D01*
X1349Y1041D02*
X1372Y1041D01*
X1449Y1041D02*
X1472Y1041D01*
X1549Y1041D02*
X1572Y1041D01*
X1649Y1041D02*
X1672Y1041D01*
X1749Y1041D02*
X1772Y1041D01*
X1849Y1041D02*
X1872Y1041D01*
X647Y1040D02*
X675Y1040D01*
X747Y1040D02*
X775Y1040D01*
X847Y1040D02*
X875Y1040D01*
X947Y1040D02*
X975Y1040D01*
X1047Y1040D02*
X1074Y1040D01*
X1147Y1040D02*
X1174Y1040D01*
X1247Y1040D02*
X1274Y1040D01*
X1347Y1040D02*
X1374Y1040D01*
X1447Y1040D02*
X1474Y1040D01*
X1547Y1040D02*
X1574Y1040D01*
X1647Y1040D02*
X1674Y1040D01*
X1747Y1040D02*
X1774Y1040D01*
X1847Y1040D02*
X1874Y1040D01*
X645Y1039D02*
X676Y1039D01*
X745Y1039D02*
X776Y1039D01*
X845Y1039D02*
X876Y1039D01*
X945Y1039D02*
X976Y1039D01*
X1045Y1039D02*
X1076Y1039D01*
X1145Y1039D02*
X1176Y1039D01*
X1245Y1039D02*
X1276Y1039D01*
X1345Y1039D02*
X1376Y1039D01*
X1445Y1039D02*
X1476Y1039D01*
X1545Y1039D02*
X1576Y1039D01*
X1645Y1039D02*
X1676Y1039D01*
X1745Y1039D02*
X1776Y1039D01*
X1845Y1039D02*
X1876Y1039D01*
X644Y1038D02*
X678Y1038D01*
X744Y1038D02*
X778Y1038D01*
X844Y1038D02*
X878Y1038D01*
X944Y1038D02*
X978Y1038D01*
X1043Y1038D02*
X1078Y1038D01*
X1143Y1038D02*
X1178Y1038D01*
X1243Y1038D02*
X1278Y1038D01*
X1343Y1038D02*
X1378Y1038D01*
X1443Y1038D02*
X1478Y1038D01*
X1543Y1038D02*
X1578Y1038D01*
X1643Y1038D02*
X1678Y1038D01*
X1743Y1038D02*
X1778Y1038D01*
X1843Y1038D02*
X1878Y1038D01*
X642Y1037D02*
X680Y1037D01*
X742Y1037D02*
X780Y1037D01*
X842Y1037D02*
X879Y1037D01*
X942Y1037D02*
X979Y1037D01*
X1042Y1037D02*
X1079Y1037D01*
X1142Y1037D02*
X1179Y1037D01*
X1242Y1037D02*
X1279Y1037D01*
X1342Y1037D02*
X1379Y1037D01*
X1442Y1037D02*
X1479Y1037D01*
X1542Y1037D02*
X1579Y1037D01*
X1642Y1037D02*
X1679Y1037D01*
X1742Y1037D02*
X1779Y1037D01*
X1842Y1037D02*
X1879Y1037D01*
X641Y1036D02*
X681Y1036D01*
X741Y1036D02*
X781Y1036D01*
X841Y1036D02*
X881Y1036D01*
X941Y1036D02*
X981Y1036D01*
X1041Y1036D02*
X1081Y1036D01*
X1141Y1036D02*
X1181Y1036D01*
X1241Y1036D02*
X1281Y1036D01*
X1341Y1036D02*
X1381Y1036D01*
X1441Y1036D02*
X1481Y1036D01*
X1541Y1036D02*
X1581Y1036D01*
X1641Y1036D02*
X1681Y1036D01*
X1741Y1036D02*
X1781Y1036D01*
X1841Y1036D02*
X1881Y1036D01*
X640Y1035D02*
X682Y1035D01*
X740Y1035D02*
X782Y1035D01*
X839Y1035D02*
X882Y1035D01*
X939Y1035D02*
X982Y1035D01*
X1039Y1035D02*
X1082Y1035D01*
X1139Y1035D02*
X1182Y1035D01*
X1239Y1035D02*
X1282Y1035D01*
X1339Y1035D02*
X1382Y1035D01*
X1439Y1035D02*
X1482Y1035D01*
X1539Y1035D02*
X1582Y1035D01*
X1639Y1035D02*
X1682Y1035D01*
X1739Y1035D02*
X1782Y1035D01*
X1839Y1035D02*
X1882Y1035D01*
X638Y1034D02*
X683Y1034D01*
X738Y1034D02*
X783Y1034D01*
X838Y1034D02*
X883Y1034D01*
X938Y1034D02*
X983Y1034D01*
X1038Y1034D02*
X1083Y1034D01*
X1138Y1034D02*
X1183Y1034D01*
X1238Y1034D02*
X1283Y1034D01*
X1338Y1034D02*
X1383Y1034D01*
X1438Y1034D02*
X1483Y1034D01*
X1538Y1034D02*
X1583Y1034D01*
X1638Y1034D02*
X1683Y1034D01*
X1738Y1034D02*
X1783Y1034D01*
X1838Y1034D02*
X1883Y1034D01*
X637Y1033D02*
X684Y1033D01*
X737Y1033D02*
X784Y1033D01*
X837Y1033D02*
X884Y1033D01*
X937Y1033D02*
X984Y1033D01*
X1037Y1033D02*
X1084Y1033D01*
X1137Y1033D02*
X1184Y1033D01*
X1237Y1033D02*
X1284Y1033D01*
X1337Y1033D02*
X1384Y1033D01*
X1437Y1033D02*
X1484Y1033D01*
X1537Y1033D02*
X1584Y1033D01*
X1637Y1033D02*
X1684Y1033D01*
X1737Y1033D02*
X1784Y1033D01*
X1837Y1033D02*
X1884Y1033D01*
X636Y1032D02*
X685Y1032D01*
X736Y1032D02*
X785Y1032D01*
X836Y1032D02*
X885Y1032D01*
X936Y1032D02*
X985Y1032D01*
X1036Y1032D02*
X1085Y1032D01*
X1136Y1032D02*
X1185Y1032D01*
X1236Y1032D02*
X1285Y1032D01*
X1336Y1032D02*
X1385Y1032D01*
X1436Y1032D02*
X1485Y1032D01*
X1536Y1032D02*
X1585Y1032D01*
X1636Y1032D02*
X1685Y1032D01*
X1736Y1032D02*
X1785Y1032D01*
X1836Y1032D02*
X1885Y1032D01*
X635Y1031D02*
X686Y1031D01*
X735Y1031D02*
X786Y1031D01*
X835Y1031D02*
X886Y1031D01*
X935Y1031D02*
X986Y1031D01*
X1035Y1031D02*
X1086Y1031D01*
X1135Y1031D02*
X1186Y1031D01*
X1235Y1031D02*
X1286Y1031D01*
X1335Y1031D02*
X1386Y1031D01*
X1435Y1031D02*
X1486Y1031D01*
X1535Y1031D02*
X1586Y1031D01*
X1635Y1031D02*
X1686Y1031D01*
X1735Y1031D02*
X1786Y1031D01*
X1835Y1031D02*
X1886Y1031D01*
X635Y1030D02*
X687Y1030D01*
X735Y1030D02*
X787Y1030D01*
X835Y1030D02*
X887Y1030D01*
X935Y1030D02*
X987Y1030D01*
X1035Y1030D02*
X1087Y1030D01*
X1134Y1030D02*
X1187Y1030D01*
X1234Y1030D02*
X1287Y1030D01*
X1334Y1030D02*
X1387Y1030D01*
X1434Y1030D02*
X1487Y1030D01*
X1534Y1030D02*
X1587Y1030D01*
X1634Y1030D02*
X1687Y1030D01*
X1734Y1030D02*
X1787Y1030D01*
X1834Y1030D02*
X1887Y1030D01*
X634Y1029D02*
X688Y1029D01*
X734Y1029D02*
X788Y1029D01*
X834Y1029D02*
X888Y1029D01*
X934Y1029D02*
X988Y1029D01*
X1034Y1029D02*
X1088Y1029D01*
X1134Y1029D02*
X1188Y1029D01*
X1234Y1029D02*
X1288Y1029D01*
X1334Y1029D02*
X1388Y1029D01*
X1434Y1029D02*
X1488Y1029D01*
X1534Y1029D02*
X1588Y1029D01*
X1634Y1029D02*
X1688Y1029D01*
X1734Y1029D02*
X1788Y1029D01*
X1834Y1029D02*
X1888Y1029D01*
X633Y1028D02*
X689Y1028D01*
X733Y1028D02*
X789Y1028D01*
X833Y1028D02*
X889Y1028D01*
X933Y1028D02*
X989Y1028D01*
X1033Y1028D02*
X1089Y1028D01*
X1133Y1028D02*
X1189Y1028D01*
X1233Y1028D02*
X1289Y1028D01*
X1333Y1028D02*
X1388Y1028D01*
X1433Y1028D02*
X1488Y1028D01*
X1533Y1028D02*
X1588Y1028D01*
X1633Y1028D02*
X1688Y1028D01*
X1733Y1028D02*
X1788Y1028D01*
X1833Y1028D02*
X1888Y1028D01*
X632Y1027D02*
X689Y1027D01*
X732Y1027D02*
X789Y1027D01*
X832Y1027D02*
X889Y1027D01*
X932Y1027D02*
X989Y1027D01*
X1032Y1027D02*
X1089Y1027D01*
X1132Y1027D02*
X1189Y1027D01*
X1232Y1027D02*
X1289Y1027D01*
X1332Y1027D02*
X1389Y1027D01*
X1432Y1027D02*
X1489Y1027D01*
X1532Y1027D02*
X1589Y1027D01*
X1632Y1027D02*
X1689Y1027D01*
X1732Y1027D02*
X1789Y1027D01*
X1832Y1027D02*
X1889Y1027D01*
X632Y1026D02*
X690Y1026D01*
X732Y1026D02*
X790Y1026D01*
X832Y1026D02*
X890Y1026D01*
X932Y1026D02*
X990Y1026D01*
X1032Y1026D02*
X1090Y1026D01*
X1132Y1026D02*
X1190Y1026D01*
X1232Y1026D02*
X1290Y1026D01*
X1332Y1026D02*
X1390Y1026D01*
X1432Y1026D02*
X1490Y1026D01*
X1532Y1026D02*
X1590Y1026D01*
X1632Y1026D02*
X1690Y1026D01*
X1732Y1026D02*
X1790Y1026D01*
X1831Y1026D02*
X1890Y1026D01*
X631Y1025D02*
X691Y1025D01*
X731Y1025D02*
X791Y1025D01*
X831Y1025D02*
X891Y1025D01*
X931Y1025D02*
X991Y1025D01*
X1031Y1025D02*
X1091Y1025D01*
X1131Y1025D02*
X1190Y1025D01*
X1231Y1025D02*
X1290Y1025D01*
X1331Y1025D02*
X1390Y1025D01*
X1431Y1025D02*
X1490Y1025D01*
X1531Y1025D02*
X1590Y1025D01*
X1631Y1025D02*
X1690Y1025D01*
X1731Y1025D02*
X1790Y1025D01*
X1831Y1025D02*
X1890Y1025D01*
X630Y1024D02*
X691Y1024D01*
X730Y1024D02*
X791Y1024D01*
X830Y1024D02*
X891Y1024D01*
X930Y1024D02*
X991Y1024D01*
X1030Y1024D02*
X1091Y1024D01*
X1130Y1024D02*
X1191Y1024D01*
X1230Y1024D02*
X1291Y1024D01*
X1330Y1024D02*
X1391Y1024D01*
X1430Y1024D02*
X1491Y1024D01*
X1530Y1024D02*
X1591Y1024D01*
X1630Y1024D02*
X1691Y1024D01*
X1730Y1024D02*
X1791Y1024D01*
X1830Y1024D02*
X1891Y1024D01*
X630Y1023D02*
X655Y1023D01*
X666Y1023D02*
X692Y1023D01*
X730Y1023D02*
X755Y1023D01*
X766Y1023D02*
X792Y1023D01*
X830Y1023D02*
X855Y1023D01*
X866Y1023D02*
X892Y1023D01*
X930Y1023D02*
X955Y1023D01*
X966Y1023D02*
X992Y1023D01*
X1030Y1023D02*
X1055Y1023D01*
X1066Y1023D02*
X1092Y1023D01*
X1130Y1023D02*
X1155Y1023D01*
X1166Y1023D02*
X1192Y1023D01*
X1230Y1023D02*
X1255Y1023D01*
X1266Y1023D02*
X1292Y1023D01*
X1330Y1023D02*
X1355Y1023D01*
X1366Y1023D02*
X1392Y1023D01*
X1430Y1023D02*
X1455Y1023D01*
X1466Y1023D02*
X1492Y1023D01*
X1530Y1023D02*
X1555Y1023D01*
X1566Y1023D02*
X1592Y1023D01*
X1630Y1023D02*
X1655Y1023D01*
X1666Y1023D02*
X1692Y1023D01*
X1730Y1023D02*
X1755Y1023D01*
X1766Y1023D02*
X1792Y1023D01*
X1830Y1023D02*
X1855Y1023D01*
X1866Y1023D02*
X1891Y1023D01*
X629Y1022D02*
X653Y1022D01*
X669Y1022D02*
X692Y1022D01*
X729Y1022D02*
X753Y1022D01*
X769Y1022D02*
X792Y1022D01*
X829Y1022D02*
X853Y1022D01*
X869Y1022D02*
X892Y1022D01*
X929Y1022D02*
X953Y1022D01*
X969Y1022D02*
X992Y1022D01*
X1029Y1022D02*
X1052Y1022D01*
X1069Y1022D02*
X1092Y1022D01*
X1129Y1022D02*
X1152Y1022D01*
X1169Y1022D02*
X1192Y1022D01*
X1229Y1022D02*
X1252Y1022D01*
X1269Y1022D02*
X1292Y1022D01*
X1329Y1022D02*
X1352Y1022D01*
X1369Y1022D02*
X1392Y1022D01*
X1429Y1022D02*
X1452Y1022D01*
X1469Y1022D02*
X1492Y1022D01*
X1529Y1022D02*
X1552Y1022D01*
X1569Y1022D02*
X1592Y1022D01*
X1629Y1022D02*
X1652Y1022D01*
X1669Y1022D02*
X1692Y1022D01*
X1729Y1022D02*
X1752Y1022D01*
X1769Y1022D02*
X1792Y1022D01*
X1829Y1022D02*
X1852Y1022D01*
X1869Y1022D02*
X1892Y1022D01*
X629Y1021D02*
X651Y1021D01*
X671Y1021D02*
X693Y1021D01*
X729Y1021D02*
X751Y1021D01*
X771Y1021D02*
X793Y1021D01*
X829Y1021D02*
X851Y1021D01*
X871Y1021D02*
X893Y1021D01*
X929Y1021D02*
X951Y1021D01*
X971Y1021D02*
X993Y1021D01*
X1029Y1021D02*
X1051Y1021D01*
X1071Y1021D02*
X1093Y1021D01*
X1129Y1021D02*
X1151Y1021D01*
X1171Y1021D02*
X1193Y1021D01*
X1229Y1021D02*
X1251Y1021D01*
X1271Y1021D02*
X1293Y1021D01*
X1329Y1021D02*
X1351Y1021D01*
X1371Y1021D02*
X1393Y1021D01*
X1429Y1021D02*
X1451Y1021D01*
X1471Y1021D02*
X1493Y1021D01*
X1529Y1021D02*
X1551Y1021D01*
X1571Y1021D02*
X1592Y1021D01*
X1629Y1021D02*
X1651Y1021D01*
X1671Y1021D02*
X1692Y1021D01*
X1729Y1021D02*
X1751Y1021D01*
X1771Y1021D02*
X1792Y1021D01*
X1829Y1021D02*
X1851Y1021D01*
X1871Y1021D02*
X1892Y1021D01*
X629Y1020D02*
X650Y1020D01*
X672Y1020D02*
X693Y1020D01*
X729Y1020D02*
X750Y1020D01*
X772Y1020D02*
X793Y1020D01*
X829Y1020D02*
X850Y1020D01*
X872Y1020D02*
X893Y1020D01*
X929Y1020D02*
X950Y1020D01*
X972Y1020D02*
X993Y1020D01*
X1029Y1020D02*
X1050Y1020D01*
X1072Y1020D02*
X1093Y1020D01*
X1129Y1020D02*
X1149Y1020D01*
X1172Y1020D02*
X1193Y1020D01*
X1228Y1020D02*
X1249Y1020D01*
X1272Y1020D02*
X1293Y1020D01*
X1328Y1020D02*
X1349Y1020D01*
X1372Y1020D02*
X1393Y1020D01*
X1428Y1020D02*
X1449Y1020D01*
X1472Y1020D02*
X1493Y1020D01*
X1528Y1020D02*
X1549Y1020D01*
X1572Y1020D02*
X1593Y1020D01*
X1628Y1020D02*
X1649Y1020D01*
X1672Y1020D02*
X1693Y1020D01*
X1728Y1020D02*
X1749Y1020D01*
X1772Y1020D02*
X1793Y1020D01*
X1828Y1020D02*
X1849Y1020D01*
X1872Y1020D02*
X1893Y1020D01*
X628Y1019D02*
X649Y1019D01*
X673Y1019D02*
X693Y1019D01*
X728Y1019D02*
X749Y1019D01*
X773Y1019D02*
X793Y1019D01*
X828Y1019D02*
X849Y1019D01*
X873Y1019D02*
X893Y1019D01*
X928Y1019D02*
X949Y1019D01*
X973Y1019D02*
X993Y1019D01*
X1028Y1019D02*
X1049Y1019D01*
X1073Y1019D02*
X1093Y1019D01*
X1128Y1019D02*
X1149Y1019D01*
X1173Y1019D02*
X1193Y1019D01*
X1228Y1019D02*
X1249Y1019D01*
X1273Y1019D02*
X1293Y1019D01*
X1328Y1019D02*
X1348Y1019D01*
X1373Y1019D02*
X1393Y1019D01*
X1428Y1019D02*
X1448Y1019D01*
X1473Y1019D02*
X1493Y1019D01*
X1528Y1019D02*
X1548Y1019D01*
X1573Y1019D02*
X1593Y1019D01*
X1628Y1019D02*
X1648Y1019D01*
X1673Y1019D02*
X1693Y1019D01*
X1728Y1019D02*
X1748Y1019D01*
X1773Y1019D02*
X1793Y1019D01*
X1828Y1019D02*
X1848Y1019D01*
X1873Y1019D02*
X1893Y1019D01*
X628Y1018D02*
X648Y1018D01*
X674Y1018D02*
X694Y1018D01*
X728Y1018D02*
X748Y1018D01*
X774Y1018D02*
X794Y1018D01*
X828Y1018D02*
X848Y1018D01*
X874Y1018D02*
X894Y1018D01*
X928Y1018D02*
X948Y1018D01*
X974Y1018D02*
X994Y1018D01*
X1028Y1018D02*
X1048Y1018D01*
X1074Y1018D02*
X1094Y1018D01*
X1128Y1018D02*
X1148Y1018D01*
X1174Y1018D02*
X1194Y1018D01*
X1228Y1018D02*
X1248Y1018D01*
X1274Y1018D02*
X1294Y1018D01*
X1328Y1018D02*
X1348Y1018D01*
X1374Y1018D02*
X1394Y1018D01*
X1428Y1018D02*
X1448Y1018D01*
X1474Y1018D02*
X1494Y1018D01*
X1528Y1018D02*
X1548Y1018D01*
X1574Y1018D02*
X1594Y1018D01*
X1628Y1018D02*
X1648Y1018D01*
X1674Y1018D02*
X1694Y1018D01*
X1728Y1018D02*
X1748Y1018D01*
X1774Y1018D02*
X1794Y1018D01*
X1828Y1018D02*
X1848Y1018D01*
X1874Y1018D02*
X1894Y1018D01*
X628Y1017D02*
X647Y1017D01*
X674Y1017D02*
X694Y1017D01*
X728Y1017D02*
X747Y1017D01*
X774Y1017D02*
X794Y1017D01*
X828Y1017D02*
X847Y1017D01*
X874Y1017D02*
X894Y1017D01*
X928Y1017D02*
X947Y1017D01*
X974Y1017D02*
X994Y1017D01*
X1027Y1017D02*
X1047Y1017D01*
X1074Y1017D02*
X1094Y1017D01*
X1127Y1017D02*
X1147Y1017D01*
X1174Y1017D02*
X1194Y1017D01*
X1227Y1017D02*
X1247Y1017D01*
X1274Y1017D02*
X1294Y1017D01*
X1327Y1017D02*
X1347Y1017D01*
X1374Y1017D02*
X1394Y1017D01*
X1427Y1017D02*
X1447Y1017D01*
X1474Y1017D02*
X1494Y1017D01*
X1527Y1017D02*
X1547Y1017D01*
X1574Y1017D02*
X1594Y1017D01*
X1627Y1017D02*
X1647Y1017D01*
X1674Y1017D02*
X1694Y1017D01*
X1727Y1017D02*
X1747Y1017D01*
X1774Y1017D02*
X1794Y1017D01*
X1827Y1017D02*
X1847Y1017D01*
X1874Y1017D02*
X1894Y1017D01*
X627Y1016D02*
X647Y1016D01*
X675Y1016D02*
X694Y1016D01*
X727Y1016D02*
X747Y1016D01*
X775Y1016D02*
X794Y1016D01*
X827Y1016D02*
X847Y1016D01*
X875Y1016D02*
X894Y1016D01*
X927Y1016D02*
X947Y1016D01*
X975Y1016D02*
X994Y1016D01*
X1027Y1016D02*
X1047Y1016D01*
X1075Y1016D02*
X1094Y1016D01*
X1127Y1016D02*
X1147Y1016D01*
X1175Y1016D02*
X1194Y1016D01*
X1227Y1016D02*
X1247Y1016D01*
X1275Y1016D02*
X1294Y1016D01*
X1327Y1016D02*
X1347Y1016D01*
X1375Y1016D02*
X1394Y1016D01*
X1427Y1016D02*
X1447Y1016D01*
X1475Y1016D02*
X1494Y1016D01*
X1527Y1016D02*
X1547Y1016D01*
X1575Y1016D02*
X1594Y1016D01*
X1627Y1016D02*
X1647Y1016D01*
X1675Y1016D02*
X1694Y1016D01*
X1727Y1016D02*
X1747Y1016D01*
X1775Y1016D02*
X1794Y1016D01*
X1827Y1016D02*
X1847Y1016D01*
X1875Y1016D02*
X1894Y1016D01*
X627Y1015D02*
X646Y1015D01*
X675Y1015D02*
X695Y1015D01*
X727Y1015D02*
X746Y1015D01*
X775Y1015D02*
X795Y1015D01*
X827Y1015D02*
X846Y1015D01*
X875Y1015D02*
X895Y1015D01*
X927Y1015D02*
X946Y1015D01*
X975Y1015D02*
X995Y1015D01*
X1027Y1015D02*
X1046Y1015D01*
X1075Y1015D02*
X1095Y1015D01*
X1127Y1015D02*
X1146Y1015D01*
X1175Y1015D02*
X1195Y1015D01*
X1227Y1015D02*
X1246Y1015D01*
X1275Y1015D02*
X1294Y1015D01*
X1327Y1015D02*
X1346Y1015D01*
X1375Y1015D02*
X1394Y1015D01*
X1427Y1015D02*
X1446Y1015D01*
X1475Y1015D02*
X1494Y1015D01*
X1527Y1015D02*
X1546Y1015D01*
X1575Y1015D02*
X1594Y1015D01*
X1627Y1015D02*
X1646Y1015D01*
X1675Y1015D02*
X1694Y1015D01*
X1727Y1015D02*
X1746Y1015D01*
X1775Y1015D02*
X1794Y1015D01*
X1827Y1015D02*
X1846Y1015D01*
X1875Y1015D02*
X1894Y1015D01*
X627Y1014D02*
X646Y1014D01*
X676Y1014D02*
X695Y1014D01*
X727Y1014D02*
X746Y1014D01*
X776Y1014D02*
X795Y1014D01*
X827Y1014D02*
X846Y1014D01*
X876Y1014D02*
X895Y1014D01*
X927Y1014D02*
X946Y1014D01*
X976Y1014D02*
X995Y1014D01*
X1027Y1014D02*
X1046Y1014D01*
X1076Y1014D02*
X1095Y1014D01*
X1127Y1014D02*
X1146Y1014D01*
X1176Y1014D02*
X1195Y1014D01*
X1227Y1014D02*
X1246Y1014D01*
X1276Y1014D02*
X1295Y1014D01*
X1327Y1014D02*
X1346Y1014D01*
X1376Y1014D02*
X1395Y1014D01*
X1427Y1014D02*
X1446Y1014D01*
X1475Y1014D02*
X1495Y1014D01*
X1527Y1014D02*
X1546Y1014D01*
X1575Y1014D02*
X1595Y1014D01*
X1627Y1014D02*
X1646Y1014D01*
X1675Y1014D02*
X1695Y1014D01*
X1727Y1014D02*
X1746Y1014D01*
X1775Y1014D02*
X1795Y1014D01*
X1827Y1014D02*
X1846Y1014D01*
X1875Y1014D02*
X1895Y1014D01*
X627Y1013D02*
X646Y1013D01*
X676Y1013D02*
X695Y1013D01*
X727Y1013D02*
X746Y1013D01*
X776Y1013D02*
X795Y1013D01*
X827Y1013D02*
X846Y1013D01*
X876Y1013D02*
X895Y1013D01*
X927Y1013D02*
X946Y1013D01*
X976Y1013D02*
X995Y1013D01*
X1027Y1013D02*
X1046Y1013D01*
X1076Y1013D02*
X1095Y1013D01*
X1127Y1013D02*
X1146Y1013D01*
X1176Y1013D02*
X1195Y1013D01*
X1227Y1013D02*
X1246Y1013D01*
X1276Y1013D02*
X1295Y1013D01*
X1327Y1013D02*
X1346Y1013D01*
X1376Y1013D02*
X1395Y1013D01*
X1427Y1013D02*
X1446Y1013D01*
X1476Y1013D02*
X1495Y1013D01*
X1527Y1013D02*
X1546Y1013D01*
X1576Y1013D02*
X1595Y1013D01*
X1627Y1013D02*
X1646Y1013D01*
X1676Y1013D02*
X1695Y1013D01*
X1727Y1013D02*
X1746Y1013D01*
X1776Y1013D02*
X1795Y1013D01*
X1826Y1013D02*
X1846Y1013D01*
X1876Y1013D02*
X1895Y1013D01*
X627Y1012D02*
X646Y1012D01*
X676Y1012D02*
X695Y1012D01*
X727Y1012D02*
X746Y1012D01*
X776Y1012D02*
X795Y1012D01*
X826Y1012D02*
X846Y1012D01*
X876Y1012D02*
X895Y1012D01*
X926Y1012D02*
X946Y1012D01*
X976Y1012D02*
X995Y1012D01*
X1026Y1012D02*
X1046Y1012D01*
X1076Y1012D02*
X1095Y1012D01*
X1126Y1012D02*
X1146Y1012D01*
X1176Y1012D02*
X1195Y1012D01*
X1226Y1012D02*
X1245Y1012D01*
X1276Y1012D02*
X1295Y1012D01*
X1326Y1012D02*
X1345Y1012D01*
X1376Y1012D02*
X1395Y1012D01*
X1426Y1012D02*
X1445Y1012D01*
X1476Y1012D02*
X1495Y1012D01*
X1526Y1012D02*
X1545Y1012D01*
X1576Y1012D02*
X1595Y1012D01*
X1626Y1012D02*
X1645Y1012D01*
X1676Y1012D02*
X1695Y1012D01*
X1726Y1012D02*
X1745Y1012D01*
X1776Y1012D02*
X1795Y1012D01*
X1826Y1012D02*
X1845Y1012D01*
X1876Y1012D02*
X1895Y1012D01*
X626Y1011D02*
X645Y1011D01*
X676Y1011D02*
X695Y1011D01*
X726Y1011D02*
X745Y1011D01*
X776Y1011D02*
X795Y1011D01*
X826Y1011D02*
X845Y1011D01*
X876Y1011D02*
X895Y1011D01*
X926Y1011D02*
X945Y1011D01*
X976Y1011D02*
X995Y1011D01*
X1026Y1011D02*
X1045Y1011D01*
X1076Y1011D02*
X1095Y1011D01*
X1126Y1011D02*
X1145Y1011D01*
X1176Y1011D02*
X1195Y1011D01*
X1226Y1011D02*
X1245Y1011D01*
X1276Y1011D02*
X1295Y1011D01*
X1326Y1011D02*
X1345Y1011D01*
X1376Y1011D02*
X1395Y1011D01*
X1426Y1011D02*
X1445Y1011D01*
X1476Y1011D02*
X1495Y1011D01*
X1526Y1011D02*
X1545Y1011D01*
X1576Y1011D02*
X1595Y1011D01*
X1626Y1011D02*
X1645Y1011D01*
X1676Y1011D02*
X1695Y1011D01*
X1726Y1011D02*
X1745Y1011D01*
X1776Y1011D02*
X1795Y1011D01*
X1826Y1011D02*
X1845Y1011D01*
X1876Y1011D02*
X1895Y1011D01*
X626Y1010D02*
X645Y1010D01*
X676Y1010D02*
X695Y1010D01*
X726Y1010D02*
X745Y1010D01*
X776Y1010D02*
X795Y1010D01*
X826Y1010D02*
X845Y1010D01*
X876Y1010D02*
X895Y1010D01*
X926Y1010D02*
X945Y1010D01*
X976Y1010D02*
X995Y1010D01*
X1026Y1010D02*
X1045Y1010D01*
X1076Y1010D02*
X1095Y1010D01*
X1126Y1010D02*
X1145Y1010D01*
X1176Y1010D02*
X1195Y1010D01*
X1226Y1010D02*
X1245Y1010D01*
X1276Y1010D02*
X1295Y1010D01*
X1326Y1010D02*
X1345Y1010D01*
X1376Y1010D02*
X1395Y1010D01*
X1426Y1010D02*
X1445Y1010D01*
X1476Y1010D02*
X1495Y1010D01*
X1526Y1010D02*
X1545Y1010D01*
X1576Y1010D02*
X1595Y1010D01*
X1626Y1010D02*
X1645Y1010D01*
X1676Y1010D02*
X1695Y1010D01*
X1726Y1010D02*
X1745Y1010D01*
X1776Y1010D02*
X1795Y1010D01*
X1826Y1010D02*
X1845Y1010D01*
X1876Y1010D02*
X1895Y1010D01*
X626Y1009D02*
X645Y1009D01*
X676Y1009D02*
X695Y1009D01*
X726Y1009D02*
X745Y1009D01*
X776Y1009D02*
X795Y1009D01*
X826Y1009D02*
X845Y1009D01*
X876Y1009D02*
X895Y1009D01*
X926Y1009D02*
X945Y1009D01*
X976Y1009D02*
X995Y1009D01*
X1026Y1009D02*
X1045Y1009D01*
X1076Y1009D02*
X1095Y1009D01*
X1126Y1009D02*
X1145Y1009D01*
X1176Y1009D02*
X1195Y1009D01*
X1226Y1009D02*
X1245Y1009D01*
X1276Y1009D02*
X1295Y1009D01*
X1326Y1009D02*
X1345Y1009D01*
X1376Y1009D02*
X1395Y1009D01*
X1426Y1009D02*
X1445Y1009D01*
X1476Y1009D02*
X1495Y1009D01*
X1526Y1009D02*
X1545Y1009D01*
X1576Y1009D02*
X1595Y1009D01*
X1626Y1009D02*
X1645Y1009D01*
X1676Y1009D02*
X1695Y1009D01*
X1726Y1009D02*
X1745Y1009D01*
X1776Y1009D02*
X1795Y1009D01*
X1826Y1009D02*
X1845Y1009D01*
X1876Y1009D02*
X1895Y1009D01*
X626Y1008D02*
X645Y1008D01*
X676Y1008D02*
X695Y1008D01*
X726Y1008D02*
X745Y1008D01*
X776Y1008D02*
X795Y1008D01*
X826Y1008D02*
X845Y1008D01*
X876Y1008D02*
X895Y1008D01*
X926Y1008D02*
X945Y1008D01*
X976Y1008D02*
X995Y1008D01*
X1026Y1008D02*
X1045Y1008D01*
X1076Y1008D02*
X1095Y1008D01*
X1126Y1008D02*
X1145Y1008D01*
X1176Y1008D02*
X1195Y1008D01*
X1226Y1008D02*
X1245Y1008D01*
X1276Y1008D02*
X1295Y1008D01*
X1326Y1008D02*
X1345Y1008D01*
X1376Y1008D02*
X1395Y1008D01*
X1426Y1008D02*
X1445Y1008D01*
X1476Y1008D02*
X1495Y1008D01*
X1526Y1008D02*
X1545Y1008D01*
X1576Y1008D02*
X1595Y1008D01*
X1626Y1008D02*
X1645Y1008D01*
X1676Y1008D02*
X1695Y1008D01*
X1726Y1008D02*
X1745Y1008D01*
X1776Y1008D02*
X1795Y1008D01*
X1826Y1008D02*
X1845Y1008D01*
X1876Y1008D02*
X1895Y1008D01*
X626Y1007D02*
X645Y1007D01*
X676Y1007D02*
X695Y1007D01*
X726Y1007D02*
X745Y1007D01*
X776Y1007D02*
X795Y1007D01*
X826Y1007D02*
X845Y1007D01*
X876Y1007D02*
X895Y1007D01*
X926Y1007D02*
X945Y1007D01*
X976Y1007D02*
X995Y1007D01*
X1026Y1007D02*
X1045Y1007D01*
X1076Y1007D02*
X1095Y1007D01*
X1126Y1007D02*
X1145Y1007D01*
X1176Y1007D02*
X1195Y1007D01*
X1226Y1007D02*
X1245Y1007D01*
X1276Y1007D02*
X1295Y1007D01*
X1326Y1007D02*
X1345Y1007D01*
X1376Y1007D02*
X1395Y1007D01*
X1426Y1007D02*
X1445Y1007D01*
X1476Y1007D02*
X1495Y1007D01*
X1526Y1007D02*
X1545Y1007D01*
X1576Y1007D02*
X1595Y1007D01*
X1626Y1007D02*
X1645Y1007D01*
X1676Y1007D02*
X1695Y1007D01*
X1726Y1007D02*
X1745Y1007D01*
X1776Y1007D02*
X1795Y1007D01*
X1826Y1007D02*
X1845Y1007D01*
X1876Y1007D02*
X1895Y1007D01*
X626Y1006D02*
X645Y1006D01*
X676Y1006D02*
X695Y1006D01*
X726Y1006D02*
X745Y1006D01*
X776Y1006D02*
X795Y1006D01*
X826Y1006D02*
X845Y1006D01*
X876Y1006D02*
X895Y1006D01*
X926Y1006D02*
X945Y1006D01*
X976Y1006D02*
X995Y1006D01*
X1026Y1006D02*
X1045Y1006D01*
X1076Y1006D02*
X1095Y1006D01*
X1126Y1006D02*
X1145Y1006D01*
X1176Y1006D02*
X1195Y1006D01*
X1226Y1006D02*
X1245Y1006D01*
X1276Y1006D02*
X1295Y1006D01*
X1326Y1006D02*
X1345Y1006D01*
X1376Y1006D02*
X1395Y1006D01*
X1426Y1006D02*
X1445Y1006D01*
X1476Y1006D02*
X1495Y1006D01*
X1526Y1006D02*
X1545Y1006D01*
X1576Y1006D02*
X1595Y1006D01*
X1626Y1006D02*
X1645Y1006D01*
X1676Y1006D02*
X1695Y1006D01*
X1726Y1006D02*
X1745Y1006D01*
X1776Y1006D02*
X1795Y1006D01*
X1826Y1006D02*
X1845Y1006D01*
X1876Y1006D02*
X1895Y1006D01*
X627Y1005D02*
X646Y1005D01*
X676Y1005D02*
X695Y1005D01*
X727Y1005D02*
X746Y1005D01*
X776Y1005D02*
X795Y1005D01*
X827Y1005D02*
X846Y1005D01*
X876Y1005D02*
X895Y1005D01*
X927Y1005D02*
X946Y1005D01*
X976Y1005D02*
X995Y1005D01*
X1026Y1005D02*
X1046Y1005D01*
X1076Y1005D02*
X1095Y1005D01*
X1126Y1005D02*
X1146Y1005D01*
X1176Y1005D02*
X1195Y1005D01*
X1226Y1005D02*
X1246Y1005D01*
X1276Y1005D02*
X1295Y1005D01*
X1326Y1005D02*
X1345Y1005D01*
X1376Y1005D02*
X1395Y1005D01*
X1426Y1005D02*
X1445Y1005D01*
X1476Y1005D02*
X1495Y1005D01*
X1526Y1005D02*
X1545Y1005D01*
X1576Y1005D02*
X1595Y1005D01*
X1626Y1005D02*
X1645Y1005D01*
X1676Y1005D02*
X1695Y1005D01*
X1726Y1005D02*
X1745Y1005D01*
X1776Y1005D02*
X1795Y1005D01*
X1826Y1005D02*
X1845Y1005D01*
X1876Y1005D02*
X1895Y1005D01*
X627Y1004D02*
X646Y1004D01*
X676Y1004D02*
X695Y1004D01*
X727Y1004D02*
X746Y1004D01*
X776Y1004D02*
X795Y1004D01*
X827Y1004D02*
X846Y1004D01*
X876Y1004D02*
X895Y1004D01*
X927Y1004D02*
X946Y1004D01*
X976Y1004D02*
X995Y1004D01*
X1027Y1004D02*
X1046Y1004D01*
X1076Y1004D02*
X1095Y1004D01*
X1127Y1004D02*
X1146Y1004D01*
X1176Y1004D02*
X1195Y1004D01*
X1227Y1004D02*
X1246Y1004D01*
X1276Y1004D02*
X1295Y1004D01*
X1327Y1004D02*
X1346Y1004D01*
X1376Y1004D02*
X1395Y1004D01*
X1427Y1004D02*
X1446Y1004D01*
X1476Y1004D02*
X1495Y1004D01*
X1527Y1004D02*
X1546Y1004D01*
X1576Y1004D02*
X1595Y1004D01*
X1627Y1004D02*
X1646Y1004D01*
X1676Y1004D02*
X1695Y1004D01*
X1727Y1004D02*
X1746Y1004D01*
X1776Y1004D02*
X1795Y1004D01*
X1827Y1004D02*
X1846Y1004D01*
X1876Y1004D02*
X1895Y1004D01*
X627Y1003D02*
X646Y1003D01*
X676Y1003D02*
X695Y1003D01*
X727Y1003D02*
X746Y1003D01*
X776Y1003D02*
X795Y1003D01*
X827Y1003D02*
X846Y1003D01*
X876Y1003D02*
X895Y1003D01*
X927Y1003D02*
X946Y1003D01*
X976Y1003D02*
X995Y1003D01*
X1027Y1003D02*
X1046Y1003D01*
X1076Y1003D02*
X1095Y1003D01*
X1127Y1003D02*
X1146Y1003D01*
X1176Y1003D02*
X1195Y1003D01*
X1227Y1003D02*
X1246Y1003D01*
X1275Y1003D02*
X1295Y1003D01*
X1327Y1003D02*
X1346Y1003D01*
X1375Y1003D02*
X1395Y1003D01*
X1427Y1003D02*
X1446Y1003D01*
X1475Y1003D02*
X1495Y1003D01*
X1527Y1003D02*
X1546Y1003D01*
X1575Y1003D02*
X1595Y1003D01*
X1627Y1003D02*
X1646Y1003D01*
X1675Y1003D02*
X1695Y1003D01*
X1727Y1003D02*
X1746Y1003D01*
X1775Y1003D02*
X1795Y1003D01*
X1827Y1003D02*
X1846Y1003D01*
X1875Y1003D02*
X1895Y1003D01*
X627Y1002D02*
X646Y1002D01*
X675Y1002D02*
X695Y1002D01*
X727Y1002D02*
X746Y1002D01*
X775Y1002D02*
X795Y1002D01*
X827Y1002D02*
X846Y1002D01*
X875Y1002D02*
X895Y1002D01*
X927Y1002D02*
X946Y1002D01*
X975Y1002D02*
X995Y1002D01*
X1027Y1002D02*
X1046Y1002D01*
X1075Y1002D02*
X1095Y1002D01*
X1127Y1002D02*
X1146Y1002D01*
X1175Y1002D02*
X1194Y1002D01*
X1227Y1002D02*
X1246Y1002D01*
X1275Y1002D02*
X1294Y1002D01*
X1327Y1002D02*
X1346Y1002D01*
X1375Y1002D02*
X1394Y1002D01*
X1427Y1002D02*
X1446Y1002D01*
X1475Y1002D02*
X1494Y1002D01*
X1527Y1002D02*
X1546Y1002D01*
X1575Y1002D02*
X1594Y1002D01*
X1627Y1002D02*
X1646Y1002D01*
X1675Y1002D02*
X1694Y1002D01*
X1727Y1002D02*
X1746Y1002D01*
X1775Y1002D02*
X1794Y1002D01*
X1827Y1002D02*
X1846Y1002D01*
X1875Y1002D02*
X1894Y1002D01*
X627Y1001D02*
X647Y1001D01*
X675Y1001D02*
X694Y1001D01*
X727Y1001D02*
X747Y1001D01*
X775Y1001D02*
X794Y1001D01*
X827Y1001D02*
X847Y1001D01*
X875Y1001D02*
X894Y1001D01*
X927Y1001D02*
X947Y1001D01*
X975Y1001D02*
X994Y1001D01*
X1027Y1001D02*
X1047Y1001D01*
X1075Y1001D02*
X1094Y1001D01*
X1127Y1001D02*
X1147Y1001D01*
X1175Y1001D02*
X1194Y1001D01*
X1227Y1001D02*
X1247Y1001D01*
X1275Y1001D02*
X1294Y1001D01*
X1327Y1001D02*
X1347Y1001D01*
X1375Y1001D02*
X1394Y1001D01*
X1427Y1001D02*
X1447Y1001D01*
X1475Y1001D02*
X1494Y1001D01*
X1527Y1001D02*
X1547Y1001D01*
X1575Y1001D02*
X1594Y1001D01*
X1627Y1001D02*
X1647Y1001D01*
X1675Y1001D02*
X1694Y1001D01*
X1727Y1001D02*
X1747Y1001D01*
X1775Y1001D02*
X1794Y1001D01*
X1827Y1001D02*
X1847Y1001D01*
X1875Y1001D02*
X1894Y1001D01*
X628Y1000D02*
X647Y1000D01*
X674Y1000D02*
X694Y1000D01*
X728Y1000D02*
X747Y1000D01*
X774Y1000D02*
X794Y1000D01*
X828Y1000D02*
X847Y1000D01*
X874Y1000D02*
X894Y1000D01*
X928Y1000D02*
X947Y1000D01*
X974Y1000D02*
X994Y1000D01*
X1028Y1000D02*
X1047Y1000D01*
X1074Y1000D02*
X1094Y1000D01*
X1128Y1000D02*
X1147Y1000D01*
X1174Y1000D02*
X1194Y1000D01*
X1227Y1000D02*
X1247Y1000D01*
X1274Y1000D02*
X1294Y1000D01*
X1327Y1000D02*
X1347Y1000D01*
X1374Y1000D02*
X1394Y1000D01*
X1427Y1000D02*
X1447Y1000D01*
X1474Y1000D02*
X1494Y1000D01*
X1527Y1000D02*
X1547Y1000D01*
X1574Y1000D02*
X1594Y1000D01*
X1627Y1000D02*
X1647Y1000D01*
X1674Y1000D02*
X1694Y1000D01*
X1727Y1000D02*
X1747Y1000D01*
X1774Y1000D02*
X1794Y1000D01*
X1827Y1000D02*
X1847Y1000D01*
X1874Y1000D02*
X1894Y1000D01*
X628Y999D02*
X648Y999D01*
X674Y999D02*
X694Y999D01*
X728Y999D02*
X748Y999D01*
X774Y999D02*
X794Y999D01*
X828Y999D02*
X848Y999D01*
X874Y999D02*
X894Y999D01*
X928Y999D02*
X948Y999D01*
X974Y999D02*
X994Y999D01*
X1028Y999D02*
X1048Y999D01*
X1074Y999D02*
X1094Y999D01*
X1128Y999D02*
X1148Y999D01*
X1174Y999D02*
X1194Y999D01*
X1228Y999D02*
X1248Y999D01*
X1274Y999D02*
X1294Y999D01*
X1328Y999D02*
X1348Y999D01*
X1374Y999D02*
X1394Y999D01*
X1428Y999D02*
X1448Y999D01*
X1474Y999D02*
X1494Y999D01*
X1528Y999D02*
X1548Y999D01*
X1574Y999D02*
X1594Y999D01*
X1628Y999D02*
X1648Y999D01*
X1674Y999D02*
X1694Y999D01*
X1728Y999D02*
X1748Y999D01*
X1774Y999D02*
X1794Y999D01*
X1828Y999D02*
X1848Y999D01*
X1874Y999D02*
X1894Y999D01*
X628Y998D02*
X649Y998D01*
X673Y998D02*
X693Y998D01*
X728Y998D02*
X749Y998D01*
X773Y998D02*
X793Y998D01*
X828Y998D02*
X849Y998D01*
X873Y998D02*
X893Y998D01*
X928Y998D02*
X949Y998D01*
X973Y998D02*
X993Y998D01*
X1028Y998D02*
X1049Y998D01*
X1073Y998D02*
X1093Y998D01*
X1128Y998D02*
X1149Y998D01*
X1173Y998D02*
X1193Y998D01*
X1228Y998D02*
X1249Y998D01*
X1273Y998D02*
X1293Y998D01*
X1328Y998D02*
X1349Y998D01*
X1373Y998D02*
X1393Y998D01*
X1428Y998D02*
X1449Y998D01*
X1473Y998D02*
X1493Y998D01*
X1528Y998D02*
X1549Y998D01*
X1573Y998D02*
X1593Y998D01*
X1628Y998D02*
X1649Y998D01*
X1673Y998D02*
X1693Y998D01*
X1728Y998D02*
X1748Y998D01*
X1773Y998D02*
X1793Y998D01*
X1828Y998D02*
X1848Y998D01*
X1873Y998D02*
X1893Y998D01*
X629Y997D02*
X650Y997D01*
X672Y997D02*
X693Y997D01*
X729Y997D02*
X750Y997D01*
X772Y997D02*
X793Y997D01*
X829Y997D02*
X850Y997D01*
X872Y997D02*
X893Y997D01*
X929Y997D02*
X950Y997D01*
X972Y997D02*
X993Y997D01*
X1029Y997D02*
X1050Y997D01*
X1072Y997D02*
X1093Y997D01*
X1129Y997D02*
X1150Y997D01*
X1172Y997D02*
X1193Y997D01*
X1229Y997D02*
X1250Y997D01*
X1272Y997D02*
X1293Y997D01*
X1329Y997D02*
X1350Y997D01*
X1372Y997D02*
X1393Y997D01*
X1428Y997D02*
X1450Y997D01*
X1472Y997D02*
X1493Y997D01*
X1528Y997D02*
X1550Y997D01*
X1572Y997D02*
X1593Y997D01*
X1628Y997D02*
X1649Y997D01*
X1672Y997D02*
X1693Y997D01*
X1728Y997D02*
X1749Y997D01*
X1772Y997D02*
X1793Y997D01*
X1828Y997D02*
X1849Y997D01*
X1872Y997D02*
X1893Y997D01*
X629Y996D02*
X651Y996D01*
X671Y996D02*
X693Y996D01*
X729Y996D02*
X751Y996D01*
X771Y996D02*
X793Y996D01*
X829Y996D02*
X851Y996D01*
X871Y996D02*
X893Y996D01*
X929Y996D02*
X951Y996D01*
X971Y996D02*
X993Y996D01*
X1029Y996D02*
X1051Y996D01*
X1071Y996D02*
X1093Y996D01*
X1129Y996D02*
X1151Y996D01*
X1171Y996D02*
X1193Y996D01*
X1229Y996D02*
X1251Y996D01*
X1271Y996D02*
X1292Y996D01*
X1329Y996D02*
X1351Y996D01*
X1371Y996D02*
X1392Y996D01*
X1429Y996D02*
X1451Y996D01*
X1471Y996D02*
X1492Y996D01*
X1529Y996D02*
X1551Y996D01*
X1571Y996D02*
X1592Y996D01*
X1629Y996D02*
X1651Y996D01*
X1671Y996D02*
X1692Y996D01*
X1729Y996D02*
X1751Y996D01*
X1771Y996D02*
X1792Y996D01*
X1829Y996D02*
X1851Y996D01*
X1871Y996D02*
X1892Y996D01*
X629Y995D02*
X653Y995D01*
X669Y995D02*
X692Y995D01*
X729Y995D02*
X753Y995D01*
X769Y995D02*
X792Y995D01*
X829Y995D02*
X853Y995D01*
X869Y995D02*
X892Y995D01*
X929Y995D02*
X953Y995D01*
X969Y995D02*
X992Y995D01*
X1029Y995D02*
X1053Y995D01*
X1069Y995D02*
X1092Y995D01*
X1129Y995D02*
X1153Y995D01*
X1169Y995D02*
X1192Y995D01*
X1229Y995D02*
X1253Y995D01*
X1269Y995D02*
X1292Y995D01*
X1329Y995D02*
X1353Y995D01*
X1369Y995D02*
X1392Y995D01*
X1429Y995D02*
X1453Y995D01*
X1469Y995D02*
X1492Y995D01*
X1529Y995D02*
X1553Y995D01*
X1569Y995D02*
X1592Y995D01*
X1629Y995D02*
X1653Y995D01*
X1669Y995D02*
X1692Y995D01*
X1729Y995D02*
X1753Y995D01*
X1769Y995D02*
X1792Y995D01*
X1829Y995D02*
X1853Y995D01*
X1869Y995D02*
X1892Y995D01*
X630Y994D02*
X656Y994D01*
X666Y994D02*
X692Y994D01*
X730Y994D02*
X756Y994D01*
X766Y994D02*
X792Y994D01*
X830Y994D02*
X856Y994D01*
X866Y994D02*
X892Y994D01*
X930Y994D02*
X956Y994D01*
X966Y994D02*
X992Y994D01*
X1030Y994D02*
X1056Y994D01*
X1066Y994D02*
X1092Y994D01*
X1130Y994D02*
X1156Y994D01*
X1166Y994D02*
X1192Y994D01*
X1230Y994D02*
X1256Y994D01*
X1266Y994D02*
X1292Y994D01*
X1330Y994D02*
X1356Y994D01*
X1366Y994D02*
X1392Y994D01*
X1430Y994D02*
X1456Y994D01*
X1466Y994D02*
X1492Y994D01*
X1530Y994D02*
X1556Y994D01*
X1566Y994D02*
X1592Y994D01*
X1630Y994D02*
X1656Y994D01*
X1666Y994D02*
X1691Y994D01*
X1730Y994D02*
X1756Y994D01*
X1766Y994D02*
X1791Y994D01*
X1830Y994D02*
X1856Y994D01*
X1866Y994D02*
X1891Y994D01*
X631Y993D02*
X691Y993D01*
X730Y993D02*
X791Y993D01*
X830Y993D02*
X891Y993D01*
X930Y993D02*
X991Y993D01*
X1030Y993D02*
X1091Y993D01*
X1130Y993D02*
X1191Y993D01*
X1230Y993D02*
X1291Y993D01*
X1330Y993D02*
X1391Y993D01*
X1430Y993D02*
X1491Y993D01*
X1530Y993D02*
X1591Y993D01*
X1630Y993D02*
X1691Y993D01*
X1730Y993D02*
X1791Y993D01*
X1830Y993D02*
X1891Y993D01*
X631Y992D02*
X691Y992D01*
X731Y992D02*
X791Y992D01*
X831Y992D02*
X890Y992D01*
X931Y992D02*
X990Y992D01*
X1031Y992D02*
X1090Y992D01*
X1131Y992D02*
X1190Y992D01*
X1231Y992D02*
X1290Y992D01*
X1331Y992D02*
X1390Y992D01*
X1431Y992D02*
X1490Y992D01*
X1531Y992D02*
X1590Y992D01*
X1631Y992D02*
X1690Y992D01*
X1731Y992D02*
X1790Y992D01*
X1831Y992D02*
X1890Y992D01*
X632Y991D02*
X690Y991D01*
X732Y991D02*
X790Y991D01*
X832Y991D02*
X890Y991D01*
X932Y991D02*
X990Y991D01*
X1032Y991D02*
X1090Y991D01*
X1132Y991D02*
X1190Y991D01*
X1232Y991D02*
X1290Y991D01*
X1332Y991D02*
X1390Y991D01*
X1432Y991D02*
X1490Y991D01*
X1532Y991D02*
X1590Y991D01*
X1632Y991D02*
X1690Y991D01*
X1732Y991D02*
X1790Y991D01*
X1832Y991D02*
X1890Y991D01*
X632Y990D02*
X689Y990D01*
X732Y990D02*
X789Y990D01*
X832Y990D02*
X889Y990D01*
X932Y990D02*
X989Y990D01*
X1032Y990D02*
X1089Y990D01*
X1132Y990D02*
X1189Y990D01*
X1232Y990D02*
X1289Y990D01*
X1332Y990D02*
X1389Y990D01*
X1432Y990D02*
X1489Y990D01*
X1532Y990D02*
X1589Y990D01*
X1632Y990D02*
X1689Y990D01*
X1732Y990D02*
X1789Y990D01*
X1832Y990D02*
X1889Y990D01*
X633Y989D02*
X689Y989D01*
X733Y989D02*
X789Y989D01*
X833Y989D02*
X889Y989D01*
X933Y989D02*
X988Y989D01*
X1033Y989D02*
X1088Y989D01*
X1133Y989D02*
X1188Y989D01*
X1233Y989D02*
X1288Y989D01*
X1333Y989D02*
X1388Y989D01*
X1433Y989D02*
X1488Y989D01*
X1533Y989D02*
X1588Y989D01*
X1633Y989D02*
X1688Y989D01*
X1733Y989D02*
X1788Y989D01*
X1833Y989D02*
X1888Y989D01*
X634Y988D02*
X688Y988D01*
X734Y988D02*
X788Y988D01*
X834Y988D02*
X888Y988D01*
X934Y988D02*
X988Y988D01*
X1034Y988D02*
X1088Y988D01*
X1134Y988D02*
X1188Y988D01*
X1234Y988D02*
X1288Y988D01*
X1334Y988D02*
X1388Y988D01*
X1434Y988D02*
X1488Y988D01*
X1534Y988D02*
X1588Y988D01*
X1634Y988D02*
X1688Y988D01*
X1734Y988D02*
X1788Y988D01*
X1834Y988D02*
X1888Y988D01*
X635Y987D02*
X687Y987D01*
X735Y987D02*
X787Y987D01*
X835Y987D02*
X887Y987D01*
X935Y987D02*
X987Y987D01*
X1035Y987D02*
X1087Y987D01*
X1135Y987D02*
X1187Y987D01*
X1235Y987D02*
X1287Y987D01*
X1335Y987D02*
X1387Y987D01*
X1434Y987D02*
X1487Y987D01*
X1534Y987D02*
X1587Y987D01*
X1634Y987D02*
X1687Y987D01*
X1734Y987D02*
X1787Y987D01*
X1834Y987D02*
X1887Y987D01*
X635Y986D02*
X686Y986D01*
X735Y986D02*
X786Y986D01*
X835Y986D02*
X886Y986D01*
X935Y986D02*
X986Y986D01*
X1035Y986D02*
X1086Y986D01*
X1135Y986D02*
X1186Y986D01*
X1235Y986D02*
X1286Y986D01*
X1335Y986D02*
X1386Y986D01*
X1435Y986D02*
X1486Y986D01*
X1535Y986D02*
X1586Y986D01*
X1635Y986D02*
X1686Y986D01*
X1735Y986D02*
X1786Y986D01*
X1835Y986D02*
X1886Y986D01*
X636Y985D02*
X685Y985D01*
X736Y985D02*
X785Y985D01*
X836Y985D02*
X885Y985D01*
X936Y985D02*
X985Y985D01*
X1036Y985D02*
X1085Y985D01*
X1136Y985D02*
X1185Y985D01*
X1236Y985D02*
X1285Y985D01*
X1336Y985D02*
X1385Y985D01*
X1436Y985D02*
X1485Y985D01*
X1536Y985D02*
X1585Y985D01*
X1636Y985D02*
X1685Y985D01*
X1736Y985D02*
X1785Y985D01*
X1836Y985D02*
X1885Y985D01*
X637Y984D02*
X684Y984D01*
X737Y984D02*
X784Y984D01*
X837Y984D02*
X884Y984D01*
X937Y984D02*
X984Y984D01*
X1037Y984D02*
X1084Y984D01*
X1137Y984D02*
X1184Y984D01*
X1237Y984D02*
X1284Y984D01*
X1337Y984D02*
X1384Y984D01*
X1437Y984D02*
X1484Y984D01*
X1537Y984D02*
X1584Y984D01*
X1637Y984D02*
X1684Y984D01*
X1737Y984D02*
X1784Y984D01*
X1837Y984D02*
X1884Y984D01*
X638Y983D02*
X683Y983D01*
X738Y983D02*
X783Y983D01*
X838Y983D02*
X883Y983D01*
X938Y983D02*
X983Y983D01*
X1038Y983D02*
X1083Y983D01*
X1138Y983D02*
X1183Y983D01*
X1238Y983D02*
X1283Y983D01*
X1338Y983D02*
X1383Y983D01*
X1438Y983D02*
X1483Y983D01*
X1538Y983D02*
X1583Y983D01*
X1638Y983D02*
X1683Y983D01*
X1738Y983D02*
X1783Y983D01*
X1838Y983D02*
X1883Y983D01*
X640Y982D02*
X682Y982D01*
X740Y982D02*
X782Y982D01*
X840Y982D02*
X882Y982D01*
X940Y982D02*
X982Y982D01*
X1040Y982D02*
X1082Y982D01*
X1140Y982D02*
X1182Y982D01*
X1240Y982D02*
X1282Y982D01*
X1339Y982D02*
X1382Y982D01*
X1439Y982D02*
X1482Y982D01*
X1539Y982D02*
X1582Y982D01*
X1639Y982D02*
X1682Y982D01*
X1739Y982D02*
X1782Y982D01*
X1839Y982D02*
X1882Y982D01*
X641Y981D02*
X681Y981D01*
X741Y981D02*
X781Y981D01*
X841Y981D02*
X881Y981D01*
X941Y981D02*
X981Y981D01*
X1041Y981D02*
X1081Y981D01*
X1141Y981D02*
X1181Y981D01*
X1241Y981D02*
X1281Y981D01*
X1341Y981D02*
X1381Y981D01*
X1441Y981D02*
X1481Y981D01*
X1541Y981D02*
X1581Y981D01*
X1641Y981D02*
X1681Y981D01*
X1741Y981D02*
X1781Y981D01*
X1841Y981D02*
X1881Y981D01*
X642Y980D02*
X679Y980D01*
X742Y980D02*
X779Y980D01*
X842Y980D02*
X879Y980D01*
X942Y980D02*
X979Y980D01*
X1042Y980D02*
X1079Y980D01*
X1142Y980D02*
X1179Y980D01*
X1242Y980D02*
X1279Y980D01*
X1342Y980D02*
X1379Y980D01*
X1442Y980D02*
X1479Y980D01*
X1542Y980D02*
X1579Y980D01*
X1642Y980D02*
X1679Y980D01*
X1742Y980D02*
X1779Y980D01*
X1842Y980D02*
X1879Y980D01*
X644Y979D02*
X678Y979D01*
X744Y979D02*
X778Y979D01*
X844Y979D02*
X878Y979D01*
X944Y979D02*
X978Y979D01*
X1044Y979D02*
X1078Y979D01*
X1144Y979D02*
X1178Y979D01*
X1244Y979D02*
X1278Y979D01*
X1344Y979D02*
X1378Y979D01*
X1444Y979D02*
X1478Y979D01*
X1544Y979D02*
X1578Y979D01*
X1644Y979D02*
X1678Y979D01*
X1744Y979D02*
X1778Y979D01*
X1843Y979D02*
X1878Y979D01*
X645Y978D02*
X676Y978D01*
X745Y978D02*
X776Y978D01*
X845Y978D02*
X876Y978D01*
X945Y978D02*
X976Y978D01*
X1045Y978D02*
X1076Y978D01*
X1145Y978D02*
X1176Y978D01*
X1245Y978D02*
X1276Y978D01*
X1345Y978D02*
X1376Y978D01*
X1445Y978D02*
X1476Y978D01*
X1545Y978D02*
X1576Y978D01*
X1645Y978D02*
X1676Y978D01*
X1745Y978D02*
X1776Y978D01*
X1845Y978D02*
X1876Y978D01*
X647Y977D02*
X674Y977D01*
X747Y977D02*
X774Y977D01*
X847Y977D02*
X874Y977D01*
X947Y977D02*
X974Y977D01*
X1047Y977D02*
X1074Y977D01*
X1147Y977D02*
X1174Y977D01*
X1247Y977D02*
X1274Y977D01*
X1347Y977D02*
X1374Y977D01*
X1447Y977D02*
X1474Y977D01*
X1547Y977D02*
X1574Y977D01*
X1647Y977D02*
X1674Y977D01*
X1747Y977D02*
X1774Y977D01*
X1847Y977D02*
X1874Y977D01*
X649Y976D02*
X672Y976D01*
X749Y976D02*
X772Y976D01*
X849Y976D02*
X872Y976D01*
X949Y976D02*
X972Y976D01*
X1049Y976D02*
X1072Y976D01*
X1149Y976D02*
X1172Y976D01*
X1249Y976D02*
X1272Y976D01*
X1349Y976D02*
X1372Y976D01*
X1449Y976D02*
X1472Y976D01*
X1549Y976D02*
X1572Y976D01*
X1649Y976D02*
X1672Y976D01*
X1749Y976D02*
X1772Y976D01*
X1849Y976D02*
X1872Y976D01*
X652Y975D02*
X669Y975D01*
X752Y975D02*
X769Y975D01*
X852Y975D02*
X869Y975D01*
X952Y975D02*
X969Y975D01*
X1052Y975D02*
X1069Y975D01*
X1152Y975D02*
X1169Y975D01*
X1252Y975D02*
X1269Y975D01*
X1352Y975D02*
X1369Y975D01*
X1452Y975D02*
X1469Y975D01*
X1552Y975D02*
X1569Y975D01*
X1652Y975D02*
X1669Y975D01*
X1752Y975D02*
X1769Y975D01*
X1852Y975D02*
X1869Y975D01*
X656Y974D02*
X665Y974D01*
X756Y974D02*
X765Y974D01*
X856Y974D02*
X865Y974D01*
X956Y974D02*
X965Y974D01*
X1056Y974D02*
X1065Y974D01*
X1156Y974D02*
X1165Y974D01*
X1256Y974D02*
X1265Y974D01*
X1356Y974D02*
X1365Y974D01*
X1456Y974D02*
X1465Y974D01*
X1556Y974D02*
X1565Y974D01*
X1656Y974D02*
X1665Y974D01*
X1756Y974D02*
X1765Y974D01*
X1856Y974D02*
X1865Y974D01*
D02*
G04 End of Copper0*
M02*