G04 MADE WITH FRITZING*
G04 WWW.FRITZING.ORG*
G04 DOUBLE SIDED*
G04 HOLES PLATED*
G04 CONTOUR ON CENTER OF CONTOUR VECTOR*
%ASAXBY*%
%FSLAX23Y23*%
%MOIN*%
%OFA0B0*%
%SFA1.0B1.0*%
%ADD10C,0.075000*%
%ADD11C,0.099000*%
%ADD12C,0.073889*%
%ADD13C,0.070000*%
%ADD14C,0.039370*%
%ADD15R,0.075000X0.075000*%
%ADD16R,0.099000X0.099000*%
%ADD17R,0.035433X0.031496*%
%ADD18R,0.062992X0.074803*%
%ADD19R,0.074803X0.062992*%
%ADD20R,0.070000X0.070000*%
%ADD21C,0.024000*%
%ADD22C,0.008000*%
%ADD23R,0.001000X0.001000*%
%LNCOPPER1*%
G90*
G70*
G54D10*
X628Y1595D03*
X916Y1592D03*
X1753Y1737D03*
X1151Y885D03*
X134Y1735D03*
X234Y1735D03*
X334Y1735D03*
X434Y1735D03*
X534Y1735D03*
X634Y1735D03*
X734Y1735D03*
X834Y1735D03*
X934Y1735D03*
X1034Y1735D03*
X1134Y1735D03*
X1234Y1735D03*
X1334Y1735D03*
X1434Y1735D03*
X1534Y1735D03*
X1634Y1735D03*
G54D11*
X273Y1514D03*
X473Y1514D03*
X373Y1314D03*
G54D10*
X142Y326D03*
X398Y326D03*
X142Y149D03*
X398Y149D03*
X615Y326D03*
X871Y326D03*
X615Y149D03*
X871Y149D03*
X2153Y176D03*
X2053Y176D03*
X1953Y176D03*
X1087Y326D03*
X1343Y326D03*
X1087Y149D03*
X1343Y149D03*
X1560Y326D03*
X1815Y326D03*
X1560Y149D03*
X1815Y149D03*
G54D12*
X259Y845D03*
X259Y945D03*
X259Y1045D03*
X259Y1145D03*
G54D13*
X861Y1007D03*
X961Y1007D03*
X1061Y1007D03*
X1361Y1007D03*
X1461Y1007D03*
X1561Y1007D03*
X1161Y1007D03*
X1261Y1007D03*
X1761Y1007D03*
X1861Y1007D03*
X1661Y1007D03*
X861Y1107D03*
X961Y1107D03*
X1061Y1107D03*
X1361Y1107D03*
X1461Y1107D03*
X1561Y1107D03*
X1161Y1107D03*
X1261Y1107D03*
X1761Y1107D03*
X1861Y1107D03*
X1661Y1107D03*
X661Y1107D03*
X761Y1107D03*
X661Y1007D03*
X761Y1007D03*
G54D14*
X323Y617D03*
X658Y617D03*
X1910Y838D03*
X611Y1275D03*
X1363Y1216D03*
X1457Y1219D03*
X2012Y1558D03*
X1123Y1352D03*
X356Y1195D03*
G54D15*
X133Y1736D03*
G54D16*
X473Y1514D03*
G54D17*
X1815Y1483D03*
X1815Y1558D03*
X1737Y1521D03*
G54D18*
X2111Y404D03*
X1989Y404D03*
G54D19*
X1910Y1483D03*
X1910Y1361D03*
G54D15*
X1953Y176D03*
G54D20*
X661Y1007D03*
G54D21*
X962Y981D02*
X963Y960D01*
D02*
X963Y960D02*
X1099Y783D01*
D02*
X1099Y783D02*
X1879Y783D01*
D02*
X1988Y669D02*
X1989Y436D01*
D02*
X1879Y783D02*
X1988Y669D01*
D02*
X454Y1539D02*
X374Y1645D01*
D02*
X481Y1825D02*
X519Y1760D01*
D02*
X188Y1826D02*
X481Y1825D01*
D02*
X148Y1760D02*
X188Y1826D01*
D02*
X678Y1825D02*
X718Y1760D01*
D02*
X589Y1827D02*
X678Y1825D01*
D02*
X548Y1760D02*
X589Y1827D01*
D02*
X762Y1735D02*
X805Y1735D01*
D02*
X862Y1735D02*
X905Y1735D01*
D02*
X962Y1735D02*
X1005Y1735D01*
D02*
X1729Y1531D02*
X1633Y1657D01*
D02*
X571Y1196D02*
X792Y1196D01*
D02*
X473Y1483D02*
X473Y1270D01*
D02*
X473Y1270D02*
X571Y1196D01*
D02*
X792Y1196D02*
X845Y1128D01*
G54D22*
D02*
X1016Y1059D02*
X910Y1058D01*
D02*
X910Y1058D02*
X876Y1093D01*
D02*
X1048Y1023D02*
X1016Y1059D01*
G54D21*
D02*
X639Y617D02*
X342Y617D01*
D02*
X658Y636D02*
X661Y981D01*
D02*
X654Y1715D02*
X1081Y1288D01*
D02*
X1081Y1288D02*
X1513Y1286D01*
D02*
X1513Y1286D02*
X1645Y1127D01*
D02*
X1828Y1483D02*
X1878Y1483D01*
D02*
X1587Y1424D02*
X1799Y1175D01*
D02*
X1934Y1175D02*
X1934Y940D01*
D02*
X1934Y940D02*
X1603Y939D01*
D02*
X1603Y939D02*
X1575Y985D01*
D02*
X1984Y1239D02*
X1984Y892D01*
D02*
X1984Y892D02*
X1347Y888D01*
D02*
X1347Y888D02*
X1277Y986D01*
D02*
X1153Y1714D02*
X1422Y1424D01*
D02*
X1352Y1713D02*
X1559Y1473D01*
G54D22*
D02*
X1319Y1059D02*
X1277Y1094D01*
D02*
X1508Y1059D02*
X1319Y1059D01*
D02*
X1546Y1093D02*
X1508Y1059D01*
G54D21*
D02*
X1470Y1206D02*
X1544Y1126D01*
D02*
X1828Y1558D02*
X1993Y1558D01*
D02*
X635Y1108D02*
X461Y1109D01*
D02*
X260Y842D02*
X358Y916D01*
D02*
X189Y893D02*
X260Y842D01*
D02*
X189Y1192D02*
X189Y893D01*
D02*
X272Y1282D02*
X189Y1192D01*
D02*
X273Y1483D02*
X272Y1282D01*
D02*
X2111Y373D02*
X2112Y282D01*
D02*
X1942Y1359D02*
X1984Y1356D01*
D02*
X630Y1275D02*
X827Y1275D01*
D02*
X827Y1275D02*
X945Y1128D01*
D02*
X1344Y1215D02*
X1237Y1215D01*
D02*
X2039Y201D02*
X1989Y286D01*
D02*
X1989Y286D02*
X1989Y373D01*
D02*
X1843Y154D02*
X1925Y171D01*
D02*
X292Y1152D02*
X300Y1154D01*
D02*
X473Y1270D02*
X473Y1483D01*
D02*
X358Y1037D02*
X461Y1105D01*
D02*
X461Y1105D02*
X635Y1107D01*
D02*
X358Y916D02*
X358Y1037D01*
D02*
X358Y917D02*
X287Y865D01*
D02*
X358Y1042D02*
X358Y917D01*
D02*
X461Y1109D02*
X358Y1042D01*
D02*
X2112Y282D02*
X2143Y203D01*
D02*
X197Y1645D02*
X150Y1712D01*
D02*
X374Y1645D02*
X197Y1645D01*
D02*
X300Y1154D02*
X341Y1184D01*
D02*
X1237Y1215D02*
X1176Y1129D01*
D02*
X1744Y1127D02*
X1555Y1350D01*
D02*
X1555Y1350D02*
X1142Y1352D01*
D02*
X1799Y1175D02*
X1934Y1175D01*
D02*
X1422Y1424D02*
X1587Y1424D01*
D02*
X1862Y1239D02*
X1984Y1239D01*
D02*
X1655Y1473D02*
X1862Y1239D01*
D02*
X1559Y1473D02*
X1655Y1473D01*
D02*
X1984Y1356D02*
X2047Y1276D01*
D02*
X2047Y838D02*
X1929Y838D01*
D02*
X1633Y1657D02*
X1634Y1707D01*
D02*
X2047Y1276D02*
X2047Y838D01*
D02*
X372Y1205D02*
X473Y1270D01*
G54D22*
D02*
X1111Y1058D02*
X1213Y1058D01*
D02*
X1213Y1058D02*
X1247Y1093D01*
D02*
X1076Y1022D02*
X1111Y1058D01*
G36*
X273Y1679D02*
X273Y1677D01*
X269Y1677D01*
X269Y1675D01*
X267Y1675D01*
X267Y1673D01*
X263Y1673D01*
X263Y1671D01*
X259Y1671D01*
X259Y1669D01*
X253Y1669D01*
X253Y1667D01*
X313Y1667D01*
X313Y1669D01*
X307Y1669D01*
X307Y1671D01*
X303Y1671D01*
X303Y1673D01*
X299Y1673D01*
X299Y1675D01*
X297Y1675D01*
X297Y1677D01*
X293Y1677D01*
X293Y1679D01*
X273Y1679D01*
G37*
D02*
G36*
X373Y1679D02*
X373Y1677D01*
X371Y1677D01*
X371Y1675D01*
X367Y1675D01*
X367Y1673D01*
X363Y1673D01*
X363Y1671D01*
X359Y1671D01*
X359Y1669D01*
X353Y1669D01*
X353Y1667D01*
X413Y1667D01*
X413Y1669D01*
X407Y1669D01*
X407Y1671D01*
X403Y1671D01*
X403Y1673D01*
X399Y1673D01*
X399Y1675D01*
X397Y1675D01*
X397Y1677D01*
X393Y1677D01*
X393Y1679D01*
X373Y1679D01*
G37*
D02*
G36*
X473Y1679D02*
X473Y1677D01*
X471Y1677D01*
X471Y1675D01*
X467Y1675D01*
X467Y1673D01*
X463Y1673D01*
X463Y1671D01*
X459Y1671D01*
X459Y1669D01*
X453Y1669D01*
X453Y1667D01*
X513Y1667D01*
X513Y1669D01*
X507Y1669D01*
X507Y1671D01*
X503Y1671D01*
X503Y1673D01*
X499Y1673D01*
X499Y1675D01*
X497Y1675D01*
X497Y1677D01*
X493Y1677D01*
X493Y1679D01*
X473Y1679D01*
G37*
D02*
G36*
X573Y1679D02*
X573Y1677D01*
X571Y1677D01*
X571Y1675D01*
X567Y1675D01*
X567Y1673D01*
X563Y1673D01*
X563Y1671D01*
X559Y1671D01*
X559Y1669D01*
X553Y1669D01*
X553Y1667D01*
X613Y1667D01*
X613Y1669D01*
X607Y1669D01*
X607Y1671D01*
X603Y1671D01*
X603Y1673D01*
X599Y1673D01*
X599Y1675D01*
X597Y1675D01*
X597Y1677D01*
X593Y1677D01*
X593Y1679D01*
X573Y1679D01*
G37*
D02*
G36*
X125Y1667D02*
X125Y1665D01*
X637Y1665D01*
X637Y1667D01*
X125Y1667D01*
G37*
D02*
G36*
X125Y1667D02*
X125Y1665D01*
X637Y1665D01*
X637Y1667D01*
X125Y1667D01*
G37*
D02*
G36*
X125Y1667D02*
X125Y1665D01*
X637Y1665D01*
X637Y1667D01*
X125Y1667D01*
G37*
D02*
G36*
X125Y1667D02*
X125Y1665D01*
X637Y1665D01*
X637Y1667D01*
X125Y1667D01*
G37*
D02*
G36*
X125Y1665D02*
X125Y1597D01*
X553Y1597D01*
X553Y1595D01*
X555Y1595D01*
X555Y1435D01*
X553Y1435D01*
X553Y1433D01*
X869Y1433D01*
X869Y1435D01*
X867Y1435D01*
X867Y1437D01*
X865Y1437D01*
X865Y1439D01*
X863Y1439D01*
X863Y1441D01*
X861Y1441D01*
X861Y1443D01*
X859Y1443D01*
X859Y1445D01*
X857Y1445D01*
X857Y1447D01*
X855Y1447D01*
X855Y1449D01*
X853Y1449D01*
X853Y1451D01*
X851Y1451D01*
X851Y1453D01*
X849Y1453D01*
X849Y1455D01*
X847Y1455D01*
X847Y1457D01*
X845Y1457D01*
X845Y1459D01*
X843Y1459D01*
X843Y1461D01*
X841Y1461D01*
X841Y1463D01*
X839Y1463D01*
X839Y1465D01*
X837Y1465D01*
X837Y1467D01*
X835Y1467D01*
X835Y1469D01*
X833Y1469D01*
X833Y1471D01*
X831Y1471D01*
X831Y1473D01*
X829Y1473D01*
X829Y1475D01*
X827Y1475D01*
X827Y1477D01*
X825Y1477D01*
X825Y1479D01*
X823Y1479D01*
X823Y1481D01*
X821Y1481D01*
X821Y1483D01*
X819Y1483D01*
X819Y1485D01*
X817Y1485D01*
X817Y1487D01*
X815Y1487D01*
X815Y1489D01*
X813Y1489D01*
X813Y1491D01*
X811Y1491D01*
X811Y1493D01*
X809Y1493D01*
X809Y1495D01*
X807Y1495D01*
X807Y1497D01*
X805Y1497D01*
X805Y1499D01*
X803Y1499D01*
X803Y1501D01*
X801Y1501D01*
X801Y1503D01*
X799Y1503D01*
X799Y1505D01*
X797Y1505D01*
X797Y1507D01*
X795Y1507D01*
X795Y1509D01*
X793Y1509D01*
X793Y1511D01*
X791Y1511D01*
X791Y1513D01*
X789Y1513D01*
X789Y1515D01*
X787Y1515D01*
X787Y1517D01*
X785Y1517D01*
X785Y1519D01*
X783Y1519D01*
X783Y1521D01*
X781Y1521D01*
X781Y1523D01*
X779Y1523D01*
X779Y1525D01*
X777Y1525D01*
X777Y1527D01*
X775Y1527D01*
X775Y1529D01*
X773Y1529D01*
X773Y1531D01*
X771Y1531D01*
X771Y1533D01*
X769Y1533D01*
X769Y1535D01*
X767Y1535D01*
X767Y1537D01*
X765Y1537D01*
X765Y1539D01*
X763Y1539D01*
X763Y1541D01*
X761Y1541D01*
X761Y1543D01*
X759Y1543D01*
X759Y1545D01*
X757Y1545D01*
X757Y1547D01*
X755Y1547D01*
X755Y1549D01*
X753Y1549D01*
X753Y1551D01*
X751Y1551D01*
X751Y1553D01*
X749Y1553D01*
X749Y1555D01*
X747Y1555D01*
X747Y1557D01*
X745Y1557D01*
X745Y1559D01*
X743Y1559D01*
X743Y1561D01*
X741Y1561D01*
X741Y1563D01*
X739Y1563D01*
X739Y1565D01*
X737Y1565D01*
X737Y1567D01*
X735Y1567D01*
X735Y1569D01*
X733Y1569D01*
X733Y1571D01*
X731Y1571D01*
X731Y1573D01*
X729Y1573D01*
X729Y1575D01*
X727Y1575D01*
X727Y1577D01*
X725Y1577D01*
X725Y1579D01*
X723Y1579D01*
X723Y1581D01*
X721Y1581D01*
X721Y1583D01*
X719Y1583D01*
X719Y1585D01*
X717Y1585D01*
X717Y1587D01*
X715Y1587D01*
X715Y1589D01*
X713Y1589D01*
X713Y1591D01*
X711Y1591D01*
X711Y1593D01*
X709Y1593D01*
X709Y1595D01*
X707Y1595D01*
X707Y1597D01*
X705Y1597D01*
X705Y1599D01*
X703Y1599D01*
X703Y1601D01*
X701Y1601D01*
X701Y1603D01*
X699Y1603D01*
X699Y1605D01*
X697Y1605D01*
X697Y1607D01*
X695Y1607D01*
X695Y1609D01*
X693Y1609D01*
X693Y1611D01*
X691Y1611D01*
X691Y1613D01*
X689Y1613D01*
X689Y1615D01*
X687Y1615D01*
X687Y1617D01*
X685Y1617D01*
X685Y1619D01*
X683Y1619D01*
X683Y1621D01*
X681Y1621D01*
X681Y1623D01*
X679Y1623D01*
X679Y1625D01*
X677Y1625D01*
X677Y1627D01*
X675Y1627D01*
X675Y1629D01*
X673Y1629D01*
X673Y1631D01*
X671Y1631D01*
X671Y1633D01*
X669Y1633D01*
X669Y1635D01*
X667Y1635D01*
X667Y1637D01*
X665Y1637D01*
X665Y1639D01*
X663Y1639D01*
X663Y1641D01*
X661Y1641D01*
X661Y1643D01*
X659Y1643D01*
X659Y1645D01*
X657Y1645D01*
X657Y1647D01*
X655Y1647D01*
X655Y1649D01*
X653Y1649D01*
X653Y1651D01*
X651Y1651D01*
X651Y1653D01*
X649Y1653D01*
X649Y1655D01*
X647Y1655D01*
X647Y1657D01*
X645Y1657D01*
X645Y1659D01*
X643Y1659D01*
X643Y1661D01*
X641Y1661D01*
X641Y1663D01*
X639Y1663D01*
X639Y1665D01*
X125Y1665D01*
G37*
D02*
G36*
X125Y1597D02*
X125Y777D01*
X241Y777D01*
X241Y779D01*
X235Y779D01*
X235Y781D01*
X229Y781D01*
X229Y783D01*
X225Y783D01*
X225Y785D01*
X223Y785D01*
X223Y787D01*
X219Y787D01*
X219Y789D01*
X217Y789D01*
X217Y791D01*
X215Y791D01*
X215Y793D01*
X213Y793D01*
X213Y795D01*
X209Y795D01*
X209Y799D01*
X207Y799D01*
X207Y801D01*
X205Y801D01*
X205Y803D01*
X203Y803D01*
X203Y805D01*
X201Y805D01*
X201Y809D01*
X199Y809D01*
X199Y811D01*
X197Y811D01*
X197Y815D01*
X195Y815D01*
X195Y819D01*
X193Y819D01*
X193Y825D01*
X191Y825D01*
X191Y835D01*
X189Y835D01*
X189Y837D01*
X185Y837D01*
X185Y839D01*
X183Y839D01*
X183Y841D01*
X179Y841D01*
X179Y843D01*
X177Y843D01*
X177Y845D01*
X175Y845D01*
X175Y847D01*
X171Y847D01*
X171Y849D01*
X169Y849D01*
X169Y851D01*
X165Y851D01*
X165Y853D01*
X163Y853D01*
X163Y855D01*
X159Y855D01*
X159Y857D01*
X157Y857D01*
X157Y859D01*
X155Y859D01*
X155Y861D01*
X153Y861D01*
X153Y863D01*
X151Y863D01*
X151Y867D01*
X149Y867D01*
X149Y871D01*
X147Y871D01*
X147Y875D01*
X145Y875D01*
X145Y1209D01*
X147Y1209D01*
X147Y1215D01*
X149Y1215D01*
X149Y1219D01*
X151Y1219D01*
X151Y1221D01*
X153Y1221D01*
X153Y1225D01*
X155Y1225D01*
X155Y1227D01*
X157Y1227D01*
X157Y1229D01*
X159Y1229D01*
X159Y1231D01*
X161Y1231D01*
X161Y1233D01*
X163Y1233D01*
X163Y1235D01*
X165Y1235D01*
X165Y1237D01*
X167Y1237D01*
X167Y1239D01*
X169Y1239D01*
X169Y1241D01*
X171Y1241D01*
X171Y1243D01*
X173Y1243D01*
X173Y1245D01*
X175Y1245D01*
X175Y1249D01*
X177Y1249D01*
X177Y1251D01*
X179Y1251D01*
X179Y1253D01*
X181Y1253D01*
X181Y1255D01*
X183Y1255D01*
X183Y1257D01*
X185Y1257D01*
X185Y1259D01*
X187Y1259D01*
X187Y1261D01*
X189Y1261D01*
X189Y1263D01*
X191Y1263D01*
X191Y1265D01*
X193Y1265D01*
X193Y1267D01*
X195Y1267D01*
X195Y1269D01*
X197Y1269D01*
X197Y1273D01*
X199Y1273D01*
X199Y1275D01*
X201Y1275D01*
X201Y1277D01*
X203Y1277D01*
X203Y1279D01*
X205Y1279D01*
X205Y1281D01*
X207Y1281D01*
X207Y1283D01*
X209Y1283D01*
X209Y1285D01*
X211Y1285D01*
X211Y1287D01*
X213Y1287D01*
X213Y1289D01*
X215Y1289D01*
X215Y1291D01*
X217Y1291D01*
X217Y1293D01*
X219Y1293D01*
X219Y1297D01*
X221Y1297D01*
X221Y1299D01*
X223Y1299D01*
X223Y1301D01*
X225Y1301D01*
X225Y1303D01*
X227Y1303D01*
X227Y1421D01*
X229Y1421D01*
X229Y1447D01*
X225Y1447D01*
X225Y1449D01*
X223Y1449D01*
X223Y1451D01*
X221Y1451D01*
X221Y1453D01*
X219Y1453D01*
X219Y1455D01*
X217Y1455D01*
X217Y1457D01*
X215Y1457D01*
X215Y1459D01*
X213Y1459D01*
X213Y1461D01*
X211Y1461D01*
X211Y1463D01*
X209Y1463D01*
X209Y1465D01*
X207Y1465D01*
X207Y1467D01*
X205Y1467D01*
X205Y1471D01*
X203Y1471D01*
X203Y1473D01*
X201Y1473D01*
X201Y1477D01*
X199Y1477D01*
X199Y1481D01*
X197Y1481D01*
X197Y1485D01*
X195Y1485D01*
X195Y1491D01*
X193Y1491D01*
X193Y1499D01*
X191Y1499D01*
X191Y1531D01*
X193Y1531D01*
X193Y1539D01*
X195Y1539D01*
X195Y1545D01*
X197Y1545D01*
X197Y1549D01*
X199Y1549D01*
X199Y1553D01*
X201Y1553D01*
X201Y1557D01*
X203Y1557D01*
X203Y1559D01*
X205Y1559D01*
X205Y1561D01*
X207Y1561D01*
X207Y1565D01*
X209Y1565D01*
X209Y1567D01*
X211Y1567D01*
X211Y1569D01*
X213Y1569D01*
X213Y1571D01*
X215Y1571D01*
X215Y1573D01*
X217Y1573D01*
X217Y1575D01*
X219Y1575D01*
X219Y1577D01*
X221Y1577D01*
X221Y1579D01*
X223Y1579D01*
X223Y1581D01*
X227Y1581D01*
X227Y1583D01*
X229Y1583D01*
X229Y1585D01*
X233Y1585D01*
X233Y1587D01*
X235Y1587D01*
X235Y1589D01*
X239Y1589D01*
X239Y1591D01*
X245Y1591D01*
X245Y1593D01*
X251Y1593D01*
X251Y1595D01*
X261Y1595D01*
X261Y1597D01*
X125Y1597D01*
G37*
D02*
G36*
X283Y1597D02*
X283Y1595D01*
X295Y1595D01*
X295Y1593D01*
X301Y1593D01*
X301Y1591D01*
X305Y1591D01*
X305Y1589D01*
X309Y1589D01*
X309Y1587D01*
X313Y1587D01*
X313Y1585D01*
X317Y1585D01*
X317Y1583D01*
X319Y1583D01*
X319Y1581D01*
X321Y1581D01*
X321Y1579D01*
X325Y1579D01*
X325Y1577D01*
X327Y1577D01*
X327Y1575D01*
X329Y1575D01*
X329Y1573D01*
X331Y1573D01*
X331Y1571D01*
X333Y1571D01*
X333Y1569D01*
X335Y1569D01*
X335Y1565D01*
X337Y1565D01*
X337Y1563D01*
X339Y1563D01*
X339Y1561D01*
X341Y1561D01*
X341Y1557D01*
X343Y1557D01*
X343Y1555D01*
X345Y1555D01*
X345Y1551D01*
X347Y1551D01*
X347Y1547D01*
X349Y1547D01*
X349Y1543D01*
X351Y1543D01*
X351Y1537D01*
X353Y1537D01*
X353Y1525D01*
X355Y1525D01*
X355Y1505D01*
X353Y1505D01*
X353Y1493D01*
X351Y1493D01*
X351Y1487D01*
X349Y1487D01*
X349Y1483D01*
X347Y1483D01*
X347Y1479D01*
X345Y1479D01*
X345Y1475D01*
X343Y1475D01*
X343Y1471D01*
X341Y1471D01*
X341Y1469D01*
X339Y1469D01*
X339Y1465D01*
X337Y1465D01*
X337Y1463D01*
X335Y1463D01*
X335Y1461D01*
X333Y1461D01*
X333Y1459D01*
X331Y1459D01*
X331Y1457D01*
X329Y1457D01*
X329Y1455D01*
X327Y1455D01*
X327Y1453D01*
X325Y1453D01*
X325Y1451D01*
X323Y1451D01*
X323Y1449D01*
X319Y1449D01*
X319Y1447D01*
X317Y1447D01*
X317Y1433D01*
X391Y1433D01*
X391Y1597D01*
X283Y1597D01*
G37*
D02*
G36*
X317Y1433D02*
X317Y1431D01*
X871Y1431D01*
X871Y1433D01*
X317Y1433D01*
G37*
D02*
G36*
X317Y1433D02*
X317Y1431D01*
X871Y1431D01*
X871Y1433D01*
X317Y1433D01*
G37*
D02*
G36*
X317Y1431D02*
X317Y1405D01*
X315Y1405D01*
X315Y1397D01*
X383Y1397D01*
X383Y1395D01*
X395Y1395D01*
X395Y1393D01*
X401Y1393D01*
X401Y1391D01*
X405Y1391D01*
X405Y1389D01*
X409Y1389D01*
X409Y1387D01*
X413Y1387D01*
X413Y1385D01*
X417Y1385D01*
X417Y1383D01*
X419Y1383D01*
X419Y1381D01*
X421Y1381D01*
X421Y1379D01*
X425Y1379D01*
X425Y1377D01*
X427Y1377D01*
X427Y1375D01*
X429Y1375D01*
X429Y1373D01*
X431Y1373D01*
X431Y1371D01*
X433Y1371D01*
X433Y1369D01*
X435Y1369D01*
X435Y1365D01*
X437Y1365D01*
X437Y1363D01*
X439Y1363D01*
X439Y1361D01*
X441Y1361D01*
X441Y1357D01*
X443Y1357D01*
X443Y1355D01*
X445Y1355D01*
X445Y1351D01*
X447Y1351D01*
X447Y1347D01*
X449Y1347D01*
X449Y1343D01*
X451Y1343D01*
X451Y1337D01*
X453Y1337D01*
X453Y1327D01*
X623Y1327D01*
X623Y1325D01*
X629Y1325D01*
X629Y1323D01*
X635Y1323D01*
X635Y1321D01*
X637Y1321D01*
X637Y1319D01*
X845Y1319D01*
X845Y1317D01*
X849Y1317D01*
X849Y1315D01*
X853Y1315D01*
X853Y1313D01*
X857Y1313D01*
X857Y1311D01*
X859Y1311D01*
X859Y1309D01*
X861Y1309D01*
X861Y1307D01*
X863Y1307D01*
X863Y1305D01*
X865Y1305D01*
X865Y1301D01*
X867Y1301D01*
X867Y1299D01*
X869Y1299D01*
X869Y1297D01*
X871Y1297D01*
X871Y1295D01*
X873Y1295D01*
X873Y1291D01*
X875Y1291D01*
X875Y1289D01*
X877Y1289D01*
X877Y1287D01*
X879Y1287D01*
X879Y1285D01*
X881Y1285D01*
X881Y1281D01*
X883Y1281D01*
X883Y1279D01*
X885Y1279D01*
X885Y1277D01*
X887Y1277D01*
X887Y1275D01*
X889Y1275D01*
X889Y1271D01*
X891Y1271D01*
X891Y1269D01*
X893Y1269D01*
X893Y1267D01*
X895Y1267D01*
X895Y1265D01*
X897Y1265D01*
X897Y1261D01*
X899Y1261D01*
X899Y1259D01*
X901Y1259D01*
X901Y1257D01*
X903Y1257D01*
X903Y1255D01*
X905Y1255D01*
X905Y1251D01*
X907Y1251D01*
X907Y1249D01*
X909Y1249D01*
X909Y1247D01*
X911Y1247D01*
X911Y1245D01*
X913Y1245D01*
X913Y1241D01*
X915Y1241D01*
X915Y1239D01*
X917Y1239D01*
X917Y1237D01*
X919Y1237D01*
X919Y1235D01*
X921Y1235D01*
X921Y1231D01*
X923Y1231D01*
X923Y1229D01*
X925Y1229D01*
X925Y1227D01*
X927Y1227D01*
X927Y1225D01*
X929Y1225D01*
X929Y1221D01*
X931Y1221D01*
X931Y1219D01*
X933Y1219D01*
X933Y1217D01*
X935Y1217D01*
X935Y1215D01*
X937Y1215D01*
X937Y1211D01*
X939Y1211D01*
X939Y1209D01*
X941Y1209D01*
X941Y1207D01*
X943Y1207D01*
X943Y1205D01*
X945Y1205D01*
X945Y1201D01*
X947Y1201D01*
X947Y1199D01*
X949Y1199D01*
X949Y1197D01*
X951Y1197D01*
X951Y1195D01*
X953Y1195D01*
X953Y1191D01*
X955Y1191D01*
X955Y1189D01*
X957Y1189D01*
X957Y1187D01*
X959Y1187D01*
X959Y1185D01*
X961Y1185D01*
X961Y1181D01*
X963Y1181D01*
X963Y1179D01*
X965Y1179D01*
X965Y1177D01*
X967Y1177D01*
X967Y1175D01*
X1075Y1175D01*
X1075Y1173D01*
X1083Y1173D01*
X1083Y1171D01*
X1089Y1171D01*
X1089Y1169D01*
X1093Y1169D01*
X1093Y1167D01*
X1095Y1167D01*
X1095Y1165D01*
X1099Y1165D01*
X1099Y1163D01*
X1101Y1163D01*
X1101Y1161D01*
X1121Y1161D01*
X1121Y1163D01*
X1123Y1163D01*
X1123Y1165D01*
X1127Y1165D01*
X1127Y1167D01*
X1131Y1167D01*
X1131Y1169D01*
X1135Y1169D01*
X1135Y1171D01*
X1139Y1171D01*
X1139Y1173D01*
X1147Y1173D01*
X1147Y1175D01*
X1151Y1175D01*
X1151Y1177D01*
X1153Y1177D01*
X1153Y1179D01*
X1155Y1179D01*
X1155Y1181D01*
X1157Y1181D01*
X1157Y1185D01*
X1159Y1185D01*
X1159Y1187D01*
X1161Y1187D01*
X1161Y1191D01*
X1163Y1191D01*
X1163Y1193D01*
X1165Y1193D01*
X1165Y1197D01*
X1167Y1197D01*
X1167Y1199D01*
X1169Y1199D01*
X1169Y1201D01*
X1171Y1201D01*
X1171Y1205D01*
X1173Y1205D01*
X1173Y1207D01*
X1175Y1207D01*
X1175Y1211D01*
X1177Y1211D01*
X1177Y1213D01*
X1179Y1213D01*
X1179Y1217D01*
X1181Y1217D01*
X1181Y1219D01*
X1183Y1219D01*
X1183Y1221D01*
X1185Y1221D01*
X1185Y1243D01*
X1105Y1243D01*
X1105Y1245D01*
X1063Y1245D01*
X1063Y1247D01*
X1057Y1247D01*
X1057Y1249D01*
X1053Y1249D01*
X1053Y1251D01*
X1051Y1251D01*
X1051Y1253D01*
X1049Y1253D01*
X1049Y1255D01*
X1047Y1255D01*
X1047Y1257D01*
X1045Y1257D01*
X1045Y1259D01*
X1043Y1259D01*
X1043Y1261D01*
X1041Y1261D01*
X1041Y1263D01*
X1039Y1263D01*
X1039Y1265D01*
X1037Y1265D01*
X1037Y1267D01*
X1035Y1267D01*
X1035Y1269D01*
X1033Y1269D01*
X1033Y1271D01*
X1031Y1271D01*
X1031Y1273D01*
X1029Y1273D01*
X1029Y1275D01*
X1027Y1275D01*
X1027Y1277D01*
X1025Y1277D01*
X1025Y1279D01*
X1023Y1279D01*
X1023Y1281D01*
X1021Y1281D01*
X1021Y1283D01*
X1019Y1283D01*
X1019Y1285D01*
X1017Y1285D01*
X1017Y1287D01*
X1015Y1287D01*
X1015Y1289D01*
X1013Y1289D01*
X1013Y1291D01*
X1011Y1291D01*
X1011Y1293D01*
X1009Y1293D01*
X1009Y1295D01*
X1007Y1295D01*
X1007Y1297D01*
X1005Y1297D01*
X1005Y1299D01*
X1003Y1299D01*
X1003Y1301D01*
X1001Y1301D01*
X1001Y1303D01*
X999Y1303D01*
X999Y1305D01*
X997Y1305D01*
X997Y1307D01*
X995Y1307D01*
X995Y1309D01*
X993Y1309D01*
X993Y1311D01*
X991Y1311D01*
X991Y1313D01*
X989Y1313D01*
X989Y1315D01*
X987Y1315D01*
X987Y1317D01*
X985Y1317D01*
X985Y1319D01*
X983Y1319D01*
X983Y1321D01*
X981Y1321D01*
X981Y1323D01*
X979Y1323D01*
X979Y1325D01*
X977Y1325D01*
X977Y1327D01*
X975Y1327D01*
X975Y1329D01*
X973Y1329D01*
X973Y1331D01*
X971Y1331D01*
X971Y1333D01*
X969Y1333D01*
X969Y1335D01*
X967Y1335D01*
X967Y1337D01*
X965Y1337D01*
X965Y1339D01*
X963Y1339D01*
X963Y1341D01*
X961Y1341D01*
X961Y1343D01*
X959Y1343D01*
X959Y1345D01*
X957Y1345D01*
X957Y1347D01*
X955Y1347D01*
X955Y1349D01*
X953Y1349D01*
X953Y1351D01*
X951Y1351D01*
X951Y1353D01*
X949Y1353D01*
X949Y1355D01*
X947Y1355D01*
X947Y1357D01*
X945Y1357D01*
X945Y1359D01*
X943Y1359D01*
X943Y1361D01*
X941Y1361D01*
X941Y1363D01*
X939Y1363D01*
X939Y1365D01*
X937Y1365D01*
X937Y1367D01*
X935Y1367D01*
X935Y1369D01*
X933Y1369D01*
X933Y1371D01*
X931Y1371D01*
X931Y1373D01*
X929Y1373D01*
X929Y1375D01*
X927Y1375D01*
X927Y1377D01*
X925Y1377D01*
X925Y1379D01*
X923Y1379D01*
X923Y1381D01*
X921Y1381D01*
X921Y1383D01*
X919Y1383D01*
X919Y1385D01*
X917Y1385D01*
X917Y1387D01*
X915Y1387D01*
X915Y1389D01*
X913Y1389D01*
X913Y1391D01*
X911Y1391D01*
X911Y1393D01*
X909Y1393D01*
X909Y1395D01*
X907Y1395D01*
X907Y1397D01*
X905Y1397D01*
X905Y1399D01*
X903Y1399D01*
X903Y1401D01*
X901Y1401D01*
X901Y1403D01*
X899Y1403D01*
X899Y1405D01*
X897Y1405D01*
X897Y1407D01*
X895Y1407D01*
X895Y1409D01*
X893Y1409D01*
X893Y1411D01*
X891Y1411D01*
X891Y1413D01*
X889Y1413D01*
X889Y1415D01*
X887Y1415D01*
X887Y1417D01*
X885Y1417D01*
X885Y1419D01*
X883Y1419D01*
X883Y1421D01*
X881Y1421D01*
X881Y1423D01*
X879Y1423D01*
X879Y1425D01*
X877Y1425D01*
X877Y1427D01*
X875Y1427D01*
X875Y1429D01*
X873Y1429D01*
X873Y1431D01*
X317Y1431D01*
G37*
D02*
G36*
X315Y1397D02*
X315Y1387D01*
X335Y1387D01*
X335Y1389D01*
X339Y1389D01*
X339Y1391D01*
X345Y1391D01*
X345Y1393D01*
X351Y1393D01*
X351Y1395D01*
X361Y1395D01*
X361Y1397D01*
X315Y1397D01*
G37*
D02*
G36*
X453Y1327D02*
X453Y1325D01*
X455Y1325D01*
X455Y1305D01*
X453Y1305D01*
X453Y1293D01*
X451Y1293D01*
X451Y1287D01*
X449Y1287D01*
X449Y1283D01*
X447Y1283D01*
X447Y1279D01*
X445Y1279D01*
X445Y1275D01*
X443Y1275D01*
X443Y1271D01*
X441Y1271D01*
X441Y1269D01*
X439Y1269D01*
X439Y1265D01*
X437Y1265D01*
X437Y1263D01*
X435Y1263D01*
X435Y1261D01*
X433Y1261D01*
X433Y1259D01*
X431Y1259D01*
X431Y1257D01*
X429Y1257D01*
X429Y1255D01*
X427Y1255D01*
X427Y1253D01*
X425Y1253D01*
X425Y1251D01*
X423Y1251D01*
X423Y1249D01*
X419Y1249D01*
X419Y1247D01*
X417Y1247D01*
X417Y1245D01*
X413Y1245D01*
X413Y1243D01*
X411Y1243D01*
X411Y1241D01*
X407Y1241D01*
X407Y1239D01*
X403Y1239D01*
X403Y1223D01*
X597Y1223D01*
X597Y1225D01*
X591Y1225D01*
X591Y1227D01*
X587Y1227D01*
X587Y1229D01*
X583Y1229D01*
X583Y1231D01*
X581Y1231D01*
X581Y1233D01*
X577Y1233D01*
X577Y1235D01*
X575Y1235D01*
X575Y1237D01*
X573Y1237D01*
X573Y1239D01*
X571Y1239D01*
X571Y1241D01*
X569Y1241D01*
X569Y1245D01*
X567Y1245D01*
X567Y1247D01*
X565Y1247D01*
X565Y1251D01*
X563Y1251D01*
X563Y1255D01*
X561Y1255D01*
X561Y1259D01*
X559Y1259D01*
X559Y1291D01*
X561Y1291D01*
X561Y1295D01*
X563Y1295D01*
X563Y1299D01*
X565Y1299D01*
X565Y1303D01*
X567Y1303D01*
X567Y1305D01*
X569Y1305D01*
X569Y1309D01*
X571Y1309D01*
X571Y1311D01*
X573Y1311D01*
X573Y1313D01*
X575Y1313D01*
X575Y1315D01*
X577Y1315D01*
X577Y1317D01*
X581Y1317D01*
X581Y1319D01*
X583Y1319D01*
X583Y1321D01*
X587Y1321D01*
X587Y1323D01*
X591Y1323D01*
X591Y1325D01*
X597Y1325D01*
X597Y1327D01*
X453Y1327D01*
G37*
D02*
G36*
X637Y1231D02*
X637Y1229D01*
X635Y1229D01*
X635Y1227D01*
X629Y1227D01*
X629Y1225D01*
X623Y1225D01*
X623Y1223D01*
X809Y1223D01*
X809Y1225D01*
X807Y1225D01*
X807Y1227D01*
X805Y1227D01*
X805Y1229D01*
X803Y1229D01*
X803Y1231D01*
X637Y1231D01*
G37*
D02*
G36*
X403Y1223D02*
X403Y1221D01*
X809Y1221D01*
X809Y1223D01*
X403Y1223D01*
G37*
D02*
G36*
X403Y1223D02*
X403Y1221D01*
X809Y1221D01*
X809Y1223D01*
X403Y1223D01*
G37*
D02*
G36*
X403Y1221D02*
X403Y1217D01*
X405Y1217D01*
X405Y1213D01*
X407Y1213D01*
X407Y1179D01*
X405Y1179D01*
X405Y1175D01*
X775Y1175D01*
X775Y1173D01*
X783Y1173D01*
X783Y1171D01*
X789Y1171D01*
X789Y1169D01*
X793Y1169D01*
X793Y1167D01*
X795Y1167D01*
X795Y1165D01*
X799Y1165D01*
X799Y1163D01*
X801Y1163D01*
X801Y1161D01*
X821Y1161D01*
X821Y1163D01*
X823Y1163D01*
X823Y1165D01*
X827Y1165D01*
X827Y1167D01*
X831Y1167D01*
X831Y1169D01*
X835Y1169D01*
X835Y1191D01*
X833Y1191D01*
X833Y1195D01*
X831Y1195D01*
X831Y1197D01*
X829Y1197D01*
X829Y1199D01*
X827Y1199D01*
X827Y1201D01*
X825Y1201D01*
X825Y1205D01*
X823Y1205D01*
X823Y1207D01*
X821Y1207D01*
X821Y1209D01*
X819Y1209D01*
X819Y1211D01*
X817Y1211D01*
X817Y1215D01*
X815Y1215D01*
X815Y1217D01*
X813Y1217D01*
X813Y1219D01*
X811Y1219D01*
X811Y1221D01*
X403Y1221D01*
G37*
D02*
G36*
X405Y1175D02*
X405Y1173D01*
X403Y1173D01*
X403Y1169D01*
X401Y1169D01*
X401Y1167D01*
X399Y1167D01*
X399Y1163D01*
X397Y1163D01*
X397Y1161D01*
X395Y1161D01*
X395Y1159D01*
X393Y1159D01*
X393Y1157D01*
X391Y1157D01*
X391Y1155D01*
X389Y1155D01*
X389Y1153D01*
X385Y1153D01*
X385Y1151D01*
X383Y1151D01*
X383Y1149D01*
X379Y1149D01*
X379Y1147D01*
X375Y1147D01*
X375Y1145D01*
X367Y1145D01*
X367Y1143D01*
X327Y1143D01*
X327Y1127D01*
X325Y1127D01*
X325Y1121D01*
X323Y1121D01*
X323Y1115D01*
X321Y1115D01*
X321Y1113D01*
X319Y1113D01*
X319Y1109D01*
X317Y1109D01*
X317Y1105D01*
X315Y1105D01*
X315Y1085D01*
X317Y1085D01*
X317Y1083D01*
X337Y1083D01*
X337Y1085D01*
X341Y1085D01*
X341Y1087D01*
X343Y1087D01*
X343Y1089D01*
X347Y1089D01*
X347Y1091D01*
X349Y1091D01*
X349Y1093D01*
X353Y1093D01*
X353Y1095D01*
X355Y1095D01*
X355Y1097D01*
X359Y1097D01*
X359Y1099D01*
X361Y1099D01*
X361Y1101D01*
X365Y1101D01*
X365Y1103D01*
X367Y1103D01*
X367Y1105D01*
X371Y1105D01*
X371Y1107D01*
X373Y1107D01*
X373Y1109D01*
X377Y1109D01*
X377Y1111D01*
X379Y1111D01*
X379Y1113D01*
X383Y1113D01*
X383Y1115D01*
X385Y1115D01*
X385Y1117D01*
X389Y1117D01*
X389Y1119D01*
X391Y1119D01*
X391Y1121D01*
X395Y1121D01*
X395Y1123D01*
X397Y1123D01*
X397Y1125D01*
X401Y1125D01*
X401Y1127D01*
X403Y1127D01*
X403Y1129D01*
X407Y1129D01*
X407Y1131D01*
X409Y1131D01*
X409Y1133D01*
X413Y1133D01*
X413Y1135D01*
X415Y1135D01*
X415Y1137D01*
X419Y1137D01*
X419Y1139D01*
X421Y1139D01*
X421Y1141D01*
X425Y1141D01*
X425Y1143D01*
X427Y1143D01*
X427Y1145D01*
X431Y1145D01*
X431Y1147D01*
X433Y1147D01*
X433Y1149D01*
X437Y1149D01*
X437Y1151D01*
X443Y1151D01*
X443Y1153D01*
X613Y1153D01*
X613Y1155D01*
X615Y1155D01*
X615Y1157D01*
X617Y1157D01*
X617Y1159D01*
X619Y1159D01*
X619Y1161D01*
X621Y1161D01*
X621Y1163D01*
X623Y1163D01*
X623Y1165D01*
X627Y1165D01*
X627Y1167D01*
X631Y1167D01*
X631Y1169D01*
X635Y1169D01*
X635Y1171D01*
X639Y1171D01*
X639Y1173D01*
X647Y1173D01*
X647Y1175D01*
X405Y1175D01*
G37*
D02*
G36*
X675Y1175D02*
X675Y1173D01*
X683Y1173D01*
X683Y1171D01*
X689Y1171D01*
X689Y1169D01*
X693Y1169D01*
X693Y1167D01*
X695Y1167D01*
X695Y1165D01*
X699Y1165D01*
X699Y1163D01*
X701Y1163D01*
X701Y1161D01*
X721Y1161D01*
X721Y1163D01*
X723Y1163D01*
X723Y1165D01*
X727Y1165D01*
X727Y1167D01*
X731Y1167D01*
X731Y1169D01*
X735Y1169D01*
X735Y1171D01*
X739Y1171D01*
X739Y1173D01*
X747Y1173D01*
X747Y1175D01*
X675Y1175D01*
G37*
D02*
G36*
X975Y1175D02*
X975Y1173D01*
X983Y1173D01*
X983Y1171D01*
X989Y1171D01*
X989Y1169D01*
X993Y1169D01*
X993Y1167D01*
X995Y1167D01*
X995Y1165D01*
X999Y1165D01*
X999Y1163D01*
X1001Y1163D01*
X1001Y1161D01*
X1021Y1161D01*
X1021Y1163D01*
X1023Y1163D01*
X1023Y1165D01*
X1027Y1165D01*
X1027Y1167D01*
X1031Y1167D01*
X1031Y1169D01*
X1035Y1169D01*
X1035Y1171D01*
X1039Y1171D01*
X1039Y1173D01*
X1047Y1173D01*
X1047Y1175D01*
X975Y1175D01*
G37*
D02*
G36*
X541Y1063D02*
X541Y1061D01*
X477Y1061D01*
X477Y1059D01*
X473Y1059D01*
X473Y1057D01*
X471Y1057D01*
X471Y1055D01*
X467Y1055D01*
X467Y1053D01*
X465Y1053D01*
X465Y1051D01*
X461Y1051D01*
X461Y1049D01*
X459Y1049D01*
X459Y1047D01*
X455Y1047D01*
X455Y1045D01*
X453Y1045D01*
X453Y1043D01*
X449Y1043D01*
X449Y1041D01*
X447Y1041D01*
X447Y1039D01*
X443Y1039D01*
X443Y1037D01*
X441Y1037D01*
X441Y1035D01*
X437Y1035D01*
X437Y1033D01*
X435Y1033D01*
X435Y1031D01*
X431Y1031D01*
X431Y1029D01*
X429Y1029D01*
X429Y1027D01*
X425Y1027D01*
X425Y1025D01*
X423Y1025D01*
X423Y1023D01*
X419Y1023D01*
X419Y1021D01*
X417Y1021D01*
X417Y1019D01*
X413Y1019D01*
X413Y1017D01*
X411Y1017D01*
X411Y1015D01*
X407Y1015D01*
X407Y1013D01*
X405Y1013D01*
X405Y1011D01*
X403Y1011D01*
X403Y907D01*
X401Y907D01*
X401Y897D01*
X399Y897D01*
X399Y893D01*
X397Y893D01*
X397Y889D01*
X395Y889D01*
X395Y887D01*
X393Y887D01*
X393Y885D01*
X391Y885D01*
X391Y883D01*
X389Y883D01*
X389Y881D01*
X387Y881D01*
X387Y879D01*
X385Y879D01*
X385Y877D01*
X381Y877D01*
X381Y875D01*
X379Y875D01*
X379Y873D01*
X377Y873D01*
X377Y871D01*
X373Y871D01*
X373Y869D01*
X371Y869D01*
X371Y867D01*
X369Y867D01*
X369Y865D01*
X365Y865D01*
X365Y863D01*
X363Y863D01*
X363Y861D01*
X361Y861D01*
X361Y859D01*
X357Y859D01*
X357Y857D01*
X355Y857D01*
X355Y855D01*
X353Y855D01*
X353Y853D01*
X349Y853D01*
X349Y851D01*
X347Y851D01*
X347Y849D01*
X345Y849D01*
X345Y847D01*
X341Y847D01*
X341Y845D01*
X339Y845D01*
X339Y843D01*
X337Y843D01*
X337Y841D01*
X335Y841D01*
X335Y839D01*
X331Y839D01*
X331Y837D01*
X329Y837D01*
X329Y835D01*
X327Y835D01*
X327Y827D01*
X325Y827D01*
X325Y821D01*
X323Y821D01*
X323Y815D01*
X321Y815D01*
X321Y813D01*
X319Y813D01*
X319Y809D01*
X317Y809D01*
X317Y805D01*
X315Y805D01*
X315Y803D01*
X313Y803D01*
X313Y801D01*
X311Y801D01*
X311Y799D01*
X309Y799D01*
X309Y797D01*
X307Y797D01*
X307Y795D01*
X305Y795D01*
X305Y793D01*
X303Y793D01*
X303Y791D01*
X301Y791D01*
X301Y789D01*
X297Y789D01*
X297Y787D01*
X295Y787D01*
X295Y785D01*
X291Y785D01*
X291Y783D01*
X287Y783D01*
X287Y781D01*
X283Y781D01*
X283Y779D01*
X277Y779D01*
X277Y777D01*
X615Y777D01*
X615Y887D01*
X617Y887D01*
X617Y941D01*
X595Y941D01*
X595Y1063D01*
X541Y1063D01*
G37*
D02*
G36*
X801Y955D02*
X801Y953D01*
X799Y953D01*
X799Y951D01*
X797Y951D01*
X797Y949D01*
X793Y949D01*
X793Y947D01*
X789Y947D01*
X789Y945D01*
X785Y945D01*
X785Y943D01*
X779Y943D01*
X779Y941D01*
X845Y941D01*
X845Y943D01*
X837Y943D01*
X837Y945D01*
X833Y945D01*
X833Y947D01*
X829Y947D01*
X829Y949D01*
X827Y949D01*
X827Y951D01*
X823Y951D01*
X823Y953D01*
X821Y953D01*
X821Y955D01*
X801Y955D01*
G37*
D02*
G36*
X899Y953D02*
X899Y951D01*
X897Y951D01*
X897Y949D01*
X893Y949D01*
X893Y947D01*
X889Y947D01*
X889Y945D01*
X885Y945D01*
X885Y943D01*
X879Y943D01*
X879Y941D01*
X921Y941D01*
X921Y945D01*
X919Y945D01*
X919Y953D01*
X899Y953D01*
G37*
D02*
G36*
X705Y941D02*
X705Y939D01*
X921Y939D01*
X921Y941D01*
X705Y941D01*
G37*
D02*
G36*
X705Y941D02*
X705Y939D01*
X921Y939D01*
X921Y941D01*
X705Y941D01*
G37*
D02*
G36*
X705Y939D02*
X705Y873D01*
X703Y873D01*
X703Y643D01*
X705Y643D01*
X705Y639D01*
X707Y639D01*
X707Y633D01*
X709Y633D01*
X709Y601D01*
X707Y601D01*
X707Y597D01*
X705Y597D01*
X705Y593D01*
X703Y593D01*
X703Y589D01*
X701Y589D01*
X701Y587D01*
X699Y587D01*
X699Y585D01*
X697Y585D01*
X697Y581D01*
X695Y581D01*
X695Y579D01*
X691Y579D01*
X691Y577D01*
X689Y577D01*
X689Y575D01*
X687Y575D01*
X687Y573D01*
X683Y573D01*
X683Y571D01*
X681Y571D01*
X681Y569D01*
X675Y569D01*
X675Y567D01*
X667Y567D01*
X667Y565D01*
X1943Y565D01*
X1943Y649D01*
X1941Y649D01*
X1941Y651D01*
X1939Y651D01*
X1939Y653D01*
X1937Y653D01*
X1937Y655D01*
X1935Y655D01*
X1935Y657D01*
X1933Y657D01*
X1933Y659D01*
X1931Y659D01*
X1931Y661D01*
X1929Y661D01*
X1929Y663D01*
X1927Y663D01*
X1927Y667D01*
X1925Y667D01*
X1925Y669D01*
X1923Y669D01*
X1923Y671D01*
X1921Y671D01*
X1921Y673D01*
X1919Y673D01*
X1919Y675D01*
X1917Y675D01*
X1917Y677D01*
X1915Y677D01*
X1915Y679D01*
X1913Y679D01*
X1913Y681D01*
X1911Y681D01*
X1911Y683D01*
X1909Y683D01*
X1909Y685D01*
X1907Y685D01*
X1907Y687D01*
X1905Y687D01*
X1905Y689D01*
X1903Y689D01*
X1903Y691D01*
X1901Y691D01*
X1901Y693D01*
X1899Y693D01*
X1899Y695D01*
X1897Y695D01*
X1897Y697D01*
X1895Y697D01*
X1895Y699D01*
X1893Y699D01*
X1893Y701D01*
X1891Y701D01*
X1891Y703D01*
X1889Y703D01*
X1889Y705D01*
X1887Y705D01*
X1887Y707D01*
X1885Y707D01*
X1885Y709D01*
X1883Y709D01*
X1883Y713D01*
X1881Y713D01*
X1881Y715D01*
X1879Y715D01*
X1879Y717D01*
X1877Y717D01*
X1877Y719D01*
X1875Y719D01*
X1875Y721D01*
X1873Y721D01*
X1873Y723D01*
X1871Y723D01*
X1871Y725D01*
X1869Y725D01*
X1869Y727D01*
X1867Y727D01*
X1867Y729D01*
X1865Y729D01*
X1865Y731D01*
X1863Y731D01*
X1863Y733D01*
X1861Y733D01*
X1861Y735D01*
X1859Y735D01*
X1859Y737D01*
X1857Y737D01*
X1857Y739D01*
X1087Y739D01*
X1087Y741D01*
X1079Y741D01*
X1079Y743D01*
X1075Y743D01*
X1075Y745D01*
X1071Y745D01*
X1071Y747D01*
X1069Y747D01*
X1069Y749D01*
X1067Y749D01*
X1067Y751D01*
X1065Y751D01*
X1065Y753D01*
X1063Y753D01*
X1063Y755D01*
X1061Y755D01*
X1061Y757D01*
X1059Y757D01*
X1059Y761D01*
X1057Y761D01*
X1057Y763D01*
X1055Y763D01*
X1055Y765D01*
X1053Y765D01*
X1053Y769D01*
X1051Y769D01*
X1051Y771D01*
X1049Y771D01*
X1049Y773D01*
X1047Y773D01*
X1047Y775D01*
X1045Y775D01*
X1045Y779D01*
X1043Y779D01*
X1043Y781D01*
X1041Y781D01*
X1041Y783D01*
X1039Y783D01*
X1039Y787D01*
X1037Y787D01*
X1037Y789D01*
X1035Y789D01*
X1035Y791D01*
X1033Y791D01*
X1033Y795D01*
X1031Y795D01*
X1031Y797D01*
X1029Y797D01*
X1029Y799D01*
X1027Y799D01*
X1027Y801D01*
X1025Y801D01*
X1025Y805D01*
X1023Y805D01*
X1023Y807D01*
X1021Y807D01*
X1021Y809D01*
X1019Y809D01*
X1019Y813D01*
X1017Y813D01*
X1017Y815D01*
X1015Y815D01*
X1015Y817D01*
X1013Y817D01*
X1013Y821D01*
X1011Y821D01*
X1011Y823D01*
X1009Y823D01*
X1009Y825D01*
X1007Y825D01*
X1007Y827D01*
X1005Y827D01*
X1005Y831D01*
X1003Y831D01*
X1003Y833D01*
X1001Y833D01*
X1001Y835D01*
X999Y835D01*
X999Y839D01*
X997Y839D01*
X997Y841D01*
X995Y841D01*
X995Y843D01*
X993Y843D01*
X993Y845D01*
X991Y845D01*
X991Y849D01*
X989Y849D01*
X989Y851D01*
X987Y851D01*
X987Y853D01*
X985Y853D01*
X985Y857D01*
X983Y857D01*
X983Y859D01*
X981Y859D01*
X981Y861D01*
X979Y861D01*
X979Y865D01*
X977Y865D01*
X977Y867D01*
X975Y867D01*
X975Y869D01*
X973Y869D01*
X973Y871D01*
X971Y871D01*
X971Y875D01*
X969Y875D01*
X969Y877D01*
X967Y877D01*
X967Y879D01*
X965Y879D01*
X965Y883D01*
X963Y883D01*
X963Y885D01*
X961Y885D01*
X961Y887D01*
X959Y887D01*
X959Y891D01*
X957Y891D01*
X957Y893D01*
X955Y893D01*
X955Y895D01*
X953Y895D01*
X953Y897D01*
X951Y897D01*
X951Y901D01*
X949Y901D01*
X949Y903D01*
X947Y903D01*
X947Y905D01*
X945Y905D01*
X945Y909D01*
X943Y909D01*
X943Y911D01*
X941Y911D01*
X941Y913D01*
X939Y913D01*
X939Y915D01*
X937Y915D01*
X937Y919D01*
X935Y919D01*
X935Y921D01*
X933Y921D01*
X933Y923D01*
X931Y923D01*
X931Y927D01*
X929Y927D01*
X929Y929D01*
X927Y929D01*
X927Y931D01*
X925Y931D01*
X925Y935D01*
X923Y935D01*
X923Y939D01*
X705Y939D01*
G37*
D02*
G36*
X125Y777D02*
X125Y775D01*
X615Y775D01*
X615Y777D01*
X125Y777D01*
G37*
D02*
G36*
X125Y777D02*
X125Y775D01*
X615Y775D01*
X615Y777D01*
X125Y777D01*
G37*
D02*
G36*
X125Y775D02*
X125Y669D01*
X339Y669D01*
X339Y667D01*
X343Y667D01*
X343Y665D01*
X347Y665D01*
X347Y663D01*
X351Y663D01*
X351Y661D01*
X613Y661D01*
X613Y663D01*
X615Y663D01*
X615Y775D01*
X125Y775D01*
G37*
D02*
G36*
X125Y669D02*
X125Y565D01*
X313Y565D01*
X313Y567D01*
X305Y567D01*
X305Y569D01*
X301Y569D01*
X301Y571D01*
X297Y571D01*
X297Y573D01*
X293Y573D01*
X293Y575D01*
X291Y575D01*
X291Y577D01*
X289Y577D01*
X289Y579D01*
X287Y579D01*
X287Y581D01*
X285Y581D01*
X285Y583D01*
X283Y583D01*
X283Y585D01*
X281Y585D01*
X281Y587D01*
X279Y587D01*
X279Y591D01*
X277Y591D01*
X277Y593D01*
X275Y593D01*
X275Y599D01*
X273Y599D01*
X273Y605D01*
X271Y605D01*
X271Y631D01*
X273Y631D01*
X273Y637D01*
X275Y637D01*
X275Y641D01*
X277Y641D01*
X277Y645D01*
X279Y645D01*
X279Y647D01*
X281Y647D01*
X281Y651D01*
X283Y651D01*
X283Y653D01*
X285Y653D01*
X285Y655D01*
X287Y655D01*
X287Y657D01*
X289Y657D01*
X289Y659D01*
X293Y659D01*
X293Y661D01*
X295Y661D01*
X295Y663D01*
X299Y663D01*
X299Y665D01*
X303Y665D01*
X303Y667D01*
X307Y667D01*
X307Y669D01*
X125Y669D01*
G37*
D02*
G36*
X349Y573D02*
X349Y571D01*
X345Y571D01*
X345Y569D01*
X341Y569D01*
X341Y567D01*
X333Y567D01*
X333Y565D01*
X647Y565D01*
X647Y567D01*
X639Y567D01*
X639Y569D01*
X635Y569D01*
X635Y571D01*
X631Y571D01*
X631Y573D01*
X349Y573D01*
G37*
D02*
G36*
X125Y565D02*
X125Y563D01*
X1943Y563D01*
X1943Y565D01*
X125Y565D01*
G37*
D02*
G36*
X125Y565D02*
X125Y563D01*
X1943Y563D01*
X1943Y565D01*
X125Y565D01*
G37*
D02*
G36*
X125Y565D02*
X125Y563D01*
X1943Y563D01*
X1943Y565D01*
X125Y565D01*
G37*
D02*
G36*
X125Y563D02*
X125Y395D01*
X1833Y395D01*
X1833Y393D01*
X1841Y393D01*
X1841Y391D01*
X1845Y391D01*
X1845Y389D01*
X1849Y389D01*
X1849Y387D01*
X1851Y387D01*
X1851Y385D01*
X1855Y385D01*
X1855Y383D01*
X1857Y383D01*
X1857Y381D01*
X1859Y381D01*
X1859Y379D01*
X1861Y379D01*
X1861Y377D01*
X1865Y377D01*
X1865Y373D01*
X1867Y373D01*
X1867Y371D01*
X1869Y371D01*
X1869Y369D01*
X1871Y369D01*
X1871Y367D01*
X1873Y367D01*
X1873Y365D01*
X1875Y365D01*
X1875Y361D01*
X1877Y361D01*
X1877Y357D01*
X1879Y357D01*
X1879Y353D01*
X1881Y353D01*
X1881Y349D01*
X1883Y349D01*
X1883Y341D01*
X1885Y341D01*
X1885Y311D01*
X1883Y311D01*
X1883Y305D01*
X1881Y305D01*
X1881Y299D01*
X1879Y299D01*
X1879Y295D01*
X1877Y295D01*
X1877Y291D01*
X1875Y291D01*
X1875Y289D01*
X1873Y289D01*
X1873Y285D01*
X1871Y285D01*
X1871Y283D01*
X1869Y283D01*
X1869Y281D01*
X1867Y281D01*
X1867Y279D01*
X1865Y279D01*
X1865Y277D01*
X1863Y277D01*
X1863Y275D01*
X1861Y275D01*
X1861Y273D01*
X1859Y273D01*
X1859Y271D01*
X1857Y271D01*
X1857Y269D01*
X1855Y269D01*
X1855Y267D01*
X1851Y267D01*
X1851Y265D01*
X1847Y265D01*
X1847Y263D01*
X1843Y263D01*
X1843Y261D01*
X1839Y261D01*
X1839Y259D01*
X1833Y259D01*
X1833Y257D01*
X1947Y257D01*
X1947Y271D01*
X1945Y271D01*
X1945Y391D01*
X1947Y391D01*
X1947Y419D01*
X1945Y419D01*
X1945Y521D01*
X1943Y521D01*
X1943Y563D01*
X125Y563D01*
G37*
D02*
G36*
X161Y395D02*
X161Y393D01*
X167Y393D01*
X167Y391D01*
X171Y391D01*
X171Y389D01*
X175Y389D01*
X175Y387D01*
X179Y387D01*
X179Y385D01*
X181Y385D01*
X181Y383D01*
X183Y383D01*
X183Y381D01*
X187Y381D01*
X187Y379D01*
X189Y379D01*
X189Y377D01*
X191Y377D01*
X191Y375D01*
X193Y375D01*
X193Y373D01*
X195Y373D01*
X195Y371D01*
X197Y371D01*
X197Y367D01*
X199Y367D01*
X199Y365D01*
X201Y365D01*
X201Y363D01*
X203Y363D01*
X203Y359D01*
X205Y359D01*
X205Y355D01*
X207Y355D01*
X207Y351D01*
X209Y351D01*
X209Y345D01*
X211Y345D01*
X211Y309D01*
X209Y309D01*
X209Y301D01*
X207Y301D01*
X207Y297D01*
X205Y297D01*
X205Y293D01*
X203Y293D01*
X203Y291D01*
X201Y291D01*
X201Y287D01*
X199Y287D01*
X199Y285D01*
X197Y285D01*
X197Y281D01*
X195Y281D01*
X195Y279D01*
X193Y279D01*
X193Y277D01*
X191Y277D01*
X191Y275D01*
X189Y275D01*
X189Y273D01*
X187Y273D01*
X187Y271D01*
X183Y271D01*
X183Y269D01*
X181Y269D01*
X181Y267D01*
X177Y267D01*
X177Y265D01*
X175Y265D01*
X175Y263D01*
X171Y263D01*
X171Y261D01*
X167Y261D01*
X167Y259D01*
X159Y259D01*
X159Y257D01*
X381Y257D01*
X381Y259D01*
X373Y259D01*
X373Y261D01*
X369Y261D01*
X369Y263D01*
X365Y263D01*
X365Y265D01*
X361Y265D01*
X361Y267D01*
X359Y267D01*
X359Y269D01*
X357Y269D01*
X357Y271D01*
X353Y271D01*
X353Y273D01*
X351Y273D01*
X351Y275D01*
X349Y275D01*
X349Y277D01*
X347Y277D01*
X347Y279D01*
X345Y279D01*
X345Y281D01*
X343Y281D01*
X343Y285D01*
X341Y285D01*
X341Y287D01*
X339Y287D01*
X339Y289D01*
X337Y289D01*
X337Y293D01*
X335Y293D01*
X335Y297D01*
X333Y297D01*
X333Y301D01*
X331Y301D01*
X331Y307D01*
X329Y307D01*
X329Y345D01*
X331Y345D01*
X331Y351D01*
X333Y351D01*
X333Y355D01*
X335Y355D01*
X335Y359D01*
X337Y359D01*
X337Y363D01*
X339Y363D01*
X339Y365D01*
X341Y365D01*
X341Y369D01*
X343Y369D01*
X343Y371D01*
X345Y371D01*
X345Y373D01*
X347Y373D01*
X347Y375D01*
X349Y375D01*
X349Y377D01*
X351Y377D01*
X351Y379D01*
X353Y379D01*
X353Y381D01*
X355Y381D01*
X355Y383D01*
X359Y383D01*
X359Y385D01*
X361Y385D01*
X361Y387D01*
X365Y387D01*
X365Y389D01*
X369Y389D01*
X369Y391D01*
X373Y391D01*
X373Y393D01*
X379Y393D01*
X379Y395D01*
X161Y395D01*
G37*
D02*
G36*
X417Y395D02*
X417Y393D01*
X423Y393D01*
X423Y391D01*
X427Y391D01*
X427Y389D01*
X431Y389D01*
X431Y387D01*
X435Y387D01*
X435Y385D01*
X437Y385D01*
X437Y383D01*
X439Y383D01*
X439Y381D01*
X443Y381D01*
X443Y379D01*
X445Y379D01*
X445Y377D01*
X447Y377D01*
X447Y375D01*
X449Y375D01*
X449Y373D01*
X451Y373D01*
X451Y371D01*
X453Y371D01*
X453Y367D01*
X455Y367D01*
X455Y365D01*
X457Y365D01*
X457Y363D01*
X459Y363D01*
X459Y359D01*
X461Y359D01*
X461Y355D01*
X463Y355D01*
X463Y351D01*
X465Y351D01*
X465Y343D01*
X467Y343D01*
X467Y309D01*
X465Y309D01*
X465Y303D01*
X463Y303D01*
X463Y297D01*
X461Y297D01*
X461Y293D01*
X459Y293D01*
X459Y291D01*
X457Y291D01*
X457Y287D01*
X455Y287D01*
X455Y285D01*
X453Y285D01*
X453Y283D01*
X451Y283D01*
X451Y279D01*
X449Y279D01*
X449Y277D01*
X447Y277D01*
X447Y275D01*
X445Y275D01*
X445Y273D01*
X441Y273D01*
X441Y271D01*
X439Y271D01*
X439Y269D01*
X437Y269D01*
X437Y267D01*
X433Y267D01*
X433Y265D01*
X431Y265D01*
X431Y263D01*
X427Y263D01*
X427Y261D01*
X421Y261D01*
X421Y259D01*
X415Y259D01*
X415Y257D01*
X597Y257D01*
X597Y259D01*
X591Y259D01*
X591Y261D01*
X585Y261D01*
X585Y263D01*
X581Y263D01*
X581Y265D01*
X579Y265D01*
X579Y267D01*
X575Y267D01*
X575Y269D01*
X573Y269D01*
X573Y271D01*
X571Y271D01*
X571Y273D01*
X567Y273D01*
X567Y275D01*
X565Y275D01*
X565Y277D01*
X563Y277D01*
X563Y279D01*
X561Y279D01*
X561Y283D01*
X559Y283D01*
X559Y285D01*
X557Y285D01*
X557Y287D01*
X555Y287D01*
X555Y291D01*
X553Y291D01*
X553Y293D01*
X551Y293D01*
X551Y297D01*
X549Y297D01*
X549Y303D01*
X547Y303D01*
X547Y309D01*
X545Y309D01*
X545Y343D01*
X547Y343D01*
X547Y349D01*
X549Y349D01*
X549Y355D01*
X551Y355D01*
X551Y359D01*
X553Y359D01*
X553Y361D01*
X555Y361D01*
X555Y365D01*
X557Y365D01*
X557Y367D01*
X559Y367D01*
X559Y371D01*
X561Y371D01*
X561Y373D01*
X563Y373D01*
X563Y375D01*
X565Y375D01*
X565Y377D01*
X567Y377D01*
X567Y379D01*
X569Y379D01*
X569Y381D01*
X573Y381D01*
X573Y383D01*
X575Y383D01*
X575Y385D01*
X577Y385D01*
X577Y387D01*
X581Y387D01*
X581Y389D01*
X585Y389D01*
X585Y391D01*
X589Y391D01*
X589Y393D01*
X595Y393D01*
X595Y395D01*
X417Y395D01*
G37*
D02*
G36*
X633Y395D02*
X633Y393D01*
X639Y393D01*
X639Y391D01*
X643Y391D01*
X643Y389D01*
X647Y389D01*
X647Y387D01*
X651Y387D01*
X651Y385D01*
X653Y385D01*
X653Y383D01*
X657Y383D01*
X657Y381D01*
X659Y381D01*
X659Y379D01*
X661Y379D01*
X661Y377D01*
X663Y377D01*
X663Y375D01*
X665Y375D01*
X665Y373D01*
X667Y373D01*
X667Y371D01*
X669Y371D01*
X669Y369D01*
X671Y369D01*
X671Y365D01*
X673Y365D01*
X673Y363D01*
X675Y363D01*
X675Y359D01*
X677Y359D01*
X677Y355D01*
X679Y355D01*
X679Y351D01*
X681Y351D01*
X681Y345D01*
X683Y345D01*
X683Y307D01*
X681Y307D01*
X681Y301D01*
X679Y301D01*
X679Y297D01*
X677Y297D01*
X677Y293D01*
X675Y293D01*
X675Y289D01*
X673Y289D01*
X673Y287D01*
X671Y287D01*
X671Y283D01*
X669Y283D01*
X669Y281D01*
X667Y281D01*
X667Y279D01*
X665Y279D01*
X665Y277D01*
X663Y277D01*
X663Y275D01*
X661Y275D01*
X661Y273D01*
X659Y273D01*
X659Y271D01*
X657Y271D01*
X657Y269D01*
X653Y269D01*
X653Y267D01*
X651Y267D01*
X651Y265D01*
X647Y265D01*
X647Y263D01*
X643Y263D01*
X643Y261D01*
X639Y261D01*
X639Y259D01*
X633Y259D01*
X633Y257D01*
X853Y257D01*
X853Y259D01*
X847Y259D01*
X847Y261D01*
X841Y261D01*
X841Y263D01*
X837Y263D01*
X837Y265D01*
X835Y265D01*
X835Y267D01*
X831Y267D01*
X831Y269D01*
X829Y269D01*
X829Y271D01*
X827Y271D01*
X827Y273D01*
X823Y273D01*
X823Y275D01*
X821Y275D01*
X821Y277D01*
X819Y277D01*
X819Y279D01*
X817Y279D01*
X817Y283D01*
X815Y283D01*
X815Y285D01*
X813Y285D01*
X813Y287D01*
X811Y287D01*
X811Y291D01*
X809Y291D01*
X809Y293D01*
X807Y293D01*
X807Y297D01*
X805Y297D01*
X805Y303D01*
X803Y303D01*
X803Y309D01*
X801Y309D01*
X801Y343D01*
X803Y343D01*
X803Y349D01*
X805Y349D01*
X805Y355D01*
X807Y355D01*
X807Y359D01*
X809Y359D01*
X809Y361D01*
X811Y361D01*
X811Y365D01*
X813Y365D01*
X813Y367D01*
X815Y367D01*
X815Y371D01*
X817Y371D01*
X817Y373D01*
X819Y373D01*
X819Y375D01*
X821Y375D01*
X821Y377D01*
X823Y377D01*
X823Y379D01*
X825Y379D01*
X825Y381D01*
X829Y381D01*
X829Y383D01*
X831Y383D01*
X831Y385D01*
X833Y385D01*
X833Y387D01*
X837Y387D01*
X837Y389D01*
X841Y389D01*
X841Y391D01*
X845Y391D01*
X845Y393D01*
X851Y393D01*
X851Y395D01*
X633Y395D01*
G37*
D02*
G36*
X889Y395D02*
X889Y393D01*
X895Y393D01*
X895Y391D01*
X899Y391D01*
X899Y389D01*
X903Y389D01*
X903Y387D01*
X907Y387D01*
X907Y385D01*
X909Y385D01*
X909Y383D01*
X913Y383D01*
X913Y381D01*
X915Y381D01*
X915Y379D01*
X917Y379D01*
X917Y377D01*
X919Y377D01*
X919Y375D01*
X921Y375D01*
X921Y373D01*
X923Y373D01*
X923Y371D01*
X925Y371D01*
X925Y369D01*
X927Y369D01*
X927Y365D01*
X929Y365D01*
X929Y363D01*
X931Y363D01*
X931Y359D01*
X933Y359D01*
X933Y355D01*
X935Y355D01*
X935Y351D01*
X937Y351D01*
X937Y345D01*
X939Y345D01*
X939Y307D01*
X937Y307D01*
X937Y301D01*
X935Y301D01*
X935Y297D01*
X933Y297D01*
X933Y293D01*
X931Y293D01*
X931Y289D01*
X929Y289D01*
X929Y287D01*
X927Y287D01*
X927Y283D01*
X925Y283D01*
X925Y281D01*
X923Y281D01*
X923Y279D01*
X921Y279D01*
X921Y277D01*
X919Y277D01*
X919Y275D01*
X917Y275D01*
X917Y273D01*
X915Y273D01*
X915Y271D01*
X911Y271D01*
X911Y269D01*
X909Y269D01*
X909Y267D01*
X907Y267D01*
X907Y265D01*
X903Y265D01*
X903Y263D01*
X899Y263D01*
X899Y261D01*
X895Y261D01*
X895Y259D01*
X889Y259D01*
X889Y257D01*
X1069Y257D01*
X1069Y259D01*
X1063Y259D01*
X1063Y261D01*
X1057Y261D01*
X1057Y263D01*
X1055Y263D01*
X1055Y265D01*
X1051Y265D01*
X1051Y267D01*
X1047Y267D01*
X1047Y269D01*
X1045Y269D01*
X1045Y271D01*
X1043Y271D01*
X1043Y273D01*
X1041Y273D01*
X1041Y275D01*
X1039Y275D01*
X1039Y277D01*
X1037Y277D01*
X1037Y279D01*
X1035Y279D01*
X1035Y281D01*
X1033Y281D01*
X1033Y283D01*
X1031Y283D01*
X1031Y285D01*
X1029Y285D01*
X1029Y289D01*
X1027Y289D01*
X1027Y291D01*
X1025Y291D01*
X1025Y295D01*
X1023Y295D01*
X1023Y299D01*
X1021Y299D01*
X1021Y303D01*
X1019Y303D01*
X1019Y311D01*
X1017Y311D01*
X1017Y341D01*
X1019Y341D01*
X1019Y349D01*
X1021Y349D01*
X1021Y353D01*
X1023Y353D01*
X1023Y357D01*
X1025Y357D01*
X1025Y361D01*
X1027Y361D01*
X1027Y365D01*
X1029Y365D01*
X1029Y367D01*
X1031Y367D01*
X1031Y369D01*
X1033Y369D01*
X1033Y371D01*
X1035Y371D01*
X1035Y375D01*
X1037Y375D01*
X1037Y377D01*
X1039Y377D01*
X1039Y379D01*
X1043Y379D01*
X1043Y381D01*
X1045Y381D01*
X1045Y383D01*
X1047Y383D01*
X1047Y385D01*
X1051Y385D01*
X1051Y387D01*
X1053Y387D01*
X1053Y389D01*
X1057Y389D01*
X1057Y391D01*
X1061Y391D01*
X1061Y393D01*
X1067Y393D01*
X1067Y395D01*
X889Y395D01*
G37*
D02*
G36*
X1105Y395D02*
X1105Y393D01*
X1111Y393D01*
X1111Y391D01*
X1117Y391D01*
X1117Y389D01*
X1119Y389D01*
X1119Y387D01*
X1123Y387D01*
X1123Y385D01*
X1127Y385D01*
X1127Y383D01*
X1129Y383D01*
X1129Y381D01*
X1131Y381D01*
X1131Y379D01*
X1133Y379D01*
X1133Y377D01*
X1135Y377D01*
X1135Y375D01*
X1137Y375D01*
X1137Y373D01*
X1139Y373D01*
X1139Y371D01*
X1141Y371D01*
X1141Y369D01*
X1143Y369D01*
X1143Y367D01*
X1145Y367D01*
X1145Y363D01*
X1147Y363D01*
X1147Y361D01*
X1149Y361D01*
X1149Y357D01*
X1151Y357D01*
X1151Y353D01*
X1153Y353D01*
X1153Y347D01*
X1155Y347D01*
X1155Y337D01*
X1157Y337D01*
X1157Y315D01*
X1155Y315D01*
X1155Y305D01*
X1153Y305D01*
X1153Y299D01*
X1151Y299D01*
X1151Y295D01*
X1149Y295D01*
X1149Y291D01*
X1147Y291D01*
X1147Y289D01*
X1145Y289D01*
X1145Y285D01*
X1143Y285D01*
X1143Y283D01*
X1141Y283D01*
X1141Y281D01*
X1139Y281D01*
X1139Y279D01*
X1137Y279D01*
X1137Y277D01*
X1135Y277D01*
X1135Y275D01*
X1133Y275D01*
X1133Y273D01*
X1131Y273D01*
X1131Y271D01*
X1129Y271D01*
X1129Y269D01*
X1125Y269D01*
X1125Y267D01*
X1123Y267D01*
X1123Y265D01*
X1119Y265D01*
X1119Y263D01*
X1115Y263D01*
X1115Y261D01*
X1111Y261D01*
X1111Y259D01*
X1105Y259D01*
X1105Y257D01*
X1325Y257D01*
X1325Y259D01*
X1319Y259D01*
X1319Y261D01*
X1313Y261D01*
X1313Y263D01*
X1311Y263D01*
X1311Y265D01*
X1307Y265D01*
X1307Y267D01*
X1303Y267D01*
X1303Y269D01*
X1301Y269D01*
X1301Y271D01*
X1299Y271D01*
X1299Y273D01*
X1297Y273D01*
X1297Y275D01*
X1295Y275D01*
X1295Y277D01*
X1293Y277D01*
X1293Y279D01*
X1291Y279D01*
X1291Y281D01*
X1289Y281D01*
X1289Y283D01*
X1287Y283D01*
X1287Y285D01*
X1285Y285D01*
X1285Y287D01*
X1283Y287D01*
X1283Y291D01*
X1281Y291D01*
X1281Y295D01*
X1279Y295D01*
X1279Y299D01*
X1277Y299D01*
X1277Y303D01*
X1275Y303D01*
X1275Y311D01*
X1273Y311D01*
X1273Y341D01*
X1275Y341D01*
X1275Y349D01*
X1277Y349D01*
X1277Y353D01*
X1279Y353D01*
X1279Y357D01*
X1281Y357D01*
X1281Y361D01*
X1283Y361D01*
X1283Y365D01*
X1285Y365D01*
X1285Y367D01*
X1287Y367D01*
X1287Y369D01*
X1289Y369D01*
X1289Y371D01*
X1291Y371D01*
X1291Y375D01*
X1293Y375D01*
X1293Y377D01*
X1295Y377D01*
X1295Y379D01*
X1299Y379D01*
X1299Y381D01*
X1301Y381D01*
X1301Y383D01*
X1303Y383D01*
X1303Y385D01*
X1307Y385D01*
X1307Y387D01*
X1309Y387D01*
X1309Y389D01*
X1313Y389D01*
X1313Y391D01*
X1317Y391D01*
X1317Y393D01*
X1323Y393D01*
X1323Y395D01*
X1105Y395D01*
G37*
D02*
G36*
X1361Y395D02*
X1361Y393D01*
X1367Y393D01*
X1367Y391D01*
X1373Y391D01*
X1373Y389D01*
X1375Y389D01*
X1375Y387D01*
X1379Y387D01*
X1379Y385D01*
X1383Y385D01*
X1383Y383D01*
X1385Y383D01*
X1385Y381D01*
X1387Y381D01*
X1387Y379D01*
X1389Y379D01*
X1389Y377D01*
X1391Y377D01*
X1391Y375D01*
X1393Y375D01*
X1393Y373D01*
X1395Y373D01*
X1395Y371D01*
X1397Y371D01*
X1397Y369D01*
X1399Y369D01*
X1399Y367D01*
X1401Y367D01*
X1401Y363D01*
X1403Y363D01*
X1403Y361D01*
X1405Y361D01*
X1405Y357D01*
X1407Y357D01*
X1407Y353D01*
X1409Y353D01*
X1409Y347D01*
X1411Y347D01*
X1411Y337D01*
X1413Y337D01*
X1413Y315D01*
X1411Y315D01*
X1411Y305D01*
X1409Y305D01*
X1409Y299D01*
X1407Y299D01*
X1407Y295D01*
X1405Y295D01*
X1405Y293D01*
X1403Y293D01*
X1403Y289D01*
X1401Y289D01*
X1401Y287D01*
X1399Y287D01*
X1399Y283D01*
X1397Y283D01*
X1397Y281D01*
X1395Y281D01*
X1395Y279D01*
X1393Y279D01*
X1393Y277D01*
X1391Y277D01*
X1391Y275D01*
X1389Y275D01*
X1389Y273D01*
X1387Y273D01*
X1387Y271D01*
X1385Y271D01*
X1385Y269D01*
X1381Y269D01*
X1381Y267D01*
X1379Y267D01*
X1379Y265D01*
X1375Y265D01*
X1375Y263D01*
X1371Y263D01*
X1371Y261D01*
X1367Y261D01*
X1367Y259D01*
X1361Y259D01*
X1361Y257D01*
X1541Y257D01*
X1541Y259D01*
X1535Y259D01*
X1535Y261D01*
X1531Y261D01*
X1531Y263D01*
X1527Y263D01*
X1527Y265D01*
X1523Y265D01*
X1523Y267D01*
X1521Y267D01*
X1521Y269D01*
X1517Y269D01*
X1517Y271D01*
X1515Y271D01*
X1515Y273D01*
X1513Y273D01*
X1513Y275D01*
X1511Y275D01*
X1511Y277D01*
X1509Y277D01*
X1509Y279D01*
X1507Y279D01*
X1507Y281D01*
X1505Y281D01*
X1505Y283D01*
X1503Y283D01*
X1503Y285D01*
X1501Y285D01*
X1501Y289D01*
X1499Y289D01*
X1499Y291D01*
X1497Y291D01*
X1497Y295D01*
X1495Y295D01*
X1495Y299D01*
X1493Y299D01*
X1493Y305D01*
X1491Y305D01*
X1491Y315D01*
X1489Y315D01*
X1489Y337D01*
X1491Y337D01*
X1491Y347D01*
X1493Y347D01*
X1493Y353D01*
X1495Y353D01*
X1495Y357D01*
X1497Y357D01*
X1497Y361D01*
X1499Y361D01*
X1499Y363D01*
X1501Y363D01*
X1501Y367D01*
X1503Y367D01*
X1503Y369D01*
X1505Y369D01*
X1505Y371D01*
X1507Y371D01*
X1507Y373D01*
X1509Y373D01*
X1509Y375D01*
X1511Y375D01*
X1511Y377D01*
X1513Y377D01*
X1513Y379D01*
X1515Y379D01*
X1515Y381D01*
X1517Y381D01*
X1517Y383D01*
X1519Y383D01*
X1519Y385D01*
X1523Y385D01*
X1523Y387D01*
X1527Y387D01*
X1527Y389D01*
X1529Y389D01*
X1529Y391D01*
X1535Y391D01*
X1535Y393D01*
X1541Y393D01*
X1541Y395D01*
X1361Y395D01*
G37*
D02*
G36*
X1579Y395D02*
X1579Y393D01*
X1585Y393D01*
X1585Y391D01*
X1589Y391D01*
X1589Y389D01*
X1593Y389D01*
X1593Y387D01*
X1595Y387D01*
X1595Y385D01*
X1599Y385D01*
X1599Y383D01*
X1601Y383D01*
X1601Y381D01*
X1603Y381D01*
X1603Y379D01*
X1607Y379D01*
X1607Y377D01*
X1609Y377D01*
X1609Y375D01*
X1611Y375D01*
X1611Y371D01*
X1613Y371D01*
X1613Y369D01*
X1615Y369D01*
X1615Y367D01*
X1617Y367D01*
X1617Y365D01*
X1619Y365D01*
X1619Y361D01*
X1621Y361D01*
X1621Y357D01*
X1623Y357D01*
X1623Y353D01*
X1625Y353D01*
X1625Y349D01*
X1627Y349D01*
X1627Y341D01*
X1629Y341D01*
X1629Y311D01*
X1627Y311D01*
X1627Y303D01*
X1625Y303D01*
X1625Y299D01*
X1623Y299D01*
X1623Y295D01*
X1621Y295D01*
X1621Y291D01*
X1619Y291D01*
X1619Y289D01*
X1617Y289D01*
X1617Y285D01*
X1615Y285D01*
X1615Y283D01*
X1613Y283D01*
X1613Y281D01*
X1611Y281D01*
X1611Y279D01*
X1609Y279D01*
X1609Y277D01*
X1607Y277D01*
X1607Y275D01*
X1605Y275D01*
X1605Y273D01*
X1603Y273D01*
X1603Y271D01*
X1601Y271D01*
X1601Y269D01*
X1599Y269D01*
X1599Y267D01*
X1595Y267D01*
X1595Y265D01*
X1591Y265D01*
X1591Y263D01*
X1589Y263D01*
X1589Y261D01*
X1583Y261D01*
X1583Y259D01*
X1577Y259D01*
X1577Y257D01*
X1797Y257D01*
X1797Y259D01*
X1791Y259D01*
X1791Y261D01*
X1787Y261D01*
X1787Y263D01*
X1783Y263D01*
X1783Y265D01*
X1779Y265D01*
X1779Y267D01*
X1777Y267D01*
X1777Y269D01*
X1773Y269D01*
X1773Y271D01*
X1771Y271D01*
X1771Y273D01*
X1769Y273D01*
X1769Y275D01*
X1767Y275D01*
X1767Y277D01*
X1765Y277D01*
X1765Y279D01*
X1763Y279D01*
X1763Y281D01*
X1761Y281D01*
X1761Y283D01*
X1759Y283D01*
X1759Y285D01*
X1757Y285D01*
X1757Y289D01*
X1755Y289D01*
X1755Y291D01*
X1753Y291D01*
X1753Y295D01*
X1751Y295D01*
X1751Y299D01*
X1749Y299D01*
X1749Y305D01*
X1747Y305D01*
X1747Y313D01*
X1745Y313D01*
X1745Y339D01*
X1747Y339D01*
X1747Y347D01*
X1749Y347D01*
X1749Y353D01*
X1751Y353D01*
X1751Y357D01*
X1753Y357D01*
X1753Y361D01*
X1755Y361D01*
X1755Y363D01*
X1757Y363D01*
X1757Y367D01*
X1759Y367D01*
X1759Y369D01*
X1761Y369D01*
X1761Y371D01*
X1763Y371D01*
X1763Y373D01*
X1765Y373D01*
X1765Y375D01*
X1767Y375D01*
X1767Y377D01*
X1769Y377D01*
X1769Y379D01*
X1771Y379D01*
X1771Y381D01*
X1773Y381D01*
X1773Y383D01*
X1775Y383D01*
X1775Y385D01*
X1779Y385D01*
X1779Y387D01*
X1781Y387D01*
X1781Y389D01*
X1785Y389D01*
X1785Y391D01*
X1791Y391D01*
X1791Y393D01*
X1797Y393D01*
X1797Y395D01*
X1579Y395D01*
G37*
D02*
G36*
X125Y257D02*
X125Y255D01*
X1947Y255D01*
X1947Y257D01*
X125Y257D01*
G37*
D02*
G36*
X125Y257D02*
X125Y255D01*
X1947Y255D01*
X1947Y257D01*
X125Y257D01*
G37*
D02*
G36*
X125Y257D02*
X125Y255D01*
X1947Y255D01*
X1947Y257D01*
X125Y257D01*
G37*
D02*
G36*
X125Y257D02*
X125Y255D01*
X1947Y255D01*
X1947Y257D01*
X125Y257D01*
G37*
D02*
G36*
X125Y257D02*
X125Y255D01*
X1947Y255D01*
X1947Y257D01*
X125Y257D01*
G37*
D02*
G36*
X125Y257D02*
X125Y255D01*
X1947Y255D01*
X1947Y257D01*
X125Y257D01*
G37*
D02*
G36*
X125Y257D02*
X125Y255D01*
X1947Y255D01*
X1947Y257D01*
X125Y257D01*
G37*
D02*
G36*
X125Y257D02*
X125Y255D01*
X1947Y255D01*
X1947Y257D01*
X125Y257D01*
G37*
D02*
G36*
X125Y255D02*
X125Y219D01*
X1829Y219D01*
X1829Y217D01*
X1837Y217D01*
X1837Y215D01*
X1843Y215D01*
X1843Y213D01*
X1847Y213D01*
X1847Y211D01*
X1849Y211D01*
X1849Y209D01*
X1853Y209D01*
X1853Y207D01*
X1855Y207D01*
X1855Y205D01*
X1859Y205D01*
X1859Y203D01*
X1861Y203D01*
X1861Y201D01*
X1863Y201D01*
X1863Y199D01*
X1883Y199D01*
X1883Y245D01*
X1885Y245D01*
X1885Y247D01*
X1947Y247D01*
X1947Y255D01*
X125Y255D01*
G37*
D02*
G36*
X155Y219D02*
X155Y217D01*
X163Y217D01*
X163Y215D01*
X169Y215D01*
X169Y213D01*
X173Y213D01*
X173Y211D01*
X177Y211D01*
X177Y209D01*
X179Y209D01*
X179Y207D01*
X183Y207D01*
X183Y205D01*
X185Y205D01*
X185Y203D01*
X187Y203D01*
X187Y201D01*
X189Y201D01*
X189Y199D01*
X191Y199D01*
X191Y197D01*
X193Y197D01*
X193Y195D01*
X195Y195D01*
X195Y193D01*
X197Y193D01*
X197Y191D01*
X199Y191D01*
X199Y189D01*
X201Y189D01*
X201Y185D01*
X203Y185D01*
X203Y181D01*
X205Y181D01*
X205Y177D01*
X207Y177D01*
X207Y173D01*
X209Y173D01*
X209Y167D01*
X211Y167D01*
X211Y129D01*
X329Y129D01*
X329Y169D01*
X331Y169D01*
X331Y173D01*
X333Y173D01*
X333Y179D01*
X335Y179D01*
X335Y183D01*
X337Y183D01*
X337Y185D01*
X339Y185D01*
X339Y189D01*
X341Y189D01*
X341Y191D01*
X343Y191D01*
X343Y193D01*
X345Y193D01*
X345Y195D01*
X347Y195D01*
X347Y197D01*
X349Y197D01*
X349Y199D01*
X351Y199D01*
X351Y201D01*
X353Y201D01*
X353Y203D01*
X355Y203D01*
X355Y205D01*
X357Y205D01*
X357Y207D01*
X361Y207D01*
X361Y209D01*
X363Y209D01*
X363Y211D01*
X367Y211D01*
X367Y213D01*
X371Y213D01*
X371Y215D01*
X377Y215D01*
X377Y217D01*
X385Y217D01*
X385Y219D01*
X155Y219D01*
G37*
D02*
G36*
X411Y219D02*
X411Y217D01*
X419Y217D01*
X419Y215D01*
X425Y215D01*
X425Y213D01*
X429Y213D01*
X429Y211D01*
X433Y211D01*
X433Y209D01*
X435Y209D01*
X435Y207D01*
X439Y207D01*
X439Y205D01*
X441Y205D01*
X441Y203D01*
X443Y203D01*
X443Y201D01*
X445Y201D01*
X445Y199D01*
X447Y199D01*
X447Y197D01*
X449Y197D01*
X449Y195D01*
X451Y195D01*
X451Y193D01*
X453Y193D01*
X453Y191D01*
X455Y191D01*
X455Y187D01*
X457Y187D01*
X457Y185D01*
X459Y185D01*
X459Y181D01*
X461Y181D01*
X461Y177D01*
X463Y177D01*
X463Y173D01*
X465Y173D01*
X465Y167D01*
X467Y167D01*
X467Y129D01*
X545Y129D01*
X545Y165D01*
X547Y165D01*
X547Y173D01*
X549Y173D01*
X549Y177D01*
X551Y177D01*
X551Y181D01*
X553Y181D01*
X553Y185D01*
X555Y185D01*
X555Y187D01*
X557Y187D01*
X557Y191D01*
X559Y191D01*
X559Y193D01*
X561Y193D01*
X561Y195D01*
X563Y195D01*
X563Y197D01*
X565Y197D01*
X565Y199D01*
X567Y199D01*
X567Y201D01*
X569Y201D01*
X569Y203D01*
X571Y203D01*
X571Y205D01*
X573Y205D01*
X573Y207D01*
X577Y207D01*
X577Y209D01*
X579Y209D01*
X579Y211D01*
X583Y211D01*
X583Y213D01*
X587Y213D01*
X587Y215D01*
X593Y215D01*
X593Y217D01*
X601Y217D01*
X601Y219D01*
X411Y219D01*
G37*
D02*
G36*
X627Y219D02*
X627Y217D01*
X637Y217D01*
X637Y215D01*
X641Y215D01*
X641Y213D01*
X645Y213D01*
X645Y211D01*
X649Y211D01*
X649Y209D01*
X653Y209D01*
X653Y207D01*
X655Y207D01*
X655Y205D01*
X657Y205D01*
X657Y203D01*
X659Y203D01*
X659Y201D01*
X663Y201D01*
X663Y199D01*
X665Y199D01*
X665Y197D01*
X667Y197D01*
X667Y193D01*
X669Y193D01*
X669Y191D01*
X671Y191D01*
X671Y189D01*
X673Y189D01*
X673Y185D01*
X675Y185D01*
X675Y183D01*
X677Y183D01*
X677Y179D01*
X679Y179D01*
X679Y175D01*
X681Y175D01*
X681Y169D01*
X683Y169D01*
X683Y129D01*
X801Y129D01*
X801Y167D01*
X803Y167D01*
X803Y173D01*
X805Y173D01*
X805Y177D01*
X807Y177D01*
X807Y181D01*
X809Y181D01*
X809Y185D01*
X811Y185D01*
X811Y187D01*
X813Y187D01*
X813Y191D01*
X815Y191D01*
X815Y193D01*
X817Y193D01*
X817Y195D01*
X819Y195D01*
X819Y197D01*
X821Y197D01*
X821Y199D01*
X823Y199D01*
X823Y201D01*
X825Y201D01*
X825Y203D01*
X827Y203D01*
X827Y205D01*
X829Y205D01*
X829Y207D01*
X833Y207D01*
X833Y209D01*
X835Y209D01*
X835Y211D01*
X839Y211D01*
X839Y213D01*
X843Y213D01*
X843Y215D01*
X849Y215D01*
X849Y217D01*
X857Y217D01*
X857Y219D01*
X627Y219D01*
G37*
D02*
G36*
X883Y219D02*
X883Y217D01*
X891Y217D01*
X891Y215D01*
X897Y215D01*
X897Y213D01*
X901Y213D01*
X901Y211D01*
X905Y211D01*
X905Y209D01*
X907Y209D01*
X907Y207D01*
X911Y207D01*
X911Y205D01*
X913Y205D01*
X913Y203D01*
X915Y203D01*
X915Y201D01*
X917Y201D01*
X917Y199D01*
X921Y199D01*
X921Y195D01*
X923Y195D01*
X923Y193D01*
X925Y193D01*
X925Y191D01*
X927Y191D01*
X927Y189D01*
X929Y189D01*
X929Y185D01*
X931Y185D01*
X931Y183D01*
X933Y183D01*
X933Y179D01*
X935Y179D01*
X935Y175D01*
X937Y175D01*
X937Y169D01*
X939Y169D01*
X939Y129D01*
X1017Y129D01*
X1017Y163D01*
X1019Y163D01*
X1019Y171D01*
X1021Y171D01*
X1021Y177D01*
X1023Y177D01*
X1023Y181D01*
X1025Y181D01*
X1025Y183D01*
X1027Y183D01*
X1027Y187D01*
X1029Y187D01*
X1029Y189D01*
X1031Y189D01*
X1031Y193D01*
X1033Y193D01*
X1033Y195D01*
X1035Y195D01*
X1035Y197D01*
X1037Y197D01*
X1037Y199D01*
X1039Y199D01*
X1039Y201D01*
X1041Y201D01*
X1041Y203D01*
X1043Y203D01*
X1043Y205D01*
X1047Y205D01*
X1047Y207D01*
X1049Y207D01*
X1049Y209D01*
X1053Y209D01*
X1053Y211D01*
X1055Y211D01*
X1055Y213D01*
X1059Y213D01*
X1059Y215D01*
X1065Y215D01*
X1065Y217D01*
X1073Y217D01*
X1073Y219D01*
X883Y219D01*
G37*
D02*
G36*
X1101Y219D02*
X1101Y217D01*
X1109Y217D01*
X1109Y215D01*
X1113Y215D01*
X1113Y213D01*
X1117Y213D01*
X1117Y211D01*
X1121Y211D01*
X1121Y209D01*
X1125Y209D01*
X1125Y207D01*
X1127Y207D01*
X1127Y205D01*
X1129Y205D01*
X1129Y203D01*
X1133Y203D01*
X1133Y201D01*
X1135Y201D01*
X1135Y199D01*
X1137Y199D01*
X1137Y197D01*
X1139Y197D01*
X1139Y195D01*
X1141Y195D01*
X1141Y191D01*
X1143Y191D01*
X1143Y189D01*
X1145Y189D01*
X1145Y187D01*
X1147Y187D01*
X1147Y183D01*
X1149Y183D01*
X1149Y179D01*
X1151Y179D01*
X1151Y175D01*
X1153Y175D01*
X1153Y169D01*
X1155Y169D01*
X1155Y161D01*
X1157Y161D01*
X1157Y129D01*
X1273Y129D01*
X1273Y165D01*
X1275Y165D01*
X1275Y171D01*
X1277Y171D01*
X1277Y177D01*
X1279Y177D01*
X1279Y181D01*
X1281Y181D01*
X1281Y185D01*
X1283Y185D01*
X1283Y187D01*
X1285Y187D01*
X1285Y189D01*
X1287Y189D01*
X1287Y193D01*
X1289Y193D01*
X1289Y195D01*
X1291Y195D01*
X1291Y197D01*
X1293Y197D01*
X1293Y199D01*
X1295Y199D01*
X1295Y201D01*
X1297Y201D01*
X1297Y203D01*
X1299Y203D01*
X1299Y205D01*
X1303Y205D01*
X1303Y207D01*
X1305Y207D01*
X1305Y209D01*
X1309Y209D01*
X1309Y211D01*
X1311Y211D01*
X1311Y213D01*
X1315Y213D01*
X1315Y215D01*
X1321Y215D01*
X1321Y217D01*
X1329Y217D01*
X1329Y219D01*
X1101Y219D01*
G37*
D02*
G36*
X1355Y219D02*
X1355Y217D01*
X1365Y217D01*
X1365Y215D01*
X1369Y215D01*
X1369Y213D01*
X1373Y213D01*
X1373Y211D01*
X1377Y211D01*
X1377Y209D01*
X1381Y209D01*
X1381Y207D01*
X1383Y207D01*
X1383Y205D01*
X1385Y205D01*
X1385Y203D01*
X1389Y203D01*
X1389Y201D01*
X1391Y201D01*
X1391Y199D01*
X1393Y199D01*
X1393Y197D01*
X1395Y197D01*
X1395Y195D01*
X1397Y195D01*
X1397Y191D01*
X1399Y191D01*
X1399Y189D01*
X1401Y189D01*
X1401Y187D01*
X1403Y187D01*
X1403Y183D01*
X1405Y183D01*
X1405Y179D01*
X1407Y179D01*
X1407Y175D01*
X1409Y175D01*
X1409Y169D01*
X1411Y169D01*
X1411Y159D01*
X1413Y159D01*
X1413Y129D01*
X1489Y129D01*
X1489Y161D01*
X1491Y161D01*
X1491Y169D01*
X1493Y169D01*
X1493Y175D01*
X1495Y175D01*
X1495Y179D01*
X1497Y179D01*
X1497Y183D01*
X1499Y183D01*
X1499Y187D01*
X1501Y187D01*
X1501Y189D01*
X1503Y189D01*
X1503Y191D01*
X1505Y191D01*
X1505Y195D01*
X1507Y195D01*
X1507Y197D01*
X1509Y197D01*
X1509Y199D01*
X1511Y199D01*
X1511Y201D01*
X1513Y201D01*
X1513Y203D01*
X1517Y203D01*
X1517Y205D01*
X1519Y205D01*
X1519Y207D01*
X1521Y207D01*
X1521Y209D01*
X1525Y209D01*
X1525Y211D01*
X1529Y211D01*
X1529Y213D01*
X1533Y213D01*
X1533Y215D01*
X1537Y215D01*
X1537Y217D01*
X1545Y217D01*
X1545Y219D01*
X1355Y219D01*
G37*
D02*
G36*
X1573Y219D02*
X1573Y217D01*
X1581Y217D01*
X1581Y215D01*
X1587Y215D01*
X1587Y213D01*
X1591Y213D01*
X1591Y211D01*
X1593Y211D01*
X1593Y209D01*
X1597Y209D01*
X1597Y207D01*
X1599Y207D01*
X1599Y205D01*
X1603Y205D01*
X1603Y203D01*
X1605Y203D01*
X1605Y201D01*
X1607Y201D01*
X1607Y199D01*
X1609Y199D01*
X1609Y197D01*
X1611Y197D01*
X1611Y195D01*
X1613Y195D01*
X1613Y193D01*
X1615Y193D01*
X1615Y189D01*
X1617Y189D01*
X1617Y187D01*
X1619Y187D01*
X1619Y183D01*
X1621Y183D01*
X1621Y181D01*
X1623Y181D01*
X1623Y177D01*
X1625Y177D01*
X1625Y171D01*
X1627Y171D01*
X1627Y163D01*
X1629Y163D01*
X1629Y129D01*
X1745Y129D01*
X1745Y161D01*
X1747Y161D01*
X1747Y171D01*
X1749Y171D01*
X1749Y175D01*
X1751Y175D01*
X1751Y179D01*
X1753Y179D01*
X1753Y183D01*
X1755Y183D01*
X1755Y187D01*
X1757Y187D01*
X1757Y189D01*
X1759Y189D01*
X1759Y191D01*
X1761Y191D01*
X1761Y195D01*
X1763Y195D01*
X1763Y197D01*
X1765Y197D01*
X1765Y199D01*
X1767Y199D01*
X1767Y201D01*
X1769Y201D01*
X1769Y203D01*
X1773Y203D01*
X1773Y205D01*
X1775Y205D01*
X1775Y207D01*
X1777Y207D01*
X1777Y209D01*
X1781Y209D01*
X1781Y211D01*
X1785Y211D01*
X1785Y213D01*
X1789Y213D01*
X1789Y215D01*
X1793Y215D01*
X1793Y217D01*
X1801Y217D01*
X1801Y219D01*
X1573Y219D01*
G37*
D02*
G36*
X1273Y1679D02*
X1273Y1677D01*
X1271Y1677D01*
X1271Y1655D01*
X1273Y1655D01*
X1273Y1653D01*
X1275Y1653D01*
X1275Y1651D01*
X1277Y1651D01*
X1277Y1649D01*
X1279Y1649D01*
X1279Y1647D01*
X1281Y1647D01*
X1281Y1643D01*
X1283Y1643D01*
X1283Y1641D01*
X1285Y1641D01*
X1285Y1639D01*
X1287Y1639D01*
X1287Y1637D01*
X1289Y1637D01*
X1289Y1635D01*
X1291Y1635D01*
X1291Y1633D01*
X1293Y1633D01*
X1293Y1631D01*
X1295Y1631D01*
X1295Y1629D01*
X1297Y1629D01*
X1297Y1627D01*
X1299Y1627D01*
X1299Y1625D01*
X1301Y1625D01*
X1301Y1623D01*
X1303Y1623D01*
X1303Y1621D01*
X1305Y1621D01*
X1305Y1619D01*
X1307Y1619D01*
X1307Y1615D01*
X1309Y1615D01*
X1309Y1613D01*
X1311Y1613D01*
X1311Y1611D01*
X1313Y1611D01*
X1313Y1609D01*
X1315Y1609D01*
X1315Y1607D01*
X1317Y1607D01*
X1317Y1605D01*
X1319Y1605D01*
X1319Y1603D01*
X1321Y1603D01*
X1321Y1601D01*
X1323Y1601D01*
X1323Y1599D01*
X1325Y1599D01*
X1325Y1597D01*
X1327Y1597D01*
X1327Y1595D01*
X1329Y1595D01*
X1329Y1593D01*
X1331Y1593D01*
X1331Y1589D01*
X1333Y1589D01*
X1333Y1587D01*
X1335Y1587D01*
X1335Y1585D01*
X1337Y1585D01*
X1337Y1583D01*
X1339Y1583D01*
X1339Y1581D01*
X1341Y1581D01*
X1341Y1579D01*
X1343Y1579D01*
X1343Y1577D01*
X1345Y1577D01*
X1345Y1575D01*
X1347Y1575D01*
X1347Y1573D01*
X1349Y1573D01*
X1349Y1571D01*
X1351Y1571D01*
X1351Y1569D01*
X1353Y1569D01*
X1353Y1567D01*
X1355Y1567D01*
X1355Y1565D01*
X1357Y1565D01*
X1357Y1561D01*
X1359Y1561D01*
X1359Y1559D01*
X1361Y1559D01*
X1361Y1557D01*
X1363Y1557D01*
X1363Y1555D01*
X1365Y1555D01*
X1365Y1553D01*
X1367Y1553D01*
X1367Y1551D01*
X1369Y1551D01*
X1369Y1549D01*
X1371Y1549D01*
X1371Y1547D01*
X1373Y1547D01*
X1373Y1545D01*
X1375Y1545D01*
X1375Y1543D01*
X1377Y1543D01*
X1377Y1541D01*
X1379Y1541D01*
X1379Y1539D01*
X1381Y1539D01*
X1381Y1535D01*
X1383Y1535D01*
X1383Y1533D01*
X1385Y1533D01*
X1385Y1531D01*
X1387Y1531D01*
X1387Y1529D01*
X1389Y1529D01*
X1389Y1527D01*
X1391Y1527D01*
X1391Y1525D01*
X1393Y1525D01*
X1393Y1523D01*
X1395Y1523D01*
X1395Y1521D01*
X1397Y1521D01*
X1397Y1519D01*
X1399Y1519D01*
X1399Y1517D01*
X1401Y1517D01*
X1401Y1515D01*
X1403Y1515D01*
X1403Y1513D01*
X1405Y1513D01*
X1405Y1509D01*
X1407Y1509D01*
X1407Y1507D01*
X1409Y1507D01*
X1409Y1505D01*
X1411Y1505D01*
X1411Y1503D01*
X1413Y1503D01*
X1413Y1501D01*
X1415Y1501D01*
X1415Y1499D01*
X1417Y1499D01*
X1417Y1497D01*
X1419Y1497D01*
X1419Y1495D01*
X1421Y1495D01*
X1421Y1493D01*
X1423Y1493D01*
X1423Y1491D01*
X1425Y1491D01*
X1425Y1489D01*
X1427Y1489D01*
X1427Y1487D01*
X1429Y1487D01*
X1429Y1485D01*
X1431Y1485D01*
X1431Y1481D01*
X1433Y1481D01*
X1433Y1479D01*
X1435Y1479D01*
X1435Y1477D01*
X1437Y1477D01*
X1437Y1475D01*
X1439Y1475D01*
X1439Y1473D01*
X1441Y1473D01*
X1441Y1471D01*
X1443Y1471D01*
X1443Y1469D01*
X1485Y1469D01*
X1485Y1489D01*
X1483Y1489D01*
X1483Y1491D01*
X1481Y1491D01*
X1481Y1493D01*
X1479Y1493D01*
X1479Y1495D01*
X1477Y1495D01*
X1477Y1497D01*
X1475Y1497D01*
X1475Y1499D01*
X1473Y1499D01*
X1473Y1503D01*
X1471Y1503D01*
X1471Y1505D01*
X1469Y1505D01*
X1469Y1507D01*
X1467Y1507D01*
X1467Y1509D01*
X1465Y1509D01*
X1465Y1511D01*
X1463Y1511D01*
X1463Y1513D01*
X1461Y1513D01*
X1461Y1517D01*
X1459Y1517D01*
X1459Y1519D01*
X1457Y1519D01*
X1457Y1521D01*
X1455Y1521D01*
X1455Y1523D01*
X1453Y1523D01*
X1453Y1525D01*
X1451Y1525D01*
X1451Y1527D01*
X1449Y1527D01*
X1449Y1531D01*
X1447Y1531D01*
X1447Y1533D01*
X1445Y1533D01*
X1445Y1535D01*
X1443Y1535D01*
X1443Y1537D01*
X1441Y1537D01*
X1441Y1539D01*
X1439Y1539D01*
X1439Y1541D01*
X1437Y1541D01*
X1437Y1545D01*
X1435Y1545D01*
X1435Y1547D01*
X1433Y1547D01*
X1433Y1549D01*
X1431Y1549D01*
X1431Y1551D01*
X1429Y1551D01*
X1429Y1553D01*
X1427Y1553D01*
X1427Y1555D01*
X1425Y1555D01*
X1425Y1559D01*
X1423Y1559D01*
X1423Y1561D01*
X1421Y1561D01*
X1421Y1563D01*
X1419Y1563D01*
X1419Y1565D01*
X1417Y1565D01*
X1417Y1567D01*
X1415Y1567D01*
X1415Y1569D01*
X1413Y1569D01*
X1413Y1573D01*
X1411Y1573D01*
X1411Y1575D01*
X1409Y1575D01*
X1409Y1577D01*
X1407Y1577D01*
X1407Y1579D01*
X1405Y1579D01*
X1405Y1581D01*
X1403Y1581D01*
X1403Y1583D01*
X1401Y1583D01*
X1401Y1587D01*
X1399Y1587D01*
X1399Y1589D01*
X1397Y1589D01*
X1397Y1591D01*
X1395Y1591D01*
X1395Y1593D01*
X1393Y1593D01*
X1393Y1595D01*
X1391Y1595D01*
X1391Y1597D01*
X1389Y1597D01*
X1389Y1599D01*
X1387Y1599D01*
X1387Y1603D01*
X1385Y1603D01*
X1385Y1605D01*
X1383Y1605D01*
X1383Y1607D01*
X1381Y1607D01*
X1381Y1609D01*
X1379Y1609D01*
X1379Y1611D01*
X1377Y1611D01*
X1377Y1613D01*
X1375Y1613D01*
X1375Y1617D01*
X1373Y1617D01*
X1373Y1619D01*
X1371Y1619D01*
X1371Y1621D01*
X1369Y1621D01*
X1369Y1623D01*
X1367Y1623D01*
X1367Y1625D01*
X1365Y1625D01*
X1365Y1627D01*
X1363Y1627D01*
X1363Y1631D01*
X1361Y1631D01*
X1361Y1633D01*
X1359Y1633D01*
X1359Y1635D01*
X1357Y1635D01*
X1357Y1637D01*
X1355Y1637D01*
X1355Y1639D01*
X1353Y1639D01*
X1353Y1641D01*
X1351Y1641D01*
X1351Y1645D01*
X1349Y1645D01*
X1349Y1647D01*
X1347Y1647D01*
X1347Y1649D01*
X1345Y1649D01*
X1345Y1651D01*
X1343Y1651D01*
X1343Y1653D01*
X1341Y1653D01*
X1341Y1655D01*
X1339Y1655D01*
X1339Y1659D01*
X1337Y1659D01*
X1337Y1661D01*
X1335Y1661D01*
X1335Y1663D01*
X1333Y1663D01*
X1333Y1665D01*
X1331Y1665D01*
X1331Y1667D01*
X1313Y1667D01*
X1313Y1669D01*
X1307Y1669D01*
X1307Y1671D01*
X1303Y1671D01*
X1303Y1673D01*
X1299Y1673D01*
X1299Y1675D01*
X1297Y1675D01*
X1297Y1677D01*
X1293Y1677D01*
X1293Y1679D01*
X1273Y1679D01*
G37*
D02*
G36*
X1473Y1679D02*
X1473Y1677D01*
X1471Y1677D01*
X1471Y1675D01*
X1467Y1675D01*
X1467Y1673D01*
X1465Y1673D01*
X1465Y1667D01*
X1513Y1667D01*
X1513Y1669D01*
X1507Y1669D01*
X1507Y1671D01*
X1503Y1671D01*
X1503Y1673D01*
X1499Y1673D01*
X1499Y1675D01*
X1497Y1675D01*
X1497Y1677D01*
X1493Y1677D01*
X1493Y1679D01*
X1473Y1679D01*
G37*
D02*
G36*
X1567Y1675D02*
X1567Y1673D01*
X1563Y1673D01*
X1563Y1671D01*
X1559Y1671D01*
X1559Y1669D01*
X1553Y1669D01*
X1553Y1667D01*
X1589Y1667D01*
X1589Y1675D01*
X1567Y1675D01*
G37*
D02*
G36*
X1465Y1667D02*
X1465Y1665D01*
X1589Y1665D01*
X1589Y1667D01*
X1465Y1667D01*
G37*
D02*
G36*
X1465Y1667D02*
X1465Y1665D01*
X1589Y1665D01*
X1589Y1667D01*
X1465Y1667D01*
G37*
D02*
G36*
X1465Y1665D02*
X1465Y1653D01*
X1467Y1653D01*
X1467Y1651D01*
X1469Y1651D01*
X1469Y1649D01*
X1471Y1649D01*
X1471Y1647D01*
X1473Y1647D01*
X1473Y1643D01*
X1475Y1643D01*
X1475Y1641D01*
X1477Y1641D01*
X1477Y1639D01*
X1479Y1639D01*
X1479Y1637D01*
X1481Y1637D01*
X1481Y1635D01*
X1483Y1635D01*
X1483Y1633D01*
X1485Y1633D01*
X1485Y1629D01*
X1487Y1629D01*
X1487Y1627D01*
X1489Y1627D01*
X1489Y1625D01*
X1491Y1625D01*
X1491Y1623D01*
X1493Y1623D01*
X1493Y1621D01*
X1495Y1621D01*
X1495Y1619D01*
X1497Y1619D01*
X1497Y1615D01*
X1499Y1615D01*
X1499Y1613D01*
X1501Y1613D01*
X1501Y1611D01*
X1503Y1611D01*
X1503Y1609D01*
X1505Y1609D01*
X1505Y1607D01*
X1507Y1607D01*
X1507Y1605D01*
X1509Y1605D01*
X1509Y1601D01*
X1511Y1601D01*
X1511Y1599D01*
X1513Y1599D01*
X1513Y1597D01*
X1515Y1597D01*
X1515Y1595D01*
X1517Y1595D01*
X1517Y1593D01*
X1519Y1593D01*
X1519Y1591D01*
X1521Y1591D01*
X1521Y1587D01*
X1523Y1587D01*
X1523Y1585D01*
X1525Y1585D01*
X1525Y1583D01*
X1527Y1583D01*
X1527Y1581D01*
X1529Y1581D01*
X1529Y1579D01*
X1531Y1579D01*
X1531Y1577D01*
X1533Y1577D01*
X1533Y1573D01*
X1535Y1573D01*
X1535Y1571D01*
X1537Y1571D01*
X1537Y1569D01*
X1539Y1569D01*
X1539Y1567D01*
X1541Y1567D01*
X1541Y1565D01*
X1543Y1565D01*
X1543Y1563D01*
X1545Y1563D01*
X1545Y1559D01*
X1547Y1559D01*
X1547Y1557D01*
X1549Y1557D01*
X1549Y1555D01*
X1551Y1555D01*
X1551Y1553D01*
X1553Y1553D01*
X1553Y1551D01*
X1555Y1551D01*
X1555Y1549D01*
X1557Y1549D01*
X1557Y1547D01*
X1559Y1547D01*
X1559Y1543D01*
X1561Y1543D01*
X1561Y1541D01*
X1563Y1541D01*
X1563Y1539D01*
X1565Y1539D01*
X1565Y1537D01*
X1567Y1537D01*
X1567Y1535D01*
X1569Y1535D01*
X1569Y1533D01*
X1571Y1533D01*
X1571Y1529D01*
X1573Y1529D01*
X1573Y1527D01*
X1575Y1527D01*
X1575Y1525D01*
X1577Y1525D01*
X1577Y1523D01*
X1579Y1523D01*
X1579Y1521D01*
X1581Y1521D01*
X1581Y1519D01*
X1583Y1519D01*
X1583Y1517D01*
X1667Y1517D01*
X1667Y1537D01*
X1665Y1537D01*
X1665Y1539D01*
X1663Y1539D01*
X1663Y1541D01*
X1661Y1541D01*
X1661Y1545D01*
X1659Y1545D01*
X1659Y1547D01*
X1657Y1547D01*
X1657Y1549D01*
X1655Y1549D01*
X1655Y1553D01*
X1653Y1553D01*
X1653Y1555D01*
X1651Y1555D01*
X1651Y1557D01*
X1649Y1557D01*
X1649Y1561D01*
X1647Y1561D01*
X1647Y1563D01*
X1645Y1563D01*
X1645Y1565D01*
X1643Y1565D01*
X1643Y1569D01*
X1641Y1569D01*
X1641Y1571D01*
X1639Y1571D01*
X1639Y1573D01*
X1637Y1573D01*
X1637Y1575D01*
X1635Y1575D01*
X1635Y1579D01*
X1633Y1579D01*
X1633Y1581D01*
X1631Y1581D01*
X1631Y1583D01*
X1629Y1583D01*
X1629Y1587D01*
X1627Y1587D01*
X1627Y1589D01*
X1625Y1589D01*
X1625Y1591D01*
X1623Y1591D01*
X1623Y1595D01*
X1621Y1595D01*
X1621Y1597D01*
X1619Y1597D01*
X1619Y1599D01*
X1617Y1599D01*
X1617Y1603D01*
X1615Y1603D01*
X1615Y1605D01*
X1613Y1605D01*
X1613Y1607D01*
X1611Y1607D01*
X1611Y1611D01*
X1609Y1611D01*
X1609Y1613D01*
X1607Y1613D01*
X1607Y1615D01*
X1605Y1615D01*
X1605Y1619D01*
X1603Y1619D01*
X1603Y1621D01*
X1601Y1621D01*
X1601Y1623D01*
X1599Y1623D01*
X1599Y1627D01*
X1597Y1627D01*
X1597Y1629D01*
X1595Y1629D01*
X1595Y1631D01*
X1593Y1631D01*
X1593Y1635D01*
X1591Y1635D01*
X1591Y1643D01*
X1589Y1643D01*
X1589Y1665D01*
X1465Y1665D01*
G37*
D02*
G36*
X873Y1679D02*
X873Y1677D01*
X871Y1677D01*
X871Y1675D01*
X867Y1675D01*
X867Y1673D01*
X863Y1673D01*
X863Y1671D01*
X859Y1671D01*
X859Y1669D01*
X853Y1669D01*
X853Y1667D01*
X913Y1667D01*
X913Y1669D01*
X907Y1669D01*
X907Y1671D01*
X903Y1671D01*
X903Y1673D01*
X899Y1673D01*
X899Y1675D01*
X897Y1675D01*
X897Y1677D01*
X893Y1677D01*
X893Y1679D01*
X873Y1679D01*
G37*
D02*
G36*
X973Y1679D02*
X973Y1677D01*
X971Y1677D01*
X971Y1675D01*
X967Y1675D01*
X967Y1673D01*
X963Y1673D01*
X963Y1671D01*
X959Y1671D01*
X959Y1669D01*
X953Y1669D01*
X953Y1667D01*
X1013Y1667D01*
X1013Y1669D01*
X1007Y1669D01*
X1007Y1671D01*
X1003Y1671D01*
X1003Y1673D01*
X999Y1673D01*
X999Y1675D01*
X997Y1675D01*
X997Y1677D01*
X993Y1677D01*
X993Y1679D01*
X973Y1679D01*
G37*
D02*
G36*
X1073Y1679D02*
X1073Y1677D01*
X1071Y1677D01*
X1071Y1675D01*
X1067Y1675D01*
X1067Y1673D01*
X1063Y1673D01*
X1063Y1671D01*
X1059Y1671D01*
X1059Y1669D01*
X1053Y1669D01*
X1053Y1667D01*
X1113Y1667D01*
X1113Y1669D01*
X1107Y1669D01*
X1107Y1671D01*
X1103Y1671D01*
X1103Y1673D01*
X1099Y1673D01*
X1099Y1675D01*
X1097Y1675D01*
X1097Y1677D01*
X1093Y1677D01*
X1093Y1679D01*
X1073Y1679D01*
G37*
D02*
G36*
X775Y1677D02*
X775Y1667D01*
X813Y1667D01*
X813Y1669D01*
X807Y1669D01*
X807Y1671D01*
X803Y1671D01*
X803Y1673D01*
X799Y1673D01*
X799Y1675D01*
X797Y1675D01*
X797Y1677D01*
X775Y1677D01*
G37*
D02*
G36*
X775Y1667D02*
X775Y1665D01*
X1133Y1665D01*
X1133Y1667D01*
X775Y1667D01*
G37*
D02*
G36*
X775Y1667D02*
X775Y1665D01*
X1133Y1665D01*
X1133Y1667D01*
X775Y1667D01*
G37*
D02*
G36*
X775Y1667D02*
X775Y1665D01*
X1133Y1665D01*
X1133Y1667D01*
X775Y1667D01*
G37*
D02*
G36*
X775Y1667D02*
X775Y1665D01*
X1133Y1665D01*
X1133Y1667D01*
X775Y1667D01*
G37*
D02*
G36*
X775Y1665D02*
X775Y1659D01*
X777Y1659D01*
X777Y1657D01*
X779Y1657D01*
X779Y1655D01*
X781Y1655D01*
X781Y1653D01*
X783Y1653D01*
X783Y1651D01*
X785Y1651D01*
X785Y1649D01*
X787Y1649D01*
X787Y1647D01*
X789Y1647D01*
X789Y1645D01*
X791Y1645D01*
X791Y1643D01*
X793Y1643D01*
X793Y1641D01*
X795Y1641D01*
X795Y1639D01*
X797Y1639D01*
X797Y1637D01*
X799Y1637D01*
X799Y1635D01*
X801Y1635D01*
X801Y1633D01*
X803Y1633D01*
X803Y1631D01*
X805Y1631D01*
X805Y1629D01*
X807Y1629D01*
X807Y1627D01*
X809Y1627D01*
X809Y1625D01*
X811Y1625D01*
X811Y1623D01*
X813Y1623D01*
X813Y1621D01*
X815Y1621D01*
X815Y1619D01*
X817Y1619D01*
X817Y1617D01*
X819Y1617D01*
X819Y1615D01*
X821Y1615D01*
X821Y1613D01*
X823Y1613D01*
X823Y1611D01*
X825Y1611D01*
X825Y1609D01*
X827Y1609D01*
X827Y1607D01*
X829Y1607D01*
X829Y1605D01*
X831Y1605D01*
X831Y1603D01*
X833Y1603D01*
X833Y1601D01*
X835Y1601D01*
X835Y1599D01*
X837Y1599D01*
X837Y1597D01*
X839Y1597D01*
X839Y1595D01*
X841Y1595D01*
X841Y1593D01*
X843Y1593D01*
X843Y1591D01*
X845Y1591D01*
X845Y1589D01*
X847Y1589D01*
X847Y1587D01*
X849Y1587D01*
X849Y1585D01*
X851Y1585D01*
X851Y1583D01*
X853Y1583D01*
X853Y1581D01*
X855Y1581D01*
X855Y1579D01*
X857Y1579D01*
X857Y1577D01*
X859Y1577D01*
X859Y1575D01*
X861Y1575D01*
X861Y1573D01*
X863Y1573D01*
X863Y1571D01*
X865Y1571D01*
X865Y1569D01*
X867Y1569D01*
X867Y1567D01*
X869Y1567D01*
X869Y1565D01*
X871Y1565D01*
X871Y1563D01*
X873Y1563D01*
X873Y1561D01*
X875Y1561D01*
X875Y1559D01*
X877Y1559D01*
X877Y1557D01*
X879Y1557D01*
X879Y1555D01*
X881Y1555D01*
X881Y1553D01*
X883Y1553D01*
X883Y1551D01*
X885Y1551D01*
X885Y1549D01*
X887Y1549D01*
X887Y1547D01*
X889Y1547D01*
X889Y1545D01*
X891Y1545D01*
X891Y1543D01*
X893Y1543D01*
X893Y1541D01*
X895Y1541D01*
X895Y1539D01*
X897Y1539D01*
X897Y1537D01*
X899Y1537D01*
X899Y1535D01*
X901Y1535D01*
X901Y1533D01*
X903Y1533D01*
X903Y1531D01*
X905Y1531D01*
X905Y1529D01*
X907Y1529D01*
X907Y1527D01*
X909Y1527D01*
X909Y1525D01*
X911Y1525D01*
X911Y1523D01*
X913Y1523D01*
X913Y1521D01*
X915Y1521D01*
X915Y1519D01*
X917Y1519D01*
X917Y1517D01*
X919Y1517D01*
X919Y1515D01*
X921Y1515D01*
X921Y1513D01*
X923Y1513D01*
X923Y1511D01*
X925Y1511D01*
X925Y1509D01*
X927Y1509D01*
X927Y1507D01*
X929Y1507D01*
X929Y1505D01*
X931Y1505D01*
X931Y1503D01*
X933Y1503D01*
X933Y1501D01*
X935Y1501D01*
X935Y1499D01*
X937Y1499D01*
X937Y1497D01*
X939Y1497D01*
X939Y1495D01*
X941Y1495D01*
X941Y1493D01*
X943Y1493D01*
X943Y1491D01*
X945Y1491D01*
X945Y1489D01*
X947Y1489D01*
X947Y1487D01*
X949Y1487D01*
X949Y1485D01*
X951Y1485D01*
X951Y1483D01*
X953Y1483D01*
X953Y1481D01*
X955Y1481D01*
X955Y1479D01*
X957Y1479D01*
X957Y1477D01*
X959Y1477D01*
X959Y1475D01*
X961Y1475D01*
X961Y1473D01*
X963Y1473D01*
X963Y1471D01*
X965Y1471D01*
X965Y1469D01*
X967Y1469D01*
X967Y1467D01*
X969Y1467D01*
X969Y1465D01*
X971Y1465D01*
X971Y1463D01*
X973Y1463D01*
X973Y1461D01*
X975Y1461D01*
X975Y1459D01*
X977Y1459D01*
X977Y1457D01*
X979Y1457D01*
X979Y1455D01*
X981Y1455D01*
X981Y1453D01*
X983Y1453D01*
X983Y1451D01*
X985Y1451D01*
X985Y1449D01*
X987Y1449D01*
X987Y1447D01*
X989Y1447D01*
X989Y1445D01*
X991Y1445D01*
X991Y1443D01*
X993Y1443D01*
X993Y1441D01*
X995Y1441D01*
X995Y1439D01*
X997Y1439D01*
X997Y1437D01*
X999Y1437D01*
X999Y1435D01*
X1001Y1435D01*
X1001Y1433D01*
X1003Y1433D01*
X1003Y1431D01*
X1005Y1431D01*
X1005Y1429D01*
X1007Y1429D01*
X1007Y1427D01*
X1009Y1427D01*
X1009Y1425D01*
X1011Y1425D01*
X1011Y1423D01*
X1013Y1423D01*
X1013Y1421D01*
X1015Y1421D01*
X1015Y1419D01*
X1017Y1419D01*
X1017Y1417D01*
X1019Y1417D01*
X1019Y1415D01*
X1021Y1415D01*
X1021Y1413D01*
X1023Y1413D01*
X1023Y1411D01*
X1025Y1411D01*
X1025Y1409D01*
X1027Y1409D01*
X1027Y1407D01*
X1029Y1407D01*
X1029Y1405D01*
X1031Y1405D01*
X1031Y1403D01*
X1141Y1403D01*
X1141Y1401D01*
X1145Y1401D01*
X1145Y1399D01*
X1149Y1399D01*
X1149Y1397D01*
X1183Y1397D01*
X1183Y1395D01*
X1367Y1395D01*
X1367Y1415D01*
X1365Y1415D01*
X1365Y1417D01*
X1363Y1417D01*
X1363Y1419D01*
X1361Y1419D01*
X1361Y1421D01*
X1359Y1421D01*
X1359Y1423D01*
X1357Y1423D01*
X1357Y1425D01*
X1355Y1425D01*
X1355Y1429D01*
X1353Y1429D01*
X1353Y1431D01*
X1351Y1431D01*
X1351Y1433D01*
X1349Y1433D01*
X1349Y1435D01*
X1347Y1435D01*
X1347Y1437D01*
X1345Y1437D01*
X1345Y1439D01*
X1343Y1439D01*
X1343Y1441D01*
X1341Y1441D01*
X1341Y1443D01*
X1339Y1443D01*
X1339Y1445D01*
X1337Y1445D01*
X1337Y1447D01*
X1335Y1447D01*
X1335Y1449D01*
X1333Y1449D01*
X1333Y1451D01*
X1331Y1451D01*
X1331Y1455D01*
X1329Y1455D01*
X1329Y1457D01*
X1327Y1457D01*
X1327Y1459D01*
X1325Y1459D01*
X1325Y1461D01*
X1323Y1461D01*
X1323Y1463D01*
X1321Y1463D01*
X1321Y1465D01*
X1319Y1465D01*
X1319Y1467D01*
X1317Y1467D01*
X1317Y1469D01*
X1315Y1469D01*
X1315Y1471D01*
X1313Y1471D01*
X1313Y1473D01*
X1311Y1473D01*
X1311Y1475D01*
X1309Y1475D01*
X1309Y1477D01*
X1307Y1477D01*
X1307Y1479D01*
X1305Y1479D01*
X1305Y1483D01*
X1303Y1483D01*
X1303Y1485D01*
X1301Y1485D01*
X1301Y1487D01*
X1299Y1487D01*
X1299Y1489D01*
X1297Y1489D01*
X1297Y1491D01*
X1295Y1491D01*
X1295Y1493D01*
X1293Y1493D01*
X1293Y1495D01*
X1291Y1495D01*
X1291Y1497D01*
X1289Y1497D01*
X1289Y1499D01*
X1287Y1499D01*
X1287Y1501D01*
X1285Y1501D01*
X1285Y1503D01*
X1283Y1503D01*
X1283Y1505D01*
X1281Y1505D01*
X1281Y1509D01*
X1279Y1509D01*
X1279Y1511D01*
X1277Y1511D01*
X1277Y1513D01*
X1275Y1513D01*
X1275Y1515D01*
X1273Y1515D01*
X1273Y1517D01*
X1271Y1517D01*
X1271Y1519D01*
X1269Y1519D01*
X1269Y1521D01*
X1267Y1521D01*
X1267Y1523D01*
X1265Y1523D01*
X1265Y1525D01*
X1263Y1525D01*
X1263Y1527D01*
X1261Y1527D01*
X1261Y1529D01*
X1259Y1529D01*
X1259Y1531D01*
X1257Y1531D01*
X1257Y1533D01*
X1255Y1533D01*
X1255Y1537D01*
X1253Y1537D01*
X1253Y1539D01*
X1251Y1539D01*
X1251Y1541D01*
X1249Y1541D01*
X1249Y1543D01*
X1247Y1543D01*
X1247Y1545D01*
X1245Y1545D01*
X1245Y1547D01*
X1243Y1547D01*
X1243Y1549D01*
X1241Y1549D01*
X1241Y1551D01*
X1239Y1551D01*
X1239Y1553D01*
X1237Y1553D01*
X1237Y1555D01*
X1235Y1555D01*
X1235Y1557D01*
X1233Y1557D01*
X1233Y1559D01*
X1231Y1559D01*
X1231Y1563D01*
X1229Y1563D01*
X1229Y1565D01*
X1227Y1565D01*
X1227Y1567D01*
X1225Y1567D01*
X1225Y1569D01*
X1223Y1569D01*
X1223Y1571D01*
X1221Y1571D01*
X1221Y1573D01*
X1219Y1573D01*
X1219Y1575D01*
X1217Y1575D01*
X1217Y1577D01*
X1215Y1577D01*
X1215Y1579D01*
X1213Y1579D01*
X1213Y1581D01*
X1211Y1581D01*
X1211Y1583D01*
X1209Y1583D01*
X1209Y1585D01*
X1207Y1585D01*
X1207Y1587D01*
X1205Y1587D01*
X1205Y1591D01*
X1203Y1591D01*
X1203Y1593D01*
X1201Y1593D01*
X1201Y1595D01*
X1199Y1595D01*
X1199Y1597D01*
X1197Y1597D01*
X1197Y1599D01*
X1195Y1599D01*
X1195Y1601D01*
X1193Y1601D01*
X1193Y1603D01*
X1191Y1603D01*
X1191Y1605D01*
X1189Y1605D01*
X1189Y1607D01*
X1187Y1607D01*
X1187Y1609D01*
X1185Y1609D01*
X1185Y1611D01*
X1183Y1611D01*
X1183Y1613D01*
X1181Y1613D01*
X1181Y1617D01*
X1179Y1617D01*
X1179Y1619D01*
X1177Y1619D01*
X1177Y1621D01*
X1175Y1621D01*
X1175Y1623D01*
X1173Y1623D01*
X1173Y1625D01*
X1171Y1625D01*
X1171Y1627D01*
X1169Y1627D01*
X1169Y1629D01*
X1167Y1629D01*
X1167Y1631D01*
X1165Y1631D01*
X1165Y1633D01*
X1163Y1633D01*
X1163Y1635D01*
X1161Y1635D01*
X1161Y1637D01*
X1159Y1637D01*
X1159Y1639D01*
X1157Y1639D01*
X1157Y1641D01*
X1155Y1641D01*
X1155Y1645D01*
X1153Y1645D01*
X1153Y1647D01*
X1151Y1647D01*
X1151Y1649D01*
X1149Y1649D01*
X1149Y1651D01*
X1147Y1651D01*
X1147Y1653D01*
X1145Y1653D01*
X1145Y1655D01*
X1143Y1655D01*
X1143Y1657D01*
X1141Y1657D01*
X1141Y1659D01*
X1139Y1659D01*
X1139Y1661D01*
X1137Y1661D01*
X1137Y1663D01*
X1135Y1663D01*
X1135Y1665D01*
X775Y1665D01*
G37*
D02*
G36*
X1033Y1403D02*
X1033Y1401D01*
X1035Y1401D01*
X1035Y1399D01*
X1037Y1399D01*
X1037Y1397D01*
X1039Y1397D01*
X1039Y1395D01*
X1041Y1395D01*
X1041Y1393D01*
X1043Y1393D01*
X1043Y1391D01*
X1045Y1391D01*
X1045Y1389D01*
X1047Y1389D01*
X1047Y1387D01*
X1049Y1387D01*
X1049Y1385D01*
X1051Y1385D01*
X1051Y1383D01*
X1053Y1383D01*
X1053Y1381D01*
X1055Y1381D01*
X1055Y1379D01*
X1057Y1379D01*
X1057Y1377D01*
X1077Y1377D01*
X1077Y1379D01*
X1079Y1379D01*
X1079Y1383D01*
X1081Y1383D01*
X1081Y1385D01*
X1083Y1385D01*
X1083Y1387D01*
X1085Y1387D01*
X1085Y1389D01*
X1087Y1389D01*
X1087Y1391D01*
X1089Y1391D01*
X1089Y1393D01*
X1091Y1393D01*
X1091Y1395D01*
X1095Y1395D01*
X1095Y1397D01*
X1097Y1397D01*
X1097Y1399D01*
X1101Y1399D01*
X1101Y1401D01*
X1105Y1401D01*
X1105Y1403D01*
X1033Y1403D01*
G37*
D02*
G36*
X1675Y1811D02*
X1675Y1791D01*
X1677Y1791D01*
X1677Y1789D01*
X1679Y1789D01*
X1679Y1787D01*
X1681Y1787D01*
X1681Y1785D01*
X1683Y1785D01*
X1683Y1783D01*
X1685Y1783D01*
X1685Y1781D01*
X1687Y1781D01*
X1687Y1779D01*
X1689Y1779D01*
X1689Y1777D01*
X1691Y1777D01*
X1691Y1773D01*
X1693Y1773D01*
X1693Y1771D01*
X1695Y1771D01*
X1695Y1767D01*
X1697Y1767D01*
X1697Y1763D01*
X1699Y1763D01*
X1699Y1757D01*
X1701Y1757D01*
X1701Y1751D01*
X1703Y1751D01*
X1703Y1721D01*
X1701Y1721D01*
X1701Y1713D01*
X1699Y1713D01*
X1699Y1709D01*
X1697Y1709D01*
X1697Y1705D01*
X1695Y1705D01*
X1695Y1701D01*
X1693Y1701D01*
X1693Y1697D01*
X1691Y1697D01*
X1691Y1695D01*
X1689Y1695D01*
X1689Y1693D01*
X1687Y1693D01*
X1687Y1689D01*
X1685Y1689D01*
X1685Y1687D01*
X1683Y1687D01*
X1683Y1667D01*
X1685Y1667D01*
X1685Y1665D01*
X1687Y1665D01*
X1687Y1663D01*
X1689Y1663D01*
X1689Y1659D01*
X1691Y1659D01*
X1691Y1657D01*
X1693Y1657D01*
X1693Y1655D01*
X1695Y1655D01*
X1695Y1651D01*
X1697Y1651D01*
X1697Y1649D01*
X1699Y1649D01*
X1699Y1647D01*
X1701Y1647D01*
X1701Y1643D01*
X1703Y1643D01*
X1703Y1641D01*
X1705Y1641D01*
X1705Y1639D01*
X1707Y1639D01*
X1707Y1635D01*
X1709Y1635D01*
X1709Y1633D01*
X1711Y1633D01*
X1711Y1631D01*
X1713Y1631D01*
X1713Y1629D01*
X1715Y1629D01*
X1715Y1625D01*
X1717Y1625D01*
X1717Y1623D01*
X1719Y1623D01*
X1719Y1621D01*
X1721Y1621D01*
X1721Y1617D01*
X1723Y1617D01*
X1723Y1615D01*
X1725Y1615D01*
X1725Y1613D01*
X1727Y1613D01*
X1727Y1611D01*
X2021Y1611D01*
X2021Y1609D01*
X2029Y1609D01*
X2029Y1607D01*
X2035Y1607D01*
X2035Y1605D01*
X2039Y1605D01*
X2039Y1603D01*
X2041Y1603D01*
X2041Y1601D01*
X2043Y1601D01*
X2043Y1599D01*
X2047Y1599D01*
X2047Y1597D01*
X2049Y1597D01*
X2049Y1595D01*
X2051Y1595D01*
X2051Y1593D01*
X2053Y1593D01*
X2053Y1589D01*
X2055Y1589D01*
X2055Y1587D01*
X2057Y1587D01*
X2057Y1583D01*
X2059Y1583D01*
X2059Y1581D01*
X2061Y1581D01*
X2061Y1575D01*
X2063Y1575D01*
X2063Y1541D01*
X2061Y1541D01*
X2061Y1537D01*
X2059Y1537D01*
X2059Y1533D01*
X2057Y1533D01*
X2057Y1529D01*
X2055Y1529D01*
X2055Y1527D01*
X2053Y1527D01*
X2053Y1525D01*
X2051Y1525D01*
X2051Y1523D01*
X2049Y1523D01*
X2049Y1521D01*
X2047Y1521D01*
X2047Y1519D01*
X2045Y1519D01*
X2045Y1517D01*
X2043Y1517D01*
X2043Y1515D01*
X2039Y1515D01*
X2039Y1513D01*
X2037Y1513D01*
X2037Y1511D01*
X2033Y1511D01*
X2033Y1509D01*
X2027Y1509D01*
X2027Y1507D01*
X2201Y1507D01*
X2201Y1811D01*
X1675Y1811D01*
G37*
D02*
G36*
X1727Y1611D02*
X1727Y1609D01*
X1729Y1609D01*
X1729Y1607D01*
X1731Y1607D01*
X1731Y1605D01*
X1733Y1605D01*
X1733Y1601D01*
X1735Y1601D01*
X1735Y1599D01*
X1737Y1599D01*
X1737Y1597D01*
X1739Y1597D01*
X1739Y1593D01*
X1741Y1593D01*
X1741Y1591D01*
X1743Y1591D01*
X1743Y1589D01*
X1745Y1589D01*
X1745Y1585D01*
X1747Y1585D01*
X1747Y1583D01*
X1749Y1583D01*
X1749Y1581D01*
X1839Y1581D01*
X1839Y1527D01*
X1895Y1527D01*
X1895Y1525D01*
X1901Y1525D01*
X1901Y1523D01*
X1953Y1523D01*
X1953Y1521D01*
X1955Y1521D01*
X1955Y1507D01*
X1997Y1507D01*
X1997Y1509D01*
X1991Y1509D01*
X1991Y1511D01*
X1987Y1511D01*
X1987Y1513D01*
X1985Y1513D01*
X1985Y1515D01*
X1981Y1515D01*
X1981Y1517D01*
X1979Y1517D01*
X1979Y1519D01*
X1977Y1519D01*
X1977Y1521D01*
X1975Y1521D01*
X1975Y1523D01*
X1973Y1523D01*
X1973Y1525D01*
X1971Y1525D01*
X1971Y1527D01*
X1969Y1527D01*
X1969Y1529D01*
X1967Y1529D01*
X1967Y1533D01*
X1965Y1533D01*
X1965Y1537D01*
X1963Y1537D01*
X1963Y1541D01*
X1961Y1541D01*
X1961Y1575D01*
X1963Y1575D01*
X1963Y1581D01*
X1965Y1581D01*
X1965Y1583D01*
X1967Y1583D01*
X1967Y1587D01*
X1969Y1587D01*
X1969Y1589D01*
X1971Y1589D01*
X1971Y1593D01*
X1973Y1593D01*
X1973Y1595D01*
X1975Y1595D01*
X1975Y1597D01*
X1977Y1597D01*
X1977Y1599D01*
X1981Y1599D01*
X1981Y1601D01*
X1983Y1601D01*
X1983Y1603D01*
X1985Y1603D01*
X1985Y1605D01*
X1989Y1605D01*
X1989Y1607D01*
X1995Y1607D01*
X1995Y1609D01*
X2003Y1609D01*
X2003Y1611D01*
X1727Y1611D01*
G37*
D02*
G36*
X1751Y1581D02*
X1751Y1577D01*
X1753Y1577D01*
X1753Y1575D01*
X1755Y1575D01*
X1755Y1573D01*
X1757Y1573D01*
X1757Y1571D01*
X1759Y1571D01*
X1759Y1567D01*
X1761Y1567D01*
X1761Y1565D01*
X1763Y1565D01*
X1763Y1563D01*
X1765Y1563D01*
X1765Y1559D01*
X1767Y1559D01*
X1767Y1557D01*
X1769Y1557D01*
X1769Y1551D01*
X1771Y1551D01*
X1771Y1545D01*
X1791Y1545D01*
X1791Y1581D01*
X1751Y1581D01*
G37*
D02*
G36*
X1955Y1507D02*
X1955Y1505D01*
X2201Y1505D01*
X2201Y1507D01*
X1955Y1507D01*
G37*
D02*
G36*
X1955Y1507D02*
X1955Y1505D01*
X2201Y1505D01*
X2201Y1507D01*
X1955Y1507D01*
G37*
D02*
G36*
X1955Y1505D02*
X1955Y1447D01*
X1953Y1447D01*
X1953Y1445D01*
X1903Y1445D01*
X1903Y1443D01*
X1897Y1443D01*
X1897Y1441D01*
X1889Y1441D01*
X1889Y1439D01*
X2201Y1439D01*
X2201Y1505D01*
X1955Y1505D01*
G37*
D02*
G36*
X1765Y1503D02*
X1765Y1501D01*
X1763Y1501D01*
X1763Y1499D01*
X1761Y1499D01*
X1761Y1497D01*
X1759Y1497D01*
X1759Y1495D01*
X1757Y1495D01*
X1757Y1493D01*
X1753Y1493D01*
X1753Y1491D01*
X1749Y1491D01*
X1749Y1489D01*
X1743Y1489D01*
X1743Y1487D01*
X1721Y1487D01*
X1721Y1467D01*
X1723Y1467D01*
X1723Y1465D01*
X1725Y1465D01*
X1725Y1463D01*
X1727Y1463D01*
X1727Y1461D01*
X1729Y1461D01*
X1729Y1459D01*
X1731Y1459D01*
X1731Y1457D01*
X1733Y1457D01*
X1733Y1455D01*
X1735Y1455D01*
X1735Y1451D01*
X1737Y1451D01*
X1737Y1449D01*
X1739Y1449D01*
X1739Y1447D01*
X1741Y1447D01*
X1741Y1445D01*
X1743Y1445D01*
X1743Y1443D01*
X1745Y1443D01*
X1745Y1441D01*
X1747Y1441D01*
X1747Y1439D01*
X1815Y1439D01*
X1815Y1441D01*
X1807Y1441D01*
X1807Y1443D01*
X1803Y1443D01*
X1803Y1445D01*
X1799Y1445D01*
X1799Y1447D01*
X1797Y1447D01*
X1797Y1449D01*
X1795Y1449D01*
X1795Y1451D01*
X1793Y1451D01*
X1793Y1453D01*
X1791Y1453D01*
X1791Y1455D01*
X1789Y1455D01*
X1789Y1459D01*
X1787Y1459D01*
X1787Y1463D01*
X1785Y1463D01*
X1785Y1469D01*
X1783Y1469D01*
X1783Y1497D01*
X1785Y1497D01*
X1785Y1503D01*
X1765Y1503D01*
G37*
D02*
G36*
X1749Y1439D02*
X1749Y1437D01*
X2201Y1437D01*
X2201Y1439D01*
X1749Y1439D01*
G37*
D02*
G36*
X1749Y1439D02*
X1749Y1437D01*
X2201Y1437D01*
X2201Y1439D01*
X1749Y1439D01*
G37*
D02*
G36*
X1751Y1437D02*
X1751Y1433D01*
X1753Y1433D01*
X1753Y1431D01*
X1755Y1431D01*
X1755Y1429D01*
X1757Y1429D01*
X1757Y1427D01*
X1759Y1427D01*
X1759Y1425D01*
X1761Y1425D01*
X1761Y1423D01*
X1763Y1423D01*
X1763Y1421D01*
X1765Y1421D01*
X1765Y1417D01*
X1767Y1417D01*
X1767Y1415D01*
X1769Y1415D01*
X1769Y1413D01*
X1771Y1413D01*
X1771Y1411D01*
X1773Y1411D01*
X1773Y1409D01*
X1775Y1409D01*
X1775Y1407D01*
X1777Y1407D01*
X1777Y1405D01*
X1779Y1405D01*
X1779Y1403D01*
X1971Y1403D01*
X1971Y1401D01*
X1997Y1401D01*
X1997Y1399D01*
X2005Y1399D01*
X2005Y1397D01*
X2009Y1397D01*
X2009Y1395D01*
X2011Y1395D01*
X2011Y1393D01*
X2015Y1393D01*
X2015Y1391D01*
X2017Y1391D01*
X2017Y1389D01*
X2019Y1389D01*
X2019Y1387D01*
X2021Y1387D01*
X2021Y1383D01*
X2023Y1383D01*
X2023Y1381D01*
X2025Y1381D01*
X2025Y1379D01*
X2027Y1379D01*
X2027Y1375D01*
X2029Y1375D01*
X2029Y1373D01*
X2031Y1373D01*
X2031Y1371D01*
X2033Y1371D01*
X2033Y1369D01*
X2035Y1369D01*
X2035Y1365D01*
X2037Y1365D01*
X2037Y1363D01*
X2039Y1363D01*
X2039Y1361D01*
X2041Y1361D01*
X2041Y1359D01*
X2043Y1359D01*
X2043Y1355D01*
X2045Y1355D01*
X2045Y1353D01*
X2047Y1353D01*
X2047Y1351D01*
X2049Y1351D01*
X2049Y1347D01*
X2051Y1347D01*
X2051Y1345D01*
X2053Y1345D01*
X2053Y1343D01*
X2055Y1343D01*
X2055Y1341D01*
X2057Y1341D01*
X2057Y1337D01*
X2059Y1337D01*
X2059Y1335D01*
X2061Y1335D01*
X2061Y1333D01*
X2063Y1333D01*
X2063Y1331D01*
X2065Y1331D01*
X2065Y1327D01*
X2067Y1327D01*
X2067Y1325D01*
X2069Y1325D01*
X2069Y1323D01*
X2071Y1323D01*
X2071Y1319D01*
X2073Y1319D01*
X2073Y1317D01*
X2075Y1317D01*
X2075Y1315D01*
X2077Y1315D01*
X2077Y1313D01*
X2079Y1313D01*
X2079Y1309D01*
X2081Y1309D01*
X2081Y1307D01*
X2083Y1307D01*
X2083Y1305D01*
X2085Y1305D01*
X2085Y1301D01*
X2087Y1301D01*
X2087Y1297D01*
X2089Y1297D01*
X2089Y1291D01*
X2091Y1291D01*
X2091Y823D01*
X2089Y823D01*
X2089Y817D01*
X2087Y817D01*
X2087Y813D01*
X2085Y813D01*
X2085Y809D01*
X2083Y809D01*
X2083Y807D01*
X2081Y807D01*
X2081Y805D01*
X2079Y805D01*
X2079Y803D01*
X2077Y803D01*
X2077Y801D01*
X2075Y801D01*
X2075Y799D01*
X2071Y799D01*
X2071Y797D01*
X2065Y797D01*
X2065Y795D01*
X2055Y795D01*
X2055Y793D01*
X1953Y793D01*
X1953Y773D01*
X1955Y773D01*
X1955Y771D01*
X1957Y771D01*
X1957Y769D01*
X1959Y769D01*
X1959Y767D01*
X1961Y767D01*
X1961Y765D01*
X1963Y765D01*
X1963Y763D01*
X1965Y763D01*
X1965Y759D01*
X1967Y759D01*
X1967Y757D01*
X1969Y757D01*
X1969Y755D01*
X1971Y755D01*
X1971Y753D01*
X1973Y753D01*
X1973Y751D01*
X1975Y751D01*
X1975Y749D01*
X1977Y749D01*
X1977Y747D01*
X1979Y747D01*
X1979Y745D01*
X1981Y745D01*
X1981Y743D01*
X1983Y743D01*
X1983Y741D01*
X1985Y741D01*
X1985Y739D01*
X1987Y739D01*
X1987Y737D01*
X1989Y737D01*
X1989Y735D01*
X1991Y735D01*
X1991Y733D01*
X1993Y733D01*
X1993Y731D01*
X1995Y731D01*
X1995Y729D01*
X1997Y729D01*
X1997Y727D01*
X1999Y727D01*
X1999Y725D01*
X2001Y725D01*
X2001Y723D01*
X2003Y723D01*
X2003Y721D01*
X2005Y721D01*
X2005Y719D01*
X2007Y719D01*
X2007Y715D01*
X2009Y715D01*
X2009Y713D01*
X2011Y713D01*
X2011Y711D01*
X2013Y711D01*
X2013Y709D01*
X2015Y709D01*
X2015Y707D01*
X2017Y707D01*
X2017Y705D01*
X2019Y705D01*
X2019Y703D01*
X2021Y703D01*
X2021Y701D01*
X2023Y701D01*
X2023Y699D01*
X2025Y699D01*
X2025Y697D01*
X2027Y697D01*
X2027Y693D01*
X2029Y693D01*
X2029Y687D01*
X2031Y687D01*
X2031Y541D01*
X2033Y541D01*
X2033Y449D01*
X2149Y449D01*
X2149Y397D01*
X2151Y397D01*
X2151Y393D01*
X2153Y393D01*
X2153Y387D01*
X2155Y387D01*
X2155Y295D01*
X2157Y295D01*
X2157Y289D01*
X2159Y289D01*
X2159Y283D01*
X2161Y283D01*
X2161Y279D01*
X2163Y279D01*
X2163Y273D01*
X2165Y273D01*
X2165Y269D01*
X2167Y269D01*
X2167Y263D01*
X2169Y263D01*
X2169Y259D01*
X2171Y259D01*
X2171Y253D01*
X2173Y253D01*
X2173Y249D01*
X2175Y249D01*
X2175Y243D01*
X2179Y243D01*
X2179Y241D01*
X2201Y241D01*
X2201Y1437D01*
X1751Y1437D01*
G37*
D02*
G36*
X1781Y1403D02*
X1781Y1399D01*
X1783Y1399D01*
X1783Y1397D01*
X1785Y1397D01*
X1785Y1395D01*
X1787Y1395D01*
X1787Y1393D01*
X1789Y1393D01*
X1789Y1391D01*
X1791Y1391D01*
X1791Y1389D01*
X1793Y1389D01*
X1793Y1387D01*
X1795Y1387D01*
X1795Y1385D01*
X1797Y1385D01*
X1797Y1381D01*
X1799Y1381D01*
X1799Y1379D01*
X1801Y1379D01*
X1801Y1377D01*
X1803Y1377D01*
X1803Y1375D01*
X1805Y1375D01*
X1805Y1373D01*
X1807Y1373D01*
X1807Y1371D01*
X1809Y1371D01*
X1809Y1369D01*
X1811Y1369D01*
X1811Y1365D01*
X1813Y1365D01*
X1813Y1363D01*
X1815Y1363D01*
X1815Y1361D01*
X1817Y1361D01*
X1817Y1359D01*
X1819Y1359D01*
X1819Y1357D01*
X1821Y1357D01*
X1821Y1355D01*
X1823Y1355D01*
X1823Y1353D01*
X1825Y1353D01*
X1825Y1351D01*
X1827Y1351D01*
X1827Y1347D01*
X1829Y1347D01*
X1829Y1345D01*
X1831Y1345D01*
X1831Y1343D01*
X1833Y1343D01*
X1833Y1341D01*
X1835Y1341D01*
X1835Y1339D01*
X1837Y1339D01*
X1837Y1337D01*
X1839Y1337D01*
X1839Y1335D01*
X1841Y1335D01*
X1841Y1331D01*
X1843Y1331D01*
X1843Y1329D01*
X1845Y1329D01*
X1845Y1327D01*
X1865Y1327D01*
X1865Y1399D01*
X1867Y1399D01*
X1867Y1401D01*
X1925Y1401D01*
X1925Y1403D01*
X1781Y1403D01*
G37*
D02*
G36*
X2033Y449D02*
X2033Y425D01*
X2031Y425D01*
X2031Y417D01*
X2029Y417D01*
X2029Y393D01*
X2031Y393D01*
X2031Y385D01*
X2033Y385D01*
X2033Y301D01*
X2035Y301D01*
X2035Y297D01*
X2037Y297D01*
X2037Y295D01*
X2039Y295D01*
X2039Y291D01*
X2041Y291D01*
X2041Y287D01*
X2043Y287D01*
X2043Y285D01*
X2045Y285D01*
X2045Y281D01*
X2047Y281D01*
X2047Y277D01*
X2067Y277D01*
X2067Y391D01*
X2069Y391D01*
X2069Y395D01*
X2071Y395D01*
X2071Y449D01*
X2033Y449D01*
G37*
D02*
G36*
X1867Y1323D02*
X1867Y1303D01*
X1869Y1303D01*
X1869Y1301D01*
X1871Y1301D01*
X1871Y1299D01*
X1873Y1299D01*
X1873Y1295D01*
X1875Y1295D01*
X1875Y1293D01*
X1877Y1293D01*
X1877Y1291D01*
X1879Y1291D01*
X1879Y1289D01*
X1881Y1289D01*
X1881Y1287D01*
X1883Y1287D01*
X1883Y1285D01*
X1885Y1285D01*
X1885Y1283D01*
X1967Y1283D01*
X1967Y1303D01*
X1965Y1303D01*
X1965Y1305D01*
X1963Y1305D01*
X1963Y1309D01*
X1961Y1309D01*
X1961Y1311D01*
X1959Y1311D01*
X1959Y1313D01*
X1955Y1313D01*
X1955Y1315D01*
X1927Y1315D01*
X1927Y1317D01*
X1921Y1317D01*
X1921Y1319D01*
X1917Y1319D01*
X1917Y1321D01*
X1913Y1321D01*
X1913Y1323D01*
X1867Y1323D01*
G37*
D02*
G36*
X1101Y955D02*
X1101Y953D01*
X1099Y953D01*
X1099Y951D01*
X1097Y951D01*
X1097Y949D01*
X1093Y949D01*
X1093Y947D01*
X1089Y947D01*
X1089Y945D01*
X1085Y945D01*
X1085Y943D01*
X1079Y943D01*
X1079Y941D01*
X1145Y941D01*
X1145Y943D01*
X1137Y943D01*
X1137Y945D01*
X1133Y945D01*
X1133Y947D01*
X1129Y947D01*
X1129Y949D01*
X1127Y949D01*
X1127Y951D01*
X1123Y951D01*
X1123Y953D01*
X1121Y953D01*
X1121Y955D01*
X1101Y955D01*
G37*
D02*
G36*
X1201Y955D02*
X1201Y953D01*
X1199Y953D01*
X1199Y951D01*
X1197Y951D01*
X1197Y949D01*
X1193Y949D01*
X1193Y947D01*
X1189Y947D01*
X1189Y945D01*
X1185Y945D01*
X1185Y943D01*
X1179Y943D01*
X1179Y941D01*
X1245Y941D01*
X1245Y943D01*
X1237Y943D01*
X1237Y945D01*
X1233Y945D01*
X1233Y947D01*
X1229Y947D01*
X1229Y949D01*
X1227Y949D01*
X1227Y951D01*
X1223Y951D01*
X1223Y953D01*
X1221Y953D01*
X1221Y955D01*
X1201Y955D01*
G37*
D02*
G36*
X1051Y941D02*
X1051Y939D01*
X1253Y939D01*
X1253Y941D01*
X1051Y941D01*
G37*
D02*
G36*
X1051Y941D02*
X1051Y939D01*
X1253Y939D01*
X1253Y941D01*
X1051Y941D01*
G37*
D02*
G36*
X1051Y939D02*
X1051Y921D01*
X1053Y921D01*
X1053Y919D01*
X1055Y919D01*
X1055Y917D01*
X1057Y917D01*
X1057Y913D01*
X1059Y913D01*
X1059Y911D01*
X1061Y911D01*
X1061Y909D01*
X1063Y909D01*
X1063Y905D01*
X1065Y905D01*
X1065Y903D01*
X1067Y903D01*
X1067Y901D01*
X1069Y901D01*
X1069Y899D01*
X1071Y899D01*
X1071Y895D01*
X1073Y895D01*
X1073Y893D01*
X1075Y893D01*
X1075Y891D01*
X1077Y891D01*
X1077Y887D01*
X1079Y887D01*
X1079Y885D01*
X1081Y885D01*
X1081Y883D01*
X1083Y883D01*
X1083Y881D01*
X1085Y881D01*
X1085Y877D01*
X1087Y877D01*
X1087Y875D01*
X1089Y875D01*
X1089Y873D01*
X1091Y873D01*
X1091Y869D01*
X1093Y869D01*
X1093Y867D01*
X1095Y867D01*
X1095Y865D01*
X1097Y865D01*
X1097Y861D01*
X1099Y861D01*
X1099Y859D01*
X1101Y859D01*
X1101Y857D01*
X1103Y857D01*
X1103Y855D01*
X1105Y855D01*
X1105Y851D01*
X1107Y851D01*
X1107Y849D01*
X1109Y849D01*
X1109Y847D01*
X1111Y847D01*
X1111Y843D01*
X1113Y843D01*
X1113Y841D01*
X1115Y841D01*
X1115Y839D01*
X1117Y839D01*
X1117Y835D01*
X1119Y835D01*
X1119Y833D01*
X1121Y833D01*
X1121Y831D01*
X1123Y831D01*
X1123Y829D01*
X1125Y829D01*
X1125Y827D01*
X1329Y827D01*
X1329Y847D01*
X1325Y847D01*
X1325Y849D01*
X1321Y849D01*
X1321Y851D01*
X1317Y851D01*
X1317Y853D01*
X1315Y853D01*
X1315Y855D01*
X1313Y855D01*
X1313Y857D01*
X1311Y857D01*
X1311Y859D01*
X1309Y859D01*
X1309Y863D01*
X1307Y863D01*
X1307Y865D01*
X1305Y865D01*
X1305Y867D01*
X1303Y867D01*
X1303Y871D01*
X1301Y871D01*
X1301Y873D01*
X1299Y873D01*
X1299Y877D01*
X1297Y877D01*
X1297Y879D01*
X1295Y879D01*
X1295Y881D01*
X1293Y881D01*
X1293Y885D01*
X1291Y885D01*
X1291Y887D01*
X1289Y887D01*
X1289Y891D01*
X1287Y891D01*
X1287Y893D01*
X1285Y893D01*
X1285Y895D01*
X1283Y895D01*
X1283Y899D01*
X1281Y899D01*
X1281Y901D01*
X1279Y901D01*
X1279Y905D01*
X1277Y905D01*
X1277Y907D01*
X1275Y907D01*
X1275Y909D01*
X1273Y909D01*
X1273Y913D01*
X1271Y913D01*
X1271Y915D01*
X1269Y915D01*
X1269Y919D01*
X1267Y919D01*
X1267Y921D01*
X1265Y921D01*
X1265Y923D01*
X1263Y923D01*
X1263Y927D01*
X1261Y927D01*
X1261Y929D01*
X1259Y929D01*
X1259Y931D01*
X1257Y931D01*
X1257Y935D01*
X1255Y935D01*
X1255Y937D01*
X1253Y937D01*
X1253Y939D01*
X1051Y939D01*
G37*
D02*
G36*
X1589Y847D02*
X1589Y827D01*
X1857Y827D01*
X1857Y847D01*
X1589Y847D01*
G37*
D02*
G36*
X1041Y995D02*
X1076Y995D01*
X1076Y941D01*
X1041Y941D01*
X1041Y995D01*
G37*
D02*
G36*
X491Y1542D02*
X555Y1542D01*
X555Y1493D01*
X491Y1493D01*
X491Y1542D01*
G37*
D02*
G36*
X122Y223D02*
X159Y223D01*
X159Y169D01*
X122Y169D01*
X122Y223D01*
G37*
D02*
G36*
X122Y135D02*
X159Y135D01*
X159Y87D01*
X122Y87D01*
X122Y135D01*
G37*
D02*
G36*
X75Y170D02*
X123Y170D01*
X123Y133D01*
X75Y133D01*
X75Y170D01*
G37*
D02*
G36*
X157Y170D02*
X211Y170D01*
X211Y133D01*
X157Y133D01*
X157Y170D01*
G37*
D02*
G36*
X594Y223D02*
X631Y223D01*
X631Y169D01*
X594Y169D01*
X594Y223D01*
G37*
D02*
G36*
X594Y135D02*
X631Y135D01*
X631Y87D01*
X594Y87D01*
X594Y135D01*
G37*
D02*
G36*
X541Y170D02*
X595Y170D01*
X595Y133D01*
X541Y133D01*
X541Y170D01*
G37*
D02*
G36*
X629Y170D02*
X683Y170D01*
X683Y133D01*
X629Y133D01*
X629Y170D01*
G37*
D02*
G36*
X1932Y163D02*
X1969Y163D01*
X1969Y87D01*
X1932Y87D01*
X1932Y163D01*
G37*
D02*
G36*
X378Y223D02*
X415Y223D01*
X415Y169D01*
X378Y169D01*
X378Y223D01*
G37*
D02*
G36*
X378Y135D02*
X415Y135D01*
X415Y87D01*
X378Y87D01*
X378Y135D01*
G37*
D02*
G36*
X325Y170D02*
X379Y170D01*
X379Y133D01*
X325Y133D01*
X325Y170D01*
G37*
D02*
G36*
X413Y170D02*
X467Y170D01*
X467Y133D01*
X413Y133D01*
X413Y170D01*
G37*
D02*
G36*
X850Y223D02*
X887Y223D01*
X887Y169D01*
X850Y169D01*
X850Y223D01*
G37*
D02*
G36*
X850Y135D02*
X887Y135D01*
X887Y87D01*
X850Y87D01*
X850Y135D01*
G37*
D02*
G36*
X797Y170D02*
X851Y170D01*
X851Y133D01*
X797Y133D01*
X797Y170D01*
G37*
D02*
G36*
X885Y170D02*
X939Y170D01*
X939Y133D01*
X885Y133D01*
X885Y170D01*
G37*
D02*
G36*
X1538Y223D02*
X1575Y223D01*
X1575Y169D01*
X1538Y169D01*
X1538Y223D01*
G37*
D02*
G36*
X1538Y135D02*
X1575Y135D01*
X1575Y87D01*
X1538Y87D01*
X1538Y135D01*
G37*
D02*
G36*
X1485Y170D02*
X1539Y170D01*
X1539Y133D01*
X1485Y133D01*
X1485Y170D01*
G37*
D02*
G36*
X1573Y170D02*
X1629Y170D01*
X1629Y133D01*
X1573Y133D01*
X1573Y170D01*
G37*
D02*
G36*
X1066Y223D02*
X1103Y223D01*
X1103Y169D01*
X1066Y169D01*
X1066Y223D01*
G37*
D02*
G36*
X1066Y135D02*
X1103Y135D01*
X1103Y87D01*
X1066Y87D01*
X1066Y135D01*
G37*
D02*
G36*
X1013Y170D02*
X1067Y170D01*
X1067Y133D01*
X1013Y133D01*
X1013Y170D01*
G37*
D02*
G36*
X1101Y170D02*
X1157Y170D01*
X1157Y133D01*
X1101Y133D01*
X1101Y170D01*
G37*
D02*
G36*
X1794Y223D02*
X1831Y223D01*
X1831Y169D01*
X1794Y169D01*
X1794Y223D01*
G37*
D02*
G36*
X1794Y135D02*
X1831Y135D01*
X1831Y87D01*
X1794Y87D01*
X1794Y135D01*
G37*
D02*
G36*
X1741Y170D02*
X1795Y170D01*
X1795Y133D01*
X1741Y133D01*
X1741Y170D01*
G37*
D02*
G36*
X1322Y223D02*
X1359Y223D01*
X1359Y169D01*
X1322Y169D01*
X1322Y223D01*
G37*
D02*
G36*
X1322Y135D02*
X1359Y135D01*
X1359Y87D01*
X1322Y87D01*
X1322Y135D01*
G37*
D02*
G36*
X1269Y170D02*
X1323Y170D01*
X1323Y133D01*
X1269Y133D01*
X1269Y170D01*
G37*
D02*
G36*
X1357Y170D02*
X1413Y170D01*
X1413Y133D01*
X1357Y133D01*
X1357Y170D01*
G37*
D02*
G36*
X75Y1756D02*
X115Y1756D01*
X115Y1719D01*
X75Y1719D01*
X75Y1756D01*
G37*
D02*
G36*
X512Y1721D02*
X549Y1721D01*
X549Y1667D01*
X512Y1667D01*
X512Y1721D01*
G37*
D02*
G36*
X1804Y1585D02*
X1821Y1585D01*
X1821Y1561D01*
X1804Y1561D01*
X1804Y1585D01*
G37*
D02*
G36*
X1804Y1559D02*
X1821Y1559D01*
X1821Y1535D01*
X1804Y1535D01*
X1804Y1559D01*
G37*
D02*
G36*
X1787Y1567D02*
X1811Y1567D01*
X1811Y1552D01*
X1787Y1552D01*
X1787Y1567D01*
G37*
D02*
G36*
X1999Y1615D02*
X2018Y1615D01*
X2018Y1567D01*
X1999Y1567D01*
X1999Y1615D01*
G37*
D02*
G36*
X1999Y1553D02*
X2018Y1553D01*
X2018Y1507D01*
X1999Y1507D01*
X1999Y1553D01*
G37*
D02*
G36*
X2015Y1569D02*
X2063Y1569D01*
X2063Y1550D01*
X2015Y1550D01*
X2015Y1569D01*
G37*
D02*
G36*
X812Y1809D02*
X849Y1809D01*
X849Y1755D01*
X812Y1755D01*
X812Y1809D01*
G37*
D02*
G36*
X812Y1721D02*
X849Y1721D01*
X849Y1667D01*
X812Y1667D01*
X812Y1721D01*
G37*
D02*
G36*
X912Y1809D02*
X949Y1809D01*
X949Y1755D01*
X912Y1755D01*
X912Y1809D01*
G37*
D02*
G36*
X912Y1721D02*
X949Y1721D01*
X949Y1667D01*
X912Y1667D01*
X912Y1721D01*
G37*
D02*
G36*
X1012Y1809D02*
X1049Y1809D01*
X1049Y1755D01*
X1012Y1755D01*
X1012Y1809D01*
G37*
D02*
G36*
X1012Y1721D02*
X1049Y1721D01*
X1049Y1667D01*
X1012Y1667D01*
X1012Y1721D01*
G37*
D02*
G54D23*
X656Y1143D02*
X666Y1143D01*
X756Y1143D02*
X766Y1143D01*
X856Y1143D02*
X866Y1143D01*
X956Y1143D02*
X966Y1143D01*
X1056Y1143D02*
X1066Y1143D01*
X1156Y1143D02*
X1166Y1143D01*
X1256Y1143D02*
X1266Y1143D01*
X1356Y1143D02*
X1366Y1143D01*
X1456Y1143D02*
X1466Y1143D01*
X1556Y1143D02*
X1566Y1143D01*
X1656Y1143D02*
X1665Y1143D01*
X1756Y1143D02*
X1765Y1143D01*
X1856Y1143D02*
X1865Y1143D01*
X652Y1142D02*
X670Y1142D01*
X752Y1142D02*
X770Y1142D01*
X852Y1142D02*
X870Y1142D01*
X952Y1142D02*
X970Y1142D01*
X1052Y1142D02*
X1070Y1142D01*
X1152Y1142D02*
X1170Y1142D01*
X1252Y1142D02*
X1270Y1142D01*
X1352Y1142D02*
X1370Y1142D01*
X1452Y1142D02*
X1469Y1142D01*
X1552Y1142D02*
X1569Y1142D01*
X1652Y1142D02*
X1669Y1142D01*
X1752Y1142D02*
X1769Y1142D01*
X1852Y1142D02*
X1869Y1142D01*
X649Y1141D02*
X672Y1141D01*
X749Y1141D02*
X772Y1141D01*
X849Y1141D02*
X872Y1141D01*
X949Y1141D02*
X972Y1141D01*
X1049Y1141D02*
X1072Y1141D01*
X1149Y1141D02*
X1172Y1141D01*
X1249Y1141D02*
X1272Y1141D01*
X1349Y1141D02*
X1372Y1141D01*
X1449Y1141D02*
X1472Y1141D01*
X1549Y1141D02*
X1572Y1141D01*
X1649Y1141D02*
X1672Y1141D01*
X1749Y1141D02*
X1772Y1141D01*
X1849Y1141D02*
X1872Y1141D01*
X647Y1140D02*
X675Y1140D01*
X747Y1140D02*
X774Y1140D01*
X847Y1140D02*
X874Y1140D01*
X947Y1140D02*
X974Y1140D01*
X1047Y1140D02*
X1074Y1140D01*
X1147Y1140D02*
X1174Y1140D01*
X1247Y1140D02*
X1274Y1140D01*
X1347Y1140D02*
X1374Y1140D01*
X1447Y1140D02*
X1474Y1140D01*
X1547Y1140D02*
X1574Y1140D01*
X1647Y1140D02*
X1674Y1140D01*
X1747Y1140D02*
X1774Y1140D01*
X1847Y1140D02*
X1874Y1140D01*
X645Y1139D02*
X676Y1139D01*
X745Y1139D02*
X776Y1139D01*
X845Y1139D02*
X876Y1139D01*
X945Y1139D02*
X976Y1139D01*
X1045Y1139D02*
X1076Y1139D01*
X1145Y1139D02*
X1176Y1139D01*
X1245Y1139D02*
X1276Y1139D01*
X1345Y1139D02*
X1376Y1139D01*
X1445Y1139D02*
X1476Y1139D01*
X1545Y1139D02*
X1576Y1139D01*
X1645Y1139D02*
X1676Y1139D01*
X1745Y1139D02*
X1776Y1139D01*
X1845Y1139D02*
X1876Y1139D01*
X644Y1138D02*
X678Y1138D01*
X744Y1138D02*
X778Y1138D01*
X844Y1138D02*
X878Y1138D01*
X944Y1138D02*
X978Y1138D01*
X1044Y1138D02*
X1078Y1138D01*
X1144Y1138D02*
X1178Y1138D01*
X1244Y1138D02*
X1278Y1138D01*
X1344Y1138D02*
X1378Y1138D01*
X1443Y1138D02*
X1478Y1138D01*
X1543Y1138D02*
X1578Y1138D01*
X1643Y1138D02*
X1678Y1138D01*
X1743Y1138D02*
X1778Y1138D01*
X1843Y1138D02*
X1878Y1138D01*
X642Y1137D02*
X679Y1137D01*
X742Y1137D02*
X779Y1137D01*
X842Y1137D02*
X879Y1137D01*
X942Y1137D02*
X979Y1137D01*
X1042Y1137D02*
X1079Y1137D01*
X1142Y1137D02*
X1179Y1137D01*
X1242Y1137D02*
X1279Y1137D01*
X1342Y1137D02*
X1379Y1137D01*
X1442Y1137D02*
X1479Y1137D01*
X1542Y1137D02*
X1579Y1137D01*
X1642Y1137D02*
X1679Y1137D01*
X1742Y1137D02*
X1779Y1137D01*
X1842Y1137D02*
X1879Y1137D01*
X641Y1136D02*
X681Y1136D01*
X741Y1136D02*
X781Y1136D01*
X841Y1136D02*
X881Y1136D01*
X941Y1136D02*
X981Y1136D01*
X1041Y1136D02*
X1081Y1136D01*
X1141Y1136D02*
X1181Y1136D01*
X1241Y1136D02*
X1281Y1136D01*
X1341Y1136D02*
X1381Y1136D01*
X1441Y1136D02*
X1481Y1136D01*
X1541Y1136D02*
X1581Y1136D01*
X1641Y1136D02*
X1681Y1136D01*
X1741Y1136D02*
X1781Y1136D01*
X1841Y1136D02*
X1881Y1136D01*
X640Y1135D02*
X682Y1135D01*
X740Y1135D02*
X782Y1135D01*
X840Y1135D02*
X882Y1135D01*
X940Y1135D02*
X982Y1135D01*
X1040Y1135D02*
X1082Y1135D01*
X1139Y1135D02*
X1182Y1135D01*
X1239Y1135D02*
X1282Y1135D01*
X1339Y1135D02*
X1382Y1135D01*
X1439Y1135D02*
X1482Y1135D01*
X1539Y1135D02*
X1582Y1135D01*
X1639Y1135D02*
X1682Y1135D01*
X1739Y1135D02*
X1782Y1135D01*
X1839Y1135D02*
X1882Y1135D01*
X638Y1134D02*
X683Y1134D01*
X738Y1134D02*
X783Y1134D01*
X838Y1134D02*
X883Y1134D01*
X938Y1134D02*
X983Y1134D01*
X1038Y1134D02*
X1083Y1134D01*
X1138Y1134D02*
X1183Y1134D01*
X1238Y1134D02*
X1283Y1134D01*
X1338Y1134D02*
X1383Y1134D01*
X1438Y1134D02*
X1483Y1134D01*
X1538Y1134D02*
X1583Y1134D01*
X1638Y1134D02*
X1683Y1134D01*
X1738Y1134D02*
X1783Y1134D01*
X1838Y1134D02*
X1883Y1134D01*
X637Y1133D02*
X684Y1133D01*
X737Y1133D02*
X784Y1133D01*
X837Y1133D02*
X884Y1133D01*
X937Y1133D02*
X984Y1133D01*
X1037Y1133D02*
X1084Y1133D01*
X1137Y1133D02*
X1184Y1133D01*
X1237Y1133D02*
X1284Y1133D01*
X1337Y1133D02*
X1384Y1133D01*
X1437Y1133D02*
X1484Y1133D01*
X1537Y1133D02*
X1584Y1133D01*
X1637Y1133D02*
X1684Y1133D01*
X1737Y1133D02*
X1784Y1133D01*
X1837Y1133D02*
X1884Y1133D01*
X636Y1132D02*
X685Y1132D01*
X736Y1132D02*
X785Y1132D01*
X836Y1132D02*
X885Y1132D01*
X936Y1132D02*
X985Y1132D01*
X1036Y1132D02*
X1085Y1132D01*
X1136Y1132D02*
X1185Y1132D01*
X1236Y1132D02*
X1285Y1132D01*
X1336Y1132D02*
X1385Y1132D01*
X1436Y1132D02*
X1485Y1132D01*
X1536Y1132D02*
X1585Y1132D01*
X1636Y1132D02*
X1685Y1132D01*
X1736Y1132D02*
X1785Y1132D01*
X1836Y1132D02*
X1885Y1132D01*
X635Y1131D02*
X686Y1131D01*
X735Y1131D02*
X786Y1131D01*
X835Y1131D02*
X886Y1131D01*
X935Y1131D02*
X986Y1131D01*
X1035Y1131D02*
X1086Y1131D01*
X1135Y1131D02*
X1186Y1131D01*
X1235Y1131D02*
X1286Y1131D01*
X1335Y1131D02*
X1386Y1131D01*
X1435Y1131D02*
X1486Y1131D01*
X1535Y1131D02*
X1586Y1131D01*
X1635Y1131D02*
X1686Y1131D01*
X1735Y1131D02*
X1786Y1131D01*
X1835Y1131D02*
X1886Y1131D01*
X635Y1130D02*
X687Y1130D01*
X735Y1130D02*
X787Y1130D01*
X835Y1130D02*
X887Y1130D01*
X935Y1130D02*
X987Y1130D01*
X1035Y1130D02*
X1087Y1130D01*
X1135Y1130D02*
X1187Y1130D01*
X1235Y1130D02*
X1287Y1130D01*
X1335Y1130D02*
X1387Y1130D01*
X1434Y1130D02*
X1487Y1130D01*
X1534Y1130D02*
X1587Y1130D01*
X1634Y1130D02*
X1687Y1130D01*
X1734Y1130D02*
X1787Y1130D01*
X1834Y1130D02*
X1887Y1130D01*
X634Y1129D02*
X688Y1129D01*
X734Y1129D02*
X788Y1129D01*
X834Y1129D02*
X888Y1129D01*
X934Y1129D02*
X988Y1129D01*
X1034Y1129D02*
X1088Y1129D01*
X1134Y1129D02*
X1188Y1129D01*
X1234Y1129D02*
X1288Y1129D01*
X1334Y1129D02*
X1388Y1129D01*
X1434Y1129D02*
X1488Y1129D01*
X1534Y1129D02*
X1588Y1129D01*
X1634Y1129D02*
X1688Y1129D01*
X1734Y1129D02*
X1788Y1129D01*
X1834Y1129D02*
X1888Y1129D01*
X633Y1128D02*
X689Y1128D01*
X733Y1128D02*
X789Y1128D01*
X833Y1128D02*
X889Y1128D01*
X933Y1128D02*
X989Y1128D01*
X1033Y1128D02*
X1089Y1128D01*
X1133Y1128D02*
X1189Y1128D01*
X1233Y1128D02*
X1289Y1128D01*
X1333Y1128D02*
X1388Y1128D01*
X1433Y1128D02*
X1488Y1128D01*
X1533Y1128D02*
X1588Y1128D01*
X1633Y1128D02*
X1688Y1128D01*
X1733Y1128D02*
X1788Y1128D01*
X1833Y1128D02*
X1888Y1128D01*
X632Y1127D02*
X689Y1127D01*
X732Y1127D02*
X789Y1127D01*
X832Y1127D02*
X889Y1127D01*
X932Y1127D02*
X989Y1127D01*
X1032Y1127D02*
X1089Y1127D01*
X1132Y1127D02*
X1189Y1127D01*
X1232Y1127D02*
X1289Y1127D01*
X1332Y1127D02*
X1389Y1127D01*
X1432Y1127D02*
X1489Y1127D01*
X1532Y1127D02*
X1589Y1127D01*
X1632Y1127D02*
X1689Y1127D01*
X1732Y1127D02*
X1789Y1127D01*
X1832Y1127D02*
X1889Y1127D01*
X632Y1126D02*
X690Y1126D01*
X732Y1126D02*
X790Y1126D01*
X832Y1126D02*
X890Y1126D01*
X932Y1126D02*
X990Y1126D01*
X1032Y1126D02*
X1090Y1126D01*
X1132Y1126D02*
X1190Y1126D01*
X1232Y1126D02*
X1290Y1126D01*
X1332Y1126D02*
X1390Y1126D01*
X1432Y1126D02*
X1490Y1126D01*
X1532Y1126D02*
X1590Y1126D01*
X1632Y1126D02*
X1690Y1126D01*
X1732Y1126D02*
X1790Y1126D01*
X1832Y1126D02*
X1890Y1126D01*
X631Y1125D02*
X691Y1125D01*
X731Y1125D02*
X791Y1125D01*
X831Y1125D02*
X891Y1125D01*
X931Y1125D02*
X991Y1125D01*
X1031Y1125D02*
X1091Y1125D01*
X1131Y1125D02*
X1190Y1125D01*
X1231Y1125D02*
X1290Y1125D01*
X1331Y1125D02*
X1390Y1125D01*
X1431Y1125D02*
X1490Y1125D01*
X1531Y1125D02*
X1590Y1125D01*
X1631Y1125D02*
X1690Y1125D01*
X1731Y1125D02*
X1790Y1125D01*
X1831Y1125D02*
X1890Y1125D01*
X631Y1124D02*
X691Y1124D01*
X730Y1124D02*
X791Y1124D01*
X830Y1124D02*
X891Y1124D01*
X930Y1124D02*
X991Y1124D01*
X1030Y1124D02*
X1091Y1124D01*
X1130Y1124D02*
X1191Y1124D01*
X1230Y1124D02*
X1291Y1124D01*
X1330Y1124D02*
X1391Y1124D01*
X1430Y1124D02*
X1491Y1124D01*
X1530Y1124D02*
X1591Y1124D01*
X1630Y1124D02*
X1691Y1124D01*
X1730Y1124D02*
X1791Y1124D01*
X1830Y1124D02*
X1891Y1124D01*
X630Y1123D02*
X656Y1123D01*
X666Y1123D02*
X692Y1123D01*
X730Y1123D02*
X756Y1123D01*
X766Y1123D02*
X792Y1123D01*
X830Y1123D02*
X856Y1123D01*
X866Y1123D02*
X892Y1123D01*
X930Y1123D02*
X956Y1123D01*
X966Y1123D02*
X992Y1123D01*
X1030Y1123D02*
X1056Y1123D01*
X1066Y1123D02*
X1092Y1123D01*
X1130Y1123D02*
X1156Y1123D01*
X1166Y1123D02*
X1192Y1123D01*
X1230Y1123D02*
X1256Y1123D01*
X1266Y1123D02*
X1292Y1123D01*
X1330Y1123D02*
X1355Y1123D01*
X1366Y1123D02*
X1392Y1123D01*
X1430Y1123D02*
X1455Y1123D01*
X1466Y1123D02*
X1492Y1123D01*
X1530Y1123D02*
X1555Y1123D01*
X1566Y1123D02*
X1592Y1123D01*
X1630Y1123D02*
X1655Y1123D01*
X1666Y1123D02*
X1692Y1123D01*
X1730Y1123D02*
X1755Y1123D01*
X1766Y1123D02*
X1792Y1123D01*
X1830Y1123D02*
X1855Y1123D01*
X1866Y1123D02*
X1891Y1123D01*
X629Y1122D02*
X653Y1122D01*
X669Y1122D02*
X692Y1122D01*
X729Y1122D02*
X753Y1122D01*
X769Y1122D02*
X792Y1122D01*
X829Y1122D02*
X853Y1122D01*
X869Y1122D02*
X892Y1122D01*
X929Y1122D02*
X953Y1122D01*
X969Y1122D02*
X992Y1122D01*
X1029Y1122D02*
X1053Y1122D01*
X1069Y1122D02*
X1092Y1122D01*
X1129Y1122D02*
X1153Y1122D01*
X1169Y1122D02*
X1192Y1122D01*
X1229Y1122D02*
X1253Y1122D01*
X1269Y1122D02*
X1292Y1122D01*
X1329Y1122D02*
X1353Y1122D01*
X1369Y1122D02*
X1392Y1122D01*
X1429Y1122D02*
X1453Y1122D01*
X1469Y1122D02*
X1492Y1122D01*
X1529Y1122D02*
X1553Y1122D01*
X1569Y1122D02*
X1592Y1122D01*
X1629Y1122D02*
X1652Y1122D01*
X1669Y1122D02*
X1692Y1122D01*
X1729Y1122D02*
X1752Y1122D01*
X1769Y1122D02*
X1792Y1122D01*
X1829Y1122D02*
X1852Y1122D01*
X1869Y1122D02*
X1892Y1122D01*
X629Y1121D02*
X651Y1121D01*
X671Y1121D02*
X693Y1121D01*
X729Y1121D02*
X751Y1121D01*
X771Y1121D02*
X793Y1121D01*
X829Y1121D02*
X851Y1121D01*
X871Y1121D02*
X893Y1121D01*
X929Y1121D02*
X951Y1121D01*
X971Y1121D02*
X993Y1121D01*
X1029Y1121D02*
X1051Y1121D01*
X1071Y1121D02*
X1093Y1121D01*
X1129Y1121D02*
X1151Y1121D01*
X1171Y1121D02*
X1193Y1121D01*
X1229Y1121D02*
X1251Y1121D01*
X1271Y1121D02*
X1293Y1121D01*
X1329Y1121D02*
X1351Y1121D01*
X1371Y1121D02*
X1393Y1121D01*
X1429Y1121D02*
X1451Y1121D01*
X1471Y1121D02*
X1493Y1121D01*
X1529Y1121D02*
X1551Y1121D01*
X1571Y1121D02*
X1592Y1121D01*
X1629Y1121D02*
X1651Y1121D01*
X1671Y1121D02*
X1692Y1121D01*
X1729Y1121D02*
X1751Y1121D01*
X1771Y1121D02*
X1792Y1121D01*
X1829Y1121D02*
X1851Y1121D01*
X1871Y1121D02*
X1892Y1121D01*
X629Y1120D02*
X650Y1120D01*
X672Y1120D02*
X693Y1120D01*
X729Y1120D02*
X750Y1120D01*
X772Y1120D02*
X793Y1120D01*
X829Y1120D02*
X850Y1120D01*
X872Y1120D02*
X893Y1120D01*
X929Y1120D02*
X950Y1120D01*
X972Y1120D02*
X993Y1120D01*
X1029Y1120D02*
X1050Y1120D01*
X1072Y1120D02*
X1093Y1120D01*
X1129Y1120D02*
X1150Y1120D01*
X1172Y1120D02*
X1193Y1120D01*
X1229Y1120D02*
X1250Y1120D01*
X1272Y1120D02*
X1293Y1120D01*
X1329Y1120D02*
X1350Y1120D01*
X1372Y1120D02*
X1393Y1120D01*
X1428Y1120D02*
X1449Y1120D01*
X1472Y1120D02*
X1493Y1120D01*
X1528Y1120D02*
X1549Y1120D01*
X1572Y1120D02*
X1593Y1120D01*
X1628Y1120D02*
X1649Y1120D01*
X1672Y1120D02*
X1693Y1120D01*
X1728Y1120D02*
X1749Y1120D01*
X1772Y1120D02*
X1793Y1120D01*
X1828Y1120D02*
X1849Y1120D01*
X1872Y1120D02*
X1893Y1120D01*
X628Y1119D02*
X649Y1119D01*
X673Y1119D02*
X693Y1119D01*
X728Y1119D02*
X749Y1119D01*
X773Y1119D02*
X793Y1119D01*
X828Y1119D02*
X849Y1119D01*
X873Y1119D02*
X893Y1119D01*
X928Y1119D02*
X949Y1119D01*
X973Y1119D02*
X993Y1119D01*
X1028Y1119D02*
X1049Y1119D01*
X1073Y1119D02*
X1093Y1119D01*
X1128Y1119D02*
X1149Y1119D01*
X1173Y1119D02*
X1193Y1119D01*
X1228Y1119D02*
X1249Y1119D01*
X1273Y1119D02*
X1293Y1119D01*
X1328Y1119D02*
X1349Y1119D01*
X1373Y1119D02*
X1393Y1119D01*
X1428Y1119D02*
X1449Y1119D01*
X1473Y1119D02*
X1493Y1119D01*
X1528Y1119D02*
X1549Y1119D01*
X1573Y1119D02*
X1593Y1119D01*
X1628Y1119D02*
X1648Y1119D01*
X1673Y1119D02*
X1693Y1119D01*
X1728Y1119D02*
X1748Y1119D01*
X1773Y1119D02*
X1793Y1119D01*
X1828Y1119D02*
X1848Y1119D01*
X1873Y1119D02*
X1893Y1119D01*
X628Y1118D02*
X648Y1118D01*
X674Y1118D02*
X694Y1118D01*
X728Y1118D02*
X748Y1118D01*
X774Y1118D02*
X794Y1118D01*
X828Y1118D02*
X848Y1118D01*
X874Y1118D02*
X894Y1118D01*
X928Y1118D02*
X948Y1118D01*
X974Y1118D02*
X994Y1118D01*
X1028Y1118D02*
X1048Y1118D01*
X1074Y1118D02*
X1094Y1118D01*
X1128Y1118D02*
X1148Y1118D01*
X1174Y1118D02*
X1194Y1118D01*
X1228Y1118D02*
X1248Y1118D01*
X1274Y1118D02*
X1294Y1118D01*
X1328Y1118D02*
X1348Y1118D01*
X1374Y1118D02*
X1394Y1118D01*
X1428Y1118D02*
X1448Y1118D01*
X1474Y1118D02*
X1494Y1118D01*
X1528Y1118D02*
X1548Y1118D01*
X1574Y1118D02*
X1594Y1118D01*
X1628Y1118D02*
X1648Y1118D01*
X1674Y1118D02*
X1694Y1118D01*
X1728Y1118D02*
X1748Y1118D01*
X1774Y1118D02*
X1794Y1118D01*
X1828Y1118D02*
X1848Y1118D01*
X1874Y1118D02*
X1894Y1118D01*
X628Y1117D02*
X647Y1117D01*
X674Y1117D02*
X694Y1117D01*
X728Y1117D02*
X747Y1117D01*
X774Y1117D02*
X794Y1117D01*
X828Y1117D02*
X847Y1117D01*
X874Y1117D02*
X894Y1117D01*
X928Y1117D02*
X947Y1117D01*
X974Y1117D02*
X994Y1117D01*
X1028Y1117D02*
X1047Y1117D01*
X1074Y1117D02*
X1094Y1117D01*
X1128Y1117D02*
X1147Y1117D01*
X1174Y1117D02*
X1194Y1117D01*
X1227Y1117D02*
X1247Y1117D01*
X1274Y1117D02*
X1294Y1117D01*
X1327Y1117D02*
X1347Y1117D01*
X1374Y1117D02*
X1394Y1117D01*
X1427Y1117D02*
X1447Y1117D01*
X1474Y1117D02*
X1494Y1117D01*
X1527Y1117D02*
X1547Y1117D01*
X1574Y1117D02*
X1594Y1117D01*
X1627Y1117D02*
X1647Y1117D01*
X1674Y1117D02*
X1694Y1117D01*
X1727Y1117D02*
X1747Y1117D01*
X1774Y1117D02*
X1794Y1117D01*
X1827Y1117D02*
X1847Y1117D01*
X1874Y1117D02*
X1894Y1117D01*
X627Y1116D02*
X647Y1116D01*
X675Y1116D02*
X694Y1116D01*
X727Y1116D02*
X747Y1116D01*
X775Y1116D02*
X794Y1116D01*
X827Y1116D02*
X847Y1116D01*
X875Y1116D02*
X894Y1116D01*
X927Y1116D02*
X947Y1116D01*
X975Y1116D02*
X994Y1116D01*
X1027Y1116D02*
X1047Y1116D01*
X1075Y1116D02*
X1094Y1116D01*
X1127Y1116D02*
X1147Y1116D01*
X1175Y1116D02*
X1194Y1116D01*
X1227Y1116D02*
X1247Y1116D01*
X1275Y1116D02*
X1294Y1116D01*
X1327Y1116D02*
X1347Y1116D01*
X1375Y1116D02*
X1394Y1116D01*
X1427Y1116D02*
X1447Y1116D01*
X1475Y1116D02*
X1494Y1116D01*
X1527Y1116D02*
X1547Y1116D01*
X1575Y1116D02*
X1594Y1116D01*
X1627Y1116D02*
X1647Y1116D01*
X1675Y1116D02*
X1694Y1116D01*
X1727Y1116D02*
X1747Y1116D01*
X1775Y1116D02*
X1794Y1116D01*
X1827Y1116D02*
X1847Y1116D01*
X1875Y1116D02*
X1894Y1116D01*
X627Y1115D02*
X646Y1115D01*
X675Y1115D02*
X695Y1115D01*
X727Y1115D02*
X746Y1115D01*
X775Y1115D02*
X795Y1115D01*
X827Y1115D02*
X846Y1115D01*
X875Y1115D02*
X895Y1115D01*
X927Y1115D02*
X946Y1115D01*
X975Y1115D02*
X995Y1115D01*
X1027Y1115D02*
X1046Y1115D01*
X1075Y1115D02*
X1095Y1115D01*
X1127Y1115D02*
X1146Y1115D01*
X1175Y1115D02*
X1195Y1115D01*
X1227Y1115D02*
X1246Y1115D01*
X1275Y1115D02*
X1294Y1115D01*
X1327Y1115D02*
X1346Y1115D01*
X1375Y1115D02*
X1394Y1115D01*
X1427Y1115D02*
X1446Y1115D01*
X1475Y1115D02*
X1494Y1115D01*
X1527Y1115D02*
X1546Y1115D01*
X1575Y1115D02*
X1594Y1115D01*
X1627Y1115D02*
X1646Y1115D01*
X1675Y1115D02*
X1694Y1115D01*
X1727Y1115D02*
X1746Y1115D01*
X1775Y1115D02*
X1794Y1115D01*
X1827Y1115D02*
X1846Y1115D01*
X1875Y1115D02*
X1894Y1115D01*
X627Y1114D02*
X646Y1114D01*
X676Y1114D02*
X695Y1114D01*
X727Y1114D02*
X746Y1114D01*
X776Y1114D02*
X795Y1114D01*
X827Y1114D02*
X846Y1114D01*
X876Y1114D02*
X895Y1114D01*
X927Y1114D02*
X946Y1114D01*
X976Y1114D02*
X995Y1114D01*
X1027Y1114D02*
X1046Y1114D01*
X1076Y1114D02*
X1095Y1114D01*
X1127Y1114D02*
X1146Y1114D01*
X1176Y1114D02*
X1195Y1114D01*
X1227Y1114D02*
X1246Y1114D01*
X1276Y1114D02*
X1295Y1114D01*
X1327Y1114D02*
X1346Y1114D01*
X1376Y1114D02*
X1395Y1114D01*
X1427Y1114D02*
X1446Y1114D01*
X1476Y1114D02*
X1495Y1114D01*
X1527Y1114D02*
X1546Y1114D01*
X1575Y1114D02*
X1595Y1114D01*
X1627Y1114D02*
X1646Y1114D01*
X1675Y1114D02*
X1695Y1114D01*
X1727Y1114D02*
X1746Y1114D01*
X1775Y1114D02*
X1795Y1114D01*
X1827Y1114D02*
X1846Y1114D01*
X1875Y1114D02*
X1895Y1114D01*
X627Y1113D02*
X646Y1113D01*
X676Y1113D02*
X695Y1113D01*
X727Y1113D02*
X746Y1113D01*
X776Y1113D02*
X795Y1113D01*
X827Y1113D02*
X846Y1113D01*
X876Y1113D02*
X895Y1113D01*
X927Y1113D02*
X946Y1113D01*
X976Y1113D02*
X995Y1113D01*
X1027Y1113D02*
X1046Y1113D01*
X1076Y1113D02*
X1095Y1113D01*
X1127Y1113D02*
X1146Y1113D01*
X1176Y1113D02*
X1195Y1113D01*
X1227Y1113D02*
X1246Y1113D01*
X1276Y1113D02*
X1295Y1113D01*
X1327Y1113D02*
X1346Y1113D01*
X1376Y1113D02*
X1395Y1113D01*
X1427Y1113D02*
X1446Y1113D01*
X1476Y1113D02*
X1495Y1113D01*
X1527Y1113D02*
X1546Y1113D01*
X1576Y1113D02*
X1595Y1113D01*
X1627Y1113D02*
X1646Y1113D01*
X1676Y1113D02*
X1695Y1113D01*
X1727Y1113D02*
X1746Y1113D01*
X1776Y1113D02*
X1795Y1113D01*
X1827Y1113D02*
X1846Y1113D01*
X1876Y1113D02*
X1895Y1113D01*
X627Y1112D02*
X646Y1112D01*
X676Y1112D02*
X695Y1112D01*
X727Y1112D02*
X746Y1112D01*
X776Y1112D02*
X795Y1112D01*
X827Y1112D02*
X846Y1112D01*
X876Y1112D02*
X895Y1112D01*
X927Y1112D02*
X946Y1112D01*
X976Y1112D02*
X995Y1112D01*
X1026Y1112D02*
X1046Y1112D01*
X1076Y1112D02*
X1095Y1112D01*
X1126Y1112D02*
X1146Y1112D01*
X1176Y1112D02*
X1195Y1112D01*
X1226Y1112D02*
X1246Y1112D01*
X1276Y1112D02*
X1295Y1112D01*
X1326Y1112D02*
X1345Y1112D01*
X1376Y1112D02*
X1395Y1112D01*
X1426Y1112D02*
X1445Y1112D01*
X1476Y1112D02*
X1495Y1112D01*
X1526Y1112D02*
X1545Y1112D01*
X1576Y1112D02*
X1595Y1112D01*
X1626Y1112D02*
X1645Y1112D01*
X1676Y1112D02*
X1695Y1112D01*
X1726Y1112D02*
X1745Y1112D01*
X1776Y1112D02*
X1795Y1112D01*
X1826Y1112D02*
X1845Y1112D01*
X1876Y1112D02*
X1895Y1112D01*
X626Y1111D02*
X645Y1111D01*
X676Y1111D02*
X695Y1111D01*
X726Y1111D02*
X745Y1111D01*
X776Y1111D02*
X795Y1111D01*
X826Y1111D02*
X845Y1111D01*
X876Y1111D02*
X895Y1111D01*
X926Y1111D02*
X945Y1111D01*
X976Y1111D02*
X995Y1111D01*
X1026Y1111D02*
X1045Y1111D01*
X1076Y1111D02*
X1095Y1111D01*
X1126Y1111D02*
X1145Y1111D01*
X1176Y1111D02*
X1195Y1111D01*
X1226Y1111D02*
X1245Y1111D01*
X1276Y1111D02*
X1295Y1111D01*
X1326Y1111D02*
X1345Y1111D01*
X1376Y1111D02*
X1395Y1111D01*
X1426Y1111D02*
X1445Y1111D01*
X1476Y1111D02*
X1495Y1111D01*
X1526Y1111D02*
X1545Y1111D01*
X1576Y1111D02*
X1595Y1111D01*
X1626Y1111D02*
X1645Y1111D01*
X1676Y1111D02*
X1695Y1111D01*
X1726Y1111D02*
X1745Y1111D01*
X1776Y1111D02*
X1795Y1111D01*
X1826Y1111D02*
X1845Y1111D01*
X1876Y1111D02*
X1895Y1111D01*
X626Y1110D02*
X645Y1110D01*
X676Y1110D02*
X695Y1110D01*
X726Y1110D02*
X745Y1110D01*
X776Y1110D02*
X795Y1110D01*
X826Y1110D02*
X845Y1110D01*
X876Y1110D02*
X895Y1110D01*
X926Y1110D02*
X945Y1110D01*
X976Y1110D02*
X995Y1110D01*
X1026Y1110D02*
X1045Y1110D01*
X1076Y1110D02*
X1095Y1110D01*
X1126Y1110D02*
X1145Y1110D01*
X1176Y1110D02*
X1195Y1110D01*
X1226Y1110D02*
X1245Y1110D01*
X1276Y1110D02*
X1295Y1110D01*
X1326Y1110D02*
X1345Y1110D01*
X1376Y1110D02*
X1395Y1110D01*
X1426Y1110D02*
X1445Y1110D01*
X1476Y1110D02*
X1495Y1110D01*
X1526Y1110D02*
X1545Y1110D01*
X1576Y1110D02*
X1595Y1110D01*
X1626Y1110D02*
X1645Y1110D01*
X1676Y1110D02*
X1695Y1110D01*
X1726Y1110D02*
X1745Y1110D01*
X1776Y1110D02*
X1795Y1110D01*
X1826Y1110D02*
X1845Y1110D01*
X1876Y1110D02*
X1895Y1110D01*
X626Y1109D02*
X645Y1109D01*
X676Y1109D02*
X695Y1109D01*
X726Y1109D02*
X745Y1109D01*
X776Y1109D02*
X795Y1109D01*
X826Y1109D02*
X845Y1109D01*
X876Y1109D02*
X895Y1109D01*
X926Y1109D02*
X945Y1109D01*
X976Y1109D02*
X995Y1109D01*
X1026Y1109D02*
X1045Y1109D01*
X1076Y1109D02*
X1095Y1109D01*
X1126Y1109D02*
X1145Y1109D01*
X1176Y1109D02*
X1195Y1109D01*
X1226Y1109D02*
X1245Y1109D01*
X1276Y1109D02*
X1295Y1109D01*
X1326Y1109D02*
X1345Y1109D01*
X1376Y1109D02*
X1395Y1109D01*
X1426Y1109D02*
X1445Y1109D01*
X1476Y1109D02*
X1495Y1109D01*
X1526Y1109D02*
X1545Y1109D01*
X1576Y1109D02*
X1595Y1109D01*
X1626Y1109D02*
X1645Y1109D01*
X1676Y1109D02*
X1695Y1109D01*
X1726Y1109D02*
X1745Y1109D01*
X1776Y1109D02*
X1795Y1109D01*
X1826Y1109D02*
X1845Y1109D01*
X1876Y1109D02*
X1895Y1109D01*
X626Y1108D02*
X645Y1108D01*
X676Y1108D02*
X695Y1108D01*
X726Y1108D02*
X745Y1108D01*
X776Y1108D02*
X795Y1108D01*
X826Y1108D02*
X845Y1108D01*
X876Y1108D02*
X895Y1108D01*
X926Y1108D02*
X945Y1108D01*
X976Y1108D02*
X995Y1108D01*
X1026Y1108D02*
X1045Y1108D01*
X1076Y1108D02*
X1095Y1108D01*
X1126Y1108D02*
X1145Y1108D01*
X1176Y1108D02*
X1195Y1108D01*
X1226Y1108D02*
X1245Y1108D01*
X1276Y1108D02*
X1295Y1108D01*
X1326Y1108D02*
X1345Y1108D01*
X1376Y1108D02*
X1395Y1108D01*
X1426Y1108D02*
X1445Y1108D01*
X1476Y1108D02*
X1495Y1108D01*
X1526Y1108D02*
X1545Y1108D01*
X1576Y1108D02*
X1595Y1108D01*
X1626Y1108D02*
X1645Y1108D01*
X1676Y1108D02*
X1695Y1108D01*
X1726Y1108D02*
X1745Y1108D01*
X1776Y1108D02*
X1795Y1108D01*
X1826Y1108D02*
X1845Y1108D01*
X1876Y1108D02*
X1895Y1108D01*
X626Y1107D02*
X645Y1107D01*
X676Y1107D02*
X695Y1107D01*
X726Y1107D02*
X745Y1107D01*
X776Y1107D02*
X795Y1107D01*
X826Y1107D02*
X845Y1107D01*
X876Y1107D02*
X895Y1107D01*
X926Y1107D02*
X945Y1107D01*
X976Y1107D02*
X995Y1107D01*
X1026Y1107D02*
X1045Y1107D01*
X1076Y1107D02*
X1095Y1107D01*
X1126Y1107D02*
X1145Y1107D01*
X1176Y1107D02*
X1195Y1107D01*
X1226Y1107D02*
X1245Y1107D01*
X1276Y1107D02*
X1295Y1107D01*
X1326Y1107D02*
X1345Y1107D01*
X1376Y1107D02*
X1395Y1107D01*
X1426Y1107D02*
X1445Y1107D01*
X1476Y1107D02*
X1495Y1107D01*
X1526Y1107D02*
X1545Y1107D01*
X1576Y1107D02*
X1595Y1107D01*
X1626Y1107D02*
X1645Y1107D01*
X1676Y1107D02*
X1695Y1107D01*
X1726Y1107D02*
X1745Y1107D01*
X1776Y1107D02*
X1795Y1107D01*
X1826Y1107D02*
X1845Y1107D01*
X1876Y1107D02*
X1895Y1107D01*
X626Y1106D02*
X645Y1106D01*
X676Y1106D02*
X695Y1106D01*
X726Y1106D02*
X745Y1106D01*
X776Y1106D02*
X795Y1106D01*
X826Y1106D02*
X845Y1106D01*
X876Y1106D02*
X895Y1106D01*
X926Y1106D02*
X945Y1106D01*
X976Y1106D02*
X995Y1106D01*
X1026Y1106D02*
X1045Y1106D01*
X1076Y1106D02*
X1095Y1106D01*
X1126Y1106D02*
X1145Y1106D01*
X1176Y1106D02*
X1195Y1106D01*
X1226Y1106D02*
X1245Y1106D01*
X1276Y1106D02*
X1295Y1106D01*
X1326Y1106D02*
X1345Y1106D01*
X1376Y1106D02*
X1395Y1106D01*
X1426Y1106D02*
X1445Y1106D01*
X1476Y1106D02*
X1495Y1106D01*
X1526Y1106D02*
X1545Y1106D01*
X1576Y1106D02*
X1595Y1106D01*
X1626Y1106D02*
X1645Y1106D01*
X1676Y1106D02*
X1695Y1106D01*
X1726Y1106D02*
X1745Y1106D01*
X1776Y1106D02*
X1795Y1106D01*
X1826Y1106D02*
X1845Y1106D01*
X1876Y1106D02*
X1895Y1106D01*
X627Y1105D02*
X646Y1105D01*
X676Y1105D02*
X695Y1105D01*
X727Y1105D02*
X746Y1105D01*
X776Y1105D02*
X795Y1105D01*
X827Y1105D02*
X846Y1105D01*
X876Y1105D02*
X895Y1105D01*
X927Y1105D02*
X946Y1105D01*
X976Y1105D02*
X995Y1105D01*
X1026Y1105D02*
X1046Y1105D01*
X1076Y1105D02*
X1095Y1105D01*
X1126Y1105D02*
X1146Y1105D01*
X1176Y1105D02*
X1195Y1105D01*
X1226Y1105D02*
X1246Y1105D01*
X1276Y1105D02*
X1295Y1105D01*
X1326Y1105D02*
X1345Y1105D01*
X1376Y1105D02*
X1395Y1105D01*
X1426Y1105D02*
X1445Y1105D01*
X1476Y1105D02*
X1495Y1105D01*
X1526Y1105D02*
X1545Y1105D01*
X1576Y1105D02*
X1595Y1105D01*
X1626Y1105D02*
X1645Y1105D01*
X1676Y1105D02*
X1695Y1105D01*
X1726Y1105D02*
X1745Y1105D01*
X1776Y1105D02*
X1795Y1105D01*
X1826Y1105D02*
X1845Y1105D01*
X1876Y1105D02*
X1895Y1105D01*
X627Y1104D02*
X646Y1104D01*
X676Y1104D02*
X695Y1104D01*
X727Y1104D02*
X746Y1104D01*
X776Y1104D02*
X795Y1104D01*
X827Y1104D02*
X846Y1104D01*
X876Y1104D02*
X895Y1104D01*
X927Y1104D02*
X946Y1104D01*
X976Y1104D02*
X995Y1104D01*
X1027Y1104D02*
X1046Y1104D01*
X1076Y1104D02*
X1095Y1104D01*
X1127Y1104D02*
X1146Y1104D01*
X1176Y1104D02*
X1195Y1104D01*
X1227Y1104D02*
X1246Y1104D01*
X1276Y1104D02*
X1295Y1104D01*
X1327Y1104D02*
X1346Y1104D01*
X1376Y1104D02*
X1395Y1104D01*
X1427Y1104D02*
X1446Y1104D01*
X1476Y1104D02*
X1495Y1104D01*
X1527Y1104D02*
X1546Y1104D01*
X1576Y1104D02*
X1595Y1104D01*
X1627Y1104D02*
X1646Y1104D01*
X1676Y1104D02*
X1695Y1104D01*
X1727Y1104D02*
X1746Y1104D01*
X1776Y1104D02*
X1795Y1104D01*
X1827Y1104D02*
X1846Y1104D01*
X1876Y1104D02*
X1895Y1104D01*
X627Y1103D02*
X646Y1103D01*
X676Y1103D02*
X695Y1103D01*
X727Y1103D02*
X746Y1103D01*
X776Y1103D02*
X795Y1103D01*
X827Y1103D02*
X846Y1103D01*
X876Y1103D02*
X895Y1103D01*
X927Y1103D02*
X946Y1103D01*
X976Y1103D02*
X995Y1103D01*
X1027Y1103D02*
X1046Y1103D01*
X1076Y1103D02*
X1095Y1103D01*
X1127Y1103D02*
X1146Y1103D01*
X1176Y1103D02*
X1195Y1103D01*
X1227Y1103D02*
X1246Y1103D01*
X1276Y1103D02*
X1295Y1103D01*
X1327Y1103D02*
X1346Y1103D01*
X1376Y1103D02*
X1395Y1103D01*
X1427Y1103D02*
X1446Y1103D01*
X1476Y1103D02*
X1495Y1103D01*
X1527Y1103D02*
X1546Y1103D01*
X1575Y1103D02*
X1595Y1103D01*
X1627Y1103D02*
X1646Y1103D01*
X1675Y1103D02*
X1695Y1103D01*
X1727Y1103D02*
X1746Y1103D01*
X1775Y1103D02*
X1795Y1103D01*
X1827Y1103D02*
X1846Y1103D01*
X1875Y1103D02*
X1895Y1103D01*
X627Y1102D02*
X646Y1102D01*
X675Y1102D02*
X695Y1102D01*
X727Y1102D02*
X746Y1102D01*
X775Y1102D02*
X795Y1102D01*
X827Y1102D02*
X846Y1102D01*
X875Y1102D02*
X895Y1102D01*
X927Y1102D02*
X946Y1102D01*
X975Y1102D02*
X995Y1102D01*
X1027Y1102D02*
X1046Y1102D01*
X1075Y1102D02*
X1095Y1102D01*
X1127Y1102D02*
X1146Y1102D01*
X1175Y1102D02*
X1195Y1102D01*
X1227Y1102D02*
X1246Y1102D01*
X1275Y1102D02*
X1294Y1102D01*
X1327Y1102D02*
X1346Y1102D01*
X1375Y1102D02*
X1394Y1102D01*
X1427Y1102D02*
X1446Y1102D01*
X1475Y1102D02*
X1494Y1102D01*
X1527Y1102D02*
X1546Y1102D01*
X1575Y1102D02*
X1594Y1102D01*
X1627Y1102D02*
X1646Y1102D01*
X1675Y1102D02*
X1694Y1102D01*
X1727Y1102D02*
X1746Y1102D01*
X1775Y1102D02*
X1794Y1102D01*
X1827Y1102D02*
X1846Y1102D01*
X1875Y1102D02*
X1894Y1102D01*
X627Y1101D02*
X647Y1101D01*
X675Y1101D02*
X694Y1101D01*
X727Y1101D02*
X747Y1101D01*
X775Y1101D02*
X794Y1101D01*
X827Y1101D02*
X847Y1101D01*
X875Y1101D02*
X894Y1101D01*
X927Y1101D02*
X947Y1101D01*
X975Y1101D02*
X994Y1101D01*
X1027Y1101D02*
X1047Y1101D01*
X1075Y1101D02*
X1094Y1101D01*
X1127Y1101D02*
X1147Y1101D01*
X1175Y1101D02*
X1194Y1101D01*
X1227Y1101D02*
X1247Y1101D01*
X1275Y1101D02*
X1294Y1101D01*
X1327Y1101D02*
X1347Y1101D01*
X1375Y1101D02*
X1394Y1101D01*
X1427Y1101D02*
X1447Y1101D01*
X1475Y1101D02*
X1494Y1101D01*
X1527Y1101D02*
X1547Y1101D01*
X1575Y1101D02*
X1594Y1101D01*
X1627Y1101D02*
X1647Y1101D01*
X1675Y1101D02*
X1694Y1101D01*
X1727Y1101D02*
X1747Y1101D01*
X1775Y1101D02*
X1794Y1101D01*
X1827Y1101D02*
X1847Y1101D01*
X1875Y1101D02*
X1894Y1101D01*
X628Y1100D02*
X647Y1100D01*
X674Y1100D02*
X694Y1100D01*
X728Y1100D02*
X747Y1100D01*
X774Y1100D02*
X794Y1100D01*
X828Y1100D02*
X847Y1100D01*
X874Y1100D02*
X894Y1100D01*
X928Y1100D02*
X947Y1100D01*
X974Y1100D02*
X994Y1100D01*
X1028Y1100D02*
X1047Y1100D01*
X1074Y1100D02*
X1094Y1100D01*
X1128Y1100D02*
X1147Y1100D01*
X1174Y1100D02*
X1194Y1100D01*
X1227Y1100D02*
X1247Y1100D01*
X1274Y1100D02*
X1294Y1100D01*
X1327Y1100D02*
X1347Y1100D01*
X1374Y1100D02*
X1394Y1100D01*
X1427Y1100D02*
X1447Y1100D01*
X1474Y1100D02*
X1494Y1100D01*
X1527Y1100D02*
X1547Y1100D01*
X1574Y1100D02*
X1594Y1100D01*
X1627Y1100D02*
X1647Y1100D01*
X1674Y1100D02*
X1694Y1100D01*
X1727Y1100D02*
X1747Y1100D01*
X1774Y1100D02*
X1794Y1100D01*
X1827Y1100D02*
X1847Y1100D01*
X1874Y1100D02*
X1894Y1100D01*
X628Y1099D02*
X648Y1099D01*
X674Y1099D02*
X694Y1099D01*
X728Y1099D02*
X748Y1099D01*
X774Y1099D02*
X794Y1099D01*
X828Y1099D02*
X848Y1099D01*
X874Y1099D02*
X894Y1099D01*
X928Y1099D02*
X948Y1099D01*
X974Y1099D02*
X994Y1099D01*
X1028Y1099D02*
X1048Y1099D01*
X1074Y1099D02*
X1094Y1099D01*
X1128Y1099D02*
X1148Y1099D01*
X1174Y1099D02*
X1194Y1099D01*
X1228Y1099D02*
X1248Y1099D01*
X1274Y1099D02*
X1294Y1099D01*
X1328Y1099D02*
X1348Y1099D01*
X1374Y1099D02*
X1394Y1099D01*
X1428Y1099D02*
X1448Y1099D01*
X1474Y1099D02*
X1494Y1099D01*
X1528Y1099D02*
X1548Y1099D01*
X1574Y1099D02*
X1594Y1099D01*
X1628Y1099D02*
X1648Y1099D01*
X1674Y1099D02*
X1694Y1099D01*
X1728Y1099D02*
X1748Y1099D01*
X1774Y1099D02*
X1794Y1099D01*
X1828Y1099D02*
X1848Y1099D01*
X1874Y1099D02*
X1894Y1099D01*
X628Y1098D02*
X649Y1098D01*
X673Y1098D02*
X693Y1098D01*
X728Y1098D02*
X749Y1098D01*
X773Y1098D02*
X793Y1098D01*
X828Y1098D02*
X849Y1098D01*
X873Y1098D02*
X893Y1098D01*
X928Y1098D02*
X949Y1098D01*
X973Y1098D02*
X993Y1098D01*
X1028Y1098D02*
X1049Y1098D01*
X1073Y1098D02*
X1093Y1098D01*
X1128Y1098D02*
X1149Y1098D01*
X1173Y1098D02*
X1193Y1098D01*
X1228Y1098D02*
X1249Y1098D01*
X1273Y1098D02*
X1293Y1098D01*
X1328Y1098D02*
X1349Y1098D01*
X1373Y1098D02*
X1393Y1098D01*
X1428Y1098D02*
X1449Y1098D01*
X1473Y1098D02*
X1493Y1098D01*
X1528Y1098D02*
X1549Y1098D01*
X1573Y1098D02*
X1593Y1098D01*
X1628Y1098D02*
X1649Y1098D01*
X1673Y1098D02*
X1693Y1098D01*
X1728Y1098D02*
X1748Y1098D01*
X1773Y1098D02*
X1793Y1098D01*
X1828Y1098D02*
X1848Y1098D01*
X1873Y1098D02*
X1893Y1098D01*
X629Y1097D02*
X650Y1097D01*
X672Y1097D02*
X693Y1097D01*
X729Y1097D02*
X750Y1097D01*
X772Y1097D02*
X793Y1097D01*
X829Y1097D02*
X850Y1097D01*
X872Y1097D02*
X893Y1097D01*
X929Y1097D02*
X950Y1097D01*
X972Y1097D02*
X993Y1097D01*
X1029Y1097D02*
X1050Y1097D01*
X1072Y1097D02*
X1093Y1097D01*
X1129Y1097D02*
X1150Y1097D01*
X1172Y1097D02*
X1193Y1097D01*
X1229Y1097D02*
X1250Y1097D01*
X1272Y1097D02*
X1293Y1097D01*
X1329Y1097D02*
X1350Y1097D01*
X1372Y1097D02*
X1393Y1097D01*
X1429Y1097D02*
X1450Y1097D01*
X1472Y1097D02*
X1493Y1097D01*
X1528Y1097D02*
X1549Y1097D01*
X1572Y1097D02*
X1593Y1097D01*
X1628Y1097D02*
X1649Y1097D01*
X1672Y1097D02*
X1693Y1097D01*
X1728Y1097D02*
X1749Y1097D01*
X1772Y1097D02*
X1793Y1097D01*
X1828Y1097D02*
X1849Y1097D01*
X1872Y1097D02*
X1893Y1097D01*
X629Y1096D02*
X651Y1096D01*
X671Y1096D02*
X693Y1096D01*
X729Y1096D02*
X751Y1096D01*
X771Y1096D02*
X793Y1096D01*
X829Y1096D02*
X851Y1096D01*
X871Y1096D02*
X893Y1096D01*
X929Y1096D02*
X951Y1096D01*
X971Y1096D02*
X993Y1096D01*
X1029Y1096D02*
X1051Y1096D01*
X1071Y1096D02*
X1093Y1096D01*
X1129Y1096D02*
X1151Y1096D01*
X1171Y1096D02*
X1193Y1096D01*
X1229Y1096D02*
X1251Y1096D01*
X1271Y1096D02*
X1293Y1096D01*
X1329Y1096D02*
X1351Y1096D01*
X1371Y1096D02*
X1393Y1096D01*
X1429Y1096D02*
X1451Y1096D01*
X1471Y1096D02*
X1493Y1096D01*
X1529Y1096D02*
X1551Y1096D01*
X1571Y1096D02*
X1592Y1096D01*
X1629Y1096D02*
X1651Y1096D01*
X1671Y1096D02*
X1692Y1096D01*
X1729Y1096D02*
X1751Y1096D01*
X1771Y1096D02*
X1792Y1096D01*
X1829Y1096D02*
X1851Y1096D01*
X1871Y1096D02*
X1892Y1096D01*
X629Y1095D02*
X653Y1095D01*
X669Y1095D02*
X692Y1095D01*
X729Y1095D02*
X753Y1095D01*
X769Y1095D02*
X792Y1095D01*
X829Y1095D02*
X853Y1095D01*
X869Y1095D02*
X892Y1095D01*
X929Y1095D02*
X953Y1095D01*
X969Y1095D02*
X992Y1095D01*
X1029Y1095D02*
X1053Y1095D01*
X1069Y1095D02*
X1092Y1095D01*
X1129Y1095D02*
X1153Y1095D01*
X1169Y1095D02*
X1192Y1095D01*
X1229Y1095D02*
X1253Y1095D01*
X1269Y1095D02*
X1292Y1095D01*
X1329Y1095D02*
X1353Y1095D01*
X1369Y1095D02*
X1392Y1095D01*
X1429Y1095D02*
X1453Y1095D01*
X1469Y1095D02*
X1492Y1095D01*
X1529Y1095D02*
X1553Y1095D01*
X1569Y1095D02*
X1592Y1095D01*
X1629Y1095D02*
X1653Y1095D01*
X1669Y1095D02*
X1692Y1095D01*
X1729Y1095D02*
X1753Y1095D01*
X1769Y1095D02*
X1792Y1095D01*
X1829Y1095D02*
X1853Y1095D01*
X1869Y1095D02*
X1892Y1095D01*
X630Y1094D02*
X656Y1094D01*
X666Y1094D02*
X692Y1094D01*
X730Y1094D02*
X756Y1094D01*
X766Y1094D02*
X792Y1094D01*
X830Y1094D02*
X856Y1094D01*
X866Y1094D02*
X892Y1094D01*
X930Y1094D02*
X956Y1094D01*
X966Y1094D02*
X992Y1094D01*
X1030Y1094D02*
X1056Y1094D01*
X1066Y1094D02*
X1092Y1094D01*
X1130Y1094D02*
X1156Y1094D01*
X1166Y1094D02*
X1192Y1094D01*
X1230Y1094D02*
X1256Y1094D01*
X1266Y1094D02*
X1292Y1094D01*
X1330Y1094D02*
X1356Y1094D01*
X1366Y1094D02*
X1392Y1094D01*
X1430Y1094D02*
X1456Y1094D01*
X1466Y1094D02*
X1492Y1094D01*
X1530Y1094D02*
X1556Y1094D01*
X1566Y1094D02*
X1592Y1094D01*
X1630Y1094D02*
X1656Y1094D01*
X1666Y1094D02*
X1692Y1094D01*
X1730Y1094D02*
X1756Y1094D01*
X1766Y1094D02*
X1792Y1094D01*
X1830Y1094D02*
X1856Y1094D01*
X1866Y1094D02*
X1891Y1094D01*
X631Y1093D02*
X691Y1093D01*
X730Y1093D02*
X791Y1093D01*
X830Y1093D02*
X891Y1093D01*
X930Y1093D02*
X991Y1093D01*
X1030Y1093D02*
X1091Y1093D01*
X1130Y1093D02*
X1191Y1093D01*
X1230Y1093D02*
X1291Y1093D01*
X1330Y1093D02*
X1391Y1093D01*
X1430Y1093D02*
X1491Y1093D01*
X1530Y1093D02*
X1591Y1093D01*
X1630Y1093D02*
X1691Y1093D01*
X1730Y1093D02*
X1791Y1093D01*
X1830Y1093D02*
X1891Y1093D01*
X631Y1092D02*
X691Y1092D01*
X731Y1092D02*
X791Y1092D01*
X831Y1092D02*
X891Y1092D01*
X931Y1092D02*
X991Y1092D01*
X1031Y1092D02*
X1090Y1092D01*
X1131Y1092D02*
X1190Y1092D01*
X1231Y1092D02*
X1290Y1092D01*
X1331Y1092D02*
X1390Y1092D01*
X1431Y1092D02*
X1490Y1092D01*
X1531Y1092D02*
X1590Y1092D01*
X1631Y1092D02*
X1690Y1092D01*
X1731Y1092D02*
X1790Y1092D01*
X1831Y1092D02*
X1890Y1092D01*
X632Y1091D02*
X690Y1091D01*
X732Y1091D02*
X790Y1091D01*
X832Y1091D02*
X890Y1091D01*
X932Y1091D02*
X990Y1091D01*
X1032Y1091D02*
X1090Y1091D01*
X1132Y1091D02*
X1190Y1091D01*
X1232Y1091D02*
X1290Y1091D01*
X1332Y1091D02*
X1390Y1091D01*
X1432Y1091D02*
X1490Y1091D01*
X1532Y1091D02*
X1590Y1091D01*
X1632Y1091D02*
X1690Y1091D01*
X1732Y1091D02*
X1790Y1091D01*
X1832Y1091D02*
X1890Y1091D01*
X632Y1090D02*
X689Y1090D01*
X732Y1090D02*
X789Y1090D01*
X832Y1090D02*
X889Y1090D01*
X932Y1090D02*
X989Y1090D01*
X1032Y1090D02*
X1089Y1090D01*
X1132Y1090D02*
X1189Y1090D01*
X1232Y1090D02*
X1289Y1090D01*
X1332Y1090D02*
X1389Y1090D01*
X1432Y1090D02*
X1489Y1090D01*
X1532Y1090D02*
X1589Y1090D01*
X1632Y1090D02*
X1689Y1090D01*
X1732Y1090D02*
X1789Y1090D01*
X1832Y1090D02*
X1889Y1090D01*
X633Y1089D02*
X689Y1089D01*
X733Y1089D02*
X789Y1089D01*
X833Y1089D02*
X889Y1089D01*
X933Y1089D02*
X989Y1089D01*
X1033Y1089D02*
X1089Y1089D01*
X1133Y1089D02*
X1189Y1089D01*
X1233Y1089D02*
X1288Y1089D01*
X1333Y1089D02*
X1388Y1089D01*
X1433Y1089D02*
X1488Y1089D01*
X1533Y1089D02*
X1588Y1089D01*
X1633Y1089D02*
X1688Y1089D01*
X1733Y1089D02*
X1788Y1089D01*
X1833Y1089D02*
X1888Y1089D01*
X634Y1088D02*
X688Y1088D01*
X734Y1088D02*
X788Y1088D01*
X834Y1088D02*
X888Y1088D01*
X934Y1088D02*
X988Y1088D01*
X1034Y1088D02*
X1088Y1088D01*
X1134Y1088D02*
X1188Y1088D01*
X1234Y1088D02*
X1288Y1088D01*
X1334Y1088D02*
X1388Y1088D01*
X1434Y1088D02*
X1488Y1088D01*
X1534Y1088D02*
X1588Y1088D01*
X1634Y1088D02*
X1688Y1088D01*
X1734Y1088D02*
X1788Y1088D01*
X1834Y1088D02*
X1888Y1088D01*
X635Y1087D02*
X687Y1087D01*
X735Y1087D02*
X787Y1087D01*
X835Y1087D02*
X887Y1087D01*
X935Y1087D02*
X987Y1087D01*
X1035Y1087D02*
X1087Y1087D01*
X1135Y1087D02*
X1187Y1087D01*
X1235Y1087D02*
X1287Y1087D01*
X1335Y1087D02*
X1387Y1087D01*
X1434Y1087D02*
X1487Y1087D01*
X1534Y1087D02*
X1587Y1087D01*
X1634Y1087D02*
X1687Y1087D01*
X1734Y1087D02*
X1787Y1087D01*
X1834Y1087D02*
X1887Y1087D01*
X635Y1086D02*
X686Y1086D01*
X735Y1086D02*
X786Y1086D01*
X835Y1086D02*
X886Y1086D01*
X935Y1086D02*
X986Y1086D01*
X1035Y1086D02*
X1086Y1086D01*
X1135Y1086D02*
X1186Y1086D01*
X1235Y1086D02*
X1286Y1086D01*
X1335Y1086D02*
X1386Y1086D01*
X1435Y1086D02*
X1486Y1086D01*
X1535Y1086D02*
X1586Y1086D01*
X1635Y1086D02*
X1686Y1086D01*
X1735Y1086D02*
X1786Y1086D01*
X1835Y1086D02*
X1886Y1086D01*
X636Y1085D02*
X685Y1085D01*
X736Y1085D02*
X785Y1085D01*
X836Y1085D02*
X885Y1085D01*
X936Y1085D02*
X985Y1085D01*
X1036Y1085D02*
X1085Y1085D01*
X1136Y1085D02*
X1185Y1085D01*
X1236Y1085D02*
X1285Y1085D01*
X1336Y1085D02*
X1385Y1085D01*
X1436Y1085D02*
X1485Y1085D01*
X1536Y1085D02*
X1585Y1085D01*
X1636Y1085D02*
X1685Y1085D01*
X1736Y1085D02*
X1785Y1085D01*
X1836Y1085D02*
X1885Y1085D01*
X637Y1084D02*
X684Y1084D01*
X737Y1084D02*
X784Y1084D01*
X837Y1084D02*
X884Y1084D01*
X937Y1084D02*
X984Y1084D01*
X1037Y1084D02*
X1084Y1084D01*
X1137Y1084D02*
X1184Y1084D01*
X1237Y1084D02*
X1284Y1084D01*
X1337Y1084D02*
X1384Y1084D01*
X1437Y1084D02*
X1484Y1084D01*
X1537Y1084D02*
X1584Y1084D01*
X1637Y1084D02*
X1684Y1084D01*
X1737Y1084D02*
X1784Y1084D01*
X1837Y1084D02*
X1884Y1084D01*
X638Y1083D02*
X683Y1083D01*
X738Y1083D02*
X783Y1083D01*
X838Y1083D02*
X883Y1083D01*
X938Y1083D02*
X983Y1083D01*
X1038Y1083D02*
X1083Y1083D01*
X1138Y1083D02*
X1183Y1083D01*
X1238Y1083D02*
X1283Y1083D01*
X1338Y1083D02*
X1383Y1083D01*
X1438Y1083D02*
X1483Y1083D01*
X1538Y1083D02*
X1583Y1083D01*
X1638Y1083D02*
X1683Y1083D01*
X1738Y1083D02*
X1783Y1083D01*
X1838Y1083D02*
X1883Y1083D01*
X640Y1082D02*
X682Y1082D01*
X740Y1082D02*
X782Y1082D01*
X840Y1082D02*
X882Y1082D01*
X940Y1082D02*
X982Y1082D01*
X1040Y1082D02*
X1082Y1082D01*
X1140Y1082D02*
X1182Y1082D01*
X1240Y1082D02*
X1282Y1082D01*
X1339Y1082D02*
X1382Y1082D01*
X1439Y1082D02*
X1482Y1082D01*
X1539Y1082D02*
X1582Y1082D01*
X1639Y1082D02*
X1682Y1082D01*
X1739Y1082D02*
X1782Y1082D01*
X1839Y1082D02*
X1882Y1082D01*
X641Y1081D02*
X681Y1081D01*
X741Y1081D02*
X781Y1081D01*
X841Y1081D02*
X881Y1081D01*
X941Y1081D02*
X981Y1081D01*
X1041Y1081D02*
X1081Y1081D01*
X1141Y1081D02*
X1181Y1081D01*
X1241Y1081D02*
X1281Y1081D01*
X1341Y1081D02*
X1381Y1081D01*
X1441Y1081D02*
X1481Y1081D01*
X1541Y1081D02*
X1581Y1081D01*
X1641Y1081D02*
X1681Y1081D01*
X1741Y1081D02*
X1781Y1081D01*
X1841Y1081D02*
X1881Y1081D01*
X642Y1080D02*
X679Y1080D01*
X742Y1080D02*
X779Y1080D01*
X842Y1080D02*
X879Y1080D01*
X942Y1080D02*
X979Y1080D01*
X1042Y1080D02*
X1079Y1080D01*
X1142Y1080D02*
X1179Y1080D01*
X1242Y1080D02*
X1279Y1080D01*
X1342Y1080D02*
X1379Y1080D01*
X1442Y1080D02*
X1479Y1080D01*
X1542Y1080D02*
X1579Y1080D01*
X1642Y1080D02*
X1679Y1080D01*
X1742Y1080D02*
X1779Y1080D01*
X1842Y1080D02*
X1879Y1080D01*
X644Y1079D02*
X678Y1079D01*
X744Y1079D02*
X778Y1079D01*
X844Y1079D02*
X878Y1079D01*
X944Y1079D02*
X978Y1079D01*
X1044Y1079D02*
X1078Y1079D01*
X1144Y1079D02*
X1178Y1079D01*
X1244Y1079D02*
X1278Y1079D01*
X1344Y1079D02*
X1378Y1079D01*
X1444Y1079D02*
X1478Y1079D01*
X1544Y1079D02*
X1578Y1079D01*
X1644Y1079D02*
X1678Y1079D01*
X1743Y1079D02*
X1778Y1079D01*
X1843Y1079D02*
X1878Y1079D01*
X645Y1078D02*
X676Y1078D01*
X745Y1078D02*
X776Y1078D01*
X845Y1078D02*
X876Y1078D01*
X945Y1078D02*
X976Y1078D01*
X1045Y1078D02*
X1076Y1078D01*
X1145Y1078D02*
X1176Y1078D01*
X1245Y1078D02*
X1276Y1078D01*
X1345Y1078D02*
X1376Y1078D01*
X1445Y1078D02*
X1476Y1078D01*
X1545Y1078D02*
X1576Y1078D01*
X1645Y1078D02*
X1676Y1078D01*
X1745Y1078D02*
X1776Y1078D01*
X1845Y1078D02*
X1876Y1078D01*
X647Y1077D02*
X674Y1077D01*
X747Y1077D02*
X774Y1077D01*
X847Y1077D02*
X874Y1077D01*
X947Y1077D02*
X974Y1077D01*
X1047Y1077D02*
X1074Y1077D01*
X1147Y1077D02*
X1174Y1077D01*
X1247Y1077D02*
X1274Y1077D01*
X1347Y1077D02*
X1374Y1077D01*
X1447Y1077D02*
X1474Y1077D01*
X1547Y1077D02*
X1574Y1077D01*
X1647Y1077D02*
X1674Y1077D01*
X1747Y1077D02*
X1774Y1077D01*
X1847Y1077D02*
X1874Y1077D01*
X649Y1076D02*
X672Y1076D01*
X749Y1076D02*
X772Y1076D01*
X849Y1076D02*
X872Y1076D01*
X949Y1076D02*
X972Y1076D01*
X1049Y1076D02*
X1072Y1076D01*
X1149Y1076D02*
X1172Y1076D01*
X1249Y1076D02*
X1272Y1076D01*
X1349Y1076D02*
X1372Y1076D01*
X1449Y1076D02*
X1472Y1076D01*
X1549Y1076D02*
X1572Y1076D01*
X1649Y1076D02*
X1672Y1076D01*
X1749Y1076D02*
X1772Y1076D01*
X1849Y1076D02*
X1872Y1076D01*
X652Y1075D02*
X670Y1075D01*
X752Y1075D02*
X770Y1075D01*
X852Y1075D02*
X870Y1075D01*
X952Y1075D02*
X969Y1075D01*
X1052Y1075D02*
X1070Y1075D01*
X1152Y1075D02*
X1169Y1075D01*
X1252Y1075D02*
X1269Y1075D01*
X1352Y1075D02*
X1369Y1075D01*
X1452Y1075D02*
X1469Y1075D01*
X1552Y1075D02*
X1569Y1075D01*
X1652Y1075D02*
X1669Y1075D01*
X1752Y1075D02*
X1769Y1075D01*
X1852Y1075D02*
X1869Y1075D01*
X656Y1074D02*
X666Y1074D01*
X756Y1074D02*
X766Y1074D01*
X856Y1074D02*
X866Y1074D01*
X956Y1074D02*
X965Y1074D01*
X1056Y1074D02*
X1065Y1074D01*
X1156Y1074D02*
X1165Y1074D01*
X1256Y1074D02*
X1265Y1074D01*
X1356Y1074D02*
X1365Y1074D01*
X1456Y1074D02*
X1465Y1074D01*
X1556Y1074D02*
X1565Y1074D01*
X1656Y1074D02*
X1665Y1074D01*
X1756Y1074D02*
X1765Y1074D01*
X1856Y1074D02*
X1865Y1074D01*
X656Y1043D02*
X666Y1043D01*
X756Y1043D02*
X766Y1043D01*
X856Y1043D02*
X866Y1043D01*
X956Y1043D02*
X966Y1043D01*
X1056Y1043D02*
X1066Y1043D01*
X1156Y1043D02*
X1166Y1043D01*
X1256Y1043D02*
X1266Y1043D01*
X1356Y1043D02*
X1366Y1043D01*
X1456Y1043D02*
X1466Y1043D01*
X1556Y1043D02*
X1566Y1043D01*
X1656Y1043D02*
X1666Y1043D01*
X1756Y1043D02*
X1766Y1043D01*
X1856Y1043D02*
X1866Y1043D01*
X652Y1042D02*
X670Y1042D01*
X752Y1042D02*
X770Y1042D01*
X852Y1042D02*
X870Y1042D01*
X952Y1042D02*
X970Y1042D01*
X1052Y1042D02*
X1070Y1042D01*
X1152Y1042D02*
X1170Y1042D01*
X1252Y1042D02*
X1270Y1042D01*
X1352Y1042D02*
X1370Y1042D01*
X1452Y1042D02*
X1470Y1042D01*
X1552Y1042D02*
X1570Y1042D01*
X1652Y1042D02*
X1670Y1042D01*
X1752Y1042D02*
X1770Y1042D01*
X1852Y1042D02*
X1870Y1042D01*
X649Y1041D02*
X672Y1041D01*
X749Y1041D02*
X772Y1041D01*
X849Y1041D02*
X872Y1041D01*
X949Y1041D02*
X972Y1041D01*
X1049Y1041D02*
X1072Y1041D01*
X1149Y1041D02*
X1172Y1041D01*
X1249Y1041D02*
X1272Y1041D01*
X1349Y1041D02*
X1372Y1041D01*
X1449Y1041D02*
X1472Y1041D01*
X1549Y1041D02*
X1572Y1041D01*
X1649Y1041D02*
X1672Y1041D01*
X1749Y1041D02*
X1772Y1041D01*
X1849Y1041D02*
X1872Y1041D01*
X647Y1040D02*
X675Y1040D01*
X747Y1040D02*
X775Y1040D01*
X847Y1040D02*
X875Y1040D01*
X947Y1040D02*
X975Y1040D01*
X1047Y1040D02*
X1075Y1040D01*
X1147Y1040D02*
X1174Y1040D01*
X1247Y1040D02*
X1274Y1040D01*
X1347Y1040D02*
X1374Y1040D01*
X1447Y1040D02*
X1474Y1040D01*
X1547Y1040D02*
X1574Y1040D01*
X1647Y1040D02*
X1674Y1040D01*
X1747Y1040D02*
X1774Y1040D01*
X1847Y1040D02*
X1874Y1040D01*
X645Y1039D02*
X676Y1039D01*
X745Y1039D02*
X776Y1039D01*
X845Y1039D02*
X876Y1039D01*
X945Y1039D02*
X976Y1039D01*
X1045Y1039D02*
X1076Y1039D01*
X1145Y1039D02*
X1176Y1039D01*
X1245Y1039D02*
X1276Y1039D01*
X1345Y1039D02*
X1376Y1039D01*
X1445Y1039D02*
X1476Y1039D01*
X1545Y1039D02*
X1576Y1039D01*
X1645Y1039D02*
X1676Y1039D01*
X1745Y1039D02*
X1776Y1039D01*
X1845Y1039D02*
X1876Y1039D01*
X644Y1038D02*
X678Y1038D01*
X744Y1038D02*
X778Y1038D01*
X844Y1038D02*
X878Y1038D01*
X944Y1038D02*
X978Y1038D01*
X1044Y1038D02*
X1078Y1038D01*
X1143Y1038D02*
X1178Y1038D01*
X1243Y1038D02*
X1278Y1038D01*
X1343Y1038D02*
X1378Y1038D01*
X1443Y1038D02*
X1478Y1038D01*
X1543Y1038D02*
X1578Y1038D01*
X1643Y1038D02*
X1678Y1038D01*
X1743Y1038D02*
X1778Y1038D01*
X1843Y1038D02*
X1878Y1038D01*
X642Y1037D02*
X680Y1037D01*
X742Y1037D02*
X780Y1037D01*
X842Y1037D02*
X880Y1037D01*
X942Y1037D02*
X979Y1037D01*
X1042Y1037D02*
X1079Y1037D01*
X1142Y1037D02*
X1179Y1037D01*
X1242Y1037D02*
X1279Y1037D01*
X1342Y1037D02*
X1379Y1037D01*
X1442Y1037D02*
X1479Y1037D01*
X1542Y1037D02*
X1579Y1037D01*
X1642Y1037D02*
X1679Y1037D01*
X1742Y1037D02*
X1779Y1037D01*
X1842Y1037D02*
X1879Y1037D01*
X641Y1036D02*
X681Y1036D01*
X741Y1036D02*
X781Y1036D01*
X841Y1036D02*
X881Y1036D01*
X941Y1036D02*
X981Y1036D01*
X1041Y1036D02*
X1081Y1036D01*
X1141Y1036D02*
X1181Y1036D01*
X1241Y1036D02*
X1281Y1036D01*
X1341Y1036D02*
X1381Y1036D01*
X1441Y1036D02*
X1481Y1036D01*
X1541Y1036D02*
X1581Y1036D01*
X1641Y1036D02*
X1681Y1036D01*
X1741Y1036D02*
X1781Y1036D01*
X1841Y1036D02*
X1881Y1036D01*
X640Y1035D02*
X682Y1035D01*
X740Y1035D02*
X782Y1035D01*
X840Y1035D02*
X882Y1035D01*
X939Y1035D02*
X982Y1035D01*
X1039Y1035D02*
X1082Y1035D01*
X1139Y1035D02*
X1182Y1035D01*
X1239Y1035D02*
X1282Y1035D01*
X1339Y1035D02*
X1382Y1035D01*
X1439Y1035D02*
X1482Y1035D01*
X1539Y1035D02*
X1582Y1035D01*
X1639Y1035D02*
X1682Y1035D01*
X1739Y1035D02*
X1782Y1035D01*
X1839Y1035D02*
X1882Y1035D01*
X638Y1034D02*
X683Y1034D01*
X738Y1034D02*
X783Y1034D01*
X838Y1034D02*
X883Y1034D01*
X938Y1034D02*
X983Y1034D01*
X1038Y1034D02*
X1083Y1034D01*
X1138Y1034D02*
X1183Y1034D01*
X1238Y1034D02*
X1283Y1034D01*
X1338Y1034D02*
X1383Y1034D01*
X1438Y1034D02*
X1483Y1034D01*
X1538Y1034D02*
X1583Y1034D01*
X1638Y1034D02*
X1683Y1034D01*
X1738Y1034D02*
X1783Y1034D01*
X1838Y1034D02*
X1883Y1034D01*
X637Y1033D02*
X684Y1033D01*
X737Y1033D02*
X784Y1033D01*
X837Y1033D02*
X884Y1033D01*
X937Y1033D02*
X984Y1033D01*
X1037Y1033D02*
X1084Y1033D01*
X1137Y1033D02*
X1184Y1033D01*
X1237Y1033D02*
X1284Y1033D01*
X1337Y1033D02*
X1384Y1033D01*
X1437Y1033D02*
X1484Y1033D01*
X1537Y1033D02*
X1584Y1033D01*
X1637Y1033D02*
X1684Y1033D01*
X1737Y1033D02*
X1784Y1033D01*
X1837Y1033D02*
X1884Y1033D01*
X636Y1032D02*
X685Y1032D01*
X736Y1032D02*
X785Y1032D01*
X836Y1032D02*
X885Y1032D01*
X936Y1032D02*
X985Y1032D01*
X1036Y1032D02*
X1085Y1032D01*
X1136Y1032D02*
X1185Y1032D01*
X1236Y1032D02*
X1285Y1032D01*
X1336Y1032D02*
X1385Y1032D01*
X1436Y1032D02*
X1485Y1032D01*
X1536Y1032D02*
X1585Y1032D01*
X1636Y1032D02*
X1685Y1032D01*
X1736Y1032D02*
X1785Y1032D01*
X1836Y1032D02*
X1885Y1032D01*
X635Y1031D02*
X686Y1031D01*
X735Y1031D02*
X786Y1031D01*
X835Y1031D02*
X886Y1031D01*
X935Y1031D02*
X986Y1031D01*
X1035Y1031D02*
X1086Y1031D01*
X1135Y1031D02*
X1186Y1031D01*
X1235Y1031D02*
X1286Y1031D01*
X1335Y1031D02*
X1386Y1031D01*
X1435Y1031D02*
X1486Y1031D01*
X1535Y1031D02*
X1586Y1031D01*
X1635Y1031D02*
X1686Y1031D01*
X1735Y1031D02*
X1786Y1031D01*
X1835Y1031D02*
X1886Y1031D01*
X635Y1030D02*
X687Y1030D01*
X735Y1030D02*
X787Y1030D01*
X835Y1030D02*
X887Y1030D01*
X935Y1030D02*
X987Y1030D01*
X1035Y1030D02*
X1087Y1030D01*
X1135Y1030D02*
X1187Y1030D01*
X1234Y1030D02*
X1287Y1030D01*
X1334Y1030D02*
X1387Y1030D01*
X1434Y1030D02*
X1487Y1030D01*
X1534Y1030D02*
X1587Y1030D01*
X1634Y1030D02*
X1687Y1030D01*
X1734Y1030D02*
X1787Y1030D01*
X1834Y1030D02*
X1887Y1030D01*
X634Y1029D02*
X688Y1029D01*
X734Y1029D02*
X788Y1029D01*
X834Y1029D02*
X888Y1029D01*
X934Y1029D02*
X988Y1029D01*
X1034Y1029D02*
X1088Y1029D01*
X1134Y1029D02*
X1188Y1029D01*
X1234Y1029D02*
X1288Y1029D01*
X1334Y1029D02*
X1388Y1029D01*
X1434Y1029D02*
X1488Y1029D01*
X1534Y1029D02*
X1588Y1029D01*
X1634Y1029D02*
X1688Y1029D01*
X1734Y1029D02*
X1788Y1029D01*
X1834Y1029D02*
X1888Y1029D01*
X633Y1028D02*
X689Y1028D01*
X733Y1028D02*
X789Y1028D01*
X833Y1028D02*
X889Y1028D01*
X933Y1028D02*
X989Y1028D01*
X1033Y1028D02*
X1089Y1028D01*
X1133Y1028D02*
X1189Y1028D01*
X1233Y1028D02*
X1289Y1028D01*
X1333Y1028D02*
X1389Y1028D01*
X1433Y1028D02*
X1489Y1028D01*
X1533Y1028D02*
X1588Y1028D01*
X1633Y1028D02*
X1688Y1028D01*
X1733Y1028D02*
X1788Y1028D01*
X1833Y1028D02*
X1888Y1028D01*
X632Y1027D02*
X689Y1027D01*
X732Y1027D02*
X789Y1027D01*
X832Y1027D02*
X889Y1027D01*
X932Y1027D02*
X989Y1027D01*
X1032Y1027D02*
X1089Y1027D01*
X1132Y1027D02*
X1189Y1027D01*
X1232Y1027D02*
X1289Y1027D01*
X1332Y1027D02*
X1389Y1027D01*
X1432Y1027D02*
X1489Y1027D01*
X1532Y1027D02*
X1589Y1027D01*
X1632Y1027D02*
X1689Y1027D01*
X1732Y1027D02*
X1789Y1027D01*
X1832Y1027D02*
X1889Y1027D01*
X632Y1026D02*
X690Y1026D01*
X732Y1026D02*
X790Y1026D01*
X832Y1026D02*
X890Y1026D01*
X932Y1026D02*
X990Y1026D01*
X1032Y1026D02*
X1090Y1026D01*
X1132Y1026D02*
X1190Y1026D01*
X1232Y1026D02*
X1290Y1026D01*
X1332Y1026D02*
X1390Y1026D01*
X1432Y1026D02*
X1490Y1026D01*
X1532Y1026D02*
X1590Y1026D01*
X1632Y1026D02*
X1690Y1026D01*
X1732Y1026D02*
X1790Y1026D01*
X1832Y1026D02*
X1890Y1026D01*
X631Y1025D02*
X691Y1025D01*
X731Y1025D02*
X791Y1025D01*
X831Y1025D02*
X891Y1025D01*
X931Y1025D02*
X991Y1025D01*
X1031Y1025D02*
X1091Y1025D01*
X1131Y1025D02*
X1191Y1025D01*
X1231Y1025D02*
X1290Y1025D01*
X1331Y1025D02*
X1390Y1025D01*
X1431Y1025D02*
X1490Y1025D01*
X1531Y1025D02*
X1590Y1025D01*
X1631Y1025D02*
X1690Y1025D01*
X1731Y1025D02*
X1790Y1025D01*
X1831Y1025D02*
X1890Y1025D01*
X630Y1024D02*
X691Y1024D01*
X730Y1024D02*
X791Y1024D01*
X830Y1024D02*
X891Y1024D01*
X930Y1024D02*
X991Y1024D01*
X1030Y1024D02*
X1091Y1024D01*
X1130Y1024D02*
X1191Y1024D01*
X1230Y1024D02*
X1291Y1024D01*
X1330Y1024D02*
X1391Y1024D01*
X1430Y1024D02*
X1491Y1024D01*
X1530Y1024D02*
X1591Y1024D01*
X1630Y1024D02*
X1691Y1024D01*
X1730Y1024D02*
X1791Y1024D01*
X1830Y1024D02*
X1891Y1024D01*
X630Y1023D02*
X655Y1023D01*
X666Y1023D02*
X692Y1023D01*
X730Y1023D02*
X755Y1023D01*
X766Y1023D02*
X792Y1023D01*
X830Y1023D02*
X855Y1023D01*
X866Y1023D02*
X892Y1023D01*
X930Y1023D02*
X955Y1023D01*
X966Y1023D02*
X992Y1023D01*
X1030Y1023D02*
X1055Y1023D01*
X1066Y1023D02*
X1092Y1023D01*
X1130Y1023D02*
X1155Y1023D01*
X1166Y1023D02*
X1192Y1023D01*
X1230Y1023D02*
X1255Y1023D01*
X1266Y1023D02*
X1292Y1023D01*
X1330Y1023D02*
X1355Y1023D01*
X1366Y1023D02*
X1392Y1023D01*
X1430Y1023D02*
X1455Y1023D01*
X1466Y1023D02*
X1492Y1023D01*
X1530Y1023D02*
X1555Y1023D01*
X1566Y1023D02*
X1592Y1023D01*
X1630Y1023D02*
X1655Y1023D01*
X1666Y1023D02*
X1692Y1023D01*
X1730Y1023D02*
X1755Y1023D01*
X1766Y1023D02*
X1792Y1023D01*
X1830Y1023D02*
X1855Y1023D01*
X1866Y1023D02*
X1892Y1023D01*
X629Y1022D02*
X653Y1022D01*
X669Y1022D02*
X692Y1022D01*
X729Y1022D02*
X753Y1022D01*
X769Y1022D02*
X792Y1022D01*
X829Y1022D02*
X853Y1022D01*
X869Y1022D02*
X892Y1022D01*
X929Y1022D02*
X953Y1022D01*
X969Y1022D02*
X992Y1022D01*
X1029Y1022D02*
X1053Y1022D01*
X1069Y1022D02*
X1092Y1022D01*
X1129Y1022D02*
X1153Y1022D01*
X1169Y1022D02*
X1192Y1022D01*
X1229Y1022D02*
X1252Y1022D01*
X1269Y1022D02*
X1292Y1022D01*
X1329Y1022D02*
X1352Y1022D01*
X1369Y1022D02*
X1392Y1022D01*
X1429Y1022D02*
X1452Y1022D01*
X1469Y1022D02*
X1492Y1022D01*
X1529Y1022D02*
X1552Y1022D01*
X1569Y1022D02*
X1592Y1022D01*
X1629Y1022D02*
X1652Y1022D01*
X1669Y1022D02*
X1692Y1022D01*
X1729Y1022D02*
X1752Y1022D01*
X1769Y1022D02*
X1792Y1022D01*
X1829Y1022D02*
X1852Y1022D01*
X1869Y1022D02*
X1892Y1022D01*
X629Y1021D02*
X651Y1021D01*
X671Y1021D02*
X693Y1021D01*
X729Y1021D02*
X751Y1021D01*
X771Y1021D02*
X793Y1021D01*
X829Y1021D02*
X851Y1021D01*
X871Y1021D02*
X893Y1021D01*
X929Y1021D02*
X951Y1021D01*
X971Y1021D02*
X993Y1021D01*
X1029Y1021D02*
X1051Y1021D01*
X1071Y1021D02*
X1093Y1021D01*
X1129Y1021D02*
X1151Y1021D01*
X1171Y1021D02*
X1193Y1021D01*
X1229Y1021D02*
X1251Y1021D01*
X1271Y1021D02*
X1293Y1021D01*
X1329Y1021D02*
X1351Y1021D01*
X1371Y1021D02*
X1393Y1021D01*
X1429Y1021D02*
X1451Y1021D01*
X1471Y1021D02*
X1493Y1021D01*
X1529Y1021D02*
X1551Y1021D01*
X1571Y1021D02*
X1593Y1021D01*
X1629Y1021D02*
X1651Y1021D01*
X1671Y1021D02*
X1692Y1021D01*
X1729Y1021D02*
X1751Y1021D01*
X1771Y1021D02*
X1792Y1021D01*
X1829Y1021D02*
X1851Y1021D01*
X1871Y1021D02*
X1892Y1021D01*
X629Y1020D02*
X650Y1020D01*
X672Y1020D02*
X693Y1020D01*
X729Y1020D02*
X750Y1020D01*
X772Y1020D02*
X793Y1020D01*
X829Y1020D02*
X850Y1020D01*
X872Y1020D02*
X893Y1020D01*
X929Y1020D02*
X950Y1020D01*
X972Y1020D02*
X993Y1020D01*
X1029Y1020D02*
X1050Y1020D01*
X1072Y1020D02*
X1093Y1020D01*
X1129Y1020D02*
X1150Y1020D01*
X1172Y1020D02*
X1193Y1020D01*
X1229Y1020D02*
X1249Y1020D01*
X1272Y1020D02*
X1293Y1020D01*
X1328Y1020D02*
X1349Y1020D01*
X1372Y1020D02*
X1393Y1020D01*
X1428Y1020D02*
X1449Y1020D01*
X1472Y1020D02*
X1493Y1020D01*
X1528Y1020D02*
X1549Y1020D01*
X1572Y1020D02*
X1593Y1020D01*
X1628Y1020D02*
X1649Y1020D01*
X1672Y1020D02*
X1693Y1020D01*
X1728Y1020D02*
X1749Y1020D01*
X1772Y1020D02*
X1793Y1020D01*
X1828Y1020D02*
X1849Y1020D01*
X1872Y1020D02*
X1893Y1020D01*
X628Y1019D02*
X649Y1019D01*
X673Y1019D02*
X693Y1019D01*
X728Y1019D02*
X749Y1019D01*
X773Y1019D02*
X793Y1019D01*
X828Y1019D02*
X849Y1019D01*
X873Y1019D02*
X893Y1019D01*
X928Y1019D02*
X949Y1019D01*
X973Y1019D02*
X993Y1019D01*
X1028Y1019D02*
X1049Y1019D01*
X1073Y1019D02*
X1093Y1019D01*
X1128Y1019D02*
X1149Y1019D01*
X1173Y1019D02*
X1193Y1019D01*
X1228Y1019D02*
X1249Y1019D01*
X1273Y1019D02*
X1293Y1019D01*
X1328Y1019D02*
X1349Y1019D01*
X1373Y1019D02*
X1393Y1019D01*
X1428Y1019D02*
X1448Y1019D01*
X1473Y1019D02*
X1493Y1019D01*
X1528Y1019D02*
X1548Y1019D01*
X1573Y1019D02*
X1593Y1019D01*
X1628Y1019D02*
X1648Y1019D01*
X1673Y1019D02*
X1693Y1019D01*
X1728Y1019D02*
X1748Y1019D01*
X1773Y1019D02*
X1793Y1019D01*
X1828Y1019D02*
X1848Y1019D01*
X1873Y1019D02*
X1893Y1019D01*
X628Y1018D02*
X648Y1018D01*
X674Y1018D02*
X694Y1018D01*
X728Y1018D02*
X748Y1018D01*
X774Y1018D02*
X794Y1018D01*
X828Y1018D02*
X848Y1018D01*
X874Y1018D02*
X894Y1018D01*
X928Y1018D02*
X948Y1018D01*
X974Y1018D02*
X994Y1018D01*
X1028Y1018D02*
X1048Y1018D01*
X1074Y1018D02*
X1094Y1018D01*
X1128Y1018D02*
X1148Y1018D01*
X1174Y1018D02*
X1194Y1018D01*
X1228Y1018D02*
X1248Y1018D01*
X1274Y1018D02*
X1294Y1018D01*
X1328Y1018D02*
X1348Y1018D01*
X1374Y1018D02*
X1394Y1018D01*
X1428Y1018D02*
X1448Y1018D01*
X1474Y1018D02*
X1494Y1018D01*
X1528Y1018D02*
X1548Y1018D01*
X1574Y1018D02*
X1594Y1018D01*
X1628Y1018D02*
X1648Y1018D01*
X1674Y1018D02*
X1694Y1018D01*
X1728Y1018D02*
X1748Y1018D01*
X1774Y1018D02*
X1794Y1018D01*
X1828Y1018D02*
X1848Y1018D01*
X1874Y1018D02*
X1894Y1018D01*
X628Y1017D02*
X647Y1017D01*
X674Y1017D02*
X694Y1017D01*
X728Y1017D02*
X747Y1017D01*
X774Y1017D02*
X794Y1017D01*
X828Y1017D02*
X847Y1017D01*
X874Y1017D02*
X894Y1017D01*
X928Y1017D02*
X947Y1017D01*
X974Y1017D02*
X994Y1017D01*
X1028Y1017D02*
X1047Y1017D01*
X1074Y1017D02*
X1094Y1017D01*
X1127Y1017D02*
X1147Y1017D01*
X1174Y1017D02*
X1194Y1017D01*
X1227Y1017D02*
X1247Y1017D01*
X1274Y1017D02*
X1294Y1017D01*
X1327Y1017D02*
X1347Y1017D01*
X1374Y1017D02*
X1394Y1017D01*
X1427Y1017D02*
X1447Y1017D01*
X1474Y1017D02*
X1494Y1017D01*
X1527Y1017D02*
X1547Y1017D01*
X1574Y1017D02*
X1594Y1017D01*
X1627Y1017D02*
X1647Y1017D01*
X1674Y1017D02*
X1694Y1017D01*
X1727Y1017D02*
X1747Y1017D01*
X1774Y1017D02*
X1794Y1017D01*
X1827Y1017D02*
X1847Y1017D01*
X1874Y1017D02*
X1894Y1017D01*
X627Y1016D02*
X647Y1016D01*
X675Y1016D02*
X694Y1016D01*
X727Y1016D02*
X747Y1016D01*
X775Y1016D02*
X794Y1016D01*
X827Y1016D02*
X847Y1016D01*
X875Y1016D02*
X894Y1016D01*
X927Y1016D02*
X947Y1016D01*
X975Y1016D02*
X994Y1016D01*
X1027Y1016D02*
X1047Y1016D01*
X1075Y1016D02*
X1094Y1016D01*
X1127Y1016D02*
X1147Y1016D01*
X1175Y1016D02*
X1194Y1016D01*
X1227Y1016D02*
X1247Y1016D01*
X1275Y1016D02*
X1294Y1016D01*
X1327Y1016D02*
X1347Y1016D01*
X1375Y1016D02*
X1394Y1016D01*
X1427Y1016D02*
X1447Y1016D01*
X1475Y1016D02*
X1494Y1016D01*
X1527Y1016D02*
X1547Y1016D01*
X1575Y1016D02*
X1594Y1016D01*
X1627Y1016D02*
X1647Y1016D01*
X1675Y1016D02*
X1694Y1016D01*
X1727Y1016D02*
X1747Y1016D01*
X1775Y1016D02*
X1794Y1016D01*
X1827Y1016D02*
X1847Y1016D01*
X1875Y1016D02*
X1894Y1016D01*
X627Y1015D02*
X646Y1015D01*
X675Y1015D02*
X695Y1015D01*
X727Y1015D02*
X746Y1015D01*
X775Y1015D02*
X795Y1015D01*
X827Y1015D02*
X846Y1015D01*
X875Y1015D02*
X895Y1015D01*
X927Y1015D02*
X946Y1015D01*
X975Y1015D02*
X995Y1015D01*
X1027Y1015D02*
X1046Y1015D01*
X1075Y1015D02*
X1095Y1015D01*
X1127Y1015D02*
X1146Y1015D01*
X1175Y1015D02*
X1195Y1015D01*
X1227Y1015D02*
X1246Y1015D01*
X1275Y1015D02*
X1295Y1015D01*
X1327Y1015D02*
X1346Y1015D01*
X1375Y1015D02*
X1394Y1015D01*
X1427Y1015D02*
X1446Y1015D01*
X1475Y1015D02*
X1494Y1015D01*
X1527Y1015D02*
X1546Y1015D01*
X1575Y1015D02*
X1594Y1015D01*
X1627Y1015D02*
X1646Y1015D01*
X1675Y1015D02*
X1694Y1015D01*
X1727Y1015D02*
X1746Y1015D01*
X1775Y1015D02*
X1794Y1015D01*
X1827Y1015D02*
X1846Y1015D01*
X1875Y1015D02*
X1894Y1015D01*
X627Y1014D02*
X646Y1014D01*
X676Y1014D02*
X695Y1014D01*
X727Y1014D02*
X746Y1014D01*
X776Y1014D02*
X795Y1014D01*
X827Y1014D02*
X846Y1014D01*
X876Y1014D02*
X895Y1014D01*
X927Y1014D02*
X946Y1014D01*
X976Y1014D02*
X995Y1014D01*
X1027Y1014D02*
X1046Y1014D01*
X1076Y1014D02*
X1095Y1014D01*
X1127Y1014D02*
X1146Y1014D01*
X1176Y1014D02*
X1195Y1014D01*
X1227Y1014D02*
X1246Y1014D01*
X1276Y1014D02*
X1295Y1014D01*
X1327Y1014D02*
X1346Y1014D01*
X1376Y1014D02*
X1395Y1014D01*
X1427Y1014D02*
X1446Y1014D01*
X1476Y1014D02*
X1495Y1014D01*
X1527Y1014D02*
X1546Y1014D01*
X1575Y1014D02*
X1595Y1014D01*
X1627Y1014D02*
X1646Y1014D01*
X1675Y1014D02*
X1695Y1014D01*
X1727Y1014D02*
X1746Y1014D01*
X1775Y1014D02*
X1795Y1014D01*
X1827Y1014D02*
X1846Y1014D01*
X1875Y1014D02*
X1895Y1014D01*
X627Y1013D02*
X646Y1013D01*
X676Y1013D02*
X695Y1013D01*
X727Y1013D02*
X746Y1013D01*
X776Y1013D02*
X795Y1013D01*
X827Y1013D02*
X846Y1013D01*
X876Y1013D02*
X895Y1013D01*
X927Y1013D02*
X946Y1013D01*
X976Y1013D02*
X995Y1013D01*
X1027Y1013D02*
X1046Y1013D01*
X1076Y1013D02*
X1095Y1013D01*
X1127Y1013D02*
X1146Y1013D01*
X1176Y1013D02*
X1195Y1013D01*
X1227Y1013D02*
X1246Y1013D01*
X1276Y1013D02*
X1295Y1013D01*
X1327Y1013D02*
X1346Y1013D01*
X1376Y1013D02*
X1395Y1013D01*
X1427Y1013D02*
X1446Y1013D01*
X1476Y1013D02*
X1495Y1013D01*
X1527Y1013D02*
X1546Y1013D01*
X1576Y1013D02*
X1595Y1013D01*
X1627Y1013D02*
X1646Y1013D01*
X1676Y1013D02*
X1695Y1013D01*
X1727Y1013D02*
X1746Y1013D01*
X1776Y1013D02*
X1795Y1013D01*
X1827Y1013D02*
X1846Y1013D01*
X1876Y1013D02*
X1895Y1013D01*
X627Y1012D02*
X646Y1012D01*
X676Y1012D02*
X695Y1012D01*
X727Y1012D02*
X746Y1012D01*
X776Y1012D02*
X795Y1012D01*
X827Y1012D02*
X846Y1012D01*
X876Y1012D02*
X895Y1012D01*
X927Y1012D02*
X946Y1012D01*
X976Y1012D02*
X995Y1012D01*
X1026Y1012D02*
X1046Y1012D01*
X1076Y1012D02*
X1095Y1012D01*
X1126Y1012D02*
X1146Y1012D01*
X1176Y1012D02*
X1195Y1012D01*
X1226Y1012D02*
X1246Y1012D01*
X1276Y1012D02*
X1295Y1012D01*
X1326Y1012D02*
X1345Y1012D01*
X1376Y1012D02*
X1395Y1012D01*
X1426Y1012D02*
X1445Y1012D01*
X1476Y1012D02*
X1495Y1012D01*
X1526Y1012D02*
X1545Y1012D01*
X1576Y1012D02*
X1595Y1012D01*
X1626Y1012D02*
X1645Y1012D01*
X1676Y1012D02*
X1695Y1012D01*
X1726Y1012D02*
X1745Y1012D01*
X1776Y1012D02*
X1795Y1012D01*
X1826Y1012D02*
X1845Y1012D01*
X1876Y1012D02*
X1895Y1012D01*
X626Y1011D02*
X645Y1011D01*
X676Y1011D02*
X695Y1011D01*
X726Y1011D02*
X745Y1011D01*
X776Y1011D02*
X795Y1011D01*
X826Y1011D02*
X845Y1011D01*
X876Y1011D02*
X895Y1011D01*
X926Y1011D02*
X945Y1011D01*
X976Y1011D02*
X995Y1011D01*
X1026Y1011D02*
X1045Y1011D01*
X1076Y1011D02*
X1095Y1011D01*
X1126Y1011D02*
X1145Y1011D01*
X1176Y1011D02*
X1195Y1011D01*
X1226Y1011D02*
X1245Y1011D01*
X1276Y1011D02*
X1295Y1011D01*
X1326Y1011D02*
X1345Y1011D01*
X1376Y1011D02*
X1395Y1011D01*
X1426Y1011D02*
X1445Y1011D01*
X1476Y1011D02*
X1495Y1011D01*
X1526Y1011D02*
X1545Y1011D01*
X1576Y1011D02*
X1595Y1011D01*
X1626Y1011D02*
X1645Y1011D01*
X1676Y1011D02*
X1695Y1011D01*
X1726Y1011D02*
X1745Y1011D01*
X1776Y1011D02*
X1795Y1011D01*
X1826Y1011D02*
X1845Y1011D01*
X1876Y1011D02*
X1895Y1011D01*
X626Y1010D02*
X645Y1010D01*
X676Y1010D02*
X695Y1010D01*
X726Y1010D02*
X745Y1010D01*
X776Y1010D02*
X795Y1010D01*
X826Y1010D02*
X845Y1010D01*
X876Y1010D02*
X895Y1010D01*
X926Y1010D02*
X945Y1010D01*
X976Y1010D02*
X995Y1010D01*
X1026Y1010D02*
X1045Y1010D01*
X1076Y1010D02*
X1095Y1010D01*
X1126Y1010D02*
X1145Y1010D01*
X1176Y1010D02*
X1195Y1010D01*
X1226Y1010D02*
X1245Y1010D01*
X1276Y1010D02*
X1295Y1010D01*
X1326Y1010D02*
X1345Y1010D01*
X1376Y1010D02*
X1395Y1010D01*
X1426Y1010D02*
X1445Y1010D01*
X1476Y1010D02*
X1495Y1010D01*
X1526Y1010D02*
X1545Y1010D01*
X1576Y1010D02*
X1595Y1010D01*
X1626Y1010D02*
X1645Y1010D01*
X1676Y1010D02*
X1695Y1010D01*
X1726Y1010D02*
X1745Y1010D01*
X1776Y1010D02*
X1795Y1010D01*
X1826Y1010D02*
X1845Y1010D01*
X1876Y1010D02*
X1895Y1010D01*
X626Y1009D02*
X645Y1009D01*
X676Y1009D02*
X695Y1009D01*
X726Y1009D02*
X745Y1009D01*
X776Y1009D02*
X795Y1009D01*
X826Y1009D02*
X845Y1009D01*
X876Y1009D02*
X895Y1009D01*
X926Y1009D02*
X945Y1009D01*
X976Y1009D02*
X995Y1009D01*
X1026Y1009D02*
X1045Y1009D01*
X1076Y1009D02*
X1095Y1009D01*
X1126Y1009D02*
X1145Y1009D01*
X1176Y1009D02*
X1195Y1009D01*
X1226Y1009D02*
X1245Y1009D01*
X1276Y1009D02*
X1295Y1009D01*
X1326Y1009D02*
X1345Y1009D01*
X1376Y1009D02*
X1395Y1009D01*
X1426Y1009D02*
X1445Y1009D01*
X1476Y1009D02*
X1495Y1009D01*
X1526Y1009D02*
X1545Y1009D01*
X1576Y1009D02*
X1595Y1009D01*
X1626Y1009D02*
X1645Y1009D01*
X1676Y1009D02*
X1695Y1009D01*
X1726Y1009D02*
X1745Y1009D01*
X1776Y1009D02*
X1795Y1009D01*
X1826Y1009D02*
X1845Y1009D01*
X1876Y1009D02*
X1895Y1009D01*
X626Y1008D02*
X645Y1008D01*
X676Y1008D02*
X695Y1008D01*
X726Y1008D02*
X745Y1008D01*
X776Y1008D02*
X795Y1008D01*
X826Y1008D02*
X845Y1008D01*
X876Y1008D02*
X895Y1008D01*
X926Y1008D02*
X945Y1008D01*
X976Y1008D02*
X995Y1008D01*
X1026Y1008D02*
X1045Y1008D01*
X1076Y1008D02*
X1095Y1008D01*
X1126Y1008D02*
X1145Y1008D01*
X1176Y1008D02*
X1195Y1008D01*
X1226Y1008D02*
X1245Y1008D01*
X1276Y1008D02*
X1295Y1008D01*
X1326Y1008D02*
X1345Y1008D01*
X1376Y1008D02*
X1395Y1008D01*
X1426Y1008D02*
X1445Y1008D01*
X1476Y1008D02*
X1495Y1008D01*
X1526Y1008D02*
X1545Y1008D01*
X1576Y1008D02*
X1595Y1008D01*
X1626Y1008D02*
X1645Y1008D01*
X1676Y1008D02*
X1695Y1008D01*
X1726Y1008D02*
X1745Y1008D01*
X1776Y1008D02*
X1795Y1008D01*
X1826Y1008D02*
X1845Y1008D01*
X1876Y1008D02*
X1895Y1008D01*
X626Y1007D02*
X645Y1007D01*
X676Y1007D02*
X695Y1007D01*
X726Y1007D02*
X745Y1007D01*
X776Y1007D02*
X795Y1007D01*
X826Y1007D02*
X845Y1007D01*
X876Y1007D02*
X895Y1007D01*
X926Y1007D02*
X945Y1007D01*
X976Y1007D02*
X995Y1007D01*
X1026Y1007D02*
X1045Y1007D01*
X1076Y1007D02*
X1095Y1007D01*
X1126Y1007D02*
X1145Y1007D01*
X1176Y1007D02*
X1195Y1007D01*
X1226Y1007D02*
X1245Y1007D01*
X1276Y1007D02*
X1295Y1007D01*
X1326Y1007D02*
X1345Y1007D01*
X1376Y1007D02*
X1395Y1007D01*
X1426Y1007D02*
X1445Y1007D01*
X1476Y1007D02*
X1495Y1007D01*
X1526Y1007D02*
X1545Y1007D01*
X1576Y1007D02*
X1595Y1007D01*
X1626Y1007D02*
X1645Y1007D01*
X1676Y1007D02*
X1695Y1007D01*
X1726Y1007D02*
X1745Y1007D01*
X1776Y1007D02*
X1795Y1007D01*
X1826Y1007D02*
X1845Y1007D01*
X1876Y1007D02*
X1895Y1007D01*
X626Y1006D02*
X645Y1006D01*
X676Y1006D02*
X695Y1006D01*
X726Y1006D02*
X745Y1006D01*
X776Y1006D02*
X795Y1006D01*
X826Y1006D02*
X845Y1006D01*
X876Y1006D02*
X895Y1006D01*
X926Y1006D02*
X945Y1006D01*
X976Y1006D02*
X995Y1006D01*
X1026Y1006D02*
X1045Y1006D01*
X1076Y1006D02*
X1095Y1006D01*
X1126Y1006D02*
X1145Y1006D01*
X1176Y1006D02*
X1195Y1006D01*
X1226Y1006D02*
X1245Y1006D01*
X1276Y1006D02*
X1295Y1006D01*
X1326Y1006D02*
X1345Y1006D01*
X1376Y1006D02*
X1395Y1006D01*
X1426Y1006D02*
X1445Y1006D01*
X1476Y1006D02*
X1495Y1006D01*
X1526Y1006D02*
X1545Y1006D01*
X1576Y1006D02*
X1595Y1006D01*
X1626Y1006D02*
X1645Y1006D01*
X1676Y1006D02*
X1695Y1006D01*
X1726Y1006D02*
X1745Y1006D01*
X1776Y1006D02*
X1795Y1006D01*
X1826Y1006D02*
X1845Y1006D01*
X1876Y1006D02*
X1895Y1006D01*
X627Y1005D02*
X646Y1005D01*
X676Y1005D02*
X695Y1005D01*
X727Y1005D02*
X746Y1005D01*
X776Y1005D02*
X795Y1005D01*
X827Y1005D02*
X846Y1005D01*
X876Y1005D02*
X895Y1005D01*
X927Y1005D02*
X946Y1005D01*
X976Y1005D02*
X995Y1005D01*
X1026Y1005D02*
X1046Y1005D01*
X1076Y1005D02*
X1095Y1005D01*
X1126Y1005D02*
X1146Y1005D01*
X1176Y1005D02*
X1195Y1005D01*
X1226Y1005D02*
X1246Y1005D01*
X1276Y1005D02*
X1295Y1005D01*
X1326Y1005D02*
X1346Y1005D01*
X1376Y1005D02*
X1395Y1005D01*
X1426Y1005D02*
X1445Y1005D01*
X1476Y1005D02*
X1495Y1005D01*
X1526Y1005D02*
X1545Y1005D01*
X1576Y1005D02*
X1595Y1005D01*
X1626Y1005D02*
X1645Y1005D01*
X1676Y1005D02*
X1695Y1005D01*
X1726Y1005D02*
X1745Y1005D01*
X1776Y1005D02*
X1795Y1005D01*
X1826Y1005D02*
X1845Y1005D01*
X1876Y1005D02*
X1895Y1005D01*
X627Y1004D02*
X646Y1004D01*
X676Y1004D02*
X695Y1004D01*
X727Y1004D02*
X746Y1004D01*
X776Y1004D02*
X795Y1004D01*
X827Y1004D02*
X846Y1004D01*
X876Y1004D02*
X895Y1004D01*
X927Y1004D02*
X946Y1004D01*
X976Y1004D02*
X995Y1004D01*
X1027Y1004D02*
X1046Y1004D01*
X1076Y1004D02*
X1095Y1004D01*
X1127Y1004D02*
X1146Y1004D01*
X1176Y1004D02*
X1195Y1004D01*
X1227Y1004D02*
X1246Y1004D01*
X1276Y1004D02*
X1295Y1004D01*
X1327Y1004D02*
X1346Y1004D01*
X1376Y1004D02*
X1395Y1004D01*
X1427Y1004D02*
X1446Y1004D01*
X1476Y1004D02*
X1495Y1004D01*
X1527Y1004D02*
X1546Y1004D01*
X1576Y1004D02*
X1595Y1004D01*
X1627Y1004D02*
X1646Y1004D01*
X1676Y1004D02*
X1695Y1004D01*
X1727Y1004D02*
X1746Y1004D01*
X1776Y1004D02*
X1795Y1004D01*
X1827Y1004D02*
X1846Y1004D01*
X1876Y1004D02*
X1895Y1004D01*
X627Y1003D02*
X646Y1003D01*
X676Y1003D02*
X695Y1003D01*
X727Y1003D02*
X746Y1003D01*
X776Y1003D02*
X795Y1003D01*
X827Y1003D02*
X846Y1003D01*
X876Y1003D02*
X895Y1003D01*
X927Y1003D02*
X946Y1003D01*
X976Y1003D02*
X995Y1003D01*
X1027Y1003D02*
X1046Y1003D01*
X1076Y1003D02*
X1095Y1003D01*
X1127Y1003D02*
X1146Y1003D01*
X1176Y1003D02*
X1195Y1003D01*
X1227Y1003D02*
X1246Y1003D01*
X1276Y1003D02*
X1295Y1003D01*
X1327Y1003D02*
X1346Y1003D01*
X1376Y1003D02*
X1395Y1003D01*
X1427Y1003D02*
X1446Y1003D01*
X1475Y1003D02*
X1495Y1003D01*
X1527Y1003D02*
X1546Y1003D01*
X1575Y1003D02*
X1595Y1003D01*
X1627Y1003D02*
X1646Y1003D01*
X1675Y1003D02*
X1695Y1003D01*
X1727Y1003D02*
X1746Y1003D01*
X1775Y1003D02*
X1795Y1003D01*
X1827Y1003D02*
X1846Y1003D01*
X1875Y1003D02*
X1895Y1003D01*
X627Y1002D02*
X646Y1002D01*
X675Y1002D02*
X695Y1002D01*
X727Y1002D02*
X746Y1002D01*
X775Y1002D02*
X795Y1002D01*
X827Y1002D02*
X846Y1002D01*
X875Y1002D02*
X895Y1002D01*
X927Y1002D02*
X946Y1002D01*
X975Y1002D02*
X995Y1002D01*
X1027Y1002D02*
X1046Y1002D01*
X1075Y1002D02*
X1095Y1002D01*
X1127Y1002D02*
X1146Y1002D01*
X1175Y1002D02*
X1195Y1002D01*
X1227Y1002D02*
X1246Y1002D01*
X1275Y1002D02*
X1294Y1002D01*
X1327Y1002D02*
X1346Y1002D01*
X1375Y1002D02*
X1394Y1002D01*
X1427Y1002D02*
X1446Y1002D01*
X1475Y1002D02*
X1494Y1002D01*
X1527Y1002D02*
X1546Y1002D01*
X1575Y1002D02*
X1594Y1002D01*
X1627Y1002D02*
X1646Y1002D01*
X1675Y1002D02*
X1694Y1002D01*
X1727Y1002D02*
X1746Y1002D01*
X1775Y1002D02*
X1794Y1002D01*
X1827Y1002D02*
X1846Y1002D01*
X1875Y1002D02*
X1894Y1002D01*
X627Y1001D02*
X647Y1001D01*
X675Y1001D02*
X694Y1001D01*
X727Y1001D02*
X747Y1001D01*
X775Y1001D02*
X794Y1001D01*
X827Y1001D02*
X847Y1001D01*
X875Y1001D02*
X894Y1001D01*
X927Y1001D02*
X947Y1001D01*
X975Y1001D02*
X994Y1001D01*
X1027Y1001D02*
X1047Y1001D01*
X1075Y1001D02*
X1094Y1001D01*
X1127Y1001D02*
X1147Y1001D01*
X1175Y1001D02*
X1194Y1001D01*
X1227Y1001D02*
X1247Y1001D01*
X1275Y1001D02*
X1294Y1001D01*
X1327Y1001D02*
X1347Y1001D01*
X1375Y1001D02*
X1394Y1001D01*
X1427Y1001D02*
X1447Y1001D01*
X1475Y1001D02*
X1494Y1001D01*
X1527Y1001D02*
X1547Y1001D01*
X1575Y1001D02*
X1594Y1001D01*
X1627Y1001D02*
X1647Y1001D01*
X1675Y1001D02*
X1694Y1001D01*
X1727Y1001D02*
X1747Y1001D01*
X1775Y1001D02*
X1794Y1001D01*
X1827Y1001D02*
X1847Y1001D01*
X1875Y1001D02*
X1894Y1001D01*
X628Y1000D02*
X647Y1000D01*
X674Y1000D02*
X694Y1000D01*
X728Y1000D02*
X747Y1000D01*
X774Y1000D02*
X794Y1000D01*
X828Y1000D02*
X847Y1000D01*
X874Y1000D02*
X894Y1000D01*
X928Y1000D02*
X947Y1000D01*
X974Y1000D02*
X994Y1000D01*
X1028Y1000D02*
X1047Y1000D01*
X1074Y1000D02*
X1094Y1000D01*
X1128Y1000D02*
X1147Y1000D01*
X1174Y1000D02*
X1194Y1000D01*
X1228Y1000D02*
X1247Y1000D01*
X1274Y1000D02*
X1294Y1000D01*
X1327Y1000D02*
X1347Y1000D01*
X1374Y1000D02*
X1394Y1000D01*
X1427Y1000D02*
X1447Y1000D01*
X1474Y1000D02*
X1494Y1000D01*
X1527Y1000D02*
X1547Y1000D01*
X1574Y1000D02*
X1594Y1000D01*
X1627Y1000D02*
X1647Y1000D01*
X1674Y1000D02*
X1694Y1000D01*
X1727Y1000D02*
X1747Y1000D01*
X1774Y1000D02*
X1794Y1000D01*
X1827Y1000D02*
X1847Y1000D01*
X1874Y1000D02*
X1894Y1000D01*
X628Y999D02*
X648Y999D01*
X674Y999D02*
X694Y999D01*
X728Y999D02*
X748Y999D01*
X774Y999D02*
X794Y999D01*
X828Y999D02*
X848Y999D01*
X874Y999D02*
X894Y999D01*
X928Y999D02*
X948Y999D01*
X974Y999D02*
X994Y999D01*
X1028Y999D02*
X1048Y999D01*
X1074Y999D02*
X1094Y999D01*
X1128Y999D02*
X1148Y999D01*
X1174Y999D02*
X1194Y999D01*
X1228Y999D02*
X1248Y999D01*
X1274Y999D02*
X1294Y999D01*
X1328Y999D02*
X1348Y999D01*
X1374Y999D02*
X1394Y999D01*
X1428Y999D02*
X1448Y999D01*
X1474Y999D02*
X1494Y999D01*
X1528Y999D02*
X1548Y999D01*
X1574Y999D02*
X1594Y999D01*
X1628Y999D02*
X1648Y999D01*
X1674Y999D02*
X1694Y999D01*
X1728Y999D02*
X1748Y999D01*
X1774Y999D02*
X1794Y999D01*
X1828Y999D02*
X1848Y999D01*
X1874Y999D02*
X1894Y999D01*
X628Y998D02*
X649Y998D01*
X673Y998D02*
X693Y998D01*
X728Y998D02*
X749Y998D01*
X773Y998D02*
X793Y998D01*
X828Y998D02*
X849Y998D01*
X873Y998D02*
X893Y998D01*
X928Y998D02*
X949Y998D01*
X973Y998D02*
X993Y998D01*
X1028Y998D02*
X1049Y998D01*
X1073Y998D02*
X1093Y998D01*
X1128Y998D02*
X1149Y998D01*
X1173Y998D02*
X1193Y998D01*
X1228Y998D02*
X1249Y998D01*
X1273Y998D02*
X1293Y998D01*
X1328Y998D02*
X1349Y998D01*
X1373Y998D02*
X1393Y998D01*
X1428Y998D02*
X1449Y998D01*
X1473Y998D02*
X1493Y998D01*
X1528Y998D02*
X1549Y998D01*
X1573Y998D02*
X1593Y998D01*
X1628Y998D02*
X1649Y998D01*
X1673Y998D02*
X1693Y998D01*
X1728Y998D02*
X1749Y998D01*
X1773Y998D02*
X1793Y998D01*
X1828Y998D02*
X1849Y998D01*
X1873Y998D02*
X1893Y998D01*
X629Y997D02*
X650Y997D01*
X672Y997D02*
X693Y997D01*
X729Y997D02*
X750Y997D01*
X772Y997D02*
X793Y997D01*
X829Y997D02*
X850Y997D01*
X872Y997D02*
X893Y997D01*
X929Y997D02*
X950Y997D01*
X972Y997D02*
X993Y997D01*
X1029Y997D02*
X1050Y997D01*
X1072Y997D02*
X1093Y997D01*
X1129Y997D02*
X1150Y997D01*
X1172Y997D02*
X1193Y997D01*
X1229Y997D02*
X1250Y997D01*
X1272Y997D02*
X1293Y997D01*
X1329Y997D02*
X1350Y997D01*
X1372Y997D02*
X1393Y997D01*
X1429Y997D02*
X1450Y997D01*
X1472Y997D02*
X1493Y997D01*
X1528Y997D02*
X1550Y997D01*
X1572Y997D02*
X1593Y997D01*
X1628Y997D02*
X1650Y997D01*
X1672Y997D02*
X1693Y997D01*
X1728Y997D02*
X1749Y997D01*
X1772Y997D02*
X1793Y997D01*
X1828Y997D02*
X1849Y997D01*
X1872Y997D02*
X1893Y997D01*
X629Y996D02*
X651Y996D01*
X671Y996D02*
X693Y996D01*
X729Y996D02*
X751Y996D01*
X771Y996D02*
X793Y996D01*
X829Y996D02*
X851Y996D01*
X871Y996D02*
X893Y996D01*
X929Y996D02*
X951Y996D01*
X971Y996D02*
X993Y996D01*
X1029Y996D02*
X1051Y996D01*
X1071Y996D02*
X1093Y996D01*
X1129Y996D02*
X1151Y996D01*
X1171Y996D02*
X1193Y996D01*
X1229Y996D02*
X1251Y996D01*
X1271Y996D02*
X1293Y996D01*
X1329Y996D02*
X1351Y996D01*
X1371Y996D02*
X1392Y996D01*
X1429Y996D02*
X1451Y996D01*
X1471Y996D02*
X1492Y996D01*
X1529Y996D02*
X1551Y996D01*
X1571Y996D02*
X1592Y996D01*
X1629Y996D02*
X1651Y996D01*
X1671Y996D02*
X1692Y996D01*
X1729Y996D02*
X1751Y996D01*
X1771Y996D02*
X1792Y996D01*
X1829Y996D02*
X1851Y996D01*
X1871Y996D02*
X1892Y996D01*
X630Y995D02*
X653Y995D01*
X669Y995D02*
X692Y995D01*
X729Y995D02*
X753Y995D01*
X769Y995D02*
X792Y995D01*
X829Y995D02*
X853Y995D01*
X869Y995D02*
X892Y995D01*
X929Y995D02*
X953Y995D01*
X969Y995D02*
X992Y995D01*
X1029Y995D02*
X1053Y995D01*
X1069Y995D02*
X1092Y995D01*
X1129Y995D02*
X1153Y995D01*
X1169Y995D02*
X1192Y995D01*
X1229Y995D02*
X1253Y995D01*
X1269Y995D02*
X1292Y995D01*
X1329Y995D02*
X1353Y995D01*
X1369Y995D02*
X1392Y995D01*
X1429Y995D02*
X1453Y995D01*
X1469Y995D02*
X1492Y995D01*
X1529Y995D02*
X1553Y995D01*
X1569Y995D02*
X1592Y995D01*
X1629Y995D02*
X1653Y995D01*
X1669Y995D02*
X1692Y995D01*
X1729Y995D02*
X1753Y995D01*
X1769Y995D02*
X1792Y995D01*
X1829Y995D02*
X1853Y995D01*
X1869Y995D02*
X1892Y995D01*
X630Y994D02*
X656Y994D01*
X666Y994D02*
X692Y994D01*
X730Y994D02*
X756Y994D01*
X766Y994D02*
X792Y994D01*
X830Y994D02*
X856Y994D01*
X866Y994D02*
X892Y994D01*
X930Y994D02*
X956Y994D01*
X966Y994D02*
X992Y994D01*
X1030Y994D02*
X1056Y994D01*
X1066Y994D02*
X1092Y994D01*
X1130Y994D02*
X1156Y994D01*
X1166Y994D02*
X1192Y994D01*
X1230Y994D02*
X1256Y994D01*
X1266Y994D02*
X1292Y994D01*
X1330Y994D02*
X1356Y994D01*
X1366Y994D02*
X1392Y994D01*
X1430Y994D02*
X1456Y994D01*
X1466Y994D02*
X1492Y994D01*
X1530Y994D02*
X1556Y994D01*
X1566Y994D02*
X1592Y994D01*
X1630Y994D02*
X1656Y994D01*
X1666Y994D02*
X1692Y994D01*
X1730Y994D02*
X1756Y994D01*
X1766Y994D02*
X1791Y994D01*
X1830Y994D02*
X1856Y994D01*
X1866Y994D02*
X1891Y994D01*
X631Y993D02*
X691Y993D01*
X731Y993D02*
X791Y993D01*
X830Y993D02*
X891Y993D01*
X930Y993D02*
X991Y993D01*
X1030Y993D02*
X1091Y993D01*
X1130Y993D02*
X1191Y993D01*
X1230Y993D02*
X1291Y993D01*
X1330Y993D02*
X1391Y993D01*
X1430Y993D02*
X1491Y993D01*
X1530Y993D02*
X1591Y993D01*
X1630Y993D02*
X1691Y993D01*
X1730Y993D02*
X1791Y993D01*
X1830Y993D02*
X1891Y993D01*
X631Y992D02*
X691Y992D01*
X731Y992D02*
X791Y992D01*
X831Y992D02*
X891Y992D01*
X931Y992D02*
X990Y992D01*
X1031Y992D02*
X1090Y992D01*
X1131Y992D02*
X1190Y992D01*
X1231Y992D02*
X1290Y992D01*
X1331Y992D02*
X1390Y992D01*
X1431Y992D02*
X1490Y992D01*
X1531Y992D02*
X1590Y992D01*
X1631Y992D02*
X1690Y992D01*
X1731Y992D02*
X1790Y992D01*
X1831Y992D02*
X1890Y992D01*
X632Y991D02*
X690Y991D01*
X732Y991D02*
X790Y991D01*
X832Y991D02*
X890Y991D01*
X932Y991D02*
X990Y991D01*
X1032Y991D02*
X1090Y991D01*
X1132Y991D02*
X1190Y991D01*
X1232Y991D02*
X1290Y991D01*
X1332Y991D02*
X1390Y991D01*
X1432Y991D02*
X1490Y991D01*
X1532Y991D02*
X1590Y991D01*
X1632Y991D02*
X1690Y991D01*
X1732Y991D02*
X1790Y991D01*
X1832Y991D02*
X1890Y991D01*
X632Y990D02*
X689Y990D01*
X732Y990D02*
X789Y990D01*
X832Y990D02*
X889Y990D01*
X932Y990D02*
X989Y990D01*
X1032Y990D02*
X1089Y990D01*
X1132Y990D02*
X1189Y990D01*
X1232Y990D02*
X1289Y990D01*
X1332Y990D02*
X1389Y990D01*
X1432Y990D02*
X1489Y990D01*
X1532Y990D02*
X1589Y990D01*
X1632Y990D02*
X1689Y990D01*
X1732Y990D02*
X1789Y990D01*
X1832Y990D02*
X1889Y990D01*
X633Y989D02*
X689Y989D01*
X733Y989D02*
X789Y989D01*
X833Y989D02*
X889Y989D01*
X933Y989D02*
X989Y989D01*
X1033Y989D02*
X1089Y989D01*
X1133Y989D02*
X1188Y989D01*
X1233Y989D02*
X1288Y989D01*
X1333Y989D02*
X1388Y989D01*
X1433Y989D02*
X1488Y989D01*
X1533Y989D02*
X1588Y989D01*
X1633Y989D02*
X1688Y989D01*
X1733Y989D02*
X1788Y989D01*
X1833Y989D02*
X1888Y989D01*
X634Y988D02*
X688Y988D01*
X734Y988D02*
X788Y988D01*
X834Y988D02*
X888Y988D01*
X934Y988D02*
X988Y988D01*
X1034Y988D02*
X1088Y988D01*
X1134Y988D02*
X1188Y988D01*
X1234Y988D02*
X1288Y988D01*
X1334Y988D02*
X1388Y988D01*
X1434Y988D02*
X1488Y988D01*
X1534Y988D02*
X1588Y988D01*
X1634Y988D02*
X1688Y988D01*
X1734Y988D02*
X1788Y988D01*
X1834Y988D02*
X1888Y988D01*
X635Y987D02*
X687Y987D01*
X735Y987D02*
X787Y987D01*
X835Y987D02*
X887Y987D01*
X935Y987D02*
X987Y987D01*
X1035Y987D02*
X1087Y987D01*
X1135Y987D02*
X1187Y987D01*
X1235Y987D02*
X1287Y987D01*
X1335Y987D02*
X1387Y987D01*
X1435Y987D02*
X1487Y987D01*
X1534Y987D02*
X1587Y987D01*
X1634Y987D02*
X1687Y987D01*
X1734Y987D02*
X1787Y987D01*
X1834Y987D02*
X1887Y987D01*
X635Y986D02*
X686Y986D01*
X735Y986D02*
X786Y986D01*
X835Y986D02*
X886Y986D01*
X935Y986D02*
X986Y986D01*
X1035Y986D02*
X1086Y986D01*
X1135Y986D02*
X1186Y986D01*
X1235Y986D02*
X1286Y986D01*
X1335Y986D02*
X1386Y986D01*
X1435Y986D02*
X1486Y986D01*
X1535Y986D02*
X1586Y986D01*
X1635Y986D02*
X1686Y986D01*
X1735Y986D02*
X1786Y986D01*
X1835Y986D02*
X1886Y986D01*
X636Y985D02*
X685Y985D01*
X736Y985D02*
X785Y985D01*
X836Y985D02*
X885Y985D01*
X936Y985D02*
X985Y985D01*
X1036Y985D02*
X1085Y985D01*
X1136Y985D02*
X1185Y985D01*
X1236Y985D02*
X1285Y985D01*
X1336Y985D02*
X1385Y985D01*
X1436Y985D02*
X1485Y985D01*
X1536Y985D02*
X1585Y985D01*
X1636Y985D02*
X1685Y985D01*
X1736Y985D02*
X1785Y985D01*
X1836Y985D02*
X1885Y985D01*
X637Y984D02*
X684Y984D01*
X737Y984D02*
X784Y984D01*
X837Y984D02*
X884Y984D01*
X937Y984D02*
X984Y984D01*
X1037Y984D02*
X1084Y984D01*
X1137Y984D02*
X1184Y984D01*
X1237Y984D02*
X1284Y984D01*
X1337Y984D02*
X1384Y984D01*
X1437Y984D02*
X1484Y984D01*
X1537Y984D02*
X1584Y984D01*
X1637Y984D02*
X1684Y984D01*
X1737Y984D02*
X1784Y984D01*
X1837Y984D02*
X1884Y984D01*
X638Y983D02*
X683Y983D01*
X738Y983D02*
X783Y983D01*
X838Y983D02*
X883Y983D01*
X938Y983D02*
X983Y983D01*
X1038Y983D02*
X1083Y983D01*
X1138Y983D02*
X1183Y983D01*
X1238Y983D02*
X1283Y983D01*
X1338Y983D02*
X1383Y983D01*
X1438Y983D02*
X1483Y983D01*
X1538Y983D02*
X1583Y983D01*
X1638Y983D02*
X1683Y983D01*
X1738Y983D02*
X1783Y983D01*
X1838Y983D02*
X1883Y983D01*
X640Y982D02*
X682Y982D01*
X740Y982D02*
X782Y982D01*
X840Y982D02*
X882Y982D01*
X940Y982D02*
X982Y982D01*
X1040Y982D02*
X1082Y982D01*
X1140Y982D02*
X1182Y982D01*
X1240Y982D02*
X1282Y982D01*
X1340Y982D02*
X1382Y982D01*
X1439Y982D02*
X1482Y982D01*
X1539Y982D02*
X1582Y982D01*
X1639Y982D02*
X1682Y982D01*
X1739Y982D02*
X1782Y982D01*
X1839Y982D02*
X1882Y982D01*
X641Y981D02*
X681Y981D01*
X741Y981D02*
X781Y981D01*
X841Y981D02*
X881Y981D01*
X941Y981D02*
X981Y981D01*
X1041Y981D02*
X1081Y981D01*
X1141Y981D02*
X1181Y981D01*
X1241Y981D02*
X1281Y981D01*
X1341Y981D02*
X1381Y981D01*
X1441Y981D02*
X1481Y981D01*
X1541Y981D02*
X1581Y981D01*
X1641Y981D02*
X1681Y981D01*
X1741Y981D02*
X1781Y981D01*
X1841Y981D02*
X1881Y981D01*
X642Y980D02*
X679Y980D01*
X742Y980D02*
X779Y980D01*
X842Y980D02*
X879Y980D01*
X942Y980D02*
X979Y980D01*
X1042Y980D02*
X1079Y980D01*
X1142Y980D02*
X1179Y980D01*
X1242Y980D02*
X1279Y980D01*
X1342Y980D02*
X1379Y980D01*
X1442Y980D02*
X1479Y980D01*
X1542Y980D02*
X1579Y980D01*
X1642Y980D02*
X1679Y980D01*
X1742Y980D02*
X1779Y980D01*
X1842Y980D02*
X1879Y980D01*
X644Y979D02*
X678Y979D01*
X744Y979D02*
X778Y979D01*
X844Y979D02*
X878Y979D01*
X944Y979D02*
X978Y979D01*
X1044Y979D02*
X1078Y979D01*
X1144Y979D02*
X1178Y979D01*
X1244Y979D02*
X1278Y979D01*
X1344Y979D02*
X1378Y979D01*
X1444Y979D02*
X1478Y979D01*
X1544Y979D02*
X1578Y979D01*
X1644Y979D02*
X1678Y979D01*
X1744Y979D02*
X1778Y979D01*
X1844Y979D02*
X1878Y979D01*
X645Y978D02*
X676Y978D01*
X745Y978D02*
X776Y978D01*
X845Y978D02*
X876Y978D01*
X945Y978D02*
X976Y978D01*
X1045Y978D02*
X1076Y978D01*
X1145Y978D02*
X1176Y978D01*
X1245Y978D02*
X1276Y978D01*
X1345Y978D02*
X1376Y978D01*
X1445Y978D02*
X1476Y978D01*
X1545Y978D02*
X1576Y978D01*
X1645Y978D02*
X1676Y978D01*
X1745Y978D02*
X1776Y978D01*
X1845Y978D02*
X1876Y978D01*
X647Y977D02*
X674Y977D01*
X747Y977D02*
X774Y977D01*
X847Y977D02*
X874Y977D01*
X947Y977D02*
X974Y977D01*
X1047Y977D02*
X1074Y977D01*
X1147Y977D02*
X1174Y977D01*
X1247Y977D02*
X1274Y977D01*
X1347Y977D02*
X1374Y977D01*
X1447Y977D02*
X1474Y977D01*
X1547Y977D02*
X1574Y977D01*
X1647Y977D02*
X1674Y977D01*
X1747Y977D02*
X1774Y977D01*
X1847Y977D02*
X1874Y977D01*
X649Y976D02*
X672Y976D01*
X749Y976D02*
X772Y976D01*
X849Y976D02*
X872Y976D01*
X949Y976D02*
X972Y976D01*
X1049Y976D02*
X1072Y976D01*
X1149Y976D02*
X1172Y976D01*
X1249Y976D02*
X1272Y976D01*
X1349Y976D02*
X1372Y976D01*
X1449Y976D02*
X1472Y976D01*
X1549Y976D02*
X1572Y976D01*
X1649Y976D02*
X1672Y976D01*
X1749Y976D02*
X1772Y976D01*
X1849Y976D02*
X1872Y976D01*
X652Y975D02*
X669Y975D01*
X752Y975D02*
X769Y975D01*
X852Y975D02*
X869Y975D01*
X952Y975D02*
X969Y975D01*
X1052Y975D02*
X1069Y975D01*
X1152Y975D02*
X1169Y975D01*
X1252Y975D02*
X1269Y975D01*
X1352Y975D02*
X1369Y975D01*
X1452Y975D02*
X1469Y975D01*
X1552Y975D02*
X1569Y975D01*
X1652Y975D02*
X1669Y975D01*
X1752Y975D02*
X1769Y975D01*
X1852Y975D02*
X1869Y975D01*
X656Y974D02*
X665Y974D01*
X756Y974D02*
X765Y974D01*
X856Y974D02*
X865Y974D01*
X956Y974D02*
X965Y974D01*
X1056Y974D02*
X1065Y974D01*
X1156Y974D02*
X1165Y974D01*
X1256Y974D02*
X1265Y974D01*
X1356Y974D02*
X1365Y974D01*
X1456Y974D02*
X1465Y974D01*
X1556Y974D02*
X1565Y974D01*
X1656Y974D02*
X1665Y974D01*
X1756Y974D02*
X1765Y974D01*
X1856Y974D02*
X1865Y974D01*
D02*
G04 End of Copper1*
M02*