<?xml version='1.0' encoding='UTF-8' standalone='no'?>
<!-- Created with Fritzing (http://www.fritzing.org/) -->
<svg xmlns="http://www.w3.org/2000/svg" width="1.45513in" x="0in" version="1.2" y="0in"  height="1.41771in" viewBox="0 0 104.77 102.075" baseProfile="tiny" xmlns:svg="http://www.w3.org/2000/svg">
 <g transform="matrix(-1, 0, 0, 1, 104.77, 0)">
  <g partID="12042">
   <g id="silkscreen">
    <rect width="104.194" x="0.816378" y="0.816378" fill="none" height="101.499" stroke="black" stroke-width="0.576"/>
   </g>
  </g>
  <g partID="12040">
   <g id="board">
    <rect width="104.194" x="0.816378" y="0.816378" fill="none" height="101.499" stroke="black" fill-opacity="0.5" id="boardoutline" stroke-width="0.5"/>
   </g>
  </g>
  <g partID="8217931">
   <g transform="translate(36.6858,35.5264)">
    <g id="silkscreen">
     <line class="other" stroke="black" stroke-linecap="round" y1="2.77795" x1="2.89588" y2="2.77795" stroke-width="0.576" x2="1.59194"/>
     <line class="other" stroke="black" stroke-linecap="round" y1="2.77795" x1="0.288" y2="2.77795" stroke-width="0.576" x2="1.59194"/>
     <line class="other" stroke="black" stroke-linecap="round" y1="2.77795" x1="1.59194" y2="3.65669" stroke-width="0.576" x2="2.25468"/>
     <line class="other" stroke="black" stroke-linecap="round" y1="2.82161" x1="1.51994" y2="3.65669" stroke-width="0.576" x2="0.972851"/>
    </g>
   </g>
  </g>
  <g partID="8217871">
   <g transform="translate(36.6858,8.8808)">
    <g id="silkscreen">
     <line class="other" stroke="black" stroke-linecap="round" y1="2.77795" x1="2.89588" y2="2.77795" stroke-width="0.576" x2="1.59194"/>
     <line class="other" stroke="black" stroke-linecap="round" y1="2.77795" x1="0.288" y2="2.77795" stroke-width="0.576" x2="1.59194"/>
     <line class="other" stroke="black" stroke-linecap="round" y1="2.77795" x1="1.59194" y2="3.65669" stroke-width="0.576" x2="2.25468"/>
     <line class="other" stroke="black" stroke-linecap="round" y1="2.82161" x1="1.51994" y2="3.65669" stroke-width="0.576" x2="0.972851"/>
    </g>
   </g>
  </g>
  <g partID="12042">
   <g id="silkscreen">
    <rect width="104.194" x="0.816378" y="0.816378" fill="none" height="101.499" stroke="black" stroke-width="0.576"/>
   </g>
  </g>
  <g partID="7717642">
   <g transform="translate(57.3322,92.2816)">
    <g id="silkscreen">
     <line stroke="black" y1="1.44" stroke-width="0.72" x1="1.44" y2="8.64" x2="1.44"/>
     <line stroke="black" y1="8.64" stroke-width="0.72" x1="1.44" y2="8.64" x2="8.64"/>
     <line stroke="black" y1="8.64" stroke-width="0.72" x1="8.64" y2="1.44" x2="8.64"/>
     <line stroke="black" y1="1.44" stroke-width="0.72" x1="8.64" y2="1.44" x2="1.44"/>
     <line stroke="black" y1="3.96" stroke-width="0.36" x1="1.44" y2="1.44" x2="3.96"/>
     <!-- 120 -->
    </g>
   </g>
  </g>
  <g partID="7717622">
   <g transform="translate(3.75744,92.2816)">
    <g id="silkscreen">
     <line stroke="black" y1="1.44" stroke-width="0.72" x1="1.44" y2="8.64" x2="1.44"/>
     <line stroke="black" y1="8.64" stroke-width="0.72" x1="1.44" y2="8.64" x2="8.64"/>
     <line stroke="black" y1="8.64" stroke-width="0.72" x1="8.64" y2="1.44" x2="8.64"/>
     <line stroke="black" y1="1.44" stroke-width="0.72" x1="8.64" y2="1.44" x2="1.44"/>
     <line stroke="black" y1="3.96" stroke-width="0.36" x1="1.44" y2="1.44" x2="3.96"/>
     <!-- 120 -->
    </g>
   </g>
  </g>
  <g partID="7717602">
   <g transform="translate(48.2614,92.2816)">
    <g id="silkscreen">
     <line stroke="black" y1="1.44" stroke-width="0.72" x1="1.44" y2="8.64" x2="1.44"/>
     <line stroke="black" y1="8.64" stroke-width="0.72" x1="1.44" y2="8.64" x2="8.64"/>
     <line stroke="black" y1="8.64" stroke-width="0.72" x1="8.64" y2="1.44" x2="8.64"/>
     <line stroke="black" y1="1.44" stroke-width="0.72" x1="8.64" y2="1.44" x2="1.44"/>
     <line stroke="black" y1="3.96" stroke-width="0.36" x1="1.44" y2="1.44" x2="3.96"/>
     <!-- 120 -->
    </g>
   </g>
  </g>
  <g partID="7717562">
   <g transform="translate(24.4503,63.368)">
    <g id="silkscreen">
     <line stroke="black" y1="1.44" stroke-width="0.72" x1="1.44" y2="8.64" x2="1.44"/>
     <line stroke="black" y1="8.64" stroke-width="0.72" x1="1.44" y2="8.64" x2="8.64"/>
     <line stroke="black" y1="8.64" stroke-width="0.72" x1="8.64" y2="1.44" x2="8.64"/>
     <line stroke="black" y1="1.44" stroke-width="0.72" x1="8.64" y2="1.44" x2="1.44"/>
     <line stroke="black" y1="3.96" stroke-width="0.36" x1="1.44" y2="1.44" x2="3.96"/>
     <!-- 120 -->
    </g>
   </g>
  </g>
  <g partID="7717502">
   <g transform="translate(32.6708,63.368)">
    <g id="silkscreen">
     <line stroke="black" y1="1.44" stroke-width="0.72" x1="1.44" y2="8.64" x2="1.44"/>
     <line stroke="black" y1="8.64" stroke-width="0.72" x1="1.44" y2="8.64" x2="8.64"/>
     <line stroke="black" y1="8.64" stroke-width="0.72" x1="8.64" y2="1.44" x2="8.64"/>
     <line stroke="black" y1="1.44" stroke-width="0.72" x1="8.64" y2="1.44" x2="1.44"/>
     <line stroke="black" y1="3.96" stroke-width="0.36" x1="1.44" y2="1.44" x2="3.96"/>
     <!-- 120 -->
    </g>
   </g>
  </g>
  <g partID="7717482">
   <g transform="translate(21.3322,92.2816)">
    <g id="silkscreen">
     <line stroke="black" y1="1.44" stroke-width="0.72" x1="1.44" y2="8.64" x2="1.44"/>
     <line stroke="black" y1="8.64" stroke-width="0.72" x1="1.44" y2="8.64" x2="8.64"/>
     <line stroke="black" y1="8.64" stroke-width="0.72" x1="8.64" y2="1.44" x2="8.64"/>
     <line stroke="black" y1="1.44" stroke-width="0.72" x1="8.64" y2="1.44" x2="1.44"/>
     <line stroke="black" y1="3.96" stroke-width="0.36" x1="1.44" y2="1.44" x2="3.96"/>
     <!-- 120 -->
    </g>
   </g>
  </g>
  <g partID="7717462">
   <g transform="translate(12.5449,92.2816)">
    <g id="silkscreen">
     <line stroke="black" y1="1.44" stroke-width="0.72" x1="1.44" y2="8.64" x2="1.44"/>
     <line stroke="black" y1="8.64" stroke-width="0.72" x1="1.44" y2="8.64" x2="8.64"/>
     <line stroke="black" y1="8.64" stroke-width="0.72" x1="8.64" y2="1.44" x2="8.64"/>
     <line stroke="black" y1="1.44" stroke-width="0.72" x1="8.64" y2="1.44" x2="1.44"/>
     <line stroke="black" y1="3.96" stroke-width="0.36" x1="1.44" y2="1.44" x2="3.96"/>
     <!-- 120 -->
    </g>
   </g>
  </g>
  <g partID="7717442">
   <g transform="translate(93.0488,31.904)">
    <g id="silkscreen">
     <line stroke="black" y1="1.44" stroke-width="0.72" x1="1.44" y2="8.64" x2="1.44"/>
     <line stroke="black" y1="8.64" stroke-width="0.72" x1="1.44" y2="8.64" x2="8.64"/>
     <line stroke="black" y1="8.64" stroke-width="0.72" x1="8.64" y2="1.44" x2="8.64"/>
     <line stroke="black" y1="1.44" stroke-width="0.72" x1="8.64" y2="1.44" x2="1.44"/>
     <line stroke="black" y1="3.96" stroke-width="0.36" x1="1.44" y2="1.44" x2="3.96"/>
     <!-- 120 -->
    </g>
   </g>
  </g>
  <g partID="7979062">
   <g transform="translate(92.4818,92.2816)">
    <g id="silkscreen">
     <line stroke="black" y1="1.44" stroke-width="0.72" x1="1.44" y2="8.64" x2="1.44"/>
     <line stroke="black" y1="8.64" stroke-width="0.72" x1="1.44" y2="8.64" x2="8.64"/>
     <line stroke="black" y1="8.64" stroke-width="0.72" x1="8.64" y2="1.44" x2="8.64"/>
     <line stroke="black" y1="1.44" stroke-width="0.72" x1="8.64" y2="1.44" x2="1.44"/>
     <line stroke="black" y1="3.96" stroke-width="0.36" x1="1.44" y2="1.44" x2="3.96"/>
     <!-- 120 -->
    </g>
   </g>
  </g>
  <g partID="6535650">
   <g transform="translate(74.692,1.9264)">
    <g id="silkscreen">
     <text x="16.7502" y="2.31926" fill="black" font-family="OCRA" text-anchor="middle" xmlns:xml="http://www.w3.org/XML/1998/namespace" id="label" xml:space="preserve" stroke-width="0" font-size="2.57695">HestiaPi v0.4</text>
    </g>
   </g>
  </g>
  <g partID="7717362">
   <g transform="translate(74.6236,92.2816)">
    <g id="silkscreen">
     <line stroke="black" y1="1.44" stroke-width="0.72" x1="1.44" y2="8.64" x2="1.44"/>
     <line stroke="black" y1="8.64" stroke-width="0.72" x1="1.44" y2="8.64" x2="8.64"/>
     <line stroke="black" y1="8.64" stroke-width="0.72" x1="8.64" y2="1.44" x2="8.64"/>
     <line stroke="black" y1="1.44" stroke-width="0.72" x1="8.64" y2="1.44" x2="1.44"/>
     <line stroke="black" y1="3.96" stroke-width="0.36" x1="1.44" y2="1.44" x2="3.96"/>
     <!-- 120 -->
    </g>
   </g>
  </g>
  <g partID="7716182">
   <g transform="translate(30.1197,92.2816)">
    <g transform="matrix(1,4.26227e-18,-4.26227e-18,1,0,0)">
     <g id="silkscreen">
      <line stroke="black" y1="1.44" stroke-width="0.72" x1="1.44" y2="8.64" x2="1.44"/>
      <line stroke="black" y1="8.64" stroke-width="0.72" x1="1.44" y2="8.64" x2="8.64"/>
      <line stroke="black" y1="8.64" stroke-width="0.72" x1="8.64" y2="1.44" x2="8.64"/>
      <line stroke="black" y1="1.44" stroke-width="0.72" x1="8.64" y2="1.44" x2="1.44"/>
      <line stroke="black" y1="3.96" stroke-width="0.36" x1="1.44" y2="1.44" x2="3.96"/>
      <!-- 120 -->
     </g>
    </g>
   </g>
  </g>
  <g partID="7978002">
   <g transform="translate(83.6945,92.2816)">
    <g id="silkscreen">
     <line stroke="black" y1="1.44" stroke-width="0.72" x1="1.44" y2="8.64" x2="1.44"/>
     <line stroke="black" y1="8.64" stroke-width="0.72" x1="1.44" y2="8.64" x2="8.64"/>
     <line stroke="black" y1="8.64" stroke-width="0.72" x1="8.64" y2="1.44" x2="8.64"/>
     <line stroke="black" y1="1.44" stroke-width="0.72" x1="8.64" y2="1.44" x2="1.44"/>
     <line stroke="black" y1="3.96" stroke-width="0.36" x1="1.44" y2="1.44" x2="3.96"/>
     <!-- 120 -->
    </g>
   </g>
  </g>
  <g partID="7716142">
   <g transform="translate(66.6866,92.2816)">
    <g id="silkscreen">
     <line stroke="black" y1="1.44" stroke-width="0.72" x1="1.44" y2="8.64" x2="1.44"/>
     <line stroke="black" y1="8.64" stroke-width="0.72" x1="1.44" y2="8.64" x2="8.64"/>
     <line stroke="black" y1="8.64" stroke-width="0.72" x1="8.64" y2="1.44" x2="8.64"/>
     <line stroke="black" y1="1.44" stroke-width="0.72" x1="8.64" y2="1.44" x2="1.44"/>
     <line stroke="black" y1="3.96" stroke-width="0.36" x1="1.44" y2="1.44" x2="3.96"/>
     <!-- 120 -->
    </g>
   </g>
  </g>
  <g partID="7716052">
   <g transform="translate(39.1905,92.2816)">
    <g id="silkscreen">
     <line stroke="black" y1="1.44" stroke-width="0.72" x1="1.44" y2="8.64" x2="1.44"/>
     <line stroke="black" y1="8.64" stroke-width="0.72" x1="1.44" y2="8.64" x2="8.64"/>
     <line stroke="black" y1="8.64" stroke-width="0.72" x1="8.64" y2="1.44" x2="8.64"/>
     <line stroke="black" y1="1.44" stroke-width="0.72" x1="8.64" y2="1.44" x2="1.44"/>
     <line stroke="black" y1="3.96" stroke-width="0.36" x1="1.44" y2="1.44" x2="3.96"/>
     <!-- 120 -->
    </g>
   </g>
  </g>
  <g partID="6832282">
   <g transform="translate(80.671,67.968)">
    <g transform="matrix(0,-1,1,0,0,0)">
     <g id="silkscreen">
      <circle fill="none" cx="10.728" cy="10.728" stroke="black" r="2.88" stroke-width="0.864"/>
     </g>
    </g>
   </g>
  </g>
  <g partID="6565870">
   <g transform="translate(83.9578,4.9984)">
    <g id="silkscreen">
     <path fill="black" display="none" id="path3024" d="M114.948,53.285l-0.889664,-0.165413c-0.226769,-0.0414569,-0.596564,-0.11069,-0.823333,-0.151732l-7.57707,-1.40871c-0.226769,-0.0431152,-0.475095,-0.254545,-0.549303,-0.473852l-2.8485,-6.64305c-0.106544,-0.205212,-0.0854011,-0.527746,0.0439442,-0.718448L106.732,37.2698c0.12976,-0.190287,0.343677,-0.502043,0.474266,-0.69233l0.511577,-0.74498c0.12976,-0.190287,0.103228,-0.478413,-0.060527,-0.643411l-0.63885,-0.638851l-0.592833,-0.592834l-1.85271,-1.85395l-0.593662,-0.592834l-1.85188,-1.85312l-0.594076,-0.593248l-0.639264,-0.638851c-0.164169,-0.164169,-0.451879,-0.190287,-0.642166,-0.0605271l-0.746638,0.510749c-0.190287,0.12976,-0.501213,0.343263,-0.6915,0.475096L92.2249,33.874c-0.189872,0.130175,-0.514479,0.153805,-0.720934,0.0526503l-6.44115,-2.63541c-0.218063,-0.0733787,-0.432395,-0.318389,-0.475095,-0.544329l-1.46964,-7.89712c-0.0431151,-0.228013,-0.112348,-0.596565,-0.152976,-0.823749l-0.164584,-0.889665c-0.0431151,-0.226769,-0.266567,-0.410838,-0.494995,-0.410838l-0.904174,0l-0.837843,0l-2.62007,0l-0.837843,0l-2.61966,0l-0.837843,0l-0.90293,0c-0.231744,0,-0.454781,0.184069,-0.495409,0.411667l-0.164584,0.88925c-0.0431151,0.227184,-0.112348,0.59615,-0.152561,0.823749l-1.47006,7.89712c-0.0431151,0.226769,-0.254545,0.472609,-0.475095,0.544329l-6.44073,2.63541c-0.206455,0.101155,-0.531062,0.077939,-0.720934,-0.0526503L56.2345,29.3515c-0.190287,-0.12976,-0.501213,-0.344092,-0.6915,-0.475096l-0.745808,-0.510749c-0.190287,-0.12976,-0.478412,-0.103642,-0.642166,0.0605271l-0.639264,0.638851l-0.593662,0.593248l-1.85312,1.85395l-0.592833,0.592834l-1.85271,1.85312l-0.593662,0.592834l-0.63885,0.638851c-0.164169,0.164169,-0.190287,0.453124,-0.060527,0.643411l0.510334,0.74498c0.12976,0.190287,0.343263,0.502043,0.475095,0.69233l4.42883,6.45194c0.12976,0.190702,0.150488,0.513236,0.0443588,0.718033l-2.84767,6.6443c-0.0766951,0.216405,-0.322949,0.429493,-0.549718,0.473023l-7.57665,1.40953c-0.227183,0.042286,-0.596978,0.111519,-0.824162,0.150903l-0.889664,0.164584c-0.226769,0.0431152,-0.411666,0.266568,-0.411666,0.496239l0,0.905004l0,0.837844l0,2.61925l0,0.837844l0,2.61759l0,0.837844l0,0.90459c0,0.231329,0.185727,0.454368,0.412495,0.49541l0.889249,0.164169c0.227598,0.0431152,0.596564,0.112348,0.824162,0.153805l7.34988,1.36808c0.226769,0.042286,0.468877,0.255789,0.538524,0.475096l2.82819,7.0684c0.101155,0.20687,0.0779388,0.531477,-0.0534793,0.721765l-4.16185,6.06473c-0.130174,0.190702,-0.344092,0.501628,-0.475095,0.690672l-0.510748,0.746639c-0.12976,0.189873,-0.103642,0.478413,0.060527,0.642582l0.639679,0.638851l0.593247,0.593248l1.85395,1.85437l0.592833,0.592834l1.85271,1.85271l0.593662,0.592834l0.639679,0.638851c0.163754,0.163755,0.452709,0.189458,0.642995,0.0601125l0.744979,-0.50992c0.189458,-0.12976,0.500384,-0.344092,0.690671,-0.475096l5.9333,-4.07024c0.189872,-0.12976,0.50909,-0.141368,0.706424,-0.0252887l1.23251,0.693159c0.201895,0.110275,0.536866,0.285223,0.742492,0.388866l1.27521,0.653361c0.205626,0.104471,0.445246,0.0161682,0.533549,-0.198164l0.54723,-1.32248c0.0883031,-0.214332,0.233402,-0.561326,0.320461,-0.774829l5.14645,-12.4379c0.0891322,-0.212674,0.233402,-0.561326,0.320047,-0.774l0.36482,-0.880959c0.0883031,-0.213088,-0.00124371,-0.485875,-0.198578,-0.605685l-0.812969,-0.497068c-0.150488,-0.0924489,-0.354041,-0.2504,-0.514065,-0.393426c-2.93431,-1.87883,-4.87988,-5.16594,-4.87988,-8.90743c0,-5.84128,4.73479,-10.5761,10.5752,-10.5761s10.5756,4.73438,10.5756,10.5761c0,3.7419,-1.94557,7.0286,-4.87988,8.90743c-0.160438,0.145099,-0.363576,0.302221,-0.51365,0.393426l-0.812969,0.497068c-0.197335,0.11981,-0.285223,0.392597,-0.198164,0.605685l0.36482,0.880959c0.0887176,0.213918,0.233402,0.561326,0.319632,0.774l5.14645,12.4379c0.0891322,0.213503,0.233402,0.561326,0.319632,0.774829l0.548888,1.32248c0.0883031,0.214332,0.327924,0.302221,0.533549,0.198164l1.27521,-0.653361c0.205626,-0.105301,0.540183,-0.279419,0.742492,-0.388866l1.23168,-0.693159c0.198578,-0.116079,0.517381,-0.10613,0.706839,0.0252887l5.93372,4.07024c0.189458,0.12976,0.501628,0.344092,0.690256,0.475096l0.747052,0.50992c0.189458,0.12976,0.477997,0.103642,0.641337,-0.0601125l0.63885,-0.638851l0.594076,-0.592834l1.85229,-1.85354l0.593662,-0.592834l1.85436,-1.85354l0.592833,-0.593248l0.639679,-0.638851c0.163754,-0.164169,0.189458,-0.452709,0.0601124,-0.642582l-0.511163,-0.746639c-0.12976,-0.189043,-0.343677,-0.49997,-0.475095,-0.690257l-4.16268,-6.06514c-0.12976,-0.190287,-0.154634,-0.51448,-0.0526502,-0.721765l2.82777,-7.0684c0.0696475,-0.219307,0.31217,-0.434883,0.538939,-0.475096l7.34988,-1.36808c0.227183,-0.0431152,0.597808,-0.112348,0.824576,-0.153391l0.88842,-0.164169c0.227183,-0.0431152,0.411666,-0.266568,0.411666,-0.49541l0,-0.90459l0,-0.837844l0,-2.61759l0,-0.837844l0.000829137,-2.61925l0,-0.837844l0,-0.905004C115.36,53.5503,115.175,53.3277,114.948,53.285"/>
     <path fill="black" id="path3028" d="M14.4237,6.63518c-0.12976,-0.597808,-0.372697,-1.15333,-0.70601,-1.64377l1.0103,-1.47172l-0.434053,-0.434054l-0.434053,-0.433225l-1.4912,1.02316c-0.484216,-0.313,-1.02854,-0.540598,-1.6135,-0.659579l0,0l-0.332898,-1.78721l-0.613147,0l-0.613561,0L8.86347,3.01599l0,0c-0.584127,0.118981,-1.12887,0.34658,-1.6135,0.659579l-1.49079,-1.02316l-0.434053,0.433225L4.89149,3.51969l1.00989,1.47172c-0.332898,0.490435,-0.575835,1.04554,-0.705595,1.64377L3.46786,6.95647l0,0.613148l0,0.613562l1.69517,0.315487c0.114421,0.626414,0.352798,1.2093,0.687769,1.72295l-0.959726,1.39834l0.434468,0.433639l0.433224,0.434468l1.38051,-0.94729c0.166656,0.114421,0.341604,0.218478,0.523185,0.311756l0.97009,-2.34314c-0.649214,-0.397572,-1.08244,-1.11353,-1.08244,-1.9294c0,-1.24785,1.01113,-2.2594,2.25981,-2.2594c1.24785,0,2.25857,1.01155,2.25857,2.2594c0,0.817115,-0.433224,1.53183,-1.08202,1.9294l0.97009,2.34314c0.181581,-0.0928635,0.3557,-0.197335,0.5236,-0.311756l1.38051,0.94729l0.434053,-0.434468l0.433224,-0.433639l-0.958897,-1.39834c0.3358,-0.513651,0.573763,-1.09695,0.687769,-1.72295l1.69558,-0.315487l0,-0.613562L16.1524,6.95647L14.4237,6.63518z"/>
     <path fill="black" d="M7.92116,15.3125l0,-1.82327l0.203138,-0.0887178l0,0.578738c0.0791826,-0.0563814,0.170388,-0.0845721,0.273201,-0.0845721c0.131833,0,0.24501,0.0464317,0.337873,0.139295c0.094107,0.0936926,0.140953,0.205626,0.140953,0.337045l0,0.854012l-0.202724,0.0883032l0,-0.938584c-0.00165827,-0.077939,-0.0286052,-0.143855,-0.0812554,-0.194847c-0.0534793,-0.0530648,-0.117323,-0.0795972,-0.191116,-0.0795972c-0.0783534,0,-0.14427,0.0265324,-0.197749,0.0795972c-0.0522356,0.0522357,-0.0783534,0.114421,-0.0791826,0.187385l0,0.00746224l0,0.850281L7.92116,15.3125z"/>
     <path fill="black" d="M9.3879,14.939c0,0.0281907,0.0111933,0.0572105,0.0331655,0.0866449c0.0410423,0.0543085,0.1053,0.0816701,0.193603,0.0816701c0.0543085,0,0.101984,-0.0124371,0.143441,-0.0381403l0.0762806,0.191116c-0.0655018,0.0348238,-0.139295,0.0518211,-0.219307,0.0518211c-0.126443,0,-0.238791,-0.0460172,-0.337044,-0.139295c-0.0655018,-0.0671602,-0.0986673,-0.145928,-0.0986673,-0.233402c0,-0.00373112,0,-0.00704767,0,-0.00912052c0,-0.157951,0.0804263,-0.268641,0.242937,-0.335386l0.514479,-0.213918c0,-0.0787681,-0.0261178,-0.146757,-0.0795971,-0.200651s-0.120639,-0.0812555,-0.20148,-0.0812555c-0.0704766,0,-0.133076,0.0261178,-0.187385,0.0791827c-0.051821,0.0514066,-0.0795971,0.11525,-0.0804263,0.194847l0,0.018241l-0.203138,0.090376l0,-0.112348c0,-0.117738,0.0509919,-0.232159,0.152147,-0.339117c0.0866448,-0.0912052,0.195676,-0.135564,0.327094,-0.135564c0.131004,0,0.243766,0.045188,0.337044,0.138466c0.0936924,0.0936926,0.139295,0.204797,0.139295,0.337045l0,0.854427l-0.202724,0.0883032l0,-0.710157l-0.41747,0.169559C9.43143,14.8134,9.3879,14.8698,9.3879,14.939z"/>
     <path fill="black" d="M10.445,15.3125l0,-0.941486c0,-0.131418,0.0460171,-0.243767,0.13971,-0.337045c0.0928633,-0.0928635,0.204382,-0.139295,0.337044,-0.139295c0.133076,0,0.247083,0.0464317,0.337044,0.139295c0.0949361,0.09618,0.140953,0.208943,0.140953,0.337045l0,0.0053894l-0.202724,0.0891323l0,-0.0907906c-0.00165827,-0.0783535,-0.0277761,-0.143855,-0.0804263,-0.195262c-0.0543085,-0.0526503,-0.117323,-0.0791827,-0.191116,-0.0791827c-0.0775243,0,-0.143026,0.0265324,-0.19692,0.0791827c-0.0543085,0.0534794,-0.0800117,0.116494,-0.0800117,0.191531c0,0.00165828,0,0.00290198,0,0.00373112l0,0.850281L10.445,15.3125z"/>
     <path fill="black" d="M12.6617,13.3989l0,1.43773c0,0.130589,-0.0464317,0.243767,-0.140539,0.337045c-0.094107,0.0928635,-0.20604,0.138466,-0.337459,0.138466c-0.130589,0,-0.243766,-0.0456026,-0.337044,-0.138466c-0.0932779,-0.0936926,-0.139295,-0.205626,-0.139295,-0.337045l0,-0.465976c0,-0.131004,0.0460171,-0.243767,0.139295,-0.337045c0.0928633,-0.0936926,0.204797,-0.139295,0.337044,-0.139295c0.103642,0,0.196091,0.0277761,0.276103,0.0858158l0,-0.492508L12.6617,13.3989zM11.9101,14.832c0,0.077939,0.0277761,0.143441,0.0849865,0.195677c0.0580396,0.0526503,0.122298,0.0787681,0.19692,0.0787681c0.0708912,0,0.132662,-0.0261178,0.186141,-0.0787681c0.0526502,-0.0518211,0.0791826,-0.116494,0.08167,-0.195677l0,-0.458099c-0.00248741,-0.077939,-0.0290198,-0.143441,-0.08167,-0.194847c-0.0534793,-0.0530648,-0.121469,-0.0791827,-0.20148,-0.0791827c-0.0708912,0,-0.132662,0.0261178,-0.186141,0.0791827c-0.0522356,0.0522357,-0.0783534,0.11525,-0.0791826,0.187385l0,0.00746224l0,0.458099L11.9101,14.832z"/>
     <path fill="black" d="M12.8574,14.9676L12.8574,13.9834l0.202309,-0.0891323l-0.00124371,1.0671c0,0.0431152,0.0140953,0.077939,0.0427005,0.108617c0.0269469,0.0281907,0.060527,0.0431152,0.0982527,0.0431152c0.0402131,0,0.0742077,-0.0145099,0.101155,-0.0431152c0.0286052,-0.0306781,0.0431151,-0.066331,0.0431151,-0.107788L13.3437,14.9618l0.00165827,-0.977968l0.202309,-0.0891323l-0.00207284,1.0671c0,0.0431152,0.0140953,0.077939,0.0427005,0.107788s0.060527,0.0439443,0.0986673,0.0439443c0.0389694,0,0.072964,-0.0145099,0.10074,-0.0439443c0.0281906,-0.0286053,0.0431151,-0.0646728,0.0431151,-0.107788l0.00207284,-0.977968l0.201895,-0.0891323l0,1.07373c0,0.0949363,-0.0331655,0.176606,-0.101155,0.242937c-0.0667455,0.0679893,-0.148415,0.101155,-0.243766,0.101155c-0.0986673,0,-0.181166,-0.0331655,-0.244595,-0.0974237c-0.0671601,0.0642582,-0.148415,0.0974237,-0.242937,0.0974237c-0.101155,0,-0.183654,-0.0331655,-0.247912,-0.0974237C12.8914,15.1471,12.8583,15.065,12.8574,14.9676z"/>
     <path fill="black" d="M14.4344,14.939c0,0.0281907,0.00994964,0.0572105,0.0323363,0.0866449c0.0410423,0.0543085,0.1053,0.0816701,0.194433,0.0816701c0.0538939,0,0.101984,-0.0124371,0.143441,-0.0381403l0.0762806,0.191116c-0.0663309,0.0348238,-0.139295,0.0518211,-0.218478,0.0518211c-0.127272,0,-0.238791,-0.0460172,-0.337044,-0.139295c-0.0655018,-0.0671602,-0.0986673,-0.145928,-0.0986673,-0.233402c0,-0.00373112,0,-0.00704767,0,-0.00912052c0,-0.157951,0.0800117,-0.268641,0.242108,-0.335386l0.514894,-0.213918c0,-0.0787681,-0.0265324,-0.146757,-0.0800117,-0.200651c-0.0526502,-0.0543085,-0.11981,-0.0812555,-0.200651,-0.0812555c-0.0708912,0,-0.133491,0.0261178,-0.18697,0.0791827c-0.0526502,0.0514066,-0.0791826,0.11525,-0.0808408,0.194847l0,0.018241l-0.202309,0.090376l0,-0.112348c0,-0.117738,0.0505773,-0.232159,0.151317,-0.339117c0.0858156,-0.0912052,0.195676,-0.135564,0.326265,-0.135564c0.131833,0,0.24501,0.045188,0.337044,0.138466c0.0928633,0.0936926,0.139295,0.204797,0.139295,0.337045l0,0.854427l-0.202724,0.0883032l0,-0.710157l-0.417056,0.169559C14.478,14.8134,14.4344,14.8698,14.4344,14.939z"/>
     <path fill="black" d="M15.492,15.3125l0,-0.941486c0,-0.131418,0.0460171,-0.243767,0.139295,-0.337045c0.0932779,-0.0928635,0.205211,-0.139295,0.337044,-0.139295c0.133906,0,0.247083,0.0464317,0.337873,0.139295c0.0936924,0.09618,0.140539,0.208943,0.140539,0.337045l0,0.0053894l-0.202309,0.0891323l0,-0.0907906c-0.00165827,-0.0783535,-0.0277761,-0.143855,-0.0808408,-0.195262c-0.0543085,-0.0526503,-0.117323,-0.0791827,-0.191116,-0.0791827c-0.0775243,0,-0.142612,0.0265324,-0.19692,0.0791827c-0.0543085,0.0534794,-0.0808408,0.116494,-0.0808408,0.191531c0,0.00165828,0,0.00290198,0,0.00373112l0,0.850281L15.492,15.3125z"/>
     <path fill="black" d="M17.2378,15.1073c0.0708912,0,0.132662,-0.0265324,0.187385,-0.0791827c0.0522356,-0.0518211,0.078768,-0.116494,0.0804263,-0.195262l0,-0.0186556l0.202309,-0.0891323l0,0.111519c0,0.117738,-0.0505773,0.232159,-0.151317,0.338703c-0.0858156,0.0920343,-0.195676,0.136808,-0.326265,0.136808c-0.131833,0,-0.244595,-0.0460172,-0.337044,-0.139295s-0.13888,-0.204797,-0.13888,-0.337045l0,-0.465976c0,-0.131004,0.0460171,-0.243767,0.13888,-0.337045c0.0928633,-0.0936926,0.205211,-0.140124,0.337044,-0.140124c0.126443,0,0.238791,0.0464317,0.337044,0.140124c0.0949361,0.0874741,0.140539,0.199408,0.140539,0.337045l0,0.118981L16.9558,14.8233c0,0.0800118,0.0261178,0.147172,0.0791826,0.201895C17.0889,15.0795,17.1569,15.1073,17.2378,15.1073zM17.2228,14.0999c-0.0708912,0,-0.133076,0.0261178,-0.185727,0.0791827c-0.0534793,0.0534794,-0.0800117,0.116908,-0.0800117,0.191531c0,0.00165828,0,0.00290198,0,0.00373112l0,0.228013l0.548059,-0.243767c-0.00414568,-0.0713059,-0.0306781,-0.130175,-0.078768,-0.179094C17.3704,14.126,17.3033,14.0999,17.2228,14.0999z"/>
     <path fill="black" stroke="black" stroke-width="0.0829137" d="M2.25194,13.8545c-0.131004,0,-0.244181,0.0464317,-0.337044,0.139295c-0.0932779,0.0928635,-0.139295,0.205212,-0.139295,0.337045l0,0.465561c0,0.130589,0.0460171,0.244181,0.139295,0.337045c0.0928633,0.093278,0.204797,0.138881,0.337044,0.138881c0.132247,0,0.244595,-0.0456026,0.337873,-0.138881c0.0936924,-0.0928635,0.140539,-0.205212,0.140539,-0.337045l0,-0.465561c0,-0.131833,-0.0468462,-0.244596,-0.140539,-0.337045C2.49612,13.9013,2.38335,13.8545,2.25194,13.8545zM2.52804,14.7935c-0.00165827,0.077939,-0.0281906,0.143855,-0.0808408,0.195677c-0.0543085,0.0530648,-0.116494,0.0787681,-0.187385,0.0787681c-0.0733786,0,-0.13888,-0.0261178,-0.196505,-0.0787681c-0.0567959,-0.0530648,-0.0849865,-0.117738,-0.0849865,-0.195677l0,0l0,-0.457684l0,-0.00870595c0.000829137,-0.0729641,0.0269469,-0.13432,0.0791826,-0.186971c0.0530647,-0.0534794,0.11525,-0.0791827,0.186141,-0.0791827c0.0808408,0,0.148001,0.0261178,0.202309,0.0791827c0.0526502,0.0518211,0.0795971,0.116494,0.08167,0.195677L2.52804,14.7935L2.52804,14.7935z"/>
     <path fill="black" stroke="black" stroke-width="0.0829137" d="M3.58146,13.8545c-0.131833,0,-0.244595,0.0464317,-0.338288,0.139295c-0.0936924,0.0928635,-0.140124,0.205212,-0.140124,0.337045l0,1.43731l0.202309,-0.0891323l0,-0.492508c0.0795971,0.0580397,0.17246,0.0858158,0.276103,0.0858158c0.131418,0,0.243766,-0.0456026,0.337044,-0.138881c0.0932779,-0.0928635,0.139295,-0.205212,0.139295,-0.337045l0,-0.465561c0,-0.131833,-0.0464317,-0.244596,-0.139295,-0.337045C3.82522,13.9009,3.71246,13.8545,3.58146,13.8545zM3.85424,14.7935c-0.00165827,0.077939,-0.0281906,0.143855,-0.0808408,0.195677c-0.0543085,0.0530648,-0.116494,0.0787681,-0.187799,0.0787681c-0.072964,0,-0.138466,-0.0261178,-0.196505,-0.0787681c-0.0567959,-0.0530648,-0.0845719,-0.117738,-0.0845719,-0.195677l0,0l0,-0.457684l0,-0.00870595c0.000829137,-0.0729641,0.0273615,-0.13432,0.0795971,-0.186971c0.0530647,-0.0534794,0.114421,-0.0791827,0.185727,-0.0791827c0.08167,0,0.14883,0.0261178,0.203138,0.0791827c0.051821,0.0518211,0.078768,0.116494,0.0804263,0.195677L3.85424,14.7935L3.85424,14.7935z"/>
     <path fill="black" stroke="black" stroke-width="0.0829137" d="M4.90517,13.8545c-0.131004,0,-0.244181,0.0464317,-0.337044,0.139295c-0.0936924,0.0928635,-0.139295,0.205212,-0.139295,0.337045l0,0.465561c0,0.130589,0.0460171,0.244181,0.139295,0.337045c0.0924487,0.093278,0.204797,0.138881,0.337044,0.138881s0.24045,-0.0447734,0.32668,-0.136808c0.101569,-0.107788,0.151732,-0.220551,0.151732,-0.338703l0,-0.112348l-0.202309,0.090376l0,0.0178265c-0.00124371,0.0783535,-0.0281906,0.14427,-0.0808408,0.195262c-0.0543085,0.053894,-0.116494,0.0795972,-0.187799,0.0795972c-0.0808408,0,-0.147586,-0.026947,-0.200651,-0.0812555c-0.0534793,-0.0543085,-0.0800117,-0.122298,-0.0800117,-0.201481l0.752027,-0.335386l0,-0.118981c0,-0.136808,-0.0464317,-0.249571,-0.140124,-0.337045C5.14438,13.9009,5.03162,13.8545,4.90517,13.8545zM4.63156,14.5626l0,-0.228013c0,-0.000829138,0,-0.00290198,0,-0.00456026c0,-0.0737933,0.0265324,-0.137637,0.0791826,-0.191116c0.0534793,-0.0534794,0.115665,-0.0791827,0.186141,-0.0791827c0.0812554,0,0.148415,0.0261178,0.203138,0.0791827c0.0489191,0.0485046,0.0754514,0.108617,0.0791826,0.179508L4.63156,14.5626z"/>
     <path fill="black" stroke="black" stroke-width="0.0829137" d="M6.57008,13.9938c-0.0945216,-0.0928635,-0.207284,-0.138881,-0.337873,-0.138881c-0.131418,0,-0.244181,0.0460172,-0.337044,0.138881c-0.0928633,0.0928635,-0.13888,0.205212,-0.13888,0.337045l0,0.941486l0.202724,-0.0887178l0,-0.849866c0,-0.000829138,0,-0.00207284,0,-0.00373112c0,-0.0754516,0.0265324,-0.137637,0.0808408,-0.190287c0.0551376,-0.0543085,0.120639,-0.0804264,0.196091,-0.0804264c0.0733786,0,0.137222,0.0261178,0.191531,0.0795972c0.051821,0.050992,0.078768,0.11525,0.0808408,0.194847l0,0.938584l0.202724,-0.0887178l0,-0.853598C6.7102,14.199,6.66336,14.0866,6.57008,13.9938z"/>
    </g>
   </g>
  </g>
  <g partID="7784002">
   <g transform="translate(81.0186,60.8168)">
    <g transform="matrix(0,1,-1,0,0,0)">
     <g id="silkscreen">
      <line stroke="black" y1="1.44" stroke-width="0.72" x1="1.44" y2="23.04" x2="1.44"/>
      <line stroke="black" y1="23.04" stroke-width="0.72" x1="1.44" y2="23.04" x2="8.64"/>
      <line stroke="black" y1="23.04" stroke-width="0.72" x1="8.64" y2="1.44" x2="8.64"/>
      <line stroke="black" y1="1.44" stroke-width="0.72" x1="8.64" y2="1.44" x2="1.44"/>
      <line stroke="black" y1="3.96" stroke-width="0.36" x1="1.44" y2="1.44" x2="3.96"/>
      <!-- 120 -->
     </g>
    </g>
   </g>
  </g>
  <g id="partLabel" partID="8217870">
   <g transform="translate(41.0532,11.092)">
    <g fill="#000000" font-family="'OCRA'" stroke="none" font-style="normal" fill-opacity="1" font-weight="normal" id="silkscreenLabel" font-size="3">
     <text x="0" y="2.25">LED1</text>
    </g>
   </g>
  </g>
  <g id="partLabel" partID="8217930">
   <g transform="translate(41.0532,37.7376)">
    <g fill="#000000" font-family="'OCRA'" stroke="none" font-style="normal" fill-opacity="1" font-weight="normal" id="silkscreenLabel" font-size="3">
     <text x="0" y="2.25">LED2</text>
    </g>
   </g>
  </g>
  <g id="partLabel" partID="7978000">
   <g transform="translate(82.8426,88.9696)">
    <g fill="#000000" font-family="'OCRA'" stroke="none" font-style="normal" fill-opacity="1" font-weight="normal" id="silkscreenLabel" font-size="3">
     <text x="0" y="2.25">RL_Vcc</text>
    </g>
   </g>
  </g>
  <g id="partLabel" partID="7979060">
   <g transform="translate(90.0656,91.1616)">
    <g fill="#000000" font-family="'OCRA'" stroke="none" font-style="normal" fill-opacity="1" font-weight="normal" id="silkscreenLabel" font-size="3">
     <text x="0" y="2.25">LCD_VDD</text>
    </g>
   </g>
  </g>
  <g id="partLabel" partID="7784000">
   <g transform="translate(63.1298,59.5192)">
    <g fill="#000000" font-family="'OCRA'" stroke="none" font-style="normal" fill-opacity="1" font-weight="normal" id="silkscreenLabel" font-size="3">
     <text x="0" y="2.25">18B20</text>
    </g>
   </g>
  </g>
  <g id="partLabel" partID="7717500">
   <g transform="translate(42.5336,70.2784)">
    <g fill="#000000" font-family="'OCRA'" stroke="none" font-style="normal" fill-opacity="1" font-weight="normal" id="silkscreenLabel" font-size="3">
     <text x="0" y="2.25">LCD_LED-</text>
    </g>
   </g>
  </g>
  <g id="partLabel" partID="7717480">
   <g transform="translate(20.7491,91.0936)">
    <g fill="#000000" font-family="'OCRA'" stroke="none" font-style="normal" fill-opacity="1" font-weight="normal" id="silkscreenLabel" font-size="3">
     <text x="0" y="2.25">LCD_E</text>
    </g>
   </g>
  </g>
  <g id="partLabel" partID="7717560">
   <g transform="translate(10.2946,64.4592)">
    <g fill="#000000" font-family="'OCRA'" stroke="none" font-style="normal" fill-opacity="1" font-weight="normal" id="silkscreenLabel" font-size="3">
     <text x="0" y="2.25">LCD_DB4</text>
    </g>
   </g>
  </g>
  <g id="partLabel" partID="7717600">
   <g transform="translate(45.7886,88.94)">
    <g fill="#000000" font-family="'OCRA'" stroke="none" font-style="normal" fill-opacity="1" font-weight="normal" id="silkscreenLabel" font-size="3">
     <text x="0" y="2.25">LCD_DB5</text>
    </g>
   </g>
  </g>
  <g id="partLabel" partID="7717620">
   <g transform="translate(2.13592,91.1808)">
    <g fill="#000000" font-family="'OCRA'" stroke="none" font-style="normal" fill-opacity="1" font-weight="normal" id="silkscreenLabel" font-size="3">
     <text x="0" y="2.25">LCD_DB6</text>
    </g>
   </g>
  </g>
  <g id="partLabel" partID="6832280">
   <g transform="translate(98.3694,43.892)">
    <g fill="#000000" font-family="'OCRA'" stroke="none" font-style="normal" fill-opacity="1" font-weight="normal" id="silkscreenLabel" font-size="3">
     <text x="0" y="2.25">R5</text>
    </g>
   </g>
  </g>
  <g id="partLabel" partID="7717460">
   <g transform="translate(11.2893,89.0824)">
    <g fill="#000000" font-family="'OCRA'" stroke="none" font-style="normal" fill-opacity="1" font-weight="normal" id="silkscreenLabel" font-size="3">
     <text x="0" y="2.25">LCD_RS</text>
    </g>
   </g>
  </g>
  <g id="partLabel" partID="7716050">
   <g transform="translate(37.993,91.0848)">
    <g fill="#000000" font-family="'OCRA'" stroke="none" font-style="normal" fill-opacity="1" font-weight="normal" id="silkscreenLabel" font-size="3">
     <text x="0" y="2.25">RL_RL1</text>
    </g>
   </g>
  </g>
  <g id="partLabel" partID="7717440">
   <g transform="translate(80.9944,33.3128)">
    <g fill="#000000" font-family="'OCRA'" stroke="none" font-style="normal" fill-opacity="1" font-weight="normal" id="silkscreenLabel" font-size="3">
     <text x="0" y="2.25">LCD_V0</text>
    </g>
   </g>
  </g>
  <g id="partLabel" partID="7716140">
   <g transform="translate(65.7586,88.8424)">
    <g fill="#000000" font-family="'OCRA'" stroke="none" font-style="normal" fill-opacity="1" font-weight="normal" id="silkscreenLabel" font-size="3">
     <text x="0" y="2.25">RL_GND</text>
    </g>
   </g>
  </g>
  <g id="partLabel" partID="7717360">
   <g transform="translate(72.5365,91.1648)">
    <g fill="#000000" font-family="'OCRA'" stroke="none" font-style="normal" fill-opacity="1" font-weight="normal" id="silkscreenLabel" font-size="3">
     <text x="0" y="2.25">LCD_GND</text>
    </g>
   </g>
  </g>
  <g id="partLabel" partID="7717640">
   <g transform="translate(55.2311,91.0984)">
    <g fill="#000000" font-family="'OCRA'" stroke="none" font-style="normal" fill-opacity="1" font-weight="normal" id="silkscreenLabel" font-size="3">
     <text x="0" y="2.25">LCD_DB7</text>
    </g>
   </g>
  </g>
  <g id="partLabel" partID="7716180">
   <g transform="translate(29.003,88.888)">
    <g fill="#000000" font-family="'OCRA'" stroke="none" font-style="normal" fill-opacity="1" font-weight="normal" id="silkscreenLabel" font-size="3">
     <text x="0" y="2.25">RL_RL2</text>
    </g>
   </g>
  </g>
  <g partID="7838502">
   <g transform="translate(25.1082,48.0102)">
    <g transform="matrix(-1,0,0,-1,0,0)">
     <g flipped="1" id="copper1">
      <g transform="matrix(-1, 0, 0, 1, 23.2668, 0)">
       <g>
        <g>
         <g>
          <circle fill="white" cx="20.8462" cy="15.6024" stroke="white" id="connector0pad" r="1.98" stroke-width="2.16"/>
          <circle fill="white" cx="2.42064" cy="15.6024" stroke="white" id="connector1pad" r="1.98" stroke-width="2.16"/>
          <circle fill="white" cx="20.8462" cy="2.84616" stroke="white" id="connector2pad" r="1.98" stroke-width="2.16"/>
          <circle fill="white" cx="2.42064" cy="2.84616" stroke="white" id="connector3pad" r="1.98" stroke-width="2.16"/>
         </g>
         <g>
          <g id="copper0">
           <circle fill="white" cx="20.8462" cy="15.6024" stroke="white" id="connector0pad" r="1.98" stroke-width="2.16"/>
           <circle fill="white" cx="2.42064" cy="15.6024" stroke="white" id="connector1pad" r="1.98" stroke-width="2.16"/>
           <circle fill="white" cx="20.8462" cy="2.84616" stroke="white" id="connector2pad" r="1.98" stroke-width="2.16"/>
           <circle fill="white" cx="2.42064" cy="2.84616" stroke="white" id="connector3pad" r="1.98" stroke-width="2.16"/>
          </g>
         </g>
        </g>
       </g>
      </g>
     </g>
    </g>
   </g>
  </g>
  <g partID="8217930">
   <g transform="translate(36.6858,35.5264)">
    <g id="copper1">
     <rect width="2.26772" x="0.458079" y="0" fill="white" connectorname="C" height="2.26772" stroke="white" id="connector1pad" stroke-linecap="round" stroke-width="0.72"/>
     <rect width="2.26772" x="0.458079" y="4.25197" fill="white" connectorname="A" height="2.26772" stroke="white" id="connector0pad" stroke-linecap="round" stroke-width="0.72"/>
     <g id="copper0"/>
    </g>
   </g>
  </g>
  <g partID="8217870">
   <g transform="translate(36.6858,8.8808)">
    <g id="copper1">
     <rect width="2.26772" x="0.458079" y="0" fill="white" connectorname="C" height="2.26772" stroke="white" id="connector1pad" stroke-linecap="round" stroke-width="0.72"/>
     <rect width="2.26772" x="0.458079" y="4.25197" fill="white" connectorname="A" height="2.26772" stroke="white" id="connector0pad" stroke-linecap="round" stroke-width="0.72"/>
     <g id="copper0"/>
    </g>
   </g>
  </g>
  <g partID="7838302">
   <g transform="translate(25.1082,21.6478)">
    <g transform="matrix(-1,0,0,-1,0,0)">
     <g flipped="1" id="copper1">
      <g transform="matrix(-1, 0, 0, 1, 23.2668, 0)">
       <g>
        <g>
         <g>
          <circle fill="white" cx="20.8462" cy="15.6024" stroke="white" id="connector0pad" r="1.98" stroke-width="2.16"/>
          <circle fill="white" cx="2.42064" cy="15.6024" stroke="white" id="connector1pad" r="1.98" stroke-width="2.16"/>
          <circle fill="white" cx="20.8462" cy="2.84616" stroke="white" id="connector2pad" r="1.98" stroke-width="2.16"/>
          <circle fill="white" cx="2.42064" cy="2.84616" stroke="white" id="connector3pad" r="1.98" stroke-width="2.16"/>
         </g>
         <g>
          <g id="copper0">
           <circle fill="white" cx="20.8462" cy="15.6024" stroke="white" id="connector0pad" r="1.98" stroke-width="2.16"/>
           <circle fill="white" cx="2.42064" cy="15.6024" stroke="white" id="connector1pad" r="1.98" stroke-width="2.16"/>
           <circle fill="white" cx="20.8462" cy="2.84616" stroke="white" id="connector2pad" r="1.98" stroke-width="2.16"/>
           <circle fill="white" cx="2.42064" cy="2.84616" stroke="white" id="connector3pad" r="1.98" stroke-width="2.16"/>
          </g>
         </g>
        </g>
       </g>
      </g>
     </g>
    </g>
   </g>
  </g>
  <g partID="8164301">
   <g transform="translate(28.765,45.8872)">
    <g id="copper1">
     <circle fill="white" cx="3.01733" cy="3.01733" stroke="white" r="0.992124" id="connector0pin" stroke-width="1.57039"/>
    </g>
   </g>
  </g>
  <g partID="8166991">
   <g transform="translate(46.5724,63.1608)">
    <g id="copper1">
     <circle fill="white" cx="3.01733" cy="3.01733" stroke="white" r="0.992124" id="connector0pin" stroke-width="1.57039"/>
    </g>
   </g>
  </g>
  <g partID="8155071">
   <g transform="translate(28.6867,19.1688)">
    <g id="copper1">
     <circle fill="white" cx="3.01732" cy="3.01732" stroke="white" r="0.992124" id="connector0pin" stroke-width="1.57039"/>
    </g>
   </g>
  </g>
  <g partID="7717641">
   <g transform="translate(57.3322,92.2816)">
    <g id="copper1">
     <g id="copper0">
      <circle fill="white" cx="5.04" cy="5.04" stroke="white" id="connector0pin" r="2.088" stroke-width="2.16"/>
     </g>
    </g>
   </g>
  </g>
  <g partID="7717621">
   <g transform="translate(3.75744,92.2816)">
    <g id="copper1">
     <g id="copper0">
      <circle fill="white" cx="5.04" cy="5.04" stroke="white" id="connector0pin" r="2.088" stroke-width="2.16"/>
     </g>
    </g>
   </g>
  </g>
  <g partID="7717601">
   <g transform="translate(48.2614,92.2816)">
    <g id="copper1">
     <g id="copper0">
      <circle fill="white" cx="5.04" cy="5.04" stroke="white" id="connector0pin" r="2.088" stroke-width="2.16"/>
     </g>
    </g>
   </g>
  </g>
  <g partID="7717561">
   <g transform="translate(24.4503,63.368)">
    <g id="copper1">
     <g id="copper0">
      <circle fill="white" cx="5.04" cy="5.04" stroke="white" id="connector0pin" r="2.088" stroke-width="2.16"/>
     </g>
    </g>
   </g>
  </g>
  <g partID="7717501">
   <g transform="translate(32.6708,63.368)">
    <g id="copper1">
     <g id="copper0">
      <circle fill="white" cx="5.04" cy="5.04" stroke="white" id="connector0pin" r="2.088" stroke-width="2.16"/>
     </g>
    </g>
   </g>
  </g>
  <g partID="7717481">
   <g transform="translate(21.3322,92.2816)">
    <g id="copper1">
     <g id="copper0">
      <circle fill="white" cx="5.04" cy="5.04" stroke="white" id="connector0pin" r="2.088" stroke-width="2.16"/>
     </g>
    </g>
   </g>
  </g>
  <g partID="7717461">
   <g transform="translate(12.5449,92.2816)">
    <g id="copper1">
     <g id="copper0">
      <circle fill="white" cx="5.04" cy="5.04" stroke="white" id="connector0pin" r="2.088" stroke-width="2.16"/>
     </g>
    </g>
   </g>
  </g>
  <g partID="7717441">
   <g transform="translate(93.0488,31.904)">
    <g id="copper1">
     <g id="copper0">
      <circle fill="white" cx="5.04" cy="5.04" stroke="white" id="connector0pin" r="2.088" stroke-width="2.16"/>
     </g>
    </g>
   </g>
  </g>
  <g partID="7979061">
   <g transform="translate(92.4818,92.2816)">
    <g id="copper1">
     <g id="copper0">
      <circle fill="white" cx="5.04" cy="5.04" stroke="white" id="connector0pin" r="2.088" stroke-width="2.16"/>
     </g>
    </g>
   </g>
  </g>
  <g partID="7717361">
   <g transform="translate(74.6236,92.2816)">
    <g id="copper1">
     <g id="copper0">
      <circle fill="white" cx="5.04" cy="5.04" stroke="white" id="connector0pin" r="2.088" stroke-width="2.16"/>
     </g>
    </g>
   </g>
  </g>
  <g partID="7716181">
   <g transform="translate(30.1197,92.2816)">
    <g transform="matrix(1,4.26227e-18,-4.26227e-18,1,0,0)">
     <g id="copper1">
      <g id="copper0">
       <circle fill="white" cx="5.04" cy="5.04" stroke="white" id="connector0pin" r="2.088" stroke-width="2.16"/>
      </g>
     </g>
    </g>
   </g>
  </g>
  <g partID="7978001">
   <g transform="translate(83.6945,92.2816)">
    <g id="copper1">
     <g id="copper0">
      <circle fill="white" cx="5.04" cy="5.04" stroke="white" id="connector0pin" r="2.088" stroke-width="2.16"/>
     </g>
    </g>
   </g>
  </g>
  <g partID="7716141">
   <g transform="translate(66.6866,92.2816)">
    <g id="copper1">
     <g id="copper0">
      <circle fill="white" cx="5.04" cy="5.04" stroke="white" id="connector0pin" r="2.088" stroke-width="2.16"/>
     </g>
    </g>
   </g>
  </g>
  <g partID="7716051">
   <g transform="translate(39.1905,92.2816)">
    <g id="copper1">
     <g id="copper0">
      <circle fill="white" cx="5.04" cy="5.04" stroke="white" id="connector0pin" r="2.088" stroke-width="2.16"/>
     </g>
    </g>
   </g>
  </g>
  <g partID="6832281">
   <g transform="translate(80.671,67.968)">
    <g transform="matrix(0,-1,1,0,0,0)">
     <g id="copper1">
      <g id="copper0">
       <circle fill="white" cx="3.528" cy="17.928" stroke="white" id="connector2pad" r="2.52" stroke-width="2.808"/>
       <rect width="5.04" x="1.008" y="1.008" fill="white" height="5.04" stroke="white" stroke-width="2.808"/>
       <circle fill="white" cx="3.528" cy="3.528" stroke="white" id="connector0pad" r="2.52" stroke-width="2.808"/>
       <circle fill="white" cx="17.928" cy="10.728" stroke="white" id="connector1pad" r="2.52" stroke-width="2.808"/>
      </g>
     </g>
    </g>
   </g>
  </g>
  <g partID="7838102">
   <g transform="translate(74.7145,48.011)">
    <g transform="matrix(-1,0,0,-1,0,0)">
     <g flipped="1" id="copper1">
      <g transform="matrix(-1, 0, 0, 1, 23.2668, 0)">
       <g>
        <g>
         <g>
          <circle fill="white" cx="20.8462" cy="15.6024" stroke="white" id="connector0pad" r="1.98" stroke-width="2.16"/>
          <circle fill="white" cx="2.42064" cy="15.6024" stroke="white" id="connector1pad" r="1.98" stroke-width="2.16"/>
          <circle fill="white" cx="20.8462" cy="2.84616" stroke="white" id="connector2pad" r="1.98" stroke-width="2.16"/>
          <circle fill="white" cx="2.42064" cy="2.84616" stroke="white" id="connector3pad" r="1.98" stroke-width="2.16"/>
         </g>
         <g>
          <g id="copper0">
           <circle fill="white" cx="20.8462" cy="15.6024" stroke="white" id="connector0pad" r="1.98" stroke-width="2.16"/>
           <circle fill="white" cx="2.42064" cy="15.6024" stroke="white" id="connector1pad" r="1.98" stroke-width="2.16"/>
           <circle fill="white" cx="20.8462" cy="2.84616" stroke="white" id="connector2pad" r="1.98" stroke-width="2.16"/>
           <circle fill="white" cx="2.42064" cy="2.84616" stroke="white" id="connector3pad" r="1.98" stroke-width="2.16"/>
          </g>
         </g>
        </g>
       </g>
      </g>
     </g>
    </g>
   </g>
  </g>
  <g partID="7837862">
   <g transform="translate(74.7145,21.6478)">
    <g transform="matrix(-1,0,0,-1,0,0)">
     <g flipped="1" id="copper1">
      <g transform="matrix(-1, 0, 0, 1, 23.2668, 0)">
       <g>
        <g>
         <g>
          <circle fill="white" cx="20.8462" cy="15.6024" stroke="white" id="connector0pad" r="1.98" stroke-width="2.16"/>
          <circle fill="white" cx="2.42064" cy="15.6024" stroke="white" id="connector1pad" r="1.98" stroke-width="2.16"/>
          <circle fill="white" cx="20.8462" cy="2.84616" stroke="white" id="connector2pad" r="1.98" stroke-width="2.16"/>
          <circle fill="white" cx="2.42064" cy="2.84616" stroke="white" id="connector3pad" r="1.98" stroke-width="2.16"/>
         </g>
         <g>
          <g id="copper0">
           <circle fill="white" cx="20.8462" cy="15.6024" stroke="white" id="connector0pad" r="1.98" stroke-width="2.16"/>
           <circle fill="white" cx="2.42064" cy="15.6024" stroke="white" id="connector1pad" r="1.98" stroke-width="2.16"/>
           <circle fill="white" cx="20.8462" cy="2.84616" stroke="white" id="connector2pad" r="1.98" stroke-width="2.16"/>
           <circle fill="white" cx="2.42064" cy="2.84616" stroke="white" id="connector3pad" r="1.98" stroke-width="2.16"/>
          </g>
         </g>
        </g>
       </g>
      </g>
     </g>
    </g>
   </g>
  </g>
  <g partID="7303291">
   <g transform="translate(-6.936,65.7304)">
    <g transform="matrix(1, 0, 0, 1, 0, -809.49)">
     <g id="copper1">
      <g transform="matrix(1, 0, 0, 1, -3.60117, 796.891)">
       <g stroke-opacity="1" fill="none" stroke="black" style="display:inline">
        <g transform="matrix(1, 0, 0, 1, -14.4, 0)">
         <path stroke-opacity="1" fill="white" stroke="white" style="stroke-linecap:round;stroke-linejoin:miter;stroke-miterlimit:4;stroke-dasharray:none;display:inline" id="connector5pad" stroke-width="2.16" d="m109.8,25.2a1.8,1.8,0,1,1,-3.6,0,1.8,1.8,0,1,1,3.6,0z"/>
        </g>
        <g transform="matrix(1, 0, 0, 1, -21.6, 0)">
         <path stroke-opacity="1" fill="white" stroke="white" style="stroke-linecap:round;stroke-linejoin:miter;stroke-miterlimit:4;stroke-dasharray:none;display:inline" id="connector7pad" stroke-width="2.16" d="m109.8,25.2a1.8,1.8,0,1,1,-3.6,0,1.8,1.8,0,1,1,3.6,0z"/>
        </g>
        <g transform="matrix(1, 0, 0, 1, -28.8, 0)">
         <path stroke-opacity="1" fill="white" stroke="white" style="stroke-linecap:round;stroke-linejoin:miter;stroke-miterlimit:4;stroke-dasharray:none;display:inline" id="connector9pad" stroke-width="2.16" d="m109.8,25.2a1.8,1.8,0,1,1,-3.6,0,1.8,1.8,0,1,1,3.6,0z"/>
        </g>
        <g transform="matrix(1, 0, 0, 1, -50.4, 0)">
         <path stroke-opacity="1" fill="white" stroke="white" style="stroke-linecap:round;stroke-linejoin:miter;stroke-miterlimit:4;stroke-dasharray:none;display:inline" id="connector15pad" stroke-width="2.16" d="m109.8,25.2a1.8,1.8,0,1,1,-3.6,0,1.8,1.8,0,1,1,3.6,0z"/>
        </g>
        <g transform="matrix(1, 0, 0, 1, -57.6, 0)">
         <path stroke-opacity="1" fill="white" stroke="white" style="stroke-linecap:round;stroke-linejoin:miter;stroke-miterlimit:4;stroke-dasharray:none;display:inline" id="connector17pad" stroke-width="2.16" d="m109.8,25.2a1.8,1.8,0,1,1,-3.6,0,1.8,1.8,0,1,1,3.6,0z"/>
        </g>
        <g transform="matrix(1, 0, 0, 1, -64.8, 0)">
         <path stroke-opacity="1" fill="white" stroke="white" style="stroke-linecap:round;stroke-linejoin:miter;stroke-miterlimit:4;stroke-dasharray:none;display:inline" id="connector19pad" stroke-width="2.16" d="m109.8,25.2a1.8,1.8,0,1,1,-3.6,0,1.8,1.8,0,1,1,3.6,0z"/>
        </g>
        <g transform="matrix(1, 0, 0, 1, -36, 0)">
         <path stroke-opacity="1" fill="white" stroke="white" style="stroke-linecap:round;stroke-linejoin:miter;stroke-miterlimit:4;stroke-dasharray:none;display:inline" id="connector11pad" stroke-width="2.16" d="m109.8,25.2a1.8,1.8,0,1,1,-3.6,0,1.8,1.8,0,1,1,3.6,0z"/>
        </g>
        <g transform="matrix(1, 0, 0, 1, -43.2, 0)">
         <path stroke-opacity="1" fill="white" stroke="white" style="stroke-linecap:round;stroke-linejoin:miter;stroke-miterlimit:4;stroke-dasharray:none;display:inline" id="connector13pad" stroke-width="2.16" d="m109.8,25.2a1.8,1.8,0,1,1,-3.6,0,1.8,1.8,0,1,1,3.6,0z"/>
        </g>
        <g transform="matrix(1, 0, 0, 1, -79.2, 0)">
         <path stroke-opacity="1" fill="white" stroke="white" style="stroke-linecap:round;stroke-linejoin:miter;stroke-miterlimit:4;stroke-dasharray:none;display:inline" id="connector23pad" stroke-width="2.16" d="m109.8,25.2a1.8,1.8,0,1,1,-3.6,0,1.8,1.8,0,1,1,3.6,0z"/>
        </g>
        <g transform="matrix(1, 0, 0, 1, -86.4, 0)">
         <path stroke-opacity="1" fill="white" stroke="white" style="stroke-linecap:round;stroke-linejoin:miter;stroke-miterlimit:4;stroke-dasharray:none;display:inline" id="connector25pad" stroke-width="2.16" d="m109.8,25.2a1.8,1.8,0,1,1,-3.6,0,1.8,1.8,0,1,1,3.6,0z"/>
        </g>
        <g transform="matrix(1, 0, 0, 1, -72, 0)">
         <path stroke-opacity="1" fill="white" stroke="white" style="stroke-linecap:round;stroke-linejoin:miter;stroke-miterlimit:4;stroke-dasharray:none;display:inline" id="connector21pad" stroke-width="2.16" d="m109.8,25.2a1.8,1.8,0,1,1,-3.6,0,1.8,1.8,0,1,1,3.6,0z"/>
        </g>
        <g transform="matrix(1, 0, 0, 1, -14.4, 7.2)">
         <path stroke-opacity="1" fill="white" stroke="white" style="stroke-linecap:round;stroke-linejoin:miter;stroke-miterlimit:4;stroke-dasharray:none;display:inline" id="connector6pad" stroke-width="2.16" d="m109.8,25.2a1.8,1.8,0,1,1,-3.6,0,1.8,1.8,0,1,1,3.6,0z"/>
        </g>
        <g transform="matrix(1, 0, 0, 1, -21.6, 7.2)">
         <path stroke-opacity="1" fill="white" stroke="white" style="stroke-linecap:round;stroke-linejoin:miter;stroke-miterlimit:4;stroke-dasharray:none;display:inline" id="connector8pad" stroke-width="2.16" d="m109.8,25.2a1.8,1.8,0,1,1,-3.6,0,1.8,1.8,0,1,1,3.6,0z"/>
        </g>
        <g transform="matrix(1, 0, 0, 1, -28.8, 7.2)">
         <path stroke-opacity="1" fill="white" stroke="white" style="stroke-linecap:round;stroke-linejoin:miter;stroke-miterlimit:4;stroke-dasharray:none;display:inline" id="connector10pad" stroke-width="2.16" d="m109.8,25.2a1.8,1.8,0,1,1,-3.6,0,1.8,1.8,0,1,1,3.6,0z"/>
        </g>
        <g transform="matrix(1, 0, 0, 1, -50.4, 7.2)">
         <path stroke-opacity="1" fill="white" stroke="white" style="stroke-linecap:round;stroke-linejoin:miter;stroke-miterlimit:4;stroke-dasharray:none;display:inline" id="connector16pad" stroke-width="2.16" d="m109.8,25.2a1.8,1.8,0,1,1,-3.6,0,1.8,1.8,0,1,1,3.6,0z"/>
        </g>
        <g transform="matrix(1, 0, 0, 1, -57.6, 7.2)">
         <path stroke-opacity="1" fill="white" stroke="white" style="stroke-linecap:round;stroke-linejoin:miter;stroke-miterlimit:4;stroke-dasharray:none;display:inline" id="connector18pad" stroke-width="2.16" d="m109.8,25.2a1.8,1.8,0,1,1,-3.6,0,1.8,1.8,0,1,1,3.6,0z"/>
        </g>
        <g transform="matrix(1, 0, 0, 1, -64.8, 7.2)">
         <path stroke-opacity="1" fill="white" stroke="white" style="stroke-linecap:round;stroke-linejoin:miter;stroke-miterlimit:4;stroke-dasharray:none;display:inline" id="connector20pad" stroke-width="2.16" d="m109.8,25.2a1.8,1.8,0,1,1,-3.6,0,1.8,1.8,0,1,1,3.6,0z"/>
        </g>
        <g transform="matrix(1, 0, 0, 1, -36, 7.2)">
         <path stroke-opacity="1" fill="white" stroke="white" style="stroke-linecap:round;stroke-linejoin:miter;stroke-miterlimit:4;stroke-dasharray:none;display:inline" id="connector12pad" stroke-width="2.16" d="m109.8,25.2a1.8,1.8,0,1,1,-3.6,0,1.8,1.8,0,1,1,3.6,0z"/>
        </g>
        <g transform="matrix(1, 0, 0, 1, -43.2, 7.2)">
         <path stroke-opacity="1" fill="white" stroke="white" style="stroke-linecap:round;stroke-linejoin:miter;stroke-miterlimit:4;stroke-dasharray:none;display:inline" id="connector14pad" stroke-width="2.16" d="m109.8,25.2a1.8,1.8,0,1,1,-3.6,0,1.8,1.8,0,1,1,3.6,0z"/>
        </g>
        <g transform="matrix(1, 0, 0, 1, -79.2, 7.2)">
         <path stroke-opacity="1" fill="white" stroke="white" style="stroke-linecap:round;stroke-linejoin:miter;stroke-miterlimit:4;stroke-dasharray:none;display:inline" id="connector24pad" stroke-width="2.16" d="m109.8,25.2a1.8,1.8,0,1,1,-3.6,0,1.8,1.8,0,1,1,3.6,0z"/>
        </g>
        <g transform="matrix(1, 0, 0, 1, -86.4, 7.2)">
         <path stroke-opacity="1" fill="white" stroke="white" style="stroke-linecap:round;stroke-linejoin:miter;stroke-miterlimit:4;stroke-dasharray:none;display:inline" id="connector26pad" stroke-width="2.16" d="m109.8,25.2a1.8,1.8,0,1,1,-3.6,0,1.8,1.8,0,1,1,3.6,0z"/>
        </g>
        <g transform="matrix(1, 0, 0, 1, -72, 7.2)">
         <path stroke-opacity="1" fill="white" stroke="white" style="stroke-linecap:round;stroke-linejoin:miter;stroke-miterlimit:4;stroke-dasharray:none;display:inline" id="connector22pad" stroke-width="2.16" d="m109.8,25.2a1.8,1.8,0,1,1,-3.6,0,1.8,1.8,0,1,1,3.6,0z"/>
        </g>
        <g transform="matrix(1, 0, 0, 1, 0, 7.2)">
         <path stroke-opacity="1" fill="white" stroke="white" style="stroke-linecap:round;stroke-linejoin:miter;stroke-miterlimit:4;stroke-dasharray:none;display:inline" id="connector2pad" stroke-width="2.16" d="m109.8,25.2a1.8,1.8,0,1,1,-3.6,0,1.8,1.8,0,1,1,3.6,0z"/>
        </g>
        <g transform="matrix(1, 0, 0, 1, -7.2, 7.2)">
         <path stroke-opacity="1" fill="white" stroke="white" style="stroke-linecap:round;stroke-linejoin:miter;stroke-miterlimit:4;stroke-dasharray:none;display:inline" id="connector4pad" stroke-width="2.16" d="m109.8,25.2a1.8,1.8,0,1,1,-3.6,0,1.8,1.8,0,1,1,3.6,0z"/>
        </g>
        <rect width="3.6" x="106.2" y="23.4" stroke-opacity="1" fill="white" height="3.6" stroke="white" style="stroke-linecap:round;stroke-linejoin:miter;stroke-miterlimit:4;stroke-dasharray:none;display:inline" id="rect4984" stroke-width="2.16"/>
        <path stroke-opacity="1" fill="white" stroke="white" style="stroke-linecap:round;stroke-linejoin:miter;stroke-miterlimit:4;stroke-dasharray:none" id="connector1pad" stroke-width="2.16" d="m109.8,25.2a1.8,1.8,0,1,1,-3.6,0,1.8,1.8,0,1,1,3.6,0z"/>
        <g transform="matrix(1, 0, 0, 1, -7.2, 0)">
         <path stroke-opacity="1" fill="white" stroke="white" style="stroke-linecap:round;stroke-linejoin:miter;stroke-miterlimit:4;stroke-dasharray:none" id="connector3pad" stroke-width="2.16" d="m109.8,25.2a1.8,1.8,0,1,1,-3.6,0,1.8,1.8,0,1,1,3.6,0z"/>
        </g>
       </g>
      </g>
     </g>
    </g>
   </g>
  </g>
  <g partID="7784001">
   <g transform="translate(81.0186,60.8168)">
    <g transform="matrix(0,1,-1,0,0,0)">
     <g id="copper1">
      <g id="copper0">
       <circle fill="white" cx="5.04" cy="5.04" stroke="white" id="connector0pin" r="2.088" stroke-width="2.16"/>
       <circle fill="white" cx="5.04" cy="12.24" stroke="white" id="connector1pin" r="2.088" stroke-width="2.16"/>
       <circle fill="white" cx="5.04" cy="19.44" stroke="white" id="connector2pin" r="2.088" stroke-width="2.16"/>
      </g>
     </g>
    </g>
   </g>
  </g>
 </g>
</svg>
