<?xml version='1.0' encoding='UTF-8' standalone='no'?>
<!-- Created with Fritzing (http://www.fritzing.org/) -->
<svg xmlns="http://www.w3.org/2000/svg" width="1.45513in" x="0in" version="1.2" y="0in"  height="1.41771in" viewBox="0 0 104.77 102.075" baseProfile="tiny" xmlns:svg="http://www.w3.org/2000/svg">
 <g partID="12040">
  <g  id="board">
   <rect width="104.194" x="0.816378" y="0.816378" fill="none"  height="101.499" stroke="black" fill-opacity="0.5" id="boardoutline" stroke-width="0.5"/>
  </g>
 </g>
 <g partID="7838502">
  <g transform="translate(25.1082,48.0102)">
   <g transform="matrix(-1,0,0,-1,0,0)">
    <g flipped="1" id="copper1">
     <g transform="matrix(-1, 0, 0, 1, 23.2668, 0)">
      <g>
       <g>
        <g>
         <circle fill="none" cx="20.8462" cy="15.6024" stroke="black" id="connector0pad" r="1.98" stroke-width="1.44"/>
         <circle fill="none" cx="2.42064" cy="15.6024" stroke="black" id="connector1pad" r="1.98" stroke-width="1.44"/>
         <circle fill="none" cx="20.8462" cy="2.84616" stroke="black" id="connector2pad" r="1.98" stroke-width="1.44"/>
         <circle fill="none" cx="2.42064" cy="2.84616" stroke="black" id="connector3pad" r="1.98" stroke-width="1.44"/>
        </g>
        <g>
         <g id="copper0">
          <circle fill="none" cx="20.8462" cy="15.6024" stroke="black" id="connector0pad" r="1.98" stroke-width="1.44"/>
          <circle fill="none" cx="2.42064" cy="15.6024" stroke="black" id="connector1pad" r="1.98" stroke-width="1.44"/>
          <circle fill="none" cx="20.8462" cy="2.84616" stroke="black" id="connector2pad" r="1.98" stroke-width="1.44"/>
          <circle fill="none" cx="2.42064" cy="2.84616" stroke="black" id="connector3pad" r="1.98" stroke-width="1.44"/>
         </g>
        </g>
       </g>
      </g>
     </g>
    </g>
   </g>
  </g>
 </g>
 <g partID="8217930">
  <g transform="translate(36.6858,35.5264)">
   <g  id="copper1">
    <rect width="2.26772" x="0.458079" y="0" fill="black"  connectorname="C" height="2.26772" stroke="none" id="connector1pad" stroke-linecap="round" stroke-width="0"/>
    <rect width="2.26772" x="0.458079" y="4.25197" fill="black"  connectorname="A" height="2.26772" stroke="none" id="connector0pad" stroke-linecap="round" stroke-width="0"/>
    <g  id="copper0"/>
   </g>
  </g>
 </g>
 <g partID="8217870">
  <g transform="translate(36.6858,8.8808)">
   <g  id="copper1">
    <rect width="2.26772" x="0.458079" y="0" fill="black"  connectorname="C" height="2.26772" stroke="none" id="connector1pad" stroke-linecap="round" stroke-width="0"/>
    <rect width="2.26772" x="0.458079" y="4.25197" fill="black"  connectorname="A" height="2.26772" stroke="none" id="connector0pad" stroke-linecap="round" stroke-width="0"/>
    <g  id="copper0"/>
   </g>
  </g>
 </g>
 <g partID="7838302">
  <g transform="translate(25.1082,21.6478)">
   <g transform="matrix(-1,0,0,-1,0,0)">
    <g flipped="1" id="copper1">
     <g transform="matrix(-1, 0, 0, 1, 23.2668, 0)">
      <g>
       <g>
        <g>
         <circle fill="none" cx="20.8462" cy="15.6024" stroke="black" id="connector0pad" r="1.98" stroke-width="1.44"/>
         <circle fill="none" cx="2.42064" cy="15.6024" stroke="black" id="connector1pad" r="1.98" stroke-width="1.44"/>
         <circle fill="none" cx="20.8462" cy="2.84616" stroke="black" id="connector2pad" r="1.98" stroke-width="1.44"/>
         <circle fill="none" cx="2.42064" cy="2.84616" stroke="black" id="connector3pad" r="1.98" stroke-width="1.44"/>
        </g>
        <g>
         <g id="copper0">
          <circle fill="none" cx="20.8462" cy="15.6024" stroke="black" id="connector0pad" r="1.98" stroke-width="1.44"/>
          <circle fill="none" cx="2.42064" cy="15.6024" stroke="black" id="connector1pad" r="1.98" stroke-width="1.44"/>
          <circle fill="none" cx="20.8462" cy="2.84616" stroke="black" id="connector2pad" r="1.98" stroke-width="1.44"/>
          <circle fill="none" cx="2.42064" cy="2.84616" stroke="black" id="connector3pad" r="1.98" stroke-width="1.44"/>
         </g>
        </g>
       </g>
      </g>
     </g>
    </g>
   </g>
  </g>
 </g>
 <g partID="8164301">
  <g transform="translate(28.765,45.8872)">
   <g  id="copper1">
    <circle fill="none" cx="3.01733"  cy="3.01733" stroke="black" r="0.992124" id="connector0pin" stroke-width="0.850392"/>
   </g>
  </g>
 </g>
 <g partID="8166991">
  <g transform="translate(46.5724,63.1608)">
   <g  id="copper1">
    <circle fill="none" cx="3.01733"  cy="3.01733" stroke="black" r="0.992124" id="connector0pin" stroke-width="0.850392"/>
   </g>
  </g>
 </g>
 <g partID="8155071">
  <g transform="translate(28.6867,19.1688)">
   <g  id="copper1">
    <circle fill="none" cx="3.01732"  cy="3.01732" stroke="black" r="0.992124" id="connector0pin" stroke-width="0.850392"/>
   </g>
  </g>
 </g>
 <g partID="7717641">
  <g transform="translate(57.3322,92.2816)">
   <g  id="copper1">
    <g  id="copper0">
     <circle fill="none" cx="5.04"  cy="5.04" stroke="black" id="connector0pin" r="2.088" stroke-width="1.44"/>
    </g>
   </g>
  </g>
 </g>
 <g partID="7717621">
  <g transform="translate(3.75744,92.2816)">
   <g  id="copper1">
    <g  id="copper0">
     <circle fill="none" cx="5.04"  cy="5.04" stroke="black" id="connector0pin" r="2.088" stroke-width="1.44"/>
    </g>
   </g>
  </g>
 </g>
 <g partID="7717601">
  <g transform="translate(48.2614,92.2816)">
   <g  id="copper1">
    <g  id="copper0">
     <circle fill="none" cx="5.04"  cy="5.04" stroke="black" id="connector0pin" r="2.088" stroke-width="1.44"/>
    </g>
   </g>
  </g>
 </g>
 <g partID="7717561">
  <g transform="translate(24.4503,63.368)">
   <g  id="copper1">
    <g  id="copper0">
     <circle fill="none" cx="5.04"  cy="5.04" stroke="black" id="connector0pin" r="2.088" stroke-width="1.44"/>
    </g>
   </g>
  </g>
 </g>
 <g partID="7717501">
  <g transform="translate(32.6708,63.368)">
   <g  id="copper1">
    <g  id="copper0">
     <circle fill="none" cx="5.04"  cy="5.04" stroke="black" id="connector0pin" r="2.088" stroke-width="1.44"/>
    </g>
   </g>
  </g>
 </g>
 <g partID="7717481">
  <g transform="translate(21.3322,92.2816)">
   <g  id="copper1">
    <g  id="copper0">
     <circle fill="none" cx="5.04"  cy="5.04" stroke="black" id="connector0pin" r="2.088" stroke-width="1.44"/>
    </g>
   </g>
  </g>
 </g>
 <g partID="7717461">
  <g transform="translate(12.5449,92.2816)">
   <g  id="copper1">
    <g  id="copper0">
     <circle fill="none" cx="5.04"  cy="5.04" stroke="black" id="connector0pin" r="2.088" stroke-width="1.44"/>
    </g>
   </g>
  </g>
 </g>
 <g partID="7717441">
  <g transform="translate(93.0488,31.904)">
   <g  id="copper1">
    <g  id="copper0">
     <circle fill="none" cx="5.04"  cy="5.04" stroke="black" id="connector0pin" r="2.088" stroke-width="1.44"/>
    </g>
   </g>
  </g>
 </g>
 <g partID="7979061">
  <g transform="translate(92.4818,92.2816)">
   <g  id="copper1">
    <g  id="copper0">
     <circle fill="none" cx="5.04"  cy="5.04" stroke="black" id="connector0pin" r="2.088" stroke-width="1.44"/>
    </g>
   </g>
  </g>
 </g>
 <g partID="7717361">
  <g transform="translate(74.6236,92.2816)">
   <g  id="copper1">
    <g  id="copper0">
     <circle fill="none" cx="5.04"  cy="5.04" stroke="black" id="connector0pin" r="2.088" stroke-width="1.44"/>
    </g>
   </g>
  </g>
 </g>
 <g partID="7716181">
  <g transform="translate(30.1197,92.2816)">
   <g transform="matrix(1,4.26227e-18,-4.26227e-18,1,0,0)">
    <g  id="copper1">
     <g  id="copper0">
      <circle fill="none" cx="5.04"  cy="5.04" stroke="black" id="connector0pin" r="2.088" stroke-width="1.44"/>
     </g>
    </g>
   </g>
  </g>
 </g>
 <g partID="7978001">
  <g transform="translate(83.6945,92.2816)">
   <g  id="copper1">
    <g  id="copper0">
     <circle fill="none" cx="5.04"  cy="5.04" stroke="black" id="connector0pin" r="2.088" stroke-width="1.44"/>
    </g>
   </g>
  </g>
 </g>
 <g partID="7716141">
  <g transform="translate(66.6866,92.2816)">
   <g  id="copper1">
    <g  id="copper0">
     <circle fill="none" cx="5.04"  cy="5.04" stroke="black" id="connector0pin" r="2.088" stroke-width="1.44"/>
    </g>
   </g>
  </g>
 </g>
 <g partID="7716051">
  <g transform="translate(39.1905,92.2816)">
   <g  id="copper1">
    <g  id="copper0">
     <circle fill="none" cx="5.04"  cy="5.04" stroke="black" id="connector0pin" r="2.088" stroke-width="1.44"/>
    </g>
   </g>
  </g>
 </g>
 <g partID="6832281">
  <g transform="translate(80.671,67.968)">
   <g transform="matrix(0,-1,1,0,0,0)">
    <g  id="copper1">
     <g  id="copper0">
      <circle fill="none" cx="3.528"  cy="17.928" stroke="black" id="connector2pad" r="2.52" stroke-width="2.088"/>
      <rect width="5.04" x="1.008" y="1.008" fill="none"  height="5.04" stroke="black" stroke-width="2.088"/>
      <circle fill="none" cx="3.528"  cy="3.528" stroke="black" id="connector0pad" r="2.52" stroke-width="2.088"/>
      <circle fill="none" cx="17.928"  cy="10.728" stroke="black" id="connector1pad" r="2.52" stroke-width="2.088"/>
     </g>
    </g>
   </g>
  </g>
 </g>
 <g partID="7838102">
  <g transform="translate(74.7145,48.011)">
   <g transform="matrix(-1,0,0,-1,0,0)">
    <g flipped="1" id="copper1">
     <g transform="matrix(-1, 0, 0, 1, 23.2668, 0)">
      <g>
       <g>
        <g>
         <circle fill="none" cx="20.8462" cy="15.6024" stroke="black" id="connector0pad" r="1.98" stroke-width="1.44"/>
         <circle fill="none" cx="2.42064" cy="15.6024" stroke="black" id="connector1pad" r="1.98" stroke-width="1.44"/>
         <circle fill="none" cx="20.8462" cy="2.84616" stroke="black" id="connector2pad" r="1.98" stroke-width="1.44"/>
         <circle fill="none" cx="2.42064" cy="2.84616" stroke="black" id="connector3pad" r="1.98" stroke-width="1.44"/>
        </g>
        <g>
         <g id="copper0">
          <circle fill="none" cx="20.8462" cy="15.6024" stroke="black" id="connector0pad" r="1.98" stroke-width="1.44"/>
          <circle fill="none" cx="2.42064" cy="15.6024" stroke="black" id="connector1pad" r="1.98" stroke-width="1.44"/>
          <circle fill="none" cx="20.8462" cy="2.84616" stroke="black" id="connector2pad" r="1.98" stroke-width="1.44"/>
          <circle fill="none" cx="2.42064" cy="2.84616" stroke="black" id="connector3pad" r="1.98" stroke-width="1.44"/>
         </g>
        </g>
       </g>
      </g>
     </g>
    </g>
   </g>
  </g>
 </g>
 <g partID="7837862">
  <g transform="translate(74.7145,21.6478)">
   <g transform="matrix(-1,0,0,-1,0,0)">
    <g flipped="1" id="copper1">
     <g transform="matrix(-1, 0, 0, 1, 23.2668, 0)">
      <g>
       <g>
        <g>
         <circle fill="none" cx="20.8462" cy="15.6024" stroke="black" id="connector0pad" r="1.98" stroke-width="1.44"/>
         <circle fill="none" cx="2.42064" cy="15.6024" stroke="black" id="connector1pad" r="1.98" stroke-width="1.44"/>
         <circle fill="none" cx="20.8462" cy="2.84616" stroke="black" id="connector2pad" r="1.98" stroke-width="1.44"/>
         <circle fill="none" cx="2.42064" cy="2.84616" stroke="black" id="connector3pad" r="1.98" stroke-width="1.44"/>
        </g>
        <g>
         <g id="copper0">
          <circle fill="none" cx="20.8462" cy="15.6024" stroke="black" id="connector0pad" r="1.98" stroke-width="1.44"/>
          <circle fill="none" cx="2.42064" cy="15.6024" stroke="black" id="connector1pad" r="1.98" stroke-width="1.44"/>
          <circle fill="none" cx="20.8462" cy="2.84616" stroke="black" id="connector2pad" r="1.98" stroke-width="1.44"/>
          <circle fill="none" cx="2.42064" cy="2.84616" stroke="black" id="connector3pad" r="1.98" stroke-width="1.44"/>
         </g>
        </g>
       </g>
      </g>
     </g>
    </g>
   </g>
  </g>
 </g>
 <g partID="7303291">
  <g transform="translate(-6.936,65.7304)">
   <g transform="matrix(1, 0, 0, 1, 0, -809.49)">
    <g id="copper1">
     <g transform="matrix(1, 0, 0, 1, -3.60117, 796.891)">
      <g stroke-opacity="1" fill="none" stroke="black" style="display:inline">
       <g transform="matrix(1, 0, 0, 1, -14.4, 0)">
        <path stroke-opacity="1" fill="none" stroke="black" style="stroke-linecap:round;stroke-linejoin:miter;stroke-miterlimit:4;stroke-dasharray:none;display:inline" id="connector5pad" stroke-width="1.44" d="m109.8,25.2a1.8,1.8,0,1,1,-3.6,0,1.8,1.8,0,1,1,3.6,0z"/>
       </g>
       <g transform="matrix(1, 0, 0, 1, -21.6, 0)">
        <path stroke-opacity="1" fill="none" stroke="black" style="stroke-linecap:round;stroke-linejoin:miter;stroke-miterlimit:4;stroke-dasharray:none;display:inline" id="connector7pad" stroke-width="1.44" d="m109.8,25.2a1.8,1.8,0,1,1,-3.6,0,1.8,1.8,0,1,1,3.6,0z"/>
       </g>
       <g transform="matrix(1, 0, 0, 1, -28.8, 0)">
        <path stroke-opacity="1" fill="none" stroke="black" style="stroke-linecap:round;stroke-linejoin:miter;stroke-miterlimit:4;stroke-dasharray:none;display:inline" id="connector9pad" stroke-width="1.44" d="m109.8,25.2a1.8,1.8,0,1,1,-3.6,0,1.8,1.8,0,1,1,3.6,0z"/>
       </g>
       <g transform="matrix(1, 0, 0, 1, -50.4, 0)">
        <path stroke-opacity="1" fill="none" stroke="black" style="stroke-linecap:round;stroke-linejoin:miter;stroke-miterlimit:4;stroke-dasharray:none;display:inline" id="connector15pad" stroke-width="1.44" d="m109.8,25.2a1.8,1.8,0,1,1,-3.6,0,1.8,1.8,0,1,1,3.6,0z"/>
       </g>
       <g transform="matrix(1, 0, 0, 1, -57.6, 0)">
        <path stroke-opacity="1" fill="none" stroke="black" style="stroke-linecap:round;stroke-linejoin:miter;stroke-miterlimit:4;stroke-dasharray:none;display:inline" id="connector17pad" stroke-width="1.44" d="m109.8,25.2a1.8,1.8,0,1,1,-3.6,0,1.8,1.8,0,1,1,3.6,0z"/>
       </g>
       <g transform="matrix(1, 0, 0, 1, -64.8, 0)">
        <path stroke-opacity="1" fill="none" stroke="black" style="stroke-linecap:round;stroke-linejoin:miter;stroke-miterlimit:4;stroke-dasharray:none;display:inline" id="connector19pad" stroke-width="1.44" d="m109.8,25.2a1.8,1.8,0,1,1,-3.6,0,1.8,1.8,0,1,1,3.6,0z"/>
       </g>
       <g transform="matrix(1, 0, 0, 1, -36, 0)">
        <path stroke-opacity="1" fill="none" stroke="black" style="stroke-linecap:round;stroke-linejoin:miter;stroke-miterlimit:4;stroke-dasharray:none;display:inline" id="connector11pad" stroke-width="1.44" d="m109.8,25.2a1.8,1.8,0,1,1,-3.6,0,1.8,1.8,0,1,1,3.6,0z"/>
       </g>
       <g transform="matrix(1, 0, 0, 1, -43.2, 0)">
        <path stroke-opacity="1" fill="none" stroke="black" style="stroke-linecap:round;stroke-linejoin:miter;stroke-miterlimit:4;stroke-dasharray:none;display:inline" id="connector13pad" stroke-width="1.44" d="m109.8,25.2a1.8,1.8,0,1,1,-3.6,0,1.8,1.8,0,1,1,3.6,0z"/>
       </g>
       <g transform="matrix(1, 0, 0, 1, -79.2, 0)">
        <path stroke-opacity="1" fill="none" stroke="black" style="stroke-linecap:round;stroke-linejoin:miter;stroke-miterlimit:4;stroke-dasharray:none;display:inline" id="connector23pad" stroke-width="1.44" d="m109.8,25.2a1.8,1.8,0,1,1,-3.6,0,1.8,1.8,0,1,1,3.6,0z"/>
       </g>
       <g transform="matrix(1, 0, 0, 1, -86.4, 0)">
        <path stroke-opacity="1" fill="none" stroke="black" style="stroke-linecap:round;stroke-linejoin:miter;stroke-miterlimit:4;stroke-dasharray:none;display:inline" id="connector25pad" stroke-width="1.44" d="m109.8,25.2a1.8,1.8,0,1,1,-3.6,0,1.8,1.8,0,1,1,3.6,0z"/>
       </g>
       <g transform="matrix(1, 0, 0, 1, -72, 0)">
        <path stroke-opacity="1" fill="none" stroke="black" style="stroke-linecap:round;stroke-linejoin:miter;stroke-miterlimit:4;stroke-dasharray:none;display:inline" id="connector21pad" stroke-width="1.44" d="m109.8,25.2a1.8,1.8,0,1,1,-3.6,0,1.8,1.8,0,1,1,3.6,0z"/>
       </g>
       <g transform="matrix(1, 0, 0, 1, -14.4, 7.2)">
        <path stroke-opacity="1" fill="none" stroke="black" style="stroke-linecap:round;stroke-linejoin:miter;stroke-miterlimit:4;stroke-dasharray:none;display:inline" id="connector6pad" stroke-width="1.44" d="m109.8,25.2a1.8,1.8,0,1,1,-3.6,0,1.8,1.8,0,1,1,3.6,0z"/>
       </g>
       <g transform="matrix(1, 0, 0, 1, -21.6, 7.2)">
        <path stroke-opacity="1" fill="none" stroke="black" style="stroke-linecap:round;stroke-linejoin:miter;stroke-miterlimit:4;stroke-dasharray:none;display:inline" id="connector8pad" stroke-width="1.44" d="m109.8,25.2a1.8,1.8,0,1,1,-3.6,0,1.8,1.8,0,1,1,3.6,0z"/>
       </g>
       <g transform="matrix(1, 0, 0, 1, -28.8, 7.2)">
        <path stroke-opacity="1" fill="none" stroke="black" style="stroke-linecap:round;stroke-linejoin:miter;stroke-miterlimit:4;stroke-dasharray:none;display:inline" id="connector10pad" stroke-width="1.44" d="m109.8,25.2a1.8,1.8,0,1,1,-3.6,0,1.8,1.8,0,1,1,3.6,0z"/>
       </g>
       <g transform="matrix(1, 0, 0, 1, -50.4, 7.2)">
        <path stroke-opacity="1" fill="none" stroke="black" style="stroke-linecap:round;stroke-linejoin:miter;stroke-miterlimit:4;stroke-dasharray:none;display:inline" id="connector16pad" stroke-width="1.44" d="m109.8,25.2a1.8,1.8,0,1,1,-3.6,0,1.8,1.8,0,1,1,3.6,0z"/>
       </g>
       <g transform="matrix(1, 0, 0, 1, -57.6, 7.2)">
        <path stroke-opacity="1" fill="none" stroke="black" style="stroke-linecap:round;stroke-linejoin:miter;stroke-miterlimit:4;stroke-dasharray:none;display:inline" id="connector18pad" stroke-width="1.44" d="m109.8,25.2a1.8,1.8,0,1,1,-3.6,0,1.8,1.8,0,1,1,3.6,0z"/>
       </g>
       <g transform="matrix(1, 0, 0, 1, -64.8, 7.2)">
        <path stroke-opacity="1" fill="none" stroke="black" style="stroke-linecap:round;stroke-linejoin:miter;stroke-miterlimit:4;stroke-dasharray:none;display:inline" id="connector20pad" stroke-width="1.44" d="m109.8,25.2a1.8,1.8,0,1,1,-3.6,0,1.8,1.8,0,1,1,3.6,0z"/>
       </g>
       <g transform="matrix(1, 0, 0, 1, -36, 7.2)">
        <path stroke-opacity="1" fill="none" stroke="black" style="stroke-linecap:round;stroke-linejoin:miter;stroke-miterlimit:4;stroke-dasharray:none;display:inline" id="connector12pad" stroke-width="1.44" d="m109.8,25.2a1.8,1.8,0,1,1,-3.6,0,1.8,1.8,0,1,1,3.6,0z"/>
       </g>
       <g transform="matrix(1, 0, 0, 1, -43.2, 7.2)">
        <path stroke-opacity="1" fill="none" stroke="black" style="stroke-linecap:round;stroke-linejoin:miter;stroke-miterlimit:4;stroke-dasharray:none;display:inline" id="connector14pad" stroke-width="1.44" d="m109.8,25.2a1.8,1.8,0,1,1,-3.6,0,1.8,1.8,0,1,1,3.6,0z"/>
       </g>
       <g transform="matrix(1, 0, 0, 1, -79.2, 7.2)">
        <path stroke-opacity="1" fill="none" stroke="black" style="stroke-linecap:round;stroke-linejoin:miter;stroke-miterlimit:4;stroke-dasharray:none;display:inline" id="connector24pad" stroke-width="1.44" d="m109.8,25.2a1.8,1.8,0,1,1,-3.6,0,1.8,1.8,0,1,1,3.6,0z"/>
       </g>
       <g transform="matrix(1, 0, 0, 1, -86.4, 7.2)">
        <path stroke-opacity="1" fill="none" stroke="black" style="stroke-linecap:round;stroke-linejoin:miter;stroke-miterlimit:4;stroke-dasharray:none;display:inline" id="connector26pad" stroke-width="1.44" d="m109.8,25.2a1.8,1.8,0,1,1,-3.6,0,1.8,1.8,0,1,1,3.6,0z"/>
       </g>
       <g transform="matrix(1, 0, 0, 1, -72, 7.2)">
        <path stroke-opacity="1" fill="none" stroke="black" style="stroke-linecap:round;stroke-linejoin:miter;stroke-miterlimit:4;stroke-dasharray:none;display:inline" id="connector22pad" stroke-width="1.44" d="m109.8,25.2a1.8,1.8,0,1,1,-3.6,0,1.8,1.8,0,1,1,3.6,0z"/>
       </g>
       <g transform="matrix(1, 0, 0, 1, 0, 7.2)">
        <path stroke-opacity="1" fill="none" stroke="black" style="stroke-linecap:round;stroke-linejoin:miter;stroke-miterlimit:4;stroke-dasharray:none;display:inline" id="connector2pad" stroke-width="1.44" d="m109.8,25.2a1.8,1.8,0,1,1,-3.6,0,1.8,1.8,0,1,1,3.6,0z"/>
       </g>
       <g transform="matrix(1, 0, 0, 1, -7.2, 7.2)">
        <path stroke-opacity="1" fill="none" stroke="black" style="stroke-linecap:round;stroke-linejoin:miter;stroke-miterlimit:4;stroke-dasharray:none;display:inline" id="connector4pad" stroke-width="1.44" d="m109.8,25.2a1.8,1.8,0,1,1,-3.6,0,1.8,1.8,0,1,1,3.6,0z"/>
       </g>
       <rect width="3.6" x="106.2" y="23.4" stroke-opacity="1" fill="none" height="3.6" stroke="black" style="stroke-linecap:round;stroke-linejoin:miter;stroke-miterlimit:4;stroke-dasharray:none;display:inline" id="rect4984" stroke-width="1.44"/>
       <path stroke-opacity="1" fill="none" stroke="black" style="stroke-linecap:round;stroke-linejoin:miter;stroke-miterlimit:4;stroke-dasharray:none" id="connector1pad" stroke-width="1.44" d="m109.8,25.2a1.8,1.8,0,1,1,-3.6,0,1.8,1.8,0,1,1,3.6,0z"/>
       <g transform="matrix(1, 0, 0, 1, -7.2, 0)">
        <path stroke-opacity="1" fill="none" stroke="black" style="stroke-linecap:round;stroke-linejoin:miter;stroke-miterlimit:4;stroke-dasharray:none" id="connector3pad" stroke-width="1.44" d="m109.8,25.2a1.8,1.8,0,1,1,-3.6,0,1.8,1.8,0,1,1,3.6,0z"/>
       </g>
      </g>
     </g>
    </g>
   </g>
  </g>
 </g>
 <g partID="7784001">
  <g transform="translate(81.0186,60.8168)">
   <g transform="matrix(0,1,-1,0,0,0)">
    <g  id="copper1">
     <g  id="copper0">
      <circle fill="none" cx="5.04"  cy="5.04" stroke="black" id="connector0pin" r="2.088" stroke-width="1.44"/>
      <circle fill="none" cx="5.04"  cy="12.24" stroke="black" id="connector1pin" r="2.088" stroke-width="1.44"/>
      <circle fill="none" cx="5.04"  cy="19.44" stroke="black" id="connector2pin" r="2.088" stroke-width="1.44"/>
     </g>
    </g>
   </g>
  </g>
 </g>
 <g partID="8218470">
  <line stroke="black" stroke-linecap="round" y1="28.4536" x1="13.9391" y2="38.9871" stroke-width="1.728" x2="13.9391"/>
 </g>
 <g partID="8156550">
  <line stroke="black" stroke-linecap="round" y1="38.9872" x1="13.9391" y2="43.9762" stroke-width="1.728" x2="21.0047"/>
 </g>
 <g partID="8156530">
  <line stroke="black" stroke-linecap="round" y1="23.6376" x1="22.6994" y2="28.4534" stroke-width="1.728" x2="13.9391"/>
 </g>
 <g partID="8156410">
  <line stroke="black" stroke-linecap="round" y1="20.8616" x1="22.6926" y2="23.6375" stroke-width="1.728" x2="22.6994"/>
 </g>
 <g partID="8166210">
  <line stroke="black" stroke-linecap="round" y1="52.5784" x1="61.2934" y2="52.4793" stroke-width="1.728" x2="76.7852"/>
 </g>
 <g partID="8168950">
  <line stroke="black" stroke-linecap="round" y1="62.1784" x1="75.9186" y2="63.6889" stroke-width="1.728" x2="75.9432"/>
 </g>
 <g partID="8165500">
  <line stroke="black" stroke-linecap="round" y1="48.8832" x1="43.0386" y2="58.5044" stroke-width="1.728" x2="52.9971"/>
 </g>
 <g partID="8164870">
  <line stroke="black" stroke-linecap="round" y1="56.2232" x1="41.412" y2="63.3639" stroke-width="1.728" x2="49.5602"/>
 </g>
 <g partID="8164450">
  <line stroke="black" stroke-linecap="round" y1="63.3632" x1="49.5601" y2="64.8112" stroke-width="1.728" x2="49.5754"/>
 </g>
 <g partID="8155770">
  <line stroke="black" stroke-linecap="round" y1="66.1418" x1="50.9562" y2="65.9152" stroke-width="1.728" x2="59.4113"/>
 </g>
 <g partID="8154950">
  <line stroke="black" stroke-linecap="round" y1="58.4808" x1="71.5098" y2="62.1786" stroke-width="1.728" x2="75.9186"/>
 </g>
 <g partID="8154930">
  <line stroke="black" stroke-linecap="round" y1="58.504" x1="52.9971" y2="58.4808" stroke-width="1.728" x2="71.5098"/>
 </g>
 <g partID="8154850">
  <line stroke="black" stroke-linecap="round" y1="48.9022" x1="33.1493" y2="48.8831" stroke-width="1.728" x2="43.0386"/>
 </g>
 <g partID="8155090">
  <line stroke="black" stroke-linecap="round" y1="23.5533" x1="31.708" y2="47.5374" stroke-width="1.728" x2="31.7783"/>
 </g>
 <g partID="8165290">
  <line stroke="black" stroke-linecap="round" y1="51.156" x1="22.6564" y2="56.2523" stroke-width="1.728" x2="28.9379"/>
 </g>
 <g partID="8165080">
  <line stroke="black" stroke-linecap="round" y1="56.2528" x1="28.9379" y2="56.2232" stroke-width="1.728" x2="41.412"/>
 </g>
 <g partID="8156170">
  <line stroke="black" stroke-linecap="round" y1="47.224" x1="22.6768" y2="51.1559" stroke-width="1.728" x2="22.6564"/>
 </g>
 <g partID="8150850">
  <line stroke="black" stroke-linecap="round" y1="95.1572" x1="17.7093" y2="87.4083" stroke-width="1.728" x2="18.1549"/>
 </g>
 <g partID="8150730">
  <line stroke="black" stroke-linecap="round" y1="95.16" x1="26.2055" y2="87.406" stroke-width="1.728" x2="25.6074"/>
 </g>
 <g partID="8161590">
  <line stroke="black" stroke-linecap="round" y1="90.86" x1="40.5527" y2="90.86" stroke-width="1.728" x2="43.3972"/>
 </g>
 <g partID="8160180">
  <line stroke="black" stroke-linecap="round" y1="90.86" x1="43.3972" y2="87.0804" stroke-width="1.728" x2="45.9973"/>
 </g>
 <g partID="8151750">
  <line stroke="black" stroke-linecap="round" y1="95.6571" x1="36.5489" y2="90.8599" stroke-width="1.728" x2="40.5527"/>
 </g>
 <g partID="8170210">
  <line stroke="black" stroke-linecap="round" y1="70.668" x1="68.8858" y2="68.0244" stroke-width="1.728" x2="68.8269"/>
 </g>
 <g partID="8151170">
  <line stroke="black" stroke-linecap="round" y1="76.941" x1="74.5972" y2="70.6679" stroke-width="1.728" x2="68.8859"/>
 </g>
 <g partID="8161690">
  <line stroke="black" stroke-linecap="round" y1="90.86" x1="57.5009" y2="90.86" stroke-width="1.728" x2="65.7972"/>
 </g>
 <g partID="8161640">
  <line stroke="black" stroke-linecap="round" y1="90.86" x1="65.7972" y2="87.1872" stroke-width="1.728" x2="67.7724"/>
 </g>
 <g partID="8152110">
  <line stroke="black" stroke-linecap="round" y1="95.5038" x1="54.4828" y2="90.86" stroke-width="1.728" x2="57.5009"/>
 </g>
 <g partID="8152350">
  <line stroke="black" stroke-linecap="round" y1="87.4112" x1="97.4722" y2="95.1533" stroke-width="1.728" x2="97.511"/>
 </g>
 <g partID="8170440">
  <line stroke="black" stroke-linecap="round" y1="89.14" x1="4.2356" y2="76.8847" stroke-width="1.728" x2="4.2356"/>
 </g>
 <g partID="8152750">
  <line stroke="black" stroke-linecap="round" y1="95.4281" x1="7.74165" y2="89.14" stroke-width="1.728" x2="4.2356"/>
 </g>
 <g partID="8152550">
  <line stroke="black" stroke-linecap="round" y1="82.6664" x1="102.552" y2="84.6093" stroke-width="1.728" x2="99.101"/>
 </g>
 <g partID="8152530">
  <line stroke="black" stroke-linecap="round" y1="68.6968" x1="102.301" y2="82.6663" stroke-width="1.728" x2="102.552"/>
 </g>
 <g partID="8152470">
  <line stroke="black" stroke-linecap="round" y1="66.1574" x1="100.093" y2="68.6968" stroke-width="1.728" x2="102.301"/>
 </g>
 <g partID="8152930">
  <line stroke="black" stroke-linecap="round" y1="72.5968" x1="15.107" y2="76.6842" stroke-width="1.728" x2="17.3564"/>
 </g>
 <g partID="8159980">
  <line stroke="black" stroke-linecap="round" y1="72.6368" x1="6.74312" y2="72.5971" stroke-width="1.728" x2="15.107"/>
 </g>
 <g partID="8152910">
  <line stroke="black" stroke-linecap="round" y1="76.8848" x1="4.2356" y2="72.6365" stroke-width="1.728" x2="6.74314"/>
 </g>
 <g partID="8170280">
  <line stroke="black" stroke-linecap="round" y1="69.8848" x1="75.939" y2="68.0247" stroke-width="1.728" x2="75.9572"/>
 </g>
 <g partID="8154110">
  <line stroke="black" stroke-linecap="round" y1="72.3664" x1="78.29" y2="69.8848" stroke-width="1.728" x2="75.939"/>
 </g>
 <g partID="8154010">
  <line stroke="black" stroke-linecap="round" y1="72.4184" x1="92.4164" y2="72.3664" stroke-width="1.728" x2="78.29"/>
 </g>
 <g partID="8153950">
  <line stroke="black" stroke-linecap="round" y1="76.9012" x1="96.2424" y2="72.4178" stroke-width="1.728" x2="92.4163"/>
 </g>
 <g partID="8155830">
  <line stroke="black" stroke-linecap="round" y1="46.6203" x1="55.3261" y2="52.5783" stroke-width="1.728" x2="61.2934"/>
 </g>
 <g partID="8218500">
  <line stroke="black" stroke-linecap="round" y1="60.172" x1="84.2415" y2="62.1638" stroke-width="1.728" x2="84.2217"/>
 </g>
 <g partID="8155990">
  <line stroke="black" stroke-linecap="round" y1="52.4792" x1="76.7852" y2="60.1722" stroke-width="1.728" x2="84.2415"/>
 </g>
 <g partID="8156030">
  <line stroke="black" stroke-linecap="round" y1="20.3602" x1="70.9468" y2="25.3255" stroke-width="1.728" x2="66.6555"/>
 </g>
 <g partID="8156110">
  <line stroke="black" stroke-linecap="round" y1="38.2952" x1="66.3724" y2="43.6043" stroke-width="1.728" x2="70.9488"/>
 </g>
 <g partID="8156090">
  <line stroke="black" stroke-linecap="round" y1="25.3256" x1="66.6554" y2="38.2954" stroke-width="1.728" x2="66.3724"/>
 </g>
</svg>
