<?xml version='1.0' encoding='UTF-8' standalone='no'?>
<!-- Created with Fritzing (http://www.fritzing.org/) -->
<svg xmlns="http://www.w3.org/2000/svg" width="1.45513in" x="0in" version="1.2" y="0in"  height="1.41771in" viewBox="0 0 104.77 102.075" baseProfile="tiny" xmlns:svg="http://www.w3.org/2000/svg">
 <g transform="matrix(-1, 0, 0, 1, 104.77, 0)">
  <g partID="12040">
   <g id="board">
    <rect width="104.194" x="0.288" y="0.288" fill="none" height="101.499" stroke="black" fill-opacity="0.5" id="boardoutline" stroke-width="0.5"/>
   </g>
  </g>
  <g partID="8164300">
   <g transform="translate(28.2916,45.8875)">
    <g  id="copper0">
     <g fill="none" cx="3.01733"  cy="3.01733" stroke="black" r="0.992124" id="0" stroke-width="0.850392"/>
    </g>
   </g>
  </g>
  <g partID="8166990">
   <g transform="translate(46.099,63.1611)">
    <g  id="copper0">
     <g fill="none" cx="3.01733"  cy="3.01733" stroke="black" r="0.992124" id="1" stroke-width="0.850392"/>
    </g>
   </g>
  </g>
  <g partID="8054040">
   <g transform="translate(10.1665,32.6921)">
    <g transform="matrix(0,-1,1,0,0,0)">
     <g flipped="1" id="copper0">
      <g transform="matrix(-1, 0, 0, 1, 14.4567, 0)">
       <g>
        <g>
         <rect width="4.53543" x="0.566929" y="0.566929" fill="black" height="5.38583" stroke="none" fill-opacity="1" id="2" stroke-width="0"/>
         <rect width="4.53543" x="9.35433" y="0.566929" fill="black" height="5.38583" stroke="none" fill-opacity="1" id="3" stroke-width="0"/>
        </g>
       </g>
      </g>
     </g>
    </g>
   </g>
  </g>
  <g partID="8054120">
   <g transform="translate(28.0248,17.3853)">
    <g transform="matrix(0,-1,1,0,0,0)">
     <g flipped="1" id="copper0">
      <g transform="matrix(-1, 0, 0, 1, 14.4567, 0)">
       <g>
        <g>
         <rect width="4.53543" x="0.566929" y="0.566929" fill="black" height="5.38583" stroke="none" fill-opacity="1" id="4" stroke-width="0"/>
         <rect width="4.53543" x="9.35433" y="0.566929" fill="black" height="5.38583" stroke="none" fill-opacity="1" id="5" stroke-width="0"/>
        </g>
       </g>
      </g>
     </g>
    </g>
   </g>
  </g>
  <g partID="8054300">
   <g transform="translate(41.6311,44.0309)">
    <g transform="matrix(0,-1,1,0,0,0)">
     <g flipped="1" id="copper0">
      <g transform="matrix(-1, 0, 0, 1, 14.4567, 0)">
       <g>
        <g>
         <rect width="4.53543" x="0.566929" y="0.566929" fill="black" height="5.38583" stroke="none" fill-opacity="1" id="6" stroke-width="0"/>
         <rect width="4.53543" x="9.35433" y="0.566929" fill="black" height="5.38583" stroke="none" fill-opacity="1" id="7" stroke-width="0"/>
        </g>
       </g>
      </g>
     </g>
    </g>
   </g>
  </g>
  <g partID="8054400">
   <g transform="translate(82.7335,29.5742)">
    <g transform="matrix(0,1,-1,0,0,0)">
     <g flipped="1" id="copper0">
      <g transform="matrix(-1, 0, 0, 1, 14.4567, 0)">
       <g>
        <g>
         <rect width="4.53543" x="0.566929" y="0.566929" fill="black" height="5.38583" stroke="none" fill-opacity="1" id="8" stroke-width="0"/>
         <rect width="4.53543" x="9.35433" y="0.566929" fill="black" height="5.38583" stroke="none" fill-opacity="1" id="9" stroke-width="0"/>
        </g>
       </g>
      </g>
     </g>
    </g>
   </g>
  </g>
  <g partID="8054600">
   <g transform="translate(83.0169,3.21184)">
    <g transform="matrix(0,1,-1,0,0,0)">
     <g flipped="1" id="copper0">
      <g transform="matrix(-1, 0, 0, 1, 14.4567, 0)">
       <g>
        <g>
         <rect width="4.53543" x="0.566929" y="0.566929" fill="black" height="5.38583" stroke="none" fill-opacity="1" id="10" stroke-width="0"/>
         <rect width="4.53543" x="9.35433" y="0.566929" fill="black" height="5.38583" stroke="none" fill-opacity="1" id="11" stroke-width="0"/>
        </g>
       </g>
      </g>
     </g>
    </g>
   </g>
  </g>
  <g partID="8054840">
   <g transform="translate(41.6311,17.6685)">
    <g transform="matrix(0,-1,1,0,0,0)">
     <g flipped="1" id="copper0">
      <g transform="matrix(-1, 0, 0, 1, 14.4567, 0)">
       <g>
        <g>
         <rect width="4.53543" x="0.566929" y="0.566929" fill="black" height="5.38583" stroke="none" fill-opacity="1" id="12" stroke-width="0"/>
         <rect width="4.53543" x="9.35433" y="0.566929" fill="black" height="5.38583" stroke="none" fill-opacity="1" id="13" stroke-width="0"/>
        </g>
       </g>
      </g>
     </g>
    </g>
   </g>
  </g>
  <g partID="8054980">
   <g transform="translate(34.5445,29.5742)">
    <g transform="matrix(0,1,-1,0,0,0)">
     <g flipped="1" id="copper0">
      <g transform="matrix(-1, 0, 0, 1, 14.4567, 0)">
       <g>
        <g>
         <rect width="4.53543" x="0.566929" y="0.566929" fill="black" height="5.38583" stroke="none" fill-opacity="1" id="14" stroke-width="0"/>
         <rect width="4.53543" x="9.35433" y="0.566929" fill="black" height="5.38583" stroke="none" fill-opacity="1" id="15" stroke-width="0"/>
        </g>
       </g>
      </g>
     </g>
    </g>
   </g>
  </g>
  <g partID="8055220">
   <g transform="translate(10.45,69.5425)">
    <g transform="matrix(0,-1,1,0,0,0)">
     <g flipped="1" id="copper0">
      <g transform="matrix(-1, 0, 0, 1, 14.4567, 0)">
       <g>
        <g>
         <rect width="4.53543" x="0.566929" y="0.566929" fill="black" height="5.38583" stroke="none" fill-opacity="1" id="16" stroke-width="0"/>
         <rect width="4.53543" x="9.35433" y="0.566929" fill="black" height="5.38583" stroke="none" fill-opacity="1" id="17" stroke-width="0"/>
        </g>
       </g>
      </g>
     </g>
    </g>
   </g>
  </g>
  <g partID="8155070">
   <g transform="translate(28.2133,19.1691)">
    <g  id="copper0">
     <g fill="none" cx="3.01732"  cy="3.01732" stroke="black" r="0.992124" id="18" stroke-width="0.850392"/>
    </g>
   </g>
  </g>
  <g partID="7988450">
   <g transform="translate(18.5287,55.2275)">
    <g flipped="1" id="copper0">
     <g transform="matrix(-1, 0, 0, 1, 14.4567, 0)">
      <g>
       <g>
        <rect width="4.53543" x="0.566929" y="0.566929" fill="black" height="5.38583" stroke="none" fill-opacity="1" id="19" stroke-width="0"/>
        <rect width="4.53543" x="9.35433" y="0.566929" fill="black" height="5.38583" stroke="none" fill-opacity="1" id="20" stroke-width="0"/>
       </g>
      </g>
     </g>
    </g>
   </g>
  </g>
  <g partID="7988550">
   <g transform="translate(47.8673,65.432)">
    <g transform="matrix(-1,0,0,-1,0,0)">
     <g flipped="1" id="copper0">
      <g transform="matrix(-1, 0, 0, 1, 8.50394, 0)">
       <g>
        <g>
         <!-- unten links -->
         <rect width="2.26772" x="0.425197" y="5.66929" fill="black" height="2.55118" stroke="none" fill-opacity="1" id="21"/>
         <g width="0" x="1.55906" y="6.94488" fill="none" height="0" id="22" stroke-width="0"/>
         <!-- unten rechts -->
         <rect width="2.26772" x="5.81102" y="5.66929" fill="black" height="2.55118" stroke="none" fill-opacity="1" id="23"/>
         <g width="0" x="6.94488" y="6.94488" fill="none" height="0" id="24" stroke-width="0"/>
         <!-- oben mitte -->
         <rect width="2.26772" x="3.11811" y="0" fill="black" height="2.55118" stroke="none" fill-opacity="1" id="25"/>
         <g width="0" x="4.25197" y="1.27559" fill="none" height="0" id="26" stroke-width="0"/>
        </g>
       </g>
      </g>
     </g>
    </g>
   </g>
  </g>
  <g partID="7998600">
   <g transform="translate(63.8831,54.0939)">
    <g flipped="1" id="copper0">
     <g transform="matrix(-1, 0, 0, 1, 14.4567, 0)">
      <g>
       <g>
        <rect width="4.53543" x="0.566929" y="0.566929" fill="black" height="5.38583" stroke="none" fill-opacity="1" id="27" stroke-width="0"/>
        <rect width="4.53543" x="9.35433" y="0.566929" fill="black" height="5.38583" stroke="none" fill-opacity="1" id="28" stroke-width="0"/>
       </g>
      </g>
     </g>
    </g>
   </g>
  </g>
  <g partID="7717640">
   <g transform="translate(56.8588,92.2819)">
    <g  id="copper0">
     <g fill="none" cx="5.04"  cy="5.04" stroke="black" id="29" r="2.088" stroke-width="1.44"/>
    </g>
   </g>
  </g>
  <g partID="7717620">
   <g transform="translate(3.28403,92.282)">
    <g  id="copper0">
     <g fill="none" cx="5.04"  cy="5.04" stroke="black" id="30" r="2.088" stroke-width="1.44"/>
    </g>
   </g>
  </g>
  <g partID="7717600">
   <g transform="translate(47.788,92.2819)">
    <g  id="copper0">
     <g fill="none" cx="5.04"  cy="5.04" stroke="black" id="31" r="2.088" stroke-width="1.44"/>
    </g>
   </g>
  </g>
  <g partID="7717560">
   <g transform="translate(23.9769,63.3683)">
    <g  id="copper0">
     <g fill="none" cx="5.04"  cy="5.04" stroke="black" id="32" r="2.088" stroke-width="1.44"/>
    </g>
   </g>
  </g>
  <g partID="7717500">
   <g transform="translate(32.1974,63.3683)">
    <g  id="copper0">
     <g fill="none" cx="5.04"  cy="5.04" stroke="black" id="33" r="2.088" stroke-width="1.44"/>
    </g>
   </g>
  </g>
  <g partID="7717480">
   <g transform="translate(20.8588,92.282)">
    <g  id="copper0">
     <g fill="none" cx="5.04"  cy="5.04" stroke="black" id="34" r="2.088" stroke-width="1.44"/>
    </g>
   </g>
  </g>
  <g partID="7717460">
   <g transform="translate(12.0714,92.282)">
    <g  id="copper0">
     <g fill="none" cx="5.04"  cy="5.04" stroke="black" id="35" r="2.088" stroke-width="1.44"/>
    </g>
   </g>
  </g>
  <g partID="7717440">
   <g transform="translate(92.5754,31.9043)">
    <g  id="copper0">
     <g fill="none" cx="5.04"  cy="5.04" stroke="black" id="36" r="2.088" stroke-width="1.44"/>
    </g>
   </g>
  </g>
  <g partID="7979060">
   <g transform="translate(92.0084,92.2819)">
    <g  id="copper0">
     <g fill="none" cx="5.04"  cy="5.04" stroke="black" id="37" r="2.088" stroke-width="1.44"/>
    </g>
   </g>
  </g>
  <g partID="7717360">
   <g transform="translate(74.1502,92.2819)">
    <g  id="copper0">
     <g fill="none" cx="5.04"  cy="5.04" stroke="black" id="38" r="2.088" stroke-width="1.44"/>
    </g>
   </g>
  </g>
  <g partID="7716180">
   <g transform="translate(29.6463,92.2819)">
    <g transform="matrix(1,4.26227e-18,-4.26227e-18,1,0,0)">
     <g  id="copper0">
      <g fill="none" cx="5.04"  cy="5.04" stroke="black" id="39" r="2.088" stroke-width="1.44"/>
     </g>
    </g>
   </g>
  </g>
  <g partID="7978000">
   <g transform="translate(83.2211,92.2819)">
    <g  id="copper0">
     <g fill="none" cx="5.04"  cy="5.04" stroke="black" id="40" r="2.088" stroke-width="1.44"/>
    </g>
   </g>
  </g>
  <g partID="7716140">
   <g transform="translate(66.2131,92.2819)">
    <g  id="copper0">
     <g fill="none" cx="5.04"  cy="5.04" stroke="black" id="41" r="2.088" stroke-width="1.44"/>
    </g>
   </g>
  </g>
  <g partID="7716050">
   <g transform="translate(38.7171,92.2819)">
    <g  id="copper0">
     <g fill="none" cx="5.04"  cy="5.04" stroke="black" id="42" r="2.088" stroke-width="1.44"/>
    </g>
   </g>
  </g>
  <g partID="6832280">
   <g transform="translate(80.1976,67.9683)">
    <g transform="matrix(0,-1,1,0,0,0)">
     <g  id="copper0">
      <g fill="none" cx="3.528"  cy="17.928" stroke="black" id="43" r="2.52" stroke-width="2.088"/>
      <g width="5.04" x="1.008" y="1.008" fill="none"  height="5.04" stroke="black" id="44" stroke-width="2.088"/>
      <g fill="none" cx="3.528"  cy="3.528" stroke="black" id="45" r="2.52" stroke-width="2.088"/>
      <g fill="none" cx="17.928"  cy="10.728" stroke="black" id="46" r="2.52" stroke-width="2.088"/>
     </g>
    </g>
   </g>
  </g>
  <g partID="7838100">
   <g transform="translate(74.2411,48.0114)">
    <g transform="matrix(-1,0,0,-1,0,0)">
     <g flipped="1" id="copper0">
      <g transform="matrix(-1, 0, 0, 1, 23.2668, 0)">
       <g>
        <g>
         <g id="">
          <g fill="none" cx="20.8462" cy="15.6024" stroke="black" id="47" r="1.98" stroke-width="1.44"/>
          <g fill="none" cx="2.42064" cy="15.6024" stroke="black" id="48" r="1.98" stroke-width="1.44"/>
          <g fill="none" cx="20.8462" cy="2.84616" stroke="black" id="49" r="1.98" stroke-width="1.44"/>
          <g fill="none" cx="2.42064" cy="2.84616" stroke="black" id="50" r="1.98" stroke-width="1.44"/>
         </g>
        </g>
       </g>
      </g>
     </g>
    </g>
   </g>
  </g>
  <g partID="7838300">
   <g transform="translate(24.6347,21.6482)">
    <g transform="matrix(-1,0,0,-1,0,0)">
     <g flipped="1" id="copper0">
      <g transform="matrix(-1, 0, 0, 1, 23.2668, 0)">
       <g>
        <g>
         <g id="">
          <g fill="none" cx="20.8462" cy="15.6024" stroke="black" id="51" r="1.98" stroke-width="1.44"/>
          <g fill="none" cx="2.42064" cy="15.6024" stroke="black" id="52" r="1.98" stroke-width="1.44"/>
          <g fill="none" cx="20.8462" cy="2.84616" stroke="black" id="53" r="1.98" stroke-width="1.44"/>
          <g fill="none" cx="2.42064" cy="2.84616" stroke="black" id="54" r="1.98" stroke-width="1.44"/>
         </g>
        </g>
       </g>
      </g>
     </g>
    </g>
   </g>
  </g>
  <g partID="7837860">
   <g transform="translate(74.2411,21.6482)">
    <g transform="matrix(-1,0,0,-1,0,0)">
     <g flipped="1" id="copper0">
      <g transform="matrix(-1, 0, 0, 1, 23.2668, 0)">
       <g>
        <g>
         <g id="">
          <g fill="none" cx="20.8462" cy="15.6024" stroke="black" id="55" r="1.98" stroke-width="1.44"/>
          <g fill="none" cx="2.42064" cy="15.6024" stroke="black" id="56" r="1.98" stroke-width="1.44"/>
          <g fill="none" cx="20.8462" cy="2.84616" stroke="black" id="57" r="1.98" stroke-width="1.44"/>
          <g fill="none" cx="2.42064" cy="2.84616" stroke="black" id="58" r="1.98" stroke-width="1.44"/>
         </g>
        </g>
       </g>
      </g>
     </g>
    </g>
   </g>
  </g>
  <g partID="7838500">
   <g transform="translate(24.6347,48.0106)">
    <g transform="matrix(-1,0,0,-1,0,0)">
     <g flipped="1" id="copper0">
      <g transform="matrix(-1, 0, 0, 1, 23.2668, 0)">
       <g>
        <g>
         <g id="">
          <g fill="none" cx="20.8462" cy="15.6024" stroke="black" id="59" r="1.98" stroke-width="1.44"/>
          <g fill="none" cx="2.42064" cy="15.6024" stroke="black" id="60" r="1.98" stroke-width="1.44"/>
          <g fill="none" cx="20.8462" cy="2.84616" stroke="black" id="61" r="1.98" stroke-width="1.44"/>
          <g fill="none" cx="2.42064" cy="2.84616" stroke="black" id="62" r="1.98" stroke-width="1.44"/>
         </g>
        </g>
       </g>
      </g>
     </g>
    </g>
   </g>
  </g>
  <g partID="7303290">
   <g transform="translate(-7.40942,65.7307)">
    <g transform="matrix(1, 0, 0, 1, 0, -809.49)">
     <g id="copper0">
      <g transform="matrix(1, 0, 0, 1, -3.6, 796.89)">
       <g stroke-opacity="1" fill="none" stroke="black" style="display:inline">
        <g transform="matrix(1, 0, 0, 1, -14.4, 0)">
         <g stroke-opacity="1" fill="none" stroke="black" style="stroke-linecap:round;stroke-linejoin:miter;stroke-miterlimit:4;stroke-dasharray:none;display:inline" id="63" stroke-width="1.44" d="m109.8,25.2a1.8,1.8,0,1,1,-3.6,0,1.8,1.8,0,1,1,3.6,0z"/>
        </g>
        <g transform="matrix(1, 0, 0, 1, -21.6, 0)">
         <g stroke-opacity="1" fill="none" stroke="black" style="stroke-linecap:round;stroke-linejoin:miter;stroke-miterlimit:4;stroke-dasharray:none;display:inline" id="64" stroke-width="1.44" d="m109.8,25.2a1.8,1.8,0,1,1,-3.6,0,1.8,1.8,0,1,1,3.6,0z"/>
        </g>
        <g transform="matrix(1, 0, 0, 1, -28.8, 0)">
         <g stroke-opacity="1" fill="none" stroke="black" style="stroke-linecap:round;stroke-linejoin:miter;stroke-miterlimit:4;stroke-dasharray:none;display:inline" id="65" stroke-width="1.44" d="m109.8,25.2a1.8,1.8,0,1,1,-3.6,0,1.8,1.8,0,1,1,3.6,0z"/>
        </g>
        <g transform="matrix(1, 0, 0, 1, -50.4, 0)">
         <g stroke-opacity="1" fill="none" stroke="black" style="stroke-linecap:round;stroke-linejoin:miter;stroke-miterlimit:4;stroke-dasharray:none;display:inline" id="66" stroke-width="1.44" d="m109.8,25.2a1.8,1.8,0,1,1,-3.6,0,1.8,1.8,0,1,1,3.6,0z"/>
        </g>
        <g transform="matrix(1, 0, 0, 1, -57.6, 0)">
         <g stroke-opacity="1" fill="none" stroke="black" style="stroke-linecap:round;stroke-linejoin:miter;stroke-miterlimit:4;stroke-dasharray:none;display:inline" id="67" stroke-width="1.44" d="m109.8,25.2a1.8,1.8,0,1,1,-3.6,0,1.8,1.8,0,1,1,3.6,0z"/>
        </g>
        <g transform="matrix(1, 0, 0, 1, -64.8, 0)">
         <g stroke-opacity="1" fill="none" stroke="black" style="stroke-linecap:round;stroke-linejoin:miter;stroke-miterlimit:4;stroke-dasharray:none;display:inline" id="68" stroke-width="1.44" d="m109.8,25.2a1.8,1.8,0,1,1,-3.6,0,1.8,1.8,0,1,1,3.6,0z"/>
        </g>
        <g transform="matrix(1, 0, 0, 1, -36, 0)">
         <g stroke-opacity="1" fill="none" stroke="black" style="stroke-linecap:round;stroke-linejoin:miter;stroke-miterlimit:4;stroke-dasharray:none;display:inline" id="69" stroke-width="1.44" d="m109.8,25.2a1.8,1.8,0,1,1,-3.6,0,1.8,1.8,0,1,1,3.6,0z"/>
        </g>
        <g transform="matrix(1, 0, 0, 1, -43.2, 0)">
         <g stroke-opacity="1" fill="none" stroke="black" style="stroke-linecap:round;stroke-linejoin:miter;stroke-miterlimit:4;stroke-dasharray:none;display:inline" id="70" stroke-width="1.44" d="m109.8,25.2a1.8,1.8,0,1,1,-3.6,0,1.8,1.8,0,1,1,3.6,0z"/>
        </g>
        <g transform="matrix(1, 0, 0, 1, -79.2, 0)">
         <g stroke-opacity="1" fill="none" stroke="black" style="stroke-linecap:round;stroke-linejoin:miter;stroke-miterlimit:4;stroke-dasharray:none;display:inline" id="71" stroke-width="1.44" d="m109.8,25.2a1.8,1.8,0,1,1,-3.6,0,1.8,1.8,0,1,1,3.6,0z"/>
        </g>
        <g transform="matrix(1, 0, 0, 1, -86.4, 0)">
         <g stroke-opacity="1" fill="none" stroke="black" style="stroke-linecap:round;stroke-linejoin:miter;stroke-miterlimit:4;stroke-dasharray:none;display:inline" id="72" stroke-width="1.44" d="m109.8,25.2a1.8,1.8,0,1,1,-3.6,0,1.8,1.8,0,1,1,3.6,0z"/>
        </g>
        <g transform="matrix(1, 0, 0, 1, -72, 0)">
         <g stroke-opacity="1" fill="none" stroke="black" style="stroke-linecap:round;stroke-linejoin:miter;stroke-miterlimit:4;stroke-dasharray:none;display:inline" id="73" stroke-width="1.44" d="m109.8,25.2a1.8,1.8,0,1,1,-3.6,0,1.8,1.8,0,1,1,3.6,0z"/>
        </g>
        <g transform="matrix(1, 0, 0, 1, -14.4, 7.2)">
         <g stroke-opacity="1" fill="none" stroke="black" style="stroke-linecap:round;stroke-linejoin:miter;stroke-miterlimit:4;stroke-dasharray:none;display:inline" id="74" stroke-width="1.44" d="m109.8,25.2a1.8,1.8,0,1,1,-3.6,0,1.8,1.8,0,1,1,3.6,0z"/>
        </g>
        <g transform="matrix(1, 0, 0, 1, -21.6, 7.2)">
         <g stroke-opacity="1" fill="none" stroke="black" style="stroke-linecap:round;stroke-linejoin:miter;stroke-miterlimit:4;stroke-dasharray:none;display:inline" id="75" stroke-width="1.44" d="m109.8,25.2a1.8,1.8,0,1,1,-3.6,0,1.8,1.8,0,1,1,3.6,0z"/>
        </g>
        <g transform="matrix(1, 0, 0, 1, -28.8, 7.2)">
         <g stroke-opacity="1" fill="none" stroke="black" style="stroke-linecap:round;stroke-linejoin:miter;stroke-miterlimit:4;stroke-dasharray:none;display:inline" id="76" stroke-width="1.44" d="m109.8,25.2a1.8,1.8,0,1,1,-3.6,0,1.8,1.8,0,1,1,3.6,0z"/>
        </g>
        <g transform="matrix(1, 0, 0, 1, -50.4, 7.2)">
         <g stroke-opacity="1" fill="none" stroke="black" style="stroke-linecap:round;stroke-linejoin:miter;stroke-miterlimit:4;stroke-dasharray:none;display:inline" id="77" stroke-width="1.44" d="m109.8,25.2a1.8,1.8,0,1,1,-3.6,0,1.8,1.8,0,1,1,3.6,0z"/>
        </g>
        <g transform="matrix(1, 0, 0, 1, -57.6, 7.2)">
         <g stroke-opacity="1" fill="none" stroke="black" style="stroke-linecap:round;stroke-linejoin:miter;stroke-miterlimit:4;stroke-dasharray:none;display:inline" id="78" stroke-width="1.44" d="m109.8,25.2a1.8,1.8,0,1,1,-3.6,0,1.8,1.8,0,1,1,3.6,0z"/>
        </g>
        <g transform="matrix(1, 0, 0, 1, -64.8, 7.2)">
         <g stroke-opacity="1" fill="none" stroke="black" style="stroke-linecap:round;stroke-linejoin:miter;stroke-miterlimit:4;stroke-dasharray:none;display:inline" id="79" stroke-width="1.44" d="m109.8,25.2a1.8,1.8,0,1,1,-3.6,0,1.8,1.8,0,1,1,3.6,0z"/>
        </g>
        <g transform="matrix(1, 0, 0, 1, -36, 7.2)">
         <g stroke-opacity="1" fill="none" stroke="black" style="stroke-linecap:round;stroke-linejoin:miter;stroke-miterlimit:4;stroke-dasharray:none;display:inline" id="80" stroke-width="1.44" d="m109.8,25.2a1.8,1.8,0,1,1,-3.6,0,1.8,1.8,0,1,1,3.6,0z"/>
        </g>
        <g transform="matrix(1, 0, 0, 1, -43.2, 7.2)">
         <g stroke-opacity="1" fill="none" stroke="black" style="stroke-linecap:round;stroke-linejoin:miter;stroke-miterlimit:4;stroke-dasharray:none;display:inline" id="81" stroke-width="1.44" d="m109.8,25.2a1.8,1.8,0,1,1,-3.6,0,1.8,1.8,0,1,1,3.6,0z"/>
        </g>
        <g transform="matrix(1, 0, 0, 1, -79.2, 7.2)">
         <g stroke-opacity="1" fill="none" stroke="black" style="stroke-linecap:round;stroke-linejoin:miter;stroke-miterlimit:4;stroke-dasharray:none;display:inline" id="82" stroke-width="1.44" d="m109.8,25.2a1.8,1.8,0,1,1,-3.6,0,1.8,1.8,0,1,1,3.6,0z"/>
        </g>
        <g transform="matrix(1, 0, 0, 1, -86.4, 7.2)">
         <g stroke-opacity="1" fill="none" stroke="black" style="stroke-linecap:round;stroke-linejoin:miter;stroke-miterlimit:4;stroke-dasharray:none;display:inline" id="83" stroke-width="1.44" d="m109.8,25.2a1.8,1.8,0,1,1,-3.6,0,1.8,1.8,0,1,1,3.6,0z"/>
        </g>
        <g transform="matrix(1, 0, 0, 1, -72, 7.2)">
         <g stroke-opacity="1" fill="none" stroke="black" style="stroke-linecap:round;stroke-linejoin:miter;stroke-miterlimit:4;stroke-dasharray:none;display:inline" id="84" stroke-width="1.44" d="m109.8,25.2a1.8,1.8,0,1,1,-3.6,0,1.8,1.8,0,1,1,3.6,0z"/>
        </g>
        <g transform="matrix(1, 0, 0, 1, 0, 7.2)">
         <g stroke-opacity="1" fill="none" stroke="black" style="stroke-linecap:round;stroke-linejoin:miter;stroke-miterlimit:4;stroke-dasharray:none;display:inline" id="85" stroke-width="1.44" d="m109.8,25.2a1.8,1.8,0,1,1,-3.6,0,1.8,1.8,0,1,1,3.6,0z"/>
        </g>
        <g transform="matrix(1, 0, 0, 1, -7.2, 7.2)">
         <g stroke-opacity="1" fill="none" stroke="black" style="stroke-linecap:round;stroke-linejoin:miter;stroke-miterlimit:4;stroke-dasharray:none;display:inline" id="86" stroke-width="1.44" d="m109.8,25.2a1.8,1.8,0,1,1,-3.6,0,1.8,1.8,0,1,1,3.6,0z"/>
        </g>
        <g width="3.6" x="106.2" y="23.4" stroke-opacity="1" fill="none" height="3.6" stroke="black" style="stroke-linecap:round;stroke-linejoin:miter;stroke-miterlimit:4;stroke-dasharray:none;display:inline" id="87" stroke-width="1.44"/>
        <g stroke-opacity="1" fill="none" stroke="black" style="stroke-linecap:round;stroke-linejoin:miter;stroke-miterlimit:4;stroke-dasharray:none" id="88" stroke-width="1.44" d="m109.8,25.2a1.8,1.8,0,1,1,-3.6,0,1.8,1.8,0,1,1,3.6,0z"/>
        <g transform="matrix(1, 0, 0, 1, -7.2, 0)">
         <g stroke-opacity="1" fill="none" stroke="black" style="stroke-linecap:round;stroke-linejoin:miter;stroke-miterlimit:4;stroke-dasharray:none" id="89" stroke-width="1.44" d="m109.8,25.2a1.8,1.8,0,1,1,-3.6,0,1.8,1.8,0,1,1,3.6,0z"/>
        </g>
       </g>
      </g>
     </g>
    </g>
   </g>
  </g>
  <g partID="7784000">
   <g transform="translate(80.5451,60.8171)">
    <g transform="matrix(0,1,-1,0,0,0)">
     <g  id="copper0">
      <g fill="none" cx="5.04"  cy="5.04" stroke="black" id="90" r="2.088" stroke-width="1.44"/>
      <g fill="none" cx="5.04"  cy="12.24" stroke="black" id="91" r="2.088" stroke-width="1.44"/>
      <g fill="none" cx="5.04"  cy="19.44" stroke="black" id="92" r="2.088" stroke-width="1.44"/>
     </g>
    </g>
   </g>
  </g>
 </g>
</svg>
