<?xml version='1.0' encoding='UTF-8' standalone='no'?>
<!-- Created with Fritzing (http://www.fritzing.org/) -->
<svg xmlns="http://www.w3.org/2000/svg" width="1.45513in" x="0in" version="1.2" y="0in"  height="1.41771in" viewBox="0 0 104.77 102.075" baseProfile="tiny" xmlns:svg="http://www.w3.org/2000/svg">
 <g transform="matrix(-1, 0, 0, 1, 104.77, 0)">
  <g partID="12040">
   <g  id="board">
    <rect width="104.194" x="0.816378" y="0.816378" fill="none"  height="101.499" stroke="black" fill-opacity="0.5" id="boardoutline" stroke-width="0.5"/>
   </g>
  </g>
  <g partID="7838502">
   <g transform="translate(25.1082,48.0102)">
    <g transform="matrix(-1,0,0,-1,0,0)">
     <g flipped="1" id="copper1">
      <g transform="matrix(-1, 0, 0, 1, 23.2668, 0)">
       <g>
        <g>
         <g>
          <circle fill="black" cx="20.8462" cy="15.6024" stroke="black" id="connector0pad" r="1.98" stroke-width="2.16"/>
          <circle fill="black" cx="2.42064" cy="15.6024" stroke="black" id="connector1pad" r="1.98" stroke-width="2.16"/>
          <circle fill="black" cx="20.8462" cy="2.84616" stroke="black" id="connector2pad" r="1.98" stroke-width="2.16"/>
          <circle fill="black" cx="2.42064" cy="2.84616" stroke="black" id="connector3pad" r="1.98" stroke-width="2.16"/>
         </g>
         <g>
          <g id="copper0">
           <circle fill="black" cx="20.8462" cy="15.6024" stroke="black" id="connector0pad" r="1.98" stroke-width="2.16"/>
           <circle fill="black" cx="2.42064" cy="15.6024" stroke="black" id="connector1pad" r="1.98" stroke-width="2.16"/>
           <circle fill="black" cx="20.8462" cy="2.84616" stroke="black" id="connector2pad" r="1.98" stroke-width="2.16"/>
           <circle fill="black" cx="2.42064" cy="2.84616" stroke="black" id="connector3pad" r="1.98" stroke-width="2.16"/>
          </g>
         </g>
        </g>
       </g>
      </g>
     </g>
    </g>
   </g>
  </g>
  <g partID="8217930">
   <g transform="translate(36.6858,35.5264)">
    <g  id="copper1">
     <rect width="2.26772" x="0.458079" y="0" fill="black"  connectorname="C" height="2.26772" stroke="black" id="connector1pad" stroke-linecap="round" stroke-width="0.72"/>
     <rect width="2.26772" x="0.458079" y="4.25197" fill="black"  connectorname="A" height="2.26772" stroke="black" id="connector0pad" stroke-linecap="round" stroke-width="0.72"/>
     <g  id="copper0"/>
    </g>
   </g>
  </g>
  <g partID="8217870">
   <g transform="translate(36.6858,8.8808)">
    <g  id="copper1">
     <rect width="2.26772" x="0.458079" y="0" fill="black"  connectorname="C" height="2.26772" stroke="black" id="connector1pad" stroke-linecap="round" stroke-width="0.72"/>
     <rect width="2.26772" x="0.458079" y="4.25197" fill="black"  connectorname="A" height="2.26772" stroke="black" id="connector0pad" stroke-linecap="round" stroke-width="0.72"/>
     <g  id="copper0"/>
    </g>
   </g>
  </g>
  <g partID="7838302">
   <g transform="translate(25.1082,21.6478)">
    <g transform="matrix(-1,0,0,-1,0,0)">
     <g flipped="1" id="copper1">
      <g transform="matrix(-1, 0, 0, 1, 23.2668, 0)">
       <g>
        <g>
         <g>
          <circle fill="black" cx="20.8462" cy="15.6024" stroke="black" id="connector0pad" r="1.98" stroke-width="2.16"/>
          <circle fill="black" cx="2.42064" cy="15.6024" stroke="black" id="connector1pad" r="1.98" stroke-width="2.16"/>
          <circle fill="black" cx="20.8462" cy="2.84616" stroke="black" id="connector2pad" r="1.98" stroke-width="2.16"/>
          <circle fill="black" cx="2.42064" cy="2.84616" stroke="black" id="connector3pad" r="1.98" stroke-width="2.16"/>
         </g>
         <g>
          <g id="copper0">
           <circle fill="black" cx="20.8462" cy="15.6024" stroke="black" id="connector0pad" r="1.98" stroke-width="2.16"/>
           <circle fill="black" cx="2.42064" cy="15.6024" stroke="black" id="connector1pad" r="1.98" stroke-width="2.16"/>
           <circle fill="black" cx="20.8462" cy="2.84616" stroke="black" id="connector2pad" r="1.98" stroke-width="2.16"/>
           <circle fill="black" cx="2.42064" cy="2.84616" stroke="black" id="connector3pad" r="1.98" stroke-width="2.16"/>
          </g>
         </g>
        </g>
       </g>
      </g>
     </g>
    </g>
   </g>
  </g>
  <g partID="8164301">
   <g transform="translate(28.765,45.8872)">
    <g  id="copper1">
     <circle fill="black" cx="3.01733"  cy="3.01733" stroke="black" r="0.992124" id="connector0pin" stroke-width="1.57039"/>
    </g>
   </g>
  </g>
  <g partID="8166991">
   <g transform="translate(46.5724,63.1608)">
    <g  id="copper1">
     <circle fill="black" cx="3.01733"  cy="3.01733" stroke="black" r="0.992124" id="connector0pin" stroke-width="1.57039"/>
    </g>
   </g>
  </g>
  <g partID="8155071">
   <g transform="translate(28.6867,19.1688)">
    <g  id="copper1">
     <circle fill="black" cx="3.01732"  cy="3.01732" stroke="black" r="0.992124" id="connector0pin" stroke-width="1.57039"/>
    </g>
   </g>
  </g>
  <g partID="7717641">
   <g transform="translate(57.3322,92.2816)">
    <g  id="copper1">
     <g  id="copper0">
      <circle fill="black" cx="5.04"  cy="5.04" stroke="black" id="connector0pin" r="2.088" stroke-width="2.16"/>
     </g>
    </g>
   </g>
  </g>
  <g partID="7717621">
   <g transform="translate(3.75744,92.2816)">
    <g  id="copper1">
     <g  id="copper0">
      <circle fill="black" cx="5.04"  cy="5.04" stroke="black" id="connector0pin" r="2.088" stroke-width="2.16"/>
     </g>
    </g>
   </g>
  </g>
  <g partID="7717601">
   <g transform="translate(48.2614,92.2816)">
    <g  id="copper1">
     <g  id="copper0">
      <circle fill="black" cx="5.04"  cy="5.04" stroke="black" id="connector0pin" r="2.088" stroke-width="2.16"/>
     </g>
    </g>
   </g>
  </g>
  <g partID="7717561">
   <g transform="translate(24.4503,63.368)">
    <g  id="copper1">
     <g  id="copper0">
      <circle fill="black" cx="5.04"  cy="5.04" stroke="black" id="connector0pin" r="2.088" stroke-width="2.16"/>
     </g>
    </g>
   </g>
  </g>
  <g partID="7717501">
   <g transform="translate(32.6708,63.368)">
    <g  id="copper1">
     <g  id="copper0">
      <circle fill="black" cx="5.04"  cy="5.04" stroke="black" id="connector0pin" r="2.088" stroke-width="2.16"/>
     </g>
    </g>
   </g>
  </g>
  <g partID="7717481">
   <g transform="translate(21.3322,92.2816)">
    <g  id="copper1">
     <g  id="copper0">
      <circle fill="black" cx="5.04"  cy="5.04" stroke="black" id="connector0pin" r="2.088" stroke-width="2.16"/>
     </g>
    </g>
   </g>
  </g>
  <g partID="7717461">
   <g transform="translate(12.5449,92.2816)">
    <g  id="copper1">
     <g  id="copper0">
      <circle fill="black" cx="5.04"  cy="5.04" stroke="black" id="connector0pin" r="2.088" stroke-width="2.16"/>
     </g>
    </g>
   </g>
  </g>
  <g partID="7717441">
   <g transform="translate(93.0488,31.904)">
    <g  id="copper1">
     <g  id="copper0">
      <circle fill="black" cx="5.04"  cy="5.04" stroke="black" id="connector0pin" r="2.088" stroke-width="2.16"/>
     </g>
    </g>
   </g>
  </g>
  <g partID="7979061">
   <g transform="translate(92.4818,92.2816)">
    <g  id="copper1">
     <g  id="copper0">
      <circle fill="black" cx="5.04"  cy="5.04" stroke="black" id="connector0pin" r="2.088" stroke-width="2.16"/>
     </g>
    </g>
   </g>
  </g>
  <g partID="7717361">
   <g transform="translate(74.6236,92.2816)">
    <g  id="copper1">
     <g  id="copper0">
      <circle fill="black" cx="5.04"  cy="5.04" stroke="black" id="connector0pin" r="2.088" stroke-width="2.16"/>
     </g>
    </g>
   </g>
  </g>
  <g partID="7716181">
   <g transform="translate(30.1197,92.2816)">
    <g transform="matrix(1,4.26227e-18,-4.26227e-18,1,0,0)">
     <g  id="copper1">
      <g  id="copper0">
       <circle fill="black" cx="5.04"  cy="5.04" stroke="black" id="connector0pin" r="2.088" stroke-width="2.16"/>
      </g>
     </g>
    </g>
   </g>
  </g>
  <g partID="7978001">
   <g transform="translate(83.6945,92.2816)">
    <g  id="copper1">
     <g  id="copper0">
      <circle fill="black" cx="5.04"  cy="5.04" stroke="black" id="connector0pin" r="2.088" stroke-width="2.16"/>
     </g>
    </g>
   </g>
  </g>
  <g partID="7716141">
   <g transform="translate(66.6866,92.2816)">
    <g  id="copper1">
     <g  id="copper0">
      <circle fill="black" cx="5.04"  cy="5.04" stroke="black" id="connector0pin" r="2.088" stroke-width="2.16"/>
     </g>
    </g>
   </g>
  </g>
  <g partID="7716051">
   <g transform="translate(39.1905,92.2816)">
    <g  id="copper1">
     <g  id="copper0">
      <circle fill="black" cx="5.04"  cy="5.04" stroke="black" id="connector0pin" r="2.088" stroke-width="2.16"/>
     </g>
    </g>
   </g>
  </g>
  <g partID="6832281">
   <g transform="translate(80.671,67.968)">
    <g transform="matrix(0,-1,1,0,0,0)">
     <g  id="copper1">
      <g  id="copper0">
       <circle fill="black" cx="3.528"  cy="17.928" stroke="black" id="connector2pad" r="2.52" stroke-width="2.808"/>
       <rect width="5.04" x="1.008" y="1.008" fill="black"  height="5.04" stroke="black" stroke-width="2.808"/>
       <circle fill="black" cx="3.528"  cy="3.528" stroke="black" id="connector0pad" r="2.52" stroke-width="2.808"/>
       <circle fill="black" cx="17.928"  cy="10.728" stroke="black" id="connector1pad" r="2.52" stroke-width="2.808"/>
      </g>
     </g>
    </g>
   </g>
  </g>
  <g partID="7838102">
   <g transform="translate(74.7145,48.011)">
    <g transform="matrix(-1,0,0,-1,0,0)">
     <g flipped="1" id="copper1">
      <g transform="matrix(-1, 0, 0, 1, 23.2668, 0)">
       <g>
        <g>
         <g>
          <circle fill="black" cx="20.8462" cy="15.6024" stroke="black" id="connector0pad" r="1.98" stroke-width="2.16"/>
          <circle fill="black" cx="2.42064" cy="15.6024" stroke="black" id="connector1pad" r="1.98" stroke-width="2.16"/>
          <circle fill="black" cx="20.8462" cy="2.84616" stroke="black" id="connector2pad" r="1.98" stroke-width="2.16"/>
          <circle fill="black" cx="2.42064" cy="2.84616" stroke="black" id="connector3pad" r="1.98" stroke-width="2.16"/>
         </g>
         <g>
          <g id="copper0">
           <circle fill="black" cx="20.8462" cy="15.6024" stroke="black" id="connector0pad" r="1.98" stroke-width="2.16"/>
           <circle fill="black" cx="2.42064" cy="15.6024" stroke="black" id="connector1pad" r="1.98" stroke-width="2.16"/>
           <circle fill="black" cx="20.8462" cy="2.84616" stroke="black" id="connector2pad" r="1.98" stroke-width="2.16"/>
           <circle fill="black" cx="2.42064" cy="2.84616" stroke="black" id="connector3pad" r="1.98" stroke-width="2.16"/>
          </g>
         </g>
        </g>
       </g>
      </g>
     </g>
    </g>
   </g>
  </g>
  <g partID="7837862">
   <g transform="translate(74.7145,21.6478)">
    <g transform="matrix(-1,0,0,-1,0,0)">
     <g flipped="1" id="copper1">
      <g transform="matrix(-1, 0, 0, 1, 23.2668, 0)">
       <g>
        <g>
         <g>
          <circle fill="black" cx="20.8462" cy="15.6024" stroke="black" id="connector0pad" r="1.98" stroke-width="2.16"/>
          <circle fill="black" cx="2.42064" cy="15.6024" stroke="black" id="connector1pad" r="1.98" stroke-width="2.16"/>
          <circle fill="black" cx="20.8462" cy="2.84616" stroke="black" id="connector2pad" r="1.98" stroke-width="2.16"/>
          <circle fill="black" cx="2.42064" cy="2.84616" stroke="black" id="connector3pad" r="1.98" stroke-width="2.16"/>
         </g>
         <g>
          <g id="copper0">
           <circle fill="black" cx="20.8462" cy="15.6024" stroke="black" id="connector0pad" r="1.98" stroke-width="2.16"/>
           <circle fill="black" cx="2.42064" cy="15.6024" stroke="black" id="connector1pad" r="1.98" stroke-width="2.16"/>
           <circle fill="black" cx="20.8462" cy="2.84616" stroke="black" id="connector2pad" r="1.98" stroke-width="2.16"/>
           <circle fill="black" cx="2.42064" cy="2.84616" stroke="black" id="connector3pad" r="1.98" stroke-width="2.16"/>
          </g>
         </g>
        </g>
       </g>
      </g>
     </g>
    </g>
   </g>
  </g>
  <g partID="7303291">
   <g transform="translate(-6.936,65.7304)">
    <g transform="matrix(1, 0, 0, 1, 0, -809.49)">
     <g id="copper1">
      <g transform="matrix(1, 0, 0, 1, -3.60117, 796.891)">
       <g stroke-opacity="1" fill="none" stroke="black" style="display:inline">
        <g transform="matrix(1, 0, 0, 1, -14.4, 0)">
         <path stroke-opacity="1" fill="black" stroke="black" style="stroke-linecap:round;stroke-linejoin:miter;stroke-miterlimit:4;stroke-dasharray:none;display:inline" id="connector5pad" stroke-width="2.16" d="m109.8,25.2a1.8,1.8,0,1,1,-3.6,0,1.8,1.8,0,1,1,3.6,0z"/>
        </g>
        <g transform="matrix(1, 0, 0, 1, -21.6, 0)">
         <path stroke-opacity="1" fill="black" stroke="black" style="stroke-linecap:round;stroke-linejoin:miter;stroke-miterlimit:4;stroke-dasharray:none;display:inline" id="connector7pad" stroke-width="2.16" d="m109.8,25.2a1.8,1.8,0,1,1,-3.6,0,1.8,1.8,0,1,1,3.6,0z"/>
        </g>
        <g transform="matrix(1, 0, 0, 1, -28.8, 0)">
         <path stroke-opacity="1" fill="black" stroke="black" style="stroke-linecap:round;stroke-linejoin:miter;stroke-miterlimit:4;stroke-dasharray:none;display:inline" id="connector9pad" stroke-width="2.16" d="m109.8,25.2a1.8,1.8,0,1,1,-3.6,0,1.8,1.8,0,1,1,3.6,0z"/>
        </g>
        <g transform="matrix(1, 0, 0, 1, -50.4, 0)">
         <path stroke-opacity="1" fill="black" stroke="black" style="stroke-linecap:round;stroke-linejoin:miter;stroke-miterlimit:4;stroke-dasharray:none;display:inline" id="connector15pad" stroke-width="2.16" d="m109.8,25.2a1.8,1.8,0,1,1,-3.6,0,1.8,1.8,0,1,1,3.6,0z"/>
        </g>
        <g transform="matrix(1, 0, 0, 1, -57.6, 0)">
         <path stroke-opacity="1" fill="black" stroke="black" style="stroke-linecap:round;stroke-linejoin:miter;stroke-miterlimit:4;stroke-dasharray:none;display:inline" id="connector17pad" stroke-width="2.16" d="m109.8,25.2a1.8,1.8,0,1,1,-3.6,0,1.8,1.8,0,1,1,3.6,0z"/>
        </g>
        <g transform="matrix(1, 0, 0, 1, -64.8, 0)">
         <path stroke-opacity="1" fill="black" stroke="black" style="stroke-linecap:round;stroke-linejoin:miter;stroke-miterlimit:4;stroke-dasharray:none;display:inline" id="connector19pad" stroke-width="2.16" d="m109.8,25.2a1.8,1.8,0,1,1,-3.6,0,1.8,1.8,0,1,1,3.6,0z"/>
        </g>
        <g transform="matrix(1, 0, 0, 1, -36, 0)">
         <path stroke-opacity="1" fill="black" stroke="black" style="stroke-linecap:round;stroke-linejoin:miter;stroke-miterlimit:4;stroke-dasharray:none;display:inline" id="connector11pad" stroke-width="2.16" d="m109.8,25.2a1.8,1.8,0,1,1,-3.6,0,1.8,1.8,0,1,1,3.6,0z"/>
        </g>
        <g transform="matrix(1, 0, 0, 1, -43.2, 0)">
         <path stroke-opacity="1" fill="black" stroke="black" style="stroke-linecap:round;stroke-linejoin:miter;stroke-miterlimit:4;stroke-dasharray:none;display:inline" id="connector13pad" stroke-width="2.16" d="m109.8,25.2a1.8,1.8,0,1,1,-3.6,0,1.8,1.8,0,1,1,3.6,0z"/>
        </g>
        <g transform="matrix(1, 0, 0, 1, -79.2, 0)">
         <path stroke-opacity="1" fill="black" stroke="black" style="stroke-linecap:round;stroke-linejoin:miter;stroke-miterlimit:4;stroke-dasharray:none;display:inline" id="connector23pad" stroke-width="2.16" d="m109.8,25.2a1.8,1.8,0,1,1,-3.6,0,1.8,1.8,0,1,1,3.6,0z"/>
        </g>
        <g transform="matrix(1, 0, 0, 1, -86.4, 0)">
         <path stroke-opacity="1" fill="black" stroke="black" style="stroke-linecap:round;stroke-linejoin:miter;stroke-miterlimit:4;stroke-dasharray:none;display:inline" id="connector25pad" stroke-width="2.16" d="m109.8,25.2a1.8,1.8,0,1,1,-3.6,0,1.8,1.8,0,1,1,3.6,0z"/>
        </g>
        <g transform="matrix(1, 0, 0, 1, -72, 0)">
         <path stroke-opacity="1" fill="black" stroke="black" style="stroke-linecap:round;stroke-linejoin:miter;stroke-miterlimit:4;stroke-dasharray:none;display:inline" id="connector21pad" stroke-width="2.16" d="m109.8,25.2a1.8,1.8,0,1,1,-3.6,0,1.8,1.8,0,1,1,3.6,0z"/>
        </g>
        <g transform="matrix(1, 0, 0, 1, -14.4, 7.2)">
         <path stroke-opacity="1" fill="black" stroke="black" style="stroke-linecap:round;stroke-linejoin:miter;stroke-miterlimit:4;stroke-dasharray:none;display:inline" id="connector6pad" stroke-width="2.16" d="m109.8,25.2a1.8,1.8,0,1,1,-3.6,0,1.8,1.8,0,1,1,3.6,0z"/>
        </g>
        <g transform="matrix(1, 0, 0, 1, -21.6, 7.2)">
         <path stroke-opacity="1" fill="black" stroke="black" style="stroke-linecap:round;stroke-linejoin:miter;stroke-miterlimit:4;stroke-dasharray:none;display:inline" id="connector8pad" stroke-width="2.16" d="m109.8,25.2a1.8,1.8,0,1,1,-3.6,0,1.8,1.8,0,1,1,3.6,0z"/>
        </g>
        <g transform="matrix(1, 0, 0, 1, -28.8, 7.2)">
         <path stroke-opacity="1" fill="black" stroke="black" style="stroke-linecap:round;stroke-linejoin:miter;stroke-miterlimit:4;stroke-dasharray:none;display:inline" id="connector10pad" stroke-width="2.16" d="m109.8,25.2a1.8,1.8,0,1,1,-3.6,0,1.8,1.8,0,1,1,3.6,0z"/>
        </g>
        <g transform="matrix(1, 0, 0, 1, -50.4, 7.2)">
         <path stroke-opacity="1" fill="black" stroke="black" style="stroke-linecap:round;stroke-linejoin:miter;stroke-miterlimit:4;stroke-dasharray:none;display:inline" id="connector16pad" stroke-width="2.16" d="m109.8,25.2a1.8,1.8,0,1,1,-3.6,0,1.8,1.8,0,1,1,3.6,0z"/>
        </g>
        <g transform="matrix(1, 0, 0, 1, -57.6, 7.2)">
         <path stroke-opacity="1" fill="black" stroke="black" style="stroke-linecap:round;stroke-linejoin:miter;stroke-miterlimit:4;stroke-dasharray:none;display:inline" id="connector18pad" stroke-width="2.16" d="m109.8,25.2a1.8,1.8,0,1,1,-3.6,0,1.8,1.8,0,1,1,3.6,0z"/>
        </g>
        <g transform="matrix(1, 0, 0, 1, -64.8, 7.2)">
         <path stroke-opacity="1" fill="black" stroke="black" style="stroke-linecap:round;stroke-linejoin:miter;stroke-miterlimit:4;stroke-dasharray:none;display:inline" id="connector20pad" stroke-width="2.16" d="m109.8,25.2a1.8,1.8,0,1,1,-3.6,0,1.8,1.8,0,1,1,3.6,0z"/>
        </g>
        <g transform="matrix(1, 0, 0, 1, -36, 7.2)">
         <path stroke-opacity="1" fill="black" stroke="black" style="stroke-linecap:round;stroke-linejoin:miter;stroke-miterlimit:4;stroke-dasharray:none;display:inline" id="connector12pad" stroke-width="2.16" d="m109.8,25.2a1.8,1.8,0,1,1,-3.6,0,1.8,1.8,0,1,1,3.6,0z"/>
        </g>
        <g transform="matrix(1, 0, 0, 1, -43.2, 7.2)">
         <path stroke-opacity="1" fill="black" stroke="black" style="stroke-linecap:round;stroke-linejoin:miter;stroke-miterlimit:4;stroke-dasharray:none;display:inline" id="connector14pad" stroke-width="2.16" d="m109.8,25.2a1.8,1.8,0,1,1,-3.6,0,1.8,1.8,0,1,1,3.6,0z"/>
        </g>
        <g transform="matrix(1, 0, 0, 1, -79.2, 7.2)">
         <path stroke-opacity="1" fill="black" stroke="black" style="stroke-linecap:round;stroke-linejoin:miter;stroke-miterlimit:4;stroke-dasharray:none;display:inline" id="connector24pad" stroke-width="2.16" d="m109.8,25.2a1.8,1.8,0,1,1,-3.6,0,1.8,1.8,0,1,1,3.6,0z"/>
        </g>
        <g transform="matrix(1, 0, 0, 1, -86.4, 7.2)">
         <path stroke-opacity="1" fill="black" stroke="black" style="stroke-linecap:round;stroke-linejoin:miter;stroke-miterlimit:4;stroke-dasharray:none;display:inline" id="connector26pad" stroke-width="2.16" d="m109.8,25.2a1.8,1.8,0,1,1,-3.6,0,1.8,1.8,0,1,1,3.6,0z"/>
        </g>
        <g transform="matrix(1, 0, 0, 1, -72, 7.2)">
         <path stroke-opacity="1" fill="black" stroke="black" style="stroke-linecap:round;stroke-linejoin:miter;stroke-miterlimit:4;stroke-dasharray:none;display:inline" id="connector22pad" stroke-width="2.16" d="m109.8,25.2a1.8,1.8,0,1,1,-3.6,0,1.8,1.8,0,1,1,3.6,0z"/>
        </g>
        <g transform="matrix(1, 0, 0, 1, 0, 7.2)">
         <path stroke-opacity="1" fill="black" stroke="black" style="stroke-linecap:round;stroke-linejoin:miter;stroke-miterlimit:4;stroke-dasharray:none;display:inline" id="connector2pad" stroke-width="2.16" d="m109.8,25.2a1.8,1.8,0,1,1,-3.6,0,1.8,1.8,0,1,1,3.6,0z"/>
        </g>
        <g transform="matrix(1, 0, 0, 1, -7.2, 7.2)">
         <path stroke-opacity="1" fill="black" stroke="black" style="stroke-linecap:round;stroke-linejoin:miter;stroke-miterlimit:4;stroke-dasharray:none;display:inline" id="connector4pad" stroke-width="2.16" d="m109.8,25.2a1.8,1.8,0,1,1,-3.6,0,1.8,1.8,0,1,1,3.6,0z"/>
        </g>
        <rect width="3.6" x="106.2" y="23.4" stroke-opacity="1" fill="black" height="3.6" stroke="black" style="stroke-linecap:round;stroke-linejoin:miter;stroke-miterlimit:4;stroke-dasharray:none;display:inline" id="rect4984" stroke-width="2.16"/>
        <path stroke-opacity="1" fill="black" stroke="black" style="stroke-linecap:round;stroke-linejoin:miter;stroke-miterlimit:4;stroke-dasharray:none" id="connector1pad" stroke-width="2.16" d="m109.8,25.2a1.8,1.8,0,1,1,-3.6,0,1.8,1.8,0,1,1,3.6,0z"/>
        <g transform="matrix(1, 0, 0, 1, -7.2, 0)">
         <path stroke-opacity="1" fill="black" stroke="black" style="stroke-linecap:round;stroke-linejoin:miter;stroke-miterlimit:4;stroke-dasharray:none" id="connector3pad" stroke-width="2.16" d="m109.8,25.2a1.8,1.8,0,1,1,-3.6,0,1.8,1.8,0,1,1,3.6,0z"/>
        </g>
       </g>
      </g>
     </g>
    </g>
   </g>
  </g>
  <g partID="7784001">
   <g transform="translate(81.0186,60.8168)">
    <g transform="matrix(0,1,-1,0,0,0)">
     <g  id="copper1">
      <g  id="copper0">
       <circle fill="black" cx="5.04"  cy="5.04" stroke="black" id="connector0pin" r="2.088" stroke-width="2.16"/>
       <circle fill="black" cx="5.04"  cy="12.24" stroke="black" id="connector1pin" r="2.088" stroke-width="2.16"/>
       <circle fill="black" cx="5.04"  cy="19.44" stroke="black" id="connector2pin" r="2.088" stroke-width="2.16"/>
      </g>
     </g>
    </g>
   </g>
  </g>
 </g>
</svg>
