<?xml version='1.0' encoding='UTF-8' standalone='no'?>
<!-- Created with Fritzing (http://www.fritzing.org/) -->
<svg xmlns="http://www.w3.org/2000/svg" width="1.45513in" x="0in" version="1.2" y="0in"  height="1.41771in" viewBox="0 0 104.77 102.075" baseProfile="tiny" xmlns:svg="http://www.w3.org/2000/svg">
 <g partID="12040">
  <g id="board">
   <rect width="104.194" x="0.288" y="0.288" fill="none" height="101.499" stroke="black" fill-opacity="0.5" id="boardoutline" stroke-width="0.5"/>
  </g>
 </g>
 <g partID="8164300">
  <g transform="translate(28.2916,45.8875)">
   <g  id="copper0">
    <circle fill="none" cx="3.01733"  cy="3.01733" stroke="black" r="0.992124" id="connector0pin" stroke-width="0.850392"/>
   </g>
  </g>
 </g>
 <g partID="8166990">
  <g transform="translate(46.099,63.1611)">
   <g  id="copper0">
    <circle fill="none" cx="3.01733"  cy="3.01733" stroke="black" r="0.992124" id="connector0pin" stroke-width="0.850392"/>
   </g>
  </g>
 </g>
 <g partID="8054040">
  <g transform="translate(10.1665,32.6921)">
   <g transform="matrix(0,-1,1,0,0,0)">
    <g flipped="1" id="copper0">
     <g transform="matrix(-1, 0, 0, 1, 14.4567, 0)">
      <g>
       <g>
        <rect width="4.53543" x="0.566929" y="0.566929" fill="black" height="5.38583" stroke="none" fill-opacity="1" id="connector0pad" stroke-width="0"/>
        <rect width="4.53543" x="9.35433" y="0.566929" fill="black" height="5.38583" stroke="none" fill-opacity="1" id="connector1pad" stroke-width="0"/>
       </g>
      </g>
     </g>
    </g>
   </g>
  </g>
 </g>
 <g partID="8054120">
  <g transform="translate(28.0248,17.3853)">
   <g transform="matrix(0,-1,1,0,0,0)">
    <g flipped="1" id="copper0">
     <g transform="matrix(-1, 0, 0, 1, 14.4567, 0)">
      <g>
       <g>
        <rect width="4.53543" x="0.566929" y="0.566929" fill="black" height="5.38583" stroke="none" fill-opacity="1" id="connector0pad" stroke-width="0"/>
        <rect width="4.53543" x="9.35433" y="0.566929" fill="black" height="5.38583" stroke="none" fill-opacity="1" id="connector1pad" stroke-width="0"/>
       </g>
      </g>
     </g>
    </g>
   </g>
  </g>
 </g>
 <g partID="8054300">
  <g transform="translate(41.6311,44.0309)">
   <g transform="matrix(0,-1,1,0,0,0)">
    <g flipped="1" id="copper0">
     <g transform="matrix(-1, 0, 0, 1, 14.4567, 0)">
      <g>
       <g>
        <rect width="4.53543" x="0.566929" y="0.566929" fill="black" height="5.38583" stroke="none" fill-opacity="1" id="connector0pad" stroke-width="0"/>
        <rect width="4.53543" x="9.35433" y="0.566929" fill="black" height="5.38583" stroke="none" fill-opacity="1" id="connector1pad" stroke-width="0"/>
       </g>
      </g>
     </g>
    </g>
   </g>
  </g>
 </g>
 <g partID="8054400">
  <g transform="translate(82.7335,29.5742)">
   <g transform="matrix(0,1,-1,0,0,0)">
    <g flipped="1" id="copper0">
     <g transform="matrix(-1, 0, 0, 1, 14.4567, 0)">
      <g>
       <g>
        <rect width="4.53543" x="0.566929" y="0.566929" fill="black" height="5.38583" stroke="none" fill-opacity="1" id="connector0pad" stroke-width="0"/>
        <rect width="4.53543" x="9.35433" y="0.566929" fill="black" height="5.38583" stroke="none" fill-opacity="1" id="connector1pad" stroke-width="0"/>
       </g>
      </g>
     </g>
    </g>
   </g>
  </g>
 </g>
 <g partID="8054600">
  <g transform="translate(83.0169,3.21184)">
   <g transform="matrix(0,1,-1,0,0,0)">
    <g flipped="1" id="copper0">
     <g transform="matrix(-1, 0, 0, 1, 14.4567, 0)">
      <g>
       <g>
        <rect width="4.53543" x="0.566929" y="0.566929" fill="black" height="5.38583" stroke="none" fill-opacity="1" id="connector0pad" stroke-width="0"/>
        <rect width="4.53543" x="9.35433" y="0.566929" fill="black" height="5.38583" stroke="none" fill-opacity="1" id="connector1pad" stroke-width="0"/>
       </g>
      </g>
     </g>
    </g>
   </g>
  </g>
 </g>
 <g partID="8054840">
  <g transform="translate(41.6311,17.6685)">
   <g transform="matrix(0,-1,1,0,0,0)">
    <g flipped="1" id="copper0">
     <g transform="matrix(-1, 0, 0, 1, 14.4567, 0)">
      <g>
       <g>
        <rect width="4.53543" x="0.566929" y="0.566929" fill="black" height="5.38583" stroke="none" fill-opacity="1" id="connector0pad" stroke-width="0"/>
        <rect width="4.53543" x="9.35433" y="0.566929" fill="black" height="5.38583" stroke="none" fill-opacity="1" id="connector1pad" stroke-width="0"/>
       </g>
      </g>
     </g>
    </g>
   </g>
  </g>
 </g>
 <g partID="8054980">
  <g transform="translate(34.5445,29.5742)">
   <g transform="matrix(0,1,-1,0,0,0)">
    <g flipped="1" id="copper0">
     <g transform="matrix(-1, 0, 0, 1, 14.4567, 0)">
      <g>
       <g>
        <rect width="4.53543" x="0.566929" y="0.566929" fill="black" height="5.38583" stroke="none" fill-opacity="1" id="connector0pad" stroke-width="0"/>
        <rect width="4.53543" x="9.35433" y="0.566929" fill="black" height="5.38583" stroke="none" fill-opacity="1" id="connector1pad" stroke-width="0"/>
       </g>
      </g>
     </g>
    </g>
   </g>
  </g>
 </g>
 <g partID="8055220">
  <g transform="translate(10.45,69.5425)">
   <g transform="matrix(0,-1,1,0,0,0)">
    <g flipped="1" id="copper0">
     <g transform="matrix(-1, 0, 0, 1, 14.4567, 0)">
      <g>
       <g>
        <rect width="4.53543" x="0.566929" y="0.566929" fill="black" height="5.38583" stroke="none" fill-opacity="1" id="connector0pad" stroke-width="0"/>
        <rect width="4.53543" x="9.35433" y="0.566929" fill="black" height="5.38583" stroke="none" fill-opacity="1" id="connector1pad" stroke-width="0"/>
       </g>
      </g>
     </g>
    </g>
   </g>
  </g>
 </g>
 <g partID="8155070">
  <g transform="translate(28.2133,19.1691)">
   <g  id="copper0">
    <circle fill="none" cx="3.01732"  cy="3.01732" stroke="black" r="0.992124" id="connector0pin" stroke-width="0.850392"/>
   </g>
  </g>
 </g>
 <g partID="7988450">
  <g transform="translate(18.5287,55.2275)">
   <g flipped="1" id="copper0">
    <g transform="matrix(-1, 0, 0, 1, 14.4567, 0)">
     <g>
      <g>
       <rect width="4.53543" x="0.566929" y="0.566929" fill="black" height="5.38583" stroke="none" fill-opacity="1" id="connector0pad" stroke-width="0"/>
       <rect width="4.53543" x="9.35433" y="0.566929" fill="black" height="5.38583" stroke="none" fill-opacity="1" id="connector1pad" stroke-width="0"/>
      </g>
     </g>
    </g>
   </g>
  </g>
 </g>
 <g partID="7988550">
  <g transform="translate(47.8673,65.432)">
   <g transform="matrix(-1,0,0,-1,0,0)">
    <g flipped="1" id="copper0">
     <g transform="matrix(-1, 0, 0, 1, 8.50394, 0)">
      <g>
       <g>
        <!-- unten links -->
        <rect width="2.26772" x="0.425197" y="5.66929" fill="black" height="2.55118" stroke="none" fill-opacity="1" id="connector0pin"/>
        <g width="0" x="1.55906" y="6.94488" fill="none" height="0" id="connector0terminal" stroke-width="0"/>
        <!-- unten rechts -->
        <rect width="2.26772" x="5.81102" y="5.66929" fill="black" height="2.55118" stroke="none" fill-opacity="1" id="connector1pin"/>
        <g width="0" x="6.94488" y="6.94488" fill="none" height="0" id="connector1terminal" stroke-width="0"/>
        <!-- oben mitte -->
        <rect width="2.26772" x="3.11811" y="0" fill="black" height="2.55118" stroke="none" fill-opacity="1" id="connector2pin"/>
        <g width="0" x="4.25197" y="1.27559" fill="none" height="0" id="connector2terminal" stroke-width="0"/>
       </g>
      </g>
     </g>
    </g>
   </g>
  </g>
 </g>
 <g partID="7998600">
  <g transform="translate(63.8831,54.0939)">
   <g flipped="1" id="copper0">
    <g transform="matrix(-1, 0, 0, 1, 14.4567, 0)">
     <g>
      <g>
       <rect width="4.53543" x="0.566929" y="0.566929" fill="black" height="5.38583" stroke="none" fill-opacity="1" id="connector0pad" stroke-width="0"/>
       <rect width="4.53543" x="9.35433" y="0.566929" fill="black" height="5.38583" stroke="none" fill-opacity="1" id="connector1pad" stroke-width="0"/>
      </g>
     </g>
    </g>
   </g>
  </g>
 </g>
 <g partID="7717640">
  <g transform="translate(56.8588,92.2819)">
   <g  id="copper0">
    <circle fill="none" cx="5.04"  cy="5.04" stroke="black" id="connector0pin" r="2.088" stroke-width="1.44"/>
   </g>
  </g>
 </g>
 <g partID="7717620">
  <g transform="translate(3.28403,92.282)">
   <g  id="copper0">
    <circle fill="none" cx="5.04"  cy="5.04" stroke="black" id="connector0pin" r="2.088" stroke-width="1.44"/>
   </g>
  </g>
 </g>
 <g partID="7717600">
  <g transform="translate(47.788,92.2819)">
   <g  id="copper0">
    <circle fill="none" cx="5.04"  cy="5.04" stroke="black" id="connector0pin" r="2.088" stroke-width="1.44"/>
   </g>
  </g>
 </g>
 <g partID="7717560">
  <g transform="translate(23.9769,63.3683)">
   <g  id="copper0">
    <circle fill="none" cx="5.04"  cy="5.04" stroke="black" id="connector0pin" r="2.088" stroke-width="1.44"/>
   </g>
  </g>
 </g>
 <g partID="7717500">
  <g transform="translate(32.1974,63.3683)">
   <g  id="copper0">
    <circle fill="none" cx="5.04"  cy="5.04" stroke="black" id="connector0pin" r="2.088" stroke-width="1.44"/>
   </g>
  </g>
 </g>
 <g partID="7717480">
  <g transform="translate(20.8588,92.282)">
   <g  id="copper0">
    <circle fill="none" cx="5.04"  cy="5.04" stroke="black" id="connector0pin" r="2.088" stroke-width="1.44"/>
   </g>
  </g>
 </g>
 <g partID="7717460">
  <g transform="translate(12.0714,92.282)">
   <g  id="copper0">
    <circle fill="none" cx="5.04"  cy="5.04" stroke="black" id="connector0pin" r="2.088" stroke-width="1.44"/>
   </g>
  </g>
 </g>
 <g partID="7717440">
  <g transform="translate(92.5754,31.9043)">
   <g  id="copper0">
    <circle fill="none" cx="5.04"  cy="5.04" stroke="black" id="connector0pin" r="2.088" stroke-width="1.44"/>
   </g>
  </g>
 </g>
 <g partID="7979060">
  <g transform="translate(92.0084,92.2819)">
   <g  id="copper0">
    <circle fill="none" cx="5.04"  cy="5.04" stroke="black" id="connector0pin" r="2.088" stroke-width="1.44"/>
   </g>
  </g>
 </g>
 <g partID="7717360">
  <g transform="translate(74.1502,92.2819)">
   <g  id="copper0">
    <circle fill="none" cx="5.04"  cy="5.04" stroke="black" id="connector0pin" r="2.088" stroke-width="1.44"/>
   </g>
  </g>
 </g>
 <g partID="7716180">
  <g transform="translate(29.6463,92.2819)">
   <g transform="matrix(1,4.26227e-18,-4.26227e-18,1,0,0)">
    <g  id="copper0">
     <circle fill="none" cx="5.04"  cy="5.04" stroke="black" id="connector0pin" r="2.088" stroke-width="1.44"/>
    </g>
   </g>
  </g>
 </g>
 <g partID="7978000">
  <g transform="translate(83.2211,92.2819)">
   <g  id="copper0">
    <circle fill="none" cx="5.04"  cy="5.04" stroke="black" id="connector0pin" r="2.088" stroke-width="1.44"/>
   </g>
  </g>
 </g>
 <g partID="7716140">
  <g transform="translate(66.2131,92.2819)">
   <g  id="copper0">
    <circle fill="none" cx="5.04"  cy="5.04" stroke="black" id="connector0pin" r="2.088" stroke-width="1.44"/>
   </g>
  </g>
 </g>
 <g partID="7716050">
  <g transform="translate(38.7171,92.2819)">
   <g  id="copper0">
    <circle fill="none" cx="5.04"  cy="5.04" stroke="black" id="connector0pin" r="2.088" stroke-width="1.44"/>
   </g>
  </g>
 </g>
 <g partID="6832280">
  <g transform="translate(80.1976,67.9683)">
   <g transform="matrix(0,-1,1,0,0,0)">
    <g  id="copper0">
     <circle fill="none" cx="3.528"  cy="17.928" stroke="black" id="connector2pad" r="2.52" stroke-width="2.088"/>
     <rect width="5.04" x="1.008" y="1.008" fill="none"  height="5.04" stroke="black" stroke-width="2.088"/>
     <circle fill="none" cx="3.528"  cy="3.528" stroke="black" id="connector0pad" r="2.52" stroke-width="2.088"/>
     <circle fill="none" cx="17.928"  cy="10.728" stroke="black" id="connector1pad" r="2.52" stroke-width="2.088"/>
    </g>
   </g>
  </g>
 </g>
 <g partID="7838100">
  <g transform="translate(74.2411,48.0114)">
   <g transform="matrix(-1,0,0,-1,0,0)">
    <g flipped="1" id="copper0">
     <g transform="matrix(-1, 0, 0, 1, 23.2668, 0)">
      <g>
       <g>
        <g id="">
         <circle fill="none" cx="20.8462" cy="15.6024" stroke="black" id="connector0pad" r="1.98" stroke-width="1.44"/>
         <circle fill="none" cx="2.42064" cy="15.6024" stroke="black" id="connector1pad" r="1.98" stroke-width="1.44"/>
         <circle fill="none" cx="20.8462" cy="2.84616" stroke="black" id="connector2pad" r="1.98" stroke-width="1.44"/>
         <circle fill="none" cx="2.42064" cy="2.84616" stroke="black" id="connector3pad" r="1.98" stroke-width="1.44"/>
        </g>
       </g>
      </g>
     </g>
    </g>
   </g>
  </g>
 </g>
 <g partID="7838300">
  <g transform="translate(24.6347,21.6482)">
   <g transform="matrix(-1,0,0,-1,0,0)">
    <g flipped="1" id="copper0">
     <g transform="matrix(-1, 0, 0, 1, 23.2668, 0)">
      <g>
       <g>
        <g id="">
         <circle fill="none" cx="20.8462" cy="15.6024" stroke="black" id="connector0pad" r="1.98" stroke-width="1.44"/>
         <circle fill="none" cx="2.42064" cy="15.6024" stroke="black" id="connector1pad" r="1.98" stroke-width="1.44"/>
         <circle fill="none" cx="20.8462" cy="2.84616" stroke="black" id="connector2pad" r="1.98" stroke-width="1.44"/>
         <circle fill="none" cx="2.42064" cy="2.84616" stroke="black" id="connector3pad" r="1.98" stroke-width="1.44"/>
        </g>
       </g>
      </g>
     </g>
    </g>
   </g>
  </g>
 </g>
 <g partID="7837860">
  <g transform="translate(74.2411,21.6482)">
   <g transform="matrix(-1,0,0,-1,0,0)">
    <g flipped="1" id="copper0">
     <g transform="matrix(-1, 0, 0, 1, 23.2668, 0)">
      <g>
       <g>
        <g id="">
         <circle fill="none" cx="20.8462" cy="15.6024" stroke="black" id="connector0pad" r="1.98" stroke-width="1.44"/>
         <circle fill="none" cx="2.42064" cy="15.6024" stroke="black" id="connector1pad" r="1.98" stroke-width="1.44"/>
         <circle fill="none" cx="20.8462" cy="2.84616" stroke="black" id="connector2pad" r="1.98" stroke-width="1.44"/>
         <circle fill="none" cx="2.42064" cy="2.84616" stroke="black" id="connector3pad" r="1.98" stroke-width="1.44"/>
        </g>
       </g>
      </g>
     </g>
    </g>
   </g>
  </g>
 </g>
 <g partID="7838500">
  <g transform="translate(24.6347,48.0106)">
   <g transform="matrix(-1,0,0,-1,0,0)">
    <g flipped="1" id="copper0">
     <g transform="matrix(-1, 0, 0, 1, 23.2668, 0)">
      <g>
       <g>
        <g id="">
         <circle fill="none" cx="20.8462" cy="15.6024" stroke="black" id="connector0pad" r="1.98" stroke-width="1.44"/>
         <circle fill="none" cx="2.42064" cy="15.6024" stroke="black" id="connector1pad" r="1.98" stroke-width="1.44"/>
         <circle fill="none" cx="20.8462" cy="2.84616" stroke="black" id="connector2pad" r="1.98" stroke-width="1.44"/>
         <circle fill="none" cx="2.42064" cy="2.84616" stroke="black" id="connector3pad" r="1.98" stroke-width="1.44"/>
        </g>
       </g>
      </g>
     </g>
    </g>
   </g>
  </g>
 </g>
 <g partID="7303290">
  <g transform="translate(-7.40942,65.7307)">
   <g transform="matrix(1, 0, 0, 1, 0, -809.49)">
    <g id="copper0">
     <g transform="matrix(1, 0, 0, 1, -3.6, 796.89)">
      <g stroke-opacity="1" fill="none" stroke="black" style="display:inline">
       <g transform="matrix(1, 0, 0, 1, -14.4, 0)">
        <path stroke-opacity="1" fill="none" stroke="black" style="stroke-linecap:round;stroke-linejoin:miter;stroke-miterlimit:4;stroke-dasharray:none;display:inline" id="connector5pad" stroke-width="1.44" d="m109.8,25.2a1.8,1.8,0,1,1,-3.6,0,1.8,1.8,0,1,1,3.6,0z"/>
       </g>
       <g transform="matrix(1, 0, 0, 1, -21.6, 0)">
        <path stroke-opacity="1" fill="none" stroke="black" style="stroke-linecap:round;stroke-linejoin:miter;stroke-miterlimit:4;stroke-dasharray:none;display:inline" id="connector7pad" stroke-width="1.44" d="m109.8,25.2a1.8,1.8,0,1,1,-3.6,0,1.8,1.8,0,1,1,3.6,0z"/>
       </g>
       <g transform="matrix(1, 0, 0, 1, -28.8, 0)">
        <path stroke-opacity="1" fill="none" stroke="black" style="stroke-linecap:round;stroke-linejoin:miter;stroke-miterlimit:4;stroke-dasharray:none;display:inline" id="connector9pad" stroke-width="1.44" d="m109.8,25.2a1.8,1.8,0,1,1,-3.6,0,1.8,1.8,0,1,1,3.6,0z"/>
       </g>
       <g transform="matrix(1, 0, 0, 1, -50.4, 0)">
        <path stroke-opacity="1" fill="none" stroke="black" style="stroke-linecap:round;stroke-linejoin:miter;stroke-miterlimit:4;stroke-dasharray:none;display:inline" id="connector15pad" stroke-width="1.44" d="m109.8,25.2a1.8,1.8,0,1,1,-3.6,0,1.8,1.8,0,1,1,3.6,0z"/>
       </g>
       <g transform="matrix(1, 0, 0, 1, -57.6, 0)">
        <path stroke-opacity="1" fill="none" stroke="black" style="stroke-linecap:round;stroke-linejoin:miter;stroke-miterlimit:4;stroke-dasharray:none;display:inline" id="connector17pad" stroke-width="1.44" d="m109.8,25.2a1.8,1.8,0,1,1,-3.6,0,1.8,1.8,0,1,1,3.6,0z"/>
       </g>
       <g transform="matrix(1, 0, 0, 1, -64.8, 0)">
        <path stroke-opacity="1" fill="none" stroke="black" style="stroke-linecap:round;stroke-linejoin:miter;stroke-miterlimit:4;stroke-dasharray:none;display:inline" id="connector19pad" stroke-width="1.44" d="m109.8,25.2a1.8,1.8,0,1,1,-3.6,0,1.8,1.8,0,1,1,3.6,0z"/>
       </g>
       <g transform="matrix(1, 0, 0, 1, -36, 0)">
        <path stroke-opacity="1" fill="none" stroke="black" style="stroke-linecap:round;stroke-linejoin:miter;stroke-miterlimit:4;stroke-dasharray:none;display:inline" id="connector11pad" stroke-width="1.44" d="m109.8,25.2a1.8,1.8,0,1,1,-3.6,0,1.8,1.8,0,1,1,3.6,0z"/>
       </g>
       <g transform="matrix(1, 0, 0, 1, -43.2, 0)">
        <path stroke-opacity="1" fill="none" stroke="black" style="stroke-linecap:round;stroke-linejoin:miter;stroke-miterlimit:4;stroke-dasharray:none;display:inline" id="connector13pad" stroke-width="1.44" d="m109.8,25.2a1.8,1.8,0,1,1,-3.6,0,1.8,1.8,0,1,1,3.6,0z"/>
       </g>
       <g transform="matrix(1, 0, 0, 1, -79.2, 0)">
        <path stroke-opacity="1" fill="none" stroke="black" style="stroke-linecap:round;stroke-linejoin:miter;stroke-miterlimit:4;stroke-dasharray:none;display:inline" id="connector23pad" stroke-width="1.44" d="m109.8,25.2a1.8,1.8,0,1,1,-3.6,0,1.8,1.8,0,1,1,3.6,0z"/>
       </g>
       <g transform="matrix(1, 0, 0, 1, -86.4, 0)">
        <path stroke-opacity="1" fill="none" stroke="black" style="stroke-linecap:round;stroke-linejoin:miter;stroke-miterlimit:4;stroke-dasharray:none;display:inline" id="connector25pad" stroke-width="1.44" d="m109.8,25.2a1.8,1.8,0,1,1,-3.6,0,1.8,1.8,0,1,1,3.6,0z"/>
       </g>
       <g transform="matrix(1, 0, 0, 1, -72, 0)">
        <path stroke-opacity="1" fill="none" stroke="black" style="stroke-linecap:round;stroke-linejoin:miter;stroke-miterlimit:4;stroke-dasharray:none;display:inline" id="connector21pad" stroke-width="1.44" d="m109.8,25.2a1.8,1.8,0,1,1,-3.6,0,1.8,1.8,0,1,1,3.6,0z"/>
       </g>
       <g transform="matrix(1, 0, 0, 1, -14.4, 7.2)">
        <path stroke-opacity="1" fill="none" stroke="black" style="stroke-linecap:round;stroke-linejoin:miter;stroke-miterlimit:4;stroke-dasharray:none;display:inline" id="connector6pad" stroke-width="1.44" d="m109.8,25.2a1.8,1.8,0,1,1,-3.6,0,1.8,1.8,0,1,1,3.6,0z"/>
       </g>
       <g transform="matrix(1, 0, 0, 1, -21.6, 7.2)">
        <path stroke-opacity="1" fill="none" stroke="black" style="stroke-linecap:round;stroke-linejoin:miter;stroke-miterlimit:4;stroke-dasharray:none;display:inline" id="connector8pad" stroke-width="1.44" d="m109.8,25.2a1.8,1.8,0,1,1,-3.6,0,1.8,1.8,0,1,1,3.6,0z"/>
       </g>
       <g transform="matrix(1, 0, 0, 1, -28.8, 7.2)">
        <path stroke-opacity="1" fill="none" stroke="black" style="stroke-linecap:round;stroke-linejoin:miter;stroke-miterlimit:4;stroke-dasharray:none;display:inline" id="connector10pad" stroke-width="1.44" d="m109.8,25.2a1.8,1.8,0,1,1,-3.6,0,1.8,1.8,0,1,1,3.6,0z"/>
       </g>
       <g transform="matrix(1, 0, 0, 1, -50.4, 7.2)">
        <path stroke-opacity="1" fill="none" stroke="black" style="stroke-linecap:round;stroke-linejoin:miter;stroke-miterlimit:4;stroke-dasharray:none;display:inline" id="connector16pad" stroke-width="1.44" d="m109.8,25.2a1.8,1.8,0,1,1,-3.6,0,1.8,1.8,0,1,1,3.6,0z"/>
       </g>
       <g transform="matrix(1, 0, 0, 1, -57.6, 7.2)">
        <path stroke-opacity="1" fill="none" stroke="black" style="stroke-linecap:round;stroke-linejoin:miter;stroke-miterlimit:4;stroke-dasharray:none;display:inline" id="connector18pad" stroke-width="1.44" d="m109.8,25.2a1.8,1.8,0,1,1,-3.6,0,1.8,1.8,0,1,1,3.6,0z"/>
       </g>
       <g transform="matrix(1, 0, 0, 1, -64.8, 7.2)">
        <path stroke-opacity="1" fill="none" stroke="black" style="stroke-linecap:round;stroke-linejoin:miter;stroke-miterlimit:4;stroke-dasharray:none;display:inline" id="connector20pad" stroke-width="1.44" d="m109.8,25.2a1.8,1.8,0,1,1,-3.6,0,1.8,1.8,0,1,1,3.6,0z"/>
       </g>
       <g transform="matrix(1, 0, 0, 1, -36, 7.2)">
        <path stroke-opacity="1" fill="none" stroke="black" style="stroke-linecap:round;stroke-linejoin:miter;stroke-miterlimit:4;stroke-dasharray:none;display:inline" id="connector12pad" stroke-width="1.44" d="m109.8,25.2a1.8,1.8,0,1,1,-3.6,0,1.8,1.8,0,1,1,3.6,0z"/>
       </g>
       <g transform="matrix(1, 0, 0, 1, -43.2, 7.2)">
        <path stroke-opacity="1" fill="none" stroke="black" style="stroke-linecap:round;stroke-linejoin:miter;stroke-miterlimit:4;stroke-dasharray:none;display:inline" id="connector14pad" stroke-width="1.44" d="m109.8,25.2a1.8,1.8,0,1,1,-3.6,0,1.8,1.8,0,1,1,3.6,0z"/>
       </g>
       <g transform="matrix(1, 0, 0, 1, -79.2, 7.2)">
        <path stroke-opacity="1" fill="none" stroke="black" style="stroke-linecap:round;stroke-linejoin:miter;stroke-miterlimit:4;stroke-dasharray:none;display:inline" id="connector24pad" stroke-width="1.44" d="m109.8,25.2a1.8,1.8,0,1,1,-3.6,0,1.8,1.8,0,1,1,3.6,0z"/>
       </g>
       <g transform="matrix(1, 0, 0, 1, -86.4, 7.2)">
        <path stroke-opacity="1" fill="none" stroke="black" style="stroke-linecap:round;stroke-linejoin:miter;stroke-miterlimit:4;stroke-dasharray:none;display:inline" id="connector26pad" stroke-width="1.44" d="m109.8,25.2a1.8,1.8,0,1,1,-3.6,0,1.8,1.8,0,1,1,3.6,0z"/>
       </g>
       <g transform="matrix(1, 0, 0, 1, -72, 7.2)">
        <path stroke-opacity="1" fill="none" stroke="black" style="stroke-linecap:round;stroke-linejoin:miter;stroke-miterlimit:4;stroke-dasharray:none;display:inline" id="connector22pad" stroke-width="1.44" d="m109.8,25.2a1.8,1.8,0,1,1,-3.6,0,1.8,1.8,0,1,1,3.6,0z"/>
       </g>
       <g transform="matrix(1, 0, 0, 1, 0, 7.2)">
        <path stroke-opacity="1" fill="none" stroke="black" style="stroke-linecap:round;stroke-linejoin:miter;stroke-miterlimit:4;stroke-dasharray:none;display:inline" id="connector2pad" stroke-width="1.44" d="m109.8,25.2a1.8,1.8,0,1,1,-3.6,0,1.8,1.8,0,1,1,3.6,0z"/>
       </g>
       <g transform="matrix(1, 0, 0, 1, -7.2, 7.2)">
        <path stroke-opacity="1" fill="none" stroke="black" style="stroke-linecap:round;stroke-linejoin:miter;stroke-miterlimit:4;stroke-dasharray:none;display:inline" id="connector4pad" stroke-width="1.44" d="m109.8,25.2a1.8,1.8,0,1,1,-3.6,0,1.8,1.8,0,1,1,3.6,0z"/>
       </g>
       <rect width="3.6" x="106.2" y="23.4" stroke-opacity="1" fill="none" height="3.6" stroke="black" style="stroke-linecap:round;stroke-linejoin:miter;stroke-miterlimit:4;stroke-dasharray:none;display:inline" id="rect4984-3" stroke-width="1.44"/>
       <path stroke-opacity="1" fill="none" stroke="black" style="stroke-linecap:round;stroke-linejoin:miter;stroke-miterlimit:4;stroke-dasharray:none" id="connector1pad" stroke-width="1.44" d="m109.8,25.2a1.8,1.8,0,1,1,-3.6,0,1.8,1.8,0,1,1,3.6,0z"/>
       <g transform="matrix(1, 0, 0, 1, -7.2, 0)">
        <path stroke-opacity="1" fill="none" stroke="black" style="stroke-linecap:round;stroke-linejoin:miter;stroke-miterlimit:4;stroke-dasharray:none" id="connector3pad" stroke-width="1.44" d="m109.8,25.2a1.8,1.8,0,1,1,-3.6,0,1.8,1.8,0,1,1,3.6,0z"/>
       </g>
      </g>
     </g>
    </g>
   </g>
  </g>
 </g>
 <g partID="7784000">
  <g transform="translate(80.5451,60.8171)">
   <g transform="matrix(0,1,-1,0,0,0)">
    <g  id="copper0">
     <circle fill="none" cx="5.04"  cy="5.04" stroke="black" id="connector0pin" r="2.088" stroke-width="1.44"/>
     <circle fill="none" cx="5.04"  cy="12.24" stroke="black" id="connector1pin" r="2.088" stroke-width="1.44"/>
     <circle fill="none" cx="5.04"  cy="19.44" stroke="black" id="connector2pin" r="2.088" stroke-width="1.44"/>
    </g>
   </g>
  </g>
 </g>
 <g partID="8167340">
  <line stroke="black" stroke-linecap="round" y1="32.4084" x1="47.1838" y2="32.4084" stroke-width="1.728" x2="51.3349"/>
 </g>
 <g partID="8168460">
  <line stroke="black" stroke-linecap="round" y1="34.6587" x1="87.4061" y2="39.3286" stroke-width="1.728" x2="81.7397"/>
 </g>
 <g partID="8168800">
  <line stroke="black" stroke-linecap="round" y1="19.9387" x1="87.4061" y2="34.6587" stroke-width="1.728" x2="87.4061"/>
 </g>
 <g partID="8168470">
  <line stroke="black" stroke-linecap="round" y1="16.3642" x1="82.05" y2="19.9388" stroke-width="1.728" x2="87.4061"/>
 </g>
 <g partID="8168620">
  <line stroke="black" stroke-linecap="round" y1="49.1227" x1="79.4701" y2="55.0609" stroke-width="1.728" x2="76.6096"/>
 </g>
 <g partID="8168630">
  <line stroke="black" stroke-linecap="round" y1="43.064" x1="79.4728" y2="49.123" stroke-width="1.728" x2="79.4701"/>
 </g>
 <g partID="8168780">
  <line stroke="black" stroke-linecap="round" y1="32.4083" x1="73.8804" y2="32.4083" stroke-width="1.728" x2="77.1807"/>
 </g>
 <g partID="8149830">
  <line stroke="black" stroke-linecap="round" y1="58.4875" x1="32.0185" y2="58.4875" stroke-width="1.728" x2="40.1886"/>
 </g>
 <g partID="8167190">
  <line stroke="black" stroke-linecap="round" y1="65.0235" x1="43.5163" y2="67.3801" stroke-width="1.728" x2="39.1457"/>
 </g>
 <g partID="8149890">
  <line stroke="black" stroke-linecap="round" y1="64.1564" x1="43.6153" y2="65.0228" stroke-width="1.728" x2="43.5163"/>
 </g>
 <g partID="8169060">
  <line stroke="black" stroke-linecap="round" y1="43.6899" x1="91.0896" y2="47.7652" stroke-width="1.728" x2="90.9844"/>
 </g>
 <g partID="8149950">
  <line stroke="black" stroke-linecap="round" y1="38.5026" x1="96.108" y2="43.6901" stroke-width="1.728" x2="91.0897"/>
 </g>
 <g partID="8158630">
  <line stroke="black" stroke-linecap="round" y1="40.3915" x1="13.7026" y2="33.8175" stroke-width="1.728" x2="20.7116"/>
 </g>
 <g partID="8150070">
  <line stroke="black" stroke-linecap="round" y1="56.0528" x1="13.7091" y2="40.3915" stroke-width="1.728" x2="13.7026"/>
 </g>
 <g partID="8150130">
  <line stroke="black" stroke-linecap="round" y1="32.4087" x1="28.9917" y2="32.4083" stroke-width="1.728" x2="24.2741"/>
 </g>
 <g partID="8158700">
  <line stroke="black" stroke-linecap="round" y1="12.8851" x1="13.4303" y2="7.31136" stroke-width="1.728" x2="20.5887"/>
 </g>
 <g partID="8150190">
  <line stroke="black" stroke-linecap="round" y1="19.2024" x1="13.4273" y2="12.8851" stroke-width="1.728" x2="13.4303"/>
 </g>
 <g partID="8150250">
  <line stroke="black" stroke-linecap="round" y1="5.83467" x1="28.9918" y2="5.98165" stroke-width="1.728" x2="24.2731"/>
 </g>
 <g partID="8150430">
  <line stroke="black" stroke-linecap="round" y1="6.04656" x1="47.1838" y2="6.04623" stroke-width="1.728" x2="51.3349"/>
 </g>
 <g partID="8150490">
  <line stroke="black" stroke-linecap="round" y1="6.04654" x1="77.4641" y2="6.04622" stroke-width="1.728" x2="73.8804"/>
 </g>
 <g partID="8150550">
  <line stroke="black" stroke-linecap="round" y1="58.4874" x1="21.3634" y2="60.2029" stroke-width="1.728" x2="20.8627"/>
 </g>
 <g partID="8150610">
  <line stroke="black" stroke-linecap="round" y1="60.2027" x1="20.8627" y2="67.1147" stroke-width="1.728" x2="20.8627"/>
 </g>
 <g partID="8150630">
  <line stroke="black" stroke-linecap="round" y1="67.1147" x1="20.8627" y2="76.5664" stroke-width="1.728" x2="24.3413"/>
 </g>
 <g partID="8150950">
  <line stroke="black" stroke-linecap="round" y1="70.4733" x1="29.6774" y2="76.5401" stroke-width="1.728" x2="31.6178"/>
 </g>
 <g partID="8161450">
  <line stroke="black" stroke-linecap="round" y1="61.9419" x1="66.983" y2="63.8036" stroke-width="1.728" x2="67.6116"/>
 </g>
 <g partID="8151050">
  <line stroke="black" stroke-linecap="round" y1="59.6467" x1="66.8503" y2="61.9421" stroke-width="1.728" x2="66.983"/>
 </g>
 <g partID="8164000">
  <line stroke="black" stroke-linecap="round" y1="21.0907" x1="44.9101" y2="27.9461" stroke-width="1.728" x2="38.1499"/>
 </g>
 <g partID="8151330">
  <line stroke="black" stroke-linecap="round" y1="16.7016" x1="44.8967" y2="21.0909" stroke-width="1.728" x2="44.9101"/>
 </g>
 <g partID="8151450">
  <line stroke="black" stroke-linecap="round" y1="27.9459" x1="38.1499" y2="48.039" stroke-width="1.728" x2="38.1499"/>
 </g>
 <g partID="8163900">
  <line stroke="black" stroke-linecap="round" y1="55.0683" x1="45.7682" y2="55.0191" stroke-width="1.728" x2="51.9667"/>
 </g>
 <g partID="8151470">
  <line stroke="black" stroke-linecap="round" y1="48.0395" x1="38.1499" y2="55.0683" stroke-width="1.728" x2="45.7682"/>
 </g>
 <g partID="8151490">
  <line stroke="black" stroke-linecap="round" y1="55.0187" x1="51.9667" y2="72.3713" stroke-width="1.728" x2="52.2867"/>
 </g>
 <g partID="8151510">
  <line stroke="black" stroke-linecap="round" y1="72.3715" x1="52.2867" y2="76.9719" stroke-width="1.728" x2="47.8896"/>
 </g>
 <g partID="8151570">
  <line stroke="black" stroke-linecap="round" y1="68.5756" x1="11.7617" y2="74.0255" stroke-width="1.728" x2="6.07708"/>
 </g>
 <g partID="8170390">
  <line stroke="black" stroke-linecap="round" y1="74.0255" x1="6.07708" y2="82.3319" stroke-width="1.728" x2="6.07708"/>
 </g>
 <g partID="8151710">
  <line stroke="black" stroke-linecap="round" y1="82.3319" x1="6.07708" y2="84.4437" stroke-width="1.728" x2="9.05674"/>
 </g>
 <g partID="8160380">
  <line stroke="black" stroke-linecap="round" y1="90.8603" x1="72.6719" y2="87.2054" stroke-width="1.728" x2="74.5363"/>
 </g>
 <g partID="8160330">
  <line stroke="black" stroke-linecap="round" y1="90.8603" x1="64.9682" y2="90.8603" stroke-width="1.728" x2="72.6719"/>
 </g>
 <g partID="8151930">
  <line stroke="black" stroke-linecap="round" y1="95.3636" x1="62.829" y2="90.8602" stroke-width="1.728" x2="64.9682"/>
 </g>
 <g partID="8152290">
  <line stroke="black" stroke-linecap="round" y1="97.3219" x1="90.4291" y2="97.3219" stroke-width="1.728" x2="94.8804"/>
 </g>
 <g partID="8160280">
  <line stroke="black" stroke-linecap="round" y1="90.8603" x1="48.2571" y2="90.8603" stroke-width="1.728" x2="58.2126"/>
 </g>
 <g partID="8160230">
  <line stroke="black" stroke-linecap="round" y1="90.8603" x1="58.2126" y2="87.1979" stroke-width="1.728" x2="60.1216"/>
 </g>
 <g partID="8152590">
  <line stroke="black" stroke-linecap="round" y1="95.5428" x1="44.996" y2="90.8602" stroke-width="1.728" x2="48.2571"/>
 </g>
 <g partID="8152970">
  <line stroke="black" stroke-linecap="round" y1="43.064" x1="44.9051" y2="47.4827" stroke-width="1.728" x2="44.9385"/>
 </g>
 <g partID="8158940">
  <line stroke="black" stroke-linecap="round" y1="50.8419" x1="48.7684" y2="51.025" stroke-width="1.728" x2="53.157"/>
 </g>
 <g partID="8158890">
  <line stroke="black" stroke-linecap="round" y1="51.0251" x1="53.157" y2="53.4018" stroke-width="1.728" x2="55.3512"/>
 </g>
 <g partID="8153030">
  <line stroke="black" stroke-linecap="round" y1="47.4827" x1="44.9386" y2="50.842" stroke-width="1.728" x2="48.7684"/>
 </g>
 <g partID="8161520">
  <line stroke="black" stroke-linecap="round" y1="72.6083" x1="55.3682" y2="76.99" stroke-width="1.728" x2="59.673"/>
 </g>
 <g partID="8153130">
  <line stroke="black" stroke-linecap="round" y1="53.4011" x1="55.3512" y2="72.608" stroke-width="1.728" x2="55.3682"/>
 </g>
 <g partID="8153210">
  <line stroke="black" stroke-linecap="round" y1="31.7252" x1="12.3158" y2="36.0341" stroke-width="1.728" x2="9.75368"/>
 </g>
 <g partID="8170530">
  <line stroke="black" stroke-linecap="round" y1="48.017" x1="9.75368" y2="54.8255" stroke-width="1.728" x2="2.67283"/>
 </g>
 <g partID="8153350">
  <line stroke="black" stroke-linecap="round" y1="36.0341" x1="9.75368" y2="48.017" stroke-width="1.728" x2="9.75368"/>
 </g>
 <g partID="8170580">
  <line stroke="black" stroke-linecap="round" y1="54.8255" x1="2.67283" y2="86.5532" stroke-width="1.728" x2="2.12815"/>
 </g>
 <g partID="8153730">
  <line stroke="black" stroke-linecap="round" y1="86.5532" x1="2.12815" y2="90.2763" stroke-width="1.728" x2="6.58186"/>
 </g>
 <g partID="8153770">
  <line stroke="black" stroke-linecap="round" y1="90.2763" x1="6.58186" y2="90.2675" stroke-width="1.728" x2="34.9831"/>
 </g>
 <g partID="8153790">
  <line stroke="black" stroke-linecap="round" y1="90.2675" x1="34.9831" y2="86.907" stroke-width="1.728" x2="38.1099"/>
 </g>
 <g partID="8153830">
  <line stroke="black" stroke-linecap="round" y1="59.6467" x1="75.5051" y2="63.6899" stroke-width="1.728" x2="75.5051"/>
 </g>
 <g partID="8154730">
  <line stroke="black" stroke-linecap="round" y1="43.064" x1="31.2905" y2="47.538" stroke-width="1.728" x2="31.3046"/>
 </g>
 <g partID="8155030">
  <line stroke="black" stroke-linecap="round" y1="16.4184" x1="31.2714" y2="20.8199" stroke-width="1.728" x2="31.2403"/>
 </g>
 <g partID="8155310">
  <line stroke="black" stroke-linecap="round" y1="97.3219" x1="77.0222" y2="97.3219" stroke-width="1.728" x2="73.4211"/>
 </g>
 <g partID="8155370">
  <line stroke="black" stroke-linecap="round" y1="87.3371" x1="82.0697" y2="95.2388" stroke-width="1.728" x2="79.7909"/>
 </g>
 <g partID="8161240">
  <line stroke="black" stroke-linecap="round" y1="72.1339" x1="90.5682" y2="72.1339" stroke-width="1.728" x2="98.1534"/>
 </g>
 <g partID="8161030">
  <line stroke="black" stroke-linecap="round" y1="72.1339" x1="98.1534" y2="74.9784" stroke-width="1.728" x2="103.013"/>
 </g>
 <g partID="8155490">
  <line stroke="black" stroke-linecap="round" y1="66.1411" x1="85.2381" y2="72.1343" stroke-width="1.728" x2="90.5682"/>
 </g>
 <g partID="8160430">
  <line stroke="black" stroke-linecap="round" y1="86.5939" x1="103.013" y2="90.8606" stroke-width="1.728" x2="98.983"/>
 </g>
 <g partID="8155550">
  <line stroke="black" stroke-linecap="round" y1="74.9787" x1="103.013" y2="86.5935" stroke-width="1.728" x2="103.013"/>
 </g>
 <g partID="8155570">
  <line stroke="black" stroke-linecap="round" y1="90.8603" x1="98.983" y2="91.0974" stroke-width="1.728" x2="87.1311"/>
 </g>
 <g partID="8155590">
  <line stroke="black" stroke-linecap="round" y1="91.0971" x1="87.1311" y2="86.9873" stroke-width="1.728" x2="83.7789"/>
 </g>
 <g partID="8155610">
  <line stroke="black" stroke-linecap="round" y1="67.6768" x1="62.2837" y2="72.371" stroke-width="1.728" x2="65.3238"/>
 </g>
 <g partID="8155650">
  <line stroke="black" stroke-linecap="round" y1="72.3715" x1="65.3237" y2="72.3715" stroke-width="1.728" x2="79.4274"/>
 </g>
 <g partID="8155670">
  <line stroke="black" stroke-linecap="round" y1="72.3715" x1="79.4275" y2="66.4416" stroke-width="1.728" x2="82.6412"/>
 </g>
 <g partID="8155690">
  <line stroke="black" stroke-linecap="round" y1="59.306" x1="47.0421" y2="61.5863" stroke-width="1.728" x2="49.0867"/>
 </g>
 <g partID="8155730">
  <line stroke="black" stroke-linecap="round" y1="61.5859" x1="49.0867" y2="64.8116" stroke-width="1.728" x2="49.1075"/>
 </g>
</svg>
