M48
INCH
T10C0.086614
T11C0.035000
T12C0.041000
T13C0.046111
T14C0.030000
T15C0.015748
%
T10
X022980Y000558
X000658Y018904
X023020Y018904
T11
X018295Y001542
X015736Y001542
X018295Y003314
X015736Y003314
X013571Y001542
X011012Y001542
X013571Y003314
X011012Y003314
X019673Y001818
X020673Y001818
X021673Y001818
X008847Y001542
X006287Y001542
X008847Y003314
X006287Y003314
X004122Y001542
X001563Y001542
X004122Y003314
X001563Y003314
X016476Y017408
X015476Y017408
X014476Y017408
X013476Y017408
X012476Y017408
X011476Y017408
X010476Y017408
X009476Y017408
X008476Y017408
X007476Y017408
X006476Y017408
X005476Y017408
X004476Y017408
X003476Y017408
X002476Y017408
X001476Y017408
T12
X003870Y013199
X004870Y015199
X002870Y015199
T13
X002732Y011507
X002732Y010507
X002732Y009507
X002732Y008507
T14
X007755Y010129
X006755Y010129
X007755Y011129
X006755Y011129
X016755Y011129
X018755Y011129
X017755Y011129
X012755Y011129
X011755Y011129
X015755Y011129
X014755Y011129
X013755Y011129
X010755Y011129
X009755Y011129
X008755Y011129
X016755Y010129
X018755Y010129
X017755Y010129
X012755Y010129
X011755Y010129
X015755Y010129
X014755Y010129
X013755Y010129
X010755Y010129
X009755Y010129
X008755Y010129
T15
X003706Y012006
X011375Y013575
X020264Y015636
X014713Y012251
X013768Y012211
X006248Y012802
X019240Y008432
X006721Y006227
X003374Y006227
T00
M30
