G04 MADE WITH FRITZING*
G04 WWW.FRITZING.ORG*
G04 DOUBLE SIDED*
G04 HOLES PLATED*
G04 CONTOUR ON CENTER OF CONTOUR VECTOR*
%ASAXBY*%
%FSLAX23Y23*%
%MOIN*%
%OFA0B0*%
%SFA1.0B1.0*%
%ADD10C,0.085000*%
%ADD11C,0.109000*%
%ADD12C,0.083889*%
%ADD13C,0.049370*%
%ADD14C,0.096614*%
%ADD15R,0.085000X0.085000*%
%ADD16R,0.109000X0.109000*%
%ADD17R,0.045433X0.041496*%
%ADD18R,0.072992X0.084803*%
%ADD19R,0.084803X0.072992*%
%ADD20R,0.080000X0.080000*%
%ADD21R,0.001000X0.001000*%
%LNMASK1*%
G90*
G70*
G54D10*
X134Y1735D03*
X234Y1735D03*
X334Y1735D03*
X434Y1735D03*
X534Y1735D03*
X634Y1735D03*
X734Y1735D03*
X834Y1735D03*
X934Y1735D03*
X1034Y1735D03*
X1134Y1735D03*
X1234Y1735D03*
X1334Y1735D03*
X1434Y1735D03*
X1534Y1735D03*
X1634Y1735D03*
G54D11*
X273Y1514D03*
X473Y1514D03*
X373Y1314D03*
G54D10*
X142Y326D03*
X398Y326D03*
X142Y149D03*
X398Y149D03*
X615Y326D03*
X871Y326D03*
X615Y149D03*
X871Y149D03*
X2153Y176D03*
X2053Y176D03*
X1953Y176D03*
X1087Y326D03*
X1343Y326D03*
X1087Y149D03*
X1343Y149D03*
X1560Y326D03*
X1815Y326D03*
X1560Y149D03*
X1815Y149D03*
G54D12*
X259Y845D03*
X259Y945D03*
X259Y1045D03*
X259Y1145D03*
G54D13*
X323Y617D03*
X658Y617D03*
X1910Y838D03*
X611Y1275D03*
X1363Y1216D03*
X1457Y1219D03*
X2012Y1558D03*
X1123Y1352D03*
X356Y1195D03*
G54D14*
X56Y1885D03*
X2276Y50D03*
X2272Y1881D03*
G54D15*
X133Y1736D03*
G54D16*
X473Y1514D03*
G54D17*
X1815Y1483D03*
X1815Y1558D03*
X1737Y1521D03*
G54D18*
X2111Y404D03*
X1989Y404D03*
G54D19*
X1910Y1483D03*
X1910Y1361D03*
G54D15*
X1953Y176D03*
G54D20*
X661Y1007D03*
G54D21*
X656Y1148D02*
X666Y1148D01*
X756Y1148D02*
X766Y1148D01*
X856Y1148D02*
X866Y1148D01*
X956Y1148D02*
X966Y1148D01*
X1056Y1148D02*
X1066Y1148D01*
X1156Y1148D02*
X1166Y1148D01*
X1256Y1148D02*
X1266Y1148D01*
X1356Y1148D02*
X1366Y1148D01*
X1456Y1148D02*
X1466Y1148D01*
X1556Y1148D02*
X1566Y1148D01*
X1656Y1148D02*
X1666Y1148D01*
X1756Y1148D02*
X1766Y1148D01*
X1856Y1148D02*
X1866Y1148D01*
X652Y1147D02*
X670Y1147D01*
X752Y1147D02*
X770Y1147D01*
X852Y1147D02*
X870Y1147D01*
X952Y1147D02*
X970Y1147D01*
X1052Y1147D02*
X1070Y1147D01*
X1152Y1147D02*
X1170Y1147D01*
X1252Y1147D02*
X1270Y1147D01*
X1352Y1147D02*
X1370Y1147D01*
X1452Y1147D02*
X1470Y1147D01*
X1552Y1147D02*
X1570Y1147D01*
X1652Y1147D02*
X1670Y1147D01*
X1752Y1147D02*
X1770Y1147D01*
X1851Y1147D02*
X1870Y1147D01*
X649Y1146D02*
X673Y1146D01*
X749Y1146D02*
X773Y1146D01*
X849Y1146D02*
X873Y1146D01*
X949Y1146D02*
X973Y1146D01*
X1049Y1146D02*
X1073Y1146D01*
X1149Y1146D02*
X1173Y1146D01*
X1249Y1146D02*
X1273Y1146D01*
X1349Y1146D02*
X1373Y1146D01*
X1449Y1146D02*
X1473Y1146D01*
X1549Y1146D02*
X1573Y1146D01*
X1649Y1146D02*
X1673Y1146D01*
X1749Y1146D02*
X1773Y1146D01*
X1849Y1146D02*
X1873Y1146D01*
X647Y1145D02*
X675Y1145D01*
X747Y1145D02*
X775Y1145D01*
X846Y1145D02*
X875Y1145D01*
X946Y1145D02*
X975Y1145D01*
X1046Y1145D02*
X1075Y1145D01*
X1146Y1145D02*
X1175Y1145D01*
X1246Y1145D02*
X1275Y1145D01*
X1346Y1145D02*
X1375Y1145D01*
X1446Y1145D02*
X1475Y1145D01*
X1546Y1145D02*
X1575Y1145D01*
X1646Y1145D02*
X1675Y1145D01*
X1746Y1145D02*
X1775Y1145D01*
X1846Y1145D02*
X1875Y1145D01*
X645Y1144D02*
X677Y1144D01*
X745Y1144D02*
X777Y1144D01*
X844Y1144D02*
X877Y1144D01*
X944Y1144D02*
X977Y1144D01*
X1044Y1144D02*
X1077Y1144D01*
X1144Y1144D02*
X1177Y1144D01*
X1244Y1144D02*
X1277Y1144D01*
X1344Y1144D02*
X1377Y1144D01*
X1444Y1144D02*
X1477Y1144D01*
X1544Y1144D02*
X1577Y1144D01*
X1644Y1144D02*
X1677Y1144D01*
X1744Y1144D02*
X1777Y1144D01*
X1844Y1144D02*
X1877Y1144D01*
X643Y1143D02*
X679Y1143D01*
X743Y1143D02*
X779Y1143D01*
X843Y1143D02*
X879Y1143D01*
X943Y1143D02*
X979Y1143D01*
X1043Y1143D02*
X1079Y1143D01*
X1143Y1143D02*
X1179Y1143D01*
X1243Y1143D02*
X1279Y1143D01*
X1343Y1143D02*
X1379Y1143D01*
X1443Y1143D02*
X1479Y1143D01*
X1543Y1143D02*
X1579Y1143D01*
X1643Y1143D02*
X1679Y1143D01*
X1743Y1143D02*
X1779Y1143D01*
X1843Y1143D02*
X1879Y1143D01*
X641Y1142D02*
X680Y1142D01*
X741Y1142D02*
X780Y1142D01*
X841Y1142D02*
X880Y1142D01*
X941Y1142D02*
X980Y1142D01*
X1041Y1142D02*
X1080Y1142D01*
X1141Y1142D02*
X1180Y1142D01*
X1241Y1142D02*
X1280Y1142D01*
X1341Y1142D02*
X1380Y1142D01*
X1441Y1142D02*
X1480Y1142D01*
X1541Y1142D02*
X1580Y1142D01*
X1641Y1142D02*
X1680Y1142D01*
X1741Y1142D02*
X1780Y1142D01*
X1841Y1142D02*
X1880Y1142D01*
X640Y1141D02*
X682Y1141D01*
X740Y1141D02*
X782Y1141D01*
X840Y1141D02*
X882Y1141D01*
X940Y1141D02*
X982Y1141D01*
X1040Y1141D02*
X1082Y1141D01*
X1140Y1141D02*
X1182Y1141D01*
X1240Y1141D02*
X1282Y1141D01*
X1340Y1141D02*
X1382Y1141D01*
X1440Y1141D02*
X1482Y1141D01*
X1540Y1141D02*
X1582Y1141D01*
X1640Y1141D02*
X1682Y1141D01*
X1740Y1141D02*
X1782Y1141D01*
X1840Y1141D02*
X1882Y1141D01*
X638Y1140D02*
X683Y1140D01*
X738Y1140D02*
X783Y1140D01*
X838Y1140D02*
X883Y1140D01*
X938Y1140D02*
X983Y1140D01*
X1038Y1140D02*
X1083Y1140D01*
X1138Y1140D02*
X1183Y1140D01*
X1238Y1140D02*
X1283Y1140D01*
X1338Y1140D02*
X1383Y1140D01*
X1438Y1140D02*
X1483Y1140D01*
X1538Y1140D02*
X1583Y1140D01*
X1638Y1140D02*
X1683Y1140D01*
X1738Y1140D02*
X1783Y1140D01*
X1838Y1140D02*
X1883Y1140D01*
X637Y1139D02*
X685Y1139D01*
X737Y1139D02*
X785Y1139D01*
X837Y1139D02*
X884Y1139D01*
X937Y1139D02*
X984Y1139D01*
X1037Y1139D02*
X1084Y1139D01*
X1137Y1139D02*
X1184Y1139D01*
X1237Y1139D02*
X1284Y1139D01*
X1337Y1139D02*
X1384Y1139D01*
X1437Y1139D02*
X1484Y1139D01*
X1537Y1139D02*
X1584Y1139D01*
X1637Y1139D02*
X1684Y1139D01*
X1737Y1139D02*
X1784Y1139D01*
X1837Y1139D02*
X1884Y1139D01*
X636Y1138D02*
X686Y1138D01*
X736Y1138D02*
X786Y1138D01*
X836Y1138D02*
X886Y1138D01*
X936Y1138D02*
X986Y1138D01*
X1036Y1138D02*
X1086Y1138D01*
X1136Y1138D02*
X1186Y1138D01*
X1236Y1138D02*
X1286Y1138D01*
X1336Y1138D02*
X1386Y1138D01*
X1436Y1138D02*
X1486Y1138D01*
X1536Y1138D02*
X1586Y1138D01*
X1636Y1138D02*
X1686Y1138D01*
X1736Y1138D02*
X1786Y1138D01*
X1836Y1138D02*
X1886Y1138D01*
X635Y1137D02*
X687Y1137D01*
X735Y1137D02*
X787Y1137D01*
X835Y1137D02*
X887Y1137D01*
X935Y1137D02*
X987Y1137D01*
X1035Y1137D02*
X1087Y1137D01*
X1135Y1137D02*
X1187Y1137D01*
X1235Y1137D02*
X1287Y1137D01*
X1335Y1137D02*
X1387Y1137D01*
X1435Y1137D02*
X1487Y1137D01*
X1535Y1137D02*
X1587Y1137D01*
X1635Y1137D02*
X1687Y1137D01*
X1735Y1137D02*
X1787Y1137D01*
X1835Y1137D02*
X1887Y1137D01*
X634Y1136D02*
X688Y1136D01*
X734Y1136D02*
X788Y1136D01*
X834Y1136D02*
X888Y1136D01*
X934Y1136D02*
X988Y1136D01*
X1034Y1136D02*
X1088Y1136D01*
X1134Y1136D02*
X1188Y1136D01*
X1234Y1136D02*
X1288Y1136D01*
X1334Y1136D02*
X1388Y1136D01*
X1434Y1136D02*
X1488Y1136D01*
X1534Y1136D02*
X1588Y1136D01*
X1634Y1136D02*
X1688Y1136D01*
X1734Y1136D02*
X1788Y1136D01*
X1834Y1136D02*
X1888Y1136D01*
X633Y1135D02*
X689Y1135D01*
X733Y1135D02*
X789Y1135D01*
X833Y1135D02*
X889Y1135D01*
X933Y1135D02*
X989Y1135D01*
X1033Y1135D02*
X1089Y1135D01*
X1133Y1135D02*
X1189Y1135D01*
X1233Y1135D02*
X1289Y1135D01*
X1333Y1135D02*
X1389Y1135D01*
X1433Y1135D02*
X1489Y1135D01*
X1533Y1135D02*
X1589Y1135D01*
X1633Y1135D02*
X1689Y1135D01*
X1733Y1135D02*
X1789Y1135D01*
X1833Y1135D02*
X1889Y1135D01*
X632Y1134D02*
X690Y1134D01*
X732Y1134D02*
X790Y1134D01*
X832Y1134D02*
X890Y1134D01*
X932Y1134D02*
X990Y1134D01*
X1032Y1134D02*
X1090Y1134D01*
X1132Y1134D02*
X1190Y1134D01*
X1232Y1134D02*
X1290Y1134D01*
X1332Y1134D02*
X1390Y1134D01*
X1432Y1134D02*
X1490Y1134D01*
X1532Y1134D02*
X1590Y1134D01*
X1632Y1134D02*
X1690Y1134D01*
X1732Y1134D02*
X1790Y1134D01*
X1832Y1134D02*
X1890Y1134D01*
X631Y1133D02*
X691Y1133D01*
X731Y1133D02*
X791Y1133D01*
X831Y1133D02*
X891Y1133D01*
X931Y1133D02*
X991Y1133D01*
X1031Y1133D02*
X1091Y1133D01*
X1131Y1133D02*
X1191Y1133D01*
X1231Y1133D02*
X1290Y1133D01*
X1331Y1133D02*
X1390Y1133D01*
X1431Y1133D02*
X1490Y1133D01*
X1531Y1133D02*
X1590Y1133D01*
X1631Y1133D02*
X1690Y1133D01*
X1731Y1133D02*
X1790Y1133D01*
X1831Y1133D02*
X1890Y1133D01*
X630Y1132D02*
X691Y1132D01*
X730Y1132D02*
X791Y1132D01*
X830Y1132D02*
X891Y1132D01*
X930Y1132D02*
X991Y1132D01*
X1030Y1132D02*
X1091Y1132D01*
X1130Y1132D02*
X1191Y1132D01*
X1230Y1132D02*
X1291Y1132D01*
X1330Y1132D02*
X1391Y1132D01*
X1430Y1132D02*
X1491Y1132D01*
X1530Y1132D02*
X1591Y1132D01*
X1630Y1132D02*
X1691Y1132D01*
X1730Y1132D02*
X1791Y1132D01*
X1830Y1132D02*
X1891Y1132D01*
X629Y1131D02*
X692Y1131D01*
X729Y1131D02*
X792Y1131D01*
X829Y1131D02*
X892Y1131D01*
X929Y1131D02*
X992Y1131D01*
X1029Y1131D02*
X1092Y1131D01*
X1129Y1131D02*
X1192Y1131D01*
X1229Y1131D02*
X1292Y1131D01*
X1329Y1131D02*
X1392Y1131D01*
X1429Y1131D02*
X1492Y1131D01*
X1529Y1131D02*
X1592Y1131D01*
X1629Y1131D02*
X1692Y1131D01*
X1729Y1131D02*
X1792Y1131D01*
X1829Y1131D02*
X1892Y1131D01*
X629Y1130D02*
X693Y1130D01*
X729Y1130D02*
X793Y1130D01*
X829Y1130D02*
X893Y1130D01*
X929Y1130D02*
X993Y1130D01*
X1029Y1130D02*
X1093Y1130D01*
X1129Y1130D02*
X1193Y1130D01*
X1229Y1130D02*
X1293Y1130D01*
X1329Y1130D02*
X1393Y1130D01*
X1429Y1130D02*
X1493Y1130D01*
X1529Y1130D02*
X1593Y1130D01*
X1629Y1130D02*
X1693Y1130D01*
X1729Y1130D02*
X1793Y1130D01*
X1829Y1130D02*
X1893Y1130D01*
X628Y1129D02*
X694Y1129D01*
X728Y1129D02*
X794Y1129D01*
X828Y1129D02*
X894Y1129D01*
X928Y1129D02*
X994Y1129D01*
X1028Y1129D02*
X1094Y1129D01*
X1128Y1129D02*
X1194Y1129D01*
X1228Y1129D02*
X1294Y1129D01*
X1328Y1129D02*
X1393Y1129D01*
X1428Y1129D02*
X1493Y1129D01*
X1528Y1129D02*
X1593Y1129D01*
X1628Y1129D02*
X1693Y1129D01*
X1728Y1129D02*
X1793Y1129D01*
X1828Y1129D02*
X1893Y1129D01*
X627Y1128D02*
X694Y1128D01*
X727Y1128D02*
X794Y1128D01*
X827Y1128D02*
X894Y1128D01*
X927Y1128D02*
X994Y1128D01*
X1027Y1128D02*
X1094Y1128D01*
X1127Y1128D02*
X1194Y1128D01*
X1227Y1128D02*
X1294Y1128D01*
X1327Y1128D02*
X1394Y1128D01*
X1427Y1128D02*
X1494Y1128D01*
X1527Y1128D02*
X1594Y1128D01*
X1627Y1128D02*
X1694Y1128D01*
X1727Y1128D02*
X1794Y1128D01*
X1827Y1128D02*
X1894Y1128D01*
X627Y1127D02*
X695Y1127D01*
X727Y1127D02*
X795Y1127D01*
X827Y1127D02*
X895Y1127D01*
X927Y1127D02*
X995Y1127D01*
X1027Y1127D02*
X1095Y1127D01*
X1127Y1127D02*
X1195Y1127D01*
X1227Y1127D02*
X1295Y1127D01*
X1327Y1127D02*
X1395Y1127D01*
X1427Y1127D02*
X1495Y1127D01*
X1527Y1127D02*
X1595Y1127D01*
X1627Y1127D02*
X1695Y1127D01*
X1727Y1127D02*
X1795Y1127D01*
X1827Y1127D02*
X1895Y1127D01*
X626Y1126D02*
X695Y1126D01*
X726Y1126D02*
X795Y1126D01*
X826Y1126D02*
X895Y1126D01*
X926Y1126D02*
X995Y1126D01*
X1026Y1126D02*
X1095Y1126D01*
X1126Y1126D02*
X1195Y1126D01*
X1226Y1126D02*
X1295Y1126D01*
X1326Y1126D02*
X1395Y1126D01*
X1426Y1126D02*
X1495Y1126D01*
X1526Y1126D02*
X1595Y1126D01*
X1626Y1126D02*
X1695Y1126D01*
X1726Y1126D02*
X1795Y1126D01*
X1826Y1126D02*
X1895Y1126D01*
X626Y1125D02*
X696Y1125D01*
X726Y1125D02*
X796Y1125D01*
X826Y1125D02*
X896Y1125D01*
X926Y1125D02*
X996Y1125D01*
X1026Y1125D02*
X1096Y1125D01*
X1126Y1125D02*
X1196Y1125D01*
X1226Y1125D02*
X1296Y1125D01*
X1326Y1125D02*
X1396Y1125D01*
X1426Y1125D02*
X1496Y1125D01*
X1526Y1125D02*
X1596Y1125D01*
X1626Y1125D02*
X1696Y1125D01*
X1726Y1125D02*
X1796Y1125D01*
X1825Y1125D02*
X1896Y1125D01*
X625Y1124D02*
X696Y1124D01*
X725Y1124D02*
X796Y1124D01*
X825Y1124D02*
X896Y1124D01*
X925Y1124D02*
X996Y1124D01*
X1025Y1124D02*
X1096Y1124D01*
X1125Y1124D02*
X1196Y1124D01*
X1225Y1124D02*
X1296Y1124D01*
X1325Y1124D02*
X1396Y1124D01*
X1425Y1124D02*
X1496Y1124D01*
X1525Y1124D02*
X1596Y1124D01*
X1625Y1124D02*
X1696Y1124D01*
X1725Y1124D02*
X1796Y1124D01*
X1825Y1124D02*
X1896Y1124D01*
X625Y1123D02*
X697Y1123D01*
X725Y1123D02*
X797Y1123D01*
X825Y1123D02*
X897Y1123D01*
X925Y1123D02*
X997Y1123D01*
X1025Y1123D02*
X1097Y1123D01*
X1125Y1123D02*
X1197Y1123D01*
X1225Y1123D02*
X1297Y1123D01*
X1325Y1123D02*
X1397Y1123D01*
X1425Y1123D02*
X1497Y1123D01*
X1525Y1123D02*
X1597Y1123D01*
X1625Y1123D02*
X1697Y1123D01*
X1725Y1123D02*
X1797Y1123D01*
X1825Y1123D02*
X1897Y1123D01*
X624Y1122D02*
X697Y1122D01*
X724Y1122D02*
X797Y1122D01*
X824Y1122D02*
X897Y1122D01*
X924Y1122D02*
X997Y1122D01*
X1024Y1122D02*
X1097Y1122D01*
X1124Y1122D02*
X1197Y1122D01*
X1224Y1122D02*
X1297Y1122D01*
X1324Y1122D02*
X1397Y1122D01*
X1424Y1122D02*
X1497Y1122D01*
X1524Y1122D02*
X1597Y1122D01*
X1624Y1122D02*
X1697Y1122D01*
X1724Y1122D02*
X1797Y1122D01*
X1824Y1122D02*
X1897Y1122D01*
X624Y1121D02*
X698Y1121D01*
X724Y1121D02*
X798Y1121D01*
X824Y1121D02*
X898Y1121D01*
X924Y1121D02*
X998Y1121D01*
X1024Y1121D02*
X1098Y1121D01*
X1124Y1121D02*
X1198Y1121D01*
X1224Y1121D02*
X1298Y1121D01*
X1324Y1121D02*
X1398Y1121D01*
X1424Y1121D02*
X1498Y1121D01*
X1524Y1121D02*
X1598Y1121D01*
X1624Y1121D02*
X1698Y1121D01*
X1724Y1121D02*
X1798Y1121D01*
X1824Y1121D02*
X1898Y1121D01*
X623Y1120D02*
X698Y1120D01*
X723Y1120D02*
X798Y1120D01*
X823Y1120D02*
X898Y1120D01*
X923Y1120D02*
X998Y1120D01*
X1023Y1120D02*
X1098Y1120D01*
X1123Y1120D02*
X1198Y1120D01*
X1223Y1120D02*
X1298Y1120D01*
X1323Y1120D02*
X1398Y1120D01*
X1423Y1120D02*
X1498Y1120D01*
X1523Y1120D02*
X1598Y1120D01*
X1623Y1120D02*
X1698Y1120D01*
X1723Y1120D02*
X1798Y1120D01*
X1823Y1120D02*
X1898Y1120D01*
X623Y1119D02*
X699Y1119D01*
X723Y1119D02*
X799Y1119D01*
X823Y1119D02*
X899Y1119D01*
X923Y1119D02*
X999Y1119D01*
X1023Y1119D02*
X1099Y1119D01*
X1123Y1119D02*
X1198Y1119D01*
X1223Y1119D02*
X1298Y1119D01*
X1323Y1119D02*
X1398Y1119D01*
X1423Y1119D02*
X1498Y1119D01*
X1523Y1119D02*
X1598Y1119D01*
X1623Y1119D02*
X1698Y1119D01*
X1723Y1119D02*
X1798Y1119D01*
X1823Y1119D02*
X1898Y1119D01*
X623Y1118D02*
X699Y1118D01*
X723Y1118D02*
X799Y1118D01*
X823Y1118D02*
X899Y1118D01*
X923Y1118D02*
X999Y1118D01*
X1023Y1118D02*
X1099Y1118D01*
X1123Y1118D02*
X1199Y1118D01*
X1223Y1118D02*
X1299Y1118D01*
X1323Y1118D02*
X1399Y1118D01*
X1423Y1118D02*
X1499Y1118D01*
X1523Y1118D02*
X1599Y1118D01*
X1623Y1118D02*
X1699Y1118D01*
X1723Y1118D02*
X1799Y1118D01*
X1823Y1118D02*
X1899Y1118D01*
X622Y1117D02*
X699Y1117D01*
X722Y1117D02*
X799Y1117D01*
X822Y1117D02*
X899Y1117D01*
X922Y1117D02*
X999Y1117D01*
X1022Y1117D02*
X1099Y1117D01*
X1122Y1117D02*
X1199Y1117D01*
X1222Y1117D02*
X1299Y1117D01*
X1322Y1117D02*
X1399Y1117D01*
X1422Y1117D02*
X1499Y1117D01*
X1522Y1117D02*
X1599Y1117D01*
X1622Y1117D02*
X1699Y1117D01*
X1722Y1117D02*
X1799Y1117D01*
X1822Y1117D02*
X1899Y1117D01*
X622Y1116D02*
X699Y1116D01*
X722Y1116D02*
X799Y1116D01*
X822Y1116D02*
X899Y1116D01*
X922Y1116D02*
X999Y1116D01*
X1022Y1116D02*
X1099Y1116D01*
X1122Y1116D02*
X1199Y1116D01*
X1222Y1116D02*
X1299Y1116D01*
X1322Y1116D02*
X1399Y1116D01*
X1422Y1116D02*
X1499Y1116D01*
X1522Y1116D02*
X1599Y1116D01*
X1622Y1116D02*
X1699Y1116D01*
X1722Y1116D02*
X1799Y1116D01*
X1822Y1116D02*
X1899Y1116D01*
X622Y1115D02*
X700Y1115D01*
X722Y1115D02*
X800Y1115D01*
X822Y1115D02*
X900Y1115D01*
X922Y1115D02*
X1000Y1115D01*
X1022Y1115D02*
X1100Y1115D01*
X1122Y1115D02*
X1200Y1115D01*
X1222Y1115D02*
X1300Y1115D01*
X1322Y1115D02*
X1400Y1115D01*
X1422Y1115D02*
X1500Y1115D01*
X1522Y1115D02*
X1600Y1115D01*
X1622Y1115D02*
X1700Y1115D01*
X1722Y1115D02*
X1799Y1115D01*
X1822Y1115D02*
X1899Y1115D01*
X622Y1114D02*
X700Y1114D01*
X722Y1114D02*
X800Y1114D01*
X822Y1114D02*
X900Y1114D01*
X922Y1114D02*
X1000Y1114D01*
X1022Y1114D02*
X1100Y1114D01*
X1122Y1114D02*
X1200Y1114D01*
X1222Y1114D02*
X1300Y1114D01*
X1322Y1114D02*
X1400Y1114D01*
X1422Y1114D02*
X1500Y1114D01*
X1522Y1114D02*
X1600Y1114D01*
X1622Y1114D02*
X1700Y1114D01*
X1722Y1114D02*
X1800Y1114D01*
X1822Y1114D02*
X1900Y1114D01*
X622Y1113D02*
X700Y1113D01*
X722Y1113D02*
X800Y1113D01*
X822Y1113D02*
X900Y1113D01*
X922Y1113D02*
X1000Y1113D01*
X1022Y1113D02*
X1100Y1113D01*
X1122Y1113D02*
X1200Y1113D01*
X1222Y1113D02*
X1300Y1113D01*
X1322Y1113D02*
X1400Y1113D01*
X1422Y1113D02*
X1500Y1113D01*
X1522Y1113D02*
X1600Y1113D01*
X1622Y1113D02*
X1700Y1113D01*
X1722Y1113D02*
X1800Y1113D01*
X1821Y1113D02*
X1900Y1113D01*
X622Y1112D02*
X700Y1112D01*
X722Y1112D02*
X800Y1112D01*
X822Y1112D02*
X900Y1112D01*
X921Y1112D02*
X1000Y1112D01*
X1021Y1112D02*
X1100Y1112D01*
X1121Y1112D02*
X1200Y1112D01*
X1221Y1112D02*
X1300Y1112D01*
X1321Y1112D02*
X1400Y1112D01*
X1421Y1112D02*
X1500Y1112D01*
X1521Y1112D02*
X1600Y1112D01*
X1621Y1112D02*
X1700Y1112D01*
X1721Y1112D02*
X1800Y1112D01*
X1821Y1112D02*
X1900Y1112D01*
X621Y1111D02*
X700Y1111D01*
X721Y1111D02*
X800Y1111D01*
X821Y1111D02*
X900Y1111D01*
X921Y1111D02*
X1000Y1111D01*
X1021Y1111D02*
X1100Y1111D01*
X1121Y1111D02*
X1200Y1111D01*
X1221Y1111D02*
X1300Y1111D01*
X1321Y1111D02*
X1400Y1111D01*
X1421Y1111D02*
X1500Y1111D01*
X1521Y1111D02*
X1600Y1111D01*
X1621Y1111D02*
X1700Y1111D01*
X1721Y1111D02*
X1800Y1111D01*
X1821Y1111D02*
X1900Y1111D01*
X621Y1110D02*
X700Y1110D01*
X721Y1110D02*
X800Y1110D01*
X821Y1110D02*
X900Y1110D01*
X921Y1110D02*
X1000Y1110D01*
X1021Y1110D02*
X1100Y1110D01*
X1121Y1110D02*
X1200Y1110D01*
X1221Y1110D02*
X1300Y1110D01*
X1321Y1110D02*
X1400Y1110D01*
X1421Y1110D02*
X1500Y1110D01*
X1521Y1110D02*
X1600Y1110D01*
X1621Y1110D02*
X1700Y1110D01*
X1721Y1110D02*
X1800Y1110D01*
X1821Y1110D02*
X1900Y1110D01*
X621Y1109D02*
X700Y1109D01*
X721Y1109D02*
X800Y1109D01*
X821Y1109D02*
X900Y1109D01*
X921Y1109D02*
X1000Y1109D01*
X1021Y1109D02*
X1100Y1109D01*
X1121Y1109D02*
X1200Y1109D01*
X1221Y1109D02*
X1300Y1109D01*
X1321Y1109D02*
X1400Y1109D01*
X1421Y1109D02*
X1500Y1109D01*
X1521Y1109D02*
X1600Y1109D01*
X1621Y1109D02*
X1700Y1109D01*
X1721Y1109D02*
X1800Y1109D01*
X1821Y1109D02*
X1900Y1109D01*
X621Y1108D02*
X700Y1108D01*
X721Y1108D02*
X800Y1108D01*
X821Y1108D02*
X900Y1108D01*
X921Y1108D02*
X1000Y1108D01*
X1021Y1108D02*
X1100Y1108D01*
X1121Y1108D02*
X1200Y1108D01*
X1221Y1108D02*
X1300Y1108D01*
X1321Y1108D02*
X1400Y1108D01*
X1421Y1108D02*
X1500Y1108D01*
X1521Y1108D02*
X1600Y1108D01*
X1621Y1108D02*
X1700Y1108D01*
X1721Y1108D02*
X1800Y1108D01*
X1821Y1108D02*
X1900Y1108D01*
X621Y1107D02*
X700Y1107D01*
X721Y1107D02*
X800Y1107D01*
X821Y1107D02*
X900Y1107D01*
X921Y1107D02*
X1000Y1107D01*
X1021Y1107D02*
X1100Y1107D01*
X1121Y1107D02*
X1200Y1107D01*
X1221Y1107D02*
X1300Y1107D01*
X1321Y1107D02*
X1400Y1107D01*
X1421Y1107D02*
X1500Y1107D01*
X1521Y1107D02*
X1600Y1107D01*
X1621Y1107D02*
X1700Y1107D01*
X1721Y1107D02*
X1800Y1107D01*
X1821Y1107D02*
X1900Y1107D01*
X621Y1106D02*
X700Y1106D01*
X721Y1106D02*
X800Y1106D01*
X821Y1106D02*
X900Y1106D01*
X921Y1106D02*
X1000Y1106D01*
X1021Y1106D02*
X1100Y1106D01*
X1121Y1106D02*
X1200Y1106D01*
X1221Y1106D02*
X1300Y1106D01*
X1321Y1106D02*
X1400Y1106D01*
X1421Y1106D02*
X1500Y1106D01*
X1521Y1106D02*
X1600Y1106D01*
X1621Y1106D02*
X1700Y1106D01*
X1721Y1106D02*
X1800Y1106D01*
X1821Y1106D02*
X1900Y1106D01*
X622Y1105D02*
X700Y1105D01*
X722Y1105D02*
X800Y1105D01*
X822Y1105D02*
X900Y1105D01*
X921Y1105D02*
X1000Y1105D01*
X1021Y1105D02*
X1100Y1105D01*
X1121Y1105D02*
X1200Y1105D01*
X1221Y1105D02*
X1300Y1105D01*
X1321Y1105D02*
X1400Y1105D01*
X1421Y1105D02*
X1500Y1105D01*
X1521Y1105D02*
X1600Y1105D01*
X1621Y1105D02*
X1700Y1105D01*
X1721Y1105D02*
X1800Y1105D01*
X1821Y1105D02*
X1900Y1105D01*
X622Y1104D02*
X700Y1104D01*
X722Y1104D02*
X800Y1104D01*
X822Y1104D02*
X900Y1104D01*
X922Y1104D02*
X1000Y1104D01*
X1022Y1104D02*
X1100Y1104D01*
X1122Y1104D02*
X1200Y1104D01*
X1222Y1104D02*
X1300Y1104D01*
X1322Y1104D02*
X1400Y1104D01*
X1422Y1104D02*
X1500Y1104D01*
X1522Y1104D02*
X1600Y1104D01*
X1622Y1104D02*
X1700Y1104D01*
X1722Y1104D02*
X1800Y1104D01*
X1821Y1104D02*
X1900Y1104D01*
X622Y1103D02*
X700Y1103D01*
X722Y1103D02*
X800Y1103D01*
X822Y1103D02*
X900Y1103D01*
X922Y1103D02*
X1000Y1103D01*
X1022Y1103D02*
X1100Y1103D01*
X1122Y1103D02*
X1200Y1103D01*
X1222Y1103D02*
X1300Y1103D01*
X1322Y1103D02*
X1400Y1103D01*
X1422Y1103D02*
X1500Y1103D01*
X1522Y1103D02*
X1600Y1103D01*
X1622Y1103D02*
X1700Y1103D01*
X1722Y1103D02*
X1800Y1103D01*
X1822Y1103D02*
X1900Y1103D01*
X622Y1102D02*
X700Y1102D01*
X722Y1102D02*
X800Y1102D01*
X822Y1102D02*
X900Y1102D01*
X922Y1102D02*
X1000Y1102D01*
X1022Y1102D02*
X1100Y1102D01*
X1122Y1102D02*
X1200Y1102D01*
X1222Y1102D02*
X1300Y1102D01*
X1322Y1102D02*
X1400Y1102D01*
X1422Y1102D02*
X1500Y1102D01*
X1522Y1102D02*
X1600Y1102D01*
X1622Y1102D02*
X1699Y1102D01*
X1722Y1102D02*
X1799Y1102D01*
X1822Y1102D02*
X1899Y1102D01*
X622Y1101D02*
X699Y1101D01*
X722Y1101D02*
X799Y1101D01*
X822Y1101D02*
X899Y1101D01*
X922Y1101D02*
X999Y1101D01*
X1022Y1101D02*
X1099Y1101D01*
X1122Y1101D02*
X1199Y1101D01*
X1222Y1101D02*
X1299Y1101D01*
X1322Y1101D02*
X1399Y1101D01*
X1422Y1101D02*
X1499Y1101D01*
X1522Y1101D02*
X1599Y1101D01*
X1622Y1101D02*
X1699Y1101D01*
X1722Y1101D02*
X1799Y1101D01*
X1822Y1101D02*
X1899Y1101D01*
X622Y1100D02*
X699Y1100D01*
X722Y1100D02*
X799Y1100D01*
X822Y1100D02*
X899Y1100D01*
X922Y1100D02*
X999Y1100D01*
X1022Y1100D02*
X1099Y1100D01*
X1122Y1100D02*
X1199Y1100D01*
X1222Y1100D02*
X1299Y1100D01*
X1322Y1100D02*
X1399Y1100D01*
X1422Y1100D02*
X1499Y1100D01*
X1522Y1100D02*
X1599Y1100D01*
X1622Y1100D02*
X1699Y1100D01*
X1722Y1100D02*
X1799Y1100D01*
X1822Y1100D02*
X1899Y1100D01*
X623Y1099D02*
X699Y1099D01*
X723Y1099D02*
X799Y1099D01*
X823Y1099D02*
X899Y1099D01*
X923Y1099D02*
X999Y1099D01*
X1023Y1099D02*
X1099Y1099D01*
X1123Y1099D02*
X1199Y1099D01*
X1223Y1099D02*
X1299Y1099D01*
X1323Y1099D02*
X1399Y1099D01*
X1423Y1099D02*
X1499Y1099D01*
X1523Y1099D02*
X1599Y1099D01*
X1623Y1099D02*
X1699Y1099D01*
X1723Y1099D02*
X1799Y1099D01*
X1823Y1099D02*
X1899Y1099D01*
X623Y1098D02*
X699Y1098D01*
X723Y1098D02*
X799Y1098D01*
X823Y1098D02*
X899Y1098D01*
X923Y1098D02*
X999Y1098D01*
X1023Y1098D02*
X1098Y1098D01*
X1123Y1098D02*
X1198Y1098D01*
X1223Y1098D02*
X1298Y1098D01*
X1323Y1098D02*
X1398Y1098D01*
X1423Y1098D02*
X1498Y1098D01*
X1523Y1098D02*
X1598Y1098D01*
X1623Y1098D02*
X1698Y1098D01*
X1723Y1098D02*
X1798Y1098D01*
X1823Y1098D02*
X1898Y1098D01*
X623Y1097D02*
X698Y1097D01*
X723Y1097D02*
X798Y1097D01*
X823Y1097D02*
X898Y1097D01*
X923Y1097D02*
X998Y1097D01*
X1023Y1097D02*
X1098Y1097D01*
X1123Y1097D02*
X1198Y1097D01*
X1223Y1097D02*
X1298Y1097D01*
X1323Y1097D02*
X1398Y1097D01*
X1423Y1097D02*
X1498Y1097D01*
X1523Y1097D02*
X1598Y1097D01*
X1623Y1097D02*
X1698Y1097D01*
X1723Y1097D02*
X1798Y1097D01*
X1823Y1097D02*
X1898Y1097D01*
X624Y1096D02*
X698Y1096D01*
X724Y1096D02*
X798Y1096D01*
X824Y1096D02*
X898Y1096D01*
X924Y1096D02*
X998Y1096D01*
X1024Y1096D02*
X1098Y1096D01*
X1124Y1096D02*
X1198Y1096D01*
X1224Y1096D02*
X1298Y1096D01*
X1324Y1096D02*
X1398Y1096D01*
X1424Y1096D02*
X1498Y1096D01*
X1524Y1096D02*
X1598Y1096D01*
X1624Y1096D02*
X1698Y1096D01*
X1724Y1096D02*
X1798Y1096D01*
X1824Y1096D02*
X1898Y1096D01*
X624Y1095D02*
X697Y1095D01*
X724Y1095D02*
X797Y1095D01*
X824Y1095D02*
X897Y1095D01*
X924Y1095D02*
X997Y1095D01*
X1024Y1095D02*
X1097Y1095D01*
X1124Y1095D02*
X1197Y1095D01*
X1224Y1095D02*
X1297Y1095D01*
X1324Y1095D02*
X1397Y1095D01*
X1424Y1095D02*
X1497Y1095D01*
X1524Y1095D02*
X1597Y1095D01*
X1624Y1095D02*
X1697Y1095D01*
X1724Y1095D02*
X1797Y1095D01*
X1824Y1095D02*
X1897Y1095D01*
X625Y1094D02*
X697Y1094D01*
X725Y1094D02*
X797Y1094D01*
X825Y1094D02*
X897Y1094D01*
X925Y1094D02*
X997Y1094D01*
X1025Y1094D02*
X1097Y1094D01*
X1125Y1094D02*
X1197Y1094D01*
X1225Y1094D02*
X1297Y1094D01*
X1325Y1094D02*
X1397Y1094D01*
X1425Y1094D02*
X1497Y1094D01*
X1525Y1094D02*
X1597Y1094D01*
X1625Y1094D02*
X1697Y1094D01*
X1725Y1094D02*
X1797Y1094D01*
X1825Y1094D02*
X1897Y1094D01*
X625Y1093D02*
X696Y1093D01*
X725Y1093D02*
X796Y1093D01*
X825Y1093D02*
X896Y1093D01*
X925Y1093D02*
X996Y1093D01*
X1025Y1093D02*
X1096Y1093D01*
X1125Y1093D02*
X1196Y1093D01*
X1225Y1093D02*
X1296Y1093D01*
X1325Y1093D02*
X1396Y1093D01*
X1425Y1093D02*
X1496Y1093D01*
X1525Y1093D02*
X1596Y1093D01*
X1625Y1093D02*
X1696Y1093D01*
X1725Y1093D02*
X1796Y1093D01*
X1825Y1093D02*
X1896Y1093D01*
X626Y1092D02*
X696Y1092D01*
X726Y1092D02*
X796Y1092D01*
X826Y1092D02*
X896Y1092D01*
X926Y1092D02*
X996Y1092D01*
X1026Y1092D02*
X1096Y1092D01*
X1126Y1092D02*
X1196Y1092D01*
X1226Y1092D02*
X1296Y1092D01*
X1326Y1092D02*
X1396Y1092D01*
X1426Y1092D02*
X1496Y1092D01*
X1526Y1092D02*
X1596Y1092D01*
X1626Y1092D02*
X1696Y1092D01*
X1726Y1092D02*
X1796Y1092D01*
X1825Y1092D02*
X1896Y1092D01*
X626Y1091D02*
X695Y1091D01*
X726Y1091D02*
X795Y1091D01*
X826Y1091D02*
X895Y1091D01*
X926Y1091D02*
X995Y1091D01*
X1026Y1091D02*
X1095Y1091D01*
X1126Y1091D02*
X1195Y1091D01*
X1226Y1091D02*
X1295Y1091D01*
X1326Y1091D02*
X1395Y1091D01*
X1426Y1091D02*
X1495Y1091D01*
X1526Y1091D02*
X1595Y1091D01*
X1626Y1091D02*
X1695Y1091D01*
X1726Y1091D02*
X1795Y1091D01*
X1826Y1091D02*
X1895Y1091D01*
X627Y1090D02*
X695Y1090D01*
X727Y1090D02*
X795Y1090D01*
X827Y1090D02*
X895Y1090D01*
X927Y1090D02*
X995Y1090D01*
X1027Y1090D02*
X1095Y1090D01*
X1127Y1090D02*
X1195Y1090D01*
X1227Y1090D02*
X1295Y1090D01*
X1327Y1090D02*
X1395Y1090D01*
X1427Y1090D02*
X1495Y1090D01*
X1527Y1090D02*
X1595Y1090D01*
X1627Y1090D02*
X1695Y1090D01*
X1727Y1090D02*
X1795Y1090D01*
X1827Y1090D02*
X1895Y1090D01*
X627Y1089D02*
X694Y1089D01*
X727Y1089D02*
X794Y1089D01*
X827Y1089D02*
X894Y1089D01*
X927Y1089D02*
X994Y1089D01*
X1027Y1089D02*
X1094Y1089D01*
X1127Y1089D02*
X1194Y1089D01*
X1227Y1089D02*
X1294Y1089D01*
X1327Y1089D02*
X1394Y1089D01*
X1427Y1089D02*
X1494Y1089D01*
X1527Y1089D02*
X1594Y1089D01*
X1627Y1089D02*
X1694Y1089D01*
X1727Y1089D02*
X1794Y1089D01*
X1827Y1089D02*
X1894Y1089D01*
X628Y1088D02*
X694Y1088D01*
X728Y1088D02*
X794Y1088D01*
X828Y1088D02*
X894Y1088D01*
X928Y1088D02*
X994Y1088D01*
X1028Y1088D02*
X1094Y1088D01*
X1128Y1088D02*
X1194Y1088D01*
X1228Y1088D02*
X1293Y1088D01*
X1328Y1088D02*
X1393Y1088D01*
X1428Y1088D02*
X1493Y1088D01*
X1528Y1088D02*
X1593Y1088D01*
X1628Y1088D02*
X1693Y1088D01*
X1728Y1088D02*
X1793Y1088D01*
X1828Y1088D02*
X1893Y1088D01*
X629Y1087D02*
X693Y1087D01*
X729Y1087D02*
X793Y1087D01*
X829Y1087D02*
X893Y1087D01*
X929Y1087D02*
X993Y1087D01*
X1029Y1087D02*
X1093Y1087D01*
X1129Y1087D02*
X1193Y1087D01*
X1229Y1087D02*
X1293Y1087D01*
X1329Y1087D02*
X1393Y1087D01*
X1429Y1087D02*
X1493Y1087D01*
X1529Y1087D02*
X1593Y1087D01*
X1629Y1087D02*
X1693Y1087D01*
X1729Y1087D02*
X1793Y1087D01*
X1829Y1087D02*
X1893Y1087D01*
X629Y1086D02*
X692Y1086D01*
X729Y1086D02*
X792Y1086D01*
X829Y1086D02*
X892Y1086D01*
X929Y1086D02*
X992Y1086D01*
X1029Y1086D02*
X1092Y1086D01*
X1129Y1086D02*
X1192Y1086D01*
X1229Y1086D02*
X1292Y1086D01*
X1329Y1086D02*
X1392Y1086D01*
X1429Y1086D02*
X1492Y1086D01*
X1529Y1086D02*
X1592Y1086D01*
X1629Y1086D02*
X1692Y1086D01*
X1729Y1086D02*
X1792Y1086D01*
X1829Y1086D02*
X1892Y1086D01*
X630Y1085D02*
X691Y1085D01*
X730Y1085D02*
X791Y1085D01*
X830Y1085D02*
X891Y1085D01*
X930Y1085D02*
X991Y1085D01*
X1030Y1085D02*
X1091Y1085D01*
X1130Y1085D02*
X1191Y1085D01*
X1230Y1085D02*
X1291Y1085D01*
X1330Y1085D02*
X1391Y1085D01*
X1430Y1085D02*
X1491Y1085D01*
X1530Y1085D02*
X1591Y1085D01*
X1630Y1085D02*
X1691Y1085D01*
X1730Y1085D02*
X1791Y1085D01*
X1830Y1085D02*
X1891Y1085D01*
X631Y1084D02*
X691Y1084D01*
X731Y1084D02*
X791Y1084D01*
X831Y1084D02*
X891Y1084D01*
X931Y1084D02*
X991Y1084D01*
X1031Y1084D02*
X1091Y1084D01*
X1131Y1084D02*
X1190Y1084D01*
X1231Y1084D02*
X1290Y1084D01*
X1331Y1084D02*
X1390Y1084D01*
X1431Y1084D02*
X1490Y1084D01*
X1531Y1084D02*
X1590Y1084D01*
X1631Y1084D02*
X1690Y1084D01*
X1731Y1084D02*
X1790Y1084D01*
X1831Y1084D02*
X1890Y1084D01*
X632Y1083D02*
X690Y1083D01*
X732Y1083D02*
X790Y1083D01*
X832Y1083D02*
X890Y1083D01*
X932Y1083D02*
X990Y1083D01*
X1032Y1083D02*
X1090Y1083D01*
X1132Y1083D02*
X1190Y1083D01*
X1232Y1083D02*
X1290Y1083D01*
X1332Y1083D02*
X1390Y1083D01*
X1432Y1083D02*
X1490Y1083D01*
X1532Y1083D02*
X1590Y1083D01*
X1632Y1083D02*
X1690Y1083D01*
X1732Y1083D02*
X1790Y1083D01*
X1832Y1083D02*
X1890Y1083D01*
X633Y1082D02*
X689Y1082D01*
X733Y1082D02*
X789Y1082D01*
X833Y1082D02*
X889Y1082D01*
X933Y1082D02*
X989Y1082D01*
X1033Y1082D02*
X1089Y1082D01*
X1133Y1082D02*
X1189Y1082D01*
X1233Y1082D02*
X1289Y1082D01*
X1333Y1082D02*
X1389Y1082D01*
X1433Y1082D02*
X1489Y1082D01*
X1533Y1082D02*
X1589Y1082D01*
X1633Y1082D02*
X1689Y1082D01*
X1733Y1082D02*
X1789Y1082D01*
X1833Y1082D02*
X1889Y1082D01*
X634Y1081D02*
X688Y1081D01*
X734Y1081D02*
X788Y1081D01*
X834Y1081D02*
X888Y1081D01*
X934Y1081D02*
X988Y1081D01*
X1034Y1081D02*
X1088Y1081D01*
X1134Y1081D02*
X1188Y1081D01*
X1234Y1081D02*
X1288Y1081D01*
X1334Y1081D02*
X1388Y1081D01*
X1434Y1081D02*
X1488Y1081D01*
X1534Y1081D02*
X1588Y1081D01*
X1634Y1081D02*
X1688Y1081D01*
X1734Y1081D02*
X1788Y1081D01*
X1834Y1081D02*
X1888Y1081D01*
X635Y1080D02*
X687Y1080D01*
X735Y1080D02*
X787Y1080D01*
X835Y1080D02*
X887Y1080D01*
X935Y1080D02*
X987Y1080D01*
X1035Y1080D02*
X1087Y1080D01*
X1135Y1080D02*
X1187Y1080D01*
X1235Y1080D02*
X1287Y1080D01*
X1335Y1080D02*
X1387Y1080D01*
X1435Y1080D02*
X1487Y1080D01*
X1535Y1080D02*
X1587Y1080D01*
X1635Y1080D02*
X1687Y1080D01*
X1735Y1080D02*
X1787Y1080D01*
X1835Y1080D02*
X1887Y1080D01*
X636Y1079D02*
X686Y1079D01*
X736Y1079D02*
X786Y1079D01*
X836Y1079D02*
X886Y1079D01*
X936Y1079D02*
X986Y1079D01*
X1036Y1079D02*
X1086Y1079D01*
X1136Y1079D02*
X1186Y1079D01*
X1236Y1079D02*
X1286Y1079D01*
X1336Y1079D02*
X1386Y1079D01*
X1436Y1079D02*
X1486Y1079D01*
X1536Y1079D02*
X1586Y1079D01*
X1636Y1079D02*
X1686Y1079D01*
X1736Y1079D02*
X1786Y1079D01*
X1836Y1079D02*
X1886Y1079D01*
X637Y1078D02*
X685Y1078D01*
X737Y1078D02*
X784Y1078D01*
X837Y1078D02*
X884Y1078D01*
X937Y1078D02*
X984Y1078D01*
X1037Y1078D02*
X1084Y1078D01*
X1137Y1078D02*
X1184Y1078D01*
X1237Y1078D02*
X1284Y1078D01*
X1337Y1078D02*
X1384Y1078D01*
X1437Y1078D02*
X1484Y1078D01*
X1537Y1078D02*
X1584Y1078D01*
X1637Y1078D02*
X1684Y1078D01*
X1737Y1078D02*
X1784Y1078D01*
X1837Y1078D02*
X1884Y1078D01*
X638Y1077D02*
X683Y1077D01*
X738Y1077D02*
X783Y1077D01*
X838Y1077D02*
X883Y1077D01*
X938Y1077D02*
X983Y1077D01*
X1038Y1077D02*
X1083Y1077D01*
X1138Y1077D02*
X1183Y1077D01*
X1238Y1077D02*
X1283Y1077D01*
X1338Y1077D02*
X1383Y1077D01*
X1438Y1077D02*
X1483Y1077D01*
X1538Y1077D02*
X1583Y1077D01*
X1638Y1077D02*
X1683Y1077D01*
X1738Y1077D02*
X1783Y1077D01*
X1838Y1077D02*
X1883Y1077D01*
X640Y1076D02*
X682Y1076D01*
X740Y1076D02*
X782Y1076D01*
X840Y1076D02*
X882Y1076D01*
X940Y1076D02*
X982Y1076D01*
X1040Y1076D02*
X1082Y1076D01*
X1140Y1076D02*
X1182Y1076D01*
X1240Y1076D02*
X1282Y1076D01*
X1340Y1076D02*
X1382Y1076D01*
X1440Y1076D02*
X1482Y1076D01*
X1540Y1076D02*
X1582Y1076D01*
X1640Y1076D02*
X1682Y1076D01*
X1740Y1076D02*
X1782Y1076D01*
X1840Y1076D02*
X1882Y1076D01*
X641Y1075D02*
X680Y1075D01*
X741Y1075D02*
X780Y1075D01*
X841Y1075D02*
X880Y1075D01*
X941Y1075D02*
X980Y1075D01*
X1041Y1075D02*
X1080Y1075D01*
X1141Y1075D02*
X1180Y1075D01*
X1241Y1075D02*
X1280Y1075D01*
X1341Y1075D02*
X1380Y1075D01*
X1441Y1075D02*
X1480Y1075D01*
X1541Y1075D02*
X1580Y1075D01*
X1641Y1075D02*
X1680Y1075D01*
X1741Y1075D02*
X1780Y1075D01*
X1841Y1075D02*
X1880Y1075D01*
X643Y1074D02*
X679Y1074D01*
X743Y1074D02*
X779Y1074D01*
X843Y1074D02*
X879Y1074D01*
X943Y1074D02*
X979Y1074D01*
X1043Y1074D02*
X1079Y1074D01*
X1143Y1074D02*
X1179Y1074D01*
X1243Y1074D02*
X1279Y1074D01*
X1343Y1074D02*
X1379Y1074D01*
X1443Y1074D02*
X1479Y1074D01*
X1543Y1074D02*
X1579Y1074D01*
X1643Y1074D02*
X1679Y1074D01*
X1743Y1074D02*
X1779Y1074D01*
X1843Y1074D02*
X1879Y1074D01*
X645Y1073D02*
X677Y1073D01*
X745Y1073D02*
X777Y1073D01*
X845Y1073D02*
X877Y1073D01*
X945Y1073D02*
X977Y1073D01*
X1044Y1073D02*
X1077Y1073D01*
X1144Y1073D02*
X1177Y1073D01*
X1244Y1073D02*
X1277Y1073D01*
X1344Y1073D02*
X1377Y1073D01*
X1444Y1073D02*
X1477Y1073D01*
X1544Y1073D02*
X1577Y1073D01*
X1644Y1073D02*
X1677Y1073D01*
X1744Y1073D02*
X1777Y1073D01*
X1844Y1073D02*
X1877Y1073D01*
X647Y1072D02*
X675Y1072D01*
X747Y1072D02*
X775Y1072D01*
X847Y1072D02*
X875Y1072D01*
X946Y1072D02*
X975Y1072D01*
X1046Y1072D02*
X1075Y1072D01*
X1146Y1072D02*
X1175Y1072D01*
X1246Y1072D02*
X1275Y1072D01*
X1346Y1072D02*
X1375Y1072D01*
X1446Y1072D02*
X1475Y1072D01*
X1546Y1072D02*
X1575Y1072D01*
X1646Y1072D02*
X1675Y1072D01*
X1746Y1072D02*
X1775Y1072D01*
X1846Y1072D02*
X1875Y1072D01*
X649Y1071D02*
X673Y1071D01*
X749Y1071D02*
X773Y1071D01*
X849Y1071D02*
X873Y1071D01*
X949Y1071D02*
X973Y1071D01*
X1049Y1071D02*
X1073Y1071D01*
X1149Y1071D02*
X1173Y1071D01*
X1249Y1071D02*
X1273Y1071D01*
X1349Y1071D02*
X1373Y1071D01*
X1449Y1071D02*
X1473Y1071D01*
X1549Y1071D02*
X1573Y1071D01*
X1649Y1071D02*
X1673Y1071D01*
X1749Y1071D02*
X1773Y1071D01*
X1849Y1071D02*
X1873Y1071D01*
X652Y1070D02*
X670Y1070D01*
X752Y1070D02*
X770Y1070D01*
X852Y1070D02*
X870Y1070D01*
X952Y1070D02*
X970Y1070D01*
X1052Y1070D02*
X1070Y1070D01*
X1152Y1070D02*
X1170Y1070D01*
X1252Y1070D02*
X1270Y1070D01*
X1352Y1070D02*
X1370Y1070D01*
X1452Y1070D02*
X1470Y1070D01*
X1552Y1070D02*
X1570Y1070D01*
X1652Y1070D02*
X1670Y1070D01*
X1752Y1070D02*
X1770Y1070D01*
X1852Y1070D02*
X1870Y1070D01*
X656Y1069D02*
X666Y1069D01*
X756Y1069D02*
X766Y1069D01*
X856Y1069D02*
X866Y1069D01*
X956Y1069D02*
X966Y1069D01*
X1056Y1069D02*
X1066Y1069D01*
X1156Y1069D02*
X1166Y1069D01*
X1256Y1069D02*
X1266Y1069D01*
X1356Y1069D02*
X1366Y1069D01*
X1456Y1069D02*
X1466Y1069D01*
X1556Y1069D02*
X1566Y1069D01*
X1656Y1069D02*
X1666Y1069D01*
X1756Y1069D02*
X1766Y1069D01*
X1856Y1069D02*
X1866Y1069D01*
X656Y1048D02*
X666Y1048D01*
X756Y1048D02*
X766Y1048D01*
X856Y1048D02*
X866Y1048D01*
X956Y1048D02*
X966Y1048D01*
X1056Y1048D02*
X1066Y1048D01*
X1156Y1048D02*
X1166Y1048D01*
X1256Y1048D02*
X1266Y1048D01*
X1356Y1048D02*
X1366Y1048D01*
X1456Y1048D02*
X1466Y1048D01*
X1555Y1048D02*
X1566Y1048D01*
X1655Y1048D02*
X1666Y1048D01*
X1755Y1048D02*
X1766Y1048D01*
X1855Y1048D02*
X1866Y1048D01*
X652Y1047D02*
X670Y1047D01*
X752Y1047D02*
X770Y1047D01*
X852Y1047D02*
X870Y1047D01*
X952Y1047D02*
X970Y1047D01*
X1051Y1047D02*
X1070Y1047D01*
X1151Y1047D02*
X1170Y1047D01*
X1251Y1047D02*
X1270Y1047D01*
X1351Y1047D02*
X1370Y1047D01*
X1451Y1047D02*
X1470Y1047D01*
X1551Y1047D02*
X1570Y1047D01*
X1651Y1047D02*
X1670Y1047D01*
X1751Y1047D02*
X1770Y1047D01*
X1851Y1047D02*
X1870Y1047D01*
X649Y1046D02*
X673Y1046D01*
X749Y1046D02*
X773Y1046D01*
X849Y1046D02*
X873Y1046D01*
X949Y1046D02*
X973Y1046D01*
X1049Y1046D02*
X1073Y1046D01*
X1149Y1046D02*
X1173Y1046D01*
X1249Y1046D02*
X1273Y1046D01*
X1349Y1046D02*
X1373Y1046D01*
X1449Y1046D02*
X1473Y1046D01*
X1549Y1046D02*
X1573Y1046D01*
X1649Y1046D02*
X1673Y1046D01*
X1749Y1046D02*
X1773Y1046D01*
X1849Y1046D02*
X1873Y1046D01*
X646Y1045D02*
X675Y1045D01*
X746Y1045D02*
X775Y1045D01*
X846Y1045D02*
X875Y1045D01*
X946Y1045D02*
X975Y1045D01*
X1046Y1045D02*
X1075Y1045D01*
X1146Y1045D02*
X1175Y1045D01*
X1246Y1045D02*
X1275Y1045D01*
X1346Y1045D02*
X1375Y1045D01*
X1446Y1045D02*
X1475Y1045D01*
X1546Y1045D02*
X1575Y1045D01*
X1646Y1045D02*
X1675Y1045D01*
X1746Y1045D02*
X1775Y1045D01*
X1846Y1045D02*
X1875Y1045D01*
X644Y1044D02*
X677Y1044D01*
X744Y1044D02*
X777Y1044D01*
X844Y1044D02*
X877Y1044D01*
X944Y1044D02*
X977Y1044D01*
X1044Y1044D02*
X1077Y1044D01*
X1144Y1044D02*
X1177Y1044D01*
X1244Y1044D02*
X1277Y1044D01*
X1344Y1044D02*
X1377Y1044D01*
X1444Y1044D02*
X1477Y1044D01*
X1544Y1044D02*
X1577Y1044D01*
X1644Y1044D02*
X1677Y1044D01*
X1744Y1044D02*
X1777Y1044D01*
X1844Y1044D02*
X1877Y1044D01*
X643Y1043D02*
X679Y1043D01*
X743Y1043D02*
X779Y1043D01*
X843Y1043D02*
X879Y1043D01*
X943Y1043D02*
X979Y1043D01*
X1043Y1043D02*
X1079Y1043D01*
X1143Y1043D02*
X1179Y1043D01*
X1243Y1043D02*
X1279Y1043D01*
X1343Y1043D02*
X1379Y1043D01*
X1443Y1043D02*
X1479Y1043D01*
X1543Y1043D02*
X1579Y1043D01*
X1643Y1043D02*
X1679Y1043D01*
X1743Y1043D02*
X1779Y1043D01*
X1843Y1043D02*
X1879Y1043D01*
X641Y1042D02*
X681Y1042D01*
X741Y1042D02*
X781Y1042D01*
X841Y1042D02*
X880Y1042D01*
X941Y1042D02*
X980Y1042D01*
X1041Y1042D02*
X1080Y1042D01*
X1141Y1042D02*
X1180Y1042D01*
X1241Y1042D02*
X1280Y1042D01*
X1341Y1042D02*
X1380Y1042D01*
X1441Y1042D02*
X1480Y1042D01*
X1541Y1042D02*
X1580Y1042D01*
X1641Y1042D02*
X1680Y1042D01*
X1741Y1042D02*
X1780Y1042D01*
X1841Y1042D02*
X1880Y1042D01*
X640Y1041D02*
X682Y1041D01*
X740Y1041D02*
X782Y1041D01*
X840Y1041D02*
X882Y1041D01*
X940Y1041D02*
X982Y1041D01*
X1040Y1041D02*
X1082Y1041D01*
X1140Y1041D02*
X1182Y1041D01*
X1240Y1041D02*
X1282Y1041D01*
X1340Y1041D02*
X1382Y1041D01*
X1440Y1041D02*
X1482Y1041D01*
X1540Y1041D02*
X1582Y1041D01*
X1640Y1041D02*
X1682Y1041D01*
X1740Y1041D02*
X1782Y1041D01*
X1839Y1041D02*
X1882Y1041D01*
X638Y1040D02*
X683Y1040D01*
X738Y1040D02*
X783Y1040D01*
X838Y1040D02*
X883Y1040D01*
X938Y1040D02*
X983Y1040D01*
X1038Y1040D02*
X1083Y1040D01*
X1138Y1040D02*
X1183Y1040D01*
X1238Y1040D02*
X1283Y1040D01*
X1338Y1040D02*
X1383Y1040D01*
X1438Y1040D02*
X1483Y1040D01*
X1538Y1040D02*
X1583Y1040D01*
X1638Y1040D02*
X1683Y1040D01*
X1738Y1040D02*
X1783Y1040D01*
X1838Y1040D02*
X1883Y1040D01*
X637Y1039D02*
X685Y1039D01*
X737Y1039D02*
X785Y1039D01*
X837Y1039D02*
X885Y1039D01*
X937Y1039D02*
X985Y1039D01*
X1037Y1039D02*
X1085Y1039D01*
X1137Y1039D02*
X1185Y1039D01*
X1237Y1039D02*
X1284Y1039D01*
X1337Y1039D02*
X1384Y1039D01*
X1437Y1039D02*
X1484Y1039D01*
X1537Y1039D02*
X1584Y1039D01*
X1637Y1039D02*
X1684Y1039D01*
X1737Y1039D02*
X1784Y1039D01*
X1837Y1039D02*
X1884Y1039D01*
X636Y1038D02*
X686Y1038D01*
X736Y1038D02*
X786Y1038D01*
X836Y1038D02*
X886Y1038D01*
X936Y1038D02*
X986Y1038D01*
X1036Y1038D02*
X1086Y1038D01*
X1136Y1038D02*
X1186Y1038D01*
X1236Y1038D02*
X1286Y1038D01*
X1336Y1038D02*
X1386Y1038D01*
X1436Y1038D02*
X1486Y1038D01*
X1536Y1038D02*
X1586Y1038D01*
X1636Y1038D02*
X1686Y1038D01*
X1736Y1038D02*
X1786Y1038D01*
X1836Y1038D02*
X1886Y1038D01*
X635Y1037D02*
X687Y1037D01*
X735Y1037D02*
X787Y1037D01*
X835Y1037D02*
X887Y1037D01*
X935Y1037D02*
X987Y1037D01*
X1035Y1037D02*
X1087Y1037D01*
X1135Y1037D02*
X1187Y1037D01*
X1235Y1037D02*
X1287Y1037D01*
X1335Y1037D02*
X1387Y1037D01*
X1435Y1037D02*
X1487Y1037D01*
X1535Y1037D02*
X1587Y1037D01*
X1635Y1037D02*
X1687Y1037D01*
X1735Y1037D02*
X1787Y1037D01*
X1835Y1037D02*
X1887Y1037D01*
X634Y1036D02*
X688Y1036D01*
X734Y1036D02*
X788Y1036D01*
X834Y1036D02*
X888Y1036D01*
X934Y1036D02*
X988Y1036D01*
X1034Y1036D02*
X1088Y1036D01*
X1134Y1036D02*
X1188Y1036D01*
X1234Y1036D02*
X1288Y1036D01*
X1334Y1036D02*
X1388Y1036D01*
X1434Y1036D02*
X1488Y1036D01*
X1534Y1036D02*
X1588Y1036D01*
X1634Y1036D02*
X1688Y1036D01*
X1734Y1036D02*
X1788Y1036D01*
X1834Y1036D02*
X1888Y1036D01*
X633Y1035D02*
X689Y1035D01*
X733Y1035D02*
X789Y1035D01*
X833Y1035D02*
X889Y1035D01*
X933Y1035D02*
X989Y1035D01*
X1033Y1035D02*
X1089Y1035D01*
X1133Y1035D02*
X1189Y1035D01*
X1233Y1035D02*
X1289Y1035D01*
X1333Y1035D02*
X1389Y1035D01*
X1433Y1035D02*
X1489Y1035D01*
X1533Y1035D02*
X1589Y1035D01*
X1633Y1035D02*
X1689Y1035D01*
X1733Y1035D02*
X1789Y1035D01*
X1833Y1035D02*
X1889Y1035D01*
X632Y1034D02*
X690Y1034D01*
X732Y1034D02*
X790Y1034D01*
X832Y1034D02*
X890Y1034D01*
X932Y1034D02*
X990Y1034D01*
X1032Y1034D02*
X1090Y1034D01*
X1132Y1034D02*
X1190Y1034D01*
X1232Y1034D02*
X1290Y1034D01*
X1332Y1034D02*
X1390Y1034D01*
X1432Y1034D02*
X1490Y1034D01*
X1532Y1034D02*
X1590Y1034D01*
X1632Y1034D02*
X1690Y1034D01*
X1732Y1034D02*
X1790Y1034D01*
X1832Y1034D02*
X1890Y1034D01*
X631Y1033D02*
X691Y1033D01*
X731Y1033D02*
X791Y1033D01*
X831Y1033D02*
X891Y1033D01*
X931Y1033D02*
X991Y1033D01*
X1031Y1033D02*
X1091Y1033D01*
X1131Y1033D02*
X1191Y1033D01*
X1231Y1033D02*
X1291Y1033D01*
X1331Y1033D02*
X1391Y1033D01*
X1431Y1033D02*
X1491Y1033D01*
X1531Y1033D02*
X1590Y1033D01*
X1631Y1033D02*
X1690Y1033D01*
X1731Y1033D02*
X1790Y1033D01*
X1831Y1033D02*
X1890Y1033D01*
X630Y1032D02*
X691Y1032D01*
X730Y1032D02*
X791Y1032D01*
X830Y1032D02*
X891Y1032D01*
X930Y1032D02*
X991Y1032D01*
X1030Y1032D02*
X1091Y1032D01*
X1130Y1032D02*
X1191Y1032D01*
X1230Y1032D02*
X1291Y1032D01*
X1330Y1032D02*
X1391Y1032D01*
X1430Y1032D02*
X1491Y1032D01*
X1530Y1032D02*
X1591Y1032D01*
X1630Y1032D02*
X1691Y1032D01*
X1730Y1032D02*
X1791Y1032D01*
X1830Y1032D02*
X1891Y1032D01*
X629Y1031D02*
X692Y1031D01*
X729Y1031D02*
X792Y1031D01*
X829Y1031D02*
X892Y1031D01*
X929Y1031D02*
X992Y1031D01*
X1029Y1031D02*
X1092Y1031D01*
X1129Y1031D02*
X1192Y1031D01*
X1229Y1031D02*
X1292Y1031D01*
X1329Y1031D02*
X1392Y1031D01*
X1429Y1031D02*
X1492Y1031D01*
X1529Y1031D02*
X1592Y1031D01*
X1629Y1031D02*
X1692Y1031D01*
X1729Y1031D02*
X1792Y1031D01*
X1829Y1031D02*
X1892Y1031D01*
X629Y1030D02*
X693Y1030D01*
X729Y1030D02*
X793Y1030D01*
X829Y1030D02*
X893Y1030D01*
X929Y1030D02*
X993Y1030D01*
X1029Y1030D02*
X1093Y1030D01*
X1129Y1030D02*
X1193Y1030D01*
X1229Y1030D02*
X1293Y1030D01*
X1329Y1030D02*
X1393Y1030D01*
X1429Y1030D02*
X1493Y1030D01*
X1529Y1030D02*
X1593Y1030D01*
X1629Y1030D02*
X1693Y1030D01*
X1729Y1030D02*
X1793Y1030D01*
X1829Y1030D02*
X1893Y1030D01*
X628Y1029D02*
X694Y1029D01*
X728Y1029D02*
X794Y1029D01*
X828Y1029D02*
X894Y1029D01*
X928Y1029D02*
X994Y1029D01*
X1028Y1029D02*
X1094Y1029D01*
X1128Y1029D02*
X1194Y1029D01*
X1228Y1029D02*
X1294Y1029D01*
X1328Y1029D02*
X1394Y1029D01*
X1428Y1029D02*
X1494Y1029D01*
X1528Y1029D02*
X1593Y1029D01*
X1628Y1029D02*
X1693Y1029D01*
X1728Y1029D02*
X1793Y1029D01*
X1828Y1029D02*
X1893Y1029D01*
X627Y1028D02*
X694Y1028D01*
X727Y1028D02*
X794Y1028D01*
X827Y1028D02*
X894Y1028D01*
X927Y1028D02*
X994Y1028D01*
X1027Y1028D02*
X1094Y1028D01*
X1127Y1028D02*
X1194Y1028D01*
X1227Y1028D02*
X1294Y1028D01*
X1327Y1028D02*
X1394Y1028D01*
X1427Y1028D02*
X1494Y1028D01*
X1527Y1028D02*
X1594Y1028D01*
X1627Y1028D02*
X1694Y1028D01*
X1727Y1028D02*
X1794Y1028D01*
X1827Y1028D02*
X1894Y1028D01*
X627Y1027D02*
X695Y1027D01*
X727Y1027D02*
X795Y1027D01*
X827Y1027D02*
X895Y1027D01*
X927Y1027D02*
X995Y1027D01*
X1027Y1027D02*
X1095Y1027D01*
X1127Y1027D02*
X1195Y1027D01*
X1227Y1027D02*
X1295Y1027D01*
X1327Y1027D02*
X1395Y1027D01*
X1427Y1027D02*
X1495Y1027D01*
X1527Y1027D02*
X1595Y1027D01*
X1627Y1027D02*
X1695Y1027D01*
X1727Y1027D02*
X1795Y1027D01*
X1827Y1027D02*
X1895Y1027D01*
X626Y1026D02*
X695Y1026D01*
X726Y1026D02*
X795Y1026D01*
X826Y1026D02*
X895Y1026D01*
X926Y1026D02*
X995Y1026D01*
X1026Y1026D02*
X1095Y1026D01*
X1126Y1026D02*
X1195Y1026D01*
X1226Y1026D02*
X1295Y1026D01*
X1326Y1026D02*
X1395Y1026D01*
X1426Y1026D02*
X1495Y1026D01*
X1526Y1026D02*
X1595Y1026D01*
X1626Y1026D02*
X1695Y1026D01*
X1726Y1026D02*
X1795Y1026D01*
X1826Y1026D02*
X1895Y1026D01*
X626Y1025D02*
X696Y1025D01*
X726Y1025D02*
X796Y1025D01*
X826Y1025D02*
X896Y1025D01*
X926Y1025D02*
X996Y1025D01*
X1026Y1025D02*
X1096Y1025D01*
X1126Y1025D02*
X1196Y1025D01*
X1226Y1025D02*
X1296Y1025D01*
X1326Y1025D02*
X1396Y1025D01*
X1426Y1025D02*
X1496Y1025D01*
X1526Y1025D02*
X1596Y1025D01*
X1625Y1025D02*
X1696Y1025D01*
X1725Y1025D02*
X1796Y1025D01*
X1825Y1025D02*
X1896Y1025D01*
X625Y1024D02*
X697Y1024D01*
X725Y1024D02*
X796Y1024D01*
X825Y1024D02*
X896Y1024D01*
X925Y1024D02*
X996Y1024D01*
X1025Y1024D02*
X1096Y1024D01*
X1125Y1024D02*
X1196Y1024D01*
X1225Y1024D02*
X1296Y1024D01*
X1325Y1024D02*
X1396Y1024D01*
X1425Y1024D02*
X1496Y1024D01*
X1525Y1024D02*
X1596Y1024D01*
X1625Y1024D02*
X1696Y1024D01*
X1725Y1024D02*
X1796Y1024D01*
X1825Y1024D02*
X1896Y1024D01*
X625Y1023D02*
X697Y1023D01*
X725Y1023D02*
X797Y1023D01*
X825Y1023D02*
X897Y1023D01*
X925Y1023D02*
X997Y1023D01*
X1025Y1023D02*
X1097Y1023D01*
X1125Y1023D02*
X1197Y1023D01*
X1225Y1023D02*
X1297Y1023D01*
X1325Y1023D02*
X1397Y1023D01*
X1425Y1023D02*
X1497Y1023D01*
X1525Y1023D02*
X1597Y1023D01*
X1625Y1023D02*
X1697Y1023D01*
X1725Y1023D02*
X1797Y1023D01*
X1824Y1023D02*
X1897Y1023D01*
X624Y1022D02*
X697Y1022D01*
X724Y1022D02*
X797Y1022D01*
X824Y1022D02*
X897Y1022D01*
X924Y1022D02*
X997Y1022D01*
X1024Y1022D02*
X1097Y1022D01*
X1124Y1022D02*
X1197Y1022D01*
X1224Y1022D02*
X1297Y1022D01*
X1324Y1022D02*
X1397Y1022D01*
X1424Y1022D02*
X1497Y1022D01*
X1524Y1022D02*
X1597Y1022D01*
X1624Y1022D02*
X1697Y1022D01*
X1724Y1022D02*
X1797Y1022D01*
X1824Y1022D02*
X1897Y1022D01*
X624Y1021D02*
X698Y1021D01*
X724Y1021D02*
X798Y1021D01*
X824Y1021D02*
X898Y1021D01*
X924Y1021D02*
X998Y1021D01*
X1024Y1021D02*
X1098Y1021D01*
X1124Y1021D02*
X1198Y1021D01*
X1224Y1021D02*
X1298Y1021D01*
X1324Y1021D02*
X1398Y1021D01*
X1424Y1021D02*
X1498Y1021D01*
X1524Y1021D02*
X1598Y1021D01*
X1624Y1021D02*
X1698Y1021D01*
X1724Y1021D02*
X1798Y1021D01*
X1824Y1021D02*
X1898Y1021D01*
X623Y1020D02*
X698Y1020D01*
X723Y1020D02*
X798Y1020D01*
X823Y1020D02*
X898Y1020D01*
X923Y1020D02*
X998Y1020D01*
X1023Y1020D02*
X1098Y1020D01*
X1123Y1020D02*
X1198Y1020D01*
X1223Y1020D02*
X1298Y1020D01*
X1323Y1020D02*
X1398Y1020D01*
X1423Y1020D02*
X1498Y1020D01*
X1523Y1020D02*
X1598Y1020D01*
X1623Y1020D02*
X1698Y1020D01*
X1723Y1020D02*
X1798Y1020D01*
X1823Y1020D02*
X1898Y1020D01*
X623Y1019D02*
X699Y1019D01*
X723Y1019D02*
X799Y1019D01*
X823Y1019D02*
X899Y1019D01*
X923Y1019D02*
X999Y1019D01*
X1023Y1019D02*
X1099Y1019D01*
X1123Y1019D02*
X1198Y1019D01*
X1223Y1019D02*
X1298Y1019D01*
X1323Y1019D02*
X1398Y1019D01*
X1423Y1019D02*
X1498Y1019D01*
X1523Y1019D02*
X1598Y1019D01*
X1623Y1019D02*
X1698Y1019D01*
X1723Y1019D02*
X1798Y1019D01*
X1823Y1019D02*
X1898Y1019D01*
X623Y1018D02*
X699Y1018D01*
X723Y1018D02*
X799Y1018D01*
X823Y1018D02*
X899Y1018D01*
X923Y1018D02*
X999Y1018D01*
X1023Y1018D02*
X1099Y1018D01*
X1123Y1018D02*
X1199Y1018D01*
X1223Y1018D02*
X1299Y1018D01*
X1323Y1018D02*
X1399Y1018D01*
X1423Y1018D02*
X1499Y1018D01*
X1523Y1018D02*
X1599Y1018D01*
X1623Y1018D02*
X1699Y1018D01*
X1723Y1018D02*
X1799Y1018D01*
X1823Y1018D02*
X1899Y1018D01*
X622Y1017D02*
X699Y1017D01*
X722Y1017D02*
X799Y1017D01*
X822Y1017D02*
X899Y1017D01*
X922Y1017D02*
X999Y1017D01*
X1022Y1017D02*
X1099Y1017D01*
X1122Y1017D02*
X1199Y1017D01*
X1222Y1017D02*
X1299Y1017D01*
X1322Y1017D02*
X1399Y1017D01*
X1422Y1017D02*
X1499Y1017D01*
X1522Y1017D02*
X1599Y1017D01*
X1622Y1017D02*
X1699Y1017D01*
X1722Y1017D02*
X1799Y1017D01*
X1822Y1017D02*
X1899Y1017D01*
X622Y1016D02*
X699Y1016D01*
X722Y1016D02*
X799Y1016D01*
X822Y1016D02*
X899Y1016D01*
X922Y1016D02*
X999Y1016D01*
X1022Y1016D02*
X1099Y1016D01*
X1122Y1016D02*
X1199Y1016D01*
X1222Y1016D02*
X1299Y1016D01*
X1322Y1016D02*
X1399Y1016D01*
X1422Y1016D02*
X1499Y1016D01*
X1522Y1016D02*
X1599Y1016D01*
X1622Y1016D02*
X1699Y1016D01*
X1722Y1016D02*
X1799Y1016D01*
X1822Y1016D02*
X1899Y1016D01*
X622Y1015D02*
X700Y1015D01*
X722Y1015D02*
X800Y1015D01*
X822Y1015D02*
X900Y1015D01*
X922Y1015D02*
X1000Y1015D01*
X1022Y1015D02*
X1100Y1015D01*
X1122Y1015D02*
X1200Y1015D01*
X1222Y1015D02*
X1300Y1015D01*
X1322Y1015D02*
X1400Y1015D01*
X1422Y1015D02*
X1500Y1015D01*
X1522Y1015D02*
X1600Y1015D01*
X1622Y1015D02*
X1700Y1015D01*
X1722Y1015D02*
X1799Y1015D01*
X1822Y1015D02*
X1899Y1015D01*
X622Y1014D02*
X700Y1014D01*
X722Y1014D02*
X800Y1014D01*
X822Y1014D02*
X900Y1014D01*
X922Y1014D02*
X1000Y1014D01*
X1022Y1014D02*
X1100Y1014D01*
X1122Y1014D02*
X1200Y1014D01*
X1222Y1014D02*
X1300Y1014D01*
X1322Y1014D02*
X1400Y1014D01*
X1422Y1014D02*
X1500Y1014D01*
X1522Y1014D02*
X1600Y1014D01*
X1622Y1014D02*
X1700Y1014D01*
X1722Y1014D02*
X1800Y1014D01*
X1822Y1014D02*
X1900Y1014D01*
X622Y1013D02*
X700Y1013D01*
X722Y1013D02*
X800Y1013D01*
X822Y1013D02*
X900Y1013D01*
X922Y1013D02*
X1000Y1013D01*
X1022Y1013D02*
X1100Y1013D01*
X1122Y1013D02*
X1200Y1013D01*
X1222Y1013D02*
X1300Y1013D01*
X1322Y1013D02*
X1400Y1013D01*
X1422Y1013D02*
X1500Y1013D01*
X1522Y1013D02*
X1600Y1013D01*
X1622Y1013D02*
X1700Y1013D01*
X1722Y1013D02*
X1800Y1013D01*
X1821Y1013D02*
X1900Y1013D01*
X622Y1012D02*
X700Y1012D01*
X722Y1012D02*
X800Y1012D01*
X822Y1012D02*
X900Y1012D01*
X921Y1012D02*
X1000Y1012D01*
X1021Y1012D02*
X1100Y1012D01*
X1121Y1012D02*
X1200Y1012D01*
X1221Y1012D02*
X1300Y1012D01*
X1321Y1012D02*
X1400Y1012D01*
X1421Y1012D02*
X1500Y1012D01*
X1521Y1012D02*
X1600Y1012D01*
X1621Y1012D02*
X1700Y1012D01*
X1721Y1012D02*
X1800Y1012D01*
X1821Y1012D02*
X1900Y1012D01*
X621Y1011D02*
X700Y1011D01*
X721Y1011D02*
X800Y1011D01*
X821Y1011D02*
X900Y1011D01*
X921Y1011D02*
X1000Y1011D01*
X1021Y1011D02*
X1100Y1011D01*
X1121Y1011D02*
X1200Y1011D01*
X1221Y1011D02*
X1300Y1011D01*
X1321Y1011D02*
X1400Y1011D01*
X1421Y1011D02*
X1500Y1011D01*
X1521Y1011D02*
X1600Y1011D01*
X1621Y1011D02*
X1700Y1011D01*
X1721Y1011D02*
X1800Y1011D01*
X1821Y1011D02*
X1900Y1011D01*
X621Y1010D02*
X700Y1010D01*
X721Y1010D02*
X800Y1010D01*
X821Y1010D02*
X900Y1010D01*
X921Y1010D02*
X1000Y1010D01*
X1021Y1010D02*
X1100Y1010D01*
X1121Y1010D02*
X1200Y1010D01*
X1221Y1010D02*
X1300Y1010D01*
X1321Y1010D02*
X1400Y1010D01*
X1421Y1010D02*
X1500Y1010D01*
X1521Y1010D02*
X1600Y1010D01*
X1621Y1010D02*
X1700Y1010D01*
X1721Y1010D02*
X1800Y1010D01*
X1821Y1010D02*
X1900Y1010D01*
X621Y1009D02*
X700Y1009D01*
X721Y1009D02*
X800Y1009D01*
X821Y1009D02*
X900Y1009D01*
X921Y1009D02*
X1000Y1009D01*
X1021Y1009D02*
X1100Y1009D01*
X1121Y1009D02*
X1200Y1009D01*
X1221Y1009D02*
X1300Y1009D01*
X1321Y1009D02*
X1400Y1009D01*
X1421Y1009D02*
X1500Y1009D01*
X1521Y1009D02*
X1600Y1009D01*
X1621Y1009D02*
X1700Y1009D01*
X1721Y1009D02*
X1800Y1009D01*
X1821Y1009D02*
X1900Y1009D01*
X621Y1008D02*
X700Y1008D01*
X721Y1008D02*
X800Y1008D01*
X821Y1008D02*
X900Y1008D01*
X921Y1008D02*
X1000Y1008D01*
X1021Y1008D02*
X1100Y1008D01*
X1121Y1008D02*
X1200Y1008D01*
X1221Y1008D02*
X1300Y1008D01*
X1321Y1008D02*
X1400Y1008D01*
X1421Y1008D02*
X1500Y1008D01*
X1521Y1008D02*
X1600Y1008D01*
X1621Y1008D02*
X1700Y1008D01*
X1721Y1008D02*
X1800Y1008D01*
X1821Y1008D02*
X1900Y1008D01*
X621Y1007D02*
X700Y1007D01*
X721Y1007D02*
X800Y1007D01*
X821Y1007D02*
X900Y1007D01*
X921Y1007D02*
X1000Y1007D01*
X1021Y1007D02*
X1100Y1007D01*
X1121Y1007D02*
X1200Y1007D01*
X1221Y1007D02*
X1300Y1007D01*
X1321Y1007D02*
X1400Y1007D01*
X1421Y1007D02*
X1500Y1007D01*
X1521Y1007D02*
X1600Y1007D01*
X1621Y1007D02*
X1700Y1007D01*
X1721Y1007D02*
X1800Y1007D01*
X1821Y1007D02*
X1900Y1007D01*
X621Y1006D02*
X700Y1006D01*
X721Y1006D02*
X800Y1006D01*
X821Y1006D02*
X900Y1006D01*
X921Y1006D02*
X1000Y1006D01*
X1021Y1006D02*
X1100Y1006D01*
X1121Y1006D02*
X1200Y1006D01*
X1221Y1006D02*
X1300Y1006D01*
X1321Y1006D02*
X1400Y1006D01*
X1421Y1006D02*
X1500Y1006D01*
X1521Y1006D02*
X1600Y1006D01*
X1621Y1006D02*
X1700Y1006D01*
X1721Y1006D02*
X1800Y1006D01*
X1821Y1006D02*
X1900Y1006D01*
X622Y1005D02*
X700Y1005D01*
X722Y1005D02*
X800Y1005D01*
X822Y1005D02*
X900Y1005D01*
X921Y1005D02*
X1000Y1005D01*
X1021Y1005D02*
X1100Y1005D01*
X1121Y1005D02*
X1200Y1005D01*
X1221Y1005D02*
X1300Y1005D01*
X1321Y1005D02*
X1400Y1005D01*
X1421Y1005D02*
X1500Y1005D01*
X1521Y1005D02*
X1600Y1005D01*
X1621Y1005D02*
X1700Y1005D01*
X1721Y1005D02*
X1800Y1005D01*
X1821Y1005D02*
X1900Y1005D01*
X622Y1004D02*
X700Y1004D01*
X722Y1004D02*
X800Y1004D01*
X822Y1004D02*
X900Y1004D01*
X922Y1004D02*
X1000Y1004D01*
X1022Y1004D02*
X1100Y1004D01*
X1122Y1004D02*
X1200Y1004D01*
X1222Y1004D02*
X1300Y1004D01*
X1322Y1004D02*
X1400Y1004D01*
X1422Y1004D02*
X1500Y1004D01*
X1522Y1004D02*
X1600Y1004D01*
X1622Y1004D02*
X1700Y1004D01*
X1722Y1004D02*
X1800Y1004D01*
X1821Y1004D02*
X1900Y1004D01*
X622Y1003D02*
X700Y1003D01*
X722Y1003D02*
X800Y1003D01*
X822Y1003D02*
X900Y1003D01*
X922Y1003D02*
X1000Y1003D01*
X1022Y1003D02*
X1100Y1003D01*
X1122Y1003D02*
X1200Y1003D01*
X1222Y1003D02*
X1300Y1003D01*
X1322Y1003D02*
X1400Y1003D01*
X1422Y1003D02*
X1500Y1003D01*
X1522Y1003D02*
X1600Y1003D01*
X1622Y1003D02*
X1700Y1003D01*
X1722Y1003D02*
X1800Y1003D01*
X1822Y1003D02*
X1900Y1003D01*
X622Y1002D02*
X700Y1002D01*
X722Y1002D02*
X800Y1002D01*
X822Y1002D02*
X900Y1002D01*
X922Y1002D02*
X1000Y1002D01*
X1022Y1002D02*
X1100Y1002D01*
X1122Y1002D02*
X1200Y1002D01*
X1222Y1002D02*
X1300Y1002D01*
X1322Y1002D02*
X1400Y1002D01*
X1422Y1002D02*
X1500Y1002D01*
X1522Y1002D02*
X1600Y1002D01*
X1622Y1002D02*
X1699Y1002D01*
X1722Y1002D02*
X1799Y1002D01*
X1822Y1002D02*
X1899Y1002D01*
X622Y1001D02*
X699Y1001D01*
X722Y1001D02*
X799Y1001D01*
X822Y1001D02*
X899Y1001D01*
X922Y1001D02*
X999Y1001D01*
X1022Y1001D02*
X1099Y1001D01*
X1122Y1001D02*
X1199Y1001D01*
X1222Y1001D02*
X1299Y1001D01*
X1322Y1001D02*
X1399Y1001D01*
X1422Y1001D02*
X1499Y1001D01*
X1522Y1001D02*
X1599Y1001D01*
X1622Y1001D02*
X1699Y1001D01*
X1722Y1001D02*
X1799Y1001D01*
X1822Y1001D02*
X1899Y1001D01*
X622Y1000D02*
X699Y1000D01*
X722Y1000D02*
X799Y1000D01*
X822Y1000D02*
X899Y1000D01*
X922Y1000D02*
X999Y1000D01*
X1022Y1000D02*
X1099Y1000D01*
X1122Y1000D02*
X1199Y1000D01*
X1222Y1000D02*
X1299Y1000D01*
X1322Y1000D02*
X1399Y1000D01*
X1422Y1000D02*
X1499Y1000D01*
X1522Y1000D02*
X1599Y1000D01*
X1622Y1000D02*
X1699Y1000D01*
X1722Y1000D02*
X1799Y1000D01*
X1822Y1000D02*
X1899Y1000D01*
X623Y999D02*
X699Y999D01*
X723Y999D02*
X799Y999D01*
X823Y999D02*
X899Y999D01*
X923Y999D02*
X999Y999D01*
X1023Y999D02*
X1099Y999D01*
X1123Y999D02*
X1199Y999D01*
X1223Y999D02*
X1299Y999D01*
X1323Y999D02*
X1399Y999D01*
X1423Y999D02*
X1499Y999D01*
X1523Y999D02*
X1599Y999D01*
X1623Y999D02*
X1699Y999D01*
X1723Y999D02*
X1799Y999D01*
X1823Y999D02*
X1899Y999D01*
X623Y998D02*
X699Y998D01*
X723Y998D02*
X799Y998D01*
X823Y998D02*
X899Y998D01*
X923Y998D02*
X998Y998D01*
X1023Y998D02*
X1098Y998D01*
X1123Y998D02*
X1198Y998D01*
X1223Y998D02*
X1298Y998D01*
X1323Y998D02*
X1398Y998D01*
X1423Y998D02*
X1498Y998D01*
X1523Y998D02*
X1598Y998D01*
X1623Y998D02*
X1698Y998D01*
X1723Y998D02*
X1798Y998D01*
X1823Y998D02*
X1898Y998D01*
X623Y997D02*
X698Y997D01*
X723Y997D02*
X798Y997D01*
X823Y997D02*
X898Y997D01*
X923Y997D02*
X998Y997D01*
X1023Y997D02*
X1098Y997D01*
X1123Y997D02*
X1198Y997D01*
X1223Y997D02*
X1298Y997D01*
X1323Y997D02*
X1398Y997D01*
X1423Y997D02*
X1498Y997D01*
X1523Y997D02*
X1598Y997D01*
X1623Y997D02*
X1698Y997D01*
X1723Y997D02*
X1798Y997D01*
X1823Y997D02*
X1898Y997D01*
X624Y996D02*
X698Y996D01*
X724Y996D02*
X798Y996D01*
X824Y996D02*
X898Y996D01*
X924Y996D02*
X998Y996D01*
X1024Y996D02*
X1098Y996D01*
X1124Y996D02*
X1198Y996D01*
X1224Y996D02*
X1298Y996D01*
X1324Y996D02*
X1398Y996D01*
X1424Y996D02*
X1498Y996D01*
X1524Y996D02*
X1598Y996D01*
X1624Y996D02*
X1698Y996D01*
X1724Y996D02*
X1798Y996D01*
X1824Y996D02*
X1898Y996D01*
X624Y995D02*
X697Y995D01*
X724Y995D02*
X797Y995D01*
X824Y995D02*
X897Y995D01*
X924Y995D02*
X997Y995D01*
X1024Y995D02*
X1097Y995D01*
X1124Y995D02*
X1197Y995D01*
X1224Y995D02*
X1297Y995D01*
X1324Y995D02*
X1397Y995D01*
X1424Y995D02*
X1497Y995D01*
X1524Y995D02*
X1597Y995D01*
X1624Y995D02*
X1697Y995D01*
X1724Y995D02*
X1797Y995D01*
X1824Y995D02*
X1897Y995D01*
X625Y994D02*
X697Y994D01*
X725Y994D02*
X797Y994D01*
X825Y994D02*
X897Y994D01*
X925Y994D02*
X997Y994D01*
X1025Y994D02*
X1097Y994D01*
X1125Y994D02*
X1197Y994D01*
X1225Y994D02*
X1297Y994D01*
X1325Y994D02*
X1397Y994D01*
X1425Y994D02*
X1497Y994D01*
X1525Y994D02*
X1597Y994D01*
X1625Y994D02*
X1697Y994D01*
X1725Y994D02*
X1797Y994D01*
X1825Y994D02*
X1897Y994D01*
X625Y993D02*
X696Y993D01*
X725Y993D02*
X796Y993D01*
X825Y993D02*
X896Y993D01*
X925Y993D02*
X996Y993D01*
X1025Y993D02*
X1096Y993D01*
X1125Y993D02*
X1196Y993D01*
X1225Y993D02*
X1296Y993D01*
X1325Y993D02*
X1396Y993D01*
X1425Y993D02*
X1496Y993D01*
X1525Y993D02*
X1596Y993D01*
X1625Y993D02*
X1696Y993D01*
X1725Y993D02*
X1796Y993D01*
X1825Y993D02*
X1896Y993D01*
X626Y992D02*
X696Y992D01*
X726Y992D02*
X796Y992D01*
X826Y992D02*
X896Y992D01*
X926Y992D02*
X996Y992D01*
X1026Y992D02*
X1096Y992D01*
X1126Y992D02*
X1196Y992D01*
X1226Y992D02*
X1296Y992D01*
X1326Y992D02*
X1396Y992D01*
X1426Y992D02*
X1496Y992D01*
X1526Y992D02*
X1596Y992D01*
X1626Y992D02*
X1696Y992D01*
X1726Y992D02*
X1796Y992D01*
X1826Y992D02*
X1896Y992D01*
X626Y991D02*
X695Y991D01*
X726Y991D02*
X795Y991D01*
X826Y991D02*
X895Y991D01*
X926Y991D02*
X995Y991D01*
X1026Y991D02*
X1095Y991D01*
X1126Y991D02*
X1195Y991D01*
X1226Y991D02*
X1295Y991D01*
X1326Y991D02*
X1395Y991D01*
X1426Y991D02*
X1495Y991D01*
X1526Y991D02*
X1595Y991D01*
X1626Y991D02*
X1695Y991D01*
X1726Y991D02*
X1795Y991D01*
X1826Y991D02*
X1895Y991D01*
X627Y990D02*
X695Y990D01*
X727Y990D02*
X795Y990D01*
X827Y990D02*
X895Y990D01*
X927Y990D02*
X995Y990D01*
X1027Y990D02*
X1095Y990D01*
X1127Y990D02*
X1195Y990D01*
X1227Y990D02*
X1295Y990D01*
X1327Y990D02*
X1395Y990D01*
X1427Y990D02*
X1495Y990D01*
X1527Y990D02*
X1595Y990D01*
X1627Y990D02*
X1695Y990D01*
X1727Y990D02*
X1795Y990D01*
X1827Y990D02*
X1895Y990D01*
X627Y989D02*
X694Y989D01*
X727Y989D02*
X794Y989D01*
X827Y989D02*
X894Y989D01*
X927Y989D02*
X994Y989D01*
X1027Y989D02*
X1094Y989D01*
X1127Y989D02*
X1194Y989D01*
X1227Y989D02*
X1294Y989D01*
X1327Y989D02*
X1394Y989D01*
X1427Y989D02*
X1494Y989D01*
X1527Y989D02*
X1594Y989D01*
X1627Y989D02*
X1694Y989D01*
X1727Y989D02*
X1794Y989D01*
X1827Y989D02*
X1894Y989D01*
X628Y988D02*
X694Y988D01*
X728Y988D02*
X794Y988D01*
X828Y988D02*
X894Y988D01*
X928Y988D02*
X994Y988D01*
X1028Y988D02*
X1094Y988D01*
X1128Y988D02*
X1193Y988D01*
X1228Y988D02*
X1293Y988D01*
X1328Y988D02*
X1393Y988D01*
X1428Y988D02*
X1493Y988D01*
X1528Y988D02*
X1593Y988D01*
X1628Y988D02*
X1693Y988D01*
X1728Y988D02*
X1793Y988D01*
X1828Y988D02*
X1893Y988D01*
X629Y987D02*
X693Y987D01*
X729Y987D02*
X793Y987D01*
X829Y987D02*
X893Y987D01*
X929Y987D02*
X993Y987D01*
X1029Y987D02*
X1093Y987D01*
X1129Y987D02*
X1193Y987D01*
X1229Y987D02*
X1293Y987D01*
X1329Y987D02*
X1393Y987D01*
X1429Y987D02*
X1493Y987D01*
X1529Y987D02*
X1593Y987D01*
X1629Y987D02*
X1693Y987D01*
X1729Y987D02*
X1793Y987D01*
X1829Y987D02*
X1893Y987D01*
X630Y986D02*
X692Y986D01*
X729Y986D02*
X792Y986D01*
X829Y986D02*
X892Y986D01*
X929Y986D02*
X992Y986D01*
X1029Y986D02*
X1092Y986D01*
X1129Y986D02*
X1192Y986D01*
X1229Y986D02*
X1292Y986D01*
X1329Y986D02*
X1392Y986D01*
X1429Y986D02*
X1492Y986D01*
X1529Y986D02*
X1592Y986D01*
X1629Y986D02*
X1692Y986D01*
X1729Y986D02*
X1792Y986D01*
X1829Y986D02*
X1892Y986D01*
X630Y985D02*
X691Y985D01*
X730Y985D02*
X791Y985D01*
X830Y985D02*
X891Y985D01*
X930Y985D02*
X991Y985D01*
X1030Y985D02*
X1091Y985D01*
X1130Y985D02*
X1191Y985D01*
X1230Y985D02*
X1291Y985D01*
X1330Y985D02*
X1391Y985D01*
X1430Y985D02*
X1491Y985D01*
X1530Y985D02*
X1591Y985D01*
X1630Y985D02*
X1691Y985D01*
X1730Y985D02*
X1791Y985D01*
X1830Y985D02*
X1891Y985D01*
X631Y984D02*
X691Y984D01*
X731Y984D02*
X791Y984D01*
X831Y984D02*
X891Y984D01*
X931Y984D02*
X991Y984D01*
X1031Y984D02*
X1090Y984D01*
X1131Y984D02*
X1190Y984D01*
X1231Y984D02*
X1290Y984D01*
X1331Y984D02*
X1390Y984D01*
X1431Y984D02*
X1490Y984D01*
X1531Y984D02*
X1590Y984D01*
X1631Y984D02*
X1690Y984D01*
X1731Y984D02*
X1790Y984D01*
X1831Y984D02*
X1890Y984D01*
X632Y983D02*
X690Y983D01*
X732Y983D02*
X790Y983D01*
X832Y983D02*
X890Y983D01*
X932Y983D02*
X990Y983D01*
X1032Y983D02*
X1090Y983D01*
X1132Y983D02*
X1190Y983D01*
X1232Y983D02*
X1290Y983D01*
X1332Y983D02*
X1390Y983D01*
X1432Y983D02*
X1490Y983D01*
X1532Y983D02*
X1590Y983D01*
X1632Y983D02*
X1690Y983D01*
X1732Y983D02*
X1790Y983D01*
X1832Y983D02*
X1890Y983D01*
X633Y982D02*
X689Y982D01*
X733Y982D02*
X789Y982D01*
X833Y982D02*
X889Y982D01*
X933Y982D02*
X989Y982D01*
X1033Y982D02*
X1089Y982D01*
X1133Y982D02*
X1189Y982D01*
X1233Y982D02*
X1289Y982D01*
X1333Y982D02*
X1389Y982D01*
X1433Y982D02*
X1489Y982D01*
X1533Y982D02*
X1589Y982D01*
X1633Y982D02*
X1689Y982D01*
X1733Y982D02*
X1789Y982D01*
X1833Y982D02*
X1889Y982D01*
X634Y981D02*
X688Y981D01*
X734Y981D02*
X788Y981D01*
X834Y981D02*
X888Y981D01*
X934Y981D02*
X988Y981D01*
X1034Y981D02*
X1088Y981D01*
X1134Y981D02*
X1188Y981D01*
X1234Y981D02*
X1288Y981D01*
X1334Y981D02*
X1388Y981D01*
X1434Y981D02*
X1488Y981D01*
X1534Y981D02*
X1588Y981D01*
X1634Y981D02*
X1688Y981D01*
X1734Y981D02*
X1788Y981D01*
X1834Y981D02*
X1888Y981D01*
X635Y980D02*
X687Y980D01*
X735Y980D02*
X787Y980D01*
X835Y980D02*
X887Y980D01*
X935Y980D02*
X987Y980D01*
X1035Y980D02*
X1087Y980D01*
X1135Y980D02*
X1187Y980D01*
X1235Y980D02*
X1287Y980D01*
X1335Y980D02*
X1387Y980D01*
X1435Y980D02*
X1487Y980D01*
X1535Y980D02*
X1587Y980D01*
X1635Y980D02*
X1687Y980D01*
X1735Y980D02*
X1787Y980D01*
X1835Y980D02*
X1887Y980D01*
X636Y979D02*
X686Y979D01*
X736Y979D02*
X786Y979D01*
X836Y979D02*
X886Y979D01*
X936Y979D02*
X986Y979D01*
X1036Y979D02*
X1086Y979D01*
X1136Y979D02*
X1186Y979D01*
X1236Y979D02*
X1286Y979D01*
X1336Y979D02*
X1386Y979D01*
X1436Y979D02*
X1486Y979D01*
X1536Y979D02*
X1586Y979D01*
X1636Y979D02*
X1686Y979D01*
X1736Y979D02*
X1786Y979D01*
X1836Y979D02*
X1885Y979D01*
X637Y978D02*
X684Y978D01*
X737Y978D02*
X784Y978D01*
X837Y978D02*
X884Y978D01*
X937Y978D02*
X984Y978D01*
X1037Y978D02*
X1084Y978D01*
X1137Y978D02*
X1184Y978D01*
X1237Y978D02*
X1284Y978D01*
X1337Y978D02*
X1384Y978D01*
X1437Y978D02*
X1484Y978D01*
X1537Y978D02*
X1584Y978D01*
X1637Y978D02*
X1684Y978D01*
X1737Y978D02*
X1784Y978D01*
X1837Y978D02*
X1884Y978D01*
X638Y977D02*
X683Y977D01*
X738Y977D02*
X783Y977D01*
X838Y977D02*
X883Y977D01*
X938Y977D02*
X983Y977D01*
X1038Y977D02*
X1083Y977D01*
X1138Y977D02*
X1183Y977D01*
X1238Y977D02*
X1283Y977D01*
X1338Y977D02*
X1383Y977D01*
X1438Y977D02*
X1483Y977D01*
X1538Y977D02*
X1583Y977D01*
X1638Y977D02*
X1683Y977D01*
X1738Y977D02*
X1783Y977D01*
X1838Y977D02*
X1883Y977D01*
X640Y976D02*
X682Y976D01*
X740Y976D02*
X782Y976D01*
X840Y976D02*
X882Y976D01*
X940Y976D02*
X982Y976D01*
X1040Y976D02*
X1082Y976D01*
X1140Y976D02*
X1182Y976D01*
X1240Y976D02*
X1282Y976D01*
X1340Y976D02*
X1382Y976D01*
X1440Y976D02*
X1482Y976D01*
X1540Y976D02*
X1582Y976D01*
X1640Y976D02*
X1682Y976D01*
X1740Y976D02*
X1782Y976D01*
X1840Y976D02*
X1882Y976D01*
X641Y975D02*
X680Y975D01*
X741Y975D02*
X780Y975D01*
X841Y975D02*
X880Y975D01*
X941Y975D02*
X980Y975D01*
X1041Y975D02*
X1080Y975D01*
X1141Y975D02*
X1180Y975D01*
X1241Y975D02*
X1280Y975D01*
X1341Y975D02*
X1380Y975D01*
X1441Y975D02*
X1480Y975D01*
X1541Y975D02*
X1580Y975D01*
X1641Y975D02*
X1680Y975D01*
X1741Y975D02*
X1780Y975D01*
X1841Y975D02*
X1880Y975D01*
X643Y974D02*
X679Y974D01*
X743Y974D02*
X779Y974D01*
X843Y974D02*
X879Y974D01*
X943Y974D02*
X979Y974D01*
X1043Y974D02*
X1079Y974D01*
X1143Y974D02*
X1179Y974D01*
X1243Y974D02*
X1279Y974D01*
X1343Y974D02*
X1379Y974D01*
X1443Y974D02*
X1479Y974D01*
X1543Y974D02*
X1579Y974D01*
X1643Y974D02*
X1679Y974D01*
X1743Y974D02*
X1779Y974D01*
X1843Y974D02*
X1879Y974D01*
X645Y973D02*
X677Y973D01*
X745Y973D02*
X777Y973D01*
X845Y973D02*
X877Y973D01*
X945Y973D02*
X977Y973D01*
X1045Y973D02*
X1077Y973D01*
X1145Y973D02*
X1177Y973D01*
X1244Y973D02*
X1277Y973D01*
X1344Y973D02*
X1377Y973D01*
X1444Y973D02*
X1477Y973D01*
X1544Y973D02*
X1577Y973D01*
X1644Y973D02*
X1677Y973D01*
X1744Y973D02*
X1777Y973D01*
X1844Y973D02*
X1877Y973D01*
X647Y972D02*
X675Y972D01*
X747Y972D02*
X775Y972D01*
X847Y972D02*
X875Y972D01*
X947Y972D02*
X975Y972D01*
X1047Y972D02*
X1075Y972D01*
X1146Y972D02*
X1175Y972D01*
X1246Y972D02*
X1275Y972D01*
X1346Y972D02*
X1375Y972D01*
X1446Y972D02*
X1475Y972D01*
X1546Y972D02*
X1575Y972D01*
X1646Y972D02*
X1675Y972D01*
X1746Y972D02*
X1775Y972D01*
X1846Y972D02*
X1875Y972D01*
X649Y971D02*
X673Y971D01*
X749Y971D02*
X773Y971D01*
X849Y971D02*
X873Y971D01*
X949Y971D02*
X973Y971D01*
X1049Y971D02*
X1073Y971D01*
X1149Y971D02*
X1173Y971D01*
X1249Y971D02*
X1273Y971D01*
X1349Y971D02*
X1373Y971D01*
X1449Y971D02*
X1473Y971D01*
X1549Y971D02*
X1573Y971D01*
X1649Y971D02*
X1673Y971D01*
X1749Y971D02*
X1773Y971D01*
X1849Y971D02*
X1873Y971D01*
X652Y970D02*
X670Y970D01*
X752Y970D02*
X770Y970D01*
X852Y970D02*
X870Y970D01*
X952Y970D02*
X970Y970D01*
X1052Y970D02*
X1070Y970D01*
X1152Y970D02*
X1170Y970D01*
X1252Y970D02*
X1270Y970D01*
X1352Y970D02*
X1370Y970D01*
X1452Y970D02*
X1470Y970D01*
X1552Y970D02*
X1570Y970D01*
X1652Y970D02*
X1670Y970D01*
X1752Y970D02*
X1770Y970D01*
X1852Y970D02*
X1870Y970D01*
X656Y969D02*
X666Y969D01*
X756Y969D02*
X766Y969D01*
X856Y969D02*
X866Y969D01*
X956Y969D02*
X966Y969D01*
X1056Y969D02*
X1066Y969D01*
X1156Y969D02*
X1166Y969D01*
X1256Y969D02*
X1266Y969D01*
X1356Y969D02*
X1366Y969D01*
X1456Y969D02*
X1466Y969D01*
X1556Y969D02*
X1566Y969D01*
X1656Y969D02*
X1666Y969D01*
X1756Y969D02*
X1766Y969D01*
X1856Y969D02*
X1865Y969D01*
D02*
G04 End of Mask1*
M02*