<?xml version='1.0' encoding='UTF-8' standalone='no'?>
<!-- Created with Fritzing (http://www.fritzing.org/) -->
<svg xmlns="http://www.w3.org/2000/svg" width="2.1658in" x="0in" version="1.2" y="0in"  height="1.77169in" viewBox="0 0 155.937 127.562" baseProfile="tiny" xmlns:svg="http://www.w3.org/2000/svg">
 <g partID="12040">
  <g id="board">
   <rect width="155.361" x="0.576" y="0.576" fill="none" height="126.986" stroke="black" fill-opacity="0.5" id="boardoutline" stroke-width="0.5"/>
  </g>
 </g>
 <g partID="7383500">
  <g transform="translate(-18.7724,1.54291)">
   <g  id="copper0">
    <g width="3.96" x="20.664" y="5.184" fill="none"  height="3.96" stroke="black" id="0" stroke-width="1.44"/>
    <g fill="none" cx="22.68"  cy="7.2" stroke="black" id="1" r="1.98" stroke-width="1.44"/>
    <g fill="none" cx="29.88"  cy="7.2" stroke="black" id="2" r="1.98" stroke-width="1.44"/>
    <g fill="none" cx="37.08"  cy="7.2" stroke="black" id="3" r="1.98" stroke-width="1.44"/>
    <g fill="none" cx="44.28"  cy="7.2" stroke="black" id="4" r="1.98" stroke-width="1.44"/>
    <g fill="none" cx="51.48"  cy="7.2" stroke="black" id="5" r="1.98" stroke-width="1.44"/>
    <g fill="none" cx="58.68"  cy="7.2" stroke="black" id="6" r="1.98" stroke-width="1.44"/>
    <g fill="none" cx="65.88"  cy="7.2" stroke="black" id="7" r="1.98" stroke-width="1.44"/>
    <g fill="none" cx="73.08"  cy="7.2" stroke="black" id="8" r="1.98" stroke-width="1.44"/>
    <g fill="none" cx="80.28"  cy="7.2" stroke="black" id="9" r="1.98" stroke-width="1.44"/>
    <g fill="none" cx="87.48"  cy="7.2" stroke="black" id="10" r="1.98" stroke-width="1.44"/>
    <g fill="none" cx="94.68"  cy="7.2" stroke="black" id="11" r="1.98" stroke-width="1.44"/>
    <g fill="none" cx="101.88"  cy="7.2" stroke="black" id="12" r="1.98" stroke-width="1.44"/>
    <g fill="none" cx="109.08"  cy="7.2" stroke="black" id="13" r="1.98" stroke-width="1.44"/>
    <g fill="none" cx="116.28"  cy="7.2" stroke="black" id="14" r="1.98" stroke-width="1.44"/>
    <g fill="none" cx="123.48"  cy="7.2" stroke="black" id="15" r="1.98" stroke-width="1.44"/>
    <g fill="none" cx="130.68"  cy="7.2" stroke="black" id="16" r="1.98" stroke-width="1.44"/>
   </g>
  </g>
 </g>
 <g partID="6832280">
  <g transform="translate(31.8674,21.1194)">
   <g transform="matrix(0,1,-1,0,0,0)">
    <g  id="copper0">
     <g fill="none" cx="3.528"  cy="17.928" stroke="black" id="17" r="2.52" stroke-width="2.088"/>
     <g width="5.04" x="1.008" y="1.008" fill="none"  height="5.04" stroke="black" id="18" stroke-width="2.088"/>
     <g fill="none" cx="3.528"  cy="3.528" stroke="black" id="19" r="2.52" stroke-width="2.088"/>
     <g fill="none" cx="17.928"  cy="10.728" stroke="black" id="20" r="2.52" stroke-width="2.088"/>
    </g>
   </g>
  </g>
 </g>
 <g partID="6445070">
  <g transform="translate(25.3774,125.826)">
   <g transform="matrix(-1,0,0,-1,0,0)">
    <g  id="copper0">
     <g fill="none" cx="20.8462"  cy="15.6024" stroke="black" id="21" r="1.98" stroke-width="1.44"/>
     <g fill="none" cx="2.42064"  cy="15.6024" stroke="black" id="22" r="1.98" stroke-width="1.44"/>
     <g fill="none" cx="20.8462"  cy="2.84616" stroke="black" id="23" r="1.98" stroke-width="1.44"/>
     <g fill="none" cx="2.42064"  cy="2.84616" stroke="black" id="24" r="1.98" stroke-width="1.44"/>
    </g>
   </g>
  </g>
 </g>
 <g partID="6437830">
  <g transform="translate(59.3934,125.826)">
   <g transform="matrix(-1,0,0,-1,0,0)">
    <g  id="copper0">
     <g fill="none" cx="20.8462"  cy="15.6024" stroke="black" id="25" r="1.98" stroke-width="1.44"/>
     <g fill="none" cx="2.42064"  cy="15.6024" stroke="black" id="26" r="1.98" stroke-width="1.44"/>
     <g fill="none" cx="20.8462"  cy="2.84616" stroke="black" id="27" r="1.98" stroke-width="1.44"/>
     <g fill="none" cx="2.42064"  cy="2.84616" stroke="black" id="28" r="1.98" stroke-width="1.44"/>
    </g>
   </g>
  </g>
 </g>
 <g partID="6784700">
  <g transform="translate(27.3247,100.634)">
   <g transform="matrix(0,-1,1,0,0,0)">
    <g  flipped="1" id="copper0" transform="matrix(1, 0, 0, -1, 0, 6.51969)">
     <g >
      <rect width="4.53543" x="0.566929" y="0.566929" fill="black"  height="5.38583" stroke="none" fill-opacity="1" id="29"/>
      <rect width="4.53543" x="9.35433" y="0.566929" fill="black"  height="5.38583" stroke="none" fill-opacity="1" id="30"/>
     </g>
    </g>
   </g>
  </g>
 </g>
 <g partID="7007910">
  <g transform="translate(106.695,100.918)">
   <g transform="matrix(0,-1,1,0,0,0)">
    <g  flipped="1" id="copper0" transform="matrix(1, 0, 0, -1, 0, 6.51969)">
     <g >
      <rect width="4.53543" x="0.566929" y="0.566929" fill="black"  height="5.38583" stroke="none" fill-opacity="1" id="31"/>
      <rect width="4.53543" x="9.35433" y="0.566929" fill="black"  height="5.38583" stroke="none" fill-opacity="1" id="32"/>
     </g>
    </g>
   </g>
  </g>
 </g>
 <g partID="7007810">
  <g transform="translate(140.169,100.869)">
   <g transform="matrix(0,-1,1,0,0,0)">
    <g  flipped="1" id="copper0" transform="matrix(1, 0, 0, -1, 0, 6.51969)">
     <g >
      <rect width="4.53543" x="0.566929" y="0.566929" fill="black"  height="5.38583" stroke="none" fill-opacity="1" id="33"/>
      <rect width="4.53543" x="9.35433" y="0.566929" fill="black"  height="5.38583" stroke="none" fill-opacity="1" id="34"/>
     </g>
    </g>
   </g>
  </g>
 </g>
 <g partID="7007630">
  <g transform="translate(93.3724,86.4613)">
   <g transform="matrix(0,1,-1,0,0,0)">
    <g  flipped="1" id="copper0" transform="matrix(1, 0, 0, -1, 0, 6.51969)">
     <g >
      <rect width="4.53543" x="0.566929" y="0.566929" fill="black"  height="5.38583" stroke="none" fill-opacity="1" id="35"/>
      <rect width="4.53543" x="9.35433" y="0.566929" fill="black"  height="5.38583" stroke="none" fill-opacity="1" id="36"/>
     </g>
    </g>
   </g>
  </g>
 </g>
 <g partID="6784820">
  <g transform="translate(14.002,86.4613)">
   <g transform="matrix(0,1,-1,0,0,0)">
    <g  flipped="1" id="copper0" transform="matrix(1, 0, 0, -1, 0, 6.51969)">
     <g >
      <rect width="4.53543" x="0.566929" y="0.566929" fill="black"  height="5.38583" stroke="none" fill-opacity="1" id="37"/>
      <rect width="4.53543" x="9.35433" y="0.566929" fill="black"  height="5.38583" stroke="none" fill-opacity="1" id="38"/>
     </g>
    </g>
   </g>
  </g>
 </g>
 <g partID="7003330">
  <g transform="translate(133.057,86.4613)">
   <g transform="matrix(0,1,-1,0,0,0)">
    <g  flipped="1" id="copper0" transform="matrix(1, 0, 0, -1, 0, 6.51969)">
     <g >
      <rect width="4.53543" x="0.566929" y="0.566929" fill="black"  height="5.38583" stroke="none" fill-opacity="1" id="39"/>
      <rect width="4.53543" x="9.35433" y="0.566929" fill="black"  height="5.38583" stroke="none" fill-opacity="1" id="40"/>
     </g>
    </g>
   </g>
  </g>
 </g>
 <g partID="6784920">
  <g transform="translate(47.1679,100.634)">
   <g transform="matrix(0,-1,1,0,0,0)">
    <g  flipped="1" id="copper0" transform="matrix(1, 0, 0, -1, 0, 6.51969)">
     <g >
      <rect width="4.53543" x="0.566929" y="0.566929" fill="black"  height="5.38583" stroke="none" fill-opacity="1" id="41"/>
      <rect width="4.53543" x="9.35433" y="0.566929" fill="black"  height="5.38583" stroke="none" fill-opacity="1" id="42"/>
     </g>
    </g>
   </g>
  </g>
 </g>
 <g partID="6785020">
  <g transform="translate(67.0103,100.634)">
   <g transform="matrix(0,-1,1,0,0,0)">
    <g  flipped="1" id="copper0" transform="matrix(1, 0, 0, -1, 0, 6.51969)">
     <g >
      <rect width="4.53543" x="0.566929" y="0.566929" fill="black"  height="5.38583" stroke="none" fill-opacity="1" id="43"/>
      <rect width="4.53543" x="9.35433" y="0.566929" fill="black"  height="5.38583" stroke="none" fill-opacity="1" id="44"/>
     </g>
    </g>
   </g>
  </g>
 </g>
 <g partID="6999740">
  <g transform="translate(152.925,129.203)">
   <g transform="matrix(-1,0,0,-1,0,0)">
    <g  id="copper0">
     <g width="3.96" x="16.02" y="6.228" fill="none"  height="3.96" stroke="black" id="45" stroke-width="1.44"/>
     <g fill="none" cx="3.6"  cy="8.208" stroke="black" id="46" r="1.98" stroke-width="1.44"/>
     <g fill="none" cx="10.8"  cy="8.208" stroke="black" id="47" r="1.98" stroke-width="1.44"/>
     <g fill="none" cx="18"  cy="8.208" stroke="black" id="48" r="1.98" stroke-width="1.44"/>
    </g>
   </g>
  </g>
 </g>
 <g partID="7002930">
  <g transform="translate(93.4086,125.826)">
   <g transform="matrix(-1,0,0,-1,0,0)">
    <g  id="copper0">
     <g fill="none" cx="20.8462"  cy="15.6024" stroke="black" id="49" r="1.98" stroke-width="1.44"/>
     <g fill="none" cx="2.42064"  cy="15.6024" stroke="black" id="50" r="1.98" stroke-width="1.44"/>
     <g fill="none" cx="20.8462"  cy="2.84616" stroke="black" id="51" r="1.98" stroke-width="1.44"/>
     <g fill="none" cx="2.42064"  cy="2.84616" stroke="black" id="52" r="1.98" stroke-width="1.44"/>
    </g>
   </g>
  </g>
 </g>
 <g partID="7003300">
  <g transform="translate(127.425,125.826)">
   <g transform="matrix(-1,0,0,-1,0,0)">
    <g  id="copper0">
     <g fill="none" cx="20.8462"  cy="15.6024" stroke="black" id="53" r="1.98" stroke-width="1.44"/>
     <g fill="none" cx="2.42064"  cy="15.6024" stroke="black" id="54" r="1.98" stroke-width="1.44"/>
     <g fill="none" cx="20.8462"  cy="2.84616" stroke="black" id="55" r="1.98" stroke-width="1.44"/>
     <g fill="none" cx="2.42064"  cy="2.84616" stroke="black" id="56" r="1.98" stroke-width="1.44"/>
    </g>
   </g>
  </g>
 </g>
 <g partID="7148160">
  <g transform="translate(-0.0845683,40.4954)">
   <g transform="matrix(1,0,0,1,0,0)">
    <g  id="copper0">
     <g  id="copper1">
      <g fill="none" cx="13.029"  cy="32.333" stroke="black" id="57" r="2.16" stroke-width="0.999999"/>
      <g fill="none" cx="13.029"  cy="25.134" stroke="black" id="58" r="2.16" stroke-width="0.999999"/>
      <g fill="none" cx="13.029"  cy="17.934" stroke="black" id="59" r="2.16" stroke-width="0.999999"/>
      <g fill="none" cx="13.029"  cy="10.734" stroke="black" id="60" r="2.16" stroke-width="0.999999"/>
     </g>
    </g>
   </g>
  </g>
 </g>
 <g partID="7303290">
  <g transform="translate(146.315,73.7506)">
   <g transform="matrix(-1,0,0,-1,0,0)">
    <g id="copper0" transform="matrix(1, 0, 0, 1, 0, -809.49)">
     <g stroke-opacity="1" fill="none" stroke="black" style="display:inline" transform="matrix(1, 0, 0, 1, -3.6, 796.89)">
      <g transform="matrix(1, 0, 0, 1, -14.4, 0)">
       <g stroke-opacity="1" fill="none" stroke="black" style="stroke-linecap:round;stroke-linejoin:miter;stroke-miterlimit:4;stroke-dasharray:none;display:inline" id="61" stroke-width="1.44" d="m109.8,25.2a1.8,1.8,0,1,1,-3.6,0,1.8,1.8,0,1,1,3.6,0z"/>
      </g>
      <g transform="matrix(1, 0, 0, 1, -21.6, 0)">
       <g stroke-opacity="1" fill="none" stroke="black" style="stroke-linecap:round;stroke-linejoin:miter;stroke-miterlimit:4;stroke-dasharray:none;display:inline" id="62" stroke-width="1.44" d="m109.8,25.2a1.8,1.8,0,1,1,-3.6,0,1.8,1.8,0,1,1,3.6,0z"/>
      </g>
      <g transform="matrix(1, 0, 0, 1, -28.8, 0)">
       <g stroke-opacity="1" fill="none" stroke="black" style="stroke-linecap:round;stroke-linejoin:miter;stroke-miterlimit:4;stroke-dasharray:none;display:inline" id="63" stroke-width="1.44" d="m109.8,25.2a1.8,1.8,0,1,1,-3.6,0,1.8,1.8,0,1,1,3.6,0z"/>
      </g>
      <g transform="matrix(1, 0, 0, 1, -50.4, 0)">
       <g stroke-opacity="1" fill="none" stroke="black" style="stroke-linecap:round;stroke-linejoin:miter;stroke-miterlimit:4;stroke-dasharray:none;display:inline" id="64" stroke-width="1.44" d="m109.8,25.2a1.8,1.8,0,1,1,-3.6,0,1.8,1.8,0,1,1,3.6,0z"/>
      </g>
      <g transform="matrix(1, 0, 0, 1, -57.6, 0)">
       <g stroke-opacity="1" fill="none" stroke="black" style="stroke-linecap:round;stroke-linejoin:miter;stroke-miterlimit:4;stroke-dasharray:none;display:inline" id="65" stroke-width="1.44" d="m109.8,25.2a1.8,1.8,0,1,1,-3.6,0,1.8,1.8,0,1,1,3.6,0z"/>
      </g>
      <g transform="matrix(1, 0, 0, 1, -64.8, 0)">
       <g stroke-opacity="1" fill="none" stroke="black" style="stroke-linecap:round;stroke-linejoin:miter;stroke-miterlimit:4;stroke-dasharray:none;display:inline" id="66" stroke-width="1.44" d="m109.8,25.2a1.8,1.8,0,1,1,-3.6,0,1.8,1.8,0,1,1,3.6,0z"/>
      </g>
      <g transform="matrix(1, 0, 0, 1, -36, 0)">
       <g stroke-opacity="1" fill="none" stroke="black" style="stroke-linecap:round;stroke-linejoin:miter;stroke-miterlimit:4;stroke-dasharray:none;display:inline" id="67" stroke-width="1.44" d="m109.8,25.2a1.8,1.8,0,1,1,-3.6,0,1.8,1.8,0,1,1,3.6,0z"/>
      </g>
      <g transform="matrix(1, 0, 0, 1, -43.2, 0)">
       <g stroke-opacity="1" fill="none" stroke="black" style="stroke-linecap:round;stroke-linejoin:miter;stroke-miterlimit:4;stroke-dasharray:none;display:inline" id="68" stroke-width="1.44" d="m109.8,25.2a1.8,1.8,0,1,1,-3.6,0,1.8,1.8,0,1,1,3.6,0z"/>
      </g>
      <g transform="matrix(1, 0, 0, 1, -79.2, 0)">
       <g stroke-opacity="1" fill="none" stroke="black" style="stroke-linecap:round;stroke-linejoin:miter;stroke-miterlimit:4;stroke-dasharray:none;display:inline" id="69" stroke-width="1.44" d="m109.8,25.2a1.8,1.8,0,1,1,-3.6,0,1.8,1.8,0,1,1,3.6,0z"/>
      </g>
      <g transform="matrix(1, 0, 0, 1, -86.4, 0)">
       <g stroke-opacity="1" fill="none" stroke="black" style="stroke-linecap:round;stroke-linejoin:miter;stroke-miterlimit:4;stroke-dasharray:none;display:inline" id="70" stroke-width="1.44" d="m109.8,25.2a1.8,1.8,0,1,1,-3.6,0,1.8,1.8,0,1,1,3.6,0z"/>
      </g>
      <g transform="matrix(1, 0, 0, 1, -72, 0)">
       <g stroke-opacity="1" fill="none" stroke="black" style="stroke-linecap:round;stroke-linejoin:miter;stroke-miterlimit:4;stroke-dasharray:none;display:inline" id="71" stroke-width="1.44" d="m109.8,25.2a1.8,1.8,0,1,1,-3.6,0,1.8,1.8,0,1,1,3.6,0z"/>
      </g>
      <g transform="matrix(1, 0, 0, 1, -14.4, 7.2)">
       <g stroke-opacity="1" fill="none" stroke="black" style="stroke-linecap:round;stroke-linejoin:miter;stroke-miterlimit:4;stroke-dasharray:none;display:inline" id="72" stroke-width="1.44" d="m109.8,25.2a1.8,1.8,0,1,1,-3.6,0,1.8,1.8,0,1,1,3.6,0z"/>
      </g>
      <g transform="matrix(1, 0, 0, 1, -21.6, 7.2)">
       <g stroke-opacity="1" fill="none" stroke="black" style="stroke-linecap:round;stroke-linejoin:miter;stroke-miterlimit:4;stroke-dasharray:none;display:inline" id="73" stroke-width="1.44" d="m109.8,25.2a1.8,1.8,0,1,1,-3.6,0,1.8,1.8,0,1,1,3.6,0z"/>
      </g>
      <g transform="matrix(1, 0, 0, 1, -28.8, 7.2)">
       <g stroke-opacity="1" fill="none" stroke="black" style="stroke-linecap:round;stroke-linejoin:miter;stroke-miterlimit:4;stroke-dasharray:none;display:inline" id="74" stroke-width="1.44" d="m109.8,25.2a1.8,1.8,0,1,1,-3.6,0,1.8,1.8,0,1,1,3.6,0z"/>
      </g>
      <g transform="matrix(1, 0, 0, 1, -50.4, 7.2)">
       <g stroke-opacity="1" fill="none" stroke="black" style="stroke-linecap:round;stroke-linejoin:miter;stroke-miterlimit:4;stroke-dasharray:none;display:inline" id="75" stroke-width="1.44" d="m109.8,25.2a1.8,1.8,0,1,1,-3.6,0,1.8,1.8,0,1,1,3.6,0z"/>
      </g>
      <g transform="matrix(1, 0, 0, 1, -57.6, 7.2)">
       <g stroke-opacity="1" fill="none" stroke="black" style="stroke-linecap:round;stroke-linejoin:miter;stroke-miterlimit:4;stroke-dasharray:none;display:inline" id="76" stroke-width="1.44" d="m109.8,25.2a1.8,1.8,0,1,1,-3.6,0,1.8,1.8,0,1,1,3.6,0z"/>
      </g>
      <g transform="matrix(1, 0, 0, 1, -64.8, 7.2)">
       <g stroke-opacity="1" fill="none" stroke="black" style="stroke-linecap:round;stroke-linejoin:miter;stroke-miterlimit:4;stroke-dasharray:none;display:inline" id="77" stroke-width="1.44" d="m109.8,25.2a1.8,1.8,0,1,1,-3.6,0,1.8,1.8,0,1,1,3.6,0z"/>
      </g>
      <g transform="matrix(1, 0, 0, 1, -36, 7.2)">
       <g stroke-opacity="1" fill="none" stroke="black" style="stroke-linecap:round;stroke-linejoin:miter;stroke-miterlimit:4;stroke-dasharray:none;display:inline" id="78" stroke-width="1.44" d="m109.8,25.2a1.8,1.8,0,1,1,-3.6,0,1.8,1.8,0,1,1,3.6,0z"/>
      </g>
      <g transform="matrix(1, 0, 0, 1, -43.2, 7.2)">
       <g stroke-opacity="1" fill="none" stroke="black" style="stroke-linecap:round;stroke-linejoin:miter;stroke-miterlimit:4;stroke-dasharray:none;display:inline" id="79" stroke-width="1.44" d="m109.8,25.2a1.8,1.8,0,1,1,-3.6,0,1.8,1.8,0,1,1,3.6,0z"/>
      </g>
      <g transform="matrix(1, 0, 0, 1, -79.2, 7.2)">
       <g stroke-opacity="1" fill="none" stroke="black" style="stroke-linecap:round;stroke-linejoin:miter;stroke-miterlimit:4;stroke-dasharray:none;display:inline" id="80" stroke-width="1.44" d="m109.8,25.2a1.8,1.8,0,1,1,-3.6,0,1.8,1.8,0,1,1,3.6,0z"/>
      </g>
      <g transform="matrix(1, 0, 0, 1, -86.4, 7.2)">
       <g stroke-opacity="1" fill="none" stroke="black" style="stroke-linecap:round;stroke-linejoin:miter;stroke-miterlimit:4;stroke-dasharray:none;display:inline" id="81" stroke-width="1.44" d="m109.8,25.2a1.8,1.8,0,1,1,-3.6,0,1.8,1.8,0,1,1,3.6,0z"/>
      </g>
      <g transform="matrix(1, 0, 0, 1, -72, 7.2)">
       <g stroke-opacity="1" fill="none" stroke="black" style="stroke-linecap:round;stroke-linejoin:miter;stroke-miterlimit:4;stroke-dasharray:none;display:inline" id="82" stroke-width="1.44" d="m109.8,25.2a1.8,1.8,0,1,1,-3.6,0,1.8,1.8,0,1,1,3.6,0z"/>
      </g>
      <g transform="matrix(1, 0, 0, 1, 0, 7.2)">
       <g stroke-opacity="1" fill="none" stroke="black" style="stroke-linecap:round;stroke-linejoin:miter;stroke-miterlimit:4;stroke-dasharray:none;display:inline" id="83" stroke-width="1.44" d="m109.8,25.2a1.8,1.8,0,1,1,-3.6,0,1.8,1.8,0,1,1,3.6,0z"/>
      </g>
      <g transform="matrix(1, 0, 0, 1, -7.2, 7.2)">
       <g stroke-opacity="1" fill="none" stroke="black" style="stroke-linecap:round;stroke-linejoin:miter;stroke-miterlimit:4;stroke-dasharray:none;display:inline" id="84" stroke-width="1.44" d="m109.8,25.2a1.8,1.8,0,1,1,-3.6,0,1.8,1.8,0,1,1,3.6,0z"/>
      </g>
      <g width="3.6" x="106.2" y="23.4" stroke-opacity="1" fill="none" height="3.6" stroke="black" style="stroke-linecap:round;stroke-linejoin:miter;stroke-miterlimit:4;stroke-dasharray:none;display:inline" id="85" stroke-width="1.44"/>
      <g stroke-opacity="1" fill="none" stroke="black" style="stroke-linecap:round;stroke-linejoin:miter;stroke-miterlimit:4;stroke-dasharray:none" id="86" stroke-width="1.44" d="m109.8,25.2a1.8,1.8,0,1,1,-3.6,0,1.8,1.8,0,1,1,3.6,0z"/>
      <g transform="matrix(1, 0, 0, 1, -7.2, 0)">
       <g stroke-opacity="1" fill="none" stroke="black" style="stroke-linecap:round;stroke-linejoin:miter;stroke-miterlimit:4;stroke-dasharray:none" id="87" stroke-width="1.44" d="m109.8,25.2a1.8,1.8,0,1,1,-3.6,0,1.8,1.8,0,1,1,3.6,0z"/>
      </g>
     </g>
    </g>
   </g>
  </g>
 </g>
 <g partID="7407980">
  <g transform="translate(14.5533,86.2295)">
   <g  id="copper0">
    <g fill="none" cx="3.01733"  cy="3.01733" stroke="black" r="0.992124" id="88" stroke-width="0.850392"/>
   </g>
  </g>
 </g>
 <g partID="7409470">
  <g transform="translate(38.6478,86.2295)">
   <g  id="copper0">
    <g fill="none" cx="3.01733"  cy="3.01733" stroke="black" r="0.992124" id="89" stroke-width="0.850392"/>
   </g>
  </g>
 </g>
 <g partID="7473910">
  <g transform="translate(128.79,70.3555)">
   <g  id="copper0">
    <g fill="none" cx="3.01732"  cy="3.01732" stroke="black" r="0.992124" id="90" stroke-width="0.850392"/>
   </g>
  </g>
 </g>
 <g partID="7474370">
  <g transform="translate(35.2462,38.8909)">
   <g  id="copper0">
    <g fill="none" cx="3.01732"  cy="3.01732" stroke="black" r="0.992124" id="91" stroke-width="0.850392"/>
   </g>
  </g>
 </g>
 <g partID="7475910">
  <g transform="translate(89.388,43.1429)">
   <g  id="copper0">
    <g fill="none" cx="3.01732"  cy="3.01732" stroke="black" r="0.992124" id="92" stroke-width="0.850392"/>
   </g>
  </g>
 </g>
 <g partID="7497520">
  <g transform="translate(96.1911,42.8594)">
   <g  id="copper0">
    <g fill="none" cx="3.01733"  cy="3.01733" stroke="black" r="0.992124" id="93" stroke-width="0.850392"/>
   </g>
  </g>
 </g>
 <g partID="7498410">
  <g transform="translate(136.16,18.4815)">
   <g  id="copper0">
    <g fill="none" cx="3.01733"  cy="3.01733" stroke="black" r="0.992124" id="94" stroke-width="0.850392"/>
   </g>
  </g>
 </g>
 <g partID="7499290">
  <g transform="translate(72.159,33.3266)">
   <g  id="copper0">
    <g fill="none" cx="3.01733"  cy="3.01733" stroke="black" r="0.992124" id="95" stroke-width="0.850392"/>
   </g>
  </g>
 </g>
 <g partID="7503030">
  <g transform="translate(16.9433,44.6208)">
   <g  id="copper0">
    <g fill="none" cx="3.01733"  cy="3.01733" stroke="black" r="0.992124" id="96" stroke-width="0.850392"/>
   </g>
  </g>
 </g>
</svg>
