G04 MADE WITH FRITZING*
G04 WWW.FRITZING.ORG*
G04 DOUBLE SIDED*
G04 HOLES PLATED*
G04 CONTOUR ON CENTER OF CONTOUR VECTOR*
%ASAXBY*%
%FSLAX23Y23*%
%MOIN*%
%OFA0B0*%
%SFA1.0B1.0*%
%ADD10C,0.085000*%
%ADD11C,0.109000*%
%ADD12C,0.083889*%
%ADD13C,0.049370*%
%ADD14R,0.085000X0.085000*%
%ADD15R,0.109000X0.109000*%
%ADD16R,0.084803X0.072992*%
%ADD17R,0.080000X0.080000*%
%ADD18R,0.001000X0.001000*%
%LNMASK0*%
G90*
G70*
G54D10*
X54Y1650D03*
X154Y1650D03*
X254Y1650D03*
X354Y1650D03*
X454Y1650D03*
X554Y1650D03*
X654Y1650D03*
X754Y1650D03*
X854Y1650D03*
X954Y1650D03*
X1054Y1650D03*
X1154Y1650D03*
X1254Y1650D03*
X1354Y1650D03*
X1454Y1650D03*
X1554Y1650D03*
G54D11*
X194Y1429D03*
X394Y1429D03*
X294Y1229D03*
G54D10*
X63Y241D03*
X319Y241D03*
X63Y64D03*
X319Y64D03*
X535Y241D03*
X791Y241D03*
X535Y64D03*
X791Y64D03*
X2074Y91D03*
X1974Y91D03*
X1874Y91D03*
X1008Y241D03*
X1264Y241D03*
X1008Y64D03*
X1264Y64D03*
X1480Y241D03*
X1736Y241D03*
X1480Y64D03*
X1736Y64D03*
G54D12*
X180Y760D03*
X180Y860D03*
X180Y960D03*
X180Y1060D03*
G54D13*
X244Y532D03*
X579Y532D03*
X1831Y753D03*
X531Y1190D03*
X1283Y1131D03*
X1378Y1135D03*
X1933Y1473D03*
X1044Y1267D03*
X277Y1110D03*
G54D14*
X54Y1651D03*
G54D15*
X394Y1429D03*
G54D16*
X425Y413D03*
X425Y535D03*
X1527Y409D03*
X1527Y531D03*
X1992Y410D03*
X1992Y532D03*
X1252Y531D03*
X1252Y409D03*
X149Y531D03*
X149Y409D03*
X1803Y531D03*
X1803Y409D03*
X700Y413D03*
X700Y535D03*
X976Y413D03*
X976Y535D03*
G54D14*
X1874Y91D03*
G54D17*
X582Y922D03*
G54D18*
X577Y1063D02*
X586Y1063D01*
X676Y1063D02*
X686Y1063D01*
X776Y1063D02*
X786Y1063D01*
X876Y1063D02*
X886Y1063D01*
X976Y1063D02*
X986Y1063D01*
X1076Y1063D02*
X1086Y1063D01*
X1176Y1063D02*
X1186Y1063D01*
X1276Y1063D02*
X1286Y1063D01*
X1376Y1063D02*
X1386Y1063D01*
X1476Y1063D02*
X1486Y1063D01*
X1576Y1063D02*
X1586Y1063D01*
X1676Y1063D02*
X1686Y1063D01*
X1776Y1063D02*
X1786Y1063D01*
X572Y1062D02*
X591Y1062D01*
X672Y1062D02*
X690Y1062D01*
X772Y1062D02*
X790Y1062D01*
X872Y1062D02*
X890Y1062D01*
X972Y1062D02*
X990Y1062D01*
X1072Y1062D02*
X1090Y1062D01*
X1172Y1062D02*
X1190Y1062D01*
X1272Y1062D02*
X1290Y1062D01*
X1372Y1062D02*
X1390Y1062D01*
X1472Y1062D02*
X1490Y1062D01*
X1572Y1062D02*
X1590Y1062D01*
X1672Y1062D02*
X1690Y1062D01*
X1772Y1062D02*
X1790Y1062D01*
X569Y1061D02*
X593Y1061D01*
X669Y1061D02*
X693Y1061D01*
X769Y1061D02*
X793Y1061D01*
X869Y1061D02*
X893Y1061D01*
X969Y1061D02*
X993Y1061D01*
X1069Y1061D02*
X1093Y1061D01*
X1169Y1061D02*
X1193Y1061D01*
X1269Y1061D02*
X1293Y1061D01*
X1369Y1061D02*
X1393Y1061D01*
X1469Y1061D02*
X1493Y1061D01*
X1569Y1061D02*
X1593Y1061D01*
X1669Y1061D02*
X1693Y1061D01*
X1769Y1061D02*
X1793Y1061D01*
X567Y1060D02*
X596Y1060D01*
X667Y1060D02*
X696Y1060D01*
X767Y1060D02*
X796Y1060D01*
X867Y1060D02*
X896Y1060D01*
X967Y1060D02*
X996Y1060D01*
X1067Y1060D02*
X1096Y1060D01*
X1167Y1060D02*
X1195Y1060D01*
X1267Y1060D02*
X1295Y1060D01*
X1367Y1060D02*
X1395Y1060D01*
X1467Y1060D02*
X1495Y1060D01*
X1567Y1060D02*
X1595Y1060D01*
X1667Y1060D02*
X1695Y1060D01*
X1767Y1060D02*
X1795Y1060D01*
X565Y1059D02*
X598Y1059D01*
X665Y1059D02*
X698Y1059D01*
X765Y1059D02*
X798Y1059D01*
X865Y1059D02*
X898Y1059D01*
X965Y1059D02*
X998Y1059D01*
X1065Y1059D02*
X1098Y1059D01*
X1165Y1059D02*
X1197Y1059D01*
X1265Y1059D02*
X1297Y1059D01*
X1365Y1059D02*
X1397Y1059D01*
X1465Y1059D02*
X1497Y1059D01*
X1565Y1059D02*
X1597Y1059D01*
X1665Y1059D02*
X1697Y1059D01*
X1765Y1059D02*
X1797Y1059D01*
X563Y1058D02*
X599Y1058D01*
X663Y1058D02*
X699Y1058D01*
X763Y1058D02*
X799Y1058D01*
X863Y1058D02*
X899Y1058D01*
X963Y1058D02*
X999Y1058D01*
X1063Y1058D02*
X1099Y1058D01*
X1163Y1058D02*
X1199Y1058D01*
X1263Y1058D02*
X1299Y1058D01*
X1363Y1058D02*
X1399Y1058D01*
X1463Y1058D02*
X1499Y1058D01*
X1563Y1058D02*
X1599Y1058D01*
X1663Y1058D02*
X1699Y1058D01*
X1763Y1058D02*
X1799Y1058D01*
X562Y1057D02*
X601Y1057D01*
X662Y1057D02*
X701Y1057D01*
X762Y1057D02*
X801Y1057D01*
X862Y1057D02*
X901Y1057D01*
X962Y1057D02*
X1001Y1057D01*
X1062Y1057D02*
X1101Y1057D01*
X1162Y1057D02*
X1201Y1057D01*
X1262Y1057D02*
X1301Y1057D01*
X1361Y1057D02*
X1401Y1057D01*
X1461Y1057D02*
X1501Y1057D01*
X1561Y1057D02*
X1601Y1057D01*
X1661Y1057D02*
X1701Y1057D01*
X1761Y1057D02*
X1801Y1057D01*
X560Y1056D02*
X602Y1056D01*
X660Y1056D02*
X702Y1056D01*
X760Y1056D02*
X802Y1056D01*
X860Y1056D02*
X902Y1056D01*
X960Y1056D02*
X1002Y1056D01*
X1060Y1056D02*
X1102Y1056D01*
X1160Y1056D02*
X1202Y1056D01*
X1260Y1056D02*
X1302Y1056D01*
X1360Y1056D02*
X1402Y1056D01*
X1460Y1056D02*
X1502Y1056D01*
X1560Y1056D02*
X1602Y1056D01*
X1660Y1056D02*
X1702Y1056D01*
X1760Y1056D02*
X1802Y1056D01*
X559Y1055D02*
X604Y1055D01*
X659Y1055D02*
X704Y1055D01*
X759Y1055D02*
X804Y1055D01*
X859Y1055D02*
X904Y1055D01*
X959Y1055D02*
X1004Y1055D01*
X1059Y1055D02*
X1104Y1055D01*
X1159Y1055D02*
X1204Y1055D01*
X1259Y1055D02*
X1304Y1055D01*
X1359Y1055D02*
X1404Y1055D01*
X1459Y1055D02*
X1504Y1055D01*
X1559Y1055D02*
X1603Y1055D01*
X1659Y1055D02*
X1703Y1055D01*
X1759Y1055D02*
X1803Y1055D01*
X558Y1054D02*
X605Y1054D01*
X658Y1054D02*
X705Y1054D01*
X758Y1054D02*
X805Y1054D01*
X858Y1054D02*
X905Y1054D01*
X958Y1054D02*
X1005Y1054D01*
X1058Y1054D02*
X1105Y1054D01*
X1158Y1054D02*
X1205Y1054D01*
X1257Y1054D02*
X1305Y1054D01*
X1357Y1054D02*
X1405Y1054D01*
X1457Y1054D02*
X1505Y1054D01*
X1557Y1054D02*
X1605Y1054D01*
X1657Y1054D02*
X1705Y1054D01*
X1757Y1054D02*
X1805Y1054D01*
X557Y1053D02*
X606Y1053D01*
X657Y1053D02*
X706Y1053D01*
X756Y1053D02*
X806Y1053D01*
X856Y1053D02*
X906Y1053D01*
X956Y1053D02*
X1006Y1053D01*
X1056Y1053D02*
X1106Y1053D01*
X1156Y1053D02*
X1206Y1053D01*
X1256Y1053D02*
X1306Y1053D01*
X1356Y1053D02*
X1406Y1053D01*
X1456Y1053D02*
X1506Y1053D01*
X1556Y1053D02*
X1606Y1053D01*
X1656Y1053D02*
X1706Y1053D01*
X1756Y1053D02*
X1806Y1053D01*
X555Y1052D02*
X607Y1052D01*
X655Y1052D02*
X707Y1052D01*
X755Y1052D02*
X807Y1052D01*
X855Y1052D02*
X907Y1052D01*
X955Y1052D02*
X1007Y1052D01*
X1055Y1052D02*
X1107Y1052D01*
X1155Y1052D02*
X1207Y1052D01*
X1255Y1052D02*
X1307Y1052D01*
X1355Y1052D02*
X1407Y1052D01*
X1455Y1052D02*
X1507Y1052D01*
X1555Y1052D02*
X1607Y1052D01*
X1655Y1052D02*
X1707Y1052D01*
X1755Y1052D02*
X1807Y1052D01*
X554Y1051D02*
X608Y1051D01*
X654Y1051D02*
X708Y1051D01*
X754Y1051D02*
X808Y1051D01*
X854Y1051D02*
X908Y1051D01*
X954Y1051D02*
X1008Y1051D01*
X1054Y1051D02*
X1108Y1051D01*
X1154Y1051D02*
X1208Y1051D01*
X1254Y1051D02*
X1308Y1051D01*
X1354Y1051D02*
X1408Y1051D01*
X1454Y1051D02*
X1508Y1051D01*
X1554Y1051D02*
X1608Y1051D01*
X1654Y1051D02*
X1708Y1051D01*
X1754Y1051D02*
X1808Y1051D01*
X553Y1050D02*
X609Y1050D01*
X653Y1050D02*
X709Y1050D01*
X753Y1050D02*
X809Y1050D01*
X853Y1050D02*
X909Y1050D01*
X953Y1050D02*
X1009Y1050D01*
X1053Y1050D02*
X1109Y1050D01*
X1153Y1050D02*
X1209Y1050D01*
X1253Y1050D02*
X1309Y1050D01*
X1353Y1050D02*
X1409Y1050D01*
X1453Y1050D02*
X1509Y1050D01*
X1553Y1050D02*
X1609Y1050D01*
X1653Y1050D02*
X1709Y1050D01*
X1753Y1050D02*
X1809Y1050D01*
X553Y1049D02*
X610Y1049D01*
X653Y1049D02*
X710Y1049D01*
X752Y1049D02*
X810Y1049D01*
X852Y1049D02*
X910Y1049D01*
X952Y1049D02*
X1010Y1049D01*
X1052Y1049D02*
X1110Y1049D01*
X1152Y1049D02*
X1210Y1049D01*
X1252Y1049D02*
X1310Y1049D01*
X1352Y1049D02*
X1410Y1049D01*
X1452Y1049D02*
X1510Y1049D01*
X1552Y1049D02*
X1610Y1049D01*
X1652Y1049D02*
X1710Y1049D01*
X1752Y1049D02*
X1810Y1049D01*
X552Y1048D02*
X611Y1048D01*
X652Y1048D02*
X711Y1048D01*
X752Y1048D02*
X811Y1048D01*
X852Y1048D02*
X911Y1048D01*
X952Y1048D02*
X1011Y1048D01*
X1051Y1048D02*
X1111Y1048D01*
X1151Y1048D02*
X1211Y1048D01*
X1251Y1048D02*
X1311Y1048D01*
X1351Y1048D02*
X1411Y1048D01*
X1451Y1048D02*
X1511Y1048D01*
X1551Y1048D02*
X1611Y1048D01*
X1651Y1048D02*
X1711Y1048D01*
X1751Y1048D02*
X1811Y1048D01*
X551Y1047D02*
X612Y1047D01*
X651Y1047D02*
X712Y1047D01*
X751Y1047D02*
X812Y1047D01*
X851Y1047D02*
X912Y1047D01*
X951Y1047D02*
X1012Y1047D01*
X1051Y1047D02*
X1112Y1047D01*
X1151Y1047D02*
X1212Y1047D01*
X1251Y1047D02*
X1312Y1047D01*
X1351Y1047D02*
X1412Y1047D01*
X1451Y1047D02*
X1512Y1047D01*
X1550Y1047D02*
X1612Y1047D01*
X1650Y1047D02*
X1712Y1047D01*
X1750Y1047D02*
X1812Y1047D01*
X550Y1046D02*
X613Y1046D01*
X650Y1046D02*
X713Y1046D01*
X750Y1046D02*
X813Y1046D01*
X850Y1046D02*
X913Y1046D01*
X950Y1046D02*
X1013Y1046D01*
X1050Y1046D02*
X1113Y1046D01*
X1150Y1046D02*
X1213Y1046D01*
X1250Y1046D02*
X1312Y1046D01*
X1350Y1046D02*
X1412Y1046D01*
X1450Y1046D02*
X1512Y1046D01*
X1550Y1046D02*
X1612Y1046D01*
X1650Y1046D02*
X1712Y1046D01*
X1750Y1046D02*
X1812Y1046D01*
X549Y1045D02*
X613Y1045D01*
X649Y1045D02*
X713Y1045D01*
X749Y1045D02*
X813Y1045D01*
X849Y1045D02*
X913Y1045D01*
X949Y1045D02*
X1013Y1045D01*
X1049Y1045D02*
X1113Y1045D01*
X1149Y1045D02*
X1213Y1045D01*
X1249Y1045D02*
X1313Y1045D01*
X1349Y1045D02*
X1413Y1045D01*
X1449Y1045D02*
X1513Y1045D01*
X1549Y1045D02*
X1613Y1045D01*
X1649Y1045D02*
X1713Y1045D01*
X1749Y1045D02*
X1813Y1045D01*
X549Y1044D02*
X614Y1044D01*
X649Y1044D02*
X714Y1044D01*
X749Y1044D02*
X814Y1044D01*
X849Y1044D02*
X914Y1044D01*
X949Y1044D02*
X1014Y1044D01*
X1048Y1044D02*
X1114Y1044D01*
X1148Y1044D02*
X1214Y1044D01*
X1248Y1044D02*
X1314Y1044D01*
X1348Y1044D02*
X1414Y1044D01*
X1448Y1044D02*
X1514Y1044D01*
X1548Y1044D02*
X1614Y1044D01*
X1648Y1044D02*
X1714Y1044D01*
X1748Y1044D02*
X1814Y1044D01*
X548Y1043D02*
X615Y1043D01*
X648Y1043D02*
X715Y1043D01*
X748Y1043D02*
X815Y1043D01*
X848Y1043D02*
X915Y1043D01*
X948Y1043D02*
X1015Y1043D01*
X1048Y1043D02*
X1115Y1043D01*
X1148Y1043D02*
X1215Y1043D01*
X1248Y1043D02*
X1315Y1043D01*
X1348Y1043D02*
X1415Y1043D01*
X1448Y1043D02*
X1514Y1043D01*
X1548Y1043D02*
X1614Y1043D01*
X1648Y1043D02*
X1714Y1043D01*
X1748Y1043D02*
X1814Y1043D01*
X547Y1042D02*
X615Y1042D01*
X647Y1042D02*
X715Y1042D01*
X747Y1042D02*
X815Y1042D01*
X847Y1042D02*
X915Y1042D01*
X947Y1042D02*
X1015Y1042D01*
X1047Y1042D02*
X1115Y1042D01*
X1147Y1042D02*
X1215Y1042D01*
X1247Y1042D02*
X1315Y1042D01*
X1347Y1042D02*
X1415Y1042D01*
X1447Y1042D02*
X1515Y1042D01*
X1547Y1042D02*
X1615Y1042D01*
X1647Y1042D02*
X1715Y1042D01*
X1747Y1042D02*
X1815Y1042D01*
X547Y1041D02*
X616Y1041D01*
X647Y1041D02*
X716Y1041D01*
X747Y1041D02*
X816Y1041D01*
X847Y1041D02*
X916Y1041D01*
X947Y1041D02*
X1016Y1041D01*
X1047Y1041D02*
X1116Y1041D01*
X1147Y1041D02*
X1216Y1041D01*
X1247Y1041D02*
X1316Y1041D01*
X1347Y1041D02*
X1416Y1041D01*
X1446Y1041D02*
X1516Y1041D01*
X1546Y1041D02*
X1616Y1041D01*
X1646Y1041D02*
X1716Y1041D01*
X1746Y1041D02*
X1816Y1041D01*
X546Y1040D02*
X617Y1040D01*
X646Y1040D02*
X717Y1040D01*
X746Y1040D02*
X816Y1040D01*
X846Y1040D02*
X916Y1040D01*
X946Y1040D02*
X1016Y1040D01*
X1046Y1040D02*
X1116Y1040D01*
X1146Y1040D02*
X1216Y1040D01*
X1246Y1040D02*
X1316Y1040D01*
X1346Y1040D02*
X1416Y1040D01*
X1446Y1040D02*
X1516Y1040D01*
X1546Y1040D02*
X1616Y1040D01*
X1646Y1040D02*
X1716Y1040D01*
X1746Y1040D02*
X1816Y1040D01*
X546Y1039D02*
X617Y1039D01*
X646Y1039D02*
X717Y1039D01*
X746Y1039D02*
X817Y1039D01*
X846Y1039D02*
X917Y1039D01*
X946Y1039D02*
X1017Y1039D01*
X1046Y1039D02*
X1117Y1039D01*
X1146Y1039D02*
X1217Y1039D01*
X1246Y1039D02*
X1317Y1039D01*
X1345Y1039D02*
X1417Y1039D01*
X1445Y1039D02*
X1517Y1039D01*
X1545Y1039D02*
X1617Y1039D01*
X1645Y1039D02*
X1717Y1039D01*
X1745Y1039D02*
X1817Y1039D01*
X545Y1038D02*
X618Y1038D01*
X645Y1038D02*
X718Y1038D01*
X745Y1038D02*
X817Y1038D01*
X845Y1038D02*
X917Y1038D01*
X945Y1038D02*
X1017Y1038D01*
X1045Y1038D02*
X1117Y1038D01*
X1145Y1038D02*
X1217Y1038D01*
X1245Y1038D02*
X1317Y1038D01*
X1345Y1038D02*
X1417Y1038D01*
X1445Y1038D02*
X1517Y1038D01*
X1545Y1038D02*
X1617Y1038D01*
X1645Y1038D02*
X1717Y1038D01*
X1745Y1038D02*
X1817Y1038D01*
X545Y1037D02*
X618Y1037D01*
X645Y1037D02*
X718Y1037D01*
X745Y1037D02*
X818Y1037D01*
X845Y1037D02*
X918Y1037D01*
X945Y1037D02*
X1018Y1037D01*
X1045Y1037D02*
X1118Y1037D01*
X1145Y1037D02*
X1218Y1037D01*
X1245Y1037D02*
X1318Y1037D01*
X1345Y1037D02*
X1418Y1037D01*
X1445Y1037D02*
X1518Y1037D01*
X1544Y1037D02*
X1618Y1037D01*
X1644Y1037D02*
X1718Y1037D01*
X1744Y1037D02*
X1818Y1037D01*
X544Y1036D02*
X618Y1036D01*
X644Y1036D02*
X718Y1036D01*
X744Y1036D02*
X818Y1036D01*
X844Y1036D02*
X918Y1036D01*
X944Y1036D02*
X1018Y1036D01*
X1044Y1036D02*
X1118Y1036D01*
X1144Y1036D02*
X1218Y1036D01*
X1244Y1036D02*
X1318Y1036D01*
X1344Y1036D02*
X1418Y1036D01*
X1444Y1036D02*
X1518Y1036D01*
X1544Y1036D02*
X1618Y1036D01*
X1644Y1036D02*
X1718Y1036D01*
X1744Y1036D02*
X1818Y1036D01*
X544Y1035D02*
X619Y1035D01*
X644Y1035D02*
X719Y1035D01*
X744Y1035D02*
X819Y1035D01*
X844Y1035D02*
X919Y1035D01*
X944Y1035D02*
X1019Y1035D01*
X1044Y1035D02*
X1119Y1035D01*
X1144Y1035D02*
X1219Y1035D01*
X1244Y1035D02*
X1319Y1035D01*
X1344Y1035D02*
X1418Y1035D01*
X1444Y1035D02*
X1518Y1035D01*
X1544Y1035D02*
X1618Y1035D01*
X1644Y1035D02*
X1718Y1035D01*
X1744Y1035D02*
X1818Y1035D01*
X544Y1034D02*
X619Y1034D01*
X644Y1034D02*
X719Y1034D01*
X744Y1034D02*
X819Y1034D01*
X844Y1034D02*
X919Y1034D01*
X944Y1034D02*
X1019Y1034D01*
X1044Y1034D02*
X1119Y1034D01*
X1143Y1034D02*
X1219Y1034D01*
X1243Y1034D02*
X1319Y1034D01*
X1343Y1034D02*
X1419Y1034D01*
X1443Y1034D02*
X1519Y1034D01*
X1543Y1034D02*
X1619Y1034D01*
X1643Y1034D02*
X1719Y1034D01*
X1743Y1034D02*
X1819Y1034D01*
X543Y1033D02*
X619Y1033D01*
X643Y1033D02*
X719Y1033D01*
X743Y1033D02*
X819Y1033D01*
X843Y1033D02*
X919Y1033D01*
X943Y1033D02*
X1019Y1033D01*
X1043Y1033D02*
X1119Y1033D01*
X1143Y1033D02*
X1219Y1033D01*
X1243Y1033D02*
X1319Y1033D01*
X1343Y1033D02*
X1419Y1033D01*
X1443Y1033D02*
X1519Y1033D01*
X1543Y1033D02*
X1619Y1033D01*
X1643Y1033D02*
X1719Y1033D01*
X1743Y1033D02*
X1819Y1033D01*
X543Y1032D02*
X620Y1032D01*
X643Y1032D02*
X720Y1032D01*
X743Y1032D02*
X820Y1032D01*
X843Y1032D02*
X920Y1032D01*
X943Y1032D02*
X1020Y1032D01*
X1043Y1032D02*
X1120Y1032D01*
X1143Y1032D02*
X1220Y1032D01*
X1243Y1032D02*
X1319Y1032D01*
X1343Y1032D02*
X1419Y1032D01*
X1443Y1032D02*
X1519Y1032D01*
X1543Y1032D02*
X1619Y1032D01*
X1643Y1032D02*
X1719Y1032D01*
X1743Y1032D02*
X1819Y1032D01*
X543Y1031D02*
X620Y1031D01*
X643Y1031D02*
X720Y1031D01*
X743Y1031D02*
X820Y1031D01*
X843Y1031D02*
X920Y1031D01*
X943Y1031D02*
X1020Y1031D01*
X1043Y1031D02*
X1120Y1031D01*
X1143Y1031D02*
X1220Y1031D01*
X1243Y1031D02*
X1320Y1031D01*
X1343Y1031D02*
X1420Y1031D01*
X1443Y1031D02*
X1520Y1031D01*
X1542Y1031D02*
X1620Y1031D01*
X1642Y1031D02*
X1720Y1031D01*
X1742Y1031D02*
X1820Y1031D01*
X543Y1030D02*
X620Y1030D01*
X643Y1030D02*
X720Y1030D01*
X743Y1030D02*
X820Y1030D01*
X843Y1030D02*
X920Y1030D01*
X942Y1030D02*
X1020Y1030D01*
X1042Y1030D02*
X1120Y1030D01*
X1142Y1030D02*
X1220Y1030D01*
X1242Y1030D02*
X1320Y1030D01*
X1342Y1030D02*
X1420Y1030D01*
X1442Y1030D02*
X1520Y1030D01*
X1542Y1030D02*
X1620Y1030D01*
X1642Y1030D02*
X1720Y1030D01*
X1742Y1030D02*
X1820Y1030D01*
X542Y1029D02*
X620Y1029D01*
X642Y1029D02*
X720Y1029D01*
X742Y1029D02*
X820Y1029D01*
X842Y1029D02*
X920Y1029D01*
X942Y1029D02*
X1020Y1029D01*
X1042Y1029D02*
X1120Y1029D01*
X1142Y1029D02*
X1220Y1029D01*
X1242Y1029D02*
X1320Y1029D01*
X1342Y1029D02*
X1420Y1029D01*
X1442Y1029D02*
X1520Y1029D01*
X1542Y1029D02*
X1620Y1029D01*
X1642Y1029D02*
X1720Y1029D01*
X1742Y1029D02*
X1820Y1029D01*
X542Y1028D02*
X621Y1028D01*
X642Y1028D02*
X721Y1028D01*
X742Y1028D02*
X820Y1028D01*
X842Y1028D02*
X920Y1028D01*
X942Y1028D02*
X1020Y1028D01*
X1042Y1028D02*
X1120Y1028D01*
X1142Y1028D02*
X1220Y1028D01*
X1242Y1028D02*
X1320Y1028D01*
X1342Y1028D02*
X1420Y1028D01*
X1442Y1028D02*
X1520Y1028D01*
X1542Y1028D02*
X1620Y1028D01*
X1642Y1028D02*
X1720Y1028D01*
X1742Y1028D02*
X1820Y1028D01*
X542Y1027D02*
X621Y1027D01*
X642Y1027D02*
X721Y1027D01*
X742Y1027D02*
X821Y1027D01*
X842Y1027D02*
X921Y1027D01*
X942Y1027D02*
X1021Y1027D01*
X1042Y1027D02*
X1121Y1027D01*
X1142Y1027D02*
X1220Y1027D01*
X1242Y1027D02*
X1320Y1027D01*
X1342Y1027D02*
X1420Y1027D01*
X1442Y1027D02*
X1520Y1027D01*
X1542Y1027D02*
X1620Y1027D01*
X1642Y1027D02*
X1720Y1027D01*
X1742Y1027D02*
X1820Y1027D01*
X542Y1026D02*
X621Y1026D01*
X642Y1026D02*
X721Y1026D01*
X742Y1026D02*
X821Y1026D01*
X842Y1026D02*
X921Y1026D01*
X942Y1026D02*
X1021Y1026D01*
X1042Y1026D02*
X1121Y1026D01*
X1142Y1026D02*
X1221Y1026D01*
X1242Y1026D02*
X1321Y1026D01*
X1342Y1026D02*
X1421Y1026D01*
X1442Y1026D02*
X1520Y1026D01*
X1542Y1026D02*
X1620Y1026D01*
X1642Y1026D02*
X1720Y1026D01*
X1742Y1026D02*
X1820Y1026D01*
X542Y1025D02*
X621Y1025D01*
X642Y1025D02*
X721Y1025D01*
X742Y1025D02*
X821Y1025D01*
X842Y1025D02*
X921Y1025D01*
X942Y1025D02*
X1021Y1025D01*
X1042Y1025D02*
X1121Y1025D01*
X1142Y1025D02*
X1221Y1025D01*
X1242Y1025D02*
X1321Y1025D01*
X1342Y1025D02*
X1421Y1025D01*
X1442Y1025D02*
X1521Y1025D01*
X1542Y1025D02*
X1621Y1025D01*
X1642Y1025D02*
X1720Y1025D01*
X1742Y1025D02*
X1820Y1025D01*
X542Y1024D02*
X621Y1024D01*
X642Y1024D02*
X721Y1024D01*
X742Y1024D02*
X821Y1024D01*
X842Y1024D02*
X921Y1024D01*
X942Y1024D02*
X1021Y1024D01*
X1042Y1024D02*
X1121Y1024D01*
X1142Y1024D02*
X1221Y1024D01*
X1242Y1024D02*
X1321Y1024D01*
X1342Y1024D02*
X1421Y1024D01*
X1442Y1024D02*
X1521Y1024D01*
X1542Y1024D02*
X1621Y1024D01*
X1642Y1024D02*
X1720Y1024D01*
X1742Y1024D02*
X1820Y1024D01*
X542Y1023D02*
X621Y1023D01*
X642Y1023D02*
X721Y1023D01*
X742Y1023D02*
X821Y1023D01*
X842Y1023D02*
X921Y1023D01*
X942Y1023D02*
X1021Y1023D01*
X1042Y1023D02*
X1121Y1023D01*
X1142Y1023D02*
X1221Y1023D01*
X1242Y1023D02*
X1321Y1023D01*
X1342Y1023D02*
X1421Y1023D01*
X1442Y1023D02*
X1521Y1023D01*
X1542Y1023D02*
X1621Y1023D01*
X1642Y1023D02*
X1720Y1023D01*
X1742Y1023D02*
X1820Y1023D01*
X542Y1022D02*
X621Y1022D01*
X642Y1022D02*
X721Y1022D01*
X742Y1022D02*
X821Y1022D01*
X842Y1022D02*
X921Y1022D01*
X942Y1022D02*
X1021Y1022D01*
X1042Y1022D02*
X1121Y1022D01*
X1142Y1022D02*
X1221Y1022D01*
X1242Y1022D02*
X1321Y1022D01*
X1342Y1022D02*
X1421Y1022D01*
X1442Y1022D02*
X1521Y1022D01*
X1542Y1022D02*
X1621Y1022D01*
X1642Y1022D02*
X1720Y1022D01*
X1742Y1022D02*
X1820Y1022D01*
X542Y1021D02*
X621Y1021D01*
X642Y1021D02*
X721Y1021D01*
X742Y1021D02*
X821Y1021D01*
X842Y1021D02*
X921Y1021D01*
X942Y1021D02*
X1021Y1021D01*
X1042Y1021D02*
X1121Y1021D01*
X1142Y1021D02*
X1221Y1021D01*
X1242Y1021D02*
X1321Y1021D01*
X1342Y1021D02*
X1421Y1021D01*
X1442Y1021D02*
X1520Y1021D01*
X1542Y1021D02*
X1620Y1021D01*
X1642Y1021D02*
X1720Y1021D01*
X1742Y1021D02*
X1820Y1021D01*
X542Y1020D02*
X621Y1020D01*
X642Y1020D02*
X721Y1020D01*
X742Y1020D02*
X821Y1020D01*
X842Y1020D02*
X921Y1020D01*
X942Y1020D02*
X1021Y1020D01*
X1042Y1020D02*
X1121Y1020D01*
X1142Y1020D02*
X1220Y1020D01*
X1242Y1020D02*
X1320Y1020D01*
X1342Y1020D02*
X1420Y1020D01*
X1442Y1020D02*
X1520Y1020D01*
X1542Y1020D02*
X1620Y1020D01*
X1642Y1020D02*
X1720Y1020D01*
X1742Y1020D02*
X1820Y1020D01*
X542Y1019D02*
X621Y1019D01*
X642Y1019D02*
X721Y1019D01*
X742Y1019D02*
X821Y1019D01*
X842Y1019D02*
X920Y1019D01*
X942Y1019D02*
X1020Y1019D01*
X1042Y1019D02*
X1120Y1019D01*
X1142Y1019D02*
X1220Y1019D01*
X1242Y1019D02*
X1320Y1019D01*
X1342Y1019D02*
X1420Y1019D01*
X1442Y1019D02*
X1520Y1019D01*
X1542Y1019D02*
X1620Y1019D01*
X1642Y1019D02*
X1720Y1019D01*
X1742Y1019D02*
X1820Y1019D01*
X542Y1018D02*
X620Y1018D01*
X642Y1018D02*
X720Y1018D01*
X742Y1018D02*
X820Y1018D01*
X842Y1018D02*
X920Y1018D01*
X942Y1018D02*
X1020Y1018D01*
X1042Y1018D02*
X1120Y1018D01*
X1142Y1018D02*
X1220Y1018D01*
X1242Y1018D02*
X1320Y1018D01*
X1342Y1018D02*
X1420Y1018D01*
X1442Y1018D02*
X1520Y1018D01*
X1542Y1018D02*
X1620Y1018D01*
X1642Y1018D02*
X1720Y1018D01*
X1742Y1018D02*
X1820Y1018D01*
X543Y1017D02*
X620Y1017D01*
X643Y1017D02*
X720Y1017D01*
X743Y1017D02*
X820Y1017D01*
X843Y1017D02*
X920Y1017D01*
X942Y1017D02*
X1020Y1017D01*
X1042Y1017D02*
X1120Y1017D01*
X1142Y1017D02*
X1220Y1017D01*
X1242Y1017D02*
X1320Y1017D01*
X1342Y1017D02*
X1420Y1017D01*
X1442Y1017D02*
X1520Y1017D01*
X1542Y1017D02*
X1620Y1017D01*
X1642Y1017D02*
X1720Y1017D01*
X1742Y1017D02*
X1820Y1017D01*
X543Y1016D02*
X620Y1016D01*
X643Y1016D02*
X720Y1016D01*
X743Y1016D02*
X820Y1016D01*
X843Y1016D02*
X920Y1016D01*
X943Y1016D02*
X1020Y1016D01*
X1043Y1016D02*
X1120Y1016D01*
X1143Y1016D02*
X1220Y1016D01*
X1243Y1016D02*
X1320Y1016D01*
X1343Y1016D02*
X1420Y1016D01*
X1443Y1016D02*
X1520Y1016D01*
X1542Y1016D02*
X1620Y1016D01*
X1642Y1016D02*
X1720Y1016D01*
X1742Y1016D02*
X1820Y1016D01*
X543Y1015D02*
X620Y1015D01*
X643Y1015D02*
X720Y1015D01*
X743Y1015D02*
X820Y1015D01*
X843Y1015D02*
X920Y1015D01*
X943Y1015D02*
X1020Y1015D01*
X1043Y1015D02*
X1120Y1015D01*
X1143Y1015D02*
X1220Y1015D01*
X1243Y1015D02*
X1319Y1015D01*
X1343Y1015D02*
X1419Y1015D01*
X1443Y1015D02*
X1519Y1015D01*
X1543Y1015D02*
X1619Y1015D01*
X1643Y1015D02*
X1719Y1015D01*
X1743Y1015D02*
X1819Y1015D01*
X543Y1014D02*
X619Y1014D01*
X643Y1014D02*
X719Y1014D01*
X743Y1014D02*
X819Y1014D01*
X843Y1014D02*
X919Y1014D01*
X943Y1014D02*
X1019Y1014D01*
X1043Y1014D02*
X1119Y1014D01*
X1143Y1014D02*
X1219Y1014D01*
X1243Y1014D02*
X1319Y1014D01*
X1343Y1014D02*
X1419Y1014D01*
X1443Y1014D02*
X1519Y1014D01*
X1543Y1014D02*
X1619Y1014D01*
X1643Y1014D02*
X1719Y1014D01*
X1743Y1014D02*
X1819Y1014D01*
X544Y1013D02*
X619Y1013D01*
X644Y1013D02*
X719Y1013D01*
X744Y1013D02*
X819Y1013D01*
X844Y1013D02*
X919Y1013D01*
X944Y1013D02*
X1019Y1013D01*
X1044Y1013D02*
X1119Y1013D01*
X1143Y1013D02*
X1219Y1013D01*
X1243Y1013D02*
X1319Y1013D01*
X1343Y1013D02*
X1419Y1013D01*
X1443Y1013D02*
X1519Y1013D01*
X1543Y1013D02*
X1619Y1013D01*
X1643Y1013D02*
X1719Y1013D01*
X1743Y1013D02*
X1819Y1013D01*
X544Y1012D02*
X619Y1012D01*
X644Y1012D02*
X719Y1012D01*
X744Y1012D02*
X819Y1012D01*
X844Y1012D02*
X919Y1012D01*
X944Y1012D02*
X1019Y1012D01*
X1044Y1012D02*
X1119Y1012D01*
X1144Y1012D02*
X1219Y1012D01*
X1244Y1012D02*
X1319Y1012D01*
X1344Y1012D02*
X1418Y1012D01*
X1444Y1012D02*
X1518Y1012D01*
X1544Y1012D02*
X1618Y1012D01*
X1644Y1012D02*
X1718Y1012D01*
X1744Y1012D02*
X1818Y1012D01*
X544Y1011D02*
X618Y1011D01*
X644Y1011D02*
X718Y1011D01*
X744Y1011D02*
X818Y1011D01*
X844Y1011D02*
X918Y1011D01*
X944Y1011D02*
X1018Y1011D01*
X1044Y1011D02*
X1118Y1011D01*
X1144Y1011D02*
X1218Y1011D01*
X1244Y1011D02*
X1318Y1011D01*
X1344Y1011D02*
X1418Y1011D01*
X1444Y1011D02*
X1518Y1011D01*
X1544Y1011D02*
X1618Y1011D01*
X1644Y1011D02*
X1718Y1011D01*
X1744Y1011D02*
X1818Y1011D01*
X545Y1010D02*
X618Y1010D01*
X645Y1010D02*
X718Y1010D01*
X745Y1010D02*
X818Y1010D01*
X845Y1010D02*
X918Y1010D01*
X945Y1010D02*
X1018Y1010D01*
X1045Y1010D02*
X1118Y1010D01*
X1145Y1010D02*
X1218Y1010D01*
X1245Y1010D02*
X1318Y1010D01*
X1345Y1010D02*
X1418Y1010D01*
X1445Y1010D02*
X1518Y1010D01*
X1544Y1010D02*
X1618Y1010D01*
X1644Y1010D02*
X1718Y1010D01*
X1744Y1010D02*
X1818Y1010D01*
X545Y1009D02*
X618Y1009D01*
X645Y1009D02*
X718Y1009D01*
X745Y1009D02*
X817Y1009D01*
X845Y1009D02*
X917Y1009D01*
X945Y1009D02*
X1017Y1009D01*
X1045Y1009D02*
X1117Y1009D01*
X1145Y1009D02*
X1217Y1009D01*
X1245Y1009D02*
X1317Y1009D01*
X1345Y1009D02*
X1417Y1009D01*
X1445Y1009D02*
X1517Y1009D01*
X1545Y1009D02*
X1617Y1009D01*
X1645Y1009D02*
X1717Y1009D01*
X1745Y1009D02*
X1817Y1009D01*
X546Y1008D02*
X617Y1008D01*
X646Y1008D02*
X717Y1008D01*
X746Y1008D02*
X817Y1008D01*
X846Y1008D02*
X917Y1008D01*
X946Y1008D02*
X1017Y1008D01*
X1046Y1008D02*
X1117Y1008D01*
X1146Y1008D02*
X1217Y1008D01*
X1246Y1008D02*
X1317Y1008D01*
X1345Y1008D02*
X1417Y1008D01*
X1445Y1008D02*
X1517Y1008D01*
X1545Y1008D02*
X1617Y1008D01*
X1645Y1008D02*
X1717Y1008D01*
X1745Y1008D02*
X1817Y1008D01*
X546Y1007D02*
X617Y1007D01*
X646Y1007D02*
X717Y1007D01*
X746Y1007D02*
X817Y1007D01*
X846Y1007D02*
X916Y1007D01*
X946Y1007D02*
X1016Y1007D01*
X1046Y1007D02*
X1116Y1007D01*
X1146Y1007D02*
X1216Y1007D01*
X1246Y1007D02*
X1316Y1007D01*
X1346Y1007D02*
X1416Y1007D01*
X1446Y1007D02*
X1516Y1007D01*
X1546Y1007D02*
X1616Y1007D01*
X1646Y1007D02*
X1716Y1007D01*
X1746Y1007D02*
X1816Y1007D01*
X547Y1006D02*
X616Y1006D01*
X647Y1006D02*
X716Y1006D01*
X747Y1006D02*
X816Y1006D01*
X847Y1006D02*
X916Y1006D01*
X947Y1006D02*
X1016Y1006D01*
X1047Y1006D02*
X1116Y1006D01*
X1147Y1006D02*
X1216Y1006D01*
X1247Y1006D02*
X1316Y1006D01*
X1347Y1006D02*
X1416Y1006D01*
X1446Y1006D02*
X1516Y1006D01*
X1546Y1006D02*
X1616Y1006D01*
X1646Y1006D02*
X1716Y1006D01*
X1746Y1006D02*
X1816Y1006D01*
X547Y1005D02*
X615Y1005D01*
X647Y1005D02*
X715Y1005D01*
X747Y1005D02*
X815Y1005D01*
X847Y1005D02*
X915Y1005D01*
X947Y1005D02*
X1015Y1005D01*
X1047Y1005D02*
X1115Y1005D01*
X1147Y1005D02*
X1215Y1005D01*
X1247Y1005D02*
X1315Y1005D01*
X1347Y1005D02*
X1415Y1005D01*
X1447Y1005D02*
X1515Y1005D01*
X1547Y1005D02*
X1615Y1005D01*
X1647Y1005D02*
X1715Y1005D01*
X1747Y1005D02*
X1815Y1005D01*
X548Y1004D02*
X615Y1004D01*
X648Y1004D02*
X715Y1004D01*
X748Y1004D02*
X815Y1004D01*
X848Y1004D02*
X915Y1004D01*
X948Y1004D02*
X1015Y1004D01*
X1048Y1004D02*
X1115Y1004D01*
X1148Y1004D02*
X1215Y1004D01*
X1248Y1004D02*
X1315Y1004D01*
X1348Y1004D02*
X1415Y1004D01*
X1448Y1004D02*
X1514Y1004D01*
X1548Y1004D02*
X1614Y1004D01*
X1648Y1004D02*
X1714Y1004D01*
X1748Y1004D02*
X1814Y1004D01*
X549Y1003D02*
X614Y1003D01*
X649Y1003D02*
X714Y1003D01*
X749Y1003D02*
X814Y1003D01*
X849Y1003D02*
X914Y1003D01*
X949Y1003D02*
X1014Y1003D01*
X1048Y1003D02*
X1114Y1003D01*
X1148Y1003D02*
X1214Y1003D01*
X1248Y1003D02*
X1314Y1003D01*
X1348Y1003D02*
X1414Y1003D01*
X1448Y1003D02*
X1514Y1003D01*
X1548Y1003D02*
X1614Y1003D01*
X1648Y1003D02*
X1714Y1003D01*
X1748Y1003D02*
X1814Y1003D01*
X549Y1002D02*
X613Y1002D01*
X649Y1002D02*
X713Y1002D01*
X749Y1002D02*
X813Y1002D01*
X849Y1002D02*
X913Y1002D01*
X949Y1002D02*
X1013Y1002D01*
X1049Y1002D02*
X1113Y1002D01*
X1149Y1002D02*
X1213Y1002D01*
X1249Y1002D02*
X1313Y1002D01*
X1349Y1002D02*
X1413Y1002D01*
X1449Y1002D02*
X1513Y1002D01*
X1549Y1002D02*
X1613Y1002D01*
X1649Y1002D02*
X1713Y1002D01*
X1749Y1002D02*
X1813Y1002D01*
X550Y1001D02*
X613Y1001D01*
X650Y1001D02*
X713Y1001D01*
X750Y1001D02*
X813Y1001D01*
X850Y1001D02*
X913Y1001D01*
X950Y1001D02*
X1013Y1001D01*
X1050Y1001D02*
X1113Y1001D01*
X1150Y1001D02*
X1213Y1001D01*
X1250Y1001D02*
X1312Y1001D01*
X1350Y1001D02*
X1412Y1001D01*
X1450Y1001D02*
X1512Y1001D01*
X1550Y1001D02*
X1612Y1001D01*
X1650Y1001D02*
X1712Y1001D01*
X1750Y1001D02*
X1812Y1001D01*
X551Y1000D02*
X612Y1000D01*
X651Y1000D02*
X712Y1000D01*
X751Y1000D02*
X812Y1000D01*
X851Y1000D02*
X912Y1000D01*
X951Y1000D02*
X1012Y1000D01*
X1051Y1000D02*
X1112Y1000D01*
X1151Y1000D02*
X1212Y1000D01*
X1251Y1000D02*
X1312Y1000D01*
X1351Y1000D02*
X1412Y1000D01*
X1451Y1000D02*
X1512Y1000D01*
X1550Y1000D02*
X1612Y1000D01*
X1650Y1000D02*
X1712Y1000D01*
X1750Y1000D02*
X1812Y1000D01*
X552Y999D02*
X611Y999D01*
X652Y999D02*
X711Y999D01*
X752Y999D02*
X811Y999D01*
X852Y999D02*
X911Y999D01*
X952Y999D02*
X1011Y999D01*
X1051Y999D02*
X1111Y999D01*
X1151Y999D02*
X1211Y999D01*
X1251Y999D02*
X1311Y999D01*
X1351Y999D02*
X1411Y999D01*
X1451Y999D02*
X1511Y999D01*
X1551Y999D02*
X1611Y999D01*
X1651Y999D02*
X1711Y999D01*
X1751Y999D02*
X1811Y999D01*
X553Y998D02*
X610Y998D01*
X653Y998D02*
X710Y998D01*
X752Y998D02*
X810Y998D01*
X852Y998D02*
X910Y998D01*
X952Y998D02*
X1010Y998D01*
X1052Y998D02*
X1110Y998D01*
X1152Y998D02*
X1210Y998D01*
X1252Y998D02*
X1310Y998D01*
X1352Y998D02*
X1410Y998D01*
X1452Y998D02*
X1510Y998D01*
X1552Y998D02*
X1610Y998D01*
X1652Y998D02*
X1710Y998D01*
X1752Y998D02*
X1810Y998D01*
X553Y997D02*
X609Y997D01*
X653Y997D02*
X709Y997D01*
X753Y997D02*
X809Y997D01*
X853Y997D02*
X909Y997D01*
X953Y997D02*
X1009Y997D01*
X1053Y997D02*
X1109Y997D01*
X1153Y997D02*
X1209Y997D01*
X1253Y997D02*
X1309Y997D01*
X1353Y997D02*
X1409Y997D01*
X1453Y997D02*
X1509Y997D01*
X1553Y997D02*
X1609Y997D01*
X1653Y997D02*
X1709Y997D01*
X1753Y997D02*
X1809Y997D01*
X554Y996D02*
X608Y996D01*
X654Y996D02*
X708Y996D01*
X754Y996D02*
X808Y996D01*
X854Y996D02*
X908Y996D01*
X954Y996D02*
X1008Y996D01*
X1054Y996D02*
X1108Y996D01*
X1154Y996D02*
X1208Y996D01*
X1254Y996D02*
X1308Y996D01*
X1354Y996D02*
X1408Y996D01*
X1454Y996D02*
X1508Y996D01*
X1554Y996D02*
X1608Y996D01*
X1654Y996D02*
X1708Y996D01*
X1754Y996D02*
X1808Y996D01*
X555Y995D02*
X607Y995D01*
X655Y995D02*
X707Y995D01*
X755Y995D02*
X807Y995D01*
X855Y995D02*
X907Y995D01*
X955Y995D02*
X1007Y995D01*
X1055Y995D02*
X1107Y995D01*
X1155Y995D02*
X1207Y995D01*
X1255Y995D02*
X1307Y995D01*
X1355Y995D02*
X1407Y995D01*
X1455Y995D02*
X1507Y995D01*
X1555Y995D02*
X1607Y995D01*
X1655Y995D02*
X1707Y995D01*
X1755Y995D02*
X1807Y995D01*
X557Y994D02*
X606Y994D01*
X657Y994D02*
X706Y994D01*
X756Y994D02*
X806Y994D01*
X856Y994D02*
X906Y994D01*
X956Y994D02*
X1006Y994D01*
X1056Y994D02*
X1106Y994D01*
X1156Y994D02*
X1206Y994D01*
X1256Y994D02*
X1306Y994D01*
X1356Y994D02*
X1406Y994D01*
X1456Y994D02*
X1506Y994D01*
X1556Y994D02*
X1606Y994D01*
X1656Y994D02*
X1706Y994D01*
X1756Y994D02*
X1806Y994D01*
X558Y993D02*
X605Y993D01*
X658Y993D02*
X705Y993D01*
X758Y993D02*
X805Y993D01*
X858Y993D02*
X905Y993D01*
X958Y993D02*
X1005Y993D01*
X1058Y993D02*
X1105Y993D01*
X1157Y993D02*
X1205Y993D01*
X1257Y993D02*
X1305Y993D01*
X1357Y993D02*
X1405Y993D01*
X1457Y993D02*
X1505Y993D01*
X1557Y993D02*
X1605Y993D01*
X1657Y993D02*
X1705Y993D01*
X1757Y993D02*
X1805Y993D01*
X559Y992D02*
X604Y992D01*
X659Y992D02*
X704Y992D01*
X759Y992D02*
X804Y992D01*
X859Y992D02*
X904Y992D01*
X959Y992D02*
X1004Y992D01*
X1059Y992D02*
X1104Y992D01*
X1159Y992D02*
X1204Y992D01*
X1259Y992D02*
X1304Y992D01*
X1359Y992D02*
X1404Y992D01*
X1459Y992D02*
X1504Y992D01*
X1559Y992D02*
X1603Y992D01*
X1659Y992D02*
X1703Y992D01*
X1759Y992D02*
X1803Y992D01*
X560Y991D02*
X603Y991D01*
X660Y991D02*
X702Y991D01*
X760Y991D02*
X802Y991D01*
X860Y991D02*
X902Y991D01*
X960Y991D02*
X1002Y991D01*
X1060Y991D02*
X1102Y991D01*
X1160Y991D02*
X1202Y991D01*
X1260Y991D02*
X1302Y991D01*
X1360Y991D02*
X1402Y991D01*
X1460Y991D02*
X1502Y991D01*
X1560Y991D02*
X1602Y991D01*
X1660Y991D02*
X1702Y991D01*
X1760Y991D02*
X1802Y991D01*
X562Y990D02*
X601Y990D01*
X662Y990D02*
X701Y990D01*
X762Y990D02*
X801Y990D01*
X862Y990D02*
X901Y990D01*
X962Y990D02*
X1001Y990D01*
X1062Y990D02*
X1101Y990D01*
X1162Y990D02*
X1201Y990D01*
X1262Y990D02*
X1301Y990D01*
X1361Y990D02*
X1401Y990D01*
X1461Y990D02*
X1501Y990D01*
X1561Y990D02*
X1601Y990D01*
X1661Y990D02*
X1701Y990D01*
X1761Y990D02*
X1801Y990D01*
X563Y989D02*
X599Y989D01*
X663Y989D02*
X699Y989D01*
X763Y989D02*
X799Y989D01*
X863Y989D02*
X899Y989D01*
X963Y989D02*
X999Y989D01*
X1063Y989D02*
X1099Y989D01*
X1163Y989D02*
X1199Y989D01*
X1263Y989D02*
X1299Y989D01*
X1363Y989D02*
X1399Y989D01*
X1463Y989D02*
X1499Y989D01*
X1563Y989D02*
X1599Y989D01*
X1663Y989D02*
X1699Y989D01*
X1763Y989D02*
X1799Y989D01*
X565Y988D02*
X598Y988D01*
X665Y988D02*
X698Y988D01*
X765Y988D02*
X798Y988D01*
X865Y988D02*
X898Y988D01*
X965Y988D02*
X998Y988D01*
X1065Y988D02*
X1098Y988D01*
X1165Y988D02*
X1197Y988D01*
X1265Y988D02*
X1297Y988D01*
X1365Y988D02*
X1397Y988D01*
X1465Y988D02*
X1497Y988D01*
X1565Y988D02*
X1597Y988D01*
X1665Y988D02*
X1697Y988D01*
X1765Y988D02*
X1797Y988D01*
X567Y987D02*
X596Y987D01*
X667Y987D02*
X696Y987D01*
X767Y987D02*
X796Y987D01*
X867Y987D02*
X896Y987D01*
X967Y987D02*
X996Y987D01*
X1067Y987D02*
X1096Y987D01*
X1167Y987D02*
X1196Y987D01*
X1267Y987D02*
X1295Y987D01*
X1367Y987D02*
X1395Y987D01*
X1467Y987D02*
X1495Y987D01*
X1567Y987D02*
X1595Y987D01*
X1667Y987D02*
X1695Y987D01*
X1767Y987D02*
X1795Y987D01*
X569Y986D02*
X593Y986D01*
X669Y986D02*
X693Y986D01*
X769Y986D02*
X793Y986D01*
X869Y986D02*
X893Y986D01*
X969Y986D02*
X993Y986D01*
X1069Y986D02*
X1093Y986D01*
X1169Y986D02*
X1193Y986D01*
X1269Y986D02*
X1293Y986D01*
X1369Y986D02*
X1393Y986D01*
X1469Y986D02*
X1493Y986D01*
X1569Y986D02*
X1593Y986D01*
X1669Y986D02*
X1693Y986D01*
X1769Y986D02*
X1793Y986D01*
X572Y985D02*
X591Y985D01*
X672Y985D02*
X691Y985D01*
X772Y985D02*
X790Y985D01*
X872Y985D02*
X890Y985D01*
X972Y985D02*
X990Y985D01*
X1072Y985D02*
X1090Y985D01*
X1172Y985D02*
X1190Y985D01*
X1272Y985D02*
X1290Y985D01*
X1372Y985D02*
X1390Y985D01*
X1472Y985D02*
X1490Y985D01*
X1572Y985D02*
X1590Y985D01*
X1672Y985D02*
X1690Y985D01*
X1772Y985D02*
X1790Y985D01*
X576Y984D02*
X586Y984D01*
X676Y984D02*
X686Y984D01*
X776Y984D02*
X786Y984D01*
X876Y984D02*
X886Y984D01*
X976Y984D02*
X986Y984D01*
X1076Y984D02*
X1086Y984D01*
X1176Y984D02*
X1186Y984D01*
X1276Y984D02*
X1286Y984D01*
X1376Y984D02*
X1386Y984D01*
X1476Y984D02*
X1486Y984D01*
X1576Y984D02*
X1586Y984D01*
X1676Y984D02*
X1686Y984D01*
X1776Y984D02*
X1786Y984D01*
X576Y963D02*
X587Y963D01*
X676Y963D02*
X687Y963D01*
X776Y963D02*
X787Y963D01*
X876Y963D02*
X886Y963D01*
X976Y963D02*
X986Y963D01*
X1076Y963D02*
X1086Y963D01*
X1176Y963D02*
X1186Y963D01*
X1276Y963D02*
X1286Y963D01*
X1376Y963D02*
X1386Y963D01*
X1476Y963D02*
X1486Y963D01*
X1576Y963D02*
X1586Y963D01*
X1676Y963D02*
X1686Y963D01*
X1776Y963D02*
X1786Y963D01*
X572Y962D02*
X591Y962D01*
X672Y962D02*
X691Y962D01*
X772Y962D02*
X791Y962D01*
X872Y962D02*
X891Y962D01*
X972Y962D02*
X991Y962D01*
X1072Y962D02*
X1090Y962D01*
X1172Y962D02*
X1190Y962D01*
X1272Y962D02*
X1290Y962D01*
X1372Y962D02*
X1390Y962D01*
X1472Y962D02*
X1490Y962D01*
X1572Y962D02*
X1590Y962D01*
X1672Y962D02*
X1690Y962D01*
X1772Y962D02*
X1790Y962D01*
X569Y961D02*
X593Y961D01*
X669Y961D02*
X693Y961D01*
X769Y961D02*
X793Y961D01*
X869Y961D02*
X893Y961D01*
X969Y961D02*
X993Y961D01*
X1069Y961D02*
X1093Y961D01*
X1169Y961D02*
X1193Y961D01*
X1269Y961D02*
X1293Y961D01*
X1369Y961D02*
X1393Y961D01*
X1469Y961D02*
X1493Y961D01*
X1569Y961D02*
X1593Y961D01*
X1669Y961D02*
X1693Y961D01*
X1769Y961D02*
X1793Y961D01*
X567Y960D02*
X596Y960D01*
X667Y960D02*
X696Y960D01*
X767Y960D02*
X796Y960D01*
X867Y960D02*
X896Y960D01*
X967Y960D02*
X996Y960D01*
X1067Y960D02*
X1096Y960D01*
X1167Y960D02*
X1196Y960D01*
X1267Y960D02*
X1296Y960D01*
X1367Y960D02*
X1395Y960D01*
X1467Y960D02*
X1495Y960D01*
X1567Y960D02*
X1595Y960D01*
X1667Y960D02*
X1695Y960D01*
X1767Y960D02*
X1795Y960D01*
X565Y959D02*
X598Y959D01*
X665Y959D02*
X698Y959D01*
X765Y959D02*
X798Y959D01*
X865Y959D02*
X898Y959D01*
X965Y959D02*
X998Y959D01*
X1065Y959D02*
X1098Y959D01*
X1165Y959D02*
X1198Y959D01*
X1265Y959D02*
X1298Y959D01*
X1365Y959D02*
X1397Y959D01*
X1465Y959D02*
X1497Y959D01*
X1565Y959D02*
X1597Y959D01*
X1665Y959D02*
X1697Y959D01*
X1765Y959D02*
X1797Y959D01*
X563Y958D02*
X600Y958D01*
X663Y958D02*
X699Y958D01*
X763Y958D02*
X799Y958D01*
X863Y958D02*
X899Y958D01*
X963Y958D02*
X999Y958D01*
X1063Y958D02*
X1099Y958D01*
X1163Y958D02*
X1199Y958D01*
X1263Y958D02*
X1299Y958D01*
X1363Y958D02*
X1399Y958D01*
X1463Y958D02*
X1499Y958D01*
X1563Y958D02*
X1599Y958D01*
X1663Y958D02*
X1699Y958D01*
X1763Y958D02*
X1799Y958D01*
X562Y957D02*
X601Y957D01*
X662Y957D02*
X701Y957D01*
X762Y957D02*
X801Y957D01*
X862Y957D02*
X901Y957D01*
X962Y957D02*
X1001Y957D01*
X1062Y957D02*
X1101Y957D01*
X1161Y957D02*
X1201Y957D01*
X1261Y957D02*
X1301Y957D01*
X1361Y957D02*
X1401Y957D01*
X1461Y957D02*
X1501Y957D01*
X1561Y957D02*
X1601Y957D01*
X1661Y957D02*
X1701Y957D01*
X1761Y957D02*
X1801Y957D01*
X560Y956D02*
X603Y956D01*
X660Y956D02*
X703Y956D01*
X760Y956D02*
X802Y956D01*
X860Y956D02*
X902Y956D01*
X960Y956D02*
X1002Y956D01*
X1060Y956D02*
X1102Y956D01*
X1160Y956D02*
X1202Y956D01*
X1260Y956D02*
X1302Y956D01*
X1360Y956D02*
X1402Y956D01*
X1460Y956D02*
X1502Y956D01*
X1560Y956D02*
X1602Y956D01*
X1660Y956D02*
X1702Y956D01*
X1760Y956D02*
X1802Y956D01*
X559Y955D02*
X604Y955D01*
X659Y955D02*
X704Y955D01*
X759Y955D02*
X804Y955D01*
X859Y955D02*
X904Y955D01*
X959Y955D02*
X1004Y955D01*
X1059Y955D02*
X1104Y955D01*
X1159Y955D02*
X1204Y955D01*
X1259Y955D02*
X1304Y955D01*
X1359Y955D02*
X1404Y955D01*
X1459Y955D02*
X1504Y955D01*
X1559Y955D02*
X1604Y955D01*
X1659Y955D02*
X1704Y955D01*
X1758Y955D02*
X1803Y955D01*
X558Y954D02*
X605Y954D01*
X658Y954D02*
X705Y954D01*
X758Y954D02*
X805Y954D01*
X858Y954D02*
X905Y954D01*
X958Y954D02*
X1005Y954D01*
X1057Y954D02*
X1105Y954D01*
X1157Y954D02*
X1205Y954D01*
X1257Y954D02*
X1305Y954D01*
X1357Y954D02*
X1405Y954D01*
X1457Y954D02*
X1505Y954D01*
X1557Y954D02*
X1605Y954D01*
X1657Y954D02*
X1705Y954D01*
X1757Y954D02*
X1805Y954D01*
X557Y953D02*
X606Y953D01*
X656Y953D02*
X706Y953D01*
X756Y953D02*
X806Y953D01*
X856Y953D02*
X906Y953D01*
X956Y953D02*
X1006Y953D01*
X1056Y953D02*
X1106Y953D01*
X1156Y953D02*
X1206Y953D01*
X1256Y953D02*
X1306Y953D01*
X1356Y953D02*
X1406Y953D01*
X1456Y953D02*
X1506Y953D01*
X1556Y953D02*
X1606Y953D01*
X1656Y953D02*
X1706Y953D01*
X1756Y953D02*
X1806Y953D01*
X555Y952D02*
X607Y952D01*
X655Y952D02*
X707Y952D01*
X755Y952D02*
X807Y952D01*
X855Y952D02*
X907Y952D01*
X955Y952D02*
X1007Y952D01*
X1055Y952D02*
X1107Y952D01*
X1155Y952D02*
X1207Y952D01*
X1255Y952D02*
X1307Y952D01*
X1355Y952D02*
X1407Y952D01*
X1455Y952D02*
X1507Y952D01*
X1555Y952D02*
X1607Y952D01*
X1655Y952D02*
X1707Y952D01*
X1755Y952D02*
X1807Y952D01*
X554Y951D02*
X608Y951D01*
X654Y951D02*
X708Y951D01*
X754Y951D02*
X808Y951D01*
X854Y951D02*
X908Y951D01*
X954Y951D02*
X1008Y951D01*
X1054Y951D02*
X1108Y951D01*
X1154Y951D02*
X1208Y951D01*
X1254Y951D02*
X1308Y951D01*
X1354Y951D02*
X1408Y951D01*
X1454Y951D02*
X1508Y951D01*
X1554Y951D02*
X1608Y951D01*
X1654Y951D02*
X1708Y951D01*
X1754Y951D02*
X1808Y951D01*
X553Y950D02*
X609Y950D01*
X653Y950D02*
X709Y950D01*
X753Y950D02*
X809Y950D01*
X853Y950D02*
X909Y950D01*
X953Y950D02*
X1009Y950D01*
X1053Y950D02*
X1109Y950D01*
X1153Y950D02*
X1209Y950D01*
X1253Y950D02*
X1309Y950D01*
X1353Y950D02*
X1409Y950D01*
X1453Y950D02*
X1509Y950D01*
X1553Y950D02*
X1609Y950D01*
X1653Y950D02*
X1709Y950D01*
X1753Y950D02*
X1809Y950D01*
X553Y949D02*
X610Y949D01*
X652Y949D02*
X710Y949D01*
X752Y949D02*
X810Y949D01*
X852Y949D02*
X910Y949D01*
X952Y949D02*
X1010Y949D01*
X1052Y949D02*
X1110Y949D01*
X1152Y949D02*
X1210Y949D01*
X1252Y949D02*
X1310Y949D01*
X1352Y949D02*
X1410Y949D01*
X1452Y949D02*
X1510Y949D01*
X1552Y949D02*
X1610Y949D01*
X1652Y949D02*
X1710Y949D01*
X1752Y949D02*
X1810Y949D01*
X552Y948D02*
X611Y948D01*
X652Y948D02*
X711Y948D01*
X752Y948D02*
X811Y948D01*
X852Y948D02*
X911Y948D01*
X951Y948D02*
X1011Y948D01*
X1051Y948D02*
X1111Y948D01*
X1151Y948D02*
X1211Y948D01*
X1251Y948D02*
X1311Y948D01*
X1351Y948D02*
X1411Y948D01*
X1451Y948D02*
X1511Y948D01*
X1551Y948D02*
X1611Y948D01*
X1651Y948D02*
X1711Y948D01*
X1751Y948D02*
X1811Y948D01*
X551Y947D02*
X612Y947D01*
X651Y947D02*
X712Y947D01*
X751Y947D02*
X812Y947D01*
X851Y947D02*
X912Y947D01*
X951Y947D02*
X1012Y947D01*
X1051Y947D02*
X1112Y947D01*
X1151Y947D02*
X1212Y947D01*
X1251Y947D02*
X1312Y947D01*
X1351Y947D02*
X1412Y947D01*
X1450Y947D02*
X1512Y947D01*
X1550Y947D02*
X1612Y947D01*
X1650Y947D02*
X1712Y947D01*
X1750Y947D02*
X1812Y947D01*
X550Y946D02*
X613Y946D01*
X650Y946D02*
X713Y946D01*
X750Y946D02*
X813Y946D01*
X850Y946D02*
X913Y946D01*
X950Y946D02*
X1013Y946D01*
X1050Y946D02*
X1113Y946D01*
X1150Y946D02*
X1213Y946D01*
X1250Y946D02*
X1313Y946D01*
X1350Y946D02*
X1412Y946D01*
X1450Y946D02*
X1512Y946D01*
X1550Y946D02*
X1612Y946D01*
X1650Y946D02*
X1712Y946D01*
X1750Y946D02*
X1812Y946D01*
X549Y945D02*
X614Y945D01*
X649Y945D02*
X713Y945D01*
X749Y945D02*
X813Y945D01*
X849Y945D02*
X913Y945D01*
X949Y945D02*
X1013Y945D01*
X1049Y945D02*
X1113Y945D01*
X1149Y945D02*
X1213Y945D01*
X1249Y945D02*
X1313Y945D01*
X1349Y945D02*
X1413Y945D01*
X1449Y945D02*
X1513Y945D01*
X1549Y945D02*
X1613Y945D01*
X1649Y945D02*
X1713Y945D01*
X1749Y945D02*
X1813Y945D01*
X549Y944D02*
X614Y944D01*
X649Y944D02*
X714Y944D01*
X749Y944D02*
X814Y944D01*
X849Y944D02*
X914Y944D01*
X948Y944D02*
X1014Y944D01*
X1048Y944D02*
X1114Y944D01*
X1148Y944D02*
X1214Y944D01*
X1248Y944D02*
X1314Y944D01*
X1348Y944D02*
X1414Y944D01*
X1448Y944D02*
X1514Y944D01*
X1548Y944D02*
X1614Y944D01*
X1648Y944D02*
X1714Y944D01*
X1748Y944D02*
X1814Y944D01*
X548Y943D02*
X615Y943D01*
X648Y943D02*
X715Y943D01*
X748Y943D02*
X815Y943D01*
X848Y943D02*
X915Y943D01*
X948Y943D02*
X1015Y943D01*
X1048Y943D02*
X1115Y943D01*
X1148Y943D02*
X1215Y943D01*
X1248Y943D02*
X1315Y943D01*
X1348Y943D02*
X1415Y943D01*
X1448Y943D02*
X1515Y943D01*
X1548Y943D02*
X1614Y943D01*
X1648Y943D02*
X1714Y943D01*
X1748Y943D02*
X1814Y943D01*
X547Y942D02*
X615Y942D01*
X647Y942D02*
X715Y942D01*
X747Y942D02*
X815Y942D01*
X847Y942D02*
X915Y942D01*
X947Y942D02*
X1015Y942D01*
X1047Y942D02*
X1115Y942D01*
X1147Y942D02*
X1215Y942D01*
X1247Y942D02*
X1315Y942D01*
X1347Y942D02*
X1415Y942D01*
X1447Y942D02*
X1515Y942D01*
X1547Y942D02*
X1615Y942D01*
X1647Y942D02*
X1715Y942D01*
X1747Y942D02*
X1815Y942D01*
X547Y941D02*
X616Y941D01*
X647Y941D02*
X716Y941D01*
X747Y941D02*
X816Y941D01*
X847Y941D02*
X916Y941D01*
X947Y941D02*
X1016Y941D01*
X1047Y941D02*
X1116Y941D01*
X1147Y941D02*
X1216Y941D01*
X1247Y941D02*
X1316Y941D01*
X1346Y941D02*
X1416Y941D01*
X1446Y941D02*
X1516Y941D01*
X1546Y941D02*
X1616Y941D01*
X1646Y941D02*
X1716Y941D01*
X1746Y941D02*
X1816Y941D01*
X546Y940D02*
X617Y940D01*
X646Y940D02*
X717Y940D01*
X746Y940D02*
X817Y940D01*
X846Y940D02*
X916Y940D01*
X946Y940D02*
X1016Y940D01*
X1046Y940D02*
X1116Y940D01*
X1146Y940D02*
X1216Y940D01*
X1246Y940D02*
X1316Y940D01*
X1346Y940D02*
X1416Y940D01*
X1446Y940D02*
X1516Y940D01*
X1546Y940D02*
X1616Y940D01*
X1646Y940D02*
X1716Y940D01*
X1746Y940D02*
X1816Y940D01*
X546Y939D02*
X617Y939D01*
X646Y939D02*
X717Y939D01*
X746Y939D02*
X817Y939D01*
X846Y939D02*
X917Y939D01*
X946Y939D02*
X1017Y939D01*
X1046Y939D02*
X1117Y939D01*
X1146Y939D02*
X1217Y939D01*
X1245Y939D02*
X1317Y939D01*
X1345Y939D02*
X1417Y939D01*
X1445Y939D02*
X1517Y939D01*
X1545Y939D02*
X1617Y939D01*
X1645Y939D02*
X1717Y939D01*
X1745Y939D02*
X1817Y939D01*
X545Y938D02*
X618Y938D01*
X645Y938D02*
X718Y938D01*
X745Y938D02*
X818Y938D01*
X845Y938D02*
X917Y938D01*
X945Y938D02*
X1017Y938D01*
X1045Y938D02*
X1117Y938D01*
X1145Y938D02*
X1217Y938D01*
X1245Y938D02*
X1317Y938D01*
X1345Y938D02*
X1417Y938D01*
X1445Y938D02*
X1517Y938D01*
X1545Y938D02*
X1617Y938D01*
X1645Y938D02*
X1717Y938D01*
X1745Y938D02*
X1817Y938D01*
X545Y937D02*
X618Y937D01*
X645Y937D02*
X718Y937D01*
X745Y937D02*
X818Y937D01*
X845Y937D02*
X918Y937D01*
X945Y937D02*
X1018Y937D01*
X1045Y937D02*
X1118Y937D01*
X1145Y937D02*
X1218Y937D01*
X1245Y937D02*
X1318Y937D01*
X1345Y937D02*
X1418Y937D01*
X1444Y937D02*
X1518Y937D01*
X1544Y937D02*
X1618Y937D01*
X1644Y937D02*
X1718Y937D01*
X1744Y937D02*
X1818Y937D01*
X544Y936D02*
X618Y936D01*
X644Y936D02*
X718Y936D01*
X744Y936D02*
X818Y936D01*
X844Y936D02*
X918Y936D01*
X944Y936D02*
X1018Y936D01*
X1044Y936D02*
X1118Y936D01*
X1144Y936D02*
X1218Y936D01*
X1244Y936D02*
X1318Y936D01*
X1344Y936D02*
X1418Y936D01*
X1444Y936D02*
X1518Y936D01*
X1544Y936D02*
X1618Y936D01*
X1644Y936D02*
X1718Y936D01*
X1744Y936D02*
X1818Y936D01*
X544Y935D02*
X619Y935D01*
X644Y935D02*
X719Y935D01*
X744Y935D02*
X819Y935D01*
X844Y935D02*
X919Y935D01*
X944Y935D02*
X1019Y935D01*
X1044Y935D02*
X1119Y935D01*
X1144Y935D02*
X1219Y935D01*
X1244Y935D02*
X1319Y935D01*
X1344Y935D02*
X1419Y935D01*
X1444Y935D02*
X1518Y935D01*
X1544Y935D02*
X1618Y935D01*
X1644Y935D02*
X1718Y935D01*
X1744Y935D02*
X1818Y935D01*
X544Y934D02*
X619Y934D01*
X644Y934D02*
X719Y934D01*
X744Y934D02*
X819Y934D01*
X844Y934D02*
X919Y934D01*
X944Y934D02*
X1019Y934D01*
X1043Y934D02*
X1119Y934D01*
X1143Y934D02*
X1219Y934D01*
X1243Y934D02*
X1319Y934D01*
X1343Y934D02*
X1419Y934D01*
X1443Y934D02*
X1519Y934D01*
X1543Y934D02*
X1619Y934D01*
X1643Y934D02*
X1719Y934D01*
X1743Y934D02*
X1819Y934D01*
X543Y933D02*
X619Y933D01*
X643Y933D02*
X719Y933D01*
X743Y933D02*
X819Y933D01*
X843Y933D02*
X919Y933D01*
X943Y933D02*
X1019Y933D01*
X1043Y933D02*
X1119Y933D01*
X1143Y933D02*
X1219Y933D01*
X1243Y933D02*
X1319Y933D01*
X1343Y933D02*
X1419Y933D01*
X1443Y933D02*
X1519Y933D01*
X1543Y933D02*
X1619Y933D01*
X1643Y933D02*
X1719Y933D01*
X1743Y933D02*
X1819Y933D01*
X543Y932D02*
X620Y932D01*
X643Y932D02*
X720Y932D01*
X743Y932D02*
X820Y932D01*
X843Y932D02*
X920Y932D01*
X943Y932D02*
X1020Y932D01*
X1043Y932D02*
X1120Y932D01*
X1143Y932D02*
X1220Y932D01*
X1243Y932D02*
X1319Y932D01*
X1343Y932D02*
X1419Y932D01*
X1443Y932D02*
X1519Y932D01*
X1543Y932D02*
X1619Y932D01*
X1643Y932D02*
X1719Y932D01*
X1743Y932D02*
X1819Y932D01*
X543Y931D02*
X620Y931D01*
X643Y931D02*
X720Y931D01*
X743Y931D02*
X820Y931D01*
X843Y931D02*
X920Y931D01*
X943Y931D02*
X1020Y931D01*
X1043Y931D02*
X1120Y931D01*
X1143Y931D02*
X1220Y931D01*
X1243Y931D02*
X1320Y931D01*
X1343Y931D02*
X1420Y931D01*
X1442Y931D02*
X1520Y931D01*
X1542Y931D02*
X1620Y931D01*
X1642Y931D02*
X1720Y931D01*
X1742Y931D02*
X1820Y931D01*
X543Y930D02*
X620Y930D01*
X643Y930D02*
X720Y930D01*
X743Y930D02*
X820Y930D01*
X843Y930D02*
X920Y930D01*
X942Y930D02*
X1020Y930D01*
X1042Y930D02*
X1120Y930D01*
X1142Y930D02*
X1220Y930D01*
X1242Y930D02*
X1320Y930D01*
X1342Y930D02*
X1420Y930D01*
X1442Y930D02*
X1520Y930D01*
X1542Y930D02*
X1620Y930D01*
X1642Y930D02*
X1720Y930D01*
X1742Y930D02*
X1820Y930D01*
X542Y929D02*
X620Y929D01*
X642Y929D02*
X720Y929D01*
X742Y929D02*
X820Y929D01*
X842Y929D02*
X920Y929D01*
X942Y929D02*
X1020Y929D01*
X1042Y929D02*
X1120Y929D01*
X1142Y929D02*
X1220Y929D01*
X1242Y929D02*
X1320Y929D01*
X1342Y929D02*
X1420Y929D01*
X1442Y929D02*
X1520Y929D01*
X1542Y929D02*
X1620Y929D01*
X1642Y929D02*
X1720Y929D01*
X1742Y929D02*
X1820Y929D01*
X542Y928D02*
X621Y928D01*
X642Y928D02*
X721Y928D01*
X742Y928D02*
X821Y928D01*
X842Y928D02*
X920Y928D01*
X942Y928D02*
X1020Y928D01*
X1042Y928D02*
X1120Y928D01*
X1142Y928D02*
X1220Y928D01*
X1242Y928D02*
X1320Y928D01*
X1342Y928D02*
X1420Y928D01*
X1442Y928D02*
X1520Y928D01*
X1542Y928D02*
X1620Y928D01*
X1642Y928D02*
X1720Y928D01*
X1742Y928D02*
X1820Y928D01*
X542Y927D02*
X621Y927D01*
X642Y927D02*
X721Y927D01*
X742Y927D02*
X821Y927D01*
X842Y927D02*
X921Y927D01*
X942Y927D02*
X1021Y927D01*
X1042Y927D02*
X1121Y927D01*
X1142Y927D02*
X1220Y927D01*
X1242Y927D02*
X1320Y927D01*
X1342Y927D02*
X1420Y927D01*
X1442Y927D02*
X1520Y927D01*
X1542Y927D02*
X1620Y927D01*
X1642Y927D02*
X1720Y927D01*
X1742Y927D02*
X1820Y927D01*
X542Y926D02*
X621Y926D01*
X642Y926D02*
X721Y926D01*
X742Y926D02*
X821Y926D01*
X842Y926D02*
X921Y926D01*
X942Y926D02*
X1021Y926D01*
X1042Y926D02*
X1121Y926D01*
X1142Y926D02*
X1221Y926D01*
X1242Y926D02*
X1321Y926D01*
X1342Y926D02*
X1421Y926D01*
X1442Y926D02*
X1520Y926D01*
X1542Y926D02*
X1620Y926D01*
X1642Y926D02*
X1720Y926D01*
X1742Y926D02*
X1820Y926D01*
X542Y925D02*
X621Y925D01*
X642Y925D02*
X721Y925D01*
X742Y925D02*
X821Y925D01*
X842Y925D02*
X921Y925D01*
X942Y925D02*
X1021Y925D01*
X1042Y925D02*
X1121Y925D01*
X1142Y925D02*
X1221Y925D01*
X1242Y925D02*
X1321Y925D01*
X1342Y925D02*
X1421Y925D01*
X1442Y925D02*
X1521Y925D01*
X1542Y925D02*
X1621Y925D01*
X1642Y925D02*
X1720Y925D01*
X1742Y925D02*
X1820Y925D01*
X542Y924D02*
X621Y924D01*
X642Y924D02*
X721Y924D01*
X742Y924D02*
X821Y924D01*
X842Y924D02*
X921Y924D01*
X942Y924D02*
X1021Y924D01*
X1042Y924D02*
X1121Y924D01*
X1142Y924D02*
X1221Y924D01*
X1242Y924D02*
X1321Y924D01*
X1342Y924D02*
X1421Y924D01*
X1442Y924D02*
X1521Y924D01*
X1542Y924D02*
X1621Y924D01*
X1642Y924D02*
X1720Y924D01*
X1742Y924D02*
X1820Y924D01*
X542Y923D02*
X621Y923D01*
X642Y923D02*
X721Y923D01*
X742Y923D02*
X821Y923D01*
X842Y923D02*
X921Y923D01*
X942Y923D02*
X1021Y923D01*
X1042Y923D02*
X1121Y923D01*
X1142Y923D02*
X1221Y923D01*
X1242Y923D02*
X1321Y923D01*
X1342Y923D02*
X1421Y923D01*
X1442Y923D02*
X1521Y923D01*
X1542Y923D02*
X1621Y923D01*
X1642Y923D02*
X1720Y923D01*
X1742Y923D02*
X1820Y923D01*
X542Y922D02*
X621Y922D01*
X642Y922D02*
X721Y922D01*
X742Y922D02*
X821Y922D01*
X842Y922D02*
X921Y922D01*
X942Y922D02*
X1021Y922D01*
X1042Y922D02*
X1121Y922D01*
X1142Y922D02*
X1221Y922D01*
X1242Y922D02*
X1321Y922D01*
X1342Y922D02*
X1421Y922D01*
X1442Y922D02*
X1521Y922D01*
X1542Y922D02*
X1621Y922D01*
X1642Y922D02*
X1720Y922D01*
X1742Y922D02*
X1820Y922D01*
X542Y921D02*
X621Y921D01*
X642Y921D02*
X721Y921D01*
X742Y921D02*
X821Y921D01*
X842Y921D02*
X921Y921D01*
X942Y921D02*
X1021Y921D01*
X1042Y921D02*
X1121Y921D01*
X1142Y921D02*
X1221Y921D01*
X1242Y921D02*
X1321Y921D01*
X1342Y921D02*
X1421Y921D01*
X1442Y921D02*
X1520Y921D01*
X1542Y921D02*
X1620Y921D01*
X1642Y921D02*
X1720Y921D01*
X1742Y921D02*
X1820Y921D01*
X542Y920D02*
X621Y920D01*
X642Y920D02*
X721Y920D01*
X742Y920D02*
X821Y920D01*
X842Y920D02*
X921Y920D01*
X942Y920D02*
X1021Y920D01*
X1042Y920D02*
X1121Y920D01*
X1142Y920D02*
X1220Y920D01*
X1242Y920D02*
X1320Y920D01*
X1342Y920D02*
X1420Y920D01*
X1442Y920D02*
X1520Y920D01*
X1542Y920D02*
X1620Y920D01*
X1642Y920D02*
X1720Y920D01*
X1742Y920D02*
X1820Y920D01*
X542Y919D02*
X621Y919D01*
X642Y919D02*
X721Y919D01*
X742Y919D02*
X820Y919D01*
X842Y919D02*
X920Y919D01*
X942Y919D02*
X1020Y919D01*
X1042Y919D02*
X1120Y919D01*
X1142Y919D02*
X1220Y919D01*
X1242Y919D02*
X1320Y919D01*
X1342Y919D02*
X1420Y919D01*
X1442Y919D02*
X1520Y919D01*
X1542Y919D02*
X1620Y919D01*
X1642Y919D02*
X1720Y919D01*
X1742Y919D02*
X1820Y919D01*
X542Y918D02*
X620Y918D01*
X642Y918D02*
X720Y918D01*
X742Y918D02*
X820Y918D01*
X842Y918D02*
X920Y918D01*
X942Y918D02*
X1020Y918D01*
X1042Y918D02*
X1120Y918D01*
X1142Y918D02*
X1220Y918D01*
X1242Y918D02*
X1320Y918D01*
X1342Y918D02*
X1420Y918D01*
X1442Y918D02*
X1520Y918D01*
X1542Y918D02*
X1620Y918D01*
X1642Y918D02*
X1720Y918D01*
X1742Y918D02*
X1820Y918D01*
X543Y917D02*
X620Y917D01*
X643Y917D02*
X720Y917D01*
X743Y917D02*
X820Y917D01*
X843Y917D02*
X920Y917D01*
X942Y917D02*
X1020Y917D01*
X1042Y917D02*
X1120Y917D01*
X1142Y917D02*
X1220Y917D01*
X1242Y917D02*
X1320Y917D01*
X1342Y917D02*
X1420Y917D01*
X1442Y917D02*
X1520Y917D01*
X1542Y917D02*
X1620Y917D01*
X1642Y917D02*
X1720Y917D01*
X1742Y917D02*
X1820Y917D01*
X543Y916D02*
X620Y916D01*
X643Y916D02*
X720Y916D01*
X743Y916D02*
X820Y916D01*
X843Y916D02*
X920Y916D01*
X943Y916D02*
X1020Y916D01*
X1043Y916D02*
X1120Y916D01*
X1143Y916D02*
X1220Y916D01*
X1243Y916D02*
X1320Y916D01*
X1343Y916D02*
X1420Y916D01*
X1443Y916D02*
X1520Y916D01*
X1542Y916D02*
X1620Y916D01*
X1642Y916D02*
X1720Y916D01*
X1742Y916D02*
X1820Y916D01*
X543Y915D02*
X620Y915D01*
X643Y915D02*
X720Y915D01*
X743Y915D02*
X820Y915D01*
X843Y915D02*
X920Y915D01*
X943Y915D02*
X1020Y915D01*
X1043Y915D02*
X1120Y915D01*
X1143Y915D02*
X1220Y915D01*
X1243Y915D02*
X1319Y915D01*
X1343Y915D02*
X1419Y915D01*
X1443Y915D02*
X1519Y915D01*
X1543Y915D02*
X1619Y915D01*
X1643Y915D02*
X1719Y915D01*
X1743Y915D02*
X1819Y915D01*
X543Y914D02*
X619Y914D01*
X643Y914D02*
X719Y914D01*
X743Y914D02*
X819Y914D01*
X843Y914D02*
X919Y914D01*
X943Y914D02*
X1019Y914D01*
X1043Y914D02*
X1119Y914D01*
X1143Y914D02*
X1219Y914D01*
X1243Y914D02*
X1319Y914D01*
X1343Y914D02*
X1419Y914D01*
X1443Y914D02*
X1519Y914D01*
X1543Y914D02*
X1619Y914D01*
X1643Y914D02*
X1719Y914D01*
X1743Y914D02*
X1819Y914D01*
X544Y913D02*
X619Y913D01*
X644Y913D02*
X719Y913D01*
X744Y913D02*
X819Y913D01*
X844Y913D02*
X919Y913D01*
X944Y913D02*
X1019Y913D01*
X1044Y913D02*
X1119Y913D01*
X1143Y913D02*
X1219Y913D01*
X1243Y913D02*
X1319Y913D01*
X1343Y913D02*
X1419Y913D01*
X1443Y913D02*
X1519Y913D01*
X1543Y913D02*
X1619Y913D01*
X1643Y913D02*
X1719Y913D01*
X1743Y913D02*
X1819Y913D01*
X544Y912D02*
X619Y912D01*
X644Y912D02*
X719Y912D01*
X744Y912D02*
X819Y912D01*
X844Y912D02*
X919Y912D01*
X944Y912D02*
X1019Y912D01*
X1044Y912D02*
X1119Y912D01*
X1144Y912D02*
X1219Y912D01*
X1244Y912D02*
X1319Y912D01*
X1344Y912D02*
X1418Y912D01*
X1444Y912D02*
X1518Y912D01*
X1544Y912D02*
X1618Y912D01*
X1644Y912D02*
X1718Y912D01*
X1744Y912D02*
X1818Y912D01*
X544Y911D02*
X618Y911D01*
X644Y911D02*
X718Y911D01*
X744Y911D02*
X818Y911D01*
X844Y911D02*
X918Y911D01*
X944Y911D02*
X1018Y911D01*
X1044Y911D02*
X1118Y911D01*
X1144Y911D02*
X1218Y911D01*
X1244Y911D02*
X1318Y911D01*
X1344Y911D02*
X1418Y911D01*
X1444Y911D02*
X1518Y911D01*
X1544Y911D02*
X1618Y911D01*
X1644Y911D02*
X1718Y911D01*
X1744Y911D02*
X1818Y911D01*
X545Y910D02*
X618Y910D01*
X645Y910D02*
X718Y910D01*
X745Y910D02*
X818Y910D01*
X845Y910D02*
X918Y910D01*
X945Y910D02*
X1018Y910D01*
X1045Y910D02*
X1118Y910D01*
X1145Y910D02*
X1218Y910D01*
X1245Y910D02*
X1318Y910D01*
X1345Y910D02*
X1418Y910D01*
X1445Y910D02*
X1518Y910D01*
X1544Y910D02*
X1618Y910D01*
X1644Y910D02*
X1718Y910D01*
X1744Y910D02*
X1818Y910D01*
X545Y909D02*
X618Y909D01*
X645Y909D02*
X718Y909D01*
X745Y909D02*
X817Y909D01*
X845Y909D02*
X917Y909D01*
X945Y909D02*
X1017Y909D01*
X1045Y909D02*
X1117Y909D01*
X1145Y909D02*
X1217Y909D01*
X1245Y909D02*
X1317Y909D01*
X1345Y909D02*
X1417Y909D01*
X1445Y909D02*
X1517Y909D01*
X1545Y909D02*
X1617Y909D01*
X1645Y909D02*
X1717Y909D01*
X1745Y909D02*
X1817Y909D01*
X546Y908D02*
X617Y908D01*
X646Y908D02*
X717Y908D01*
X746Y908D02*
X817Y908D01*
X846Y908D02*
X917Y908D01*
X946Y908D02*
X1017Y908D01*
X1046Y908D02*
X1117Y908D01*
X1146Y908D02*
X1217Y908D01*
X1246Y908D02*
X1317Y908D01*
X1345Y908D02*
X1417Y908D01*
X1445Y908D02*
X1517Y908D01*
X1545Y908D02*
X1617Y908D01*
X1645Y908D02*
X1717Y908D01*
X1745Y908D02*
X1817Y908D01*
X546Y907D02*
X617Y907D01*
X646Y907D02*
X717Y907D01*
X746Y907D02*
X816Y907D01*
X846Y907D02*
X916Y907D01*
X946Y907D02*
X1016Y907D01*
X1046Y907D02*
X1116Y907D01*
X1146Y907D02*
X1216Y907D01*
X1246Y907D02*
X1316Y907D01*
X1346Y907D02*
X1416Y907D01*
X1446Y907D02*
X1516Y907D01*
X1546Y907D02*
X1616Y907D01*
X1646Y907D02*
X1716Y907D01*
X1746Y907D02*
X1816Y907D01*
X547Y906D02*
X616Y906D01*
X647Y906D02*
X716Y906D01*
X747Y906D02*
X816Y906D01*
X847Y906D02*
X916Y906D01*
X947Y906D02*
X1016Y906D01*
X1047Y906D02*
X1116Y906D01*
X1147Y906D02*
X1216Y906D01*
X1247Y906D02*
X1316Y906D01*
X1347Y906D02*
X1416Y906D01*
X1446Y906D02*
X1516Y906D01*
X1546Y906D02*
X1616Y906D01*
X1646Y906D02*
X1716Y906D01*
X1746Y906D02*
X1816Y906D01*
X547Y905D02*
X615Y905D01*
X647Y905D02*
X715Y905D01*
X747Y905D02*
X815Y905D01*
X847Y905D02*
X915Y905D01*
X947Y905D02*
X1015Y905D01*
X1047Y905D02*
X1115Y905D01*
X1147Y905D02*
X1215Y905D01*
X1247Y905D02*
X1315Y905D01*
X1347Y905D02*
X1415Y905D01*
X1447Y905D02*
X1515Y905D01*
X1547Y905D02*
X1615Y905D01*
X1647Y905D02*
X1715Y905D01*
X1747Y905D02*
X1815Y905D01*
X548Y904D02*
X615Y904D01*
X648Y904D02*
X715Y904D01*
X748Y904D02*
X815Y904D01*
X848Y904D02*
X915Y904D01*
X948Y904D02*
X1015Y904D01*
X1048Y904D02*
X1115Y904D01*
X1148Y904D02*
X1215Y904D01*
X1248Y904D02*
X1315Y904D01*
X1348Y904D02*
X1415Y904D01*
X1448Y904D02*
X1514Y904D01*
X1548Y904D02*
X1614Y904D01*
X1648Y904D02*
X1714Y904D01*
X1748Y904D02*
X1814Y904D01*
X549Y903D02*
X614Y903D01*
X649Y903D02*
X714Y903D01*
X749Y903D02*
X814Y903D01*
X849Y903D02*
X914Y903D01*
X949Y903D02*
X1014Y903D01*
X1048Y903D02*
X1114Y903D01*
X1148Y903D02*
X1214Y903D01*
X1248Y903D02*
X1314Y903D01*
X1348Y903D02*
X1414Y903D01*
X1448Y903D02*
X1514Y903D01*
X1548Y903D02*
X1614Y903D01*
X1648Y903D02*
X1714Y903D01*
X1748Y903D02*
X1814Y903D01*
X549Y902D02*
X613Y902D01*
X649Y902D02*
X713Y902D01*
X749Y902D02*
X813Y902D01*
X849Y902D02*
X913Y902D01*
X949Y902D02*
X1013Y902D01*
X1049Y902D02*
X1113Y902D01*
X1149Y902D02*
X1213Y902D01*
X1249Y902D02*
X1313Y902D01*
X1349Y902D02*
X1413Y902D01*
X1449Y902D02*
X1513Y902D01*
X1549Y902D02*
X1613Y902D01*
X1649Y902D02*
X1713Y902D01*
X1749Y902D02*
X1813Y902D01*
X550Y901D02*
X613Y901D01*
X650Y901D02*
X713Y901D01*
X750Y901D02*
X813Y901D01*
X850Y901D02*
X913Y901D01*
X950Y901D02*
X1013Y901D01*
X1050Y901D02*
X1113Y901D01*
X1150Y901D02*
X1212Y901D01*
X1250Y901D02*
X1312Y901D01*
X1350Y901D02*
X1412Y901D01*
X1450Y901D02*
X1512Y901D01*
X1550Y901D02*
X1612Y901D01*
X1650Y901D02*
X1712Y901D01*
X1750Y901D02*
X1812Y901D01*
X551Y900D02*
X612Y900D01*
X651Y900D02*
X712Y900D01*
X751Y900D02*
X812Y900D01*
X851Y900D02*
X912Y900D01*
X951Y900D02*
X1012Y900D01*
X1051Y900D02*
X1112Y900D01*
X1151Y900D02*
X1212Y900D01*
X1251Y900D02*
X1312Y900D01*
X1351Y900D02*
X1412Y900D01*
X1451Y900D02*
X1512Y900D01*
X1551Y900D02*
X1612Y900D01*
X1650Y900D02*
X1712Y900D01*
X1750Y900D02*
X1812Y900D01*
X552Y899D02*
X611Y899D01*
X652Y899D02*
X711Y899D01*
X752Y899D02*
X811Y899D01*
X852Y899D02*
X911Y899D01*
X952Y899D02*
X1011Y899D01*
X1052Y899D02*
X1111Y899D01*
X1151Y899D02*
X1211Y899D01*
X1251Y899D02*
X1311Y899D01*
X1351Y899D02*
X1411Y899D01*
X1451Y899D02*
X1511Y899D01*
X1551Y899D02*
X1611Y899D01*
X1651Y899D02*
X1711Y899D01*
X1751Y899D02*
X1811Y899D01*
X553Y898D02*
X610Y898D01*
X653Y898D02*
X710Y898D01*
X753Y898D02*
X810Y898D01*
X852Y898D02*
X910Y898D01*
X952Y898D02*
X1010Y898D01*
X1052Y898D02*
X1110Y898D01*
X1152Y898D02*
X1210Y898D01*
X1252Y898D02*
X1310Y898D01*
X1352Y898D02*
X1410Y898D01*
X1452Y898D02*
X1510Y898D01*
X1552Y898D02*
X1610Y898D01*
X1652Y898D02*
X1710Y898D01*
X1752Y898D02*
X1810Y898D01*
X553Y897D02*
X609Y897D01*
X653Y897D02*
X709Y897D01*
X753Y897D02*
X809Y897D01*
X853Y897D02*
X909Y897D01*
X953Y897D02*
X1009Y897D01*
X1053Y897D02*
X1109Y897D01*
X1153Y897D02*
X1209Y897D01*
X1253Y897D02*
X1309Y897D01*
X1353Y897D02*
X1409Y897D01*
X1453Y897D02*
X1509Y897D01*
X1553Y897D02*
X1609Y897D01*
X1653Y897D02*
X1709Y897D01*
X1753Y897D02*
X1809Y897D01*
X554Y896D02*
X608Y896D01*
X654Y896D02*
X708Y896D01*
X754Y896D02*
X808Y896D01*
X854Y896D02*
X908Y896D01*
X954Y896D02*
X1008Y896D01*
X1054Y896D02*
X1108Y896D01*
X1154Y896D02*
X1208Y896D01*
X1254Y896D02*
X1308Y896D01*
X1354Y896D02*
X1408Y896D01*
X1454Y896D02*
X1508Y896D01*
X1554Y896D02*
X1608Y896D01*
X1654Y896D02*
X1708Y896D01*
X1754Y896D02*
X1808Y896D01*
X556Y895D02*
X607Y895D01*
X655Y895D02*
X707Y895D01*
X755Y895D02*
X807Y895D01*
X855Y895D02*
X907Y895D01*
X955Y895D02*
X1007Y895D01*
X1055Y895D02*
X1107Y895D01*
X1155Y895D02*
X1207Y895D01*
X1255Y895D02*
X1307Y895D01*
X1355Y895D02*
X1407Y895D01*
X1455Y895D02*
X1507Y895D01*
X1555Y895D02*
X1607Y895D01*
X1655Y895D02*
X1707Y895D01*
X1755Y895D02*
X1807Y895D01*
X557Y894D02*
X606Y894D01*
X657Y894D02*
X706Y894D01*
X757Y894D02*
X806Y894D01*
X856Y894D02*
X906Y894D01*
X956Y894D02*
X1006Y894D01*
X1056Y894D02*
X1106Y894D01*
X1156Y894D02*
X1206Y894D01*
X1256Y894D02*
X1306Y894D01*
X1356Y894D02*
X1406Y894D01*
X1456Y894D02*
X1506Y894D01*
X1556Y894D02*
X1606Y894D01*
X1656Y894D02*
X1706Y894D01*
X1756Y894D02*
X1806Y894D01*
X558Y893D02*
X605Y893D01*
X658Y893D02*
X705Y893D01*
X758Y893D02*
X805Y893D01*
X858Y893D02*
X905Y893D01*
X958Y893D02*
X1005Y893D01*
X1058Y893D02*
X1105Y893D01*
X1158Y893D02*
X1205Y893D01*
X1258Y893D02*
X1305Y893D01*
X1357Y893D02*
X1405Y893D01*
X1457Y893D02*
X1505Y893D01*
X1557Y893D02*
X1605Y893D01*
X1657Y893D02*
X1705Y893D01*
X1757Y893D02*
X1805Y893D01*
X559Y892D02*
X604Y892D01*
X659Y892D02*
X704Y892D01*
X759Y892D02*
X804Y892D01*
X859Y892D02*
X904Y892D01*
X959Y892D02*
X1004Y892D01*
X1059Y892D02*
X1104Y892D01*
X1159Y892D02*
X1204Y892D01*
X1259Y892D02*
X1304Y892D01*
X1359Y892D02*
X1404Y892D01*
X1459Y892D02*
X1503Y892D01*
X1559Y892D02*
X1603Y892D01*
X1659Y892D02*
X1703Y892D01*
X1759Y892D02*
X1803Y892D01*
X560Y891D02*
X602Y891D01*
X660Y891D02*
X702Y891D01*
X760Y891D02*
X802Y891D01*
X860Y891D02*
X902Y891D01*
X960Y891D02*
X1002Y891D01*
X1060Y891D02*
X1102Y891D01*
X1160Y891D02*
X1202Y891D01*
X1260Y891D02*
X1302Y891D01*
X1360Y891D02*
X1402Y891D01*
X1460Y891D02*
X1502Y891D01*
X1560Y891D02*
X1602Y891D01*
X1660Y891D02*
X1702Y891D01*
X1760Y891D02*
X1802Y891D01*
X562Y890D02*
X601Y890D01*
X662Y890D02*
X701Y890D01*
X762Y890D02*
X801Y890D01*
X862Y890D02*
X901Y890D01*
X962Y890D02*
X1001Y890D01*
X1062Y890D02*
X1101Y890D01*
X1162Y890D02*
X1201Y890D01*
X1262Y890D02*
X1301Y890D01*
X1362Y890D02*
X1401Y890D01*
X1462Y890D02*
X1501Y890D01*
X1561Y890D02*
X1601Y890D01*
X1661Y890D02*
X1701Y890D01*
X1761Y890D02*
X1801Y890D01*
X563Y889D02*
X599Y889D01*
X663Y889D02*
X699Y889D01*
X763Y889D02*
X799Y889D01*
X863Y889D02*
X899Y889D01*
X963Y889D02*
X999Y889D01*
X1063Y889D02*
X1099Y889D01*
X1163Y889D02*
X1199Y889D01*
X1263Y889D02*
X1299Y889D01*
X1363Y889D02*
X1399Y889D01*
X1463Y889D02*
X1499Y889D01*
X1563Y889D02*
X1599Y889D01*
X1663Y889D02*
X1699Y889D01*
X1763Y889D02*
X1799Y889D01*
X565Y888D02*
X598Y888D01*
X665Y888D02*
X698Y888D01*
X765Y888D02*
X798Y888D01*
X865Y888D02*
X898Y888D01*
X965Y888D02*
X997Y888D01*
X1065Y888D02*
X1097Y888D01*
X1165Y888D02*
X1197Y888D01*
X1265Y888D02*
X1297Y888D01*
X1365Y888D02*
X1397Y888D01*
X1465Y888D02*
X1497Y888D01*
X1565Y888D02*
X1597Y888D01*
X1665Y888D02*
X1697Y888D01*
X1765Y888D02*
X1797Y888D01*
X567Y887D02*
X596Y887D01*
X667Y887D02*
X696Y887D01*
X767Y887D02*
X796Y887D01*
X867Y887D02*
X896Y887D01*
X967Y887D02*
X995Y887D01*
X1067Y887D02*
X1095Y887D01*
X1167Y887D02*
X1195Y887D01*
X1267Y887D02*
X1295Y887D01*
X1367Y887D02*
X1395Y887D01*
X1467Y887D02*
X1495Y887D01*
X1567Y887D02*
X1595Y887D01*
X1667Y887D02*
X1695Y887D01*
X1767Y887D02*
X1795Y887D01*
X570Y886D02*
X593Y886D01*
X670Y886D02*
X693Y886D01*
X769Y886D02*
X793Y886D01*
X869Y886D02*
X893Y886D01*
X969Y886D02*
X993Y886D01*
X1069Y886D02*
X1093Y886D01*
X1169Y886D02*
X1193Y886D01*
X1269Y886D02*
X1293Y886D01*
X1369Y886D02*
X1393Y886D01*
X1469Y886D02*
X1493Y886D01*
X1569Y886D02*
X1593Y886D01*
X1669Y886D02*
X1693Y886D01*
X1769Y886D02*
X1793Y886D01*
X572Y885D02*
X590Y885D01*
X672Y885D02*
X690Y885D01*
X772Y885D02*
X790Y885D01*
X872Y885D02*
X890Y885D01*
X972Y885D02*
X990Y885D01*
X1072Y885D02*
X1090Y885D01*
X1172Y885D02*
X1190Y885D01*
X1272Y885D02*
X1290Y885D01*
X1372Y885D02*
X1390Y885D01*
X1472Y885D02*
X1490Y885D01*
X1572Y885D02*
X1590Y885D01*
X1672Y885D02*
X1690Y885D01*
X1772Y885D02*
X1790Y885D01*
X577Y884D02*
X586Y884D01*
X677Y884D02*
X686Y884D01*
X777Y884D02*
X786Y884D01*
X877Y884D02*
X886Y884D01*
X977Y884D02*
X986Y884D01*
X1076Y884D02*
X1086Y884D01*
X1176Y884D02*
X1186Y884D01*
X1276Y884D02*
X1286Y884D01*
X1376Y884D02*
X1386Y884D01*
X1476Y884D02*
X1486Y884D01*
X1576Y884D02*
X1586Y884D01*
X1676Y884D02*
X1686Y884D01*
X1776Y884D02*
X1786Y884D01*
D02*
G04 End of Mask0*
M02*