G04 MADE WITH FRITZING*
G04 WWW.FRITZING.ORG*
G04 DOUBLE SIDED*
G04 HOLES PLATED*
G04 CONTOUR ON CENTER OF CONTOUR VECTOR*
%ASAXBY*%
%FSLAX23Y23*%
%MOIN*%
%OFA0B0*%
%SFA1.0B1.0*%
%ADD10C,0.092000X0.068*%
%ADD11C,0.010000*%
%ADD12C,0.005000*%
%ADD13R,0.001000X0.001000*%
%LNSILK1*%
G90*
G70*
G54D10*
X1269Y623D03*
G54D11*
X816Y116D02*
X816Y16D01*
D02*
X816Y16D02*
X916Y16D01*
D02*
X916Y16D02*
X916Y116D01*
D02*
X916Y116D02*
X816Y116D01*
G54D12*
D02*
X816Y81D02*
X851Y116D01*
G54D11*
D02*
X72Y116D02*
X72Y16D01*
D02*
X72Y16D02*
X172Y16D01*
D02*
X172Y16D02*
X172Y116D01*
D02*
X172Y116D02*
X72Y116D01*
G54D12*
D02*
X72Y81D02*
X107Y116D01*
G54D11*
D02*
X690Y116D02*
X690Y16D01*
D02*
X690Y16D02*
X790Y16D01*
D02*
X790Y16D02*
X790Y116D01*
D02*
X790Y116D02*
X690Y116D01*
G54D12*
D02*
X690Y81D02*
X725Y116D01*
G54D11*
D02*
X360Y518D02*
X360Y418D01*
D02*
X360Y418D02*
X460Y418D01*
D02*
X460Y418D02*
X460Y518D01*
D02*
X460Y518D02*
X360Y518D01*
G54D12*
D02*
X360Y483D02*
X395Y518D01*
G54D11*
D02*
X474Y518D02*
X474Y418D01*
D02*
X474Y418D02*
X574Y418D01*
D02*
X574Y418D02*
X574Y518D01*
D02*
X574Y518D02*
X474Y518D01*
G54D12*
D02*
X474Y483D02*
X509Y518D01*
G54D11*
D02*
X316Y116D02*
X316Y16D01*
D02*
X316Y16D02*
X416Y16D01*
D02*
X416Y16D02*
X416Y116D01*
D02*
X416Y116D02*
X316Y116D01*
G54D12*
D02*
X316Y81D02*
X351Y116D01*
G54D11*
D02*
X194Y116D02*
X194Y16D01*
D02*
X194Y16D02*
X294Y16D01*
D02*
X294Y16D02*
X294Y116D01*
D02*
X294Y116D02*
X194Y116D01*
G54D12*
D02*
X194Y81D02*
X229Y116D01*
G54D11*
D02*
X1312Y955D02*
X1312Y855D01*
D02*
X1312Y855D02*
X1412Y855D01*
D02*
X1412Y855D02*
X1412Y955D01*
D02*
X1412Y955D02*
X1312Y955D01*
G54D12*
D02*
X1312Y920D02*
X1347Y955D01*
G54D11*
D02*
X1304Y116D02*
X1304Y16D01*
D02*
X1304Y16D02*
X1404Y16D01*
D02*
X1404Y16D02*
X1404Y116D01*
D02*
X1404Y116D02*
X1304Y116D01*
G54D12*
D02*
X1304Y81D02*
X1339Y116D01*
G54D11*
D02*
X1056Y116D02*
X1056Y16D01*
D02*
X1056Y16D02*
X1156Y16D01*
D02*
X1156Y16D02*
X1156Y116D01*
D02*
X1156Y116D02*
X1056Y116D01*
G54D12*
D02*
X1056Y81D02*
X1091Y116D01*
G54D11*
D02*
X438Y116D02*
X438Y16D01*
D02*
X438Y16D02*
X538Y16D01*
D02*
X538Y16D02*
X538Y116D01*
D02*
X538Y116D02*
X438Y116D01*
G54D12*
D02*
X438Y81D02*
X473Y116D01*
G54D11*
D02*
X1182Y116D02*
X1182Y16D01*
D02*
X1182Y16D02*
X1282Y16D01*
D02*
X1282Y16D02*
X1282Y116D01*
D02*
X1282Y116D02*
X1182Y116D01*
G54D12*
D02*
X1182Y81D02*
X1217Y116D01*
G54D11*
D02*
X946Y116D02*
X946Y16D01*
D02*
X946Y16D02*
X1046Y16D01*
D02*
X1046Y16D02*
X1046Y116D01*
D02*
X1046Y116D02*
X946Y116D01*
G54D12*
D02*
X946Y81D02*
X981Y116D01*
G54D11*
D02*
X564Y116D02*
X564Y16D01*
D02*
X564Y16D02*
X664Y16D01*
D02*
X664Y16D02*
X664Y116D01*
D02*
X664Y116D02*
X564Y116D01*
G54D12*
D02*
X564Y81D02*
X599Y116D01*
G54D11*
D02*
X1105Y553D02*
X805Y553D01*
D02*
X805Y553D02*
X805Y453D01*
D02*
X805Y453D02*
X1105Y453D01*
D02*
X1105Y453D02*
X1105Y553D01*
G54D12*
D02*
X1070Y553D02*
X1105Y518D01*
G54D13*
X7Y1403D02*
X15Y1403D01*
X7Y1402D02*
X14Y1402D01*
X7Y1401D02*
X14Y1401D01*
X7Y1400D02*
X14Y1400D01*
X7Y1399D02*
X14Y1399D01*
X7Y1398D02*
X14Y1398D01*
X7Y1397D02*
X14Y1397D01*
X7Y1396D02*
X14Y1396D01*
X7Y1395D02*
X14Y1395D01*
X7Y1394D02*
X14Y1394D01*
X7Y1393D02*
X14Y1393D01*
X7Y1392D02*
X14Y1392D01*
X7Y1391D02*
X14Y1391D01*
X7Y1390D02*
X14Y1390D01*
X7Y1389D02*
X14Y1389D01*
X7Y1388D02*
X14Y1388D01*
X1216Y1388D02*
X1219Y1388D01*
X1292Y1388D02*
X1296Y1388D01*
X7Y1387D02*
X14Y1387D01*
X1108Y1387D02*
X1109Y1387D01*
X1123Y1387D02*
X1123Y1387D01*
X1215Y1387D02*
X1219Y1387D01*
X1261Y1387D02*
X1274Y1387D01*
X1292Y1387D02*
X1296Y1387D01*
X1366Y1387D02*
X1378Y1387D01*
X1417Y1387D02*
X1417Y1387D01*
X7Y1386D02*
X14Y1386D01*
X1108Y1386D02*
X1110Y1386D01*
X1122Y1386D02*
X1124Y1386D01*
X1215Y1386D02*
X1219Y1386D01*
X1261Y1386D02*
X1276Y1386D01*
X1292Y1386D02*
X1296Y1386D01*
X1365Y1386D02*
X1379Y1386D01*
X1416Y1386D02*
X1418Y1386D01*
X7Y1385D02*
X14Y1385D01*
X1107Y1385D02*
X1110Y1385D01*
X1122Y1385D02*
X1124Y1385D01*
X1188Y1385D02*
X1190Y1385D01*
X1215Y1385D02*
X1219Y1385D01*
X1261Y1385D02*
X1277Y1385D01*
X1292Y1385D02*
X1296Y1385D01*
X1364Y1385D02*
X1380Y1385D01*
X1416Y1385D02*
X1418Y1385D01*
X7Y1384D02*
X14Y1384D01*
X1107Y1384D02*
X1110Y1384D01*
X1122Y1384D02*
X1124Y1384D01*
X1188Y1384D02*
X1190Y1384D01*
X1216Y1384D02*
X1219Y1384D01*
X1261Y1384D02*
X1277Y1384D01*
X1293Y1384D02*
X1296Y1384D01*
X1364Y1384D02*
X1380Y1384D01*
X1416Y1384D02*
X1418Y1384D01*
X1427Y1384D02*
X1428Y1384D01*
X7Y1383D02*
X14Y1383D01*
X1107Y1383D02*
X1110Y1383D01*
X1122Y1383D02*
X1124Y1383D01*
X1188Y1383D02*
X1190Y1383D01*
X1261Y1383D02*
X1264Y1383D01*
X1275Y1383D02*
X1278Y1383D01*
X1364Y1383D02*
X1366Y1383D01*
X1378Y1383D02*
X1380Y1383D01*
X1416Y1383D02*
X1418Y1383D01*
X1426Y1383D02*
X1429Y1383D01*
X7Y1382D02*
X14Y1382D01*
X1107Y1382D02*
X1110Y1382D01*
X1122Y1382D02*
X1124Y1382D01*
X1188Y1382D02*
X1190Y1382D01*
X1261Y1382D02*
X1264Y1382D01*
X1275Y1382D02*
X1278Y1382D01*
X1364Y1382D02*
X1366Y1382D01*
X1378Y1382D02*
X1380Y1382D01*
X1416Y1382D02*
X1418Y1382D01*
X1426Y1382D02*
X1429Y1382D01*
X7Y1381D02*
X14Y1381D01*
X1107Y1381D02*
X1110Y1381D01*
X1122Y1381D02*
X1124Y1381D01*
X1188Y1381D02*
X1190Y1381D01*
X1261Y1381D02*
X1264Y1381D01*
X1275Y1381D02*
X1278Y1381D01*
X1364Y1381D02*
X1366Y1381D01*
X1378Y1381D02*
X1380Y1381D01*
X1416Y1381D02*
X1418Y1381D01*
X1426Y1381D02*
X1429Y1381D01*
X7Y1380D02*
X14Y1380D01*
X1107Y1380D02*
X1110Y1380D01*
X1122Y1380D02*
X1124Y1380D01*
X1188Y1380D02*
X1190Y1380D01*
X1261Y1380D02*
X1264Y1380D01*
X1275Y1380D02*
X1278Y1380D01*
X1364Y1380D02*
X1366Y1380D01*
X1378Y1380D02*
X1380Y1380D01*
X1416Y1380D02*
X1418Y1380D01*
X1426Y1380D02*
X1429Y1380D01*
X7Y1379D02*
X14Y1379D01*
X1107Y1379D02*
X1110Y1379D01*
X1122Y1379D02*
X1124Y1379D01*
X1137Y1379D02*
X1146Y1379D01*
X1161Y1379D02*
X1173Y1379D01*
X1185Y1379D02*
X1199Y1379D01*
X1212Y1379D02*
X1219Y1379D01*
X1239Y1379D02*
X1249Y1379D01*
X1261Y1379D02*
X1264Y1379D01*
X1275Y1379D02*
X1278Y1379D01*
X1289Y1379D02*
X1296Y1379D01*
X1338Y1379D02*
X1340Y1379D01*
X1352Y1379D02*
X1354Y1379D01*
X1364Y1379D02*
X1366Y1379D01*
X1378Y1379D02*
X1380Y1379D01*
X1416Y1379D02*
X1418Y1379D01*
X1426Y1379D02*
X1429Y1379D01*
X7Y1378D02*
X14Y1378D01*
X1107Y1378D02*
X1110Y1378D01*
X1122Y1378D02*
X1124Y1378D01*
X1136Y1378D02*
X1147Y1378D01*
X1160Y1378D02*
X1174Y1378D01*
X1185Y1378D02*
X1199Y1378D01*
X1212Y1378D02*
X1219Y1378D01*
X1239Y1378D02*
X1250Y1378D01*
X1261Y1378D02*
X1264Y1378D01*
X1275Y1378D02*
X1278Y1378D01*
X1288Y1378D02*
X1296Y1378D01*
X1338Y1378D02*
X1340Y1378D01*
X1352Y1378D02*
X1355Y1378D01*
X1364Y1378D02*
X1366Y1378D01*
X1378Y1378D02*
X1380Y1378D01*
X1416Y1378D02*
X1418Y1378D01*
X1426Y1378D02*
X1429Y1378D01*
X7Y1377D02*
X14Y1377D01*
X1107Y1377D02*
X1110Y1377D01*
X1122Y1377D02*
X1124Y1377D01*
X1135Y1377D02*
X1148Y1377D01*
X1159Y1377D02*
X1175Y1377D01*
X1185Y1377D02*
X1199Y1377D01*
X1212Y1377D02*
X1219Y1377D01*
X1239Y1377D02*
X1251Y1377D01*
X1261Y1377D02*
X1264Y1377D01*
X1275Y1377D02*
X1278Y1377D01*
X1289Y1377D02*
X1296Y1377D01*
X1338Y1377D02*
X1341Y1377D01*
X1352Y1377D02*
X1355Y1377D01*
X1364Y1377D02*
X1366Y1377D01*
X1378Y1377D02*
X1380Y1377D01*
X1416Y1377D02*
X1418Y1377D01*
X1426Y1377D02*
X1429Y1377D01*
X7Y1376D02*
X14Y1376D01*
X1107Y1376D02*
X1110Y1376D01*
X1122Y1376D02*
X1124Y1376D01*
X1134Y1376D02*
X1138Y1376D01*
X1145Y1376D02*
X1149Y1376D01*
X1159Y1376D02*
X1162Y1376D01*
X1172Y1376D02*
X1175Y1376D01*
X1187Y1376D02*
X1191Y1376D01*
X1217Y1376D02*
X1219Y1376D01*
X1248Y1376D02*
X1252Y1376D01*
X1261Y1376D02*
X1264Y1376D01*
X1275Y1376D02*
X1278Y1376D01*
X1293Y1376D02*
X1296Y1376D01*
X1338Y1376D02*
X1341Y1376D01*
X1352Y1376D02*
X1355Y1376D01*
X1364Y1376D02*
X1366Y1376D01*
X1378Y1376D02*
X1380Y1376D01*
X1416Y1376D02*
X1418Y1376D01*
X1426Y1376D02*
X1429Y1376D01*
X7Y1375D02*
X14Y1375D01*
X1107Y1375D02*
X1124Y1375D01*
X1133Y1375D02*
X1137Y1375D01*
X1146Y1375D02*
X1149Y1375D01*
X1159Y1375D02*
X1162Y1375D01*
X1173Y1375D02*
X1174Y1375D01*
X1188Y1375D02*
X1190Y1375D01*
X1217Y1375D02*
X1219Y1375D01*
X1249Y1375D02*
X1252Y1375D01*
X1261Y1375D02*
X1264Y1375D01*
X1275Y1375D02*
X1278Y1375D01*
X1294Y1375D02*
X1296Y1375D01*
X1338Y1375D02*
X1341Y1375D01*
X1352Y1375D02*
X1355Y1375D01*
X1364Y1375D02*
X1366Y1375D01*
X1378Y1375D02*
X1380Y1375D01*
X1416Y1375D02*
X1418Y1375D01*
X1426Y1375D02*
X1429Y1375D01*
X7Y1374D02*
X14Y1374D01*
X1107Y1374D02*
X1124Y1374D01*
X1133Y1374D02*
X1136Y1374D01*
X1147Y1374D02*
X1150Y1374D01*
X1159Y1374D02*
X1163Y1374D01*
X1188Y1374D02*
X1190Y1374D01*
X1217Y1374D02*
X1219Y1374D01*
X1249Y1374D02*
X1252Y1374D01*
X1261Y1374D02*
X1264Y1374D01*
X1274Y1374D02*
X1278Y1374D01*
X1294Y1374D02*
X1296Y1374D01*
X1338Y1374D02*
X1341Y1374D01*
X1351Y1374D02*
X1354Y1374D01*
X1364Y1374D02*
X1366Y1374D01*
X1378Y1374D02*
X1380Y1374D01*
X1416Y1374D02*
X1418Y1374D01*
X1426Y1374D02*
X1429Y1374D01*
X7Y1373D02*
X14Y1373D01*
X1107Y1373D02*
X1124Y1373D01*
X1133Y1373D02*
X1136Y1373D01*
X1147Y1373D02*
X1150Y1373D01*
X1160Y1373D02*
X1165Y1373D01*
X1188Y1373D02*
X1190Y1373D01*
X1217Y1373D02*
X1219Y1373D01*
X1249Y1373D02*
X1252Y1373D01*
X1261Y1373D02*
X1277Y1373D01*
X1294Y1373D02*
X1296Y1373D01*
X1339Y1373D02*
X1341Y1373D01*
X1351Y1373D02*
X1354Y1373D01*
X1364Y1373D02*
X1366Y1373D01*
X1378Y1373D02*
X1380Y1373D01*
X1416Y1373D02*
X1418Y1373D01*
X1426Y1373D02*
X1429Y1373D01*
X7Y1372D02*
X14Y1372D01*
X1107Y1372D02*
X1124Y1372D01*
X1133Y1372D02*
X1136Y1372D01*
X1147Y1372D02*
X1150Y1372D01*
X1160Y1372D02*
X1167Y1372D01*
X1188Y1372D02*
X1190Y1372D01*
X1217Y1372D02*
X1219Y1372D01*
X1239Y1372D02*
X1252Y1372D01*
X1261Y1372D02*
X1276Y1372D01*
X1294Y1372D02*
X1296Y1372D01*
X1339Y1372D02*
X1342Y1372D01*
X1351Y1372D02*
X1353Y1372D01*
X1364Y1372D02*
X1366Y1372D01*
X1378Y1372D02*
X1380Y1372D01*
X1416Y1372D02*
X1429Y1372D01*
X7Y1371D02*
X14Y1371D01*
X1107Y1371D02*
X1110Y1371D01*
X1122Y1371D02*
X1124Y1371D01*
X1133Y1371D02*
X1136Y1371D01*
X1147Y1371D02*
X1150Y1371D01*
X1162Y1371D02*
X1170Y1371D01*
X1188Y1371D02*
X1190Y1371D01*
X1217Y1371D02*
X1219Y1371D01*
X1237Y1371D02*
X1252Y1371D01*
X1261Y1371D02*
X1275Y1371D01*
X1294Y1371D02*
X1296Y1371D01*
X1339Y1371D02*
X1342Y1371D01*
X1350Y1371D02*
X1353Y1371D01*
X1364Y1371D02*
X1366Y1371D01*
X1378Y1371D02*
X1380Y1371D01*
X1416Y1371D02*
X1430Y1371D01*
X7Y1370D02*
X14Y1370D01*
X1107Y1370D02*
X1110Y1370D01*
X1122Y1370D02*
X1124Y1370D01*
X1133Y1370D02*
X1150Y1370D01*
X1164Y1370D02*
X1172Y1370D01*
X1188Y1370D02*
X1190Y1370D01*
X1217Y1370D02*
X1219Y1370D01*
X1237Y1370D02*
X1252Y1370D01*
X1261Y1370D02*
X1264Y1370D01*
X1294Y1370D02*
X1296Y1370D01*
X1340Y1370D02*
X1343Y1370D01*
X1350Y1370D02*
X1353Y1370D01*
X1364Y1370D02*
X1366Y1370D01*
X1378Y1370D02*
X1380Y1370D01*
X1395Y1370D02*
X1400Y1370D01*
X1416Y1370D02*
X1430Y1370D01*
X7Y1369D02*
X14Y1369D01*
X1107Y1369D02*
X1110Y1369D01*
X1122Y1369D02*
X1124Y1369D01*
X1133Y1369D02*
X1150Y1369D01*
X1166Y1369D02*
X1173Y1369D01*
X1188Y1369D02*
X1190Y1369D01*
X1217Y1369D02*
X1219Y1369D01*
X1236Y1369D02*
X1252Y1369D01*
X1261Y1369D02*
X1264Y1369D01*
X1294Y1369D02*
X1296Y1369D01*
X1340Y1369D02*
X1343Y1369D01*
X1349Y1369D02*
X1352Y1369D01*
X1364Y1369D02*
X1366Y1369D01*
X1378Y1369D02*
X1380Y1369D01*
X1394Y1369D02*
X1401Y1369D01*
X1416Y1369D02*
X1430Y1369D01*
X7Y1368D02*
X14Y1368D01*
X1107Y1368D02*
X1110Y1368D01*
X1122Y1368D02*
X1124Y1368D01*
X1133Y1368D02*
X1149Y1368D01*
X1169Y1368D02*
X1174Y1368D01*
X1188Y1368D02*
X1190Y1368D01*
X1217Y1368D02*
X1219Y1368D01*
X1236Y1368D02*
X1239Y1368D01*
X1249Y1368D02*
X1252Y1368D01*
X1261Y1368D02*
X1264Y1368D01*
X1294Y1368D02*
X1296Y1368D01*
X1341Y1368D02*
X1344Y1368D01*
X1349Y1368D02*
X1352Y1368D01*
X1364Y1368D02*
X1366Y1368D01*
X1378Y1368D02*
X1380Y1368D01*
X1394Y1368D02*
X1401Y1368D01*
X1426Y1368D02*
X1429Y1368D01*
X7Y1367D02*
X14Y1367D01*
X1107Y1367D02*
X1110Y1367D01*
X1122Y1367D02*
X1124Y1367D01*
X1133Y1367D02*
X1136Y1367D01*
X1171Y1367D02*
X1175Y1367D01*
X1188Y1367D02*
X1190Y1367D01*
X1217Y1367D02*
X1219Y1367D01*
X1236Y1367D02*
X1238Y1367D01*
X1249Y1367D02*
X1252Y1367D01*
X1261Y1367D02*
X1264Y1367D01*
X1294Y1367D02*
X1296Y1367D01*
X1341Y1367D02*
X1344Y1367D01*
X1348Y1367D02*
X1351Y1367D01*
X1364Y1367D02*
X1366Y1367D01*
X1378Y1367D02*
X1380Y1367D01*
X1394Y1367D02*
X1401Y1367D01*
X1426Y1367D02*
X1429Y1367D01*
X7Y1366D02*
X14Y1366D01*
X1107Y1366D02*
X1110Y1366D01*
X1122Y1366D02*
X1124Y1366D01*
X1133Y1366D02*
X1136Y1366D01*
X1172Y1366D02*
X1175Y1366D01*
X1188Y1366D02*
X1190Y1366D01*
X1199Y1366D02*
X1200Y1366D01*
X1217Y1366D02*
X1219Y1366D01*
X1235Y1366D02*
X1238Y1366D01*
X1249Y1366D02*
X1252Y1366D01*
X1261Y1366D02*
X1264Y1366D01*
X1294Y1366D02*
X1296Y1366D01*
X1342Y1366D02*
X1345Y1366D01*
X1348Y1366D02*
X1351Y1366D01*
X1364Y1366D02*
X1366Y1366D01*
X1378Y1366D02*
X1380Y1366D01*
X1394Y1366D02*
X1401Y1366D01*
X1426Y1366D02*
X1429Y1366D01*
X7Y1365D02*
X14Y1365D01*
X1107Y1365D02*
X1110Y1365D01*
X1122Y1365D02*
X1124Y1365D01*
X1133Y1365D02*
X1136Y1365D01*
X1173Y1365D02*
X1175Y1365D01*
X1188Y1365D02*
X1190Y1365D01*
X1199Y1365D02*
X1201Y1365D01*
X1217Y1365D02*
X1219Y1365D01*
X1235Y1365D02*
X1238Y1365D01*
X1249Y1365D02*
X1252Y1365D01*
X1261Y1365D02*
X1264Y1365D01*
X1294Y1365D02*
X1296Y1365D01*
X1342Y1365D02*
X1345Y1365D01*
X1347Y1365D02*
X1350Y1365D01*
X1364Y1365D02*
X1366Y1365D01*
X1378Y1365D02*
X1380Y1365D01*
X1395Y1365D02*
X1400Y1365D01*
X1426Y1365D02*
X1429Y1365D01*
X7Y1364D02*
X14Y1364D01*
X1107Y1364D02*
X1110Y1364D01*
X1122Y1364D02*
X1124Y1364D01*
X1133Y1364D02*
X1137Y1364D01*
X1159Y1364D02*
X1161Y1364D01*
X1172Y1364D02*
X1175Y1364D01*
X1188Y1364D02*
X1191Y1364D01*
X1198Y1364D02*
X1201Y1364D01*
X1217Y1364D02*
X1219Y1364D01*
X1236Y1364D02*
X1238Y1364D01*
X1247Y1364D02*
X1252Y1364D01*
X1261Y1364D02*
X1264Y1364D01*
X1294Y1364D02*
X1296Y1364D01*
X1343Y1364D02*
X1345Y1364D01*
X1347Y1364D02*
X1350Y1364D01*
X1364Y1364D02*
X1366Y1364D01*
X1378Y1364D02*
X1380Y1364D01*
X1426Y1364D02*
X1429Y1364D01*
X7Y1363D02*
X14Y1363D01*
X1107Y1363D02*
X1110Y1363D01*
X1122Y1363D02*
X1124Y1363D01*
X1134Y1363D02*
X1149Y1363D01*
X1159Y1363D02*
X1175Y1363D01*
X1188Y1363D02*
X1201Y1363D01*
X1213Y1363D02*
X1224Y1363D01*
X1236Y1363D02*
X1252Y1363D01*
X1261Y1363D02*
X1264Y1363D01*
X1290Y1363D02*
X1300Y1363D01*
X1343Y1363D02*
X1350Y1363D01*
X1364Y1363D02*
X1380Y1363D01*
X1426Y1363D02*
X1429Y1363D01*
X7Y1362D02*
X14Y1362D01*
X1107Y1362D02*
X1110Y1362D01*
X1122Y1362D02*
X1124Y1362D01*
X1135Y1362D02*
X1150Y1362D01*
X1159Y1362D02*
X1174Y1362D01*
X1189Y1362D02*
X1200Y1362D01*
X1212Y1362D02*
X1225Y1362D01*
X1236Y1362D02*
X1252Y1362D01*
X1261Y1362D02*
X1264Y1362D01*
X1289Y1362D02*
X1301Y1362D01*
X1343Y1362D02*
X1349Y1362D01*
X1364Y1362D02*
X1380Y1362D01*
X1426Y1362D02*
X1429Y1362D01*
X7Y1361D02*
X14Y1361D01*
X1107Y1361D02*
X1110Y1361D01*
X1122Y1361D02*
X1124Y1361D01*
X1136Y1361D02*
X1150Y1361D01*
X1160Y1361D02*
X1173Y1361D01*
X1190Y1361D02*
X1199Y1361D01*
X1212Y1361D02*
X1225Y1361D01*
X1237Y1361D02*
X1252Y1361D01*
X1261Y1361D02*
X1264Y1361D01*
X1289Y1361D02*
X1302Y1361D01*
X1344Y1361D02*
X1349Y1361D01*
X1364Y1361D02*
X1379Y1361D01*
X1426Y1361D02*
X1429Y1361D01*
X7Y1360D02*
X14Y1360D01*
X1108Y1360D02*
X1109Y1360D01*
X1122Y1360D02*
X1123Y1360D01*
X1138Y1360D02*
X1149Y1360D01*
X1162Y1360D02*
X1172Y1360D01*
X1191Y1360D02*
X1198Y1360D01*
X1212Y1360D02*
X1224Y1360D01*
X1239Y1360D02*
X1246Y1360D01*
X1250Y1360D02*
X1251Y1360D01*
X1262Y1360D02*
X1263Y1360D01*
X1289Y1360D02*
X1301Y1360D01*
X1344Y1360D02*
X1348Y1360D01*
X1365Y1360D02*
X1378Y1360D01*
X1427Y1360D02*
X1428Y1360D01*
X7Y1359D02*
X14Y1359D01*
X7Y1358D02*
X14Y1358D01*
X7Y1357D02*
X14Y1357D01*
X7Y1356D02*
X14Y1356D01*
X7Y1355D02*
X14Y1355D01*
X7Y1354D02*
X14Y1354D01*
X7Y1353D02*
X14Y1353D01*
X7Y1352D02*
X14Y1352D01*
X7Y1351D02*
X14Y1351D01*
X7Y1350D02*
X14Y1350D01*
X7Y1349D02*
X14Y1349D01*
X7Y1348D02*
X14Y1348D01*
X7Y1347D02*
X14Y1347D01*
X7Y1346D02*
X14Y1346D01*
X7Y1345D02*
X14Y1345D01*
X7Y1344D02*
X14Y1344D01*
X7Y1343D02*
X14Y1343D01*
X7Y1342D02*
X14Y1342D01*
X7Y1341D02*
X14Y1341D01*
X7Y1340D02*
X14Y1340D01*
X7Y1339D02*
X14Y1339D01*
X7Y1338D02*
X14Y1338D01*
X7Y1337D02*
X14Y1337D01*
X7Y1336D02*
X14Y1336D01*
X7Y1335D02*
X14Y1335D01*
X7Y1334D02*
X14Y1334D01*
X7Y1333D02*
X14Y1333D01*
X7Y1332D02*
X14Y1332D01*
X1294Y1332D02*
X1309Y1332D01*
X7Y1331D02*
X14Y1331D01*
X1293Y1331D02*
X1310Y1331D01*
X7Y1330D02*
X14Y1330D01*
X1293Y1330D02*
X1310Y1330D01*
X7Y1329D02*
X14Y1329D01*
X1293Y1329D02*
X1310Y1329D01*
X7Y1328D02*
X14Y1328D01*
X1293Y1328D02*
X1310Y1328D01*
X7Y1327D02*
X14Y1327D01*
X1293Y1327D02*
X1311Y1327D01*
X7Y1326D02*
X14Y1326D01*
X1293Y1326D02*
X1311Y1326D01*
X7Y1325D02*
X14Y1325D01*
X1292Y1325D02*
X1311Y1325D01*
X7Y1324D02*
X14Y1324D01*
X1292Y1324D02*
X1311Y1324D01*
X7Y1323D02*
X14Y1323D01*
X1292Y1323D02*
X1311Y1323D01*
X7Y1322D02*
X14Y1322D01*
X1292Y1322D02*
X1312Y1322D01*
X7Y1321D02*
X14Y1321D01*
X1292Y1321D02*
X1312Y1321D01*
X7Y1320D02*
X14Y1320D01*
X1291Y1320D02*
X1312Y1320D01*
X7Y1319D02*
X14Y1319D01*
X1291Y1319D02*
X1312Y1319D01*
X7Y1318D02*
X14Y1318D01*
X1291Y1318D02*
X1312Y1318D01*
X7Y1317D02*
X14Y1317D01*
X1291Y1317D02*
X1313Y1317D01*
X7Y1316D02*
X14Y1316D01*
X1291Y1316D02*
X1313Y1316D01*
X7Y1315D02*
X14Y1315D01*
X1290Y1315D02*
X1313Y1315D01*
X7Y1314D02*
X14Y1314D01*
X1290Y1314D02*
X1313Y1314D01*
X7Y1313D02*
X14Y1313D01*
X1290Y1313D02*
X1313Y1313D01*
X7Y1312D02*
X14Y1312D01*
X1290Y1312D02*
X1313Y1312D01*
X1358Y1312D02*
X1358Y1312D01*
X7Y1311D02*
X14Y1311D01*
X1245Y1311D02*
X1247Y1311D01*
X1290Y1311D02*
X1314Y1311D01*
X1357Y1311D02*
X1359Y1311D01*
X7Y1310D02*
X14Y1310D01*
X1244Y1310D02*
X1248Y1310D01*
X1290Y1310D02*
X1314Y1310D01*
X1355Y1310D02*
X1360Y1310D01*
X7Y1309D02*
X14Y1309D01*
X1243Y1309D02*
X1250Y1309D01*
X1289Y1309D02*
X1314Y1309D01*
X1354Y1309D02*
X1361Y1309D01*
X7Y1308D02*
X14Y1308D01*
X1242Y1308D02*
X1251Y1308D01*
X1289Y1308D02*
X1314Y1308D01*
X1352Y1308D02*
X1362Y1308D01*
X7Y1307D02*
X14Y1307D01*
X1241Y1307D02*
X1253Y1307D01*
X1288Y1307D02*
X1316Y1307D01*
X1351Y1307D02*
X1363Y1307D01*
X7Y1306D02*
X14Y1306D01*
X1240Y1306D02*
X1254Y1306D01*
X1284Y1306D02*
X1319Y1306D01*
X1349Y1306D02*
X1364Y1306D01*
X7Y1305D02*
X14Y1305D01*
X1239Y1305D02*
X1256Y1305D01*
X1281Y1305D02*
X1323Y1305D01*
X1348Y1305D02*
X1365Y1305D01*
X7Y1304D02*
X14Y1304D01*
X1238Y1304D02*
X1257Y1304D01*
X1278Y1304D02*
X1325Y1304D01*
X1346Y1304D02*
X1366Y1304D01*
X7Y1303D02*
X14Y1303D01*
X1237Y1303D02*
X1259Y1303D01*
X1276Y1303D02*
X1328Y1303D01*
X1345Y1303D02*
X1367Y1303D01*
X7Y1302D02*
X14Y1302D01*
X1236Y1302D02*
X1260Y1302D01*
X1274Y1302D02*
X1330Y1302D01*
X1343Y1302D02*
X1368Y1302D01*
X7Y1301D02*
X14Y1301D01*
X1235Y1301D02*
X1261Y1301D01*
X1272Y1301D02*
X1332Y1301D01*
X1342Y1301D02*
X1369Y1301D01*
X7Y1300D02*
X14Y1300D01*
X1234Y1300D02*
X1263Y1300D01*
X1270Y1300D02*
X1334Y1300D01*
X1341Y1300D02*
X1369Y1300D01*
X7Y1299D02*
X14Y1299D01*
X1235Y1299D02*
X1264Y1299D01*
X1268Y1299D02*
X1335Y1299D01*
X1339Y1299D02*
X1369Y1299D01*
X7Y1298D02*
X14Y1298D01*
X1235Y1298D02*
X1368Y1298D01*
X7Y1297D02*
X14Y1297D01*
X1236Y1297D02*
X1367Y1297D01*
X7Y1296D02*
X14Y1296D01*
X1237Y1296D02*
X1367Y1296D01*
X7Y1295D02*
X14Y1295D01*
X1238Y1295D02*
X1366Y1295D01*
X7Y1294D02*
X14Y1294D01*
X1238Y1294D02*
X1365Y1294D01*
X7Y1293D02*
X14Y1293D01*
X1239Y1293D02*
X1365Y1293D01*
X7Y1292D02*
X14Y1292D01*
X1240Y1292D02*
X1364Y1292D01*
X7Y1291D02*
X14Y1291D01*
X1240Y1291D02*
X1363Y1291D01*
X7Y1290D02*
X14Y1290D01*
X1241Y1290D02*
X1362Y1290D01*
X7Y1289D02*
X14Y1289D01*
X1242Y1289D02*
X1362Y1289D01*
X7Y1288D02*
X14Y1288D01*
X1242Y1288D02*
X1361Y1288D01*
X7Y1287D02*
X14Y1287D01*
X1243Y1287D02*
X1360Y1287D01*
X7Y1286D02*
X14Y1286D01*
X1244Y1286D02*
X1360Y1286D01*
X7Y1285D02*
X14Y1285D01*
X1244Y1285D02*
X1359Y1285D01*
X7Y1284D02*
X14Y1284D01*
X1245Y1284D02*
X1358Y1284D01*
X7Y1283D02*
X14Y1283D01*
X1246Y1283D02*
X1358Y1283D01*
X7Y1282D02*
X14Y1282D01*
X1246Y1282D02*
X1357Y1282D01*
X7Y1281D02*
X14Y1281D01*
X1247Y1281D02*
X1356Y1281D01*
X7Y1280D02*
X14Y1280D01*
X1248Y1280D02*
X1356Y1280D01*
X7Y1279D02*
X14Y1279D01*
X1247Y1279D02*
X1356Y1279D01*
X7Y1278D02*
X14Y1278D01*
X1247Y1278D02*
X1357Y1278D01*
X7Y1277D02*
X14Y1277D01*
X1246Y1277D02*
X1357Y1277D01*
X7Y1276D02*
X14Y1276D01*
X1246Y1276D02*
X1358Y1276D01*
X7Y1275D02*
X14Y1275D01*
X1245Y1275D02*
X1297Y1275D01*
X1306Y1275D02*
X1358Y1275D01*
X7Y1274D02*
X14Y1274D01*
X1244Y1274D02*
X1292Y1274D01*
X1311Y1274D02*
X1359Y1274D01*
X7Y1273D02*
X14Y1273D01*
X1244Y1273D02*
X1289Y1273D01*
X1314Y1273D02*
X1360Y1273D01*
X7Y1272D02*
X14Y1272D01*
X1243Y1272D02*
X1287Y1272D01*
X1316Y1272D02*
X1360Y1272D01*
X7Y1271D02*
X14Y1271D01*
X1243Y1271D02*
X1285Y1271D01*
X1318Y1271D02*
X1361Y1271D01*
X7Y1270D02*
X14Y1270D01*
X1242Y1270D02*
X1284Y1270D01*
X1320Y1270D02*
X1361Y1270D01*
X7Y1269D02*
X14Y1269D01*
X1242Y1269D02*
X1282Y1269D01*
X1321Y1269D02*
X1361Y1269D01*
X7Y1268D02*
X14Y1268D01*
X1242Y1268D02*
X1281Y1268D01*
X1322Y1268D02*
X1362Y1268D01*
X7Y1267D02*
X14Y1267D01*
X1241Y1267D02*
X1280Y1267D01*
X1323Y1267D02*
X1362Y1267D01*
X7Y1266D02*
X14Y1266D01*
X1241Y1266D02*
X1279Y1266D01*
X1324Y1266D02*
X1363Y1266D01*
X7Y1265D02*
X14Y1265D01*
X575Y1265D02*
X578Y1265D01*
X605Y1265D02*
X624Y1265D01*
X636Y1265D02*
X647Y1265D01*
X666Y1265D02*
X677Y1265D01*
X1240Y1265D02*
X1278Y1265D01*
X1325Y1265D02*
X1363Y1265D01*
X7Y1264D02*
X14Y1264D01*
X575Y1264D02*
X578Y1264D01*
X605Y1264D02*
X625Y1264D01*
X635Y1264D02*
X648Y1264D01*
X665Y1264D02*
X677Y1264D01*
X1240Y1264D02*
X1277Y1264D01*
X1326Y1264D02*
X1363Y1264D01*
X7Y1263D02*
X14Y1263D01*
X575Y1263D02*
X578Y1263D01*
X605Y1263D02*
X625Y1263D01*
X635Y1263D02*
X649Y1263D01*
X665Y1263D02*
X677Y1263D01*
X1240Y1263D02*
X1276Y1263D01*
X1327Y1263D02*
X1364Y1263D01*
X7Y1262D02*
X14Y1262D01*
X575Y1262D02*
X578Y1262D01*
X605Y1262D02*
X624Y1262D01*
X636Y1262D02*
X650Y1262D01*
X666Y1262D02*
X677Y1262D01*
X1239Y1262D02*
X1276Y1262D01*
X1328Y1262D02*
X1364Y1262D01*
X7Y1261D02*
X14Y1261D01*
X575Y1261D02*
X578Y1261D01*
X605Y1261D02*
X608Y1261D01*
X639Y1261D02*
X642Y1261D01*
X646Y1261D02*
X650Y1261D01*
X673Y1261D02*
X677Y1261D01*
X1239Y1261D02*
X1275Y1261D01*
X1328Y1261D02*
X1364Y1261D01*
X7Y1260D02*
X14Y1260D01*
X575Y1260D02*
X578Y1260D01*
X605Y1260D02*
X608Y1260D01*
X639Y1260D02*
X642Y1260D01*
X647Y1260D02*
X651Y1260D01*
X673Y1260D02*
X677Y1260D01*
X1239Y1260D02*
X1274Y1260D01*
X1329Y1260D02*
X1365Y1260D01*
X7Y1259D02*
X14Y1259D01*
X510Y1259D02*
X510Y1259D01*
X552Y1259D02*
X552Y1259D01*
X575Y1259D02*
X578Y1259D01*
X605Y1259D02*
X608Y1259D01*
X639Y1259D02*
X642Y1259D01*
X647Y1259D02*
X651Y1259D01*
X673Y1259D02*
X677Y1259D01*
X1239Y1259D02*
X1274Y1259D01*
X1330Y1259D02*
X1365Y1259D01*
X7Y1258D02*
X14Y1258D01*
X510Y1258D02*
X552Y1258D01*
X575Y1258D02*
X578Y1258D01*
X605Y1258D02*
X608Y1258D01*
X639Y1258D02*
X642Y1258D01*
X648Y1258D02*
X652Y1258D01*
X673Y1258D02*
X677Y1258D01*
X1238Y1258D02*
X1273Y1258D01*
X1330Y1258D02*
X1365Y1258D01*
X7Y1257D02*
X14Y1257D01*
X509Y1257D02*
X553Y1257D01*
X575Y1257D02*
X578Y1257D01*
X605Y1257D02*
X608Y1257D01*
X639Y1257D02*
X642Y1257D01*
X648Y1257D02*
X652Y1257D01*
X673Y1257D02*
X677Y1257D01*
X1238Y1257D02*
X1273Y1257D01*
X1331Y1257D02*
X1366Y1257D01*
X7Y1256D02*
X14Y1256D01*
X510Y1256D02*
X553Y1256D01*
X575Y1256D02*
X578Y1256D01*
X605Y1256D02*
X608Y1256D01*
X639Y1256D02*
X642Y1256D01*
X649Y1256D02*
X653Y1256D01*
X673Y1256D02*
X677Y1256D01*
X1233Y1256D02*
X1272Y1256D01*
X1331Y1256D02*
X1371Y1256D01*
X7Y1255D02*
X14Y1255D01*
X510Y1255D02*
X552Y1255D01*
X575Y1255D02*
X578Y1255D01*
X605Y1255D02*
X608Y1255D01*
X639Y1255D02*
X642Y1255D01*
X649Y1255D02*
X653Y1255D01*
X673Y1255D02*
X677Y1255D01*
X1227Y1255D02*
X1272Y1255D01*
X1332Y1255D02*
X1376Y1255D01*
X7Y1254D02*
X14Y1254D01*
X511Y1254D02*
X552Y1254D01*
X575Y1254D02*
X578Y1254D01*
X605Y1254D02*
X608Y1254D01*
X639Y1254D02*
X642Y1254D01*
X650Y1254D02*
X654Y1254D01*
X673Y1254D02*
X677Y1254D01*
X1222Y1254D02*
X1271Y1254D01*
X1332Y1254D02*
X1381Y1254D01*
X7Y1253D02*
X14Y1253D01*
X512Y1253D02*
X550Y1253D01*
X575Y1253D02*
X578Y1253D01*
X605Y1253D02*
X608Y1253D01*
X639Y1253D02*
X642Y1253D01*
X650Y1253D02*
X654Y1253D01*
X673Y1253D02*
X677Y1253D01*
X1217Y1253D02*
X1271Y1253D01*
X1332Y1253D02*
X1387Y1253D01*
X7Y1252D02*
X14Y1252D01*
X523Y1252D02*
X539Y1252D01*
X575Y1252D02*
X578Y1252D01*
X605Y1252D02*
X608Y1252D01*
X639Y1252D02*
X642Y1252D01*
X651Y1252D02*
X654Y1252D01*
X673Y1252D02*
X677Y1252D01*
X1214Y1252D02*
X1271Y1252D01*
X1333Y1252D02*
X1389Y1252D01*
X7Y1251D02*
X14Y1251D01*
X522Y1251D02*
X540Y1251D01*
X575Y1251D02*
X578Y1251D01*
X605Y1251D02*
X616Y1251D01*
X639Y1251D02*
X642Y1251D01*
X651Y1251D02*
X655Y1251D01*
X673Y1251D02*
X677Y1251D01*
X1214Y1251D02*
X1271Y1251D01*
X1333Y1251D02*
X1389Y1251D01*
X7Y1250D02*
X14Y1250D01*
X522Y1250D02*
X530Y1250D01*
X532Y1250D02*
X541Y1250D01*
X575Y1250D02*
X578Y1250D01*
X605Y1250D02*
X616Y1250D01*
X639Y1250D02*
X642Y1250D01*
X652Y1250D02*
X655Y1250D01*
X673Y1250D02*
X677Y1250D01*
X1214Y1250D02*
X1270Y1250D01*
X1333Y1250D02*
X1389Y1250D01*
X7Y1249D02*
X14Y1249D01*
X521Y1249D02*
X530Y1249D01*
X532Y1249D02*
X541Y1249D01*
X575Y1249D02*
X578Y1249D01*
X605Y1249D02*
X616Y1249D01*
X639Y1249D02*
X642Y1249D01*
X652Y1249D02*
X655Y1249D01*
X673Y1249D02*
X677Y1249D01*
X1214Y1249D02*
X1270Y1249D01*
X1333Y1249D02*
X1389Y1249D01*
X7Y1248D02*
X14Y1248D01*
X521Y1248D02*
X529Y1248D01*
X533Y1248D02*
X542Y1248D01*
X575Y1248D02*
X578Y1248D01*
X605Y1248D02*
X616Y1248D01*
X639Y1248D02*
X642Y1248D01*
X651Y1248D02*
X655Y1248D01*
X673Y1248D02*
X677Y1248D01*
X683Y1248D02*
X684Y1248D01*
X1214Y1248D02*
X1270Y1248D01*
X1333Y1248D02*
X1389Y1248D01*
X7Y1247D02*
X14Y1247D01*
X520Y1247D02*
X528Y1247D01*
X534Y1247D02*
X543Y1247D01*
X575Y1247D02*
X578Y1247D01*
X605Y1247D02*
X608Y1247D01*
X639Y1247D02*
X642Y1247D01*
X651Y1247D02*
X654Y1247D01*
X673Y1247D02*
X677Y1247D01*
X682Y1247D02*
X685Y1247D01*
X1214Y1247D02*
X1270Y1247D01*
X1333Y1247D02*
X1389Y1247D01*
X7Y1246D02*
X14Y1246D01*
X519Y1246D02*
X528Y1246D01*
X535Y1246D02*
X543Y1246D01*
X575Y1246D02*
X578Y1246D01*
X605Y1246D02*
X608Y1246D01*
X639Y1246D02*
X642Y1246D01*
X650Y1246D02*
X654Y1246D01*
X673Y1246D02*
X677Y1246D01*
X682Y1246D02*
X685Y1246D01*
X1214Y1246D02*
X1270Y1246D01*
X1333Y1246D02*
X1389Y1246D01*
X7Y1245D02*
X14Y1245D01*
X519Y1245D02*
X527Y1245D01*
X535Y1245D02*
X544Y1245D01*
X575Y1245D02*
X578Y1245D01*
X605Y1245D02*
X608Y1245D01*
X639Y1245D02*
X642Y1245D01*
X650Y1245D02*
X654Y1245D01*
X673Y1245D02*
X677Y1245D01*
X682Y1245D02*
X685Y1245D01*
X1214Y1245D02*
X1270Y1245D01*
X1334Y1245D02*
X1389Y1245D01*
X7Y1244D02*
X14Y1244D01*
X519Y1244D02*
X526Y1244D01*
X536Y1244D02*
X544Y1244D01*
X575Y1244D02*
X578Y1244D01*
X605Y1244D02*
X608Y1244D01*
X639Y1244D02*
X642Y1244D01*
X649Y1244D02*
X653Y1244D01*
X673Y1244D02*
X677Y1244D01*
X682Y1244D02*
X685Y1244D01*
X1214Y1244D02*
X1270Y1244D01*
X1334Y1244D02*
X1389Y1244D01*
X7Y1243D02*
X14Y1243D01*
X519Y1243D02*
X526Y1243D01*
X537Y1243D02*
X543Y1243D01*
X575Y1243D02*
X578Y1243D01*
X605Y1243D02*
X608Y1243D01*
X639Y1243D02*
X642Y1243D01*
X649Y1243D02*
X653Y1243D01*
X673Y1243D02*
X677Y1243D01*
X682Y1243D02*
X685Y1243D01*
X1214Y1243D02*
X1270Y1243D01*
X1334Y1243D02*
X1389Y1243D01*
X7Y1242D02*
X14Y1242D01*
X520Y1242D02*
X525Y1242D01*
X538Y1242D02*
X543Y1242D01*
X575Y1242D02*
X578Y1242D01*
X605Y1242D02*
X608Y1242D01*
X639Y1242D02*
X642Y1242D01*
X648Y1242D02*
X652Y1242D01*
X673Y1242D02*
X677Y1242D01*
X682Y1242D02*
X685Y1242D01*
X1214Y1242D02*
X1270Y1242D01*
X1334Y1242D02*
X1389Y1242D01*
X7Y1241D02*
X14Y1241D01*
X575Y1241D02*
X578Y1241D01*
X605Y1241D02*
X608Y1241D01*
X639Y1241D02*
X642Y1241D01*
X648Y1241D02*
X652Y1241D01*
X673Y1241D02*
X677Y1241D01*
X682Y1241D02*
X685Y1241D01*
X1214Y1241D02*
X1270Y1241D01*
X1333Y1241D02*
X1389Y1241D01*
X7Y1240D02*
X14Y1240D01*
X575Y1240D02*
X578Y1240D01*
X605Y1240D02*
X608Y1240D01*
X639Y1240D02*
X642Y1240D01*
X647Y1240D02*
X651Y1240D01*
X673Y1240D02*
X677Y1240D01*
X682Y1240D02*
X685Y1240D01*
X1214Y1240D02*
X1270Y1240D01*
X1333Y1240D02*
X1389Y1240D01*
X7Y1239D02*
X14Y1239D01*
X575Y1239D02*
X578Y1239D01*
X605Y1239D02*
X608Y1239D01*
X639Y1239D02*
X642Y1239D01*
X647Y1239D02*
X651Y1239D01*
X673Y1239D02*
X677Y1239D01*
X682Y1239D02*
X685Y1239D01*
X1214Y1239D02*
X1270Y1239D01*
X1333Y1239D02*
X1389Y1239D01*
X7Y1238D02*
X14Y1238D01*
X575Y1238D02*
X578Y1238D01*
X605Y1238D02*
X608Y1238D01*
X639Y1238D02*
X642Y1238D01*
X646Y1238D02*
X650Y1238D01*
X673Y1238D02*
X677Y1238D01*
X682Y1238D02*
X685Y1238D01*
X1214Y1238D02*
X1270Y1238D01*
X1333Y1238D02*
X1389Y1238D01*
X7Y1237D02*
X14Y1237D01*
X575Y1237D02*
X594Y1237D01*
X605Y1237D02*
X624Y1237D01*
X636Y1237D02*
X650Y1237D01*
X666Y1237D02*
X685Y1237D01*
X1214Y1237D02*
X1271Y1237D01*
X1333Y1237D02*
X1389Y1237D01*
X7Y1236D02*
X14Y1236D01*
X575Y1236D02*
X594Y1236D01*
X605Y1236D02*
X625Y1236D01*
X635Y1236D02*
X649Y1236D01*
X665Y1236D02*
X685Y1236D01*
X1214Y1236D02*
X1271Y1236D01*
X1333Y1236D02*
X1389Y1236D01*
X7Y1235D02*
X14Y1235D01*
X575Y1235D02*
X595Y1235D01*
X605Y1235D02*
X625Y1235D01*
X635Y1235D02*
X648Y1235D01*
X665Y1235D02*
X685Y1235D01*
X1217Y1235D02*
X1271Y1235D01*
X1332Y1235D02*
X1386Y1235D01*
X7Y1234D02*
X14Y1234D01*
X575Y1234D02*
X594Y1234D01*
X605Y1234D02*
X624Y1234D01*
X636Y1234D02*
X647Y1234D01*
X666Y1234D02*
X684Y1234D01*
X1222Y1234D02*
X1271Y1234D01*
X1332Y1234D02*
X1381Y1234D01*
X7Y1233D02*
X14Y1233D01*
X1228Y1233D02*
X1272Y1233D01*
X1332Y1233D02*
X1376Y1233D01*
X7Y1232D02*
X14Y1232D01*
X1233Y1232D02*
X1272Y1232D01*
X1331Y1232D02*
X1370Y1232D01*
X7Y1231D02*
X14Y1231D01*
X1238Y1231D02*
X1273Y1231D01*
X1331Y1231D02*
X1366Y1231D01*
X7Y1230D02*
X14Y1230D01*
X1238Y1230D02*
X1273Y1230D01*
X1330Y1230D02*
X1366Y1230D01*
X7Y1229D02*
X14Y1229D01*
X1238Y1229D02*
X1274Y1229D01*
X1330Y1229D02*
X1365Y1229D01*
X7Y1228D02*
X14Y1228D01*
X1238Y1228D02*
X1274Y1228D01*
X1329Y1228D02*
X1365Y1228D01*
X7Y1227D02*
X14Y1227D01*
X1239Y1227D02*
X1275Y1227D01*
X1329Y1227D02*
X1365Y1227D01*
X7Y1226D02*
X14Y1226D01*
X1239Y1226D02*
X1275Y1226D01*
X1328Y1226D02*
X1365Y1226D01*
X7Y1225D02*
X14Y1225D01*
X1239Y1225D02*
X1276Y1225D01*
X1327Y1225D02*
X1364Y1225D01*
X7Y1224D02*
X14Y1224D01*
X1239Y1224D02*
X1277Y1224D01*
X1326Y1224D02*
X1364Y1224D01*
X7Y1223D02*
X14Y1223D01*
X1240Y1223D02*
X1278Y1223D01*
X1326Y1223D02*
X1364Y1223D01*
X7Y1222D02*
X14Y1222D01*
X1240Y1222D02*
X1279Y1222D01*
X1325Y1222D02*
X1363Y1222D01*
X7Y1221D02*
X14Y1221D01*
X1240Y1221D02*
X1280Y1221D01*
X1324Y1221D02*
X1363Y1221D01*
X7Y1220D02*
X14Y1220D01*
X1241Y1220D02*
X1281Y1220D01*
X1323Y1220D02*
X1363Y1220D01*
X7Y1219D02*
X14Y1219D01*
X1241Y1219D02*
X1282Y1219D01*
X1321Y1219D02*
X1362Y1219D01*
X7Y1218D02*
X14Y1218D01*
X1242Y1218D02*
X1283Y1218D01*
X1320Y1218D02*
X1362Y1218D01*
X7Y1217D02*
X14Y1217D01*
X1242Y1217D02*
X1285Y1217D01*
X1319Y1217D02*
X1361Y1217D01*
X7Y1216D02*
X14Y1216D01*
X1242Y1216D02*
X1284Y1216D01*
X1319Y1216D02*
X1361Y1216D01*
X7Y1215D02*
X14Y1215D01*
X1243Y1215D02*
X1284Y1215D01*
X1319Y1215D02*
X1361Y1215D01*
X7Y1214D02*
X14Y1214D01*
X1243Y1214D02*
X1284Y1214D01*
X1320Y1214D02*
X1360Y1214D01*
X7Y1213D02*
X14Y1213D01*
X1244Y1213D02*
X1283Y1213D01*
X1320Y1213D02*
X1360Y1213D01*
X7Y1212D02*
X14Y1212D01*
X1244Y1212D02*
X1283Y1212D01*
X1321Y1212D02*
X1359Y1212D01*
X7Y1211D02*
X14Y1211D01*
X1245Y1211D02*
X1282Y1211D01*
X1321Y1211D02*
X1358Y1211D01*
X7Y1210D02*
X14Y1210D01*
X1245Y1210D02*
X1282Y1210D01*
X1321Y1210D02*
X1358Y1210D01*
X7Y1209D02*
X14Y1209D01*
X1246Y1209D02*
X1281Y1209D01*
X1322Y1209D02*
X1357Y1209D01*
X7Y1208D02*
X14Y1208D01*
X1247Y1208D02*
X1281Y1208D01*
X1322Y1208D02*
X1357Y1208D01*
X7Y1207D02*
X14Y1207D01*
X1247Y1207D02*
X1281Y1207D01*
X1323Y1207D02*
X1356Y1207D01*
X7Y1206D02*
X14Y1206D01*
X1246Y1206D02*
X1280Y1206D01*
X1323Y1206D02*
X1357Y1206D01*
X7Y1205D02*
X14Y1205D01*
X1246Y1205D02*
X1280Y1205D01*
X1324Y1205D02*
X1358Y1205D01*
X7Y1204D02*
X14Y1204D01*
X1245Y1204D02*
X1279Y1204D01*
X1324Y1204D02*
X1358Y1204D01*
X7Y1203D02*
X14Y1203D01*
X1244Y1203D02*
X1279Y1203D01*
X1324Y1203D02*
X1359Y1203D01*
X7Y1202D02*
X14Y1202D01*
X1244Y1202D02*
X1279Y1202D01*
X1325Y1202D02*
X1360Y1202D01*
X7Y1201D02*
X14Y1201D01*
X1243Y1201D02*
X1278Y1201D01*
X1325Y1201D02*
X1360Y1201D01*
X7Y1200D02*
X14Y1200D01*
X1242Y1200D02*
X1278Y1200D01*
X1326Y1200D02*
X1361Y1200D01*
X7Y1199D02*
X14Y1199D01*
X1242Y1199D02*
X1277Y1199D01*
X1326Y1199D02*
X1362Y1199D01*
X7Y1198D02*
X14Y1198D01*
X1241Y1198D02*
X1277Y1198D01*
X1326Y1198D02*
X1363Y1198D01*
X7Y1197D02*
X14Y1197D01*
X1240Y1197D02*
X1277Y1197D01*
X1327Y1197D02*
X1363Y1197D01*
X7Y1196D02*
X14Y1196D01*
X1240Y1196D02*
X1276Y1196D01*
X1327Y1196D02*
X1364Y1196D01*
X7Y1195D02*
X14Y1195D01*
X1239Y1195D02*
X1276Y1195D01*
X1328Y1195D02*
X1365Y1195D01*
X7Y1194D02*
X14Y1194D01*
X1238Y1194D02*
X1275Y1194D01*
X1328Y1194D02*
X1365Y1194D01*
X7Y1193D02*
X14Y1193D01*
X1237Y1193D02*
X1275Y1193D01*
X1329Y1193D02*
X1366Y1193D01*
X7Y1192D02*
X14Y1192D01*
X1237Y1192D02*
X1274Y1192D01*
X1329Y1192D02*
X1367Y1192D01*
X7Y1191D02*
X14Y1191D01*
X1236Y1191D02*
X1274Y1191D01*
X1329Y1191D02*
X1367Y1191D01*
X7Y1190D02*
X14Y1190D01*
X1235Y1190D02*
X1274Y1190D01*
X1330Y1190D02*
X1368Y1190D01*
X7Y1189D02*
X14Y1189D01*
X1235Y1189D02*
X1273Y1189D01*
X1330Y1189D02*
X1369Y1189D01*
X7Y1188D02*
X14Y1188D01*
X1234Y1188D02*
X1263Y1188D01*
X1266Y1188D02*
X1273Y1188D01*
X1331Y1188D02*
X1337Y1188D01*
X1341Y1188D02*
X1369Y1188D01*
X7Y1187D02*
X14Y1187D01*
X1235Y1187D02*
X1261Y1187D01*
X1268Y1187D02*
X1272Y1187D01*
X1331Y1187D02*
X1335Y1187D01*
X1342Y1187D02*
X1369Y1187D01*
X7Y1186D02*
X14Y1186D01*
X1236Y1186D02*
X1260Y1186D01*
X1270Y1186D02*
X1272Y1186D01*
X1331Y1186D02*
X1334Y1186D01*
X1344Y1186D02*
X1368Y1186D01*
X7Y1185D02*
X14Y1185D01*
X1237Y1185D02*
X1258Y1185D01*
X1332Y1185D02*
X1332Y1185D01*
X1345Y1185D02*
X1367Y1185D01*
X7Y1184D02*
X14Y1184D01*
X1238Y1184D02*
X1257Y1184D01*
X1346Y1184D02*
X1366Y1184D01*
X7Y1183D02*
X14Y1183D01*
X1239Y1183D02*
X1255Y1183D01*
X1348Y1183D02*
X1365Y1183D01*
X7Y1182D02*
X14Y1182D01*
X1240Y1182D02*
X1254Y1182D01*
X1349Y1182D02*
X1364Y1182D01*
X7Y1181D02*
X14Y1181D01*
X1241Y1181D02*
X1253Y1181D01*
X1351Y1181D02*
X1363Y1181D01*
X7Y1180D02*
X14Y1180D01*
X1242Y1180D02*
X1251Y1180D01*
X1352Y1180D02*
X1362Y1180D01*
X7Y1179D02*
X14Y1179D01*
X1243Y1179D02*
X1250Y1179D01*
X1354Y1179D02*
X1361Y1179D01*
X7Y1178D02*
X14Y1178D01*
X1244Y1178D02*
X1248Y1178D01*
X1355Y1178D02*
X1360Y1178D01*
X7Y1177D02*
X14Y1177D01*
X1245Y1177D02*
X1247Y1177D01*
X1357Y1177D02*
X1359Y1177D01*
X7Y1176D02*
X14Y1176D01*
X1358Y1176D02*
X1358Y1176D01*
X7Y1175D02*
X14Y1175D01*
X7Y1174D02*
X14Y1174D01*
X7Y1173D02*
X14Y1173D01*
X7Y1172D02*
X14Y1172D01*
X7Y1171D02*
X14Y1171D01*
X7Y1170D02*
X14Y1170D01*
X7Y1169D02*
X14Y1169D01*
X7Y1168D02*
X14Y1168D01*
X7Y1167D02*
X14Y1167D01*
X7Y1166D02*
X14Y1166D01*
X7Y1165D02*
X14Y1165D01*
X7Y1164D02*
X14Y1164D01*
X7Y1163D02*
X14Y1163D01*
X7Y1162D02*
X14Y1162D01*
X1276Y1162D02*
X1278Y1162D01*
X1339Y1162D02*
X1341Y1162D01*
X7Y1161D02*
X14Y1161D01*
X1276Y1161D02*
X1278Y1161D01*
X1339Y1161D02*
X1341Y1161D01*
X7Y1160D02*
X14Y1160D01*
X1276Y1160D02*
X1278Y1160D01*
X1339Y1160D02*
X1341Y1160D01*
X7Y1159D02*
X14Y1159D01*
X1276Y1159D02*
X1278Y1159D01*
X1339Y1159D02*
X1341Y1159D01*
X7Y1158D02*
X14Y1158D01*
X1276Y1158D02*
X1278Y1158D01*
X1339Y1158D02*
X1341Y1158D01*
X7Y1157D02*
X14Y1157D01*
X1195Y1157D02*
X1199Y1157D01*
X1213Y1157D02*
X1217Y1157D01*
X1232Y1157D02*
X1235Y1157D01*
X1250Y1157D02*
X1254Y1157D01*
X1276Y1157D02*
X1278Y1157D01*
X1339Y1157D02*
X1341Y1157D01*
X7Y1156D02*
X14Y1156D01*
X1193Y1156D02*
X1200Y1156D01*
X1211Y1156D02*
X1219Y1156D01*
X1230Y1156D02*
X1237Y1156D01*
X1248Y1156D02*
X1256Y1156D01*
X1276Y1156D02*
X1278Y1156D01*
X1281Y1156D02*
X1283Y1156D01*
X1298Y1156D02*
X1301Y1156D01*
X1316Y1156D02*
X1318Y1156D01*
X1333Y1156D02*
X1336Y1156D01*
X1339Y1156D02*
X1341Y1156D01*
X1368Y1156D02*
X1371Y1156D01*
X1386Y1156D02*
X1389Y1156D01*
X1403Y1156D02*
X1406Y1156D01*
X7Y1155D02*
X14Y1155D01*
X1192Y1155D02*
X1202Y1155D01*
X1210Y1155D02*
X1220Y1155D01*
X1229Y1155D02*
X1238Y1155D01*
X1247Y1155D02*
X1257Y1155D01*
X1276Y1155D02*
X1285Y1155D01*
X1296Y1155D02*
X1303Y1155D01*
X1314Y1155D02*
X1321Y1155D01*
X1331Y1155D02*
X1341Y1155D01*
X1345Y1155D02*
X1346Y1155D01*
X1352Y1155D02*
X1353Y1155D01*
X1358Y1155D02*
X1360Y1155D01*
X1366Y1155D02*
X1373Y1155D01*
X1384Y1155D02*
X1391Y1155D01*
X1401Y1155D02*
X1408Y1155D01*
X7Y1154D02*
X14Y1154D01*
X1191Y1154D02*
X1202Y1154D01*
X1210Y1154D02*
X1221Y1154D01*
X1228Y1154D02*
X1239Y1154D01*
X1246Y1154D02*
X1258Y1154D01*
X1276Y1154D02*
X1287Y1154D01*
X1295Y1154D02*
X1304Y1154D01*
X1313Y1154D02*
X1322Y1154D01*
X1330Y1154D02*
X1341Y1154D01*
X1345Y1154D02*
X1346Y1154D01*
X1351Y1154D02*
X1353Y1154D01*
X1358Y1154D02*
X1360Y1154D01*
X1365Y1154D02*
X1374Y1154D01*
X1383Y1154D02*
X1392Y1154D01*
X1400Y1154D02*
X1409Y1154D01*
X7Y1153D02*
X14Y1153D01*
X1191Y1153D02*
X1195Y1153D01*
X1199Y1153D02*
X1203Y1153D01*
X1209Y1153D02*
X1213Y1153D01*
X1217Y1153D02*
X1221Y1153D01*
X1227Y1153D02*
X1232Y1153D01*
X1236Y1153D02*
X1240Y1153D01*
X1246Y1153D02*
X1250Y1153D01*
X1254Y1153D02*
X1258Y1153D01*
X1276Y1153D02*
X1280Y1153D01*
X1284Y1153D02*
X1287Y1153D01*
X1295Y1153D02*
X1297Y1153D01*
X1302Y1153D02*
X1305Y1153D01*
X1312Y1153D02*
X1315Y1153D01*
X1319Y1153D02*
X1322Y1153D01*
X1329Y1153D02*
X1332Y1153D01*
X1337Y1153D02*
X1341Y1153D01*
X1345Y1153D02*
X1346Y1153D01*
X1351Y1153D02*
X1353Y1153D01*
X1358Y1153D02*
X1360Y1153D01*
X1365Y1153D02*
X1368Y1153D01*
X1372Y1153D02*
X1375Y1153D01*
X1382Y1153D02*
X1385Y1153D01*
X1389Y1153D02*
X1392Y1153D01*
X1400Y1153D02*
X1403Y1153D01*
X1407Y1153D02*
X1410Y1153D01*
X7Y1152D02*
X14Y1152D01*
X1190Y1152D02*
X1194Y1152D01*
X1200Y1152D02*
X1203Y1152D01*
X1209Y1152D02*
X1212Y1152D01*
X1218Y1152D02*
X1222Y1152D01*
X1227Y1152D02*
X1230Y1152D01*
X1237Y1152D02*
X1240Y1152D01*
X1246Y1152D02*
X1249Y1152D01*
X1255Y1152D02*
X1259Y1152D01*
X1276Y1152D02*
X1279Y1152D01*
X1286Y1152D02*
X1288Y1152D01*
X1294Y1152D02*
X1296Y1152D01*
X1303Y1152D02*
X1305Y1152D01*
X1311Y1152D02*
X1314Y1152D01*
X1321Y1152D02*
X1323Y1152D01*
X1329Y1152D02*
X1331Y1152D01*
X1338Y1152D02*
X1341Y1152D01*
X1345Y1152D02*
X1346Y1152D01*
X1351Y1152D02*
X1353Y1152D01*
X1358Y1152D02*
X1360Y1152D01*
X1364Y1152D02*
X1366Y1152D01*
X1373Y1152D02*
X1375Y1152D01*
X1382Y1152D02*
X1384Y1152D01*
X1391Y1152D02*
X1393Y1152D01*
X1399Y1152D02*
X1401Y1152D01*
X1408Y1152D02*
X1410Y1152D01*
X7Y1151D02*
X14Y1151D01*
X1190Y1151D02*
X1193Y1151D01*
X1200Y1151D02*
X1203Y1151D01*
X1209Y1151D02*
X1212Y1151D01*
X1219Y1151D02*
X1222Y1151D01*
X1227Y1151D02*
X1230Y1151D01*
X1237Y1151D02*
X1240Y1151D01*
X1245Y1151D02*
X1248Y1151D01*
X1256Y1151D02*
X1259Y1151D01*
X1276Y1151D02*
X1278Y1151D01*
X1286Y1151D02*
X1288Y1151D01*
X1294Y1151D02*
X1296Y1151D01*
X1304Y1151D02*
X1306Y1151D01*
X1311Y1151D02*
X1313Y1151D01*
X1321Y1151D02*
X1323Y1151D01*
X1329Y1151D02*
X1331Y1151D01*
X1339Y1151D02*
X1341Y1151D01*
X1345Y1151D02*
X1346Y1151D01*
X1351Y1151D02*
X1353Y1151D01*
X1358Y1151D02*
X1360Y1151D01*
X1364Y1151D02*
X1366Y1151D01*
X1374Y1151D02*
X1376Y1151D01*
X1381Y1151D02*
X1383Y1151D01*
X1391Y1151D02*
X1393Y1151D01*
X1399Y1151D02*
X1401Y1151D01*
X1409Y1151D02*
X1411Y1151D01*
X7Y1150D02*
X14Y1150D01*
X1190Y1150D02*
X1193Y1150D01*
X1200Y1150D02*
X1203Y1150D01*
X1208Y1150D02*
X1211Y1150D01*
X1219Y1150D02*
X1222Y1150D01*
X1227Y1150D02*
X1230Y1150D01*
X1236Y1150D02*
X1240Y1150D01*
X1245Y1150D02*
X1248Y1150D01*
X1256Y1150D02*
X1259Y1150D01*
X1276Y1150D02*
X1278Y1150D01*
X1286Y1150D02*
X1288Y1150D01*
X1294Y1150D02*
X1295Y1150D01*
X1304Y1150D02*
X1306Y1150D01*
X1311Y1150D02*
X1313Y1150D01*
X1321Y1150D02*
X1323Y1150D01*
X1329Y1150D02*
X1330Y1150D01*
X1339Y1150D02*
X1341Y1150D01*
X1345Y1150D02*
X1346Y1150D01*
X1351Y1150D02*
X1353Y1150D01*
X1358Y1150D02*
X1360Y1150D01*
X1364Y1150D02*
X1365Y1150D01*
X1374Y1150D02*
X1376Y1150D01*
X1381Y1150D02*
X1383Y1150D01*
X1392Y1150D02*
X1393Y1150D01*
X1399Y1150D02*
X1400Y1150D01*
X1409Y1150D02*
X1411Y1150D01*
X7Y1149D02*
X14Y1149D01*
X1190Y1149D02*
X1193Y1149D01*
X1200Y1149D02*
X1203Y1149D01*
X1208Y1149D02*
X1211Y1149D01*
X1219Y1149D02*
X1222Y1149D01*
X1227Y1149D02*
X1230Y1149D01*
X1233Y1149D02*
X1240Y1149D01*
X1245Y1149D02*
X1248Y1149D01*
X1256Y1149D02*
X1259Y1149D01*
X1276Y1149D02*
X1278Y1149D01*
X1286Y1149D02*
X1288Y1149D01*
X1294Y1149D02*
X1295Y1149D01*
X1303Y1149D02*
X1306Y1149D01*
X1311Y1149D02*
X1313Y1149D01*
X1321Y1149D02*
X1322Y1149D01*
X1329Y1149D02*
X1330Y1149D01*
X1339Y1149D02*
X1341Y1149D01*
X1345Y1149D02*
X1346Y1149D01*
X1351Y1149D02*
X1353Y1149D01*
X1358Y1149D02*
X1360Y1149D01*
X1364Y1149D02*
X1365Y1149D01*
X1373Y1149D02*
X1376Y1149D01*
X1381Y1149D02*
X1383Y1149D01*
X1392Y1149D02*
X1392Y1149D01*
X1399Y1149D02*
X1400Y1149D01*
X1407Y1149D02*
X1411Y1149D01*
X7Y1148D02*
X14Y1148D01*
X1190Y1148D02*
X1193Y1148D01*
X1200Y1148D02*
X1203Y1148D01*
X1208Y1148D02*
X1211Y1148D01*
X1219Y1148D02*
X1222Y1148D01*
X1227Y1148D02*
X1240Y1148D01*
X1245Y1148D02*
X1248Y1148D01*
X1256Y1148D02*
X1259Y1148D01*
X1276Y1148D02*
X1278Y1148D01*
X1286Y1148D02*
X1288Y1148D01*
X1300Y1148D02*
X1306Y1148D01*
X1311Y1148D02*
X1313Y1148D01*
X1329Y1148D02*
X1330Y1148D01*
X1339Y1148D02*
X1341Y1148D01*
X1345Y1148D02*
X1346Y1148D01*
X1351Y1148D02*
X1353Y1148D01*
X1358Y1148D02*
X1360Y1148D01*
X1370Y1148D02*
X1376Y1148D01*
X1381Y1148D02*
X1383Y1148D01*
X1399Y1148D02*
X1400Y1148D01*
X1405Y1148D02*
X1411Y1148D01*
X7Y1147D02*
X14Y1147D01*
X1190Y1147D02*
X1193Y1147D01*
X1200Y1147D02*
X1203Y1147D01*
X1208Y1147D02*
X1211Y1147D01*
X1219Y1147D02*
X1222Y1147D01*
X1227Y1147D02*
X1238Y1147D01*
X1245Y1147D02*
X1248Y1147D01*
X1256Y1147D02*
X1259Y1147D01*
X1276Y1147D02*
X1278Y1147D01*
X1286Y1147D02*
X1288Y1147D01*
X1298Y1147D02*
X1306Y1147D01*
X1311Y1147D02*
X1313Y1147D01*
X1329Y1147D02*
X1330Y1147D01*
X1339Y1147D02*
X1341Y1147D01*
X1345Y1147D02*
X1346Y1147D01*
X1351Y1147D02*
X1353Y1147D01*
X1358Y1147D02*
X1360Y1147D01*
X1368Y1147D02*
X1376Y1147D01*
X1381Y1147D02*
X1383Y1147D01*
X1399Y1147D02*
X1400Y1147D01*
X1403Y1147D02*
X1409Y1147D01*
X7Y1146D02*
X14Y1146D01*
X1190Y1146D02*
X1193Y1146D01*
X1200Y1146D02*
X1203Y1146D01*
X1208Y1146D02*
X1211Y1146D01*
X1219Y1146D02*
X1222Y1146D01*
X1227Y1146D02*
X1235Y1146D01*
X1245Y1146D02*
X1248Y1146D01*
X1256Y1146D02*
X1259Y1146D01*
X1276Y1146D02*
X1278Y1146D01*
X1286Y1146D02*
X1288Y1146D01*
X1296Y1146D02*
X1302Y1146D01*
X1304Y1146D02*
X1306Y1146D01*
X1311Y1146D02*
X1313Y1146D01*
X1329Y1146D02*
X1330Y1146D01*
X1339Y1146D02*
X1341Y1146D01*
X1345Y1146D02*
X1346Y1146D01*
X1351Y1146D02*
X1353Y1146D01*
X1358Y1146D02*
X1360Y1146D01*
X1366Y1146D02*
X1372Y1146D01*
X1374Y1146D02*
X1376Y1146D01*
X1381Y1146D02*
X1383Y1146D01*
X1399Y1146D02*
X1406Y1146D01*
X7Y1145D02*
X14Y1145D01*
X1190Y1145D02*
X1193Y1145D01*
X1200Y1145D02*
X1203Y1145D01*
X1208Y1145D02*
X1211Y1145D01*
X1219Y1145D02*
X1222Y1145D01*
X1227Y1145D02*
X1233Y1145D01*
X1239Y1145D02*
X1240Y1145D01*
X1245Y1145D02*
X1248Y1145D01*
X1256Y1145D02*
X1259Y1145D01*
X1276Y1145D02*
X1278Y1145D01*
X1286Y1145D02*
X1288Y1145D01*
X1295Y1145D02*
X1300Y1145D01*
X1304Y1145D02*
X1306Y1145D01*
X1311Y1145D02*
X1313Y1145D01*
X1329Y1145D02*
X1330Y1145D01*
X1339Y1145D02*
X1341Y1145D01*
X1345Y1145D02*
X1346Y1145D01*
X1351Y1145D02*
X1353Y1145D01*
X1358Y1145D02*
X1360Y1145D01*
X1365Y1145D02*
X1370Y1145D01*
X1374Y1145D02*
X1376Y1145D01*
X1381Y1145D02*
X1383Y1145D01*
X1399Y1145D02*
X1404Y1145D01*
X7Y1144D02*
X14Y1144D01*
X1190Y1144D02*
X1193Y1144D01*
X1200Y1144D02*
X1203Y1144D01*
X1208Y1144D02*
X1211Y1144D01*
X1219Y1144D02*
X1222Y1144D01*
X1227Y1144D02*
X1231Y1144D01*
X1237Y1144D02*
X1240Y1144D01*
X1245Y1144D02*
X1248Y1144D01*
X1256Y1144D02*
X1259Y1144D01*
X1276Y1144D02*
X1278Y1144D01*
X1286Y1144D02*
X1288Y1144D01*
X1294Y1144D02*
X1297Y1144D01*
X1304Y1144D02*
X1306Y1144D01*
X1311Y1144D02*
X1313Y1144D01*
X1329Y1144D02*
X1330Y1144D01*
X1339Y1144D02*
X1341Y1144D01*
X1345Y1144D02*
X1346Y1144D01*
X1351Y1144D02*
X1353Y1144D01*
X1358Y1144D02*
X1360Y1144D01*
X1364Y1144D02*
X1367Y1144D01*
X1374Y1144D02*
X1376Y1144D01*
X1381Y1144D02*
X1383Y1144D01*
X1399Y1144D02*
X1402Y1144D01*
X1410Y1144D02*
X1411Y1144D01*
X7Y1143D02*
X14Y1143D01*
X1190Y1143D02*
X1193Y1143D01*
X1200Y1143D02*
X1203Y1143D01*
X1208Y1143D02*
X1212Y1143D01*
X1219Y1143D02*
X1222Y1143D01*
X1227Y1143D02*
X1230Y1143D01*
X1237Y1143D02*
X1240Y1143D01*
X1245Y1143D02*
X1248Y1143D01*
X1256Y1143D02*
X1259Y1143D01*
X1276Y1143D02*
X1278Y1143D01*
X1286Y1143D02*
X1288Y1143D01*
X1294Y1143D02*
X1296Y1143D01*
X1304Y1143D02*
X1306Y1143D01*
X1311Y1143D02*
X1313Y1143D01*
X1329Y1143D02*
X1330Y1143D01*
X1339Y1143D02*
X1341Y1143D01*
X1345Y1143D02*
X1346Y1143D01*
X1351Y1143D02*
X1353Y1143D01*
X1358Y1143D02*
X1360Y1143D01*
X1364Y1143D02*
X1366Y1143D01*
X1374Y1143D02*
X1376Y1143D01*
X1381Y1143D02*
X1383Y1143D01*
X1399Y1143D02*
X1400Y1143D01*
X1409Y1143D02*
X1411Y1143D01*
X7Y1142D02*
X14Y1142D01*
X1190Y1142D02*
X1194Y1142D01*
X1200Y1142D02*
X1203Y1142D01*
X1208Y1142D02*
X1212Y1142D01*
X1218Y1142D02*
X1222Y1142D01*
X1227Y1142D02*
X1230Y1142D01*
X1237Y1142D02*
X1240Y1142D01*
X1245Y1142D02*
X1248Y1142D01*
X1256Y1142D02*
X1259Y1142D01*
X1276Y1142D02*
X1278Y1142D01*
X1286Y1142D02*
X1288Y1142D01*
X1293Y1142D02*
X1295Y1142D01*
X1304Y1142D02*
X1306Y1142D01*
X1311Y1142D02*
X1313Y1142D01*
X1329Y1142D02*
X1331Y1142D01*
X1339Y1142D02*
X1341Y1142D01*
X1345Y1142D02*
X1346Y1142D01*
X1351Y1142D02*
X1353Y1142D01*
X1358Y1142D02*
X1360Y1142D01*
X1364Y1142D02*
X1365Y1142D01*
X1374Y1142D02*
X1376Y1142D01*
X1381Y1142D02*
X1383Y1142D01*
X1399Y1142D02*
X1401Y1142D01*
X1409Y1142D02*
X1411Y1142D01*
X7Y1141D02*
X14Y1141D01*
X1191Y1141D02*
X1195Y1141D01*
X1199Y1141D02*
X1203Y1141D01*
X1208Y1141D02*
X1213Y1141D01*
X1217Y1141D02*
X1221Y1141D01*
X1227Y1141D02*
X1231Y1141D01*
X1236Y1141D02*
X1240Y1141D01*
X1245Y1141D02*
X1248Y1141D01*
X1256Y1141D02*
X1259Y1141D01*
X1276Y1141D02*
X1278Y1141D01*
X1286Y1141D02*
X1288Y1141D01*
X1294Y1141D02*
X1296Y1141D01*
X1304Y1141D02*
X1306Y1141D01*
X1311Y1141D02*
X1313Y1141D01*
X1329Y1141D02*
X1331Y1141D01*
X1338Y1141D02*
X1340Y1141D01*
X1345Y1141D02*
X1346Y1141D01*
X1351Y1141D02*
X1353Y1141D01*
X1358Y1141D02*
X1360Y1141D01*
X1364Y1141D02*
X1366Y1141D01*
X1374Y1141D02*
X1376Y1141D01*
X1381Y1141D02*
X1383Y1141D01*
X1399Y1141D02*
X1401Y1141D01*
X1408Y1141D02*
X1410Y1141D01*
X7Y1140D02*
X14Y1140D01*
X1191Y1140D02*
X1202Y1140D01*
X1208Y1140D02*
X1221Y1140D01*
X1228Y1140D02*
X1239Y1140D01*
X1245Y1140D02*
X1248Y1140D01*
X1256Y1140D02*
X1259Y1140D01*
X1276Y1140D02*
X1278Y1140D01*
X1286Y1140D02*
X1288Y1140D01*
X1294Y1140D02*
X1296Y1140D01*
X1304Y1140D02*
X1306Y1140D01*
X1311Y1140D02*
X1313Y1140D01*
X1329Y1140D02*
X1332Y1140D01*
X1337Y1140D02*
X1340Y1140D01*
X1345Y1140D02*
X1347Y1140D01*
X1351Y1140D02*
X1354Y1140D01*
X1357Y1140D02*
X1360Y1140D01*
X1364Y1140D02*
X1366Y1140D01*
X1374Y1140D02*
X1376Y1140D01*
X1381Y1140D02*
X1383Y1140D01*
X1399Y1140D02*
X1402Y1140D01*
X1407Y1140D02*
X1410Y1140D01*
X7Y1139D02*
X14Y1139D01*
X1192Y1139D02*
X1202Y1139D01*
X1208Y1139D02*
X1220Y1139D01*
X1229Y1139D02*
X1238Y1139D01*
X1245Y1139D02*
X1248Y1139D01*
X1256Y1139D02*
X1259Y1139D01*
X1276Y1139D02*
X1278Y1139D01*
X1286Y1139D02*
X1288Y1139D01*
X1294Y1139D02*
X1301Y1139D01*
X1304Y1139D02*
X1306Y1139D01*
X1311Y1139D02*
X1313Y1139D01*
X1330Y1139D02*
X1339Y1139D01*
X1345Y1139D02*
X1359Y1139D01*
X1364Y1139D02*
X1371Y1139D01*
X1374Y1139D02*
X1376Y1139D01*
X1381Y1139D02*
X1383Y1139D01*
X1400Y1139D02*
X1409Y1139D01*
X7Y1138D02*
X14Y1138D01*
X1193Y1138D02*
X1201Y1138D01*
X1208Y1138D02*
X1219Y1138D01*
X1230Y1138D02*
X1237Y1138D01*
X1245Y1138D02*
X1248Y1138D01*
X1256Y1138D02*
X1259Y1138D01*
X1276Y1138D02*
X1278Y1138D01*
X1286Y1138D02*
X1288Y1138D01*
X1295Y1138D02*
X1301Y1138D01*
X1304Y1138D02*
X1306Y1138D01*
X1311Y1138D02*
X1313Y1138D01*
X1331Y1138D02*
X1338Y1138D01*
X1346Y1138D02*
X1358Y1138D01*
X1365Y1138D02*
X1371Y1138D01*
X1374Y1138D02*
X1376Y1138D01*
X1381Y1138D02*
X1383Y1138D01*
X1401Y1138D02*
X1408Y1138D01*
X7Y1137D02*
X14Y1137D01*
X1195Y1137D02*
X1199Y1137D01*
X1208Y1137D02*
X1217Y1137D01*
X1232Y1137D02*
X1236Y1137D01*
X1245Y1137D02*
X1246Y1137D01*
X1256Y1137D02*
X1257Y1137D01*
X1276Y1137D02*
X1276Y1137D01*
X1297Y1137D02*
X1301Y1137D01*
X1304Y1137D02*
X1304Y1137D01*
X1311Y1137D02*
X1311Y1137D01*
X1333Y1137D02*
X1337Y1137D01*
X1347Y1137D02*
X1350Y1137D01*
X1354Y1137D02*
X1357Y1137D01*
X1367Y1137D02*
X1371Y1137D01*
X1374Y1137D02*
X1374Y1137D01*
X1381Y1137D02*
X1381Y1137D01*
X1403Y1137D02*
X1407Y1137D01*
X7Y1136D02*
X14Y1136D01*
X1208Y1136D02*
X1211Y1136D01*
X7Y1135D02*
X14Y1135D01*
X1208Y1135D02*
X1211Y1135D01*
X7Y1134D02*
X14Y1134D01*
X1208Y1134D02*
X1211Y1134D01*
X7Y1133D02*
X14Y1133D01*
X1208Y1133D02*
X1211Y1133D01*
X7Y1132D02*
X14Y1132D01*
X1208Y1132D02*
X1211Y1132D01*
X7Y1131D02*
X14Y1131D01*
X1208Y1131D02*
X1211Y1131D01*
X7Y1130D02*
X14Y1130D01*
X1208Y1130D02*
X1209Y1130D01*
X7Y1129D02*
X14Y1129D01*
X7Y1128D02*
X14Y1128D01*
X7Y1127D02*
X14Y1127D01*
X7Y1126D02*
X14Y1126D01*
X7Y1125D02*
X14Y1125D01*
X7Y1124D02*
X14Y1124D01*
X7Y1123D02*
X14Y1123D01*
X7Y1122D02*
X14Y1122D01*
X7Y1121D02*
X14Y1121D01*
X7Y1120D02*
X14Y1120D01*
X7Y1119D02*
X14Y1119D01*
X7Y1118D02*
X14Y1118D01*
X7Y1117D02*
X14Y1117D01*
X7Y1116D02*
X14Y1116D01*
X7Y1115D02*
X14Y1115D01*
X7Y1114D02*
X14Y1114D01*
X7Y1113D02*
X14Y1113D01*
X7Y1112D02*
X14Y1112D01*
X7Y1111D02*
X14Y1111D01*
X7Y1110D02*
X14Y1110D01*
X7Y1109D02*
X14Y1109D01*
X7Y1108D02*
X14Y1108D01*
X7Y1107D02*
X14Y1107D01*
X7Y1106D02*
X14Y1106D01*
X7Y1105D02*
X14Y1105D01*
X7Y1104D02*
X14Y1104D01*
X7Y1103D02*
X14Y1103D01*
X7Y1102D02*
X14Y1102D01*
X7Y1101D02*
X14Y1101D01*
X7Y1100D02*
X14Y1100D01*
X7Y1099D02*
X14Y1099D01*
X7Y1098D02*
X14Y1098D01*
X7Y1097D02*
X14Y1097D01*
X7Y1096D02*
X14Y1096D01*
X7Y1095D02*
X14Y1095D01*
X7Y1094D02*
X14Y1094D01*
X7Y1093D02*
X14Y1093D01*
X7Y1092D02*
X14Y1092D01*
X7Y1091D02*
X14Y1091D01*
X7Y1090D02*
X14Y1090D01*
X7Y1089D02*
X14Y1089D01*
X7Y1088D02*
X14Y1088D01*
X7Y1087D02*
X14Y1087D01*
X7Y1086D02*
X14Y1086D01*
X7Y1085D02*
X14Y1085D01*
X7Y1084D02*
X14Y1084D01*
X7Y1083D02*
X14Y1083D01*
X7Y1082D02*
X14Y1082D01*
X7Y1081D02*
X14Y1081D01*
X7Y1080D02*
X14Y1080D01*
X7Y1079D02*
X14Y1079D01*
X7Y1078D02*
X14Y1078D01*
X7Y1077D02*
X14Y1077D01*
X7Y1076D02*
X14Y1076D01*
X7Y1075D02*
X14Y1075D01*
X7Y1074D02*
X14Y1074D01*
X7Y1073D02*
X14Y1073D01*
X7Y1072D02*
X14Y1072D01*
X7Y1071D02*
X14Y1071D01*
X7Y1070D02*
X14Y1070D01*
X7Y1069D02*
X14Y1069D01*
X7Y1068D02*
X14Y1068D01*
X7Y1067D02*
X14Y1067D01*
X7Y1066D02*
X14Y1066D01*
X7Y1065D02*
X14Y1065D01*
X7Y1064D02*
X14Y1064D01*
X7Y1063D02*
X14Y1063D01*
X7Y1062D02*
X14Y1062D01*
X7Y1061D02*
X14Y1061D01*
X7Y1060D02*
X14Y1060D01*
X7Y1059D02*
X14Y1059D01*
X7Y1058D02*
X14Y1058D01*
X7Y1057D02*
X14Y1057D01*
X7Y1056D02*
X14Y1056D01*
X7Y1055D02*
X14Y1055D01*
X7Y1054D02*
X14Y1054D01*
X7Y1053D02*
X14Y1053D01*
X7Y1052D02*
X14Y1052D01*
X7Y1051D02*
X14Y1051D01*
X7Y1050D02*
X14Y1050D01*
X7Y1049D02*
X14Y1049D01*
X7Y1048D02*
X14Y1048D01*
X7Y1047D02*
X14Y1047D01*
X7Y1046D02*
X14Y1046D01*
X7Y1045D02*
X14Y1045D01*
X7Y1044D02*
X14Y1044D01*
X7Y1043D02*
X14Y1043D01*
X7Y1042D02*
X14Y1042D01*
X7Y1041D02*
X14Y1041D01*
X7Y1040D02*
X14Y1040D01*
X7Y1039D02*
X14Y1039D01*
X7Y1038D02*
X14Y1038D01*
X7Y1037D02*
X14Y1037D01*
X7Y1036D02*
X14Y1036D01*
X7Y1035D02*
X14Y1035D01*
X7Y1034D02*
X14Y1034D01*
X7Y1033D02*
X14Y1033D01*
X7Y1032D02*
X14Y1032D01*
X7Y1031D02*
X14Y1031D01*
X7Y1030D02*
X14Y1030D01*
X7Y1029D02*
X14Y1029D01*
X7Y1028D02*
X14Y1028D01*
X7Y1027D02*
X14Y1027D01*
X7Y1026D02*
X14Y1026D01*
X7Y1025D02*
X14Y1025D01*
X7Y1024D02*
X14Y1024D01*
X7Y1023D02*
X14Y1023D01*
X7Y1022D02*
X14Y1022D01*
X7Y1021D02*
X14Y1021D01*
X7Y1020D02*
X14Y1020D01*
X7Y1019D02*
X14Y1019D01*
X7Y1018D02*
X14Y1018D01*
X7Y1017D02*
X14Y1017D01*
X7Y1016D02*
X14Y1016D01*
X7Y1015D02*
X14Y1015D01*
X7Y1014D02*
X14Y1014D01*
X7Y1013D02*
X14Y1013D01*
X7Y1012D02*
X14Y1012D01*
X7Y1011D02*
X14Y1011D01*
X7Y1010D02*
X14Y1010D01*
X7Y1009D02*
X14Y1009D01*
X7Y1008D02*
X14Y1008D01*
X7Y1007D02*
X14Y1007D01*
X7Y1006D02*
X14Y1006D01*
X7Y1005D02*
X14Y1005D01*
X7Y1004D02*
X14Y1004D01*
X7Y1003D02*
X14Y1003D01*
X7Y1002D02*
X14Y1002D01*
X7Y1001D02*
X14Y1001D01*
X7Y1000D02*
X14Y1000D01*
X7Y999D02*
X14Y999D01*
X7Y998D02*
X14Y998D01*
X7Y997D02*
X14Y997D01*
X7Y996D02*
X14Y996D01*
X7Y995D02*
X14Y995D01*
X7Y994D02*
X14Y994D01*
X7Y993D02*
X14Y993D01*
X7Y992D02*
X14Y992D01*
X7Y991D02*
X14Y991D01*
X7Y990D02*
X14Y990D01*
X7Y989D02*
X14Y989D01*
X7Y988D02*
X14Y988D01*
X7Y987D02*
X14Y987D01*
X7Y986D02*
X14Y986D01*
X7Y985D02*
X14Y985D01*
X7Y984D02*
X14Y984D01*
X7Y983D02*
X14Y983D01*
X7Y982D02*
X14Y982D01*
X7Y981D02*
X14Y981D01*
X7Y980D02*
X14Y980D01*
X7Y979D02*
X14Y979D01*
X7Y978D02*
X14Y978D01*
X7Y977D02*
X14Y977D01*
X7Y976D02*
X14Y976D01*
X7Y975D02*
X14Y975D01*
X7Y974D02*
X14Y974D01*
X7Y973D02*
X14Y973D01*
X7Y972D02*
X14Y972D01*
X7Y971D02*
X14Y971D01*
X7Y970D02*
X14Y970D01*
X7Y969D02*
X14Y969D01*
X7Y968D02*
X14Y968D01*
X7Y967D02*
X14Y967D01*
X7Y966D02*
X14Y966D01*
X7Y965D02*
X14Y965D01*
X7Y964D02*
X14Y964D01*
X7Y963D02*
X14Y963D01*
X7Y962D02*
X14Y962D01*
X7Y961D02*
X14Y961D01*
X7Y960D02*
X14Y960D01*
X7Y959D02*
X14Y959D01*
X7Y958D02*
X14Y958D01*
X7Y957D02*
X14Y957D01*
X1131Y957D02*
X1132Y957D01*
X1168Y957D02*
X1178Y957D01*
X1191Y957D02*
X1201Y957D01*
X1251Y957D02*
X1252Y957D01*
X1268Y957D02*
X1269Y957D01*
X1283Y957D02*
X1297Y957D01*
X7Y956D02*
X14Y956D01*
X1130Y956D02*
X1133Y956D01*
X1167Y956D02*
X1179Y956D01*
X1190Y956D02*
X1202Y956D01*
X1250Y956D02*
X1253Y956D01*
X1267Y956D02*
X1270Y956D01*
X1281Y956D02*
X1299Y956D01*
X7Y955D02*
X14Y955D01*
X1130Y955D02*
X1133Y955D01*
X1166Y955D02*
X1179Y955D01*
X1190Y955D02*
X1203Y955D01*
X1250Y955D02*
X1253Y955D01*
X1267Y955D02*
X1270Y955D01*
X1281Y955D02*
X1299Y955D01*
X7Y954D02*
X14Y954D01*
X1130Y954D02*
X1133Y954D01*
X1165Y954D02*
X1179Y954D01*
X1190Y954D02*
X1204Y954D01*
X1250Y954D02*
X1253Y954D01*
X1267Y954D02*
X1270Y954D01*
X1280Y954D02*
X1300Y954D01*
X7Y953D02*
X14Y953D01*
X1130Y953D02*
X1133Y953D01*
X1164Y953D02*
X1169Y953D01*
X1194Y953D02*
X1197Y953D01*
X1200Y953D02*
X1205Y953D01*
X1250Y953D02*
X1253Y953D01*
X1267Y953D02*
X1270Y953D01*
X1280Y953D02*
X1284Y953D01*
X1296Y953D02*
X1300Y953D01*
X7Y952D02*
X14Y952D01*
X1130Y952D02*
X1133Y952D01*
X1164Y952D02*
X1168Y952D01*
X1194Y952D02*
X1197Y952D01*
X1201Y952D02*
X1205Y952D01*
X1250Y952D02*
X1253Y952D01*
X1267Y952D02*
X1270Y952D01*
X1280Y952D02*
X1283Y952D01*
X1297Y952D02*
X1300Y952D01*
X7Y951D02*
X14Y951D01*
X1130Y951D02*
X1133Y951D01*
X1163Y951D02*
X1167Y951D01*
X1194Y951D02*
X1197Y951D01*
X1202Y951D02*
X1206Y951D01*
X1250Y951D02*
X1253Y951D01*
X1267Y951D02*
X1270Y951D01*
X1280Y951D02*
X1283Y951D01*
X1297Y951D02*
X1300Y951D01*
X7Y950D02*
X14Y950D01*
X1130Y950D02*
X1133Y950D01*
X1163Y950D02*
X1167Y950D01*
X1194Y950D02*
X1197Y950D01*
X1202Y950D02*
X1206Y950D01*
X1250Y950D02*
X1253Y950D01*
X1267Y950D02*
X1270Y950D01*
X1280Y950D02*
X1283Y950D01*
X1297Y950D02*
X1300Y950D01*
X7Y949D02*
X14Y949D01*
X1130Y949D02*
X1133Y949D01*
X1162Y949D02*
X1166Y949D01*
X1194Y949D02*
X1197Y949D01*
X1203Y949D02*
X1207Y949D01*
X1250Y949D02*
X1253Y949D01*
X1267Y949D02*
X1270Y949D01*
X1280Y949D02*
X1283Y949D01*
X1297Y949D02*
X1300Y949D01*
X7Y948D02*
X14Y948D01*
X1130Y948D02*
X1133Y948D01*
X1162Y948D02*
X1166Y948D01*
X1194Y948D02*
X1197Y948D01*
X1203Y948D02*
X1207Y948D01*
X1250Y948D02*
X1253Y948D01*
X1266Y948D02*
X1270Y948D01*
X1280Y948D02*
X1283Y948D01*
X1297Y948D02*
X1300Y948D01*
X7Y947D02*
X14Y947D01*
X1130Y947D02*
X1133Y947D01*
X1161Y947D02*
X1165Y947D01*
X1194Y947D02*
X1197Y947D01*
X1204Y947D02*
X1208Y947D01*
X1250Y947D02*
X1254Y947D01*
X1266Y947D02*
X1269Y947D01*
X1280Y947D02*
X1283Y947D01*
X1297Y947D02*
X1300Y947D01*
X7Y946D02*
X14Y946D01*
X1130Y946D02*
X1133Y946D01*
X1161Y946D02*
X1165Y946D01*
X1194Y946D02*
X1197Y946D01*
X1204Y946D02*
X1208Y946D01*
X1251Y946D02*
X1254Y946D01*
X1266Y946D02*
X1269Y946D01*
X1280Y946D02*
X1283Y946D01*
X1297Y946D02*
X1300Y946D01*
X7Y945D02*
X14Y945D01*
X1130Y945D02*
X1133Y945D01*
X1160Y945D02*
X1164Y945D01*
X1194Y945D02*
X1197Y945D01*
X1205Y945D02*
X1209Y945D01*
X1251Y945D02*
X1255Y945D01*
X1265Y945D02*
X1269Y945D01*
X1280Y945D02*
X1283Y945D01*
X1297Y945D02*
X1300Y945D01*
X7Y944D02*
X14Y944D01*
X1130Y944D02*
X1133Y944D01*
X1160Y944D02*
X1164Y944D01*
X1194Y944D02*
X1197Y944D01*
X1205Y944D02*
X1209Y944D01*
X1251Y944D02*
X1255Y944D01*
X1265Y944D02*
X1268Y944D01*
X1280Y944D02*
X1283Y944D01*
X1297Y944D02*
X1300Y944D01*
X7Y943D02*
X14Y943D01*
X1130Y943D02*
X1133Y943D01*
X1160Y943D02*
X1163Y943D01*
X1194Y943D02*
X1197Y943D01*
X1206Y943D02*
X1209Y943D01*
X1252Y943D02*
X1255Y943D01*
X1264Y943D02*
X1268Y943D01*
X1280Y943D02*
X1283Y943D01*
X1297Y943D02*
X1300Y943D01*
X7Y942D02*
X14Y942D01*
X1130Y942D02*
X1133Y942D01*
X1160Y942D02*
X1163Y942D01*
X1194Y942D02*
X1197Y942D01*
X1206Y942D02*
X1209Y942D01*
X1252Y942D02*
X1256Y942D01*
X1264Y942D02*
X1268Y942D01*
X1280Y942D02*
X1283Y942D01*
X1297Y942D02*
X1300Y942D01*
X7Y941D02*
X14Y941D01*
X1130Y941D02*
X1133Y941D01*
X1160Y941D02*
X1163Y941D01*
X1194Y941D02*
X1197Y941D01*
X1206Y941D02*
X1210Y941D01*
X1253Y941D02*
X1256Y941D01*
X1264Y941D02*
X1267Y941D01*
X1280Y941D02*
X1283Y941D01*
X1297Y941D02*
X1300Y941D01*
X7Y940D02*
X14Y940D01*
X1130Y940D02*
X1133Y940D01*
X1160Y940D02*
X1163Y940D01*
X1194Y940D02*
X1197Y940D01*
X1206Y940D02*
X1209Y940D01*
X1253Y940D02*
X1257Y940D01*
X1263Y940D02*
X1267Y940D01*
X1280Y940D02*
X1283Y940D01*
X1297Y940D02*
X1300Y940D01*
X7Y939D02*
X14Y939D01*
X1130Y939D02*
X1133Y939D01*
X1160Y939D02*
X1163Y939D01*
X1194Y939D02*
X1197Y939D01*
X1206Y939D02*
X1209Y939D01*
X1253Y939D02*
X1257Y939D01*
X1263Y939D02*
X1266Y939D01*
X1280Y939D02*
X1283Y939D01*
X1297Y939D02*
X1300Y939D01*
X7Y938D02*
X14Y938D01*
X1130Y938D02*
X1133Y938D01*
X1160Y938D02*
X1164Y938D01*
X1194Y938D02*
X1197Y938D01*
X1205Y938D02*
X1209Y938D01*
X1254Y938D02*
X1257Y938D01*
X1262Y938D02*
X1266Y938D01*
X1280Y938D02*
X1283Y938D01*
X1297Y938D02*
X1300Y938D01*
X7Y937D02*
X14Y937D01*
X1130Y937D02*
X1133Y937D01*
X1161Y937D02*
X1164Y937D01*
X1194Y937D02*
X1197Y937D01*
X1205Y937D02*
X1209Y937D01*
X1254Y937D02*
X1258Y937D01*
X1262Y937D02*
X1266Y937D01*
X1280Y937D02*
X1283Y937D01*
X1297Y937D02*
X1300Y937D01*
X7Y936D02*
X14Y936D01*
X1130Y936D02*
X1133Y936D01*
X1161Y936D02*
X1165Y936D01*
X1194Y936D02*
X1197Y936D01*
X1204Y936D02*
X1208Y936D01*
X1255Y936D02*
X1258Y936D01*
X1262Y936D02*
X1265Y936D01*
X1280Y936D02*
X1283Y936D01*
X1297Y936D02*
X1300Y936D01*
X7Y935D02*
X14Y935D01*
X1130Y935D02*
X1133Y935D01*
X1161Y935D02*
X1165Y935D01*
X1194Y935D02*
X1197Y935D01*
X1204Y935D02*
X1208Y935D01*
X1255Y935D02*
X1259Y935D01*
X1261Y935D02*
X1265Y935D01*
X1280Y935D02*
X1283Y935D01*
X1297Y935D02*
X1300Y935D01*
X7Y934D02*
X14Y934D01*
X1130Y934D02*
X1133Y934D01*
X1162Y934D02*
X1166Y934D01*
X1194Y934D02*
X1197Y934D01*
X1203Y934D02*
X1207Y934D01*
X1255Y934D02*
X1259Y934D01*
X1261Y934D02*
X1264Y934D01*
X1280Y934D02*
X1283Y934D01*
X1297Y934D02*
X1300Y934D01*
X7Y933D02*
X14Y933D01*
X1130Y933D02*
X1133Y933D01*
X1162Y933D02*
X1166Y933D01*
X1194Y933D02*
X1197Y933D01*
X1203Y933D02*
X1207Y933D01*
X1256Y933D02*
X1264Y933D01*
X1280Y933D02*
X1283Y933D01*
X1297Y933D02*
X1300Y933D01*
X7Y932D02*
X14Y932D01*
X1130Y932D02*
X1133Y932D01*
X1163Y932D02*
X1167Y932D01*
X1194Y932D02*
X1197Y932D01*
X1202Y932D02*
X1206Y932D01*
X1256Y932D02*
X1264Y932D01*
X1280Y932D02*
X1283Y932D01*
X1297Y932D02*
X1300Y932D01*
X7Y931D02*
X14Y931D01*
X1130Y931D02*
X1133Y931D01*
X1163Y931D02*
X1167Y931D01*
X1194Y931D02*
X1197Y931D01*
X1202Y931D02*
X1206Y931D01*
X1256Y931D02*
X1263Y931D01*
X1280Y931D02*
X1283Y931D01*
X1297Y931D02*
X1300Y931D01*
X7Y930D02*
X14Y930D01*
X1130Y930D02*
X1133Y930D01*
X1164Y930D02*
X1168Y930D01*
X1194Y930D02*
X1197Y930D01*
X1201Y930D02*
X1205Y930D01*
X1257Y930D02*
X1263Y930D01*
X1280Y930D02*
X1283Y930D01*
X1297Y930D02*
X1300Y930D01*
X7Y929D02*
X14Y929D01*
X1130Y929D02*
X1147Y929D01*
X1165Y929D02*
X1178Y929D01*
X1192Y929D02*
X1205Y929D01*
X1257Y929D02*
X1262Y929D01*
X1280Y929D02*
X1300Y929D01*
X7Y928D02*
X14Y928D01*
X1130Y928D02*
X1149Y928D01*
X1165Y928D02*
X1179Y928D01*
X1190Y928D02*
X1204Y928D01*
X1258Y928D02*
X1262Y928D01*
X1280Y928D02*
X1300Y928D01*
X7Y927D02*
X14Y927D01*
X1130Y927D02*
X1149Y927D01*
X1166Y927D02*
X1179Y927D01*
X1190Y927D02*
X1203Y927D01*
X1258Y927D02*
X1262Y927D01*
X1281Y927D02*
X1299Y927D01*
X7Y926D02*
X14Y926D01*
X1130Y926D02*
X1149Y926D01*
X1167Y926D02*
X1179Y926D01*
X1190Y926D02*
X1202Y926D01*
X1258Y926D02*
X1261Y926D01*
X1281Y926D02*
X1298Y926D01*
X7Y925D02*
X14Y925D01*
X1130Y925D02*
X1148Y925D01*
X1169Y925D02*
X1178Y925D01*
X1191Y925D02*
X1200Y925D01*
X1260Y925D02*
X1260Y925D01*
X1283Y925D02*
X1297Y925D01*
X7Y924D02*
X14Y924D01*
X1220Y924D02*
X1239Y924D01*
X7Y923D02*
X14Y923D01*
X1220Y923D02*
X1240Y923D01*
X7Y922D02*
X14Y922D01*
X1220Y922D02*
X1239Y922D01*
X7Y921D02*
X14Y921D01*
X1221Y921D02*
X1239Y921D01*
X7Y920D02*
X14Y920D01*
X7Y919D02*
X14Y919D01*
X7Y918D02*
X14Y918D01*
X7Y917D02*
X14Y917D01*
X7Y916D02*
X14Y916D01*
X7Y915D02*
X14Y915D01*
X7Y914D02*
X14Y914D01*
X7Y913D02*
X14Y913D01*
X7Y912D02*
X14Y912D01*
X7Y911D02*
X14Y911D01*
X7Y910D02*
X14Y910D01*
X7Y909D02*
X14Y909D01*
X7Y908D02*
X14Y908D01*
X7Y907D02*
X14Y907D01*
X7Y906D02*
X14Y906D01*
X7Y905D02*
X14Y905D01*
X7Y904D02*
X14Y904D01*
X7Y903D02*
X14Y903D01*
X7Y902D02*
X14Y902D01*
X7Y901D02*
X14Y901D01*
X7Y900D02*
X14Y900D01*
X7Y899D02*
X14Y899D01*
X7Y898D02*
X14Y898D01*
X7Y897D02*
X14Y897D01*
X7Y896D02*
X14Y896D01*
X7Y895D02*
X14Y895D01*
X575Y895D02*
X578Y895D01*
X605Y895D02*
X624Y895D01*
X635Y895D02*
X647Y895D01*
X666Y895D02*
X683Y895D01*
X7Y894D02*
X14Y894D01*
X575Y894D02*
X578Y894D01*
X605Y894D02*
X625Y894D01*
X635Y894D02*
X648Y894D01*
X665Y894D02*
X684Y894D01*
X7Y893D02*
X14Y893D01*
X575Y893D02*
X578Y893D01*
X605Y893D02*
X625Y893D01*
X635Y893D02*
X649Y893D01*
X665Y893D02*
X685Y893D01*
X7Y892D02*
X14Y892D01*
X575Y892D02*
X578Y892D01*
X605Y892D02*
X624Y892D01*
X636Y892D02*
X650Y892D01*
X666Y892D02*
X685Y892D01*
X7Y891D02*
X14Y891D01*
X575Y891D02*
X578Y891D01*
X605Y891D02*
X608Y891D01*
X639Y891D02*
X642Y891D01*
X646Y891D02*
X650Y891D01*
X682Y891D02*
X685Y891D01*
X7Y890D02*
X14Y890D01*
X575Y890D02*
X578Y890D01*
X605Y890D02*
X608Y890D01*
X639Y890D02*
X642Y890D01*
X647Y890D02*
X651Y890D01*
X682Y890D02*
X685Y890D01*
X7Y889D02*
X14Y889D01*
X510Y889D02*
X510Y889D01*
X552Y889D02*
X552Y889D01*
X575Y889D02*
X578Y889D01*
X605Y889D02*
X608Y889D01*
X639Y889D02*
X642Y889D01*
X648Y889D02*
X651Y889D01*
X682Y889D02*
X685Y889D01*
X7Y888D02*
X14Y888D01*
X510Y888D02*
X552Y888D01*
X575Y888D02*
X578Y888D01*
X605Y888D02*
X608Y888D01*
X639Y888D02*
X642Y888D01*
X648Y888D02*
X652Y888D01*
X682Y888D02*
X685Y888D01*
X7Y887D02*
X14Y887D01*
X509Y887D02*
X553Y887D01*
X575Y887D02*
X578Y887D01*
X605Y887D02*
X608Y887D01*
X639Y887D02*
X642Y887D01*
X649Y887D02*
X652Y887D01*
X682Y887D02*
X685Y887D01*
X7Y886D02*
X14Y886D01*
X510Y886D02*
X553Y886D01*
X575Y886D02*
X578Y886D01*
X605Y886D02*
X608Y886D01*
X639Y886D02*
X642Y886D01*
X649Y886D02*
X653Y886D01*
X682Y886D02*
X685Y886D01*
X7Y885D02*
X14Y885D01*
X510Y885D02*
X552Y885D01*
X575Y885D02*
X578Y885D01*
X605Y885D02*
X608Y885D01*
X639Y885D02*
X642Y885D01*
X650Y885D02*
X653Y885D01*
X682Y885D02*
X685Y885D01*
X7Y884D02*
X14Y884D01*
X511Y884D02*
X552Y884D01*
X575Y884D02*
X578Y884D01*
X605Y884D02*
X608Y884D01*
X639Y884D02*
X642Y884D01*
X650Y884D02*
X654Y884D01*
X682Y884D02*
X685Y884D01*
X7Y883D02*
X14Y883D01*
X512Y883D02*
X550Y883D01*
X575Y883D02*
X578Y883D01*
X605Y883D02*
X608Y883D01*
X639Y883D02*
X642Y883D01*
X651Y883D02*
X654Y883D01*
X682Y883D02*
X685Y883D01*
X7Y882D02*
X14Y882D01*
X523Y882D02*
X539Y882D01*
X575Y882D02*
X578Y882D01*
X605Y882D02*
X608Y882D01*
X639Y882D02*
X642Y882D01*
X651Y882D02*
X655Y882D01*
X682Y882D02*
X685Y882D01*
X7Y881D02*
X14Y881D01*
X522Y881D02*
X540Y881D01*
X575Y881D02*
X578Y881D01*
X605Y881D02*
X616Y881D01*
X639Y881D02*
X642Y881D01*
X651Y881D02*
X655Y881D01*
X667Y881D02*
X685Y881D01*
X7Y880D02*
X14Y880D01*
X522Y880D02*
X530Y880D01*
X532Y880D02*
X541Y880D01*
X575Y880D02*
X578Y880D01*
X605Y880D02*
X616Y880D01*
X639Y880D02*
X642Y880D01*
X652Y880D02*
X655Y880D01*
X666Y880D02*
X685Y880D01*
X7Y879D02*
X14Y879D01*
X521Y879D02*
X530Y879D01*
X532Y879D02*
X541Y879D01*
X575Y879D02*
X578Y879D01*
X605Y879D02*
X616Y879D01*
X639Y879D02*
X642Y879D01*
X652Y879D02*
X655Y879D01*
X665Y879D02*
X684Y879D01*
X7Y878D02*
X14Y878D01*
X520Y878D02*
X529Y878D01*
X533Y878D02*
X542Y878D01*
X575Y878D02*
X578Y878D01*
X605Y878D02*
X616Y878D01*
X639Y878D02*
X642Y878D01*
X651Y878D02*
X655Y878D01*
X665Y878D02*
X683Y878D01*
X7Y877D02*
X14Y877D01*
X520Y877D02*
X528Y877D01*
X534Y877D02*
X543Y877D01*
X575Y877D02*
X578Y877D01*
X605Y877D02*
X608Y877D01*
X639Y877D02*
X642Y877D01*
X651Y877D02*
X654Y877D01*
X665Y877D02*
X668Y877D01*
X7Y876D02*
X14Y876D01*
X519Y876D02*
X528Y876D01*
X535Y876D02*
X544Y876D01*
X575Y876D02*
X578Y876D01*
X605Y876D02*
X608Y876D01*
X639Y876D02*
X642Y876D01*
X650Y876D02*
X654Y876D01*
X665Y876D02*
X668Y876D01*
X7Y875D02*
X14Y875D01*
X519Y875D02*
X527Y875D01*
X535Y875D02*
X544Y875D01*
X575Y875D02*
X578Y875D01*
X605Y875D02*
X608Y875D01*
X639Y875D02*
X642Y875D01*
X650Y875D02*
X654Y875D01*
X665Y875D02*
X668Y875D01*
X7Y874D02*
X14Y874D01*
X519Y874D02*
X526Y874D01*
X536Y874D02*
X544Y874D01*
X575Y874D02*
X578Y874D01*
X605Y874D02*
X608Y874D01*
X639Y874D02*
X642Y874D01*
X649Y874D02*
X653Y874D01*
X665Y874D02*
X668Y874D01*
X7Y873D02*
X14Y873D01*
X519Y873D02*
X526Y873D01*
X537Y873D02*
X543Y873D01*
X575Y873D02*
X578Y873D01*
X605Y873D02*
X608Y873D01*
X639Y873D02*
X642Y873D01*
X649Y873D02*
X653Y873D01*
X665Y873D02*
X668Y873D01*
X7Y872D02*
X14Y872D01*
X520Y872D02*
X525Y872D01*
X538Y872D02*
X543Y872D01*
X575Y872D02*
X578Y872D01*
X605Y872D02*
X608Y872D01*
X639Y872D02*
X642Y872D01*
X648Y872D02*
X652Y872D01*
X665Y872D02*
X668Y872D01*
X7Y871D02*
X14Y871D01*
X575Y871D02*
X578Y871D01*
X605Y871D02*
X608Y871D01*
X639Y871D02*
X642Y871D01*
X648Y871D02*
X652Y871D01*
X665Y871D02*
X668Y871D01*
X7Y870D02*
X14Y870D01*
X575Y870D02*
X578Y870D01*
X605Y870D02*
X608Y870D01*
X639Y870D02*
X642Y870D01*
X647Y870D02*
X651Y870D01*
X665Y870D02*
X668Y870D01*
X7Y869D02*
X14Y869D01*
X575Y869D02*
X578Y869D01*
X605Y869D02*
X608Y869D01*
X639Y869D02*
X642Y869D01*
X647Y869D02*
X651Y869D01*
X665Y869D02*
X668Y869D01*
X7Y868D02*
X14Y868D01*
X575Y868D02*
X578Y868D01*
X605Y868D02*
X608Y868D01*
X639Y868D02*
X642Y868D01*
X646Y868D02*
X650Y868D01*
X665Y868D02*
X668Y868D01*
X7Y867D02*
X14Y867D01*
X575Y867D02*
X594Y867D01*
X605Y867D02*
X624Y867D01*
X636Y867D02*
X650Y867D01*
X665Y867D02*
X684Y867D01*
X7Y866D02*
X14Y866D01*
X575Y866D02*
X595Y866D01*
X605Y866D02*
X625Y866D01*
X635Y866D02*
X649Y866D01*
X665Y866D02*
X685Y866D01*
X7Y865D02*
X14Y865D01*
X575Y865D02*
X594Y865D01*
X605Y865D02*
X625Y865D01*
X635Y865D02*
X648Y865D01*
X665Y865D02*
X685Y865D01*
X7Y864D02*
X14Y864D01*
X575Y864D02*
X594Y864D01*
X605Y864D02*
X624Y864D01*
X636Y864D02*
X647Y864D01*
X665Y864D02*
X684Y864D01*
X7Y863D02*
X14Y863D01*
X7Y862D02*
X14Y862D01*
X7Y861D02*
X14Y861D01*
X7Y860D02*
X14Y860D01*
X7Y859D02*
X14Y859D01*
X7Y858D02*
X14Y858D01*
X7Y857D02*
X14Y857D01*
X7Y856D02*
X14Y856D01*
X7Y855D02*
X14Y855D01*
X7Y854D02*
X14Y854D01*
X7Y853D02*
X14Y853D01*
X7Y852D02*
X14Y852D01*
X7Y851D02*
X14Y851D01*
X7Y850D02*
X14Y850D01*
X7Y849D02*
X14Y849D01*
X7Y848D02*
X14Y848D01*
X7Y847D02*
X14Y847D01*
X7Y846D02*
X14Y846D01*
X7Y845D02*
X14Y845D01*
X7Y844D02*
X14Y844D01*
X7Y843D02*
X14Y843D01*
X7Y842D02*
X14Y842D01*
X7Y841D02*
X14Y841D01*
X7Y840D02*
X14Y840D01*
X7Y839D02*
X14Y839D01*
X7Y838D02*
X14Y838D01*
X7Y837D02*
X14Y837D01*
X7Y836D02*
X14Y836D01*
X7Y835D02*
X14Y835D01*
X7Y834D02*
X14Y834D01*
X7Y833D02*
X14Y833D01*
X7Y832D02*
X14Y832D01*
X7Y831D02*
X14Y831D01*
X7Y830D02*
X14Y830D01*
X7Y829D02*
X14Y829D01*
X7Y828D02*
X14Y828D01*
X7Y827D02*
X14Y827D01*
X7Y826D02*
X14Y826D01*
X7Y825D02*
X14Y825D01*
X7Y824D02*
X14Y824D01*
X7Y823D02*
X14Y823D01*
X7Y822D02*
X14Y822D01*
X7Y821D02*
X14Y821D01*
X7Y820D02*
X14Y820D01*
X7Y819D02*
X14Y819D01*
X7Y818D02*
X14Y818D01*
X7Y817D02*
X14Y817D01*
X7Y816D02*
X14Y816D01*
X7Y815D02*
X14Y815D01*
X7Y814D02*
X14Y814D01*
X7Y813D02*
X14Y813D01*
X7Y812D02*
X14Y812D01*
X7Y811D02*
X14Y811D01*
X7Y810D02*
X14Y810D01*
X1371Y810D02*
X1387Y810D01*
X1405Y810D02*
X1420Y810D01*
X7Y809D02*
X14Y809D01*
X1371Y809D02*
X1388Y809D01*
X1405Y809D02*
X1421Y809D01*
X7Y808D02*
X14Y808D01*
X1371Y808D02*
X1389Y808D01*
X1405Y808D02*
X1421Y808D01*
X7Y807D02*
X14Y807D01*
X1371Y807D02*
X1390Y807D01*
X1405Y807D02*
X1420Y807D01*
X7Y806D02*
X14Y806D01*
X1371Y806D02*
X1374Y806D01*
X1386Y806D02*
X1390Y806D01*
X1405Y806D02*
X1408Y806D01*
X7Y805D02*
X14Y805D01*
X1371Y805D02*
X1374Y805D01*
X1387Y805D02*
X1390Y805D01*
X1405Y805D02*
X1408Y805D01*
X7Y804D02*
X14Y804D01*
X1371Y804D02*
X1374Y804D01*
X1387Y804D02*
X1391Y804D01*
X1405Y804D02*
X1408Y804D01*
X7Y803D02*
X14Y803D01*
X1371Y803D02*
X1374Y803D01*
X1387Y803D02*
X1391Y803D01*
X1405Y803D02*
X1408Y803D01*
X7Y802D02*
X14Y802D01*
X1371Y802D02*
X1374Y802D01*
X1387Y802D02*
X1391Y802D01*
X1405Y802D02*
X1408Y802D01*
X7Y801D02*
X14Y801D01*
X1371Y801D02*
X1374Y801D01*
X1387Y801D02*
X1390Y801D01*
X1405Y801D02*
X1408Y801D01*
X7Y800D02*
X14Y800D01*
X1371Y800D02*
X1374Y800D01*
X1386Y800D02*
X1390Y800D01*
X1405Y800D02*
X1408Y800D01*
X7Y799D02*
X14Y799D01*
X1371Y799D02*
X1390Y799D01*
X1405Y799D02*
X1408Y799D01*
X7Y798D02*
X14Y798D01*
X1371Y798D02*
X1389Y798D01*
X1405Y798D02*
X1408Y798D01*
X7Y797D02*
X14Y797D01*
X1371Y797D02*
X1388Y797D01*
X1405Y797D02*
X1408Y797D01*
X7Y796D02*
X14Y796D01*
X1371Y796D02*
X1386Y796D01*
X1405Y796D02*
X1418Y796D01*
X7Y795D02*
X14Y795D01*
X1371Y795D02*
X1374Y795D01*
X1378Y795D02*
X1382Y795D01*
X1405Y795D02*
X1419Y795D01*
X7Y794D02*
X14Y794D01*
X1371Y794D02*
X1374Y794D01*
X1379Y794D02*
X1383Y794D01*
X1405Y794D02*
X1420Y794D01*
X7Y793D02*
X14Y793D01*
X1371Y793D02*
X1374Y793D01*
X1379Y793D02*
X1383Y793D01*
X1405Y793D02*
X1421Y793D01*
X7Y792D02*
X14Y792D01*
X1371Y792D02*
X1374Y792D01*
X1380Y792D02*
X1384Y792D01*
X1417Y792D02*
X1421Y792D01*
X7Y791D02*
X14Y791D01*
X1371Y791D02*
X1374Y791D01*
X1381Y791D02*
X1385Y791D01*
X1417Y791D02*
X1421Y791D01*
X7Y790D02*
X14Y790D01*
X1371Y790D02*
X1374Y790D01*
X1381Y790D02*
X1385Y790D01*
X1417Y790D02*
X1421Y790D01*
X7Y789D02*
X14Y789D01*
X1371Y789D02*
X1374Y789D01*
X1382Y789D02*
X1386Y789D01*
X1417Y789D02*
X1421Y789D01*
X7Y788D02*
X14Y788D01*
X1371Y788D02*
X1374Y788D01*
X1382Y788D02*
X1386Y788D01*
X1417Y788D02*
X1421Y788D01*
X7Y787D02*
X14Y787D01*
X1371Y787D02*
X1374Y787D01*
X1383Y787D02*
X1387Y787D01*
X1417Y787D02*
X1421Y787D01*
X7Y786D02*
X14Y786D01*
X1371Y786D02*
X1374Y786D01*
X1384Y786D02*
X1387Y786D01*
X1417Y786D02*
X1421Y786D01*
X7Y785D02*
X14Y785D01*
X1371Y785D02*
X1374Y785D01*
X1384Y785D02*
X1388Y785D01*
X1417Y785D02*
X1421Y785D01*
X7Y784D02*
X14Y784D01*
X1371Y784D02*
X1374Y784D01*
X1385Y784D02*
X1389Y784D01*
X1417Y784D02*
X1421Y784D01*
X7Y783D02*
X14Y783D01*
X1371Y783D02*
X1374Y783D01*
X1385Y783D02*
X1389Y783D01*
X1401Y783D02*
X1405Y783D01*
X1417Y783D02*
X1421Y783D01*
X7Y782D02*
X14Y782D01*
X1371Y782D02*
X1374Y782D01*
X1386Y782D02*
X1390Y782D01*
X1401Y782D02*
X1421Y782D01*
X7Y781D02*
X14Y781D01*
X1371Y781D02*
X1374Y781D01*
X1386Y781D02*
X1390Y781D01*
X1401Y781D02*
X1421Y781D01*
X7Y780D02*
X14Y780D01*
X1371Y780D02*
X1374Y780D01*
X1387Y780D02*
X1391Y780D01*
X1402Y780D02*
X1420Y780D01*
X7Y779D02*
X14Y779D01*
X1371Y779D02*
X1374Y779D01*
X1388Y779D02*
X1390Y779D01*
X1404Y779D02*
X1419Y779D01*
X7Y778D02*
X14Y778D01*
X1389Y778D02*
X1389Y778D01*
X1408Y778D02*
X1417Y778D01*
X7Y777D02*
X14Y777D01*
X7Y776D02*
X14Y776D01*
X7Y775D02*
X14Y775D01*
X7Y774D02*
X14Y774D01*
X7Y773D02*
X14Y773D01*
X7Y772D02*
X14Y772D01*
X7Y771D02*
X14Y771D01*
X7Y770D02*
X14Y770D01*
X7Y769D02*
X14Y769D01*
X7Y768D02*
X14Y768D01*
X7Y767D02*
X14Y767D01*
X7Y766D02*
X14Y766D01*
X7Y765D02*
X14Y765D01*
X7Y764D02*
X14Y764D01*
X7Y763D02*
X14Y763D01*
X7Y762D02*
X14Y762D01*
X7Y761D02*
X14Y761D01*
X7Y760D02*
X14Y760D01*
X7Y759D02*
X14Y759D01*
X7Y758D02*
X14Y758D01*
X7Y757D02*
X14Y757D01*
X7Y756D02*
X14Y756D01*
X7Y755D02*
X14Y755D01*
X7Y754D02*
X14Y754D01*
X7Y753D02*
X14Y753D01*
X7Y752D02*
X14Y752D01*
X7Y751D02*
X14Y751D01*
X7Y750D02*
X14Y750D01*
X7Y749D02*
X14Y749D01*
X7Y748D02*
X14Y748D01*
X7Y747D02*
X14Y747D01*
X7Y746D02*
X14Y746D01*
X7Y745D02*
X14Y745D01*
X7Y744D02*
X14Y744D01*
X7Y743D02*
X14Y743D01*
X7Y742D02*
X14Y742D01*
X7Y741D02*
X14Y741D01*
X7Y740D02*
X14Y740D01*
X7Y739D02*
X14Y739D01*
X7Y738D02*
X14Y738D01*
X7Y737D02*
X14Y737D01*
X7Y736D02*
X14Y736D01*
X7Y735D02*
X14Y735D01*
X7Y734D02*
X14Y734D01*
X7Y733D02*
X14Y733D01*
X7Y732D02*
X14Y732D01*
X7Y731D02*
X14Y731D01*
X7Y730D02*
X14Y730D01*
X7Y729D02*
X14Y729D01*
X7Y728D02*
X14Y728D01*
X7Y727D02*
X14Y727D01*
X7Y726D02*
X14Y726D01*
X7Y725D02*
X14Y725D01*
X7Y724D02*
X14Y724D01*
X7Y723D02*
X14Y723D01*
X7Y722D02*
X14Y722D01*
X7Y721D02*
X14Y721D01*
X7Y720D02*
X14Y720D01*
X7Y719D02*
X14Y719D01*
X7Y718D02*
X14Y718D01*
X7Y717D02*
X14Y717D01*
X7Y716D02*
X14Y716D01*
X7Y715D02*
X14Y715D01*
X7Y714D02*
X14Y714D01*
X7Y713D02*
X14Y713D01*
X7Y712D02*
X14Y712D01*
X7Y711D02*
X14Y711D01*
X7Y710D02*
X14Y710D01*
X7Y709D02*
X14Y709D01*
X7Y708D02*
X14Y708D01*
X7Y707D02*
X14Y707D01*
X7Y706D02*
X14Y706D01*
X7Y705D02*
X14Y705D01*
X7Y704D02*
X14Y704D01*
X7Y703D02*
X14Y703D01*
X7Y702D02*
X14Y702D01*
X7Y701D02*
X14Y701D01*
X7Y700D02*
X14Y700D01*
X7Y699D02*
X14Y699D01*
X7Y698D02*
X14Y698D01*
X7Y697D02*
X14Y697D01*
X7Y696D02*
X14Y696D01*
X7Y695D02*
X14Y695D01*
X7Y694D02*
X14Y694D01*
X7Y693D02*
X14Y693D01*
X7Y692D02*
X14Y692D01*
X7Y691D02*
X14Y691D01*
X7Y690D02*
X14Y690D01*
X7Y689D02*
X14Y689D01*
X7Y688D02*
X14Y688D01*
X7Y687D02*
X14Y687D01*
X7Y686D02*
X14Y686D01*
X7Y685D02*
X14Y685D01*
X7Y684D02*
X14Y684D01*
X7Y683D02*
X14Y683D01*
X7Y682D02*
X14Y682D01*
X7Y681D02*
X14Y681D01*
X7Y680D02*
X14Y680D01*
X7Y679D02*
X14Y679D01*
X7Y678D02*
X14Y678D01*
X7Y677D02*
X14Y677D01*
X7Y676D02*
X14Y676D01*
X7Y675D02*
X14Y675D01*
X7Y674D02*
X14Y674D01*
X7Y673D02*
X14Y673D01*
X7Y672D02*
X14Y672D01*
X7Y671D02*
X14Y671D01*
X7Y670D02*
X14Y670D01*
X7Y669D02*
X14Y669D01*
X7Y668D02*
X14Y668D01*
X7Y667D02*
X14Y667D01*
X7Y666D02*
X14Y666D01*
X7Y665D02*
X14Y665D01*
X7Y664D02*
X14Y664D01*
X7Y663D02*
X14Y663D01*
X7Y662D02*
X14Y662D01*
X7Y661D02*
X14Y661D01*
X7Y660D02*
X14Y660D01*
X7Y659D02*
X14Y659D01*
X7Y658D02*
X14Y658D01*
X7Y657D02*
X14Y657D01*
X7Y656D02*
X14Y656D01*
X7Y655D02*
X14Y655D01*
X7Y654D02*
X14Y654D01*
X7Y653D02*
X14Y653D01*
X7Y652D02*
X14Y652D01*
X7Y651D02*
X14Y651D01*
X7Y650D02*
X14Y650D01*
X7Y649D02*
X14Y649D01*
X7Y648D02*
X14Y648D01*
X7Y647D02*
X14Y647D01*
X7Y646D02*
X14Y646D01*
X7Y645D02*
X14Y645D01*
X7Y644D02*
X14Y644D01*
X7Y643D02*
X14Y643D01*
X7Y642D02*
X14Y642D01*
X7Y641D02*
X14Y641D01*
X7Y640D02*
X14Y640D01*
X7Y639D02*
X14Y639D01*
X7Y638D02*
X14Y638D01*
X7Y637D02*
X14Y637D01*
X7Y636D02*
X14Y636D01*
X7Y635D02*
X14Y635D01*
X7Y634D02*
X14Y634D01*
X7Y633D02*
X14Y633D01*
X7Y632D02*
X14Y632D01*
X7Y631D02*
X14Y631D01*
X7Y630D02*
X14Y630D01*
X7Y629D02*
X14Y629D01*
X7Y628D02*
X14Y628D01*
X7Y627D02*
X14Y627D01*
X7Y626D02*
X14Y626D01*
X7Y625D02*
X14Y625D01*
X7Y624D02*
X14Y624D01*
X7Y623D02*
X14Y623D01*
X7Y622D02*
X14Y622D01*
X7Y621D02*
X14Y621D01*
X7Y620D02*
X14Y620D01*
X7Y619D02*
X14Y619D01*
X7Y618D02*
X14Y618D01*
X7Y617D02*
X14Y617D01*
X7Y616D02*
X14Y616D01*
X7Y615D02*
X14Y615D01*
X7Y614D02*
X14Y614D01*
X7Y613D02*
X14Y613D01*
X7Y612D02*
X14Y612D01*
X7Y611D02*
X14Y611D01*
X7Y610D02*
X14Y610D01*
X7Y609D02*
X14Y609D01*
X7Y608D02*
X14Y608D01*
X7Y607D02*
X14Y607D01*
X7Y606D02*
X14Y606D01*
X7Y605D02*
X14Y605D01*
X7Y604D02*
X14Y604D01*
X7Y603D02*
X14Y603D01*
X7Y602D02*
X14Y602D01*
X7Y601D02*
X14Y601D01*
X7Y600D02*
X14Y600D01*
X7Y599D02*
X14Y599D01*
X7Y598D02*
X14Y598D01*
X7Y597D02*
X14Y597D01*
X7Y596D02*
X14Y596D01*
X7Y595D02*
X14Y595D01*
X7Y594D02*
X14Y594D01*
X7Y593D02*
X14Y593D01*
X882Y593D02*
X893Y593D01*
X916Y593D02*
X926Y593D01*
X942Y593D02*
X956Y593D01*
X973Y593D02*
X989Y593D01*
X1004Y593D02*
X1019Y593D01*
X7Y592D02*
X14Y592D01*
X882Y592D02*
X893Y592D01*
X916Y592D02*
X927Y592D01*
X942Y592D02*
X958Y592D01*
X972Y592D02*
X991Y592D01*
X1003Y592D02*
X1021Y592D01*
X7Y591D02*
X14Y591D01*
X881Y591D02*
X893Y591D01*
X916Y591D02*
X927Y591D01*
X942Y591D02*
X959Y591D01*
X972Y591D02*
X991Y591D01*
X1002Y591D02*
X1021Y591D01*
X7Y590D02*
X14Y590D01*
X882Y590D02*
X893Y590D01*
X916Y590D02*
X927Y590D01*
X942Y590D02*
X960Y590D01*
X972Y590D02*
X991Y590D01*
X1002Y590D02*
X1022Y590D01*
X7Y589D02*
X14Y589D01*
X890Y589D02*
X893Y589D01*
X916Y589D02*
X919Y589D01*
X924Y589D02*
X927Y589D01*
X942Y589D02*
X945Y589D01*
X956Y589D02*
X960Y589D01*
X988Y589D02*
X992Y589D01*
X1002Y589D02*
X1005Y589D01*
X1018Y589D02*
X1022Y589D01*
X7Y588D02*
X14Y588D01*
X890Y588D02*
X893Y588D01*
X916Y588D02*
X919Y588D01*
X924Y588D02*
X927Y588D01*
X942Y588D02*
X945Y588D01*
X957Y588D02*
X961Y588D01*
X988Y588D02*
X992Y588D01*
X1002Y588D02*
X1005Y588D01*
X1018Y588D02*
X1022Y588D01*
X7Y587D02*
X14Y587D01*
X890Y587D02*
X893Y587D01*
X916Y587D02*
X919Y587D01*
X924Y587D02*
X927Y587D01*
X942Y587D02*
X945Y587D01*
X958Y587D02*
X961Y587D01*
X988Y587D02*
X992Y587D01*
X1002Y587D02*
X1005Y587D01*
X1018Y587D02*
X1022Y587D01*
X7Y586D02*
X14Y586D01*
X890Y586D02*
X893Y586D01*
X916Y586D02*
X919Y586D01*
X924Y586D02*
X927Y586D01*
X942Y586D02*
X945Y586D01*
X958Y586D02*
X961Y586D01*
X988Y586D02*
X992Y586D01*
X1002Y586D02*
X1005Y586D01*
X1018Y586D02*
X1022Y586D01*
X7Y585D02*
X14Y585D01*
X890Y585D02*
X893Y585D01*
X916Y585D02*
X919Y585D01*
X924Y585D02*
X927Y585D01*
X942Y585D02*
X945Y585D01*
X958Y585D02*
X961Y585D01*
X988Y585D02*
X992Y585D01*
X1002Y585D02*
X1005Y585D01*
X1018Y585D02*
X1022Y585D01*
X7Y584D02*
X14Y584D01*
X890Y584D02*
X893Y584D01*
X916Y584D02*
X919Y584D01*
X924Y584D02*
X927Y584D01*
X942Y584D02*
X945Y584D01*
X958Y584D02*
X961Y584D01*
X988Y584D02*
X992Y584D01*
X1002Y584D02*
X1005Y584D01*
X1018Y584D02*
X1022Y584D01*
X7Y583D02*
X14Y583D01*
X890Y583D02*
X893Y583D01*
X916Y583D02*
X919Y583D01*
X924Y583D02*
X927Y583D01*
X942Y583D02*
X945Y583D01*
X958Y583D02*
X961Y583D01*
X988Y583D02*
X992Y583D01*
X1002Y583D02*
X1005Y583D01*
X1018Y583D02*
X1022Y583D01*
X7Y582D02*
X14Y582D01*
X890Y582D02*
X893Y582D01*
X916Y582D02*
X919Y582D01*
X924Y582D02*
X927Y582D01*
X942Y582D02*
X945Y582D01*
X958Y582D02*
X961Y582D01*
X988Y582D02*
X992Y582D01*
X1002Y582D02*
X1005Y582D01*
X1018Y582D02*
X1022Y582D01*
X7Y581D02*
X14Y581D01*
X890Y581D02*
X893Y581D01*
X916Y581D02*
X919Y581D01*
X924Y581D02*
X927Y581D01*
X942Y581D02*
X945Y581D01*
X957Y581D02*
X961Y581D01*
X988Y581D02*
X992Y581D01*
X1002Y581D02*
X1005Y581D01*
X1018Y581D02*
X1022Y581D01*
X7Y580D02*
X14Y580D01*
X890Y580D02*
X893Y580D01*
X916Y580D02*
X919Y580D01*
X924Y580D02*
X927Y580D01*
X942Y580D02*
X945Y580D01*
X956Y580D02*
X961Y580D01*
X988Y580D02*
X992Y580D01*
X1002Y580D02*
X1005Y580D01*
X1018Y580D02*
X1022Y580D01*
X7Y579D02*
X14Y579D01*
X890Y579D02*
X893Y579D01*
X914Y579D02*
X929Y579D01*
X942Y579D02*
X960Y579D01*
X974Y579D02*
X992Y579D01*
X1002Y579D02*
X1005Y579D01*
X1018Y579D02*
X1022Y579D01*
X7Y578D02*
X14Y578D01*
X890Y578D02*
X893Y578D01*
X913Y578D02*
X930Y578D01*
X942Y578D02*
X959Y578D01*
X973Y578D02*
X991Y578D01*
X1002Y578D02*
X1005Y578D01*
X1018Y578D02*
X1022Y578D01*
X7Y577D02*
X14Y577D01*
X890Y577D02*
X893Y577D01*
X912Y577D02*
X931Y577D01*
X942Y577D02*
X959Y577D01*
X972Y577D02*
X991Y577D01*
X1002Y577D02*
X1005Y577D01*
X1018Y577D02*
X1022Y577D01*
X7Y576D02*
X14Y576D01*
X890Y576D02*
X893Y576D01*
X912Y576D02*
X931Y576D01*
X942Y576D02*
X960Y576D01*
X972Y576D02*
X990Y576D01*
X1002Y576D02*
X1005Y576D01*
X1018Y576D02*
X1022Y576D01*
X7Y575D02*
X14Y575D01*
X890Y575D02*
X893Y575D01*
X898Y575D02*
X901Y575D01*
X912Y575D02*
X915Y575D01*
X928Y575D02*
X931Y575D01*
X942Y575D02*
X945Y575D01*
X955Y575D02*
X960Y575D01*
X972Y575D02*
X975Y575D01*
X1002Y575D02*
X1005Y575D01*
X1018Y575D02*
X1022Y575D01*
X7Y574D02*
X14Y574D01*
X890Y574D02*
X893Y574D01*
X898Y574D02*
X901Y574D01*
X912Y574D02*
X915Y574D01*
X928Y574D02*
X931Y574D01*
X942Y574D02*
X945Y574D01*
X957Y574D02*
X961Y574D01*
X972Y574D02*
X975Y574D01*
X1002Y574D02*
X1005Y574D01*
X1018Y574D02*
X1022Y574D01*
X7Y573D02*
X14Y573D01*
X890Y573D02*
X893Y573D01*
X898Y573D02*
X901Y573D01*
X912Y573D02*
X915Y573D01*
X928Y573D02*
X931Y573D01*
X942Y573D02*
X945Y573D01*
X958Y573D02*
X961Y573D01*
X972Y573D02*
X975Y573D01*
X1002Y573D02*
X1005Y573D01*
X1018Y573D02*
X1022Y573D01*
X7Y572D02*
X14Y572D01*
X890Y572D02*
X893Y572D01*
X898Y572D02*
X901Y572D01*
X912Y572D02*
X915Y572D01*
X928Y572D02*
X931Y572D01*
X942Y572D02*
X945Y572D01*
X958Y572D02*
X961Y572D01*
X972Y572D02*
X975Y572D01*
X1002Y572D02*
X1005Y572D01*
X1018Y572D02*
X1022Y572D01*
X7Y571D02*
X14Y571D01*
X890Y571D02*
X893Y571D01*
X898Y571D02*
X901Y571D01*
X912Y571D02*
X915Y571D01*
X928Y571D02*
X931Y571D01*
X942Y571D02*
X945Y571D01*
X958Y571D02*
X961Y571D01*
X972Y571D02*
X975Y571D01*
X1002Y571D02*
X1005Y571D01*
X1018Y571D02*
X1022Y571D01*
X7Y570D02*
X14Y570D01*
X890Y570D02*
X893Y570D01*
X898Y570D02*
X901Y570D01*
X912Y570D02*
X915Y570D01*
X928Y570D02*
X931Y570D01*
X942Y570D02*
X945Y570D01*
X958Y570D02*
X961Y570D01*
X972Y570D02*
X975Y570D01*
X1002Y570D02*
X1005Y570D01*
X1018Y570D02*
X1022Y570D01*
X7Y569D02*
X14Y569D01*
X890Y569D02*
X893Y569D01*
X898Y569D02*
X901Y569D01*
X912Y569D02*
X915Y569D01*
X928Y569D02*
X931Y569D01*
X942Y569D02*
X945Y569D01*
X958Y569D02*
X961Y569D01*
X972Y569D02*
X975Y569D01*
X1002Y569D02*
X1005Y569D01*
X1018Y569D02*
X1022Y569D01*
X7Y568D02*
X14Y568D01*
X890Y568D02*
X893Y568D01*
X898Y568D02*
X901Y568D01*
X912Y568D02*
X915Y568D01*
X928Y568D02*
X931Y568D01*
X942Y568D02*
X945Y568D01*
X958Y568D02*
X961Y568D01*
X972Y568D02*
X975Y568D01*
X1002Y568D02*
X1005Y568D01*
X1018Y568D02*
X1022Y568D01*
X7Y567D02*
X14Y567D01*
X890Y567D02*
X893Y567D01*
X898Y567D02*
X901Y567D01*
X912Y567D02*
X915Y567D01*
X928Y567D02*
X931Y567D01*
X942Y567D02*
X945Y567D01*
X957Y567D02*
X961Y567D01*
X972Y567D02*
X975Y567D01*
X1002Y567D02*
X1005Y567D01*
X1018Y567D02*
X1022Y567D01*
X7Y566D02*
X14Y566D01*
X890Y566D02*
X893Y566D01*
X898Y566D02*
X901Y566D01*
X912Y566D02*
X915Y566D01*
X928Y566D02*
X931Y566D01*
X942Y566D02*
X945Y566D01*
X956Y566D02*
X961Y566D01*
X972Y566D02*
X975Y566D01*
X1002Y566D02*
X1005Y566D01*
X1018Y566D02*
X1022Y566D01*
X7Y565D02*
X14Y565D01*
X883Y565D02*
X901Y565D01*
X912Y565D02*
X931Y565D01*
X942Y565D02*
X960Y565D01*
X972Y565D02*
X990Y565D01*
X1002Y565D02*
X1022Y565D01*
X7Y564D02*
X14Y564D01*
X882Y564D02*
X901Y564D01*
X912Y564D02*
X931Y564D01*
X942Y564D02*
X959Y564D01*
X972Y564D02*
X991Y564D01*
X1002Y564D02*
X1021Y564D01*
X7Y563D02*
X14Y563D01*
X881Y563D02*
X901Y563D01*
X912Y563D02*
X931Y563D01*
X942Y563D02*
X958Y563D01*
X972Y563D02*
X992Y563D01*
X1003Y563D02*
X1021Y563D01*
X7Y562D02*
X14Y562D01*
X882Y562D02*
X901Y562D01*
X913Y562D02*
X930Y562D01*
X942Y562D02*
X957Y562D01*
X972Y562D02*
X991Y562D01*
X1003Y562D02*
X1020Y562D01*
X7Y561D02*
X14Y561D01*
X7Y560D02*
X14Y560D01*
X7Y559D02*
X14Y559D01*
X7Y558D02*
X14Y558D01*
X7Y557D02*
X14Y557D01*
X7Y556D02*
X14Y556D01*
X7Y555D02*
X14Y555D01*
X7Y554D02*
X14Y554D01*
X7Y553D02*
X14Y553D01*
X7Y552D02*
X14Y552D01*
X7Y551D02*
X14Y551D01*
X7Y550D02*
X14Y550D01*
X7Y549D02*
X14Y549D01*
X7Y548D02*
X14Y548D01*
X7Y547D02*
X14Y547D01*
X7Y546D02*
X14Y546D01*
X7Y545D02*
X14Y545D01*
X7Y544D02*
X14Y544D01*
X7Y543D02*
X14Y543D01*
X7Y542D02*
X14Y542D01*
X7Y541D02*
X14Y541D01*
X7Y540D02*
X14Y540D01*
X7Y539D02*
X14Y539D01*
X7Y538D02*
X14Y538D01*
X7Y537D02*
X14Y537D01*
X7Y536D02*
X14Y536D01*
X7Y535D02*
X14Y535D01*
X7Y534D02*
X14Y534D01*
X7Y533D02*
X14Y533D01*
X7Y532D02*
X14Y532D01*
X7Y531D02*
X14Y531D01*
X7Y530D02*
X14Y530D01*
X7Y529D02*
X14Y529D01*
X7Y528D02*
X14Y528D01*
X7Y527D02*
X14Y527D01*
X7Y526D02*
X14Y526D01*
X7Y525D02*
X14Y525D01*
X7Y524D02*
X14Y524D01*
X148Y524D02*
X150Y524D01*
X185Y524D02*
X197Y524D01*
X208Y524D02*
X220Y524D01*
X269Y524D02*
X280Y524D01*
X298Y524D02*
X313Y524D01*
X330Y524D02*
X332Y524D01*
X7Y523D02*
X14Y523D01*
X148Y523D02*
X151Y523D01*
X184Y523D02*
X198Y523D01*
X208Y523D02*
X221Y523D01*
X268Y523D02*
X281Y523D01*
X298Y523D02*
X315Y523D01*
X329Y523D02*
X333Y523D01*
X7Y522D02*
X14Y522D01*
X148Y522D02*
X151Y522D01*
X183Y522D02*
X197Y522D01*
X208Y522D02*
X222Y522D01*
X268Y522D02*
X282Y522D01*
X298Y522D02*
X316Y522D01*
X329Y522D02*
X333Y522D01*
X7Y521D02*
X14Y521D01*
X148Y521D02*
X151Y521D01*
X183Y521D02*
X196Y521D01*
X209Y521D02*
X223Y521D01*
X269Y521D02*
X283Y521D01*
X298Y521D02*
X317Y521D01*
X329Y521D02*
X333Y521D01*
X343Y521D02*
X344Y521D01*
X7Y520D02*
X14Y520D01*
X148Y520D02*
X151Y520D01*
X182Y520D02*
X186Y520D01*
X212Y520D02*
X215Y520D01*
X219Y520D02*
X223Y520D01*
X272Y520D02*
X275Y520D01*
X280Y520D02*
X283Y520D01*
X298Y520D02*
X301Y520D01*
X313Y520D02*
X317Y520D01*
X329Y520D02*
X333Y520D01*
X342Y520D02*
X345Y520D01*
X7Y519D02*
X14Y519D01*
X148Y519D02*
X151Y519D01*
X182Y519D02*
X186Y519D01*
X212Y519D02*
X215Y519D01*
X220Y519D02*
X224Y519D01*
X272Y519D02*
X275Y519D01*
X280Y519D02*
X284Y519D01*
X298Y519D02*
X301Y519D01*
X314Y519D02*
X318Y519D01*
X329Y519D02*
X333Y519D01*
X342Y519D02*
X345Y519D01*
X7Y518D02*
X14Y518D01*
X148Y518D02*
X151Y518D01*
X181Y518D02*
X185Y518D01*
X212Y518D02*
X215Y518D01*
X220Y518D02*
X224Y518D01*
X272Y518D02*
X275Y518D01*
X281Y518D02*
X284Y518D01*
X298Y518D02*
X301Y518D01*
X315Y518D02*
X318Y518D01*
X329Y518D02*
X333Y518D01*
X342Y518D02*
X345Y518D01*
X7Y517D02*
X14Y517D01*
X148Y517D02*
X151Y517D01*
X181Y517D02*
X185Y517D01*
X212Y517D02*
X215Y517D01*
X221Y517D02*
X225Y517D01*
X272Y517D02*
X275Y517D01*
X281Y517D02*
X285Y517D01*
X298Y517D02*
X301Y517D01*
X315Y517D02*
X318Y517D01*
X329Y517D02*
X333Y517D01*
X342Y517D02*
X345Y517D01*
X7Y516D02*
X14Y516D01*
X148Y516D02*
X151Y516D01*
X180Y516D02*
X184Y516D01*
X212Y516D02*
X215Y516D01*
X221Y516D02*
X225Y516D01*
X272Y516D02*
X275Y516D01*
X282Y516D02*
X285Y516D01*
X298Y516D02*
X301Y516D01*
X315Y516D02*
X318Y516D01*
X329Y516D02*
X333Y516D01*
X342Y516D02*
X345Y516D01*
X7Y515D02*
X14Y515D01*
X148Y515D02*
X151Y515D01*
X180Y515D02*
X184Y515D01*
X212Y515D02*
X215Y515D01*
X222Y515D02*
X226Y515D01*
X272Y515D02*
X275Y515D01*
X282Y515D02*
X286Y515D01*
X298Y515D02*
X301Y515D01*
X315Y515D02*
X318Y515D01*
X329Y515D02*
X333Y515D01*
X342Y515D02*
X345Y515D01*
X7Y514D02*
X14Y514D01*
X148Y514D02*
X151Y514D01*
X179Y514D02*
X183Y514D01*
X212Y514D02*
X215Y514D01*
X222Y514D02*
X226Y514D01*
X272Y514D02*
X275Y514D01*
X283Y514D02*
X286Y514D01*
X298Y514D02*
X301Y514D01*
X315Y514D02*
X318Y514D01*
X329Y514D02*
X333Y514D01*
X342Y514D02*
X345Y514D01*
X7Y513D02*
X14Y513D01*
X148Y513D02*
X151Y513D01*
X179Y513D02*
X182Y513D01*
X212Y513D02*
X215Y513D01*
X223Y513D02*
X227Y513D01*
X272Y513D02*
X275Y513D01*
X283Y513D02*
X287Y513D01*
X298Y513D02*
X301Y513D01*
X314Y513D02*
X318Y513D01*
X329Y513D02*
X333Y513D01*
X342Y513D02*
X345Y513D01*
X7Y512D02*
X14Y512D01*
X148Y512D02*
X151Y512D01*
X178Y512D02*
X182Y512D01*
X212Y512D02*
X215Y512D01*
X223Y512D02*
X227Y512D01*
X272Y512D02*
X275Y512D01*
X284Y512D02*
X287Y512D01*
X298Y512D02*
X301Y512D01*
X313Y512D02*
X317Y512D01*
X329Y512D02*
X333Y512D01*
X342Y512D02*
X345Y512D01*
X7Y511D02*
X14Y511D01*
X148Y511D02*
X151Y511D01*
X178Y511D02*
X181Y511D01*
X212Y511D02*
X215Y511D01*
X224Y511D02*
X227Y511D01*
X272Y511D02*
X275Y511D01*
X284Y511D02*
X288Y511D01*
X298Y511D02*
X302Y511D01*
X312Y511D02*
X317Y511D01*
X329Y511D02*
X333Y511D01*
X342Y511D02*
X345Y511D01*
X7Y510D02*
X14Y510D01*
X148Y510D02*
X151Y510D01*
X178Y510D02*
X181Y510D01*
X212Y510D02*
X215Y510D01*
X224Y510D02*
X228Y510D01*
X272Y510D02*
X275Y510D01*
X285Y510D02*
X288Y510D01*
X298Y510D02*
X316Y510D01*
X329Y510D02*
X333Y510D01*
X342Y510D02*
X345Y510D01*
X7Y509D02*
X14Y509D01*
X148Y509D02*
X151Y509D01*
X178Y509D02*
X181Y509D01*
X212Y509D02*
X215Y509D01*
X224Y509D02*
X228Y509D01*
X272Y509D02*
X275Y509D01*
X285Y509D02*
X288Y509D01*
X298Y509D02*
X315Y509D01*
X329Y509D02*
X333Y509D01*
X342Y509D02*
X345Y509D01*
X7Y508D02*
X14Y508D01*
X148Y508D02*
X151Y508D01*
X178Y508D02*
X181Y508D01*
X212Y508D02*
X215Y508D01*
X224Y508D02*
X228Y508D01*
X272Y508D02*
X275Y508D01*
X285Y508D02*
X288Y508D01*
X298Y508D02*
X316Y508D01*
X329Y508D02*
X333Y508D01*
X342Y508D02*
X345Y508D01*
X7Y507D02*
X14Y507D01*
X148Y507D02*
X151Y507D01*
X178Y507D02*
X181Y507D01*
X212Y507D02*
X215Y507D01*
X224Y507D02*
X227Y507D01*
X272Y507D02*
X275Y507D01*
X284Y507D02*
X288Y507D01*
X298Y507D02*
X317Y507D01*
X329Y507D02*
X346Y507D01*
X7Y506D02*
X14Y506D01*
X148Y506D02*
X151Y506D01*
X178Y506D02*
X182Y506D01*
X212Y506D02*
X215Y506D01*
X224Y506D02*
X227Y506D01*
X272Y506D02*
X275Y506D01*
X284Y506D02*
X287Y506D01*
X298Y506D02*
X301Y506D01*
X313Y506D02*
X317Y506D01*
X329Y506D02*
X347Y506D01*
X7Y505D02*
X14Y505D01*
X148Y505D02*
X151Y505D01*
X179Y505D02*
X182Y505D01*
X212Y505D02*
X215Y505D01*
X223Y505D02*
X227Y505D01*
X272Y505D02*
X275Y505D01*
X283Y505D02*
X287Y505D01*
X298Y505D02*
X301Y505D01*
X314Y505D02*
X318Y505D01*
X329Y505D02*
X347Y505D01*
X7Y504D02*
X14Y504D01*
X148Y504D02*
X151Y504D01*
X179Y504D02*
X183Y504D01*
X212Y504D02*
X215Y504D01*
X223Y504D02*
X226Y504D01*
X272Y504D02*
X275Y504D01*
X283Y504D02*
X287Y504D01*
X298Y504D02*
X301Y504D01*
X314Y504D02*
X318Y504D01*
X329Y504D02*
X347Y504D01*
X7Y503D02*
X14Y503D01*
X148Y503D02*
X151Y503D01*
X179Y503D02*
X183Y503D01*
X212Y503D02*
X215Y503D01*
X222Y503D02*
X226Y503D01*
X272Y503D02*
X275Y503D01*
X282Y503D02*
X286Y503D01*
X298Y503D02*
X301Y503D01*
X315Y503D02*
X318Y503D01*
X341Y503D02*
X345Y503D01*
X7Y502D02*
X14Y502D01*
X148Y502D02*
X151Y502D01*
X180Y502D02*
X184Y502D01*
X212Y502D02*
X215Y502D01*
X222Y502D02*
X225Y502D01*
X272Y502D02*
X275Y502D01*
X282Y502D02*
X286Y502D01*
X298Y502D02*
X301Y502D01*
X315Y502D02*
X318Y502D01*
X342Y502D02*
X345Y502D01*
X7Y501D02*
X14Y501D01*
X148Y501D02*
X151Y501D01*
X180Y501D02*
X184Y501D01*
X212Y501D02*
X215Y501D01*
X221Y501D02*
X225Y501D01*
X272Y501D02*
X275Y501D01*
X281Y501D02*
X285Y501D01*
X298Y501D02*
X301Y501D01*
X315Y501D02*
X318Y501D01*
X342Y501D02*
X345Y501D01*
X7Y500D02*
X14Y500D01*
X148Y500D02*
X151Y500D01*
X181Y500D02*
X185Y500D01*
X212Y500D02*
X215Y500D01*
X221Y500D02*
X224Y500D01*
X272Y500D02*
X275Y500D01*
X281Y500D02*
X285Y500D01*
X298Y500D02*
X301Y500D01*
X315Y500D02*
X318Y500D01*
X342Y500D02*
X345Y500D01*
X7Y499D02*
X14Y499D01*
X148Y499D02*
X151Y499D01*
X181Y499D02*
X185Y499D01*
X212Y499D02*
X215Y499D01*
X220Y499D02*
X224Y499D01*
X272Y499D02*
X275Y499D01*
X280Y499D02*
X284Y499D01*
X298Y499D02*
X301Y499D01*
X314Y499D02*
X318Y499D01*
X342Y499D02*
X345Y499D01*
X7Y498D02*
X14Y498D01*
X148Y498D02*
X151Y498D01*
X182Y498D02*
X186Y498D01*
X212Y498D02*
X215Y498D01*
X220Y498D02*
X223Y498D01*
X272Y498D02*
X275Y498D01*
X280Y498D02*
X284Y498D01*
X298Y498D02*
X301Y498D01*
X314Y498D02*
X318Y498D01*
X342Y498D02*
X345Y498D01*
X7Y497D02*
X14Y497D01*
X148Y497D02*
X151Y497D01*
X182Y497D02*
X187Y497D01*
X212Y497D02*
X215Y497D01*
X219Y497D02*
X223Y497D01*
X272Y497D02*
X276Y497D01*
X279Y497D02*
X283Y497D01*
X298Y497D02*
X302Y497D01*
X312Y497D02*
X317Y497D01*
X342Y497D02*
X345Y497D01*
X7Y496D02*
X14Y496D01*
X148Y496D02*
X167Y496D01*
X183Y496D02*
X197Y496D01*
X209Y496D02*
X222Y496D01*
X269Y496D02*
X283Y496D01*
X298Y496D02*
X316Y496D01*
X342Y496D02*
X345Y496D01*
X7Y495D02*
X14Y495D01*
X148Y495D02*
X167Y495D01*
X184Y495D02*
X197Y495D01*
X208Y495D02*
X222Y495D01*
X268Y495D02*
X282Y495D01*
X298Y495D02*
X316Y495D01*
X342Y495D02*
X345Y495D01*
X7Y494D02*
X14Y494D01*
X148Y494D02*
X167Y494D01*
X185Y494D02*
X197Y494D01*
X208Y494D02*
X221Y494D01*
X268Y494D02*
X281Y494D01*
X298Y494D02*
X314Y494D01*
X342Y494D02*
X345Y494D01*
X7Y493D02*
X14Y493D01*
X148Y493D02*
X167Y493D01*
X186Y493D02*
X197Y493D01*
X209Y493D02*
X219Y493D01*
X269Y493D02*
X280Y493D01*
X298Y493D02*
X313Y493D01*
X343Y493D02*
X344Y493D01*
X7Y492D02*
X14Y492D01*
X239Y492D02*
X257Y492D01*
X7Y491D02*
X14Y491D01*
X238Y491D02*
X258Y491D01*
X7Y490D02*
X14Y490D01*
X238Y490D02*
X258Y490D01*
X7Y489D02*
X14Y489D01*
X239Y489D02*
X257Y489D01*
X7Y488D02*
X14Y488D01*
X7Y487D02*
X14Y487D01*
X7Y486D02*
X14Y486D01*
X7Y485D02*
X14Y485D01*
X7Y484D02*
X14Y484D01*
X7Y483D02*
X14Y483D01*
X7Y482D02*
X14Y482D01*
X7Y481D02*
X14Y481D01*
X7Y480D02*
X14Y480D01*
X7Y479D02*
X14Y479D01*
X7Y478D02*
X14Y478D01*
X7Y477D02*
X14Y477D01*
X7Y476D02*
X14Y476D01*
X7Y475D02*
X14Y475D01*
X7Y474D02*
X14Y474D01*
X7Y473D02*
X14Y473D01*
X7Y472D02*
X14Y472D01*
X7Y471D02*
X14Y471D01*
X7Y470D02*
X14Y470D01*
X7Y469D02*
X14Y469D01*
X7Y468D02*
X14Y468D01*
X7Y467D02*
X14Y467D01*
X7Y466D02*
X14Y466D01*
X7Y465D02*
X14Y465D01*
X7Y464D02*
X14Y464D01*
X7Y463D02*
X14Y463D01*
X7Y462D02*
X14Y462D01*
X7Y461D02*
X14Y461D01*
X7Y460D02*
X14Y460D01*
X7Y459D02*
X14Y459D01*
X7Y458D02*
X14Y458D01*
X7Y457D02*
X14Y457D01*
X7Y456D02*
X14Y456D01*
X7Y455D02*
X14Y455D01*
X7Y454D02*
X14Y454D01*
X7Y453D02*
X14Y453D01*
X7Y452D02*
X14Y452D01*
X7Y451D02*
X14Y451D01*
X7Y450D02*
X14Y450D01*
X7Y449D02*
X14Y449D01*
X7Y448D02*
X14Y448D01*
X7Y447D02*
X14Y447D01*
X7Y446D02*
X14Y446D01*
X7Y445D02*
X14Y445D01*
X7Y444D02*
X14Y444D01*
X597Y444D02*
X597Y444D01*
X635Y444D02*
X644Y444D01*
X657Y444D02*
X666Y444D01*
X717Y444D02*
X718Y444D01*
X746Y444D02*
X764Y444D01*
X777Y444D02*
X786Y444D01*
X7Y443D02*
X14Y443D01*
X596Y443D02*
X598Y443D01*
X633Y443D02*
X645Y443D01*
X656Y443D02*
X668Y443D01*
X716Y443D02*
X719Y443D01*
X746Y443D02*
X765Y443D01*
X776Y443D02*
X789Y443D01*
X7Y442D02*
X14Y442D01*
X595Y442D02*
X599Y442D01*
X632Y442D02*
X645Y442D01*
X656Y442D02*
X669Y442D01*
X716Y442D02*
X719Y442D01*
X746Y442D02*
X766Y442D01*
X776Y442D02*
X790Y442D01*
X7Y441D02*
X14Y441D01*
X595Y441D02*
X599Y441D01*
X631Y441D02*
X645Y441D01*
X656Y441D02*
X670Y441D01*
X716Y441D02*
X719Y441D01*
X746Y441D02*
X765Y441D01*
X776Y441D02*
X790Y441D01*
X7Y440D02*
X14Y440D01*
X595Y440D02*
X599Y440D01*
X630Y440D02*
X643Y440D01*
X657Y440D02*
X670Y440D01*
X716Y440D02*
X719Y440D01*
X746Y440D02*
X764Y440D01*
X778Y440D02*
X791Y440D01*
X7Y439D02*
X14Y439D01*
X595Y439D02*
X599Y439D01*
X630Y439D02*
X634Y439D01*
X660Y439D02*
X663Y439D01*
X667Y439D02*
X671Y439D01*
X716Y439D02*
X719Y439D01*
X746Y439D02*
X749Y439D01*
X780Y439D02*
X783Y439D01*
X788Y439D02*
X791Y439D01*
X7Y438D02*
X14Y438D01*
X595Y438D02*
X599Y438D01*
X629Y438D02*
X633Y438D01*
X660Y438D02*
X663Y438D01*
X668Y438D02*
X671Y438D01*
X716Y438D02*
X719Y438D01*
X746Y438D02*
X749Y438D01*
X780Y438D02*
X783Y438D01*
X788Y438D02*
X792Y438D01*
X7Y437D02*
X14Y437D01*
X595Y437D02*
X599Y437D01*
X629Y437D02*
X633Y437D01*
X660Y437D02*
X663Y437D01*
X668Y437D02*
X672Y437D01*
X716Y437D02*
X719Y437D01*
X746Y437D02*
X749Y437D01*
X780Y437D02*
X783Y437D01*
X789Y437D02*
X792Y437D01*
X7Y436D02*
X14Y436D01*
X595Y436D02*
X599Y436D01*
X628Y436D02*
X632Y436D01*
X660Y436D02*
X663Y436D01*
X669Y436D02*
X672Y436D01*
X716Y436D02*
X719Y436D01*
X746Y436D02*
X749Y436D01*
X780Y436D02*
X783Y436D01*
X789Y436D02*
X793Y436D01*
X7Y435D02*
X14Y435D01*
X595Y435D02*
X599Y435D01*
X628Y435D02*
X632Y435D01*
X660Y435D02*
X663Y435D01*
X669Y435D02*
X673Y435D01*
X716Y435D02*
X719Y435D01*
X746Y435D02*
X749Y435D01*
X780Y435D02*
X783Y435D01*
X790Y435D02*
X793Y435D01*
X7Y434D02*
X14Y434D01*
X595Y434D02*
X599Y434D01*
X627Y434D02*
X631Y434D01*
X660Y434D02*
X663Y434D01*
X670Y434D02*
X673Y434D01*
X716Y434D02*
X719Y434D01*
X746Y434D02*
X749Y434D01*
X780Y434D02*
X783Y434D01*
X790Y434D02*
X794Y434D01*
X7Y433D02*
X14Y433D01*
X595Y433D02*
X599Y433D01*
X627Y433D02*
X631Y433D01*
X660Y433D02*
X663Y433D01*
X670Y433D02*
X674Y433D01*
X716Y433D02*
X719Y433D01*
X746Y433D02*
X749Y433D01*
X780Y433D02*
X783Y433D01*
X791Y433D02*
X794Y433D01*
X7Y432D02*
X14Y432D01*
X595Y432D02*
X599Y432D01*
X626Y432D02*
X630Y432D01*
X660Y432D02*
X663Y432D01*
X671Y432D02*
X674Y432D01*
X716Y432D02*
X719Y432D01*
X746Y432D02*
X749Y432D01*
X780Y432D02*
X783Y432D01*
X791Y432D02*
X795Y432D01*
X7Y431D02*
X14Y431D01*
X595Y431D02*
X599Y431D01*
X626Y431D02*
X630Y431D01*
X660Y431D02*
X663Y431D01*
X671Y431D02*
X675Y431D01*
X716Y431D02*
X719Y431D01*
X746Y431D02*
X749Y431D01*
X780Y431D02*
X783Y431D01*
X792Y431D02*
X795Y431D01*
X7Y430D02*
X14Y430D01*
X595Y430D02*
X599Y430D01*
X626Y430D02*
X629Y430D01*
X660Y430D02*
X663Y430D01*
X672Y430D02*
X675Y430D01*
X716Y430D02*
X719Y430D01*
X746Y430D02*
X756Y430D01*
X780Y430D02*
X783Y430D01*
X792Y430D02*
X796Y430D01*
X808Y430D02*
X824Y430D01*
X7Y429D02*
X14Y429D01*
X595Y429D02*
X599Y429D01*
X626Y429D02*
X629Y429D01*
X660Y429D02*
X663Y429D01*
X672Y429D02*
X675Y429D01*
X716Y429D02*
X719Y429D01*
X746Y429D02*
X757Y429D01*
X780Y429D02*
X783Y429D01*
X793Y429D02*
X796Y429D01*
X807Y429D02*
X826Y429D01*
X7Y428D02*
X14Y428D01*
X595Y428D02*
X599Y428D01*
X626Y428D02*
X629Y428D01*
X660Y428D02*
X663Y428D01*
X672Y428D02*
X675Y428D01*
X716Y428D02*
X719Y428D01*
X746Y428D02*
X757Y428D01*
X780Y428D02*
X783Y428D01*
X793Y428D02*
X796Y428D01*
X806Y428D02*
X826Y428D01*
X7Y427D02*
X14Y427D01*
X595Y427D02*
X599Y427D01*
X626Y427D02*
X629Y427D01*
X660Y427D02*
X663Y427D01*
X672Y427D02*
X675Y427D01*
X716Y427D02*
X719Y427D01*
X746Y427D02*
X757Y427D01*
X780Y427D02*
X783Y427D01*
X793Y427D02*
X796Y427D01*
X806Y427D02*
X826Y427D01*
X7Y426D02*
X14Y426D01*
X595Y426D02*
X599Y426D01*
X626Y426D02*
X629Y426D01*
X660Y426D02*
X663Y426D01*
X672Y426D02*
X675Y426D01*
X716Y426D02*
X719Y426D01*
X746Y426D02*
X756Y426D01*
X780Y426D02*
X783Y426D01*
X792Y426D02*
X796Y426D01*
X806Y426D02*
X826Y426D01*
X7Y425D02*
X14Y425D01*
X595Y425D02*
X599Y425D01*
X626Y425D02*
X630Y425D01*
X660Y425D02*
X663Y425D01*
X671Y425D02*
X675Y425D01*
X716Y425D02*
X719Y425D01*
X746Y425D02*
X749Y425D01*
X780Y425D02*
X783Y425D01*
X792Y425D02*
X795Y425D01*
X807Y425D02*
X826Y425D01*
X7Y424D02*
X14Y424D01*
X595Y424D02*
X599Y424D01*
X626Y424D02*
X630Y424D01*
X660Y424D02*
X663Y424D01*
X671Y424D02*
X675Y424D01*
X716Y424D02*
X719Y424D01*
X746Y424D02*
X749Y424D01*
X780Y424D02*
X783Y424D01*
X791Y424D02*
X795Y424D01*
X7Y423D02*
X14Y423D01*
X595Y423D02*
X599Y423D01*
X627Y423D02*
X631Y423D01*
X660Y423D02*
X663Y423D01*
X670Y423D02*
X674Y423D01*
X716Y423D02*
X719Y423D01*
X746Y423D02*
X749Y423D01*
X780Y423D02*
X783Y423D01*
X791Y423D02*
X795Y423D01*
X7Y422D02*
X14Y422D01*
X595Y422D02*
X599Y422D01*
X627Y422D02*
X631Y422D01*
X660Y422D02*
X663Y422D01*
X670Y422D02*
X674Y422D01*
X716Y422D02*
X719Y422D01*
X746Y422D02*
X749Y422D01*
X780Y422D02*
X783Y422D01*
X790Y422D02*
X794Y422D01*
X7Y421D02*
X14Y421D01*
X595Y421D02*
X599Y421D01*
X628Y421D02*
X632Y421D01*
X660Y421D02*
X663Y421D01*
X669Y421D02*
X673Y421D01*
X716Y421D02*
X719Y421D01*
X746Y421D02*
X749Y421D01*
X780Y421D02*
X783Y421D01*
X790Y421D02*
X794Y421D01*
X7Y420D02*
X14Y420D01*
X595Y420D02*
X599Y420D01*
X628Y420D02*
X632Y420D01*
X660Y420D02*
X663Y420D01*
X669Y420D02*
X673Y420D01*
X716Y420D02*
X719Y420D01*
X746Y420D02*
X749Y420D01*
X780Y420D02*
X783Y420D01*
X789Y420D02*
X793Y420D01*
X7Y419D02*
X14Y419D01*
X595Y419D02*
X599Y419D01*
X629Y419D02*
X633Y419D01*
X660Y419D02*
X663Y419D01*
X668Y419D02*
X672Y419D01*
X716Y419D02*
X719Y419D01*
X746Y419D02*
X749Y419D01*
X780Y419D02*
X783Y419D01*
X789Y419D02*
X793Y419D01*
X7Y418D02*
X14Y418D01*
X595Y418D02*
X599Y418D01*
X629Y418D02*
X633Y418D01*
X660Y418D02*
X663Y418D01*
X668Y418D02*
X672Y418D01*
X716Y418D02*
X719Y418D01*
X746Y418D02*
X749Y418D01*
X780Y418D02*
X783Y418D01*
X788Y418D02*
X792Y418D01*
X7Y417D02*
X14Y417D01*
X595Y417D02*
X599Y417D01*
X630Y417D02*
X634Y417D01*
X660Y417D02*
X663Y417D01*
X667Y417D02*
X671Y417D01*
X716Y417D02*
X719Y417D01*
X746Y417D02*
X749Y417D01*
X780Y417D02*
X783Y417D01*
X788Y417D02*
X792Y417D01*
X7Y416D02*
X14Y416D01*
X595Y416D02*
X599Y416D01*
X630Y416D02*
X635Y416D01*
X659Y416D02*
X663Y416D01*
X666Y416D02*
X671Y416D01*
X716Y416D02*
X719Y416D01*
X746Y416D02*
X750Y416D01*
X780Y416D02*
X784Y416D01*
X787Y416D02*
X791Y416D01*
X7Y415D02*
X14Y415D01*
X595Y415D02*
X615Y415D01*
X631Y415D02*
X645Y415D01*
X656Y415D02*
X670Y415D01*
X716Y415D02*
X735Y415D01*
X746Y415D02*
X765Y415D01*
X777Y415D02*
X791Y415D01*
X7Y414D02*
X14Y414D01*
X595Y414D02*
X615Y414D01*
X632Y414D02*
X645Y414D01*
X656Y414D02*
X669Y414D01*
X716Y414D02*
X736Y414D01*
X746Y414D02*
X766Y414D01*
X776Y414D02*
X790Y414D01*
X7Y413D02*
X14Y413D01*
X595Y413D02*
X615Y413D01*
X633Y413D02*
X645Y413D01*
X656Y413D02*
X668Y413D01*
X716Y413D02*
X735Y413D01*
X746Y413D02*
X766Y413D01*
X776Y413D02*
X789Y413D01*
X7Y412D02*
X14Y412D01*
X596Y412D02*
X614Y412D01*
X634Y412D02*
X644Y412D01*
X657Y412D02*
X666Y412D01*
X716Y412D02*
X735Y412D01*
X746Y412D02*
X765Y412D01*
X777Y412D02*
X787Y412D01*
X7Y411D02*
X14Y411D01*
X686Y411D02*
X705Y411D01*
X7Y410D02*
X14Y410D01*
X686Y410D02*
X705Y410D01*
X7Y409D02*
X14Y409D01*
X686Y409D02*
X705Y409D01*
X7Y408D02*
X14Y408D01*
X687Y408D02*
X705Y408D01*
X7Y407D02*
X14Y407D01*
X7Y406D02*
X14Y406D01*
X7Y405D02*
X14Y405D01*
X7Y404D02*
X14Y404D01*
X7Y403D02*
X14Y403D01*
X7Y402D02*
X14Y402D01*
X7Y401D02*
X14Y401D01*
X7Y400D02*
X14Y400D01*
X7Y399D02*
X14Y399D01*
X7Y398D02*
X14Y398D01*
X7Y397D02*
X14Y397D01*
X7Y396D02*
X14Y396D01*
X7Y395D02*
X14Y395D01*
X7Y394D02*
X14Y394D01*
X7Y393D02*
X14Y393D01*
X7Y392D02*
X14Y392D01*
X7Y391D02*
X14Y391D01*
X7Y390D02*
X14Y390D01*
X7Y389D02*
X14Y389D01*
X7Y388D02*
X14Y388D01*
X7Y387D02*
X14Y387D01*
X7Y386D02*
X14Y386D01*
X7Y385D02*
X14Y385D01*
X7Y384D02*
X14Y384D01*
X7Y383D02*
X14Y383D01*
X7Y382D02*
X14Y382D01*
X7Y381D02*
X14Y381D01*
X7Y380D02*
X14Y380D01*
X7Y379D02*
X14Y379D01*
X7Y378D02*
X14Y378D01*
X7Y377D02*
X14Y377D01*
X7Y376D02*
X14Y376D01*
X7Y375D02*
X14Y375D01*
X7Y374D02*
X14Y374D01*
X7Y373D02*
X14Y373D01*
X7Y372D02*
X14Y372D01*
X7Y371D02*
X14Y371D01*
X7Y370D02*
X14Y370D01*
X7Y369D02*
X14Y369D01*
X7Y368D02*
X14Y368D01*
X7Y367D02*
X14Y367D01*
X7Y366D02*
X14Y366D01*
X7Y365D02*
X14Y365D01*
X7Y364D02*
X14Y364D01*
X7Y363D02*
X14Y363D01*
X7Y362D02*
X14Y362D01*
X7Y361D02*
X14Y361D01*
X7Y360D02*
X14Y360D01*
X7Y359D02*
X14Y359D01*
X7Y358D02*
X14Y358D01*
X7Y357D02*
X14Y357D01*
X7Y356D02*
X14Y356D01*
X7Y355D02*
X14Y355D01*
X7Y354D02*
X14Y354D01*
X7Y353D02*
X14Y353D01*
X7Y352D02*
X14Y352D01*
X7Y351D02*
X14Y351D01*
X7Y350D02*
X14Y350D01*
X7Y349D02*
X14Y349D01*
X7Y348D02*
X14Y348D01*
X7Y347D02*
X14Y347D01*
X7Y346D02*
X14Y346D01*
X7Y345D02*
X14Y345D01*
X7Y344D02*
X14Y344D01*
X7Y343D02*
X14Y343D01*
X7Y342D02*
X14Y342D01*
X7Y341D02*
X14Y341D01*
X7Y340D02*
X14Y340D01*
X7Y339D02*
X14Y339D01*
X7Y338D02*
X14Y338D01*
X7Y337D02*
X14Y337D01*
X7Y336D02*
X14Y336D01*
X7Y335D02*
X14Y335D01*
X7Y334D02*
X14Y334D01*
X7Y333D02*
X14Y333D01*
X7Y332D02*
X14Y332D01*
X7Y331D02*
X14Y331D01*
X7Y330D02*
X14Y330D01*
X7Y329D02*
X14Y329D01*
X7Y328D02*
X14Y328D01*
X7Y327D02*
X14Y327D01*
X7Y326D02*
X14Y326D01*
X7Y325D02*
X14Y325D01*
X7Y324D02*
X14Y324D01*
X7Y323D02*
X14Y323D01*
X7Y322D02*
X14Y322D01*
X7Y321D02*
X14Y321D01*
X7Y320D02*
X14Y320D01*
X7Y319D02*
X14Y319D01*
X7Y318D02*
X14Y318D01*
X7Y317D02*
X14Y317D01*
X7Y316D02*
X14Y316D01*
X7Y315D02*
X14Y315D01*
X7Y314D02*
X14Y314D01*
X7Y313D02*
X14Y313D01*
X7Y312D02*
X14Y312D01*
X7Y311D02*
X14Y311D01*
X7Y310D02*
X14Y310D01*
X7Y309D02*
X14Y309D01*
X7Y308D02*
X14Y308D01*
X7Y307D02*
X14Y307D01*
X7Y306D02*
X14Y306D01*
X7Y305D02*
X14Y305D01*
X7Y304D02*
X14Y304D01*
X7Y303D02*
X14Y303D01*
X7Y302D02*
X14Y302D01*
X7Y301D02*
X14Y301D01*
X7Y300D02*
X14Y300D01*
X7Y299D02*
X14Y299D01*
X7Y298D02*
X14Y298D01*
X7Y297D02*
X14Y297D01*
X7Y296D02*
X14Y296D01*
X7Y295D02*
X14Y295D01*
X7Y294D02*
X14Y294D01*
X7Y293D02*
X14Y293D01*
X7Y292D02*
X14Y292D01*
X7Y291D02*
X14Y291D01*
X7Y290D02*
X14Y290D01*
X7Y289D02*
X14Y289D01*
X7Y288D02*
X14Y288D01*
X7Y287D02*
X14Y287D01*
X7Y286D02*
X14Y286D01*
X7Y285D02*
X14Y285D01*
X7Y284D02*
X14Y284D01*
X7Y283D02*
X14Y283D01*
X7Y282D02*
X14Y282D01*
X7Y281D02*
X14Y281D01*
X7Y280D02*
X14Y280D01*
X7Y279D02*
X14Y279D01*
X7Y278D02*
X14Y278D01*
X7Y277D02*
X14Y277D01*
X7Y276D02*
X14Y276D01*
X7Y275D02*
X14Y275D01*
X7Y274D02*
X14Y274D01*
X7Y273D02*
X14Y273D01*
X7Y272D02*
X14Y272D01*
X7Y271D02*
X14Y271D01*
X7Y270D02*
X14Y270D01*
X7Y269D02*
X14Y269D01*
X7Y268D02*
X14Y268D01*
X7Y267D02*
X14Y267D01*
X7Y266D02*
X14Y266D01*
X7Y265D02*
X14Y265D01*
X7Y264D02*
X14Y264D01*
X7Y263D02*
X14Y263D01*
X7Y262D02*
X14Y262D01*
X7Y261D02*
X14Y261D01*
X7Y260D02*
X14Y260D01*
X7Y259D02*
X14Y259D01*
X7Y258D02*
X14Y258D01*
X7Y257D02*
X14Y257D01*
X7Y256D02*
X14Y256D01*
X7Y255D02*
X14Y255D01*
X7Y254D02*
X14Y254D01*
X7Y253D02*
X14Y253D01*
X7Y252D02*
X14Y252D01*
X7Y251D02*
X14Y251D01*
X7Y250D02*
X14Y250D01*
X7Y249D02*
X14Y249D01*
X7Y248D02*
X14Y248D01*
X7Y247D02*
X14Y247D01*
X7Y246D02*
X14Y246D01*
X7Y245D02*
X14Y245D01*
X7Y244D02*
X14Y244D01*
X7Y243D02*
X14Y243D01*
X7Y242D02*
X14Y242D01*
X7Y241D02*
X14Y241D01*
X7Y240D02*
X14Y240D01*
X7Y239D02*
X14Y239D01*
X7Y238D02*
X14Y238D01*
X7Y237D02*
X14Y237D01*
X7Y236D02*
X14Y236D01*
X7Y235D02*
X14Y235D01*
X7Y234D02*
X14Y234D01*
X7Y233D02*
X14Y233D01*
X7Y232D02*
X14Y232D01*
X7Y231D02*
X14Y231D01*
X7Y230D02*
X14Y230D01*
X7Y229D02*
X14Y229D01*
X7Y228D02*
X14Y228D01*
X7Y227D02*
X14Y227D01*
X7Y226D02*
X14Y226D01*
X7Y225D02*
X14Y225D01*
X7Y224D02*
X14Y224D01*
X7Y223D02*
X14Y223D01*
X7Y222D02*
X14Y222D01*
X7Y221D02*
X14Y221D01*
X7Y220D02*
X14Y220D01*
X7Y219D02*
X14Y219D01*
X7Y218D02*
X14Y218D01*
X7Y217D02*
X14Y217D01*
X7Y216D02*
X14Y216D01*
X7Y215D02*
X14Y215D01*
X7Y214D02*
X14Y214D01*
X7Y213D02*
X14Y213D01*
X7Y212D02*
X14Y212D01*
X7Y211D02*
X14Y211D01*
X7Y210D02*
X14Y210D01*
X7Y209D02*
X14Y209D01*
X7Y208D02*
X14Y208D01*
X7Y207D02*
X14Y207D01*
X7Y206D02*
X14Y206D01*
X7Y205D02*
X14Y205D01*
X7Y204D02*
X14Y204D01*
X7Y203D02*
X14Y203D01*
X7Y202D02*
X14Y202D01*
X7Y201D02*
X14Y201D01*
X7Y200D02*
X14Y200D01*
X7Y199D02*
X14Y199D01*
X7Y198D02*
X14Y198D01*
X7Y197D02*
X14Y197D01*
X7Y196D02*
X14Y196D01*
X7Y195D02*
X14Y195D01*
X7Y194D02*
X14Y194D01*
X7Y193D02*
X14Y193D01*
X7Y192D02*
X14Y192D01*
X7Y191D02*
X14Y191D01*
X7Y190D02*
X14Y190D01*
X7Y189D02*
X14Y189D01*
X7Y188D02*
X14Y188D01*
X7Y187D02*
X14Y187D01*
X7Y186D02*
X14Y186D01*
X918Y186D02*
X934Y186D01*
X949Y186D02*
X950Y186D01*
X1018Y186D02*
X1027Y186D01*
X1038Y186D02*
X1043Y186D01*
X1056Y186D02*
X1057Y186D01*
X1069Y186D02*
X1080Y186D01*
X7Y185D02*
X14Y185D01*
X407Y185D02*
X424Y185D01*
X438Y185D02*
X440Y185D01*
X498Y185D02*
X514Y185D01*
X528Y185D02*
X531Y185D01*
X559Y185D02*
X576Y185D01*
X642Y185D02*
X642Y185D01*
X680Y185D02*
X689Y185D01*
X702Y185D02*
X711Y185D01*
X763Y185D02*
X771Y185D01*
X792Y185D02*
X804Y185D01*
X826Y185D02*
X840Y185D01*
X918Y185D02*
X935Y185D01*
X948Y185D02*
X951Y185D01*
X1017Y185D02*
X1028Y185D01*
X1038Y185D02*
X1044Y185D01*
X1055Y185D02*
X1058Y185D01*
X1069Y185D02*
X1081Y185D01*
X7Y184D02*
X14Y184D01*
X407Y184D02*
X425Y184D01*
X438Y184D02*
X441Y184D01*
X498Y184D02*
X516Y184D01*
X528Y184D02*
X531Y184D01*
X558Y184D02*
X577Y184D01*
X641Y184D02*
X644Y184D01*
X678Y184D02*
X690Y184D01*
X701Y184D02*
X713Y184D01*
X761Y184D02*
X773Y184D01*
X791Y184D02*
X807Y184D01*
X825Y184D02*
X841Y184D01*
X918Y184D02*
X936Y184D01*
X948Y184D02*
X951Y184D01*
X1016Y184D02*
X1028Y184D01*
X1038Y184D02*
X1044Y184D01*
X1055Y184D02*
X1058Y184D01*
X1069Y184D02*
X1082Y184D01*
X1155Y184D02*
X1171Y184D01*
X1186Y184D02*
X1188Y184D01*
X1246Y184D02*
X1248Y184D01*
X1263Y184D02*
X1265Y184D01*
X7Y183D02*
X14Y183D01*
X163Y183D02*
X163Y183D01*
X201Y183D02*
X210Y183D01*
X223Y183D02*
X232Y183D01*
X282Y183D02*
X297Y183D01*
X316Y183D02*
X327Y183D01*
X407Y183D02*
X426Y183D01*
X438Y183D02*
X441Y183D01*
X498Y183D02*
X517Y183D01*
X528Y183D02*
X531Y183D01*
X558Y183D02*
X578Y183D01*
X641Y183D02*
X644Y183D01*
X677Y183D02*
X690Y183D01*
X701Y183D02*
X714Y183D01*
X761Y183D02*
X775Y183D01*
X791Y183D02*
X808Y183D01*
X825Y183D02*
X841Y183D01*
X918Y183D02*
X937Y183D01*
X948Y183D02*
X951Y183D01*
X1015Y183D02*
X1027Y183D01*
X1038Y183D02*
X1044Y183D01*
X1055Y183D02*
X1058Y183D01*
X1069Y183D02*
X1083Y183D01*
X1155Y183D02*
X1173Y183D01*
X1185Y183D02*
X1188Y183D01*
X1246Y183D02*
X1249Y183D01*
X1262Y183D02*
X1265Y183D01*
X7Y182D02*
X14Y182D01*
X162Y182D02*
X164Y182D01*
X199Y182D02*
X211Y182D01*
X222Y182D02*
X234Y182D01*
X282Y182D02*
X299Y182D01*
X314Y182D02*
X330Y182D01*
X407Y182D02*
X427Y182D01*
X438Y182D02*
X441Y182D01*
X498Y182D02*
X517Y182D01*
X528Y182D02*
X531Y182D01*
X559Y182D02*
X578Y182D01*
X641Y182D02*
X644Y182D01*
X676Y182D02*
X690Y182D01*
X701Y182D02*
X715Y182D01*
X761Y182D02*
X775Y182D01*
X791Y182D02*
X809Y182D01*
X825Y182D02*
X841Y182D01*
X918Y182D02*
X921Y182D01*
X933Y182D02*
X937Y182D01*
X948Y182D02*
X951Y182D01*
X1014Y182D02*
X1019Y182D01*
X1038Y182D02*
X1045Y182D01*
X1055Y182D02*
X1058Y182D01*
X1072Y182D02*
X1076Y182D01*
X1079Y182D02*
X1083Y182D01*
X1155Y182D02*
X1174Y182D01*
X1185Y182D02*
X1189Y182D01*
X1246Y182D02*
X1249Y182D01*
X1262Y182D02*
X1265Y182D01*
X7Y181D02*
X14Y181D01*
X161Y181D02*
X165Y181D01*
X198Y181D02*
X211Y181D01*
X222Y181D02*
X235Y181D01*
X282Y181D02*
X300Y181D01*
X313Y181D02*
X331Y181D01*
X407Y181D02*
X411Y181D01*
X423Y181D02*
X427Y181D01*
X438Y181D02*
X441Y181D01*
X498Y181D02*
X501Y181D01*
X514Y181D02*
X517Y181D01*
X528Y181D02*
X531Y181D01*
X575Y181D02*
X578Y181D01*
X641Y181D02*
X644Y181D01*
X676Y181D02*
X689Y181D01*
X702Y181D02*
X716Y181D01*
X763Y181D02*
X776Y181D01*
X791Y181D02*
X810Y181D01*
X825Y181D02*
X839Y181D01*
X918Y181D02*
X921Y181D01*
X934Y181D02*
X938Y181D01*
X948Y181D02*
X951Y181D01*
X1013Y181D02*
X1018Y181D01*
X1038Y181D02*
X1045Y181D01*
X1055Y181D02*
X1058Y181D01*
X1073Y181D02*
X1076Y181D01*
X1080Y181D02*
X1084Y181D01*
X1155Y181D02*
X1174Y181D01*
X1185Y181D02*
X1189Y181D01*
X1246Y181D02*
X1249Y181D01*
X1262Y181D02*
X1265Y181D01*
X7Y180D02*
X14Y180D01*
X161Y180D02*
X165Y180D01*
X197Y180D02*
X211Y180D01*
X222Y180D02*
X236Y180D01*
X282Y180D02*
X301Y180D01*
X312Y180D02*
X331Y180D01*
X407Y180D02*
X411Y180D01*
X424Y180D02*
X427Y180D01*
X438Y180D02*
X441Y180D01*
X498Y180D02*
X501Y180D01*
X514Y180D02*
X518Y180D01*
X528Y180D02*
X531Y180D01*
X575Y180D02*
X578Y180D01*
X641Y180D02*
X644Y180D01*
X675Y180D02*
X679Y180D01*
X705Y180D02*
X708Y180D01*
X712Y180D02*
X716Y180D01*
X765Y180D02*
X768Y180D01*
X773Y180D02*
X776Y180D01*
X791Y180D02*
X794Y180D01*
X806Y180D02*
X810Y180D01*
X825Y180D02*
X829Y180D01*
X918Y180D02*
X921Y180D01*
X934Y180D02*
X938Y180D01*
X948Y180D02*
X951Y180D01*
X1013Y180D02*
X1017Y180D01*
X1038Y180D02*
X1046Y180D01*
X1055Y180D02*
X1058Y180D01*
X1073Y180D02*
X1076Y180D01*
X1081Y180D02*
X1084Y180D01*
X1155Y180D02*
X1158Y180D01*
X1171Y180D02*
X1175Y180D01*
X1185Y180D02*
X1189Y180D01*
X1246Y180D02*
X1249Y180D01*
X1262Y180D02*
X1265Y180D01*
X7Y179D02*
X14Y179D01*
X161Y179D02*
X165Y179D01*
X196Y179D02*
X210Y179D01*
X223Y179D02*
X237Y179D01*
X282Y179D02*
X301Y179D01*
X312Y179D02*
X332Y179D01*
X407Y179D02*
X411Y179D01*
X424Y179D02*
X427Y179D01*
X438Y179D02*
X441Y179D01*
X498Y179D02*
X501Y179D01*
X514Y179D02*
X518Y179D01*
X528Y179D02*
X531Y179D01*
X575Y179D02*
X578Y179D01*
X641Y179D02*
X644Y179D01*
X675Y179D02*
X678Y179D01*
X705Y179D02*
X708Y179D01*
X713Y179D02*
X717Y179D01*
X765Y179D02*
X768Y179D01*
X773Y179D02*
X777Y179D01*
X791Y179D02*
X794Y179D01*
X807Y179D02*
X811Y179D01*
X825Y179D02*
X829Y179D01*
X918Y179D02*
X921Y179D01*
X934Y179D02*
X938Y179D01*
X948Y179D02*
X951Y179D01*
X1012Y179D02*
X1016Y179D01*
X1038Y179D02*
X1046Y179D01*
X1055Y179D02*
X1058Y179D01*
X1073Y179D02*
X1076Y179D01*
X1081Y179D02*
X1085Y179D01*
X1155Y179D02*
X1158Y179D01*
X1172Y179D02*
X1175Y179D01*
X1185Y179D02*
X1189Y179D01*
X1246Y179D02*
X1249Y179D01*
X1262Y179D02*
X1265Y179D01*
X7Y178D02*
X14Y178D01*
X161Y178D02*
X165Y178D01*
X196Y178D02*
X200Y178D01*
X226Y178D02*
X229Y178D01*
X233Y178D02*
X237Y178D01*
X282Y178D02*
X285Y178D01*
X298Y178D02*
X302Y178D01*
X312Y178D02*
X315Y178D01*
X328Y178D02*
X332Y178D01*
X407Y178D02*
X411Y178D01*
X424Y178D02*
X427Y178D01*
X438Y178D02*
X441Y178D01*
X498Y178D02*
X501Y178D01*
X514Y178D02*
X518Y178D01*
X528Y178D02*
X531Y178D01*
X575Y178D02*
X578Y178D01*
X641Y178D02*
X644Y178D01*
X674Y178D02*
X678Y178D01*
X705Y178D02*
X708Y178D01*
X713Y178D02*
X717Y178D01*
X765Y178D02*
X768Y178D01*
X774Y178D02*
X777Y178D01*
X791Y178D02*
X794Y178D01*
X808Y178D02*
X811Y178D01*
X825Y178D02*
X829Y178D01*
X918Y178D02*
X921Y178D01*
X934Y178D02*
X938Y178D01*
X948Y178D02*
X951Y178D01*
X1011Y178D02*
X1015Y178D01*
X1038Y178D02*
X1047Y178D01*
X1055Y178D02*
X1058Y178D01*
X1073Y178D02*
X1076Y178D01*
X1082Y178D02*
X1085Y178D01*
X1155Y178D02*
X1158Y178D01*
X1172Y178D02*
X1175Y178D01*
X1185Y178D02*
X1189Y178D01*
X1246Y178D02*
X1249Y178D01*
X1262Y178D02*
X1265Y178D01*
X7Y177D02*
X14Y177D01*
X161Y177D02*
X165Y177D01*
X195Y177D02*
X199Y177D01*
X226Y177D02*
X229Y177D01*
X234Y177D02*
X238Y177D01*
X282Y177D02*
X285Y177D01*
X298Y177D02*
X302Y177D01*
X312Y177D02*
X316Y177D01*
X329Y177D02*
X332Y177D01*
X407Y177D02*
X411Y177D01*
X424Y177D02*
X427Y177D01*
X438Y177D02*
X441Y177D01*
X498Y177D02*
X501Y177D01*
X514Y177D02*
X518Y177D01*
X528Y177D02*
X531Y177D01*
X575Y177D02*
X578Y177D01*
X641Y177D02*
X644Y177D01*
X674Y177D02*
X677Y177D01*
X705Y177D02*
X708Y177D01*
X714Y177D02*
X718Y177D01*
X765Y177D02*
X768Y177D01*
X774Y177D02*
X778Y177D01*
X791Y177D02*
X794Y177D01*
X808Y177D02*
X811Y177D01*
X825Y177D02*
X829Y177D01*
X918Y177D02*
X921Y177D01*
X934Y177D02*
X938Y177D01*
X948Y177D02*
X951Y177D01*
X1010Y177D02*
X1015Y177D01*
X1038Y177D02*
X1047Y177D01*
X1055Y177D02*
X1058Y177D01*
X1073Y177D02*
X1076Y177D01*
X1082Y177D02*
X1086Y177D01*
X1155Y177D02*
X1158Y177D01*
X1172Y177D02*
X1175Y177D01*
X1185Y177D02*
X1189Y177D01*
X1246Y177D02*
X1249Y177D01*
X1262Y177D02*
X1265Y177D01*
X7Y176D02*
X14Y176D01*
X161Y176D02*
X165Y176D01*
X195Y176D02*
X199Y176D01*
X226Y176D02*
X229Y176D01*
X234Y176D02*
X238Y176D01*
X282Y176D02*
X285Y176D01*
X298Y176D02*
X302Y176D01*
X313Y176D02*
X317Y176D01*
X329Y176D02*
X331Y176D01*
X407Y176D02*
X411Y176D01*
X423Y176D02*
X427Y176D01*
X438Y176D02*
X441Y176D01*
X498Y176D02*
X501Y176D01*
X514Y176D02*
X517Y176D01*
X528Y176D02*
X531Y176D01*
X575Y176D02*
X578Y176D01*
X641Y176D02*
X644Y176D01*
X673Y176D02*
X677Y176D01*
X705Y176D02*
X708Y176D01*
X714Y176D02*
X718Y176D01*
X765Y176D02*
X768Y176D01*
X775Y176D02*
X778Y176D01*
X791Y176D02*
X794Y176D01*
X808Y176D02*
X811Y176D01*
X825Y176D02*
X829Y176D01*
X918Y176D02*
X921Y176D01*
X933Y176D02*
X937Y176D01*
X948Y176D02*
X951Y176D01*
X1010Y176D02*
X1014Y176D01*
X1038Y176D02*
X1042Y176D01*
X1044Y176D02*
X1048Y176D01*
X1055Y176D02*
X1058Y176D01*
X1073Y176D02*
X1076Y176D01*
X1083Y176D02*
X1087Y176D01*
X1155Y176D02*
X1158Y176D01*
X1172Y176D02*
X1175Y176D01*
X1185Y176D02*
X1189Y176D01*
X1246Y176D02*
X1249Y176D01*
X1262Y176D02*
X1265Y176D01*
X7Y175D02*
X14Y175D01*
X161Y175D02*
X165Y175D01*
X194Y175D02*
X198Y175D01*
X226Y175D02*
X229Y175D01*
X235Y175D02*
X239Y175D01*
X282Y175D02*
X285Y175D01*
X298Y175D02*
X302Y175D01*
X313Y175D02*
X318Y175D01*
X407Y175D02*
X427Y175D01*
X438Y175D02*
X441Y175D01*
X498Y175D02*
X517Y175D01*
X528Y175D02*
X531Y175D01*
X575Y175D02*
X578Y175D01*
X641Y175D02*
X644Y175D01*
X673Y175D02*
X676Y175D01*
X705Y175D02*
X708Y175D01*
X715Y175D02*
X719Y175D01*
X765Y175D02*
X768Y175D01*
X775Y175D02*
X779Y175D01*
X791Y175D02*
X794Y175D01*
X808Y175D02*
X811Y175D01*
X825Y175D02*
X829Y175D01*
X918Y175D02*
X937Y175D01*
X948Y175D02*
X951Y175D01*
X1009Y175D02*
X1013Y175D01*
X1038Y175D02*
X1042Y175D01*
X1044Y175D02*
X1048Y175D01*
X1055Y175D02*
X1058Y175D01*
X1073Y175D02*
X1076Y175D01*
X1083Y175D02*
X1087Y175D01*
X1155Y175D02*
X1158Y175D01*
X1171Y175D02*
X1175Y175D01*
X1185Y175D02*
X1189Y175D01*
X1246Y175D02*
X1249Y175D01*
X1262Y175D02*
X1265Y175D01*
X1282Y175D02*
X1295Y175D01*
X1312Y175D02*
X1325Y175D01*
X7Y174D02*
X14Y174D01*
X161Y174D02*
X165Y174D01*
X194Y174D02*
X198Y174D01*
X226Y174D02*
X229Y174D01*
X235Y174D02*
X239Y174D01*
X282Y174D02*
X285Y174D01*
X298Y174D02*
X302Y174D01*
X314Y174D02*
X319Y174D01*
X407Y174D02*
X426Y174D01*
X438Y174D02*
X441Y174D01*
X498Y174D02*
X517Y174D01*
X528Y174D02*
X531Y174D01*
X575Y174D02*
X578Y174D01*
X641Y174D02*
X644Y174D01*
X672Y174D02*
X676Y174D01*
X705Y174D02*
X708Y174D01*
X715Y174D02*
X719Y174D01*
X765Y174D02*
X768Y174D01*
X776Y174D02*
X779Y174D01*
X791Y174D02*
X794Y174D01*
X808Y174D02*
X811Y174D01*
X825Y174D02*
X829Y174D01*
X918Y174D02*
X936Y174D01*
X948Y174D02*
X951Y174D01*
X1009Y174D02*
X1012Y174D01*
X1038Y174D02*
X1042Y174D01*
X1045Y174D02*
X1048Y174D01*
X1055Y174D02*
X1058Y174D01*
X1073Y174D02*
X1076Y174D01*
X1084Y174D02*
X1087Y174D01*
X1155Y174D02*
X1175Y174D01*
X1185Y174D02*
X1189Y174D01*
X1246Y174D02*
X1250Y174D01*
X1261Y174D02*
X1265Y174D01*
X1281Y174D02*
X1295Y174D01*
X1311Y174D02*
X1326Y174D01*
X7Y173D02*
X14Y173D01*
X161Y173D02*
X165Y173D01*
X194Y173D02*
X197Y173D01*
X226Y173D02*
X229Y173D01*
X236Y173D02*
X240Y173D01*
X282Y173D02*
X285Y173D01*
X298Y173D02*
X301Y173D01*
X315Y173D02*
X319Y173D01*
X407Y173D02*
X425Y173D01*
X438Y173D02*
X441Y173D01*
X498Y173D02*
X516Y173D01*
X528Y173D02*
X531Y173D01*
X575Y173D02*
X578Y173D01*
X641Y173D02*
X644Y173D01*
X672Y173D02*
X675Y173D01*
X705Y173D02*
X708Y173D01*
X716Y173D02*
X720Y173D01*
X765Y173D02*
X768Y173D01*
X776Y173D02*
X780Y173D01*
X791Y173D02*
X794Y173D01*
X807Y173D02*
X811Y173D01*
X825Y173D02*
X829Y173D01*
X918Y173D02*
X935Y173D01*
X948Y173D02*
X951Y173D01*
X1008Y173D02*
X1012Y173D01*
X1038Y173D02*
X1042Y173D01*
X1045Y173D02*
X1049Y173D01*
X1055Y173D02*
X1058Y173D01*
X1073Y173D02*
X1076Y173D01*
X1084Y173D02*
X1088Y173D01*
X1155Y173D02*
X1174Y173D01*
X1185Y173D02*
X1189Y173D01*
X1246Y173D02*
X1250Y173D01*
X1261Y173D02*
X1264Y173D01*
X1280Y173D02*
X1295Y173D01*
X1310Y173D02*
X1325Y173D01*
X7Y172D02*
X14Y172D01*
X161Y172D02*
X165Y172D01*
X193Y172D02*
X197Y172D01*
X226Y172D02*
X229Y172D01*
X236Y172D02*
X240Y172D01*
X282Y172D02*
X301Y172D01*
X316Y172D02*
X320Y172D01*
X407Y172D02*
X424Y172D01*
X438Y172D02*
X441Y172D01*
X498Y172D02*
X515Y172D01*
X528Y172D02*
X531Y172D01*
X575Y172D02*
X578Y172D01*
X641Y172D02*
X644Y172D01*
X671Y172D02*
X675Y172D01*
X705Y172D02*
X708Y172D01*
X716Y172D02*
X720Y172D01*
X765Y172D02*
X768Y172D01*
X777Y172D02*
X780Y172D01*
X791Y172D02*
X794Y172D01*
X806Y172D02*
X810Y172D01*
X825Y172D02*
X829Y172D01*
X918Y172D02*
X933Y172D01*
X948Y172D02*
X951Y172D01*
X1008Y172D02*
X1012Y172D01*
X1038Y172D02*
X1042Y172D01*
X1046Y172D02*
X1049Y172D01*
X1055Y172D02*
X1058Y172D01*
X1073Y172D02*
X1076Y172D01*
X1085Y172D02*
X1088Y172D01*
X1155Y172D02*
X1173Y172D01*
X1185Y172D02*
X1189Y172D01*
X1247Y172D02*
X1250Y172D01*
X1261Y172D02*
X1264Y172D01*
X1279Y172D02*
X1294Y172D01*
X1309Y172D02*
X1325Y172D01*
X7Y171D02*
X14Y171D01*
X161Y171D02*
X165Y171D01*
X193Y171D02*
X196Y171D01*
X226Y171D02*
X229Y171D01*
X237Y171D02*
X241Y171D01*
X282Y171D02*
X301Y171D01*
X317Y171D02*
X321Y171D01*
X407Y171D02*
X421Y171D01*
X438Y171D02*
X441Y171D01*
X498Y171D02*
X511Y171D01*
X528Y171D02*
X531Y171D01*
X560Y171D02*
X578Y171D01*
X641Y171D02*
X644Y171D01*
X671Y171D02*
X674Y171D01*
X705Y171D02*
X708Y171D01*
X717Y171D02*
X720Y171D01*
X765Y171D02*
X768Y171D01*
X777Y171D02*
X781Y171D01*
X791Y171D02*
X795Y171D01*
X804Y171D02*
X810Y171D01*
X825Y171D02*
X829Y171D01*
X918Y171D02*
X921Y171D01*
X925Y171D02*
X929Y171D01*
X948Y171D02*
X951Y171D01*
X1008Y171D02*
X1012Y171D01*
X1038Y171D02*
X1042Y171D01*
X1046Y171D02*
X1050Y171D01*
X1055Y171D02*
X1058Y171D01*
X1073Y171D02*
X1076Y171D01*
X1085Y171D02*
X1088Y171D01*
X1155Y171D02*
X1172Y171D01*
X1185Y171D02*
X1189Y171D01*
X1247Y171D02*
X1251Y171D01*
X1260Y171D02*
X1264Y171D01*
X1278Y171D02*
X1283Y171D01*
X1308Y171D02*
X1313Y171D01*
X7Y170D02*
X14Y170D01*
X161Y170D02*
X165Y170D01*
X192Y170D02*
X196Y170D01*
X226Y170D02*
X229Y170D01*
X237Y170D02*
X241Y170D01*
X282Y170D02*
X300Y170D01*
X317Y170D02*
X322Y170D01*
X407Y170D02*
X411Y170D01*
X415Y170D02*
X419Y170D01*
X438Y170D02*
X441Y170D01*
X498Y170D02*
X501Y170D01*
X506Y170D02*
X509Y170D01*
X528Y170D02*
X531Y170D01*
X559Y170D02*
X577Y170D01*
X641Y170D02*
X644Y170D01*
X671Y170D02*
X674Y170D01*
X705Y170D02*
X708Y170D01*
X717Y170D02*
X721Y170D01*
X765Y170D02*
X768Y170D01*
X777Y170D02*
X781Y170D01*
X791Y170D02*
X809Y170D01*
X825Y170D02*
X839Y170D01*
X918Y170D02*
X921Y170D01*
X926Y170D02*
X930Y170D01*
X948Y170D02*
X951Y170D01*
X1008Y170D02*
X1012Y170D01*
X1038Y170D02*
X1042Y170D01*
X1047Y170D02*
X1050Y170D01*
X1055Y170D02*
X1058Y170D01*
X1073Y170D02*
X1076Y170D01*
X1085Y170D02*
X1088Y170D01*
X1155Y170D02*
X1170Y170D01*
X1185Y170D02*
X1189Y170D01*
X1248Y170D02*
X1251Y170D01*
X1260Y170D02*
X1263Y170D01*
X1277Y170D02*
X1282Y170D01*
X1307Y170D02*
X1312Y170D01*
X7Y169D02*
X14Y169D01*
X161Y169D02*
X165Y169D01*
X192Y169D02*
X195Y169D01*
X226Y169D02*
X229Y169D01*
X238Y169D02*
X241Y169D01*
X282Y169D02*
X298Y169D01*
X318Y169D02*
X322Y169D01*
X407Y169D02*
X411Y169D01*
X416Y169D02*
X420Y169D01*
X438Y169D02*
X441Y169D01*
X498Y169D02*
X501Y169D01*
X506Y169D02*
X510Y169D01*
X528Y169D02*
X531Y169D01*
X558Y169D02*
X577Y169D01*
X641Y169D02*
X644Y169D01*
X671Y169D02*
X674Y169D01*
X705Y169D02*
X708Y169D01*
X717Y169D02*
X721Y169D01*
X765Y169D02*
X768Y169D01*
X778Y169D02*
X781Y169D01*
X791Y169D02*
X808Y169D01*
X825Y169D02*
X840Y169D01*
X918Y169D02*
X921Y169D01*
X927Y169D02*
X930Y169D01*
X948Y169D02*
X951Y169D01*
X1008Y169D02*
X1012Y169D01*
X1038Y169D02*
X1042Y169D01*
X1047Y169D02*
X1051Y169D01*
X1055Y169D02*
X1058Y169D01*
X1073Y169D02*
X1076Y169D01*
X1085Y169D02*
X1088Y169D01*
X1155Y169D02*
X1158Y169D01*
X1163Y169D02*
X1167Y169D01*
X1185Y169D02*
X1189Y169D01*
X1248Y169D02*
X1251Y169D01*
X1259Y169D02*
X1263Y169D01*
X1276Y169D02*
X1281Y169D01*
X1306Y169D02*
X1311Y169D01*
X7Y168D02*
X14Y168D01*
X161Y168D02*
X165Y168D01*
X192Y168D02*
X195Y168D01*
X226Y168D02*
X229Y168D01*
X238Y168D02*
X241Y168D01*
X282Y168D02*
X285Y168D01*
X289Y168D02*
X293Y168D01*
X319Y168D02*
X323Y168D01*
X407Y168D02*
X411Y168D01*
X416Y168D02*
X420Y168D01*
X438Y168D02*
X441Y168D01*
X498Y168D02*
X501Y168D01*
X507Y168D02*
X511Y168D01*
X528Y168D02*
X531Y168D01*
X558Y168D02*
X576Y168D01*
X641Y168D02*
X644Y168D01*
X671Y168D02*
X674Y168D01*
X705Y168D02*
X708Y168D01*
X717Y168D02*
X721Y168D01*
X765Y168D02*
X768Y168D01*
X778Y168D02*
X781Y168D01*
X791Y168D02*
X809Y168D01*
X825Y168D02*
X841Y168D01*
X918Y168D02*
X921Y168D01*
X927Y168D02*
X931Y168D01*
X948Y168D02*
X951Y168D01*
X1008Y168D02*
X1012Y168D01*
X1019Y168D02*
X1028Y168D01*
X1038Y168D02*
X1042Y168D01*
X1047Y168D02*
X1051Y168D01*
X1055Y168D02*
X1058Y168D01*
X1073Y168D02*
X1076Y168D01*
X1085Y168D02*
X1088Y168D01*
X1155Y168D02*
X1158Y168D01*
X1163Y168D02*
X1167Y168D01*
X1185Y168D02*
X1189Y168D01*
X1248Y168D02*
X1252Y168D01*
X1259Y168D02*
X1263Y168D01*
X1276Y168D02*
X1280Y168D01*
X1306Y168D02*
X1310Y168D01*
X7Y167D02*
X14Y167D01*
X161Y167D02*
X165Y167D01*
X192Y167D02*
X195Y167D01*
X226Y167D02*
X229Y167D01*
X238Y167D02*
X241Y167D01*
X282Y167D02*
X285Y167D01*
X290Y167D02*
X294Y167D01*
X320Y167D02*
X324Y167D01*
X407Y167D02*
X411Y167D01*
X417Y167D02*
X421Y167D01*
X438Y167D02*
X441Y167D01*
X498Y167D02*
X501Y167D01*
X507Y167D02*
X511Y167D01*
X528Y167D02*
X531Y167D01*
X558Y167D02*
X561Y167D01*
X641Y167D02*
X644Y167D01*
X671Y167D02*
X674Y167D01*
X705Y167D02*
X708Y167D01*
X717Y167D02*
X720Y167D01*
X765Y167D02*
X768Y167D01*
X777Y167D02*
X781Y167D01*
X791Y167D02*
X810Y167D01*
X826Y167D02*
X841Y167D01*
X918Y167D02*
X921Y167D01*
X928Y167D02*
X932Y167D01*
X948Y167D02*
X951Y167D01*
X1008Y167D02*
X1012Y167D01*
X1019Y167D02*
X1028Y167D01*
X1038Y167D02*
X1042Y167D01*
X1048Y167D02*
X1051Y167D01*
X1055Y167D02*
X1058Y167D01*
X1073Y167D02*
X1076Y167D01*
X1084Y167D02*
X1088Y167D01*
X1155Y167D02*
X1158Y167D01*
X1164Y167D02*
X1168Y167D01*
X1185Y167D02*
X1189Y167D01*
X1249Y167D02*
X1252Y167D01*
X1259Y167D02*
X1262Y167D01*
X1276Y167D02*
X1279Y167D01*
X1306Y167D02*
X1309Y167D01*
X7Y166D02*
X14Y166D01*
X161Y166D02*
X165Y166D01*
X192Y166D02*
X195Y166D01*
X226Y166D02*
X229Y166D01*
X238Y166D02*
X241Y166D01*
X282Y166D02*
X285Y166D01*
X290Y166D02*
X294Y166D01*
X320Y166D02*
X325Y166D01*
X407Y166D02*
X411Y166D01*
X417Y166D02*
X421Y166D01*
X438Y166D02*
X441Y166D01*
X498Y166D02*
X501Y166D01*
X508Y166D02*
X512Y166D01*
X528Y166D02*
X531Y166D01*
X558Y166D02*
X561Y166D01*
X641Y166D02*
X644Y166D01*
X671Y166D02*
X675Y166D01*
X705Y166D02*
X708Y166D01*
X717Y166D02*
X720Y166D01*
X765Y166D02*
X768Y166D01*
X777Y166D02*
X780Y166D01*
X791Y166D02*
X794Y166D01*
X806Y166D02*
X810Y166D01*
X838Y166D02*
X841Y166D01*
X918Y166D02*
X921Y166D01*
X928Y166D02*
X932Y166D01*
X948Y166D02*
X951Y166D01*
X1008Y166D02*
X1012Y166D01*
X1019Y166D02*
X1028Y166D01*
X1038Y166D02*
X1042Y166D01*
X1048Y166D02*
X1052Y166D01*
X1055Y166D02*
X1058Y166D01*
X1073Y166D02*
X1076Y166D01*
X1084Y166D02*
X1087Y166D01*
X1155Y166D02*
X1158Y166D01*
X1165Y166D02*
X1168Y166D01*
X1185Y166D02*
X1189Y166D01*
X1249Y166D02*
X1253Y166D01*
X1258Y166D02*
X1262Y166D01*
X1276Y166D02*
X1279Y166D01*
X1306Y166D02*
X1309Y166D01*
X7Y165D02*
X14Y165D01*
X161Y165D02*
X165Y165D01*
X192Y165D02*
X195Y165D01*
X226Y165D02*
X229Y165D01*
X238Y165D02*
X241Y165D01*
X282Y165D02*
X285Y165D01*
X291Y165D02*
X295Y165D01*
X321Y165D02*
X326Y165D01*
X407Y165D02*
X411Y165D01*
X418Y165D02*
X422Y165D01*
X438Y165D02*
X441Y165D01*
X498Y165D02*
X501Y165D01*
X508Y165D02*
X512Y165D01*
X528Y165D02*
X531Y165D01*
X558Y165D02*
X561Y165D01*
X641Y165D02*
X644Y165D01*
X672Y165D02*
X675Y165D01*
X705Y165D02*
X708Y165D01*
X716Y165D02*
X720Y165D01*
X765Y165D02*
X768Y165D01*
X776Y165D02*
X780Y165D01*
X791Y165D02*
X794Y165D01*
X807Y165D02*
X811Y165D01*
X838Y165D02*
X841Y165D01*
X918Y165D02*
X921Y165D01*
X929Y165D02*
X933Y165D01*
X948Y165D02*
X951Y165D01*
X1008Y165D02*
X1012Y165D01*
X1020Y165D02*
X1028Y165D01*
X1038Y165D02*
X1042Y165D01*
X1049Y165D02*
X1052Y165D01*
X1055Y165D02*
X1058Y165D01*
X1073Y165D02*
X1076Y165D01*
X1083Y165D02*
X1087Y165D01*
X1155Y165D02*
X1158Y165D01*
X1165Y165D02*
X1169Y165D01*
X1185Y165D02*
X1189Y165D01*
X1249Y165D02*
X1253Y165D01*
X1258Y165D02*
X1261Y165D01*
X1276Y165D02*
X1279Y165D01*
X1306Y165D02*
X1309Y165D01*
X7Y164D02*
X14Y164D01*
X161Y164D02*
X165Y164D01*
X192Y164D02*
X196Y164D01*
X226Y164D02*
X229Y164D01*
X237Y164D02*
X241Y164D01*
X282Y164D02*
X285Y164D01*
X292Y164D02*
X295Y164D01*
X322Y164D02*
X326Y164D01*
X407Y164D02*
X411Y164D01*
X419Y164D02*
X423Y164D01*
X438Y164D02*
X441Y164D01*
X498Y164D02*
X501Y164D01*
X509Y164D02*
X513Y164D01*
X528Y164D02*
X531Y164D01*
X558Y164D02*
X561Y164D01*
X641Y164D02*
X644Y164D01*
X672Y164D02*
X676Y164D01*
X705Y164D02*
X708Y164D01*
X716Y164D02*
X719Y164D01*
X765Y164D02*
X768Y164D01*
X776Y164D02*
X780Y164D01*
X791Y164D02*
X794Y164D01*
X807Y164D02*
X811Y164D01*
X838Y164D02*
X841Y164D01*
X918Y164D02*
X921Y164D01*
X929Y164D02*
X933Y164D01*
X948Y164D02*
X951Y164D01*
X1008Y164D02*
X1012Y164D01*
X1025Y164D02*
X1028Y164D01*
X1038Y164D02*
X1042Y164D01*
X1049Y164D02*
X1053Y164D01*
X1055Y164D02*
X1058Y164D01*
X1073Y164D02*
X1076Y164D01*
X1083Y164D02*
X1086Y164D01*
X1155Y164D02*
X1158Y164D01*
X1166Y164D02*
X1170Y164D01*
X1185Y164D02*
X1189Y164D01*
X1250Y164D02*
X1253Y164D01*
X1257Y164D02*
X1261Y164D01*
X1276Y164D02*
X1279Y164D01*
X1306Y164D02*
X1309Y164D01*
X7Y163D02*
X14Y163D01*
X161Y163D02*
X165Y163D01*
X192Y163D02*
X196Y163D01*
X226Y163D02*
X229Y163D01*
X237Y163D02*
X241Y163D01*
X282Y163D02*
X285Y163D01*
X292Y163D02*
X296Y163D01*
X323Y163D02*
X327Y163D01*
X407Y163D02*
X411Y163D01*
X419Y163D02*
X423Y163D01*
X438Y163D02*
X441Y163D01*
X498Y163D02*
X501Y163D01*
X510Y163D02*
X514Y163D01*
X528Y163D02*
X531Y163D01*
X558Y163D02*
X561Y163D01*
X641Y163D02*
X644Y163D01*
X672Y163D02*
X676Y163D01*
X705Y163D02*
X708Y163D01*
X715Y163D02*
X719Y163D01*
X765Y163D02*
X768Y163D01*
X775Y163D02*
X779Y163D01*
X791Y163D02*
X794Y163D01*
X808Y163D02*
X811Y163D01*
X838Y163D02*
X841Y163D01*
X918Y163D02*
X921Y163D01*
X930Y163D02*
X934Y163D01*
X948Y163D02*
X951Y163D01*
X1008Y163D02*
X1012Y163D01*
X1025Y163D02*
X1028Y163D01*
X1038Y163D02*
X1042Y163D01*
X1050Y163D02*
X1053Y163D01*
X1055Y163D02*
X1058Y163D01*
X1073Y163D02*
X1076Y163D01*
X1082Y163D02*
X1086Y163D01*
X1155Y163D02*
X1158Y163D01*
X1166Y163D02*
X1170Y163D01*
X1185Y163D02*
X1189Y163D01*
X1250Y163D02*
X1254Y163D01*
X1257Y163D02*
X1261Y163D01*
X1276Y163D02*
X1279Y163D01*
X1306Y163D02*
X1309Y163D01*
X7Y162D02*
X14Y162D01*
X161Y162D02*
X165Y162D01*
X193Y162D02*
X197Y162D01*
X226Y162D02*
X229Y162D01*
X236Y162D02*
X240Y162D01*
X282Y162D02*
X285Y162D01*
X293Y162D02*
X297Y162D01*
X323Y162D02*
X328Y162D01*
X407Y162D02*
X411Y162D01*
X420Y162D02*
X424Y162D01*
X438Y162D02*
X441Y162D01*
X498Y162D02*
X501Y162D01*
X510Y162D02*
X514Y162D01*
X528Y162D02*
X531Y162D01*
X558Y162D02*
X561Y162D01*
X641Y162D02*
X644Y162D01*
X673Y162D02*
X677Y162D01*
X705Y162D02*
X708Y162D01*
X715Y162D02*
X718Y162D01*
X765Y162D02*
X768Y162D01*
X775Y162D02*
X779Y162D01*
X791Y162D02*
X794Y162D01*
X808Y162D02*
X811Y162D01*
X838Y162D02*
X841Y162D01*
X918Y162D02*
X921Y162D01*
X931Y162D02*
X935Y162D01*
X948Y162D02*
X951Y162D01*
X1008Y162D02*
X1012Y162D01*
X1025Y162D02*
X1028Y162D01*
X1038Y162D02*
X1042Y162D01*
X1050Y162D02*
X1058Y162D01*
X1073Y162D02*
X1076Y162D01*
X1082Y162D02*
X1085Y162D01*
X1155Y162D02*
X1158Y162D01*
X1167Y162D02*
X1171Y162D01*
X1185Y162D02*
X1189Y162D01*
X1251Y162D02*
X1254Y162D01*
X1257Y162D02*
X1260Y162D01*
X1276Y162D02*
X1279Y162D01*
X1306Y162D02*
X1309Y162D01*
X7Y161D02*
X14Y161D01*
X161Y161D02*
X165Y161D01*
X193Y161D02*
X197Y161D01*
X226Y161D02*
X229Y161D01*
X236Y161D02*
X240Y161D01*
X282Y161D02*
X285Y161D01*
X293Y161D02*
X297Y161D01*
X324Y161D02*
X329Y161D01*
X407Y161D02*
X411Y161D01*
X420Y161D02*
X424Y161D01*
X438Y161D02*
X441Y161D01*
X498Y161D02*
X501Y161D01*
X511Y161D02*
X515Y161D01*
X528Y161D02*
X531Y161D01*
X558Y161D02*
X561Y161D01*
X641Y161D02*
X644Y161D01*
X673Y161D02*
X677Y161D01*
X705Y161D02*
X708Y161D01*
X714Y161D02*
X718Y161D01*
X765Y161D02*
X768Y161D01*
X774Y161D02*
X778Y161D01*
X791Y161D02*
X794Y161D01*
X808Y161D02*
X811Y161D01*
X838Y161D02*
X841Y161D01*
X918Y161D02*
X921Y161D01*
X931Y161D02*
X935Y161D01*
X948Y161D02*
X951Y161D01*
X1008Y161D02*
X1012Y161D01*
X1025Y161D02*
X1028Y161D01*
X1038Y161D02*
X1042Y161D01*
X1050Y161D02*
X1058Y161D01*
X1073Y161D02*
X1076Y161D01*
X1081Y161D02*
X1085Y161D01*
X1155Y161D02*
X1158Y161D01*
X1167Y161D02*
X1171Y161D01*
X1185Y161D02*
X1189Y161D01*
X1251Y161D02*
X1260Y161D01*
X1276Y161D02*
X1279Y161D01*
X1306Y161D02*
X1309Y161D01*
X7Y160D02*
X14Y160D01*
X161Y160D02*
X165Y160D01*
X194Y160D02*
X198Y160D01*
X226Y160D02*
X229Y160D01*
X235Y160D02*
X239Y160D01*
X282Y160D02*
X285Y160D01*
X294Y160D02*
X298Y160D01*
X325Y160D02*
X329Y160D01*
X407Y160D02*
X411Y160D01*
X421Y160D02*
X425Y160D01*
X438Y160D02*
X441Y160D01*
X498Y160D02*
X501Y160D01*
X511Y160D02*
X515Y160D01*
X528Y160D02*
X531Y160D01*
X558Y160D02*
X561Y160D01*
X641Y160D02*
X644Y160D01*
X674Y160D02*
X678Y160D01*
X705Y160D02*
X708Y160D01*
X714Y160D02*
X717Y160D01*
X765Y160D02*
X768Y160D01*
X774Y160D02*
X778Y160D01*
X791Y160D02*
X794Y160D01*
X808Y160D02*
X811Y160D01*
X838Y160D02*
X841Y160D01*
X918Y160D02*
X921Y160D01*
X932Y160D02*
X936Y160D01*
X948Y160D02*
X951Y160D01*
X1008Y160D02*
X1012Y160D01*
X1025Y160D02*
X1028Y160D01*
X1038Y160D02*
X1042Y160D01*
X1051Y160D02*
X1058Y160D01*
X1073Y160D02*
X1076Y160D01*
X1081Y160D02*
X1084Y160D01*
X1155Y160D02*
X1158Y160D01*
X1168Y160D02*
X1172Y160D01*
X1185Y160D02*
X1189Y160D01*
X1251Y160D02*
X1259Y160D01*
X1276Y160D02*
X1280Y160D01*
X1306Y160D02*
X1310Y160D01*
X7Y159D02*
X14Y159D01*
X161Y159D02*
X165Y159D01*
X194Y159D02*
X198Y159D01*
X226Y159D02*
X229Y159D01*
X235Y159D02*
X239Y159D01*
X282Y159D02*
X285Y159D01*
X294Y159D02*
X298Y159D01*
X326Y159D02*
X330Y159D01*
X407Y159D02*
X411Y159D01*
X422Y159D02*
X425Y159D01*
X438Y159D02*
X441Y159D01*
X498Y159D02*
X501Y159D01*
X512Y159D02*
X516Y159D01*
X528Y159D02*
X531Y159D01*
X558Y159D02*
X561Y159D01*
X641Y159D02*
X644Y159D01*
X674Y159D02*
X678Y159D01*
X705Y159D02*
X708Y159D01*
X713Y159D02*
X717Y159D01*
X765Y159D02*
X768Y159D01*
X773Y159D02*
X777Y159D01*
X791Y159D02*
X794Y159D01*
X807Y159D02*
X811Y159D01*
X838Y159D02*
X841Y159D01*
X918Y159D02*
X921Y159D01*
X932Y159D02*
X936Y159D01*
X948Y159D02*
X951Y159D01*
X1008Y159D02*
X1012Y159D01*
X1024Y159D02*
X1028Y159D01*
X1038Y159D02*
X1042Y159D01*
X1051Y159D02*
X1058Y159D01*
X1073Y159D02*
X1076Y159D01*
X1080Y159D02*
X1084Y159D01*
X1155Y159D02*
X1158Y159D01*
X1169Y159D02*
X1173Y159D01*
X1185Y159D02*
X1189Y159D01*
X1252Y159D02*
X1259Y159D01*
X1276Y159D02*
X1281Y159D01*
X1306Y159D02*
X1311Y159D01*
X7Y158D02*
X14Y158D01*
X161Y158D02*
X165Y158D01*
X195Y158D02*
X199Y158D01*
X226Y158D02*
X229Y158D01*
X234Y158D02*
X238Y158D01*
X282Y158D02*
X285Y158D01*
X295Y158D02*
X299Y158D01*
X313Y158D02*
X314Y158D01*
X327Y158D02*
X331Y158D01*
X407Y158D02*
X411Y158D01*
X422Y158D02*
X426Y158D01*
X438Y158D02*
X441Y158D01*
X498Y158D02*
X501Y158D01*
X513Y158D02*
X516Y158D01*
X528Y158D02*
X531Y158D01*
X558Y158D02*
X561Y158D01*
X641Y158D02*
X644Y158D01*
X675Y158D02*
X679Y158D01*
X705Y158D02*
X708Y158D01*
X712Y158D02*
X716Y158D01*
X765Y158D02*
X768Y158D01*
X773Y158D02*
X777Y158D01*
X791Y158D02*
X794Y158D01*
X806Y158D02*
X810Y158D01*
X822Y158D02*
X824Y158D01*
X838Y158D02*
X841Y158D01*
X918Y158D02*
X921Y158D01*
X933Y158D02*
X937Y158D01*
X948Y158D02*
X967Y158D01*
X1009Y158D02*
X1028Y158D01*
X1038Y158D02*
X1042Y158D01*
X1052Y158D02*
X1058Y158D01*
X1070Y158D02*
X1083Y158D01*
X1155Y158D02*
X1158Y158D01*
X1169Y158D02*
X1173Y158D01*
X1185Y158D02*
X1189Y158D01*
X1252Y158D02*
X1259Y158D01*
X1277Y158D02*
X1282Y158D01*
X1307Y158D02*
X1312Y158D01*
X7Y157D02*
X14Y157D01*
X161Y157D02*
X165Y157D01*
X195Y157D02*
X199Y157D01*
X226Y157D02*
X229Y157D01*
X234Y157D02*
X238Y157D01*
X282Y157D02*
X285Y157D01*
X296Y157D02*
X300Y157D01*
X312Y157D02*
X315Y157D01*
X327Y157D02*
X332Y157D01*
X407Y157D02*
X411Y157D01*
X423Y157D02*
X427Y157D01*
X438Y157D02*
X457Y157D01*
X498Y157D02*
X501Y157D01*
X513Y157D02*
X517Y157D01*
X528Y157D02*
X547Y157D01*
X558Y157D02*
X577Y157D01*
X641Y157D02*
X644Y157D01*
X676Y157D02*
X680Y157D01*
X705Y157D02*
X708Y157D01*
X711Y157D02*
X716Y157D01*
X765Y157D02*
X769Y157D01*
X772Y157D02*
X776Y157D01*
X791Y157D02*
X795Y157D01*
X805Y157D02*
X810Y157D01*
X821Y157D02*
X827Y157D01*
X838Y157D02*
X841Y157D01*
X918Y157D02*
X921Y157D01*
X934Y157D02*
X937Y157D01*
X948Y157D02*
X968Y157D01*
X1009Y157D02*
X1027Y157D01*
X1038Y157D02*
X1042Y157D01*
X1052Y157D02*
X1058Y157D01*
X1069Y157D02*
X1083Y157D01*
X1155Y157D02*
X1158Y157D01*
X1170Y157D02*
X1174Y157D01*
X1185Y157D02*
X1189Y157D01*
X1253Y157D02*
X1258Y157D01*
X1278Y157D02*
X1283Y157D01*
X1308Y157D02*
X1313Y157D01*
X7Y156D02*
X14Y156D01*
X161Y156D02*
X165Y156D01*
X196Y156D02*
X200Y156D01*
X226Y156D02*
X229Y156D01*
X233Y156D02*
X237Y156D01*
X282Y156D02*
X285Y156D01*
X296Y156D02*
X300Y156D01*
X312Y156D02*
X315Y156D01*
X328Y156D02*
X332Y156D01*
X407Y156D02*
X411Y156D01*
X423Y156D02*
X427Y156D01*
X438Y156D02*
X457Y156D01*
X498Y156D02*
X501Y156D01*
X514Y156D02*
X517Y156D01*
X528Y156D02*
X548Y156D01*
X558Y156D02*
X578Y156D01*
X641Y156D02*
X660Y156D01*
X676Y156D02*
X690Y156D01*
X701Y156D02*
X715Y156D01*
X762Y156D02*
X776Y156D01*
X791Y156D02*
X809Y156D01*
X821Y156D02*
X841Y156D01*
X918Y156D02*
X921Y156D01*
X934Y156D02*
X938Y156D01*
X948Y156D02*
X968Y156D01*
X1010Y156D02*
X1026Y156D01*
X1038Y156D02*
X1042Y156D01*
X1053Y156D02*
X1058Y156D01*
X1069Y156D02*
X1082Y156D01*
X1155Y156D02*
X1158Y156D01*
X1170Y156D02*
X1174Y156D01*
X1185Y156D02*
X1204Y156D01*
X1253Y156D02*
X1258Y156D01*
X1279Y156D02*
X1295Y156D01*
X1309Y156D02*
X1325Y156D01*
X7Y155D02*
X14Y155D01*
X161Y155D02*
X165Y155D01*
X196Y155D02*
X201Y155D01*
X226Y155D02*
X229Y155D01*
X232Y155D02*
X237Y155D01*
X282Y155D02*
X285Y155D01*
X294Y155D02*
X295Y155D01*
X297Y155D02*
X301Y155D01*
X312Y155D02*
X316Y155D01*
X328Y155D02*
X341Y155D01*
X354Y155D02*
X364Y155D01*
X408Y155D02*
X411Y155D01*
X414Y155D02*
X432Y155D01*
X438Y155D02*
X457Y155D01*
X498Y155D02*
X501Y155D01*
X514Y155D02*
X518Y155D01*
X528Y155D02*
X548Y155D01*
X558Y155D02*
X578Y155D01*
X623Y155D02*
X638Y155D01*
X641Y155D02*
X660Y155D01*
X677Y155D02*
X694Y155D01*
X701Y155D02*
X715Y155D01*
X761Y155D02*
X775Y155D01*
X791Y155D02*
X808Y155D01*
X811Y155D02*
X820Y155D01*
X822Y155D02*
X842Y155D01*
X894Y155D02*
X902Y155D01*
X918Y155D02*
X921Y155D01*
X923Y155D02*
X937Y155D01*
X948Y155D02*
X972Y155D01*
X1011Y155D02*
X1025Y155D01*
X1039Y155D02*
X1041Y155D01*
X1053Y155D02*
X1058Y155D01*
X1069Y155D02*
X1081Y155D01*
X1155Y155D02*
X1158Y155D01*
X1171Y155D02*
X1175Y155D01*
X1185Y155D02*
X1205Y155D01*
X1253Y155D02*
X1257Y155D01*
X1280Y155D02*
X1295Y155D01*
X1310Y155D02*
X1325Y155D01*
X7Y154D02*
X14Y154D01*
X75Y154D02*
X82Y154D01*
X97Y154D02*
X104Y154D01*
X157Y154D02*
X181Y154D01*
X185Y154D02*
X211Y154D01*
X217Y154D02*
X218Y154D01*
X222Y154D02*
X236Y154D01*
X282Y154D02*
X285Y154D01*
X293Y154D02*
X301Y154D01*
X313Y154D02*
X343Y154D01*
X353Y154D02*
X366Y154D01*
X408Y154D02*
X410Y154D01*
X413Y154D02*
X433Y154D01*
X438Y154D02*
X457Y154D01*
X498Y154D02*
X500Y154D01*
X515Y154D02*
X517Y154D01*
X528Y154D02*
X550Y154D01*
X558Y154D02*
X577Y154D01*
X623Y154D02*
X660Y154D01*
X678Y154D02*
X694Y154D01*
X701Y154D02*
X714Y154D01*
X761Y154D02*
X775Y154D01*
X791Y154D02*
X807Y154D01*
X809Y154D02*
X821Y154D01*
X824Y154D02*
X844Y154D01*
X892Y154D02*
X905Y154D01*
X922Y154D02*
X938Y154D01*
X949Y154D02*
X972Y154D01*
X1013Y154D02*
X1022Y154D01*
X1051Y154D02*
X1061Y154D01*
X1071Y154D02*
X1083Y154D01*
X1143Y154D02*
X1151Y154D01*
X1155Y154D02*
X1158Y154D01*
X1163Y154D02*
X1167Y154D01*
X1172Y154D02*
X1175Y154D01*
X1180Y154D02*
X1181Y154D01*
X1185Y154D02*
X1205Y154D01*
X1254Y154D02*
X1258Y154D01*
X1281Y154D02*
X1304Y154D01*
X1311Y154D02*
X1326Y154D01*
X1377Y154D02*
X1378Y154D01*
X1394Y154D02*
X1395Y154D01*
X1407Y154D02*
X1417Y154D01*
X1437Y154D02*
X1447Y154D01*
X7Y153D02*
X14Y153D01*
X35Y153D02*
X37Y153D01*
X72Y153D02*
X84Y153D01*
X95Y153D02*
X107Y153D01*
X155Y153D02*
X181Y153D01*
X185Y153D02*
X211Y153D01*
X215Y153D02*
X220Y153D01*
X222Y153D02*
X236Y153D01*
X282Y153D02*
X285Y153D01*
X293Y153D02*
X296Y153D01*
X298Y153D02*
X302Y153D01*
X313Y153D02*
X343Y153D01*
X353Y153D02*
X367Y153D01*
X413Y153D02*
X433Y153D01*
X469Y153D02*
X486Y153D01*
X532Y153D02*
X551Y153D01*
X562Y153D02*
X566Y153D01*
X623Y153D02*
X659Y153D01*
X679Y153D02*
X694Y153D01*
X702Y153D02*
X712Y153D01*
X762Y153D02*
X775Y153D01*
X791Y153D02*
X805Y153D01*
X808Y153D02*
X822Y153D01*
X826Y153D02*
X845Y153D01*
X892Y153D02*
X906Y153D01*
X922Y153D02*
X939Y153D01*
X952Y153D02*
X972Y153D01*
X979Y153D02*
X998Y153D01*
X1012Y153D02*
X1015Y153D01*
X1049Y153D02*
X1062Y153D01*
X1073Y153D02*
X1085Y153D01*
X1141Y153D02*
X1152Y153D01*
X1156Y153D02*
X1158Y153D01*
X1163Y153D02*
X1168Y153D01*
X1172Y153D02*
X1174Y153D01*
X1179Y153D02*
X1182Y153D01*
X1185Y153D02*
X1205Y153D01*
X1254Y153D02*
X1259Y153D01*
X1282Y153D02*
X1305Y153D01*
X1313Y153D02*
X1328Y153D01*
X1376Y153D02*
X1379Y153D01*
X1393Y153D02*
X1396Y153D01*
X1406Y153D02*
X1419Y153D01*
X1436Y153D02*
X1449Y153D01*
X7Y152D02*
X14Y152D01*
X34Y152D02*
X38Y152D01*
X71Y152D02*
X84Y152D01*
X95Y152D02*
X108Y152D01*
X155Y152D02*
X181Y152D01*
X185Y152D02*
X211Y152D01*
X215Y152D02*
X220Y152D01*
X222Y152D02*
X235Y152D01*
X282Y152D02*
X285Y152D01*
X293Y152D02*
X296Y152D01*
X299Y152D02*
X302Y152D01*
X314Y152D02*
X342Y152D01*
X353Y152D02*
X367Y152D01*
X413Y152D02*
X433Y152D01*
X468Y152D02*
X487Y152D01*
X532Y152D02*
X551Y152D01*
X562Y152D02*
X566Y152D01*
X623Y152D02*
X642Y152D01*
X653Y152D02*
X656Y152D01*
X683Y152D02*
X694Y152D01*
X732Y152D02*
X750Y152D01*
X772Y152D02*
X775Y152D01*
X807Y152D02*
X821Y152D01*
X832Y152D02*
X846Y152D01*
X893Y152D02*
X906Y152D01*
X922Y152D02*
X940Y152D01*
X952Y152D02*
X972Y152D01*
X978Y152D02*
X998Y152D01*
X1012Y152D02*
X1015Y152D01*
X1048Y152D02*
X1062Y152D01*
X1072Y152D02*
X1086Y152D01*
X1140Y152D02*
X1152Y152D01*
X1163Y152D02*
X1168Y152D01*
X1179Y152D02*
X1182Y152D01*
X1193Y152D02*
X1206Y152D01*
X1217Y152D02*
X1234Y152D01*
X1255Y152D02*
X1259Y152D01*
X1292Y152D02*
X1305Y152D01*
X1316Y152D02*
X1329Y152D01*
X1376Y152D02*
X1379Y152D01*
X1393Y152D02*
X1396Y152D01*
X1406Y152D02*
X1420Y152D01*
X1436Y152D02*
X1450Y152D01*
X7Y151D02*
X14Y151D01*
X34Y151D02*
X38Y151D01*
X70Y151D02*
X84Y151D01*
X95Y151D02*
X109Y151D01*
X155Y151D02*
X180Y151D01*
X185Y151D02*
X210Y151D01*
X215Y151D02*
X220Y151D01*
X223Y151D02*
X233Y151D01*
X283Y151D02*
X284Y151D01*
X293Y151D02*
X296Y151D01*
X299Y151D02*
X301Y151D01*
X316Y151D02*
X340Y151D01*
X355Y151D02*
X368Y151D01*
X413Y151D02*
X431Y151D01*
X468Y151D02*
X487Y151D01*
X532Y151D02*
X536Y151D01*
X547Y151D02*
X552Y151D01*
X562Y151D02*
X566Y151D01*
X623Y151D02*
X626Y151D01*
X638Y151D02*
X642Y151D01*
X653Y151D02*
X656Y151D01*
X691Y151D02*
X694Y151D01*
X731Y151D02*
X751Y151D01*
X772Y151D02*
X775Y151D01*
X807Y151D02*
X820Y151D01*
X834Y151D02*
X847Y151D01*
X894Y151D02*
X907Y151D01*
X922Y151D02*
X941Y151D01*
X952Y151D02*
X972Y151D01*
X978Y151D02*
X998Y151D01*
X1012Y151D02*
X1015Y151D01*
X1048Y151D02*
X1062Y151D01*
X1073Y151D02*
X1087Y151D01*
X1139Y151D02*
X1152Y151D01*
X1163Y151D02*
X1169Y151D01*
X1179Y151D02*
X1182Y151D01*
X1193Y151D02*
X1207Y151D01*
X1216Y151D02*
X1235Y151D01*
X1255Y151D02*
X1259Y151D01*
X1291Y151D02*
X1305Y151D01*
X1316Y151D02*
X1330Y151D01*
X1376Y151D02*
X1379Y151D01*
X1393Y151D02*
X1396Y151D01*
X1406Y151D02*
X1420Y151D01*
X1437Y151D02*
X1451Y151D01*
X7Y150D02*
X14Y150D01*
X34Y150D02*
X38Y150D01*
X69Y150D02*
X83Y150D01*
X96Y150D02*
X109Y150D01*
X156Y150D02*
X170Y150D01*
X185Y150D02*
X203Y150D01*
X215Y150D02*
X219Y150D01*
X252Y150D02*
X271Y150D01*
X293Y150D02*
X296Y150D01*
X327Y150D02*
X331Y150D01*
X357Y150D02*
X360Y150D01*
X365Y150D02*
X368Y150D01*
X413Y150D02*
X417Y150D01*
X468Y150D02*
X487Y150D01*
X532Y150D02*
X536Y150D01*
X549Y150D02*
X552Y150D01*
X562Y150D02*
X566Y150D01*
X623Y150D02*
X626Y150D01*
X639Y150D02*
X642Y150D01*
X653Y150D02*
X656Y150D01*
X691Y150D02*
X694Y150D01*
X731Y150D02*
X751Y150D01*
X772Y150D02*
X775Y150D01*
X806Y150D02*
X810Y150D01*
X836Y150D02*
X839Y150D01*
X843Y150D02*
X847Y150D01*
X896Y150D02*
X900Y150D01*
X904Y150D02*
X907Y150D01*
X922Y150D02*
X926Y150D01*
X937Y150D02*
X941Y150D01*
X953Y150D02*
X955Y150D01*
X969Y150D02*
X972Y150D01*
X979Y150D02*
X997Y150D01*
X1012Y150D02*
X1015Y150D01*
X1047Y150D02*
X1052Y150D01*
X1076Y150D02*
X1080Y150D01*
X1082Y150D02*
X1087Y150D01*
X1139Y150D02*
X1144Y150D01*
X1163Y150D02*
X1169Y150D01*
X1179Y150D02*
X1182Y150D01*
X1196Y150D02*
X1201Y150D01*
X1203Y150D02*
X1208Y150D01*
X1215Y150D02*
X1235Y150D01*
X1255Y150D02*
X1259Y150D01*
X1290Y150D02*
X1295Y150D01*
X1319Y150D02*
X1323Y150D01*
X1326Y150D02*
X1331Y150D01*
X1376Y150D02*
X1379Y150D01*
X1393Y150D02*
X1396Y150D01*
X1410Y150D02*
X1414Y150D01*
X1416Y150D02*
X1421Y150D01*
X1440Y150D02*
X1444Y150D01*
X1447Y150D02*
X1451Y150D01*
X7Y149D02*
X14Y149D01*
X34Y149D02*
X38Y149D01*
X69Y149D02*
X73Y149D01*
X99Y149D02*
X102Y149D01*
X106Y149D02*
X110Y149D01*
X159Y149D02*
X162Y149D01*
X166Y149D02*
X170Y149D01*
X185Y149D02*
X188Y149D01*
X200Y149D02*
X204Y149D01*
X215Y149D02*
X218Y149D01*
X252Y149D02*
X272Y149D01*
X293Y149D02*
X296Y149D01*
X327Y149D02*
X331Y149D01*
X357Y149D02*
X360Y149D01*
X365Y149D02*
X369Y149D01*
X413Y149D02*
X417Y149D01*
X532Y149D02*
X536Y149D01*
X549Y149D02*
X552Y149D01*
X562Y149D02*
X566Y149D01*
X623Y149D02*
X626Y149D01*
X639Y149D02*
X642Y149D01*
X653Y149D02*
X656Y149D01*
X691Y149D02*
X694Y149D01*
X732Y149D02*
X750Y149D01*
X772Y149D02*
X775Y149D01*
X806Y149D02*
X810Y149D01*
X836Y149D02*
X839Y149D01*
X844Y149D02*
X848Y149D01*
X896Y149D02*
X900Y149D01*
X904Y149D02*
X908Y149D01*
X922Y149D02*
X926Y149D01*
X938Y149D02*
X942Y149D01*
X969Y149D02*
X972Y149D01*
X1012Y149D02*
X1015Y149D01*
X1047Y149D02*
X1050Y149D01*
X1076Y149D02*
X1080Y149D01*
X1084Y149D02*
X1088Y149D01*
X1138Y149D02*
X1142Y149D01*
X1163Y149D02*
X1169Y149D01*
X1179Y149D02*
X1182Y149D01*
X1197Y149D02*
X1200Y149D01*
X1204Y149D02*
X1208Y149D01*
X1216Y149D02*
X1235Y149D01*
X1255Y149D02*
X1259Y149D01*
X1290Y149D02*
X1294Y149D01*
X1320Y149D02*
X1323Y149D01*
X1327Y149D02*
X1331Y149D01*
X1376Y149D02*
X1379Y149D01*
X1393Y149D02*
X1396Y149D01*
X1410Y149D02*
X1413Y149D01*
X1418Y149D02*
X1421Y149D01*
X1440Y149D02*
X1444Y149D01*
X1448Y149D02*
X1452Y149D01*
X7Y148D02*
X14Y148D01*
X34Y148D02*
X38Y148D01*
X68Y148D02*
X72Y148D01*
X99Y148D02*
X102Y148D01*
X107Y148D02*
X110Y148D01*
X159Y148D02*
X162Y148D01*
X167Y148D02*
X171Y148D01*
X185Y148D02*
X188Y148D01*
X201Y148D02*
X204Y148D01*
X215Y148D02*
X218Y148D01*
X252Y148D02*
X271Y148D01*
X293Y148D02*
X296Y148D01*
X326Y148D02*
X330Y148D01*
X357Y148D02*
X360Y148D01*
X366Y148D02*
X369Y148D01*
X413Y148D02*
X417Y148D01*
X532Y148D02*
X536Y148D01*
X549Y148D02*
X552Y148D01*
X562Y148D02*
X566Y148D01*
X623Y148D02*
X626Y148D01*
X639Y148D02*
X642Y148D01*
X653Y148D02*
X656Y148D01*
X691Y148D02*
X694Y148D01*
X772Y148D02*
X775Y148D01*
X805Y148D02*
X809Y148D01*
X836Y148D02*
X839Y148D01*
X845Y148D02*
X848Y148D01*
X896Y148D02*
X900Y148D01*
X905Y148D02*
X909Y148D01*
X922Y148D02*
X926Y148D01*
X939Y148D02*
X942Y148D01*
X969Y148D02*
X972Y148D01*
X1012Y148D02*
X1015Y148D01*
X1046Y148D02*
X1050Y148D01*
X1076Y148D02*
X1080Y148D01*
X1084Y148D02*
X1088Y148D01*
X1137Y148D02*
X1141Y148D01*
X1163Y148D02*
X1170Y148D01*
X1179Y148D02*
X1182Y148D01*
X1197Y148D02*
X1200Y148D01*
X1205Y148D02*
X1209Y148D01*
X1218Y148D02*
X1233Y148D01*
X1255Y148D02*
X1259Y148D01*
X1289Y148D02*
X1293Y148D01*
X1320Y148D02*
X1323Y148D01*
X1328Y148D02*
X1332Y148D01*
X1376Y148D02*
X1379Y148D01*
X1393Y148D02*
X1396Y148D01*
X1410Y148D02*
X1413Y148D01*
X1418Y148D02*
X1422Y148D01*
X1440Y148D02*
X1444Y148D01*
X1448Y148D02*
X1452Y148D01*
X7Y147D02*
X14Y147D01*
X34Y147D02*
X38Y147D01*
X68Y147D02*
X72Y147D01*
X99Y147D02*
X102Y147D01*
X107Y147D02*
X111Y147D01*
X159Y147D02*
X162Y147D01*
X167Y147D02*
X171Y147D01*
X185Y147D02*
X188Y147D01*
X201Y147D02*
X205Y147D01*
X215Y147D02*
X218Y147D01*
X253Y147D02*
X271Y147D01*
X293Y147D02*
X296Y147D01*
X326Y147D02*
X330Y147D01*
X357Y147D02*
X360Y147D01*
X366Y147D02*
X370Y147D01*
X413Y147D02*
X417Y147D01*
X532Y147D02*
X536Y147D01*
X549Y147D02*
X552Y147D01*
X562Y147D02*
X566Y147D01*
X623Y147D02*
X626Y147D01*
X639Y147D02*
X642Y147D01*
X653Y147D02*
X656Y147D01*
X691Y147D02*
X694Y147D01*
X772Y147D02*
X775Y147D01*
X805Y147D02*
X808Y147D01*
X836Y147D02*
X839Y147D01*
X845Y147D02*
X849Y147D01*
X896Y147D02*
X900Y147D01*
X905Y147D02*
X909Y147D01*
X922Y147D02*
X926Y147D01*
X939Y147D02*
X942Y147D01*
X969Y147D02*
X972Y147D01*
X1012Y147D02*
X1015Y147D01*
X1046Y147D02*
X1049Y147D01*
X1076Y147D02*
X1080Y147D01*
X1085Y147D02*
X1089Y147D01*
X1136Y147D02*
X1141Y147D01*
X1163Y147D02*
X1170Y147D01*
X1179Y147D02*
X1182Y147D01*
X1197Y147D02*
X1200Y147D01*
X1205Y147D02*
X1209Y147D01*
X1255Y147D02*
X1259Y147D01*
X1289Y147D02*
X1293Y147D01*
X1320Y147D02*
X1323Y147D01*
X1328Y147D02*
X1332Y147D01*
X1376Y147D02*
X1379Y147D01*
X1393Y147D02*
X1396Y147D01*
X1410Y147D02*
X1413Y147D01*
X1419Y147D02*
X1422Y147D01*
X1440Y147D02*
X1444Y147D01*
X7Y146D02*
X14Y146D01*
X34Y146D02*
X38Y146D01*
X67Y146D02*
X71Y146D01*
X99Y146D02*
X102Y146D01*
X108Y146D02*
X111Y146D01*
X159Y146D02*
X162Y146D01*
X168Y146D02*
X172Y146D01*
X185Y146D02*
X188Y146D01*
X201Y146D02*
X205Y146D01*
X215Y146D02*
X218Y146D01*
X293Y146D02*
X296Y146D01*
X325Y146D02*
X329Y146D01*
X357Y146D02*
X360Y146D01*
X367Y146D02*
X370Y146D01*
X413Y146D02*
X417Y146D01*
X532Y146D02*
X536Y146D01*
X549Y146D02*
X552Y146D01*
X562Y146D02*
X566Y146D01*
X623Y146D02*
X626Y146D01*
X639Y146D02*
X642Y146D01*
X653Y146D02*
X656Y146D01*
X691Y146D02*
X694Y146D01*
X772Y146D02*
X775Y146D01*
X804Y146D02*
X808Y146D01*
X836Y146D02*
X839Y146D01*
X846Y146D02*
X849Y146D01*
X896Y146D02*
X900Y146D01*
X906Y146D02*
X910Y146D01*
X922Y146D02*
X926Y146D01*
X939Y146D02*
X942Y146D01*
X969Y146D02*
X972Y146D01*
X1012Y146D02*
X1015Y146D01*
X1045Y146D02*
X1049Y146D01*
X1076Y146D02*
X1080Y146D01*
X1085Y146D02*
X1089Y146D01*
X1135Y146D02*
X1140Y146D01*
X1163Y146D02*
X1171Y146D01*
X1179Y146D02*
X1182Y146D01*
X1197Y146D02*
X1200Y146D01*
X1206Y146D02*
X1210Y146D01*
X1255Y146D02*
X1259Y146D01*
X1288Y146D02*
X1292Y146D01*
X1320Y146D02*
X1323Y146D01*
X1329Y146D02*
X1333Y146D01*
X1376Y146D02*
X1379Y146D01*
X1393Y146D02*
X1396Y146D01*
X1410Y146D02*
X1413Y146D01*
X1419Y146D02*
X1423Y146D01*
X1440Y146D02*
X1444Y146D01*
X7Y145D02*
X14Y145D01*
X34Y145D02*
X38Y145D01*
X67Y145D02*
X71Y145D01*
X99Y145D02*
X102Y145D01*
X108Y145D02*
X112Y145D01*
X159Y145D02*
X162Y145D01*
X168Y145D02*
X172Y145D01*
X185Y145D02*
X188Y145D01*
X202Y145D02*
X205Y145D01*
X215Y145D02*
X218Y145D01*
X293Y145D02*
X296Y145D01*
X325Y145D02*
X329Y145D01*
X357Y145D02*
X360Y145D01*
X367Y145D02*
X371Y145D01*
X413Y145D02*
X417Y145D01*
X532Y145D02*
X536Y145D01*
X548Y145D02*
X552Y145D01*
X562Y145D02*
X566Y145D01*
X623Y145D02*
X626Y145D01*
X638Y145D02*
X642Y145D01*
X653Y145D02*
X656Y145D01*
X691Y145D02*
X694Y145D01*
X772Y145D02*
X775Y145D01*
X804Y145D02*
X807Y145D01*
X836Y145D02*
X839Y145D01*
X846Y145D02*
X850Y145D01*
X896Y145D02*
X900Y145D01*
X906Y145D02*
X910Y145D01*
X922Y145D02*
X926Y145D01*
X939Y145D02*
X942Y145D01*
X969Y145D02*
X972Y145D01*
X1012Y145D02*
X1015Y145D01*
X1045Y145D02*
X1048Y145D01*
X1076Y145D02*
X1080Y145D01*
X1086Y145D02*
X1090Y145D01*
X1135Y145D02*
X1139Y145D01*
X1163Y145D02*
X1166Y145D01*
X1168Y145D02*
X1171Y145D01*
X1179Y145D02*
X1182Y145D01*
X1197Y145D02*
X1200Y145D01*
X1206Y145D02*
X1210Y145D01*
X1255Y145D02*
X1259Y145D01*
X1288Y145D02*
X1292Y145D01*
X1320Y145D02*
X1323Y145D01*
X1329Y145D02*
X1333Y145D01*
X1376Y145D02*
X1379Y145D01*
X1392Y145D02*
X1396Y145D01*
X1410Y145D02*
X1413Y145D01*
X1420Y145D02*
X1423Y145D01*
X1440Y145D02*
X1444Y145D01*
X7Y144D02*
X14Y144D01*
X34Y144D02*
X38Y144D01*
X66Y144D02*
X70Y144D01*
X99Y144D02*
X102Y144D01*
X109Y144D02*
X112Y144D01*
X159Y144D02*
X162Y144D01*
X169Y144D02*
X173Y144D01*
X185Y144D02*
X188Y144D01*
X202Y144D02*
X205Y144D01*
X215Y144D02*
X218Y144D01*
X293Y144D02*
X296Y144D01*
X324Y144D02*
X328Y144D01*
X357Y144D02*
X360Y144D01*
X368Y144D02*
X371Y144D01*
X413Y144D02*
X417Y144D01*
X532Y144D02*
X551Y144D01*
X562Y144D02*
X566Y144D01*
X623Y144D02*
X642Y144D01*
X653Y144D02*
X656Y144D01*
X691Y144D02*
X694Y144D01*
X772Y144D02*
X775Y144D01*
X803Y144D02*
X807Y144D01*
X836Y144D02*
X839Y144D01*
X847Y144D02*
X850Y144D01*
X896Y144D02*
X900Y144D01*
X907Y144D02*
X911Y144D01*
X922Y144D02*
X926Y144D01*
X939Y144D02*
X942Y144D01*
X969Y144D02*
X972Y144D01*
X1012Y144D02*
X1015Y144D01*
X1044Y144D02*
X1048Y144D01*
X1076Y144D02*
X1080Y144D01*
X1086Y144D02*
X1090Y144D01*
X1134Y144D02*
X1138Y144D01*
X1163Y144D02*
X1166Y144D01*
X1168Y144D02*
X1172Y144D01*
X1179Y144D02*
X1182Y144D01*
X1197Y144D02*
X1200Y144D01*
X1207Y144D02*
X1211Y144D01*
X1255Y144D02*
X1259Y144D01*
X1287Y144D02*
X1291Y144D01*
X1320Y144D02*
X1323Y144D01*
X1330Y144D02*
X1334Y144D01*
X1376Y144D02*
X1380Y144D01*
X1392Y144D02*
X1395Y144D01*
X1410Y144D02*
X1413Y144D01*
X1420Y144D02*
X1424Y144D01*
X1440Y144D02*
X1444Y144D01*
X7Y143D02*
X14Y143D01*
X34Y143D02*
X38Y143D01*
X66Y143D02*
X70Y143D01*
X99Y143D02*
X102Y143D01*
X109Y143D02*
X113Y143D01*
X159Y143D02*
X162Y143D01*
X169Y143D02*
X173Y143D01*
X185Y143D02*
X188Y143D01*
X201Y143D02*
X205Y143D01*
X215Y143D02*
X218Y143D01*
X293Y143D02*
X296Y143D01*
X324Y143D02*
X328Y143D01*
X357Y143D02*
X360Y143D01*
X368Y143D02*
X372Y143D01*
X413Y143D02*
X417Y143D01*
X532Y143D02*
X551Y143D01*
X562Y143D02*
X566Y143D01*
X623Y143D02*
X641Y143D01*
X653Y143D02*
X656Y143D01*
X691Y143D02*
X694Y143D01*
X772Y143D02*
X775Y143D01*
X803Y143D02*
X806Y143D01*
X836Y143D02*
X839Y143D01*
X847Y143D02*
X851Y143D01*
X896Y143D02*
X900Y143D01*
X907Y143D02*
X911Y143D01*
X922Y143D02*
X926Y143D01*
X938Y143D02*
X942Y143D01*
X969Y143D02*
X972Y143D01*
X1012Y143D02*
X1015Y143D01*
X1044Y143D02*
X1047Y143D01*
X1076Y143D02*
X1080Y143D01*
X1087Y143D02*
X1091Y143D01*
X1133Y143D02*
X1137Y143D01*
X1163Y143D02*
X1166Y143D01*
X1169Y143D02*
X1172Y143D01*
X1179Y143D02*
X1182Y143D01*
X1197Y143D02*
X1200Y143D01*
X1207Y143D02*
X1211Y143D01*
X1255Y143D02*
X1259Y143D01*
X1287Y143D02*
X1291Y143D01*
X1320Y143D02*
X1323Y143D01*
X1330Y143D02*
X1334Y143D01*
X1377Y143D02*
X1380Y143D01*
X1392Y143D02*
X1395Y143D01*
X1410Y143D02*
X1413Y143D01*
X1421Y143D02*
X1424Y143D01*
X1440Y143D02*
X1444Y143D01*
X7Y142D02*
X14Y142D01*
X34Y142D02*
X38Y142D01*
X65Y142D02*
X69Y142D01*
X99Y142D02*
X102Y142D01*
X110Y142D02*
X113Y142D01*
X159Y142D02*
X162Y142D01*
X170Y142D02*
X174Y142D01*
X185Y142D02*
X188Y142D01*
X201Y142D02*
X204Y142D01*
X215Y142D02*
X218Y142D01*
X293Y142D02*
X296Y142D01*
X323Y142D02*
X327Y142D01*
X357Y142D02*
X360Y142D01*
X369Y142D02*
X372Y142D01*
X413Y142D02*
X417Y142D01*
X532Y142D02*
X550Y142D01*
X562Y142D02*
X566Y142D01*
X623Y142D02*
X640Y142D01*
X653Y142D02*
X656Y142D01*
X691Y142D02*
X694Y142D01*
X772Y142D02*
X775Y142D01*
X802Y142D02*
X806Y142D01*
X836Y142D02*
X839Y142D01*
X848Y142D02*
X851Y142D01*
X896Y142D02*
X900Y142D01*
X908Y142D02*
X911Y142D01*
X922Y142D02*
X926Y142D01*
X937Y142D02*
X941Y142D01*
X967Y142D02*
X972Y142D01*
X1012Y142D02*
X1015Y142D01*
X1043Y142D02*
X1047Y142D01*
X1076Y142D02*
X1080Y142D01*
X1087Y142D02*
X1091Y142D01*
X1133Y142D02*
X1137Y142D01*
X1163Y142D02*
X1166Y142D01*
X1169Y142D02*
X1173Y142D01*
X1179Y142D02*
X1182Y142D01*
X1197Y142D02*
X1200Y142D01*
X1208Y142D02*
X1212Y142D01*
X1255Y142D02*
X1259Y142D01*
X1286Y142D02*
X1290Y142D01*
X1320Y142D02*
X1323Y142D01*
X1331Y142D02*
X1335Y142D01*
X1377Y142D02*
X1381Y142D01*
X1391Y142D02*
X1395Y142D01*
X1410Y142D02*
X1413Y142D01*
X1421Y142D02*
X1425Y142D01*
X1440Y142D02*
X1444Y142D01*
X7Y141D02*
X14Y141D01*
X34Y141D02*
X38Y141D01*
X65Y141D02*
X69Y141D01*
X99Y141D02*
X102Y141D01*
X110Y141D02*
X114Y141D01*
X159Y141D02*
X162Y141D01*
X170Y141D02*
X174Y141D01*
X185Y141D02*
X188Y141D01*
X200Y141D02*
X204Y141D01*
X215Y141D02*
X218Y141D01*
X293Y141D02*
X296Y141D01*
X323Y141D02*
X327Y141D01*
X357Y141D02*
X360Y141D01*
X369Y141D02*
X373Y141D01*
X413Y141D02*
X423Y141D01*
X532Y141D02*
X548Y141D01*
X562Y141D02*
X566Y141D01*
X623Y141D02*
X639Y141D01*
X653Y141D02*
X656Y141D01*
X691Y141D02*
X694Y141D01*
X772Y141D02*
X775Y141D01*
X802Y141D02*
X805Y141D01*
X836Y141D02*
X839Y141D01*
X848Y141D02*
X851Y141D01*
X896Y141D02*
X900Y141D01*
X908Y141D02*
X912Y141D01*
X922Y141D02*
X941Y141D01*
X966Y141D02*
X972Y141D01*
X1012Y141D02*
X1015Y141D01*
X1043Y141D02*
X1046Y141D01*
X1076Y141D02*
X1080Y141D01*
X1088Y141D02*
X1092Y141D01*
X1133Y141D02*
X1136Y141D01*
X1163Y141D02*
X1166Y141D01*
X1169Y141D02*
X1173Y141D01*
X1179Y141D02*
X1182Y141D01*
X1197Y141D02*
X1200Y141D01*
X1208Y141D02*
X1212Y141D01*
X1255Y141D02*
X1259Y141D01*
X1286Y141D02*
X1290Y141D01*
X1320Y141D02*
X1323Y141D01*
X1331Y141D02*
X1335Y141D01*
X1377Y141D02*
X1381Y141D01*
X1391Y141D02*
X1394Y141D01*
X1410Y141D02*
X1413Y141D01*
X1422Y141D02*
X1425Y141D01*
X1440Y141D02*
X1444Y141D01*
X7Y140D02*
X14Y140D01*
X34Y140D02*
X38Y140D01*
X65Y140D02*
X68Y140D01*
X99Y140D02*
X102Y140D01*
X111Y140D02*
X114Y140D01*
X159Y140D02*
X162Y140D01*
X171Y140D02*
X174Y140D01*
X185Y140D02*
X188Y140D01*
X198Y140D02*
X204Y140D01*
X215Y140D02*
X218Y140D01*
X293Y140D02*
X296Y140D01*
X323Y140D02*
X326Y140D01*
X357Y140D02*
X360Y140D01*
X370Y140D02*
X373Y140D01*
X413Y140D02*
X425Y140D01*
X532Y140D02*
X536Y140D01*
X540Y140D02*
X544Y140D01*
X562Y140D02*
X566Y140D01*
X623Y140D02*
X626Y140D01*
X630Y140D02*
X634Y140D01*
X653Y140D02*
X656Y140D01*
X691Y140D02*
X694Y140D01*
X772Y140D02*
X775Y140D01*
X802Y140D02*
X805Y140D01*
X836Y140D02*
X839Y140D01*
X848Y140D02*
X852Y140D01*
X896Y140D02*
X900Y140D01*
X909Y140D02*
X912Y140D01*
X922Y140D02*
X940Y140D01*
X965Y140D02*
X970Y140D01*
X1012Y140D02*
X1015Y140D01*
X1042Y140D02*
X1046Y140D01*
X1076Y140D02*
X1080Y140D01*
X1088Y140D02*
X1092Y140D01*
X1133Y140D02*
X1136Y140D01*
X1163Y140D02*
X1166Y140D01*
X1170Y140D02*
X1173Y140D01*
X1179Y140D02*
X1182Y140D01*
X1197Y140D02*
X1200Y140D01*
X1209Y140D02*
X1212Y140D01*
X1255Y140D02*
X1259Y140D01*
X1286Y140D02*
X1289Y140D01*
X1320Y140D02*
X1323Y140D01*
X1332Y140D02*
X1335Y140D01*
X1378Y140D02*
X1381Y140D01*
X1390Y140D02*
X1394Y140D01*
X1410Y140D02*
X1413Y140D01*
X1422Y140D02*
X1426Y140D01*
X1440Y140D02*
X1444Y140D01*
X7Y139D02*
X14Y139D01*
X34Y139D02*
X38Y139D01*
X65Y139D02*
X68Y139D01*
X99Y139D02*
X102Y139D01*
X111Y139D02*
X114Y139D01*
X159Y139D02*
X162Y139D01*
X171Y139D02*
X175Y139D01*
X185Y139D02*
X203Y139D01*
X215Y139D02*
X218Y139D01*
X293Y139D02*
X296Y139D01*
X323Y139D02*
X326Y139D01*
X357Y139D02*
X360Y139D01*
X370Y139D02*
X373Y139D01*
X413Y139D02*
X425Y139D01*
X532Y139D02*
X536Y139D01*
X540Y139D02*
X544Y139D01*
X562Y139D02*
X566Y139D01*
X623Y139D02*
X626Y139D01*
X631Y139D02*
X635Y139D01*
X653Y139D02*
X656Y139D01*
X691Y139D02*
X694Y139D01*
X772Y139D02*
X775Y139D01*
X802Y139D02*
X805Y139D01*
X836Y139D02*
X839Y139D01*
X848Y139D02*
X852Y139D01*
X896Y139D02*
X900Y139D01*
X909Y139D02*
X912Y139D01*
X922Y139D02*
X939Y139D01*
X964Y139D02*
X969Y139D01*
X1012Y139D02*
X1015Y139D01*
X1042Y139D02*
X1045Y139D01*
X1076Y139D02*
X1080Y139D01*
X1089Y139D02*
X1092Y139D01*
X1133Y139D02*
X1136Y139D01*
X1163Y139D02*
X1166Y139D01*
X1170Y139D02*
X1174Y139D01*
X1179Y139D02*
X1182Y139D01*
X1197Y139D02*
X1200Y139D01*
X1209Y139D02*
X1212Y139D01*
X1255Y139D02*
X1259Y139D01*
X1286Y139D02*
X1289Y139D01*
X1320Y139D02*
X1323Y139D01*
X1332Y139D02*
X1335Y139D01*
X1378Y139D02*
X1382Y139D01*
X1390Y139D02*
X1394Y139D01*
X1410Y139D02*
X1413Y139D01*
X1423Y139D02*
X1426Y139D01*
X1440Y139D02*
X1444Y139D01*
X7Y138D02*
X14Y138D01*
X34Y138D02*
X38Y138D01*
X64Y138D02*
X68Y138D01*
X99Y138D02*
X102Y138D01*
X111Y138D02*
X114Y138D01*
X159Y138D02*
X162Y138D01*
X171Y138D02*
X175Y138D01*
X185Y138D02*
X202Y138D01*
X215Y138D02*
X218Y138D01*
X293Y138D02*
X296Y138D01*
X323Y138D02*
X326Y138D01*
X357Y138D02*
X360Y138D01*
X370Y138D02*
X373Y138D01*
X413Y138D02*
X425Y138D01*
X532Y138D02*
X536Y138D01*
X541Y138D02*
X545Y138D01*
X562Y138D02*
X566Y138D01*
X623Y138D02*
X626Y138D01*
X631Y138D02*
X635Y138D01*
X653Y138D02*
X656Y138D01*
X691Y138D02*
X694Y138D01*
X772Y138D02*
X775Y138D01*
X802Y138D02*
X805Y138D01*
X836Y138D02*
X839Y138D01*
X848Y138D02*
X852Y138D01*
X896Y138D02*
X900Y138D01*
X909Y138D02*
X912Y138D01*
X922Y138D02*
X940Y138D01*
X963Y138D02*
X968Y138D01*
X1012Y138D02*
X1015Y138D01*
X1042Y138D02*
X1045Y138D01*
X1076Y138D02*
X1080Y138D01*
X1089Y138D02*
X1092Y138D01*
X1133Y138D02*
X1136Y138D01*
X1163Y138D02*
X1166Y138D01*
X1171Y138D02*
X1174Y138D01*
X1179Y138D02*
X1182Y138D01*
X1197Y138D02*
X1200Y138D01*
X1209Y138D02*
X1213Y138D01*
X1255Y138D02*
X1259Y138D01*
X1286Y138D02*
X1289Y138D01*
X1320Y138D02*
X1323Y138D01*
X1332Y138D02*
X1335Y138D01*
X1379Y138D02*
X1382Y138D01*
X1390Y138D02*
X1393Y138D01*
X1410Y138D02*
X1413Y138D01*
X1423Y138D02*
X1426Y138D01*
X1440Y138D02*
X1444Y138D01*
X7Y137D02*
X14Y137D01*
X34Y137D02*
X38Y137D01*
X65Y137D02*
X68Y137D01*
X99Y137D02*
X102Y137D01*
X111Y137D02*
X114Y137D01*
X159Y137D02*
X162Y137D01*
X171Y137D02*
X175Y137D01*
X185Y137D02*
X203Y137D01*
X215Y137D02*
X218Y137D01*
X293Y137D02*
X296Y137D01*
X323Y137D02*
X327Y137D01*
X357Y137D02*
X360Y137D01*
X369Y137D02*
X373Y137D01*
X413Y137D02*
X423Y137D01*
X532Y137D02*
X536Y137D01*
X541Y137D02*
X545Y137D01*
X562Y137D02*
X566Y137D01*
X623Y137D02*
X626Y137D01*
X632Y137D02*
X636Y137D01*
X653Y137D02*
X656Y137D01*
X691Y137D02*
X694Y137D01*
X700Y137D02*
X702Y137D01*
X772Y137D02*
X775Y137D01*
X802Y137D02*
X805Y137D01*
X836Y137D02*
X839Y137D01*
X848Y137D02*
X852Y137D01*
X896Y137D02*
X900Y137D01*
X908Y137D02*
X912Y137D01*
X922Y137D02*
X941Y137D01*
X961Y137D02*
X967Y137D01*
X1012Y137D02*
X1015Y137D01*
X1042Y137D02*
X1045Y137D01*
X1076Y137D02*
X1080Y137D01*
X1089Y137D02*
X1092Y137D01*
X1133Y137D02*
X1136Y137D01*
X1163Y137D02*
X1166Y137D01*
X1171Y137D02*
X1175Y137D01*
X1179Y137D02*
X1182Y137D01*
X1197Y137D02*
X1200Y137D01*
X1209Y137D02*
X1212Y137D01*
X1255Y137D02*
X1259Y137D01*
X1286Y137D02*
X1289Y137D01*
X1320Y137D02*
X1323Y137D01*
X1332Y137D02*
X1335Y137D01*
X1379Y137D02*
X1383Y137D01*
X1389Y137D02*
X1393Y137D01*
X1410Y137D02*
X1413Y137D01*
X1422Y137D02*
X1426Y137D01*
X1440Y137D02*
X1444Y137D01*
X7Y136D02*
X14Y136D01*
X34Y136D02*
X38Y136D01*
X65Y136D02*
X68Y136D01*
X99Y136D02*
X102Y136D01*
X111Y136D02*
X114Y136D01*
X159Y136D02*
X162Y136D01*
X171Y136D02*
X174Y136D01*
X185Y136D02*
X203Y136D01*
X215Y136D02*
X234Y136D01*
X293Y136D02*
X296Y136D01*
X323Y136D02*
X327Y136D01*
X357Y136D02*
X360Y136D01*
X369Y136D02*
X372Y136D01*
X413Y136D02*
X417Y136D01*
X532Y136D02*
X536Y136D01*
X542Y136D02*
X546Y136D01*
X562Y136D02*
X566Y136D01*
X623Y136D02*
X626Y136D01*
X632Y136D02*
X636Y136D01*
X653Y136D02*
X656Y136D01*
X691Y136D02*
X694Y136D01*
X700Y136D02*
X703Y136D01*
X772Y136D02*
X775Y136D01*
X802Y136D02*
X806Y136D01*
X836Y136D02*
X839Y136D01*
X848Y136D02*
X851Y136D01*
X896Y136D02*
X900Y136D01*
X908Y136D02*
X911Y136D01*
X922Y136D02*
X926Y136D01*
X937Y136D02*
X941Y136D01*
X961Y136D02*
X966Y136D01*
X1012Y136D02*
X1015Y136D01*
X1042Y136D02*
X1046Y136D01*
X1076Y136D02*
X1080Y136D01*
X1088Y136D02*
X1092Y136D01*
X1133Y136D02*
X1136Y136D01*
X1144Y136D02*
X1152Y136D01*
X1163Y136D02*
X1166Y136D01*
X1172Y136D02*
X1175Y136D01*
X1179Y136D02*
X1182Y136D01*
X1197Y136D02*
X1200Y136D01*
X1209Y136D02*
X1212Y136D01*
X1255Y136D02*
X1259Y136D01*
X1286Y136D02*
X1289Y136D01*
X1320Y136D02*
X1323Y136D01*
X1332Y136D02*
X1335Y136D01*
X1379Y136D02*
X1383Y136D01*
X1389Y136D02*
X1392Y136D01*
X1410Y136D02*
X1413Y136D01*
X1422Y136D02*
X1426Y136D01*
X1440Y136D02*
X1444Y136D01*
X7Y135D02*
X14Y135D01*
X34Y135D02*
X38Y135D01*
X65Y135D02*
X68Y135D01*
X99Y135D02*
X102Y135D01*
X110Y135D02*
X114Y135D01*
X159Y135D02*
X162Y135D01*
X171Y135D02*
X174Y135D01*
X185Y135D02*
X188Y135D01*
X200Y135D02*
X204Y135D01*
X215Y135D02*
X235Y135D01*
X293Y135D02*
X296Y135D01*
X324Y135D02*
X328Y135D01*
X357Y135D02*
X360Y135D01*
X368Y135D02*
X372Y135D01*
X413Y135D02*
X417Y135D01*
X532Y135D02*
X536Y135D01*
X543Y135D02*
X547Y135D01*
X562Y135D02*
X566Y135D01*
X623Y135D02*
X626Y135D01*
X633Y135D02*
X637Y135D01*
X653Y135D02*
X656Y135D01*
X691Y135D02*
X694Y135D01*
X699Y135D02*
X703Y135D01*
X772Y135D02*
X775Y135D01*
X803Y135D02*
X806Y135D01*
X836Y135D02*
X839Y135D01*
X847Y135D02*
X851Y135D01*
X896Y135D02*
X900Y135D01*
X907Y135D02*
X911Y135D01*
X922Y135D02*
X926Y135D01*
X938Y135D02*
X942Y135D01*
X961Y135D02*
X965Y135D01*
X1012Y135D02*
X1015Y135D01*
X1043Y135D02*
X1046Y135D01*
X1076Y135D02*
X1080Y135D01*
X1088Y135D02*
X1092Y135D01*
X1133Y135D02*
X1136Y135D01*
X1143Y135D02*
X1152Y135D01*
X1163Y135D02*
X1166Y135D01*
X1172Y135D02*
X1176Y135D01*
X1179Y135D02*
X1182Y135D01*
X1197Y135D02*
X1200Y135D01*
X1208Y135D02*
X1212Y135D01*
X1255Y135D02*
X1259Y135D01*
X1286Y135D02*
X1290Y135D01*
X1320Y135D02*
X1323Y135D01*
X1331Y135D02*
X1335Y135D01*
X1380Y135D02*
X1383Y135D01*
X1388Y135D02*
X1392Y135D01*
X1410Y135D02*
X1413Y135D01*
X1422Y135D02*
X1425Y135D01*
X1440Y135D02*
X1444Y135D01*
X7Y134D02*
X14Y134D01*
X34Y134D02*
X38Y134D01*
X65Y134D02*
X69Y134D01*
X99Y134D02*
X102Y134D01*
X110Y134D02*
X114Y134D01*
X159Y134D02*
X162Y134D01*
X170Y134D02*
X174Y134D01*
X185Y134D02*
X188Y134D01*
X201Y134D02*
X204Y134D01*
X215Y134D02*
X235Y134D01*
X293Y134D02*
X296Y134D01*
X324Y134D02*
X328Y134D01*
X357Y134D02*
X360Y134D01*
X368Y134D02*
X371Y134D01*
X413Y134D02*
X417Y134D01*
X532Y134D02*
X536Y134D01*
X543Y134D02*
X547Y134D01*
X562Y134D02*
X566Y134D01*
X623Y134D02*
X626Y134D01*
X634Y134D02*
X637Y134D01*
X653Y134D02*
X656Y134D01*
X691Y134D02*
X694Y134D01*
X699Y134D02*
X703Y134D01*
X772Y134D02*
X775Y134D01*
X803Y134D02*
X807Y134D01*
X836Y134D02*
X839Y134D01*
X847Y134D02*
X850Y134D01*
X896Y134D02*
X900Y134D01*
X907Y134D02*
X911Y134D01*
X922Y134D02*
X926Y134D01*
X939Y134D02*
X942Y134D01*
X961Y134D02*
X964Y134D01*
X1012Y134D02*
X1015Y134D01*
X1043Y134D02*
X1047Y134D01*
X1076Y134D02*
X1080Y134D01*
X1087Y134D02*
X1091Y134D01*
X1133Y134D02*
X1136Y134D01*
X1143Y134D02*
X1152Y134D01*
X1163Y134D02*
X1166Y134D01*
X1172Y134D02*
X1176Y134D01*
X1179Y134D02*
X1182Y134D01*
X1197Y134D02*
X1200Y134D01*
X1208Y134D02*
X1212Y134D01*
X1255Y134D02*
X1259Y134D01*
X1287Y134D02*
X1290Y134D01*
X1320Y134D02*
X1323Y134D01*
X1331Y134D02*
X1335Y134D01*
X1380Y134D02*
X1384Y134D01*
X1388Y134D02*
X1392Y134D01*
X1410Y134D02*
X1413Y134D01*
X1421Y134D02*
X1425Y134D01*
X1440Y134D02*
X1444Y134D01*
X7Y133D02*
X14Y133D01*
X34Y133D02*
X38Y133D01*
X66Y133D02*
X69Y133D01*
X99Y133D02*
X102Y133D01*
X109Y133D02*
X113Y133D01*
X159Y133D02*
X162Y133D01*
X170Y133D02*
X173Y133D01*
X185Y133D02*
X188Y133D01*
X201Y133D02*
X205Y133D01*
X215Y133D02*
X235Y133D01*
X293Y133D02*
X296Y133D01*
X325Y133D02*
X329Y133D01*
X357Y133D02*
X360Y133D01*
X367Y133D02*
X371Y133D01*
X413Y133D02*
X417Y133D01*
X532Y133D02*
X536Y133D01*
X544Y133D02*
X548Y133D01*
X562Y133D02*
X566Y133D01*
X623Y133D02*
X626Y133D01*
X634Y133D02*
X638Y133D01*
X653Y133D02*
X656Y133D01*
X691Y133D02*
X694Y133D01*
X699Y133D02*
X703Y133D01*
X772Y133D02*
X775Y133D01*
X804Y133D02*
X807Y133D01*
X836Y133D02*
X839Y133D01*
X846Y133D02*
X850Y133D01*
X896Y133D02*
X900Y133D01*
X906Y133D02*
X910Y133D01*
X922Y133D02*
X926Y133D01*
X939Y133D02*
X942Y133D01*
X961Y133D02*
X964Y133D01*
X1012Y133D02*
X1015Y133D01*
X1043Y133D02*
X1047Y133D01*
X1076Y133D02*
X1080Y133D01*
X1087Y133D02*
X1091Y133D01*
X1133Y133D02*
X1136Y133D01*
X1143Y133D02*
X1152Y133D01*
X1163Y133D02*
X1166Y133D01*
X1173Y133D02*
X1177Y133D01*
X1179Y133D02*
X1182Y133D01*
X1197Y133D02*
X1200Y133D01*
X1207Y133D02*
X1211Y133D01*
X1255Y133D02*
X1259Y133D01*
X1287Y133D02*
X1291Y133D01*
X1320Y133D02*
X1323Y133D01*
X1330Y133D02*
X1334Y133D01*
X1381Y133D02*
X1384Y133D01*
X1388Y133D02*
X1391Y133D01*
X1410Y133D02*
X1413Y133D01*
X1421Y133D02*
X1424Y133D01*
X1440Y133D02*
X1444Y133D01*
X7Y132D02*
X14Y132D01*
X34Y132D02*
X38Y132D01*
X66Y132D02*
X70Y132D01*
X99Y132D02*
X102Y132D01*
X109Y132D02*
X113Y132D01*
X159Y132D02*
X162Y132D01*
X169Y132D02*
X173Y132D01*
X185Y132D02*
X188Y132D01*
X201Y132D02*
X205Y132D01*
X215Y132D02*
X219Y132D01*
X231Y132D02*
X235Y132D01*
X293Y132D02*
X296Y132D01*
X325Y132D02*
X329Y132D01*
X357Y132D02*
X360Y132D01*
X367Y132D02*
X370Y132D01*
X413Y132D02*
X417Y132D01*
X532Y132D02*
X536Y132D01*
X544Y132D02*
X548Y132D01*
X562Y132D02*
X566Y132D01*
X623Y132D02*
X626Y132D01*
X635Y132D02*
X639Y132D01*
X653Y132D02*
X656Y132D01*
X691Y132D02*
X694Y132D01*
X699Y132D02*
X703Y132D01*
X772Y132D02*
X775Y132D01*
X804Y132D02*
X808Y132D01*
X836Y132D02*
X839Y132D01*
X846Y132D02*
X849Y132D01*
X896Y132D02*
X900Y132D01*
X906Y132D02*
X910Y132D01*
X922Y132D02*
X926Y132D01*
X939Y132D02*
X942Y132D01*
X961Y132D02*
X964Y132D01*
X1012Y132D02*
X1015Y132D01*
X1044Y132D02*
X1048Y132D01*
X1076Y132D02*
X1080Y132D01*
X1086Y132D02*
X1090Y132D01*
X1133Y132D02*
X1136Y132D01*
X1149Y132D02*
X1152Y132D01*
X1163Y132D02*
X1166Y132D01*
X1173Y132D02*
X1177Y132D01*
X1179Y132D02*
X1182Y132D01*
X1197Y132D02*
X1200Y132D01*
X1207Y132D02*
X1211Y132D01*
X1255Y132D02*
X1259Y132D01*
X1287Y132D02*
X1291Y132D01*
X1320Y132D02*
X1323Y132D01*
X1330Y132D02*
X1334Y132D01*
X1381Y132D02*
X1384Y132D01*
X1387Y132D02*
X1391Y132D01*
X1410Y132D02*
X1413Y132D01*
X1420Y132D02*
X1424Y132D01*
X1440Y132D02*
X1444Y132D01*
X7Y131D02*
X14Y131D01*
X34Y131D02*
X38Y131D01*
X67Y131D02*
X70Y131D01*
X99Y131D02*
X102Y131D01*
X108Y131D02*
X112Y131D01*
X159Y131D02*
X162Y131D01*
X169Y131D02*
X172Y131D01*
X185Y131D02*
X188Y131D01*
X202Y131D02*
X205Y131D01*
X215Y131D02*
X218Y131D01*
X232Y131D02*
X235Y131D01*
X293Y131D02*
X296Y131D01*
X326Y131D02*
X330Y131D01*
X357Y131D02*
X360Y131D01*
X366Y131D02*
X370Y131D01*
X413Y131D02*
X417Y131D01*
X532Y131D02*
X536Y131D01*
X545Y131D02*
X549Y131D01*
X562Y131D02*
X566Y131D01*
X623Y131D02*
X626Y131D01*
X635Y131D02*
X639Y131D01*
X653Y131D02*
X656Y131D01*
X691Y131D02*
X694Y131D01*
X699Y131D02*
X703Y131D01*
X772Y131D02*
X775Y131D01*
X805Y131D02*
X808Y131D01*
X836Y131D02*
X839Y131D01*
X845Y131D02*
X849Y131D01*
X896Y131D02*
X900Y131D01*
X905Y131D02*
X909Y131D01*
X922Y131D02*
X926Y131D01*
X939Y131D02*
X942Y131D01*
X961Y131D02*
X964Y131D01*
X1012Y131D02*
X1015Y131D01*
X1044Y131D02*
X1048Y131D01*
X1076Y131D02*
X1080Y131D01*
X1086Y131D02*
X1090Y131D01*
X1133Y131D02*
X1136Y131D01*
X1149Y131D02*
X1152Y131D01*
X1163Y131D02*
X1166Y131D01*
X1174Y131D02*
X1177Y131D01*
X1179Y131D02*
X1182Y131D01*
X1197Y131D02*
X1200Y131D01*
X1206Y131D02*
X1210Y131D01*
X1255Y131D02*
X1259Y131D01*
X1288Y131D02*
X1292Y131D01*
X1320Y131D02*
X1323Y131D01*
X1329Y131D02*
X1333Y131D01*
X1381Y131D02*
X1385Y131D01*
X1387Y131D02*
X1390Y131D01*
X1410Y131D02*
X1413Y131D01*
X1420Y131D02*
X1423Y131D01*
X1440Y131D02*
X1444Y131D01*
X7Y130D02*
X14Y130D01*
X34Y130D02*
X38Y130D01*
X67Y130D02*
X71Y130D01*
X99Y130D02*
X102Y130D01*
X108Y130D02*
X112Y130D01*
X159Y130D02*
X162Y130D01*
X168Y130D02*
X172Y130D01*
X185Y130D02*
X188Y130D01*
X202Y130D02*
X205Y130D01*
X215Y130D02*
X218Y130D01*
X232Y130D02*
X235Y130D01*
X293Y130D02*
X296Y130D01*
X326Y130D02*
X330Y130D01*
X357Y130D02*
X360Y130D01*
X366Y130D02*
X369Y130D01*
X413Y130D02*
X417Y130D01*
X532Y130D02*
X536Y130D01*
X546Y130D02*
X549Y130D01*
X562Y130D02*
X566Y130D01*
X623Y130D02*
X626Y130D01*
X636Y130D02*
X640Y130D01*
X653Y130D02*
X656Y130D01*
X691Y130D02*
X694Y130D01*
X699Y130D02*
X703Y130D01*
X772Y130D02*
X775Y130D01*
X805Y130D02*
X809Y130D01*
X836Y130D02*
X839Y130D01*
X845Y130D02*
X848Y130D01*
X896Y130D02*
X900Y130D01*
X905Y130D02*
X909Y130D01*
X922Y130D02*
X926Y130D01*
X939Y130D02*
X942Y130D01*
X961Y130D02*
X964Y130D01*
X1012Y130D02*
X1015Y130D01*
X1045Y130D02*
X1049Y130D01*
X1076Y130D02*
X1080Y130D01*
X1085Y130D02*
X1089Y130D01*
X1133Y130D02*
X1136Y130D01*
X1149Y130D02*
X1152Y130D01*
X1163Y130D02*
X1166Y130D01*
X1174Y130D02*
X1182Y130D01*
X1197Y130D02*
X1200Y130D01*
X1206Y130D02*
X1210Y130D01*
X1255Y130D02*
X1259Y130D01*
X1288Y130D02*
X1292Y130D01*
X1320Y130D02*
X1323Y130D01*
X1329Y130D02*
X1333Y130D01*
X1382Y130D02*
X1390Y130D01*
X1410Y130D02*
X1413Y130D01*
X1419Y130D02*
X1423Y130D01*
X1440Y130D02*
X1444Y130D01*
X7Y129D02*
X14Y129D01*
X34Y129D02*
X38Y129D01*
X68Y129D02*
X71Y129D01*
X99Y129D02*
X102Y129D01*
X107Y129D02*
X111Y129D01*
X159Y129D02*
X162Y129D01*
X168Y129D02*
X171Y129D01*
X185Y129D02*
X188Y129D01*
X201Y129D02*
X205Y129D01*
X215Y129D02*
X218Y129D01*
X232Y129D02*
X235Y129D01*
X293Y129D02*
X296Y129D01*
X327Y129D02*
X331Y129D01*
X357Y129D02*
X360Y129D01*
X365Y129D02*
X369Y129D01*
X413Y129D02*
X417Y129D01*
X532Y129D02*
X536Y129D01*
X546Y129D02*
X550Y129D01*
X562Y129D02*
X566Y129D01*
X623Y129D02*
X626Y129D01*
X636Y129D02*
X640Y129D01*
X653Y129D02*
X656Y129D01*
X691Y129D02*
X694Y129D01*
X699Y129D02*
X703Y129D01*
X772Y129D02*
X775Y129D01*
X806Y129D02*
X809Y129D01*
X836Y129D02*
X839Y129D01*
X844Y129D02*
X848Y129D01*
X896Y129D02*
X900Y129D01*
X904Y129D02*
X908Y129D01*
X922Y129D02*
X926Y129D01*
X938Y129D02*
X942Y129D01*
X961Y129D02*
X964Y129D01*
X1012Y129D02*
X1015Y129D01*
X1045Y129D02*
X1049Y129D01*
X1076Y129D02*
X1080Y129D01*
X1085Y129D02*
X1089Y129D01*
X1133Y129D02*
X1136Y129D01*
X1149Y129D02*
X1152Y129D01*
X1163Y129D02*
X1166Y129D01*
X1175Y129D02*
X1182Y129D01*
X1197Y129D02*
X1200Y129D01*
X1205Y129D02*
X1209Y129D01*
X1255Y129D02*
X1259Y129D01*
X1289Y129D02*
X1293Y129D01*
X1320Y129D02*
X1323Y129D01*
X1328Y129D02*
X1332Y129D01*
X1382Y129D02*
X1390Y129D01*
X1410Y129D02*
X1413Y129D01*
X1419Y129D02*
X1422Y129D01*
X1440Y129D02*
X1444Y129D01*
X7Y128D02*
X14Y128D01*
X34Y128D02*
X38Y128D01*
X68Y128D02*
X72Y128D01*
X99Y128D02*
X102Y128D01*
X107Y128D02*
X111Y128D01*
X159Y128D02*
X162Y128D01*
X167Y128D02*
X171Y128D01*
X185Y128D02*
X188Y128D01*
X201Y128D02*
X204Y128D01*
X215Y128D02*
X218Y128D01*
X232Y128D02*
X235Y128D01*
X293Y128D02*
X296Y128D01*
X327Y128D02*
X331Y128D01*
X357Y128D02*
X360Y128D01*
X365Y128D02*
X369Y128D01*
X413Y128D02*
X417Y128D01*
X532Y128D02*
X536Y128D01*
X547Y128D02*
X551Y128D01*
X562Y128D02*
X566Y128D01*
X623Y128D02*
X626Y128D01*
X637Y128D02*
X641Y128D01*
X653Y128D02*
X656Y128D01*
X691Y128D02*
X694Y128D01*
X699Y128D02*
X703Y128D01*
X772Y128D02*
X775Y128D01*
X806Y128D02*
X810Y128D01*
X836Y128D02*
X839Y128D01*
X844Y128D02*
X847Y128D01*
X896Y128D02*
X900Y128D01*
X904Y128D02*
X908Y128D01*
X922Y128D02*
X926Y128D01*
X937Y128D02*
X942Y128D01*
X961Y128D02*
X964Y128D01*
X1012Y128D02*
X1015Y128D01*
X1046Y128D02*
X1050Y128D01*
X1076Y128D02*
X1080Y128D01*
X1084Y128D02*
X1088Y128D01*
X1133Y128D02*
X1136Y128D01*
X1149Y128D02*
X1152Y128D01*
X1163Y128D02*
X1166Y128D01*
X1175Y128D02*
X1182Y128D01*
X1197Y128D02*
X1200Y128D01*
X1205Y128D02*
X1209Y128D01*
X1255Y128D02*
X1259Y128D01*
X1289Y128D02*
X1293Y128D01*
X1320Y128D02*
X1323Y128D01*
X1328Y128D02*
X1332Y128D01*
X1382Y128D02*
X1389Y128D01*
X1410Y128D02*
X1413Y128D01*
X1418Y128D02*
X1422Y128D01*
X1440Y128D02*
X1444Y128D01*
X1448Y128D02*
X1452Y128D01*
X7Y127D02*
X14Y127D01*
X34Y127D02*
X38Y127D01*
X69Y127D02*
X72Y127D01*
X99Y127D02*
X102Y127D01*
X106Y127D02*
X110Y127D01*
X159Y127D02*
X162Y127D01*
X167Y127D02*
X170Y127D01*
X185Y127D02*
X188Y127D01*
X200Y127D02*
X204Y127D01*
X215Y127D02*
X218Y127D01*
X232Y127D02*
X235Y127D01*
X293Y127D02*
X296Y127D01*
X328Y127D02*
X332Y127D01*
X357Y127D02*
X361Y127D01*
X363Y127D02*
X368Y127D01*
X413Y127D02*
X417Y127D01*
X532Y127D02*
X536Y127D01*
X547Y127D02*
X551Y127D01*
X562Y127D02*
X580Y127D01*
X623Y127D02*
X626Y127D01*
X638Y127D02*
X642Y127D01*
X653Y127D02*
X671Y127D01*
X685Y127D02*
X703Y127D01*
X772Y127D02*
X775Y127D01*
X807Y127D02*
X811Y127D01*
X836Y127D02*
X840Y127D01*
X843Y127D02*
X847Y127D01*
X896Y127D02*
X900Y127D01*
X903Y127D02*
X907Y127D01*
X922Y127D02*
X926Y127D01*
X936Y127D02*
X941Y127D01*
X961Y127D02*
X964Y127D01*
X1012Y127D02*
X1015Y127D01*
X1047Y127D02*
X1050Y127D01*
X1076Y127D02*
X1080Y127D01*
X1084Y127D02*
X1088Y127D01*
X1133Y127D02*
X1136Y127D01*
X1149Y127D02*
X1152Y127D01*
X1163Y127D02*
X1166Y127D01*
X1176Y127D02*
X1182Y127D01*
X1197Y127D02*
X1200Y127D01*
X1204Y127D02*
X1208Y127D01*
X1255Y127D02*
X1259Y127D01*
X1290Y127D02*
X1294Y127D01*
X1320Y127D02*
X1323Y127D01*
X1327Y127D02*
X1331Y127D01*
X1383Y127D02*
X1389Y127D01*
X1410Y127D02*
X1413Y127D01*
X1418Y127D02*
X1421Y127D01*
X1440Y127D02*
X1444Y127D01*
X1448Y127D02*
X1452Y127D01*
X7Y126D02*
X14Y126D01*
X34Y126D02*
X38Y126D01*
X69Y126D02*
X73Y126D01*
X99Y126D02*
X102Y126D01*
X105Y126D02*
X110Y126D01*
X159Y126D02*
X162Y126D01*
X166Y126D02*
X170Y126D01*
X185Y126D02*
X188Y126D01*
X199Y126D02*
X204Y126D01*
X215Y126D02*
X218Y126D01*
X231Y126D02*
X235Y126D01*
X293Y126D02*
X312Y126D01*
X328Y126D02*
X342Y126D01*
X353Y126D02*
X368Y126D01*
X413Y126D02*
X433Y126D01*
X532Y126D02*
X536Y126D01*
X548Y126D02*
X552Y126D01*
X562Y126D02*
X582Y126D01*
X623Y126D02*
X626Y126D01*
X638Y126D02*
X642Y126D01*
X653Y126D02*
X672Y126D01*
X683Y126D02*
X703Y126D01*
X772Y126D02*
X791Y126D01*
X807Y126D02*
X821Y126D01*
X832Y126D02*
X846Y126D01*
X893Y126D02*
X907Y126D01*
X922Y126D02*
X940Y126D01*
X961Y126D02*
X964Y126D01*
X1012Y126D02*
X1016Y126D01*
X1047Y126D02*
X1052Y126D01*
X1076Y126D02*
X1080Y126D01*
X1083Y126D02*
X1087Y126D01*
X1133Y126D02*
X1137Y126D01*
X1147Y126D02*
X1152Y126D01*
X1163Y126D02*
X1166Y126D01*
X1176Y126D02*
X1182Y126D01*
X1197Y126D02*
X1201Y126D01*
X1203Y126D02*
X1208Y126D01*
X1255Y126D02*
X1259Y126D01*
X1290Y126D02*
X1295Y126D01*
X1319Y126D02*
X1324Y126D01*
X1326Y126D02*
X1331Y126D01*
X1383Y126D02*
X1388Y126D01*
X1410Y126D02*
X1414Y126D01*
X1416Y126D02*
X1421Y126D01*
X1440Y126D02*
X1444Y126D01*
X1446Y126D02*
X1451Y126D01*
X7Y125D02*
X14Y125D01*
X34Y125D02*
X54Y125D01*
X70Y125D02*
X84Y125D01*
X95Y125D02*
X109Y125D01*
X155Y125D02*
X169Y125D01*
X185Y125D02*
X203Y125D01*
X215Y125D02*
X235Y125D01*
X293Y125D02*
X313Y125D01*
X329Y125D02*
X343Y125D01*
X353Y125D02*
X367Y125D01*
X413Y125D02*
X433Y125D01*
X532Y125D02*
X536Y125D01*
X548Y125D02*
X552Y125D01*
X562Y125D02*
X582Y125D01*
X623Y125D02*
X626Y125D01*
X639Y125D02*
X642Y125D01*
X653Y125D02*
X673Y125D01*
X683Y125D02*
X703Y125D01*
X772Y125D02*
X791Y125D01*
X808Y125D02*
X822Y125D01*
X832Y125D02*
X846Y125D01*
X892Y125D02*
X906Y125D01*
X922Y125D02*
X939Y125D01*
X961Y125D02*
X964Y125D01*
X1012Y125D02*
X1031Y125D01*
X1048Y125D02*
X1062Y125D01*
X1073Y125D02*
X1087Y125D01*
X1133Y125D02*
X1151Y125D01*
X1163Y125D02*
X1166Y125D01*
X1176Y125D02*
X1182Y125D01*
X1193Y125D02*
X1207Y125D01*
X1255Y125D02*
X1275Y125D01*
X1291Y125D02*
X1305Y125D01*
X1316Y125D02*
X1330Y125D01*
X1384Y125D02*
X1388Y125D01*
X1406Y125D02*
X1420Y125D01*
X1437Y125D02*
X1451Y125D01*
X7Y124D02*
X14Y124D01*
X34Y124D02*
X54Y124D01*
X70Y124D02*
X84Y124D01*
X95Y124D02*
X109Y124D01*
X155Y124D02*
X169Y124D01*
X185Y124D02*
X202Y124D01*
X215Y124D02*
X235Y124D01*
X293Y124D02*
X312Y124D01*
X330Y124D02*
X343Y124D01*
X353Y124D02*
X366Y124D01*
X413Y124D02*
X433Y124D01*
X533Y124D02*
X535Y124D01*
X549Y124D02*
X552Y124D01*
X562Y124D02*
X582Y124D01*
X623Y124D02*
X626Y124D01*
X639Y124D02*
X642Y124D01*
X653Y124D02*
X672Y124D01*
X683Y124D02*
X702Y124D01*
X772Y124D02*
X791Y124D01*
X809Y124D02*
X821Y124D01*
X832Y124D02*
X845Y124D01*
X892Y124D02*
X905Y124D01*
X922Y124D02*
X938Y124D01*
X961Y124D02*
X964Y124D01*
X1012Y124D02*
X1032Y124D01*
X1048Y124D02*
X1062Y124D01*
X1072Y124D02*
X1086Y124D01*
X1134Y124D02*
X1151Y124D01*
X1163Y124D02*
X1166Y124D01*
X1177Y124D02*
X1182Y124D01*
X1193Y124D02*
X1207Y124D01*
X1255Y124D02*
X1275Y124D01*
X1292Y124D02*
X1305Y124D01*
X1316Y124D02*
X1329Y124D01*
X1384Y124D02*
X1388Y124D01*
X1406Y124D02*
X1420Y124D01*
X1436Y124D02*
X1450Y124D01*
X7Y123D02*
X14Y123D01*
X34Y123D02*
X54Y123D01*
X71Y123D02*
X84Y123D01*
X95Y123D02*
X108Y123D01*
X155Y123D02*
X168Y123D01*
X185Y123D02*
X201Y123D01*
X215Y123D02*
X235Y123D01*
X293Y123D02*
X311Y123D01*
X332Y123D02*
X342Y123D01*
X354Y123D02*
X364Y123D01*
X413Y123D02*
X432Y123D01*
X534Y123D02*
X534Y123D01*
X550Y123D02*
X551Y123D01*
X563Y123D02*
X581Y123D01*
X624Y123D02*
X625Y123D01*
X641Y123D02*
X641Y123D01*
X653Y123D02*
X671Y123D01*
X684Y123D02*
X701Y123D01*
X772Y123D02*
X790Y123D01*
X811Y123D02*
X821Y123D01*
X833Y123D02*
X843Y123D01*
X893Y123D02*
X903Y123D01*
X922Y123D02*
X936Y123D01*
X962Y123D02*
X963Y123D01*
X1012Y123D02*
X1032Y123D01*
X1049Y123D02*
X1062Y123D01*
X1072Y123D02*
X1085Y123D01*
X1135Y123D02*
X1150Y123D01*
X1163Y123D02*
X1166Y123D01*
X1177Y123D02*
X1182Y123D01*
X1193Y123D02*
X1205Y123D01*
X1255Y123D02*
X1275Y123D01*
X1293Y123D02*
X1305Y123D01*
X1316Y123D02*
X1328Y123D01*
X1384Y123D02*
X1387Y123D01*
X1406Y123D02*
X1419Y123D01*
X1436Y123D02*
X1449Y123D01*
X7Y122D02*
X14Y122D01*
X34Y122D02*
X53Y122D01*
X73Y122D02*
X83Y122D01*
X95Y122D02*
X106Y122D01*
X156Y122D02*
X166Y122D01*
X185Y122D02*
X199Y122D01*
X216Y122D02*
X234Y122D01*
X384Y122D02*
X402Y122D01*
X593Y122D02*
X612Y122D01*
X863Y122D02*
X881Y122D01*
X1012Y122D02*
X1031Y122D01*
X1051Y122D02*
X1061Y122D01*
X1073Y122D02*
X1083Y122D01*
X1137Y122D02*
X1148Y122D01*
X1164Y122D02*
X1165Y122D01*
X1178Y122D02*
X1182Y122D01*
X1194Y122D02*
X1203Y122D01*
X1256Y122D02*
X1274Y122D01*
X1295Y122D02*
X1304Y122D01*
X1317Y122D02*
X1326Y122D01*
X1385Y122D02*
X1386Y122D01*
X1407Y122D02*
X1417Y122D01*
X1437Y122D02*
X1447Y122D01*
X7Y121D02*
X14Y121D01*
X125Y121D02*
X144Y121D01*
X383Y121D02*
X403Y121D01*
X593Y121D02*
X612Y121D01*
X862Y121D02*
X882Y121D01*
X1103Y121D02*
X1122Y121D01*
X1346Y121D02*
X1365Y121D01*
X7Y120D02*
X14Y120D01*
X125Y120D02*
X144Y120D01*
X383Y120D02*
X403Y120D01*
X593Y120D02*
X612Y120D01*
X862Y120D02*
X882Y120D01*
X1102Y120D02*
X1122Y120D01*
X1346Y120D02*
X1366Y120D01*
X7Y119D02*
X14Y119D01*
X125Y119D02*
X144Y119D01*
X384Y119D02*
X402Y119D01*
X594Y119D02*
X611Y119D01*
X863Y119D02*
X881Y119D01*
X1103Y119D02*
X1122Y119D01*
X1346Y119D02*
X1365Y119D01*
X7Y118D02*
X14Y118D01*
X125Y118D02*
X144Y118D01*
X1103Y118D02*
X1121Y118D01*
X1347Y118D02*
X1365Y118D01*
X7Y117D02*
X14Y117D01*
X7Y116D02*
X14Y116D01*
X7Y115D02*
X14Y115D01*
X7Y114D02*
X14Y114D01*
X7Y113D02*
X14Y113D01*
X7Y112D02*
X14Y112D01*
X7Y111D02*
X14Y111D01*
X7Y110D02*
X14Y110D01*
X7Y109D02*
X14Y109D01*
X7Y108D02*
X14Y108D01*
X7Y107D02*
X14Y107D01*
X7Y106D02*
X14Y106D01*
X7Y105D02*
X14Y105D01*
X7Y104D02*
X14Y104D01*
X7Y103D02*
X14Y103D01*
X7Y102D02*
X14Y102D01*
X7Y101D02*
X14Y101D01*
X7Y100D02*
X14Y100D01*
X7Y99D02*
X14Y99D01*
X7Y98D02*
X14Y98D01*
X7Y97D02*
X14Y97D01*
X7Y96D02*
X14Y96D01*
X7Y95D02*
X14Y95D01*
X7Y94D02*
X14Y94D01*
X7Y93D02*
X14Y93D01*
X7Y92D02*
X14Y92D01*
X7Y91D02*
X14Y91D01*
X7Y90D02*
X14Y90D01*
X7Y89D02*
X14Y89D01*
X7Y88D02*
X14Y88D01*
X7Y87D02*
X14Y87D01*
X7Y86D02*
X14Y86D01*
X7Y85D02*
X14Y85D01*
X7Y84D02*
X14Y84D01*
X7Y83D02*
X14Y83D01*
X7Y82D02*
X14Y82D01*
X7Y81D02*
X14Y81D01*
X7Y80D02*
X14Y80D01*
X7Y79D02*
X14Y79D01*
X7Y78D02*
X14Y78D01*
X7Y77D02*
X14Y77D01*
X7Y76D02*
X14Y76D01*
X7Y75D02*
X14Y75D01*
X7Y74D02*
X14Y74D01*
X7Y73D02*
X14Y73D01*
X7Y72D02*
X14Y72D01*
X7Y71D02*
X14Y71D01*
X7Y70D02*
X14Y70D01*
X7Y69D02*
X14Y69D01*
X7Y68D02*
X14Y68D01*
X7Y67D02*
X14Y67D01*
X7Y66D02*
X14Y66D01*
X7Y65D02*
X14Y65D01*
X7Y64D02*
X14Y64D01*
X7Y63D02*
X14Y63D01*
X7Y62D02*
X14Y62D01*
X7Y61D02*
X14Y61D01*
X7Y60D02*
X14Y60D01*
X7Y59D02*
X14Y59D01*
X7Y58D02*
X14Y58D01*
X7Y57D02*
X14Y57D01*
X7Y56D02*
X14Y56D01*
X7Y55D02*
X14Y55D01*
X7Y54D02*
X14Y54D01*
X7Y53D02*
X14Y53D01*
X7Y52D02*
X14Y52D01*
X7Y51D02*
X14Y51D01*
X7Y50D02*
X14Y50D01*
X7Y49D02*
X14Y49D01*
X7Y48D02*
X14Y48D01*
X7Y47D02*
X14Y47D01*
X7Y46D02*
X14Y46D01*
X7Y45D02*
X14Y45D01*
X7Y44D02*
X14Y44D01*
X7Y43D02*
X14Y43D01*
X7Y42D02*
X14Y42D01*
X7Y41D02*
X14Y41D01*
X7Y40D02*
X14Y40D01*
X7Y39D02*
X14Y39D01*
X7Y38D02*
X14Y38D01*
X7Y37D02*
X14Y37D01*
X7Y36D02*
X14Y36D01*
X7Y35D02*
X14Y35D01*
X7Y34D02*
X14Y34D01*
X7Y33D02*
X14Y33D01*
X7Y32D02*
X14Y32D01*
X7Y31D02*
X14Y31D01*
X7Y30D02*
X14Y30D01*
X7Y29D02*
X14Y29D01*
X7Y28D02*
X14Y28D01*
X7Y27D02*
X14Y27D01*
X7Y26D02*
X14Y26D01*
X7Y25D02*
X14Y25D01*
X7Y24D02*
X14Y24D01*
X7Y23D02*
X14Y23D01*
X7Y22D02*
X14Y22D01*
X7Y21D02*
X14Y21D01*
X7Y20D02*
X14Y20D01*
X7Y19D02*
X14Y19D01*
X7Y18D02*
X14Y18D01*
X7Y17D02*
X14Y17D01*
X7Y16D02*
X14Y16D01*
X7Y15D02*
X14Y15D01*
X7Y14D02*
X14Y14D01*
X7Y13D02*
X14Y13D01*
X7Y12D02*
X14Y12D01*
X7Y11D02*
X14Y11D01*
X7Y10D02*
X14Y10D01*
X7Y9D02*
X14Y9D01*
X7Y8D02*
X14Y8D01*
X7Y7D02*
X14Y7D01*
X7Y6D02*
X14Y6D01*
X7Y5D02*
X14Y5D01*
X7Y4D02*
X14Y4D01*
X7Y3D02*
X14Y3D01*
D02*
G04 End of Silk1*
M02*