M48
INCH
T10C0.035000
T11C0.015748
T12C0.038000
T13C0.041000
T14C0.030000
%
T10
X007481Y011565
X010040Y011565
X007481Y013337
X010040Y013337
X007481Y007904
X010040Y007904
X007481Y009675
X010040Y009675
X000591Y011565
X003151Y011565
X000591Y013337
X003151Y013337
X000591Y007904
X003151Y007904
X000591Y009676
X003151Y009676
T11
X004403Y011095
X006887Y004985
X004414Y007384
T12
X008552Y005030
X009552Y005030
X010552Y005030
X006143Y000660
X009962Y000660
X012324Y000660
X004883Y000660
X011064Y000660
X013544Y000660
X013623Y009045
X002442Y000660
X003662Y000660
X005237Y004675
X004095Y004675
X007402Y000660
X001221Y000660
X008662Y000660
T13
X012694Y007227
X011694Y005227
X013694Y005227
T14
X012536Y003297
X013536Y003297
X012536Y002297
X013536Y002297
X003536Y002297
X001536Y002297
X002536Y002297
X007536Y002297
X008536Y002297
X004536Y002297
X005536Y002297
X006536Y002297
X009536Y002297
X010536Y002297
X011536Y002297
X003536Y003297
X001536Y003297
X002536Y003297
X007536Y003297
X008536Y003297
X004536Y003297
X005536Y003297
X006536Y003297
X009536Y003297
X010536Y003297
X011536Y003297
T00
M30
