G04 MADE WITH FRITZING*
G04 WWW.FRITZING.ORG*
G04 DOUBLE SIDED*
G04 HOLES PLATED*
G04 CONTOUR ON CENTER OF CONTOUR VECTOR*
%ASAXBY*%
%FSLAX23Y23*%
%MOIN*%
%OFA0B0*%
%SFA1.0B1.0*%
%ADD10C,0.092000X0.068*%
%ADD11R,1.455130X1.417710X1.439130X1.401710*%
%ADD12C,0.008000*%
%ADD13C,0.010000*%
%ADD14C,0.005000*%
%ADD15R,0.001000X0.001000*%
%LNSILK1*%
G90*
G70*
G54D10*
X1263Y623D03*
G54D12*
X4Y1414D02*
X1451Y1414D01*
X1451Y4D01*
X4Y4D01*
X4Y1414D01*
D02*
G54D13*
X810Y116D02*
X810Y16D01*
D02*
X810Y16D02*
X910Y16D01*
D02*
X910Y16D02*
X910Y116D01*
D02*
X910Y116D02*
X810Y116D01*
G54D14*
D02*
X810Y81D02*
X845Y116D01*
G54D13*
D02*
X66Y116D02*
X66Y16D01*
D02*
X66Y16D02*
X166Y16D01*
D02*
X166Y16D02*
X166Y116D01*
D02*
X166Y116D02*
X66Y116D01*
G54D14*
D02*
X66Y81D02*
X101Y116D01*
G54D13*
D02*
X684Y116D02*
X684Y16D01*
D02*
X684Y16D02*
X784Y16D01*
D02*
X784Y16D02*
X784Y116D01*
D02*
X784Y116D02*
X684Y116D01*
G54D14*
D02*
X684Y81D02*
X719Y116D01*
G54D13*
D02*
X353Y518D02*
X353Y418D01*
D02*
X353Y418D02*
X453Y418D01*
D02*
X453Y418D02*
X453Y518D01*
D02*
X453Y518D02*
X353Y518D01*
G54D14*
D02*
X353Y483D02*
X388Y518D01*
G54D13*
D02*
X467Y518D02*
X467Y418D01*
D02*
X467Y418D02*
X567Y418D01*
D02*
X567Y418D02*
X567Y518D01*
D02*
X567Y518D02*
X467Y518D01*
G54D14*
D02*
X467Y483D02*
X502Y518D01*
G54D13*
D02*
X310Y116D02*
X310Y16D01*
D02*
X310Y16D02*
X410Y16D01*
D02*
X410Y16D02*
X410Y116D01*
D02*
X410Y116D02*
X310Y116D01*
G54D14*
D02*
X310Y81D02*
X345Y116D01*
G54D13*
D02*
X188Y116D02*
X188Y16D01*
D02*
X188Y16D02*
X288Y16D01*
D02*
X288Y16D02*
X288Y116D01*
D02*
X288Y116D02*
X188Y116D01*
G54D14*
D02*
X188Y81D02*
X223Y116D01*
G54D13*
D02*
X1306Y955D02*
X1306Y855D01*
D02*
X1306Y855D02*
X1406Y855D01*
D02*
X1406Y855D02*
X1406Y955D01*
D02*
X1406Y955D02*
X1306Y955D01*
G54D14*
D02*
X1306Y920D02*
X1341Y955D01*
G54D13*
D02*
X1298Y116D02*
X1298Y16D01*
D02*
X1298Y16D02*
X1398Y16D01*
D02*
X1398Y16D02*
X1398Y116D01*
D02*
X1398Y116D02*
X1298Y116D01*
G54D14*
D02*
X1298Y81D02*
X1333Y116D01*
G54D13*
D02*
X1050Y116D02*
X1050Y16D01*
D02*
X1050Y16D02*
X1150Y16D01*
D02*
X1150Y16D02*
X1150Y116D01*
D02*
X1150Y116D02*
X1050Y116D01*
G54D14*
D02*
X1050Y81D02*
X1085Y116D01*
G54D13*
D02*
X432Y116D02*
X432Y16D01*
D02*
X432Y16D02*
X532Y16D01*
D02*
X532Y16D02*
X532Y116D01*
D02*
X532Y116D02*
X432Y116D01*
G54D14*
D02*
X432Y81D02*
X467Y116D01*
G54D13*
D02*
X1176Y116D02*
X1176Y16D01*
D02*
X1176Y16D02*
X1276Y16D01*
D02*
X1276Y16D02*
X1276Y116D01*
D02*
X1276Y116D02*
X1176Y116D01*
G54D14*
D02*
X1176Y81D02*
X1211Y116D01*
G54D13*
D02*
X940Y116D02*
X940Y16D01*
D02*
X940Y16D02*
X1040Y16D01*
D02*
X1040Y16D02*
X1040Y116D01*
D02*
X1040Y116D02*
X940Y116D01*
G54D14*
D02*
X940Y81D02*
X975Y116D01*
G54D13*
D02*
X558Y116D02*
X558Y16D01*
D02*
X558Y16D02*
X658Y16D01*
D02*
X658Y16D02*
X658Y116D01*
D02*
X658Y116D02*
X558Y116D01*
G54D14*
D02*
X558Y81D02*
X593Y116D01*
G54D13*
D02*
X1099Y553D02*
X799Y553D01*
D02*
X799Y553D02*
X799Y453D01*
D02*
X799Y453D02*
X1099Y453D01*
D02*
X1099Y453D02*
X1099Y553D01*
G54D14*
D02*
X1064Y553D02*
X1099Y518D01*
G54D15*
X1265Y1399D02*
X1268Y1399D01*
X1264Y1398D02*
X1269Y1398D01*
X1365Y1398D02*
X1375Y1398D01*
X1415Y1398D02*
X1426Y1398D01*
X1157Y1397D02*
X1159Y1397D01*
X1171Y1397D02*
X1173Y1397D01*
X1264Y1397D02*
X1269Y1397D01*
X1363Y1397D02*
X1377Y1397D01*
X1413Y1397D02*
X1428Y1397D01*
X1157Y1396D02*
X1159Y1396D01*
X1171Y1396D02*
X1173Y1396D01*
X1238Y1396D02*
X1239Y1396D01*
X1264Y1396D02*
X1269Y1396D01*
X1362Y1396D02*
X1378Y1396D01*
X1413Y1396D02*
X1429Y1396D01*
X1157Y1395D02*
X1159Y1395D01*
X1171Y1395D02*
X1173Y1395D01*
X1237Y1395D02*
X1240Y1395D01*
X1265Y1395D02*
X1268Y1395D01*
X1362Y1395D02*
X1378Y1395D01*
X1413Y1395D02*
X1429Y1395D01*
X1157Y1394D02*
X1159Y1394D01*
X1171Y1394D02*
X1173Y1394D01*
X1237Y1394D02*
X1240Y1394D01*
X1362Y1394D02*
X1364Y1394D01*
X1376Y1394D02*
X1378Y1394D01*
X1427Y1394D02*
X1429Y1394D01*
X1157Y1393D02*
X1159Y1393D01*
X1171Y1393D02*
X1173Y1393D01*
X1237Y1393D02*
X1240Y1393D01*
X1362Y1393D02*
X1364Y1393D01*
X1376Y1393D02*
X1378Y1393D01*
X1427Y1393D02*
X1429Y1393D01*
X1157Y1392D02*
X1159Y1392D01*
X1171Y1392D02*
X1173Y1392D01*
X1237Y1392D02*
X1240Y1392D01*
X1362Y1392D02*
X1364Y1392D01*
X1376Y1392D02*
X1378Y1392D01*
X1427Y1392D02*
X1429Y1392D01*
X1157Y1391D02*
X1159Y1391D01*
X1171Y1391D02*
X1173Y1391D01*
X1237Y1391D02*
X1240Y1391D01*
X1362Y1391D02*
X1364Y1391D01*
X1376Y1391D02*
X1378Y1391D01*
X1427Y1391D02*
X1429Y1391D01*
X1157Y1390D02*
X1159Y1390D01*
X1171Y1390D02*
X1173Y1390D01*
X1187Y1390D02*
X1195Y1390D01*
X1211Y1390D02*
X1222Y1390D01*
X1234Y1390D02*
X1248Y1390D01*
X1262Y1390D02*
X1268Y1390D01*
X1289Y1390D02*
X1298Y1390D01*
X1337Y1390D02*
X1338Y1390D01*
X1351Y1390D02*
X1352Y1390D01*
X1362Y1390D02*
X1364Y1390D01*
X1376Y1390D02*
X1378Y1390D01*
X1427Y1390D02*
X1429Y1390D01*
X1157Y1389D02*
X1159Y1389D01*
X1171Y1389D02*
X1173Y1389D01*
X1185Y1389D02*
X1196Y1389D01*
X1210Y1389D02*
X1223Y1389D01*
X1234Y1389D02*
X1248Y1389D01*
X1261Y1389D02*
X1269Y1389D01*
X1288Y1389D02*
X1300Y1389D01*
X1336Y1389D02*
X1339Y1389D01*
X1350Y1389D02*
X1353Y1389D01*
X1362Y1389D02*
X1364Y1389D01*
X1376Y1389D02*
X1378Y1389D01*
X1427Y1389D02*
X1429Y1389D01*
X1157Y1388D02*
X1159Y1388D01*
X1171Y1388D02*
X1173Y1388D01*
X1184Y1388D02*
X1197Y1388D01*
X1209Y1388D02*
X1224Y1388D01*
X1234Y1388D02*
X1248Y1388D01*
X1261Y1388D02*
X1269Y1388D01*
X1288Y1388D02*
X1300Y1388D01*
X1336Y1388D02*
X1339Y1388D01*
X1350Y1388D02*
X1353Y1388D01*
X1362Y1388D02*
X1364Y1388D01*
X1376Y1388D02*
X1378Y1388D01*
X1427Y1388D02*
X1429Y1388D01*
X1157Y1387D02*
X1159Y1387D01*
X1171Y1387D02*
X1173Y1387D01*
X1183Y1387D02*
X1198Y1387D01*
X1208Y1387D02*
X1224Y1387D01*
X1235Y1387D02*
X1247Y1387D01*
X1262Y1387D02*
X1269Y1387D01*
X1290Y1387D02*
X1301Y1387D01*
X1336Y1387D02*
X1339Y1387D01*
X1350Y1387D02*
X1353Y1387D01*
X1362Y1387D02*
X1364Y1387D01*
X1376Y1387D02*
X1378Y1387D01*
X1427Y1387D02*
X1429Y1387D01*
X1157Y1386D02*
X1173Y1386D01*
X1183Y1386D02*
X1186Y1386D01*
X1195Y1386D02*
X1199Y1386D01*
X1208Y1386D02*
X1211Y1386D01*
X1222Y1386D02*
X1224Y1386D01*
X1237Y1386D02*
X1240Y1386D01*
X1266Y1386D02*
X1269Y1386D01*
X1298Y1386D02*
X1301Y1386D01*
X1336Y1386D02*
X1339Y1386D01*
X1350Y1386D02*
X1353Y1386D01*
X1362Y1386D02*
X1364Y1386D01*
X1376Y1386D02*
X1378Y1386D01*
X1418Y1386D02*
X1429Y1386D01*
X1157Y1385D02*
X1173Y1385D01*
X1182Y1385D02*
X1185Y1385D01*
X1196Y1385D02*
X1199Y1385D01*
X1208Y1385D02*
X1212Y1385D01*
X1237Y1385D02*
X1240Y1385D01*
X1266Y1385D02*
X1269Y1385D01*
X1298Y1385D02*
X1301Y1385D01*
X1336Y1385D02*
X1339Y1385D01*
X1350Y1385D02*
X1352Y1385D01*
X1362Y1385D02*
X1364Y1385D01*
X1376Y1385D02*
X1378Y1385D01*
X1417Y1385D02*
X1429Y1385D01*
X1157Y1384D02*
X1173Y1384D01*
X1182Y1384D02*
X1185Y1384D01*
X1196Y1384D02*
X1199Y1384D01*
X1209Y1384D02*
X1214Y1384D01*
X1237Y1384D02*
X1240Y1384D01*
X1266Y1384D02*
X1269Y1384D01*
X1298Y1384D02*
X1301Y1384D01*
X1337Y1384D02*
X1339Y1384D01*
X1349Y1384D02*
X1352Y1384D01*
X1362Y1384D02*
X1364Y1384D01*
X1376Y1384D02*
X1378Y1384D01*
X1416Y1384D02*
X1428Y1384D01*
X1157Y1383D02*
X1173Y1383D01*
X1182Y1383D02*
X1185Y1383D01*
X1196Y1383D02*
X1199Y1383D01*
X1209Y1383D02*
X1216Y1383D01*
X1237Y1383D02*
X1240Y1383D01*
X1266Y1383D02*
X1269Y1383D01*
X1298Y1383D02*
X1301Y1383D01*
X1337Y1383D02*
X1340Y1383D01*
X1349Y1383D02*
X1352Y1383D01*
X1362Y1383D02*
X1364Y1383D01*
X1376Y1383D02*
X1378Y1383D01*
X1417Y1383D02*
X1429Y1383D01*
X1157Y1382D02*
X1159Y1382D01*
X1171Y1382D02*
X1173Y1382D01*
X1182Y1382D02*
X1185Y1382D01*
X1196Y1382D02*
X1199Y1382D01*
X1211Y1382D02*
X1219Y1382D01*
X1237Y1382D02*
X1240Y1382D01*
X1266Y1382D02*
X1269Y1382D01*
X1287Y1382D02*
X1301Y1382D01*
X1337Y1382D02*
X1340Y1382D01*
X1348Y1382D02*
X1351Y1382D01*
X1362Y1382D02*
X1364Y1382D01*
X1376Y1382D02*
X1378Y1382D01*
X1426Y1382D02*
X1429Y1382D01*
X1157Y1381D02*
X1159Y1381D01*
X1171Y1381D02*
X1173Y1381D01*
X1182Y1381D02*
X1199Y1381D01*
X1213Y1381D02*
X1221Y1381D01*
X1237Y1381D02*
X1240Y1381D01*
X1266Y1381D02*
X1269Y1381D01*
X1286Y1381D02*
X1301Y1381D01*
X1338Y1381D02*
X1341Y1381D01*
X1348Y1381D02*
X1351Y1381D01*
X1362Y1381D02*
X1364Y1381D01*
X1376Y1381D02*
X1378Y1381D01*
X1393Y1381D02*
X1398Y1381D01*
X1427Y1381D02*
X1429Y1381D01*
X1157Y1380D02*
X1159Y1380D01*
X1171Y1380D02*
X1173Y1380D01*
X1182Y1380D02*
X1199Y1380D01*
X1215Y1380D02*
X1223Y1380D01*
X1237Y1380D02*
X1240Y1380D01*
X1266Y1380D02*
X1269Y1380D01*
X1285Y1380D02*
X1301Y1380D01*
X1338Y1380D02*
X1341Y1380D01*
X1347Y1380D02*
X1350Y1380D01*
X1362Y1380D02*
X1364Y1380D01*
X1376Y1380D02*
X1378Y1380D01*
X1392Y1380D02*
X1399Y1380D01*
X1427Y1380D02*
X1429Y1380D01*
X1157Y1379D02*
X1159Y1379D01*
X1171Y1379D02*
X1173Y1379D01*
X1182Y1379D02*
X1199Y1379D01*
X1217Y1379D02*
X1223Y1379D01*
X1237Y1379D02*
X1240Y1379D01*
X1266Y1379D02*
X1269Y1379D01*
X1285Y1379D02*
X1288Y1379D01*
X1298Y1379D02*
X1301Y1379D01*
X1339Y1379D02*
X1342Y1379D01*
X1347Y1379D02*
X1350Y1379D01*
X1362Y1379D02*
X1364Y1379D01*
X1376Y1379D02*
X1378Y1379D01*
X1392Y1379D02*
X1399Y1379D01*
X1427Y1379D02*
X1429Y1379D01*
X1157Y1378D02*
X1159Y1378D01*
X1171Y1378D02*
X1173Y1378D01*
X1182Y1378D02*
X1198Y1378D01*
X1220Y1378D02*
X1224Y1378D01*
X1237Y1378D02*
X1240Y1378D01*
X1266Y1378D02*
X1269Y1378D01*
X1285Y1378D02*
X1287Y1378D01*
X1299Y1378D02*
X1301Y1378D01*
X1339Y1378D02*
X1342Y1378D01*
X1346Y1378D02*
X1349Y1378D01*
X1362Y1378D02*
X1364Y1378D01*
X1376Y1378D02*
X1378Y1378D01*
X1392Y1378D02*
X1399Y1378D01*
X1427Y1378D02*
X1429Y1378D01*
X1157Y1377D02*
X1159Y1377D01*
X1171Y1377D02*
X1173Y1377D01*
X1182Y1377D02*
X1185Y1377D01*
X1221Y1377D02*
X1224Y1377D01*
X1237Y1377D02*
X1240Y1377D01*
X1266Y1377D02*
X1269Y1377D01*
X1285Y1377D02*
X1287Y1377D01*
X1299Y1377D02*
X1301Y1377D01*
X1340Y1377D02*
X1342Y1377D01*
X1346Y1377D02*
X1349Y1377D01*
X1362Y1377D02*
X1364Y1377D01*
X1376Y1377D02*
X1378Y1377D01*
X1392Y1377D02*
X1399Y1377D01*
X1427Y1377D02*
X1429Y1377D01*
X1157Y1376D02*
X1159Y1376D01*
X1171Y1376D02*
X1173Y1376D01*
X1182Y1376D02*
X1185Y1376D01*
X1222Y1376D02*
X1225Y1376D01*
X1237Y1376D02*
X1240Y1376D01*
X1248Y1376D02*
X1250Y1376D01*
X1266Y1376D02*
X1269Y1376D01*
X1285Y1376D02*
X1287Y1376D01*
X1298Y1376D02*
X1301Y1376D01*
X1340Y1376D02*
X1343Y1376D01*
X1346Y1376D02*
X1349Y1376D01*
X1362Y1376D02*
X1364Y1376D01*
X1376Y1376D02*
X1378Y1376D01*
X1393Y1376D02*
X1398Y1376D01*
X1427Y1376D02*
X1429Y1376D01*
X1157Y1375D02*
X1159Y1375D01*
X1171Y1375D02*
X1173Y1375D01*
X1183Y1375D02*
X1186Y1375D01*
X1209Y1375D02*
X1210Y1375D01*
X1222Y1375D02*
X1224Y1375D01*
X1237Y1375D02*
X1240Y1375D01*
X1247Y1375D02*
X1250Y1375D01*
X1266Y1375D02*
X1269Y1375D01*
X1285Y1375D02*
X1288Y1375D01*
X1297Y1375D02*
X1301Y1375D01*
X1340Y1375D02*
X1343Y1375D01*
X1345Y1375D02*
X1348Y1375D01*
X1362Y1375D02*
X1364Y1375D01*
X1376Y1375D02*
X1378Y1375D01*
X1394Y1375D02*
X1397Y1375D01*
X1427Y1375D02*
X1429Y1375D01*
X1157Y1374D02*
X1159Y1374D01*
X1171Y1374D02*
X1173Y1374D01*
X1183Y1374D02*
X1188Y1374D01*
X1208Y1374D02*
X1212Y1374D01*
X1220Y1374D02*
X1224Y1374D01*
X1237Y1374D02*
X1241Y1374D01*
X1246Y1374D02*
X1250Y1374D01*
X1266Y1374D02*
X1269Y1374D01*
X1285Y1374D02*
X1289Y1374D01*
X1295Y1374D02*
X1301Y1374D01*
X1341Y1374D02*
X1348Y1374D01*
X1362Y1374D02*
X1365Y1374D01*
X1375Y1374D02*
X1378Y1374D01*
X1426Y1374D02*
X1429Y1374D01*
X1157Y1373D02*
X1159Y1373D01*
X1171Y1373D02*
X1173Y1373D01*
X1184Y1373D02*
X1199Y1373D01*
X1208Y1373D02*
X1224Y1373D01*
X1238Y1373D02*
X1249Y1373D01*
X1261Y1373D02*
X1274Y1373D01*
X1285Y1373D02*
X1301Y1373D01*
X1341Y1373D02*
X1347Y1373D01*
X1362Y1373D02*
X1378Y1373D01*
X1413Y1373D02*
X1429Y1373D01*
X1157Y1372D02*
X1159Y1372D01*
X1171Y1372D02*
X1173Y1372D01*
X1185Y1372D02*
X1199Y1372D01*
X1209Y1372D02*
X1223Y1372D01*
X1239Y1372D02*
X1249Y1372D01*
X1261Y1372D02*
X1274Y1372D01*
X1286Y1372D02*
X1301Y1372D01*
X1342Y1372D02*
X1347Y1372D01*
X1362Y1372D02*
X1378Y1372D01*
X1413Y1372D02*
X1429Y1372D01*
X1157Y1371D02*
X1159Y1371D01*
X1171Y1371D02*
X1173Y1371D01*
X1186Y1371D02*
X1198Y1371D01*
X1211Y1371D02*
X1222Y1371D01*
X1240Y1371D02*
X1247Y1371D01*
X1261Y1371D02*
X1274Y1371D01*
X1288Y1371D02*
X1296Y1371D01*
X1299Y1371D02*
X1301Y1371D01*
X1342Y1371D02*
X1346Y1371D01*
X1363Y1371D02*
X1377Y1371D01*
X1413Y1371D02*
X1428Y1371D01*
X1287Y1335D02*
X1303Y1335D01*
X1287Y1334D02*
X1303Y1334D01*
X1287Y1333D02*
X1304Y1333D01*
X1286Y1332D02*
X1304Y1332D01*
X1286Y1331D02*
X1304Y1331D01*
X1286Y1330D02*
X1304Y1330D01*
X1286Y1329D02*
X1304Y1329D01*
X1286Y1328D02*
X1305Y1328D01*
X1286Y1327D02*
X1305Y1327D01*
X1285Y1326D02*
X1305Y1326D01*
X1285Y1325D02*
X1305Y1325D01*
X1285Y1324D02*
X1305Y1324D01*
X1285Y1323D02*
X1305Y1323D01*
X1285Y1322D02*
X1306Y1322D01*
X1284Y1321D02*
X1306Y1321D01*
X1284Y1320D02*
X1306Y1320D01*
X1284Y1319D02*
X1306Y1319D01*
X1284Y1318D02*
X1306Y1318D01*
X1284Y1317D02*
X1307Y1317D01*
X1283Y1316D02*
X1307Y1316D01*
X1239Y1315D02*
X1239Y1315D01*
X1283Y1315D02*
X1307Y1315D01*
X1351Y1315D02*
X1352Y1315D01*
X1238Y1314D02*
X1241Y1314D01*
X1283Y1314D02*
X1307Y1314D01*
X1349Y1314D02*
X1353Y1314D01*
X1237Y1313D02*
X1242Y1313D01*
X1283Y1313D02*
X1307Y1313D01*
X1348Y1313D02*
X1354Y1313D01*
X1236Y1312D02*
X1244Y1312D01*
X1283Y1312D02*
X1308Y1312D01*
X1346Y1312D02*
X1355Y1312D01*
X1235Y1311D02*
X1245Y1311D01*
X1282Y1311D02*
X1308Y1311D01*
X1345Y1311D02*
X1356Y1311D01*
X1234Y1310D02*
X1247Y1310D01*
X1280Y1310D02*
X1311Y1310D01*
X1344Y1310D02*
X1357Y1310D01*
X1233Y1309D02*
X1248Y1309D01*
X1276Y1309D02*
X1314Y1309D01*
X1342Y1309D02*
X1358Y1309D01*
X1232Y1308D02*
X1250Y1308D01*
X1273Y1308D02*
X1317Y1308D01*
X1341Y1308D02*
X1359Y1308D01*
X1231Y1307D02*
X1251Y1307D01*
X1271Y1307D02*
X1320Y1307D01*
X1339Y1307D02*
X1360Y1307D01*
X1230Y1306D02*
X1253Y1306D01*
X1268Y1306D02*
X1322Y1306D01*
X1338Y1306D02*
X1361Y1306D01*
X1229Y1305D02*
X1254Y1305D01*
X1266Y1305D02*
X1324Y1305D01*
X1336Y1305D02*
X1362Y1305D01*
X1228Y1304D02*
X1255Y1304D01*
X1264Y1304D02*
X1326Y1304D01*
X1335Y1304D02*
X1363Y1304D01*
X1228Y1303D02*
X1257Y1303D01*
X1263Y1303D02*
X1328Y1303D01*
X1333Y1303D02*
X1362Y1303D01*
X1228Y1302D02*
X1258Y1302D01*
X1261Y1302D02*
X1329Y1302D01*
X1332Y1302D02*
X1362Y1302D01*
X1229Y1301D02*
X1361Y1301D01*
X1230Y1300D02*
X1360Y1300D01*
X1231Y1299D02*
X1360Y1299D01*
X1231Y1298D02*
X1359Y1298D01*
X1232Y1297D02*
X1358Y1297D01*
X1233Y1296D02*
X1358Y1296D01*
X1233Y1295D02*
X1357Y1295D01*
X1234Y1294D02*
X1356Y1294D01*
X1235Y1293D02*
X1356Y1293D01*
X1235Y1292D02*
X1355Y1292D01*
X1236Y1291D02*
X1354Y1291D01*
X1237Y1290D02*
X1354Y1290D01*
X1237Y1289D02*
X1353Y1289D01*
X1238Y1288D02*
X1352Y1288D01*
X1239Y1287D02*
X1351Y1287D01*
X1239Y1286D02*
X1351Y1286D01*
X1240Y1285D02*
X1350Y1285D01*
X1241Y1284D02*
X1349Y1284D01*
X1241Y1283D02*
X1349Y1283D01*
X1241Y1282D02*
X1350Y1282D01*
X1240Y1281D02*
X1350Y1281D01*
X1239Y1280D02*
X1351Y1280D01*
X1239Y1279D02*
X1352Y1279D01*
X1238Y1278D02*
X1288Y1278D01*
X1302Y1278D02*
X1352Y1278D01*
X1238Y1277D02*
X1285Y1277D01*
X1306Y1277D02*
X1353Y1277D01*
X1237Y1276D02*
X1282Y1276D01*
X1308Y1276D02*
X1353Y1276D01*
X1237Y1275D02*
X1280Y1275D01*
X1310Y1275D02*
X1354Y1275D01*
X1236Y1274D02*
X1278Y1274D01*
X1312Y1274D02*
X1354Y1274D01*
X1236Y1273D02*
X1277Y1273D01*
X1314Y1273D02*
X1355Y1273D01*
X1235Y1272D02*
X1275Y1272D01*
X1315Y1272D02*
X1355Y1272D01*
X1235Y1271D02*
X1274Y1271D01*
X1316Y1271D02*
X1355Y1271D01*
X1234Y1270D02*
X1273Y1270D01*
X1317Y1270D02*
X1356Y1270D01*
X1234Y1269D02*
X1272Y1269D01*
X1318Y1269D02*
X1356Y1269D01*
X1234Y1268D02*
X1271Y1268D01*
X1319Y1268D02*
X1357Y1268D01*
X1233Y1267D02*
X1270Y1267D01*
X1320Y1267D02*
X1357Y1267D01*
X1233Y1266D02*
X1269Y1266D01*
X1321Y1266D02*
X1357Y1266D01*
X1233Y1265D02*
X1269Y1265D01*
X1322Y1265D02*
X1358Y1265D01*
X1232Y1264D02*
X1268Y1264D01*
X1322Y1264D02*
X1358Y1264D01*
X1232Y1263D02*
X1267Y1263D01*
X1323Y1263D02*
X1358Y1263D01*
X1232Y1262D02*
X1267Y1262D01*
X1323Y1262D02*
X1358Y1262D01*
X1232Y1261D02*
X1266Y1261D01*
X1324Y1261D02*
X1359Y1261D01*
X1229Y1260D02*
X1266Y1260D01*
X1324Y1260D02*
X1361Y1260D01*
X1224Y1259D02*
X1266Y1259D01*
X1325Y1259D02*
X1366Y1259D01*
X1219Y1258D02*
X1265Y1258D01*
X1325Y1258D02*
X1372Y1258D01*
X1213Y1257D02*
X1265Y1257D01*
X1325Y1257D02*
X1377Y1257D01*
X1208Y1256D02*
X1264Y1256D01*
X1326Y1256D02*
X1382Y1256D01*
X1208Y1255D02*
X1264Y1255D01*
X1326Y1255D02*
X1383Y1255D01*
X1208Y1254D02*
X1264Y1254D01*
X1326Y1254D02*
X1383Y1254D01*
X1208Y1253D02*
X1264Y1253D01*
X1326Y1253D02*
X1383Y1253D01*
X1208Y1252D02*
X1264Y1252D01*
X1327Y1252D02*
X1383Y1252D01*
X1208Y1251D02*
X1263Y1251D01*
X1327Y1251D02*
X1383Y1251D01*
X1208Y1250D02*
X1263Y1250D01*
X1327Y1250D02*
X1383Y1250D01*
X1208Y1249D02*
X1263Y1249D01*
X1327Y1249D02*
X1383Y1249D01*
X1208Y1248D02*
X1263Y1248D01*
X1327Y1248D02*
X1383Y1248D01*
X1208Y1247D02*
X1263Y1247D01*
X1327Y1247D02*
X1383Y1247D01*
X1208Y1246D02*
X1263Y1246D01*
X1327Y1246D02*
X1383Y1246D01*
X1208Y1245D02*
X1263Y1245D01*
X1327Y1245D02*
X1383Y1245D01*
X1208Y1244D02*
X1263Y1244D01*
X1327Y1244D02*
X1383Y1244D01*
X1208Y1243D02*
X1264Y1243D01*
X1327Y1243D02*
X1383Y1243D01*
X1208Y1242D02*
X1264Y1242D01*
X1327Y1242D02*
X1383Y1242D01*
X1208Y1241D02*
X1264Y1241D01*
X1326Y1241D02*
X1383Y1241D01*
X1208Y1240D02*
X1264Y1240D01*
X1326Y1240D02*
X1383Y1240D01*
X1208Y1239D02*
X1264Y1239D01*
X1326Y1239D02*
X1382Y1239D01*
X1213Y1238D02*
X1265Y1238D01*
X1326Y1238D02*
X1378Y1238D01*
X1218Y1237D02*
X1265Y1237D01*
X1325Y1237D02*
X1372Y1237D01*
X1223Y1236D02*
X1265Y1236D01*
X1325Y1236D02*
X1367Y1236D01*
X1229Y1235D02*
X1266Y1235D01*
X1324Y1235D02*
X1362Y1235D01*
X1231Y1234D02*
X1266Y1234D01*
X1324Y1234D02*
X1359Y1234D01*
X1231Y1233D02*
X1267Y1233D01*
X1324Y1233D02*
X1359Y1233D01*
X1232Y1232D02*
X1267Y1232D01*
X1323Y1232D02*
X1359Y1232D01*
X1232Y1231D02*
X1268Y1231D01*
X1322Y1231D02*
X1358Y1231D01*
X1232Y1230D02*
X1268Y1230D01*
X1322Y1230D02*
X1358Y1230D01*
X1232Y1229D02*
X1269Y1229D01*
X1321Y1229D02*
X1358Y1229D01*
X1233Y1228D02*
X1270Y1228D01*
X1320Y1228D02*
X1358Y1228D01*
X1233Y1227D02*
X1271Y1227D01*
X1320Y1227D02*
X1357Y1227D01*
X1233Y1226D02*
X1272Y1226D01*
X1319Y1226D02*
X1357Y1226D01*
X1234Y1225D02*
X1273Y1225D01*
X1318Y1225D02*
X1357Y1225D01*
X1234Y1224D02*
X1274Y1224D01*
X1317Y1224D02*
X1356Y1224D01*
X1234Y1223D02*
X1275Y1223D01*
X1315Y1223D02*
X1356Y1223D01*
X1235Y1222D02*
X1276Y1222D01*
X1314Y1222D02*
X1356Y1222D01*
X1235Y1221D02*
X1278Y1221D01*
X1313Y1221D02*
X1355Y1221D01*
X1236Y1220D02*
X1278Y1220D01*
X1312Y1220D02*
X1355Y1220D01*
X1236Y1219D02*
X1278Y1219D01*
X1313Y1219D02*
X1354Y1219D01*
X1236Y1218D02*
X1277Y1218D01*
X1313Y1218D02*
X1354Y1218D01*
X1237Y1217D02*
X1277Y1217D01*
X1313Y1217D02*
X1353Y1217D01*
X1237Y1216D02*
X1276Y1216D01*
X1314Y1216D02*
X1353Y1216D01*
X1238Y1215D02*
X1276Y1215D01*
X1314Y1215D02*
X1352Y1215D01*
X1239Y1214D02*
X1276Y1214D01*
X1315Y1214D02*
X1352Y1214D01*
X1239Y1213D02*
X1275Y1213D01*
X1315Y1213D02*
X1351Y1213D01*
X1240Y1212D02*
X1275Y1212D01*
X1315Y1212D02*
X1350Y1212D01*
X1240Y1211D02*
X1274Y1211D01*
X1316Y1211D02*
X1350Y1211D01*
X1240Y1210D02*
X1274Y1210D01*
X1316Y1210D02*
X1350Y1210D01*
X1240Y1209D02*
X1274Y1209D01*
X1317Y1209D02*
X1351Y1209D01*
X1239Y1208D02*
X1273Y1208D01*
X1317Y1208D02*
X1351Y1208D01*
X1238Y1207D02*
X1273Y1207D01*
X1318Y1207D02*
X1352Y1207D01*
X1237Y1206D02*
X1272Y1206D01*
X1318Y1206D02*
X1353Y1206D01*
X1237Y1205D02*
X1272Y1205D01*
X1318Y1205D02*
X1353Y1205D01*
X1236Y1204D02*
X1271Y1204D01*
X1319Y1204D02*
X1354Y1204D01*
X1235Y1203D02*
X1271Y1203D01*
X1319Y1203D02*
X1355Y1203D01*
X1235Y1202D02*
X1271Y1202D01*
X1320Y1202D02*
X1356Y1202D01*
X1234Y1201D02*
X1270Y1201D01*
X1320Y1201D02*
X1356Y1201D01*
X1233Y1200D02*
X1270Y1200D01*
X1320Y1200D02*
X1357Y1200D01*
X1233Y1199D02*
X1269Y1199D01*
X1321Y1199D02*
X1358Y1199D01*
X1232Y1198D02*
X1269Y1198D01*
X1321Y1198D02*
X1358Y1198D01*
X1231Y1197D02*
X1269Y1197D01*
X1322Y1197D02*
X1359Y1197D01*
X1231Y1196D02*
X1268Y1196D01*
X1322Y1196D02*
X1360Y1196D01*
X1230Y1195D02*
X1268Y1195D01*
X1323Y1195D02*
X1360Y1195D01*
X1229Y1194D02*
X1267Y1194D01*
X1323Y1194D02*
X1361Y1194D01*
X1229Y1193D02*
X1267Y1193D01*
X1323Y1193D02*
X1362Y1193D01*
X1228Y1192D02*
X1257Y1192D01*
X1259Y1192D02*
X1266Y1192D01*
X1324Y1192D02*
X1331Y1192D01*
X1333Y1192D02*
X1362Y1192D01*
X1228Y1191D02*
X1256Y1191D01*
X1261Y1191D02*
X1266Y1191D01*
X1324Y1191D02*
X1330Y1191D01*
X1335Y1191D02*
X1363Y1191D01*
X1229Y1190D02*
X1254Y1190D01*
X1262Y1190D02*
X1266Y1190D01*
X1325Y1190D02*
X1328Y1190D01*
X1336Y1190D02*
X1362Y1190D01*
X1230Y1189D02*
X1253Y1189D01*
X1264Y1189D02*
X1265Y1189D01*
X1325Y1189D02*
X1326Y1189D01*
X1338Y1189D02*
X1361Y1189D01*
X1231Y1188D02*
X1251Y1188D01*
X1339Y1188D02*
X1360Y1188D01*
X1232Y1187D02*
X1250Y1187D01*
X1340Y1187D02*
X1359Y1187D01*
X1233Y1186D02*
X1248Y1186D01*
X1342Y1186D02*
X1358Y1186D01*
X1234Y1185D02*
X1247Y1185D01*
X1343Y1185D02*
X1357Y1185D01*
X1235Y1184D02*
X1245Y1184D01*
X1345Y1184D02*
X1356Y1184D01*
X1236Y1183D02*
X1244Y1183D01*
X1346Y1183D02*
X1355Y1183D01*
X1237Y1182D02*
X1243Y1182D01*
X1348Y1182D02*
X1354Y1182D01*
X1238Y1181D02*
X1241Y1181D01*
X1349Y1181D02*
X1353Y1181D01*
X1239Y1180D02*
X1240Y1180D01*
X1351Y1180D02*
X1352Y1180D01*
X1271Y1166D02*
X1271Y1166D01*
X1334Y1166D02*
X1334Y1166D01*
X1269Y1165D02*
X1271Y1165D01*
X1332Y1165D02*
X1334Y1165D01*
X1269Y1164D02*
X1271Y1164D01*
X1332Y1164D02*
X1334Y1164D01*
X1269Y1163D02*
X1271Y1163D01*
X1332Y1163D02*
X1334Y1163D01*
X1269Y1162D02*
X1271Y1162D01*
X1332Y1162D02*
X1334Y1162D01*
X1269Y1161D02*
X1271Y1161D01*
X1332Y1161D02*
X1334Y1161D01*
X1187Y1160D02*
X1193Y1160D01*
X1206Y1160D02*
X1211Y1160D01*
X1224Y1160D02*
X1230Y1160D01*
X1243Y1160D02*
X1248Y1160D01*
X1269Y1160D02*
X1271Y1160D01*
X1332Y1160D02*
X1334Y1160D01*
X1186Y1159D02*
X1194Y1159D01*
X1204Y1159D02*
X1213Y1159D01*
X1223Y1159D02*
X1231Y1159D01*
X1241Y1159D02*
X1250Y1159D01*
X1269Y1159D02*
X1271Y1159D01*
X1273Y1159D02*
X1278Y1159D01*
X1291Y1159D02*
X1296Y1159D01*
X1308Y1159D02*
X1313Y1159D01*
X1326Y1159D02*
X1334Y1159D01*
X1339Y1159D02*
X1340Y1159D01*
X1346Y1159D02*
X1347Y1159D01*
X1353Y1159D02*
X1353Y1159D01*
X1361Y1159D02*
X1366Y1159D01*
X1378Y1159D02*
X1383Y1159D01*
X1396Y1159D02*
X1401Y1159D01*
X1185Y1158D02*
X1195Y1158D01*
X1203Y1158D02*
X1214Y1158D01*
X1222Y1158D02*
X1232Y1158D01*
X1240Y1158D02*
X1251Y1158D01*
X1269Y1158D02*
X1279Y1158D01*
X1289Y1158D02*
X1297Y1158D01*
X1307Y1158D02*
X1314Y1158D01*
X1324Y1158D02*
X1334Y1158D01*
X1338Y1158D02*
X1340Y1158D01*
X1345Y1158D02*
X1347Y1158D01*
X1352Y1158D02*
X1353Y1158D01*
X1359Y1158D02*
X1367Y1158D01*
X1377Y1158D02*
X1385Y1158D01*
X1394Y1158D02*
X1402Y1158D01*
X1184Y1157D02*
X1196Y1157D01*
X1203Y1157D02*
X1214Y1157D01*
X1221Y1157D02*
X1233Y1157D01*
X1240Y1157D02*
X1251Y1157D01*
X1269Y1157D02*
X1280Y1157D01*
X1288Y1157D02*
X1298Y1157D01*
X1306Y1157D02*
X1315Y1157D01*
X1323Y1157D02*
X1334Y1157D01*
X1338Y1157D02*
X1340Y1157D01*
X1345Y1157D02*
X1347Y1157D01*
X1351Y1157D02*
X1353Y1157D01*
X1359Y1157D02*
X1368Y1157D01*
X1376Y1157D02*
X1385Y1157D01*
X1393Y1157D02*
X1403Y1157D01*
X1184Y1156D02*
X1188Y1156D01*
X1193Y1156D02*
X1196Y1156D01*
X1202Y1156D02*
X1206Y1156D01*
X1211Y1156D02*
X1215Y1156D01*
X1221Y1156D02*
X1224Y1156D01*
X1230Y1156D02*
X1233Y1156D01*
X1239Y1156D02*
X1243Y1156D01*
X1248Y1156D02*
X1252Y1156D01*
X1269Y1156D02*
X1273Y1156D01*
X1278Y1156D02*
X1281Y1156D01*
X1288Y1156D02*
X1290Y1156D01*
X1296Y1156D02*
X1299Y1156D01*
X1305Y1156D02*
X1308Y1156D01*
X1313Y1156D02*
X1316Y1156D01*
X1323Y1156D02*
X1325Y1156D01*
X1331Y1156D02*
X1334Y1156D01*
X1338Y1156D02*
X1340Y1156D01*
X1345Y1156D02*
X1347Y1156D01*
X1351Y1156D02*
X1353Y1156D01*
X1358Y1156D02*
X1360Y1156D01*
X1366Y1156D02*
X1369Y1156D01*
X1375Y1156D02*
X1378Y1156D01*
X1383Y1156D02*
X1386Y1156D01*
X1393Y1156D02*
X1395Y1156D01*
X1401Y1156D02*
X1404Y1156D01*
X1184Y1155D02*
X1187Y1155D01*
X1194Y1155D02*
X1197Y1155D01*
X1202Y1155D02*
X1205Y1155D01*
X1212Y1155D02*
X1215Y1155D01*
X1220Y1155D02*
X1224Y1155D01*
X1230Y1155D02*
X1234Y1155D01*
X1239Y1155D02*
X1242Y1155D01*
X1249Y1155D02*
X1252Y1155D01*
X1269Y1155D02*
X1272Y1155D01*
X1279Y1155D02*
X1281Y1155D01*
X1287Y1155D02*
X1289Y1155D01*
X1297Y1155D02*
X1299Y1155D01*
X1305Y1155D02*
X1307Y1155D01*
X1314Y1155D02*
X1316Y1155D01*
X1322Y1155D02*
X1324Y1155D01*
X1332Y1155D02*
X1334Y1155D01*
X1338Y1155D02*
X1340Y1155D01*
X1345Y1155D02*
X1347Y1155D01*
X1351Y1155D02*
X1353Y1155D01*
X1357Y1155D02*
X1359Y1155D01*
X1367Y1155D02*
X1369Y1155D01*
X1375Y1155D02*
X1377Y1155D01*
X1384Y1155D02*
X1387Y1155D01*
X1392Y1155D02*
X1394Y1155D01*
X1402Y1155D02*
X1404Y1155D01*
X1183Y1154D02*
X1186Y1154D01*
X1194Y1154D02*
X1197Y1154D01*
X1202Y1154D02*
X1205Y1154D01*
X1212Y1154D02*
X1215Y1154D01*
X1220Y1154D02*
X1223Y1154D01*
X1230Y1154D02*
X1234Y1154D01*
X1239Y1154D02*
X1242Y1154D01*
X1249Y1154D02*
X1252Y1154D01*
X1269Y1154D02*
X1271Y1154D01*
X1280Y1154D02*
X1282Y1154D01*
X1287Y1154D02*
X1289Y1154D01*
X1297Y1154D02*
X1299Y1154D01*
X1305Y1154D02*
X1306Y1154D01*
X1315Y1154D02*
X1317Y1154D01*
X1322Y1154D02*
X1324Y1154D01*
X1332Y1154D02*
X1334Y1154D01*
X1338Y1154D02*
X1340Y1154D01*
X1345Y1154D02*
X1347Y1154D01*
X1351Y1154D02*
X1353Y1154D01*
X1357Y1154D02*
X1359Y1154D01*
X1367Y1154D02*
X1369Y1154D01*
X1375Y1154D02*
X1376Y1154D01*
X1385Y1154D02*
X1387Y1154D01*
X1392Y1154D02*
X1394Y1154D01*
X1402Y1154D02*
X1404Y1154D01*
X1183Y1153D02*
X1186Y1153D01*
X1194Y1153D02*
X1197Y1153D01*
X1202Y1153D02*
X1205Y1153D01*
X1212Y1153D02*
X1215Y1153D01*
X1220Y1153D02*
X1223Y1153D01*
X1228Y1153D02*
X1234Y1153D01*
X1239Y1153D02*
X1242Y1153D01*
X1249Y1153D02*
X1252Y1153D01*
X1269Y1153D02*
X1271Y1153D01*
X1280Y1153D02*
X1282Y1153D01*
X1287Y1153D02*
X1289Y1153D01*
X1297Y1153D02*
X1299Y1153D01*
X1304Y1153D02*
X1306Y1153D01*
X1315Y1153D02*
X1317Y1153D01*
X1322Y1153D02*
X1324Y1153D01*
X1332Y1153D02*
X1334Y1153D01*
X1338Y1153D02*
X1340Y1153D01*
X1345Y1153D02*
X1347Y1153D01*
X1351Y1153D02*
X1353Y1153D01*
X1357Y1153D02*
X1359Y1153D01*
X1367Y1153D02*
X1369Y1153D01*
X1375Y1153D02*
X1376Y1153D01*
X1385Y1153D02*
X1387Y1153D01*
X1392Y1153D02*
X1394Y1153D01*
X1402Y1153D02*
X1404Y1153D01*
X1183Y1152D02*
X1186Y1152D01*
X1194Y1152D02*
X1197Y1152D01*
X1202Y1152D02*
X1205Y1152D01*
X1212Y1152D02*
X1215Y1152D01*
X1220Y1152D02*
X1223Y1152D01*
X1226Y1152D02*
X1234Y1152D01*
X1239Y1152D02*
X1242Y1152D01*
X1249Y1152D02*
X1252Y1152D01*
X1269Y1152D02*
X1271Y1152D01*
X1280Y1152D02*
X1282Y1152D01*
X1287Y1152D02*
X1287Y1152D01*
X1295Y1152D02*
X1299Y1152D01*
X1304Y1152D02*
X1306Y1152D01*
X1315Y1152D02*
X1315Y1152D01*
X1322Y1152D02*
X1324Y1152D01*
X1332Y1152D02*
X1334Y1152D01*
X1338Y1152D02*
X1340Y1152D01*
X1345Y1152D02*
X1347Y1152D01*
X1351Y1152D02*
X1353Y1152D01*
X1357Y1152D02*
X1357Y1152D01*
X1365Y1152D02*
X1369Y1152D01*
X1375Y1152D02*
X1376Y1152D01*
X1385Y1152D02*
X1385Y1152D01*
X1392Y1152D02*
X1394Y1152D01*
X1400Y1152D02*
X1404Y1152D01*
X1183Y1151D02*
X1186Y1151D01*
X1194Y1151D02*
X1197Y1151D01*
X1202Y1151D02*
X1205Y1151D01*
X1212Y1151D02*
X1215Y1151D01*
X1220Y1151D02*
X1232Y1151D01*
X1239Y1151D02*
X1242Y1151D01*
X1249Y1151D02*
X1252Y1151D01*
X1269Y1151D02*
X1271Y1151D01*
X1280Y1151D02*
X1282Y1151D01*
X1293Y1151D02*
X1299Y1151D01*
X1304Y1151D02*
X1306Y1151D01*
X1322Y1151D02*
X1324Y1151D01*
X1332Y1151D02*
X1334Y1151D01*
X1338Y1151D02*
X1340Y1151D01*
X1345Y1151D02*
X1347Y1151D01*
X1351Y1151D02*
X1353Y1151D01*
X1363Y1151D02*
X1369Y1151D01*
X1375Y1151D02*
X1376Y1151D01*
X1392Y1151D02*
X1394Y1151D01*
X1398Y1151D02*
X1403Y1151D01*
X1183Y1150D02*
X1186Y1150D01*
X1194Y1150D02*
X1197Y1150D01*
X1202Y1150D02*
X1205Y1150D01*
X1212Y1150D02*
X1215Y1150D01*
X1220Y1150D02*
X1230Y1150D01*
X1239Y1150D02*
X1242Y1150D01*
X1249Y1150D02*
X1252Y1150D01*
X1269Y1150D02*
X1271Y1150D01*
X1280Y1150D02*
X1282Y1150D01*
X1290Y1150D02*
X1299Y1150D01*
X1304Y1150D02*
X1306Y1150D01*
X1322Y1150D02*
X1324Y1150D01*
X1332Y1150D02*
X1334Y1150D01*
X1338Y1150D02*
X1340Y1150D01*
X1345Y1150D02*
X1347Y1150D01*
X1351Y1150D02*
X1353Y1150D01*
X1361Y1150D02*
X1369Y1150D01*
X1375Y1150D02*
X1376Y1150D01*
X1392Y1150D02*
X1401Y1150D01*
X1183Y1149D02*
X1186Y1149D01*
X1194Y1149D02*
X1197Y1149D01*
X1202Y1149D02*
X1205Y1149D01*
X1212Y1149D02*
X1215Y1149D01*
X1220Y1149D02*
X1228Y1149D01*
X1233Y1149D02*
X1234Y1149D01*
X1239Y1149D02*
X1242Y1149D01*
X1249Y1149D02*
X1252Y1149D01*
X1269Y1149D02*
X1271Y1149D01*
X1280Y1149D02*
X1282Y1149D01*
X1289Y1149D02*
X1294Y1149D01*
X1297Y1149D02*
X1299Y1149D01*
X1304Y1149D02*
X1306Y1149D01*
X1322Y1149D02*
X1324Y1149D01*
X1332Y1149D02*
X1334Y1149D01*
X1338Y1149D02*
X1340Y1149D01*
X1345Y1149D02*
X1347Y1149D01*
X1351Y1149D02*
X1353Y1149D01*
X1359Y1149D02*
X1365Y1149D01*
X1367Y1149D02*
X1369Y1149D01*
X1375Y1149D02*
X1376Y1149D01*
X1392Y1149D02*
X1399Y1149D01*
X1183Y1148D02*
X1186Y1148D01*
X1194Y1148D02*
X1197Y1148D01*
X1202Y1148D02*
X1205Y1148D01*
X1212Y1148D02*
X1215Y1148D01*
X1220Y1148D02*
X1226Y1148D01*
X1231Y1148D02*
X1234Y1148D01*
X1239Y1148D02*
X1242Y1148D01*
X1249Y1148D02*
X1252Y1148D01*
X1269Y1148D02*
X1271Y1148D01*
X1280Y1148D02*
X1282Y1148D01*
X1288Y1148D02*
X1292Y1148D01*
X1297Y1148D02*
X1299Y1148D01*
X1304Y1148D02*
X1306Y1148D01*
X1322Y1148D02*
X1324Y1148D01*
X1332Y1148D02*
X1334Y1148D01*
X1338Y1148D02*
X1340Y1148D01*
X1345Y1148D02*
X1347Y1148D01*
X1351Y1148D02*
X1353Y1148D01*
X1358Y1148D02*
X1362Y1148D01*
X1367Y1148D02*
X1369Y1148D01*
X1375Y1148D02*
X1376Y1148D01*
X1392Y1148D02*
X1397Y1148D01*
X1183Y1147D02*
X1186Y1147D01*
X1194Y1147D02*
X1197Y1147D01*
X1202Y1147D02*
X1205Y1147D01*
X1212Y1147D02*
X1215Y1147D01*
X1220Y1147D02*
X1224Y1147D01*
X1231Y1147D02*
X1234Y1147D01*
X1239Y1147D02*
X1242Y1147D01*
X1249Y1147D02*
X1252Y1147D01*
X1269Y1147D02*
X1271Y1147D01*
X1280Y1147D02*
X1282Y1147D01*
X1287Y1147D02*
X1290Y1147D01*
X1297Y1147D02*
X1299Y1147D01*
X1304Y1147D02*
X1306Y1147D01*
X1322Y1147D02*
X1324Y1147D01*
X1332Y1147D02*
X1334Y1147D01*
X1338Y1147D02*
X1340Y1147D01*
X1345Y1147D02*
X1347Y1147D01*
X1351Y1147D02*
X1353Y1147D01*
X1357Y1147D02*
X1360Y1147D01*
X1367Y1147D02*
X1369Y1147D01*
X1375Y1147D02*
X1376Y1147D01*
X1392Y1147D02*
X1394Y1147D01*
X1403Y1147D02*
X1404Y1147D01*
X1184Y1146D02*
X1187Y1146D01*
X1194Y1146D02*
X1197Y1146D01*
X1202Y1146D02*
X1205Y1146D01*
X1212Y1146D02*
X1215Y1146D01*
X1220Y1146D02*
X1224Y1146D01*
X1231Y1146D02*
X1234Y1146D01*
X1239Y1146D02*
X1242Y1146D01*
X1249Y1146D02*
X1252Y1146D01*
X1269Y1146D02*
X1271Y1146D01*
X1280Y1146D02*
X1282Y1146D01*
X1287Y1146D02*
X1289Y1146D01*
X1297Y1146D02*
X1299Y1146D01*
X1304Y1146D02*
X1306Y1146D01*
X1322Y1146D02*
X1324Y1146D01*
X1332Y1146D02*
X1334Y1146D01*
X1338Y1146D02*
X1340Y1146D01*
X1345Y1146D02*
X1347Y1146D01*
X1351Y1146D02*
X1353Y1146D01*
X1357Y1146D02*
X1359Y1146D01*
X1367Y1146D02*
X1369Y1146D01*
X1375Y1146D02*
X1376Y1146D01*
X1392Y1146D02*
X1394Y1146D01*
X1402Y1146D02*
X1404Y1146D01*
X1184Y1145D02*
X1187Y1145D01*
X1193Y1145D02*
X1197Y1145D01*
X1202Y1145D02*
X1206Y1145D01*
X1211Y1145D02*
X1215Y1145D01*
X1221Y1145D02*
X1224Y1145D01*
X1230Y1145D02*
X1233Y1145D01*
X1239Y1145D02*
X1242Y1145D01*
X1249Y1145D02*
X1252Y1145D01*
X1269Y1145D02*
X1271Y1145D01*
X1280Y1145D02*
X1282Y1145D01*
X1287Y1145D02*
X1289Y1145D01*
X1297Y1145D02*
X1299Y1145D01*
X1304Y1145D02*
X1306Y1145D01*
X1322Y1145D02*
X1324Y1145D01*
X1332Y1145D02*
X1334Y1145D01*
X1338Y1145D02*
X1340Y1145D01*
X1345Y1145D02*
X1347Y1145D01*
X1351Y1145D02*
X1353Y1145D01*
X1357Y1145D02*
X1359Y1145D01*
X1367Y1145D02*
X1369Y1145D01*
X1375Y1145D02*
X1376Y1145D01*
X1392Y1145D02*
X1394Y1145D01*
X1402Y1145D02*
X1404Y1145D01*
X1184Y1144D02*
X1189Y1144D01*
X1191Y1144D02*
X1196Y1144D01*
X1202Y1144D02*
X1208Y1144D01*
X1210Y1144D02*
X1215Y1144D01*
X1221Y1144D02*
X1226Y1144D01*
X1228Y1144D02*
X1233Y1144D01*
X1239Y1144D02*
X1242Y1144D01*
X1249Y1144D02*
X1252Y1144D01*
X1269Y1144D02*
X1271Y1144D01*
X1280Y1144D02*
X1282Y1144D01*
X1287Y1144D02*
X1289Y1144D01*
X1297Y1144D02*
X1299Y1144D01*
X1304Y1144D02*
X1306Y1144D01*
X1322Y1144D02*
X1325Y1144D01*
X1331Y1144D02*
X1334Y1144D01*
X1338Y1144D02*
X1340Y1144D01*
X1345Y1144D02*
X1347Y1144D01*
X1351Y1144D02*
X1353Y1144D01*
X1357Y1144D02*
X1359Y1144D01*
X1367Y1144D02*
X1369Y1144D01*
X1375Y1144D02*
X1376Y1144D01*
X1393Y1144D02*
X1395Y1144D01*
X1401Y1144D02*
X1404Y1144D01*
X1185Y1143D02*
X1196Y1143D01*
X1202Y1143D02*
X1214Y1143D01*
X1222Y1143D02*
X1232Y1143D01*
X1239Y1143D02*
X1242Y1143D01*
X1249Y1143D02*
X1252Y1143D01*
X1269Y1143D02*
X1271Y1143D01*
X1280Y1143D02*
X1282Y1143D01*
X1287Y1143D02*
X1291Y1143D01*
X1294Y1143D02*
X1294Y1143D01*
X1297Y1143D02*
X1299Y1143D01*
X1304Y1143D02*
X1306Y1143D01*
X1323Y1143D02*
X1327Y1143D01*
X1330Y1143D02*
X1333Y1143D01*
X1338Y1143D02*
X1341Y1143D01*
X1344Y1143D02*
X1348Y1143D01*
X1350Y1143D02*
X1353Y1143D01*
X1358Y1143D02*
X1361Y1143D01*
X1364Y1143D02*
X1364Y1143D01*
X1367Y1143D02*
X1369Y1143D01*
X1375Y1143D02*
X1376Y1143D01*
X1393Y1143D02*
X1397Y1143D01*
X1400Y1143D02*
X1403Y1143D01*
X1186Y1142D02*
X1195Y1142D01*
X1202Y1142D02*
X1213Y1142D01*
X1222Y1142D02*
X1231Y1142D01*
X1239Y1142D02*
X1242Y1142D01*
X1249Y1142D02*
X1252Y1142D01*
X1269Y1142D02*
X1271Y1142D01*
X1280Y1142D02*
X1282Y1142D01*
X1288Y1142D02*
X1294Y1142D01*
X1297Y1142D02*
X1299Y1142D01*
X1304Y1142D02*
X1306Y1142D01*
X1324Y1142D02*
X1332Y1142D01*
X1339Y1142D02*
X1352Y1142D01*
X1358Y1142D02*
X1365Y1142D01*
X1367Y1142D02*
X1369Y1142D01*
X1375Y1142D02*
X1376Y1142D01*
X1394Y1142D02*
X1402Y1142D01*
X1187Y1141D02*
X1193Y1141D01*
X1202Y1141D02*
X1212Y1141D01*
X1224Y1141D02*
X1230Y1141D01*
X1239Y1141D02*
X1241Y1141D01*
X1249Y1141D02*
X1251Y1141D01*
X1269Y1141D02*
X1271Y1141D01*
X1280Y1141D02*
X1281Y1141D01*
X1289Y1141D02*
X1295Y1141D01*
X1297Y1141D02*
X1299Y1141D01*
X1304Y1141D02*
X1306Y1141D01*
X1325Y1141D02*
X1331Y1141D01*
X1340Y1141D02*
X1351Y1141D01*
X1359Y1141D02*
X1365Y1141D01*
X1367Y1141D02*
X1369Y1141D01*
X1375Y1141D02*
X1376Y1141D01*
X1395Y1141D02*
X1401Y1141D01*
X1190Y1140D02*
X1191Y1140D01*
X1202Y1140D02*
X1205Y1140D01*
X1208Y1140D02*
X1209Y1140D01*
X1227Y1140D02*
X1227Y1140D01*
X1239Y1140D02*
X1239Y1140D01*
X1249Y1140D02*
X1249Y1140D01*
X1292Y1140D02*
X1293Y1140D01*
X1328Y1140D02*
X1328Y1140D01*
X1342Y1140D02*
X1342Y1140D01*
X1349Y1140D02*
X1349Y1140D01*
X1362Y1140D02*
X1363Y1140D01*
X1398Y1140D02*
X1398Y1140D01*
X1202Y1139D02*
X1205Y1139D01*
X1202Y1138D02*
X1205Y1138D01*
X1202Y1137D02*
X1205Y1137D01*
X1202Y1136D02*
X1205Y1136D01*
X1202Y1135D02*
X1205Y1135D01*
X1202Y1134D02*
X1204Y1134D01*
X1265Y996D02*
X1267Y996D01*
X1303Y996D02*
X1314Y996D01*
X1326Y996D02*
X1336Y996D01*
X1386Y996D02*
X1388Y996D01*
X1402Y996D02*
X1404Y996D01*
X1417Y996D02*
X1433Y996D01*
X1265Y995D02*
X1268Y995D01*
X1301Y995D02*
X1314Y995D01*
X1325Y995D02*
X1338Y995D01*
X1385Y995D02*
X1388Y995D01*
X1402Y995D02*
X1405Y995D01*
X1416Y995D02*
X1434Y995D01*
X1265Y994D02*
X1268Y994D01*
X1300Y994D02*
X1314Y994D01*
X1325Y994D02*
X1339Y994D01*
X1385Y994D02*
X1388Y994D01*
X1402Y994D02*
X1405Y994D01*
X1416Y994D02*
X1435Y994D01*
X1265Y993D02*
X1268Y993D01*
X1300Y993D02*
X1314Y993D01*
X1325Y993D02*
X1339Y993D01*
X1385Y993D02*
X1388Y993D01*
X1402Y993D02*
X1405Y993D01*
X1415Y993D02*
X1435Y993D01*
X1265Y992D02*
X1268Y992D01*
X1299Y992D02*
X1303Y992D01*
X1329Y992D02*
X1332Y992D01*
X1336Y992D02*
X1340Y992D01*
X1385Y992D02*
X1388Y992D01*
X1402Y992D02*
X1405Y992D01*
X1415Y992D02*
X1419Y992D01*
X1432Y992D02*
X1435Y992D01*
X1265Y991D02*
X1268Y991D01*
X1299Y991D02*
X1303Y991D01*
X1329Y991D02*
X1332Y991D01*
X1337Y991D02*
X1340Y991D01*
X1385Y991D02*
X1388Y991D01*
X1402Y991D02*
X1405Y991D01*
X1415Y991D02*
X1418Y991D01*
X1432Y991D02*
X1435Y991D01*
X1265Y990D02*
X1268Y990D01*
X1298Y990D02*
X1302Y990D01*
X1329Y990D02*
X1332Y990D01*
X1337Y990D02*
X1341Y990D01*
X1385Y990D02*
X1388Y990D01*
X1402Y990D02*
X1405Y990D01*
X1415Y990D02*
X1418Y990D01*
X1432Y990D02*
X1435Y990D01*
X1265Y989D02*
X1268Y989D01*
X1298Y989D02*
X1302Y989D01*
X1329Y989D02*
X1332Y989D01*
X1338Y989D02*
X1341Y989D01*
X1385Y989D02*
X1388Y989D01*
X1402Y989D02*
X1405Y989D01*
X1415Y989D02*
X1418Y989D01*
X1432Y989D02*
X1435Y989D01*
X1265Y988D02*
X1268Y988D01*
X1297Y988D02*
X1301Y988D01*
X1329Y988D02*
X1332Y988D01*
X1338Y988D02*
X1342Y988D01*
X1385Y988D02*
X1388Y988D01*
X1402Y988D02*
X1405Y988D01*
X1415Y988D02*
X1418Y988D01*
X1432Y988D02*
X1435Y988D01*
X1265Y987D02*
X1268Y987D01*
X1297Y987D02*
X1301Y987D01*
X1329Y987D02*
X1332Y987D01*
X1339Y987D02*
X1342Y987D01*
X1385Y987D02*
X1389Y987D01*
X1401Y987D02*
X1405Y987D01*
X1415Y987D02*
X1418Y987D01*
X1432Y987D02*
X1435Y987D01*
X1265Y986D02*
X1268Y986D01*
X1296Y986D02*
X1300Y986D01*
X1329Y986D02*
X1332Y986D01*
X1339Y986D02*
X1343Y986D01*
X1385Y986D02*
X1389Y986D01*
X1401Y986D02*
X1404Y986D01*
X1415Y986D02*
X1418Y986D01*
X1432Y986D02*
X1435Y986D01*
X1265Y985D02*
X1268Y985D01*
X1296Y985D02*
X1300Y985D01*
X1329Y985D02*
X1332Y985D01*
X1340Y985D02*
X1343Y985D01*
X1386Y985D02*
X1389Y985D01*
X1401Y985D02*
X1404Y985D01*
X1415Y985D02*
X1418Y985D01*
X1432Y985D02*
X1435Y985D01*
X1265Y984D02*
X1268Y984D01*
X1295Y984D02*
X1299Y984D01*
X1329Y984D02*
X1332Y984D01*
X1340Y984D02*
X1344Y984D01*
X1386Y984D02*
X1390Y984D01*
X1400Y984D02*
X1404Y984D01*
X1415Y984D02*
X1418Y984D01*
X1432Y984D02*
X1435Y984D01*
X1265Y983D02*
X1268Y983D01*
X1295Y983D02*
X1299Y983D01*
X1329Y983D02*
X1332Y983D01*
X1341Y983D02*
X1344Y983D01*
X1387Y983D02*
X1390Y983D01*
X1400Y983D02*
X1403Y983D01*
X1415Y983D02*
X1418Y983D01*
X1432Y983D02*
X1435Y983D01*
X1265Y982D02*
X1268Y982D01*
X1295Y982D02*
X1298Y982D01*
X1329Y982D02*
X1332Y982D01*
X1341Y982D02*
X1344Y982D01*
X1387Y982D02*
X1391Y982D01*
X1399Y982D02*
X1403Y982D01*
X1415Y982D02*
X1418Y982D01*
X1432Y982D02*
X1435Y982D01*
X1265Y981D02*
X1268Y981D01*
X1295Y981D02*
X1298Y981D01*
X1329Y981D02*
X1332Y981D01*
X1341Y981D02*
X1345Y981D01*
X1387Y981D02*
X1391Y981D01*
X1399Y981D02*
X1403Y981D01*
X1415Y981D02*
X1418Y981D01*
X1432Y981D02*
X1435Y981D01*
X1265Y980D02*
X1268Y980D01*
X1295Y980D02*
X1298Y980D01*
X1329Y980D02*
X1332Y980D01*
X1341Y980D02*
X1345Y980D01*
X1388Y980D02*
X1391Y980D01*
X1399Y980D02*
X1402Y980D01*
X1415Y980D02*
X1418Y980D01*
X1432Y980D02*
X1435Y980D01*
X1265Y979D02*
X1268Y979D01*
X1295Y979D02*
X1298Y979D01*
X1329Y979D02*
X1332Y979D01*
X1341Y979D02*
X1344Y979D01*
X1388Y979D02*
X1392Y979D01*
X1398Y979D02*
X1402Y979D01*
X1415Y979D02*
X1418Y979D01*
X1432Y979D02*
X1435Y979D01*
X1265Y978D02*
X1268Y978D01*
X1295Y978D02*
X1298Y978D01*
X1329Y978D02*
X1332Y978D01*
X1341Y978D02*
X1344Y978D01*
X1389Y978D02*
X1392Y978D01*
X1398Y978D02*
X1401Y978D01*
X1415Y978D02*
X1418Y978D01*
X1432Y978D02*
X1435Y978D01*
X1265Y977D02*
X1268Y977D01*
X1295Y977D02*
X1299Y977D01*
X1329Y977D02*
X1332Y977D01*
X1340Y977D02*
X1344Y977D01*
X1389Y977D02*
X1393Y977D01*
X1397Y977D02*
X1401Y977D01*
X1415Y977D02*
X1418Y977D01*
X1432Y977D02*
X1435Y977D01*
X1265Y976D02*
X1268Y976D01*
X1296Y976D02*
X1299Y976D01*
X1329Y976D02*
X1332Y976D01*
X1340Y976D02*
X1344Y976D01*
X1389Y976D02*
X1393Y976D01*
X1397Y976D02*
X1401Y976D01*
X1415Y976D02*
X1418Y976D01*
X1432Y976D02*
X1435Y976D01*
X1265Y975D02*
X1268Y975D01*
X1296Y975D02*
X1300Y975D01*
X1329Y975D02*
X1332Y975D01*
X1339Y975D02*
X1343Y975D01*
X1390Y975D02*
X1393Y975D01*
X1397Y975D02*
X1400Y975D01*
X1415Y975D02*
X1418Y975D01*
X1432Y975D02*
X1435Y975D01*
X1265Y974D02*
X1268Y974D01*
X1297Y974D02*
X1300Y974D01*
X1329Y974D02*
X1332Y974D01*
X1339Y974D02*
X1343Y974D01*
X1390Y974D02*
X1394Y974D01*
X1396Y974D02*
X1400Y974D01*
X1415Y974D02*
X1418Y974D01*
X1432Y974D02*
X1435Y974D01*
X1265Y973D02*
X1268Y973D01*
X1297Y973D02*
X1301Y973D01*
X1329Y973D02*
X1332Y973D01*
X1338Y973D02*
X1342Y973D01*
X1391Y973D02*
X1394Y973D01*
X1396Y973D02*
X1399Y973D01*
X1415Y973D02*
X1418Y973D01*
X1432Y973D02*
X1435Y973D01*
X1265Y972D02*
X1268Y972D01*
X1298Y972D02*
X1301Y972D01*
X1329Y972D02*
X1332Y972D01*
X1338Y972D02*
X1342Y972D01*
X1391Y972D02*
X1399Y972D01*
X1415Y972D02*
X1418Y972D01*
X1432Y972D02*
X1435Y972D01*
X1265Y971D02*
X1268Y971D01*
X1298Y971D02*
X1302Y971D01*
X1329Y971D02*
X1332Y971D01*
X1337Y971D02*
X1341Y971D01*
X1391Y971D02*
X1399Y971D01*
X1415Y971D02*
X1418Y971D01*
X1432Y971D02*
X1435Y971D01*
X1265Y970D02*
X1268Y970D01*
X1299Y970D02*
X1302Y970D01*
X1329Y970D02*
X1332Y970D01*
X1337Y970D02*
X1341Y970D01*
X1392Y970D02*
X1398Y970D01*
X1415Y970D02*
X1418Y970D01*
X1432Y970D02*
X1435Y970D01*
X1265Y969D02*
X1268Y969D01*
X1299Y969D02*
X1303Y969D01*
X1329Y969D02*
X1332Y969D01*
X1336Y969D02*
X1340Y969D01*
X1392Y969D02*
X1398Y969D01*
X1415Y969D02*
X1418Y969D01*
X1432Y969D02*
X1435Y969D01*
X1265Y968D02*
X1283Y968D01*
X1300Y968D02*
X1313Y968D01*
X1326Y968D02*
X1340Y968D01*
X1392Y968D02*
X1397Y968D01*
X1415Y968D02*
X1435Y968D01*
X1265Y967D02*
X1284Y967D01*
X1300Y967D02*
X1314Y967D01*
X1325Y967D02*
X1339Y967D01*
X1393Y967D02*
X1397Y967D01*
X1415Y967D02*
X1435Y967D01*
X1265Y966D02*
X1284Y966D01*
X1301Y966D02*
X1314Y966D01*
X1325Y966D02*
X1338Y966D01*
X1393Y966D02*
X1397Y966D01*
X1416Y966D02*
X1434Y966D01*
X1265Y965D02*
X1284Y965D01*
X1302Y965D02*
X1314Y965D01*
X1325Y965D02*
X1337Y965D01*
X1394Y965D02*
X1396Y965D01*
X1417Y965D02*
X1433Y965D01*
X1357Y964D02*
X1373Y964D01*
X1355Y963D02*
X1374Y963D01*
X1355Y962D02*
X1375Y962D01*
X1355Y961D02*
X1374Y961D01*
X1356Y960D02*
X1373Y960D01*
X1364Y810D02*
X1380Y810D01*
X1399Y810D02*
X1413Y810D01*
X1364Y809D02*
X1382Y809D01*
X1398Y809D02*
X1414Y809D01*
X1364Y808D02*
X1383Y808D01*
X1398Y808D02*
X1414Y808D01*
X1364Y807D02*
X1383Y807D01*
X1398Y807D02*
X1414Y807D01*
X1364Y806D02*
X1368Y806D01*
X1380Y806D02*
X1384Y806D01*
X1398Y806D02*
X1402Y806D01*
X1364Y805D02*
X1367Y805D01*
X1381Y805D02*
X1384Y805D01*
X1398Y805D02*
X1402Y805D01*
X1364Y804D02*
X1367Y804D01*
X1381Y804D02*
X1384Y804D01*
X1398Y804D02*
X1402Y804D01*
X1364Y803D02*
X1367Y803D01*
X1381Y803D02*
X1384Y803D01*
X1398Y803D02*
X1402Y803D01*
X1364Y802D02*
X1367Y802D01*
X1381Y802D02*
X1384Y802D01*
X1398Y802D02*
X1402Y802D01*
X1364Y801D02*
X1367Y801D01*
X1380Y801D02*
X1384Y801D01*
X1398Y801D02*
X1402Y801D01*
X1364Y800D02*
X1368Y800D01*
X1379Y800D02*
X1384Y800D01*
X1398Y800D02*
X1402Y800D01*
X1364Y799D02*
X1383Y799D01*
X1398Y799D02*
X1402Y799D01*
X1364Y798D02*
X1383Y798D01*
X1398Y798D02*
X1402Y798D01*
X1364Y797D02*
X1382Y797D01*
X1398Y797D02*
X1402Y797D01*
X1364Y796D02*
X1380Y796D01*
X1398Y796D02*
X1412Y796D01*
X1364Y795D02*
X1367Y795D01*
X1372Y795D02*
X1376Y795D01*
X1398Y795D02*
X1413Y795D01*
X1364Y794D02*
X1367Y794D01*
X1372Y794D02*
X1376Y794D01*
X1398Y794D02*
X1414Y794D01*
X1364Y793D02*
X1367Y793D01*
X1373Y793D02*
X1377Y793D01*
X1398Y793D02*
X1414Y793D01*
X1364Y792D02*
X1367Y792D01*
X1373Y792D02*
X1377Y792D01*
X1411Y792D02*
X1414Y792D01*
X1364Y791D02*
X1367Y791D01*
X1374Y791D02*
X1378Y791D01*
X1411Y791D02*
X1414Y791D01*
X1364Y790D02*
X1367Y790D01*
X1375Y790D02*
X1379Y790D01*
X1411Y790D02*
X1414Y790D01*
X1364Y789D02*
X1367Y789D01*
X1375Y789D02*
X1379Y789D01*
X1411Y789D02*
X1414Y789D01*
X1364Y788D02*
X1367Y788D01*
X1376Y788D02*
X1380Y788D01*
X1411Y788D02*
X1414Y788D01*
X1364Y787D02*
X1367Y787D01*
X1376Y787D02*
X1380Y787D01*
X1411Y787D02*
X1414Y787D01*
X1364Y786D02*
X1367Y786D01*
X1377Y786D02*
X1381Y786D01*
X1411Y786D02*
X1414Y786D01*
X1364Y785D02*
X1367Y785D01*
X1378Y785D02*
X1381Y785D01*
X1411Y785D02*
X1414Y785D01*
X1364Y784D02*
X1367Y784D01*
X1378Y784D02*
X1382Y784D01*
X1411Y784D02*
X1414Y784D01*
X1364Y783D02*
X1367Y783D01*
X1379Y783D02*
X1383Y783D01*
X1395Y783D02*
X1398Y783D01*
X1411Y783D02*
X1414Y783D01*
X1364Y782D02*
X1367Y782D01*
X1379Y782D02*
X1383Y782D01*
X1394Y782D02*
X1414Y782D01*
X1364Y781D02*
X1367Y781D01*
X1380Y781D02*
X1384Y781D01*
X1395Y781D02*
X1414Y781D01*
X1364Y780D02*
X1367Y780D01*
X1380Y780D02*
X1384Y780D01*
X1395Y780D02*
X1413Y780D01*
X1365Y779D02*
X1367Y779D01*
X1381Y779D02*
X1384Y779D01*
X1398Y779D02*
X1413Y779D01*
X1366Y778D02*
X1366Y778D01*
X1401Y778D02*
X1410Y778D01*
X844Y590D02*
X854Y590D01*
X878Y590D02*
X887Y590D01*
X903Y590D02*
X915Y590D01*
X934Y590D02*
X949Y590D01*
X966Y590D02*
X979Y590D01*
X843Y589D02*
X854Y589D01*
X877Y589D02*
X888Y589D01*
X903Y589D02*
X918Y589D01*
X933Y589D02*
X951Y589D01*
X964Y589D02*
X981Y589D01*
X842Y588D02*
X854Y588D01*
X877Y588D02*
X888Y588D01*
X903Y588D02*
X920Y588D01*
X933Y588D02*
X952Y588D01*
X963Y588D02*
X982Y588D01*
X843Y587D02*
X854Y587D01*
X877Y587D02*
X888Y587D01*
X903Y587D02*
X920Y587D01*
X933Y587D02*
X952Y587D01*
X963Y587D02*
X983Y587D01*
X844Y586D02*
X854Y586D01*
X877Y586D02*
X888Y586D01*
X903Y586D02*
X921Y586D01*
X934Y586D02*
X953Y586D01*
X963Y586D02*
X983Y586D01*
X851Y585D02*
X854Y585D01*
X877Y585D02*
X880Y585D01*
X885Y585D02*
X888Y585D01*
X903Y585D02*
X906Y585D01*
X918Y585D02*
X922Y585D01*
X949Y585D02*
X953Y585D01*
X963Y585D02*
X966Y585D01*
X979Y585D02*
X983Y585D01*
X851Y584D02*
X854Y584D01*
X877Y584D02*
X880Y584D01*
X885Y584D02*
X888Y584D01*
X903Y584D02*
X906Y584D01*
X918Y584D02*
X922Y584D01*
X949Y584D02*
X953Y584D01*
X963Y584D02*
X966Y584D01*
X979Y584D02*
X983Y584D01*
X851Y583D02*
X854Y583D01*
X877Y583D02*
X880Y583D01*
X885Y583D02*
X888Y583D01*
X903Y583D02*
X906Y583D01*
X919Y583D02*
X922Y583D01*
X949Y583D02*
X953Y583D01*
X963Y583D02*
X966Y583D01*
X979Y583D02*
X983Y583D01*
X851Y582D02*
X854Y582D01*
X877Y582D02*
X880Y582D01*
X885Y582D02*
X888Y582D01*
X903Y582D02*
X906Y582D01*
X919Y582D02*
X922Y582D01*
X949Y582D02*
X953Y582D01*
X963Y582D02*
X966Y582D01*
X979Y582D02*
X983Y582D01*
X851Y581D02*
X854Y581D01*
X877Y581D02*
X880Y581D01*
X885Y581D02*
X888Y581D01*
X903Y581D02*
X906Y581D01*
X919Y581D02*
X922Y581D01*
X949Y581D02*
X953Y581D01*
X963Y581D02*
X966Y581D01*
X979Y581D02*
X983Y581D01*
X851Y580D02*
X854Y580D01*
X877Y580D02*
X880Y580D01*
X885Y580D02*
X888Y580D01*
X903Y580D02*
X906Y580D01*
X919Y580D02*
X922Y580D01*
X949Y580D02*
X953Y580D01*
X963Y580D02*
X966Y580D01*
X979Y580D02*
X983Y580D01*
X851Y579D02*
X854Y579D01*
X877Y579D02*
X880Y579D01*
X885Y579D02*
X888Y579D01*
X903Y579D02*
X906Y579D01*
X919Y579D02*
X922Y579D01*
X949Y579D02*
X953Y579D01*
X963Y579D02*
X966Y579D01*
X979Y579D02*
X983Y579D01*
X851Y578D02*
X854Y578D01*
X877Y578D02*
X880Y578D01*
X885Y578D02*
X888Y578D01*
X903Y578D02*
X906Y578D01*
X919Y578D02*
X922Y578D01*
X949Y578D02*
X953Y578D01*
X963Y578D02*
X966Y578D01*
X979Y578D02*
X983Y578D01*
X851Y577D02*
X854Y577D01*
X877Y577D02*
X880Y577D01*
X885Y577D02*
X888Y577D01*
X903Y577D02*
X906Y577D01*
X918Y577D02*
X922Y577D01*
X949Y577D02*
X953Y577D01*
X963Y577D02*
X966Y577D01*
X979Y577D02*
X983Y577D01*
X851Y576D02*
X854Y576D01*
X876Y576D02*
X889Y576D01*
X903Y576D02*
X921Y576D01*
X949Y576D02*
X953Y576D01*
X963Y576D02*
X966Y576D01*
X979Y576D02*
X983Y576D01*
X851Y575D02*
X854Y575D01*
X874Y575D02*
X891Y575D01*
X903Y575D02*
X921Y575D01*
X934Y575D02*
X952Y575D01*
X963Y575D02*
X966Y575D01*
X979Y575D02*
X983Y575D01*
X851Y574D02*
X854Y574D01*
X873Y574D02*
X892Y574D01*
X903Y574D02*
X920Y574D01*
X933Y574D02*
X952Y574D01*
X963Y574D02*
X966Y574D01*
X979Y574D02*
X983Y574D01*
X851Y573D02*
X854Y573D01*
X873Y573D02*
X892Y573D01*
X903Y573D02*
X920Y573D01*
X933Y573D02*
X951Y573D01*
X963Y573D02*
X966Y573D01*
X979Y573D02*
X983Y573D01*
X851Y572D02*
X854Y572D01*
X860Y572D02*
X861Y572D01*
X873Y572D02*
X892Y572D01*
X903Y572D02*
X921Y572D01*
X933Y572D02*
X950Y572D01*
X963Y572D02*
X966Y572D01*
X979Y572D02*
X983Y572D01*
X851Y571D02*
X854Y571D01*
X859Y571D02*
X862Y571D01*
X873Y571D02*
X876Y571D01*
X889Y571D02*
X892Y571D01*
X903Y571D02*
X906Y571D01*
X917Y571D02*
X922Y571D01*
X933Y571D02*
X936Y571D01*
X963Y571D02*
X966Y571D01*
X979Y571D02*
X983Y571D01*
X851Y570D02*
X854Y570D01*
X859Y570D02*
X862Y570D01*
X873Y570D02*
X876Y570D01*
X889Y570D02*
X892Y570D01*
X903Y570D02*
X906Y570D01*
X918Y570D02*
X922Y570D01*
X933Y570D02*
X936Y570D01*
X963Y570D02*
X966Y570D01*
X979Y570D02*
X983Y570D01*
X851Y569D02*
X854Y569D01*
X859Y569D02*
X862Y569D01*
X873Y569D02*
X876Y569D01*
X889Y569D02*
X892Y569D01*
X903Y569D02*
X906Y569D01*
X919Y569D02*
X922Y569D01*
X933Y569D02*
X936Y569D01*
X963Y569D02*
X966Y569D01*
X979Y569D02*
X983Y569D01*
X851Y568D02*
X854Y568D01*
X859Y568D02*
X862Y568D01*
X873Y568D02*
X876Y568D01*
X889Y568D02*
X892Y568D01*
X903Y568D02*
X906Y568D01*
X919Y568D02*
X922Y568D01*
X933Y568D02*
X936Y568D01*
X963Y568D02*
X966Y568D01*
X979Y568D02*
X983Y568D01*
X851Y567D02*
X854Y567D01*
X859Y567D02*
X862Y567D01*
X873Y567D02*
X876Y567D01*
X889Y567D02*
X892Y567D01*
X903Y567D02*
X906Y567D01*
X919Y567D02*
X922Y567D01*
X933Y567D02*
X936Y567D01*
X963Y567D02*
X966Y567D01*
X979Y567D02*
X983Y567D01*
X851Y566D02*
X854Y566D01*
X859Y566D02*
X862Y566D01*
X873Y566D02*
X876Y566D01*
X889Y566D02*
X892Y566D01*
X903Y566D02*
X906Y566D01*
X919Y566D02*
X922Y566D01*
X933Y566D02*
X936Y566D01*
X963Y566D02*
X966Y566D01*
X979Y566D02*
X983Y566D01*
X851Y565D02*
X854Y565D01*
X859Y565D02*
X862Y565D01*
X873Y565D02*
X876Y565D01*
X889Y565D02*
X892Y565D01*
X903Y565D02*
X906Y565D01*
X919Y565D02*
X922Y565D01*
X933Y565D02*
X936Y565D01*
X963Y565D02*
X966Y565D01*
X979Y565D02*
X983Y565D01*
X851Y564D02*
X854Y564D01*
X859Y564D02*
X862Y564D01*
X873Y564D02*
X876Y564D01*
X889Y564D02*
X892Y564D01*
X903Y564D02*
X906Y564D01*
X919Y564D02*
X922Y564D01*
X933Y564D02*
X936Y564D01*
X963Y564D02*
X966Y564D01*
X979Y564D02*
X983Y564D01*
X851Y563D02*
X854Y563D01*
X859Y563D02*
X862Y563D01*
X873Y563D02*
X876Y563D01*
X889Y563D02*
X892Y563D01*
X903Y563D02*
X906Y563D01*
X918Y563D02*
X922Y563D01*
X933Y563D02*
X936Y563D01*
X963Y563D02*
X966Y563D01*
X979Y563D02*
X983Y563D01*
X850Y562D02*
X854Y562D01*
X859Y562D02*
X862Y562D01*
X873Y562D02*
X876Y562D01*
X889Y562D02*
X892Y562D01*
X903Y562D02*
X906Y562D01*
X916Y562D02*
X921Y562D01*
X933Y562D02*
X936Y562D01*
X963Y562D02*
X966Y562D01*
X979Y562D02*
X983Y562D01*
X843Y561D02*
X862Y561D01*
X873Y561D02*
X892Y561D01*
X903Y561D02*
X921Y561D01*
X933Y561D02*
X952Y561D01*
X963Y561D02*
X983Y561D01*
X842Y560D02*
X862Y560D01*
X873Y560D02*
X892Y560D01*
X903Y560D02*
X920Y560D01*
X933Y560D02*
X952Y560D01*
X963Y560D02*
X982Y560D01*
X843Y559D02*
X862Y559D01*
X874Y559D02*
X891Y559D01*
X903Y559D02*
X919Y559D01*
X933Y559D02*
X952Y559D01*
X964Y559D02*
X981Y559D01*
X843Y558D02*
X861Y558D01*
X875Y558D02*
X890Y558D01*
X903Y558D02*
X916Y558D01*
X933Y558D02*
X952Y558D01*
X965Y558D02*
X980Y558D01*
X312Y555D02*
X314Y555D01*
X350Y555D02*
X361Y555D01*
X373Y555D02*
X384Y555D01*
X433Y555D02*
X444Y555D01*
X462Y555D02*
X477Y555D01*
X494Y555D02*
X496Y555D01*
X312Y554D02*
X315Y554D01*
X348Y554D02*
X362Y554D01*
X372Y554D02*
X385Y554D01*
X432Y554D02*
X445Y554D01*
X462Y554D02*
X479Y554D01*
X494Y554D02*
X497Y554D01*
X312Y553D02*
X315Y553D01*
X348Y553D02*
X362Y553D01*
X372Y553D02*
X386Y553D01*
X432Y553D02*
X446Y553D01*
X462Y553D02*
X480Y553D01*
X493Y553D02*
X497Y553D01*
X312Y552D02*
X315Y552D01*
X347Y552D02*
X361Y552D01*
X373Y552D02*
X387Y552D01*
X433Y552D02*
X447Y552D01*
X462Y552D02*
X481Y552D01*
X493Y552D02*
X497Y552D01*
X507Y552D02*
X508Y552D01*
X312Y551D02*
X315Y551D01*
X347Y551D02*
X351Y551D01*
X376Y551D02*
X379Y551D01*
X383Y551D02*
X387Y551D01*
X436Y551D02*
X440Y551D01*
X443Y551D02*
X447Y551D01*
X462Y551D02*
X466Y551D01*
X477Y551D02*
X481Y551D01*
X493Y551D02*
X497Y551D01*
X506Y551D02*
X509Y551D01*
X312Y550D02*
X315Y550D01*
X346Y550D02*
X350Y550D01*
X376Y550D02*
X379Y550D01*
X384Y550D02*
X388Y550D01*
X436Y550D02*
X440Y550D01*
X444Y550D02*
X448Y550D01*
X462Y550D02*
X466Y550D01*
X478Y550D02*
X482Y550D01*
X493Y550D02*
X497Y550D01*
X506Y550D02*
X509Y550D01*
X312Y549D02*
X315Y549D01*
X346Y549D02*
X349Y549D01*
X376Y549D02*
X379Y549D01*
X384Y549D02*
X388Y549D01*
X436Y549D02*
X440Y549D01*
X445Y549D02*
X448Y549D01*
X462Y549D02*
X466Y549D01*
X478Y549D02*
X482Y549D01*
X493Y549D02*
X497Y549D01*
X506Y549D02*
X509Y549D01*
X312Y548D02*
X315Y548D01*
X345Y548D02*
X349Y548D01*
X376Y548D02*
X379Y548D01*
X385Y548D02*
X389Y548D01*
X436Y548D02*
X440Y548D01*
X445Y548D02*
X449Y548D01*
X462Y548D02*
X466Y548D01*
X479Y548D02*
X482Y548D01*
X493Y548D02*
X497Y548D01*
X506Y548D02*
X509Y548D01*
X312Y547D02*
X315Y547D01*
X345Y547D02*
X348Y547D01*
X376Y547D02*
X379Y547D01*
X385Y547D02*
X389Y547D01*
X436Y547D02*
X440Y547D01*
X446Y547D02*
X449Y547D01*
X462Y547D02*
X466Y547D01*
X479Y547D02*
X482Y547D01*
X493Y547D02*
X497Y547D01*
X506Y547D02*
X509Y547D01*
X312Y546D02*
X315Y546D01*
X344Y546D02*
X348Y546D01*
X376Y546D02*
X379Y546D01*
X386Y546D02*
X390Y546D01*
X436Y546D02*
X440Y546D01*
X446Y546D02*
X450Y546D01*
X462Y546D02*
X466Y546D01*
X479Y546D02*
X482Y546D01*
X493Y546D02*
X497Y546D01*
X506Y546D02*
X509Y546D01*
X312Y545D02*
X315Y545D01*
X344Y545D02*
X347Y545D01*
X376Y545D02*
X379Y545D01*
X386Y545D02*
X390Y545D01*
X436Y545D02*
X440Y545D01*
X447Y545D02*
X450Y545D01*
X462Y545D02*
X466Y545D01*
X479Y545D02*
X482Y545D01*
X493Y545D02*
X497Y545D01*
X506Y545D02*
X509Y545D01*
X312Y544D02*
X315Y544D01*
X343Y544D02*
X347Y544D01*
X376Y544D02*
X379Y544D01*
X387Y544D02*
X391Y544D01*
X436Y544D02*
X440Y544D01*
X447Y544D02*
X451Y544D01*
X462Y544D02*
X466Y544D01*
X479Y544D02*
X482Y544D01*
X493Y544D02*
X497Y544D01*
X506Y544D02*
X509Y544D01*
X312Y543D02*
X315Y543D01*
X343Y543D02*
X346Y543D01*
X376Y543D02*
X379Y543D01*
X387Y543D02*
X391Y543D01*
X436Y543D02*
X440Y543D01*
X448Y543D02*
X451Y543D01*
X462Y543D02*
X466Y543D01*
X478Y543D02*
X482Y543D01*
X493Y543D02*
X497Y543D01*
X506Y543D02*
X509Y543D01*
X312Y542D02*
X315Y542D01*
X342Y542D02*
X346Y542D01*
X376Y542D02*
X379Y542D01*
X388Y542D02*
X391Y542D01*
X436Y542D02*
X440Y542D01*
X448Y542D02*
X452Y542D01*
X462Y542D02*
X466Y542D01*
X477Y542D02*
X481Y542D01*
X493Y542D02*
X497Y542D01*
X506Y542D02*
X509Y542D01*
X312Y541D02*
X315Y541D01*
X342Y541D02*
X345Y541D01*
X376Y541D02*
X379Y541D01*
X388Y541D02*
X392Y541D01*
X436Y541D02*
X440Y541D01*
X449Y541D02*
X452Y541D01*
X462Y541D02*
X481Y541D01*
X493Y541D02*
X497Y541D01*
X506Y541D02*
X509Y541D01*
X312Y540D02*
X315Y540D01*
X342Y540D02*
X345Y540D01*
X376Y540D02*
X379Y540D01*
X388Y540D02*
X392Y540D01*
X436Y540D02*
X440Y540D01*
X449Y540D02*
X452Y540D01*
X462Y540D02*
X480Y540D01*
X493Y540D02*
X497Y540D01*
X506Y540D02*
X509Y540D01*
X312Y539D02*
X315Y539D01*
X342Y539D02*
X345Y539D01*
X376Y539D02*
X379Y539D01*
X389Y539D02*
X392Y539D01*
X436Y539D02*
X440Y539D01*
X449Y539D02*
X452Y539D01*
X462Y539D02*
X480Y539D01*
X493Y539D02*
X497Y539D01*
X506Y539D02*
X509Y539D01*
X312Y538D02*
X315Y538D01*
X342Y538D02*
X345Y538D01*
X376Y538D02*
X379Y538D01*
X388Y538D02*
X392Y538D01*
X436Y538D02*
X440Y538D01*
X449Y538D02*
X452Y538D01*
X462Y538D02*
X481Y538D01*
X493Y538D02*
X510Y538D01*
X312Y537D02*
X315Y537D01*
X342Y537D02*
X346Y537D01*
X376Y537D02*
X379Y537D01*
X388Y537D02*
X391Y537D01*
X436Y537D02*
X440Y537D01*
X448Y537D02*
X452Y537D01*
X462Y537D02*
X466Y537D01*
X476Y537D02*
X481Y537D01*
X493Y537D02*
X511Y537D01*
X312Y536D02*
X315Y536D01*
X343Y536D02*
X346Y536D01*
X376Y536D02*
X379Y536D01*
X387Y536D02*
X391Y536D01*
X436Y536D02*
X440Y536D01*
X448Y536D02*
X451Y536D01*
X462Y536D02*
X466Y536D01*
X478Y536D02*
X482Y536D01*
X493Y536D02*
X511Y536D01*
X312Y535D02*
X315Y535D01*
X343Y535D02*
X347Y535D01*
X376Y535D02*
X379Y535D01*
X387Y535D02*
X391Y535D01*
X436Y535D02*
X440Y535D01*
X447Y535D02*
X451Y535D01*
X462Y535D02*
X466Y535D01*
X478Y535D02*
X482Y535D01*
X493Y535D02*
X511Y535D01*
X312Y534D02*
X315Y534D01*
X343Y534D02*
X347Y534D01*
X376Y534D02*
X379Y534D01*
X386Y534D02*
X390Y534D01*
X436Y534D02*
X440Y534D01*
X447Y534D02*
X450Y534D01*
X462Y534D02*
X466Y534D01*
X479Y534D02*
X482Y534D01*
X494Y534D02*
X510Y534D01*
X312Y533D02*
X315Y533D01*
X344Y533D02*
X348Y533D01*
X376Y533D02*
X379Y533D01*
X386Y533D02*
X390Y533D01*
X436Y533D02*
X440Y533D01*
X446Y533D02*
X450Y533D01*
X462Y533D02*
X466Y533D01*
X479Y533D02*
X482Y533D01*
X506Y533D02*
X509Y533D01*
X312Y532D02*
X315Y532D01*
X344Y532D02*
X348Y532D01*
X376Y532D02*
X379Y532D01*
X385Y532D02*
X389Y532D01*
X436Y532D02*
X440Y532D01*
X446Y532D02*
X449Y532D01*
X462Y532D02*
X466Y532D01*
X479Y532D02*
X482Y532D01*
X506Y532D02*
X509Y532D01*
X312Y531D02*
X315Y531D01*
X345Y531D02*
X349Y531D01*
X376Y531D02*
X379Y531D01*
X385Y531D02*
X389Y531D01*
X436Y531D02*
X440Y531D01*
X445Y531D02*
X449Y531D01*
X462Y531D02*
X466Y531D01*
X479Y531D02*
X482Y531D01*
X506Y531D02*
X509Y531D01*
X312Y530D02*
X315Y530D01*
X345Y530D02*
X349Y530D01*
X376Y530D02*
X379Y530D01*
X384Y530D02*
X388Y530D01*
X436Y530D02*
X440Y530D01*
X445Y530D02*
X448Y530D01*
X462Y530D02*
X466Y530D01*
X479Y530D02*
X482Y530D01*
X506Y530D02*
X509Y530D01*
X312Y529D02*
X315Y529D01*
X346Y529D02*
X350Y529D01*
X376Y529D02*
X379Y529D01*
X384Y529D02*
X388Y529D01*
X436Y529D02*
X440Y529D01*
X444Y529D02*
X448Y529D01*
X462Y529D02*
X466Y529D01*
X478Y529D02*
X482Y529D01*
X506Y529D02*
X509Y529D01*
X312Y528D02*
X315Y528D01*
X346Y528D02*
X350Y528D01*
X376Y528D02*
X379Y528D01*
X383Y528D02*
X387Y528D01*
X436Y528D02*
X440Y528D01*
X444Y528D02*
X447Y528D01*
X462Y528D02*
X466Y528D01*
X477Y528D02*
X481Y528D01*
X506Y528D02*
X509Y528D01*
X312Y527D02*
X331Y527D01*
X347Y527D02*
X361Y527D01*
X373Y527D02*
X387Y527D01*
X433Y527D02*
X447Y527D01*
X462Y527D02*
X481Y527D01*
X506Y527D02*
X509Y527D01*
X312Y526D02*
X331Y526D01*
X348Y526D02*
X361Y526D01*
X372Y526D02*
X386Y526D01*
X432Y526D02*
X446Y526D01*
X462Y526D02*
X480Y526D01*
X506Y526D02*
X509Y526D01*
X312Y525D02*
X331Y525D01*
X348Y525D02*
X362Y525D01*
X372Y525D02*
X385Y525D01*
X432Y525D02*
X446Y525D01*
X462Y525D02*
X479Y525D01*
X506Y525D02*
X509Y525D01*
X312Y524D02*
X331Y524D01*
X350Y524D02*
X361Y524D01*
X372Y524D02*
X384Y524D01*
X433Y524D02*
X444Y524D01*
X462Y524D02*
X477Y524D01*
X506Y524D02*
X509Y524D01*
X403Y523D02*
X421Y523D01*
X402Y522D02*
X422Y522D01*
X402Y521D02*
X422Y521D01*
X402Y520D02*
X422Y520D01*
X404Y519D02*
X420Y519D01*
X413Y410D02*
X413Y410D01*
X451Y410D02*
X459Y410D01*
X473Y410D02*
X481Y410D01*
X533Y410D02*
X533Y410D01*
X562Y410D02*
X580Y410D01*
X594Y410D02*
X602Y410D01*
X412Y409D02*
X414Y409D01*
X449Y409D02*
X461Y409D01*
X472Y409D02*
X484Y409D01*
X532Y409D02*
X535Y409D01*
X562Y409D02*
X581Y409D01*
X592Y409D02*
X604Y409D01*
X411Y408D02*
X415Y408D01*
X448Y408D02*
X461Y408D01*
X472Y408D02*
X485Y408D01*
X532Y408D02*
X535Y408D01*
X562Y408D02*
X582Y408D01*
X592Y408D02*
X605Y408D01*
X411Y407D02*
X415Y407D01*
X447Y407D02*
X461Y407D01*
X472Y407D02*
X486Y407D01*
X532Y407D02*
X535Y407D01*
X562Y407D02*
X581Y407D01*
X592Y407D02*
X606Y407D01*
X411Y406D02*
X415Y406D01*
X446Y406D02*
X460Y406D01*
X473Y406D02*
X486Y406D01*
X532Y406D02*
X535Y406D01*
X562Y406D02*
X580Y406D01*
X593Y406D02*
X607Y406D01*
X411Y405D02*
X415Y405D01*
X446Y405D02*
X450Y405D01*
X476Y405D02*
X479Y405D01*
X483Y405D02*
X487Y405D01*
X532Y405D02*
X535Y405D01*
X562Y405D02*
X565Y405D01*
X596Y405D02*
X599Y405D01*
X603Y405D02*
X607Y405D01*
X411Y404D02*
X415Y404D01*
X445Y404D02*
X449Y404D01*
X476Y404D02*
X479Y404D01*
X484Y404D02*
X487Y404D01*
X532Y404D02*
X535Y404D01*
X562Y404D02*
X565Y404D01*
X596Y404D02*
X599Y404D01*
X604Y404D02*
X608Y404D01*
X411Y403D02*
X415Y403D01*
X445Y403D02*
X449Y403D01*
X476Y403D02*
X479Y403D01*
X484Y403D02*
X488Y403D01*
X532Y403D02*
X535Y403D01*
X562Y403D02*
X565Y403D01*
X596Y403D02*
X599Y403D01*
X605Y403D02*
X608Y403D01*
X411Y402D02*
X415Y402D01*
X444Y402D02*
X448Y402D01*
X476Y402D02*
X479Y402D01*
X485Y402D02*
X488Y402D01*
X532Y402D02*
X535Y402D01*
X562Y402D02*
X565Y402D01*
X596Y402D02*
X599Y402D01*
X605Y402D02*
X609Y402D01*
X411Y401D02*
X415Y401D01*
X444Y401D02*
X448Y401D01*
X476Y401D02*
X479Y401D01*
X485Y401D02*
X489Y401D01*
X532Y401D02*
X535Y401D01*
X562Y401D02*
X565Y401D01*
X596Y401D02*
X599Y401D01*
X606Y401D02*
X609Y401D01*
X411Y400D02*
X415Y400D01*
X443Y400D02*
X447Y400D01*
X476Y400D02*
X479Y400D01*
X486Y400D02*
X489Y400D01*
X532Y400D02*
X535Y400D01*
X562Y400D02*
X565Y400D01*
X596Y400D02*
X599Y400D01*
X606Y400D02*
X610Y400D01*
X411Y399D02*
X415Y399D01*
X443Y399D02*
X447Y399D01*
X476Y399D02*
X479Y399D01*
X486Y399D02*
X490Y399D01*
X532Y399D02*
X535Y399D01*
X562Y399D02*
X565Y399D01*
X596Y399D02*
X599Y399D01*
X607Y399D02*
X610Y399D01*
X411Y398D02*
X415Y398D01*
X442Y398D02*
X446Y398D01*
X476Y398D02*
X479Y398D01*
X487Y398D02*
X490Y398D01*
X532Y398D02*
X535Y398D01*
X562Y398D02*
X565Y398D01*
X596Y398D02*
X599Y398D01*
X607Y398D02*
X611Y398D01*
X411Y397D02*
X415Y397D01*
X442Y397D02*
X446Y397D01*
X476Y397D02*
X479Y397D01*
X487Y397D02*
X491Y397D01*
X532Y397D02*
X535Y397D01*
X562Y397D02*
X565Y397D01*
X596Y397D02*
X599Y397D01*
X608Y397D02*
X611Y397D01*
X411Y396D02*
X415Y396D01*
X442Y396D02*
X445Y396D01*
X476Y396D02*
X479Y396D01*
X488Y396D02*
X491Y396D01*
X532Y396D02*
X535Y396D01*
X562Y396D02*
X565Y396D01*
X596Y396D02*
X599Y396D01*
X608Y396D02*
X612Y396D01*
X411Y395D02*
X415Y395D01*
X442Y395D02*
X445Y395D01*
X476Y395D02*
X479Y395D01*
X488Y395D02*
X491Y395D01*
X532Y395D02*
X535Y395D01*
X562Y395D02*
X573Y395D01*
X596Y395D02*
X599Y395D01*
X608Y395D02*
X612Y395D01*
X623Y395D02*
X642Y395D01*
X411Y394D02*
X415Y394D01*
X441Y394D02*
X445Y394D01*
X476Y394D02*
X479Y394D01*
X488Y394D02*
X491Y394D01*
X532Y394D02*
X535Y394D01*
X562Y394D02*
X573Y394D01*
X596Y394D02*
X599Y394D01*
X609Y394D02*
X612Y394D01*
X622Y394D02*
X642Y394D01*
X411Y393D02*
X415Y393D01*
X441Y393D02*
X445Y393D01*
X476Y393D02*
X479Y393D01*
X488Y393D02*
X491Y393D01*
X532Y393D02*
X535Y393D01*
X562Y393D02*
X573Y393D01*
X596Y393D02*
X599Y393D01*
X608Y393D02*
X612Y393D01*
X622Y393D02*
X642Y393D01*
X411Y392D02*
X415Y392D01*
X442Y392D02*
X445Y392D01*
X476Y392D02*
X479Y392D01*
X488Y392D02*
X491Y392D01*
X532Y392D02*
X535Y392D01*
X562Y392D02*
X572Y392D01*
X596Y392D02*
X599Y392D01*
X608Y392D02*
X612Y392D01*
X622Y392D02*
X642Y392D01*
X411Y391D02*
X415Y391D01*
X442Y391D02*
X445Y391D01*
X476Y391D02*
X479Y391D01*
X487Y391D02*
X491Y391D01*
X532Y391D02*
X535Y391D01*
X562Y391D02*
X565Y391D01*
X596Y391D02*
X599Y391D01*
X608Y391D02*
X611Y391D01*
X622Y391D02*
X642Y391D01*
X411Y390D02*
X415Y390D01*
X442Y390D02*
X446Y390D01*
X476Y390D02*
X479Y390D01*
X487Y390D02*
X490Y390D01*
X532Y390D02*
X535Y390D01*
X562Y390D02*
X565Y390D01*
X596Y390D02*
X599Y390D01*
X607Y390D02*
X611Y390D01*
X624Y390D02*
X640Y390D01*
X411Y389D02*
X415Y389D01*
X443Y389D02*
X446Y389D01*
X476Y389D02*
X479Y389D01*
X486Y389D02*
X490Y389D01*
X532Y389D02*
X535Y389D01*
X562Y389D02*
X565Y389D01*
X596Y389D02*
X599Y389D01*
X607Y389D02*
X610Y389D01*
X411Y388D02*
X415Y388D01*
X443Y388D02*
X447Y388D01*
X476Y388D02*
X479Y388D01*
X486Y388D02*
X490Y388D01*
X532Y388D02*
X535Y388D01*
X562Y388D02*
X565Y388D01*
X596Y388D02*
X599Y388D01*
X606Y388D02*
X610Y388D01*
X411Y387D02*
X415Y387D01*
X444Y387D02*
X447Y387D01*
X476Y387D02*
X479Y387D01*
X485Y387D02*
X489Y387D01*
X532Y387D02*
X535Y387D01*
X562Y387D02*
X565Y387D01*
X596Y387D02*
X599Y387D01*
X606Y387D02*
X610Y387D01*
X411Y386D02*
X415Y386D01*
X444Y386D02*
X448Y386D01*
X476Y386D02*
X479Y386D01*
X485Y386D02*
X489Y386D01*
X532Y386D02*
X535Y386D01*
X562Y386D02*
X565Y386D01*
X596Y386D02*
X599Y386D01*
X605Y386D02*
X609Y386D01*
X411Y385D02*
X415Y385D01*
X445Y385D02*
X448Y385D01*
X476Y385D02*
X479Y385D01*
X484Y385D02*
X488Y385D01*
X532Y385D02*
X535Y385D01*
X562Y385D02*
X565Y385D01*
X596Y385D02*
X599Y385D01*
X605Y385D02*
X609Y385D01*
X411Y384D02*
X415Y384D01*
X445Y384D02*
X449Y384D01*
X476Y384D02*
X479Y384D01*
X484Y384D02*
X488Y384D01*
X532Y384D02*
X535Y384D01*
X562Y384D02*
X565Y384D01*
X596Y384D02*
X599Y384D01*
X604Y384D02*
X608Y384D01*
X411Y383D02*
X415Y383D01*
X446Y383D02*
X449Y383D01*
X476Y383D02*
X479Y383D01*
X483Y383D02*
X487Y383D01*
X532Y383D02*
X535Y383D01*
X562Y383D02*
X565Y383D01*
X596Y383D02*
X599Y383D01*
X604Y383D02*
X608Y383D01*
X411Y382D02*
X415Y382D01*
X446Y382D02*
X450Y382D01*
X475Y382D02*
X479Y382D01*
X482Y382D02*
X487Y382D01*
X532Y382D02*
X535Y382D01*
X562Y382D02*
X565Y382D01*
X596Y382D02*
X600Y382D01*
X603Y382D02*
X607Y382D01*
X411Y381D02*
X431Y381D01*
X447Y381D02*
X461Y381D01*
X472Y381D02*
X486Y381D01*
X532Y381D02*
X551Y381D01*
X562Y381D02*
X581Y381D01*
X593Y381D02*
X607Y381D01*
X411Y380D02*
X431Y380D01*
X447Y380D02*
X461Y380D01*
X472Y380D02*
X485Y380D01*
X532Y380D02*
X552Y380D01*
X562Y380D02*
X582Y380D01*
X592Y380D02*
X606Y380D01*
X411Y379D02*
X431Y379D01*
X448Y379D02*
X461Y379D01*
X472Y379D02*
X484Y379D01*
X532Y379D02*
X551Y379D01*
X562Y379D02*
X582Y379D01*
X592Y379D02*
X605Y379D01*
X411Y378D02*
X430Y378D01*
X450Y378D02*
X460Y378D01*
X472Y378D02*
X483Y378D01*
X532Y378D02*
X551Y378D01*
X562Y378D02*
X581Y378D01*
X593Y378D02*
X603Y378D01*
X502Y377D02*
X521Y377D01*
X502Y376D02*
X521Y376D01*
X502Y375D02*
X521Y375D01*
X502Y374D02*
X521Y374D01*
X911Y186D02*
X927Y186D01*
X942Y186D02*
X944Y186D01*
X1012Y186D02*
X1021Y186D01*
X1032Y186D02*
X1037Y186D01*
X1049Y186D02*
X1051Y186D01*
X1063Y186D02*
X1073Y186D01*
X401Y185D02*
X417Y185D01*
X431Y185D02*
X434Y185D01*
X491Y185D02*
X508Y185D01*
X522Y185D02*
X524Y185D01*
X552Y185D02*
X569Y185D01*
X635Y185D02*
X636Y185D01*
X674Y185D02*
X682Y185D01*
X696Y185D02*
X704Y185D01*
X756Y185D02*
X765Y185D01*
X785Y185D02*
X797Y185D01*
X819Y185D02*
X833Y185D01*
X911Y185D02*
X929Y185D01*
X942Y185D02*
X945Y185D01*
X1010Y185D02*
X1021Y185D01*
X1032Y185D02*
X1037Y185D01*
X1048Y185D02*
X1051Y185D01*
X1062Y185D02*
X1075Y185D01*
X401Y184D02*
X419Y184D01*
X431Y184D02*
X434Y184D01*
X491Y184D02*
X509Y184D01*
X521Y184D02*
X525Y184D01*
X552Y184D02*
X570Y184D01*
X634Y184D02*
X637Y184D01*
X671Y184D02*
X684Y184D01*
X695Y184D02*
X707Y184D01*
X755Y184D02*
X767Y184D01*
X785Y184D02*
X800Y184D01*
X819Y184D02*
X834Y184D01*
X911Y184D02*
X930Y184D01*
X941Y184D02*
X945Y184D01*
X1009Y184D02*
X1021Y184D01*
X1032Y184D02*
X1037Y184D01*
X1048Y184D02*
X1052Y184D01*
X1062Y184D02*
X1076Y184D01*
X1149Y184D02*
X1165Y184D01*
X1179Y184D02*
X1181Y184D01*
X1240Y184D02*
X1242Y184D01*
X1256Y184D02*
X1258Y184D01*
X156Y183D02*
X157Y183D01*
X195Y183D02*
X203Y183D01*
X217Y183D02*
X225Y183D01*
X276Y183D02*
X290Y183D01*
X309Y183D02*
X321Y183D01*
X401Y183D02*
X420Y183D01*
X431Y183D02*
X434Y183D01*
X491Y183D02*
X510Y183D01*
X521Y183D02*
X525Y183D01*
X552Y183D02*
X571Y183D01*
X634Y183D02*
X637Y183D01*
X670Y183D02*
X684Y183D01*
X694Y183D02*
X708Y183D01*
X755Y183D02*
X768Y183D01*
X785Y183D02*
X801Y183D01*
X819Y183D02*
X834Y183D01*
X911Y183D02*
X930Y183D01*
X941Y183D02*
X945Y183D01*
X1008Y183D02*
X1021Y183D01*
X1032Y183D02*
X1038Y183D01*
X1048Y183D02*
X1052Y183D01*
X1062Y183D02*
X1076Y183D01*
X1149Y183D02*
X1166Y183D01*
X1179Y183D02*
X1182Y183D01*
X1239Y183D02*
X1242Y183D01*
X1256Y183D02*
X1259Y183D01*
X155Y182D02*
X158Y182D01*
X192Y182D02*
X205Y182D01*
X215Y182D02*
X228Y182D01*
X275Y182D02*
X292Y182D01*
X307Y182D02*
X323Y182D01*
X401Y182D02*
X420Y182D01*
X431Y182D02*
X434Y182D01*
X491Y182D02*
X511Y182D01*
X521Y182D02*
X525Y182D01*
X552Y182D02*
X571Y182D01*
X634Y182D02*
X637Y182D01*
X670Y182D02*
X684Y182D01*
X695Y182D02*
X708Y182D01*
X755Y182D02*
X769Y182D01*
X785Y182D02*
X802Y182D01*
X819Y182D02*
X834Y182D01*
X911Y182D02*
X915Y182D01*
X927Y182D02*
X931Y182D01*
X941Y182D02*
X945Y182D01*
X1008Y182D02*
X1012Y182D01*
X1032Y182D02*
X1038Y182D01*
X1048Y182D02*
X1052Y182D01*
X1066Y182D02*
X1069Y182D01*
X1073Y182D02*
X1077Y182D01*
X1149Y182D02*
X1167Y182D01*
X1179Y182D02*
X1182Y182D01*
X1239Y182D02*
X1242Y182D01*
X1256Y182D02*
X1259Y182D01*
X155Y181D02*
X158Y181D01*
X191Y181D02*
X205Y181D01*
X215Y181D02*
X229Y181D01*
X275Y181D02*
X293Y181D01*
X306Y181D02*
X324Y181D01*
X401Y181D02*
X404Y181D01*
X417Y181D02*
X420Y181D01*
X431Y181D02*
X434Y181D01*
X491Y181D02*
X494Y181D01*
X507Y181D02*
X511Y181D01*
X521Y181D02*
X525Y181D01*
X568Y181D02*
X571Y181D01*
X634Y181D02*
X637Y181D01*
X669Y181D02*
X682Y181D01*
X696Y181D02*
X709Y181D01*
X756Y181D02*
X769Y181D01*
X785Y181D02*
X803Y181D01*
X819Y181D02*
X833Y181D01*
X911Y181D02*
X915Y181D01*
X928Y181D02*
X931Y181D01*
X941Y181D02*
X945Y181D01*
X1007Y181D02*
X1011Y181D01*
X1032Y181D02*
X1039Y181D01*
X1048Y181D02*
X1052Y181D01*
X1066Y181D02*
X1069Y181D01*
X1074Y181D02*
X1077Y181D01*
X1149Y181D02*
X1168Y181D01*
X1179Y181D02*
X1182Y181D01*
X1239Y181D02*
X1242Y181D01*
X1256Y181D02*
X1259Y181D01*
X155Y180D02*
X158Y180D01*
X190Y180D02*
X204Y180D01*
X215Y180D02*
X229Y180D01*
X275Y180D02*
X294Y180D01*
X306Y180D02*
X325Y180D01*
X401Y180D02*
X404Y180D01*
X417Y180D02*
X421Y180D01*
X431Y180D02*
X434Y180D01*
X491Y180D02*
X494Y180D01*
X508Y180D02*
X511Y180D01*
X521Y180D02*
X525Y180D01*
X568Y180D02*
X571Y180D01*
X634Y180D02*
X637Y180D01*
X669Y180D02*
X672Y180D01*
X698Y180D02*
X702Y180D01*
X706Y180D02*
X710Y180D01*
X759Y180D02*
X762Y180D01*
X766Y180D02*
X770Y180D01*
X785Y180D02*
X788Y180D01*
X799Y180D02*
X804Y180D01*
X819Y180D02*
X822Y180D01*
X911Y180D02*
X915Y180D01*
X928Y180D02*
X931Y180D01*
X941Y180D02*
X945Y180D01*
X1006Y180D02*
X1010Y180D01*
X1032Y180D02*
X1039Y180D01*
X1048Y180D02*
X1052Y180D01*
X1066Y180D02*
X1069Y180D01*
X1074Y180D02*
X1078Y180D01*
X1149Y180D02*
X1152Y180D01*
X1164Y180D02*
X1168Y180D01*
X1179Y180D02*
X1182Y180D01*
X1239Y180D02*
X1242Y180D01*
X1256Y180D02*
X1259Y180D01*
X155Y179D02*
X158Y179D01*
X190Y179D02*
X203Y179D01*
X217Y179D02*
X230Y179D01*
X275Y179D02*
X295Y179D01*
X306Y179D02*
X325Y179D01*
X401Y179D02*
X404Y179D01*
X417Y179D02*
X421Y179D01*
X431Y179D02*
X434Y179D01*
X491Y179D02*
X494Y179D01*
X508Y179D02*
X511Y179D01*
X521Y179D02*
X525Y179D01*
X568Y179D02*
X571Y179D01*
X634Y179D02*
X637Y179D01*
X668Y179D02*
X672Y179D01*
X698Y179D02*
X702Y179D01*
X706Y179D02*
X710Y179D01*
X759Y179D02*
X762Y179D01*
X767Y179D02*
X770Y179D01*
X785Y179D02*
X788Y179D01*
X800Y179D02*
X804Y179D01*
X819Y179D02*
X822Y179D01*
X911Y179D02*
X915Y179D01*
X928Y179D02*
X931Y179D01*
X941Y179D02*
X945Y179D01*
X1005Y179D02*
X1010Y179D01*
X1032Y179D02*
X1040Y179D01*
X1048Y179D02*
X1052Y179D01*
X1066Y179D02*
X1069Y179D01*
X1075Y179D02*
X1078Y179D01*
X1149Y179D02*
X1152Y179D01*
X1165Y179D02*
X1168Y179D01*
X1179Y179D02*
X1182Y179D01*
X1239Y179D02*
X1242Y179D01*
X1256Y179D02*
X1259Y179D01*
X155Y178D02*
X158Y178D01*
X189Y178D02*
X193Y178D01*
X219Y178D02*
X222Y178D01*
X227Y178D02*
X230Y178D01*
X275Y178D02*
X279Y178D01*
X292Y178D02*
X295Y178D01*
X306Y178D02*
X309Y178D01*
X322Y178D02*
X325Y178D01*
X401Y178D02*
X404Y178D01*
X417Y178D02*
X421Y178D01*
X431Y178D02*
X434Y178D01*
X491Y178D02*
X494Y178D01*
X508Y178D02*
X511Y178D01*
X521Y178D02*
X525Y178D01*
X568Y178D02*
X571Y178D01*
X634Y178D02*
X637Y178D01*
X668Y178D02*
X671Y178D01*
X698Y178D02*
X702Y178D01*
X707Y178D02*
X711Y178D01*
X759Y178D02*
X762Y178D01*
X767Y178D02*
X771Y178D01*
X785Y178D02*
X788Y178D01*
X801Y178D02*
X804Y178D01*
X819Y178D02*
X822Y178D01*
X911Y178D02*
X915Y178D01*
X928Y178D02*
X931Y178D01*
X941Y178D02*
X945Y178D01*
X1004Y178D02*
X1009Y178D01*
X1032Y178D02*
X1040Y178D01*
X1048Y178D02*
X1052Y178D01*
X1066Y178D02*
X1069Y178D01*
X1075Y178D02*
X1079Y178D01*
X1149Y178D02*
X1152Y178D01*
X1165Y178D02*
X1168Y178D01*
X1179Y178D02*
X1182Y178D01*
X1239Y178D02*
X1242Y178D01*
X1256Y178D02*
X1259Y178D01*
X155Y177D02*
X158Y177D01*
X189Y177D02*
X193Y177D01*
X219Y177D02*
X222Y177D01*
X227Y177D02*
X231Y177D01*
X275Y177D02*
X279Y177D01*
X292Y177D02*
X295Y177D01*
X306Y177D02*
X310Y177D01*
X322Y177D02*
X325Y177D01*
X401Y177D02*
X404Y177D01*
X417Y177D02*
X421Y177D01*
X431Y177D02*
X434Y177D01*
X491Y177D02*
X494Y177D01*
X508Y177D02*
X511Y177D01*
X521Y177D02*
X525Y177D01*
X568Y177D02*
X571Y177D01*
X634Y177D02*
X637Y177D01*
X667Y177D02*
X671Y177D01*
X698Y177D02*
X702Y177D01*
X707Y177D02*
X711Y177D01*
X759Y177D02*
X762Y177D01*
X768Y177D02*
X771Y177D01*
X785Y177D02*
X788Y177D01*
X801Y177D02*
X804Y177D01*
X819Y177D02*
X822Y177D01*
X911Y177D02*
X915Y177D01*
X928Y177D02*
X931Y177D01*
X941Y177D02*
X945Y177D01*
X1004Y177D02*
X1008Y177D01*
X1032Y177D02*
X1035Y177D01*
X1037Y177D02*
X1041Y177D01*
X1048Y177D02*
X1052Y177D01*
X1066Y177D02*
X1069Y177D01*
X1076Y177D02*
X1079Y177D01*
X1149Y177D02*
X1152Y177D01*
X1165Y177D02*
X1168Y177D01*
X1179Y177D02*
X1182Y177D01*
X1239Y177D02*
X1242Y177D01*
X1256Y177D02*
X1259Y177D01*
X155Y176D02*
X158Y176D01*
X188Y176D02*
X192Y176D01*
X219Y176D02*
X222Y176D01*
X228Y176D02*
X231Y176D01*
X275Y176D02*
X279Y176D01*
X292Y176D02*
X295Y176D01*
X306Y176D02*
X310Y176D01*
X323Y176D02*
X325Y176D01*
X401Y176D02*
X404Y176D01*
X417Y176D02*
X421Y176D01*
X431Y176D02*
X434Y176D01*
X491Y176D02*
X494Y176D01*
X507Y176D02*
X511Y176D01*
X521Y176D02*
X525Y176D01*
X568Y176D02*
X571Y176D01*
X634Y176D02*
X637Y176D01*
X667Y176D02*
X670Y176D01*
X698Y176D02*
X702Y176D01*
X708Y176D02*
X712Y176D01*
X759Y176D02*
X762Y176D01*
X768Y176D02*
X772Y176D01*
X785Y176D02*
X788Y176D01*
X801Y176D02*
X804Y176D01*
X819Y176D02*
X822Y176D01*
X911Y176D02*
X915Y176D01*
X926Y176D02*
X931Y176D01*
X941Y176D02*
X945Y176D01*
X1003Y176D02*
X1007Y176D01*
X1032Y176D02*
X1035Y176D01*
X1037Y176D02*
X1041Y176D01*
X1048Y176D02*
X1052Y176D01*
X1066Y176D02*
X1069Y176D01*
X1076Y176D02*
X1080Y176D01*
X1149Y176D02*
X1152Y176D01*
X1165Y176D02*
X1168Y176D01*
X1179Y176D02*
X1182Y176D01*
X1239Y176D02*
X1242Y176D01*
X1255Y176D02*
X1259Y176D01*
X155Y175D02*
X158Y175D01*
X188Y175D02*
X192Y175D01*
X219Y175D02*
X222Y175D01*
X228Y175D02*
X232Y175D01*
X275Y175D02*
X279Y175D01*
X292Y175D02*
X295Y175D01*
X307Y175D02*
X311Y175D01*
X401Y175D02*
X420Y175D01*
X431Y175D02*
X434Y175D01*
X491Y175D02*
X511Y175D01*
X521Y175D02*
X525Y175D01*
X568Y175D02*
X571Y175D01*
X634Y175D02*
X637Y175D01*
X666Y175D02*
X670Y175D01*
X698Y175D02*
X702Y175D01*
X708Y175D02*
X712Y175D01*
X759Y175D02*
X762Y175D01*
X769Y175D02*
X772Y175D01*
X785Y175D02*
X788Y175D01*
X801Y175D02*
X804Y175D01*
X819Y175D02*
X822Y175D01*
X911Y175D02*
X930Y175D01*
X941Y175D02*
X945Y175D01*
X1002Y175D02*
X1006Y175D01*
X1032Y175D02*
X1035Y175D01*
X1038Y175D02*
X1041Y175D01*
X1048Y175D02*
X1052Y175D01*
X1066Y175D02*
X1069Y175D01*
X1077Y175D02*
X1080Y175D01*
X1149Y175D02*
X1152Y175D01*
X1165Y175D02*
X1168Y175D01*
X1179Y175D02*
X1182Y175D01*
X1239Y175D02*
X1243Y175D01*
X1255Y175D02*
X1259Y175D01*
X1276Y175D02*
X1288Y175D01*
X1306Y175D02*
X1319Y175D01*
X155Y174D02*
X158Y174D01*
X187Y174D02*
X191Y174D01*
X219Y174D02*
X222Y174D01*
X229Y174D02*
X232Y174D01*
X275Y174D02*
X279Y174D01*
X292Y174D02*
X295Y174D01*
X308Y174D02*
X312Y174D01*
X401Y174D02*
X420Y174D01*
X431Y174D02*
X434Y174D01*
X491Y174D02*
X510Y174D01*
X521Y174D02*
X525Y174D01*
X568Y174D02*
X571Y174D01*
X634Y174D02*
X637Y174D01*
X666Y174D02*
X669Y174D01*
X698Y174D02*
X702Y174D01*
X709Y174D02*
X713Y174D01*
X759Y174D02*
X762Y174D01*
X769Y174D02*
X773Y174D01*
X785Y174D02*
X788Y174D01*
X801Y174D02*
X804Y174D01*
X819Y174D02*
X822Y174D01*
X911Y174D02*
X930Y174D01*
X941Y174D02*
X945Y174D01*
X1002Y174D02*
X1006Y174D01*
X1032Y174D02*
X1035Y174D01*
X1038Y174D02*
X1042Y174D01*
X1048Y174D02*
X1052Y174D01*
X1066Y174D02*
X1069Y174D01*
X1077Y174D02*
X1081Y174D01*
X1149Y174D02*
X1168Y174D01*
X1179Y174D02*
X1182Y174D01*
X1239Y174D02*
X1243Y174D01*
X1255Y174D02*
X1258Y174D01*
X1274Y174D02*
X1289Y174D01*
X1304Y174D02*
X1319Y174D01*
X155Y173D02*
X158Y173D01*
X187Y173D02*
X191Y173D01*
X219Y173D02*
X222Y173D01*
X229Y173D02*
X233Y173D01*
X275Y173D02*
X279Y173D01*
X291Y173D02*
X295Y173D01*
X308Y173D02*
X313Y173D01*
X401Y173D02*
X419Y173D01*
X431Y173D02*
X434Y173D01*
X491Y173D02*
X509Y173D01*
X521Y173D02*
X525Y173D01*
X568Y173D02*
X571Y173D01*
X634Y173D02*
X637Y173D01*
X665Y173D02*
X669Y173D01*
X698Y173D02*
X702Y173D01*
X709Y173D02*
X713Y173D01*
X759Y173D02*
X762Y173D01*
X770Y173D02*
X773Y173D01*
X785Y173D02*
X788Y173D01*
X801Y173D02*
X804Y173D01*
X819Y173D02*
X822Y173D01*
X911Y173D02*
X929Y173D01*
X941Y173D02*
X945Y173D01*
X1002Y173D02*
X1005Y173D01*
X1032Y173D02*
X1035Y173D01*
X1039Y173D02*
X1042Y173D01*
X1048Y173D02*
X1052Y173D01*
X1066Y173D02*
X1069Y173D01*
X1078Y173D02*
X1081Y173D01*
X1149Y173D02*
X1167Y173D01*
X1179Y173D02*
X1182Y173D01*
X1240Y173D02*
X1243Y173D01*
X1254Y173D02*
X1258Y173D01*
X1273Y173D02*
X1289Y173D01*
X1303Y173D02*
X1319Y173D01*
X155Y172D02*
X158Y172D01*
X186Y172D02*
X190Y172D01*
X219Y172D02*
X222Y172D01*
X230Y172D02*
X233Y172D01*
X275Y172D02*
X295Y172D01*
X309Y172D02*
X314Y172D01*
X401Y172D02*
X418Y172D01*
X431Y172D02*
X434Y172D01*
X491Y172D02*
X508Y172D01*
X521Y172D02*
X525Y172D01*
X568Y172D02*
X571Y172D01*
X634Y172D02*
X637Y172D01*
X665Y172D02*
X668Y172D01*
X698Y172D02*
X702Y172D01*
X710Y172D02*
X713Y172D01*
X759Y172D02*
X762Y172D01*
X770Y172D02*
X774Y172D01*
X785Y172D02*
X788Y172D01*
X800Y172D02*
X804Y172D01*
X819Y172D02*
X822Y172D01*
X911Y172D02*
X927Y172D01*
X941Y172D02*
X945Y172D01*
X1002Y172D02*
X1005Y172D01*
X1032Y172D02*
X1035Y172D01*
X1039Y172D02*
X1043Y172D01*
X1048Y172D02*
X1052Y172D01*
X1066Y172D02*
X1069Y172D01*
X1078Y172D02*
X1082Y172D01*
X1149Y172D02*
X1167Y172D01*
X1179Y172D02*
X1182Y172D01*
X1240Y172D02*
X1244Y172D01*
X1254Y172D02*
X1258Y172D01*
X1272Y172D02*
X1288Y172D01*
X1302Y172D02*
X1318Y172D01*
X155Y171D02*
X158Y171D01*
X186Y171D02*
X190Y171D01*
X219Y171D02*
X222Y171D01*
X230Y171D02*
X234Y171D01*
X275Y171D02*
X294Y171D01*
X310Y171D02*
X314Y171D01*
X401Y171D02*
X414Y171D01*
X431Y171D02*
X434Y171D01*
X491Y171D02*
X505Y171D01*
X521Y171D02*
X525Y171D01*
X553Y171D02*
X571Y171D01*
X634Y171D02*
X637Y171D01*
X664Y171D02*
X668Y171D01*
X698Y171D02*
X702Y171D01*
X710Y171D02*
X714Y171D01*
X759Y171D02*
X762Y171D01*
X771Y171D02*
X774Y171D01*
X785Y171D02*
X788Y171D01*
X797Y171D02*
X803Y171D01*
X819Y171D02*
X823Y171D01*
X911Y171D02*
X915Y171D01*
X919Y171D02*
X923Y171D01*
X941Y171D02*
X945Y171D01*
X1002Y171D02*
X1005Y171D01*
X1032Y171D02*
X1035Y171D01*
X1040Y171D02*
X1043Y171D01*
X1048Y171D02*
X1052Y171D01*
X1066Y171D02*
X1069Y171D01*
X1078Y171D02*
X1082Y171D01*
X1149Y171D02*
X1166Y171D01*
X1179Y171D02*
X1182Y171D01*
X1241Y171D02*
X1244Y171D01*
X1254Y171D02*
X1257Y171D01*
X1271Y171D02*
X1276Y171D01*
X1301Y171D02*
X1307Y171D01*
X155Y170D02*
X158Y170D01*
X186Y170D02*
X189Y170D01*
X219Y170D02*
X222Y170D01*
X231Y170D02*
X234Y170D01*
X275Y170D02*
X293Y170D01*
X311Y170D02*
X315Y170D01*
X401Y170D02*
X404Y170D01*
X409Y170D02*
X412Y170D01*
X431Y170D02*
X434Y170D01*
X491Y170D02*
X494Y170D01*
X499Y170D02*
X503Y170D01*
X521Y170D02*
X525Y170D01*
X552Y170D02*
X571Y170D01*
X634Y170D02*
X637Y170D01*
X664Y170D02*
X667Y170D01*
X698Y170D02*
X702Y170D01*
X711Y170D02*
X714Y170D01*
X759Y170D02*
X762Y170D01*
X771Y170D02*
X774Y170D01*
X785Y170D02*
X803Y170D01*
X819Y170D02*
X833Y170D01*
X911Y170D02*
X915Y170D01*
X919Y170D02*
X923Y170D01*
X941Y170D02*
X945Y170D01*
X1002Y170D02*
X1005Y170D01*
X1032Y170D02*
X1035Y170D01*
X1040Y170D02*
X1044Y170D01*
X1048Y170D02*
X1052Y170D01*
X1066Y170D02*
X1069Y170D01*
X1078Y170D02*
X1082Y170D01*
X1149Y170D02*
X1163Y170D01*
X1179Y170D02*
X1182Y170D01*
X1241Y170D02*
X1245Y170D01*
X1253Y170D02*
X1257Y170D01*
X1270Y170D02*
X1275Y170D01*
X1300Y170D02*
X1305Y170D01*
X155Y169D02*
X158Y169D01*
X185Y169D02*
X189Y169D01*
X219Y169D02*
X222Y169D01*
X231Y169D02*
X235Y169D01*
X275Y169D02*
X292Y169D01*
X311Y169D02*
X316Y169D01*
X401Y169D02*
X404Y169D01*
X409Y169D02*
X413Y169D01*
X431Y169D02*
X434Y169D01*
X491Y169D02*
X494Y169D01*
X500Y169D02*
X503Y169D01*
X521Y169D02*
X525Y169D01*
X552Y169D02*
X570Y169D01*
X634Y169D02*
X637Y169D01*
X664Y169D02*
X667Y169D01*
X698Y169D02*
X702Y169D01*
X711Y169D02*
X714Y169D01*
X759Y169D02*
X762Y169D01*
X771Y169D02*
X774Y169D01*
X785Y169D02*
X802Y169D01*
X819Y169D02*
X834Y169D01*
X911Y169D02*
X915Y169D01*
X920Y169D02*
X924Y169D01*
X941Y169D02*
X945Y169D01*
X1002Y169D02*
X1005Y169D01*
X1032Y169D02*
X1035Y169D01*
X1040Y169D02*
X1044Y169D01*
X1048Y169D02*
X1052Y169D01*
X1066Y169D02*
X1069Y169D01*
X1078Y169D02*
X1082Y169D01*
X1149Y169D02*
X1152Y169D01*
X1156Y169D02*
X1160Y169D01*
X1179Y169D02*
X1182Y169D01*
X1241Y169D02*
X1245Y169D01*
X1253Y169D02*
X1256Y169D01*
X1270Y169D02*
X1274Y169D01*
X1300Y169D02*
X1304Y169D01*
X155Y168D02*
X158Y168D01*
X185Y168D02*
X188Y168D01*
X219Y168D02*
X222Y168D01*
X232Y168D02*
X235Y168D01*
X275Y168D02*
X279Y168D01*
X283Y168D02*
X287Y168D01*
X312Y168D02*
X317Y168D01*
X401Y168D02*
X404Y168D01*
X410Y168D02*
X414Y168D01*
X431Y168D02*
X434Y168D01*
X491Y168D02*
X494Y168D01*
X500Y168D02*
X504Y168D01*
X521Y168D02*
X525Y168D01*
X552Y168D02*
X569Y168D01*
X634Y168D02*
X637Y168D01*
X664Y168D02*
X667Y168D01*
X698Y168D02*
X702Y168D01*
X711Y168D02*
X714Y168D01*
X759Y168D02*
X762Y168D01*
X771Y168D02*
X774Y168D01*
X785Y168D02*
X802Y168D01*
X819Y168D02*
X834Y168D01*
X911Y168D02*
X915Y168D01*
X921Y168D02*
X924Y168D01*
X941Y168D02*
X945Y168D01*
X1002Y168D02*
X1005Y168D01*
X1013Y168D02*
X1021Y168D01*
X1032Y168D02*
X1035Y168D01*
X1041Y168D02*
X1044Y168D01*
X1048Y168D02*
X1052Y168D01*
X1066Y168D02*
X1069Y168D01*
X1078Y168D02*
X1081Y168D01*
X1149Y168D02*
X1152Y168D01*
X1157Y168D02*
X1161Y168D01*
X1179Y168D02*
X1182Y168D01*
X1242Y168D02*
X1245Y168D01*
X1252Y168D02*
X1256Y168D01*
X1269Y168D02*
X1273Y168D01*
X1299Y168D02*
X1303Y168D01*
X155Y167D02*
X158Y167D01*
X185Y167D02*
X188Y167D01*
X219Y167D02*
X222Y167D01*
X232Y167D02*
X235Y167D01*
X275Y167D02*
X279Y167D01*
X283Y167D02*
X287Y167D01*
X313Y167D02*
X317Y167D01*
X401Y167D02*
X404Y167D01*
X410Y167D02*
X414Y167D01*
X431Y167D02*
X434Y167D01*
X491Y167D02*
X494Y167D01*
X501Y167D02*
X505Y167D01*
X521Y167D02*
X525Y167D01*
X552Y167D02*
X555Y167D01*
X634Y167D02*
X637Y167D01*
X664Y167D02*
X668Y167D01*
X698Y167D02*
X702Y167D01*
X710Y167D02*
X714Y167D01*
X759Y167D02*
X762Y167D01*
X771Y167D02*
X774Y167D01*
X785Y167D02*
X803Y167D01*
X819Y167D02*
X834Y167D01*
X911Y167D02*
X915Y167D01*
X921Y167D02*
X925Y167D01*
X941Y167D02*
X945Y167D01*
X1002Y167D02*
X1005Y167D01*
X1012Y167D02*
X1021Y167D01*
X1032Y167D02*
X1035Y167D01*
X1041Y167D02*
X1045Y167D01*
X1048Y167D02*
X1052Y167D01*
X1066Y167D02*
X1069Y167D01*
X1078Y167D02*
X1081Y167D01*
X1149Y167D02*
X1152Y167D01*
X1157Y167D02*
X1161Y167D01*
X1179Y167D02*
X1182Y167D01*
X1242Y167D02*
X1246Y167D01*
X1252Y167D02*
X1256Y167D01*
X1269Y167D02*
X1272Y167D01*
X1299Y167D02*
X1302Y167D01*
X155Y166D02*
X158Y166D01*
X185Y166D02*
X188Y166D01*
X219Y166D02*
X222Y166D01*
X232Y166D02*
X235Y166D01*
X275Y166D02*
X279Y166D01*
X284Y166D02*
X288Y166D01*
X314Y166D02*
X318Y166D01*
X401Y166D02*
X404Y166D01*
X411Y166D02*
X415Y166D01*
X431Y166D02*
X434Y166D01*
X491Y166D02*
X494Y166D01*
X501Y166D02*
X505Y166D01*
X521Y166D02*
X525Y166D01*
X552Y166D02*
X555Y166D01*
X634Y166D02*
X637Y166D01*
X665Y166D02*
X668Y166D01*
X698Y166D02*
X702Y166D01*
X710Y166D02*
X714Y166D01*
X759Y166D02*
X762Y166D01*
X770Y166D02*
X774Y166D01*
X785Y166D02*
X788Y166D01*
X799Y166D02*
X804Y166D01*
X831Y166D02*
X835Y166D01*
X911Y166D02*
X915Y166D01*
X922Y166D02*
X926Y166D01*
X941Y166D02*
X945Y166D01*
X1002Y166D02*
X1005Y166D01*
X1012Y166D02*
X1021Y166D01*
X1032Y166D02*
X1035Y166D01*
X1042Y166D02*
X1045Y166D01*
X1048Y166D02*
X1052Y166D01*
X1066Y166D02*
X1069Y166D01*
X1077Y166D02*
X1081Y166D01*
X1149Y166D02*
X1152Y166D01*
X1158Y166D02*
X1162Y166D01*
X1179Y166D02*
X1182Y166D01*
X1243Y166D02*
X1246Y166D01*
X1252Y166D02*
X1255Y166D01*
X1269Y166D02*
X1272Y166D01*
X1299Y166D02*
X1302Y166D01*
X155Y165D02*
X158Y165D01*
X185Y165D02*
X189Y165D01*
X219Y165D02*
X222Y165D01*
X231Y165D02*
X235Y165D01*
X275Y165D02*
X279Y165D01*
X284Y165D02*
X288Y165D01*
X315Y165D02*
X319Y165D01*
X401Y165D02*
X404Y165D01*
X411Y165D02*
X415Y165D01*
X431Y165D02*
X434Y165D01*
X491Y165D02*
X494Y165D01*
X502Y165D02*
X506Y165D01*
X521Y165D02*
X525Y165D01*
X552Y165D02*
X555Y165D01*
X634Y165D02*
X637Y165D01*
X665Y165D02*
X669Y165D01*
X698Y165D02*
X702Y165D01*
X709Y165D02*
X713Y165D01*
X759Y165D02*
X762Y165D01*
X770Y165D02*
X773Y165D01*
X785Y165D02*
X788Y165D01*
X800Y165D02*
X804Y165D01*
X831Y165D02*
X835Y165D01*
X911Y165D02*
X915Y165D01*
X922Y165D02*
X926Y165D01*
X941Y165D02*
X945Y165D01*
X1002Y165D02*
X1005Y165D01*
X1013Y165D02*
X1021Y165D01*
X1032Y165D02*
X1035Y165D01*
X1042Y165D02*
X1046Y165D01*
X1048Y165D02*
X1052Y165D01*
X1066Y165D02*
X1069Y165D01*
X1076Y165D02*
X1080Y165D01*
X1149Y165D02*
X1152Y165D01*
X1159Y165D02*
X1162Y165D01*
X1179Y165D02*
X1182Y165D01*
X1243Y165D02*
X1246Y165D01*
X1251Y165D02*
X1255Y165D01*
X1269Y165D02*
X1272Y165D01*
X1299Y165D02*
X1302Y165D01*
X155Y164D02*
X158Y164D01*
X185Y164D02*
X189Y164D01*
X219Y164D02*
X222Y164D01*
X231Y164D02*
X234Y164D01*
X275Y164D02*
X279Y164D01*
X285Y164D02*
X289Y164D01*
X315Y164D02*
X320Y164D01*
X401Y164D02*
X404Y164D01*
X412Y164D02*
X416Y164D01*
X431Y164D02*
X434Y164D01*
X491Y164D02*
X494Y164D01*
X502Y164D02*
X506Y164D01*
X521Y164D02*
X525Y164D01*
X552Y164D02*
X555Y164D01*
X634Y164D02*
X637Y164D01*
X665Y164D02*
X669Y164D01*
X698Y164D02*
X702Y164D01*
X709Y164D02*
X713Y164D01*
X759Y164D02*
X762Y164D01*
X769Y164D02*
X773Y164D01*
X785Y164D02*
X788Y164D01*
X801Y164D02*
X804Y164D01*
X831Y164D02*
X835Y164D01*
X911Y164D02*
X915Y164D01*
X923Y164D02*
X927Y164D01*
X941Y164D02*
X945Y164D01*
X1002Y164D02*
X1005Y164D01*
X1018Y164D02*
X1021Y164D01*
X1032Y164D02*
X1035Y164D01*
X1043Y164D02*
X1046Y164D01*
X1048Y164D02*
X1052Y164D01*
X1066Y164D02*
X1069Y164D01*
X1076Y164D02*
X1080Y164D01*
X1149Y164D02*
X1152Y164D01*
X1159Y164D02*
X1163Y164D01*
X1179Y164D02*
X1182Y164D01*
X1243Y164D02*
X1247Y164D01*
X1251Y164D02*
X1254Y164D01*
X1269Y164D02*
X1272Y164D01*
X1299Y164D02*
X1302Y164D01*
X155Y163D02*
X158Y163D01*
X186Y163D02*
X190Y163D01*
X219Y163D02*
X222Y163D01*
X230Y163D02*
X234Y163D01*
X275Y163D02*
X279Y163D01*
X286Y163D02*
X289Y163D01*
X316Y163D02*
X321Y163D01*
X401Y163D02*
X404Y163D01*
X413Y163D02*
X417Y163D01*
X431Y163D02*
X434Y163D01*
X491Y163D02*
X494Y163D01*
X503Y163D02*
X507Y163D01*
X521Y163D02*
X525Y163D01*
X552Y163D02*
X555Y163D01*
X634Y163D02*
X637Y163D01*
X666Y163D02*
X670Y163D01*
X698Y163D02*
X702Y163D01*
X708Y163D02*
X712Y163D01*
X759Y163D02*
X762Y163D01*
X769Y163D02*
X772Y163D01*
X785Y163D02*
X788Y163D01*
X801Y163D02*
X804Y163D01*
X831Y163D02*
X835Y163D01*
X911Y163D02*
X915Y163D01*
X923Y163D02*
X927Y163D01*
X941Y163D02*
X945Y163D01*
X1002Y163D02*
X1005Y163D01*
X1018Y163D02*
X1021Y163D01*
X1032Y163D02*
X1035Y163D01*
X1043Y163D02*
X1052Y163D01*
X1066Y163D02*
X1069Y163D01*
X1075Y163D02*
X1079Y163D01*
X1149Y163D02*
X1152Y163D01*
X1160Y163D02*
X1164Y163D01*
X1179Y163D02*
X1182Y163D01*
X1244Y163D02*
X1247Y163D01*
X1250Y163D02*
X1254Y163D01*
X1269Y163D02*
X1272Y163D01*
X1299Y163D02*
X1302Y163D01*
X155Y162D02*
X158Y162D01*
X186Y162D02*
X190Y162D01*
X219Y162D02*
X222Y162D01*
X230Y162D02*
X234Y162D01*
X275Y162D02*
X279Y162D01*
X286Y162D02*
X290Y162D01*
X317Y162D02*
X321Y162D01*
X401Y162D02*
X404Y162D01*
X413Y162D02*
X417Y162D01*
X431Y162D02*
X434Y162D01*
X491Y162D02*
X494Y162D01*
X504Y162D02*
X508Y162D01*
X521Y162D02*
X525Y162D01*
X552Y162D02*
X555Y162D01*
X634Y162D02*
X637Y162D01*
X666Y162D02*
X670Y162D01*
X698Y162D02*
X702Y162D01*
X708Y162D02*
X712Y162D01*
X759Y162D02*
X762Y162D01*
X768Y162D02*
X772Y162D01*
X785Y162D02*
X788Y162D01*
X801Y162D02*
X804Y162D01*
X831Y162D02*
X835Y162D01*
X911Y162D02*
X915Y162D01*
X924Y162D02*
X928Y162D01*
X941Y162D02*
X945Y162D01*
X1002Y162D02*
X1005Y162D01*
X1018Y162D02*
X1021Y162D01*
X1032Y162D02*
X1035Y162D01*
X1043Y162D02*
X1052Y162D01*
X1066Y162D02*
X1069Y162D01*
X1075Y162D02*
X1079Y162D01*
X1149Y162D02*
X1152Y162D01*
X1160Y162D02*
X1164Y162D01*
X1179Y162D02*
X1182Y162D01*
X1244Y162D02*
X1248Y162D01*
X1250Y162D02*
X1254Y162D01*
X1269Y162D02*
X1272Y162D01*
X1299Y162D02*
X1302Y162D01*
X155Y161D02*
X158Y161D01*
X187Y161D02*
X191Y161D01*
X219Y161D02*
X222Y161D01*
X229Y161D02*
X233Y161D01*
X275Y161D02*
X279Y161D01*
X287Y161D02*
X291Y161D01*
X318Y161D02*
X322Y161D01*
X401Y161D02*
X404Y161D01*
X414Y161D02*
X418Y161D01*
X431Y161D02*
X434Y161D01*
X491Y161D02*
X494Y161D01*
X504Y161D02*
X508Y161D01*
X521Y161D02*
X525Y161D01*
X552Y161D02*
X555Y161D01*
X634Y161D02*
X637Y161D01*
X667Y161D02*
X671Y161D01*
X698Y161D02*
X702Y161D01*
X707Y161D02*
X711Y161D01*
X759Y161D02*
X762Y161D01*
X768Y161D02*
X771Y161D01*
X785Y161D02*
X788Y161D01*
X801Y161D02*
X804Y161D01*
X831Y161D02*
X835Y161D01*
X911Y161D02*
X915Y161D01*
X925Y161D02*
X929Y161D01*
X941Y161D02*
X945Y161D01*
X1002Y161D02*
X1005Y161D01*
X1018Y161D02*
X1021Y161D01*
X1032Y161D02*
X1035Y161D01*
X1044Y161D02*
X1052Y161D01*
X1066Y161D02*
X1069Y161D01*
X1074Y161D02*
X1078Y161D01*
X1149Y161D02*
X1152Y161D01*
X1161Y161D02*
X1165Y161D01*
X1179Y161D02*
X1182Y161D01*
X1244Y161D02*
X1248Y161D01*
X1250Y161D02*
X1253Y161D01*
X1269Y161D02*
X1272Y161D01*
X1299Y161D02*
X1303Y161D01*
X155Y160D02*
X158Y160D01*
X187Y160D02*
X191Y160D01*
X219Y160D02*
X222Y160D01*
X229Y160D02*
X233Y160D01*
X275Y160D02*
X279Y160D01*
X287Y160D02*
X291Y160D01*
X318Y160D02*
X323Y160D01*
X401Y160D02*
X404Y160D01*
X414Y160D02*
X418Y160D01*
X431Y160D02*
X434Y160D01*
X491Y160D02*
X494Y160D01*
X505Y160D02*
X509Y160D01*
X521Y160D02*
X525Y160D01*
X552Y160D02*
X555Y160D01*
X634Y160D02*
X637Y160D01*
X667Y160D02*
X671Y160D01*
X698Y160D02*
X702Y160D01*
X707Y160D02*
X711Y160D01*
X759Y160D02*
X762Y160D01*
X767Y160D02*
X771Y160D01*
X785Y160D02*
X788Y160D01*
X801Y160D02*
X804Y160D01*
X831Y160D02*
X835Y160D01*
X911Y160D02*
X915Y160D01*
X925Y160D02*
X929Y160D01*
X941Y160D02*
X945Y160D01*
X1002Y160D02*
X1005Y160D01*
X1018Y160D02*
X1021Y160D01*
X1032Y160D02*
X1035Y160D01*
X1044Y160D02*
X1052Y160D01*
X1066Y160D02*
X1069Y160D01*
X1074Y160D02*
X1078Y160D01*
X1149Y160D02*
X1152Y160D01*
X1161Y160D02*
X1165Y160D01*
X1179Y160D02*
X1182Y160D01*
X1245Y160D02*
X1253Y160D01*
X1269Y160D02*
X1273Y160D01*
X1299Y160D02*
X1303Y160D01*
X155Y159D02*
X158Y159D01*
X188Y159D02*
X192Y159D01*
X219Y159D02*
X222Y159D01*
X228Y159D02*
X232Y159D01*
X275Y159D02*
X279Y159D01*
X288Y159D02*
X292Y159D01*
X319Y159D02*
X324Y159D01*
X401Y159D02*
X404Y159D01*
X415Y159D02*
X419Y159D01*
X431Y159D02*
X434Y159D01*
X491Y159D02*
X494Y159D01*
X505Y159D02*
X509Y159D01*
X521Y159D02*
X525Y159D01*
X552Y159D02*
X555Y159D01*
X634Y159D02*
X637Y159D01*
X668Y159D02*
X672Y159D01*
X698Y159D02*
X702Y159D01*
X706Y159D02*
X710Y159D01*
X759Y159D02*
X762Y159D01*
X767Y159D02*
X770Y159D01*
X785Y159D02*
X788Y159D01*
X801Y159D02*
X804Y159D01*
X831Y159D02*
X835Y159D01*
X911Y159D02*
X915Y159D01*
X926Y159D02*
X930Y159D01*
X941Y159D02*
X945Y159D01*
X1002Y159D02*
X1005Y159D01*
X1018Y159D02*
X1021Y159D01*
X1032Y159D02*
X1035Y159D01*
X1045Y159D02*
X1052Y159D01*
X1066Y159D02*
X1069Y159D01*
X1073Y159D02*
X1077Y159D01*
X1149Y159D02*
X1152Y159D01*
X1162Y159D02*
X1166Y159D01*
X1179Y159D02*
X1182Y159D01*
X1245Y159D02*
X1252Y159D01*
X1270Y159D02*
X1274Y159D01*
X1300Y159D02*
X1304Y159D01*
X155Y158D02*
X158Y158D01*
X188Y158D02*
X192Y158D01*
X219Y158D02*
X222Y158D01*
X228Y158D02*
X232Y158D01*
X275Y158D02*
X279Y158D01*
X288Y158D02*
X292Y158D01*
X306Y158D02*
X308Y158D01*
X320Y158D02*
X324Y158D01*
X401Y158D02*
X404Y158D01*
X416Y158D02*
X419Y158D01*
X431Y158D02*
X434Y158D01*
X491Y158D02*
X494Y158D01*
X506Y158D02*
X510Y158D01*
X521Y158D02*
X525Y158D01*
X552Y158D02*
X555Y158D01*
X634Y158D02*
X637Y158D01*
X668Y158D02*
X672Y158D01*
X698Y158D02*
X702Y158D01*
X706Y158D02*
X710Y158D01*
X759Y158D02*
X762Y158D01*
X766Y158D02*
X770Y158D01*
X785Y158D02*
X788Y158D01*
X800Y158D02*
X804Y158D01*
X815Y158D02*
X818Y158D01*
X831Y158D02*
X835Y158D01*
X911Y158D02*
X915Y158D01*
X926Y158D02*
X930Y158D01*
X941Y158D02*
X960Y158D01*
X1002Y158D02*
X1021Y158D01*
X1032Y158D02*
X1035Y158D01*
X1045Y158D02*
X1052Y158D01*
X1063Y158D02*
X1077Y158D01*
X1149Y158D02*
X1152Y158D01*
X1163Y158D02*
X1167Y158D01*
X1179Y158D02*
X1182Y158D01*
X1246Y158D02*
X1252Y158D01*
X1270Y158D02*
X1275Y158D01*
X1300Y158D02*
X1305Y158D01*
X155Y157D02*
X158Y157D01*
X189Y157D02*
X193Y157D01*
X219Y157D02*
X222Y157D01*
X227Y157D02*
X231Y157D01*
X275Y157D02*
X279Y157D01*
X289Y157D02*
X293Y157D01*
X306Y157D02*
X309Y157D01*
X321Y157D02*
X325Y157D01*
X401Y157D02*
X404Y157D01*
X416Y157D02*
X420Y157D01*
X431Y157D02*
X450Y157D01*
X491Y157D02*
X494Y157D01*
X507Y157D02*
X510Y157D01*
X521Y157D02*
X540Y157D01*
X552Y157D02*
X571Y157D01*
X634Y157D02*
X637Y157D01*
X669Y157D02*
X673Y157D01*
X698Y157D02*
X702Y157D01*
X705Y157D02*
X709Y157D01*
X758Y157D02*
X762Y157D01*
X765Y157D02*
X769Y157D01*
X785Y157D02*
X788Y157D01*
X798Y157D02*
X803Y157D01*
X815Y157D02*
X820Y157D01*
X831Y157D02*
X835Y157D01*
X911Y157D02*
X915Y157D01*
X927Y157D02*
X931Y157D01*
X941Y157D02*
X961Y157D01*
X1003Y157D02*
X1021Y157D01*
X1032Y157D02*
X1035Y157D01*
X1046Y157D02*
X1052Y157D01*
X1062Y157D02*
X1076Y157D01*
X1149Y157D02*
X1152Y157D01*
X1163Y157D02*
X1167Y157D01*
X1179Y157D02*
X1182Y157D01*
X1246Y157D02*
X1252Y157D01*
X1271Y157D02*
X1277Y157D01*
X1301Y157D02*
X1307Y157D01*
X155Y156D02*
X158Y156D01*
X189Y156D02*
X193Y156D01*
X219Y156D02*
X222Y156D01*
X227Y156D02*
X231Y156D01*
X275Y156D02*
X279Y156D01*
X290Y156D02*
X294Y156D01*
X306Y156D02*
X309Y156D01*
X322Y156D02*
X325Y156D01*
X401Y156D02*
X404Y156D01*
X417Y156D02*
X421Y156D01*
X431Y156D02*
X451Y156D01*
X491Y156D02*
X494Y156D01*
X507Y156D02*
X511Y156D01*
X521Y156D02*
X541Y156D01*
X552Y156D02*
X571Y156D01*
X634Y156D02*
X653Y156D01*
X669Y156D02*
X683Y156D01*
X695Y156D02*
X709Y156D01*
X755Y156D02*
X769Y156D01*
X785Y156D02*
X803Y156D01*
X815Y156D02*
X834Y156D01*
X911Y156D02*
X915Y156D01*
X928Y156D02*
X931Y156D01*
X941Y156D02*
X961Y156D01*
X1003Y156D02*
X1020Y156D01*
X1032Y156D02*
X1035Y156D01*
X1046Y156D02*
X1052Y156D01*
X1062Y156D02*
X1075Y156D01*
X1149Y156D02*
X1152Y156D01*
X1164Y156D02*
X1168Y156D01*
X1179Y156D02*
X1198Y156D01*
X1246Y156D02*
X1251Y156D01*
X1272Y156D02*
X1288Y156D01*
X1302Y156D02*
X1318Y156D01*
X155Y155D02*
X158Y155D01*
X190Y155D02*
X194Y155D01*
X219Y155D02*
X223Y155D01*
X226Y155D02*
X230Y155D01*
X275Y155D02*
X279Y155D01*
X288Y155D02*
X288Y155D01*
X290Y155D02*
X294Y155D01*
X306Y155D02*
X310Y155D01*
X322Y155D02*
X335Y155D01*
X348Y155D02*
X357Y155D01*
X401Y155D02*
X404Y155D01*
X407Y155D02*
X425Y155D01*
X431Y155D02*
X451Y155D01*
X491Y155D02*
X494Y155D01*
X508Y155D02*
X511Y155D01*
X521Y155D02*
X541Y155D01*
X552Y155D02*
X571Y155D01*
X616Y155D02*
X632Y155D01*
X634Y155D02*
X654Y155D01*
X670Y155D02*
X688Y155D01*
X694Y155D02*
X708Y155D01*
X755Y155D02*
X768Y155D01*
X785Y155D02*
X802Y155D01*
X805Y155D02*
X836Y155D01*
X887Y155D02*
X896Y155D01*
X912Y155D02*
X914Y155D01*
X916Y155D02*
X931Y155D01*
X941Y155D02*
X965Y155D01*
X1005Y155D02*
X1019Y155D01*
X1032Y155D02*
X1035Y155D01*
X1047Y155D02*
X1052Y155D01*
X1062Y155D02*
X1074Y155D01*
X1149Y155D02*
X1152Y155D01*
X1164Y155D02*
X1168Y155D01*
X1179Y155D02*
X1198Y155D01*
X1247Y155D02*
X1251Y155D01*
X1273Y155D02*
X1289Y155D01*
X1303Y155D02*
X1319Y155D01*
X69Y154D02*
X75Y154D01*
X90Y154D02*
X97Y154D01*
X150Y154D02*
X174Y154D01*
X179Y154D02*
X204Y154D01*
X211Y154D02*
X212Y154D01*
X216Y154D02*
X230Y154D01*
X275Y154D02*
X279Y154D01*
X286Y154D02*
X289Y154D01*
X291Y154D02*
X295Y154D01*
X306Y154D02*
X336Y154D01*
X347Y154D02*
X359Y154D01*
X402Y154D02*
X403Y154D01*
X407Y154D02*
X426Y154D01*
X431Y154D02*
X450Y154D01*
X492Y154D02*
X494Y154D01*
X508Y154D02*
X510Y154D01*
X521Y154D02*
X543Y154D01*
X552Y154D02*
X571Y154D01*
X616Y154D02*
X654Y154D01*
X671Y154D02*
X688Y154D01*
X694Y154D02*
X707Y154D01*
X755Y154D02*
X768Y154D01*
X785Y154D02*
X815Y154D01*
X817Y154D02*
X838Y154D01*
X886Y154D02*
X898Y154D01*
X913Y154D02*
X913Y154D01*
X916Y154D02*
X931Y154D01*
X942Y154D02*
X966Y154D01*
X1007Y154D02*
X1016Y154D01*
X1045Y154D02*
X1054Y154D01*
X1064Y154D02*
X1076Y154D01*
X1137Y154D02*
X1145Y154D01*
X1149Y154D02*
X1152Y154D01*
X1156Y154D02*
X1161Y154D01*
X1165Y154D02*
X1168Y154D01*
X1174Y154D02*
X1175Y154D01*
X1179Y154D02*
X1198Y154D01*
X1247Y154D02*
X1251Y154D01*
X1274Y154D02*
X1298Y154D01*
X1305Y154D02*
X1320Y154D01*
X1371Y154D02*
X1371Y154D01*
X1387Y154D02*
X1388Y154D01*
X1401Y154D02*
X1410Y154D01*
X1431Y154D02*
X1440Y154D01*
X28Y153D02*
X31Y153D01*
X65Y153D02*
X77Y153D01*
X88Y153D02*
X100Y153D01*
X149Y153D02*
X175Y153D01*
X178Y153D02*
X205Y153D01*
X209Y153D02*
X213Y153D01*
X215Y153D02*
X229Y153D01*
X275Y153D02*
X279Y153D01*
X286Y153D02*
X289Y153D01*
X291Y153D02*
X295Y153D01*
X307Y153D02*
X336Y153D01*
X347Y153D02*
X360Y153D01*
X407Y153D02*
X426Y153D01*
X462Y153D02*
X480Y153D01*
X526Y153D02*
X544Y153D01*
X556Y153D02*
X559Y153D01*
X616Y153D02*
X653Y153D01*
X673Y153D02*
X688Y153D01*
X695Y153D02*
X705Y153D01*
X755Y153D02*
X768Y153D01*
X785Y153D02*
X798Y153D01*
X801Y153D02*
X815Y153D01*
X820Y153D02*
X839Y153D01*
X886Y153D02*
X899Y153D01*
X916Y153D02*
X933Y153D01*
X946Y153D02*
X966Y153D01*
X972Y153D02*
X991Y153D01*
X1006Y153D02*
X1008Y153D01*
X1043Y153D02*
X1055Y153D01*
X1066Y153D02*
X1078Y153D01*
X1135Y153D02*
X1146Y153D01*
X1149Y153D02*
X1151Y153D01*
X1156Y153D02*
X1161Y153D01*
X1166Y153D02*
X1168Y153D01*
X1173Y153D02*
X1176Y153D01*
X1179Y153D02*
X1199Y153D01*
X1248Y153D02*
X1252Y153D01*
X1276Y153D02*
X1299Y153D01*
X1306Y153D02*
X1322Y153D01*
X1370Y153D02*
X1372Y153D01*
X1386Y153D02*
X1389Y153D01*
X1400Y153D02*
X1412Y153D01*
X1430Y153D02*
X1442Y153D01*
X28Y152D02*
X31Y152D01*
X64Y152D02*
X78Y152D01*
X88Y152D02*
X101Y152D01*
X148Y152D02*
X174Y152D01*
X178Y152D02*
X205Y152D01*
X209Y152D02*
X228Y152D01*
X276Y152D02*
X278Y152D01*
X286Y152D02*
X290Y152D01*
X292Y152D02*
X295Y152D01*
X308Y152D02*
X336Y152D01*
X347Y152D02*
X361Y152D01*
X407Y152D02*
X426Y152D01*
X461Y152D02*
X481Y152D01*
X526Y152D02*
X545Y152D01*
X556Y152D02*
X559Y152D01*
X616Y152D02*
X635Y152D01*
X646Y152D02*
X649Y152D01*
X677Y152D02*
X688Y152D01*
X725Y152D02*
X743Y152D01*
X765Y152D02*
X768Y152D01*
X801Y152D02*
X815Y152D01*
X826Y152D02*
X840Y152D01*
X886Y152D02*
X900Y152D01*
X916Y152D02*
X934Y152D01*
X946Y152D02*
X966Y152D01*
X972Y152D02*
X991Y152D01*
X1005Y152D02*
X1009Y152D01*
X1042Y152D02*
X1055Y152D01*
X1066Y152D02*
X1079Y152D01*
X1134Y152D02*
X1146Y152D01*
X1156Y152D02*
X1162Y152D01*
X1173Y152D02*
X1176Y152D01*
X1186Y152D02*
X1200Y152D01*
X1210Y152D02*
X1227Y152D01*
X1249Y152D02*
X1252Y152D01*
X1285Y152D02*
X1299Y152D01*
X1309Y152D02*
X1323Y152D01*
X1369Y152D02*
X1373Y152D01*
X1386Y152D02*
X1389Y152D01*
X1400Y152D02*
X1413Y152D01*
X1430Y152D02*
X1443Y152D01*
X28Y151D02*
X31Y151D01*
X63Y151D02*
X77Y151D01*
X88Y151D02*
X102Y151D01*
X148Y151D02*
X174Y151D01*
X178Y151D02*
X204Y151D01*
X209Y151D02*
X214Y151D01*
X216Y151D02*
X226Y151D01*
X276Y151D02*
X278Y151D01*
X286Y151D02*
X290Y151D01*
X293Y151D02*
X294Y151D01*
X309Y151D02*
X334Y151D01*
X349Y151D02*
X361Y151D01*
X407Y151D02*
X424Y151D01*
X461Y151D02*
X481Y151D01*
X526Y151D02*
X529Y151D01*
X541Y151D02*
X545Y151D01*
X556Y151D02*
X559Y151D01*
X616Y151D02*
X620Y151D01*
X631Y151D02*
X636Y151D01*
X646Y151D02*
X649Y151D01*
X684Y151D02*
X688Y151D01*
X724Y151D02*
X744Y151D01*
X765Y151D02*
X768Y151D01*
X800Y151D02*
X813Y151D01*
X827Y151D02*
X840Y151D01*
X887Y151D02*
X900Y151D01*
X916Y151D02*
X934Y151D01*
X946Y151D02*
X966Y151D01*
X972Y151D02*
X991Y151D01*
X1005Y151D02*
X1009Y151D01*
X1041Y151D02*
X1055Y151D01*
X1066Y151D02*
X1080Y151D01*
X1133Y151D02*
X1145Y151D01*
X1156Y151D02*
X1162Y151D01*
X1173Y151D02*
X1176Y151D01*
X1187Y151D02*
X1201Y151D01*
X1209Y151D02*
X1228Y151D01*
X1249Y151D02*
X1252Y151D01*
X1284Y151D02*
X1298Y151D01*
X1310Y151D02*
X1323Y151D01*
X1369Y151D02*
X1373Y151D01*
X1386Y151D02*
X1389Y151D01*
X1400Y151D02*
X1414Y151D01*
X1430Y151D02*
X1444Y151D01*
X28Y150D02*
X31Y150D01*
X63Y150D02*
X76Y150D01*
X89Y150D02*
X103Y150D01*
X150Y150D02*
X163Y150D01*
X178Y150D02*
X197Y150D01*
X209Y150D02*
X213Y150D01*
X246Y150D02*
X264Y150D01*
X286Y150D02*
X290Y150D01*
X321Y150D02*
X325Y150D01*
X351Y150D02*
X354Y150D01*
X358Y150D02*
X362Y150D01*
X407Y150D02*
X410Y150D01*
X462Y150D02*
X480Y150D01*
X526Y150D02*
X529Y150D01*
X542Y150D02*
X545Y150D01*
X556Y150D02*
X559Y150D01*
X616Y150D02*
X619Y150D01*
X632Y150D02*
X636Y150D01*
X646Y150D02*
X649Y150D01*
X685Y150D02*
X688Y150D01*
X724Y150D02*
X744Y150D01*
X765Y150D02*
X768Y150D01*
X800Y150D02*
X803Y150D01*
X830Y150D02*
X833Y150D01*
X837Y150D02*
X841Y150D01*
X890Y150D02*
X893Y150D01*
X897Y150D02*
X901Y150D01*
X916Y150D02*
X919Y150D01*
X931Y150D02*
X935Y150D01*
X946Y150D02*
X949Y150D01*
X962Y150D02*
X966Y150D01*
X973Y150D02*
X990Y150D01*
X1005Y150D02*
X1009Y150D01*
X1040Y150D02*
X1045Y150D01*
X1069Y150D02*
X1074Y150D01*
X1076Y150D02*
X1081Y150D01*
X1132Y150D02*
X1137Y150D01*
X1156Y150D02*
X1162Y150D01*
X1173Y150D02*
X1176Y150D01*
X1190Y150D02*
X1194Y150D01*
X1196Y150D02*
X1201Y150D01*
X1209Y150D02*
X1229Y150D01*
X1249Y150D02*
X1252Y150D01*
X1284Y150D02*
X1289Y150D01*
X1313Y150D02*
X1317Y150D01*
X1319Y150D02*
X1324Y150D01*
X1369Y150D02*
X1373Y150D01*
X1386Y150D02*
X1389Y150D01*
X1403Y150D02*
X1407Y150D01*
X1410Y150D02*
X1414Y150D01*
X1433Y150D02*
X1437Y150D01*
X1440Y150D02*
X1444Y150D01*
X28Y149D02*
X31Y149D01*
X62Y149D02*
X66Y149D01*
X92Y149D02*
X95Y149D01*
X99Y149D02*
X103Y149D01*
X152Y149D02*
X156Y149D01*
X160Y149D02*
X163Y149D01*
X178Y149D02*
X182Y149D01*
X193Y149D02*
X197Y149D01*
X209Y149D02*
X212Y149D01*
X245Y149D02*
X265Y149D01*
X286Y149D02*
X290Y149D01*
X320Y149D02*
X324Y149D01*
X351Y149D02*
X354Y149D01*
X359Y149D02*
X362Y149D01*
X407Y149D02*
X410Y149D01*
X526Y149D02*
X529Y149D01*
X542Y149D02*
X546Y149D01*
X556Y149D02*
X559Y149D01*
X616Y149D02*
X619Y149D01*
X633Y149D02*
X636Y149D01*
X646Y149D02*
X649Y149D01*
X685Y149D02*
X688Y149D01*
X725Y149D02*
X743Y149D01*
X765Y149D02*
X768Y149D01*
X799Y149D02*
X803Y149D01*
X830Y149D02*
X833Y149D01*
X837Y149D02*
X841Y149D01*
X890Y149D02*
X893Y149D01*
X898Y149D02*
X901Y149D01*
X916Y149D02*
X919Y149D01*
X932Y149D02*
X935Y149D01*
X962Y149D02*
X966Y149D01*
X1005Y149D02*
X1009Y149D01*
X1040Y149D02*
X1044Y149D01*
X1070Y149D02*
X1073Y149D01*
X1077Y149D02*
X1081Y149D01*
X1131Y149D02*
X1136Y149D01*
X1156Y149D02*
X1163Y149D01*
X1173Y149D02*
X1176Y149D01*
X1190Y149D02*
X1194Y149D01*
X1198Y149D02*
X1202Y149D01*
X1209Y149D02*
X1228Y149D01*
X1249Y149D02*
X1252Y149D01*
X1283Y149D02*
X1287Y149D01*
X1313Y149D02*
X1317Y149D01*
X1321Y149D02*
X1325Y149D01*
X1369Y149D02*
X1373Y149D01*
X1386Y149D02*
X1389Y149D01*
X1404Y149D02*
X1407Y149D01*
X1411Y149D02*
X1415Y149D01*
X1434Y149D02*
X1437Y149D01*
X1441Y149D02*
X1445Y149D01*
X28Y148D02*
X31Y148D01*
X62Y148D02*
X66Y148D01*
X92Y148D02*
X95Y148D01*
X100Y148D02*
X104Y148D01*
X152Y148D02*
X156Y148D01*
X160Y148D02*
X164Y148D01*
X178Y148D02*
X182Y148D01*
X194Y148D02*
X198Y148D01*
X209Y148D02*
X212Y148D01*
X245Y148D02*
X265Y148D01*
X286Y148D02*
X290Y148D01*
X320Y148D02*
X324Y148D01*
X351Y148D02*
X354Y148D01*
X359Y148D02*
X363Y148D01*
X407Y148D02*
X410Y148D01*
X526Y148D02*
X529Y148D01*
X542Y148D02*
X546Y148D01*
X556Y148D02*
X559Y148D01*
X616Y148D02*
X619Y148D01*
X633Y148D02*
X636Y148D01*
X646Y148D02*
X649Y148D01*
X685Y148D02*
X688Y148D01*
X765Y148D02*
X768Y148D01*
X799Y148D02*
X802Y148D01*
X830Y148D02*
X833Y148D01*
X838Y148D02*
X842Y148D01*
X890Y148D02*
X893Y148D01*
X898Y148D02*
X902Y148D01*
X916Y148D02*
X919Y148D01*
X932Y148D02*
X935Y148D01*
X962Y148D02*
X966Y148D01*
X1005Y148D02*
X1009Y148D01*
X1039Y148D02*
X1043Y148D01*
X1070Y148D02*
X1073Y148D01*
X1078Y148D02*
X1082Y148D01*
X1130Y148D02*
X1135Y148D01*
X1156Y148D02*
X1163Y148D01*
X1173Y148D02*
X1176Y148D01*
X1190Y148D02*
X1194Y148D01*
X1198Y148D02*
X1202Y148D01*
X1211Y148D02*
X1226Y148D01*
X1249Y148D02*
X1252Y148D01*
X1283Y148D02*
X1287Y148D01*
X1313Y148D02*
X1317Y148D01*
X1321Y148D02*
X1325Y148D01*
X1369Y148D02*
X1373Y148D01*
X1386Y148D02*
X1389Y148D01*
X1404Y148D02*
X1407Y148D01*
X1412Y148D02*
X1415Y148D01*
X1434Y148D02*
X1437Y148D01*
X1442Y148D02*
X1445Y148D01*
X28Y147D02*
X31Y147D01*
X61Y147D02*
X65Y147D01*
X92Y147D02*
X95Y147D01*
X101Y147D02*
X104Y147D01*
X152Y147D02*
X156Y147D01*
X161Y147D02*
X164Y147D01*
X178Y147D02*
X182Y147D01*
X195Y147D02*
X198Y147D01*
X209Y147D02*
X212Y147D01*
X246Y147D02*
X264Y147D01*
X286Y147D02*
X290Y147D01*
X319Y147D02*
X323Y147D01*
X351Y147D02*
X354Y147D01*
X360Y147D02*
X363Y147D01*
X407Y147D02*
X410Y147D01*
X526Y147D02*
X529Y147D01*
X542Y147D02*
X546Y147D01*
X556Y147D02*
X559Y147D01*
X616Y147D02*
X619Y147D01*
X633Y147D02*
X636Y147D01*
X646Y147D02*
X649Y147D01*
X685Y147D02*
X688Y147D01*
X765Y147D02*
X768Y147D01*
X798Y147D02*
X802Y147D01*
X830Y147D02*
X833Y147D01*
X838Y147D02*
X842Y147D01*
X890Y147D02*
X893Y147D01*
X899Y147D02*
X902Y147D01*
X916Y147D02*
X919Y147D01*
X932Y147D02*
X936Y147D01*
X962Y147D02*
X966Y147D01*
X1005Y147D02*
X1009Y147D01*
X1039Y147D02*
X1043Y147D01*
X1070Y147D02*
X1073Y147D01*
X1078Y147D02*
X1082Y147D01*
X1130Y147D02*
X1134Y147D01*
X1156Y147D02*
X1164Y147D01*
X1173Y147D02*
X1176Y147D01*
X1190Y147D02*
X1194Y147D01*
X1199Y147D02*
X1203Y147D01*
X1249Y147D02*
X1252Y147D01*
X1282Y147D02*
X1286Y147D01*
X1313Y147D02*
X1317Y147D01*
X1322Y147D02*
X1326Y147D01*
X1369Y147D02*
X1373Y147D01*
X1386Y147D02*
X1389Y147D01*
X1404Y147D02*
X1407Y147D01*
X1412Y147D02*
X1416Y147D01*
X1434Y147D02*
X1437Y147D01*
X1442Y147D02*
X1446Y147D01*
X28Y146D02*
X31Y146D01*
X61Y146D02*
X65Y146D01*
X92Y146D02*
X95Y146D01*
X101Y146D02*
X105Y146D01*
X152Y146D02*
X156Y146D01*
X161Y146D02*
X165Y146D01*
X178Y146D02*
X182Y146D01*
X195Y146D02*
X198Y146D01*
X209Y146D02*
X212Y146D01*
X286Y146D02*
X290Y146D01*
X319Y146D02*
X322Y146D01*
X351Y146D02*
X354Y146D01*
X360Y146D02*
X364Y146D01*
X407Y146D02*
X410Y146D01*
X526Y146D02*
X529Y146D01*
X542Y146D02*
X545Y146D01*
X556Y146D02*
X559Y146D01*
X616Y146D02*
X619Y146D01*
X632Y146D02*
X636Y146D01*
X646Y146D02*
X649Y146D01*
X685Y146D02*
X688Y146D01*
X765Y146D02*
X768Y146D01*
X798Y146D02*
X801Y146D01*
X830Y146D02*
X833Y146D01*
X839Y146D02*
X843Y146D01*
X890Y146D02*
X893Y146D01*
X899Y146D02*
X903Y146D01*
X916Y146D02*
X919Y146D01*
X932Y146D02*
X936Y146D01*
X962Y146D02*
X966Y146D01*
X1005Y146D02*
X1009Y146D01*
X1038Y146D02*
X1042Y146D01*
X1070Y146D02*
X1073Y146D01*
X1079Y146D02*
X1083Y146D01*
X1129Y146D02*
X1133Y146D01*
X1156Y146D02*
X1164Y146D01*
X1173Y146D02*
X1176Y146D01*
X1190Y146D02*
X1194Y146D01*
X1199Y146D02*
X1203Y146D01*
X1249Y146D02*
X1252Y146D01*
X1282Y146D02*
X1286Y146D01*
X1313Y146D02*
X1317Y146D01*
X1322Y146D02*
X1326Y146D01*
X1369Y146D02*
X1373Y146D01*
X1386Y146D02*
X1389Y146D01*
X1404Y146D02*
X1407Y146D01*
X1413Y146D02*
X1416Y146D01*
X1434Y146D02*
X1437Y146D01*
X1443Y146D02*
X1447Y146D01*
X28Y145D02*
X31Y145D01*
X60Y145D02*
X64Y145D01*
X92Y145D02*
X95Y145D01*
X102Y145D02*
X105Y145D01*
X152Y145D02*
X156Y145D01*
X162Y145D02*
X166Y145D01*
X178Y145D02*
X182Y145D01*
X195Y145D02*
X198Y145D01*
X209Y145D02*
X212Y145D01*
X286Y145D02*
X290Y145D01*
X318Y145D02*
X322Y145D01*
X351Y145D02*
X354Y145D01*
X361Y145D02*
X364Y145D01*
X407Y145D02*
X410Y145D01*
X526Y145D02*
X529Y145D01*
X541Y145D02*
X545Y145D01*
X556Y145D02*
X559Y145D01*
X616Y145D02*
X619Y145D01*
X632Y145D02*
X636Y145D01*
X646Y145D02*
X649Y145D01*
X685Y145D02*
X688Y145D01*
X765Y145D02*
X768Y145D01*
X797Y145D02*
X801Y145D01*
X830Y145D02*
X833Y145D01*
X839Y145D02*
X843Y145D01*
X890Y145D02*
X893Y145D01*
X900Y145D02*
X903Y145D01*
X916Y145D02*
X919Y145D01*
X932Y145D02*
X936Y145D01*
X962Y145D02*
X966Y145D01*
X1005Y145D02*
X1009Y145D01*
X1038Y145D02*
X1042Y145D01*
X1070Y145D02*
X1073Y145D01*
X1079Y145D02*
X1083Y145D01*
X1128Y145D02*
X1132Y145D01*
X1156Y145D02*
X1159Y145D01*
X1161Y145D02*
X1165Y145D01*
X1173Y145D02*
X1176Y145D01*
X1190Y145D02*
X1194Y145D01*
X1200Y145D02*
X1204Y145D01*
X1249Y145D02*
X1252Y145D01*
X1281Y145D02*
X1285Y145D01*
X1313Y145D02*
X1317Y145D01*
X1323Y145D02*
X1327Y145D01*
X1369Y145D02*
X1373Y145D01*
X1386Y145D02*
X1389Y145D01*
X1404Y145D02*
X1407Y145D01*
X1413Y145D02*
X1417Y145D01*
X1434Y145D02*
X1437Y145D01*
X1443Y145D02*
X1447Y145D01*
X28Y144D02*
X31Y144D01*
X60Y144D02*
X64Y144D01*
X92Y144D02*
X95Y144D01*
X102Y144D02*
X106Y144D01*
X152Y144D02*
X156Y144D01*
X162Y144D02*
X166Y144D01*
X178Y144D02*
X182Y144D01*
X195Y144D02*
X198Y144D01*
X209Y144D02*
X212Y144D01*
X286Y144D02*
X290Y144D01*
X318Y144D02*
X321Y144D01*
X351Y144D02*
X354Y144D01*
X361Y144D02*
X365Y144D01*
X407Y144D02*
X410Y144D01*
X526Y144D02*
X545Y144D01*
X556Y144D02*
X559Y144D01*
X616Y144D02*
X635Y144D01*
X646Y144D02*
X649Y144D01*
X685Y144D02*
X688Y144D01*
X765Y144D02*
X768Y144D01*
X797Y144D02*
X800Y144D01*
X830Y144D02*
X833Y144D01*
X840Y144D02*
X844Y144D01*
X890Y144D02*
X893Y144D01*
X900Y144D02*
X904Y144D01*
X916Y144D02*
X919Y144D01*
X932Y144D02*
X935Y144D01*
X962Y144D02*
X966Y144D01*
X1005Y144D02*
X1009Y144D01*
X1037Y144D02*
X1041Y144D01*
X1070Y144D02*
X1073Y144D01*
X1080Y144D02*
X1084Y144D01*
X1127Y144D02*
X1132Y144D01*
X1156Y144D02*
X1159Y144D01*
X1162Y144D02*
X1165Y144D01*
X1173Y144D02*
X1176Y144D01*
X1190Y144D02*
X1194Y144D01*
X1200Y144D02*
X1204Y144D01*
X1249Y144D02*
X1252Y144D01*
X1281Y144D02*
X1285Y144D01*
X1313Y144D02*
X1317Y144D01*
X1323Y144D02*
X1327Y144D01*
X1370Y144D02*
X1373Y144D01*
X1385Y144D02*
X1389Y144D01*
X1404Y144D02*
X1407Y144D01*
X1414Y144D02*
X1417Y144D01*
X1434Y144D02*
X1437Y144D01*
X1444Y144D02*
X1448Y144D01*
X28Y143D02*
X31Y143D01*
X59Y143D02*
X63Y143D01*
X92Y143D02*
X95Y143D01*
X103Y143D02*
X106Y143D01*
X152Y143D02*
X156Y143D01*
X163Y143D02*
X167Y143D01*
X178Y143D02*
X182Y143D01*
X195Y143D02*
X198Y143D01*
X209Y143D02*
X212Y143D01*
X286Y143D02*
X290Y143D01*
X317Y143D02*
X321Y143D01*
X351Y143D02*
X354Y143D01*
X362Y143D02*
X365Y143D01*
X407Y143D02*
X410Y143D01*
X526Y143D02*
X544Y143D01*
X556Y143D02*
X559Y143D01*
X616Y143D02*
X635Y143D01*
X646Y143D02*
X649Y143D01*
X685Y143D02*
X688Y143D01*
X765Y143D02*
X768Y143D01*
X796Y143D02*
X800Y143D01*
X830Y143D02*
X833Y143D01*
X840Y143D02*
X844Y143D01*
X890Y143D02*
X893Y143D01*
X901Y143D02*
X904Y143D01*
X916Y143D02*
X919Y143D01*
X932Y143D02*
X935Y143D01*
X962Y143D02*
X966Y143D01*
X1005Y143D02*
X1009Y143D01*
X1037Y143D02*
X1041Y143D01*
X1070Y143D02*
X1073Y143D01*
X1080Y143D02*
X1084Y143D01*
X1127Y143D02*
X1131Y143D01*
X1156Y143D02*
X1159Y143D01*
X1162Y143D02*
X1166Y143D01*
X1173Y143D02*
X1176Y143D01*
X1190Y143D02*
X1194Y143D01*
X1201Y143D02*
X1205Y143D01*
X1249Y143D02*
X1252Y143D01*
X1280Y143D02*
X1284Y143D01*
X1313Y143D02*
X1317Y143D01*
X1324Y143D02*
X1328Y143D01*
X1370Y143D02*
X1374Y143D01*
X1385Y143D02*
X1389Y143D01*
X1404Y143D02*
X1407Y143D01*
X1414Y143D02*
X1418Y143D01*
X1434Y143D02*
X1437Y143D01*
X1444Y143D02*
X1448Y143D01*
X28Y142D02*
X31Y142D01*
X59Y142D02*
X63Y142D01*
X92Y142D02*
X95Y142D01*
X103Y142D02*
X107Y142D01*
X152Y142D02*
X156Y142D01*
X163Y142D02*
X167Y142D01*
X178Y142D02*
X182Y142D01*
X194Y142D02*
X198Y142D01*
X209Y142D02*
X212Y142D01*
X286Y142D02*
X290Y142D01*
X317Y142D02*
X320Y142D01*
X351Y142D02*
X354Y142D01*
X362Y142D02*
X366Y142D01*
X407Y142D02*
X410Y142D01*
X526Y142D02*
X543Y142D01*
X556Y142D02*
X559Y142D01*
X616Y142D02*
X634Y142D01*
X646Y142D02*
X649Y142D01*
X685Y142D02*
X688Y142D01*
X765Y142D02*
X768Y142D01*
X796Y142D02*
X799Y142D01*
X830Y142D02*
X833Y142D01*
X841Y142D02*
X845Y142D01*
X890Y142D02*
X893Y142D01*
X901Y142D02*
X905Y142D01*
X916Y142D02*
X919Y142D01*
X931Y142D02*
X935Y142D01*
X961Y142D02*
X966Y142D01*
X1005Y142D02*
X1009Y142D01*
X1036Y142D02*
X1040Y142D01*
X1070Y142D02*
X1073Y142D01*
X1081Y142D02*
X1085Y142D01*
X1126Y142D02*
X1130Y142D01*
X1156Y142D02*
X1159Y142D01*
X1162Y142D02*
X1166Y142D01*
X1173Y142D02*
X1176Y142D01*
X1190Y142D02*
X1194Y142D01*
X1201Y142D02*
X1205Y142D01*
X1249Y142D02*
X1252Y142D01*
X1280Y142D02*
X1284Y142D01*
X1313Y142D02*
X1317Y142D01*
X1324Y142D02*
X1328Y142D01*
X1370Y142D02*
X1374Y142D01*
X1385Y142D02*
X1388Y142D01*
X1404Y142D02*
X1407Y142D01*
X1415Y142D02*
X1418Y142D01*
X1434Y142D02*
X1437Y142D01*
X1445Y142D02*
X1448Y142D01*
X28Y141D02*
X31Y141D01*
X58Y141D02*
X62Y141D01*
X92Y141D02*
X95Y141D01*
X104Y141D02*
X107Y141D01*
X152Y141D02*
X156Y141D01*
X164Y141D02*
X167Y141D01*
X178Y141D02*
X182Y141D01*
X194Y141D02*
X198Y141D01*
X209Y141D02*
X212Y141D01*
X286Y141D02*
X290Y141D01*
X317Y141D02*
X320Y141D01*
X351Y141D02*
X354Y141D01*
X363Y141D02*
X366Y141D01*
X407Y141D02*
X417Y141D01*
X526Y141D02*
X542Y141D01*
X556Y141D02*
X559Y141D01*
X616Y141D02*
X632Y141D01*
X646Y141D02*
X649Y141D01*
X685Y141D02*
X688Y141D01*
X765Y141D02*
X768Y141D01*
X796Y141D02*
X799Y141D01*
X830Y141D02*
X833Y141D01*
X841Y141D02*
X845Y141D01*
X890Y141D02*
X893Y141D01*
X902Y141D02*
X905Y141D01*
X916Y141D02*
X934Y141D01*
X960Y141D02*
X965Y141D01*
X1005Y141D02*
X1009Y141D01*
X1036Y141D02*
X1040Y141D01*
X1070Y141D02*
X1073Y141D01*
X1081Y141D02*
X1085Y141D01*
X1126Y141D02*
X1130Y141D01*
X1156Y141D02*
X1159Y141D01*
X1163Y141D02*
X1166Y141D01*
X1173Y141D02*
X1176Y141D01*
X1190Y141D02*
X1194Y141D01*
X1202Y141D02*
X1205Y141D01*
X1249Y141D02*
X1252Y141D01*
X1280Y141D02*
X1283Y141D01*
X1313Y141D02*
X1317Y141D01*
X1325Y141D02*
X1328Y141D01*
X1371Y141D02*
X1374Y141D01*
X1384Y141D02*
X1388Y141D01*
X1404Y141D02*
X1407Y141D01*
X1415Y141D02*
X1419Y141D01*
X1434Y141D02*
X1437Y141D01*
X1445Y141D02*
X1449Y141D01*
X28Y140D02*
X31Y140D01*
X58Y140D02*
X62Y140D01*
X92Y140D02*
X95Y140D01*
X104Y140D02*
X107Y140D01*
X152Y140D02*
X156Y140D01*
X164Y140D02*
X168Y140D01*
X178Y140D02*
X182Y140D01*
X192Y140D02*
X197Y140D01*
X209Y140D02*
X212Y140D01*
X286Y140D02*
X290Y140D01*
X316Y140D02*
X320Y140D01*
X351Y140D02*
X354Y140D01*
X363Y140D02*
X366Y140D01*
X407Y140D02*
X418Y140D01*
X526Y140D02*
X529Y140D01*
X533Y140D02*
X537Y140D01*
X556Y140D02*
X559Y140D01*
X616Y140D02*
X619Y140D01*
X623Y140D02*
X627Y140D01*
X646Y140D02*
X649Y140D01*
X685Y140D02*
X688Y140D01*
X765Y140D02*
X768Y140D01*
X795Y140D02*
X799Y140D01*
X830Y140D02*
X833Y140D01*
X842Y140D02*
X845Y140D01*
X890Y140D02*
X893Y140D01*
X902Y140D02*
X905Y140D01*
X916Y140D02*
X934Y140D01*
X958Y140D02*
X964Y140D01*
X1005Y140D02*
X1009Y140D01*
X1036Y140D02*
X1039Y140D01*
X1070Y140D02*
X1073Y140D01*
X1082Y140D02*
X1085Y140D01*
X1126Y140D02*
X1129Y140D01*
X1156Y140D02*
X1159Y140D01*
X1163Y140D02*
X1167Y140D01*
X1173Y140D02*
X1176Y140D01*
X1190Y140D02*
X1194Y140D01*
X1202Y140D02*
X1206Y140D01*
X1249Y140D02*
X1252Y140D01*
X1279Y140D02*
X1283Y140D01*
X1313Y140D02*
X1317Y140D01*
X1325Y140D02*
X1329Y140D01*
X1371Y140D02*
X1375Y140D01*
X1384Y140D02*
X1387Y140D01*
X1404Y140D02*
X1407Y140D01*
X1416Y140D02*
X1419Y140D01*
X1434Y140D02*
X1437Y140D01*
X1446Y140D02*
X1449Y140D01*
X28Y139D02*
X31Y139D01*
X58Y139D02*
X61Y139D01*
X92Y139D02*
X95Y139D01*
X104Y139D02*
X108Y139D01*
X152Y139D02*
X156Y139D01*
X165Y139D02*
X168Y139D01*
X178Y139D02*
X196Y139D01*
X209Y139D02*
X212Y139D01*
X286Y139D02*
X290Y139D01*
X316Y139D02*
X320Y139D01*
X351Y139D02*
X354Y139D01*
X363Y139D02*
X366Y139D01*
X407Y139D02*
X418Y139D01*
X526Y139D02*
X529Y139D01*
X534Y139D02*
X538Y139D01*
X556Y139D02*
X559Y139D01*
X616Y139D02*
X619Y139D01*
X624Y139D02*
X628Y139D01*
X646Y139D02*
X649Y139D01*
X685Y139D02*
X688Y139D01*
X765Y139D02*
X768Y139D01*
X795Y139D02*
X798Y139D01*
X830Y139D02*
X833Y139D01*
X842Y139D02*
X845Y139D01*
X890Y139D02*
X893Y139D01*
X902Y139D02*
X905Y139D01*
X916Y139D02*
X933Y139D01*
X957Y139D02*
X963Y139D01*
X1005Y139D02*
X1009Y139D01*
X1036Y139D02*
X1039Y139D01*
X1070Y139D02*
X1073Y139D01*
X1082Y139D02*
X1085Y139D01*
X1126Y139D02*
X1129Y139D01*
X1156Y139D02*
X1159Y139D01*
X1164Y139D02*
X1167Y139D01*
X1173Y139D02*
X1176Y139D01*
X1190Y139D02*
X1194Y139D01*
X1203Y139D02*
X1206Y139D01*
X1249Y139D02*
X1252Y139D01*
X1279Y139D02*
X1282Y139D01*
X1313Y139D02*
X1317Y139D01*
X1326Y139D02*
X1329Y139D01*
X1372Y139D02*
X1375Y139D01*
X1383Y139D02*
X1387Y139D01*
X1404Y139D02*
X1407Y139D01*
X1416Y139D02*
X1419Y139D01*
X1434Y139D02*
X1437Y139D01*
X1446Y139D02*
X1449Y139D01*
X28Y138D02*
X31Y138D01*
X58Y138D02*
X61Y138D01*
X92Y138D02*
X95Y138D01*
X105Y138D02*
X108Y138D01*
X152Y138D02*
X156Y138D01*
X165Y138D02*
X168Y138D01*
X178Y138D02*
X196Y138D01*
X209Y138D02*
X212Y138D01*
X286Y138D02*
X290Y138D01*
X316Y138D02*
X320Y138D01*
X351Y138D02*
X354Y138D01*
X363Y138D02*
X366Y138D01*
X407Y138D02*
X418Y138D01*
X526Y138D02*
X529Y138D01*
X534Y138D02*
X538Y138D01*
X556Y138D02*
X559Y138D01*
X616Y138D02*
X619Y138D01*
X625Y138D02*
X629Y138D01*
X646Y138D02*
X649Y138D01*
X685Y138D02*
X688Y138D01*
X765Y138D02*
X768Y138D01*
X795Y138D02*
X799Y138D01*
X830Y138D02*
X833Y138D01*
X842Y138D02*
X845Y138D01*
X890Y138D02*
X893Y138D01*
X902Y138D02*
X905Y138D01*
X916Y138D02*
X933Y138D01*
X956Y138D02*
X962Y138D01*
X1005Y138D02*
X1009Y138D01*
X1036Y138D02*
X1039Y138D01*
X1070Y138D02*
X1073Y138D01*
X1082Y138D02*
X1085Y138D01*
X1126Y138D02*
X1129Y138D01*
X1156Y138D02*
X1159Y138D01*
X1164Y138D02*
X1168Y138D01*
X1173Y138D02*
X1176Y138D01*
X1190Y138D02*
X1194Y138D01*
X1203Y138D02*
X1206Y138D01*
X1249Y138D02*
X1252Y138D01*
X1279Y138D02*
X1282Y138D01*
X1313Y138D02*
X1317Y138D01*
X1326Y138D02*
X1329Y138D01*
X1372Y138D02*
X1376Y138D01*
X1383Y138D02*
X1387Y138D01*
X1404Y138D02*
X1407Y138D01*
X1416Y138D02*
X1419Y138D01*
X1434Y138D02*
X1437Y138D01*
X1446Y138D02*
X1449Y138D01*
X28Y137D02*
X31Y137D01*
X58Y137D02*
X61Y137D01*
X92Y137D02*
X95Y137D01*
X104Y137D02*
X108Y137D01*
X152Y137D02*
X156Y137D01*
X165Y137D02*
X168Y137D01*
X178Y137D02*
X196Y137D01*
X209Y137D02*
X212Y137D01*
X286Y137D02*
X290Y137D01*
X317Y137D02*
X320Y137D01*
X351Y137D02*
X354Y137D01*
X363Y137D02*
X366Y137D01*
X407Y137D02*
X417Y137D01*
X526Y137D02*
X529Y137D01*
X535Y137D02*
X539Y137D01*
X556Y137D02*
X559Y137D01*
X616Y137D02*
X619Y137D01*
X625Y137D02*
X629Y137D01*
X646Y137D02*
X649Y137D01*
X685Y137D02*
X688Y137D01*
X694Y137D02*
X695Y137D01*
X765Y137D02*
X768Y137D01*
X795Y137D02*
X799Y137D01*
X830Y137D02*
X833Y137D01*
X842Y137D02*
X845Y137D01*
X890Y137D02*
X893Y137D01*
X902Y137D02*
X905Y137D01*
X916Y137D02*
X934Y137D01*
X955Y137D02*
X960Y137D01*
X1005Y137D02*
X1009Y137D01*
X1036Y137D02*
X1039Y137D01*
X1070Y137D02*
X1073Y137D01*
X1082Y137D02*
X1085Y137D01*
X1126Y137D02*
X1129Y137D01*
X1156Y137D02*
X1159Y137D01*
X1165Y137D02*
X1168Y137D01*
X1173Y137D02*
X1176Y137D01*
X1190Y137D02*
X1194Y137D01*
X1203Y137D02*
X1206Y137D01*
X1249Y137D02*
X1252Y137D01*
X1279Y137D02*
X1282Y137D01*
X1313Y137D02*
X1317Y137D01*
X1326Y137D02*
X1329Y137D01*
X1372Y137D02*
X1376Y137D01*
X1383Y137D02*
X1386Y137D01*
X1404Y137D02*
X1407Y137D01*
X1416Y137D02*
X1419Y137D01*
X1434Y137D02*
X1437Y137D01*
X1446Y137D02*
X1449Y137D01*
X28Y136D02*
X31Y136D01*
X58Y136D02*
X61Y136D01*
X92Y136D02*
X95Y136D01*
X104Y136D02*
X108Y136D01*
X152Y136D02*
X156Y136D01*
X164Y136D02*
X168Y136D01*
X178Y136D02*
X197Y136D01*
X209Y136D02*
X227Y136D01*
X286Y136D02*
X290Y136D01*
X317Y136D02*
X320Y136D01*
X351Y136D02*
X354Y136D01*
X362Y136D02*
X366Y136D01*
X407Y136D02*
X410Y136D01*
X526Y136D02*
X529Y136D01*
X535Y136D02*
X539Y136D01*
X556Y136D02*
X559Y136D01*
X616Y136D02*
X619Y136D01*
X626Y136D02*
X630Y136D01*
X646Y136D02*
X649Y136D01*
X685Y136D02*
X688Y136D01*
X693Y136D02*
X696Y136D01*
X765Y136D02*
X768Y136D01*
X796Y136D02*
X799Y136D01*
X830Y136D02*
X833Y136D01*
X841Y136D02*
X845Y136D01*
X890Y136D02*
X893Y136D01*
X901Y136D02*
X905Y136D01*
X916Y136D02*
X919Y136D01*
X931Y136D02*
X935Y136D01*
X954Y136D02*
X959Y136D01*
X1005Y136D02*
X1009Y136D01*
X1036Y136D02*
X1039Y136D01*
X1070Y136D02*
X1073Y136D01*
X1082Y136D02*
X1085Y136D01*
X1126Y136D02*
X1129Y136D01*
X1137Y136D02*
X1146Y136D01*
X1156Y136D02*
X1159Y136D01*
X1165Y136D02*
X1169Y136D01*
X1173Y136D02*
X1176Y136D01*
X1190Y136D02*
X1194Y136D01*
X1202Y136D02*
X1206Y136D01*
X1249Y136D02*
X1252Y136D01*
X1279Y136D02*
X1283Y136D01*
X1313Y136D02*
X1317Y136D01*
X1325Y136D02*
X1329Y136D01*
X1373Y136D02*
X1376Y136D01*
X1382Y136D02*
X1386Y136D01*
X1404Y136D02*
X1407Y136D01*
X1416Y136D02*
X1419Y136D01*
X1434Y136D02*
X1437Y136D01*
X1446Y136D02*
X1449Y136D01*
X28Y135D02*
X31Y135D01*
X58Y135D02*
X62Y135D01*
X92Y135D02*
X95Y135D01*
X104Y135D02*
X107Y135D01*
X152Y135D02*
X156Y135D01*
X164Y135D02*
X168Y135D01*
X178Y135D02*
X182Y135D01*
X193Y135D02*
X197Y135D01*
X209Y135D02*
X228Y135D01*
X286Y135D02*
X290Y135D01*
X317Y135D02*
X321Y135D01*
X351Y135D02*
X354Y135D01*
X362Y135D02*
X365Y135D01*
X407Y135D02*
X410Y135D01*
X526Y135D02*
X529Y135D01*
X536Y135D02*
X540Y135D01*
X556Y135D02*
X559Y135D01*
X616Y135D02*
X619Y135D01*
X626Y135D02*
X630Y135D01*
X646Y135D02*
X649Y135D01*
X685Y135D02*
X688Y135D01*
X693Y135D02*
X696Y135D01*
X765Y135D02*
X768Y135D01*
X796Y135D02*
X800Y135D01*
X830Y135D02*
X833Y135D01*
X841Y135D02*
X844Y135D01*
X890Y135D02*
X893Y135D01*
X901Y135D02*
X905Y135D01*
X916Y135D02*
X919Y135D01*
X932Y135D02*
X935Y135D01*
X954Y135D02*
X958Y135D01*
X1005Y135D02*
X1009Y135D01*
X1036Y135D02*
X1040Y135D01*
X1070Y135D02*
X1073Y135D01*
X1081Y135D02*
X1085Y135D01*
X1126Y135D02*
X1129Y135D01*
X1136Y135D02*
X1146Y135D01*
X1156Y135D02*
X1159Y135D01*
X1165Y135D02*
X1169Y135D01*
X1173Y135D02*
X1176Y135D01*
X1190Y135D02*
X1194Y135D01*
X1202Y135D02*
X1205Y135D01*
X1249Y135D02*
X1252Y135D01*
X1280Y135D02*
X1283Y135D01*
X1313Y135D02*
X1317Y135D01*
X1325Y135D02*
X1328Y135D01*
X1373Y135D02*
X1377Y135D01*
X1382Y135D02*
X1385Y135D01*
X1404Y135D02*
X1407Y135D01*
X1415Y135D02*
X1419Y135D01*
X1434Y135D02*
X1437Y135D01*
X1445Y135D02*
X1449Y135D01*
X28Y134D02*
X31Y134D01*
X59Y134D02*
X62Y134D01*
X92Y134D02*
X95Y134D01*
X103Y134D02*
X107Y134D01*
X152Y134D02*
X156Y134D01*
X164Y134D02*
X167Y134D01*
X178Y134D02*
X182Y134D01*
X194Y134D02*
X198Y134D01*
X209Y134D02*
X228Y134D01*
X286Y134D02*
X290Y134D01*
X318Y134D02*
X321Y134D01*
X351Y134D02*
X354Y134D01*
X361Y134D02*
X365Y134D01*
X407Y134D02*
X410Y134D01*
X526Y134D02*
X529Y134D01*
X537Y134D02*
X541Y134D01*
X556Y134D02*
X559Y134D01*
X616Y134D02*
X619Y134D01*
X627Y134D02*
X631Y134D01*
X646Y134D02*
X649Y134D01*
X685Y134D02*
X688Y134D01*
X693Y134D02*
X696Y134D01*
X765Y134D02*
X768Y134D01*
X797Y134D02*
X800Y134D01*
X830Y134D02*
X833Y134D01*
X840Y134D02*
X844Y134D01*
X890Y134D02*
X893Y134D01*
X900Y134D02*
X904Y134D01*
X916Y134D02*
X919Y134D01*
X932Y134D02*
X935Y134D01*
X954Y134D02*
X957Y134D01*
X1005Y134D02*
X1009Y134D01*
X1036Y134D02*
X1040Y134D01*
X1070Y134D02*
X1073Y134D01*
X1081Y134D02*
X1085Y134D01*
X1126Y134D02*
X1129Y134D01*
X1136Y134D02*
X1146Y134D01*
X1156Y134D02*
X1159Y134D01*
X1166Y134D02*
X1170Y134D01*
X1173Y134D02*
X1176Y134D01*
X1190Y134D02*
X1194Y134D01*
X1201Y134D02*
X1205Y134D01*
X1249Y134D02*
X1252Y134D01*
X1280Y134D02*
X1284Y134D01*
X1313Y134D02*
X1317Y134D01*
X1324Y134D02*
X1328Y134D01*
X1374Y134D02*
X1377Y134D01*
X1381Y134D02*
X1385Y134D01*
X1404Y134D02*
X1407Y134D01*
X1415Y134D02*
X1418Y134D01*
X1434Y134D02*
X1437Y134D01*
X1445Y134D02*
X1448Y134D01*
X28Y133D02*
X31Y133D01*
X59Y133D02*
X63Y133D01*
X92Y133D02*
X95Y133D01*
X103Y133D02*
X107Y133D01*
X152Y133D02*
X156Y133D01*
X163Y133D02*
X167Y133D01*
X178Y133D02*
X182Y133D01*
X195Y133D02*
X198Y133D01*
X209Y133D02*
X228Y133D01*
X286Y133D02*
X290Y133D01*
X318Y133D02*
X322Y133D01*
X351Y133D02*
X354Y133D01*
X361Y133D02*
X364Y133D01*
X407Y133D02*
X410Y133D01*
X526Y133D02*
X529Y133D01*
X537Y133D02*
X541Y133D01*
X556Y133D02*
X559Y133D01*
X616Y133D02*
X619Y133D01*
X628Y133D02*
X631Y133D01*
X646Y133D02*
X649Y133D01*
X685Y133D02*
X688Y133D01*
X693Y133D02*
X696Y133D01*
X765Y133D02*
X768Y133D01*
X797Y133D02*
X801Y133D01*
X830Y133D02*
X833Y133D01*
X840Y133D02*
X843Y133D01*
X890Y133D02*
X893Y133D01*
X900Y133D02*
X904Y133D01*
X916Y133D02*
X919Y133D01*
X932Y133D02*
X936Y133D01*
X954Y133D02*
X957Y133D01*
X1005Y133D02*
X1009Y133D01*
X1037Y133D02*
X1041Y133D01*
X1070Y133D02*
X1073Y133D01*
X1080Y133D02*
X1084Y133D01*
X1126Y133D02*
X1129Y133D01*
X1137Y133D02*
X1146Y133D01*
X1156Y133D02*
X1159Y133D01*
X1166Y133D02*
X1170Y133D01*
X1173Y133D02*
X1176Y133D01*
X1190Y133D02*
X1194Y133D01*
X1201Y133D02*
X1205Y133D01*
X1249Y133D02*
X1252Y133D01*
X1280Y133D02*
X1284Y133D01*
X1313Y133D02*
X1317Y133D01*
X1324Y133D02*
X1328Y133D01*
X1374Y133D02*
X1377Y133D01*
X1381Y133D02*
X1385Y133D01*
X1404Y133D02*
X1407Y133D01*
X1414Y133D02*
X1418Y133D01*
X1434Y133D02*
X1437Y133D01*
X1444Y133D02*
X1448Y133D01*
X28Y132D02*
X31Y132D01*
X60Y132D02*
X63Y132D01*
X92Y132D02*
X95Y132D01*
X102Y132D02*
X106Y132D01*
X152Y132D02*
X156Y132D01*
X163Y132D02*
X166Y132D01*
X178Y132D02*
X182Y132D01*
X195Y132D02*
X198Y132D01*
X209Y132D02*
X212Y132D01*
X225Y132D02*
X228Y132D01*
X286Y132D02*
X290Y132D01*
X319Y132D02*
X322Y132D01*
X351Y132D02*
X354Y132D01*
X360Y132D02*
X364Y132D01*
X407Y132D02*
X410Y132D01*
X526Y132D02*
X529Y132D01*
X538Y132D02*
X542Y132D01*
X556Y132D02*
X559Y132D01*
X616Y132D02*
X619Y132D01*
X628Y132D02*
X632Y132D01*
X646Y132D02*
X649Y132D01*
X685Y132D02*
X688Y132D01*
X693Y132D02*
X696Y132D01*
X765Y132D02*
X768Y132D01*
X798Y132D02*
X801Y132D01*
X830Y132D02*
X833Y132D01*
X839Y132D02*
X843Y132D01*
X890Y132D02*
X893Y132D01*
X899Y132D02*
X903Y132D01*
X916Y132D02*
X919Y132D01*
X932Y132D02*
X936Y132D01*
X954Y132D02*
X957Y132D01*
X1005Y132D02*
X1009Y132D01*
X1037Y132D02*
X1041Y132D01*
X1070Y132D02*
X1073Y132D01*
X1080Y132D02*
X1084Y132D01*
X1126Y132D02*
X1129Y132D01*
X1142Y132D02*
X1146Y132D01*
X1156Y132D02*
X1159Y132D01*
X1167Y132D02*
X1170Y132D01*
X1173Y132D02*
X1176Y132D01*
X1190Y132D02*
X1194Y132D01*
X1200Y132D02*
X1204Y132D01*
X1249Y132D02*
X1252Y132D01*
X1281Y132D02*
X1285Y132D01*
X1313Y132D02*
X1317Y132D01*
X1323Y132D02*
X1327Y132D01*
X1374Y132D02*
X1378Y132D01*
X1381Y132D02*
X1384Y132D01*
X1404Y132D02*
X1407Y132D01*
X1414Y132D02*
X1417Y132D01*
X1434Y132D02*
X1437Y132D01*
X1444Y132D02*
X1448Y132D01*
X28Y131D02*
X31Y131D01*
X60Y131D02*
X64Y131D01*
X92Y131D02*
X95Y131D01*
X102Y131D02*
X106Y131D01*
X152Y131D02*
X156Y131D01*
X162Y131D02*
X166Y131D01*
X178Y131D02*
X182Y131D01*
X195Y131D02*
X198Y131D01*
X209Y131D02*
X212Y131D01*
X225Y131D02*
X228Y131D01*
X286Y131D02*
X290Y131D01*
X319Y131D02*
X323Y131D01*
X351Y131D02*
X354Y131D01*
X360Y131D02*
X363Y131D01*
X407Y131D02*
X410Y131D01*
X526Y131D02*
X529Y131D01*
X538Y131D02*
X542Y131D01*
X556Y131D02*
X559Y131D01*
X616Y131D02*
X619Y131D01*
X629Y131D02*
X633Y131D01*
X646Y131D02*
X649Y131D01*
X685Y131D02*
X688Y131D01*
X693Y131D02*
X696Y131D01*
X765Y131D02*
X768Y131D01*
X798Y131D02*
X802Y131D01*
X830Y131D02*
X833Y131D01*
X839Y131D02*
X842Y131D01*
X890Y131D02*
X893Y131D01*
X899Y131D02*
X903Y131D01*
X916Y131D02*
X919Y131D01*
X932Y131D02*
X936Y131D01*
X954Y131D02*
X957Y131D01*
X1005Y131D02*
X1009Y131D01*
X1038Y131D02*
X1042Y131D01*
X1070Y131D02*
X1073Y131D01*
X1079Y131D02*
X1083Y131D01*
X1126Y131D02*
X1129Y131D01*
X1143Y131D02*
X1146Y131D01*
X1156Y131D02*
X1159Y131D01*
X1167Y131D02*
X1171Y131D01*
X1173Y131D02*
X1176Y131D01*
X1190Y131D02*
X1194Y131D01*
X1200Y131D02*
X1204Y131D01*
X1249Y131D02*
X1252Y131D01*
X1281Y131D02*
X1285Y131D01*
X1313Y131D02*
X1317Y131D01*
X1323Y131D02*
X1327Y131D01*
X1375Y131D02*
X1378Y131D01*
X1380Y131D02*
X1384Y131D01*
X1404Y131D02*
X1407Y131D01*
X1413Y131D02*
X1417Y131D01*
X1434Y131D02*
X1437Y131D01*
X1443Y131D02*
X1447Y131D01*
X28Y130D02*
X31Y130D01*
X61Y130D02*
X64Y130D01*
X92Y130D02*
X95Y130D01*
X101Y130D02*
X105Y130D01*
X152Y130D02*
X156Y130D01*
X162Y130D02*
X165Y130D01*
X178Y130D02*
X182Y130D01*
X195Y130D02*
X198Y130D01*
X209Y130D02*
X212Y130D01*
X225Y130D02*
X228Y130D01*
X286Y130D02*
X290Y130D01*
X320Y130D02*
X323Y130D01*
X351Y130D02*
X354Y130D01*
X359Y130D02*
X363Y130D01*
X407Y130D02*
X410Y130D01*
X526Y130D02*
X529Y130D01*
X539Y130D02*
X543Y130D01*
X556Y130D02*
X559Y130D01*
X616Y130D02*
X619Y130D01*
X629Y130D02*
X633Y130D01*
X646Y130D02*
X649Y130D01*
X685Y130D02*
X688Y130D01*
X693Y130D02*
X696Y130D01*
X765Y130D02*
X768Y130D01*
X799Y130D02*
X802Y130D01*
X830Y130D02*
X833Y130D01*
X838Y130D02*
X842Y130D01*
X890Y130D02*
X893Y130D01*
X898Y130D02*
X902Y130D01*
X916Y130D02*
X919Y130D01*
X932Y130D02*
X935Y130D01*
X954Y130D02*
X957Y130D01*
X1005Y130D02*
X1009Y130D01*
X1038Y130D02*
X1042Y130D01*
X1070Y130D02*
X1073Y130D01*
X1079Y130D02*
X1083Y130D01*
X1126Y130D02*
X1129Y130D01*
X1143Y130D02*
X1146Y130D01*
X1156Y130D02*
X1159Y130D01*
X1168Y130D02*
X1176Y130D01*
X1190Y130D02*
X1194Y130D01*
X1199Y130D02*
X1203Y130D01*
X1249Y130D02*
X1252Y130D01*
X1282Y130D02*
X1286Y130D01*
X1313Y130D02*
X1317Y130D01*
X1322Y130D02*
X1326Y130D01*
X1375Y130D02*
X1383Y130D01*
X1404Y130D02*
X1407Y130D01*
X1413Y130D02*
X1416Y130D01*
X1434Y130D02*
X1437Y130D01*
X1443Y130D02*
X1447Y130D01*
X28Y129D02*
X31Y129D01*
X61Y129D02*
X65Y129D01*
X92Y129D02*
X95Y129D01*
X101Y129D02*
X105Y129D01*
X152Y129D02*
X156Y129D01*
X161Y129D02*
X165Y129D01*
X178Y129D02*
X182Y129D01*
X195Y129D02*
X198Y129D01*
X209Y129D02*
X212Y129D01*
X225Y129D02*
X228Y129D01*
X286Y129D02*
X290Y129D01*
X320Y129D02*
X324Y129D01*
X351Y129D02*
X354Y129D01*
X359Y129D02*
X362Y129D01*
X407Y129D02*
X410Y129D01*
X526Y129D02*
X529Y129D01*
X540Y129D02*
X543Y129D01*
X556Y129D02*
X559Y129D01*
X616Y129D02*
X619Y129D01*
X630Y129D02*
X634Y129D01*
X646Y129D02*
X649Y129D01*
X685Y129D02*
X688Y129D01*
X693Y129D02*
X696Y129D01*
X765Y129D02*
X768Y129D01*
X799Y129D02*
X803Y129D01*
X830Y129D02*
X833Y129D01*
X838Y129D02*
X841Y129D01*
X890Y129D02*
X893Y129D01*
X898Y129D02*
X902Y129D01*
X916Y129D02*
X919Y129D01*
X932Y129D02*
X935Y129D01*
X954Y129D02*
X957Y129D01*
X1005Y129D02*
X1009Y129D01*
X1039Y129D02*
X1043Y129D01*
X1070Y129D02*
X1073Y129D01*
X1078Y129D02*
X1082Y129D01*
X1126Y129D02*
X1129Y129D01*
X1143Y129D02*
X1146Y129D01*
X1156Y129D02*
X1159Y129D01*
X1168Y129D02*
X1176Y129D01*
X1190Y129D02*
X1194Y129D01*
X1199Y129D02*
X1203Y129D01*
X1249Y129D02*
X1252Y129D01*
X1282Y129D02*
X1286Y129D01*
X1313Y129D02*
X1317Y129D01*
X1322Y129D02*
X1326Y129D01*
X1375Y129D02*
X1383Y129D01*
X1404Y129D02*
X1407Y129D01*
X1412Y129D02*
X1416Y129D01*
X1434Y129D02*
X1437Y129D01*
X1442Y129D02*
X1446Y129D01*
X28Y128D02*
X31Y128D01*
X62Y128D02*
X65Y128D01*
X92Y128D02*
X95Y128D01*
X100Y128D02*
X104Y128D01*
X152Y128D02*
X156Y128D01*
X160Y128D02*
X164Y128D01*
X178Y128D02*
X182Y128D01*
X194Y128D02*
X198Y128D01*
X209Y128D02*
X212Y128D01*
X225Y128D02*
X228Y128D01*
X286Y128D02*
X290Y128D01*
X321Y128D02*
X325Y128D01*
X351Y128D02*
X354Y128D01*
X358Y128D02*
X362Y128D01*
X407Y128D02*
X410Y128D01*
X526Y128D02*
X529Y128D01*
X540Y128D02*
X544Y128D01*
X556Y128D02*
X559Y128D01*
X616Y128D02*
X619Y128D01*
X631Y128D02*
X634Y128D01*
X646Y128D02*
X649Y128D01*
X685Y128D02*
X688Y128D01*
X693Y128D02*
X696Y128D01*
X765Y128D02*
X768Y128D01*
X800Y128D02*
X803Y128D01*
X830Y128D02*
X833Y128D01*
X837Y128D02*
X841Y128D01*
X890Y128D02*
X893Y128D01*
X897Y128D02*
X901Y128D01*
X916Y128D02*
X919Y128D01*
X931Y128D02*
X935Y128D01*
X954Y128D02*
X957Y128D01*
X1005Y128D02*
X1009Y128D01*
X1039Y128D02*
X1043Y128D01*
X1070Y128D02*
X1073Y128D01*
X1078Y128D02*
X1082Y128D01*
X1126Y128D02*
X1129Y128D01*
X1142Y128D02*
X1146Y128D01*
X1156Y128D02*
X1159Y128D01*
X1169Y128D02*
X1176Y128D01*
X1190Y128D02*
X1194Y128D01*
X1198Y128D02*
X1202Y128D01*
X1249Y128D02*
X1252Y128D01*
X1283Y128D02*
X1287Y128D01*
X1313Y128D02*
X1317Y128D01*
X1321Y128D02*
X1325Y128D01*
X1376Y128D02*
X1383Y128D01*
X1404Y128D02*
X1407Y128D01*
X1412Y128D02*
X1415Y128D01*
X1434Y128D02*
X1437Y128D01*
X1442Y128D02*
X1446Y128D01*
X28Y127D02*
X31Y127D01*
X62Y127D02*
X66Y127D01*
X92Y127D02*
X95Y127D01*
X100Y127D02*
X104Y127D01*
X152Y127D02*
X156Y127D01*
X160Y127D02*
X164Y127D01*
X178Y127D02*
X182Y127D01*
X194Y127D02*
X198Y127D01*
X209Y127D02*
X212Y127D01*
X225Y127D02*
X228Y127D01*
X286Y127D02*
X290Y127D01*
X321Y127D02*
X326Y127D01*
X350Y127D02*
X354Y127D01*
X357Y127D02*
X361Y127D01*
X407Y127D02*
X410Y127D01*
X526Y127D02*
X529Y127D01*
X541Y127D02*
X545Y127D01*
X556Y127D02*
X574Y127D01*
X616Y127D02*
X619Y127D01*
X631Y127D02*
X635Y127D01*
X646Y127D02*
X664Y127D01*
X678Y127D02*
X696Y127D01*
X765Y127D02*
X769Y127D01*
X800Y127D02*
X804Y127D01*
X829Y127D02*
X833Y127D01*
X836Y127D02*
X840Y127D01*
X889Y127D02*
X893Y127D01*
X896Y127D02*
X901Y127D01*
X916Y127D02*
X919Y127D01*
X929Y127D02*
X934Y127D01*
X954Y127D02*
X957Y127D01*
X1005Y127D02*
X1009Y127D01*
X1040Y127D02*
X1044Y127D01*
X1070Y127D02*
X1073Y127D01*
X1077Y127D02*
X1081Y127D01*
X1126Y127D02*
X1130Y127D01*
X1142Y127D02*
X1146Y127D01*
X1156Y127D02*
X1159Y127D01*
X1169Y127D02*
X1176Y127D01*
X1190Y127D02*
X1194Y127D01*
X1198Y127D02*
X1202Y127D01*
X1249Y127D02*
X1252Y127D01*
X1283Y127D02*
X1287Y127D01*
X1313Y127D02*
X1317Y127D01*
X1321Y127D02*
X1325Y127D01*
X1376Y127D02*
X1382Y127D01*
X1404Y127D02*
X1407Y127D01*
X1411Y127D02*
X1415Y127D01*
X1434Y127D02*
X1437Y127D01*
X1441Y127D02*
X1445Y127D01*
X28Y126D02*
X31Y126D01*
X63Y126D02*
X67Y126D01*
X92Y126D02*
X96Y126D01*
X99Y126D02*
X103Y126D01*
X152Y126D02*
X156Y126D01*
X159Y126D02*
X163Y126D01*
X178Y126D02*
X182Y126D01*
X192Y126D02*
X197Y126D01*
X209Y126D02*
X212Y126D01*
X225Y126D02*
X228Y126D01*
X286Y126D02*
X306Y126D01*
X322Y126D02*
X336Y126D01*
X347Y126D02*
X361Y126D01*
X407Y126D02*
X426Y126D01*
X526Y126D02*
X529Y126D01*
X541Y126D02*
X545Y126D01*
X556Y126D02*
X575Y126D01*
X616Y126D02*
X619Y126D01*
X632Y126D02*
X636Y126D01*
X646Y126D02*
X666Y126D01*
X677Y126D02*
X696Y126D01*
X765Y126D02*
X784Y126D01*
X801Y126D02*
X815Y126D01*
X826Y126D02*
X840Y126D01*
X886Y126D02*
X900Y126D01*
X916Y126D02*
X934Y126D01*
X954Y126D02*
X957Y126D01*
X1005Y126D02*
X1009Y126D01*
X1040Y126D02*
X1045Y126D01*
X1069Y126D02*
X1073Y126D01*
X1076Y126D02*
X1081Y126D01*
X1126Y126D02*
X1131Y126D01*
X1141Y126D02*
X1145Y126D01*
X1156Y126D02*
X1159Y126D01*
X1169Y126D02*
X1176Y126D01*
X1190Y126D02*
X1194Y126D01*
X1196Y126D02*
X1201Y126D01*
X1249Y126D02*
X1253Y126D01*
X1284Y126D02*
X1289Y126D01*
X1313Y126D02*
X1317Y126D01*
X1319Y126D02*
X1324Y126D01*
X1377Y126D02*
X1382Y126D01*
X1403Y126D02*
X1407Y126D01*
X1409Y126D02*
X1414Y126D01*
X1433Y126D02*
X1437Y126D01*
X1439Y126D02*
X1445Y126D01*
X28Y125D02*
X47Y125D01*
X63Y125D02*
X77Y125D01*
X89Y125D02*
X103Y125D01*
X149Y125D02*
X163Y125D01*
X178Y125D02*
X196Y125D01*
X209Y125D02*
X228Y125D01*
X286Y125D02*
X306Y125D01*
X322Y125D02*
X336Y125D01*
X347Y125D02*
X360Y125D01*
X407Y125D02*
X426Y125D01*
X526Y125D02*
X529Y125D01*
X542Y125D02*
X545Y125D01*
X556Y125D02*
X576Y125D01*
X616Y125D02*
X619Y125D01*
X632Y125D02*
X636Y125D01*
X646Y125D02*
X666Y125D01*
X676Y125D02*
X696Y125D01*
X765Y125D02*
X785Y125D01*
X801Y125D02*
X815Y125D01*
X825Y125D02*
X839Y125D01*
X886Y125D02*
X899Y125D01*
X916Y125D02*
X933Y125D01*
X954Y125D02*
X957Y125D01*
X1005Y125D02*
X1025Y125D01*
X1041Y125D02*
X1055Y125D01*
X1066Y125D02*
X1080Y125D01*
X1127Y125D02*
X1145Y125D01*
X1156Y125D02*
X1159Y125D01*
X1170Y125D02*
X1176Y125D01*
X1187Y125D02*
X1201Y125D01*
X1249Y125D02*
X1268Y125D01*
X1284Y125D02*
X1298Y125D01*
X1310Y125D02*
X1324Y125D01*
X1377Y125D02*
X1381Y125D01*
X1400Y125D02*
X1414Y125D01*
X1430Y125D02*
X1444Y125D01*
X28Y124D02*
X47Y124D01*
X64Y124D02*
X78Y124D01*
X88Y124D02*
X102Y124D01*
X148Y124D02*
X162Y124D01*
X178Y124D02*
X196Y124D01*
X209Y124D02*
X228Y124D01*
X286Y124D02*
X306Y124D01*
X324Y124D02*
X336Y124D01*
X347Y124D02*
X359Y124D01*
X407Y124D02*
X426Y124D01*
X526Y124D02*
X529Y124D01*
X542Y124D02*
X545Y124D01*
X556Y124D02*
X575Y124D01*
X616Y124D02*
X619Y124D01*
X633Y124D02*
X636Y124D01*
X646Y124D02*
X666Y124D01*
X677Y124D02*
X696Y124D01*
X765Y124D02*
X785Y124D01*
X802Y124D02*
X815Y124D01*
X826Y124D02*
X838Y124D01*
X886Y124D02*
X898Y124D01*
X916Y124D02*
X932Y124D01*
X954Y124D02*
X957Y124D01*
X1005Y124D02*
X1025Y124D01*
X1042Y124D02*
X1055Y124D01*
X1066Y124D02*
X1079Y124D01*
X1127Y124D02*
X1144Y124D01*
X1156Y124D02*
X1159Y124D01*
X1170Y124D02*
X1176Y124D01*
X1186Y124D02*
X1200Y124D01*
X1249Y124D02*
X1269Y124D01*
X1285Y124D02*
X1299Y124D01*
X1309Y124D02*
X1323Y124D01*
X1377Y124D02*
X1381Y124D01*
X1400Y124D02*
X1413Y124D01*
X1430Y124D02*
X1443Y124D01*
X28Y123D02*
X47Y123D01*
X65Y123D02*
X78Y123D01*
X88Y123D02*
X101Y123D01*
X148Y123D02*
X161Y123D01*
X178Y123D02*
X194Y123D01*
X209Y123D02*
X228Y123D01*
X286Y123D02*
X305Y123D01*
X325Y123D02*
X335Y123D01*
X348Y123D02*
X357Y123D01*
X407Y123D02*
X425Y123D01*
X527Y123D02*
X528Y123D01*
X544Y123D02*
X544Y123D01*
X556Y123D02*
X574Y123D01*
X617Y123D02*
X618Y123D01*
X634Y123D02*
X634Y123D01*
X646Y123D02*
X665Y123D01*
X678Y123D02*
X695Y123D01*
X765Y123D02*
X784Y123D01*
X804Y123D02*
X814Y123D01*
X826Y123D02*
X836Y123D01*
X887Y123D02*
X897Y123D01*
X916Y123D02*
X929Y123D01*
X955Y123D02*
X956Y123D01*
X1005Y123D02*
X1025Y123D01*
X1043Y123D02*
X1055Y123D01*
X1066Y123D02*
X1078Y123D01*
X1128Y123D02*
X1143Y123D01*
X1156Y123D02*
X1159Y123D01*
X1171Y123D02*
X1176Y123D01*
X1186Y123D02*
X1199Y123D01*
X1249Y123D02*
X1268Y123D01*
X1286Y123D02*
X1299Y123D01*
X1309Y123D02*
X1322Y123D01*
X1378Y123D02*
X1381Y123D01*
X1400Y123D02*
X1412Y123D01*
X1430Y123D02*
X1442Y123D01*
X28Y122D02*
X47Y122D01*
X66Y122D02*
X77Y122D01*
X89Y122D02*
X99Y122D01*
X149Y122D02*
X160Y122D01*
X178Y122D02*
X193Y122D01*
X209Y122D02*
X227Y122D01*
X377Y122D02*
X396Y122D01*
X586Y122D02*
X605Y122D01*
X856Y122D02*
X875Y122D01*
X1006Y122D02*
X1024Y122D01*
X1045Y122D02*
X1054Y122D01*
X1067Y122D02*
X1076Y122D01*
X1130Y122D02*
X1141Y122D01*
X1157Y122D02*
X1158Y122D01*
X1171Y122D02*
X1176Y122D01*
X1187Y122D02*
X1197Y122D01*
X1249Y122D02*
X1267Y122D01*
X1288Y122D02*
X1298Y122D01*
X1310Y122D02*
X1320Y122D01*
X1379Y122D02*
X1380Y122D01*
X1401Y122D02*
X1410Y122D01*
X1431Y122D02*
X1440Y122D01*
X119Y121D02*
X137Y121D01*
X377Y121D02*
X396Y121D01*
X586Y121D02*
X606Y121D01*
X856Y121D02*
X875Y121D01*
X1096Y121D02*
X1115Y121D01*
X1340Y121D02*
X1359Y121D01*
X118Y120D02*
X138Y120D01*
X377Y120D02*
X396Y120D01*
X586Y120D02*
X606Y120D01*
X856Y120D02*
X875Y120D01*
X1096Y120D02*
X1116Y120D01*
X1339Y120D02*
X1359Y120D01*
X118Y119D02*
X138Y119D01*
X377Y119D02*
X396Y119D01*
X587Y119D02*
X605Y119D01*
X856Y119D02*
X875Y119D01*
X1096Y119D02*
X1115Y119D01*
X1339Y119D02*
X1359Y119D01*
X119Y118D02*
X137Y118D01*
X1097Y118D02*
X1115Y118D01*
X1340Y118D02*
X1358Y118D01*
D02*
G04 End of Silk1*
M02*