G04 MADE WITH FRITZING*
G04 WWW.FRITZING.ORG*
G04 DOUBLE SIDED*
G04 HOLES PLATED*
G04 CONTOUR ON CENTER OF CONTOUR VECTOR*
%ASAXBY*%
%FSLAX23Y23*%
%MOIN*%
%OFA0B0*%
%SFA1.0B1.0*%
%ADD10C,0.085000*%
%ADD11C,0.049370*%
%ADD12C,0.088000*%
%ADD13C,0.109000*%
%ADD14R,0.041496X0.041496*%
%ADD15R,0.109000X0.109000*%
%ADD16R,0.080000X0.080000*%
%ADD17R,0.001000X0.001000*%
%LNMASK1*%
G90*
G70*
G54D10*
X315Y968D03*
X59Y968D03*
X315Y790D03*
X59Y790D03*
X315Y968D03*
X59Y968D03*
X315Y790D03*
X59Y790D03*
X315Y1334D03*
X59Y1334D03*
X315Y1157D03*
X59Y1157D03*
X315Y1334D03*
X59Y1334D03*
X315Y1157D03*
X59Y1157D03*
G54D11*
X441Y738D03*
X689Y499D03*
X440Y1110D03*
G54D12*
X866Y66D03*
X122Y66D03*
X740Y66D03*
X410Y468D03*
X524Y468D03*
X366Y66D03*
X244Y66D03*
X1362Y905D03*
X1354Y66D03*
X1106Y66D03*
X488Y66D03*
X1232Y66D03*
X996Y66D03*
X614Y66D03*
G54D13*
X1369Y523D03*
X1169Y523D03*
X1269Y723D03*
G54D10*
X1004Y968D03*
X748Y968D03*
X1004Y790D03*
X748Y790D03*
X1004Y968D03*
X748Y968D03*
X1004Y790D03*
X748Y790D03*
X1004Y1334D03*
X748Y1334D03*
X1004Y1157D03*
X748Y1157D03*
X1004Y1334D03*
X748Y1334D03*
X1004Y1157D03*
X748Y1157D03*
G54D12*
X1055Y503D03*
X955Y503D03*
X855Y503D03*
G54D14*
X532Y909D03*
X532Y849D03*
X532Y1279D03*
X532Y1220D03*
G54D15*
X1169Y523D03*
G54D16*
X1354Y330D03*
G54D17*
X151Y371D02*
X155Y371D01*
X251Y371D02*
X255Y371D01*
X351Y371D02*
X355Y371D01*
X451Y371D02*
X455Y371D01*
X551Y371D02*
X555Y371D01*
X651Y371D02*
X655Y371D01*
X751Y371D02*
X755Y371D01*
X851Y371D02*
X855Y371D01*
X951Y371D02*
X955Y371D01*
X1051Y371D02*
X1055Y371D01*
X1151Y371D02*
X1155Y371D01*
X1251Y371D02*
X1255Y371D01*
X1351Y371D02*
X1355Y371D01*
X145Y370D02*
X161Y370D01*
X245Y370D02*
X261Y370D01*
X345Y370D02*
X361Y370D01*
X445Y370D02*
X461Y370D01*
X545Y370D02*
X561Y370D01*
X645Y370D02*
X661Y370D01*
X745Y370D02*
X761Y370D01*
X845Y370D02*
X861Y370D01*
X945Y370D02*
X961Y370D01*
X1045Y370D02*
X1061Y370D01*
X1145Y370D02*
X1161Y370D01*
X1245Y370D02*
X1261Y370D01*
X1345Y370D02*
X1361Y370D01*
X142Y369D02*
X164Y369D01*
X242Y369D02*
X264Y369D01*
X342Y369D02*
X364Y369D01*
X442Y369D02*
X464Y369D01*
X542Y369D02*
X564Y369D01*
X642Y369D02*
X664Y369D01*
X742Y369D02*
X764Y369D01*
X842Y369D02*
X864Y369D01*
X942Y369D02*
X964Y369D01*
X1042Y369D02*
X1064Y369D01*
X1142Y369D02*
X1164Y369D01*
X1242Y369D02*
X1264Y369D01*
X1342Y369D02*
X1364Y369D01*
X140Y368D02*
X167Y368D01*
X240Y368D02*
X267Y368D01*
X340Y368D02*
X367Y368D01*
X440Y368D02*
X467Y368D01*
X540Y368D02*
X567Y368D01*
X640Y368D02*
X667Y368D01*
X740Y368D02*
X767Y368D01*
X840Y368D02*
X867Y368D01*
X940Y368D02*
X967Y368D01*
X1040Y368D02*
X1067Y368D01*
X1140Y368D02*
X1167Y368D01*
X1240Y368D02*
X1267Y368D01*
X1340Y368D02*
X1367Y368D01*
X138Y367D02*
X169Y367D01*
X238Y367D02*
X269Y367D01*
X338Y367D02*
X369Y367D01*
X438Y367D02*
X469Y367D01*
X537Y367D02*
X569Y367D01*
X637Y367D02*
X669Y367D01*
X737Y367D02*
X769Y367D01*
X837Y367D02*
X869Y367D01*
X937Y367D02*
X969Y367D01*
X1037Y367D02*
X1069Y367D01*
X1137Y367D02*
X1169Y367D01*
X1237Y367D02*
X1269Y367D01*
X1337Y367D02*
X1369Y367D01*
X136Y366D02*
X171Y366D01*
X236Y366D02*
X271Y366D01*
X336Y366D02*
X371Y366D01*
X436Y366D02*
X471Y366D01*
X536Y366D02*
X571Y366D01*
X636Y366D02*
X671Y366D01*
X736Y366D02*
X771Y366D01*
X836Y366D02*
X870Y366D01*
X936Y366D02*
X970Y366D01*
X1036Y366D02*
X1070Y366D01*
X1136Y366D02*
X1170Y366D01*
X1236Y366D02*
X1270Y366D01*
X1336Y366D02*
X1370Y366D01*
X134Y365D02*
X172Y365D01*
X234Y365D02*
X272Y365D01*
X334Y365D02*
X372Y365D01*
X434Y365D02*
X472Y365D01*
X534Y365D02*
X572Y365D01*
X634Y365D02*
X672Y365D01*
X734Y365D02*
X772Y365D01*
X834Y365D02*
X872Y365D01*
X934Y365D02*
X972Y365D01*
X1034Y365D02*
X1072Y365D01*
X1134Y365D02*
X1172Y365D01*
X1234Y365D02*
X1272Y365D01*
X1334Y365D02*
X1372Y365D01*
X133Y364D02*
X174Y364D01*
X233Y364D02*
X274Y364D01*
X333Y364D02*
X374Y364D01*
X433Y364D02*
X474Y364D01*
X533Y364D02*
X574Y364D01*
X632Y364D02*
X674Y364D01*
X732Y364D02*
X774Y364D01*
X832Y364D02*
X874Y364D01*
X932Y364D02*
X974Y364D01*
X1032Y364D02*
X1074Y364D01*
X1132Y364D02*
X1174Y364D01*
X1232Y364D02*
X1274Y364D01*
X1332Y364D02*
X1374Y364D01*
X131Y363D02*
X175Y363D01*
X231Y363D02*
X275Y363D01*
X331Y363D02*
X375Y363D01*
X431Y363D02*
X475Y363D01*
X531Y363D02*
X575Y363D01*
X631Y363D02*
X675Y363D01*
X731Y363D02*
X775Y363D01*
X831Y363D02*
X875Y363D01*
X931Y363D02*
X975Y363D01*
X1031Y363D02*
X1075Y363D01*
X1131Y363D02*
X1175Y363D01*
X1231Y363D02*
X1275Y363D01*
X1331Y363D02*
X1375Y363D01*
X130Y362D02*
X176Y362D01*
X230Y362D02*
X276Y362D01*
X330Y362D02*
X376Y362D01*
X430Y362D02*
X476Y362D01*
X530Y362D02*
X576Y362D01*
X630Y362D02*
X676Y362D01*
X730Y362D02*
X776Y362D01*
X830Y362D02*
X876Y362D01*
X930Y362D02*
X976Y362D01*
X1030Y362D02*
X1076Y362D01*
X1130Y362D02*
X1176Y362D01*
X1230Y362D02*
X1276Y362D01*
X1330Y362D02*
X1376Y362D01*
X129Y361D02*
X178Y361D01*
X229Y361D02*
X278Y361D01*
X329Y361D02*
X378Y361D01*
X429Y361D02*
X478Y361D01*
X529Y361D02*
X578Y361D01*
X629Y361D02*
X678Y361D01*
X729Y361D02*
X778Y361D01*
X829Y361D02*
X878Y361D01*
X929Y361D02*
X978Y361D01*
X1029Y361D02*
X1077Y361D01*
X1129Y361D02*
X1177Y361D01*
X1229Y361D02*
X1277Y361D01*
X1329Y361D02*
X1377Y361D01*
X128Y360D02*
X179Y360D01*
X228Y360D02*
X279Y360D01*
X328Y360D02*
X379Y360D01*
X428Y360D02*
X479Y360D01*
X528Y360D02*
X579Y360D01*
X627Y360D02*
X679Y360D01*
X727Y360D02*
X779Y360D01*
X827Y360D02*
X879Y360D01*
X927Y360D02*
X979Y360D01*
X1027Y360D02*
X1079Y360D01*
X1127Y360D02*
X1179Y360D01*
X1227Y360D02*
X1279Y360D01*
X1327Y360D02*
X1379Y360D01*
X126Y359D02*
X180Y359D01*
X226Y359D02*
X280Y359D01*
X326Y359D02*
X380Y359D01*
X426Y359D02*
X480Y359D01*
X526Y359D02*
X580Y359D01*
X626Y359D02*
X680Y359D01*
X726Y359D02*
X780Y359D01*
X826Y359D02*
X880Y359D01*
X926Y359D02*
X980Y359D01*
X1026Y359D02*
X1080Y359D01*
X1126Y359D02*
X1180Y359D01*
X1226Y359D02*
X1280Y359D01*
X1326Y359D02*
X1380Y359D01*
X125Y358D02*
X181Y358D01*
X225Y358D02*
X281Y358D01*
X325Y358D02*
X381Y358D01*
X425Y358D02*
X481Y358D01*
X525Y358D02*
X581Y358D01*
X625Y358D02*
X681Y358D01*
X725Y358D02*
X781Y358D01*
X825Y358D02*
X881Y358D01*
X925Y358D02*
X981Y358D01*
X1025Y358D02*
X1081Y358D01*
X1125Y358D02*
X1181Y358D01*
X1225Y358D02*
X1281Y358D01*
X1325Y358D02*
X1381Y358D01*
X125Y357D02*
X182Y357D01*
X225Y357D02*
X282Y357D01*
X325Y357D02*
X382Y357D01*
X425Y357D02*
X482Y357D01*
X525Y357D02*
X582Y357D01*
X625Y357D02*
X682Y357D01*
X725Y357D02*
X782Y357D01*
X824Y357D02*
X882Y357D01*
X924Y357D02*
X982Y357D01*
X1024Y357D02*
X1082Y357D01*
X1124Y357D02*
X1182Y357D01*
X1224Y357D02*
X1282Y357D01*
X1324Y357D02*
X1382Y357D01*
X124Y356D02*
X183Y356D01*
X224Y356D02*
X283Y356D01*
X324Y356D02*
X383Y356D01*
X424Y356D02*
X483Y356D01*
X524Y356D02*
X583Y356D01*
X624Y356D02*
X683Y356D01*
X724Y356D02*
X783Y356D01*
X824Y356D02*
X883Y356D01*
X924Y356D02*
X982Y356D01*
X1024Y356D02*
X1082Y356D01*
X1124Y356D02*
X1182Y356D01*
X1224Y356D02*
X1282Y356D01*
X1324Y356D02*
X1382Y356D01*
X123Y355D02*
X183Y355D01*
X223Y355D02*
X283Y355D01*
X323Y355D02*
X383Y355D01*
X423Y355D02*
X483Y355D01*
X523Y355D02*
X583Y355D01*
X623Y355D02*
X683Y355D01*
X723Y355D02*
X783Y355D01*
X823Y355D02*
X883Y355D01*
X923Y355D02*
X983Y355D01*
X1023Y355D02*
X1083Y355D01*
X1123Y355D02*
X1183Y355D01*
X1223Y355D02*
X1283Y355D01*
X1323Y355D02*
X1383Y355D01*
X122Y354D02*
X184Y354D01*
X222Y354D02*
X284Y354D01*
X322Y354D02*
X384Y354D01*
X422Y354D02*
X484Y354D01*
X522Y354D02*
X584Y354D01*
X622Y354D02*
X684Y354D01*
X722Y354D02*
X784Y354D01*
X822Y354D02*
X884Y354D01*
X922Y354D02*
X984Y354D01*
X1022Y354D02*
X1084Y354D01*
X1122Y354D02*
X1184Y354D01*
X1222Y354D02*
X1284Y354D01*
X1322Y354D02*
X1384Y354D01*
X121Y353D02*
X185Y353D01*
X221Y353D02*
X285Y353D01*
X321Y353D02*
X385Y353D01*
X421Y353D02*
X485Y353D01*
X521Y353D02*
X585Y353D01*
X621Y353D02*
X685Y353D01*
X721Y353D02*
X785Y353D01*
X821Y353D02*
X885Y353D01*
X921Y353D02*
X985Y353D01*
X1021Y353D02*
X1085Y353D01*
X1121Y353D02*
X1185Y353D01*
X1221Y353D02*
X1285Y353D01*
X1321Y353D02*
X1385Y353D01*
X121Y352D02*
X186Y352D01*
X221Y352D02*
X286Y352D01*
X321Y352D02*
X386Y352D01*
X421Y352D02*
X486Y352D01*
X521Y352D02*
X586Y352D01*
X621Y352D02*
X686Y352D01*
X721Y352D02*
X786Y352D01*
X821Y352D02*
X886Y352D01*
X921Y352D02*
X986Y352D01*
X1021Y352D02*
X1086Y352D01*
X1121Y352D02*
X1186Y352D01*
X1220Y352D02*
X1286Y352D01*
X1320Y352D02*
X1386Y352D01*
X120Y351D02*
X186Y351D01*
X220Y351D02*
X286Y351D01*
X320Y351D02*
X386Y351D01*
X420Y351D02*
X486Y351D01*
X520Y351D02*
X586Y351D01*
X620Y351D02*
X686Y351D01*
X720Y351D02*
X786Y351D01*
X820Y351D02*
X886Y351D01*
X920Y351D02*
X986Y351D01*
X1020Y351D02*
X1086Y351D01*
X1120Y351D02*
X1186Y351D01*
X1220Y351D02*
X1286Y351D01*
X1320Y351D02*
X1386Y351D01*
X119Y350D02*
X187Y350D01*
X219Y350D02*
X287Y350D01*
X319Y350D02*
X387Y350D01*
X419Y350D02*
X487Y350D01*
X519Y350D02*
X587Y350D01*
X619Y350D02*
X687Y350D01*
X719Y350D02*
X787Y350D01*
X819Y350D02*
X887Y350D01*
X919Y350D02*
X987Y350D01*
X1019Y350D02*
X1087Y350D01*
X1119Y350D02*
X1187Y350D01*
X1219Y350D02*
X1287Y350D01*
X1319Y350D02*
X1387Y350D01*
X119Y349D02*
X188Y349D01*
X219Y349D02*
X288Y349D01*
X319Y349D02*
X388Y349D01*
X419Y349D02*
X488Y349D01*
X519Y349D02*
X588Y349D01*
X619Y349D02*
X687Y349D01*
X719Y349D02*
X787Y349D01*
X819Y349D02*
X887Y349D01*
X919Y349D02*
X987Y349D01*
X1019Y349D02*
X1087Y349D01*
X1119Y349D02*
X1187Y349D01*
X1219Y349D02*
X1287Y349D01*
X1319Y349D02*
X1387Y349D01*
X118Y348D02*
X188Y348D01*
X218Y348D02*
X288Y348D01*
X318Y348D02*
X388Y348D01*
X418Y348D02*
X488Y348D01*
X518Y348D02*
X588Y348D01*
X618Y348D02*
X688Y348D01*
X718Y348D02*
X788Y348D01*
X818Y348D02*
X888Y348D01*
X918Y348D02*
X988Y348D01*
X1018Y348D02*
X1088Y348D01*
X1118Y348D02*
X1188Y348D01*
X1218Y348D02*
X1288Y348D01*
X1318Y348D02*
X1388Y348D01*
X118Y347D02*
X189Y347D01*
X218Y347D02*
X289Y347D01*
X318Y347D02*
X389Y347D01*
X418Y347D02*
X489Y347D01*
X518Y347D02*
X589Y347D01*
X618Y347D02*
X689Y347D01*
X718Y347D02*
X789Y347D01*
X818Y347D02*
X889Y347D01*
X918Y347D02*
X989Y347D01*
X1018Y347D02*
X1089Y347D01*
X1118Y347D02*
X1189Y347D01*
X1218Y347D02*
X1289Y347D01*
X1318Y347D02*
X1389Y347D01*
X117Y346D02*
X189Y346D01*
X217Y346D02*
X289Y346D01*
X317Y346D02*
X389Y346D01*
X417Y346D02*
X489Y346D01*
X517Y346D02*
X589Y346D01*
X617Y346D02*
X689Y346D01*
X717Y346D02*
X789Y346D01*
X817Y346D02*
X889Y346D01*
X917Y346D02*
X989Y346D01*
X1017Y346D02*
X1089Y346D01*
X1117Y346D02*
X1189Y346D01*
X1217Y346D02*
X1289Y346D01*
X1317Y346D02*
X1389Y346D01*
X117Y345D02*
X190Y345D01*
X217Y345D02*
X290Y345D01*
X317Y345D02*
X390Y345D01*
X417Y345D02*
X490Y345D01*
X517Y345D02*
X590Y345D01*
X617Y345D02*
X690Y345D01*
X717Y345D02*
X790Y345D01*
X817Y345D02*
X889Y345D01*
X917Y345D02*
X989Y345D01*
X1017Y345D02*
X1089Y345D01*
X1117Y345D02*
X1189Y345D01*
X1217Y345D02*
X1289Y345D01*
X1317Y345D02*
X1389Y345D01*
X116Y344D02*
X190Y344D01*
X216Y344D02*
X290Y344D01*
X316Y344D02*
X390Y344D01*
X416Y344D02*
X490Y344D01*
X516Y344D02*
X590Y344D01*
X616Y344D02*
X690Y344D01*
X716Y344D02*
X790Y344D01*
X816Y344D02*
X890Y344D01*
X916Y344D02*
X990Y344D01*
X1016Y344D02*
X1090Y344D01*
X1116Y344D02*
X1190Y344D01*
X1216Y344D02*
X1290Y344D01*
X1316Y344D02*
X1390Y344D01*
X116Y343D02*
X190Y343D01*
X216Y343D02*
X290Y343D01*
X316Y343D02*
X390Y343D01*
X416Y343D02*
X490Y343D01*
X516Y343D02*
X590Y343D01*
X616Y343D02*
X690Y343D01*
X716Y343D02*
X790Y343D01*
X816Y343D02*
X890Y343D01*
X916Y343D02*
X990Y343D01*
X1016Y343D02*
X1090Y343D01*
X1116Y343D02*
X1190Y343D01*
X1216Y343D02*
X1290Y343D01*
X1316Y343D02*
X1390Y343D01*
X116Y342D02*
X191Y342D01*
X216Y342D02*
X291Y342D01*
X315Y342D02*
X391Y342D01*
X415Y342D02*
X491Y342D01*
X515Y342D02*
X591Y342D01*
X615Y342D02*
X691Y342D01*
X715Y342D02*
X791Y342D01*
X815Y342D02*
X891Y342D01*
X915Y342D02*
X991Y342D01*
X1015Y342D02*
X1091Y342D01*
X1115Y342D02*
X1191Y342D01*
X1215Y342D02*
X1291Y342D01*
X1315Y342D02*
X1391Y342D01*
X115Y341D02*
X191Y341D01*
X215Y341D02*
X291Y341D01*
X315Y341D02*
X391Y341D01*
X415Y341D02*
X491Y341D01*
X515Y341D02*
X591Y341D01*
X615Y341D02*
X691Y341D01*
X715Y341D02*
X791Y341D01*
X815Y341D02*
X891Y341D01*
X915Y341D02*
X991Y341D01*
X1015Y341D02*
X1091Y341D01*
X1115Y341D02*
X1191Y341D01*
X1215Y341D02*
X1291Y341D01*
X1315Y341D02*
X1391Y341D01*
X115Y340D02*
X191Y340D01*
X215Y340D02*
X291Y340D01*
X315Y340D02*
X391Y340D01*
X415Y340D02*
X491Y340D01*
X515Y340D02*
X591Y340D01*
X615Y340D02*
X691Y340D01*
X715Y340D02*
X791Y340D01*
X815Y340D02*
X891Y340D01*
X915Y340D02*
X991Y340D01*
X1015Y340D02*
X1091Y340D01*
X1115Y340D02*
X1191Y340D01*
X1215Y340D02*
X1291Y340D01*
X1315Y340D02*
X1391Y340D01*
X115Y339D02*
X192Y339D01*
X215Y339D02*
X292Y339D01*
X315Y339D02*
X392Y339D01*
X415Y339D02*
X492Y339D01*
X515Y339D02*
X592Y339D01*
X615Y339D02*
X692Y339D01*
X715Y339D02*
X792Y339D01*
X815Y339D02*
X892Y339D01*
X915Y339D02*
X992Y339D01*
X1015Y339D02*
X1092Y339D01*
X1115Y339D02*
X1192Y339D01*
X1215Y339D02*
X1292Y339D01*
X1315Y339D02*
X1392Y339D01*
X114Y338D02*
X192Y338D01*
X214Y338D02*
X292Y338D01*
X314Y338D02*
X392Y338D01*
X414Y338D02*
X492Y338D01*
X514Y338D02*
X592Y338D01*
X614Y338D02*
X692Y338D01*
X714Y338D02*
X792Y338D01*
X814Y338D02*
X892Y338D01*
X914Y338D02*
X992Y338D01*
X1014Y338D02*
X1092Y338D01*
X1114Y338D02*
X1192Y338D01*
X1214Y338D02*
X1292Y338D01*
X1314Y338D02*
X1392Y338D01*
X114Y337D02*
X192Y337D01*
X214Y337D02*
X292Y337D01*
X314Y337D02*
X392Y337D01*
X414Y337D02*
X492Y337D01*
X514Y337D02*
X592Y337D01*
X614Y337D02*
X692Y337D01*
X714Y337D02*
X792Y337D01*
X814Y337D02*
X892Y337D01*
X914Y337D02*
X992Y337D01*
X1014Y337D02*
X1092Y337D01*
X1114Y337D02*
X1192Y337D01*
X1214Y337D02*
X1292Y337D01*
X1314Y337D02*
X1392Y337D01*
X114Y336D02*
X192Y336D01*
X214Y336D02*
X292Y336D01*
X314Y336D02*
X392Y336D01*
X414Y336D02*
X492Y336D01*
X514Y336D02*
X592Y336D01*
X614Y336D02*
X692Y336D01*
X714Y336D02*
X792Y336D01*
X814Y336D02*
X892Y336D01*
X914Y336D02*
X992Y336D01*
X1014Y336D02*
X1092Y336D01*
X1114Y336D02*
X1192Y336D01*
X1214Y336D02*
X1292Y336D01*
X1314Y336D02*
X1392Y336D01*
X114Y335D02*
X192Y335D01*
X214Y335D02*
X292Y335D01*
X314Y335D02*
X392Y335D01*
X414Y335D02*
X492Y335D01*
X514Y335D02*
X592Y335D01*
X614Y335D02*
X692Y335D01*
X714Y335D02*
X792Y335D01*
X814Y335D02*
X892Y335D01*
X914Y335D02*
X992Y335D01*
X1014Y335D02*
X1092Y335D01*
X1114Y335D02*
X1192Y335D01*
X1214Y335D02*
X1292Y335D01*
X1314Y335D02*
X1392Y335D01*
X114Y334D02*
X192Y334D01*
X214Y334D02*
X292Y334D01*
X314Y334D02*
X392Y334D01*
X414Y334D02*
X492Y334D01*
X514Y334D02*
X592Y334D01*
X614Y334D02*
X692Y334D01*
X714Y334D02*
X792Y334D01*
X814Y334D02*
X892Y334D01*
X914Y334D02*
X992Y334D01*
X1014Y334D02*
X1092Y334D01*
X1114Y334D02*
X1192Y334D01*
X1214Y334D02*
X1292Y334D01*
X1314Y334D02*
X1392Y334D01*
X114Y333D02*
X193Y333D01*
X214Y333D02*
X293Y333D01*
X314Y333D02*
X393Y333D01*
X414Y333D02*
X493Y333D01*
X514Y333D02*
X593Y333D01*
X614Y333D02*
X693Y333D01*
X714Y333D02*
X793Y333D01*
X814Y333D02*
X893Y333D01*
X914Y333D02*
X992Y333D01*
X1014Y333D02*
X1092Y333D01*
X1114Y333D02*
X1192Y333D01*
X1214Y333D02*
X1292Y333D01*
X1314Y333D02*
X1392Y333D01*
X114Y332D02*
X193Y332D01*
X214Y332D02*
X293Y332D01*
X314Y332D02*
X393Y332D01*
X414Y332D02*
X493Y332D01*
X514Y332D02*
X593Y332D01*
X614Y332D02*
X693Y332D01*
X714Y332D02*
X793Y332D01*
X814Y332D02*
X893Y332D01*
X914Y332D02*
X993Y332D01*
X1014Y332D02*
X1093Y332D01*
X1114Y332D02*
X1193Y332D01*
X1214Y332D02*
X1293Y332D01*
X1314Y332D02*
X1393Y332D01*
X114Y331D02*
X193Y331D01*
X214Y331D02*
X293Y331D01*
X314Y331D02*
X393Y331D01*
X414Y331D02*
X493Y331D01*
X514Y331D02*
X593Y331D01*
X614Y331D02*
X693Y331D01*
X714Y331D02*
X793Y331D01*
X814Y331D02*
X893Y331D01*
X914Y331D02*
X993Y331D01*
X1014Y331D02*
X1093Y331D01*
X1114Y331D02*
X1193Y331D01*
X1214Y331D02*
X1293Y331D01*
X1314Y331D02*
X1393Y331D01*
X114Y330D02*
X193Y330D01*
X214Y330D02*
X293Y330D01*
X314Y330D02*
X393Y330D01*
X414Y330D02*
X493Y330D01*
X514Y330D02*
X593Y330D01*
X614Y330D02*
X693Y330D01*
X714Y330D02*
X793Y330D01*
X814Y330D02*
X893Y330D01*
X914Y330D02*
X993Y330D01*
X1014Y330D02*
X1093Y330D01*
X1114Y330D02*
X1193Y330D01*
X1214Y330D02*
X1293Y330D01*
X1314Y330D02*
X1392Y330D01*
X114Y329D02*
X193Y329D01*
X214Y329D02*
X293Y329D01*
X314Y329D02*
X393Y329D01*
X414Y329D02*
X493Y329D01*
X514Y329D02*
X593Y329D01*
X614Y329D02*
X693Y329D01*
X714Y329D02*
X793Y329D01*
X814Y329D02*
X892Y329D01*
X914Y329D02*
X992Y329D01*
X1014Y329D02*
X1092Y329D01*
X1114Y329D02*
X1192Y329D01*
X1214Y329D02*
X1292Y329D01*
X1314Y329D02*
X1392Y329D01*
X114Y328D02*
X192Y328D01*
X214Y328D02*
X292Y328D01*
X314Y328D02*
X392Y328D01*
X414Y328D02*
X492Y328D01*
X514Y328D02*
X592Y328D01*
X614Y328D02*
X692Y328D01*
X714Y328D02*
X792Y328D01*
X814Y328D02*
X892Y328D01*
X914Y328D02*
X992Y328D01*
X1014Y328D02*
X1092Y328D01*
X1114Y328D02*
X1192Y328D01*
X1214Y328D02*
X1292Y328D01*
X1314Y328D02*
X1392Y328D01*
X114Y327D02*
X192Y327D01*
X214Y327D02*
X292Y327D01*
X314Y327D02*
X392Y327D01*
X414Y327D02*
X492Y327D01*
X514Y327D02*
X592Y327D01*
X614Y327D02*
X692Y327D01*
X714Y327D02*
X792Y327D01*
X814Y327D02*
X892Y327D01*
X914Y327D02*
X992Y327D01*
X1014Y327D02*
X1092Y327D01*
X1114Y327D02*
X1192Y327D01*
X1214Y327D02*
X1292Y327D01*
X1314Y327D02*
X1392Y327D01*
X114Y326D02*
X192Y326D01*
X214Y326D02*
X292Y326D01*
X314Y326D02*
X392Y326D01*
X414Y326D02*
X492Y326D01*
X514Y326D02*
X592Y326D01*
X614Y326D02*
X692Y326D01*
X714Y326D02*
X792Y326D01*
X814Y326D02*
X892Y326D01*
X914Y326D02*
X992Y326D01*
X1014Y326D02*
X1092Y326D01*
X1114Y326D02*
X1192Y326D01*
X1214Y326D02*
X1292Y326D01*
X1314Y326D02*
X1392Y326D01*
X114Y325D02*
X192Y325D01*
X214Y325D02*
X292Y325D01*
X314Y325D02*
X392Y325D01*
X414Y325D02*
X492Y325D01*
X514Y325D02*
X592Y325D01*
X614Y325D02*
X692Y325D01*
X714Y325D02*
X792Y325D01*
X814Y325D02*
X892Y325D01*
X914Y325D02*
X992Y325D01*
X1014Y325D02*
X1092Y325D01*
X1114Y325D02*
X1192Y325D01*
X1214Y325D02*
X1292Y325D01*
X1314Y325D02*
X1392Y325D01*
X114Y324D02*
X192Y324D01*
X214Y324D02*
X292Y324D01*
X314Y324D02*
X392Y324D01*
X414Y324D02*
X492Y324D01*
X514Y324D02*
X592Y324D01*
X614Y324D02*
X692Y324D01*
X714Y324D02*
X792Y324D01*
X814Y324D02*
X892Y324D01*
X914Y324D02*
X992Y324D01*
X1014Y324D02*
X1092Y324D01*
X1114Y324D02*
X1192Y324D01*
X1214Y324D02*
X1292Y324D01*
X1314Y324D02*
X1392Y324D01*
X115Y323D02*
X192Y323D01*
X215Y323D02*
X292Y323D01*
X315Y323D02*
X392Y323D01*
X415Y323D02*
X492Y323D01*
X515Y323D02*
X592Y323D01*
X615Y323D02*
X692Y323D01*
X715Y323D02*
X792Y323D01*
X815Y323D02*
X891Y323D01*
X915Y323D02*
X991Y323D01*
X1015Y323D02*
X1091Y323D01*
X1115Y323D02*
X1191Y323D01*
X1215Y323D02*
X1291Y323D01*
X1315Y323D02*
X1391Y323D01*
X115Y322D02*
X191Y322D01*
X215Y322D02*
X291Y322D01*
X315Y322D02*
X391Y322D01*
X415Y322D02*
X491Y322D01*
X515Y322D02*
X591Y322D01*
X615Y322D02*
X691Y322D01*
X715Y322D02*
X791Y322D01*
X815Y322D02*
X891Y322D01*
X915Y322D02*
X991Y322D01*
X1015Y322D02*
X1091Y322D01*
X1115Y322D02*
X1191Y322D01*
X1215Y322D02*
X1291Y322D01*
X1315Y322D02*
X1391Y322D01*
X115Y321D02*
X191Y321D01*
X215Y321D02*
X291Y321D01*
X315Y321D02*
X391Y321D01*
X415Y321D02*
X491Y321D01*
X515Y321D02*
X591Y321D01*
X615Y321D02*
X691Y321D01*
X715Y321D02*
X791Y321D01*
X815Y321D02*
X891Y321D01*
X915Y321D02*
X991Y321D01*
X1015Y321D02*
X1091Y321D01*
X1115Y321D02*
X1191Y321D01*
X1215Y321D02*
X1291Y321D01*
X1315Y321D02*
X1391Y321D01*
X116Y320D02*
X191Y320D01*
X216Y320D02*
X291Y320D01*
X316Y320D02*
X391Y320D01*
X416Y320D02*
X491Y320D01*
X516Y320D02*
X591Y320D01*
X616Y320D02*
X691Y320D01*
X716Y320D02*
X791Y320D01*
X816Y320D02*
X891Y320D01*
X916Y320D02*
X991Y320D01*
X1016Y320D02*
X1091Y320D01*
X1116Y320D02*
X1191Y320D01*
X1216Y320D02*
X1291Y320D01*
X1316Y320D02*
X1391Y320D01*
X116Y319D02*
X190Y319D01*
X216Y319D02*
X290Y319D01*
X316Y319D02*
X390Y319D01*
X416Y319D02*
X490Y319D01*
X516Y319D02*
X590Y319D01*
X616Y319D02*
X690Y319D01*
X716Y319D02*
X790Y319D01*
X816Y319D02*
X890Y319D01*
X916Y319D02*
X990Y319D01*
X1016Y319D02*
X1090Y319D01*
X1116Y319D02*
X1190Y319D01*
X1216Y319D02*
X1290Y319D01*
X1316Y319D02*
X1390Y319D01*
X116Y318D02*
X190Y318D01*
X216Y318D02*
X290Y318D01*
X316Y318D02*
X390Y318D01*
X416Y318D02*
X490Y318D01*
X516Y318D02*
X590Y318D01*
X616Y318D02*
X690Y318D01*
X716Y318D02*
X790Y318D01*
X816Y318D02*
X890Y318D01*
X916Y318D02*
X990Y318D01*
X1016Y318D02*
X1090Y318D01*
X1116Y318D02*
X1190Y318D01*
X1216Y318D02*
X1290Y318D01*
X1316Y318D02*
X1390Y318D01*
X117Y317D02*
X189Y317D01*
X217Y317D02*
X289Y317D01*
X317Y317D02*
X389Y317D01*
X417Y317D02*
X489Y317D01*
X517Y317D02*
X589Y317D01*
X617Y317D02*
X689Y317D01*
X717Y317D02*
X789Y317D01*
X817Y317D02*
X889Y317D01*
X917Y317D02*
X989Y317D01*
X1017Y317D02*
X1089Y317D01*
X1117Y317D02*
X1189Y317D01*
X1217Y317D02*
X1289Y317D01*
X1317Y317D02*
X1389Y317D01*
X117Y316D02*
X189Y316D01*
X217Y316D02*
X289Y316D01*
X317Y316D02*
X389Y316D01*
X417Y316D02*
X489Y316D01*
X517Y316D02*
X589Y316D01*
X617Y316D02*
X689Y316D01*
X717Y316D02*
X789Y316D01*
X817Y316D02*
X889Y316D01*
X917Y316D02*
X989Y316D01*
X1017Y316D02*
X1089Y316D01*
X1117Y316D02*
X1189Y316D01*
X1217Y316D02*
X1289Y316D01*
X1317Y316D02*
X1389Y316D01*
X118Y315D02*
X188Y315D01*
X218Y315D02*
X288Y315D01*
X318Y315D02*
X388Y315D01*
X418Y315D02*
X488Y315D01*
X518Y315D02*
X588Y315D01*
X618Y315D02*
X688Y315D01*
X718Y315D02*
X788Y315D01*
X818Y315D02*
X888Y315D01*
X918Y315D02*
X988Y315D01*
X1018Y315D02*
X1088Y315D01*
X1118Y315D02*
X1188Y315D01*
X1218Y315D02*
X1288Y315D01*
X1318Y315D02*
X1388Y315D01*
X118Y314D02*
X188Y314D01*
X218Y314D02*
X288Y314D01*
X318Y314D02*
X388Y314D01*
X418Y314D02*
X488Y314D01*
X518Y314D02*
X588Y314D01*
X618Y314D02*
X688Y314D01*
X718Y314D02*
X788Y314D01*
X818Y314D02*
X888Y314D01*
X918Y314D02*
X988Y314D01*
X1018Y314D02*
X1088Y314D01*
X1118Y314D02*
X1188Y314D01*
X1218Y314D02*
X1288Y314D01*
X1318Y314D02*
X1388Y314D01*
X119Y313D02*
X187Y313D01*
X219Y313D02*
X287Y313D01*
X319Y313D02*
X387Y313D01*
X419Y313D02*
X487Y313D01*
X519Y313D02*
X587Y313D01*
X619Y313D02*
X687Y313D01*
X719Y313D02*
X787Y313D01*
X819Y313D02*
X887Y313D01*
X919Y313D02*
X987Y313D01*
X1019Y313D02*
X1087Y313D01*
X1119Y313D02*
X1187Y313D01*
X1219Y313D02*
X1287Y313D01*
X1319Y313D02*
X1387Y313D01*
X119Y312D02*
X187Y312D01*
X219Y312D02*
X287Y312D01*
X319Y312D02*
X387Y312D01*
X419Y312D02*
X487Y312D01*
X519Y312D02*
X587Y312D01*
X619Y312D02*
X687Y312D01*
X719Y312D02*
X787Y312D01*
X819Y312D02*
X887Y312D01*
X919Y312D02*
X987Y312D01*
X1019Y312D02*
X1087Y312D01*
X1119Y312D02*
X1187Y312D01*
X1219Y312D02*
X1287Y312D01*
X1319Y312D02*
X1387Y312D01*
X120Y311D02*
X186Y311D01*
X220Y311D02*
X286Y311D01*
X320Y311D02*
X386Y311D01*
X420Y311D02*
X486Y311D01*
X520Y311D02*
X586Y311D01*
X620Y311D02*
X686Y311D01*
X720Y311D02*
X786Y311D01*
X820Y311D02*
X886Y311D01*
X920Y311D02*
X986Y311D01*
X1020Y311D02*
X1086Y311D01*
X1120Y311D02*
X1186Y311D01*
X1220Y311D02*
X1286Y311D01*
X1320Y311D02*
X1386Y311D01*
X121Y310D02*
X185Y310D01*
X221Y310D02*
X285Y310D01*
X321Y310D02*
X385Y310D01*
X421Y310D02*
X485Y310D01*
X521Y310D02*
X585Y310D01*
X621Y310D02*
X685Y310D01*
X721Y310D02*
X785Y310D01*
X821Y310D02*
X885Y310D01*
X921Y310D02*
X985Y310D01*
X1021Y310D02*
X1085Y310D01*
X1121Y310D02*
X1185Y310D01*
X1221Y310D02*
X1285Y310D01*
X1321Y310D02*
X1385Y310D01*
X121Y309D02*
X185Y309D01*
X221Y309D02*
X285Y309D01*
X321Y309D02*
X385Y309D01*
X421Y309D02*
X485Y309D01*
X521Y309D02*
X585Y309D01*
X621Y309D02*
X685Y309D01*
X721Y309D02*
X785Y309D01*
X821Y309D02*
X885Y309D01*
X921Y309D02*
X985Y309D01*
X1021Y309D02*
X1085Y309D01*
X1121Y309D02*
X1185Y309D01*
X1221Y309D02*
X1285Y309D01*
X1321Y309D02*
X1385Y309D01*
X122Y308D02*
X184Y308D01*
X222Y308D02*
X284Y308D01*
X322Y308D02*
X384Y308D01*
X422Y308D02*
X484Y308D01*
X522Y308D02*
X584Y308D01*
X622Y308D02*
X684Y308D01*
X722Y308D02*
X784Y308D01*
X822Y308D02*
X884Y308D01*
X922Y308D02*
X984Y308D01*
X1022Y308D02*
X1084Y308D01*
X1122Y308D02*
X1184Y308D01*
X1222Y308D02*
X1284Y308D01*
X1322Y308D02*
X1384Y308D01*
X123Y307D02*
X183Y307D01*
X223Y307D02*
X283Y307D01*
X323Y307D02*
X383Y307D01*
X423Y307D02*
X483Y307D01*
X523Y307D02*
X583Y307D01*
X623Y307D02*
X683Y307D01*
X723Y307D02*
X783Y307D01*
X823Y307D02*
X883Y307D01*
X923Y307D02*
X983Y307D01*
X1023Y307D02*
X1083Y307D01*
X1123Y307D02*
X1183Y307D01*
X1223Y307D02*
X1283Y307D01*
X1323Y307D02*
X1383Y307D01*
X124Y306D02*
X182Y306D01*
X224Y306D02*
X282Y306D01*
X324Y306D02*
X382Y306D01*
X424Y306D02*
X482Y306D01*
X524Y306D02*
X582Y306D01*
X624Y306D02*
X682Y306D01*
X724Y306D02*
X782Y306D01*
X824Y306D02*
X882Y306D01*
X924Y306D02*
X982Y306D01*
X1024Y306D02*
X1082Y306D01*
X1124Y306D02*
X1182Y306D01*
X1224Y306D02*
X1282Y306D01*
X1324Y306D02*
X1382Y306D01*
X125Y305D02*
X181Y305D01*
X225Y305D02*
X281Y305D01*
X325Y305D02*
X381Y305D01*
X425Y305D02*
X481Y305D01*
X525Y305D02*
X581Y305D01*
X625Y305D02*
X681Y305D01*
X725Y305D02*
X781Y305D01*
X825Y305D02*
X881Y305D01*
X925Y305D02*
X981Y305D01*
X1025Y305D02*
X1081Y305D01*
X1125Y305D02*
X1181Y305D01*
X1225Y305D02*
X1281Y305D01*
X1325Y305D02*
X1381Y305D01*
X126Y304D02*
X180Y304D01*
X226Y304D02*
X280Y304D01*
X326Y304D02*
X380Y304D01*
X426Y304D02*
X480Y304D01*
X526Y304D02*
X580Y304D01*
X626Y304D02*
X680Y304D01*
X726Y304D02*
X780Y304D01*
X826Y304D02*
X880Y304D01*
X926Y304D02*
X980Y304D01*
X1026Y304D02*
X1080Y304D01*
X1126Y304D02*
X1180Y304D01*
X1226Y304D02*
X1280Y304D01*
X1326Y304D02*
X1380Y304D01*
X127Y303D02*
X179Y303D01*
X227Y303D02*
X279Y303D01*
X327Y303D02*
X379Y303D01*
X427Y303D02*
X479Y303D01*
X527Y303D02*
X579Y303D01*
X627Y303D02*
X679Y303D01*
X727Y303D02*
X779Y303D01*
X827Y303D02*
X879Y303D01*
X927Y303D02*
X979Y303D01*
X1027Y303D02*
X1079Y303D01*
X1127Y303D02*
X1179Y303D01*
X1227Y303D02*
X1279Y303D01*
X1327Y303D02*
X1379Y303D01*
X128Y302D02*
X178Y302D01*
X228Y302D02*
X278Y302D01*
X328Y302D02*
X378Y302D01*
X428Y302D02*
X478Y302D01*
X528Y302D02*
X578Y302D01*
X628Y302D02*
X678Y302D01*
X728Y302D02*
X778Y302D01*
X828Y302D02*
X878Y302D01*
X928Y302D02*
X978Y302D01*
X1028Y302D02*
X1078Y302D01*
X1128Y302D02*
X1178Y302D01*
X1228Y302D02*
X1278Y302D01*
X1328Y302D02*
X1378Y302D01*
X129Y301D02*
X177Y301D01*
X229Y301D02*
X277Y301D01*
X329Y301D02*
X377Y301D01*
X429Y301D02*
X477Y301D01*
X529Y301D02*
X577Y301D01*
X629Y301D02*
X677Y301D01*
X729Y301D02*
X777Y301D01*
X829Y301D02*
X877Y301D01*
X929Y301D02*
X977Y301D01*
X1029Y301D02*
X1077Y301D01*
X1129Y301D02*
X1177Y301D01*
X1229Y301D02*
X1277Y301D01*
X1329Y301D02*
X1377Y301D01*
X130Y300D02*
X176Y300D01*
X230Y300D02*
X276Y300D01*
X330Y300D02*
X376Y300D01*
X430Y300D02*
X476Y300D01*
X530Y300D02*
X576Y300D01*
X630Y300D02*
X676Y300D01*
X730Y300D02*
X776Y300D01*
X830Y300D02*
X876Y300D01*
X930Y300D02*
X976Y300D01*
X1030Y300D02*
X1076Y300D01*
X1130Y300D02*
X1176Y300D01*
X1230Y300D02*
X1276Y300D01*
X1330Y300D02*
X1376Y300D01*
X132Y299D02*
X175Y299D01*
X232Y299D02*
X275Y299D01*
X332Y299D02*
X375Y299D01*
X432Y299D02*
X475Y299D01*
X532Y299D02*
X575Y299D01*
X631Y299D02*
X675Y299D01*
X731Y299D02*
X775Y299D01*
X831Y299D02*
X875Y299D01*
X931Y299D02*
X975Y299D01*
X1031Y299D02*
X1075Y299D01*
X1131Y299D02*
X1175Y299D01*
X1231Y299D02*
X1275Y299D01*
X1331Y299D02*
X1375Y299D01*
X133Y298D02*
X173Y298D01*
X233Y298D02*
X273Y298D01*
X333Y298D02*
X373Y298D01*
X433Y298D02*
X473Y298D01*
X533Y298D02*
X573Y298D01*
X633Y298D02*
X673Y298D01*
X733Y298D02*
X773Y298D01*
X833Y298D02*
X873Y298D01*
X933Y298D02*
X973Y298D01*
X1033Y298D02*
X1073Y298D01*
X1133Y298D02*
X1173Y298D01*
X1233Y298D02*
X1273Y298D01*
X1333Y298D02*
X1373Y298D01*
X134Y297D02*
X172Y297D01*
X234Y297D02*
X272Y297D01*
X334Y297D02*
X372Y297D01*
X434Y297D02*
X472Y297D01*
X534Y297D02*
X572Y297D01*
X634Y297D02*
X672Y297D01*
X734Y297D02*
X772Y297D01*
X834Y297D02*
X872Y297D01*
X934Y297D02*
X972Y297D01*
X1034Y297D02*
X1072Y297D01*
X1134Y297D02*
X1172Y297D01*
X1234Y297D02*
X1272Y297D01*
X1334Y297D02*
X1372Y297D01*
X136Y296D02*
X170Y296D01*
X236Y296D02*
X270Y296D01*
X336Y296D02*
X370Y296D01*
X436Y296D02*
X470Y296D01*
X536Y296D02*
X570Y296D01*
X636Y296D02*
X670Y296D01*
X736Y296D02*
X770Y296D01*
X836Y296D02*
X870Y296D01*
X936Y296D02*
X970Y296D01*
X1036Y296D02*
X1070Y296D01*
X1136Y296D02*
X1170Y296D01*
X1236Y296D02*
X1270Y296D01*
X1336Y296D02*
X1370Y296D01*
X138Y295D02*
X168Y295D01*
X238Y295D02*
X268Y295D01*
X338Y295D02*
X368Y295D01*
X438Y295D02*
X468Y295D01*
X538Y295D02*
X568Y295D01*
X638Y295D02*
X668Y295D01*
X738Y295D02*
X768Y295D01*
X838Y295D02*
X868Y295D01*
X938Y295D02*
X968Y295D01*
X1038Y295D02*
X1068Y295D01*
X1138Y295D02*
X1168Y295D01*
X1238Y295D02*
X1268Y295D01*
X1338Y295D02*
X1368Y295D01*
X140Y294D02*
X166Y294D01*
X240Y294D02*
X266Y294D01*
X340Y294D02*
X366Y294D01*
X440Y294D02*
X466Y294D01*
X540Y294D02*
X566Y294D01*
X640Y294D02*
X666Y294D01*
X740Y294D02*
X766Y294D01*
X840Y294D02*
X866Y294D01*
X940Y294D02*
X966Y294D01*
X1040Y294D02*
X1066Y294D01*
X1140Y294D02*
X1166Y294D01*
X1240Y294D02*
X1266Y294D01*
X1340Y294D02*
X1366Y294D01*
X143Y293D02*
X163Y293D01*
X243Y293D02*
X263Y293D01*
X343Y293D02*
X363Y293D01*
X443Y293D02*
X463Y293D01*
X543Y293D02*
X563Y293D01*
X643Y293D02*
X663Y293D01*
X743Y293D02*
X763Y293D01*
X843Y293D02*
X863Y293D01*
X943Y293D02*
X963Y293D01*
X1043Y293D02*
X1063Y293D01*
X1143Y293D02*
X1163Y293D01*
X1243Y293D02*
X1263Y293D01*
X1343Y293D02*
X1363Y293D01*
X146Y292D02*
X160Y292D01*
X246Y292D02*
X260Y292D01*
X346Y292D02*
X360Y292D01*
X446Y292D02*
X460Y292D01*
X546Y292D02*
X560Y292D01*
X646Y292D02*
X660Y292D01*
X746Y292D02*
X760Y292D01*
X846Y292D02*
X860Y292D01*
X946Y292D02*
X960Y292D01*
X1046Y292D02*
X1060Y292D01*
X1146Y292D02*
X1160Y292D01*
X1246Y292D02*
X1260Y292D01*
X1346Y292D02*
X1360Y292D01*
X150Y271D02*
X156Y271D01*
X250Y271D02*
X256Y271D01*
X350Y271D02*
X356Y271D01*
X450Y271D02*
X456Y271D01*
X550Y271D02*
X556Y271D01*
X650Y271D02*
X656Y271D01*
X750Y271D02*
X756Y271D01*
X850Y271D02*
X856Y271D01*
X950Y271D02*
X956Y271D01*
X1050Y271D02*
X1056Y271D01*
X1150Y271D02*
X1156Y271D01*
X1250Y271D02*
X1256Y271D01*
X1350Y271D02*
X1356Y271D01*
X145Y270D02*
X161Y270D01*
X245Y270D02*
X261Y270D01*
X345Y270D02*
X361Y270D01*
X445Y270D02*
X461Y270D01*
X545Y270D02*
X561Y270D01*
X645Y270D02*
X661Y270D01*
X745Y270D02*
X761Y270D01*
X845Y270D02*
X861Y270D01*
X945Y270D02*
X961Y270D01*
X1045Y270D02*
X1061Y270D01*
X1145Y270D02*
X1161Y270D01*
X1245Y270D02*
X1261Y270D01*
X1345Y270D02*
X1361Y270D01*
X142Y269D02*
X164Y269D01*
X242Y269D02*
X264Y269D01*
X342Y269D02*
X364Y269D01*
X442Y269D02*
X464Y269D01*
X542Y269D02*
X564Y269D01*
X642Y269D02*
X664Y269D01*
X742Y269D02*
X764Y269D01*
X842Y269D02*
X864Y269D01*
X942Y269D02*
X964Y269D01*
X1042Y269D02*
X1064Y269D01*
X1142Y269D02*
X1164Y269D01*
X1242Y269D02*
X1264Y269D01*
X1342Y269D02*
X1364Y269D01*
X140Y268D02*
X167Y268D01*
X240Y268D02*
X267Y268D01*
X340Y268D02*
X367Y268D01*
X439Y268D02*
X467Y268D01*
X539Y268D02*
X567Y268D01*
X639Y268D02*
X667Y268D01*
X739Y268D02*
X767Y268D01*
X839Y268D02*
X867Y268D01*
X939Y268D02*
X967Y268D01*
X1039Y268D02*
X1067Y268D01*
X1139Y268D02*
X1167Y268D01*
X1239Y268D02*
X1267Y268D01*
X1339Y268D02*
X1367Y268D01*
X137Y267D02*
X169Y267D01*
X237Y267D02*
X269Y267D01*
X337Y267D02*
X369Y267D01*
X437Y267D02*
X469Y267D01*
X537Y267D02*
X569Y267D01*
X637Y267D02*
X669Y267D01*
X737Y267D02*
X769Y267D01*
X837Y267D02*
X869Y267D01*
X937Y267D02*
X969Y267D01*
X1037Y267D02*
X1069Y267D01*
X1137Y267D02*
X1169Y267D01*
X1237Y267D02*
X1269Y267D01*
X1337Y267D02*
X1369Y267D01*
X136Y266D02*
X171Y266D01*
X236Y266D02*
X271Y266D01*
X336Y266D02*
X371Y266D01*
X436Y266D02*
X471Y266D01*
X536Y266D02*
X571Y266D01*
X636Y266D02*
X671Y266D01*
X736Y266D02*
X771Y266D01*
X836Y266D02*
X871Y266D01*
X936Y266D02*
X971Y266D01*
X1036Y266D02*
X1071Y266D01*
X1136Y266D02*
X1171Y266D01*
X1236Y266D02*
X1271Y266D01*
X1335Y266D02*
X1371Y266D01*
X134Y265D02*
X172Y265D01*
X234Y265D02*
X272Y265D01*
X334Y265D02*
X372Y265D01*
X434Y265D02*
X472Y265D01*
X534Y265D02*
X572Y265D01*
X634Y265D02*
X672Y265D01*
X734Y265D02*
X772Y265D01*
X834Y265D02*
X872Y265D01*
X934Y265D02*
X972Y265D01*
X1034Y265D02*
X1072Y265D01*
X1134Y265D02*
X1172Y265D01*
X1234Y265D02*
X1272Y265D01*
X1334Y265D02*
X1372Y265D01*
X132Y264D02*
X174Y264D01*
X232Y264D02*
X274Y264D01*
X332Y264D02*
X374Y264D01*
X432Y264D02*
X474Y264D01*
X532Y264D02*
X574Y264D01*
X632Y264D02*
X674Y264D01*
X732Y264D02*
X774Y264D01*
X832Y264D02*
X874Y264D01*
X932Y264D02*
X974Y264D01*
X1032Y264D02*
X1074Y264D01*
X1132Y264D02*
X1174Y264D01*
X1232Y264D02*
X1274Y264D01*
X1332Y264D02*
X1374Y264D01*
X131Y263D02*
X175Y263D01*
X231Y263D02*
X275Y263D01*
X331Y263D02*
X375Y263D01*
X431Y263D02*
X475Y263D01*
X531Y263D02*
X575Y263D01*
X631Y263D02*
X675Y263D01*
X731Y263D02*
X775Y263D01*
X831Y263D02*
X875Y263D01*
X931Y263D02*
X975Y263D01*
X1031Y263D02*
X1075Y263D01*
X1131Y263D02*
X1175Y263D01*
X1231Y263D02*
X1275Y263D01*
X1331Y263D02*
X1375Y263D01*
X130Y262D02*
X176Y262D01*
X230Y262D02*
X276Y262D01*
X330Y262D02*
X376Y262D01*
X430Y262D02*
X476Y262D01*
X530Y262D02*
X576Y262D01*
X630Y262D02*
X676Y262D01*
X730Y262D02*
X776Y262D01*
X830Y262D02*
X876Y262D01*
X930Y262D02*
X976Y262D01*
X1030Y262D02*
X1076Y262D01*
X1130Y262D02*
X1176Y262D01*
X1230Y262D02*
X1276Y262D01*
X1330Y262D02*
X1376Y262D01*
X129Y261D02*
X178Y261D01*
X229Y261D02*
X278Y261D01*
X329Y261D02*
X378Y261D01*
X429Y261D02*
X478Y261D01*
X529Y261D02*
X578Y261D01*
X629Y261D02*
X678Y261D01*
X729Y261D02*
X778Y261D01*
X829Y261D02*
X878Y261D01*
X929Y261D02*
X978Y261D01*
X1029Y261D02*
X1078Y261D01*
X1129Y261D02*
X1178Y261D01*
X1229Y261D02*
X1278Y261D01*
X1329Y261D02*
X1378Y261D01*
X127Y260D02*
X179Y260D01*
X227Y260D02*
X279Y260D01*
X327Y260D02*
X379Y260D01*
X427Y260D02*
X479Y260D01*
X527Y260D02*
X579Y260D01*
X627Y260D02*
X679Y260D01*
X727Y260D02*
X779Y260D01*
X827Y260D02*
X879Y260D01*
X927Y260D02*
X979Y260D01*
X1027Y260D02*
X1079Y260D01*
X1127Y260D02*
X1179Y260D01*
X1227Y260D02*
X1279Y260D01*
X1327Y260D02*
X1379Y260D01*
X126Y259D02*
X180Y259D01*
X226Y259D02*
X280Y259D01*
X326Y259D02*
X380Y259D01*
X426Y259D02*
X480Y259D01*
X526Y259D02*
X580Y259D01*
X626Y259D02*
X680Y259D01*
X726Y259D02*
X780Y259D01*
X826Y259D02*
X880Y259D01*
X926Y259D02*
X980Y259D01*
X1026Y259D02*
X1080Y259D01*
X1126Y259D02*
X1180Y259D01*
X1226Y259D02*
X1280Y259D01*
X1326Y259D02*
X1380Y259D01*
X125Y258D02*
X181Y258D01*
X225Y258D02*
X281Y258D01*
X325Y258D02*
X381Y258D01*
X425Y258D02*
X481Y258D01*
X525Y258D02*
X581Y258D01*
X625Y258D02*
X681Y258D01*
X725Y258D02*
X781Y258D01*
X825Y258D02*
X881Y258D01*
X925Y258D02*
X981Y258D01*
X1025Y258D02*
X1081Y258D01*
X1125Y258D02*
X1181Y258D01*
X1225Y258D02*
X1281Y258D01*
X1325Y258D02*
X1381Y258D01*
X125Y257D02*
X182Y257D01*
X225Y257D02*
X282Y257D01*
X324Y257D02*
X382Y257D01*
X424Y257D02*
X482Y257D01*
X524Y257D02*
X582Y257D01*
X624Y257D02*
X682Y257D01*
X724Y257D02*
X782Y257D01*
X824Y257D02*
X882Y257D01*
X924Y257D02*
X982Y257D01*
X1024Y257D02*
X1082Y257D01*
X1124Y257D02*
X1182Y257D01*
X1224Y257D02*
X1282Y257D01*
X1324Y257D02*
X1382Y257D01*
X124Y256D02*
X183Y256D01*
X224Y256D02*
X283Y256D01*
X324Y256D02*
X383Y256D01*
X424Y256D02*
X483Y256D01*
X524Y256D02*
X583Y256D01*
X624Y256D02*
X683Y256D01*
X724Y256D02*
X783Y256D01*
X824Y256D02*
X883Y256D01*
X924Y256D02*
X983Y256D01*
X1024Y256D02*
X1083Y256D01*
X1124Y256D02*
X1183Y256D01*
X1224Y256D02*
X1283Y256D01*
X1324Y256D02*
X1382Y256D01*
X123Y255D02*
X183Y255D01*
X223Y255D02*
X283Y255D01*
X323Y255D02*
X383Y255D01*
X423Y255D02*
X483Y255D01*
X523Y255D02*
X583Y255D01*
X623Y255D02*
X683Y255D01*
X723Y255D02*
X783Y255D01*
X823Y255D02*
X883Y255D01*
X923Y255D02*
X983Y255D01*
X1023Y255D02*
X1083Y255D01*
X1123Y255D02*
X1183Y255D01*
X1223Y255D02*
X1283Y255D01*
X1323Y255D02*
X1383Y255D01*
X122Y254D02*
X184Y254D01*
X222Y254D02*
X284Y254D01*
X322Y254D02*
X384Y254D01*
X422Y254D02*
X484Y254D01*
X522Y254D02*
X584Y254D01*
X622Y254D02*
X684Y254D01*
X722Y254D02*
X784Y254D01*
X822Y254D02*
X884Y254D01*
X922Y254D02*
X984Y254D01*
X1022Y254D02*
X1084Y254D01*
X1122Y254D02*
X1184Y254D01*
X1222Y254D02*
X1284Y254D01*
X1322Y254D02*
X1384Y254D01*
X121Y253D02*
X185Y253D01*
X221Y253D02*
X285Y253D01*
X321Y253D02*
X385Y253D01*
X421Y253D02*
X485Y253D01*
X521Y253D02*
X585Y253D01*
X621Y253D02*
X685Y253D01*
X721Y253D02*
X785Y253D01*
X821Y253D02*
X885Y253D01*
X921Y253D02*
X985Y253D01*
X1021Y253D02*
X1085Y253D01*
X1121Y253D02*
X1185Y253D01*
X1221Y253D02*
X1285Y253D01*
X1321Y253D02*
X1385Y253D01*
X121Y252D02*
X186Y252D01*
X221Y252D02*
X286Y252D01*
X321Y252D02*
X386Y252D01*
X421Y252D02*
X486Y252D01*
X521Y252D02*
X586Y252D01*
X621Y252D02*
X686Y252D01*
X721Y252D02*
X786Y252D01*
X820Y252D02*
X886Y252D01*
X920Y252D02*
X986Y252D01*
X1020Y252D02*
X1086Y252D01*
X1120Y252D02*
X1186Y252D01*
X1220Y252D02*
X1286Y252D01*
X1320Y252D02*
X1386Y252D01*
X120Y251D02*
X186Y251D01*
X220Y251D02*
X286Y251D01*
X320Y251D02*
X386Y251D01*
X420Y251D02*
X486Y251D01*
X520Y251D02*
X586Y251D01*
X620Y251D02*
X686Y251D01*
X720Y251D02*
X786Y251D01*
X820Y251D02*
X886Y251D01*
X920Y251D02*
X986Y251D01*
X1020Y251D02*
X1086Y251D01*
X1120Y251D02*
X1186Y251D01*
X1220Y251D02*
X1286Y251D01*
X1320Y251D02*
X1386Y251D01*
X119Y250D02*
X187Y250D01*
X219Y250D02*
X287Y250D01*
X319Y250D02*
X387Y250D01*
X419Y250D02*
X487Y250D01*
X519Y250D02*
X587Y250D01*
X619Y250D02*
X687Y250D01*
X719Y250D02*
X787Y250D01*
X819Y250D02*
X887Y250D01*
X919Y250D02*
X987Y250D01*
X1019Y250D02*
X1087Y250D01*
X1119Y250D02*
X1187Y250D01*
X1219Y250D02*
X1287Y250D01*
X1319Y250D02*
X1387Y250D01*
X119Y249D02*
X188Y249D01*
X219Y249D02*
X288Y249D01*
X319Y249D02*
X388Y249D01*
X419Y249D02*
X488Y249D01*
X519Y249D02*
X588Y249D01*
X619Y249D02*
X688Y249D01*
X719Y249D02*
X788Y249D01*
X819Y249D02*
X887Y249D01*
X919Y249D02*
X987Y249D01*
X1019Y249D02*
X1087Y249D01*
X1119Y249D02*
X1187Y249D01*
X1219Y249D02*
X1287Y249D01*
X1319Y249D02*
X1387Y249D01*
X118Y248D02*
X188Y248D01*
X218Y248D02*
X288Y248D01*
X318Y248D02*
X388Y248D01*
X418Y248D02*
X488Y248D01*
X518Y248D02*
X588Y248D01*
X618Y248D02*
X688Y248D01*
X718Y248D02*
X788Y248D01*
X818Y248D02*
X888Y248D01*
X918Y248D02*
X988Y248D01*
X1018Y248D02*
X1088Y248D01*
X1118Y248D02*
X1188Y248D01*
X1218Y248D02*
X1288Y248D01*
X1318Y248D02*
X1388Y248D01*
X118Y247D02*
X189Y247D01*
X218Y247D02*
X289Y247D01*
X318Y247D02*
X389Y247D01*
X418Y247D02*
X489Y247D01*
X518Y247D02*
X589Y247D01*
X618Y247D02*
X689Y247D01*
X718Y247D02*
X789Y247D01*
X818Y247D02*
X889Y247D01*
X918Y247D02*
X989Y247D01*
X1018Y247D02*
X1089Y247D01*
X1118Y247D02*
X1189Y247D01*
X1218Y247D02*
X1289Y247D01*
X1318Y247D02*
X1389Y247D01*
X117Y246D02*
X189Y246D01*
X217Y246D02*
X289Y246D01*
X317Y246D02*
X389Y246D01*
X417Y246D02*
X489Y246D01*
X517Y246D02*
X589Y246D01*
X617Y246D02*
X689Y246D01*
X717Y246D02*
X789Y246D01*
X817Y246D02*
X889Y246D01*
X917Y246D02*
X989Y246D01*
X1017Y246D02*
X1089Y246D01*
X1117Y246D02*
X1189Y246D01*
X1217Y246D02*
X1289Y246D01*
X1317Y246D02*
X1389Y246D01*
X117Y245D02*
X190Y245D01*
X217Y245D02*
X290Y245D01*
X317Y245D02*
X390Y245D01*
X417Y245D02*
X490Y245D01*
X517Y245D02*
X590Y245D01*
X617Y245D02*
X690Y245D01*
X717Y245D02*
X790Y245D01*
X817Y245D02*
X890Y245D01*
X917Y245D02*
X990Y245D01*
X1017Y245D02*
X1090Y245D01*
X1117Y245D02*
X1189Y245D01*
X1217Y245D02*
X1289Y245D01*
X1317Y245D02*
X1389Y245D01*
X116Y244D02*
X190Y244D01*
X216Y244D02*
X290Y244D01*
X316Y244D02*
X390Y244D01*
X416Y244D02*
X490Y244D01*
X516Y244D02*
X590Y244D01*
X616Y244D02*
X690Y244D01*
X716Y244D02*
X790Y244D01*
X816Y244D02*
X890Y244D01*
X916Y244D02*
X990Y244D01*
X1016Y244D02*
X1090Y244D01*
X1116Y244D02*
X1190Y244D01*
X1216Y244D02*
X1290Y244D01*
X1316Y244D02*
X1390Y244D01*
X116Y243D02*
X190Y243D01*
X216Y243D02*
X290Y243D01*
X316Y243D02*
X390Y243D01*
X416Y243D02*
X490Y243D01*
X516Y243D02*
X590Y243D01*
X616Y243D02*
X690Y243D01*
X716Y243D02*
X790Y243D01*
X816Y243D02*
X890Y243D01*
X916Y243D02*
X990Y243D01*
X1016Y243D02*
X1090Y243D01*
X1116Y243D02*
X1190Y243D01*
X1216Y243D02*
X1290Y243D01*
X1316Y243D02*
X1390Y243D01*
X115Y242D02*
X191Y242D01*
X215Y242D02*
X291Y242D01*
X315Y242D02*
X391Y242D01*
X415Y242D02*
X491Y242D01*
X515Y242D02*
X591Y242D01*
X615Y242D02*
X691Y242D01*
X715Y242D02*
X791Y242D01*
X815Y242D02*
X891Y242D01*
X915Y242D02*
X991Y242D01*
X1015Y242D02*
X1091Y242D01*
X1115Y242D02*
X1191Y242D01*
X1215Y242D02*
X1291Y242D01*
X1315Y242D02*
X1391Y242D01*
X115Y241D02*
X191Y241D01*
X215Y241D02*
X291Y241D01*
X315Y241D02*
X391Y241D01*
X415Y241D02*
X491Y241D01*
X515Y241D02*
X591Y241D01*
X615Y241D02*
X691Y241D01*
X715Y241D02*
X791Y241D01*
X815Y241D02*
X891Y241D01*
X915Y241D02*
X991Y241D01*
X1015Y241D02*
X1091Y241D01*
X1115Y241D02*
X1191Y241D01*
X1215Y241D02*
X1291Y241D01*
X1315Y241D02*
X1391Y241D01*
X115Y240D02*
X191Y240D01*
X215Y240D02*
X291Y240D01*
X315Y240D02*
X391Y240D01*
X415Y240D02*
X491Y240D01*
X515Y240D02*
X591Y240D01*
X615Y240D02*
X691Y240D01*
X715Y240D02*
X791Y240D01*
X815Y240D02*
X891Y240D01*
X915Y240D02*
X991Y240D01*
X1015Y240D02*
X1091Y240D01*
X1115Y240D02*
X1191Y240D01*
X1215Y240D02*
X1291Y240D01*
X1315Y240D02*
X1391Y240D01*
X115Y239D02*
X192Y239D01*
X215Y239D02*
X292Y239D01*
X315Y239D02*
X392Y239D01*
X415Y239D02*
X492Y239D01*
X515Y239D02*
X592Y239D01*
X615Y239D02*
X692Y239D01*
X715Y239D02*
X792Y239D01*
X815Y239D02*
X892Y239D01*
X915Y239D02*
X992Y239D01*
X1015Y239D02*
X1092Y239D01*
X1115Y239D02*
X1192Y239D01*
X1215Y239D02*
X1292Y239D01*
X1315Y239D02*
X1392Y239D01*
X114Y238D02*
X192Y238D01*
X214Y238D02*
X292Y238D01*
X314Y238D02*
X392Y238D01*
X414Y238D02*
X492Y238D01*
X514Y238D02*
X592Y238D01*
X614Y238D02*
X692Y238D01*
X714Y238D02*
X792Y238D01*
X814Y238D02*
X892Y238D01*
X914Y238D02*
X992Y238D01*
X1014Y238D02*
X1092Y238D01*
X1114Y238D02*
X1192Y238D01*
X1214Y238D02*
X1292Y238D01*
X1314Y238D02*
X1392Y238D01*
X114Y237D02*
X192Y237D01*
X214Y237D02*
X292Y237D01*
X314Y237D02*
X392Y237D01*
X414Y237D02*
X492Y237D01*
X514Y237D02*
X592Y237D01*
X614Y237D02*
X692Y237D01*
X714Y237D02*
X792Y237D01*
X814Y237D02*
X892Y237D01*
X914Y237D02*
X992Y237D01*
X1014Y237D02*
X1092Y237D01*
X1114Y237D02*
X1192Y237D01*
X1214Y237D02*
X1292Y237D01*
X1314Y237D02*
X1392Y237D01*
X114Y236D02*
X192Y236D01*
X214Y236D02*
X292Y236D01*
X314Y236D02*
X392Y236D01*
X414Y236D02*
X492Y236D01*
X514Y236D02*
X592Y236D01*
X614Y236D02*
X692Y236D01*
X714Y236D02*
X792Y236D01*
X814Y236D02*
X892Y236D01*
X914Y236D02*
X992Y236D01*
X1014Y236D02*
X1092Y236D01*
X1114Y236D02*
X1192Y236D01*
X1214Y236D02*
X1292Y236D01*
X1314Y236D02*
X1392Y236D01*
X114Y235D02*
X192Y235D01*
X214Y235D02*
X292Y235D01*
X314Y235D02*
X392Y235D01*
X414Y235D02*
X492Y235D01*
X514Y235D02*
X592Y235D01*
X614Y235D02*
X692Y235D01*
X714Y235D02*
X792Y235D01*
X814Y235D02*
X892Y235D01*
X914Y235D02*
X992Y235D01*
X1014Y235D02*
X1092Y235D01*
X1114Y235D02*
X1192Y235D01*
X1214Y235D02*
X1292Y235D01*
X1314Y235D02*
X1392Y235D01*
X114Y234D02*
X192Y234D01*
X214Y234D02*
X292Y234D01*
X314Y234D02*
X392Y234D01*
X414Y234D02*
X492Y234D01*
X514Y234D02*
X592Y234D01*
X614Y234D02*
X692Y234D01*
X714Y234D02*
X792Y234D01*
X814Y234D02*
X892Y234D01*
X914Y234D02*
X992Y234D01*
X1014Y234D02*
X1092Y234D01*
X1114Y234D02*
X1192Y234D01*
X1214Y234D02*
X1292Y234D01*
X1314Y234D02*
X1392Y234D01*
X114Y233D02*
X193Y233D01*
X214Y233D02*
X293Y233D01*
X314Y233D02*
X393Y233D01*
X414Y233D02*
X493Y233D01*
X514Y233D02*
X593Y233D01*
X614Y233D02*
X693Y233D01*
X714Y233D02*
X793Y233D01*
X814Y233D02*
X893Y233D01*
X914Y233D02*
X992Y233D01*
X1014Y233D02*
X1092Y233D01*
X1114Y233D02*
X1192Y233D01*
X1214Y233D02*
X1292Y233D01*
X1314Y233D02*
X1392Y233D01*
X114Y232D02*
X193Y232D01*
X214Y232D02*
X293Y232D01*
X314Y232D02*
X393Y232D01*
X414Y232D02*
X493Y232D01*
X514Y232D02*
X593Y232D01*
X614Y232D02*
X693Y232D01*
X714Y232D02*
X793Y232D01*
X814Y232D02*
X893Y232D01*
X914Y232D02*
X993Y232D01*
X1014Y232D02*
X1093Y232D01*
X1114Y232D02*
X1193Y232D01*
X1214Y232D02*
X1293Y232D01*
X1314Y232D02*
X1393Y232D01*
X114Y231D02*
X193Y231D01*
X214Y231D02*
X293Y231D01*
X314Y231D02*
X393Y231D01*
X414Y231D02*
X493Y231D01*
X514Y231D02*
X593Y231D01*
X614Y231D02*
X693Y231D01*
X714Y231D02*
X793Y231D01*
X814Y231D02*
X893Y231D01*
X914Y231D02*
X993Y231D01*
X1014Y231D02*
X1093Y231D01*
X1114Y231D02*
X1193Y231D01*
X1214Y231D02*
X1293Y231D01*
X1314Y231D02*
X1393Y231D01*
X114Y230D02*
X193Y230D01*
X214Y230D02*
X293Y230D01*
X314Y230D02*
X393Y230D01*
X414Y230D02*
X493Y230D01*
X514Y230D02*
X593Y230D01*
X614Y230D02*
X693Y230D01*
X714Y230D02*
X793Y230D01*
X814Y230D02*
X893Y230D01*
X914Y230D02*
X993Y230D01*
X1014Y230D02*
X1093Y230D01*
X1114Y230D02*
X1193Y230D01*
X1214Y230D02*
X1293Y230D01*
X1314Y230D02*
X1392Y230D01*
X114Y229D02*
X193Y229D01*
X214Y229D02*
X293Y229D01*
X314Y229D02*
X393Y229D01*
X414Y229D02*
X493Y229D01*
X514Y229D02*
X593Y229D01*
X614Y229D02*
X692Y229D01*
X714Y229D02*
X792Y229D01*
X814Y229D02*
X892Y229D01*
X914Y229D02*
X992Y229D01*
X1014Y229D02*
X1092Y229D01*
X1114Y229D02*
X1192Y229D01*
X1214Y229D02*
X1292Y229D01*
X1314Y229D02*
X1392Y229D01*
X114Y228D02*
X192Y228D01*
X214Y228D02*
X292Y228D01*
X314Y228D02*
X392Y228D01*
X414Y228D02*
X492Y228D01*
X514Y228D02*
X592Y228D01*
X614Y228D02*
X692Y228D01*
X714Y228D02*
X792Y228D01*
X814Y228D02*
X892Y228D01*
X914Y228D02*
X992Y228D01*
X1014Y228D02*
X1092Y228D01*
X1114Y228D02*
X1192Y228D01*
X1214Y228D02*
X1292Y228D01*
X1314Y228D02*
X1392Y228D01*
X114Y227D02*
X192Y227D01*
X214Y227D02*
X292Y227D01*
X314Y227D02*
X392Y227D01*
X414Y227D02*
X492Y227D01*
X514Y227D02*
X592Y227D01*
X614Y227D02*
X692Y227D01*
X714Y227D02*
X792Y227D01*
X814Y227D02*
X892Y227D01*
X914Y227D02*
X992Y227D01*
X1014Y227D02*
X1092Y227D01*
X1114Y227D02*
X1192Y227D01*
X1214Y227D02*
X1292Y227D01*
X1314Y227D02*
X1392Y227D01*
X114Y226D02*
X192Y226D01*
X214Y226D02*
X292Y226D01*
X314Y226D02*
X392Y226D01*
X414Y226D02*
X492Y226D01*
X514Y226D02*
X592Y226D01*
X614Y226D02*
X692Y226D01*
X714Y226D02*
X792Y226D01*
X814Y226D02*
X892Y226D01*
X914Y226D02*
X992Y226D01*
X1014Y226D02*
X1092Y226D01*
X1114Y226D02*
X1192Y226D01*
X1214Y226D02*
X1292Y226D01*
X1314Y226D02*
X1392Y226D01*
X114Y225D02*
X192Y225D01*
X214Y225D02*
X292Y225D01*
X314Y225D02*
X392Y225D01*
X414Y225D02*
X492Y225D01*
X514Y225D02*
X592Y225D01*
X614Y225D02*
X692Y225D01*
X714Y225D02*
X792Y225D01*
X814Y225D02*
X892Y225D01*
X914Y225D02*
X992Y225D01*
X1014Y225D02*
X1092Y225D01*
X1114Y225D02*
X1192Y225D01*
X1214Y225D02*
X1292Y225D01*
X1314Y225D02*
X1392Y225D01*
X114Y224D02*
X192Y224D01*
X214Y224D02*
X292Y224D01*
X314Y224D02*
X392Y224D01*
X414Y224D02*
X492Y224D01*
X514Y224D02*
X592Y224D01*
X614Y224D02*
X692Y224D01*
X714Y224D02*
X792Y224D01*
X814Y224D02*
X892Y224D01*
X914Y224D02*
X992Y224D01*
X1014Y224D02*
X1092Y224D01*
X1114Y224D02*
X1192Y224D01*
X1214Y224D02*
X1292Y224D01*
X1314Y224D02*
X1392Y224D01*
X115Y223D02*
X192Y223D01*
X215Y223D02*
X292Y223D01*
X315Y223D02*
X392Y223D01*
X415Y223D02*
X492Y223D01*
X515Y223D02*
X592Y223D01*
X615Y223D02*
X691Y223D01*
X715Y223D02*
X791Y223D01*
X815Y223D02*
X891Y223D01*
X915Y223D02*
X991Y223D01*
X1015Y223D02*
X1091Y223D01*
X1115Y223D02*
X1191Y223D01*
X1215Y223D02*
X1291Y223D01*
X1315Y223D02*
X1391Y223D01*
X115Y222D02*
X191Y222D01*
X215Y222D02*
X291Y222D01*
X315Y222D02*
X391Y222D01*
X415Y222D02*
X491Y222D01*
X515Y222D02*
X591Y222D01*
X615Y222D02*
X691Y222D01*
X715Y222D02*
X791Y222D01*
X815Y222D02*
X891Y222D01*
X915Y222D02*
X991Y222D01*
X1015Y222D02*
X1091Y222D01*
X1115Y222D02*
X1191Y222D01*
X1215Y222D02*
X1291Y222D01*
X1315Y222D02*
X1391Y222D01*
X115Y221D02*
X191Y221D01*
X215Y221D02*
X291Y221D01*
X315Y221D02*
X391Y221D01*
X415Y221D02*
X491Y221D01*
X515Y221D02*
X591Y221D01*
X615Y221D02*
X691Y221D01*
X715Y221D02*
X791Y221D01*
X815Y221D02*
X891Y221D01*
X915Y221D02*
X991Y221D01*
X1015Y221D02*
X1091Y221D01*
X1115Y221D02*
X1191Y221D01*
X1215Y221D02*
X1291Y221D01*
X1315Y221D02*
X1391Y221D01*
X116Y220D02*
X191Y220D01*
X216Y220D02*
X291Y220D01*
X316Y220D02*
X391Y220D01*
X416Y220D02*
X491Y220D01*
X516Y220D02*
X591Y220D01*
X616Y220D02*
X691Y220D01*
X716Y220D02*
X791Y220D01*
X816Y220D02*
X891Y220D01*
X916Y220D02*
X991Y220D01*
X1016Y220D02*
X1091Y220D01*
X1116Y220D02*
X1191Y220D01*
X1216Y220D02*
X1291Y220D01*
X1316Y220D02*
X1391Y220D01*
X116Y219D02*
X190Y219D01*
X216Y219D02*
X290Y219D01*
X316Y219D02*
X390Y219D01*
X416Y219D02*
X490Y219D01*
X516Y219D02*
X590Y219D01*
X616Y219D02*
X690Y219D01*
X716Y219D02*
X790Y219D01*
X816Y219D02*
X890Y219D01*
X916Y219D02*
X990Y219D01*
X1016Y219D02*
X1090Y219D01*
X1116Y219D02*
X1190Y219D01*
X1216Y219D02*
X1290Y219D01*
X1316Y219D02*
X1390Y219D01*
X116Y218D02*
X190Y218D01*
X216Y218D02*
X290Y218D01*
X316Y218D02*
X390Y218D01*
X416Y218D02*
X490Y218D01*
X516Y218D02*
X590Y218D01*
X616Y218D02*
X690Y218D01*
X716Y218D02*
X790Y218D01*
X816Y218D02*
X890Y218D01*
X916Y218D02*
X990Y218D01*
X1016Y218D02*
X1090Y218D01*
X1116Y218D02*
X1190Y218D01*
X1216Y218D02*
X1290Y218D01*
X1316Y218D02*
X1390Y218D01*
X117Y217D02*
X189Y217D01*
X217Y217D02*
X289Y217D01*
X317Y217D02*
X389Y217D01*
X417Y217D02*
X489Y217D01*
X517Y217D02*
X589Y217D01*
X617Y217D02*
X689Y217D01*
X717Y217D02*
X789Y217D01*
X817Y217D02*
X889Y217D01*
X917Y217D02*
X989Y217D01*
X1017Y217D02*
X1089Y217D01*
X1117Y217D02*
X1189Y217D01*
X1217Y217D02*
X1289Y217D01*
X1317Y217D02*
X1389Y217D01*
X117Y216D02*
X189Y216D01*
X217Y216D02*
X289Y216D01*
X317Y216D02*
X389Y216D01*
X417Y216D02*
X489Y216D01*
X517Y216D02*
X589Y216D01*
X617Y216D02*
X689Y216D01*
X717Y216D02*
X789Y216D01*
X817Y216D02*
X889Y216D01*
X917Y216D02*
X989Y216D01*
X1017Y216D02*
X1089Y216D01*
X1117Y216D02*
X1189Y216D01*
X1217Y216D02*
X1289Y216D01*
X1317Y216D02*
X1389Y216D01*
X118Y215D02*
X188Y215D01*
X218Y215D02*
X288Y215D01*
X318Y215D02*
X388Y215D01*
X418Y215D02*
X488Y215D01*
X518Y215D02*
X588Y215D01*
X618Y215D02*
X688Y215D01*
X718Y215D02*
X788Y215D01*
X818Y215D02*
X888Y215D01*
X918Y215D02*
X988Y215D01*
X1018Y215D02*
X1088Y215D01*
X1118Y215D02*
X1188Y215D01*
X1218Y215D02*
X1288Y215D01*
X1318Y215D02*
X1388Y215D01*
X118Y214D02*
X188Y214D01*
X218Y214D02*
X288Y214D01*
X318Y214D02*
X388Y214D01*
X418Y214D02*
X488Y214D01*
X518Y214D02*
X588Y214D01*
X618Y214D02*
X688Y214D01*
X718Y214D02*
X788Y214D01*
X818Y214D02*
X888Y214D01*
X918Y214D02*
X988Y214D01*
X1018Y214D02*
X1088Y214D01*
X1118Y214D02*
X1188Y214D01*
X1218Y214D02*
X1288Y214D01*
X1318Y214D02*
X1388Y214D01*
X119Y213D02*
X187Y213D01*
X219Y213D02*
X287Y213D01*
X319Y213D02*
X387Y213D01*
X419Y213D02*
X487Y213D01*
X519Y213D02*
X587Y213D01*
X619Y213D02*
X687Y213D01*
X719Y213D02*
X787Y213D01*
X819Y213D02*
X887Y213D01*
X919Y213D02*
X987Y213D01*
X1019Y213D02*
X1087Y213D01*
X1119Y213D02*
X1187Y213D01*
X1219Y213D02*
X1287Y213D01*
X1319Y213D02*
X1387Y213D01*
X119Y212D02*
X187Y212D01*
X219Y212D02*
X287Y212D01*
X319Y212D02*
X387Y212D01*
X419Y212D02*
X487Y212D01*
X519Y212D02*
X587Y212D01*
X619Y212D02*
X687Y212D01*
X719Y212D02*
X787Y212D01*
X819Y212D02*
X887Y212D01*
X919Y212D02*
X987Y212D01*
X1019Y212D02*
X1087Y212D01*
X1119Y212D02*
X1187Y212D01*
X1219Y212D02*
X1287Y212D01*
X1319Y212D02*
X1387Y212D01*
X120Y211D02*
X186Y211D01*
X220Y211D02*
X286Y211D01*
X320Y211D02*
X386Y211D01*
X420Y211D02*
X486Y211D01*
X520Y211D02*
X586Y211D01*
X620Y211D02*
X686Y211D01*
X720Y211D02*
X786Y211D01*
X820Y211D02*
X886Y211D01*
X920Y211D02*
X986Y211D01*
X1020Y211D02*
X1086Y211D01*
X1120Y211D02*
X1186Y211D01*
X1220Y211D02*
X1286Y211D01*
X1320Y211D02*
X1386Y211D01*
X121Y210D02*
X185Y210D01*
X221Y210D02*
X285Y210D01*
X321Y210D02*
X385Y210D01*
X421Y210D02*
X485Y210D01*
X521Y210D02*
X585Y210D01*
X621Y210D02*
X685Y210D01*
X721Y210D02*
X785Y210D01*
X821Y210D02*
X885Y210D01*
X921Y210D02*
X985Y210D01*
X1021Y210D02*
X1085Y210D01*
X1121Y210D02*
X1185Y210D01*
X1221Y210D02*
X1285Y210D01*
X1321Y210D02*
X1385Y210D01*
X122Y209D02*
X185Y209D01*
X222Y209D02*
X285Y209D01*
X322Y209D02*
X385Y209D01*
X422Y209D02*
X485Y209D01*
X522Y209D02*
X585Y209D01*
X621Y209D02*
X685Y209D01*
X721Y209D02*
X785Y209D01*
X821Y209D02*
X885Y209D01*
X921Y209D02*
X985Y209D01*
X1021Y209D02*
X1085Y209D01*
X1121Y209D02*
X1185Y209D01*
X1221Y209D02*
X1285Y209D01*
X1321Y209D02*
X1385Y209D01*
X122Y208D02*
X184Y208D01*
X222Y208D02*
X284Y208D01*
X322Y208D02*
X384Y208D01*
X422Y208D02*
X484Y208D01*
X522Y208D02*
X584Y208D01*
X622Y208D02*
X684Y208D01*
X722Y208D02*
X784Y208D01*
X822Y208D02*
X884Y208D01*
X922Y208D02*
X984Y208D01*
X1022Y208D02*
X1084Y208D01*
X1122Y208D02*
X1184Y208D01*
X1222Y208D02*
X1284Y208D01*
X1322Y208D02*
X1384Y208D01*
X123Y207D02*
X183Y207D01*
X223Y207D02*
X283Y207D01*
X323Y207D02*
X383Y207D01*
X423Y207D02*
X483Y207D01*
X523Y207D02*
X583Y207D01*
X623Y207D02*
X683Y207D01*
X723Y207D02*
X783Y207D01*
X823Y207D02*
X883Y207D01*
X923Y207D02*
X983Y207D01*
X1023Y207D02*
X1083Y207D01*
X1123Y207D02*
X1183Y207D01*
X1223Y207D02*
X1283Y207D01*
X1323Y207D02*
X1383Y207D01*
X124Y206D02*
X182Y206D01*
X224Y206D02*
X282Y206D01*
X324Y206D02*
X382Y206D01*
X424Y206D02*
X482Y206D01*
X524Y206D02*
X582Y206D01*
X624Y206D02*
X682Y206D01*
X724Y206D02*
X782Y206D01*
X824Y206D02*
X882Y206D01*
X924Y206D02*
X982Y206D01*
X1024Y206D02*
X1082Y206D01*
X1124Y206D02*
X1182Y206D01*
X1224Y206D02*
X1282Y206D01*
X1324Y206D02*
X1382Y206D01*
X125Y205D02*
X181Y205D01*
X225Y205D02*
X281Y205D01*
X325Y205D02*
X381Y205D01*
X425Y205D02*
X481Y205D01*
X525Y205D02*
X581Y205D01*
X625Y205D02*
X681Y205D01*
X725Y205D02*
X781Y205D01*
X825Y205D02*
X881Y205D01*
X925Y205D02*
X981Y205D01*
X1025Y205D02*
X1081Y205D01*
X1125Y205D02*
X1181Y205D01*
X1225Y205D02*
X1281Y205D01*
X1325Y205D02*
X1381Y205D01*
X126Y204D02*
X180Y204D01*
X226Y204D02*
X280Y204D01*
X326Y204D02*
X380Y204D01*
X426Y204D02*
X480Y204D01*
X526Y204D02*
X580Y204D01*
X626Y204D02*
X680Y204D01*
X726Y204D02*
X780Y204D01*
X826Y204D02*
X880Y204D01*
X926Y204D02*
X980Y204D01*
X1026Y204D02*
X1080Y204D01*
X1126Y204D02*
X1180Y204D01*
X1226Y204D02*
X1280Y204D01*
X1326Y204D02*
X1380Y204D01*
X127Y203D02*
X179Y203D01*
X227Y203D02*
X279Y203D01*
X327Y203D02*
X379Y203D01*
X427Y203D02*
X479Y203D01*
X527Y203D02*
X579Y203D01*
X627Y203D02*
X679Y203D01*
X727Y203D02*
X779Y203D01*
X827Y203D02*
X879Y203D01*
X927Y203D02*
X979Y203D01*
X1027Y203D02*
X1079Y203D01*
X1127Y203D02*
X1179Y203D01*
X1227Y203D02*
X1279Y203D01*
X1327Y203D02*
X1379Y203D01*
X128Y202D02*
X178Y202D01*
X228Y202D02*
X278Y202D01*
X328Y202D02*
X378Y202D01*
X428Y202D02*
X478Y202D01*
X528Y202D02*
X578Y202D01*
X628Y202D02*
X678Y202D01*
X728Y202D02*
X778Y202D01*
X828Y202D02*
X878Y202D01*
X928Y202D02*
X978Y202D01*
X1028Y202D02*
X1078Y202D01*
X1128Y202D02*
X1178Y202D01*
X1228Y202D02*
X1278Y202D01*
X1328Y202D02*
X1378Y202D01*
X129Y201D02*
X177Y201D01*
X229Y201D02*
X277Y201D01*
X329Y201D02*
X377Y201D01*
X429Y201D02*
X477Y201D01*
X529Y201D02*
X577Y201D01*
X629Y201D02*
X677Y201D01*
X729Y201D02*
X777Y201D01*
X829Y201D02*
X877Y201D01*
X929Y201D02*
X977Y201D01*
X1029Y201D02*
X1077Y201D01*
X1129Y201D02*
X1177Y201D01*
X1229Y201D02*
X1277Y201D01*
X1329Y201D02*
X1377Y201D01*
X130Y200D02*
X176Y200D01*
X230Y200D02*
X276Y200D01*
X330Y200D02*
X376Y200D01*
X430Y200D02*
X476Y200D01*
X530Y200D02*
X576Y200D01*
X630Y200D02*
X676Y200D01*
X730Y200D02*
X776Y200D01*
X830Y200D02*
X876Y200D01*
X930Y200D02*
X976Y200D01*
X1030Y200D02*
X1076Y200D01*
X1130Y200D02*
X1176Y200D01*
X1230Y200D02*
X1276Y200D01*
X1330Y200D02*
X1376Y200D01*
X132Y199D02*
X175Y199D01*
X232Y199D02*
X275Y199D01*
X332Y199D02*
X375Y199D01*
X432Y199D02*
X475Y199D01*
X532Y199D02*
X575Y199D01*
X632Y199D02*
X675Y199D01*
X732Y199D02*
X775Y199D01*
X832Y199D02*
X875Y199D01*
X932Y199D02*
X975Y199D01*
X1032Y199D02*
X1075Y199D01*
X1132Y199D02*
X1175Y199D01*
X1232Y199D02*
X1275Y199D01*
X1331Y199D02*
X1375Y199D01*
X133Y198D02*
X173Y198D01*
X233Y198D02*
X273Y198D01*
X333Y198D02*
X373Y198D01*
X433Y198D02*
X473Y198D01*
X533Y198D02*
X573Y198D01*
X633Y198D02*
X673Y198D01*
X733Y198D02*
X773Y198D01*
X833Y198D02*
X873Y198D01*
X933Y198D02*
X973Y198D01*
X1033Y198D02*
X1073Y198D01*
X1133Y198D02*
X1173Y198D01*
X1233Y198D02*
X1273Y198D01*
X1333Y198D02*
X1373Y198D01*
X135Y197D02*
X172Y197D01*
X235Y197D02*
X272Y197D01*
X335Y197D02*
X372Y197D01*
X435Y197D02*
X472Y197D01*
X535Y197D02*
X572Y197D01*
X635Y197D02*
X672Y197D01*
X735Y197D02*
X772Y197D01*
X835Y197D02*
X872Y197D01*
X934Y197D02*
X972Y197D01*
X1034Y197D02*
X1072Y197D01*
X1134Y197D02*
X1172Y197D01*
X1234Y197D02*
X1272Y197D01*
X1334Y197D02*
X1372Y197D01*
X136Y196D02*
X170Y196D01*
X236Y196D02*
X270Y196D01*
X336Y196D02*
X370Y196D01*
X436Y196D02*
X470Y196D01*
X536Y196D02*
X570Y196D01*
X636Y196D02*
X670Y196D01*
X736Y196D02*
X770Y196D01*
X836Y196D02*
X870Y196D01*
X936Y196D02*
X970Y196D01*
X1036Y196D02*
X1070Y196D01*
X1136Y196D02*
X1170Y196D01*
X1236Y196D02*
X1270Y196D01*
X1336Y196D02*
X1370Y196D01*
X138Y195D02*
X168Y195D01*
X238Y195D02*
X268Y195D01*
X338Y195D02*
X368Y195D01*
X438Y195D02*
X468Y195D01*
X538Y195D02*
X568Y195D01*
X638Y195D02*
X668Y195D01*
X738Y195D02*
X768Y195D01*
X838Y195D02*
X868Y195D01*
X938Y195D02*
X968Y195D01*
X1038Y195D02*
X1068Y195D01*
X1138Y195D02*
X1168Y195D01*
X1238Y195D02*
X1268Y195D01*
X1338Y195D02*
X1368Y195D01*
X140Y194D02*
X166Y194D01*
X240Y194D02*
X266Y194D01*
X340Y194D02*
X366Y194D01*
X440Y194D02*
X466Y194D01*
X540Y194D02*
X566Y194D01*
X640Y194D02*
X666Y194D01*
X740Y194D02*
X766Y194D01*
X840Y194D02*
X866Y194D01*
X940Y194D02*
X966Y194D01*
X1040Y194D02*
X1066Y194D01*
X1140Y194D02*
X1166Y194D01*
X1240Y194D02*
X1266Y194D01*
X1340Y194D02*
X1366Y194D01*
X143Y193D02*
X163Y193D01*
X243Y193D02*
X263Y193D01*
X343Y193D02*
X363Y193D01*
X443Y193D02*
X463Y193D01*
X543Y193D02*
X563Y193D01*
X643Y193D02*
X663Y193D01*
X743Y193D02*
X763Y193D01*
X843Y193D02*
X863Y193D01*
X943Y193D02*
X963Y193D01*
X1043Y193D02*
X1063Y193D01*
X1143Y193D02*
X1163Y193D01*
X1243Y193D02*
X1263Y193D01*
X1343Y193D02*
X1363Y193D01*
X147Y192D02*
X160Y192D01*
X247Y192D02*
X260Y192D01*
X347Y192D02*
X360Y192D01*
X447Y192D02*
X460Y192D01*
X547Y192D02*
X560Y192D01*
X647Y192D02*
X660Y192D01*
X747Y192D02*
X760Y192D01*
X847Y192D02*
X860Y192D01*
X947Y192D02*
X960Y192D01*
X1047Y192D02*
X1060Y192D01*
X1147Y192D02*
X1160Y192D01*
X1247Y192D02*
X1260Y192D01*
X1346Y192D02*
X1360Y192D01*
D02*
G04 End of Mask1*
M02*