M48
INCH
T10C0.015748
T11C0.038000
T12C0.041000
T13C0.035000
T14C0.030000
%
T10
X004337Y011095
X006821Y004985
X004348Y007384
T11
X008486Y005030
X009486Y005030
X010486Y005030
X006077Y000660
X009896Y000660
X012258Y000660
X004817Y000660
X010998Y000660
X013478Y000660
X013557Y009045
X002376Y000660
X003597Y000660
X005171Y004675
X004030Y004675
X007337Y000660
X001156Y000660
X008597Y000660
T12
X012628Y007227
X011628Y005227
X013628Y005227
T13
X000526Y007904
X003085Y007904
X000526Y009675
X003085Y009675
X007416Y011565
X009975Y011565
X007416Y013337
X009975Y013337
X000526Y011565
X003085Y011565
X000526Y013337
X003085Y013337
X007416Y007904
X009975Y007904
X007416Y009675
X009975Y009675
T14
X012470Y003297
X013470Y003297
X012470Y002297
X013470Y002297
X003470Y002297
X001470Y002297
X002470Y002297
X007470Y002297
X008470Y002297
X004470Y002297
X005470Y002297
X006470Y002297
X009470Y002297
X010470Y002297
X011470Y002297
X003470Y003297
X001470Y003297
X002470Y003297
X007470Y003297
X008470Y003297
X004470Y003297
X005470Y003297
X006470Y003297
X009470Y003297
X010470Y003297
X011470Y003297
T00
M30
