G04 MADE WITH FRITZING*
G04 WWW.FRITZING.ORG*
G04 DOUBLE SIDED*
G04 HOLES PLATED*
G04 CONTOUR ON CENTER OF CONTOUR VECTOR*
%ASAXBY*%
%FSLAX23Y23*%
%MOIN*%
%OFA0B0*%
%SFA1.0B1.0*%
%ADD10C,0.075000*%
%ADD11C,0.039370*%
%ADD12C,0.099000*%
%ADD13C,0.070000*%
%ADD14C,0.078000*%
%ADD15R,0.075000X0.075000*%
%ADD16R,0.062992X0.074803*%
%ADD17R,0.074803X0.062992*%
%ADD18R,0.099000X0.099000*%
%ADD19R,0.070000X0.070000*%
%ADD20C,0.012000*%
%ADD21C,0.024000*%
%ADD22R,0.001000X0.001000*%
%LNCOPPER0*%
G90*
G70*
G54D10*
X100Y1631D03*
X200Y1631D03*
X300Y1631D03*
X400Y1631D03*
X500Y1631D03*
X600Y1631D03*
X700Y1631D03*
X800Y1631D03*
X900Y1631D03*
X1000Y1631D03*
X1100Y1631D03*
X1200Y1631D03*
X1300Y1631D03*
X1400Y1631D03*
X1500Y1631D03*
X1600Y1631D03*
G54D11*
X1675Y604D03*
X1399Y1407D03*
X1506Y1407D03*
X1844Y1053D03*
X1025Y698D03*
X738Y1238D03*
X1199Y1406D03*
X1246Y545D03*
G54D10*
X1380Y234D03*
X1636Y234D03*
X1380Y57D03*
X1636Y57D03*
X198Y233D03*
X453Y233D03*
X198Y56D03*
X453Y56D03*
G54D12*
X289Y1778D03*
X289Y1978D03*
X489Y1878D03*
G54D10*
X592Y234D03*
X848Y234D03*
X592Y57D03*
X848Y57D03*
X986Y234D03*
X1242Y234D03*
X986Y57D03*
X1242Y57D03*
G54D13*
X1277Y1053D03*
X1177Y1053D03*
X1077Y1053D03*
X777Y1053D03*
X677Y1053D03*
X577Y1053D03*
X977Y1053D03*
X877Y1053D03*
X377Y1053D03*
X277Y1053D03*
X477Y1053D03*
X1277Y953D03*
X1177Y953D03*
X1077Y953D03*
X777Y953D03*
X677Y953D03*
X577Y953D03*
X977Y953D03*
X877Y953D03*
X377Y953D03*
X277Y953D03*
X477Y953D03*
X1477Y953D03*
X1377Y953D03*
X1477Y1053D03*
X1377Y1053D03*
G54D10*
X2155Y1797D03*
X1899Y1797D03*
X2155Y1974D03*
X1899Y1974D03*
G54D14*
X1616Y1450D03*
X1716Y1450D03*
X1616Y1450D03*
X1716Y1450D03*
G54D11*
X1233Y678D03*
X1395Y676D03*
G54D10*
X2073Y95D03*
X2073Y195D03*
X2073Y295D03*
G54D14*
X2132Y1486D03*
X2132Y1386D03*
X2132Y1286D03*
X2132Y1186D03*
G54D15*
X100Y1632D03*
G54D16*
X376Y348D03*
X254Y348D03*
G54D17*
X321Y206D03*
X321Y84D03*
G54D16*
X655Y352D03*
X777Y352D03*
G54D17*
X718Y84D03*
X718Y206D03*
X1116Y84D03*
X1116Y206D03*
G54D16*
X1049Y352D03*
X1171Y352D03*
G54D17*
X1506Y84D03*
X1506Y206D03*
G54D16*
X1557Y352D03*
X1435Y352D03*
G54D18*
X289Y1978D03*
G54D19*
X1477Y1053D03*
G54D20*
X777Y384D02*
X777Y765D01*
D02*
X927Y897D02*
X928Y1014D01*
D02*
X777Y765D02*
X927Y897D01*
D02*
X928Y1014D02*
X961Y1040D01*
G54D21*
D02*
X1501Y1603D02*
X1505Y1426D01*
D02*
X1517Y601D02*
X1656Y603D01*
D02*
X1441Y544D02*
X1517Y601D01*
D02*
X1265Y545D02*
X1441Y544D01*
G54D20*
D02*
X1284Y738D02*
X1226Y828D01*
D02*
X1755Y739D02*
X1284Y738D01*
D02*
X1226Y828D02*
X1226Y1006D01*
D02*
X1226Y1006D02*
X1192Y1038D01*
G54D21*
D02*
X982Y898D02*
X979Y927D01*
D02*
X1235Y560D02*
X982Y898D01*
G54D20*
D02*
X2052Y205D02*
X1995Y234D01*
G54D21*
D02*
X1506Y232D02*
X1506Y234D01*
D02*
X1578Y320D02*
X1620Y258D01*
D02*
X1116Y232D02*
X1116Y234D01*
D02*
X1023Y352D02*
X986Y352D01*
D02*
X621Y234D02*
X718Y234D01*
D02*
X629Y352D02*
X592Y352D01*
D02*
X402Y348D02*
X453Y348D01*
G54D20*
D02*
X386Y1613D02*
X326Y1538D01*
D02*
X326Y1538D02*
X326Y1001D01*
D02*
X811Y286D02*
X994Y450D01*
D02*
X730Y464D02*
X712Y429D01*
D02*
X712Y429D02*
X714Y285D01*
D02*
X727Y1017D02*
X730Y464D01*
D02*
X714Y285D02*
X811Y286D01*
D02*
X994Y450D02*
X1116Y450D01*
D02*
X1116Y450D02*
X1153Y384D01*
G54D21*
D02*
X772Y1631D02*
X729Y1631D01*
D02*
X872Y1631D02*
X829Y1631D01*
D02*
X972Y1631D02*
X929Y1631D01*
D02*
X1351Y57D02*
X1271Y57D01*
D02*
X877Y57D02*
X957Y57D01*
G54D20*
D02*
X427Y1426D02*
X585Y1614D01*
D02*
X463Y967D02*
X427Y1003D01*
G54D21*
D02*
X1399Y1426D02*
X1400Y1603D01*
D02*
X1199Y1425D02*
X1200Y1603D01*
G54D20*
D02*
X1329Y1002D02*
X1328Y1119D01*
D02*
X2032Y1482D02*
X2107Y1485D01*
D02*
X1328Y1119D02*
X1429Y1219D01*
D02*
X1292Y967D02*
X1329Y1002D01*
G54D21*
D02*
X1503Y1053D02*
X1825Y1053D01*
D02*
X739Y1552D02*
X783Y1609D01*
D02*
X738Y1257D02*
X739Y1552D01*
D02*
X631Y1159D02*
X589Y1076D01*
D02*
X1100Y1603D02*
X1100Y1403D01*
D02*
X864Y1162D02*
X631Y1159D01*
D02*
X376Y1875D02*
X487Y1657D01*
D02*
X236Y1876D02*
X376Y1875D01*
D02*
X114Y1656D02*
X236Y1876D01*
D02*
X647Y1715D02*
X550Y1715D01*
D02*
X550Y1715D02*
X515Y1656D01*
D02*
X685Y1655D02*
X647Y1715D01*
D02*
X1951Y155D02*
X1627Y154D01*
D02*
X1627Y154D02*
X1538Y102D01*
D02*
X2047Y107D02*
X1951Y155D01*
D02*
X321Y232D02*
X321Y233D01*
D02*
X254Y533D02*
X659Y934D01*
D02*
X254Y380D02*
X254Y533D01*
D02*
X686Y101D02*
X602Y146D01*
D02*
X602Y146D02*
X443Y143D01*
D02*
X443Y143D02*
X353Y99D01*
D02*
X996Y146D02*
X840Y144D01*
D02*
X840Y144D02*
X750Y100D01*
D02*
X1084Y100D02*
X996Y146D01*
D02*
X1390Y146D02*
X1232Y144D01*
D02*
X1474Y101D02*
X1390Y146D01*
D02*
X1232Y144D02*
X1148Y101D01*
D02*
X1037Y683D02*
X1183Y498D01*
D02*
X1183Y498D02*
X1409Y367D01*
D02*
X1252Y678D02*
X1376Y676D01*
D02*
X1662Y45D02*
X1701Y29D01*
D02*
X482Y56D02*
X564Y56D01*
G54D20*
D02*
X761Y1041D02*
X727Y1017D01*
G54D21*
D02*
X2147Y251D02*
X2098Y280D01*
D02*
X2149Y29D02*
X2147Y251D01*
G54D20*
D02*
X1995Y234D02*
X1995Y456D01*
D02*
X1995Y456D02*
X1755Y739D01*
G54D21*
D02*
X1701Y29D02*
X2149Y29D01*
D02*
X1506Y234D02*
X1607Y234D01*
D02*
X1116Y234D02*
X1015Y234D01*
D02*
X986Y352D02*
X986Y262D01*
D02*
X718Y234D02*
X718Y232D01*
D02*
X592Y352D02*
X592Y262D01*
D02*
X453Y348D02*
X453Y262D01*
D02*
X321Y233D02*
X226Y233D01*
G54D20*
D02*
X326Y1001D02*
X362Y967D01*
D02*
X427Y1003D02*
X427Y1426D01*
D02*
X1758Y1221D02*
X2032Y1482D01*
D02*
X1429Y1219D02*
X1758Y1221D01*
G54D21*
D02*
X2111Y1164D02*
X1797Y827D01*
D02*
X1601Y824D02*
X1495Y934D01*
D02*
X1797Y827D02*
X1601Y824D01*
D02*
X1100Y1403D02*
X864Y1162D01*
G54D22*
X272Y1088D02*
X282Y1088D01*
X372Y1088D02*
X382Y1088D01*
X472Y1088D02*
X482Y1088D01*
X572Y1088D02*
X582Y1088D01*
X672Y1088D02*
X682Y1088D01*
X772Y1088D02*
X782Y1088D01*
X872Y1088D02*
X882Y1088D01*
X972Y1088D02*
X982Y1088D01*
X1072Y1088D02*
X1082Y1088D01*
X1171Y1088D02*
X1182Y1088D01*
X1271Y1088D02*
X1282Y1088D01*
X1371Y1088D02*
X1382Y1088D01*
X1471Y1088D02*
X1482Y1088D01*
X268Y1087D02*
X286Y1087D01*
X368Y1087D02*
X386Y1087D01*
X468Y1087D02*
X486Y1087D01*
X568Y1087D02*
X586Y1087D01*
X668Y1087D02*
X686Y1087D01*
X768Y1087D02*
X786Y1087D01*
X868Y1087D02*
X886Y1087D01*
X968Y1087D02*
X986Y1087D01*
X1068Y1087D02*
X1086Y1087D01*
X1168Y1087D02*
X1186Y1087D01*
X1268Y1087D02*
X1286Y1087D01*
X1368Y1087D02*
X1386Y1087D01*
X1468Y1087D02*
X1486Y1087D01*
X265Y1086D02*
X288Y1086D01*
X365Y1086D02*
X388Y1086D01*
X465Y1086D02*
X488Y1086D01*
X565Y1086D02*
X588Y1086D01*
X665Y1086D02*
X688Y1086D01*
X765Y1086D02*
X788Y1086D01*
X865Y1086D02*
X888Y1086D01*
X965Y1086D02*
X988Y1086D01*
X1065Y1086D02*
X1088Y1086D01*
X1165Y1086D02*
X1188Y1086D01*
X1265Y1086D02*
X1288Y1086D01*
X1365Y1086D02*
X1388Y1086D01*
X1465Y1086D02*
X1488Y1086D01*
X263Y1085D02*
X291Y1085D01*
X363Y1085D02*
X391Y1085D01*
X463Y1085D02*
X491Y1085D01*
X563Y1085D02*
X591Y1085D01*
X663Y1085D02*
X690Y1085D01*
X763Y1085D02*
X790Y1085D01*
X863Y1085D02*
X890Y1085D01*
X963Y1085D02*
X990Y1085D01*
X1063Y1085D02*
X1090Y1085D01*
X1163Y1085D02*
X1190Y1085D01*
X1263Y1085D02*
X1290Y1085D01*
X1363Y1085D02*
X1390Y1085D01*
X1463Y1085D02*
X1490Y1085D01*
X261Y1084D02*
X292Y1084D01*
X361Y1084D02*
X392Y1084D01*
X461Y1084D02*
X492Y1084D01*
X561Y1084D02*
X592Y1084D01*
X661Y1084D02*
X692Y1084D01*
X761Y1084D02*
X792Y1084D01*
X861Y1084D02*
X892Y1084D01*
X961Y1084D02*
X992Y1084D01*
X1061Y1084D02*
X1092Y1084D01*
X1161Y1084D02*
X1192Y1084D01*
X1261Y1084D02*
X1292Y1084D01*
X1361Y1084D02*
X1392Y1084D01*
X1461Y1084D02*
X1492Y1084D01*
X260Y1083D02*
X294Y1083D01*
X359Y1083D02*
X394Y1083D01*
X459Y1083D02*
X494Y1083D01*
X559Y1083D02*
X594Y1083D01*
X659Y1083D02*
X694Y1083D01*
X759Y1083D02*
X794Y1083D01*
X859Y1083D02*
X894Y1083D01*
X959Y1083D02*
X994Y1083D01*
X1059Y1083D02*
X1094Y1083D01*
X1159Y1083D02*
X1194Y1083D01*
X1259Y1083D02*
X1294Y1083D01*
X1359Y1083D02*
X1394Y1083D01*
X1459Y1083D02*
X1494Y1083D01*
X258Y1082D02*
X296Y1082D01*
X358Y1082D02*
X396Y1082D01*
X458Y1082D02*
X496Y1082D01*
X558Y1082D02*
X596Y1082D01*
X658Y1082D02*
X696Y1082D01*
X758Y1082D02*
X795Y1082D01*
X858Y1082D02*
X895Y1082D01*
X958Y1082D02*
X995Y1082D01*
X1058Y1082D02*
X1095Y1082D01*
X1158Y1082D02*
X1195Y1082D01*
X1258Y1082D02*
X1295Y1082D01*
X1358Y1082D02*
X1395Y1082D01*
X1458Y1082D02*
X1495Y1082D01*
X257Y1081D02*
X297Y1081D01*
X357Y1081D02*
X397Y1081D01*
X457Y1081D02*
X497Y1081D01*
X557Y1081D02*
X597Y1081D01*
X657Y1081D02*
X697Y1081D01*
X757Y1081D02*
X797Y1081D01*
X857Y1081D02*
X897Y1081D01*
X957Y1081D02*
X997Y1081D01*
X1057Y1081D02*
X1097Y1081D01*
X1157Y1081D02*
X1197Y1081D01*
X1256Y1081D02*
X1297Y1081D01*
X1356Y1081D02*
X1397Y1081D01*
X1456Y1081D02*
X1497Y1081D01*
X255Y1080D02*
X298Y1080D01*
X355Y1080D02*
X398Y1080D01*
X455Y1080D02*
X498Y1080D01*
X555Y1080D02*
X598Y1080D01*
X655Y1080D02*
X698Y1080D01*
X755Y1080D02*
X798Y1080D01*
X855Y1080D02*
X898Y1080D01*
X955Y1080D02*
X998Y1080D01*
X1055Y1080D02*
X1098Y1080D01*
X1155Y1080D02*
X1198Y1080D01*
X1255Y1080D02*
X1298Y1080D01*
X1355Y1080D02*
X1398Y1080D01*
X1455Y1080D02*
X1498Y1080D01*
X254Y1079D02*
X299Y1079D01*
X354Y1079D02*
X399Y1079D01*
X454Y1079D02*
X499Y1079D01*
X554Y1079D02*
X599Y1079D01*
X654Y1079D02*
X699Y1079D01*
X754Y1079D02*
X799Y1079D01*
X854Y1079D02*
X899Y1079D01*
X954Y1079D02*
X999Y1079D01*
X1054Y1079D02*
X1099Y1079D01*
X1154Y1079D02*
X1199Y1079D01*
X1254Y1079D02*
X1299Y1079D01*
X1354Y1079D02*
X1399Y1079D01*
X1454Y1079D02*
X1499Y1079D01*
X253Y1078D02*
X300Y1078D01*
X353Y1078D02*
X400Y1078D01*
X453Y1078D02*
X500Y1078D01*
X553Y1078D02*
X600Y1078D01*
X653Y1078D02*
X700Y1078D01*
X753Y1078D02*
X800Y1078D01*
X853Y1078D02*
X900Y1078D01*
X953Y1078D02*
X1000Y1078D01*
X1053Y1078D02*
X1100Y1078D01*
X1153Y1078D02*
X1200Y1078D01*
X1253Y1078D02*
X1300Y1078D01*
X1353Y1078D02*
X1400Y1078D01*
X1453Y1078D02*
X1500Y1078D01*
X252Y1077D02*
X301Y1077D01*
X352Y1077D02*
X401Y1077D01*
X452Y1077D02*
X501Y1077D01*
X552Y1077D02*
X601Y1077D01*
X652Y1077D02*
X701Y1077D01*
X752Y1077D02*
X801Y1077D01*
X852Y1077D02*
X901Y1077D01*
X952Y1077D02*
X1001Y1077D01*
X1052Y1077D02*
X1101Y1077D01*
X1152Y1077D02*
X1201Y1077D01*
X1252Y1077D02*
X1301Y1077D01*
X1352Y1077D02*
X1401Y1077D01*
X1452Y1077D02*
X1501Y1077D01*
X251Y1076D02*
X302Y1076D01*
X351Y1076D02*
X402Y1076D01*
X451Y1076D02*
X502Y1076D01*
X551Y1076D02*
X602Y1076D01*
X651Y1076D02*
X702Y1076D01*
X751Y1076D02*
X802Y1076D01*
X851Y1076D02*
X902Y1076D01*
X951Y1076D02*
X1002Y1076D01*
X1051Y1076D02*
X1102Y1076D01*
X1151Y1076D02*
X1202Y1076D01*
X1251Y1076D02*
X1302Y1076D01*
X1351Y1076D02*
X1402Y1076D01*
X1451Y1076D02*
X1502Y1076D01*
X251Y1075D02*
X303Y1075D01*
X351Y1075D02*
X403Y1075D01*
X450Y1075D02*
X503Y1075D01*
X550Y1075D02*
X603Y1075D01*
X650Y1075D02*
X703Y1075D01*
X750Y1075D02*
X803Y1075D01*
X850Y1075D02*
X903Y1075D01*
X950Y1075D02*
X1003Y1075D01*
X1050Y1075D02*
X1103Y1075D01*
X1150Y1075D02*
X1203Y1075D01*
X1250Y1075D02*
X1303Y1075D01*
X1350Y1075D02*
X1403Y1075D01*
X1450Y1075D02*
X1503Y1075D01*
X250Y1074D02*
X304Y1074D01*
X350Y1074D02*
X404Y1074D01*
X450Y1074D02*
X504Y1074D01*
X550Y1074D02*
X604Y1074D01*
X650Y1074D02*
X704Y1074D01*
X750Y1074D02*
X804Y1074D01*
X850Y1074D02*
X904Y1074D01*
X950Y1074D02*
X1004Y1074D01*
X1050Y1074D02*
X1104Y1074D01*
X1150Y1074D02*
X1204Y1074D01*
X1250Y1074D02*
X1304Y1074D01*
X1350Y1074D02*
X1404Y1074D01*
X1449Y1074D02*
X1504Y1074D01*
X249Y1073D02*
X305Y1073D01*
X349Y1073D02*
X405Y1073D01*
X449Y1073D02*
X505Y1073D01*
X549Y1073D02*
X605Y1073D01*
X649Y1073D02*
X705Y1073D01*
X749Y1073D02*
X805Y1073D01*
X849Y1073D02*
X904Y1073D01*
X949Y1073D02*
X1004Y1073D01*
X1049Y1073D02*
X1104Y1073D01*
X1149Y1073D02*
X1204Y1073D01*
X1249Y1073D02*
X1304Y1073D01*
X1349Y1073D02*
X1404Y1073D01*
X1449Y1073D02*
X1504Y1073D01*
X248Y1072D02*
X305Y1072D01*
X348Y1072D02*
X405Y1072D01*
X448Y1072D02*
X505Y1072D01*
X548Y1072D02*
X605Y1072D01*
X648Y1072D02*
X705Y1072D01*
X748Y1072D02*
X805Y1072D01*
X848Y1072D02*
X905Y1072D01*
X948Y1072D02*
X1005Y1072D01*
X1048Y1072D02*
X1105Y1072D01*
X1148Y1072D02*
X1205Y1072D01*
X1248Y1072D02*
X1305Y1072D01*
X1348Y1072D02*
X1405Y1072D01*
X1448Y1072D02*
X1505Y1072D01*
X248Y1071D02*
X306Y1071D01*
X348Y1071D02*
X406Y1071D01*
X448Y1071D02*
X506Y1071D01*
X548Y1071D02*
X606Y1071D01*
X648Y1071D02*
X706Y1071D01*
X748Y1071D02*
X806Y1071D01*
X848Y1071D02*
X906Y1071D01*
X947Y1071D02*
X1006Y1071D01*
X1047Y1071D02*
X1106Y1071D01*
X1147Y1071D02*
X1206Y1071D01*
X1247Y1071D02*
X1306Y1071D01*
X1347Y1071D02*
X1406Y1071D01*
X1447Y1071D02*
X1506Y1071D01*
X247Y1070D02*
X307Y1070D01*
X347Y1070D02*
X407Y1070D01*
X447Y1070D02*
X507Y1070D01*
X547Y1070D02*
X607Y1070D01*
X647Y1070D02*
X706Y1070D01*
X747Y1070D02*
X806Y1070D01*
X847Y1070D02*
X906Y1070D01*
X947Y1070D02*
X1006Y1070D01*
X1047Y1070D02*
X1106Y1070D01*
X1147Y1070D02*
X1206Y1070D01*
X1247Y1070D02*
X1306Y1070D01*
X1347Y1070D02*
X1406Y1070D01*
X1447Y1070D02*
X1506Y1070D01*
X246Y1069D02*
X307Y1069D01*
X346Y1069D02*
X407Y1069D01*
X446Y1069D02*
X507Y1069D01*
X546Y1069D02*
X607Y1069D01*
X646Y1069D02*
X707Y1069D01*
X746Y1069D02*
X807Y1069D01*
X846Y1069D02*
X907Y1069D01*
X946Y1069D02*
X1007Y1069D01*
X1046Y1069D02*
X1107Y1069D01*
X1146Y1069D02*
X1207Y1069D01*
X1246Y1069D02*
X1307Y1069D01*
X1346Y1069D02*
X1407Y1069D01*
X1446Y1069D02*
X1507Y1069D01*
X246Y1068D02*
X271Y1068D01*
X282Y1068D02*
X308Y1068D01*
X346Y1068D02*
X371Y1068D01*
X382Y1068D02*
X408Y1068D01*
X446Y1068D02*
X471Y1068D01*
X482Y1068D02*
X508Y1068D01*
X546Y1068D02*
X571Y1068D01*
X582Y1068D02*
X608Y1068D01*
X646Y1068D02*
X671Y1068D01*
X682Y1068D02*
X708Y1068D01*
X746Y1068D02*
X771Y1068D01*
X782Y1068D02*
X808Y1068D01*
X846Y1068D02*
X871Y1068D01*
X882Y1068D02*
X908Y1068D01*
X946Y1068D02*
X971Y1068D01*
X982Y1068D02*
X1008Y1068D01*
X1046Y1068D02*
X1071Y1068D01*
X1082Y1068D02*
X1107Y1068D01*
X1146Y1068D02*
X1171Y1068D01*
X1182Y1068D02*
X1207Y1068D01*
X1246Y1068D02*
X1271Y1068D01*
X1282Y1068D02*
X1307Y1068D01*
X1346Y1068D02*
X1371Y1068D01*
X1382Y1068D02*
X1407Y1068D01*
X1446Y1068D02*
X1471Y1068D01*
X1482Y1068D02*
X1507Y1068D01*
X245Y1067D02*
X269Y1067D01*
X285Y1067D02*
X308Y1067D01*
X345Y1067D02*
X369Y1067D01*
X385Y1067D02*
X408Y1067D01*
X445Y1067D02*
X469Y1067D01*
X485Y1067D02*
X508Y1067D01*
X545Y1067D02*
X569Y1067D01*
X585Y1067D02*
X608Y1067D01*
X645Y1067D02*
X669Y1067D01*
X685Y1067D02*
X708Y1067D01*
X745Y1067D02*
X768Y1067D01*
X785Y1067D02*
X808Y1067D01*
X845Y1067D02*
X868Y1067D01*
X885Y1067D02*
X908Y1067D01*
X945Y1067D02*
X968Y1067D01*
X985Y1067D02*
X1008Y1067D01*
X1045Y1067D02*
X1068Y1067D01*
X1085Y1067D02*
X1108Y1067D01*
X1145Y1067D02*
X1168Y1067D01*
X1185Y1067D02*
X1208Y1067D01*
X1245Y1067D02*
X1268Y1067D01*
X1285Y1067D02*
X1308Y1067D01*
X1345Y1067D02*
X1368Y1067D01*
X1385Y1067D02*
X1408Y1067D01*
X1445Y1067D02*
X1468Y1067D01*
X1485Y1067D02*
X1508Y1067D01*
X245Y1066D02*
X267Y1066D01*
X287Y1066D02*
X309Y1066D01*
X345Y1066D02*
X367Y1066D01*
X387Y1066D02*
X409Y1066D01*
X445Y1066D02*
X467Y1066D01*
X487Y1066D02*
X509Y1066D01*
X545Y1066D02*
X567Y1066D01*
X587Y1066D02*
X609Y1066D01*
X645Y1066D02*
X667Y1066D01*
X687Y1066D02*
X709Y1066D01*
X745Y1066D02*
X767Y1066D01*
X787Y1066D02*
X809Y1066D01*
X845Y1066D02*
X867Y1066D01*
X887Y1066D02*
X908Y1066D01*
X945Y1066D02*
X967Y1066D01*
X987Y1066D02*
X1008Y1066D01*
X1045Y1066D02*
X1067Y1066D01*
X1087Y1066D02*
X1108Y1066D01*
X1145Y1066D02*
X1167Y1066D01*
X1187Y1066D02*
X1208Y1066D01*
X1245Y1066D02*
X1267Y1066D01*
X1287Y1066D02*
X1308Y1066D01*
X1345Y1066D02*
X1367Y1066D01*
X1387Y1066D02*
X1408Y1066D01*
X1445Y1066D02*
X1467Y1066D01*
X1487Y1066D02*
X1508Y1066D01*
X245Y1065D02*
X266Y1065D01*
X288Y1065D02*
X309Y1065D01*
X345Y1065D02*
X366Y1065D01*
X388Y1065D02*
X409Y1065D01*
X445Y1065D02*
X466Y1065D01*
X488Y1065D02*
X509Y1065D01*
X545Y1065D02*
X565Y1065D01*
X588Y1065D02*
X609Y1065D01*
X645Y1065D02*
X665Y1065D01*
X688Y1065D02*
X709Y1065D01*
X744Y1065D02*
X765Y1065D01*
X788Y1065D02*
X809Y1065D01*
X844Y1065D02*
X865Y1065D01*
X888Y1065D02*
X909Y1065D01*
X944Y1065D02*
X965Y1065D01*
X988Y1065D02*
X1009Y1065D01*
X1044Y1065D02*
X1065Y1065D01*
X1088Y1065D02*
X1109Y1065D01*
X1144Y1065D02*
X1165Y1065D01*
X1188Y1065D02*
X1209Y1065D01*
X1244Y1065D02*
X1265Y1065D01*
X1288Y1065D02*
X1309Y1065D01*
X1344Y1065D02*
X1365Y1065D01*
X1388Y1065D02*
X1409Y1065D01*
X1444Y1065D02*
X1465Y1065D01*
X1488Y1065D02*
X1509Y1065D01*
X244Y1064D02*
X265Y1064D01*
X289Y1064D02*
X309Y1064D01*
X344Y1064D02*
X365Y1064D01*
X389Y1064D02*
X409Y1064D01*
X444Y1064D02*
X465Y1064D01*
X489Y1064D02*
X509Y1064D01*
X544Y1064D02*
X565Y1064D01*
X589Y1064D02*
X609Y1064D01*
X644Y1064D02*
X665Y1064D01*
X689Y1064D02*
X709Y1064D01*
X744Y1064D02*
X765Y1064D01*
X789Y1064D02*
X809Y1064D01*
X844Y1064D02*
X864Y1064D01*
X889Y1064D02*
X909Y1064D01*
X944Y1064D02*
X964Y1064D01*
X989Y1064D02*
X1009Y1064D01*
X1044Y1064D02*
X1064Y1064D01*
X1089Y1064D02*
X1109Y1064D01*
X1144Y1064D02*
X1164Y1064D01*
X1189Y1064D02*
X1209Y1064D01*
X1244Y1064D02*
X1264Y1064D01*
X1289Y1064D02*
X1309Y1064D01*
X1344Y1064D02*
X1364Y1064D01*
X1389Y1064D02*
X1409Y1064D01*
X1444Y1064D02*
X1464Y1064D01*
X1489Y1064D02*
X1509Y1064D01*
X244Y1063D02*
X264Y1063D01*
X290Y1063D02*
X310Y1063D01*
X344Y1063D02*
X364Y1063D01*
X390Y1063D02*
X410Y1063D01*
X444Y1063D02*
X464Y1063D01*
X490Y1063D02*
X510Y1063D01*
X544Y1063D02*
X564Y1063D01*
X590Y1063D02*
X610Y1063D01*
X644Y1063D02*
X664Y1063D01*
X690Y1063D02*
X710Y1063D01*
X744Y1063D02*
X764Y1063D01*
X790Y1063D02*
X810Y1063D01*
X844Y1063D02*
X864Y1063D01*
X890Y1063D02*
X910Y1063D01*
X944Y1063D02*
X964Y1063D01*
X990Y1063D02*
X1010Y1063D01*
X1044Y1063D02*
X1064Y1063D01*
X1090Y1063D02*
X1110Y1063D01*
X1144Y1063D02*
X1164Y1063D01*
X1190Y1063D02*
X1210Y1063D01*
X1244Y1063D02*
X1264Y1063D01*
X1290Y1063D02*
X1310Y1063D01*
X1344Y1063D02*
X1364Y1063D01*
X1390Y1063D02*
X1410Y1063D01*
X1444Y1063D02*
X1464Y1063D01*
X1490Y1063D02*
X1509Y1063D01*
X244Y1062D02*
X263Y1062D01*
X290Y1062D02*
X310Y1062D01*
X344Y1062D02*
X363Y1062D01*
X390Y1062D02*
X410Y1062D01*
X444Y1062D02*
X463Y1062D01*
X490Y1062D02*
X510Y1062D01*
X544Y1062D02*
X563Y1062D01*
X590Y1062D02*
X610Y1062D01*
X643Y1062D02*
X663Y1062D01*
X690Y1062D02*
X710Y1062D01*
X743Y1062D02*
X763Y1062D01*
X790Y1062D02*
X810Y1062D01*
X843Y1062D02*
X863Y1062D01*
X890Y1062D02*
X910Y1062D01*
X943Y1062D02*
X963Y1062D01*
X990Y1062D02*
X1010Y1062D01*
X1043Y1062D02*
X1063Y1062D01*
X1090Y1062D02*
X1110Y1062D01*
X1143Y1062D02*
X1163Y1062D01*
X1190Y1062D02*
X1210Y1062D01*
X1243Y1062D02*
X1263Y1062D01*
X1290Y1062D02*
X1310Y1062D01*
X1343Y1062D02*
X1363Y1062D01*
X1390Y1062D02*
X1410Y1062D01*
X1443Y1062D02*
X1463Y1062D01*
X1490Y1062D02*
X1510Y1062D01*
X243Y1061D02*
X263Y1061D01*
X291Y1061D02*
X310Y1061D01*
X343Y1061D02*
X363Y1061D01*
X391Y1061D02*
X410Y1061D01*
X443Y1061D02*
X463Y1061D01*
X491Y1061D02*
X510Y1061D01*
X543Y1061D02*
X563Y1061D01*
X591Y1061D02*
X610Y1061D01*
X643Y1061D02*
X663Y1061D01*
X691Y1061D02*
X710Y1061D01*
X743Y1061D02*
X763Y1061D01*
X791Y1061D02*
X810Y1061D01*
X843Y1061D02*
X863Y1061D01*
X891Y1061D02*
X910Y1061D01*
X943Y1061D02*
X963Y1061D01*
X991Y1061D02*
X1010Y1061D01*
X1043Y1061D02*
X1063Y1061D01*
X1091Y1061D02*
X1110Y1061D01*
X1143Y1061D02*
X1163Y1061D01*
X1191Y1061D02*
X1210Y1061D01*
X1243Y1061D02*
X1263Y1061D01*
X1291Y1061D02*
X1310Y1061D01*
X1343Y1061D02*
X1363Y1061D01*
X1391Y1061D02*
X1410Y1061D01*
X1443Y1061D02*
X1462Y1061D01*
X1491Y1061D02*
X1510Y1061D01*
X243Y1060D02*
X262Y1060D01*
X291Y1060D02*
X311Y1060D01*
X343Y1060D02*
X362Y1060D01*
X391Y1060D02*
X411Y1060D01*
X443Y1060D02*
X462Y1060D01*
X491Y1060D02*
X511Y1060D01*
X543Y1060D02*
X562Y1060D01*
X591Y1060D02*
X611Y1060D01*
X643Y1060D02*
X662Y1060D01*
X691Y1060D02*
X710Y1060D01*
X743Y1060D02*
X762Y1060D01*
X791Y1060D02*
X810Y1060D01*
X843Y1060D02*
X862Y1060D01*
X891Y1060D02*
X910Y1060D01*
X943Y1060D02*
X962Y1060D01*
X991Y1060D02*
X1010Y1060D01*
X1043Y1060D02*
X1062Y1060D01*
X1091Y1060D02*
X1110Y1060D01*
X1143Y1060D02*
X1162Y1060D01*
X1191Y1060D02*
X1210Y1060D01*
X1243Y1060D02*
X1262Y1060D01*
X1291Y1060D02*
X1310Y1060D01*
X1343Y1060D02*
X1362Y1060D01*
X1391Y1060D02*
X1410Y1060D01*
X1443Y1060D02*
X1462Y1060D01*
X1491Y1060D02*
X1510Y1060D01*
X243Y1059D02*
X262Y1059D01*
X292Y1059D02*
X311Y1059D01*
X343Y1059D02*
X362Y1059D01*
X392Y1059D02*
X411Y1059D01*
X443Y1059D02*
X462Y1059D01*
X492Y1059D02*
X511Y1059D01*
X543Y1059D02*
X562Y1059D01*
X591Y1059D02*
X611Y1059D01*
X643Y1059D02*
X662Y1059D01*
X691Y1059D02*
X711Y1059D01*
X743Y1059D02*
X762Y1059D01*
X791Y1059D02*
X811Y1059D01*
X843Y1059D02*
X862Y1059D01*
X891Y1059D02*
X911Y1059D01*
X943Y1059D02*
X962Y1059D01*
X991Y1059D02*
X1011Y1059D01*
X1043Y1059D02*
X1062Y1059D01*
X1091Y1059D02*
X1111Y1059D01*
X1143Y1059D02*
X1162Y1059D01*
X1191Y1059D02*
X1211Y1059D01*
X1243Y1059D02*
X1262Y1059D01*
X1291Y1059D02*
X1311Y1059D01*
X1343Y1059D02*
X1362Y1059D01*
X1391Y1059D02*
X1411Y1059D01*
X1443Y1059D02*
X1462Y1059D01*
X1491Y1059D02*
X1510Y1059D01*
X243Y1058D02*
X262Y1058D01*
X292Y1058D02*
X311Y1058D01*
X343Y1058D02*
X362Y1058D01*
X392Y1058D02*
X411Y1058D01*
X443Y1058D02*
X462Y1058D01*
X492Y1058D02*
X511Y1058D01*
X543Y1058D02*
X562Y1058D01*
X592Y1058D02*
X611Y1058D01*
X643Y1058D02*
X662Y1058D01*
X692Y1058D02*
X711Y1058D01*
X743Y1058D02*
X762Y1058D01*
X792Y1058D02*
X811Y1058D01*
X843Y1058D02*
X862Y1058D01*
X892Y1058D02*
X911Y1058D01*
X943Y1058D02*
X962Y1058D01*
X992Y1058D02*
X1011Y1058D01*
X1043Y1058D02*
X1062Y1058D01*
X1092Y1058D02*
X1111Y1058D01*
X1142Y1058D02*
X1162Y1058D01*
X1192Y1058D02*
X1211Y1058D01*
X1242Y1058D02*
X1262Y1058D01*
X1292Y1058D02*
X1311Y1058D01*
X1342Y1058D02*
X1362Y1058D01*
X1392Y1058D02*
X1411Y1058D01*
X1442Y1058D02*
X1462Y1058D01*
X1492Y1058D02*
X1511Y1058D01*
X243Y1057D02*
X262Y1057D01*
X292Y1057D02*
X311Y1057D01*
X342Y1057D02*
X362Y1057D01*
X392Y1057D02*
X411Y1057D01*
X442Y1057D02*
X462Y1057D01*
X492Y1057D02*
X511Y1057D01*
X542Y1057D02*
X562Y1057D01*
X592Y1057D02*
X611Y1057D01*
X642Y1057D02*
X661Y1057D01*
X692Y1057D02*
X711Y1057D01*
X742Y1057D02*
X761Y1057D01*
X792Y1057D02*
X811Y1057D01*
X842Y1057D02*
X861Y1057D01*
X892Y1057D02*
X911Y1057D01*
X942Y1057D02*
X961Y1057D01*
X992Y1057D02*
X1011Y1057D01*
X1042Y1057D02*
X1061Y1057D01*
X1092Y1057D02*
X1111Y1057D01*
X1142Y1057D02*
X1161Y1057D01*
X1192Y1057D02*
X1211Y1057D01*
X1242Y1057D02*
X1261Y1057D01*
X1292Y1057D02*
X1311Y1057D01*
X1342Y1057D02*
X1361Y1057D01*
X1392Y1057D02*
X1411Y1057D01*
X1442Y1057D02*
X1461Y1057D01*
X1492Y1057D02*
X1511Y1057D01*
X242Y1056D02*
X261Y1056D01*
X292Y1056D02*
X311Y1056D01*
X342Y1056D02*
X361Y1056D01*
X392Y1056D02*
X411Y1056D01*
X442Y1056D02*
X461Y1056D01*
X492Y1056D02*
X511Y1056D01*
X542Y1056D02*
X561Y1056D01*
X592Y1056D02*
X611Y1056D01*
X642Y1056D02*
X661Y1056D01*
X692Y1056D02*
X711Y1056D01*
X742Y1056D02*
X761Y1056D01*
X792Y1056D02*
X811Y1056D01*
X842Y1056D02*
X861Y1056D01*
X892Y1056D02*
X911Y1056D01*
X942Y1056D02*
X961Y1056D01*
X992Y1056D02*
X1011Y1056D01*
X1042Y1056D02*
X1061Y1056D01*
X1092Y1056D02*
X1111Y1056D01*
X1142Y1056D02*
X1161Y1056D01*
X1192Y1056D02*
X1211Y1056D01*
X1242Y1056D02*
X1261Y1056D01*
X1292Y1056D02*
X1311Y1056D01*
X1342Y1056D02*
X1361Y1056D01*
X1392Y1056D02*
X1411Y1056D01*
X1442Y1056D02*
X1461Y1056D01*
X1492Y1056D02*
X1511Y1056D01*
X242Y1055D02*
X261Y1055D01*
X292Y1055D02*
X311Y1055D01*
X342Y1055D02*
X361Y1055D01*
X392Y1055D02*
X411Y1055D01*
X442Y1055D02*
X461Y1055D01*
X492Y1055D02*
X511Y1055D01*
X542Y1055D02*
X561Y1055D01*
X592Y1055D02*
X611Y1055D01*
X642Y1055D02*
X661Y1055D01*
X692Y1055D02*
X711Y1055D01*
X742Y1055D02*
X761Y1055D01*
X792Y1055D02*
X811Y1055D01*
X842Y1055D02*
X861Y1055D01*
X892Y1055D02*
X911Y1055D01*
X942Y1055D02*
X961Y1055D01*
X992Y1055D02*
X1011Y1055D01*
X1042Y1055D02*
X1061Y1055D01*
X1092Y1055D02*
X1111Y1055D01*
X1142Y1055D02*
X1161Y1055D01*
X1192Y1055D02*
X1211Y1055D01*
X1242Y1055D02*
X1261Y1055D01*
X1292Y1055D02*
X1311Y1055D01*
X1342Y1055D02*
X1361Y1055D01*
X1392Y1055D02*
X1411Y1055D01*
X1442Y1055D02*
X1461Y1055D01*
X1492Y1055D02*
X1511Y1055D01*
X242Y1054D02*
X261Y1054D01*
X292Y1054D02*
X311Y1054D01*
X342Y1054D02*
X361Y1054D01*
X392Y1054D02*
X411Y1054D01*
X442Y1054D02*
X461Y1054D01*
X492Y1054D02*
X511Y1054D01*
X542Y1054D02*
X561Y1054D01*
X592Y1054D02*
X611Y1054D01*
X642Y1054D02*
X661Y1054D01*
X692Y1054D02*
X711Y1054D01*
X742Y1054D02*
X761Y1054D01*
X792Y1054D02*
X811Y1054D01*
X842Y1054D02*
X861Y1054D01*
X892Y1054D02*
X911Y1054D01*
X942Y1054D02*
X961Y1054D01*
X992Y1054D02*
X1011Y1054D01*
X1042Y1054D02*
X1061Y1054D01*
X1092Y1054D02*
X1111Y1054D01*
X1142Y1054D02*
X1161Y1054D01*
X1192Y1054D02*
X1211Y1054D01*
X1242Y1054D02*
X1261Y1054D01*
X1292Y1054D02*
X1311Y1054D01*
X1342Y1054D02*
X1361Y1054D01*
X1392Y1054D02*
X1411Y1054D01*
X1442Y1054D02*
X1461Y1054D01*
X1492Y1054D02*
X1511Y1054D01*
X242Y1053D02*
X261Y1053D01*
X292Y1053D02*
X311Y1053D01*
X342Y1053D02*
X361Y1053D01*
X392Y1053D02*
X411Y1053D01*
X442Y1053D02*
X461Y1053D01*
X492Y1053D02*
X511Y1053D01*
X542Y1053D02*
X561Y1053D01*
X592Y1053D02*
X611Y1053D01*
X642Y1053D02*
X661Y1053D01*
X692Y1053D02*
X711Y1053D01*
X742Y1053D02*
X761Y1053D01*
X792Y1053D02*
X811Y1053D01*
X842Y1053D02*
X861Y1053D01*
X892Y1053D02*
X911Y1053D01*
X942Y1053D02*
X961Y1053D01*
X992Y1053D02*
X1011Y1053D01*
X1042Y1053D02*
X1061Y1053D01*
X1092Y1053D02*
X1111Y1053D01*
X1142Y1053D02*
X1161Y1053D01*
X1192Y1053D02*
X1211Y1053D01*
X1242Y1053D02*
X1261Y1053D01*
X1292Y1053D02*
X1311Y1053D01*
X1342Y1053D02*
X1361Y1053D01*
X1392Y1053D02*
X1411Y1053D01*
X1442Y1053D02*
X1461Y1053D01*
X1492Y1053D02*
X1511Y1053D01*
X242Y1052D02*
X261Y1052D01*
X292Y1052D02*
X311Y1052D01*
X342Y1052D02*
X361Y1052D01*
X392Y1052D02*
X411Y1052D01*
X442Y1052D02*
X461Y1052D01*
X492Y1052D02*
X511Y1052D01*
X542Y1052D02*
X561Y1052D01*
X592Y1052D02*
X611Y1052D01*
X642Y1052D02*
X661Y1052D01*
X692Y1052D02*
X711Y1052D01*
X742Y1052D02*
X761Y1052D01*
X792Y1052D02*
X811Y1052D01*
X842Y1052D02*
X861Y1052D01*
X892Y1052D02*
X911Y1052D01*
X942Y1052D02*
X961Y1052D01*
X992Y1052D02*
X1011Y1052D01*
X1042Y1052D02*
X1061Y1052D01*
X1092Y1052D02*
X1111Y1052D01*
X1142Y1052D02*
X1161Y1052D01*
X1192Y1052D02*
X1211Y1052D01*
X1242Y1052D02*
X1261Y1052D01*
X1292Y1052D02*
X1311Y1052D01*
X1342Y1052D02*
X1361Y1052D01*
X1392Y1052D02*
X1411Y1052D01*
X1442Y1052D02*
X1461Y1052D01*
X1492Y1052D02*
X1511Y1052D01*
X242Y1051D02*
X261Y1051D01*
X292Y1051D02*
X311Y1051D01*
X342Y1051D02*
X361Y1051D01*
X392Y1051D02*
X411Y1051D01*
X442Y1051D02*
X461Y1051D01*
X492Y1051D02*
X511Y1051D01*
X542Y1051D02*
X561Y1051D01*
X592Y1051D02*
X611Y1051D01*
X642Y1051D02*
X661Y1051D01*
X692Y1051D02*
X711Y1051D01*
X742Y1051D02*
X761Y1051D01*
X792Y1051D02*
X811Y1051D01*
X842Y1051D02*
X861Y1051D01*
X892Y1051D02*
X911Y1051D01*
X942Y1051D02*
X961Y1051D01*
X992Y1051D02*
X1011Y1051D01*
X1042Y1051D02*
X1061Y1051D01*
X1092Y1051D02*
X1111Y1051D01*
X1142Y1051D02*
X1161Y1051D01*
X1192Y1051D02*
X1211Y1051D01*
X1242Y1051D02*
X1261Y1051D01*
X1292Y1051D02*
X1311Y1051D01*
X1342Y1051D02*
X1361Y1051D01*
X1392Y1051D02*
X1411Y1051D01*
X1442Y1051D02*
X1461Y1051D01*
X1492Y1051D02*
X1511Y1051D01*
X243Y1050D02*
X262Y1050D01*
X292Y1050D02*
X311Y1050D01*
X343Y1050D02*
X362Y1050D01*
X392Y1050D02*
X411Y1050D01*
X442Y1050D02*
X462Y1050D01*
X492Y1050D02*
X511Y1050D01*
X542Y1050D02*
X562Y1050D01*
X592Y1050D02*
X611Y1050D01*
X642Y1050D02*
X662Y1050D01*
X692Y1050D02*
X711Y1050D01*
X742Y1050D02*
X762Y1050D01*
X792Y1050D02*
X811Y1050D01*
X842Y1050D02*
X861Y1050D01*
X892Y1050D02*
X911Y1050D01*
X942Y1050D02*
X961Y1050D01*
X992Y1050D02*
X1011Y1050D01*
X1042Y1050D02*
X1061Y1050D01*
X1092Y1050D02*
X1111Y1050D01*
X1142Y1050D02*
X1161Y1050D01*
X1192Y1050D02*
X1211Y1050D01*
X1242Y1050D02*
X1261Y1050D01*
X1292Y1050D02*
X1311Y1050D01*
X1342Y1050D02*
X1361Y1050D01*
X1392Y1050D02*
X1411Y1050D01*
X1442Y1050D02*
X1461Y1050D01*
X1492Y1050D02*
X1511Y1050D01*
X243Y1049D02*
X262Y1049D01*
X292Y1049D02*
X311Y1049D01*
X343Y1049D02*
X362Y1049D01*
X392Y1049D02*
X411Y1049D01*
X443Y1049D02*
X462Y1049D01*
X492Y1049D02*
X511Y1049D01*
X543Y1049D02*
X562Y1049D01*
X592Y1049D02*
X611Y1049D01*
X643Y1049D02*
X662Y1049D01*
X692Y1049D02*
X711Y1049D01*
X743Y1049D02*
X762Y1049D01*
X792Y1049D02*
X811Y1049D01*
X843Y1049D02*
X862Y1049D01*
X892Y1049D02*
X911Y1049D01*
X943Y1049D02*
X962Y1049D01*
X992Y1049D02*
X1011Y1049D01*
X1043Y1049D02*
X1062Y1049D01*
X1092Y1049D02*
X1111Y1049D01*
X1143Y1049D02*
X1162Y1049D01*
X1192Y1049D02*
X1211Y1049D01*
X1243Y1049D02*
X1262Y1049D01*
X1292Y1049D02*
X1311Y1049D01*
X1342Y1049D02*
X1362Y1049D01*
X1392Y1049D02*
X1411Y1049D01*
X1442Y1049D02*
X1462Y1049D01*
X1492Y1049D02*
X1511Y1049D01*
X243Y1048D02*
X262Y1048D01*
X292Y1048D02*
X311Y1048D01*
X343Y1048D02*
X362Y1048D01*
X391Y1048D02*
X411Y1048D01*
X443Y1048D02*
X462Y1048D01*
X491Y1048D02*
X511Y1048D01*
X543Y1048D02*
X562Y1048D01*
X591Y1048D02*
X611Y1048D01*
X643Y1048D02*
X662Y1048D01*
X691Y1048D02*
X711Y1048D01*
X743Y1048D02*
X762Y1048D01*
X791Y1048D02*
X811Y1048D01*
X843Y1048D02*
X862Y1048D01*
X891Y1048D02*
X911Y1048D01*
X943Y1048D02*
X962Y1048D01*
X991Y1048D02*
X1011Y1048D01*
X1043Y1048D02*
X1062Y1048D01*
X1091Y1048D02*
X1111Y1048D01*
X1143Y1048D02*
X1162Y1048D01*
X1191Y1048D02*
X1211Y1048D01*
X1243Y1048D02*
X1262Y1048D01*
X1291Y1048D02*
X1310Y1048D01*
X1343Y1048D02*
X1362Y1048D01*
X1391Y1048D02*
X1410Y1048D01*
X1443Y1048D02*
X1462Y1048D01*
X1491Y1048D02*
X1510Y1048D01*
X243Y1047D02*
X262Y1047D01*
X291Y1047D02*
X311Y1047D01*
X343Y1047D02*
X362Y1047D01*
X391Y1047D02*
X410Y1047D01*
X443Y1047D02*
X462Y1047D01*
X491Y1047D02*
X510Y1047D01*
X543Y1047D02*
X562Y1047D01*
X591Y1047D02*
X610Y1047D01*
X643Y1047D02*
X662Y1047D01*
X691Y1047D02*
X710Y1047D01*
X743Y1047D02*
X762Y1047D01*
X791Y1047D02*
X810Y1047D01*
X843Y1047D02*
X862Y1047D01*
X891Y1047D02*
X910Y1047D01*
X943Y1047D02*
X962Y1047D01*
X991Y1047D02*
X1010Y1047D01*
X1043Y1047D02*
X1062Y1047D01*
X1091Y1047D02*
X1110Y1047D01*
X1143Y1047D02*
X1162Y1047D01*
X1191Y1047D02*
X1210Y1047D01*
X1243Y1047D02*
X1262Y1047D01*
X1291Y1047D02*
X1310Y1047D01*
X1343Y1047D02*
X1362Y1047D01*
X1391Y1047D02*
X1410Y1047D01*
X1443Y1047D02*
X1462Y1047D01*
X1491Y1047D02*
X1510Y1047D01*
X243Y1046D02*
X263Y1046D01*
X291Y1046D02*
X310Y1046D01*
X343Y1046D02*
X363Y1046D01*
X391Y1046D02*
X410Y1046D01*
X443Y1046D02*
X463Y1046D01*
X491Y1046D02*
X510Y1046D01*
X543Y1046D02*
X563Y1046D01*
X591Y1046D02*
X610Y1046D01*
X643Y1046D02*
X663Y1046D01*
X691Y1046D02*
X710Y1046D01*
X743Y1046D02*
X763Y1046D01*
X791Y1046D02*
X810Y1046D01*
X843Y1046D02*
X863Y1046D01*
X891Y1046D02*
X910Y1046D01*
X943Y1046D02*
X963Y1046D01*
X991Y1046D02*
X1010Y1046D01*
X1043Y1046D02*
X1063Y1046D01*
X1091Y1046D02*
X1110Y1046D01*
X1143Y1046D02*
X1163Y1046D01*
X1191Y1046D02*
X1210Y1046D01*
X1243Y1046D02*
X1263Y1046D01*
X1291Y1046D02*
X1310Y1046D01*
X1343Y1046D02*
X1363Y1046D01*
X1391Y1046D02*
X1410Y1046D01*
X1443Y1046D02*
X1463Y1046D01*
X1490Y1046D02*
X1510Y1046D01*
X244Y1045D02*
X263Y1045D01*
X290Y1045D02*
X310Y1045D01*
X344Y1045D02*
X363Y1045D01*
X390Y1045D02*
X410Y1045D01*
X444Y1045D02*
X463Y1045D01*
X490Y1045D02*
X510Y1045D01*
X544Y1045D02*
X563Y1045D01*
X590Y1045D02*
X610Y1045D01*
X644Y1045D02*
X663Y1045D01*
X690Y1045D02*
X710Y1045D01*
X744Y1045D02*
X763Y1045D01*
X790Y1045D02*
X810Y1045D01*
X844Y1045D02*
X863Y1045D01*
X890Y1045D02*
X910Y1045D01*
X943Y1045D02*
X963Y1045D01*
X990Y1045D02*
X1010Y1045D01*
X1043Y1045D02*
X1063Y1045D01*
X1090Y1045D02*
X1110Y1045D01*
X1143Y1045D02*
X1163Y1045D01*
X1190Y1045D02*
X1210Y1045D01*
X1243Y1045D02*
X1263Y1045D01*
X1290Y1045D02*
X1310Y1045D01*
X1343Y1045D02*
X1363Y1045D01*
X1390Y1045D02*
X1410Y1045D01*
X1443Y1045D02*
X1463Y1045D01*
X1490Y1045D02*
X1510Y1045D01*
X244Y1044D02*
X264Y1044D01*
X290Y1044D02*
X310Y1044D01*
X344Y1044D02*
X364Y1044D01*
X390Y1044D02*
X410Y1044D01*
X444Y1044D02*
X464Y1044D01*
X490Y1044D02*
X510Y1044D01*
X544Y1044D02*
X564Y1044D01*
X590Y1044D02*
X610Y1044D01*
X644Y1044D02*
X664Y1044D01*
X690Y1044D02*
X710Y1044D01*
X744Y1044D02*
X764Y1044D01*
X790Y1044D02*
X810Y1044D01*
X844Y1044D02*
X864Y1044D01*
X889Y1044D02*
X910Y1044D01*
X944Y1044D02*
X964Y1044D01*
X989Y1044D02*
X1010Y1044D01*
X1044Y1044D02*
X1064Y1044D01*
X1089Y1044D02*
X1110Y1044D01*
X1144Y1044D02*
X1164Y1044D01*
X1189Y1044D02*
X1209Y1044D01*
X1244Y1044D02*
X1264Y1044D01*
X1289Y1044D02*
X1309Y1044D01*
X1344Y1044D02*
X1364Y1044D01*
X1389Y1044D02*
X1409Y1044D01*
X1444Y1044D02*
X1464Y1044D01*
X1489Y1044D02*
X1509Y1044D01*
X244Y1043D02*
X265Y1043D01*
X289Y1043D02*
X309Y1043D01*
X344Y1043D02*
X365Y1043D01*
X389Y1043D02*
X409Y1043D01*
X444Y1043D02*
X465Y1043D01*
X489Y1043D02*
X509Y1043D01*
X544Y1043D02*
X565Y1043D01*
X589Y1043D02*
X609Y1043D01*
X644Y1043D02*
X665Y1043D01*
X689Y1043D02*
X709Y1043D01*
X744Y1043D02*
X765Y1043D01*
X789Y1043D02*
X809Y1043D01*
X844Y1043D02*
X865Y1043D01*
X889Y1043D02*
X909Y1043D01*
X944Y1043D02*
X965Y1043D01*
X989Y1043D02*
X1009Y1043D01*
X1044Y1043D02*
X1065Y1043D01*
X1089Y1043D02*
X1109Y1043D01*
X1144Y1043D02*
X1165Y1043D01*
X1189Y1043D02*
X1209Y1043D01*
X1244Y1043D02*
X1265Y1043D01*
X1289Y1043D02*
X1309Y1043D01*
X1344Y1043D02*
X1365Y1043D01*
X1389Y1043D02*
X1409Y1043D01*
X1444Y1043D02*
X1465Y1043D01*
X1489Y1043D02*
X1509Y1043D01*
X245Y1042D02*
X266Y1042D01*
X288Y1042D02*
X309Y1042D01*
X345Y1042D02*
X366Y1042D01*
X388Y1042D02*
X409Y1042D01*
X445Y1042D02*
X466Y1042D01*
X488Y1042D02*
X509Y1042D01*
X545Y1042D02*
X566Y1042D01*
X588Y1042D02*
X609Y1042D01*
X645Y1042D02*
X666Y1042D01*
X688Y1042D02*
X709Y1042D01*
X745Y1042D02*
X766Y1042D01*
X788Y1042D02*
X809Y1042D01*
X845Y1042D02*
X866Y1042D01*
X888Y1042D02*
X909Y1042D01*
X945Y1042D02*
X966Y1042D01*
X988Y1042D02*
X1009Y1042D01*
X1045Y1042D02*
X1066Y1042D01*
X1088Y1042D02*
X1109Y1042D01*
X1144Y1042D02*
X1166Y1042D01*
X1188Y1042D02*
X1209Y1042D01*
X1244Y1042D02*
X1266Y1042D01*
X1288Y1042D02*
X1309Y1042D01*
X1344Y1042D02*
X1366Y1042D01*
X1388Y1042D02*
X1409Y1042D01*
X1444Y1042D02*
X1466Y1042D01*
X1488Y1042D02*
X1509Y1042D01*
X245Y1041D02*
X267Y1041D01*
X287Y1041D02*
X309Y1041D01*
X345Y1041D02*
X367Y1041D01*
X386Y1041D02*
X409Y1041D01*
X445Y1041D02*
X467Y1041D01*
X486Y1041D02*
X508Y1041D01*
X545Y1041D02*
X567Y1041D01*
X586Y1041D02*
X608Y1041D01*
X645Y1041D02*
X667Y1041D01*
X686Y1041D02*
X708Y1041D01*
X745Y1041D02*
X767Y1041D01*
X786Y1041D02*
X808Y1041D01*
X845Y1041D02*
X867Y1041D01*
X886Y1041D02*
X908Y1041D01*
X945Y1041D02*
X967Y1041D01*
X986Y1041D02*
X1008Y1041D01*
X1045Y1041D02*
X1067Y1041D01*
X1086Y1041D02*
X1108Y1041D01*
X1145Y1041D02*
X1167Y1041D01*
X1186Y1041D02*
X1208Y1041D01*
X1245Y1041D02*
X1267Y1041D01*
X1286Y1041D02*
X1308Y1041D01*
X1345Y1041D02*
X1367Y1041D01*
X1386Y1041D02*
X1408Y1041D01*
X1445Y1041D02*
X1467Y1041D01*
X1486Y1041D02*
X1508Y1041D01*
X246Y1040D02*
X269Y1040D01*
X285Y1040D02*
X308Y1040D01*
X346Y1040D02*
X369Y1040D01*
X385Y1040D02*
X408Y1040D01*
X445Y1040D02*
X469Y1040D01*
X485Y1040D02*
X508Y1040D01*
X545Y1040D02*
X569Y1040D01*
X585Y1040D02*
X608Y1040D01*
X645Y1040D02*
X669Y1040D01*
X684Y1040D02*
X708Y1040D01*
X745Y1040D02*
X769Y1040D01*
X784Y1040D02*
X808Y1040D01*
X845Y1040D02*
X869Y1040D01*
X884Y1040D02*
X908Y1040D01*
X945Y1040D02*
X969Y1040D01*
X984Y1040D02*
X1008Y1040D01*
X1045Y1040D02*
X1069Y1040D01*
X1084Y1040D02*
X1108Y1040D01*
X1145Y1040D02*
X1169Y1040D01*
X1184Y1040D02*
X1208Y1040D01*
X1245Y1040D02*
X1269Y1040D01*
X1284Y1040D02*
X1308Y1040D01*
X1345Y1040D02*
X1369Y1040D01*
X1384Y1040D02*
X1408Y1040D01*
X1445Y1040D02*
X1469Y1040D01*
X1484Y1040D02*
X1508Y1040D01*
X246Y1039D02*
X272Y1039D01*
X281Y1039D02*
X308Y1039D01*
X346Y1039D02*
X372Y1039D01*
X381Y1039D02*
X408Y1039D01*
X446Y1039D02*
X472Y1039D01*
X481Y1039D02*
X508Y1039D01*
X546Y1039D02*
X572Y1039D01*
X581Y1039D02*
X607Y1039D01*
X646Y1039D02*
X672Y1039D01*
X681Y1039D02*
X707Y1039D01*
X746Y1039D02*
X772Y1039D01*
X781Y1039D02*
X807Y1039D01*
X846Y1039D02*
X872Y1039D01*
X881Y1039D02*
X907Y1039D01*
X946Y1039D02*
X972Y1039D01*
X981Y1039D02*
X1007Y1039D01*
X1046Y1039D02*
X1072Y1039D01*
X1081Y1039D02*
X1107Y1039D01*
X1146Y1039D02*
X1172Y1039D01*
X1181Y1039D02*
X1207Y1039D01*
X1246Y1039D02*
X1272Y1039D01*
X1281Y1039D02*
X1307Y1039D01*
X1346Y1039D02*
X1372Y1039D01*
X1381Y1039D02*
X1407Y1039D01*
X1446Y1039D02*
X1472Y1039D01*
X1481Y1039D02*
X1507Y1039D01*
X247Y1038D02*
X307Y1038D01*
X347Y1038D02*
X407Y1038D01*
X447Y1038D02*
X507Y1038D01*
X547Y1038D02*
X607Y1038D01*
X646Y1038D02*
X707Y1038D01*
X746Y1038D02*
X807Y1038D01*
X846Y1038D02*
X907Y1038D01*
X946Y1038D02*
X1007Y1038D01*
X1046Y1038D02*
X1107Y1038D01*
X1146Y1038D02*
X1207Y1038D01*
X1246Y1038D02*
X1307Y1038D01*
X1346Y1038D02*
X1407Y1038D01*
X1446Y1038D02*
X1507Y1038D01*
X247Y1037D02*
X306Y1037D01*
X347Y1037D02*
X406Y1037D01*
X447Y1037D02*
X506Y1037D01*
X547Y1037D02*
X606Y1037D01*
X647Y1037D02*
X706Y1037D01*
X747Y1037D02*
X806Y1037D01*
X847Y1037D02*
X906Y1037D01*
X947Y1037D02*
X1006Y1037D01*
X1047Y1037D02*
X1106Y1037D01*
X1147Y1037D02*
X1206Y1037D01*
X1247Y1037D02*
X1306Y1037D01*
X1347Y1037D02*
X1406Y1037D01*
X1447Y1037D02*
X1506Y1037D01*
X248Y1036D02*
X306Y1036D01*
X348Y1036D02*
X406Y1036D01*
X448Y1036D02*
X506Y1036D01*
X548Y1036D02*
X606Y1036D01*
X648Y1036D02*
X706Y1036D01*
X748Y1036D02*
X806Y1036D01*
X848Y1036D02*
X906Y1036D01*
X948Y1036D02*
X1006Y1036D01*
X1048Y1036D02*
X1106Y1036D01*
X1148Y1036D02*
X1206Y1036D01*
X1248Y1036D02*
X1306Y1036D01*
X1348Y1036D02*
X1406Y1036D01*
X1448Y1036D02*
X1506Y1036D01*
X248Y1035D02*
X305Y1035D01*
X348Y1035D02*
X405Y1035D01*
X448Y1035D02*
X505Y1035D01*
X548Y1035D02*
X605Y1035D01*
X648Y1035D02*
X705Y1035D01*
X748Y1035D02*
X805Y1035D01*
X848Y1035D02*
X905Y1035D01*
X948Y1035D02*
X1005Y1035D01*
X1048Y1035D02*
X1105Y1035D01*
X1148Y1035D02*
X1205Y1035D01*
X1248Y1035D02*
X1305Y1035D01*
X1348Y1035D02*
X1405Y1035D01*
X1448Y1035D02*
X1505Y1035D01*
X249Y1034D02*
X304Y1034D01*
X349Y1034D02*
X404Y1034D01*
X449Y1034D02*
X504Y1034D01*
X549Y1034D02*
X604Y1034D01*
X649Y1034D02*
X704Y1034D01*
X749Y1034D02*
X804Y1034D01*
X849Y1034D02*
X904Y1034D01*
X949Y1034D02*
X1004Y1034D01*
X1049Y1034D02*
X1104Y1034D01*
X1149Y1034D02*
X1204Y1034D01*
X1249Y1034D02*
X1304Y1034D01*
X1349Y1034D02*
X1404Y1034D01*
X1449Y1034D02*
X1504Y1034D01*
X250Y1033D02*
X304Y1033D01*
X350Y1033D02*
X404Y1033D01*
X450Y1033D02*
X504Y1033D01*
X550Y1033D02*
X604Y1033D01*
X650Y1033D02*
X704Y1033D01*
X750Y1033D02*
X804Y1033D01*
X850Y1033D02*
X904Y1033D01*
X950Y1033D02*
X1004Y1033D01*
X1050Y1033D02*
X1104Y1033D01*
X1150Y1033D02*
X1203Y1033D01*
X1250Y1033D02*
X1303Y1033D01*
X1350Y1033D02*
X1403Y1033D01*
X1450Y1033D02*
X1503Y1033D01*
X251Y1032D02*
X303Y1032D01*
X351Y1032D02*
X403Y1032D01*
X451Y1032D02*
X503Y1032D01*
X551Y1032D02*
X603Y1032D01*
X651Y1032D02*
X703Y1032D01*
X751Y1032D02*
X803Y1032D01*
X851Y1032D02*
X903Y1032D01*
X951Y1032D02*
X1003Y1032D01*
X1051Y1032D02*
X1103Y1032D01*
X1150Y1032D02*
X1203Y1032D01*
X1250Y1032D02*
X1303Y1032D01*
X1350Y1032D02*
X1403Y1032D01*
X1450Y1032D02*
X1503Y1032D01*
X252Y1031D02*
X302Y1031D01*
X352Y1031D02*
X402Y1031D01*
X452Y1031D02*
X502Y1031D01*
X552Y1031D02*
X602Y1031D01*
X651Y1031D02*
X702Y1031D01*
X751Y1031D02*
X802Y1031D01*
X851Y1031D02*
X902Y1031D01*
X951Y1031D02*
X1002Y1031D01*
X1051Y1031D02*
X1102Y1031D01*
X1151Y1031D02*
X1202Y1031D01*
X1251Y1031D02*
X1302Y1031D01*
X1351Y1031D02*
X1402Y1031D01*
X1451Y1031D02*
X1502Y1031D01*
X253Y1030D02*
X301Y1030D01*
X352Y1030D02*
X401Y1030D01*
X452Y1030D02*
X501Y1030D01*
X552Y1030D02*
X601Y1030D01*
X652Y1030D02*
X701Y1030D01*
X752Y1030D02*
X801Y1030D01*
X852Y1030D02*
X901Y1030D01*
X952Y1030D02*
X1001Y1030D01*
X1052Y1030D02*
X1101Y1030D01*
X1152Y1030D02*
X1201Y1030D01*
X1252Y1030D02*
X1301Y1030D01*
X1352Y1030D02*
X1401Y1030D01*
X1452Y1030D02*
X1501Y1030D01*
X253Y1029D02*
X300Y1029D01*
X353Y1029D02*
X400Y1029D01*
X453Y1029D02*
X500Y1029D01*
X553Y1029D02*
X600Y1029D01*
X653Y1029D02*
X700Y1029D01*
X753Y1029D02*
X800Y1029D01*
X853Y1029D02*
X900Y1029D01*
X953Y1029D02*
X1000Y1029D01*
X1053Y1029D02*
X1100Y1029D01*
X1153Y1029D02*
X1200Y1029D01*
X1253Y1029D02*
X1300Y1029D01*
X1353Y1029D02*
X1400Y1029D01*
X1453Y1029D02*
X1500Y1029D01*
X255Y1028D02*
X299Y1028D01*
X355Y1028D02*
X399Y1028D01*
X455Y1028D02*
X499Y1028D01*
X555Y1028D02*
X599Y1028D01*
X654Y1028D02*
X699Y1028D01*
X754Y1028D02*
X799Y1028D01*
X854Y1028D02*
X899Y1028D01*
X954Y1028D02*
X999Y1028D01*
X1054Y1028D02*
X1099Y1028D01*
X1154Y1028D02*
X1199Y1028D01*
X1254Y1028D02*
X1299Y1028D01*
X1354Y1028D02*
X1399Y1028D01*
X1454Y1028D02*
X1499Y1028D01*
X256Y1027D02*
X298Y1027D01*
X356Y1027D02*
X398Y1027D01*
X456Y1027D02*
X498Y1027D01*
X556Y1027D02*
X598Y1027D01*
X656Y1027D02*
X698Y1027D01*
X756Y1027D02*
X798Y1027D01*
X856Y1027D02*
X898Y1027D01*
X956Y1027D02*
X998Y1027D01*
X1056Y1027D02*
X1098Y1027D01*
X1155Y1027D02*
X1198Y1027D01*
X1255Y1027D02*
X1298Y1027D01*
X1355Y1027D02*
X1398Y1027D01*
X1455Y1027D02*
X1498Y1027D01*
X257Y1026D02*
X297Y1026D01*
X357Y1026D02*
X397Y1026D01*
X457Y1026D02*
X497Y1026D01*
X557Y1026D02*
X597Y1026D01*
X657Y1026D02*
X697Y1026D01*
X757Y1026D02*
X797Y1026D01*
X857Y1026D02*
X896Y1026D01*
X957Y1026D02*
X996Y1026D01*
X1057Y1026D02*
X1096Y1026D01*
X1157Y1026D02*
X1196Y1026D01*
X1257Y1026D02*
X1296Y1026D01*
X1357Y1026D02*
X1396Y1026D01*
X1457Y1026D02*
X1496Y1026D01*
X258Y1025D02*
X295Y1025D01*
X358Y1025D02*
X395Y1025D01*
X458Y1025D02*
X495Y1025D01*
X558Y1025D02*
X595Y1025D01*
X658Y1025D02*
X695Y1025D01*
X758Y1025D02*
X795Y1025D01*
X858Y1025D02*
X895Y1025D01*
X958Y1025D02*
X995Y1025D01*
X1058Y1025D02*
X1095Y1025D01*
X1158Y1025D02*
X1195Y1025D01*
X1258Y1025D02*
X1295Y1025D01*
X1358Y1025D02*
X1395Y1025D01*
X1458Y1025D02*
X1495Y1025D01*
X260Y1024D02*
X294Y1024D01*
X360Y1024D02*
X394Y1024D01*
X460Y1024D02*
X494Y1024D01*
X560Y1024D02*
X594Y1024D01*
X660Y1024D02*
X694Y1024D01*
X760Y1024D02*
X794Y1024D01*
X860Y1024D02*
X894Y1024D01*
X960Y1024D02*
X994Y1024D01*
X1060Y1024D02*
X1094Y1024D01*
X1160Y1024D02*
X1194Y1024D01*
X1260Y1024D02*
X1294Y1024D01*
X1360Y1024D02*
X1394Y1024D01*
X1460Y1024D02*
X1493Y1024D01*
X261Y1023D02*
X292Y1023D01*
X361Y1023D02*
X392Y1023D01*
X461Y1023D02*
X492Y1023D01*
X561Y1023D02*
X592Y1023D01*
X661Y1023D02*
X692Y1023D01*
X761Y1023D02*
X792Y1023D01*
X861Y1023D02*
X892Y1023D01*
X961Y1023D02*
X992Y1023D01*
X1061Y1023D02*
X1092Y1023D01*
X1161Y1023D02*
X1192Y1023D01*
X1261Y1023D02*
X1292Y1023D01*
X1361Y1023D02*
X1392Y1023D01*
X1461Y1023D02*
X1492Y1023D01*
X263Y1022D02*
X290Y1022D01*
X363Y1022D02*
X390Y1022D01*
X463Y1022D02*
X490Y1022D01*
X563Y1022D02*
X590Y1022D01*
X663Y1022D02*
X690Y1022D01*
X763Y1022D02*
X790Y1022D01*
X863Y1022D02*
X890Y1022D01*
X963Y1022D02*
X990Y1022D01*
X1063Y1022D02*
X1090Y1022D01*
X1163Y1022D02*
X1190Y1022D01*
X1263Y1022D02*
X1290Y1022D01*
X1363Y1022D02*
X1390Y1022D01*
X1463Y1022D02*
X1490Y1022D01*
X266Y1021D02*
X288Y1021D01*
X366Y1021D02*
X388Y1021D01*
X466Y1021D02*
X488Y1021D01*
X566Y1021D02*
X588Y1021D01*
X666Y1021D02*
X688Y1021D01*
X766Y1021D02*
X788Y1021D01*
X866Y1021D02*
X888Y1021D01*
X966Y1021D02*
X988Y1021D01*
X1066Y1021D02*
X1088Y1021D01*
X1165Y1021D02*
X1188Y1021D01*
X1265Y1021D02*
X1288Y1021D01*
X1365Y1021D02*
X1388Y1021D01*
X1465Y1021D02*
X1488Y1021D01*
X268Y1020D02*
X285Y1020D01*
X368Y1020D02*
X385Y1020D01*
X468Y1020D02*
X485Y1020D01*
X568Y1020D02*
X585Y1020D01*
X668Y1020D02*
X685Y1020D01*
X768Y1020D02*
X785Y1020D01*
X868Y1020D02*
X885Y1020D01*
X968Y1020D02*
X985Y1020D01*
X1068Y1020D02*
X1085Y1020D01*
X1168Y1020D02*
X1185Y1020D01*
X1268Y1020D02*
X1285Y1020D01*
X1368Y1020D02*
X1385Y1020D01*
X1468Y1020D02*
X1485Y1020D01*
X273Y1019D02*
X281Y1019D01*
X373Y1019D02*
X381Y1019D01*
X473Y1019D02*
X481Y1019D01*
X573Y1019D02*
X581Y1019D01*
X673Y1019D02*
X681Y1019D01*
X773Y1019D02*
X781Y1019D01*
X873Y1019D02*
X881Y1019D01*
X973Y1019D02*
X981Y1019D01*
X1073Y1019D02*
X1081Y1019D01*
X1173Y1019D02*
X1181Y1019D01*
X1273Y1019D02*
X1281Y1019D01*
X1373Y1019D02*
X1381Y1019D01*
X1473Y1019D02*
X1480Y1019D01*
X271Y988D02*
X282Y988D01*
X371Y988D02*
X382Y988D01*
X471Y988D02*
X482Y988D01*
X571Y988D02*
X582Y988D01*
X671Y988D02*
X682Y988D01*
X771Y988D02*
X782Y988D01*
X871Y988D02*
X882Y988D01*
X971Y988D02*
X982Y988D01*
X1071Y988D02*
X1082Y988D01*
X1171Y988D02*
X1182Y988D01*
X1271Y988D02*
X1282Y988D01*
X1371Y988D02*
X1382Y988D01*
X1471Y988D02*
X1482Y988D01*
X268Y987D02*
X286Y987D01*
X368Y987D02*
X386Y987D01*
X468Y987D02*
X486Y987D01*
X568Y987D02*
X586Y987D01*
X668Y987D02*
X686Y987D01*
X768Y987D02*
X786Y987D01*
X867Y987D02*
X886Y987D01*
X967Y987D02*
X986Y987D01*
X1067Y987D02*
X1086Y987D01*
X1167Y987D02*
X1186Y987D01*
X1267Y987D02*
X1286Y987D01*
X1367Y987D02*
X1386Y987D01*
X1467Y987D02*
X1486Y987D01*
X265Y986D02*
X289Y986D01*
X365Y986D02*
X389Y986D01*
X465Y986D02*
X489Y986D01*
X565Y986D02*
X589Y986D01*
X665Y986D02*
X688Y986D01*
X765Y986D02*
X788Y986D01*
X865Y986D02*
X888Y986D01*
X965Y986D02*
X988Y986D01*
X1065Y986D02*
X1088Y986D01*
X1165Y986D02*
X1188Y986D01*
X1265Y986D02*
X1288Y986D01*
X1365Y986D02*
X1388Y986D01*
X1465Y986D02*
X1488Y986D01*
X263Y985D02*
X291Y985D01*
X363Y985D02*
X391Y985D01*
X463Y985D02*
X491Y985D01*
X563Y985D02*
X591Y985D01*
X663Y985D02*
X691Y985D01*
X763Y985D02*
X791Y985D01*
X863Y985D02*
X891Y985D01*
X963Y985D02*
X991Y985D01*
X1063Y985D02*
X1091Y985D01*
X1163Y985D02*
X1190Y985D01*
X1263Y985D02*
X1290Y985D01*
X1363Y985D02*
X1390Y985D01*
X1463Y985D02*
X1490Y985D01*
X261Y984D02*
X293Y984D01*
X361Y984D02*
X393Y984D01*
X461Y984D02*
X493Y984D01*
X561Y984D02*
X592Y984D01*
X661Y984D02*
X692Y984D01*
X761Y984D02*
X792Y984D01*
X861Y984D02*
X892Y984D01*
X961Y984D02*
X992Y984D01*
X1061Y984D02*
X1092Y984D01*
X1161Y984D02*
X1192Y984D01*
X1261Y984D02*
X1292Y984D01*
X1361Y984D02*
X1392Y984D01*
X1461Y984D02*
X1492Y984D01*
X259Y983D02*
X294Y983D01*
X359Y983D02*
X394Y983D01*
X459Y983D02*
X494Y983D01*
X559Y983D02*
X594Y983D01*
X659Y983D02*
X694Y983D01*
X759Y983D02*
X794Y983D01*
X859Y983D02*
X894Y983D01*
X959Y983D02*
X994Y983D01*
X1059Y983D02*
X1094Y983D01*
X1159Y983D02*
X1194Y983D01*
X1259Y983D02*
X1294Y983D01*
X1359Y983D02*
X1394Y983D01*
X1459Y983D02*
X1494Y983D01*
X258Y982D02*
X296Y982D01*
X358Y982D02*
X396Y982D01*
X458Y982D02*
X496Y982D01*
X558Y982D02*
X596Y982D01*
X658Y982D02*
X696Y982D01*
X758Y982D02*
X796Y982D01*
X858Y982D02*
X896Y982D01*
X958Y982D02*
X996Y982D01*
X1058Y982D02*
X1095Y982D01*
X1158Y982D02*
X1195Y982D01*
X1258Y982D02*
X1295Y982D01*
X1358Y982D02*
X1395Y982D01*
X1458Y982D02*
X1495Y982D01*
X257Y981D02*
X297Y981D01*
X357Y981D02*
X397Y981D01*
X457Y981D02*
X497Y981D01*
X557Y981D02*
X597Y981D01*
X657Y981D02*
X697Y981D01*
X757Y981D02*
X797Y981D01*
X857Y981D02*
X897Y981D01*
X956Y981D02*
X997Y981D01*
X1056Y981D02*
X1097Y981D01*
X1156Y981D02*
X1197Y981D01*
X1256Y981D02*
X1297Y981D01*
X1356Y981D02*
X1397Y981D01*
X1456Y981D02*
X1497Y981D01*
X255Y980D02*
X298Y980D01*
X355Y980D02*
X398Y980D01*
X455Y980D02*
X498Y980D01*
X555Y980D02*
X598Y980D01*
X655Y980D02*
X698Y980D01*
X755Y980D02*
X798Y980D01*
X855Y980D02*
X898Y980D01*
X955Y980D02*
X998Y980D01*
X1055Y980D02*
X1098Y980D01*
X1155Y980D02*
X1198Y980D01*
X1255Y980D02*
X1298Y980D01*
X1355Y980D02*
X1398Y980D01*
X1455Y980D02*
X1498Y980D01*
X254Y979D02*
X299Y979D01*
X354Y979D02*
X399Y979D01*
X454Y979D02*
X499Y979D01*
X554Y979D02*
X599Y979D01*
X654Y979D02*
X699Y979D01*
X754Y979D02*
X799Y979D01*
X854Y979D02*
X899Y979D01*
X954Y979D02*
X999Y979D01*
X1054Y979D02*
X1099Y979D01*
X1154Y979D02*
X1199Y979D01*
X1254Y979D02*
X1299Y979D01*
X1354Y979D02*
X1399Y979D01*
X1454Y979D02*
X1499Y979D01*
X253Y978D02*
X300Y978D01*
X353Y978D02*
X400Y978D01*
X453Y978D02*
X500Y978D01*
X553Y978D02*
X600Y978D01*
X653Y978D02*
X700Y978D01*
X753Y978D02*
X800Y978D01*
X853Y978D02*
X900Y978D01*
X953Y978D02*
X1000Y978D01*
X1053Y978D02*
X1100Y978D01*
X1153Y978D02*
X1200Y978D01*
X1253Y978D02*
X1300Y978D01*
X1353Y978D02*
X1400Y978D01*
X1453Y978D02*
X1500Y978D01*
X252Y977D02*
X301Y977D01*
X352Y977D02*
X401Y977D01*
X452Y977D02*
X501Y977D01*
X552Y977D02*
X601Y977D01*
X652Y977D02*
X701Y977D01*
X752Y977D02*
X801Y977D01*
X852Y977D02*
X901Y977D01*
X952Y977D02*
X1001Y977D01*
X1052Y977D02*
X1101Y977D01*
X1152Y977D02*
X1201Y977D01*
X1252Y977D02*
X1301Y977D01*
X1352Y977D02*
X1401Y977D01*
X1452Y977D02*
X1501Y977D01*
X251Y976D02*
X302Y976D01*
X351Y976D02*
X402Y976D01*
X451Y976D02*
X502Y976D01*
X551Y976D02*
X602Y976D01*
X651Y976D02*
X702Y976D01*
X751Y976D02*
X802Y976D01*
X851Y976D02*
X902Y976D01*
X951Y976D02*
X1002Y976D01*
X1051Y976D02*
X1102Y976D01*
X1151Y976D02*
X1202Y976D01*
X1251Y976D02*
X1302Y976D01*
X1351Y976D02*
X1402Y976D01*
X1451Y976D02*
X1502Y976D01*
X250Y975D02*
X303Y975D01*
X350Y975D02*
X403Y975D01*
X450Y975D02*
X503Y975D01*
X550Y975D02*
X603Y975D01*
X650Y975D02*
X703Y975D01*
X750Y975D02*
X803Y975D01*
X850Y975D02*
X903Y975D01*
X950Y975D02*
X1003Y975D01*
X1050Y975D02*
X1103Y975D01*
X1150Y975D02*
X1203Y975D01*
X1250Y975D02*
X1303Y975D01*
X1350Y975D02*
X1403Y975D01*
X1450Y975D02*
X1503Y975D01*
X250Y974D02*
X304Y974D01*
X350Y974D02*
X404Y974D01*
X450Y974D02*
X504Y974D01*
X550Y974D02*
X604Y974D01*
X650Y974D02*
X704Y974D01*
X750Y974D02*
X804Y974D01*
X850Y974D02*
X904Y974D01*
X950Y974D02*
X1004Y974D01*
X1050Y974D02*
X1104Y974D01*
X1150Y974D02*
X1204Y974D01*
X1250Y974D02*
X1304Y974D01*
X1349Y974D02*
X1404Y974D01*
X1449Y974D02*
X1504Y974D01*
X249Y973D02*
X305Y973D01*
X349Y973D02*
X405Y973D01*
X449Y973D02*
X505Y973D01*
X549Y973D02*
X605Y973D01*
X649Y973D02*
X705Y973D01*
X749Y973D02*
X805Y973D01*
X849Y973D02*
X905Y973D01*
X949Y973D02*
X1005Y973D01*
X1049Y973D02*
X1104Y973D01*
X1149Y973D02*
X1204Y973D01*
X1249Y973D02*
X1304Y973D01*
X1349Y973D02*
X1404Y973D01*
X1449Y973D02*
X1504Y973D01*
X248Y972D02*
X305Y972D01*
X348Y972D02*
X405Y972D01*
X448Y972D02*
X505Y972D01*
X548Y972D02*
X605Y972D01*
X648Y972D02*
X705Y972D01*
X748Y972D02*
X805Y972D01*
X848Y972D02*
X905Y972D01*
X948Y972D02*
X1005Y972D01*
X1048Y972D02*
X1105Y972D01*
X1148Y972D02*
X1205Y972D01*
X1248Y972D02*
X1305Y972D01*
X1348Y972D02*
X1405Y972D01*
X1448Y972D02*
X1505Y972D01*
X248Y971D02*
X306Y971D01*
X348Y971D02*
X406Y971D01*
X448Y971D02*
X506Y971D01*
X548Y971D02*
X606Y971D01*
X648Y971D02*
X706Y971D01*
X748Y971D02*
X806Y971D01*
X847Y971D02*
X906Y971D01*
X947Y971D02*
X1006Y971D01*
X1047Y971D02*
X1106Y971D01*
X1147Y971D02*
X1206Y971D01*
X1247Y971D02*
X1306Y971D01*
X1347Y971D02*
X1406Y971D01*
X1447Y971D02*
X1506Y971D01*
X247Y970D02*
X307Y970D01*
X347Y970D02*
X407Y970D01*
X447Y970D02*
X507Y970D01*
X547Y970D02*
X607Y970D01*
X647Y970D02*
X707Y970D01*
X747Y970D02*
X807Y970D01*
X847Y970D02*
X906Y970D01*
X947Y970D02*
X1006Y970D01*
X1047Y970D02*
X1106Y970D01*
X1147Y970D02*
X1206Y970D01*
X1247Y970D02*
X1306Y970D01*
X1347Y970D02*
X1406Y970D01*
X1447Y970D02*
X1506Y970D01*
X246Y969D02*
X307Y969D01*
X346Y969D02*
X407Y969D01*
X446Y969D02*
X507Y969D01*
X546Y969D02*
X607Y969D01*
X646Y969D02*
X707Y969D01*
X746Y969D02*
X807Y969D01*
X846Y969D02*
X907Y969D01*
X946Y969D02*
X1007Y969D01*
X1046Y969D02*
X1107Y969D01*
X1146Y969D02*
X1207Y969D01*
X1246Y969D02*
X1307Y969D01*
X1346Y969D02*
X1407Y969D01*
X1446Y969D02*
X1507Y969D01*
X246Y968D02*
X271Y968D01*
X282Y968D02*
X308Y968D01*
X346Y968D02*
X371Y968D01*
X382Y968D02*
X408Y968D01*
X446Y968D02*
X471Y968D01*
X482Y968D02*
X508Y968D01*
X546Y968D02*
X571Y968D01*
X582Y968D02*
X608Y968D01*
X646Y968D02*
X671Y968D01*
X682Y968D02*
X708Y968D01*
X746Y968D02*
X771Y968D01*
X782Y968D02*
X808Y968D01*
X846Y968D02*
X871Y968D01*
X882Y968D02*
X908Y968D01*
X946Y968D02*
X971Y968D01*
X982Y968D02*
X1008Y968D01*
X1046Y968D02*
X1071Y968D01*
X1082Y968D02*
X1108Y968D01*
X1146Y968D02*
X1171Y968D01*
X1182Y968D02*
X1207Y968D01*
X1246Y968D02*
X1271Y968D01*
X1282Y968D02*
X1307Y968D01*
X1346Y968D02*
X1371Y968D01*
X1382Y968D02*
X1407Y968D01*
X1446Y968D02*
X1471Y968D01*
X1482Y968D02*
X1507Y968D01*
X245Y967D02*
X268Y967D01*
X285Y967D02*
X308Y967D01*
X345Y967D02*
X368Y967D01*
X385Y967D02*
X408Y967D01*
X445Y967D02*
X468Y967D01*
X485Y967D02*
X508Y967D01*
X545Y967D02*
X568Y967D01*
X585Y967D02*
X608Y967D01*
X645Y967D02*
X668Y967D01*
X685Y967D02*
X708Y967D01*
X745Y967D02*
X768Y967D01*
X785Y967D02*
X808Y967D01*
X845Y967D02*
X868Y967D01*
X885Y967D02*
X908Y967D01*
X945Y967D02*
X968Y967D01*
X985Y967D02*
X1008Y967D01*
X1045Y967D02*
X1068Y967D01*
X1085Y967D02*
X1108Y967D01*
X1145Y967D02*
X1168Y967D01*
X1185Y967D02*
X1208Y967D01*
X1245Y967D02*
X1268Y967D01*
X1285Y967D02*
X1308Y967D01*
X1345Y967D02*
X1368Y967D01*
X1385Y967D02*
X1408Y967D01*
X1445Y967D02*
X1468Y967D01*
X1485Y967D02*
X1508Y967D01*
X245Y966D02*
X267Y966D01*
X287Y966D02*
X309Y966D01*
X345Y966D02*
X367Y966D01*
X387Y966D02*
X409Y966D01*
X445Y966D02*
X467Y966D01*
X487Y966D02*
X509Y966D01*
X545Y966D02*
X567Y966D01*
X587Y966D02*
X609Y966D01*
X645Y966D02*
X667Y966D01*
X687Y966D02*
X709Y966D01*
X745Y966D02*
X767Y966D01*
X787Y966D02*
X809Y966D01*
X845Y966D02*
X867Y966D01*
X887Y966D02*
X908Y966D01*
X945Y966D02*
X967Y966D01*
X987Y966D02*
X1008Y966D01*
X1045Y966D02*
X1067Y966D01*
X1087Y966D02*
X1108Y966D01*
X1145Y966D02*
X1167Y966D01*
X1187Y966D02*
X1208Y966D01*
X1245Y966D02*
X1267Y966D01*
X1287Y966D02*
X1308Y966D01*
X1345Y966D02*
X1367Y966D01*
X1387Y966D02*
X1408Y966D01*
X1445Y966D02*
X1467Y966D01*
X1487Y966D02*
X1508Y966D01*
X245Y965D02*
X265Y965D01*
X288Y965D02*
X309Y965D01*
X345Y965D02*
X365Y965D01*
X388Y965D02*
X409Y965D01*
X445Y965D02*
X465Y965D01*
X488Y965D02*
X509Y965D01*
X545Y965D02*
X565Y965D01*
X588Y965D02*
X609Y965D01*
X644Y965D02*
X665Y965D01*
X688Y965D02*
X709Y965D01*
X744Y965D02*
X765Y965D01*
X788Y965D02*
X809Y965D01*
X844Y965D02*
X865Y965D01*
X888Y965D02*
X909Y965D01*
X944Y965D02*
X965Y965D01*
X988Y965D02*
X1009Y965D01*
X1044Y965D02*
X1065Y965D01*
X1088Y965D02*
X1109Y965D01*
X1144Y965D02*
X1165Y965D01*
X1188Y965D02*
X1209Y965D01*
X1244Y965D02*
X1265Y965D01*
X1288Y965D02*
X1309Y965D01*
X1344Y965D02*
X1365Y965D01*
X1388Y965D02*
X1409Y965D01*
X1444Y965D02*
X1465Y965D01*
X1488Y965D02*
X1509Y965D01*
X244Y964D02*
X265Y964D01*
X289Y964D02*
X309Y964D01*
X344Y964D02*
X365Y964D01*
X389Y964D02*
X409Y964D01*
X444Y964D02*
X465Y964D01*
X489Y964D02*
X509Y964D01*
X544Y964D02*
X565Y964D01*
X589Y964D02*
X609Y964D01*
X644Y964D02*
X664Y964D01*
X689Y964D02*
X709Y964D01*
X744Y964D02*
X764Y964D01*
X789Y964D02*
X809Y964D01*
X844Y964D02*
X864Y964D01*
X889Y964D02*
X909Y964D01*
X944Y964D02*
X964Y964D01*
X989Y964D02*
X1009Y964D01*
X1044Y964D02*
X1064Y964D01*
X1089Y964D02*
X1109Y964D01*
X1144Y964D02*
X1164Y964D01*
X1189Y964D02*
X1209Y964D01*
X1244Y964D02*
X1264Y964D01*
X1289Y964D02*
X1309Y964D01*
X1344Y964D02*
X1364Y964D01*
X1389Y964D02*
X1409Y964D01*
X1444Y964D02*
X1464Y964D01*
X1489Y964D02*
X1509Y964D01*
X244Y963D02*
X264Y963D01*
X290Y963D02*
X310Y963D01*
X344Y963D02*
X364Y963D01*
X390Y963D02*
X410Y963D01*
X444Y963D02*
X464Y963D01*
X490Y963D02*
X510Y963D01*
X544Y963D02*
X564Y963D01*
X590Y963D02*
X610Y963D01*
X644Y963D02*
X664Y963D01*
X690Y963D02*
X710Y963D01*
X744Y963D02*
X764Y963D01*
X790Y963D02*
X810Y963D01*
X844Y963D02*
X864Y963D01*
X890Y963D02*
X910Y963D01*
X944Y963D02*
X964Y963D01*
X990Y963D02*
X1010Y963D01*
X1044Y963D02*
X1064Y963D01*
X1090Y963D02*
X1110Y963D01*
X1144Y963D02*
X1164Y963D01*
X1190Y963D02*
X1210Y963D01*
X1244Y963D02*
X1264Y963D01*
X1290Y963D02*
X1310Y963D01*
X1344Y963D02*
X1364Y963D01*
X1390Y963D02*
X1410Y963D01*
X1444Y963D02*
X1464Y963D01*
X1490Y963D02*
X1510Y963D01*
X244Y962D02*
X263Y962D01*
X290Y962D02*
X310Y962D01*
X344Y962D02*
X363Y962D01*
X390Y962D02*
X410Y962D01*
X444Y962D02*
X463Y962D01*
X490Y962D02*
X510Y962D01*
X543Y962D02*
X563Y962D01*
X590Y962D02*
X610Y962D01*
X643Y962D02*
X663Y962D01*
X690Y962D02*
X710Y962D01*
X743Y962D02*
X763Y962D01*
X790Y962D02*
X810Y962D01*
X843Y962D02*
X863Y962D01*
X890Y962D02*
X910Y962D01*
X943Y962D02*
X963Y962D01*
X990Y962D02*
X1010Y962D01*
X1043Y962D02*
X1063Y962D01*
X1090Y962D02*
X1110Y962D01*
X1143Y962D02*
X1163Y962D01*
X1190Y962D02*
X1210Y962D01*
X1243Y962D02*
X1263Y962D01*
X1290Y962D02*
X1310Y962D01*
X1343Y962D02*
X1363Y962D01*
X1390Y962D02*
X1410Y962D01*
X1443Y962D02*
X1463Y962D01*
X1490Y962D02*
X1510Y962D01*
X243Y961D02*
X263Y961D01*
X291Y961D02*
X310Y961D01*
X343Y961D02*
X363Y961D01*
X391Y961D02*
X410Y961D01*
X443Y961D02*
X463Y961D01*
X491Y961D02*
X510Y961D01*
X543Y961D02*
X563Y961D01*
X591Y961D02*
X610Y961D01*
X643Y961D02*
X663Y961D01*
X691Y961D02*
X710Y961D01*
X743Y961D02*
X763Y961D01*
X791Y961D02*
X810Y961D01*
X843Y961D02*
X863Y961D01*
X891Y961D02*
X910Y961D01*
X943Y961D02*
X963Y961D01*
X991Y961D02*
X1010Y961D01*
X1043Y961D02*
X1063Y961D01*
X1091Y961D02*
X1110Y961D01*
X1143Y961D02*
X1163Y961D01*
X1191Y961D02*
X1210Y961D01*
X1243Y961D02*
X1263Y961D01*
X1291Y961D02*
X1310Y961D01*
X1343Y961D02*
X1363Y961D01*
X1391Y961D02*
X1410Y961D01*
X1443Y961D02*
X1462Y961D01*
X1491Y961D02*
X1510Y961D01*
X243Y960D02*
X262Y960D01*
X291Y960D02*
X311Y960D01*
X343Y960D02*
X362Y960D01*
X391Y960D02*
X411Y960D01*
X443Y960D02*
X462Y960D01*
X491Y960D02*
X511Y960D01*
X543Y960D02*
X562Y960D01*
X591Y960D02*
X611Y960D01*
X643Y960D02*
X662Y960D01*
X691Y960D02*
X710Y960D01*
X743Y960D02*
X762Y960D01*
X791Y960D02*
X810Y960D01*
X843Y960D02*
X862Y960D01*
X891Y960D02*
X910Y960D01*
X943Y960D02*
X962Y960D01*
X991Y960D02*
X1010Y960D01*
X1043Y960D02*
X1062Y960D01*
X1091Y960D02*
X1110Y960D01*
X1143Y960D02*
X1162Y960D01*
X1191Y960D02*
X1210Y960D01*
X1243Y960D02*
X1262Y960D01*
X1291Y960D02*
X1310Y960D01*
X1343Y960D02*
X1362Y960D01*
X1391Y960D02*
X1410Y960D01*
X1443Y960D02*
X1462Y960D01*
X1491Y960D02*
X1510Y960D01*
X243Y959D02*
X262Y959D01*
X292Y959D02*
X311Y959D01*
X343Y959D02*
X362Y959D01*
X392Y959D02*
X411Y959D01*
X443Y959D02*
X462Y959D01*
X492Y959D02*
X511Y959D01*
X543Y959D02*
X562Y959D01*
X592Y959D02*
X611Y959D01*
X643Y959D02*
X662Y959D01*
X691Y959D02*
X711Y959D01*
X743Y959D02*
X762Y959D01*
X791Y959D02*
X811Y959D01*
X843Y959D02*
X862Y959D01*
X891Y959D02*
X911Y959D01*
X943Y959D02*
X962Y959D01*
X991Y959D02*
X1011Y959D01*
X1043Y959D02*
X1062Y959D01*
X1091Y959D02*
X1111Y959D01*
X1143Y959D02*
X1162Y959D01*
X1191Y959D02*
X1211Y959D01*
X1243Y959D02*
X1262Y959D01*
X1291Y959D02*
X1311Y959D01*
X1343Y959D02*
X1362Y959D01*
X1391Y959D02*
X1411Y959D01*
X1443Y959D02*
X1462Y959D01*
X1491Y959D02*
X1510Y959D01*
X243Y958D02*
X262Y958D01*
X292Y958D02*
X311Y958D01*
X343Y958D02*
X362Y958D01*
X392Y958D02*
X411Y958D01*
X443Y958D02*
X462Y958D01*
X492Y958D02*
X511Y958D01*
X543Y958D02*
X562Y958D01*
X592Y958D02*
X611Y958D01*
X643Y958D02*
X662Y958D01*
X692Y958D02*
X711Y958D01*
X743Y958D02*
X762Y958D01*
X792Y958D02*
X811Y958D01*
X843Y958D02*
X862Y958D01*
X892Y958D02*
X911Y958D01*
X943Y958D02*
X962Y958D01*
X992Y958D02*
X1011Y958D01*
X1042Y958D02*
X1062Y958D01*
X1092Y958D02*
X1111Y958D01*
X1142Y958D02*
X1162Y958D01*
X1192Y958D02*
X1211Y958D01*
X1242Y958D02*
X1262Y958D01*
X1292Y958D02*
X1311Y958D01*
X1342Y958D02*
X1362Y958D01*
X1392Y958D02*
X1411Y958D01*
X1442Y958D02*
X1462Y958D01*
X1492Y958D02*
X1511Y958D01*
X243Y957D02*
X262Y957D01*
X292Y957D02*
X311Y957D01*
X342Y957D02*
X362Y957D01*
X392Y957D02*
X411Y957D01*
X442Y957D02*
X462Y957D01*
X492Y957D02*
X511Y957D01*
X542Y957D02*
X561Y957D01*
X592Y957D02*
X611Y957D01*
X642Y957D02*
X661Y957D01*
X692Y957D02*
X711Y957D01*
X742Y957D02*
X761Y957D01*
X792Y957D02*
X811Y957D01*
X842Y957D02*
X861Y957D01*
X892Y957D02*
X911Y957D01*
X942Y957D02*
X961Y957D01*
X992Y957D02*
X1011Y957D01*
X1042Y957D02*
X1061Y957D01*
X1092Y957D02*
X1111Y957D01*
X1142Y957D02*
X1161Y957D01*
X1192Y957D02*
X1211Y957D01*
X1242Y957D02*
X1261Y957D01*
X1292Y957D02*
X1311Y957D01*
X1342Y957D02*
X1361Y957D01*
X1392Y957D02*
X1411Y957D01*
X1442Y957D02*
X1461Y957D01*
X1492Y957D02*
X1511Y957D01*
X242Y956D02*
X261Y956D01*
X292Y956D02*
X311Y956D01*
X342Y956D02*
X361Y956D01*
X392Y956D02*
X411Y956D01*
X442Y956D02*
X461Y956D01*
X492Y956D02*
X511Y956D01*
X542Y956D02*
X561Y956D01*
X592Y956D02*
X611Y956D01*
X642Y956D02*
X661Y956D01*
X692Y956D02*
X711Y956D01*
X742Y956D02*
X761Y956D01*
X792Y956D02*
X811Y956D01*
X842Y956D02*
X861Y956D01*
X892Y956D02*
X911Y956D01*
X942Y956D02*
X961Y956D01*
X992Y956D02*
X1011Y956D01*
X1042Y956D02*
X1061Y956D01*
X1092Y956D02*
X1111Y956D01*
X1142Y956D02*
X1161Y956D01*
X1192Y956D02*
X1211Y956D01*
X1242Y956D02*
X1261Y956D01*
X1292Y956D02*
X1311Y956D01*
X1342Y956D02*
X1361Y956D01*
X1392Y956D02*
X1411Y956D01*
X1442Y956D02*
X1461Y956D01*
X1492Y956D02*
X1511Y956D01*
X242Y955D02*
X261Y955D01*
X292Y955D02*
X311Y955D01*
X342Y955D02*
X361Y955D01*
X392Y955D02*
X411Y955D01*
X442Y955D02*
X461Y955D01*
X492Y955D02*
X511Y955D01*
X542Y955D02*
X561Y955D01*
X592Y955D02*
X611Y955D01*
X642Y955D02*
X661Y955D01*
X692Y955D02*
X711Y955D01*
X742Y955D02*
X761Y955D01*
X792Y955D02*
X811Y955D01*
X842Y955D02*
X861Y955D01*
X892Y955D02*
X911Y955D01*
X942Y955D02*
X961Y955D01*
X992Y955D02*
X1011Y955D01*
X1042Y955D02*
X1061Y955D01*
X1092Y955D02*
X1111Y955D01*
X1142Y955D02*
X1161Y955D01*
X1192Y955D02*
X1211Y955D01*
X1242Y955D02*
X1261Y955D01*
X1292Y955D02*
X1311Y955D01*
X1342Y955D02*
X1361Y955D01*
X1392Y955D02*
X1411Y955D01*
X1442Y955D02*
X1461Y955D01*
X1492Y955D02*
X1511Y955D01*
X242Y954D02*
X261Y954D01*
X292Y954D02*
X311Y954D01*
X342Y954D02*
X361Y954D01*
X392Y954D02*
X411Y954D01*
X442Y954D02*
X461Y954D01*
X492Y954D02*
X511Y954D01*
X542Y954D02*
X561Y954D01*
X592Y954D02*
X611Y954D01*
X642Y954D02*
X661Y954D01*
X692Y954D02*
X711Y954D01*
X742Y954D02*
X761Y954D01*
X792Y954D02*
X811Y954D01*
X842Y954D02*
X861Y954D01*
X892Y954D02*
X911Y954D01*
X942Y954D02*
X961Y954D01*
X992Y954D02*
X1011Y954D01*
X1042Y954D02*
X1061Y954D01*
X1092Y954D02*
X1111Y954D01*
X1142Y954D02*
X1161Y954D01*
X1192Y954D02*
X1211Y954D01*
X1242Y954D02*
X1261Y954D01*
X1292Y954D02*
X1311Y954D01*
X1342Y954D02*
X1361Y954D01*
X1392Y954D02*
X1411Y954D01*
X1442Y954D02*
X1461Y954D01*
X1492Y954D02*
X1511Y954D01*
X242Y953D02*
X261Y953D01*
X292Y953D02*
X311Y953D01*
X342Y953D02*
X361Y953D01*
X392Y953D02*
X411Y953D01*
X442Y953D02*
X461Y953D01*
X492Y953D02*
X511Y953D01*
X542Y953D02*
X561Y953D01*
X592Y953D02*
X611Y953D01*
X642Y953D02*
X661Y953D01*
X692Y953D02*
X711Y953D01*
X742Y953D02*
X761Y953D01*
X792Y953D02*
X811Y953D01*
X842Y953D02*
X861Y953D01*
X892Y953D02*
X911Y953D01*
X942Y953D02*
X961Y953D01*
X992Y953D02*
X1011Y953D01*
X1042Y953D02*
X1061Y953D01*
X1092Y953D02*
X1111Y953D01*
X1142Y953D02*
X1161Y953D01*
X1192Y953D02*
X1211Y953D01*
X1242Y953D02*
X1261Y953D01*
X1292Y953D02*
X1311Y953D01*
X1342Y953D02*
X1361Y953D01*
X1392Y953D02*
X1411Y953D01*
X1442Y953D02*
X1461Y953D01*
X1492Y953D02*
X1511Y953D01*
X242Y952D02*
X261Y952D01*
X292Y952D02*
X311Y952D01*
X342Y952D02*
X361Y952D01*
X392Y952D02*
X411Y952D01*
X442Y952D02*
X461Y952D01*
X492Y952D02*
X511Y952D01*
X542Y952D02*
X561Y952D01*
X592Y952D02*
X611Y952D01*
X642Y952D02*
X661Y952D01*
X692Y952D02*
X711Y952D01*
X742Y952D02*
X761Y952D01*
X792Y952D02*
X811Y952D01*
X842Y952D02*
X861Y952D01*
X892Y952D02*
X911Y952D01*
X942Y952D02*
X961Y952D01*
X992Y952D02*
X1011Y952D01*
X1042Y952D02*
X1061Y952D01*
X1092Y952D02*
X1111Y952D01*
X1142Y952D02*
X1161Y952D01*
X1192Y952D02*
X1211Y952D01*
X1242Y952D02*
X1261Y952D01*
X1292Y952D02*
X1311Y952D01*
X1342Y952D02*
X1361Y952D01*
X1392Y952D02*
X1411Y952D01*
X1442Y952D02*
X1461Y952D01*
X1492Y952D02*
X1511Y952D01*
X242Y951D02*
X261Y951D01*
X292Y951D02*
X311Y951D01*
X342Y951D02*
X361Y951D01*
X392Y951D02*
X411Y951D01*
X442Y951D02*
X461Y951D01*
X492Y951D02*
X511Y951D01*
X542Y951D02*
X561Y951D01*
X592Y951D02*
X611Y951D01*
X642Y951D02*
X661Y951D01*
X692Y951D02*
X711Y951D01*
X742Y951D02*
X761Y951D01*
X792Y951D02*
X811Y951D01*
X842Y951D02*
X861Y951D01*
X892Y951D02*
X911Y951D01*
X942Y951D02*
X961Y951D01*
X992Y951D02*
X1011Y951D01*
X1042Y951D02*
X1061Y951D01*
X1092Y951D02*
X1111Y951D01*
X1142Y951D02*
X1161Y951D01*
X1192Y951D02*
X1211Y951D01*
X1242Y951D02*
X1261Y951D01*
X1292Y951D02*
X1311Y951D01*
X1342Y951D02*
X1361Y951D01*
X1392Y951D02*
X1411Y951D01*
X1442Y951D02*
X1461Y951D01*
X1492Y951D02*
X1511Y951D01*
X243Y950D02*
X262Y950D01*
X292Y950D02*
X311Y950D01*
X343Y950D02*
X362Y950D01*
X392Y950D02*
X411Y950D01*
X443Y950D02*
X462Y950D01*
X492Y950D02*
X511Y950D01*
X542Y950D02*
X562Y950D01*
X592Y950D02*
X611Y950D01*
X642Y950D02*
X662Y950D01*
X692Y950D02*
X711Y950D01*
X742Y950D02*
X762Y950D01*
X792Y950D02*
X811Y950D01*
X842Y950D02*
X861Y950D01*
X892Y950D02*
X911Y950D01*
X942Y950D02*
X961Y950D01*
X992Y950D02*
X1011Y950D01*
X1042Y950D02*
X1061Y950D01*
X1092Y950D02*
X1111Y950D01*
X1142Y950D02*
X1161Y950D01*
X1192Y950D02*
X1211Y950D01*
X1242Y950D02*
X1261Y950D01*
X1292Y950D02*
X1311Y950D01*
X1342Y950D02*
X1361Y950D01*
X1392Y950D02*
X1411Y950D01*
X1442Y950D02*
X1461Y950D01*
X1492Y950D02*
X1511Y950D01*
X243Y949D02*
X262Y949D01*
X292Y949D02*
X311Y949D01*
X343Y949D02*
X362Y949D01*
X392Y949D02*
X411Y949D01*
X443Y949D02*
X462Y949D01*
X492Y949D02*
X511Y949D01*
X543Y949D02*
X562Y949D01*
X592Y949D02*
X611Y949D01*
X643Y949D02*
X662Y949D01*
X692Y949D02*
X711Y949D01*
X743Y949D02*
X762Y949D01*
X792Y949D02*
X811Y949D01*
X843Y949D02*
X862Y949D01*
X892Y949D02*
X911Y949D01*
X943Y949D02*
X962Y949D01*
X992Y949D02*
X1011Y949D01*
X1043Y949D02*
X1062Y949D01*
X1092Y949D02*
X1111Y949D01*
X1143Y949D02*
X1162Y949D01*
X1192Y949D02*
X1211Y949D01*
X1243Y949D02*
X1262Y949D01*
X1292Y949D02*
X1311Y949D01*
X1342Y949D02*
X1362Y949D01*
X1392Y949D02*
X1411Y949D01*
X1442Y949D02*
X1462Y949D01*
X1491Y949D02*
X1511Y949D01*
X243Y948D02*
X262Y948D01*
X291Y948D02*
X311Y948D01*
X343Y948D02*
X362Y948D01*
X391Y948D02*
X411Y948D01*
X443Y948D02*
X462Y948D01*
X491Y948D02*
X511Y948D01*
X543Y948D02*
X562Y948D01*
X591Y948D02*
X611Y948D01*
X643Y948D02*
X662Y948D01*
X691Y948D02*
X711Y948D01*
X743Y948D02*
X762Y948D01*
X791Y948D02*
X811Y948D01*
X843Y948D02*
X862Y948D01*
X891Y948D02*
X911Y948D01*
X943Y948D02*
X962Y948D01*
X991Y948D02*
X1011Y948D01*
X1043Y948D02*
X1062Y948D01*
X1091Y948D02*
X1111Y948D01*
X1143Y948D02*
X1162Y948D01*
X1191Y948D02*
X1211Y948D01*
X1243Y948D02*
X1262Y948D01*
X1291Y948D02*
X1310Y948D01*
X1343Y948D02*
X1362Y948D01*
X1391Y948D02*
X1410Y948D01*
X1443Y948D02*
X1462Y948D01*
X1491Y948D02*
X1510Y948D01*
X243Y947D02*
X262Y947D01*
X291Y947D02*
X311Y947D01*
X343Y947D02*
X362Y947D01*
X391Y947D02*
X410Y947D01*
X443Y947D02*
X462Y947D01*
X491Y947D02*
X510Y947D01*
X543Y947D02*
X562Y947D01*
X591Y947D02*
X610Y947D01*
X643Y947D02*
X662Y947D01*
X691Y947D02*
X710Y947D01*
X743Y947D02*
X762Y947D01*
X791Y947D02*
X810Y947D01*
X843Y947D02*
X862Y947D01*
X891Y947D02*
X910Y947D01*
X943Y947D02*
X962Y947D01*
X991Y947D02*
X1010Y947D01*
X1043Y947D02*
X1062Y947D01*
X1091Y947D02*
X1110Y947D01*
X1143Y947D02*
X1162Y947D01*
X1191Y947D02*
X1210Y947D01*
X1243Y947D02*
X1262Y947D01*
X1291Y947D02*
X1310Y947D01*
X1343Y947D02*
X1362Y947D01*
X1391Y947D02*
X1410Y947D01*
X1443Y947D02*
X1462Y947D01*
X1491Y947D02*
X1510Y947D01*
X243Y946D02*
X263Y946D01*
X291Y946D02*
X310Y946D01*
X343Y946D02*
X363Y946D01*
X391Y946D02*
X410Y946D01*
X443Y946D02*
X463Y946D01*
X491Y946D02*
X510Y946D01*
X543Y946D02*
X563Y946D01*
X591Y946D02*
X610Y946D01*
X643Y946D02*
X663Y946D01*
X691Y946D02*
X710Y946D01*
X743Y946D02*
X763Y946D01*
X791Y946D02*
X810Y946D01*
X843Y946D02*
X863Y946D01*
X891Y946D02*
X910Y946D01*
X943Y946D02*
X963Y946D01*
X991Y946D02*
X1010Y946D01*
X1043Y946D02*
X1063Y946D01*
X1091Y946D02*
X1110Y946D01*
X1143Y946D02*
X1163Y946D01*
X1191Y946D02*
X1210Y946D01*
X1243Y946D02*
X1263Y946D01*
X1291Y946D02*
X1310Y946D01*
X1343Y946D02*
X1363Y946D01*
X1390Y946D02*
X1410Y946D01*
X1443Y946D02*
X1463Y946D01*
X1490Y946D02*
X1510Y946D01*
X244Y945D02*
X263Y945D01*
X290Y945D02*
X310Y945D01*
X344Y945D02*
X363Y945D01*
X390Y945D02*
X410Y945D01*
X444Y945D02*
X463Y945D01*
X490Y945D02*
X510Y945D01*
X544Y945D02*
X563Y945D01*
X590Y945D02*
X610Y945D01*
X644Y945D02*
X663Y945D01*
X690Y945D02*
X710Y945D01*
X744Y945D02*
X763Y945D01*
X790Y945D02*
X810Y945D01*
X844Y945D02*
X863Y945D01*
X890Y945D02*
X910Y945D01*
X943Y945D02*
X963Y945D01*
X990Y945D02*
X1010Y945D01*
X1043Y945D02*
X1063Y945D01*
X1090Y945D02*
X1110Y945D01*
X1143Y945D02*
X1163Y945D01*
X1190Y945D02*
X1210Y945D01*
X1243Y945D02*
X1263Y945D01*
X1290Y945D02*
X1310Y945D01*
X1343Y945D02*
X1363Y945D01*
X1390Y945D02*
X1410Y945D01*
X1443Y945D02*
X1463Y945D01*
X1490Y945D02*
X1510Y945D01*
X244Y944D02*
X264Y944D01*
X290Y944D02*
X310Y944D01*
X344Y944D02*
X364Y944D01*
X390Y944D02*
X410Y944D01*
X444Y944D02*
X464Y944D01*
X490Y944D02*
X510Y944D01*
X544Y944D02*
X564Y944D01*
X590Y944D02*
X610Y944D01*
X644Y944D02*
X664Y944D01*
X689Y944D02*
X710Y944D01*
X744Y944D02*
X764Y944D01*
X789Y944D02*
X810Y944D01*
X844Y944D02*
X864Y944D01*
X889Y944D02*
X910Y944D01*
X944Y944D02*
X964Y944D01*
X989Y944D02*
X1010Y944D01*
X1044Y944D02*
X1064Y944D01*
X1089Y944D02*
X1110Y944D01*
X1144Y944D02*
X1164Y944D01*
X1189Y944D02*
X1209Y944D01*
X1244Y944D02*
X1264Y944D01*
X1289Y944D02*
X1309Y944D01*
X1344Y944D02*
X1364Y944D01*
X1389Y944D02*
X1409Y944D01*
X1444Y944D02*
X1464Y944D01*
X1489Y944D02*
X1509Y944D01*
X244Y943D02*
X265Y943D01*
X289Y943D02*
X309Y943D01*
X344Y943D02*
X365Y943D01*
X389Y943D02*
X409Y943D01*
X444Y943D02*
X465Y943D01*
X489Y943D02*
X509Y943D01*
X544Y943D02*
X565Y943D01*
X589Y943D02*
X609Y943D01*
X644Y943D02*
X665Y943D01*
X689Y943D02*
X709Y943D01*
X744Y943D02*
X765Y943D01*
X789Y943D02*
X809Y943D01*
X844Y943D02*
X865Y943D01*
X889Y943D02*
X909Y943D01*
X944Y943D02*
X965Y943D01*
X989Y943D02*
X1009Y943D01*
X1044Y943D02*
X1065Y943D01*
X1089Y943D02*
X1109Y943D01*
X1144Y943D02*
X1165Y943D01*
X1189Y943D02*
X1209Y943D01*
X1244Y943D02*
X1265Y943D01*
X1289Y943D02*
X1309Y943D01*
X1344Y943D02*
X1365Y943D01*
X1389Y943D02*
X1409Y943D01*
X1444Y943D02*
X1465Y943D01*
X1489Y943D02*
X1509Y943D01*
X245Y942D02*
X266Y942D01*
X288Y942D02*
X309Y942D01*
X345Y942D02*
X366Y942D01*
X388Y942D02*
X409Y942D01*
X445Y942D02*
X466Y942D01*
X488Y942D02*
X509Y942D01*
X545Y942D02*
X566Y942D01*
X588Y942D02*
X609Y942D01*
X645Y942D02*
X666Y942D01*
X688Y942D02*
X709Y942D01*
X745Y942D02*
X766Y942D01*
X788Y942D02*
X809Y942D01*
X845Y942D02*
X866Y942D01*
X888Y942D02*
X909Y942D01*
X945Y942D02*
X966Y942D01*
X988Y942D02*
X1009Y942D01*
X1045Y942D02*
X1066Y942D01*
X1088Y942D02*
X1109Y942D01*
X1145Y942D02*
X1166Y942D01*
X1188Y942D02*
X1209Y942D01*
X1244Y942D02*
X1266Y942D01*
X1288Y942D02*
X1309Y942D01*
X1344Y942D02*
X1366Y942D01*
X1388Y942D02*
X1409Y942D01*
X1444Y942D02*
X1466Y942D01*
X1487Y942D02*
X1509Y942D01*
X245Y941D02*
X267Y941D01*
X286Y941D02*
X309Y941D01*
X345Y941D02*
X367Y941D01*
X386Y941D02*
X408Y941D01*
X445Y941D02*
X467Y941D01*
X486Y941D02*
X508Y941D01*
X545Y941D02*
X567Y941D01*
X586Y941D02*
X608Y941D01*
X645Y941D02*
X667Y941D01*
X686Y941D02*
X708Y941D01*
X745Y941D02*
X767Y941D01*
X786Y941D02*
X808Y941D01*
X845Y941D02*
X867Y941D01*
X886Y941D02*
X908Y941D01*
X945Y941D02*
X967Y941D01*
X986Y941D02*
X1008Y941D01*
X1045Y941D02*
X1067Y941D01*
X1086Y941D02*
X1108Y941D01*
X1145Y941D02*
X1167Y941D01*
X1186Y941D02*
X1208Y941D01*
X1245Y941D02*
X1267Y941D01*
X1286Y941D02*
X1308Y941D01*
X1345Y941D02*
X1367Y941D01*
X1386Y941D02*
X1408Y941D01*
X1445Y941D02*
X1467Y941D01*
X1486Y941D02*
X1508Y941D01*
X246Y940D02*
X269Y940D01*
X284Y940D02*
X308Y940D01*
X346Y940D02*
X369Y940D01*
X384Y940D02*
X408Y940D01*
X446Y940D02*
X469Y940D01*
X484Y940D02*
X508Y940D01*
X545Y940D02*
X569Y940D01*
X584Y940D02*
X608Y940D01*
X645Y940D02*
X669Y940D01*
X684Y940D02*
X708Y940D01*
X745Y940D02*
X769Y940D01*
X784Y940D02*
X808Y940D01*
X845Y940D02*
X869Y940D01*
X884Y940D02*
X908Y940D01*
X945Y940D02*
X969Y940D01*
X984Y940D02*
X1008Y940D01*
X1045Y940D02*
X1069Y940D01*
X1084Y940D02*
X1108Y940D01*
X1145Y940D02*
X1169Y940D01*
X1184Y940D02*
X1208Y940D01*
X1245Y940D02*
X1269Y940D01*
X1284Y940D02*
X1308Y940D01*
X1345Y940D02*
X1369Y940D01*
X1384Y940D02*
X1408Y940D01*
X1445Y940D02*
X1469Y940D01*
X1484Y940D02*
X1508Y940D01*
X246Y939D02*
X273Y939D01*
X281Y939D02*
X308Y939D01*
X346Y939D02*
X373Y939D01*
X381Y939D02*
X407Y939D01*
X446Y939D02*
X472Y939D01*
X481Y939D02*
X507Y939D01*
X546Y939D02*
X572Y939D01*
X581Y939D02*
X607Y939D01*
X646Y939D02*
X672Y939D01*
X681Y939D02*
X707Y939D01*
X746Y939D02*
X772Y939D01*
X781Y939D02*
X807Y939D01*
X846Y939D02*
X872Y939D01*
X881Y939D02*
X907Y939D01*
X946Y939D02*
X972Y939D01*
X981Y939D02*
X1007Y939D01*
X1046Y939D02*
X1072Y939D01*
X1081Y939D02*
X1107Y939D01*
X1146Y939D02*
X1172Y939D01*
X1181Y939D02*
X1207Y939D01*
X1246Y939D02*
X1272Y939D01*
X1281Y939D02*
X1307Y939D01*
X1346Y939D02*
X1372Y939D01*
X1381Y939D02*
X1407Y939D01*
X1446Y939D02*
X1472Y939D01*
X1481Y939D02*
X1507Y939D01*
X247Y938D02*
X307Y938D01*
X347Y938D02*
X407Y938D01*
X447Y938D02*
X507Y938D01*
X547Y938D02*
X607Y938D01*
X646Y938D02*
X707Y938D01*
X746Y938D02*
X807Y938D01*
X846Y938D02*
X907Y938D01*
X946Y938D02*
X1007Y938D01*
X1046Y938D02*
X1107Y938D01*
X1146Y938D02*
X1207Y938D01*
X1246Y938D02*
X1307Y938D01*
X1346Y938D02*
X1407Y938D01*
X1446Y938D02*
X1507Y938D01*
X247Y937D02*
X306Y937D01*
X347Y937D02*
X406Y937D01*
X447Y937D02*
X506Y937D01*
X547Y937D02*
X606Y937D01*
X647Y937D02*
X706Y937D01*
X747Y937D02*
X806Y937D01*
X847Y937D02*
X906Y937D01*
X947Y937D02*
X1006Y937D01*
X1047Y937D02*
X1106Y937D01*
X1147Y937D02*
X1206Y937D01*
X1247Y937D02*
X1306Y937D01*
X1347Y937D02*
X1406Y937D01*
X1447Y937D02*
X1506Y937D01*
X248Y936D02*
X306Y936D01*
X348Y936D02*
X406Y936D01*
X448Y936D02*
X506Y936D01*
X548Y936D02*
X606Y936D01*
X648Y936D02*
X706Y936D01*
X748Y936D02*
X806Y936D01*
X848Y936D02*
X906Y936D01*
X948Y936D02*
X1006Y936D01*
X1048Y936D02*
X1106Y936D01*
X1148Y936D02*
X1206Y936D01*
X1248Y936D02*
X1306Y936D01*
X1348Y936D02*
X1406Y936D01*
X1448Y936D02*
X1506Y936D01*
X248Y935D02*
X305Y935D01*
X348Y935D02*
X405Y935D01*
X448Y935D02*
X505Y935D01*
X548Y935D02*
X605Y935D01*
X648Y935D02*
X705Y935D01*
X748Y935D02*
X805Y935D01*
X848Y935D02*
X905Y935D01*
X948Y935D02*
X1005Y935D01*
X1048Y935D02*
X1105Y935D01*
X1148Y935D02*
X1205Y935D01*
X1248Y935D02*
X1305Y935D01*
X1348Y935D02*
X1405Y935D01*
X1448Y935D02*
X1505Y935D01*
X249Y934D02*
X304Y934D01*
X349Y934D02*
X404Y934D01*
X449Y934D02*
X504Y934D01*
X549Y934D02*
X604Y934D01*
X649Y934D02*
X704Y934D01*
X749Y934D02*
X804Y934D01*
X849Y934D02*
X904Y934D01*
X949Y934D02*
X1004Y934D01*
X1049Y934D02*
X1104Y934D01*
X1149Y934D02*
X1204Y934D01*
X1249Y934D02*
X1304Y934D01*
X1349Y934D02*
X1404Y934D01*
X1449Y934D02*
X1504Y934D01*
X250Y933D02*
X304Y933D01*
X350Y933D02*
X404Y933D01*
X450Y933D02*
X504Y933D01*
X550Y933D02*
X604Y933D01*
X650Y933D02*
X704Y933D01*
X750Y933D02*
X804Y933D01*
X850Y933D02*
X904Y933D01*
X950Y933D02*
X1004Y933D01*
X1050Y933D02*
X1103Y933D01*
X1150Y933D02*
X1203Y933D01*
X1250Y933D02*
X1303Y933D01*
X1350Y933D02*
X1403Y933D01*
X1450Y933D02*
X1503Y933D01*
X251Y932D02*
X303Y932D01*
X351Y932D02*
X403Y932D01*
X451Y932D02*
X503Y932D01*
X551Y932D02*
X603Y932D01*
X651Y932D02*
X703Y932D01*
X751Y932D02*
X803Y932D01*
X851Y932D02*
X903Y932D01*
X951Y932D02*
X1003Y932D01*
X1051Y932D02*
X1103Y932D01*
X1151Y932D02*
X1203Y932D01*
X1251Y932D02*
X1303Y932D01*
X1351Y932D02*
X1403Y932D01*
X1450Y932D02*
X1503Y932D01*
X252Y931D02*
X302Y931D01*
X352Y931D02*
X402Y931D01*
X452Y931D02*
X502Y931D01*
X552Y931D02*
X602Y931D01*
X652Y931D02*
X702Y931D01*
X752Y931D02*
X802Y931D01*
X852Y931D02*
X902Y931D01*
X951Y931D02*
X1002Y931D01*
X1051Y931D02*
X1102Y931D01*
X1151Y931D02*
X1202Y931D01*
X1251Y931D02*
X1302Y931D01*
X1351Y931D02*
X1402Y931D01*
X1451Y931D02*
X1502Y931D01*
X253Y930D02*
X301Y930D01*
X353Y930D02*
X401Y930D01*
X452Y930D02*
X501Y930D01*
X552Y930D02*
X601Y930D01*
X652Y930D02*
X701Y930D01*
X752Y930D02*
X801Y930D01*
X852Y930D02*
X901Y930D01*
X952Y930D02*
X1001Y930D01*
X1052Y930D02*
X1101Y930D01*
X1152Y930D02*
X1201Y930D01*
X1252Y930D02*
X1301Y930D01*
X1352Y930D02*
X1401Y930D01*
X1452Y930D02*
X1501Y930D01*
X254Y929D02*
X300Y929D01*
X354Y929D02*
X400Y929D01*
X453Y929D02*
X500Y929D01*
X553Y929D02*
X600Y929D01*
X653Y929D02*
X700Y929D01*
X753Y929D02*
X800Y929D01*
X853Y929D02*
X900Y929D01*
X953Y929D02*
X1000Y929D01*
X1053Y929D02*
X1100Y929D01*
X1153Y929D02*
X1200Y929D01*
X1253Y929D02*
X1300Y929D01*
X1353Y929D02*
X1400Y929D01*
X1453Y929D02*
X1500Y929D01*
X255Y928D02*
X299Y928D01*
X355Y928D02*
X399Y928D01*
X455Y928D02*
X499Y928D01*
X555Y928D02*
X599Y928D01*
X655Y928D02*
X699Y928D01*
X755Y928D02*
X799Y928D01*
X854Y928D02*
X899Y928D01*
X954Y928D02*
X999Y928D01*
X1054Y928D02*
X1099Y928D01*
X1154Y928D02*
X1199Y928D01*
X1254Y928D02*
X1299Y928D01*
X1354Y928D02*
X1399Y928D01*
X1454Y928D02*
X1499Y928D01*
X256Y927D02*
X298Y927D01*
X356Y927D02*
X398Y927D01*
X456Y927D02*
X498Y927D01*
X556Y927D02*
X598Y927D01*
X656Y927D02*
X698Y927D01*
X756Y927D02*
X798Y927D01*
X856Y927D02*
X898Y927D01*
X956Y927D02*
X998Y927D01*
X1056Y927D02*
X1098Y927D01*
X1156Y927D02*
X1198Y927D01*
X1256Y927D02*
X1298Y927D01*
X1356Y927D02*
X1398Y927D01*
X1455Y927D02*
X1498Y927D01*
X257Y926D02*
X297Y926D01*
X357Y926D02*
X397Y926D01*
X457Y926D02*
X497Y926D01*
X557Y926D02*
X596Y926D01*
X657Y926D02*
X696Y926D01*
X757Y926D02*
X796Y926D01*
X857Y926D02*
X896Y926D01*
X957Y926D02*
X996Y926D01*
X1057Y926D02*
X1096Y926D01*
X1157Y926D02*
X1196Y926D01*
X1257Y926D02*
X1296Y926D01*
X1357Y926D02*
X1396Y926D01*
X1457Y926D02*
X1496Y926D01*
X258Y925D02*
X295Y925D01*
X358Y925D02*
X395Y925D01*
X458Y925D02*
X495Y925D01*
X558Y925D02*
X595Y925D01*
X658Y925D02*
X695Y925D01*
X758Y925D02*
X795Y925D01*
X858Y925D02*
X895Y925D01*
X958Y925D02*
X995Y925D01*
X1058Y925D02*
X1095Y925D01*
X1158Y925D02*
X1195Y925D01*
X1258Y925D02*
X1295Y925D01*
X1358Y925D02*
X1395Y925D01*
X1458Y925D02*
X1495Y925D01*
X260Y924D02*
X294Y924D01*
X360Y924D02*
X394Y924D01*
X460Y924D02*
X494Y924D01*
X560Y924D02*
X594Y924D01*
X660Y924D02*
X694Y924D01*
X760Y924D02*
X794Y924D01*
X860Y924D02*
X894Y924D01*
X960Y924D02*
X994Y924D01*
X1060Y924D02*
X1094Y924D01*
X1160Y924D02*
X1193Y924D01*
X1260Y924D02*
X1293Y924D01*
X1360Y924D02*
X1393Y924D01*
X1460Y924D02*
X1493Y924D01*
X262Y923D02*
X292Y923D01*
X362Y923D02*
X392Y923D01*
X462Y923D02*
X492Y923D01*
X562Y923D02*
X592Y923D01*
X661Y923D02*
X692Y923D01*
X761Y923D02*
X792Y923D01*
X861Y923D02*
X892Y923D01*
X961Y923D02*
X992Y923D01*
X1061Y923D02*
X1092Y923D01*
X1161Y923D02*
X1192Y923D01*
X1261Y923D02*
X1292Y923D01*
X1361Y923D02*
X1392Y923D01*
X1461Y923D02*
X1492Y923D01*
X264Y922D02*
X290Y922D01*
X363Y922D02*
X390Y922D01*
X463Y922D02*
X490Y922D01*
X563Y922D02*
X590Y922D01*
X663Y922D02*
X690Y922D01*
X763Y922D02*
X790Y922D01*
X863Y922D02*
X890Y922D01*
X963Y922D02*
X990Y922D01*
X1063Y922D02*
X1090Y922D01*
X1163Y922D02*
X1190Y922D01*
X1263Y922D02*
X1290Y922D01*
X1363Y922D02*
X1390Y922D01*
X1463Y922D02*
X1490Y922D01*
X266Y921D02*
X288Y921D01*
X366Y921D02*
X388Y921D01*
X466Y921D02*
X488Y921D01*
X566Y921D02*
X588Y921D01*
X666Y921D02*
X688Y921D01*
X766Y921D02*
X788Y921D01*
X866Y921D02*
X888Y921D01*
X966Y921D02*
X988Y921D01*
X1066Y921D02*
X1088Y921D01*
X1166Y921D02*
X1188Y921D01*
X1266Y921D02*
X1288Y921D01*
X1366Y921D02*
X1388Y921D01*
X1466Y921D02*
X1488Y921D01*
X269Y920D02*
X285Y920D01*
X369Y920D02*
X385Y920D01*
X469Y920D02*
X485Y920D01*
X569Y920D02*
X585Y920D01*
X669Y920D02*
X685Y920D01*
X769Y920D02*
X785Y920D01*
X869Y920D02*
X885Y920D01*
X969Y920D02*
X985Y920D01*
X1068Y920D02*
X1085Y920D01*
X1168Y920D02*
X1185Y920D01*
X1268Y920D02*
X1285Y920D01*
X1368Y920D02*
X1385Y920D01*
X1468Y920D02*
X1485Y920D01*
X273Y919D02*
X280Y919D01*
X373Y919D02*
X380Y919D01*
X473Y919D02*
X480Y919D01*
X573Y919D02*
X580Y919D01*
X673Y919D02*
X680Y919D01*
X773Y919D02*
X780Y919D01*
X873Y919D02*
X880Y919D01*
X973Y919D02*
X980Y919D01*
X1073Y919D02*
X1080Y919D01*
X1173Y919D02*
X1180Y919D01*
X1273Y919D02*
X1280Y919D01*
X1373Y919D02*
X1380Y919D01*
X1473Y919D02*
X1480Y919D01*
D02*
G04 End of Copper0*
M02*