; NON-PLATED HOLES START AT T1
; THROUGH (PLATED) HOLES START AT T100
M48
INCH
T100C0.035000
T101C0.030000
T102C0.015748
T103C0.038000
T104C0.041000
%
T100
X021553Y019738
X013797Y002337
X020729Y001945
X001975Y000559
X011002Y016313
X012419Y000565
X016356Y002337
X009860Y000565
X005923Y002337
X016002Y016313
X014002Y016313
X012002Y016313
X010002Y016313
X004534Y000559
X018994Y017966
X015002Y016313
X013002Y016313
X008482Y000565
X020729Y002945
X021553Y017966
X012419Y002337
X013797Y000565
X009860Y002337
X018994Y019738
X020729Y000945
X016356Y000565
X005923Y000565
X001975Y002331
X008482Y002337
X004534Y002331
X001002Y016313
X008002Y016313
X006002Y016313
X004002Y016313
X002002Y016313
X009002Y016313
X007002Y016313
X005002Y016313
X003002Y016313
T101
X006773Y009525
X009773Y010525
X012773Y010525
X005773Y009525
X008773Y010525
X011773Y010525
X006773Y010525
X002773Y009525
X005773Y010525
X002773Y010525
X014773Y009525
X013773Y009525
X014773Y010525
X007773Y009525
X013773Y010525
X010773Y009525
X004773Y009525
X007773Y010525
X010773Y010525
X003773Y009525
X004773Y010525
X003773Y010525
X009773Y009525
X012773Y009525
X008773Y009525
X011773Y009525
T102
X013947Y006757
X010254Y006982
X013994Y014069
X016750Y006037
X012458Y005447
X018443Y010525
X007380Y012376
X011986Y014055
X012325Y006779
X015057Y014069
T103
X021317Y014856
X021317Y012856
X017159Y014502
X016159Y014502
X021317Y013856
X021317Y011856
T104
X002891Y019777
X002891Y017777
X004891Y018777
T00
M30
